G04*
G04 #@! TF.GenerationSoftware,Altium Limited,Altium Designer,22.10.1 (41)*
G04*
G04 Layer_Physical_Order=1*
G04 Layer_Color=255*
%FSLAX44Y44*%
%MOMM*%
G71*
G04*
G04 #@! TF.SameCoordinates,F2AF2917-4C76-43AD-AFA2-84B4B2E1B19A*
G04*
G04*
G04 #@! TF.FilePolarity,Positive*
G04*
G01*
G75*
%ADD13R,7.0000X8.0000*%
G04:AMPARAMS|DCode=14|XSize=1.75mm|YSize=1.25mm|CornerRadius=0.3125mm|HoleSize=0mm|Usage=FLASHONLY|Rotation=180.000|XOffset=0mm|YOffset=0mm|HoleType=Round|Shape=RoundedRectangle|*
%AMROUNDEDRECTD14*
21,1,1.7500,0.6250,0,0,180.0*
21,1,1.1250,1.2500,0,0,180.0*
1,1,0.6250,-0.5625,0.3125*
1,1,0.6250,0.5625,0.3125*
1,1,0.6250,0.5625,-0.3125*
1,1,0.6250,-0.5625,-0.3125*
%
%ADD14ROUNDEDRECTD14*%
%ADD21C,0.5000*%
G04:AMPARAMS|DCode=22|XSize=1mm|YSize=3mm|CornerRadius=0.25mm|HoleSize=0mm|Usage=FLASHONLY|Rotation=180.000|XOffset=0mm|YOffset=0mm|HoleType=Round|Shape=RoundedRectangle|*
%AMROUNDEDRECTD22*
21,1,1.0000,2.5000,0,0,180.0*
21,1,0.5000,3.0000,0,0,180.0*
1,1,0.5000,-0.2500,1.2500*
1,1,0.5000,0.2500,1.2500*
1,1,0.5000,0.2500,-1.2500*
1,1,0.5000,-0.2500,-1.2500*
%
%ADD22ROUNDEDRECTD22*%
%ADD23C,2.0000*%
%ADD24C,0.7000*%
%ADD25C,1.5000*%
D13*
X3705000Y41016D02*
D03*
X5460000Y550000D02*
D03*
X5265000D02*
D03*
X5077740D02*
D03*
X4885970D02*
D03*
X4680000D02*
D03*
X4493320D02*
D03*
X4290000D02*
D03*
X4095000D02*
D03*
X3900000D02*
D03*
X3705000D02*
D03*
X3510000Y551016D02*
D03*
X3315000D02*
D03*
X3120000D02*
D03*
X2925000D02*
D03*
X2730000D02*
D03*
X2535000D02*
D03*
X2340000D02*
D03*
X2145000D02*
D03*
X1950000Y550000D02*
D03*
X1755000D02*
D03*
X1560000D02*
D03*
X1365000D02*
D03*
X1170000D02*
D03*
X975000D02*
D03*
X780000D02*
D03*
X585000D02*
D03*
X390000D02*
D03*
X195000D02*
D03*
X5460000Y41016D02*
D03*
X5267080D02*
D03*
X5070000D02*
D03*
X4875000D02*
D03*
X4680000D02*
D03*
X4485000D02*
D03*
X4290000D02*
D03*
X4095000D02*
D03*
X3900000D02*
D03*
X3510000D02*
D03*
X3315000D02*
D03*
X3120000D02*
D03*
X2925000D02*
D03*
X2730000D02*
D03*
X2535000D02*
D03*
X2340000D02*
D03*
X2145000D02*
D03*
X1950000D02*
D03*
X1755000D02*
D03*
X1560000D02*
D03*
X1365000D02*
D03*
X1170000D02*
D03*
X975000D02*
D03*
X780000D02*
D03*
X585000D02*
D03*
X390000D02*
D03*
X195000D02*
D03*
D14*
X5360000Y104250D02*
D03*
Y75750D02*
D03*
X5120000Y104250D02*
D03*
Y75750D02*
D03*
X4780000Y104250D02*
D03*
Y75750D02*
D03*
X4390000Y104250D02*
D03*
Y75750D02*
D03*
X4000000Y104250D02*
D03*
Y75750D02*
D03*
X3440000Y104250D02*
D03*
Y75750D02*
D03*
X3210000Y104250D02*
D03*
Y75750D02*
D03*
X2830000Y104250D02*
D03*
Y75750D02*
D03*
X2430000Y104250D02*
D03*
Y75750D02*
D03*
X2250000Y104250D02*
D03*
Y75750D02*
D03*
X490000Y104250D02*
D03*
Y75750D02*
D03*
X870000Y104250D02*
D03*
Y75750D02*
D03*
X1860000Y104250D02*
D03*
Y75750D02*
D03*
X5360000Y495750D02*
D03*
Y524250D02*
D03*
X4980000Y495750D02*
D03*
Y524250D02*
D03*
X4580000Y495750D02*
D03*
Y524250D02*
D03*
X4200000Y495750D02*
D03*
Y524250D02*
D03*
X3020000Y495750D02*
D03*
Y524250D02*
D03*
X3410000Y495750D02*
D03*
Y524250D02*
D03*
X2640000Y495750D02*
D03*
Y524250D02*
D03*
X2240000Y495750D02*
D03*
Y524250D02*
D03*
X1850000Y495750D02*
D03*
Y524250D02*
D03*
X1070000Y495750D02*
D03*
Y524250D02*
D03*
X690000Y495750D02*
D03*
Y524250D02*
D03*
X300000Y104250D02*
D03*
Y75750D02*
D03*
Y495750D02*
D03*
Y524250D02*
D03*
X1470000Y495750D02*
D03*
Y524250D02*
D03*
X1270000Y104250D02*
D03*
Y75750D02*
D03*
X3810000Y495750D02*
D03*
Y524250D02*
D03*
X3800000Y104250D02*
D03*
Y75750D02*
D03*
X1660000Y104250D02*
D03*
Y75750D02*
D03*
D21*
X1260000Y530000D02*
G03*
X1282500Y552500I0J22500D01*
G01*
X1225000Y555000D02*
G03*
X1250000Y530000I25000J0D01*
G01*
X1672500Y500400D02*
G03*
X1697900Y475000I25400J0D01*
G01*
X1660000Y490000D02*
G03*
X1672500Y502500I0J12500D01*
G01*
X1610000Y505000D02*
G03*
X1625000Y490000I15000J0D01*
G01*
X2037100Y510000D02*
G03*
X2062500Y535400I0J25400D01*
G01*
X1092500Y69600D02*
G03*
X1067100Y95000I-25400J0D01*
G01*
X1482500Y74600D02*
G03*
X1457100Y100000I-25400J0D01*
G01*
X1824250Y104250D02*
G03*
X1810000Y90000I0J-14250D01*
G01*
D02*
G03*
X1790000Y110000I-20000J0D01*
G01*
X1974600Y132500D02*
G03*
X2000000Y157900I0J25400D01*
G01*
X2025400Y510000D02*
G03*
X2000000Y484600I0J-25400D01*
G01*
X1885400Y132500D02*
G03*
X1860000Y107100I0J-25400D01*
G01*
X1810000Y75000D02*
G03*
X1835000Y50000I25000J0D01*
G01*
X1862500Y24600D02*
G03*
X1837100Y50000I-25400J0D01*
G01*
X1622100Y460000D02*
G03*
X1647500Y485400I0J25400D01*
G01*
X315000Y490000D02*
G03*
X309250Y495750I-5750J0D01*
G01*
X565000Y410000D02*
G03*
X572500Y402500I7500J0D01*
G01*
X690000Y495750D02*
G03*
X688166Y493916I0J-1834D01*
G01*
X690000Y345000D02*
G03*
X692500Y342500I2500J0D01*
G01*
X1070000Y495750D02*
G03*
X1068998Y494748I0J-1002D01*
G01*
X1070000Y285000D02*
G03*
X1072500Y282500I2500J0D01*
G01*
X1466985Y223758D02*
G03*
X1468242Y222500I1258J0D01*
G01*
X1850000Y495750D02*
G03*
X1850750Y495000I750J0D01*
G01*
X1870000Y165000D02*
G03*
X1872500Y162500I2500J0D01*
G01*
X1940000Y432500D02*
G03*
X1932500Y440000I-7500J0D01*
G01*
X325400D02*
G03*
X300000Y414600I0J-25400D01*
G01*
X559600Y104250D02*
G03*
X585000Y129650I0J25400D01*
G01*
X610400Y372500D02*
G03*
X585000Y347100I0J-25400D01*
G01*
X895400Y312500D02*
G03*
X870000Y287100I0J-25400D01*
G01*
X1295400Y252500D02*
G03*
X1270000Y227100I0J-25400D01*
G01*
X1685400Y192500D02*
G03*
X1660000Y167100I0J-25400D01*
G01*
X5220000Y489600D02*
G03*
X5194600Y515000I-25400J0D01*
G01*
X5160000Y540000D02*
G03*
X5185000Y515000I25000J0D01*
G01*
X4777500Y505400D02*
G03*
X4802900Y480000I25400J0D01*
G01*
X4395000Y540000D02*
G03*
X4412500Y557500I0J17500D01*
G01*
X4350000Y565400D02*
G03*
X4375400Y540000I25400J0D01*
G01*
X3860400Y120000D02*
G03*
X3835000Y94600I0J-25400D01*
G01*
X3812500Y20000D02*
G03*
X3835000Y42500I0J22500D01*
G01*
X4590000Y60000D02*
G03*
X4575000Y45000I0J-15000D01*
G01*
X4625000Y34600D02*
G03*
X4599600Y60000I-25400J0D01*
G01*
X4990000Y70000D02*
G03*
X4970000Y50000I0J-20000D01*
G01*
X5025500Y44600D02*
G03*
X5000100Y70000I-25400J0D01*
G01*
X3774600Y41016D02*
G03*
X3777102Y41140I0J25400D01*
G01*
X3784557Y43491D02*
G03*
X3786695Y44080I-227J4995D01*
G01*
X3777102Y41140D02*
G03*
X3779208Y41852I-509J4974D01*
G01*
X3786695Y44080D02*
G03*
X3800000Y66416I-12095J22336D01*
G01*
X3784557Y43491D02*
G03*
X3779208Y41852I443J-10991D01*
G01*
X3810000Y495750D02*
G03*
X3810750Y495000I750J0D01*
G01*
X4200000Y355000D02*
G03*
X4212500Y342500I12500J0D01*
G01*
X5334600Y162500D02*
G03*
X5360000Y187900I0J25400D01*
G01*
X3825400Y432500D02*
G03*
X3800000Y407100I0J-25400D01*
G01*
X4025400Y372500D02*
G03*
X4000000Y347100I0J-25400D01*
G01*
X4415400Y312500D02*
G03*
X4390000Y287100I0J-25400D01*
G01*
X4805400Y252500D02*
G03*
X4780000Y227100I0J-25400D01*
G01*
X5145400Y192500D02*
G03*
X5120000Y167100I0J-25400D01*
G01*
X5360000Y107100D02*
G03*
X5334600Y132500I-25400J0D01*
G01*
X3499600Y406198D02*
G03*
X3525000Y431598I0J25400D01*
G01*
X3615000Y545000D02*
G03*
X3622500Y552500I0J7500D01*
G01*
X3575000Y555000D02*
G03*
X3585000Y545000I10000J0D01*
G01*
X3210000D02*
G03*
X3232500Y567500I0J22500D01*
G01*
X3180000Y555000D02*
G03*
X3190000Y545000I10000J0D01*
G01*
X2825000Y540000D02*
G03*
X2842500Y557500I0J17500D01*
G01*
X2785000Y555000D02*
G03*
X2800000Y540000I15000J0D01*
G01*
X3432500Y32500D02*
G03*
X3415000Y50000I-17500J0D01*
G01*
X3405000D02*
G03*
X3385000Y30000I0J-20000D01*
G01*
X3042500Y42500D02*
G03*
X3035000Y50000I-7500J0D01*
G01*
X3015000D02*
G03*
X2995000Y30000I0J-20000D01*
G01*
X2650000Y35000D02*
G03*
X2630000Y55000I-20000J0D01*
G01*
X2620400D02*
G03*
X2595000Y29600I0J-25400D01*
G01*
X3410000Y495750D02*
G03*
X3410750Y495000I750J0D01*
G01*
X3505000Y175000D02*
G03*
X3515000Y165000I10000J0D01*
G01*
X2275400Y375000D02*
G03*
X2250000Y349600I0J-25400D01*
G01*
X2455400Y315000D02*
G03*
X2430000Y289600I0J-25400D01*
G01*
X2855400Y255000D02*
G03*
X2830000Y229600I0J-25400D01*
G01*
X3235400Y195000D02*
G03*
X3210000Y169600I0J-25400D01*
G01*
X3465400Y135000D02*
G03*
X3440000Y109600I0J-25400D01*
G01*
X2228584Y45000D02*
G03*
X2250000Y66416I0J21416D01*
G01*
X1860000D02*
G03*
X1885400Y41016I25400J0D01*
G01*
X274600D02*
G03*
X300000Y66416I0J25400D01*
G01*
X464600Y41016D02*
G03*
X490000Y66416I0J25400D01*
G01*
D02*
G03*
X515400Y41016I25400J0D01*
G01*
X844600D02*
G03*
X870000Y66416I0J25400D01*
G01*
D02*
G03*
X895400Y41016I25400J0D01*
G01*
X1244600D02*
G03*
X1270000Y66416I0J25400D01*
G01*
D02*
G03*
X1295400Y41016I25400J0D01*
G01*
X1634600D02*
G03*
X1660000Y66416I0J25400D01*
G01*
D02*
G03*
X1685400Y41016I25400J0D01*
G01*
X2404600D02*
G03*
X2430000Y66416I0J25400D01*
G01*
D02*
G03*
X2455400Y41016I25400J0D01*
G01*
X2804600D02*
G03*
X2830000Y66416I0J25400D01*
G01*
D02*
G03*
X2855400Y41016I25400J0D01*
G01*
X3210000Y66416D02*
G03*
X3235400Y41016I25400J0D01*
G01*
X3184600D02*
G03*
X3210000Y66416I0J25400D01*
G01*
X3440000D02*
G03*
X3465400Y41016I25400J0D01*
G01*
X3974600D02*
G03*
X4000000Y66416I0J25400D01*
G01*
D02*
G03*
X4025400Y41016I25400J0D01*
G01*
X4364600D02*
G03*
X4390000Y66416I0J25400D01*
G01*
D02*
G03*
X4415400Y41016I25400J0D01*
G01*
X4754600D02*
G03*
X4780000Y66416I0J25400D01*
G01*
D02*
G03*
X4805400Y41016I25400J0D01*
G01*
X5120000Y66416D02*
G03*
X5145400Y41016I25400J0D01*
G01*
X5094600D02*
G03*
X5120000Y66416I0J25400D01*
G01*
X5360000D02*
G03*
X5385400Y41016I25400J0D01*
G01*
Y550000D02*
G03*
X5360000Y524600I0J-25400D01*
G01*
D02*
G03*
X5334600Y550000I-25400J0D01*
G01*
X5005400D02*
G03*
X4980000Y524600I0J-25400D01*
G01*
D02*
G03*
X4954600Y550000I-25400J0D01*
G01*
X4605400D02*
G03*
X4580000Y524600I0J-25400D01*
G01*
D02*
G03*
X4554600Y550000I-25400J0D01*
G01*
X4225400D02*
G03*
X4200000Y524600I0J-25400D01*
G01*
D02*
G03*
X4174600Y550000I-25400J0D01*
G01*
X3835400D02*
G03*
X3810000Y524600I0J-25400D01*
G01*
D02*
G03*
X3784600Y550000I-25400J0D01*
G01*
X3410000Y525616D02*
G03*
X3384600Y551016I-25400J0D01*
G01*
X3435400D02*
G03*
X3410000Y525616I0J-25400D01*
G01*
X3045400Y551016D02*
G03*
X3020000Y525616I0J-25400D01*
G01*
D02*
G03*
X2994600Y551016I-25400J0D01*
G01*
X2640000Y525616D02*
G03*
X2614600Y551016I-25400J0D01*
G01*
X2665400D02*
G03*
X2640000Y525616I0J-25400D01*
G01*
X2240000D02*
G03*
X2214600Y551016I-25400J0D01*
G01*
X2265400D02*
G03*
X2240000Y525616I0J-25400D01*
G01*
X1875400Y550000D02*
G03*
X1850000Y524600I0J-25400D01*
G01*
D02*
G03*
X1824600Y550000I-25400J0D01*
G01*
X1495400D02*
G03*
X1470000Y524600I0J-25400D01*
G01*
D02*
G03*
X1444600Y550000I-25400J0D01*
G01*
X1095400D02*
G03*
X1070000Y524600I0J-25400D01*
G01*
D02*
G03*
X1044600Y550000I-25400J0D01*
G01*
X715400D02*
G03*
X690000Y524600I0J-25400D01*
G01*
D02*
G03*
X664600Y550000I-25400J0D01*
G01*
X325400D02*
G03*
X300000Y524600I0J-25400D01*
G01*
D02*
G03*
X274600Y550000I-25400J0D01*
G01*
X1250000Y530000D02*
X1260000D01*
X1282500Y552500D02*
Y570000D01*
X1672500Y500400D02*
Y502500D01*
Y570000D01*
X1610000Y505000D02*
Y530000D01*
X1697900Y475000D02*
X1895000D01*
X1045000Y95000D02*
X1067100D01*
X1092500Y20000D02*
Y69600D01*
X1430000Y100000D02*
X1457100D01*
X1482500Y20000D02*
Y74600D01*
X1755000Y110000D02*
X1790000D01*
X1810000Y75000D02*
Y90000D01*
X1885400Y132500D02*
X1940000D01*
X1974600D01*
X2025400Y510000D02*
X2037100D01*
X2000000Y157900D02*
Y484600D01*
X2062500Y535400D02*
Y570000D01*
X1860000Y104250D02*
Y107100D01*
X1824250Y104250D02*
X1860000D01*
X1835000Y50000D02*
X1837100D01*
X1862500Y20000D02*
Y24600D01*
X400000Y460000D02*
X1622100D01*
X1647500Y485400D02*
Y570000D01*
X314459Y490000D02*
X315000D01*
X300000Y495750D02*
X309250D01*
X300000D02*
X303364Y492386D01*
X572500Y402500D02*
X1940000D01*
X688166Y482414D02*
Y493916D01*
X692500Y342500D02*
X1940000D01*
X1068998Y484030D02*
Y494748D01*
X1072500Y282500D02*
X1940000D01*
X1468242Y222500D02*
X1940000D01*
X1470000Y485000D02*
Y495750D01*
X1850750Y495000D02*
X1865000D01*
X1872500Y162500D02*
X1940000D01*
Y432500D02*
Y462500D01*
X325400Y440000D02*
X1932500D01*
X300000Y104250D02*
Y414600D01*
X490000Y104250D02*
X559600D01*
X610400Y372500D02*
X1940000D01*
X585000Y129650D02*
Y347100D01*
X870000Y104250D02*
Y287100D01*
X895400Y312500D02*
X1940000D01*
X1270000Y104250D02*
Y227100D01*
X1295400Y252500D02*
X1940000D01*
X1660000Y104250D02*
Y167100D01*
X1685400Y192500D02*
X1940000D01*
X5190000Y132500D02*
X5334600D01*
X5185000Y515000D02*
X5194600D01*
X5160000Y540000D02*
Y570000D01*
X5220000Y185000D02*
Y489600D01*
X4802900Y480000D02*
X4915000D01*
X4777500Y505400D02*
Y570000D01*
X4412500Y557500D02*
Y570000D01*
X4375400Y540000D02*
X4395000D01*
X4350000Y565400D02*
Y570000D01*
X3835000Y42500D02*
Y94600D01*
X3860400Y120000D02*
X3915000D01*
X4575000Y20000D02*
Y45000D01*
X4590000Y60000D02*
X4599600D01*
X4625000Y20000D02*
Y34600D01*
X4970000Y20000D02*
Y50000D01*
X4990000Y70000D02*
X5000100D01*
X5025500Y20000D02*
Y44600D01*
X3705000Y41016D02*
X3774600D01*
X3800000Y66416D02*
Y75750D01*
X3825400Y432500D02*
X5190000D01*
Y462500D01*
X4200000Y485000D02*
Y495750D01*
X3845000Y405000D02*
X5187500D01*
X5190000Y402500D01*
X3810750Y495000D02*
X3835000D01*
X4212500Y342500D02*
X5190000D01*
X5085000Y280000D02*
X5187500D01*
X5190000Y282500D01*
X4580000Y445000D02*
Y495750D01*
X5110000Y220000D02*
X5187500D01*
X5190000Y222500D01*
X4980000Y455000D02*
Y495750D01*
X5190000Y162500D02*
X5334600D01*
X5360000Y187900D02*
Y495750D01*
X3800000Y104250D02*
Y407100D01*
X4000000Y104250D02*
Y347100D01*
X4025400Y372500D02*
X5190000D01*
X4390000Y104250D02*
Y287100D01*
X4415400Y312500D02*
X5190000D01*
X4780000Y104250D02*
Y227100D01*
X4805400Y252500D02*
X5190000D01*
X5120000Y104250D02*
Y167100D01*
X5145400Y192500D02*
X5190000D01*
X5360000Y104250D02*
Y107100D01*
X3400400Y406198D02*
X3499600D01*
X3525000Y431598D02*
Y470000D01*
X3585000Y545000D02*
X3615000D01*
X3622500Y552500D02*
Y570000D01*
X3190000Y545000D02*
X3210000D01*
X3232500Y567500D02*
Y570000D01*
X2842500Y557500D02*
Y570000D01*
X2800000Y540000D02*
X2825000D01*
X3465400Y135000D02*
X3565000D01*
X3432500Y20000D02*
Y32500D01*
X3405000Y50000D02*
X3415000D01*
X3042500Y20000D02*
Y42500D01*
X3015000Y50000D02*
X3035000D01*
X2650000Y30000D02*
Y35000D01*
X2620400Y55000D02*
X2630000D01*
X2595000Y25000D02*
Y29600D01*
X2240000Y440000D02*
Y495750D01*
X3420000Y345000D02*
Y345000D01*
X3565000D01*
X3020000Y475000D02*
Y495750D01*
X2640000Y475000D02*
Y495750D01*
X3445000Y285000D02*
Y285000D01*
X3565000D01*
X3475000Y225000D02*
X3565000D01*
X3410750Y495000D02*
X3445000D01*
X3515000Y165000D02*
X3565000D01*
X2275400Y375000D02*
X3565000D01*
Y435000D02*
Y465000D01*
Y405000D02*
Y435000D01*
Y375000D02*
Y405000D01*
X2250000Y104250D02*
Y349600D01*
X2430000Y104250D02*
Y289600D01*
X2455400Y315000D02*
X3565000D01*
X2830000Y104250D02*
Y229600D01*
X2855400Y255000D02*
X3565000D01*
X3210000Y104250D02*
Y169600D01*
X3235400Y195000D02*
X3565000D01*
X3440000Y104250D02*
Y109600D01*
X2145000Y41016D02*
X2148984Y45000D01*
X2228584D01*
X1860000Y66416D02*
Y75750D01*
X1885400Y41016D02*
X1950000D01*
X1856383Y72590D02*
Y72625D01*
X1856367Y73633D02*
X1856383Y72625D01*
X195000Y41016D02*
X274600D01*
X300000Y66416D02*
Y75750D01*
X490000Y66416D02*
Y75750D01*
X515400Y41016D02*
X585000D01*
X390000D02*
X464600D01*
X870000Y66416D02*
Y75750D01*
X895400Y41016D02*
X975000D01*
X780000D02*
X844600D01*
X1270000Y66416D02*
Y75750D01*
X1295400Y41016D02*
X1365000D01*
X1170000D02*
X1244600D01*
X1660000Y66416D02*
Y75750D01*
X1685400Y41016D02*
X1755000D01*
X1560000D02*
X1634600D01*
X2250000Y66416D02*
Y75750D01*
X2430000Y66416D02*
Y75750D01*
X2455400Y41016D02*
X2535000D01*
X2340000D02*
X2404600D01*
X2830000Y66416D02*
Y75750D01*
X2855400Y41016D02*
X2925000D01*
X2730000D02*
X2804600D01*
X3210000Y66416D02*
Y75750D01*
X3120000Y41016D02*
X3184600D01*
X3235400D02*
X3315000D01*
X3440000Y66416D02*
Y75750D01*
X3465400Y41016D02*
X3510000D01*
X4000000Y66416D02*
Y75750D01*
X4025400Y41016D02*
X4095000D01*
X3900000D02*
X3974600D01*
X4390000Y66416D02*
Y75750D01*
X4415400Y41016D02*
X4485000D01*
X4290000D02*
X4364600D01*
X4780000Y66416D02*
Y75750D01*
X4805400Y41016D02*
X4875000D01*
X4680000D02*
X4754600D01*
X5120000Y66416D02*
Y75750D01*
X5070000Y41016D02*
X5094600D01*
X5145400D02*
X5267080D01*
X5360000Y66416D02*
Y75750D01*
X5385400Y41016D02*
X5460000D01*
X5385400Y550000D02*
X5460000D01*
X5360000Y524250D02*
Y524600D01*
X5265000Y550000D02*
X5334600D01*
X5005400D02*
X5077740D01*
X4980000Y524250D02*
Y524600D01*
X4885970Y550000D02*
X4954600D01*
X4605400D02*
X4680000D01*
X4580000Y524250D02*
Y524600D01*
X4493320Y550000D02*
X4554600D01*
X4225400D02*
X4290000D01*
X4200000Y524250D02*
Y524600D01*
X4095000Y550000D02*
X4174600D01*
X3835400D02*
X3900000D01*
X3810000Y524250D02*
Y524600D01*
X3705000Y550000D02*
X3784600D01*
X3435400Y551016D02*
X3510000D01*
X3410000Y524250D02*
Y525616D01*
X3315000Y551016D02*
X3384600D01*
X3045400D02*
X3120000D01*
X3020000Y524250D02*
Y525616D01*
X2925000Y551016D02*
X2994600D01*
X2665400D02*
X2730000D01*
X2640000Y524250D02*
Y525616D01*
X2535000Y551016D02*
X2614600D01*
X2265400D02*
X2340000D01*
X2240000Y524250D02*
Y525616D01*
X2145000Y551016D02*
X2214600D01*
X1875400Y550000D02*
X1950000D01*
X1850000Y524250D02*
Y524600D01*
X1755000Y550000D02*
X1824600D01*
X1495400D02*
X1560000D01*
X1470000Y524250D02*
Y524600D01*
X1365000Y550000D02*
X1444600D01*
X1095400D02*
X1170000D01*
X1070000Y524250D02*
Y524600D01*
X975000Y550000D02*
X1044600D01*
X715400D02*
X780000D01*
X690000Y524250D02*
Y524600D01*
X585000Y550000D02*
X664600D01*
X325400D02*
X390000D01*
X300000Y524250D02*
Y524600D01*
X195000Y550000D02*
X274600D01*
D22*
X3017500Y20000D02*
D03*
X3042500D02*
D03*
X3407500D02*
D03*
X3432500D02*
D03*
X3597500Y570000D02*
D03*
X3622500D02*
D03*
X1257500D02*
D03*
X1282500D02*
D03*
X1457500Y20000D02*
D03*
X1482500D02*
D03*
X4387500Y570000D02*
D03*
X4187500Y20000D02*
D03*
X3987500Y570000D02*
D03*
X3787500Y20000D02*
D03*
X702500D02*
D03*
X677500D02*
D03*
X892500Y570000D02*
D03*
X867500D02*
D03*
X1092500Y20000D02*
D03*
X1067500D02*
D03*
X2817500Y570000D02*
D03*
X2627500Y20000D02*
D03*
X2427500Y570000D02*
D03*
X2237500Y20000D02*
D03*
X4777500Y570000D02*
D03*
X4802500D02*
D03*
X4012500D02*
D03*
X4412500D02*
D03*
X2452500D02*
D03*
X2062500D02*
D03*
X2037500D02*
D03*
X3232500D02*
D03*
X3207500D02*
D03*
X2842500D02*
D03*
X1672500D02*
D03*
X1647500D02*
D03*
X4575000Y20000D02*
D03*
X4600000D02*
D03*
X4212500D02*
D03*
X3812500D02*
D03*
X2652500D02*
D03*
X1862500D02*
D03*
X1837500D02*
D03*
X2262500D02*
D03*
X4970000D02*
D03*
X4995000D02*
D03*
X5160000Y570000D02*
D03*
X5185000D02*
D03*
D23*
X3565000Y465000D02*
D03*
Y435000D02*
D03*
Y405000D02*
D03*
Y375000D02*
D03*
Y345000D02*
D03*
Y315000D02*
D03*
Y285000D02*
D03*
Y255000D02*
D03*
Y225000D02*
D03*
Y195000D02*
D03*
Y135000D02*
D03*
Y165000D02*
D03*
X460000Y180000D02*
D03*
Y210000D02*
D03*
Y240000D02*
D03*
Y270000D02*
D03*
Y300000D02*
D03*
Y330000D02*
D03*
Y390000D02*
D03*
Y360000D02*
D03*
X2085000Y195000D02*
D03*
Y225000D02*
D03*
Y255000D02*
D03*
Y285000D02*
D03*
Y315000D02*
D03*
Y345000D02*
D03*
Y405000D02*
D03*
Y375000D02*
D03*
X1940000Y162500D02*
D03*
Y132500D02*
D03*
Y192500D02*
D03*
Y222500D02*
D03*
Y252500D02*
D03*
Y282500D02*
D03*
Y312500D02*
D03*
Y342500D02*
D03*
Y372500D02*
D03*
Y402500D02*
D03*
Y432500D02*
D03*
Y462500D02*
D03*
X3710000Y190000D02*
D03*
Y220000D02*
D03*
Y250000D02*
D03*
Y280000D02*
D03*
Y310000D02*
D03*
Y340000D02*
D03*
Y400000D02*
D03*
Y370000D02*
D03*
X5190000Y162500D02*
D03*
Y132500D02*
D03*
Y192500D02*
D03*
Y222500D02*
D03*
Y252500D02*
D03*
Y282500D02*
D03*
Y312500D02*
D03*
Y342500D02*
D03*
Y372500D02*
D03*
Y402500D02*
D03*
Y432500D02*
D03*
Y462500D02*
D03*
D24*
X680000Y30000D02*
D03*
Y10000D02*
D03*
X700000D02*
D03*
Y30000D02*
D03*
X1070000D02*
D03*
Y10000D02*
D03*
X1090000D02*
D03*
Y30000D02*
D03*
X1480000Y10000D02*
D03*
X1460000D02*
D03*
Y30000D02*
D03*
X1480000D02*
D03*
X1860000D02*
D03*
Y10000D02*
D03*
X1840000D02*
D03*
Y30000D02*
D03*
X2630000D02*
D03*
X3020000D02*
D03*
X3040000D02*
D03*
X3410000D02*
D03*
X3430000D02*
D03*
X4210000D02*
D03*
X4970000D02*
D03*
X4995000Y10000D02*
D03*
Y30000D02*
D03*
X5160000Y560000D02*
D03*
X4800000D02*
D03*
X4780000D02*
D03*
X4410000D02*
D03*
X3620000D02*
D03*
X3600000D02*
D03*
X3230000D02*
D03*
X3210000D02*
D03*
X2820000D02*
D03*
X2840000D02*
D03*
X2060000Y580000D02*
D03*
Y560000D02*
D03*
X2040000D02*
D03*
Y580000D02*
D03*
X1650000D02*
D03*
Y560000D02*
D03*
X1670000D02*
D03*
Y580000D02*
D03*
X1280000D02*
D03*
Y560000D02*
D03*
X1260000D02*
D03*
Y580000D02*
D03*
X890000D02*
D03*
Y560000D02*
D03*
X870000D02*
D03*
Y580000D02*
D03*
X1225000Y555000D02*
D03*
X1660000Y490000D02*
D03*
X1625000D02*
D03*
X1610000Y530000D02*
D03*
X1895000Y475000D02*
D03*
X1045000Y95000D02*
D03*
X1430000Y100000D02*
D03*
X1755000Y110000D02*
D03*
X400000Y460000D02*
D03*
X315000Y490000D02*
D03*
X565000Y410000D02*
D03*
X688166Y482414D02*
D03*
X690000Y345000D02*
D03*
X1068998Y484030D02*
D03*
X1070000Y285000D02*
D03*
X1470000Y485000D02*
D03*
X1466985Y223758D02*
D03*
X1865000Y495000D02*
D03*
X1870000Y165000D02*
D03*
X5220000Y185000D02*
D03*
X4915000Y480000D02*
D03*
X4350000Y570000D02*
D03*
X3915000Y120000D02*
D03*
X4600000Y30000D02*
D03*
X4575000D02*
D03*
X4625000Y20000D02*
D03*
X5025500D02*
D03*
X5185000Y580000D02*
D03*
Y560000D02*
D03*
X4575000Y10000D02*
D03*
X4200000Y485000D02*
D03*
X3845000Y405000D02*
D03*
X3835000Y495000D02*
D03*
X4200000Y355000D02*
D03*
X4580000Y445000D02*
D03*
X5085000Y280000D02*
D03*
X5110000Y220000D02*
D03*
X4980000Y455000D02*
D03*
X3525000Y470000D02*
D03*
X3400400Y406198D02*
D03*
X3575000Y555000D02*
D03*
X3180000D02*
D03*
X2785000D02*
D03*
X3385000Y30000D02*
D03*
X2995000D02*
D03*
X2595000Y25000D02*
D03*
X3040000Y10000D02*
D03*
X3020000D02*
D03*
X3430000D02*
D03*
X3410000D02*
D03*
X2240000Y440000D02*
D03*
X3420000Y345000D02*
D03*
X3020000Y475000D02*
D03*
X2640000D02*
D03*
X3445000Y285000D02*
D03*
X3475000Y225000D02*
D03*
X3445000Y495000D02*
D03*
X3505000Y175000D02*
D03*
X3790000Y30000D02*
D03*
Y10000D02*
D03*
X4190000D02*
D03*
Y30000D02*
D03*
X3990000Y560000D02*
D03*
X4390000Y580000D02*
D03*
Y560000D02*
D03*
X3990000Y580000D02*
D03*
X2450000Y560000D02*
D03*
Y580000D02*
D03*
X2840000D02*
D03*
X3230000D02*
D03*
X3210000D02*
D03*
X3600000D02*
D03*
X3620000D02*
D03*
X4010000D02*
D03*
Y560000D02*
D03*
X4410000Y580000D02*
D03*
X4800000D02*
D03*
X4780000D02*
D03*
X5160000D02*
D03*
X4970000Y10000D02*
D03*
X4600000D02*
D03*
X4210000D02*
D03*
X3810000Y30000D02*
D03*
Y10000D02*
D03*
X2650000Y30000D02*
D03*
Y10000D02*
D03*
X2260000Y30000D02*
D03*
Y10000D02*
D03*
X2240000Y30000D02*
D03*
Y10000D02*
D03*
X2630000D02*
D03*
X2820000Y580000D02*
D03*
X2430000D02*
D03*
Y560000D02*
D03*
D25*
X5171000Y491000D02*
D03*
X5171000Y101000D02*
D03*
X3729000Y161500D02*
D03*
X3729000Y431500D02*
D03*
X1921000Y491000D02*
D03*
X1921000Y101000D02*
D03*
X2104000Y166500D02*
D03*
X2104000Y436500D02*
D03*
X479000Y151500D02*
D03*
X479000Y421500D02*
D03*
X3546000Y103500D02*
D03*
X3546000Y493500D02*
D03*
M02*
