M48
;Layer_Color=9474304
;FILE_FORMAT=4:4
METRIC,LZ
;TYPE=PLATED
T1F00S00C0.2000
T2F00S00C0.3000
T3F00S00C1.0200
T4F00S00C1.5000
%
T01
X0068Y0001
Y0003
X007
Y0001
X0107
Y0003
X0109
Y0001
X0146
Y0003
X0148
Y0001
X0184
X0186
Y0003
X0184
X0224
Y0001
X0226
Y0003
X0263
Y0001
X0265
Y0003
X0302
X0304
Y0001
X0302
X0341
Y0003
X0343
Y0001
X0379
Y0003
X0381
Y0001
X0419
Y0003
X0421
Y0001
X04575
Y0003
X046
Y0001
X0497
Y0003
X04995
Y0001
X0516Y0056
Y0058
X05185
Y0056
X048
X0478
Y0058
X048
X0441
X0439
Y0056
X0441
X0401
X0399
Y0058
X0401
X0362
Y0056
X036
Y0058
X0323
X0321
Y0056
X0323
X0284
X0282
Y0058
X0284
X0245
Y0056
X0243
Y0058
X0206
X0204
Y0056
X0206
X0167
X0165
Y0058
X0167
X0128
Y0056
X0126
Y0058
X0089
X0087
Y0056
X0089
T02
X0069Y00345
X0107Y00285
X01045Y00095
X0143Y001
X01466985Y00223758
X01755Y0011
X0187Y00165
X02595Y00025
X02995Y0003
X03385
X03505Y00175
X03475Y00225
X03445Y00285
X0342Y00345
X03915Y0012
X042Y00355
X04625Y0002
X050255
X0511Y0022
X05085Y0028
X0522Y00185
X0498Y00455
X04915Y0048
X0458Y00445
X0435Y0057
X042Y00485
X03835Y00495
X03845Y00405
X03575Y00555
X03525Y0047
X03445Y00495
X034004Y00406198
X0318Y00555
X0302Y00475
X02785Y00555
X0264Y00475
X0224Y0044
X01895Y00475
X01865Y00495
X0166Y0049
X01625
X0161Y0053
X0147Y00485
X01225Y00555
X01068998Y0048403
X00688166Y00482414
X00565Y0041
X004Y0046
X00315Y0049
T03
X0046Y0018
Y0021
Y0024
Y0027
Y003
Y0033
Y0036
Y0039
X0194Y003725
Y003425
Y003125
Y002825
Y002525
Y002225
Y001925
Y001625
Y001325
X02085Y00195
Y00225
Y00255
Y00285
Y00315
Y00345
Y00375
X03565
Y00345
Y00315
Y00285
Y00255
Y00225
Y00195
Y00165
Y00135
X0371Y0019
Y0022
Y0025
Y0028
Y0031
Y0034
Y0037
X0519Y003725
Y003425
Y003125
Y002825
Y002525
Y002225
Y001925
Y001625
Y001325
Y004025
Y004325
Y004625
X0371Y004
X03565Y00405
Y00435
Y00465
X02085Y00405
X0194Y004025
Y004325
Y004625
T04
X00479Y001515
X01921Y00101
X02104Y001665
X03546Y001035
X03729Y001615
X05171Y00101
X05171Y00491
X03729Y004315
X03546Y004935
X02104Y004365
X01921Y00491
X00479Y004215
M30
