G04*
G04 #@! TF.GenerationSoftware,Altium Limited,Altium Designer,22.10.1 (41)*
G04*
G04 Layer_Color=2752767*
%FSLAX44Y44*%
%MOMM*%
G71*
G04*
G04 #@! TF.SameCoordinates,0376FF6A-1FAD-4C37-96A4-310D14FBCFE1*
G04*
G04*
G04 #@! TF.FilePolarity,Positive*
G04*
G01*
G75*
%ADD30C,0.0508*%
%ADD31C,0.0677*%
D30*
X3922968Y197968D02*
Y202032D01*
X3927032D01*
Y197968D01*
X3922968D01*
Y387968D02*
Y392032D01*
X3927032D01*
Y387968D01*
X3922968D01*
X1722900Y197913D02*
Y201977D01*
X1726964D01*
Y197913D01*
X1722900D01*
Y387913D02*
Y391977D01*
X1726964D01*
Y387913D01*
X1722900D01*
X522968Y197968D02*
Y202032D01*
X527032D01*
Y197968D01*
X522968D01*
Y387968D02*
Y392032D01*
X527032D01*
Y387968D01*
X522968D01*
X3422968D02*
Y392032D01*
X3427032D01*
Y387968D01*
X3422968D01*
X5122968Y387956D02*
Y392020D01*
X5127032D01*
Y387956D01*
X5122968D01*
X2222968Y387968D02*
Y392032D01*
X2227032D01*
Y387968D01*
X2222968D01*
X3422968Y197968D02*
Y202032D01*
X3427032D01*
Y197968D01*
X3422968D01*
X5122968D02*
Y202032D01*
X5127032D01*
Y197968D01*
X5122968D01*
X2222968D02*
Y202032D01*
X2227032D01*
Y197968D01*
X2222968D01*
X3565000Y462968D02*
X3562968Y467032D01*
X3567032D01*
X3565000Y462968D01*
Y432968D02*
X3562968Y437032D01*
X3567032D01*
X3565000Y432968D01*
Y402968D02*
X3562968Y407032D01*
X3567032D01*
X3565000Y402968D01*
Y372968D02*
X3562968Y377032D01*
X3567032D01*
X3565000Y372968D01*
Y342968D02*
X3562968Y347032D01*
X3567032D01*
X3565000Y342968D01*
Y312968D02*
X3562968Y317032D01*
X3567032D01*
X3565000Y312968D01*
Y282968D02*
X3562968Y287032D01*
X3567032D01*
X3565000Y282968D01*
Y252968D02*
X3562968Y257032D01*
X3567032D01*
X3565000Y252968D01*
Y222968D02*
X3562968Y227032D01*
X3567032D01*
X3565000Y222968D01*
Y192968D02*
X3562968Y197032D01*
X3567032D01*
X3565000Y192968D01*
Y132968D02*
X3562968Y137032D01*
X3567032D01*
X3565000Y132968D01*
Y162968D02*
X3562968Y167032D01*
X3567032D01*
X3565000Y162968D01*
X460000Y177968D02*
X457968Y182032D01*
X462032D01*
X460000Y177968D01*
Y207968D02*
X457968Y212032D01*
X462032D01*
X460000Y207968D01*
Y237968D02*
X457968Y242032D01*
X462032D01*
X460000Y237968D01*
Y267968D02*
X457968Y272032D01*
X462032D01*
X460000Y267968D01*
Y297968D02*
X457968Y302032D01*
X462032D01*
X460000Y297968D01*
Y327968D02*
X457968Y332032D01*
X462032D01*
X460000Y327968D01*
Y387968D02*
X457968Y392032D01*
X462032D01*
X460000Y387968D01*
Y357968D02*
X457968Y362032D01*
X462032D01*
X460000Y357968D01*
X2085000Y192968D02*
X2082968Y197032D01*
X2087032D01*
X2085000Y192968D01*
Y222968D02*
X2082968Y227032D01*
X2087032D01*
X2085000Y222968D01*
Y252968D02*
X2082968Y257032D01*
X2087032D01*
X2085000Y252968D01*
Y282968D02*
X2082968Y287032D01*
X2087032D01*
X2085000Y282968D01*
Y312968D02*
X2082968Y317032D01*
X2087032D01*
X2085000Y312968D01*
Y342968D02*
X2082968Y347032D01*
X2087032D01*
X2085000Y342968D01*
Y402968D02*
X2082968Y407032D01*
X2087032D01*
X2085000Y402968D01*
Y372968D02*
X2082968Y377032D01*
X2087032D01*
X2085000Y372968D01*
X1940000Y160468D02*
X1937968Y164532D01*
X1942032D01*
X1940000Y160468D01*
Y130468D02*
X1937968Y134532D01*
X1942032D01*
X1940000Y130468D01*
Y190468D02*
X1937968Y194532D01*
X1942032D01*
X1940000Y190468D01*
Y220468D02*
X1937968Y224532D01*
X1942032D01*
X1940000Y220468D01*
Y250468D02*
X1937968Y254532D01*
X1942032D01*
X1940000Y250468D01*
Y280468D02*
X1937968Y284532D01*
X1942032D01*
X1940000Y280468D01*
Y310468D02*
X1937968Y314532D01*
X1942032D01*
X1940000Y310468D01*
Y340468D02*
X1937968Y344532D01*
X1942032D01*
X1940000Y340468D01*
Y370468D02*
X1937968Y374532D01*
X1942032D01*
X1940000Y370468D01*
Y400468D02*
X1937968Y404532D01*
X1942032D01*
X1940000Y400468D01*
Y430468D02*
X1937968Y434532D01*
X1942032D01*
X1940000Y430468D01*
Y460468D02*
X1937968Y464532D01*
X1942032D01*
X1940000Y460468D01*
X3710000Y187968D02*
X3707968Y192032D01*
X3712032D01*
X3710000Y187968D01*
Y217968D02*
X3707968Y222032D01*
X3712032D01*
X3710000Y217968D01*
Y247968D02*
X3707968Y252032D01*
X3712032D01*
X3710000Y247968D01*
Y277968D02*
X3707968Y282032D01*
X3712032D01*
X3710000Y277968D01*
Y307968D02*
X3707968Y312032D01*
X3712032D01*
X3710000Y307968D01*
Y337968D02*
X3707968Y342032D01*
X3712032D01*
X3710000Y337968D01*
Y397968D02*
X3707968Y402032D01*
X3712032D01*
X3710000Y397968D01*
Y367968D02*
X3707968Y372032D01*
X3712032D01*
X3710000Y367968D01*
X5190000Y160468D02*
X5187968Y164532D01*
X5192032D01*
X5190000Y160468D01*
Y130468D02*
X5187968Y134532D01*
X5192032D01*
X5190000Y130468D01*
Y190468D02*
X5187968Y194532D01*
X5192032D01*
X5190000Y190468D01*
Y220468D02*
X5187968Y224532D01*
X5192032D01*
X5190000Y220468D01*
Y250468D02*
X5187968Y254532D01*
X5192032D01*
X5190000Y250468D01*
Y280468D02*
X5187968Y284532D01*
X5192032D01*
X5190000Y280468D01*
Y310468D02*
X5187968Y314532D01*
X5192032D01*
X5190000Y310468D01*
Y340468D02*
X5187968Y344532D01*
X5192032D01*
X5190000Y340468D01*
Y370468D02*
X5187968Y374532D01*
X5192032D01*
X5190000Y370468D01*
Y400468D02*
X5187968Y404532D01*
X5192032D01*
X5190000Y400468D01*
Y430468D02*
X5187968Y434532D01*
X5192032D01*
X5190000Y430468D01*
Y460468D02*
X5187968Y464532D01*
X5192032D01*
X5190000Y460468D01*
X3397968Y342968D02*
X3398984Y345000D01*
X3397968Y347032D01*
X3400000Y346016D01*
X3402032Y347032D01*
X3401016Y345000D01*
X3402032Y342968D01*
X3400000Y343984D01*
X3397968Y342968D01*
X3377968Y412968D02*
X3378984Y415000D01*
X3377968Y417032D01*
X3380000Y416016D01*
X3382032Y417032D01*
X3381016Y415000D01*
X3382032Y412968D01*
X3380000Y413984D01*
X3377968Y412968D01*
X1867968Y147968D02*
X1868984Y150000D01*
X1867968Y152032D01*
X1870000Y151016D01*
X1872032Y152032D01*
X1871016Y150000D01*
X1872032Y147968D01*
X1870000Y148984D01*
X1867968Y147968D01*
X1462968Y232968D02*
X1463984Y235000D01*
X1462968Y237032D01*
X1465000Y236016D01*
X1467032Y237032D01*
X1466016Y235000D01*
X1467032Y232968D01*
X1465000Y233984D01*
X1462968Y232968D01*
X562968Y422968D02*
X563984Y425000D01*
X562968Y427032D01*
X565000Y426016D01*
X567032Y427032D01*
X566016Y425000D01*
X567032Y422968D01*
X565000Y423984D01*
X562968Y422968D01*
X5032968Y277968D02*
X5033984Y280000D01*
X5032968Y282032D01*
X5035000Y281016D01*
X5037032Y282032D01*
X5036016Y280000D01*
X5037032Y277968D01*
X5035000Y278984D01*
X5032968Y277968D01*
X3842968Y412968D02*
X3843984Y415000D01*
X3842968Y417032D01*
X3845000Y416016D01*
X3847032Y417032D01*
X3846016Y415000D01*
X3847032Y412968D01*
X3845000Y413984D01*
X3842968Y412968D01*
X4197968Y342968D02*
X4198984Y345000D01*
X4197968Y347032D01*
X4200000Y346016D01*
X4202032Y347032D01*
X4201016Y345000D01*
X4202032Y342968D01*
X4200000Y343984D01*
X4197968Y342968D01*
X5117968Y227968D02*
X5118984Y230000D01*
X5117968Y232032D01*
X5120000Y231016D01*
X5122032Y232032D01*
X5121016Y230000D01*
X5122032Y227968D01*
X5120000Y228984D01*
X5117968Y227968D01*
X1222968Y552968D02*
X1223984Y555000D01*
X1222968Y557032D01*
X1225000Y556016D01*
X1227032Y557032D01*
X1226016Y555000D01*
X1227032Y552968D01*
X1225000Y553984D01*
X1222968Y552968D01*
X1657968Y487968D02*
X1658984Y490000D01*
X1657968Y492032D01*
X1660000Y491016D01*
X1662032Y492032D01*
X1661016Y490000D01*
X1662032Y487968D01*
X1660000Y488984D01*
X1657968Y487968D01*
X1622968D02*
X1623984Y490000D01*
X1622968Y492032D01*
X1625000Y491016D01*
X1627032Y492032D01*
X1626016Y490000D01*
X1627032Y487968D01*
X1625000Y488984D01*
X1622968Y487968D01*
X1607968Y527968D02*
X1608984Y530000D01*
X1607968Y532032D01*
X1610000Y531016D01*
X1612032Y532032D01*
X1611016Y530000D01*
X1612032Y527968D01*
X1610000Y528984D01*
X1607968Y527968D01*
X1892968Y472968D02*
X1893984Y475000D01*
X1892968Y477032D01*
X1895000Y476016D01*
X1897032Y477032D01*
X1896016Y475000D01*
X1897032Y472968D01*
X1895000Y473984D01*
X1892968Y472968D01*
X1042968Y92968D02*
X1043984Y95000D01*
X1042968Y97032D01*
X1045000Y96016D01*
X1047032Y97032D01*
X1046016Y95000D01*
X1047032Y92968D01*
X1045000Y93984D01*
X1042968Y92968D01*
X1427968Y97968D02*
X1428984Y100000D01*
X1427968Y102032D01*
X1430000Y101016D01*
X1432032Y102032D01*
X1431016Y100000D01*
X1432032Y97968D01*
X1430000Y98984D01*
X1427968Y97968D01*
X1752968Y107968D02*
X1753984Y110000D01*
X1752968Y112032D01*
X1755000Y111016D01*
X1757032Y112032D01*
X1756016Y110000D01*
X1757032Y107968D01*
X1755000Y108984D01*
X1752968Y107968D01*
X397968Y457968D02*
X398984Y460000D01*
X397968Y462032D01*
X400000Y461016D01*
X402032Y462032D01*
X401016Y460000D01*
X402032Y457968D01*
X400000Y458984D01*
X397968Y457968D01*
X312968Y487968D02*
X313984Y490000D01*
X312968Y492032D01*
X315000Y491016D01*
X317032Y492032D01*
X316016Y490000D01*
X317032Y487968D01*
X315000Y488984D01*
X312968Y487968D01*
X686134Y480382D02*
X687150Y482414D01*
X686134Y484446D01*
X688166Y483430D01*
X690198Y484446D01*
X689182Y482414D01*
X690198Y480382D01*
X688166Y481398D01*
X686134Y480382D01*
X687968Y342968D02*
X688984Y345000D01*
X687968Y347032D01*
X690000Y346016D01*
X692032Y347032D01*
X691016Y345000D01*
X692032Y342968D01*
X690000Y343984D01*
X687968Y342968D01*
X1066966Y481997D02*
X1067982Y484030D01*
X1066966Y486062D01*
X1068998Y485046D01*
X1071030Y486062D01*
X1070014Y484030D01*
X1071030Y481997D01*
X1068998Y483013D01*
X1066966Y481997D01*
X1067968Y282968D02*
X1068984Y285000D01*
X1067968Y287032D01*
X1070000Y286016D01*
X1072032Y287032D01*
X1071016Y285000D01*
X1072032Y282968D01*
X1070000Y283984D01*
X1067968Y282968D01*
X1467968Y482968D02*
X1468984Y485000D01*
X1467968Y487032D01*
X1470000Y486016D01*
X1472032Y487032D01*
X1471016Y485000D01*
X1472032Y482968D01*
X1470000Y483984D01*
X1467968Y482968D01*
X1862968Y492968D02*
X1863984Y495000D01*
X1862968Y497032D01*
X1865000Y496016D01*
X1867032Y497032D01*
X1866016Y495000D01*
X1867032Y492968D01*
X1865000Y493984D01*
X1862968Y492968D01*
X5217968Y182968D02*
X5218984Y185000D01*
X5217968Y187032D01*
X5220000Y186016D01*
X5222032Y187032D01*
X5221016Y185000D01*
X5222032Y182968D01*
X5220000Y183984D01*
X5217968Y182968D01*
X4912968Y477968D02*
X4913984Y480000D01*
X4912968Y482032D01*
X4915000Y481016D01*
X4917032Y482032D01*
X4916016Y480000D01*
X4917032Y477968D01*
X4915000Y478984D01*
X4912968Y477968D01*
X4347968Y567968D02*
X4348984Y570000D01*
X4347968Y572032D01*
X4350000Y571016D01*
X4352032Y572032D01*
X4351016Y570000D01*
X4352032Y567968D01*
X4350000Y568984D01*
X4347968Y567968D01*
X3912968Y117968D02*
X3913984Y120000D01*
X3912968Y122032D01*
X3915000Y121016D01*
X3917032Y122032D01*
X3916016Y120000D01*
X3917032Y117968D01*
X3915000Y118984D01*
X3912968Y117968D01*
X4622968Y17968D02*
X4623984Y20000D01*
X4622968Y22032D01*
X4625000Y21016D01*
X4627032Y22032D01*
X4626016Y20000D01*
X4627032Y17968D01*
X4625000Y18984D01*
X4622968Y17968D01*
X5023468D02*
X5024484Y20000D01*
X5023468Y22032D01*
X5025500Y21016D01*
X5027532Y22032D01*
X5026516Y20000D01*
X5027532Y17968D01*
X5025500Y18984D01*
X5023468Y17968D01*
X4197968Y482968D02*
X4198984Y485000D01*
X4197968Y487032D01*
X4200000Y486016D01*
X4202032Y487032D01*
X4201016Y485000D01*
X4202032Y482968D01*
X4200000Y483984D01*
X4197968Y482968D01*
X3832968Y492968D02*
X3833984Y495000D01*
X3832968Y497032D01*
X3835000Y496016D01*
X3837032Y497032D01*
X3836016Y495000D01*
X3837032Y492968D01*
X3835000Y493984D01*
X3832968Y492968D01*
X4577968Y442968D02*
X4578984Y445000D01*
X4577968Y447032D01*
X4580000Y446016D01*
X4582032Y447032D01*
X4581016Y445000D01*
X4582032Y442968D01*
X4580000Y443984D01*
X4577968Y442968D01*
X4977968Y452968D02*
X4978984Y455000D01*
X4977968Y457032D01*
X4980000Y456016D01*
X4982032Y457032D01*
X4981016Y455000D01*
X4982032Y452968D01*
X4980000Y453984D01*
X4977968Y452968D01*
X3522968Y467968D02*
X3523984Y470000D01*
X3522968Y472032D01*
X3525000Y471016D01*
X3527032Y472032D01*
X3526016Y470000D01*
X3527032Y467968D01*
X3525000Y468984D01*
X3522968Y467968D01*
X3572968Y552968D02*
X3573984Y555000D01*
X3572968Y557032D01*
X3575000Y556016D01*
X3577032Y557032D01*
X3576016Y555000D01*
X3577032Y552968D01*
X3575000Y553984D01*
X3572968Y552968D01*
X3177968D02*
X3178984Y555000D01*
X3177968Y557032D01*
X3180000Y556016D01*
X3182032Y557032D01*
X3181016Y555000D01*
X3182032Y552968D01*
X3180000Y553984D01*
X3177968Y552968D01*
X2782968D02*
X2783984Y555000D01*
X2782968Y557032D01*
X2785000Y556016D01*
X2787032Y557032D01*
X2786016Y555000D01*
X2787032Y552968D01*
X2785000Y553984D01*
X2782968Y552968D01*
X3382968Y27968D02*
X3383984Y30000D01*
X3382968Y32032D01*
X3385000Y31016D01*
X3387032Y32032D01*
X3386016Y30000D01*
X3387032Y27968D01*
X3385000Y28984D01*
X3382968Y27968D01*
X2992968D02*
X2993984Y30000D01*
X2992968Y32032D01*
X2995000Y31016D01*
X2997032Y32032D01*
X2996016Y30000D01*
X2997032Y27968D01*
X2995000Y28984D01*
X2992968Y27968D01*
X2592968Y22968D02*
X2593984Y25000D01*
X2592968Y27032D01*
X2595000Y26016D01*
X2597032Y27032D01*
X2596016Y25000D01*
X2597032Y22968D01*
X2595000Y23984D01*
X2592968Y22968D01*
X2237968Y437968D02*
X2238984Y440000D01*
X2237968Y442032D01*
X2240000Y441016D01*
X2242032Y442032D01*
X2241016Y440000D01*
X2242032Y437968D01*
X2240000Y438984D01*
X2237968Y437968D01*
X3017968Y472968D02*
X3018984Y475000D01*
X3017968Y477032D01*
X3020000Y476016D01*
X3022032Y477032D01*
X3021016Y475000D01*
X3022032Y472968D01*
X3020000Y473984D01*
X3017968Y472968D01*
X2637968D02*
X2638984Y475000D01*
X2637968Y477032D01*
X2640000Y476016D01*
X2642032Y477032D01*
X2641016Y475000D01*
X2642032Y472968D01*
X2640000Y473984D01*
X2637968Y472968D01*
X3442968Y282968D02*
X3443984Y285000D01*
X3442968Y287032D01*
X3445000Y286016D01*
X3447032Y287032D01*
X3446016Y285000D01*
X3447032Y282968D01*
X3445000Y283984D01*
X3442968Y282968D01*
X3472968Y222968D02*
X3473984Y225000D01*
X3472968Y227032D01*
X3475000Y226016D01*
X3477032Y227032D01*
X3476016Y225000D01*
X3477032Y222968D01*
X3475000Y223984D01*
X3472968Y222968D01*
X3442968Y492968D02*
X3443984Y495000D01*
X3442968Y497032D01*
X3445000Y496016D01*
X3447032Y497032D01*
X3446016Y495000D01*
X3447032Y492968D01*
X3445000Y493984D01*
X3442968Y492968D01*
X3502968Y172968D02*
X3503984Y175000D01*
X3502968Y177032D01*
X3505000Y176016D01*
X3507032Y177032D01*
X3506016Y175000D01*
X3507032Y172968D01*
X3505000Y173984D01*
X3502968Y172968D01*
X5171000Y488968D02*
X5172017Y489984D01*
X5173032D01*
X5172017Y491000D01*
X5173032Y492016D01*
X5172017D01*
X5171000Y493032D01*
X5169984Y492016D01*
X5168969D01*
X5169984Y491000D01*
X5168969Y489984D01*
X5169984D01*
X5171000Y488968D01*
X5171000Y98968D02*
X5172016Y99984D01*
X5173032D01*
X5172016Y101000D01*
X5173032Y102016D01*
X5172016D01*
X5171000Y103032D01*
X5169984Y102016D01*
X5168968D01*
X5169984Y101000D01*
X5168968Y99984D01*
X5169984D01*
X5171000Y98968D01*
X3729000Y159468D02*
X3730016Y160484D01*
X3731032D01*
X3730016Y161500D01*
X3731032Y162516D01*
X3730016D01*
X3729000Y163532D01*
X3727984Y162516D01*
X3726968D01*
X3727984Y161500D01*
X3726968Y160484D01*
X3727984D01*
X3729000Y159468D01*
X3729000Y429468D02*
X3730016Y430484D01*
X3731032D01*
X3730016Y431500D01*
X3731032Y432516D01*
X3730016D01*
X3729000Y433532D01*
X3727984Y432516D01*
X3726968D01*
X3727984Y431500D01*
X3726968Y430484D01*
X3727984D01*
X3729000Y429468D01*
X1921000Y488968D02*
X1922016Y489984D01*
X1923032D01*
X1922016Y491000D01*
X1923032Y492016D01*
X1922016D01*
X1921000Y493032D01*
X1919984Y492016D01*
X1918968D01*
X1919984Y491000D01*
X1918968Y489984D01*
X1919984D01*
X1921000Y488968D01*
X1921000Y98968D02*
X1922016Y99984D01*
X1923032D01*
X1922016Y101000D01*
X1923032Y102016D01*
X1922016D01*
X1921000Y103032D01*
X1919984Y102016D01*
X1918968D01*
X1919984Y101000D01*
X1918968Y99984D01*
X1919984D01*
X1921000Y98968D01*
X2104000Y164468D02*
X2105016Y165484D01*
X2106032D01*
X2105016Y166500D01*
X2106032Y167516D01*
X2105016D01*
X2104000Y168532D01*
X2102984Y167516D01*
X2101968D01*
X2102984Y166500D01*
X2101968Y165484D01*
X2102984D01*
X2104000Y164468D01*
X2104000Y434468D02*
X2105016Y435484D01*
X2106032D01*
X2105016Y436500D01*
X2106032Y437516D01*
X2105016D01*
X2104000Y438532D01*
X2102984Y437516D01*
X2101968D01*
X2102984Y436500D01*
X2101968Y435484D01*
X2102984D01*
X2104000Y434468D01*
X479000Y149468D02*
X480016Y150484D01*
X481032D01*
X480016Y151500D01*
X481032Y152516D01*
X480016D01*
X479000Y153532D01*
X477984Y152516D01*
X476968D01*
X477984Y151500D01*
X476968Y150484D01*
X477984D01*
X479000Y149468D01*
X479000Y419468D02*
X480016Y420484D01*
X481032D01*
X480016Y421500D01*
X481032Y422516D01*
X480016D01*
X479000Y423532D01*
X477984Y422516D01*
X476968D01*
X477984Y421500D01*
X476968Y420484D01*
X477984D01*
X479000Y419468D01*
X3546000Y101468D02*
X3547016Y102484D01*
X3548032D01*
X3547016Y103500D01*
X3548032Y104516D01*
X3547016D01*
X3546000Y105532D01*
X3544984Y104516D01*
X3543968D01*
X3544984Y103500D01*
X3543968Y102484D01*
X3544984D01*
X3546000Y101468D01*
X3546000Y491468D02*
X3547016Y492484D01*
X3548032D01*
X3547016Y493500D01*
X3548032Y494516D01*
X3547016D01*
X3546000Y495532D01*
X3544984Y494516D01*
X3543968D01*
X3544984Y493500D01*
X3543968Y492484D01*
X3544984D01*
X3546000Y491468D01*
D31*
X682032Y30000D02*
G03*
X682032Y30000I-2032J0D01*
G01*
Y10000D02*
G03*
X682032Y10000I-2032J0D01*
G01*
X702032D02*
G03*
X702032Y10000I-2032J0D01*
G01*
Y30000D02*
G03*
X702032Y30000I-2032J0D01*
G01*
X1072032D02*
G03*
X1072032Y30000I-2032J0D01*
G01*
Y10000D02*
G03*
X1072032Y10000I-2032J0D01*
G01*
X1092032D02*
G03*
X1092032Y10000I-2032J0D01*
G01*
Y30000D02*
G03*
X1092032Y30000I-2032J0D01*
G01*
X1482032Y10000D02*
G03*
X1482032Y10000I-2032J0D01*
G01*
X1462032D02*
G03*
X1462032Y10000I-2032J0D01*
G01*
Y30000D02*
G03*
X1462032Y30000I-2032J0D01*
G01*
X1482032D02*
G03*
X1482032Y30000I-2032J0D01*
G01*
X1862032D02*
G03*
X1862032Y30000I-2032J0D01*
G01*
Y10000D02*
G03*
X1862032Y10000I-2032J0D01*
G01*
X1842032D02*
G03*
X1842032Y10000I-2032J0D01*
G01*
Y30000D02*
G03*
X1842032Y30000I-2032J0D01*
G01*
X2632032D02*
G03*
X2632032Y30000I-2032J0D01*
G01*
X3022032D02*
G03*
X3022032Y30000I-2032J0D01*
G01*
X3042032D02*
G03*
X3042032Y30000I-2032J0D01*
G01*
X3412032D02*
G03*
X3412032Y30000I-2032J0D01*
G01*
X3432032D02*
G03*
X3432032Y30000I-2032J0D01*
G01*
X4212032D02*
G03*
X4212032Y30000I-2032J0D01*
G01*
X4972032D02*
G03*
X4972032Y30000I-2032J0D01*
G01*
X4997032Y10000D02*
G03*
X4997032Y10000I-2032J0D01*
G01*
Y30000D02*
G03*
X4997032Y30000I-2032J0D01*
G01*
X5162032Y560000D02*
G03*
X5162032Y560000I-2032J0D01*
G01*
X4802032D02*
G03*
X4802032Y560000I-2032J0D01*
G01*
X4782032D02*
G03*
X4782032Y560000I-2032J0D01*
G01*
X4412032D02*
G03*
X4412032Y560000I-2032J0D01*
G01*
X3622032D02*
G03*
X3622032Y560000I-2032J0D01*
G01*
X3602032D02*
G03*
X3602032Y560000I-2032J0D01*
G01*
X3232032D02*
G03*
X3232032Y560000I-2032J0D01*
G01*
X3212032D02*
G03*
X3212032Y560000I-2032J0D01*
G01*
X2822032D02*
G03*
X2822032Y560000I-2032J0D01*
G01*
X2842032D02*
G03*
X2842032Y560000I-2032J0D01*
G01*
X2062032Y580000D02*
G03*
X2062032Y580000I-2032J0D01*
G01*
Y560000D02*
G03*
X2062032Y560000I-2032J0D01*
G01*
X2042032D02*
G03*
X2042032Y560000I-2032J0D01*
G01*
Y580000D02*
G03*
X2042032Y580000I-2032J0D01*
G01*
X1652032D02*
G03*
X1652032Y580000I-2032J0D01*
G01*
Y560000D02*
G03*
X1652032Y560000I-2032J0D01*
G01*
X1672032D02*
G03*
X1672032Y560000I-2032J0D01*
G01*
Y580000D02*
G03*
X1672032Y580000I-2032J0D01*
G01*
X1282032D02*
G03*
X1282032Y580000I-2032J0D01*
G01*
Y560000D02*
G03*
X1282032Y560000I-2032J0D01*
G01*
X1262032D02*
G03*
X1262032Y560000I-2032J0D01*
G01*
Y580000D02*
G03*
X1262032Y580000I-2032J0D01*
G01*
X892032D02*
G03*
X892032Y580000I-2032J0D01*
G01*
Y560000D02*
G03*
X892032Y560000I-2032J0D01*
G01*
X872032D02*
G03*
X872032Y560000I-2032J0D01*
G01*
Y580000D02*
G03*
X872032Y580000I-2032J0D01*
G01*
X4602032Y30000D02*
G03*
X4602032Y30000I-2032J0D01*
G01*
X4577032D02*
G03*
X4577032Y30000I-2032J0D01*
G01*
X5187032Y580000D02*
G03*
X5187032Y580000I-2032J0D01*
G01*
Y560000D02*
G03*
X5187032Y560000I-2032J0D01*
G01*
X4577032Y10000D02*
G03*
X4577032Y10000I-2032J0D01*
G01*
X3042032D02*
G03*
X3042032Y10000I-2032J0D01*
G01*
X3022032D02*
G03*
X3022032Y10000I-2032J0D01*
G01*
X3432032D02*
G03*
X3432032Y10000I-2032J0D01*
G01*
X3412032D02*
G03*
X3412032Y10000I-2032J0D01*
G01*
X3792032Y30000D02*
G03*
X3792032Y30000I-2032J0D01*
G01*
Y10000D02*
G03*
X3792032Y10000I-2032J0D01*
G01*
X4192032D02*
G03*
X4192032Y10000I-2032J0D01*
G01*
Y30000D02*
G03*
X4192032Y30000I-2032J0D01*
G01*
X3992032Y560000D02*
G03*
X3992032Y560000I-2032J0D01*
G01*
X4392032Y580000D02*
G03*
X4392032Y580000I-2032J0D01*
G01*
Y560000D02*
G03*
X4392032Y560000I-2032J0D01*
G01*
X3992032Y580000D02*
G03*
X3992032Y580000I-2032J0D01*
G01*
X2452032Y560000D02*
G03*
X2452032Y560000I-2032J0D01*
G01*
Y580000D02*
G03*
X2452032Y580000I-2032J0D01*
G01*
X2842032D02*
G03*
X2842032Y580000I-2032J0D01*
G01*
X3232032D02*
G03*
X3232032Y580000I-2032J0D01*
G01*
X3212032D02*
G03*
X3212032Y580000I-2032J0D01*
G01*
X3602032D02*
G03*
X3602032Y580000I-2032J0D01*
G01*
X3622032D02*
G03*
X3622032Y580000I-2032J0D01*
G01*
X4012032D02*
G03*
X4012032Y580000I-2032J0D01*
G01*
Y560000D02*
G03*
X4012032Y560000I-2032J0D01*
G01*
X4412032Y580000D02*
G03*
X4412032Y580000I-2032J0D01*
G01*
X4802032D02*
G03*
X4802032Y580000I-2032J0D01*
G01*
X4782032D02*
G03*
X4782032Y580000I-2032J0D01*
G01*
X5162032D02*
G03*
X5162032Y580000I-2032J0D01*
G01*
X4972032Y10000D02*
G03*
X4972032Y10000I-2032J0D01*
G01*
X4602032D02*
G03*
X4602032Y10000I-2032J0D01*
G01*
X4212032D02*
G03*
X4212032Y10000I-2032J0D01*
G01*
X3812032Y30000D02*
G03*
X3812032Y30000I-2032J0D01*
G01*
Y10000D02*
G03*
X3812032Y10000I-2032J0D01*
G01*
X2652032Y30000D02*
G03*
X2652032Y30000I-2032J0D01*
G01*
Y10000D02*
G03*
X2652032Y10000I-2032J0D01*
G01*
X2262032Y30000D02*
G03*
X2262032Y30000I-2032J0D01*
G01*
Y10000D02*
G03*
X2262032Y10000I-2032J0D01*
G01*
X2242032Y30000D02*
G03*
X2242032Y30000I-2032J0D01*
G01*
Y10000D02*
G03*
X2242032Y10000I-2032J0D01*
G01*
X2632032D02*
G03*
X2632032Y10000I-2032J0D01*
G01*
X2822032Y580000D02*
G03*
X2822032Y580000I-2032J0D01*
G01*
X2432032D02*
G03*
X2432032Y580000I-2032J0D01*
G01*
Y560000D02*
G03*
X2432032Y560000I-2032J0D01*
G01*
M02*
