M48
;Layer_Color=9474304
;FILE_FORMAT=4:4
METRIC,LZ
;TYPE=PLATED
T1F00S00C0.2000
T2F00S00C0.3000
T3F00S00C0.5000
T4F00S00C0.8000
T5F00S00C1.0000
T6F00S00C1.0200
T7F00S00C1.1000
T8F00S00C1.2000
T9F00S00C1.5000
T10F00S00C3.2000
%
T01
X00355Y0025
Y0036
X00407571Y00266571
X0042Y00265
X0043
X00445Y0026
X0044601Y0022399
X00435Y00205
X0046Y002885
X0052Y0029
X00555Y0031
X00595Y00296
X00605Y0029
X0061Y00271
X0065Y00274
X00625Y00315
T02
X0001Y00033178
X00025Y0014
X00065Y0021
X0004Y00255
X00035278Y00339722
X00077Y0036
X00145Y0035
X00301Y0038
X00316035Y003923
X00353985Y00388681
X00392251Y00379145
X00391391Y0034355
X0039Y0033
X00395Y00265
X00326Y00256556
X00335Y0023
X0033Y00185
X00356553Y00178447
X0036Y00165
X00375Y0018
X00388087Y00111913
X0035Y0011
X00315458Y00113893
X0032Y00125
X00295Y0008
X00265Y0021
X0034Y00295
Y0035
X0039991Y00369578
X00425Y0038
X00524125Y00395222
X00581021Y00380464
X0056Y00359343
X0054Y0029
X005Y0029075
X00485Y0027
X00465
X0047Y0023
X00515Y0025
X0053Y00245
X00545Y0025
Y00205
X00533
X00521
X00501383Y00110383
X00477917Y00111056
X0046Y0011
X0044142Y00109924
X00429437Y00110563
X00408762Y00111238
X00405Y0019
X00635Y00165
X00655Y0014
X00715Y0015
X00685Y0009
X00615Y0009057
X0078Y0026
X008Y003
X0084Y0034
X0089Y0031
X00925Y0035
X0098Y0032
X01015Y0035
X0107Y0033
X0112Y00361
X0116Y0033
X0115Y00125
X01105Y0016
X01064722Y00119722
X01015Y0016
X00975Y00125
X00935Y00165
X00888275Y00111158
X00825Y0016
X00795383Y00065383
X01234722Y00130278
X0121Y00171
X01211694Y00279
X0123Y00265
X0124Y00339
X0121Y00371
X00815Y0044
X00595Y00445
X0057Y00442091
Y00425
X005Y00435
X00527931Y00474554
X00439222Y00414222
X00393677Y00425629
X00395Y00445
X0033Y0045
X003165Y004189
Y004062
X0035Y004
T03
X00975Y00475
T04
X001892Y00025
X0024
Y000504
X001892Y000758
T05
X006346Y0043
X0066
X006854
T06
X0029464Y0003937
X0032464
X0035464
X0038464
X0041464
X0044464
X0047464
X0050464
X0136Y0009
Y0012
Y0015
Y0018
Y0021
Y0024
Y0027
Y003
Y0033
Y0036
Y0039
Y0042
T07
X004496Y0037
X00475
X005004
X005258
X008773Y0045
X009027
X004012Y0047
X003758
X003504
X00325
X002996
T08
X000266Y0003567
X00036Y0006567
Y0009567
X00066
Y0006567
X000266Y0012567
Y0037529
X00036Y0040529
X00066
Y0043529
X00036
X000266Y0046529
T09
X0026314Y0005837
X0053314Y0005837
X01341Y000585
X01341Y004485
T10
X0011Y00145
Y00365
X0131
Y00145
M30
