M48
;Layer_Color=9474304
;FILE_FORMAT=4:4
METRIC,LZ
;TYPE=PLATED
T1F00S00C0.2000
T2F00S00C0.3000
T3F00S00C0.5000
%
T01
X00316Y00036
X00333Y0003
X00934771Y00012337
X00973Y00012
X00972944Y000345
X00952363
X01103Y00055
X01101Y00062
X01097309Y00067948
X0112275Y00093
X01152Y00055
X01156Y00217
X0112875Y00213027
X01162Y00248
X01124Y00342
X00935Y0029
X0087Y003
X0122Y0032825
X01233Y003905
X01264Y0039
X0123Y00255
X01539Y00251
X01548Y00247
X01566Y00252
X01593545Y00251378
X01598Y00267
X01614Y00274
X01665Y00234
X01671Y00209
X01678Y00184
X013765Y0040025
X0132575Y0041175
X0130975Y004125
X0128264Y0042486
X0127464
X012365Y00444
X012345Y0040225
X0122075Y004085
X013285Y004455
X0134775Y0046125
T02
X00186648Y00089636
X00246936Y00089825
X00274Y0008725
X003025Y0006675
X0029425Y001555
X0027025Y0017425
X0023425Y00183
X001915Y001835
X00252Y00134
X00338Y00226
X00657Y0028325
X0069475Y0027625
X00732Y00252
X007845Y0031175
X007655Y00355
X007395Y0036725
X00741Y0013525
X007845Y000999
X007365Y000585
X0070275Y00057
X0071Y0006875
X0068Y000789
X0067675Y00052
X0067846Y00018829
X006445Y0003775
X00626Y0005
X0064725Y0012525
X00649Y0013725
X0074925Y0002125
X008005Y0001425
X007995Y0007575
X008935Y00071192
X00884869Y00101283
X008935Y0012
X0086125Y00131
X0086475Y001545
X0094Y00152
X00963Y0011975
X00966Y00094
X00986
X00995Y0007
X00982Y00038
X0096325Y00041
X0095075Y0006725
X01005Y0012
X00992Y0014627
X01006Y00182
X0103Y002015
X0106725
X0107225Y002155
X01079Y0017875
Y00095
X01106762Y0010967
X0114675Y0014425
X011625Y00164
X01155Y0008
X0115125Y003135
X011115Y0032925
X0109375Y00305
X0107675Y0031325
X0106975Y0032975
X010525Y00365
X009775Y002725
X009325
X00931Y0020575
X00958Y001935
X008775Y002525
X0086Y0034
X0085475Y0037
X008725Y003725
X012105Y0037925
X0120575Y003485
X0120325Y0031525
X01233Y0032825
X0126675
Y0035575
X01266Y00375
X0131475Y0037775
X0130175Y00396
X0135Y0038
X01352Y00368
X0134175Y003645
X0134925Y00353
X01314375Y00322375
X0136875Y00303
X0138775Y00257
X0133775Y0025825
X013295Y00251
X012955Y0024675
Y0017525
X01294148Y00146456
X01253Y00134
X0125275Y0012125
X01203Y0013025
X01202Y0019275
X01347Y0013425
X0134725Y0012125
X014015Y0011775
X0141925Y0014525
X0144725Y00125
X0145625Y001745
X0148875Y0019575
X015325Y0018075
X0153175Y00167
X01538Y00128
X01428Y0020208
X01416Y00282
X01482699Y00259447
X0149275Y00348
X0165575Y00332
X0161375Y002635
X0159574Y0020042
X01613Y0010125
X01607Y0057175
X0163275Y005725
X016575Y0057175
X0164725Y006085
X016225
X01598
X01659128Y00643212
X01573Y006085
X01548017Y00608503
X01523Y0060825
X015135Y0063425
X0151875Y0065525
X0150775Y0058125
X01523Y0056825
X0154775Y00569
X0156125Y0057175
X01573Y0056925
X0155925Y0058875
X0156775Y005335
X0157975Y0052775
X015035Y0055625
X014615Y0053025
X01461Y0059425
X01447Y0058125
X0142Y0058625
X0142425Y0060825
X0140175Y0052533
X01389Y005065
X0138625Y0048675
X01424Y0048525
X01414Y00466
X0149075Y00463
X01332Y005085
X0133225Y00521
X0132375Y0053225
X013125Y00491
X0127725Y00508
X01277Y005205
X0127925Y00544
X012785Y00562
X0120375Y00591504
X011915Y00582
X0118175Y00576
X0116625Y00416
X01025Y004
X0101325Y003975
X00986Y0040175
X009925Y0044
X0076Y004195
X0039335Y00632685
T03
X00649Y0031125
X00731Y00393
X016765Y00394
X01568Y004365
X00431Y0056325
X0036425Y00582
X0028775Y00608
M30
