M48
;Layer_Color=9474304
;FILE_FORMAT=4:4
METRIC,LZ
;TYPE=PLATED
T1F00S00C0.2000
T2F00S00C0.3000
T3F00S00C0.5000
%
T01
X0143775Y0047425
Y004825
Y0049025
Y0049775
X0144925Y00498
Y0049025
X01449Y004825
Y004745
T02
X0036575Y001845
X0064475Y0015925
X006395Y00098
X00703Y000415
X0077675Y0012925
X00717Y0025575
X0066475Y0025825
X0065325Y0023975
X00705Y0031025
X0074825Y0034025
X0078825Y00395
X0079925Y0034
X0080725Y000975
X0084475Y00114
X009225Y0010075
X0093125Y0006825
X0094Y00039
X0091975Y001405
X009225Y0017475
X00992121Y00244433
X010125Y0027175
X0105425Y00272
X0107075
X0118
X0118025Y00199
X01135Y00156
X0120175Y00215
X0131475Y002465
X0143625Y0021575
X01302Y0007
X0129275Y004915
X0144325Y005075
X0144275Y0046275
X0149Y0048525
X0150625Y0051875
X0142Y00596
X0119125Y00598
T03
X00263Y00121
M30
