G04*
G04 #@! TF.GenerationSoftware,Altium Limited,Altium Designer,23.9.2 (47)*
G04*
G04 Layer_Physical_Order=2*
G04 Layer_Color=36540*
%FSLAX44Y44*%
%MOMM*%
G71*
G04*
G04 #@! TF.SameCoordinates,B1C0779B-3EB0-494A-A092-0BE117C51D64*
G04*
G04*
G04 #@! TF.FilePolarity,Positive*
G04*
G01*
G75*
%ADD14C,0.2000*%
%ADD84C,1.0000*%
%ADD86C,0.5000*%
%ADD87C,1.8000*%
%ADD88R,1.8000X1.8000*%
%ADD89C,1.4000*%
%ADD90C,1.5000*%
%ADD91C,8.0000*%
%ADD92C,2.0000*%
%ADD93R,2.0000X2.0000*%
%ADD94C,1.3000*%
%ADD95C,2.5000*%
%ADD96C,9.0000*%
%ADD97R,2.9700X2.9700*%
%ADD98C,2.9700*%
%ADD99C,1.6000*%
%ADD100R,1.6000X1.6000*%
G04:AMPARAMS|DCode=101|XSize=1.6mm|YSize=1.6mm|CornerRadius=0.4mm|HoleSize=0mm|Usage=FLASHONLY|Rotation=180.000|XOffset=0mm|YOffset=0mm|HoleType=Round|Shape=RoundedRectangle|*
%AMROUNDEDRECTD101*
21,1,1.6000,0.8000,0,0,180.0*
21,1,0.8000,1.6000,0,0,180.0*
1,1,0.8000,-0.4000,0.4000*
1,1,0.8000,0.4000,0.4000*
1,1,0.8000,0.4000,-0.4000*
1,1,0.8000,-0.4000,-0.4000*
%
%ADD101ROUNDEDRECTD101*%
G04:AMPARAMS|DCode=102|XSize=1.5mm|YSize=1.5mm|CornerRadius=0.375mm|HoleSize=0mm|Usage=FLASHONLY|Rotation=180.000|XOffset=0mm|YOffset=0mm|HoleType=Round|Shape=RoundedRectangle|*
%AMROUNDEDRECTD102*
21,1,1.5000,0.7500,0,0,180.0*
21,1,0.7500,1.5000,0,0,180.0*
1,1,0.7500,-0.3750,0.3750*
1,1,0.7500,0.3750,0.3750*
1,1,0.7500,0.3750,-0.3750*
1,1,0.7500,-0.3750,-0.3750*
%
%ADD102ROUNDEDRECTD102*%
%ADD103C,1.2000*%
%ADD104R,1.2000X1.2000*%
%ADD105C,0.7000*%
G36*
X696602Y554977D02*
X704383Y554111D01*
X712031Y552440D01*
X719465Y549982D01*
X726601Y546764D01*
X733364Y542820D01*
X739680Y538194D01*
X745480Y532935D01*
X750701Y527101D01*
X755286Y520755D01*
X759186Y513967D01*
X762358Y506809D01*
X764768Y499360D01*
X766389Y491701D01*
X767204Y483914D01*
Y480000D01*
X767204Y477922D01*
X766974Y473773D01*
X766514Y469642D01*
X765827Y465544D01*
X765370Y463517D01*
X765370Y463517D01*
X765370Y463517D01*
X763680Y456013D01*
X763315Y454392D01*
X762441Y451184D01*
X761426Y448018D01*
X760272Y444901D01*
X759627Y443369D01*
X759553Y441708D01*
X759259Y438397D01*
X758818Y435101D01*
X758232Y431829D01*
X757867Y430207D01*
X757867Y430207D01*
X757867Y430207D01*
X719260Y258828D01*
X719107Y258146D01*
X718774Y256790D01*
X718417Y255439D01*
X718034Y254096D01*
X717831Y253428D01*
X717728Y252737D01*
X717498Y251360D01*
X717242Y249986D01*
X717066Y249132D01*
X716807Y247940D01*
X716807Y247937D01*
X716807Y247937D01*
X716807Y247937D01*
X715580Y242491D01*
X715393Y241660D01*
X714980Y240006D01*
X714531Y238363D01*
X714044Y236729D01*
X713782Y235918D01*
X713671Y235073D01*
X713410Y233389D01*
X713112Y231711D01*
X712842Y230374D01*
X712588Y229209D01*
X712588Y229209D01*
X712588Y229209D01*
X711361Y223763D01*
X710435Y219654D01*
X707676Y211695D01*
X704042Y204095D01*
X699580Y196949D01*
X694346Y190348D01*
X688406Y184374D01*
X681835Y179103D01*
X674715Y174601D01*
X667135Y170924D01*
X659191Y168120D01*
X650984Y166222D01*
X642615Y165255D01*
X634191Y165231D01*
X625817Y166151D01*
X617599Y168002D01*
X609639Y170762D01*
X602039Y174396D01*
X594893Y178857D01*
X588292Y184091D01*
X582318Y190031D01*
X577048Y196603D01*
X572545Y203723D01*
X568869Y211303D01*
X566064Y219246D01*
X564166Y227454D01*
X563199Y235823D01*
X563176Y244247D01*
X564095Y252621D01*
X566435Y263006D01*
X566847Y264660D01*
X567297Y266304D01*
X567784Y267937D01*
X568046Y268748D01*
X568157Y269593D01*
X568417Y271277D01*
X568716Y272955D01*
X569052Y274626D01*
X569240Y275457D01*
X569240Y275457D01*
X570620Y281584D01*
X570952Y282941D01*
X571310Y284291D01*
X571692Y285635D01*
X571896Y286303D01*
X571998Y286994D01*
X572229Y288371D01*
X572485Y289744D01*
X572766Y291112D01*
X572920Y291794D01*
X611526Y463173D01*
X611891Y464795D01*
X612765Y468003D01*
X613780Y471168D01*
X614934Y474286D01*
X615579Y475818D01*
X615653Y477479D01*
X615947Y480790D01*
X616388Y484085D01*
X616974Y487358D01*
X617340Y488979D01*
X619890Y500302D01*
X622396Y507719D01*
X625661Y514835D01*
X629649Y521572D01*
X634316Y527858D01*
X639612Y533623D01*
X645480Y538806D01*
X651855Y543350D01*
X658669Y547206D01*
X665847Y550331D01*
X673312Y552692D01*
X680982Y554263D01*
X688773Y555028D01*
X696602Y554977D01*
D02*
G37*
G36*
X201964Y534319D02*
X209737Y532760D01*
X217302Y530390D01*
X224576Y527236D01*
X231477Y523333D01*
X237927Y518724D01*
X243857Y513461D01*
X249198Y507602D01*
X253892Y501213D01*
X257886Y494364D01*
X261136Y487133D01*
X263606Y479600D01*
X265268Y471848D01*
X266104Y463964D01*
Y458268D01*
X265944Y454808D01*
X265625Y451359D01*
X265146Y447929D01*
X264828Y446226D01*
X251192Y373232D01*
X249855Y371392D01*
X247211Y366203D01*
X245411Y360664D01*
X244500Y354912D01*
Y349088D01*
X245411Y343336D01*
X245535Y342954D01*
X223728Y226226D01*
X223728D01*
X222955Y222086D01*
X220490Y214030D01*
X217139Y206301D01*
X212944Y198996D01*
X207957Y192206D01*
X202242Y186017D01*
X195869Y180508D01*
X188920Y175746D01*
X181481Y171792D01*
X173646Y168696D01*
X165514Y166497D01*
X157186Y165222D01*
X148769Y164888D01*
X140367Y165498D01*
X132086Y167045D01*
X124030Y169510D01*
X116301Y172861D01*
X108996Y177056D01*
X102206Y182043D01*
X96017Y187758D01*
X90507Y194131D01*
X85746Y201080D01*
X81792Y208519D01*
X78696Y216354D01*
X76497Y224486D01*
X75223Y232814D01*
X74888Y241231D01*
X75498Y249633D01*
X76272Y253774D01*
X117372Y473774D01*
X117372D01*
X117372Y473774D01*
X118100Y477670D01*
X120369Y485267D01*
X123426Y492581D01*
X127238Y499533D01*
X131761Y506045D01*
X136945Y512043D01*
X142732Y517461D01*
X149058Y522240D01*
X155853Y526325D01*
X163041Y529670D01*
X170541Y532240D01*
X178270Y534005D01*
X186142Y534945D01*
X194069Y535050D01*
X201964Y534319D01*
D02*
G37*
G36*
X384467Y534989D02*
X392835Y534017D01*
X401042Y532115D01*
X408984Y529305D01*
X416561Y525625D01*
X423679Y521118D01*
X430247Y515844D01*
X436184Y509866D01*
X441414Y503262D01*
X445872Y496114D01*
X449501Y488512D01*
X452256Y480551D01*
X454103Y472332D01*
X454560Y468144D01*
X478591Y248144D01*
X478702Y247130D01*
X478868Y245097D01*
X478979Y243060D01*
X479035Y241020D01*
Y240000D01*
Y235934D01*
X478155Y227850D01*
X476408Y219908D01*
X473811Y212201D01*
X470397Y204821D01*
X466205Y197853D01*
X461285Y191378D01*
X455693Y185474D01*
X449496Y180209D01*
X442766Y175644D01*
X435582Y171834D01*
X428028Y168823D01*
X420193Y166646D01*
X412169Y165328D01*
X404049Y164886D01*
X395929Y165324D01*
X387904Y166638D01*
X380067Y168811D01*
X372512Y171819D01*
X365326Y175625D01*
X358594Y180187D01*
X352394Y185449D01*
X346800Y191351D01*
X341876Y197823D01*
X337681Y204789D01*
X334263Y212168D01*
X331664Y219873D01*
X329912Y227814D01*
X329470Y231856D01*
X329470Y231856D01*
X317368Y342655D01*
X317589Y343336D01*
X318500Y349088D01*
Y354912D01*
X317589Y360664D01*
X315789Y366203D01*
X314524Y368685D01*
X305440Y451856D01*
X304982Y456043D01*
X305011Y464467D01*
X305983Y472835D01*
X307885Y481042D01*
X310695Y488984D01*
X314375Y496561D01*
X318882Y503679D01*
X324156Y510247D01*
X330134Y516184D01*
X336738Y521414D01*
X343886Y525872D01*
X351488Y529501D01*
X359449Y532256D01*
X367668Y534103D01*
X376043Y535018D01*
X384467Y534989D01*
D02*
G37*
G36*
X876192Y554866D02*
X884535Y553702D01*
X892696Y551611D01*
X900571Y548620D01*
X908062Y544766D01*
X915074Y540097D01*
X921519Y534672D01*
X927317Y528560D01*
X932393Y521837D01*
X936685Y514588D01*
X940139Y506904D01*
X942710Y498882D01*
X943539Y494753D01*
X943539Y494752D01*
X943539D01*
X944893Y488003D01*
X945232Y486312D01*
X945754Y482903D01*
X946119Y479473D01*
X946326Y476030D01*
X946350Y474306D01*
X946993Y472706D01*
X948130Y469449D01*
X949116Y466144D01*
X949949Y462797D01*
X950288Y461107D01*
X950288Y461106D01*
X950288Y461106D01*
X984477Y290684D01*
X984784Y289151D01*
X985271Y286061D01*
X985629Y282953D01*
X985856Y279834D01*
X985905Y278270D01*
X986463Y276809D01*
X987456Y273843D01*
X988325Y270838D01*
X989067Y267800D01*
X989375Y266266D01*
X989375Y266266D01*
X989375Y266266D01*
X990358Y261368D01*
X990419Y261062D01*
X990537Y260448D01*
X990602Y260095D01*
X990808Y258911D01*
X990808Y258911D01*
X990810Y258903D01*
X991072Y257750D01*
X991098Y257629D01*
X991338Y256480D01*
X991340Y256470D01*
X991340D01*
X991340Y256470D01*
X992688Y249751D01*
X993237Y246079D01*
X993604Y242384D01*
X993788Y238675D01*
Y232873D01*
X992960Y225024D01*
X991313Y217306D01*
X988865Y209802D01*
X985643Y202598D01*
X981683Y195771D01*
X977028Y189397D01*
X971730Y183547D01*
X965848Y178285D01*
X959446Y173670D01*
X952595Y169752D01*
X945370Y166574D01*
X937852Y164172D01*
X930124Y162572D01*
X922270Y161792D01*
X914378Y161841D01*
X906534Y162717D01*
X898826Y164412D01*
X891338Y166906D01*
X884153Y170172D01*
X877351Y174174D01*
X871006Y178868D01*
X865189Y184201D01*
X859963Y190116D01*
X855387Y196546D01*
X851511Y203421D01*
X848378Y210665D01*
X846022Y218197D01*
X845246Y222066D01*
X844263Y226965D01*
X844202Y227271D01*
X844084Y227885D01*
X844019Y228238D01*
X843812Y229422D01*
X843812Y229422D01*
X843549Y230583D01*
X843470Y230946D01*
X843342Y231557D01*
X843280Y231863D01*
X843280D01*
X841990Y238295D01*
X841503Y241385D01*
X841146Y244492D01*
X840918Y247612D01*
X840869Y249175D01*
X840311Y250636D01*
X839318Y253602D01*
X838449Y256607D01*
X837707Y259645D01*
X837399Y261179D01*
X803211Y431601D01*
X802872Y433292D01*
X802350Y436702D01*
X801985Y440131D01*
X801778Y443574D01*
X801753Y445298D01*
X801111Y446899D01*
X799974Y450155D01*
X798988Y453460D01*
X798155Y456807D01*
X796461Y465247D01*
X795633Y469377D01*
X794911Y477771D01*
X795134Y486192D01*
X796298Y494535D01*
X798389Y502696D01*
X801380Y510571D01*
X805234Y518062D01*
X809903Y525074D01*
X815328Y531519D01*
X821440Y537317D01*
X828163Y542393D01*
X835412Y546685D01*
X843095Y550139D01*
X851118Y552710D01*
X859377Y554367D01*
X867771Y555089D01*
X876192Y554866D01*
D02*
G37*
G36*
X2980721Y751080D02*
X2981080Y750722D01*
X2981274Y750253D01*
Y599024D01*
X3307222D01*
X3339099Y630901D01*
X3340000Y631274D01*
X3500253D01*
X3500721Y631080D01*
X3501080Y630722D01*
X3501274Y630253D01*
X3501274Y630000D01*
X3501274Y20008D01*
X3501274Y20000D01*
Y17905D01*
X3500456Y13795D01*
X3498853Y9923D01*
X3496524Y6439D01*
X3493561Y3476D01*
X3490077Y1147D01*
X3486205Y-456D01*
X3482095Y-1274D01*
X17905D01*
X13795Y-456D01*
X9923Y1147D01*
X6439Y3476D01*
X3476Y6439D01*
X1147Y9923D01*
X-456Y13795D01*
X-1274Y17905D01*
Y20000D01*
Y94253D01*
X-1080Y94721D01*
X-721Y95080D01*
X-253Y95274D01*
X0Y95274D01*
X1999608Y95274D01*
X2198976Y230924D01*
Y749242D01*
X2198761Y749532D01*
X2198700Y750251D01*
X2199025Y750895D01*
X2199639Y751274D01*
X2200000D01*
X2980000Y751274D01*
X2980253D01*
X2980721Y751080D01*
D02*
G37*
%LPC*%
G36*
X2930948Y731400D02*
X2928052D01*
X2925254Y730650D01*
X2922746Y729202D01*
X2920698Y727154D01*
X2919250Y724646D01*
X2918500Y721848D01*
Y718952D01*
X2918997Y717097D01*
X2918543Y716484D01*
X2917976Y716000D01*
X2916024D01*
X2915457Y716484D01*
X2915003Y717097D01*
X2915500Y718952D01*
Y721848D01*
X2914750Y724646D01*
X2913302Y727154D01*
X2911254Y729202D01*
X2908746Y730650D01*
X2905948Y731400D01*
X2903052D01*
X2900254Y730650D01*
X2897746Y729202D01*
X2895698Y727154D01*
X2894250Y724646D01*
X2893500Y721848D01*
Y718952D01*
X2894250Y716154D01*
X2895698Y713646D01*
X2897746Y711598D01*
X2900254Y710150D01*
X2903052Y709400D01*
X2905948D01*
X2907283Y709758D01*
X2908181Y708860D01*
X2908000Y708185D01*
Y705815D01*
X2908613Y703526D01*
X2909798Y701474D01*
X2911474Y699798D01*
X2913526Y698613D01*
X2915815Y698000D01*
X2918185D01*
X2920474Y698613D01*
X2922526Y699798D01*
X2924202Y701474D01*
X2925387Y703526D01*
X2926000Y705815D01*
Y708185D01*
X2925819Y708860D01*
X2926717Y709758D01*
X2928052Y709400D01*
X2930948D01*
X2933746Y710150D01*
X2936254Y711598D01*
X2938302Y713646D01*
X2939750Y716154D01*
X2940500Y718952D01*
Y721848D01*
X2939750Y724646D01*
X2938302Y727154D01*
X2936254Y729202D01*
X2933746Y730650D01*
X2930948Y731400D01*
D02*
G37*
G36*
X2331094Y725500D02*
X2328906D01*
X2326884Y724663D01*
X2325337Y723115D01*
X2324500Y721094D01*
Y718906D01*
X2325337Y716885D01*
X2326884Y715337D01*
X2328906Y714500D01*
X2331094D01*
X2333116Y715337D01*
X2334663Y716885D01*
X2335500Y718906D01*
Y721094D01*
X2334663Y723115D01*
X2333116Y724663D01*
X2331094Y725500D01*
D02*
G37*
G36*
X2965500Y731400D02*
X2943500D01*
Y709400D01*
X2965500D01*
Y731400D01*
D02*
G37*
G36*
X2692685Y715250D02*
X2690315D01*
X2688026Y714637D01*
X2685974Y713452D01*
X2684298Y711776D01*
X2683113Y709724D01*
X2682500Y707435D01*
Y705065D01*
X2682681Y704390D01*
X2681783Y703492D01*
X2680448Y703850D01*
X2677552D01*
X2674754Y703100D01*
X2672246Y701652D01*
X2670198Y699604D01*
X2668750Y697096D01*
X2668000Y694298D01*
Y691402D01*
X2668750Y688604D01*
X2670198Y686096D01*
X2672246Y684048D01*
X2674754Y682600D01*
X2677552Y681850D01*
X2680448D01*
X2683246Y682600D01*
X2685754Y684048D01*
X2687802Y686096D01*
X2689250Y688604D01*
X2690000Y691402D01*
Y694298D01*
X2689503Y696153D01*
X2689957Y696767D01*
X2690524Y697250D01*
X2692476D01*
X2693043Y696767D01*
X2693497Y696153D01*
X2693000Y694298D01*
Y691402D01*
X2693750Y688604D01*
X2695198Y686096D01*
X2697246Y684048D01*
X2699754Y682600D01*
X2702552Y681850D01*
X2705448D01*
X2708246Y682600D01*
X2710754Y684048D01*
X2712802Y686096D01*
X2714250Y688604D01*
X2715000Y691402D01*
Y694298D01*
X2714250Y697096D01*
X2712802Y699604D01*
X2710754Y701652D01*
X2708246Y703100D01*
X2705448Y703850D01*
X2702552D01*
X2701217Y703492D01*
X2700319Y704390D01*
X2700500Y705065D01*
Y707435D01*
X2699886Y709724D01*
X2698702Y711776D01*
X2697026Y713452D01*
X2694974Y714637D01*
X2692685Y715250D01*
D02*
G37*
G36*
X2665000Y703850D02*
X2643000D01*
Y681850D01*
X2665000D01*
Y703850D01*
D02*
G37*
G36*
X2241950Y693363D02*
X2234450D01*
X2232207Y692916D01*
X2230305Y691646D01*
X2229034Y689743D01*
X2228587Y687500D01*
Y680000D01*
X2229034Y677757D01*
X2230305Y675854D01*
X2232207Y674584D01*
X2234450Y674137D01*
X2241950D01*
X2244194Y674584D01*
X2246095Y675854D01*
X2247366Y677757D01*
X2247813Y680000D01*
Y687500D01*
X2247366Y689743D01*
X2246095Y691646D01*
X2244194Y692916D01*
X2241950Y693363D01*
D02*
G37*
G36*
X2311094Y645500D02*
X2308906D01*
X2306884Y644663D01*
X2305337Y643115D01*
X2304500Y641094D01*
Y638906D01*
X2305337Y636884D01*
X2306884Y635337D01*
X2308906Y634500D01*
X2311094D01*
X2313116Y635337D01*
X2314663Y636884D01*
X2315500Y638906D01*
Y641094D01*
X2314663Y643115D01*
X2313116Y644663D01*
X2311094Y645500D01*
D02*
G37*
G36*
X2553330Y719500D02*
X2550170D01*
X2547118Y718682D01*
X2544382Y717102D01*
X2542148Y714868D01*
X2540568Y712132D01*
X2539750Y709080D01*
Y705920D01*
X2540568Y702868D01*
X2542148Y700132D01*
X2544382Y697898D01*
X2547118Y696318D01*
X2549583Y695657D01*
Y694343D01*
X2547118Y693682D01*
X2544382Y692102D01*
X2542148Y689868D01*
X2540568Y687132D01*
X2539750Y684080D01*
Y680920D01*
X2540568Y677868D01*
X2542148Y675132D01*
X2544382Y672898D01*
X2547118Y671318D01*
X2549583Y670657D01*
Y669343D01*
X2547118Y668682D01*
X2544382Y667102D01*
X2542148Y664868D01*
X2540568Y662132D01*
X2539750Y659080D01*
Y655920D01*
X2540568Y652868D01*
X2542148Y650132D01*
X2544382Y647898D01*
X2547118Y646318D01*
X2549583Y645657D01*
Y644343D01*
X2547118Y643682D01*
X2544382Y642102D01*
X2542148Y639868D01*
X2540568Y637132D01*
X2539750Y634080D01*
Y630920D01*
X2540568Y627868D01*
X2542148Y625132D01*
X2544382Y622898D01*
X2547118Y621318D01*
X2549583Y620657D01*
Y619343D01*
X2547118Y618682D01*
X2544382Y617102D01*
X2542148Y614868D01*
X2540568Y612132D01*
X2539750Y609080D01*
Y605920D01*
X2540568Y602868D01*
X2542148Y600132D01*
X2544382Y597898D01*
X2547118Y596318D01*
X2549583Y595657D01*
Y594343D01*
X2547118Y593682D01*
X2544382Y592102D01*
X2542148Y589868D01*
X2540568Y587132D01*
X2539750Y584080D01*
Y580920D01*
X2540568Y577868D01*
X2542148Y575132D01*
X2544382Y572898D01*
X2547118Y571318D01*
X2549583Y570657D01*
Y569343D01*
X2547118Y568682D01*
X2544382Y567102D01*
X2542148Y564868D01*
X2540568Y562132D01*
X2539750Y559080D01*
Y555920D01*
X2540568Y552868D01*
X2542148Y550132D01*
X2544382Y547898D01*
X2547118Y546318D01*
X2549583Y545657D01*
Y544343D01*
X2547118Y543682D01*
X2544382Y542102D01*
X2542148Y539868D01*
X2540568Y537132D01*
X2539750Y534080D01*
Y530920D01*
X2540568Y527868D01*
X2542148Y525132D01*
X2544382Y522898D01*
X2547118Y521318D01*
X2550170Y520500D01*
X2553330D01*
X2556382Y521318D01*
X2556421Y521340D01*
X2565506Y512256D01*
X2566994Y511261D01*
X2568750Y510912D01*
X2586000D01*
X2587756Y511261D01*
X2589244Y512256D01*
X2610101Y533113D01*
X2611096Y534601D01*
X2611445Y536357D01*
Y579964D01*
X2611096Y581720D01*
X2610101Y583208D01*
X2588463Y604847D01*
X2588750Y605920D01*
Y609080D01*
X2588327Y610658D01*
X2589225Y611557D01*
X2589436Y611500D01*
X2591674D01*
X2593836Y612079D01*
X2595774Y613198D01*
X2597357Y614781D01*
X2598476Y616719D01*
X2599055Y618881D01*
X2600283Y618778D01*
Y602497D01*
X2600208Y602422D01*
X2599371Y600401D01*
Y598213D01*
X2600208Y596191D01*
X2601755Y594644D01*
X2603777Y593807D01*
X2605965D01*
X2607986Y594644D01*
X2609533Y596191D01*
X2610371Y598213D01*
Y600401D01*
X2609533Y602422D01*
X2609459Y602497D01*
Y654379D01*
X2609109Y656135D01*
X2608115Y657624D01*
X2587910Y677829D01*
X2587932Y677868D01*
X2588750Y680920D01*
Y684080D01*
X2587932Y687132D01*
X2586353Y689868D01*
X2584118Y692102D01*
X2581382Y693682D01*
X2578330Y694500D01*
X2575170D01*
X2572118Y693682D01*
X2569382Y692102D01*
X2567148Y689868D01*
X2565568Y687132D01*
X2564908Y684667D01*
X2563593D01*
X2562932Y687132D01*
X2561353Y689868D01*
X2559118Y692102D01*
X2556382Y693682D01*
X2553917Y694343D01*
Y695657D01*
X2556382Y696318D01*
X2559118Y697898D01*
X2561353Y700132D01*
X2562932Y702868D01*
X2563750Y705920D01*
Y709080D01*
X2562932Y712132D01*
X2561353Y714868D01*
X2559118Y717102D01*
X2556382Y718682D01*
X2553330Y719500D01*
D02*
G37*
G36*
X2435751Y577000D02*
X2433249D01*
X2430833Y576353D01*
X2428667Y575102D01*
X2426898Y573333D01*
X2425647Y571167D01*
X2425000Y568751D01*
Y566249D01*
X2425647Y563833D01*
X2426898Y561667D01*
X2428667Y559898D01*
X2430833Y558647D01*
X2433249Y558000D01*
X2435751D01*
X2438167Y558647D01*
X2440333Y559898D01*
X2442102Y561667D01*
X2443353Y563833D01*
X2444000Y566249D01*
Y568751D01*
X2443353Y571167D01*
X2442102Y573333D01*
X2440333Y575102D01*
X2438167Y576353D01*
X2435751Y577000D01*
D02*
G37*
G36*
X2384951D02*
X2382449D01*
X2380033Y576353D01*
X2377867Y575102D01*
X2376098Y573333D01*
X2374847Y571167D01*
X2374200Y568751D01*
Y566249D01*
X2374847Y563833D01*
X2376098Y561667D01*
X2377867Y559898D01*
X2380033Y558647D01*
X2382449Y558000D01*
X2384951D01*
X2387367Y558647D01*
X2389533Y559898D01*
X2391302Y561667D01*
X2392553Y563833D01*
X2393200Y566249D01*
Y568751D01*
X2392553Y571167D01*
X2391302Y573333D01*
X2389533Y575102D01*
X2387367Y576353D01*
X2384951Y577000D01*
D02*
G37*
G36*
X2332117Y575400D02*
X2329483D01*
X2326940Y574719D01*
X2324660Y573402D01*
X2322798Y571540D01*
X2321481Y569260D01*
X2320800Y566716D01*
Y564084D01*
X2321481Y561540D01*
X2322798Y559260D01*
X2324660Y557398D01*
X2326940Y556082D01*
X2329483Y555400D01*
X2332117D01*
X2334660Y556082D01*
X2336940Y557398D01*
X2338802Y559260D01*
X2340119Y561540D01*
X2340800Y564084D01*
Y566716D01*
X2340119Y569260D01*
X2338802Y571540D01*
X2336940Y573402D01*
X2334660Y574719D01*
X2332117Y575400D01*
D02*
G37*
G36*
X2255916D02*
X2253284D01*
X2250740Y574719D01*
X2248460Y573402D01*
X2246598Y571540D01*
X2245282Y569260D01*
X2244600Y566716D01*
Y564084D01*
X2245282Y561540D01*
X2246598Y559260D01*
X2248460Y557398D01*
X2250740Y556082D01*
X2253284Y555400D01*
X2255916D01*
X2258460Y556082D01*
X2260740Y557398D01*
X2262602Y559260D01*
X2263918Y561540D01*
X2264600Y564084D01*
Y566716D01*
X2263918Y569260D01*
X2262602Y571540D01*
X2260740Y573402D01*
X2258460Y574719D01*
X2255916Y575400D01*
D02*
G37*
G36*
X2239200D02*
X2219200D01*
Y555400D01*
X2239200D01*
Y575400D01*
D02*
G37*
G36*
X2523094Y552500D02*
X2520906D01*
X2518884Y551663D01*
X2517337Y550116D01*
X2516967Y549221D01*
X2516880Y549171D01*
X2515509Y549019D01*
X2514366Y550163D01*
X2512344Y551000D01*
X2510156D01*
X2508134Y550163D01*
X2506587Y548615D01*
X2505891Y546934D01*
X2504879Y546563D01*
X2504480Y546548D01*
X2503866Y547163D01*
X2501844Y548000D01*
X2499656D01*
X2497634Y547163D01*
X2496087Y545616D01*
X2495250Y543594D01*
Y541406D01*
X2496087Y539384D01*
X2497634Y537837D01*
X2499656Y537000D01*
X2501844D01*
X2503866Y537837D01*
X2505413Y539384D01*
X2506109Y541067D01*
X2507121Y541437D01*
X2507520Y541452D01*
X2508134Y540837D01*
X2510156Y540000D01*
X2512344D01*
X2514366Y540837D01*
X2515913Y542384D01*
X2516283Y543279D01*
X2516370Y543329D01*
X2517741Y543481D01*
X2518884Y542337D01*
X2520906Y541500D01*
X2523094D01*
X2525116Y542337D01*
X2526663Y543885D01*
X2527500Y545906D01*
Y548094D01*
X2526663Y550116D01*
X2525116Y551663D01*
X2523094Y552500D01*
D02*
G37*
G36*
X2332117Y524600D02*
X2329483D01*
X2326940Y523918D01*
X2324660Y522602D01*
X2322798Y520740D01*
X2321481Y518460D01*
X2320800Y515916D01*
Y513284D01*
X2321481Y510740D01*
X2322798Y508460D01*
X2324660Y506598D01*
X2326940Y505281D01*
X2329483Y504600D01*
X2332117D01*
X2334660Y505281D01*
X2336940Y506598D01*
X2338802Y508460D01*
X2340119Y510740D01*
X2340800Y513284D01*
Y515916D01*
X2340119Y518460D01*
X2338802Y520740D01*
X2336940Y522602D01*
X2334660Y523918D01*
X2332117Y524600D01*
D02*
G37*
G36*
X2255916D02*
X2253284D01*
X2250740Y523918D01*
X2248460Y522602D01*
X2246598Y520740D01*
X2245282Y518460D01*
X2244600Y515916D01*
Y513284D01*
X2245282Y510740D01*
X2246598Y508460D01*
X2248460Y506598D01*
X2250740Y505281D01*
X2253284Y504600D01*
X2255916D01*
X2258460Y505281D01*
X2260740Y506598D01*
X2262602Y508460D01*
X2263918Y510740D01*
X2264600Y513284D01*
Y515916D01*
X2263918Y518460D01*
X2262602Y520740D01*
X2260740Y522602D01*
X2258460Y523918D01*
X2255916Y524600D01*
D02*
G37*
G36*
X2230517D02*
X2227883D01*
X2225340Y523918D01*
X2223060Y522602D01*
X2221198Y520740D01*
X2219881Y518460D01*
X2219200Y515916D01*
Y513284D01*
X2219881Y510740D01*
X2221198Y508460D01*
X2223060Y506598D01*
X2225340Y505281D01*
X2227883Y504600D01*
X2230517D01*
X2233060Y505281D01*
X2235340Y506598D01*
X2237202Y508460D01*
X2238519Y510740D01*
X2239200Y513284D01*
Y515916D01*
X2238519Y518460D01*
X2237202Y520740D01*
X2235340Y522602D01*
X2233060Y523918D01*
X2230517Y524600D01*
D02*
G37*
G36*
X3197844Y496750D02*
X3195656D01*
X3193635Y495913D01*
X3192087Y494366D01*
X3191250Y492344D01*
Y490156D01*
X3192087Y488134D01*
X3193635Y486587D01*
X3195656Y485750D01*
X3197844D01*
X3199865Y486587D01*
X3201413Y488134D01*
X3202250Y490156D01*
Y492344D01*
X3201413Y494366D01*
X3199865Y495913D01*
X3197844Y496750D01*
D02*
G37*
G36*
X2428098Y500500D02*
X2425202D01*
X2422404Y499750D01*
X2419896Y498302D01*
X2417848Y496254D01*
X2416400Y493746D01*
X2415650Y490948D01*
Y488052D01*
X2416400Y485254D01*
X2417848Y482746D01*
X2419896Y480698D01*
X2422404Y479250D01*
X2425202Y478500D01*
X2428098D01*
X2430896Y479250D01*
X2433404Y480698D01*
X2435452Y482746D01*
X2436900Y485254D01*
X2437650Y488052D01*
Y490948D01*
X2436900Y493746D01*
X2435452Y496254D01*
X2433404Y498302D01*
X2430896Y499750D01*
X2428098Y500500D01*
D02*
G37*
G36*
X2402698D02*
X2399802D01*
X2397004Y499750D01*
X2394496Y498302D01*
X2392448Y496254D01*
X2391000Y493746D01*
X2390250Y490948D01*
Y488052D01*
X2391000Y485254D01*
X2392448Y482746D01*
X2394496Y480698D01*
X2397004Y479250D01*
X2399802Y478500D01*
X2402698D01*
X2405496Y479250D01*
X2408004Y480698D01*
X2410052Y482746D01*
X2411500Y485254D01*
X2412250Y488052D01*
Y490948D01*
X2411500Y493746D01*
X2410052Y496254D01*
X2408004Y498302D01*
X2405496Y499750D01*
X2402698Y500500D01*
D02*
G37*
G36*
X3038344Y481000D02*
X3036156D01*
X3034135Y480163D01*
X3032587Y478615D01*
X3031750Y476594D01*
Y474406D01*
X3032587Y472384D01*
X3034135Y470837D01*
X3036156Y470000D01*
X3038344D01*
X3040366Y470837D01*
X3041913Y472384D01*
X3042750Y474406D01*
Y476594D01*
X3041913Y478615D01*
X3040366Y480163D01*
X3038344Y481000D01*
D02*
G37*
G36*
X3087594Y480250D02*
X3085406D01*
X3083384Y479413D01*
X3081837Y477865D01*
X3081000Y475844D01*
Y473656D01*
X3081837Y471634D01*
X3083384Y470087D01*
X3085406Y469250D01*
X3087594D01*
X3089615Y470087D01*
X3091163Y471634D01*
X3092000Y473656D01*
Y475844D01*
X3091163Y477865D01*
X3089615Y479413D01*
X3087594Y480250D01*
D02*
G37*
G36*
X2332117Y485400D02*
X2329483D01*
X2326940Y484719D01*
X2324660Y483402D01*
X2322798Y481540D01*
X2321481Y479260D01*
X2320800Y476716D01*
Y474084D01*
X2321481Y471540D01*
X2322798Y469260D01*
X2324660Y467398D01*
X2326940Y466082D01*
X2329483Y465400D01*
X2332117D01*
X2334660Y466082D01*
X2336940Y467398D01*
X2338802Y469260D01*
X2340119Y471540D01*
X2340800Y474084D01*
Y476716D01*
X2340119Y479260D01*
X2338802Y481540D01*
X2336940Y483402D01*
X2334660Y484719D01*
X2332117Y485400D01*
D02*
G37*
G36*
X2306716D02*
X2304084D01*
X2301540Y484719D01*
X2299260Y483402D01*
X2297398Y481540D01*
X2296082Y479260D01*
X2295400Y476716D01*
Y474084D01*
X2296082Y471540D01*
X2297398Y469260D01*
X2299260Y467398D01*
X2301540Y466082D01*
X2304084Y465400D01*
X2306716D01*
X2309260Y466082D01*
X2311540Y467398D01*
X2313402Y469260D01*
X2314718Y471540D01*
X2315400Y474084D01*
Y476716D01*
X2314718Y479260D01*
X2313402Y481540D01*
X2311540Y483402D01*
X2309260Y484719D01*
X2306716Y485400D01*
D02*
G37*
G36*
X2230517D02*
X2227883D01*
X2225340Y484719D01*
X2223060Y483402D01*
X2221198Y481540D01*
X2219881Y479260D01*
X2219200Y476716D01*
Y474084D01*
X2219881Y471540D01*
X2221198Y469260D01*
X2223060Y467398D01*
X2225340Y466082D01*
X2227883Y465400D01*
X2230517D01*
X2233060Y466082D01*
X2235340Y467398D01*
X2237202Y469260D01*
X2238519Y471540D01*
X2239200Y474084D01*
Y476716D01*
X2238519Y479260D01*
X2237202Y481540D01*
X2235340Y483402D01*
X2233060Y484719D01*
X2230517Y485400D01*
D02*
G37*
G36*
X3126344Y464000D02*
X3124156D01*
X3122134Y463163D01*
X3120587Y461615D01*
X3119750Y459594D01*
Y457406D01*
X3120587Y455384D01*
X3122134Y453837D01*
X3124156Y453000D01*
X3126344D01*
X3128365Y453837D01*
X3129913Y455384D01*
X3130750Y457406D01*
Y459594D01*
X3129913Y461615D01*
X3128365Y463163D01*
X3126344Y464000D01*
D02*
G37*
G36*
X3162519Y453500D02*
X3160331D01*
X3158309Y452663D01*
X3156762Y451115D01*
X3155925Y449094D01*
Y446906D01*
X3156762Y444884D01*
X3158309Y443337D01*
X3160331Y442500D01*
X3162519D01*
X3164540Y443337D01*
X3166087Y444884D01*
X3166925Y446906D01*
Y449094D01*
X3166087Y451115D01*
X3164540Y452663D01*
X3162519Y453500D01*
D02*
G37*
G36*
X3197962Y453093D02*
X3195774D01*
X3193753Y452255D01*
X3192206Y450708D01*
X3191368Y448687D01*
Y446499D01*
X3192206Y444477D01*
X3193753Y442930D01*
X3195774Y442093D01*
X3197962D01*
X3199984Y442930D01*
X3201531Y444477D01*
X3202368Y446499D01*
Y448687D01*
X3201531Y450708D01*
X3199984Y452255D01*
X3197962Y453093D01*
D02*
G37*
G36*
X3131887Y452175D02*
X3129698D01*
X3127677Y451338D01*
X3126130Y449790D01*
X3125292Y447769D01*
Y445581D01*
X3126130Y443559D01*
X3127677Y442012D01*
X3129698Y441175D01*
X3131887D01*
X3133908Y442012D01*
X3135455Y443559D01*
X3136292Y445581D01*
Y447769D01*
X3135455Y449790D01*
X3133908Y451338D01*
X3131887Y452175D01*
D02*
G37*
G36*
X3221909Y451733D02*
X3219721D01*
X3217699Y450896D01*
X3216152Y449348D01*
X3215315Y447327D01*
Y445139D01*
X3216152Y443117D01*
X3217699Y441570D01*
X3219721Y440733D01*
X3221909D01*
X3223930Y441570D01*
X3225478Y443117D01*
X3226315Y445139D01*
Y447327D01*
X3225478Y449348D01*
X3223930Y450896D01*
X3221909Y451733D01*
D02*
G37*
G36*
X2767344Y427500D02*
X2765156D01*
X2763134Y426663D01*
X2761587Y425116D01*
X2760750Y423094D01*
Y420906D01*
X2761587Y418885D01*
X2763134Y417337D01*
X2765156Y416500D01*
X2767344D01*
X2769366Y417337D01*
X2770912Y418885D01*
X2771750Y420906D01*
Y423094D01*
X2770912Y425116D01*
X2769366Y426663D01*
X2767344Y427500D01*
D02*
G37*
G36*
X2340800Y434600D02*
X2320800D01*
Y414600D01*
X2340800D01*
Y434600D01*
D02*
G37*
G36*
X2306716D02*
X2304084D01*
X2301540Y433918D01*
X2299260Y432602D01*
X2297398Y430740D01*
X2296082Y428460D01*
X2295400Y425916D01*
Y423284D01*
X2296082Y420740D01*
X2297398Y418460D01*
X2299260Y416598D01*
X2301540Y415281D01*
X2304084Y414600D01*
X2306716D01*
X2309260Y415281D01*
X2311540Y416598D01*
X2313402Y418460D01*
X2314718Y420740D01*
X2315400Y423284D01*
Y425916D01*
X2314718Y428460D01*
X2313402Y430740D01*
X2311540Y432602D01*
X2309260Y433918D01*
X2306716Y434600D01*
D02*
G37*
G36*
X2230517D02*
X2227883D01*
X2225340Y433918D01*
X2223060Y432602D01*
X2221198Y430740D01*
X2219881Y428460D01*
X2219200Y425916D01*
Y423284D01*
X2219881Y420740D01*
X2221198Y418460D01*
X2223060Y416598D01*
X2225340Y415281D01*
X2227883Y414600D01*
X2230517D01*
X2233060Y415281D01*
X2235340Y416598D01*
X2237202Y418460D01*
X2238519Y420740D01*
X2239200Y423284D01*
Y425916D01*
X2238519Y428460D01*
X2237202Y430740D01*
X2235340Y432602D01*
X2233060Y433918D01*
X2230517Y434600D01*
D02*
G37*
G36*
X2513094Y409000D02*
X2510906D01*
X2508884Y408163D01*
X2507337Y406615D01*
X2506500Y404594D01*
Y402406D01*
X2507337Y400384D01*
X2508884Y398837D01*
X2510906Y398000D01*
X2513094D01*
X2515116Y398837D01*
X2516663Y400384D01*
X2517500Y402406D01*
Y404594D01*
X2516663Y406615D01*
X2515116Y408163D01*
X2513094Y409000D01*
D02*
G37*
G36*
X2635594Y408250D02*
X2633406D01*
X2631385Y407413D01*
X2629837Y405866D01*
X2629000Y403844D01*
Y401656D01*
X2629837Y399635D01*
X2631385Y398087D01*
X2633406Y397250D01*
X2635594D01*
X2637615Y398087D01*
X2639163Y399635D01*
X2640000Y401656D01*
Y403844D01*
X2639163Y405866D01*
X2637615Y407413D01*
X2635594Y408250D01*
D02*
G37*
G36*
X2529731Y395542D02*
X2527543D01*
X2525522Y394705D01*
X2523975Y393158D01*
X2523138Y391136D01*
Y388948D01*
X2523975Y386927D01*
X2525522Y385380D01*
X2527543Y384542D01*
X2529731D01*
X2531753Y385380D01*
X2533300Y386927D01*
X2534138Y388948D01*
Y391136D01*
X2533300Y393158D01*
X2531753Y394705D01*
X2529731Y395542D01*
D02*
G37*
G36*
X2562094Y373500D02*
X2559906D01*
X2557885Y372663D01*
X2556337Y371115D01*
X2555500Y369094D01*
Y366906D01*
X2556337Y364884D01*
X2557885Y363337D01*
X2559906Y362500D01*
X2562094D01*
X2564116Y363337D01*
X2565663Y364884D01*
X2566500Y366906D01*
Y369094D01*
X2565663Y371115D01*
X2564116Y372663D01*
X2562094Y373500D01*
D02*
G37*
G36*
X2629344Y362250D02*
X2627156D01*
X2625135Y361413D01*
X2623587Y359865D01*
X2622750Y357844D01*
Y355656D01*
X2623587Y353634D01*
X2625135Y352087D01*
X2627156Y351250D01*
X2629344D01*
X2631365Y352087D01*
X2632913Y353634D01*
X2633750Y355656D01*
Y357844D01*
X2632913Y359865D01*
X2631365Y361413D01*
X2629344Y362250D01*
D02*
G37*
G36*
X3066344Y351500D02*
X3064156D01*
X3062134Y350663D01*
X3060587Y349115D01*
X3059750Y347094D01*
Y344906D01*
X3060587Y342884D01*
X3062134Y341337D01*
X3064156Y340500D01*
X3066344D01*
X3068365Y341337D01*
X3069913Y342884D01*
X3070750Y344906D01*
Y347094D01*
X3069913Y349115D01*
X3068365Y350663D01*
X3066344Y351500D01*
D02*
G37*
G36*
X2318594Y349000D02*
X2316406D01*
X2314384Y348163D01*
X2312837Y346615D01*
X2312000Y344594D01*
Y342406D01*
X2312837Y340384D01*
X2314384Y338837D01*
X2316406Y338000D01*
X2318594D01*
X2320616Y338837D01*
X2322163Y340384D01*
X2323000Y342406D01*
Y344594D01*
X2322163Y346615D01*
X2320616Y348163D01*
X2318594Y349000D01*
D02*
G37*
G36*
X2957594Y339500D02*
X2955406D01*
X2953384Y338663D01*
X2951837Y337116D01*
X2951000Y335094D01*
Y332906D01*
X2951837Y330885D01*
X2953384Y329337D01*
X2955406Y328500D01*
X2957594D01*
X2959615Y329337D01*
X2961163Y330885D01*
X2962000Y332906D01*
Y335094D01*
X2961163Y337116D01*
X2959615Y338663D01*
X2957594Y339500D01*
D02*
G37*
G36*
X2960218Y323289D02*
X2958030D01*
X2956009Y322452D01*
X2954461Y320905D01*
X2953624Y318883D01*
Y316695D01*
X2954461Y314674D01*
X2956009Y313127D01*
X2958030Y312289D01*
X2960218D01*
X2962240Y313127D01*
X2963787Y314674D01*
X2964624Y316695D01*
Y318883D01*
X2963787Y320905D01*
X2962240Y322452D01*
X2960218Y323289D01*
D02*
G37*
G36*
X2263856Y335874D02*
X2261668D01*
X2259646Y335037D01*
X2258099Y333490D01*
X2257262Y331468D01*
Y329280D01*
X2258099Y327259D01*
X2258810Y326548D01*
X2258833Y324778D01*
X2256599Y322544D01*
X2255936Y321552D01*
X2255703Y320382D01*
X2255703Y320381D01*
Y295066D01*
X2254856Y294500D01*
X2252668D01*
X2250646Y293663D01*
X2249099Y292115D01*
X2248262Y290094D01*
Y287906D01*
X2249099Y285884D01*
X2250646Y284337D01*
X2252668Y283500D01*
X2254856D01*
X2256877Y284337D01*
X2258425Y285884D01*
X2258871Y286962D01*
X2260369Y287260D01*
X2282016Y265613D01*
Y108269D01*
X2282016Y108269D01*
X2282249Y107098D01*
X2282912Y106106D01*
X2381180Y7837D01*
X2382173Y7174D01*
X2383343Y6941D01*
X2889657D01*
X2889657Y6941D01*
X2890827Y7174D01*
X2891820Y7837D01*
X2934163Y50180D01*
X2934826Y51173D01*
X2935059Y52343D01*
X2935059Y52343D01*
Y55000D01*
X2935594D01*
X2937615Y55837D01*
X2939163Y57385D01*
X2940000Y59406D01*
Y61594D01*
X2939163Y63615D01*
X2937615Y65163D01*
X2935594Y66000D01*
X2933406D01*
X2931385Y65163D01*
X2930000Y63778D01*
X2928615Y65163D01*
X2926594Y66000D01*
X2924406D01*
X2922385Y65163D01*
X2920837Y63615D01*
X2920000Y61594D01*
Y59406D01*
X2920837Y57385D01*
X2922385Y55837D01*
X2923326Y55448D01*
X2923624Y53949D01*
X2886733Y17059D01*
X2386267D01*
X2292133Y111193D01*
Y183888D01*
X2293403Y184736D01*
X2294480Y184290D01*
X2296669D01*
X2298690Y185128D01*
X2300237Y186675D01*
X2301075Y188696D01*
Y190884D01*
X2300237Y192906D01*
X2298690Y194453D01*
X2296669Y195290D01*
X2294480D01*
X2293403Y194844D01*
X2292133Y195693D01*
Y268536D01*
X2292133Y268537D01*
X2291900Y269707D01*
X2291237Y270700D01*
X2291237Y270700D01*
X2265821Y296116D01*
Y310848D01*
X2267091Y311696D01*
X2268168Y311250D01*
X2270356D01*
X2272377Y312087D01*
X2273925Y313634D01*
X2274762Y315656D01*
Y317844D01*
X2273925Y319865D01*
X2272377Y321413D01*
X2270356Y322250D01*
X2268168D01*
X2267735Y322071D01*
X2266761Y322722D01*
X2266690Y322736D01*
X2265627Y323194D01*
X2265774Y324149D01*
X2265821Y324381D01*
X2265821Y324382D01*
Y325688D01*
X2265877Y325712D01*
X2267424Y327259D01*
X2268262Y329280D01*
Y331468D01*
X2267424Y333490D01*
X2265877Y335037D01*
X2263856Y335874D01*
D02*
G37*
G36*
X3296844Y313250D02*
X3294656D01*
X3292635Y312413D01*
X3291087Y310865D01*
X3290250Y308844D01*
Y306656D01*
X3291087Y304634D01*
X3292635Y303087D01*
X3294656Y302250D01*
X3296844D01*
X3298865Y303087D01*
X3300413Y304634D01*
X3301250Y306656D01*
Y308844D01*
X3300413Y310865D01*
X3298865Y312413D01*
X3296844Y313250D01*
D02*
G37*
G36*
X2760094Y289250D02*
X2757906D01*
X2755884Y288413D01*
X2754337Y286866D01*
X2753500Y284844D01*
Y282656D01*
X2754337Y280634D01*
X2755884Y279087D01*
X2757906Y278250D01*
X2760094D01*
X2762115Y279087D01*
X2763663Y280634D01*
X2764500Y282656D01*
Y284844D01*
X2763663Y286866D01*
X2762115Y288413D01*
X2760094Y289250D01*
D02*
G37*
G36*
X3326844Y277000D02*
X3324656D01*
X3322635Y276163D01*
X3321087Y274615D01*
X3320250Y272594D01*
Y270406D01*
X3321087Y268384D01*
X3322635Y266837D01*
X3324656Y266000D01*
X3326844D01*
X3328865Y266837D01*
X3330413Y268384D01*
X3331250Y270406D01*
Y272594D01*
X3330413Y274615D01*
X3328865Y276163D01*
X3326844Y277000D01*
D02*
G37*
G36*
X2692736Y280294D02*
X2690548D01*
X2688526Y279457D01*
X2686979Y277910D01*
X2686142Y275889D01*
Y273701D01*
X2686979Y271679D01*
X2688526Y270132D01*
X2690548Y269294D01*
X2692232D01*
X2692676Y268522D01*
X2692854Y268074D01*
X2692050Y266132D01*
Y263944D01*
X2692887Y261923D01*
X2694435Y260376D01*
X2696456Y259538D01*
X2698644D01*
X2700666Y260376D01*
X2702213Y261923D01*
X2703050Y263944D01*
Y266132D01*
X2702213Y268154D01*
X2700666Y269701D01*
X2698644Y270538D01*
X2696960D01*
X2696516Y271311D01*
X2696338Y271759D01*
X2697142Y273701D01*
Y275889D01*
X2696304Y277910D01*
X2694757Y279457D01*
X2692736Y280294D01*
D02*
G37*
G36*
X2771094Y269000D02*
X2768906D01*
X2766884Y268163D01*
X2765337Y266616D01*
X2764500Y264594D01*
Y262406D01*
X2765337Y260385D01*
X2766884Y258837D01*
X2768906Y258000D01*
X2771094D01*
X2773116Y258837D01*
X2774662Y260385D01*
X2775500Y262406D01*
Y264594D01*
X2774662Y266616D01*
X2773116Y268163D01*
X2771094Y269000D01*
D02*
G37*
G36*
X2250594Y258000D02*
X2248406D01*
X2246384Y257163D01*
X2244837Y255616D01*
X2244000Y253594D01*
Y251406D01*
X2244837Y249384D01*
X2246384Y247837D01*
X2248406Y247000D01*
X2249108D01*
X2249156Y245750D01*
X2247135Y244913D01*
X2245587Y243365D01*
X2244750Y241344D01*
Y239156D01*
X2245587Y237134D01*
X2247135Y235587D01*
X2249156Y234750D01*
X2251344D01*
X2253365Y235587D01*
X2254913Y237134D01*
X2255750Y239156D01*
Y241344D01*
X2254913Y243365D01*
X2253365Y244913D01*
X2251344Y245750D01*
X2250642D01*
X2250594Y247000D01*
X2252616Y247837D01*
X2254163Y249384D01*
X2255000Y251406D01*
Y253594D01*
X2254163Y255616D01*
X2252616Y257163D01*
X2250594Y258000D01*
D02*
G37*
G36*
X2629657Y231856D02*
X2627469D01*
X2625447Y231019D01*
X2623900Y229471D01*
X2623063Y227450D01*
Y225262D01*
X2623900Y223241D01*
X2625447Y221693D01*
X2627469Y220856D01*
X2629657D01*
X2631678Y221693D01*
X2633225Y223241D01*
X2634063Y225262D01*
Y227450D01*
X2633225Y229471D01*
X2631678Y231019D01*
X2629657Y231856D01*
D02*
G37*
G36*
X2725125Y228947D02*
X2722936D01*
X2720915Y228110D01*
X2719368Y226563D01*
X2718531Y224541D01*
Y222353D01*
X2719368Y220332D01*
X2720915Y218785D01*
X2722936Y217947D01*
X2725125D01*
X2727146Y218785D01*
X2728693Y220332D01*
X2729531Y222353D01*
Y224541D01*
X2728693Y226563D01*
X2727146Y228110D01*
X2725125Y228947D01*
D02*
G37*
G36*
X2238657Y226643D02*
X2236469D01*
X2234448Y225805D01*
X2232901Y224258D01*
X2232063Y222237D01*
Y220049D01*
X2232901Y218027D01*
X2234448Y216480D01*
X2236469Y215643D01*
X2238657D01*
X2240679Y216480D01*
X2242226Y218027D01*
X2243063Y220049D01*
Y222237D01*
X2242226Y224258D01*
X2240679Y225805D01*
X2238657Y226643D01*
D02*
G37*
G36*
X2954259Y220947D02*
X2952071D01*
X2950049Y220110D01*
X2948502Y218563D01*
X2947665Y216541D01*
Y214353D01*
X2948502Y212332D01*
X2950049Y210784D01*
X2952071Y209947D01*
X2954259D01*
X2956280Y210784D01*
X2957827Y212332D01*
X2958665Y214353D01*
Y216541D01*
X2957827Y218563D01*
X2956280Y220110D01*
X2954259Y220947D01*
D02*
G37*
G36*
X2703594Y220750D02*
X2701406D01*
X2699384Y219913D01*
X2697838Y218365D01*
X2697000Y216344D01*
Y214156D01*
X2697838Y212134D01*
X2699384Y210587D01*
X2701406Y209750D01*
X2703594D01*
X2705616Y210587D01*
X2707163Y212134D01*
X2708000Y214156D01*
Y216344D01*
X2707163Y218365D01*
X2705616Y219913D01*
X2703594Y220750D01*
D02*
G37*
G36*
X2629064Y208000D02*
X2626877D01*
X2624855Y207163D01*
X2623308Y205616D01*
X2622470Y203594D01*
Y201406D01*
X2623308Y199384D01*
X2624855Y197837D01*
X2626877Y197000D01*
X2629064D01*
X2631086Y197837D01*
X2632633Y199384D01*
X2633470Y201406D01*
Y203594D01*
X2632633Y205616D01*
X2631086Y207163D01*
X2629064Y208000D01*
D02*
G37*
G36*
X2960376Y198070D02*
X2958188D01*
X2956167Y197233D01*
X2954620Y195686D01*
X2953782Y193664D01*
Y191476D01*
X2954620Y189455D01*
X2956167Y187908D01*
X2958188Y187070D01*
X2960376D01*
X2962398Y187908D01*
X2963945Y189455D01*
X2964782Y191476D01*
Y193664D01*
X2963945Y195686D01*
X2962398Y197233D01*
X2960376Y198070D01*
D02*
G37*
G36*
X2225623Y193824D02*
X2223436D01*
X2221414Y192987D01*
X2219867Y191440D01*
X2219030Y189418D01*
Y187230D01*
X2219867Y185209D01*
X2221414Y183662D01*
X2223436Y182824D01*
X2225623D01*
X2227645Y183662D01*
X2229192Y185209D01*
X2230029Y187230D01*
Y189418D01*
X2229192Y191440D01*
X2227645Y192987D01*
X2225623Y193824D01*
D02*
G37*
G36*
X2472844Y190250D02*
X2470656D01*
X2468634Y189413D01*
X2467087Y187866D01*
X2466250Y185844D01*
Y183656D01*
X2467087Y181635D01*
X2468634Y180087D01*
X2470656Y179250D01*
X2472844D01*
X2474866Y180087D01*
X2476413Y181635D01*
X2477250Y183656D01*
Y185844D01*
X2476413Y187866D01*
X2474866Y189413D01*
X2472844Y190250D01*
D02*
G37*
G36*
X2384451Y187857D02*
X2382263D01*
X2380242Y187020D01*
X2378695Y185473D01*
X2377857Y183451D01*
Y181263D01*
X2378695Y179242D01*
X2380242Y177695D01*
X2382263Y176857D01*
X2384451D01*
X2386473Y177695D01*
X2388020Y179242D01*
X2388857Y181263D01*
Y183451D01*
X2388020Y185473D01*
X2386473Y187020D01*
X2384451Y187857D01*
D02*
G37*
G36*
X2959844Y185500D02*
X2957656D01*
X2955634Y184663D01*
X2954087Y183116D01*
X2953250Y181094D01*
Y178906D01*
X2954087Y176884D01*
X2955634Y175337D01*
X2957656Y174500D01*
X2959844D01*
X2961866Y175337D01*
X2963412Y176884D01*
X2964250Y178906D01*
Y181094D01*
X2963412Y183116D01*
X2961866Y184663D01*
X2959844Y185500D01*
D02*
G37*
G36*
X3333260Y212299D02*
X3333260Y212299D01*
X3323356D01*
X3322186Y212066D01*
X3321194Y211403D01*
X3320530Y210410D01*
X3320298Y209240D01*
X3320530Y208069D01*
X3321194Y207077D01*
X3322186Y206414D01*
X3323356Y206181D01*
X3331993D01*
X3352837Y185337D01*
X3352837Y185337D01*
X3372837Y165337D01*
X3373830Y164674D01*
X3375000Y164441D01*
X3376171Y164674D01*
X3377163Y165337D01*
X3377826Y166329D01*
X3378059Y167500D01*
X3377826Y168671D01*
X3377163Y169663D01*
X3357163Y189663D01*
X3357163Y189663D01*
X3335423Y211403D01*
X3334431Y212066D01*
X3333260Y212299D01*
D02*
G37*
G36*
X3001094Y165500D02*
X2998906D01*
X2996884Y164663D01*
X2995337Y163116D01*
X2994500Y161094D01*
Y158906D01*
X2995337Y156884D01*
X2996884Y155337D01*
X2998906Y154500D01*
X3001094D01*
X3003116Y155337D01*
X3004662Y156884D01*
X3005500Y158906D01*
Y161094D01*
X3004662Y163116D01*
X3003116Y164663D01*
X3001094Y165500D01*
D02*
G37*
G36*
X3058594Y96000D02*
X3056406D01*
X3054384Y95163D01*
X3052838Y93616D01*
X3052000Y91594D01*
Y89406D01*
X3052838Y87385D01*
X3054384Y85837D01*
X3056406Y85000D01*
X3058594D01*
X3060616Y85837D01*
X3062163Y87385D01*
X3063000Y89406D01*
Y91594D01*
X3062163Y93616D01*
X3060616Y95163D01*
X3058594Y96000D01*
D02*
G37*
G36*
X2093689Y80750D02*
X2091501D01*
X2089480Y79913D01*
X2087933Y78366D01*
X2087095Y76344D01*
Y74156D01*
X2087933Y72134D01*
X2089480Y70587D01*
X2091501Y69750D01*
X2093689D01*
X2095711Y70587D01*
X2097258Y72134D01*
X2098095Y74156D01*
Y76344D01*
X2097258Y78366D01*
X2095711Y79913D01*
X2093689Y80750D01*
D02*
G37*
G36*
X1568344Y72750D02*
X1566156D01*
X1564135Y71913D01*
X1562587Y70366D01*
X1561750Y68344D01*
Y66156D01*
X1562587Y64134D01*
X1564135Y62587D01*
X1566156Y61750D01*
X1568344D01*
X1570365Y62587D01*
X1571913Y64134D01*
X1572750Y66156D01*
Y68344D01*
X1571913Y70366D01*
X1570365Y71913D01*
X1568344Y72750D01*
D02*
G37*
G36*
X3028026Y65580D02*
X3025838D01*
X3023816Y64742D01*
X3022269Y63195D01*
X3021432Y61174D01*
Y58986D01*
X3022269Y56964D01*
X3023816Y55417D01*
X3025838Y54580D01*
X3028026D01*
X3030047Y55417D01*
X3031595Y56964D01*
X3032432Y58986D01*
Y61174D01*
X3031595Y63195D01*
X3030047Y64742D01*
X3028026Y65580D01*
D02*
G37*
G36*
X3150594Y65500D02*
X3148406D01*
X3146385Y64663D01*
X3144837Y63116D01*
X3144000Y61094D01*
Y58906D01*
X3144837Y56884D01*
X3146385Y55337D01*
X3148406Y54500D01*
X3150594D01*
X3152615Y55337D01*
X3154163Y56884D01*
X3155000Y58906D01*
Y61094D01*
X3154163Y63116D01*
X3152615Y64663D01*
X3150594Y65500D01*
D02*
G37*
G36*
X1326435Y66250D02*
X1324065D01*
X1321776Y65637D01*
X1319724Y64452D01*
X1318048Y62776D01*
X1316863Y60724D01*
X1316250Y58435D01*
Y56065D01*
X1316431Y55390D01*
X1315533Y54492D01*
X1314198Y54850D01*
X1311302D01*
X1308504Y54100D01*
X1305996Y52652D01*
X1303948Y50604D01*
X1302500Y48096D01*
X1301750Y45298D01*
Y42402D01*
X1302500Y39604D01*
X1303948Y37096D01*
X1305996Y35048D01*
X1308504Y33600D01*
X1311302Y32850D01*
X1314198D01*
X1316996Y33600D01*
X1319504Y35048D01*
X1321552Y37096D01*
X1323000Y39604D01*
X1323750Y42402D01*
Y45298D01*
X1323253Y47153D01*
X1323707Y47767D01*
X1324274Y48250D01*
X1326226D01*
X1326793Y47767D01*
X1327247Y47153D01*
X1326750Y45298D01*
Y42402D01*
X1327500Y39604D01*
X1328948Y37096D01*
X1330996Y35048D01*
X1333504Y33600D01*
X1336302Y32850D01*
X1339198D01*
X1341996Y33600D01*
X1344504Y35048D01*
X1346552Y37096D01*
X1348000Y39604D01*
X1348750Y42402D01*
Y45298D01*
X1348000Y48096D01*
X1346552Y50604D01*
X1344504Y52652D01*
X1341996Y54100D01*
X1339198Y54850D01*
X1336302D01*
X1334967Y54492D01*
X1334069Y55390D01*
X1334250Y56065D01*
Y58435D01*
X1333637Y60724D01*
X1332452Y62776D01*
X1330776Y64452D01*
X1328724Y65637D01*
X1326435Y66250D01*
D02*
G37*
G36*
X350844Y62750D02*
X348656D01*
X346634Y61913D01*
X345087Y60366D01*
X344250Y58344D01*
Y56156D01*
X345087Y54134D01*
X346634Y52587D01*
X348656Y51750D01*
X350844D01*
X352865Y52587D01*
X354413Y54134D01*
X355250Y56156D01*
Y58344D01*
X354413Y60366D01*
X352865Y61913D01*
X350844Y62750D01*
D02*
G37*
G36*
X3070632Y61032D02*
X3068444D01*
X3066422Y60195D01*
X3064875Y58647D01*
X3064038Y56626D01*
Y54438D01*
X3064875Y52417D01*
X3066422Y50869D01*
X3068444Y50032D01*
X3070632D01*
X3072654Y50869D01*
X3074201Y52417D01*
X3075038Y54438D01*
Y56626D01*
X3074201Y58647D01*
X3072654Y60195D01*
X3070632Y61032D01*
D02*
G37*
G36*
X842742Y60648D02*
X840554D01*
X838532Y59811D01*
X836985Y58263D01*
X836148Y56242D01*
Y54054D01*
X836985Y52032D01*
X838532Y50485D01*
X840554Y49648D01*
X842742D01*
X844763Y50485D01*
X846311Y52032D01*
X847148Y54054D01*
Y56242D01*
X846311Y58263D01*
X844763Y59811D01*
X842742Y60648D01*
D02*
G37*
G36*
X111185Y59000D02*
X108815D01*
X106526Y58387D01*
X104474Y57202D01*
X102798Y55526D01*
X101613Y53474D01*
X101000Y51185D01*
Y48815D01*
X101181Y48140D01*
X100283Y47242D01*
X98948Y47600D01*
X96052D01*
X93254Y46850D01*
X90746Y45402D01*
X88698Y43354D01*
X87250Y40846D01*
X86500Y38048D01*
Y35152D01*
X87250Y32354D01*
X88698Y29846D01*
X90746Y27798D01*
X93254Y26350D01*
X96052Y25600D01*
X98948D01*
X101746Y26350D01*
X104254Y27798D01*
X106302Y29846D01*
X107750Y32354D01*
X108500Y35152D01*
Y38048D01*
X108003Y39903D01*
X108457Y40517D01*
X109024Y41000D01*
X110976D01*
X111543Y40517D01*
X111997Y39903D01*
X111500Y38048D01*
Y35152D01*
X112250Y32354D01*
X113698Y29846D01*
X115746Y27798D01*
X118254Y26350D01*
X121052Y25600D01*
X123948D01*
X126746Y26350D01*
X129254Y27798D01*
X131302Y29846D01*
X132750Y32354D01*
X133500Y35152D01*
Y38048D01*
X132750Y40846D01*
X131302Y43354D01*
X129254Y45402D01*
X126746Y46850D01*
X123948Y47600D01*
X121052D01*
X119717Y47242D01*
X118819Y48140D01*
X119000Y48815D01*
Y51185D01*
X118387Y53474D01*
X117202Y55526D01*
X115526Y57202D01*
X113474Y58387D01*
X111185Y59000D01*
D02*
G37*
G36*
X733935Y58250D02*
X731565D01*
X729276Y57637D01*
X727224Y56452D01*
X725548Y54776D01*
X724363Y52724D01*
X723750Y50435D01*
Y48065D01*
X723931Y47390D01*
X723033Y46492D01*
X721698Y46850D01*
X718802D01*
X716004Y46100D01*
X713496Y44652D01*
X711448Y42604D01*
X710000Y40096D01*
X709250Y37298D01*
Y34402D01*
X710000Y31604D01*
X711448Y29096D01*
X713496Y27048D01*
X716004Y25600D01*
X718802Y24850D01*
X721698D01*
X724496Y25600D01*
X727004Y27048D01*
X729052Y29096D01*
X730500Y31604D01*
X731250Y34402D01*
Y37298D01*
X730753Y39153D01*
X731207Y39766D01*
X731774Y40250D01*
X733726D01*
X734293Y39766D01*
X734747Y39153D01*
X734250Y37298D01*
Y34402D01*
X735000Y31604D01*
X736448Y29096D01*
X738496Y27048D01*
X741004Y25600D01*
X743802Y24850D01*
X746698D01*
X749496Y25600D01*
X752004Y27048D01*
X754052Y29096D01*
X755500Y31604D01*
X756250Y34402D01*
Y37298D01*
X755500Y40096D01*
X754052Y42604D01*
X752004Y44652D01*
X749496Y46100D01*
X746698Y46850D01*
X743802D01*
X742467Y46492D01*
X741569Y47390D01*
X741750Y48065D01*
Y50435D01*
X741137Y52724D01*
X739952Y54776D01*
X738276Y56452D01*
X736224Y57637D01*
X733935Y58250D01*
D02*
G37*
G36*
X1732594Y56500D02*
X1730406D01*
X1728385Y55663D01*
X1726837Y54116D01*
X1726000Y52094D01*
Y49906D01*
X1726837Y47884D01*
X1728385Y46337D01*
X1730406Y45500D01*
X1732594D01*
X1734615Y46337D01*
X1736163Y47884D01*
X1737000Y49906D01*
Y52094D01*
X1736163Y54116D01*
X1734615Y55663D01*
X1732594Y56500D01*
D02*
G37*
G36*
X396594Y55000D02*
X394406D01*
X392384Y54163D01*
X390837Y52615D01*
X390000Y50594D01*
Y48406D01*
X390837Y46385D01*
X392384Y44837D01*
X394406Y44000D01*
X396594D01*
X398615Y44837D01*
X400163Y46385D01*
X401000Y48406D01*
Y50594D01*
X400163Y52615D01*
X398615Y54163D01*
X396594Y55000D01*
D02*
G37*
G36*
X1364198Y54850D02*
X1361302D01*
X1358504Y54100D01*
X1355996Y52652D01*
X1353948Y50604D01*
X1352500Y48096D01*
X1351750Y45298D01*
Y42402D01*
X1352500Y39604D01*
X1353948Y37096D01*
X1355996Y35048D01*
X1358504Y33600D01*
X1361302Y32850D01*
X1364198D01*
X1366996Y33600D01*
X1369504Y35048D01*
X1371552Y37096D01*
X1373000Y39604D01*
X1373750Y42402D01*
Y45298D01*
X1373000Y48096D01*
X1371552Y50604D01*
X1369504Y52652D01*
X1366996Y54100D01*
X1364198Y54850D01*
D02*
G37*
G36*
X1298750D02*
X1276750D01*
Y32850D01*
X1298750D01*
Y54850D01*
D02*
G37*
G36*
X1702594Y48000D02*
X1700406D01*
X1698385Y47163D01*
X1696837Y45616D01*
X1696000Y43594D01*
Y41406D01*
X1696837Y39385D01*
X1698385Y37837D01*
X1700243Y37067D01*
X1700798Y35827D01*
X1700587Y35615D01*
X1699750Y33594D01*
Y31406D01*
X1700587Y29385D01*
X1702135Y27837D01*
X1704156Y27000D01*
X1706344D01*
X1708365Y27837D01*
X1709913Y29385D01*
X1710750Y31406D01*
Y33594D01*
X1709913Y35615D01*
X1708365Y37163D01*
X1706507Y37933D01*
X1705952Y39173D01*
X1706163Y39385D01*
X1707000Y41406D01*
Y43594D01*
X1706163Y45616D01*
X1704615Y47163D01*
X1702594Y48000D01*
D02*
G37*
G36*
X148948Y47600D02*
X146052D01*
X143254Y46850D01*
X140746Y45402D01*
X138698Y43354D01*
X137250Y40846D01*
X136500Y38048D01*
Y35152D01*
X137250Y32354D01*
X138698Y29846D01*
X140746Y27798D01*
X143254Y26350D01*
X146052Y25600D01*
X148948D01*
X151746Y26350D01*
X154254Y27798D01*
X156302Y29846D01*
X157750Y32354D01*
X158500Y35152D01*
Y38048D01*
X157750Y40846D01*
X156302Y43354D01*
X154254Y45402D01*
X151746Y46850D01*
X148948Y47600D01*
D02*
G37*
G36*
X83500D02*
X61500D01*
Y25600D01*
X83500D01*
Y47600D01*
D02*
G37*
G36*
X771698Y46850D02*
X768802D01*
X766004Y46100D01*
X763496Y44652D01*
X761448Y42604D01*
X760000Y40096D01*
X759250Y37298D01*
Y34402D01*
X760000Y31604D01*
X761448Y29096D01*
X763496Y27048D01*
X766004Y25600D01*
X768802Y24850D01*
X771698D01*
X774496Y25600D01*
X777004Y27048D01*
X779052Y29096D01*
X780500Y31604D01*
X781250Y34402D01*
Y37298D01*
X780500Y40096D01*
X779052Y42604D01*
X777004Y44652D01*
X774496Y46100D01*
X771698Y46850D01*
D02*
G37*
G36*
X706250D02*
X684250D01*
Y24850D01*
X706250D01*
Y46850D01*
D02*
G37*
G36*
X550619Y54000D02*
X548381D01*
X546219Y53421D01*
X544281Y52302D01*
X542698Y50719D01*
X541579Y48781D01*
X541000Y46619D01*
Y44381D01*
X541119Y43938D01*
X540131Y42717D01*
X533000D01*
X530659Y42252D01*
X528674Y40926D01*
X527348Y38941D01*
X526883Y36600D01*
Y28600D01*
X527348Y26259D01*
X528674Y24274D01*
X530659Y22948D01*
X533000Y22483D01*
X541000D01*
X543341Y22948D01*
X545326Y24274D01*
X546652Y26259D01*
X547118Y28600D01*
Y36024D01*
X548202Y37048D01*
X548381Y37000D01*
X550619D01*
X551693Y37288D01*
X552178Y36882D01*
X552617Y36221D01*
X552000Y33916D01*
Y31284D01*
X552682Y28740D01*
X553998Y26460D01*
X555860Y24598D01*
X558140Y23282D01*
X560684Y22600D01*
X563316D01*
X565860Y23282D01*
X568140Y24598D01*
X570002Y26460D01*
X571319Y28740D01*
X572000Y31284D01*
Y33916D01*
X571319Y36460D01*
X570002Y38740D01*
X568140Y40602D01*
X565860Y41919D01*
X563316Y42600D01*
X560684D01*
X558695Y42067D01*
X557666Y42978D01*
X557640Y43036D01*
X558000Y44381D01*
Y46619D01*
X557421Y48781D01*
X556302Y50719D01*
X554719Y52302D01*
X552781Y53421D01*
X550619Y54000D01*
D02*
G37*
%LPD*%
G36*
X2600283Y652479D02*
Y621222D01*
X2599055Y621119D01*
X2598476Y623281D01*
X2597357Y625219D01*
X2595774Y626802D01*
X2593836Y627921D01*
X2591674Y628500D01*
X2589436D01*
X2589225Y628443D01*
X2588327Y629342D01*
X2588750Y630920D01*
Y634080D01*
X2587932Y637132D01*
X2586353Y639868D01*
X2584118Y642102D01*
X2581382Y643682D01*
X2578917Y644343D01*
Y645657D01*
X2581382Y646318D01*
X2584118Y647898D01*
X2586353Y650132D01*
X2587932Y652868D01*
X2588750Y655920D01*
Y659080D01*
X2587932Y662132D01*
X2586701Y664264D01*
X2587717Y665044D01*
X2600283Y652479D01*
D02*
G37*
G36*
X2602269Y578063D02*
Y550168D01*
X2600999Y549711D01*
X2599094Y550500D01*
X2596906D01*
X2594885Y549663D01*
X2593337Y548116D01*
X2592500Y546094D01*
Y543906D01*
X2593337Y541884D01*
X2594885Y540337D01*
X2596906Y539500D01*
X2599094D01*
X2600999Y540289D01*
X2602269Y539832D01*
Y538258D01*
X2584099Y520088D01*
X2581700D01*
X2581382Y521318D01*
X2584118Y522898D01*
X2586353Y525132D01*
X2587932Y527868D01*
X2588750Y530920D01*
Y534080D01*
X2587932Y537132D01*
X2586353Y539868D01*
X2584118Y542102D01*
X2581382Y543682D01*
X2578917Y544343D01*
Y545657D01*
X2581382Y546318D01*
X2584118Y547898D01*
X2586353Y550132D01*
X2587932Y552868D01*
X2588750Y555920D01*
Y559080D01*
X2587932Y562132D01*
X2586353Y564868D01*
X2584118Y567102D01*
X2581382Y568682D01*
X2578917Y569343D01*
Y570657D01*
X2581382Y571318D01*
X2584118Y572898D01*
X2586353Y575132D01*
X2587932Y577868D01*
X2588750Y580920D01*
Y584080D01*
X2587932Y587132D01*
X2586353Y589868D01*
X2584118Y592102D01*
X2581382Y593682D01*
X2578917Y594343D01*
Y595657D01*
X2581382Y596318D01*
X2583051Y597281D01*
X2602269Y578063D01*
D02*
G37*
D14*
X2268737Y316750D02*
X2269262D01*
X2262762Y294849D02*
Y318725D01*
X2263933Y319896D01*
X2262762Y324381D02*
Y330374D01*
X2265590Y319896D02*
X2268737Y316750D01*
X2263933Y319896D02*
X2265590D01*
X2258762Y320382D02*
X2262762Y324381D01*
X2258762Y293192D02*
Y320382D01*
Y293192D02*
X2285074Y266880D01*
X2289075Y109925D02*
Y268537D01*
X2262762Y294849D02*
X2289075Y268537D01*
X2889657Y10000D02*
X2932000Y52343D01*
X2383343Y10000D02*
X2889657D01*
X2385000Y14000D02*
X2888000D01*
X2285074Y108269D02*
X2383343Y10000D01*
X2888000Y14000D02*
X2928000Y54000D01*
X2289075Y109925D02*
X2385000Y14000D01*
X2285074Y108269D02*
Y266880D01*
X2934500Y59328D02*
Y60500D01*
X2932000Y52343D02*
Y56828D01*
X2934500Y59328D01*
X2928000Y54000D02*
Y56828D01*
X2925500Y59328D02*
X2928000Y56828D01*
X2925500Y59328D02*
Y60500D01*
X3355000Y187500D02*
X3375000Y167500D01*
X3333260Y209240D02*
X3355000Y187500D01*
X3323356Y209240D02*
X3333260D01*
D84*
X2055000Y615000D02*
X2120000D01*
X1990000D02*
X2055000D01*
X1925000D02*
X1990000D01*
X1860000D02*
X1925000D01*
X1825000D02*
X1860000D01*
X1740000Y700000D02*
X1825000Y615000D01*
X888500Y500500D02*
Y542542D01*
X1558900Y517000D02*
Y634923D01*
Y482000D02*
Y517000D01*
X870000Y482000D02*
X888500Y500500D01*
X1030958Y685000D02*
X1508823D01*
X1558900Y634923D01*
X888500Y542542D02*
X1030958Y685000D01*
D86*
X2604871Y599307D02*
Y654379D01*
X2576750Y682500D02*
X2604871Y654379D01*
X2586000Y515500D02*
X2606857Y536357D01*
X2579321Y607500D02*
X2606857Y579964D01*
Y536357D02*
Y579964D01*
X2568750Y515500D02*
X2586000D01*
X2551750Y532500D02*
X2568750Y515500D01*
X2576750Y607500D02*
X2579321D01*
D87*
X2929500Y720400D02*
D03*
X2879500D02*
D03*
X2904500D02*
D03*
X2704000Y692850D02*
D03*
X2729000D02*
D03*
X2679000D02*
D03*
X627300Y242700D02*
D03*
X652700D02*
D03*
X627300Y217300D02*
D03*
X652700D02*
D03*
X627300Y191900D02*
D03*
X652700D02*
D03*
X678100D02*
D03*
Y217300D02*
D03*
Y268100D02*
D03*
Y242700D02*
D03*
X652700Y268100D02*
D03*
X601900D02*
D03*
X627300D02*
D03*
X601900Y217300D02*
D03*
Y242700D02*
D03*
Y191900D02*
D03*
X922700Y217300D02*
D03*
X897300D02*
D03*
X922700Y242700D02*
D03*
X897300D02*
D03*
X922700Y268100D02*
D03*
X897300D02*
D03*
X871900D02*
D03*
Y242700D02*
D03*
Y191900D02*
D03*
Y217300D02*
D03*
X897300Y191900D02*
D03*
X948100D02*
D03*
X922700D02*
D03*
X948100Y242700D02*
D03*
Y217300D02*
D03*
Y268100D02*
D03*
X134600Y240000D02*
D03*
X160000D02*
D03*
X134600Y214600D02*
D03*
X160000D02*
D03*
X134600Y189200D02*
D03*
X160000D02*
D03*
X185400D02*
D03*
Y214600D02*
D03*
Y265400D02*
D03*
Y240000D02*
D03*
X160000Y265400D02*
D03*
X109200D02*
D03*
X134600D02*
D03*
X109200Y214600D02*
D03*
Y240000D02*
D03*
Y189200D02*
D03*
X422700Y217300D02*
D03*
X397300D02*
D03*
X422700Y242700D02*
D03*
X397300D02*
D03*
X422700Y268100D02*
D03*
X397300D02*
D03*
X371900D02*
D03*
Y242700D02*
D03*
Y191900D02*
D03*
Y217300D02*
D03*
X397300Y191900D02*
D03*
X448100D02*
D03*
X422700D02*
D03*
X448100Y242700D02*
D03*
Y217300D02*
D03*
Y268100D02*
D03*
X2426650Y489500D02*
D03*
X2401250D02*
D03*
X97500Y36600D02*
D03*
X147500D02*
D03*
X122500D02*
D03*
X1312750Y43850D02*
D03*
X1362750D02*
D03*
X1337750D02*
D03*
X720250Y35850D02*
D03*
X770250D02*
D03*
X745250D02*
D03*
D88*
X2954500Y720400D02*
D03*
X2654000Y692850D02*
D03*
X72500Y36600D02*
D03*
X1287750Y43850D02*
D03*
X695250Y35850D02*
D03*
D89*
X2917000Y707000D02*
D03*
X2691500Y706250D02*
D03*
X110000Y50000D02*
D03*
X1325250Y57250D02*
D03*
X732750Y49250D02*
D03*
D90*
X2383700Y567500D02*
D03*
X2434500D02*
D03*
X2409100D02*
D03*
X2085800Y683750D02*
D03*
X2212800D02*
D03*
X2136600D02*
D03*
D91*
X3439410Y63020D02*
D03*
X2839410D02*
D03*
X3439410Y513020D02*
D03*
X2839410D02*
D03*
X2076000Y167300D02*
D03*
X2807500Y667500D02*
D03*
X3375000Y167500D02*
D03*
D92*
X2551750Y532500D02*
D03*
X2576750Y557500D02*
D03*
X2551750D02*
D03*
X2576750Y582500D02*
D03*
X2551750D02*
D03*
X2576750Y607500D02*
D03*
X2551750D02*
D03*
X2576750Y632500D02*
D03*
X2551750Y707500D02*
D03*
Y682500D02*
D03*
X2576750D02*
D03*
Y657500D02*
D03*
Y532500D02*
D03*
X2551750Y632500D02*
D03*
Y657500D02*
D03*
X1519250Y179000D02*
D03*
X1489250D02*
D03*
X1252266Y217750D02*
D03*
Y187750D02*
D03*
X1860000Y615000D02*
D03*
Y405000D02*
D03*
X1925000D02*
D03*
Y615000D02*
D03*
X1990000Y405000D02*
D03*
Y615000D02*
D03*
X2055000Y405000D02*
D03*
Y615000D02*
D03*
X1166500Y181250D02*
D03*
Y211250D02*
D03*
X1670000Y360000D02*
D03*
Y150000D02*
D03*
X2120000Y615000D02*
D03*
Y405000D02*
D03*
X1740000Y450000D02*
D03*
Y540000D02*
D03*
Y510000D02*
D03*
D93*
X2576750Y707500D02*
D03*
D94*
X2590555Y620000D02*
D03*
D95*
X1423250Y175750D02*
D03*
X1313250D02*
D03*
D96*
X1381100Y482000D02*
D03*
X1558900D02*
D03*
D03*
X192600D02*
D03*
X370400D02*
D03*
D03*
X692200D02*
D03*
X870000D02*
D03*
D03*
D97*
X1155000Y624750D02*
D03*
Y384750D02*
D03*
D98*
Y548750D02*
D03*
Y308750D02*
D03*
D99*
X2330800Y514600D02*
D03*
X2254600D02*
D03*
X2229200D02*
D03*
X2330800Y565400D02*
D03*
X2254600D02*
D03*
X2229200Y475400D02*
D03*
X2305400D02*
D03*
X2330800D02*
D03*
X2229200Y424600D02*
D03*
X2305400D02*
D03*
X1892500Y189400D02*
D03*
X562000Y32600D02*
D03*
X3213500Y722900D02*
D03*
D100*
X2229200Y565400D02*
D03*
X2330800Y424600D02*
D03*
D101*
X1917500Y189400D02*
D03*
X537000Y32600D02*
D03*
X3238500Y722900D02*
D03*
D102*
X2238200Y683750D02*
D03*
D103*
X1889200Y720000D02*
D03*
X1914600D02*
D03*
D104*
X1940000D02*
D03*
D105*
X2310000Y640000D02*
D03*
X3142590Y485519D02*
D03*
X2270000Y670000D02*
D03*
X2290000D02*
D03*
X2330000Y720000D02*
D03*
X2317500Y343500D02*
D03*
X2269262Y316750D02*
D03*
X3439410Y90520D02*
D03*
X3459410Y83020D02*
D03*
X3466910Y63020D02*
D03*
X3459410Y43020D02*
D03*
X3439410Y35520D02*
D03*
X3419410Y43020D02*
D03*
X3411910Y63020D02*
D03*
X3419410Y83020D02*
D03*
X2839410Y90520D02*
D03*
X2819410Y83020D02*
D03*
X2811910Y63020D02*
D03*
X2819410Y43020D02*
D03*
X2839410Y35520D02*
D03*
X2859410Y43020D02*
D03*
X2866910Y63020D02*
D03*
X2859410Y83020D02*
D03*
X3439410Y540520D02*
D03*
X3459410Y533020D02*
D03*
X3466910Y513020D02*
D03*
X3459410Y493020D02*
D03*
X3439410Y485520D02*
D03*
X3419410Y493020D02*
D03*
X3411910Y513020D02*
D03*
X3419410Y533020D02*
D03*
X2839410Y540520D02*
D03*
X2859410Y533020D02*
D03*
X2866910Y513020D02*
D03*
X2859410Y493020D02*
D03*
X2839410Y485520D02*
D03*
X2819410Y493020D02*
D03*
X2811910Y513020D02*
D03*
X2819410Y533020D02*
D03*
X3230000Y80000D02*
D03*
X3000000Y160000D02*
D03*
X3210000Y50000D02*
D03*
X3310000Y150000D02*
D03*
X3170000Y340000D02*
D03*
X3040000Y420000D02*
D03*
X2400000D02*
D03*
X2490000Y700000D02*
D03*
X2650000Y550000D02*
D03*
X2700055Y665870D02*
D03*
X3190000Y410000D02*
D03*
X3163904Y414640D02*
D03*
X3100000Y520000D02*
D03*
Y550000D02*
D03*
X3050000Y540000D02*
D03*
X3000000Y480000D02*
D03*
X3030000Y580000D02*
D03*
Y550000D02*
D03*
X3025652Y530408D02*
D03*
X3020000Y510000D02*
D03*
X3090000Y450000D02*
D03*
X2237563Y221143D02*
D03*
X2343056Y65136D02*
D03*
X2307017Y146520D02*
D03*
X2342784Y95750D02*
D03*
X2518389Y65820D02*
D03*
X2301438Y182962D02*
D03*
X2253762Y289000D02*
D03*
X2295574Y189790D02*
D03*
X2363500Y148000D02*
D03*
X2374143Y189643D02*
D03*
X2249500Y252500D02*
D03*
X2250250Y240250D02*
D03*
X2383357Y182357D02*
D03*
X2471750Y184750D02*
D03*
X2953165Y215447D02*
D03*
X3295750Y307750D02*
D03*
X1489250Y179000D02*
D03*
X1550750Y198000D02*
D03*
X1459750Y198000D02*
D03*
X1233266Y249250D02*
D03*
X1233266Y158250D02*
D03*
X3014500Y148500D02*
D03*
X2940750Y85750D02*
D03*
X3026932Y60080D02*
D03*
X3069538Y55532D02*
D03*
X2934500Y60500D02*
D03*
X2925500D02*
D03*
X2262762Y330374D02*
D03*
X2248000Y355750D02*
D03*
X2086000Y363750D02*
D03*
X1950500Y306000D02*
D03*
X1996500Y314250D02*
D03*
X2103500Y269750D02*
D03*
X2958391Y282884D02*
D03*
X3149500Y60000D02*
D03*
X2704250Y191250D02*
D03*
X2702500Y215250D02*
D03*
X2224530Y188324D02*
D03*
X2225500Y147000D02*
D03*
X898250Y37000D02*
D03*
X488750Y20250D02*
D03*
X2672750Y272750D02*
D03*
X3073710Y528341D02*
D03*
X2260198Y90949D02*
D03*
X2263750Y58250D02*
D03*
X2423059Y68878D02*
D03*
X2423546Y90834D02*
D03*
X2756000Y314000D02*
D03*
X3201750Y422250D02*
D03*
X3216500Y460500D02*
D03*
X3212819Y503360D02*
D03*
X3067036Y509804D02*
D03*
X3323356Y209240D02*
D03*
X1147500Y149750D02*
D03*
X1147500Y240750D02*
D03*
X3125250Y458500D02*
D03*
X2235000Y182750D02*
D03*
X3065250Y346000D02*
D03*
X3220815Y446233D02*
D03*
X3057500Y90500D02*
D03*
X3325750Y271500D02*
D03*
X2959282Y192570D02*
D03*
X2958750Y180000D02*
D03*
X2766250Y422000D02*
D03*
X1535000Y21750D02*
D03*
X455500Y49250D02*
D03*
X395500Y49500D02*
D03*
X841648Y55148D02*
D03*
X947000Y63500D02*
D03*
X1509000Y58000D02*
D03*
X2598000Y545000D02*
D03*
X2604871Y599307D02*
D03*
X3130793Y446675D02*
D03*
X3161425Y448000D02*
D03*
X2561000Y368000D02*
D03*
X2512000Y403500D02*
D03*
X2465250Y347750D02*
D03*
X2494500Y345000D02*
D03*
X2691642Y274795D02*
D03*
X2697550Y265038D02*
D03*
X3164750Y361500D02*
D03*
X2956500Y334000D02*
D03*
X2959124Y317789D02*
D03*
X3196750Y491250D02*
D03*
X3196868Y447593D02*
D03*
X3086500Y474750D02*
D03*
X3037250Y475500D02*
D03*
X3148431Y550168D02*
D03*
X2770000Y263500D02*
D03*
X1406100Y457000D02*
D03*
X1416100Y482000D02*
D03*
X1406100Y507000D02*
D03*
X1381100Y517000D02*
D03*
X2606900Y294000D02*
D03*
X2575375Y455375D02*
D03*
X2075000Y195000D02*
D03*
X2095000Y187500D02*
D03*
X2102500Y167500D02*
D03*
X2095000Y147500D02*
D03*
X2075000Y140000D02*
D03*
X2055000Y147500D02*
D03*
X2047500Y167500D02*
D03*
X2055000Y187500D02*
D03*
X657200Y482000D02*
D03*
X717200Y507000D02*
D03*
X667200Y457000D02*
D03*
X692200Y447000D02*
D03*
X727200Y482000D02*
D03*
X692200Y517000D02*
D03*
X717200Y457000D02*
D03*
X835000Y482000D02*
D03*
X870000Y447000D02*
D03*
X845000Y457000D02*
D03*
X835000Y482000D02*
D03*
X845000Y507000D02*
D03*
X870000Y517000D02*
D03*
X895000Y507000D02*
D03*
X845000Y457000D02*
D03*
X895000D02*
D03*
X870000Y447000D02*
D03*
X845000Y507000D02*
D03*
X870000Y517000D02*
D03*
X895000Y507000D02*
D03*
Y457000D02*
D03*
X905000Y482000D02*
D03*
X1732000Y302000D02*
D03*
X2807500Y695000D02*
D03*
X2787500Y687500D02*
D03*
X2780000Y667500D02*
D03*
X2787500Y647500D02*
D03*
X2807500Y640000D02*
D03*
X2827500Y647500D02*
D03*
X2835000Y667500D02*
D03*
X2827500Y687500D02*
D03*
X3375000Y195000D02*
D03*
X3395000Y187500D02*
D03*
X3402500Y167500D02*
D03*
X3395000Y147500D02*
D03*
X3375000Y140000D02*
D03*
X3355000Y147500D02*
D03*
X3347500Y167500D02*
D03*
X3355000Y187500D02*
D03*
X370400Y517000D02*
D03*
X405400Y482000D02*
D03*
X395400Y457000D02*
D03*
Y507000D02*
D03*
X345400D02*
D03*
X335400Y482000D02*
D03*
X345400Y457000D02*
D03*
X370400Y447000D02*
D03*
X405400Y482000D02*
D03*
X395400Y457000D02*
D03*
X335400Y482000D02*
D03*
X345400Y507000D02*
D03*
Y457000D02*
D03*
X167600Y507000D02*
D03*
X192600Y517000D02*
D03*
X167600Y457000D02*
D03*
X217600D02*
D03*
X227600Y482000D02*
D03*
X217600Y507000D02*
D03*
X192600Y447000D02*
D03*
X157600Y482000D02*
D03*
X667200Y507000D02*
D03*
X905000Y482000D02*
D03*
X1740000Y700000D02*
D03*
X458250Y67750D02*
D03*
X2724030Y223447D02*
D03*
X2522189Y241081D02*
D03*
X2759000Y283750D02*
D03*
X2092595Y75250D02*
D03*
X953000Y24500D02*
D03*
X349750Y57250D02*
D03*
X1567250Y67250D02*
D03*
X2628563Y226356D02*
D03*
X2634500Y402750D02*
D03*
X1444750Y53500D02*
D03*
X1535250Y67250D02*
D03*
X2494750Y494500D02*
D03*
X2528638Y390042D02*
D03*
X2628250Y356750D02*
D03*
X2481500Y240500D02*
D03*
X2627970Y202500D02*
D03*
X2500750Y542500D02*
D03*
X2511250Y545500D02*
D03*
X2522000Y547000D02*
D03*
X1705250Y32500D02*
D03*
X1701500Y42500D02*
D03*
X1731500Y51000D02*
D03*
X1356100Y507000D02*
D03*
Y457000D02*
D03*
X1381100Y447000D02*
D03*
X1346100Y482000D02*
D03*
X1593900D02*
D03*
X1583900Y457000D02*
D03*
Y507000D02*
D03*
X1558900Y517000D02*
D03*
X1533900Y507000D02*
D03*
X1523900Y482000D02*
D03*
X1533900Y457000D02*
D03*
X1558900Y447000D02*
D03*
X1593900Y482000D02*
D03*
X1583900Y457000D02*
D03*
Y507000D02*
D03*
X1558900Y517000D02*
D03*
X1533900Y507000D02*
D03*
X1523900Y482000D02*
D03*
X1533900Y457000D02*
D03*
X1558900Y447000D02*
D03*
X395400Y507000D02*
D03*
X370400Y517000D02*
D03*
Y447000D02*
D03*
M02*
