G04*
G04 #@! TF.GenerationSoftware,Altium Limited,Altium Designer,23.9.2 (47)*
G04*
G04 Layer_Color=8388736*
%FSLAX44Y44*%
%MOMM*%
G71*
G04*
G04 #@! TF.SameCoordinates,B1C0779B-3EB0-494A-A092-0BE117C51D64*
G04*
G04*
G04 #@! TF.FilePolarity,Negative*
G04*
G01*
G75*
G04:AMPARAMS|DCode=40|XSize=0.8532mm|YSize=1.4532mm|CornerRadius=0.2641mm|HoleSize=0mm|Usage=FLASHONLY|Rotation=180.000|XOffset=0mm|YOffset=0mm|HoleType=Round|Shape=RoundedRectangle|*
%AMROUNDEDRECTD40*
21,1,0.8532,0.9250,0,0,180.0*
21,1,0.3250,1.4532,0,0,180.0*
1,1,0.5282,-0.1625,0.4625*
1,1,0.5282,0.1625,0.4625*
1,1,0.5282,0.1625,-0.4625*
1,1,0.5282,-0.1625,-0.4625*
%
%ADD40ROUNDEDRECTD40*%
%ADD41R,1.9032X0.9432*%
%ADD42R,0.9432X1.9032*%
G04:AMPARAMS|DCode=43|XSize=0.8032mm|YSize=1.6532mm|CornerRadius=0.2516mm|HoleSize=0mm|Usage=FLASHONLY|Rotation=0.000|XOffset=0mm|YOffset=0mm|HoleType=Round|Shape=RoundedRectangle|*
%AMROUNDEDRECTD43*
21,1,0.8032,1.1500,0,0,0.0*
21,1,0.3000,1.6532,0,0,0.0*
1,1,0.5032,0.1500,-0.5750*
1,1,0.5032,-0.1500,-0.5750*
1,1,0.5032,-0.1500,0.5750*
1,1,0.5032,0.1500,0.5750*
%
%ADD43ROUNDEDRECTD43*%
%ADD44R,2.2032X3.0032*%
%ADD45R,3.0032X2.2032*%
%ADD46R,1.5032X1.1032*%
%ADD47R,1.1032X1.5032*%
%ADD48R,1.8032X1.4032*%
%ADD49R,0.4050X1.1000*%
%ADD50R,1.2232X2.4032*%
%ADD51R,1.3532X1.5532*%
G04:AMPARAMS|DCode=52|XSize=1.7032mm|YSize=2.3032mm|CornerRadius=0.4766mm|HoleSize=0mm|Usage=FLASHONLY|Rotation=90.000|XOffset=0mm|YOffset=0mm|HoleType=Round|Shape=RoundedRectangle|*
%AMROUNDEDRECTD52*
21,1,1.7032,1.3500,0,0,90.0*
21,1,0.7500,2.3032,0,0,90.0*
1,1,0.9532,0.6750,0.3750*
1,1,0.9532,0.6750,-0.3750*
1,1,0.9532,-0.6750,-0.3750*
1,1,0.9532,-0.6750,0.3750*
%
%ADD52ROUNDEDRECTD52*%
G04:AMPARAMS|DCode=53|XSize=3.5032mm|YSize=2.5032mm|CornerRadius=0.6766mm|HoleSize=0mm|Usage=FLASHONLY|Rotation=270.000|XOffset=0mm|YOffset=0mm|HoleType=Round|Shape=RoundedRectangle|*
%AMROUNDEDRECTD53*
21,1,3.5032,1.1500,0,0,270.0*
21,1,2.1500,2.5032,0,0,270.0*
1,1,1.3532,-0.5750,-1.0750*
1,1,1.3532,-0.5750,1.0750*
1,1,1.3532,0.5750,1.0750*
1,1,1.3532,0.5750,-1.0750*
%
%ADD53ROUNDEDRECTD53*%
%ADD54R,1.5532X1.3532*%
%ADD55R,1.8832X2.0032*%
%ADD56R,2.0032X1.8832*%
G04:AMPARAMS|DCode=57|XSize=1.5032mm|YSize=1.3032mm|CornerRadius=0.3766mm|HoleSize=0mm|Usage=FLASHONLY|Rotation=90.000|XOffset=0mm|YOffset=0mm|HoleType=Round|Shape=RoundedRectangle|*
%AMROUNDEDRECTD57*
21,1,1.5032,0.5500,0,0,90.0*
21,1,0.7500,1.3032,0,0,90.0*
1,1,0.7532,0.2750,0.3750*
1,1,0.7532,0.2750,-0.3750*
1,1,0.7532,-0.2750,-0.3750*
1,1,0.7532,-0.2750,0.3750*
%
%ADD57ROUNDEDRECTD57*%
G04:AMPARAMS|DCode=58|XSize=1.9032mm|YSize=2.7032mm|CornerRadius=0.5266mm|HoleSize=0mm|Usage=FLASHONLY|Rotation=0.000|XOffset=0mm|YOffset=0mm|HoleType=Round|Shape=RoundedRectangle|*
%AMROUNDEDRECTD58*
21,1,1.9032,1.6500,0,0,0.0*
21,1,0.8500,2.7032,0,0,0.0*
1,1,1.0532,0.4250,-0.8250*
1,1,1.0532,-0.4250,-0.8250*
1,1,1.0532,-0.4250,0.8250*
1,1,1.0532,0.4250,0.8250*
%
%ADD58ROUNDEDRECTD58*%
G04:AMPARAMS|DCode=59|XSize=0.8532mm|YSize=1.4532mm|CornerRadius=0.2641mm|HoleSize=0mm|Usage=FLASHONLY|Rotation=90.000|XOffset=0mm|YOffset=0mm|HoleType=Round|Shape=RoundedRectangle|*
%AMROUNDEDRECTD59*
21,1,0.8532,0.9250,0,0,90.0*
21,1,0.3250,1.4532,0,0,90.0*
1,1,0.5282,0.4625,0.1625*
1,1,0.5282,0.4625,-0.1625*
1,1,0.5282,-0.4625,-0.1625*
1,1,0.5282,-0.4625,0.1625*
%
%ADD59ROUNDEDRECTD59*%
%ADD60R,1.6032X2.1532*%
%ADD61C,1.2032*%
%ADD62R,3.7032X1.7032*%
G04:AMPARAMS|DCode=63|XSize=1.9532mm|YSize=1.4532mm|CornerRadius=0.4141mm|HoleSize=0mm|Usage=FLASHONLY|Rotation=180.000|XOffset=0mm|YOffset=0mm|HoleType=Round|Shape=RoundedRectangle|*
%AMROUNDEDRECTD63*
21,1,1.9532,0.6250,0,0,180.0*
21,1,1.1250,1.4532,0,0,180.0*
1,1,0.8282,-0.5625,0.3125*
1,1,0.8282,0.5625,0.3125*
1,1,0.8282,0.5625,-0.3125*
1,1,0.8282,-0.5625,-0.3125*
%
%ADD63ROUNDEDRECTD63*%
%ADD64C,2.0032*%
%ADD65R,2.0032X2.0032*%
%ADD66C,1.6032*%
%ADD67C,1.7032*%
%ADD68C,8.2032*%
%ADD69C,2.2032*%
%ADD70R,2.2032X2.2032*%
%ADD71C,1.5032*%
%ADD72C,2.7032*%
%ADD73C,9.2032*%
%ADD74C,0.2032*%
%ADD75R,3.1732X3.1732*%
%ADD76C,3.1732*%
%ADD77C,1.8032*%
%ADD78R,1.8032X1.8032*%
G04:AMPARAMS|DCode=79|XSize=1.8032mm|YSize=1.8032mm|CornerRadius=0.5016mm|HoleSize=0mm|Usage=FLASHONLY|Rotation=180.000|XOffset=0mm|YOffset=0mm|HoleType=Round|Shape=RoundedRectangle|*
%AMROUNDEDRECTD79*
21,1,1.8032,0.8000,0,0,180.0*
21,1,0.8000,1.8032,0,0,180.0*
1,1,1.0032,-0.4000,0.4000*
1,1,1.0032,0.4000,0.4000*
1,1,1.0032,0.4000,-0.4000*
1,1,1.0032,-0.4000,-0.4000*
%
%ADD79ROUNDEDRECTD79*%
G04:AMPARAMS|DCode=80|XSize=1.7032mm|YSize=1.7032mm|CornerRadius=0.4766mm|HoleSize=0mm|Usage=FLASHONLY|Rotation=180.000|XOffset=0mm|YOffset=0mm|HoleType=Round|Shape=RoundedRectangle|*
%AMROUNDEDRECTD80*
21,1,1.7032,0.7500,0,0,180.0*
21,1,0.7500,1.7032,0,0,180.0*
1,1,0.9532,-0.3750,0.3750*
1,1,0.9532,0.3750,0.3750*
1,1,0.9532,0.3750,-0.3750*
1,1,0.9532,-0.3750,-0.3750*
%
%ADD80ROUNDEDRECTD80*%
%ADD81C,1.4032*%
%ADD82R,1.4032X1.4032*%
%ADD83C,0.9032*%
G36*
X2393660Y703519D02*
X2393683Y703520D01*
X2393725Y703515D01*
X2393769Y703512D01*
X2393792Y703508D01*
X2393815Y703505D01*
X2393857Y703494D01*
X2393899Y703486D01*
X2393922Y703478D01*
X2393945Y703473D01*
X2393984Y703457D01*
X2394025Y703443D01*
X2394047Y703433D01*
X2394069Y703424D01*
X2394106Y703403D01*
X2394145Y703384D01*
X2394165Y703371D01*
X2394185Y703360D01*
X2394220Y703334D01*
X2394256Y703310D01*
X2394273Y703295D01*
X2394292Y703281D01*
X2394324Y703251D01*
X2394356Y703223D01*
X2394371Y703205D01*
X2394388Y703188D01*
X2394415Y703155D01*
X2394444Y703122D01*
X2394457Y703103D01*
X2394471Y703084D01*
X2394494Y703047D01*
X2394518Y703012D01*
X2394528Y702991D01*
X2394540Y702970D01*
X2395293Y701515D01*
X2397179Y698871D01*
X2399514Y696648D01*
X2402228Y694906D01*
X2405221Y693709D01*
X2408387Y693099D01*
X2411611Y693099D01*
X2414777Y693708D01*
X2417771Y694905D01*
X2420484Y696646D01*
X2422820Y698868D01*
X2424707Y701513D01*
X2425460Y702968D01*
X2425472Y702988D01*
X2425482Y703009D01*
X2425506Y703045D01*
X2425529Y703082D01*
X2425543Y703100D01*
X2425556Y703120D01*
X2425585Y703152D01*
X2425612Y703186D01*
X2425629Y703202D01*
X2425644Y703220D01*
X2425676Y703248D01*
X2425708Y703278D01*
X2425727Y703292D01*
X2425744Y703308D01*
X2425780Y703332D01*
X2425815Y703357D01*
X2425836Y703369D01*
X2425855Y703382D01*
X2425894Y703401D01*
X2425932Y703422D01*
X2425953Y703430D01*
X2425975Y703441D01*
X2426016Y703455D01*
X2426055Y703470D01*
X2426078Y703476D01*
X2426101Y703484D01*
X2426143Y703492D01*
X2426185Y703502D01*
X2426208Y703505D01*
X2426231Y703510D01*
X2426274Y703512D01*
X2426317Y703517D01*
X2426341Y703517D01*
X2426364Y703518D01*
X2436500D01*
X2436633Y703510D01*
X2436763Y703484D01*
X2436890Y703441D01*
X2437009Y703382D01*
X2437120Y703308D01*
X2437220Y703220D01*
X2437308Y703120D01*
X2437382Y703009D01*
X2437441Y702890D01*
X2437484Y702764D01*
X2437509Y702633D01*
X2437518Y702500D01*
Y682500D01*
X2437509Y682367D01*
X2437484Y682236D01*
X2437441Y682110D01*
X2437382Y681991D01*
X2437308Y681880D01*
X2437220Y681780D01*
X2437120Y681692D01*
X2437009Y681618D01*
X2436890Y681559D01*
X2436763Y681516D01*
X2436633Y681490D01*
X2436500Y681482D01*
X2383500D01*
X2383500D01*
X2383500D01*
X2383456Y681485D01*
X2383367Y681490D01*
X2383237Y681516D01*
D01*
X2383236Y681516D01*
X2383148Y681546D01*
X2383110Y681559D01*
X2383110Y681559D01*
X2383110Y681559D01*
X2383055Y681587D01*
X2382991Y681618D01*
X2382991Y681618D01*
X2382991Y681618D01*
X2382934Y681656D01*
X2382880Y681692D01*
X2382880Y681692D01*
X2382880Y681692D01*
X2382829Y681737D01*
X2382780Y681780D01*
X2382780Y681780D01*
X2382780Y681780D01*
X2382737Y681829D01*
X2382692Y681880D01*
X2382692Y681880D01*
X2382692Y681880D01*
X2382656Y681935D01*
X2382618Y681991D01*
X2382618Y681991D01*
X2382618Y681991D01*
X2382587Y682055D01*
X2382559Y682110D01*
X2382559Y682110D01*
X2382559Y682111D01*
X2382546Y682149D01*
X2382516Y682236D01*
X2382516Y682237D01*
D01*
X2382491Y682367D01*
X2382485Y682457D01*
X2382482Y682500D01*
Y682500D01*
Y682500D01*
X2382484Y702503D01*
X2382487Y702546D01*
X2382493Y702635D01*
X2382519Y702766D01*
D01*
X2382519Y702766D01*
X2382549Y702854D01*
X2382562Y702892D01*
X2382562Y702892D01*
X2382562Y702892D01*
X2382590Y702948D01*
X2382621Y703012D01*
X2382621Y703012D01*
X2382621Y703012D01*
X2382659Y703068D01*
X2382695Y703122D01*
X2382695Y703122D01*
X2382695Y703123D01*
X2382740Y703173D01*
X2382783Y703223D01*
X2382783Y703223D01*
X2382783Y703223D01*
X2382832Y703266D01*
X2382883Y703310D01*
X2382883Y703310D01*
X2382883Y703310D01*
X2382937Y703347D01*
X2382994Y703384D01*
X2382994Y703384D01*
X2382994Y703384D01*
X2383057Y703416D01*
X2383113Y703443D01*
X2383113Y703443D01*
X2383113Y703443D01*
X2383151Y703456D01*
X2383239Y703486D01*
X2383239Y703486D01*
D01*
X2383370Y703512D01*
X2383459Y703518D01*
X2383503Y703521D01*
X2393636D01*
X2393660Y703519D01*
D02*
G37*
G36*
X2436544Y738515D02*
X2436633Y738510D01*
X2436763Y738484D01*
D01*
X2436764Y738484D01*
X2436852Y738454D01*
X2436890Y738441D01*
X2436890Y738441D01*
X2436890Y738441D01*
X2436945Y738413D01*
X2437009Y738382D01*
X2437009Y738382D01*
X2437009Y738382D01*
X2437066Y738344D01*
X2437120Y738308D01*
X2437120Y738308D01*
X2437120Y738308D01*
X2437171Y738263D01*
X2437220Y738220D01*
X2437220Y738220D01*
X2437220Y738220D01*
X2437263Y738171D01*
X2437308Y738120D01*
X2437308Y738120D01*
X2437308Y738120D01*
X2437344Y738065D01*
X2437382Y738009D01*
X2437382Y738009D01*
X2437382Y738009D01*
X2437413Y737945D01*
X2437441Y737890D01*
X2437441Y737890D01*
X2437441Y737889D01*
X2437454Y737851D01*
X2437484Y737764D01*
X2437484Y737763D01*
D01*
X2437509Y737633D01*
X2437515Y737543D01*
X2437518Y737500D01*
Y737500D01*
Y737500D01*
X2437516Y717497D01*
X2437513Y717454D01*
X2437507Y717365D01*
X2437481Y717234D01*
D01*
X2437481Y717234D01*
X2437451Y717146D01*
X2437438Y717108D01*
X2437438Y717108D01*
X2437438Y717108D01*
X2437410Y717052D01*
X2437379Y716988D01*
X2437379Y716988D01*
X2437379Y716988D01*
X2437341Y716932D01*
X2437305Y716878D01*
X2437305Y716878D01*
X2437305Y716877D01*
X2437260Y716827D01*
X2437217Y716777D01*
X2437217Y716777D01*
X2437217Y716777D01*
X2437168Y716734D01*
X2437117Y716690D01*
X2437117Y716690D01*
X2437117Y716690D01*
X2437063Y716653D01*
X2437007Y716616D01*
X2437006Y716616D01*
X2437006Y716616D01*
X2436943Y716584D01*
X2436887Y716557D01*
X2436887Y716557D01*
X2436887Y716557D01*
X2436849Y716544D01*
X2436761Y716514D01*
X2436761Y716514D01*
D01*
X2436630Y716488D01*
X2436541Y716482D01*
X2436497Y716479D01*
X2426364D01*
X2426340Y716481D01*
X2426317Y716480D01*
X2426275Y716485D01*
X2426231Y716488D01*
X2426208Y716492D01*
X2426185Y716495D01*
X2426143Y716506D01*
X2426101Y716514D01*
X2426078Y716522D01*
X2426055Y716527D01*
X2426016Y716543D01*
X2425975Y716557D01*
X2425953Y716567D01*
X2425931Y716576D01*
X2425894Y716597D01*
X2425855Y716616D01*
X2425835Y716629D01*
X2425815Y716640D01*
X2425780Y716666D01*
X2425744Y716690D01*
X2425727Y716705D01*
X2425708Y716719D01*
X2425676Y716749D01*
X2425644Y716777D01*
X2425629Y716795D01*
X2425612Y716812D01*
X2425585Y716845D01*
X2425556Y716878D01*
X2425543Y716897D01*
X2425529Y716916D01*
X2425506Y716953D01*
X2425482Y716988D01*
X2425472Y717009D01*
X2425460Y717030D01*
X2424707Y718485D01*
X2422820Y721129D01*
X2420485Y723353D01*
X2417772Y725094D01*
X2414779Y726291D01*
X2411613Y726901D01*
X2408389Y726901D01*
X2405223Y726292D01*
X2402229Y725095D01*
X2399515Y723354D01*
X2397180Y721132D01*
X2395293Y718487D01*
X2394540Y717032D01*
X2394528Y717012D01*
X2394518Y716991D01*
X2394494Y716955D01*
X2394471Y716918D01*
X2394456Y716900D01*
X2394444Y716880D01*
X2394415Y716848D01*
X2394388Y716814D01*
X2394371Y716798D01*
X2394356Y716780D01*
X2394323Y716752D01*
X2394292Y716722D01*
X2394273Y716708D01*
X2394256Y716692D01*
X2394220Y716668D01*
X2394185Y716643D01*
X2394164Y716631D01*
X2394145Y716618D01*
X2394106Y716599D01*
X2394068Y716578D01*
X2394047Y716570D01*
X2394025Y716559D01*
X2393984Y716545D01*
X2393945Y716530D01*
X2393922Y716524D01*
X2393899Y716516D01*
X2393857Y716508D01*
X2393815Y716498D01*
X2393792Y716495D01*
X2393769Y716490D01*
X2393726Y716488D01*
X2393683Y716483D01*
X2393659Y716483D01*
X2393636Y716482D01*
X2383500D01*
X2383367Y716490D01*
X2383237Y716516D01*
X2383110Y716559D01*
X2382991Y716618D01*
X2382880Y716692D01*
X2382780Y716780D01*
X2382692Y716880D01*
X2382618Y716991D01*
X2382559Y717110D01*
X2382516Y717236D01*
X2382491Y717367D01*
X2382482Y717500D01*
Y737500D01*
X2382491Y737633D01*
X2382516Y737764D01*
X2382559Y737890D01*
X2382618Y738009D01*
X2382692Y738120D01*
X2382780Y738220D01*
X2382880Y738308D01*
X2382991Y738382D01*
X2383110Y738441D01*
X2383237Y738484D01*
X2383367Y738510D01*
X2383500Y738518D01*
X2436500D01*
X2436500D01*
X2436500D01*
X2436544Y738515D01*
D02*
G37*
D40*
X2316000Y91500D02*
D03*
X2335000D02*
D03*
X2325500Y120000D02*
D03*
X2245000D02*
D03*
X2254500Y91500D02*
D03*
X2235500D02*
D03*
X2396000D02*
D03*
X2415000D02*
D03*
X2405500Y120000D02*
D03*
X2490500Y91500D02*
D03*
X2509500D02*
D03*
X2500000Y120000D02*
D03*
D41*
X2969910Y180470D02*
D03*
X3008910D02*
D03*
X3269910D02*
D03*
X3308910D02*
D03*
X2969910Y193170D02*
D03*
Y205870D02*
D03*
Y218570D02*
D03*
Y231270D02*
D03*
Y243970D02*
D03*
Y256670D02*
D03*
Y269370D02*
D03*
Y282070D02*
D03*
Y294770D02*
D03*
Y307470D02*
D03*
Y320170D02*
D03*
Y332870D02*
D03*
Y345570D02*
D03*
X3008910Y193170D02*
D03*
Y205870D02*
D03*
Y218570D02*
D03*
Y231270D02*
D03*
Y243970D02*
D03*
Y256670D02*
D03*
Y269370D02*
D03*
Y282070D02*
D03*
Y294770D02*
D03*
Y307470D02*
D03*
Y320170D02*
D03*
Y332870D02*
D03*
Y345570D02*
D03*
X3269910Y193170D02*
D03*
Y205870D02*
D03*
Y218570D02*
D03*
Y231270D02*
D03*
Y243970D02*
D03*
Y256670D02*
D03*
Y269370D02*
D03*
Y282070D02*
D03*
Y294770D02*
D03*
Y307470D02*
D03*
Y320170D02*
D03*
Y332870D02*
D03*
Y345570D02*
D03*
X3308910Y269370D02*
D03*
Y282070D02*
D03*
Y294770D02*
D03*
Y307470D02*
D03*
Y320170D02*
D03*
Y332870D02*
D03*
Y345570D02*
D03*
Y218570D02*
D03*
Y205870D02*
D03*
Y193170D02*
D03*
Y231270D02*
D03*
Y243970D02*
D03*
Y256670D02*
D03*
D42*
X3060550Y393520D02*
D03*
Y432520D02*
D03*
X3056860Y112520D02*
D03*
Y73520D02*
D03*
X3073250Y432520D02*
D03*
X3085950D02*
D03*
X3098650D02*
D03*
X3124050D02*
D03*
X3111350D02*
D03*
X3136750D02*
D03*
X3149450D02*
D03*
X3162150D02*
D03*
X3187550D02*
D03*
X3174850D02*
D03*
X3200250D02*
D03*
X3212950D02*
D03*
X3225650D02*
D03*
X3073250Y393520D02*
D03*
X3085950D02*
D03*
X3098650D02*
D03*
X3111350D02*
D03*
X3124050D02*
D03*
X3136750D02*
D03*
X3149450D02*
D03*
X3162150D02*
D03*
X3174850D02*
D03*
X3187550D02*
D03*
X3200250D02*
D03*
X3212950D02*
D03*
X3225650D02*
D03*
X3082260Y112520D02*
D03*
X3069560D02*
D03*
X3094960D02*
D03*
X3107660D02*
D03*
X3120360D02*
D03*
X3133060D02*
D03*
X3145760D02*
D03*
X3158460D02*
D03*
X3171160D02*
D03*
X3183860D02*
D03*
X3196560D02*
D03*
X3209260D02*
D03*
X3221960D02*
D03*
X3069560Y73520D02*
D03*
X3082260D02*
D03*
X3094960D02*
D03*
X3107660D02*
D03*
X3120360D02*
D03*
X3145760D02*
D03*
X3133060D02*
D03*
X3158460D02*
D03*
X3171160D02*
D03*
X3183860D02*
D03*
X3196560D02*
D03*
X3209260D02*
D03*
X3221960D02*
D03*
D43*
X1924700Y338000D02*
D03*
X1912000D02*
D03*
X1899300D02*
D03*
X1886600D02*
D03*
X1873900D02*
D03*
X1861200D02*
D03*
X1848500D02*
D03*
X1924700Y283500D02*
D03*
X1912000D02*
D03*
X1899300D02*
D03*
X1886600D02*
D03*
X1873900D02*
D03*
X1861200D02*
D03*
X1848500D02*
D03*
D44*
X2423250Y660000D02*
D03*
X2456750D02*
D03*
D45*
X2360000Y693250D02*
D03*
Y726750D02*
D03*
D46*
X2270000Y640500D02*
D03*
Y659500D02*
D03*
X2290000Y659500D02*
D03*
Y640500D02*
D03*
X3075000Y473500D02*
D03*
Y496500D02*
D03*
X3050000D02*
D03*
Y473500D02*
D03*
X2035000Y701000D02*
D03*
Y720000D02*
D03*
X2000000D02*
D03*
Y701000D02*
D03*
D47*
X3190500Y457000D02*
D03*
X3209500D02*
D03*
X3187250Y501250D02*
D03*
X3206250D02*
D03*
D48*
X3064000Y529500D02*
D03*
Y560500D02*
D03*
D49*
X3167500Y501500D02*
D03*
X3132500Y458500D02*
D03*
X3137500D02*
D03*
X3142500D02*
D03*
X3147500D02*
D03*
X3152500D02*
D03*
X3157500D02*
D03*
X3162500D02*
D03*
X3167500D02*
D03*
X3142500Y501500D02*
D03*
X3147500D02*
D03*
X3152500D02*
D03*
X3157500D02*
D03*
X3162500D02*
D03*
X3137500D02*
D03*
X3132500D02*
D03*
D50*
X3043000Y583000D02*
D03*
X3143000Y729000D02*
D03*
X3123000D02*
D03*
X3103000D02*
D03*
X3083000D02*
D03*
X3063000D02*
D03*
X3043000D02*
D03*
X3143000Y583000D02*
D03*
X3123000D02*
D03*
X3103000D02*
D03*
X3083000D02*
D03*
X3063000D02*
D03*
D51*
X2233500Y170000D02*
D03*
X2215000D02*
D03*
X2316714Y170713D02*
D03*
X2298214D02*
D03*
X2379571Y170713D02*
D03*
X2398071D02*
D03*
X2352393Y170713D02*
D03*
X2333893D02*
D03*
X2250679Y170000D02*
D03*
X2269179D02*
D03*
X2235750Y65000D02*
D03*
X2254250D02*
D03*
X2414750Y70000D02*
D03*
X2396250D02*
D03*
X2334750Y65000D02*
D03*
X2316250D02*
D03*
X2415250Y170713D02*
D03*
X2433750D02*
D03*
X2489860Y152000D02*
D03*
X2471360D02*
D03*
Y170713D02*
D03*
X2489860D02*
D03*
X2509250Y65000D02*
D03*
X2490750D02*
D03*
X2014250Y325000D02*
D03*
X1995750D02*
D03*
D52*
X2230250Y287000D02*
D03*
Y312400D02*
D03*
Y337800D02*
D03*
X2139250Y287000D02*
D03*
Y312400D02*
D03*
Y337800D02*
D03*
D53*
X3152000Y347500D02*
D03*
X3084000D02*
D03*
X371000Y49750D02*
D03*
X439000D02*
D03*
X815000Y52500D02*
D03*
X883000D02*
D03*
X1421750D02*
D03*
X1489750D02*
D03*
D54*
X3100000Y475750D02*
D03*
Y494250D02*
D03*
X3025000D02*
D03*
Y475750D02*
D03*
X3146250Y542250D02*
D03*
Y523750D02*
D03*
X3121250Y542250D02*
D03*
Y523750D02*
D03*
X2300000Y339250D02*
D03*
Y320750D02*
D03*
X1975000Y326500D02*
D03*
Y345000D02*
D03*
D55*
X1618750Y270400D02*
D03*
Y233100D02*
D03*
D56*
X1613650Y180250D02*
D03*
X1576350D02*
D03*
D57*
X2430250Y519500D02*
D03*
X2395250D02*
D03*
D58*
X1549000Y68500D02*
D03*
Y29000D02*
D03*
X931750Y74250D02*
D03*
Y34750D02*
D03*
X474750Y67500D02*
D03*
Y28000D02*
D03*
D59*
X2068500Y324500D02*
D03*
X2040000Y315000D02*
D03*
Y334000D02*
D03*
D60*
X1760000Y370000D02*
D03*
X1732000D02*
D03*
D61*
X1790000Y700000D02*
D03*
X1974375Y269500D02*
D03*
D62*
X1765000Y640000D02*
D03*
Y700000D02*
D03*
D63*
X2371250Y519500D02*
D03*
Y491000D02*
D03*
D64*
X2929500Y720400D02*
D03*
X2879500D02*
D03*
X2904500D02*
D03*
X2704000Y692850D02*
D03*
X2729000D02*
D03*
X2679000D02*
D03*
X627300Y242700D02*
D03*
X652700D02*
D03*
X627300Y217300D02*
D03*
X652700D02*
D03*
X627300Y191900D02*
D03*
X652700D02*
D03*
X678100D02*
D03*
Y217300D02*
D03*
Y268100D02*
D03*
Y242700D02*
D03*
X652700Y268100D02*
D03*
X601900D02*
D03*
X627300D02*
D03*
X601900Y217300D02*
D03*
Y242700D02*
D03*
Y191900D02*
D03*
X922700Y217300D02*
D03*
X897300D02*
D03*
X922700Y242700D02*
D03*
X897300D02*
D03*
X922700Y268100D02*
D03*
X897300D02*
D03*
X871900D02*
D03*
Y242700D02*
D03*
Y191900D02*
D03*
Y217300D02*
D03*
X897300Y191900D02*
D03*
X948100D02*
D03*
X922700D02*
D03*
X948100Y242700D02*
D03*
Y217300D02*
D03*
Y268100D02*
D03*
X134600Y240000D02*
D03*
X160000D02*
D03*
X134600Y214600D02*
D03*
X160000D02*
D03*
X134600Y189200D02*
D03*
X160000D02*
D03*
X185400D02*
D03*
Y214600D02*
D03*
Y265400D02*
D03*
Y240000D02*
D03*
X160000Y265400D02*
D03*
X109200D02*
D03*
X134600D02*
D03*
X109200Y214600D02*
D03*
Y240000D02*
D03*
Y189200D02*
D03*
X422700Y217300D02*
D03*
X397300D02*
D03*
X422700Y242700D02*
D03*
X397300D02*
D03*
X422700Y268100D02*
D03*
X397300D02*
D03*
X371900D02*
D03*
Y242700D02*
D03*
Y191900D02*
D03*
Y217300D02*
D03*
X397300Y191900D02*
D03*
X448100D02*
D03*
X422700D02*
D03*
X448100Y242700D02*
D03*
Y217300D02*
D03*
Y268100D02*
D03*
X2426650Y489500D02*
D03*
X2401250D02*
D03*
X97500Y36600D02*
D03*
X147500D02*
D03*
X122500D02*
D03*
X1312750Y43850D02*
D03*
X1362750D02*
D03*
X1337750D02*
D03*
X720250Y35850D02*
D03*
X770250D02*
D03*
X745250D02*
D03*
D65*
X2954500Y720400D02*
D03*
X2654000Y692850D02*
D03*
X72500Y36600D02*
D03*
X1287750Y43850D02*
D03*
X695250Y35850D02*
D03*
D66*
X2917000Y707000D02*
D03*
X2691500Y706250D02*
D03*
X110000Y50000D02*
D03*
X1325250Y57250D02*
D03*
X732750Y49250D02*
D03*
D67*
X2383700Y567500D02*
D03*
X2434500D02*
D03*
X2409100D02*
D03*
X2085800Y683750D02*
D03*
X2212800D02*
D03*
X2136600D02*
D03*
D68*
X3439410Y63020D02*
D03*
X2839410D02*
D03*
X3439410Y513020D02*
D03*
X2839410D02*
D03*
X2076000Y167300D02*
D03*
X2807500Y667500D02*
D03*
X3375000Y167500D02*
D03*
D69*
X2551750Y532500D02*
D03*
X2576750Y557500D02*
D03*
X2551750D02*
D03*
X2576750Y582500D02*
D03*
X2551750D02*
D03*
X2576750Y607500D02*
D03*
X2551750D02*
D03*
X2576750Y632500D02*
D03*
X2551750Y707500D02*
D03*
Y682500D02*
D03*
X2576750D02*
D03*
Y657500D02*
D03*
Y532500D02*
D03*
X2551750Y632500D02*
D03*
Y657500D02*
D03*
X1519250Y179000D02*
D03*
X1489250D02*
D03*
X1252266Y217750D02*
D03*
Y187750D02*
D03*
X1860000Y615000D02*
D03*
Y405000D02*
D03*
X1925000D02*
D03*
Y615000D02*
D03*
X1990000Y405000D02*
D03*
Y615000D02*
D03*
X2055000Y405000D02*
D03*
Y615000D02*
D03*
X1166500Y181250D02*
D03*
Y211250D02*
D03*
X1670000Y360000D02*
D03*
Y150000D02*
D03*
X2120000Y615000D02*
D03*
Y405000D02*
D03*
X1740000Y450000D02*
D03*
Y540000D02*
D03*
Y510000D02*
D03*
D70*
X2576750Y707500D02*
D03*
D71*
X2590555Y620000D02*
D03*
D72*
X1423250Y175750D02*
D03*
X1313250D02*
D03*
D73*
X1381100Y482000D02*
D03*
X1558900D02*
D03*
D03*
X192600D02*
D03*
X370400D02*
D03*
D03*
X692200D02*
D03*
X870000D02*
D03*
D03*
D74*
X1469000Y613000D02*
D03*
X783000D02*
D03*
X282000D02*
D03*
X1740000Y480000D02*
D03*
X1719000Y572000D02*
D03*
Y421000D02*
D03*
X1110000Y660000D02*
D03*
X1030000D02*
D03*
X1110000Y180000D02*
D03*
X1030000D02*
D03*
X1905000Y176500D02*
D03*
X1069500Y419500D02*
D03*
X549500Y45500D02*
D03*
X3226000Y710000D02*
D03*
X40000Y310000D02*
D03*
D75*
X1155000Y624750D02*
D03*
Y384750D02*
D03*
D76*
Y548750D02*
D03*
Y308750D02*
D03*
D77*
X2330800Y514600D02*
D03*
X2254600D02*
D03*
X2229200D02*
D03*
X2330800Y565400D02*
D03*
X2254600D02*
D03*
X2229200Y475400D02*
D03*
X2305400D02*
D03*
X2330800D02*
D03*
X2229200Y424600D02*
D03*
X2305400D02*
D03*
X1892500Y189400D02*
D03*
X562000Y32600D02*
D03*
X3213500Y722900D02*
D03*
D78*
X2229200Y565400D02*
D03*
X2330800Y424600D02*
D03*
D79*
X1917500Y189400D02*
D03*
X537000Y32600D02*
D03*
X3238500Y722900D02*
D03*
D80*
X2238200Y683750D02*
D03*
D81*
X1889200Y720000D02*
D03*
X1914600D02*
D03*
D82*
X1940000D02*
D03*
D83*
X2310000Y640000D02*
D03*
X2270000Y670000D02*
D03*
X2290000D02*
D03*
X2330000Y720000D02*
D03*
X3439410Y90520D02*
D03*
X3459410Y83020D02*
D03*
X3466910Y63020D02*
D03*
X3459410Y43020D02*
D03*
X3439410Y35520D02*
D03*
X3419410Y43020D02*
D03*
X3411910Y63020D02*
D03*
X3419410Y83020D02*
D03*
X2839410Y90520D02*
D03*
X2819410Y83020D02*
D03*
X2811910Y63020D02*
D03*
X2819410Y43020D02*
D03*
X2839410Y35520D02*
D03*
X2859410Y43020D02*
D03*
X2866910Y63020D02*
D03*
X2859410Y83020D02*
D03*
X3439410Y540520D02*
D03*
X3459410Y533020D02*
D03*
X3466910Y513020D02*
D03*
X3459410Y493020D02*
D03*
X3439410Y485520D02*
D03*
X3419410Y493020D02*
D03*
X3411910Y513020D02*
D03*
X3419410Y533020D02*
D03*
X2839410Y540520D02*
D03*
X2859410Y533020D02*
D03*
X2866910Y513020D02*
D03*
X2859410Y493020D02*
D03*
X2839410Y485520D02*
D03*
X2819410Y493020D02*
D03*
X2811910Y513020D02*
D03*
X2819410Y533020D02*
D03*
M02*
