G04*
G04 #@! TF.GenerationSoftware,Altium Limited,Altium Designer,23.9.2 (47)*
G04*
G04 Layer_Color=16711935*
%FSLAX44Y44*%
%MOMM*%
G71*
G04*
G04 #@! TF.SameCoordinates,B1C0779B-3EB0-494A-A092-0BE117C51D64*
G04*
G04*
G04 #@! TF.FilePolarity,Negative*
G04*
G01*
G75*
G04:AMPARAMS|DCode=40|XSize=0.8532mm|YSize=1.4532mm|CornerRadius=0.2641mm|HoleSize=0mm|Usage=FLASHONLY|Rotation=180.000|XOffset=0mm|YOffset=0mm|HoleType=Round|Shape=RoundedRectangle|*
%AMROUNDEDRECTD40*
21,1,0.8532,0.9250,0,0,180.0*
21,1,0.3250,1.4532,0,0,180.0*
1,1,0.5282,-0.1625,0.4625*
1,1,0.5282,0.1625,0.4625*
1,1,0.5282,0.1625,-0.4625*
1,1,0.5282,-0.1625,-0.4625*
%
%ADD40ROUNDEDRECTD40*%
G04:AMPARAMS|DCode=43|XSize=0.8032mm|YSize=1.6532mm|CornerRadius=0.2516mm|HoleSize=0mm|Usage=FLASHONLY|Rotation=0.000|XOffset=0mm|YOffset=0mm|HoleType=Round|Shape=RoundedRectangle|*
%AMROUNDEDRECTD43*
21,1,0.8032,1.1500,0,0,0.0*
21,1,0.3000,1.6532,0,0,0.0*
1,1,0.5032,0.1500,-0.5750*
1,1,0.5032,-0.1500,-0.5750*
1,1,0.5032,-0.1500,0.5750*
1,1,0.5032,0.1500,0.5750*
%
%ADD43ROUNDEDRECTD43*%
%ADD46R,1.5032X1.1032*%
%ADD47R,1.1032X1.5032*%
%ADD48R,1.8032X1.4032*%
%ADD51R,1.3532X1.5532*%
G04:AMPARAMS|DCode=53|XSize=3.5032mm|YSize=2.5032mm|CornerRadius=0.6766mm|HoleSize=0mm|Usage=FLASHONLY|Rotation=270.000|XOffset=0mm|YOffset=0mm|HoleType=Round|Shape=RoundedRectangle|*
%AMROUNDEDRECTD53*
21,1,3.5032,1.1500,0,0,270.0*
21,1,2.1500,2.5032,0,0,270.0*
1,1,1.3532,-0.5750,-1.0750*
1,1,1.3532,-0.5750,1.0750*
1,1,1.3532,0.5750,1.0750*
1,1,1.3532,0.5750,-1.0750*
%
%ADD53ROUNDEDRECTD53*%
%ADD54R,1.5532X1.3532*%
G04:AMPARAMS|DCode=58|XSize=1.9032mm|YSize=2.7032mm|CornerRadius=0.5266mm|HoleSize=0mm|Usage=FLASHONLY|Rotation=0.000|XOffset=0mm|YOffset=0mm|HoleType=Round|Shape=RoundedRectangle|*
%AMROUNDEDRECTD58*
21,1,1.9032,1.6500,0,0,0.0*
21,1,0.8500,2.7032,0,0,0.0*
1,1,1.0532,0.4250,-0.8250*
1,1,1.0532,-0.4250,-0.8250*
1,1,1.0532,-0.4250,0.8250*
1,1,1.0532,0.4250,0.8250*
%
%ADD58ROUNDEDRECTD58*%
G04:AMPARAMS|DCode=59|XSize=0.8532mm|YSize=1.4532mm|CornerRadius=0.2641mm|HoleSize=0mm|Usage=FLASHONLY|Rotation=90.000|XOffset=0mm|YOffset=0mm|HoleType=Round|Shape=RoundedRectangle|*
%AMROUNDEDRECTD59*
21,1,0.8532,0.9250,0,0,90.0*
21,1,0.3250,1.4532,0,0,90.0*
1,1,0.5282,0.4625,0.1625*
1,1,0.5282,0.4625,-0.1625*
1,1,0.5282,-0.4625,-0.1625*
1,1,0.5282,-0.4625,0.1625*
%
%ADD59ROUNDEDRECTD59*%
%ADD60R,1.6032X2.1532*%
%ADD64C,2.0032*%
%ADD65R,2.0032X2.0032*%
%ADD66C,1.6032*%
%ADD67C,1.7032*%
%ADD68C,8.2032*%
%ADD69C,2.2032*%
%ADD70R,2.2032X2.2032*%
%ADD71C,1.5032*%
%ADD72C,2.7032*%
%ADD73C,9.2032*%
%ADD74C,0.2032*%
%ADD75R,3.1732X3.1732*%
%ADD76C,3.1732*%
%ADD77C,1.8032*%
%ADD78R,1.8032X1.8032*%
G04:AMPARAMS|DCode=79|XSize=1.8032mm|YSize=1.8032mm|CornerRadius=0.5016mm|HoleSize=0mm|Usage=FLASHONLY|Rotation=180.000|XOffset=0mm|YOffset=0mm|HoleType=Round|Shape=RoundedRectangle|*
%AMROUNDEDRECTD79*
21,1,1.8032,0.8000,0,0,180.0*
21,1,0.8000,1.8032,0,0,180.0*
1,1,1.0032,-0.4000,0.4000*
1,1,1.0032,0.4000,0.4000*
1,1,1.0032,0.4000,-0.4000*
1,1,1.0032,-0.4000,-0.4000*
%
%ADD79ROUNDEDRECTD79*%
G04:AMPARAMS|DCode=80|XSize=1.7032mm|YSize=1.7032mm|CornerRadius=0.4766mm|HoleSize=0mm|Usage=FLASHONLY|Rotation=180.000|XOffset=0mm|YOffset=0mm|HoleType=Round|Shape=RoundedRectangle|*
%AMROUNDEDRECTD80*
21,1,1.7032,0.7500,0,0,180.0*
21,1,0.7500,1.7032,0,0,180.0*
1,1,0.9532,-0.3750,0.3750*
1,1,0.9532,0.3750,0.3750*
1,1,0.9532,0.3750,-0.3750*
1,1,0.9532,-0.3750,-0.3750*
%
%ADD80ROUNDEDRECTD80*%
%ADD81C,1.4032*%
%ADD82R,1.4032X1.4032*%
%ADD83C,0.9032*%
G04:AMPARAMS|DCode=115|XSize=2.1732mm|YSize=0.8032mm|CornerRadius=0.1766mm|HoleSize=0mm|Usage=FLASHONLY|Rotation=0.000|XOffset=0mm|YOffset=0mm|HoleType=Round|Shape=RoundedRectangle|*
%AMROUNDEDRECTD115*
21,1,2.1732,0.4500,0,0,0.0*
21,1,1.8200,0.8032,0,0,0.0*
1,1,0.3532,0.9100,-0.2250*
1,1,0.3532,-0.9100,-0.2250*
1,1,0.3532,-0.9100,0.2250*
1,1,0.3532,0.9100,0.2250*
%
%ADD115ROUNDEDRECTD115*%
%ADD116O,2.0032X0.8032*%
%ADD117R,2.0032X0.8032*%
G04:AMPARAMS|DCode=118|XSize=1.5032mm|YSize=1.3032mm|CornerRadius=0.3766mm|HoleSize=0mm|Usage=FLASHONLY|Rotation=180.000|XOffset=0mm|YOffset=0mm|HoleType=Round|Shape=RoundedRectangle|*
%AMROUNDEDRECTD118*
21,1,1.5032,0.5500,0,0,180.0*
21,1,0.7500,1.3032,0,0,180.0*
1,1,0.7532,-0.3750,0.2750*
1,1,0.7532,0.3750,0.2750*
1,1,0.7532,0.3750,-0.2750*
1,1,0.7532,-0.3750,-0.2750*
%
%ADD118ROUNDEDRECTD118*%
%ADD119R,1.1732X3.0332*%
%ADD120R,5.8332X6.5532*%
G04:AMPARAMS|DCode=121|XSize=0.8032mm|YSize=1.7532mm|CornerRadius=0.2516mm|HoleSize=0mm|Usage=FLASHONLY|Rotation=90.000|XOffset=0mm|YOffset=0mm|HoleType=Round|Shape=RoundedRectangle|*
%AMROUNDEDRECTD121*
21,1,0.8032,1.2500,0,0,90.0*
21,1,0.3000,1.7532,0,0,90.0*
1,1,0.5032,0.6250,0.1500*
1,1,0.5032,0.6250,-0.1500*
1,1,0.5032,-0.6250,-0.1500*
1,1,0.5032,-0.6250,0.1500*
%
%ADD121ROUNDEDRECTD121*%
%ADD122R,2.1532X1.6032*%
%ADD123R,1.4032X1.4032*%
D40*
X2353000Y147125D02*
D03*
X2372000D02*
D03*
X2362500Y118625D02*
D03*
X2279500Y147125D02*
D03*
X2298500D02*
D03*
X2289000Y118625D02*
D03*
X2199000Y147125D02*
D03*
X2218000D02*
D03*
X2208500Y118625D02*
D03*
D43*
X2749850Y201000D02*
D03*
X2737150D02*
D03*
X2724450D02*
D03*
X2711750D02*
D03*
X2699050D02*
D03*
X2686350D02*
D03*
X2673650D02*
D03*
X2749850Y255500D02*
D03*
X2737150D02*
D03*
X2724450D02*
D03*
X2711750D02*
D03*
X2699050D02*
D03*
X2686350D02*
D03*
X2673650D02*
D03*
D46*
X2104000Y351250D02*
D03*
Y332250D02*
D03*
X2086000D02*
D03*
Y351250D02*
D03*
X2104000Y306000D02*
D03*
Y283000D02*
D03*
X2503000Y350500D02*
D03*
Y369500D02*
D03*
X2622750Y294000D02*
D03*
Y313000D02*
D03*
D47*
X2698000Y275500D02*
D03*
X2679000D02*
D03*
D48*
X3066750Y503000D02*
D03*
Y472000D02*
D03*
D51*
X2579500Y283250D02*
D03*
X2561000D02*
D03*
X2216750Y176462D02*
D03*
X2198250D02*
D03*
X2627691Y237781D02*
D03*
X2646191D02*
D03*
X2729000Y309000D02*
D03*
X2747500D02*
D03*
X2628000Y215250D02*
D03*
X2646500D02*
D03*
X2643250Y415000D02*
D03*
X2661750D02*
D03*
X2624250Y388500D02*
D03*
X2642750D02*
D03*
X2646750Y190000D02*
D03*
X2628250D02*
D03*
X2278250Y176462D02*
D03*
X2296750D02*
D03*
X2353250Y177750D02*
D03*
X2371750D02*
D03*
X2490250Y481250D02*
D03*
X2508750D02*
D03*
X2729500Y283750D02*
D03*
X2748000D02*
D03*
D53*
X1492000Y52500D02*
D03*
X1424000D02*
D03*
X815000D02*
D03*
X883000D02*
D03*
X370000Y49500D02*
D03*
X438000D02*
D03*
D54*
X3038500Y148500D02*
D03*
Y130000D02*
D03*
Y105250D02*
D03*
Y86750D02*
D03*
X2510000Y454250D02*
D03*
Y435750D02*
D03*
X2503000Y276000D02*
D03*
Y294500D02*
D03*
Y259250D02*
D03*
Y240750D02*
D03*
Y403250D02*
D03*
Y384750D02*
D03*
X2622750Y346750D02*
D03*
Y328250D02*
D03*
X2564000Y436750D02*
D03*
Y455250D02*
D03*
D58*
X930250Y34250D02*
D03*
Y73750D02*
D03*
X1549750Y67750D02*
D03*
Y28250D02*
D03*
X475000Y25250D02*
D03*
Y64750D02*
D03*
D59*
X2435750Y250000D02*
D03*
X2464250Y240500D02*
D03*
Y259500D02*
D03*
X2425750Y360000D02*
D03*
X2454250Y350500D02*
D03*
Y369500D02*
D03*
X2586750Y436500D02*
D03*
Y455500D02*
D03*
X2615250Y446000D02*
D03*
D60*
X1744000Y245000D02*
D03*
X1716000D02*
D03*
D64*
X2929500Y720400D02*
D03*
X2879500D02*
D03*
X2904500D02*
D03*
X2704000Y692850D02*
D03*
X2729000D02*
D03*
X2679000D02*
D03*
X627300Y242700D02*
D03*
X652700D02*
D03*
X627300Y217300D02*
D03*
X652700D02*
D03*
X627300Y191900D02*
D03*
X652700D02*
D03*
X678100D02*
D03*
Y217300D02*
D03*
Y268100D02*
D03*
Y242700D02*
D03*
X652700Y268100D02*
D03*
X601900D02*
D03*
X627300D02*
D03*
X601900Y217300D02*
D03*
Y242700D02*
D03*
Y191900D02*
D03*
X922700Y217300D02*
D03*
X897300D02*
D03*
X922700Y242700D02*
D03*
X897300D02*
D03*
X922700Y268100D02*
D03*
X897300D02*
D03*
X871900D02*
D03*
Y242700D02*
D03*
Y191900D02*
D03*
Y217300D02*
D03*
X897300Y191900D02*
D03*
X948100D02*
D03*
X922700D02*
D03*
X948100Y242700D02*
D03*
Y217300D02*
D03*
Y268100D02*
D03*
X134600Y240000D02*
D03*
X160000D02*
D03*
X134600Y214600D02*
D03*
X160000D02*
D03*
X134600Y189200D02*
D03*
X160000D02*
D03*
X185400D02*
D03*
Y214600D02*
D03*
Y265400D02*
D03*
Y240000D02*
D03*
X160000Y265400D02*
D03*
X109200D02*
D03*
X134600D02*
D03*
X109200Y214600D02*
D03*
Y240000D02*
D03*
Y189200D02*
D03*
X422700Y217300D02*
D03*
X397300D02*
D03*
X422700Y242700D02*
D03*
X397300D02*
D03*
X422700Y268100D02*
D03*
X397300D02*
D03*
X371900D02*
D03*
Y242700D02*
D03*
Y191900D02*
D03*
Y217300D02*
D03*
X397300Y191900D02*
D03*
X448100D02*
D03*
X422700D02*
D03*
X448100Y242700D02*
D03*
Y217300D02*
D03*
Y268100D02*
D03*
X2426650Y489500D02*
D03*
X2401250D02*
D03*
X97500Y36600D02*
D03*
X147500D02*
D03*
X122500D02*
D03*
X1312750Y43850D02*
D03*
X1362750D02*
D03*
X1337750D02*
D03*
X720250Y35850D02*
D03*
X770250D02*
D03*
X745250D02*
D03*
D65*
X2954500Y720400D02*
D03*
X2654000Y692850D02*
D03*
X72500Y36600D02*
D03*
X1287750Y43850D02*
D03*
X695250Y35850D02*
D03*
D66*
X2917000Y707000D02*
D03*
X2691500Y706250D02*
D03*
X110000Y50000D02*
D03*
X1325250Y57250D02*
D03*
X732750Y49250D02*
D03*
D67*
X2383700Y567500D02*
D03*
X2434500D02*
D03*
X2409100D02*
D03*
X2085800Y683750D02*
D03*
X2212800D02*
D03*
X2136600D02*
D03*
D68*
X3439410Y63020D02*
D03*
X2839410D02*
D03*
X3439410Y513020D02*
D03*
X2839410D02*
D03*
X2076000Y167300D02*
D03*
X2807500Y667500D02*
D03*
X3375000Y167500D02*
D03*
D69*
X2551750Y532500D02*
D03*
X2576750Y557500D02*
D03*
X2551750D02*
D03*
X2576750Y582500D02*
D03*
X2551750D02*
D03*
X2576750Y607500D02*
D03*
X2551750D02*
D03*
X2576750Y632500D02*
D03*
X2551750Y707500D02*
D03*
Y682500D02*
D03*
X2576750D02*
D03*
Y657500D02*
D03*
Y532500D02*
D03*
X2551750Y632500D02*
D03*
Y657500D02*
D03*
X1519250Y179000D02*
D03*
X1489250D02*
D03*
X1252266Y217750D02*
D03*
Y187750D02*
D03*
X1860000Y615000D02*
D03*
Y405000D02*
D03*
X1925000D02*
D03*
Y615000D02*
D03*
X1990000Y405000D02*
D03*
Y615000D02*
D03*
X2055000Y405000D02*
D03*
Y615000D02*
D03*
X1166500Y181250D02*
D03*
Y211250D02*
D03*
X1670000Y360000D02*
D03*
Y150000D02*
D03*
X2120000Y615000D02*
D03*
Y405000D02*
D03*
X1740000Y450000D02*
D03*
Y540000D02*
D03*
Y510000D02*
D03*
D70*
X2576750Y707500D02*
D03*
D71*
X2590555Y620000D02*
D03*
D72*
X1423250Y175750D02*
D03*
X1313250D02*
D03*
D73*
X1381100Y482000D02*
D03*
X1558900D02*
D03*
D03*
X192600D02*
D03*
X370400D02*
D03*
D03*
X692200D02*
D03*
X870000D02*
D03*
D03*
D74*
X1469000Y613000D02*
D03*
X783000D02*
D03*
X282000D02*
D03*
X1740000Y480000D02*
D03*
X1719000Y572000D02*
D03*
Y421000D02*
D03*
X1110000Y660000D02*
D03*
X1030000D02*
D03*
X1110000Y180000D02*
D03*
X1030000D02*
D03*
X1905000Y176500D02*
D03*
X1069500Y419500D02*
D03*
X549500Y45500D02*
D03*
X3226000Y710000D02*
D03*
X40000Y310000D02*
D03*
D75*
X1155000Y624750D02*
D03*
Y384750D02*
D03*
D76*
Y548750D02*
D03*
Y308750D02*
D03*
D77*
X2330800Y514600D02*
D03*
X2254600D02*
D03*
X2229200D02*
D03*
X2330800Y565400D02*
D03*
X2254600D02*
D03*
X2229200Y475400D02*
D03*
X2305400D02*
D03*
X2330800D02*
D03*
X2229200Y424600D02*
D03*
X2305400D02*
D03*
X1892500Y189400D02*
D03*
X562000Y32600D02*
D03*
X3213500Y722900D02*
D03*
D78*
X2229200Y565400D02*
D03*
X2330800Y424600D02*
D03*
D79*
X1917500Y189400D02*
D03*
X537000Y32600D02*
D03*
X3238500Y722900D02*
D03*
D80*
X2238200Y683750D02*
D03*
D81*
X1889200Y720000D02*
D03*
X1914600D02*
D03*
D82*
X1940000D02*
D03*
D83*
X2310000Y640000D02*
D03*
X2270000Y670000D02*
D03*
X2290000D02*
D03*
X2330000Y720000D02*
D03*
X3439410Y90520D02*
D03*
X3459410Y83020D02*
D03*
X3466910Y63020D02*
D03*
X3459410Y43020D02*
D03*
X3439410Y35520D02*
D03*
X3419410Y43020D02*
D03*
X3411910Y63020D02*
D03*
X3419410Y83020D02*
D03*
X2839410Y90520D02*
D03*
X2819410Y83020D02*
D03*
X2811910Y63020D02*
D03*
X2819410Y43020D02*
D03*
X2839410Y35520D02*
D03*
X2859410Y43020D02*
D03*
X2866910Y63020D02*
D03*
X2859410Y83020D02*
D03*
X3439410Y540520D02*
D03*
X3459410Y533020D02*
D03*
X3466910Y513020D02*
D03*
X3459410Y493020D02*
D03*
X3439410Y485520D02*
D03*
X3419410Y493020D02*
D03*
X3411910Y513020D02*
D03*
X3419410Y533020D02*
D03*
X2839410Y540520D02*
D03*
X2859410Y533020D02*
D03*
X2866910Y513020D02*
D03*
X2859410Y493020D02*
D03*
X2839410Y485520D02*
D03*
X2819410Y493020D02*
D03*
X2811910Y513020D02*
D03*
X2819410Y533020D02*
D03*
D115*
X3010750Y47200D02*
D03*
Y59900D02*
D03*
Y72600D02*
D03*
Y85300D02*
D03*
X2961250D02*
D03*
Y72600D02*
D03*
Y59900D02*
D03*
Y47200D02*
D03*
D116*
X2247783Y343284D02*
D03*
Y330583D02*
D03*
Y317883D02*
D03*
Y305184D02*
D03*
X2138783Y343284D02*
D03*
Y330583D02*
D03*
Y317883D02*
D03*
D117*
Y305184D02*
D03*
D118*
X2270000Y432500D02*
D03*
Y467500D02*
D03*
X2290000Y522500D02*
D03*
Y557500D02*
D03*
X2207500Y89250D02*
D03*
Y54250D02*
D03*
X2361500Y89250D02*
D03*
Y54250D02*
D03*
X2289500Y89250D02*
D03*
Y54250D02*
D03*
D119*
X1794200Y240000D02*
D03*
X1840000D02*
D03*
D120*
X1817100Y174800D02*
D03*
D121*
X2540000Y306900D02*
D03*
Y319600D02*
D03*
Y332300D02*
D03*
Y345000D02*
D03*
Y357700D02*
D03*
Y370400D02*
D03*
Y383100D02*
D03*
X2594000Y306900D02*
D03*
Y319600D02*
D03*
Y332300D02*
D03*
Y345000D02*
D03*
Y357700D02*
D03*
Y383100D02*
D03*
Y370400D02*
D03*
D122*
X1775000Y274000D02*
D03*
Y246000D02*
D03*
D123*
X1744000Y275000D02*
D03*
X1716000D02*
D03*
M02*
