G04*
G04 #@! TF.GenerationSoftware,Altium Limited,Altium Designer,23.9.2 (47)*
G04*
G04 Layer_Physical_Order=4*
G04 Layer_Color=16711680*
%FSLAX44Y44*%
%MOMM*%
G71*
G04*
G04 #@! TF.SameCoordinates,B1C0779B-3EB0-494A-A092-0BE117C51D64*
G04*
G04*
G04 #@! TF.FilePolarity,Positive*
G04*
G01*
G75*
%ADD13C,0.2540*%
%ADD14C,0.2000*%
G04:AMPARAMS|DCode=16|XSize=0.65mm|YSize=1.25mm|CornerRadius=0.1625mm|HoleSize=0mm|Usage=FLASHONLY|Rotation=180.000|XOffset=0mm|YOffset=0mm|HoleType=Round|Shape=RoundedRectangle|*
%AMROUNDEDRECTD16*
21,1,0.6500,0.9250,0,0,180.0*
21,1,0.3250,1.2500,0,0,180.0*
1,1,0.3250,-0.1625,0.4625*
1,1,0.3250,0.1625,0.4625*
1,1,0.3250,0.1625,-0.4625*
1,1,0.3250,-0.1625,-0.4625*
%
%ADD16ROUNDEDRECTD16*%
G04:AMPARAMS|DCode=19|XSize=0.6mm|YSize=1.45mm|CornerRadius=0.15mm|HoleSize=0mm|Usage=FLASHONLY|Rotation=0.000|XOffset=0mm|YOffset=0mm|HoleType=Round|Shape=RoundedRectangle|*
%AMROUNDEDRECTD19*
21,1,0.6000,1.1500,0,0,0.0*
21,1,0.3000,1.4500,0,0,0.0*
1,1,0.3000,0.1500,-0.5750*
1,1,0.3000,-0.1500,-0.5750*
1,1,0.3000,-0.1500,0.5750*
1,1,0.3000,0.1500,0.5750*
%
%ADD19ROUNDEDRECTD19*%
%ADD22R,1.3000X0.9000*%
%ADD23R,0.9000X1.3000*%
%ADD24R,1.6000X1.2000*%
%ADD27R,1.1500X1.3500*%
G04:AMPARAMS|DCode=29|XSize=3.3mm|YSize=2.3mm|CornerRadius=0.575mm|HoleSize=0mm|Usage=FLASHONLY|Rotation=270.000|XOffset=0mm|YOffset=0mm|HoleType=Round|Shape=RoundedRectangle|*
%AMROUNDEDRECTD29*
21,1,3.3000,1.1500,0,0,270.0*
21,1,2.1500,2.3000,0,0,270.0*
1,1,1.1500,-0.5750,-1.0750*
1,1,1.1500,-0.5750,1.0750*
1,1,1.1500,0.5750,1.0750*
1,1,1.1500,0.5750,-1.0750*
%
%ADD29ROUNDEDRECTD29*%
%ADD30R,1.3500X1.1500*%
G04:AMPARAMS|DCode=34|XSize=1.7mm|YSize=2.5mm|CornerRadius=0.425mm|HoleSize=0mm|Usage=FLASHONLY|Rotation=0.000|XOffset=0mm|YOffset=0mm|HoleType=Round|Shape=RoundedRectangle|*
%AMROUNDEDRECTD34*
21,1,1.7000,1.6500,0,0,0.0*
21,1,0.8500,2.5000,0,0,0.0*
1,1,0.8500,0.4250,-0.8250*
1,1,0.8500,-0.4250,-0.8250*
1,1,0.8500,-0.4250,0.8250*
1,1,0.8500,0.4250,0.8250*
%
%ADD34ROUNDEDRECTD34*%
G04:AMPARAMS|DCode=35|XSize=0.65mm|YSize=1.25mm|CornerRadius=0.1625mm|HoleSize=0mm|Usage=FLASHONLY|Rotation=90.000|XOffset=0mm|YOffset=0mm|HoleType=Round|Shape=RoundedRectangle|*
%AMROUNDEDRECTD35*
21,1,0.6500,0.9250,0,0,90.0*
21,1,0.3250,1.2500,0,0,90.0*
1,1,0.3250,0.4625,0.1625*
1,1,0.3250,0.4625,-0.1625*
1,1,0.3250,-0.4625,-0.1625*
1,1,0.3250,-0.4625,0.1625*
%
%ADD35ROUNDEDRECTD35*%
%ADD36R,1.4000X1.9500*%
%ADD84C,1.0000*%
%ADD86C,0.5000*%
%ADD87C,1.8000*%
%ADD88R,1.8000X1.8000*%
%ADD89C,1.4000*%
%ADD90C,1.5000*%
%ADD91C,8.0000*%
%ADD92C,2.0000*%
%ADD93R,2.0000X2.0000*%
%ADD94C,1.3000*%
%ADD95C,2.5000*%
%ADD96C,9.0000*%
%ADD97R,2.9700X2.9700*%
%ADD98C,2.9700*%
%ADD99C,1.6000*%
%ADD100R,1.6000X1.6000*%
G04:AMPARAMS|DCode=101|XSize=1.6mm|YSize=1.6mm|CornerRadius=0.4mm|HoleSize=0mm|Usage=FLASHONLY|Rotation=180.000|XOffset=0mm|YOffset=0mm|HoleType=Round|Shape=RoundedRectangle|*
%AMROUNDEDRECTD101*
21,1,1.6000,0.8000,0,0,180.0*
21,1,0.8000,1.6000,0,0,180.0*
1,1,0.8000,-0.4000,0.4000*
1,1,0.8000,0.4000,0.4000*
1,1,0.8000,0.4000,-0.4000*
1,1,0.8000,-0.4000,-0.4000*
%
%ADD101ROUNDEDRECTD101*%
G04:AMPARAMS|DCode=102|XSize=1.5mm|YSize=1.5mm|CornerRadius=0.375mm|HoleSize=0mm|Usage=FLASHONLY|Rotation=180.000|XOffset=0mm|YOffset=0mm|HoleType=Round|Shape=RoundedRectangle|*
%AMROUNDEDRECTD102*
21,1,1.5000,0.7500,0,0,180.0*
21,1,0.7500,1.5000,0,0,180.0*
1,1,0.7500,-0.3750,0.3750*
1,1,0.7500,0.3750,0.3750*
1,1,0.7500,0.3750,-0.3750*
1,1,0.7500,-0.3750,-0.3750*
%
%ADD102ROUNDEDRECTD102*%
%ADD103C,1.2000*%
%ADD104R,1.2000X1.2000*%
%ADD105C,0.7000*%
G04:AMPARAMS|DCode=106|XSize=1.97mm|YSize=0.6mm|CornerRadius=0.075mm|HoleSize=0mm|Usage=FLASHONLY|Rotation=0.000|XOffset=0mm|YOffset=0mm|HoleType=Round|Shape=RoundedRectangle|*
%AMROUNDEDRECTD106*
21,1,1.9700,0.4500,0,0,0.0*
21,1,1.8200,0.6000,0,0,0.0*
1,1,0.1500,0.9100,-0.2250*
1,1,0.1500,-0.9100,-0.2250*
1,1,0.1500,-0.9100,0.2250*
1,1,0.1500,0.9100,0.2250*
%
%ADD106ROUNDEDRECTD106*%
%ADD107O,1.8000X0.6000*%
%ADD108R,1.8000X0.6000*%
G04:AMPARAMS|DCode=109|XSize=1.3mm|YSize=1.1mm|CornerRadius=0.275mm|HoleSize=0mm|Usage=FLASHONLY|Rotation=180.000|XOffset=0mm|YOffset=0mm|HoleType=Round|Shape=RoundedRectangle|*
%AMROUNDEDRECTD109*
21,1,1.3000,0.5500,0,0,180.0*
21,1,0.7500,1.1000,0,0,180.0*
1,1,0.5500,-0.3750,0.2750*
1,1,0.5500,0.3750,0.2750*
1,1,0.5500,0.3750,-0.2750*
1,1,0.5500,-0.3750,-0.2750*
%
%ADD109ROUNDEDRECTD109*%
%ADD110R,0.9700X2.8300*%
%ADD111R,5.6300X6.3500*%
G04:AMPARAMS|DCode=112|XSize=0.6mm|YSize=1.55mm|CornerRadius=0.15mm|HoleSize=0mm|Usage=FLASHONLY|Rotation=90.000|XOffset=0mm|YOffset=0mm|HoleType=Round|Shape=RoundedRectangle|*
%AMROUNDEDRECTD112*
21,1,0.6000,1.2500,0,0,90.0*
21,1,0.3000,1.5500,0,0,90.0*
1,1,0.3000,0.6250,0.1500*
1,1,0.3000,0.6250,-0.1500*
1,1,0.3000,-0.6250,-0.1500*
1,1,0.3000,-0.6250,0.1500*
%
%ADD112ROUNDEDRECTD112*%
%ADD113R,1.9500X1.4000*%
%ADD114R,1.2000X1.2000*%
G36*
X2112859Y398000D02*
X2112431Y398380D01*
X2111931Y398720D01*
X2111358Y399020D01*
X2110715Y399280D01*
X2109999Y399500D01*
X2109211Y399680D01*
X2108351Y399820D01*
X2107419Y399920D01*
X2105340Y400000D01*
Y410000D01*
X2106415Y410020D01*
X2108351Y410180D01*
X2109211Y410320D01*
X2109999Y410500D01*
X2110715Y410720D01*
X2111358Y410980D01*
X2111931Y411280D01*
X2112431Y411620D01*
X2112859Y412000D01*
Y398000D01*
D02*
G37*
G36*
X2062569Y411620D02*
X2063069Y411280D01*
X2063642Y410980D01*
X2064285Y410720D01*
X2065001Y410500D01*
X2065789Y410320D01*
X2066649Y410180D01*
X2067581Y410080D01*
X2069660Y410000D01*
Y400000D01*
X2068585Y399980D01*
X2066649Y399820D01*
X2065789Y399680D01*
X2065001Y399500D01*
X2064285Y399280D01*
X2063642Y399020D01*
X2063069Y398720D01*
X2062569Y398380D01*
X2062141Y398000D01*
Y412000D01*
X2062569Y411620D01*
D02*
G37*
G36*
X2047859Y398000D02*
X2047431Y398380D01*
X2046931Y398720D01*
X2046358Y399020D01*
X2045715Y399280D01*
X2044999Y399500D01*
X2044211Y399680D01*
X2043351Y399820D01*
X2042419Y399920D01*
X2040340Y400000D01*
Y410000D01*
X2041415Y410020D01*
X2043351Y410180D01*
X2044211Y410320D01*
X2044999Y410500D01*
X2045715Y410720D01*
X2046358Y410980D01*
X2046931Y411280D01*
X2047431Y411620D01*
X2047859Y412000D01*
Y398000D01*
D02*
G37*
G36*
X1997569Y411620D02*
X1998069Y411280D01*
X1998642Y410980D01*
X1999285Y410720D01*
X2000001Y410500D01*
X2000789Y410320D01*
X2001649Y410180D01*
X2002581Y410080D01*
X2004660Y410000D01*
Y400000D01*
X2003585Y399980D01*
X2001649Y399820D01*
X2000789Y399680D01*
X2000001Y399500D01*
X1999285Y399280D01*
X1998642Y399020D01*
X1998069Y398720D01*
X1997569Y398380D01*
X1997141Y398000D01*
Y412000D01*
X1997569Y411620D01*
D02*
G37*
G36*
X1932569D02*
X1933069Y411280D01*
X1933642Y410980D01*
X1934285Y410720D01*
X1935001Y410500D01*
X1935789Y410320D01*
X1936649Y410180D01*
X1937581Y410080D01*
X1939660Y410000D01*
Y400000D01*
X1938585Y399980D01*
X1936649Y399820D01*
X1935789Y399680D01*
X1935001Y399500D01*
X1934285Y399280D01*
X1933642Y399020D01*
X1933069Y398720D01*
X1932569Y398380D01*
X1932141Y398000D01*
Y412000D01*
X1932569Y411620D01*
D02*
G37*
G36*
X1917859Y398000D02*
X1917431Y398380D01*
X1916931Y398720D01*
X1916358Y399020D01*
X1915715Y399280D01*
X1914999Y399500D01*
X1914211Y399680D01*
X1913351Y399820D01*
X1912419Y399920D01*
X1910340Y400000D01*
Y410000D01*
X1911416Y410020D01*
X1913351Y410180D01*
X1914211Y410320D01*
X1914999Y410500D01*
X1915715Y410720D01*
X1916358Y410980D01*
X1916931Y411280D01*
X1917431Y411620D01*
X1917859Y412000D01*
Y398000D01*
D02*
G37*
G36*
X1867569Y411620D02*
X1868069Y411280D01*
X1868642Y410980D01*
X1869285Y410720D01*
X1870001Y410500D01*
X1870789Y410320D01*
X1871649Y410180D01*
X1872581Y410080D01*
X1874660Y410000D01*
Y400000D01*
X1873585Y399980D01*
X1871649Y399820D01*
X1870789Y399680D01*
X1870001Y399500D01*
X1869285Y399280D01*
X1868642Y399020D01*
X1868069Y398720D01*
X1867569Y398380D01*
X1867142Y398000D01*
Y412000D01*
X1867569Y411620D01*
D02*
G37*
G36*
X1749010Y288284D02*
X1749475Y281782D01*
X1749621Y281331D01*
X1749785Y281060D01*
X1749969Y280970D01*
X1738031D01*
X1738215Y281060D01*
X1738380Y281331D01*
X1738525Y281782D01*
X1738651Y282414D01*
X1738758Y283227D01*
X1738913Y285394D01*
X1739000Y290000D01*
X1749000D01*
X1749010Y288284D01*
D02*
G37*
G36*
X1765280Y267031D02*
X1765181Y267500D01*
X1764881Y267920D01*
X1764380Y268290D01*
X1763681Y268611D01*
X1762780Y268883D01*
X1761680Y269105D01*
X1760381Y269278D01*
X1758158Y269415D01*
X1749969Y269030D01*
Y280970D01*
X1750069Y280690D01*
X1750370Y280441D01*
X1750869Y280220D01*
X1751570Y280029D01*
X1752469Y279867D01*
X1753569Y279735D01*
X1756369Y279559D01*
X1757569Y279539D01*
X1762780Y279867D01*
X1763681Y280029D01*
X1764380Y280220D01*
X1764881Y280441D01*
X1765181Y280690D01*
X1765280Y280970D01*
Y267031D01*
D02*
G37*
G36*
X1784819Y280595D02*
X1785119Y280261D01*
X1785620Y279965D01*
X1786319Y279709D01*
X1787220Y279492D01*
X1788320Y279315D01*
X1789619Y279177D01*
X1792820Y279020D01*
X1794720Y279000D01*
Y269000D01*
X1792820Y268980D01*
X1788320Y268685D01*
X1787220Y268508D01*
X1786319Y268291D01*
X1785620Y268035D01*
X1785119Y267740D01*
X1784819Y267405D01*
X1784720Y267031D01*
Y280970D01*
X1784819Y280595D01*
D02*
G37*
G36*
X1836253Y259847D02*
X1839865Y256665D01*
X1840901Y255887D01*
X1841853Y255251D01*
X1842720Y254756D01*
X1843504Y254402D01*
X1844204Y254190D01*
X1844819Y254119D01*
X1835181Y239677D01*
X1835619Y240582D01*
X1835803Y241600D01*
X1835733Y242731D01*
X1835408Y243976D01*
X1834828Y245333D01*
X1833994Y246804D01*
X1832904Y248388D01*
X1831561Y250085D01*
X1829962Y251896D01*
X1828109Y253820D01*
X1834881Y261191D01*
X1836253Y259847D01*
D02*
G37*
G36*
X696602Y554977D02*
X704383Y554111D01*
X712031Y552440D01*
X719465Y549982D01*
X726601Y546764D01*
X733364Y542820D01*
X739680Y538194D01*
X745480Y532935D01*
X750701Y527101D01*
X755286Y520755D01*
X759186Y513967D01*
X762358Y506809D01*
X764768Y499360D01*
X766389Y491701D01*
X767204Y483914D01*
Y480000D01*
X767204Y477922D01*
X766974Y473773D01*
X766514Y469642D01*
X765827Y465544D01*
X765370Y463517D01*
X765370Y463517D01*
X765370Y463517D01*
X763680Y456013D01*
X763315Y454392D01*
X762441Y451184D01*
X761426Y448018D01*
X760272Y444901D01*
X759627Y443369D01*
X759553Y441708D01*
X759259Y438397D01*
X758818Y435101D01*
X758232Y431829D01*
X757867Y430207D01*
X757867Y430207D01*
X757867Y430207D01*
X719260Y258828D01*
X719107Y258146D01*
X718774Y256790D01*
X718417Y255439D01*
X718034Y254096D01*
X717831Y253428D01*
X717728Y252737D01*
X717498Y251360D01*
X717242Y249986D01*
X717066Y249132D01*
X716807Y247940D01*
X716807Y247937D01*
X716807Y247937D01*
X716807Y247937D01*
X715580Y242491D01*
X715393Y241660D01*
X714980Y240006D01*
X714531Y238363D01*
X714044Y236729D01*
X713782Y235918D01*
X713671Y235073D01*
X713410Y233389D01*
X713112Y231711D01*
X712842Y230374D01*
X712588Y229209D01*
X712588Y229209D01*
X712588Y229209D01*
X711361Y223763D01*
X710435Y219654D01*
X707676Y211695D01*
X704042Y204095D01*
X699580Y196949D01*
X694346Y190348D01*
X688406Y184374D01*
X681835Y179103D01*
X674715Y174601D01*
X667135Y170924D01*
X659191Y168120D01*
X650984Y166222D01*
X642615Y165255D01*
X634191Y165231D01*
X625817Y166151D01*
X617599Y168002D01*
X609639Y170762D01*
X602039Y174396D01*
X594893Y178857D01*
X588292Y184091D01*
X582318Y190031D01*
X577048Y196603D01*
X572545Y203723D01*
X568869Y211303D01*
X566064Y219246D01*
X564166Y227454D01*
X563199Y235823D01*
X563176Y244247D01*
X564095Y252621D01*
X566435Y263006D01*
X566847Y264660D01*
X567297Y266304D01*
X567784Y267937D01*
X568046Y268748D01*
X568157Y269593D01*
X568417Y271277D01*
X568716Y272955D01*
X569052Y274626D01*
X569240Y275457D01*
X569240Y275457D01*
X570620Y281584D01*
X570952Y282941D01*
X571310Y284291D01*
X571692Y285635D01*
X571896Y286303D01*
X571998Y286994D01*
X572229Y288371D01*
X572485Y289744D01*
X572766Y291112D01*
X572920Y291794D01*
X611526Y463173D01*
X611891Y464795D01*
X612765Y468003D01*
X613780Y471168D01*
X614934Y474286D01*
X615579Y475818D01*
X615653Y477479D01*
X615947Y480790D01*
X616388Y484085D01*
X616974Y487358D01*
X617340Y488979D01*
X619890Y500302D01*
X622396Y507719D01*
X625661Y514835D01*
X629649Y521572D01*
X634316Y527858D01*
X639612Y533623D01*
X645480Y538806D01*
X651855Y543350D01*
X658669Y547206D01*
X665847Y550331D01*
X673312Y552692D01*
X680982Y554263D01*
X688773Y555028D01*
X696602Y554977D01*
D02*
G37*
G36*
X201964Y534319D02*
X209737Y532760D01*
X217302Y530390D01*
X224576Y527236D01*
X231477Y523333D01*
X237927Y518724D01*
X243857Y513461D01*
X249198Y507602D01*
X253892Y501213D01*
X257886Y494364D01*
X261136Y487133D01*
X263606Y479600D01*
X265268Y471848D01*
X266104Y463964D01*
Y458268D01*
X265944Y454808D01*
X265625Y451359D01*
X265146Y447929D01*
X264828Y446226D01*
X251192Y373232D01*
X249855Y371392D01*
X247211Y366203D01*
X245411Y360664D01*
X244500Y354912D01*
Y349088D01*
X245411Y343336D01*
X245535Y342954D01*
X223728Y226226D01*
X223728D01*
X222955Y222086D01*
X220490Y214030D01*
X217139Y206301D01*
X212944Y198996D01*
X207957Y192206D01*
X202242Y186017D01*
X195869Y180508D01*
X188920Y175746D01*
X181481Y171792D01*
X173646Y168696D01*
X165514Y166497D01*
X157186Y165222D01*
X148769Y164888D01*
X140367Y165498D01*
X132086Y167045D01*
X124030Y169510D01*
X116301Y172861D01*
X108996Y177056D01*
X102206Y182043D01*
X96017Y187758D01*
X90507Y194131D01*
X85746Y201080D01*
X81792Y208519D01*
X78696Y216354D01*
X76497Y224486D01*
X75223Y232814D01*
X74888Y241231D01*
X75498Y249633D01*
X76272Y253774D01*
X117372Y473774D01*
X117372D01*
X117372Y473774D01*
X118100Y477670D01*
X120369Y485267D01*
X123426Y492581D01*
X127238Y499533D01*
X131761Y506045D01*
X136945Y512043D01*
X142732Y517461D01*
X149058Y522240D01*
X155853Y526325D01*
X163041Y529670D01*
X170541Y532240D01*
X178270Y534005D01*
X186142Y534945D01*
X194069Y535050D01*
X201964Y534319D01*
D02*
G37*
G36*
X384467Y534989D02*
X392835Y534017D01*
X401042Y532115D01*
X408984Y529305D01*
X416561Y525625D01*
X423679Y521118D01*
X430247Y515844D01*
X436184Y509866D01*
X441414Y503262D01*
X445872Y496114D01*
X449501Y488512D01*
X452256Y480551D01*
X454103Y472332D01*
X454560Y468144D01*
X478591Y248144D01*
X478702Y247130D01*
X478868Y245097D01*
X478979Y243060D01*
X479035Y241020D01*
Y240000D01*
Y235934D01*
X478155Y227850D01*
X476408Y219908D01*
X473811Y212201D01*
X470397Y204821D01*
X466205Y197853D01*
X461285Y191378D01*
X455693Y185474D01*
X449496Y180209D01*
X442766Y175644D01*
X435582Y171834D01*
X428028Y168823D01*
X420193Y166646D01*
X412169Y165328D01*
X404049Y164886D01*
X395929Y165324D01*
X387904Y166638D01*
X380067Y168811D01*
X372512Y171819D01*
X365326Y175625D01*
X358594Y180187D01*
X352394Y185449D01*
X346800Y191351D01*
X341876Y197823D01*
X337681Y204789D01*
X334263Y212168D01*
X331664Y219873D01*
X329912Y227814D01*
X329470Y231856D01*
X329470Y231856D01*
X317368Y342655D01*
X317589Y343336D01*
X318500Y349088D01*
Y354912D01*
X317589Y360664D01*
X315789Y366203D01*
X314524Y368685D01*
X305440Y451856D01*
X304982Y456043D01*
X305011Y464467D01*
X305983Y472835D01*
X307885Y481042D01*
X310695Y488984D01*
X314375Y496561D01*
X318882Y503679D01*
X324156Y510247D01*
X330134Y516184D01*
X336738Y521414D01*
X343886Y525872D01*
X351488Y529501D01*
X359449Y532256D01*
X367668Y534103D01*
X376043Y535018D01*
X384467Y534989D01*
D02*
G37*
G36*
X876192Y554866D02*
X884535Y553702D01*
X892696Y551611D01*
X900571Y548620D01*
X908062Y544766D01*
X915074Y540097D01*
X921519Y534672D01*
X927317Y528560D01*
X932393Y521837D01*
X936685Y514588D01*
X940139Y506904D01*
X942710Y498882D01*
X943539Y494753D01*
X943539Y494752D01*
X943539D01*
X944893Y488003D01*
X945232Y486312D01*
X945754Y482903D01*
X946119Y479473D01*
X946326Y476030D01*
X946350Y474306D01*
X946993Y472706D01*
X948130Y469449D01*
X949116Y466144D01*
X949949Y462797D01*
X950288Y461107D01*
X950288Y461106D01*
X950288Y461106D01*
X984477Y290684D01*
X984784Y289151D01*
X985271Y286061D01*
X985629Y282953D01*
X985856Y279834D01*
X985905Y278270D01*
X986463Y276809D01*
X987456Y273843D01*
X988325Y270838D01*
X989067Y267800D01*
X989375Y266266D01*
X989375Y266266D01*
X989375Y266266D01*
X990358Y261368D01*
X990419Y261062D01*
X990537Y260448D01*
X990602Y260095D01*
X990808Y258911D01*
X990808Y258911D01*
X990810Y258903D01*
X991072Y257750D01*
X991098Y257629D01*
X991338Y256480D01*
X991340Y256470D01*
X991340D01*
X991340Y256470D01*
X992688Y249751D01*
X993237Y246079D01*
X993604Y242384D01*
X993788Y238675D01*
Y232873D01*
X992960Y225024D01*
X991313Y217306D01*
X988865Y209802D01*
X985643Y202598D01*
X981683Y195771D01*
X977028Y189397D01*
X971730Y183547D01*
X965848Y178285D01*
X959446Y173670D01*
X952595Y169752D01*
X945370Y166574D01*
X937852Y164172D01*
X930124Y162572D01*
X922270Y161792D01*
X914378Y161841D01*
X906534Y162717D01*
X898826Y164412D01*
X891338Y166906D01*
X884153Y170172D01*
X877351Y174174D01*
X871006Y178868D01*
X865189Y184201D01*
X859963Y190116D01*
X855387Y196546D01*
X851511Y203421D01*
X848378Y210665D01*
X846022Y218197D01*
X845246Y222066D01*
X844263Y226965D01*
X844202Y227271D01*
X844084Y227885D01*
X844019Y228238D01*
X843812Y229422D01*
X843812Y229422D01*
X843549Y230583D01*
X843470Y230946D01*
X843342Y231557D01*
X843280Y231863D01*
X843280D01*
X841990Y238295D01*
X841503Y241385D01*
X841146Y244492D01*
X840918Y247612D01*
X840869Y249175D01*
X840311Y250636D01*
X839318Y253602D01*
X838449Y256607D01*
X837707Y259645D01*
X837399Y261179D01*
X803211Y431601D01*
X802872Y433292D01*
X802350Y436702D01*
X801985Y440131D01*
X801778Y443574D01*
X801753Y445298D01*
X801111Y446899D01*
X799974Y450155D01*
X798988Y453460D01*
X798155Y456807D01*
X796461Y465247D01*
X795633Y469377D01*
X794911Y477771D01*
X795134Y486192D01*
X796298Y494535D01*
X798389Y502696D01*
X801380Y510571D01*
X805234Y518062D01*
X809903Y525074D01*
X815328Y531519D01*
X821440Y537317D01*
X828163Y542393D01*
X835412Y546685D01*
X843095Y550139D01*
X851118Y552710D01*
X859377Y554367D01*
X867771Y555089D01*
X876192Y554866D01*
D02*
G37*
G36*
X2981996Y752354D02*
X2982354Y751995D01*
X2982548Y751527D01*
Y600298D01*
X3308496D01*
X3340373Y632174D01*
X3341274Y632548D01*
X3501527D01*
X3501995Y632354D01*
X3502354Y631995D01*
X3502548Y631527D01*
X3502548Y631274D01*
X3502548Y21282D01*
X3502548Y21274D01*
Y19179D01*
X3501730Y15069D01*
X3500126Y11197D01*
X3497798Y7713D01*
X3494835Y4749D01*
X3491351Y2421D01*
X3487479Y817D01*
X3483369Y0D01*
X19179D01*
X15069Y817D01*
X11197Y2421D01*
X7713Y4749D01*
X4749Y7713D01*
X2421Y11197D01*
X817Y15069D01*
X0Y19179D01*
Y21274D01*
Y95527D01*
X194Y95995D01*
X552Y96354D01*
X1020Y96547D01*
X1274Y96547D01*
X2000882Y96548D01*
X2200250Y232198D01*
Y750516D01*
X2200035Y750806D01*
X2199974Y751525D01*
X2200299Y752169D01*
X2200913Y752548D01*
X2201274D01*
X2981274Y752548D01*
X2981527D01*
X2981996Y752354D01*
D02*
G37*
%LPC*%
G36*
X2930948Y731400D02*
X2928052D01*
X2925254Y730650D01*
X2922746Y729202D01*
X2920698Y727154D01*
X2919250Y724646D01*
X2918500Y721848D01*
Y718952D01*
X2918997Y717097D01*
X2918543Y716484D01*
X2917976Y716000D01*
X2916024D01*
X2915457Y716484D01*
X2915003Y717097D01*
X2915500Y718952D01*
Y721848D01*
X2914750Y724646D01*
X2913302Y727154D01*
X2911254Y729202D01*
X2908746Y730650D01*
X2905948Y731400D01*
X2903052D01*
X2900254Y730650D01*
X2897746Y729202D01*
X2895698Y727154D01*
X2894250Y724646D01*
X2893500Y721848D01*
Y718952D01*
X2894250Y716154D01*
X2895698Y713646D01*
X2896737Y712607D01*
X2896412Y710971D01*
Y679901D01*
X2834099Y617588D01*
X2626650D01*
X2608494Y635744D01*
X2607006Y636739D01*
X2605250Y637088D01*
X2587944D01*
X2587932Y637132D01*
X2586353Y639868D01*
X2584118Y642102D01*
X2581382Y643682D01*
X2578917Y644343D01*
Y645657D01*
X2581382Y646318D01*
X2584118Y647898D01*
X2586353Y650132D01*
X2587932Y652868D01*
X2588750Y655920D01*
Y659080D01*
X2587932Y662132D01*
X2586353Y664868D01*
X2584118Y667102D01*
X2581382Y668682D01*
X2578917Y669343D01*
Y670657D01*
X2581382Y671318D01*
X2584118Y672898D01*
X2586353Y675132D01*
X2587932Y677868D01*
X2588750Y680920D01*
Y684080D01*
X2587932Y687132D01*
X2586353Y689868D01*
X2584118Y692102D01*
X2581382Y693682D01*
X2578330Y694500D01*
X2575170D01*
X2572118Y693682D01*
X2569382Y692102D01*
X2567148Y689868D01*
X2565568Y687132D01*
X2564908Y684667D01*
X2563593D01*
X2562932Y687132D01*
X2561353Y689868D01*
X2559118Y692102D01*
X2556382Y693682D01*
X2553917Y694343D01*
Y695657D01*
X2556382Y696318D01*
X2559118Y697898D01*
X2561353Y700132D01*
X2562932Y702868D01*
X2563750Y705920D01*
Y709080D01*
X2562932Y712132D01*
X2561353Y714868D01*
X2559118Y717102D01*
X2556382Y718682D01*
X2553330Y719500D01*
X2550170D01*
X2547118Y718682D01*
X2544382Y717102D01*
X2542148Y714868D01*
X2540568Y712132D01*
X2539750Y709080D01*
Y705920D01*
X2540568Y702868D01*
X2541382Y701458D01*
X2498587Y658663D01*
X2497924Y657671D01*
X2497691Y656500D01*
X2497691Y656500D01*
Y547186D01*
X2497634Y547163D01*
X2496087Y545616D01*
X2495250Y543594D01*
Y541406D01*
X2496087Y539384D01*
X2497634Y537837D01*
X2499656Y537000D01*
X2501844D01*
X2503866Y537837D01*
X2505413Y539384D01*
X2506109Y541067D01*
X2507121Y541437D01*
X2507520Y541452D01*
X2508134Y540837D01*
X2510156Y540000D01*
X2512344D01*
X2514366Y540837D01*
X2515913Y542384D01*
X2516283Y543279D01*
X2516370Y543329D01*
X2517741Y543481D01*
X2518884Y542337D01*
X2520906Y541500D01*
X2523094D01*
X2525116Y542337D01*
X2526663Y543885D01*
X2527500Y545906D01*
Y548094D01*
X2526663Y550116D01*
X2525116Y551663D01*
X2525059Y551686D01*
Y626483D01*
X2545708Y647132D01*
X2547118Y646318D01*
X2549583Y645657D01*
Y644343D01*
X2547118Y643682D01*
X2544382Y642102D01*
X2542148Y639868D01*
X2540568Y637132D01*
X2539750Y634080D01*
Y630920D01*
X2540568Y627868D01*
X2542148Y625132D01*
X2544382Y622898D01*
X2547118Y621318D01*
X2549583Y620657D01*
Y619343D01*
X2547118Y618682D01*
X2544382Y617102D01*
X2542148Y614868D01*
X2540568Y612132D01*
X2539750Y609080D01*
Y605920D01*
X2540568Y602868D01*
X2542148Y600132D01*
X2544382Y597898D01*
X2547118Y596318D01*
X2549583Y595657D01*
Y594343D01*
X2547118Y593682D01*
X2544382Y592102D01*
X2542148Y589868D01*
X2540568Y587132D01*
X2539750Y584080D01*
Y580920D01*
X2540568Y577868D01*
X2542148Y575132D01*
X2544382Y572898D01*
X2547118Y571318D01*
X2549583Y570657D01*
Y569343D01*
X2547118Y568682D01*
X2544382Y567102D01*
X2542148Y564868D01*
X2540568Y562132D01*
X2539750Y559080D01*
Y555920D01*
X2540568Y552868D01*
X2542148Y550132D01*
X2544382Y547898D01*
X2547118Y546318D01*
X2549583Y545657D01*
Y544343D01*
X2547118Y543682D01*
X2544382Y542102D01*
X2542148Y539868D01*
X2540568Y537132D01*
X2540146Y535559D01*
X2396517D01*
X2303663Y628413D01*
X2302670Y629076D01*
X2301500Y629309D01*
X2301500Y629309D01*
X2249500D01*
X2248329Y629076D01*
X2247337Y628413D01*
X2247337Y628413D01*
X2204445Y585521D01*
X2203782Y584529D01*
X2203549Y583358D01*
X2203549Y583358D01*
Y413392D01*
X2203549Y413392D01*
X2203782Y412221D01*
X2204445Y411229D01*
X2214328Y401347D01*
X2214328Y401347D01*
X2214328Y401347D01*
X2276924Y338751D01*
Y253515D01*
X2261624Y238216D01*
X2260354Y238742D01*
Y244980D01*
X2260100Y246256D01*
X2259377Y247337D01*
X2255000Y251715D01*
Y253594D01*
X2254163Y255616D01*
X2252616Y257163D01*
X2250594Y258000D01*
X2248406D01*
X2246384Y257163D01*
X2244837Y255616D01*
X2244000Y253594D01*
Y251406D01*
X2244789Y249500D01*
X2244583Y248927D01*
X2244196Y248230D01*
X2243672D01*
X2242501Y247997D01*
X2241509Y247334D01*
X2241509Y247334D01*
X2229416Y235242D01*
X2211534D01*
X2211534Y235242D01*
X2210364Y235009D01*
X2209371Y234346D01*
X2148047Y173021D01*
X2147384Y172029D01*
X2147151Y170858D01*
X2147151Y170858D01*
Y152977D01*
X2087983Y93809D01*
X1729750D01*
X1729750Y93809D01*
X1728580Y93576D01*
X1727587Y92913D01*
X1690587Y55913D01*
X1689924Y54921D01*
X1689691Y53750D01*
X1689691Y53750D01*
Y39422D01*
X1689691Y39422D01*
X1689924Y38251D01*
X1690587Y37259D01*
X1697258Y30587D01*
X1698251Y29924D01*
X1699421Y29692D01*
X1699421Y29692D01*
X1700460D01*
X1700587Y29385D01*
X1702135Y27837D01*
X1704156Y27000D01*
X1706344D01*
X1706401Y27023D01*
X1707587Y25837D01*
X1707587Y25837D01*
X1708580Y25174D01*
X1709750Y24941D01*
X1709750Y24941D01*
X2161250D01*
X2161250Y24941D01*
X2162421Y25174D01*
X2163413Y25837D01*
X2198762Y61186D01*
X2199234Y61078D01*
X2199804Y59644D01*
X2199276Y58853D01*
X2198907Y57000D01*
Y51500D01*
X2198993Y51069D01*
X2166983Y19059D01*
X1613267D01*
X1582413Y49913D01*
X1581420Y50576D01*
X1580250Y50809D01*
X1580250Y50809D01*
X1505567D01*
Y63250D01*
X1505300Y65273D01*
X1504520Y67158D01*
X1503277Y68777D01*
X1501658Y70020D01*
X1499773Y70800D01*
X1497750Y71067D01*
X1486250D01*
X1484227Y70800D01*
X1482342Y70020D01*
X1480723Y68777D01*
X1479480Y67158D01*
X1478699Y65273D01*
X1478433Y63250D01*
Y41750D01*
X1478699Y39727D01*
X1479051Y38877D01*
X1465233Y25059D01*
X1464000D01*
X1462829Y24826D01*
X1462205Y24409D01*
X1386517D01*
X1372386Y38540D01*
X1373000Y39604D01*
X1373750Y42402D01*
Y45298D01*
X1373000Y48096D01*
X1371552Y50604D01*
X1369504Y52652D01*
X1366996Y54100D01*
X1364198Y54850D01*
X1361302D01*
X1358504Y54100D01*
X1355996Y52652D01*
X1353948Y50604D01*
X1352500Y48096D01*
X1351750Y45298D01*
Y42402D01*
X1352500Y39604D01*
X1353948Y37096D01*
X1354359Y36685D01*
X1334233Y16559D01*
X873249D01*
X841430Y48378D01*
X841956Y49648D01*
X842742D01*
X844763Y50485D01*
X846311Y52032D01*
X847148Y54054D01*
Y56242D01*
X846311Y58263D01*
X844763Y59811D01*
X842742Y60648D01*
X840554D01*
X838532Y59811D01*
X836985Y58263D01*
X836148Y56242D01*
Y55456D01*
X835743Y55136D01*
X834878Y54841D01*
X834153Y55326D01*
X832982Y55559D01*
X832982Y55559D01*
X828567D01*
Y63250D01*
X828301Y65273D01*
X827520Y67158D01*
X826277Y68777D01*
X824659Y70020D01*
X822773Y70800D01*
X820750Y71067D01*
X809250D01*
X807227Y70800D01*
X805342Y70020D01*
X803723Y68777D01*
X802480Y67158D01*
X801700Y65273D01*
X801433Y63250D01*
Y41750D01*
X801635Y40219D01*
X800324Y38909D01*
X780818D01*
X780500Y40096D01*
X779052Y42604D01*
X777004Y44652D01*
X774496Y46100D01*
X771698Y46850D01*
X768802D01*
X766004Y46100D01*
X763496Y44652D01*
X761448Y42604D01*
X760000Y40096D01*
X759250Y37298D01*
Y34402D01*
X760000Y31604D01*
X761108Y29684D01*
X751983Y20559D01*
X681767D01*
X667563Y34763D01*
X666571Y35426D01*
X665400Y35659D01*
X665400Y35659D01*
X571533D01*
X571319Y36460D01*
X570002Y38740D01*
X568140Y40602D01*
X565860Y41919D01*
X563316Y42600D01*
X560684D01*
X558695Y42067D01*
X557666Y42978D01*
X557640Y43036D01*
X558000Y44381D01*
Y46619D01*
X557421Y48781D01*
X556302Y50719D01*
X554719Y52302D01*
X552781Y53421D01*
X550619Y54000D01*
X548381D01*
X546219Y53421D01*
X544281Y52302D01*
X542698Y50719D01*
X541579Y48781D01*
X541000Y46619D01*
Y44381D01*
X541119Y43938D01*
X540131Y42717D01*
X533000D01*
X530659Y42252D01*
X528674Y40926D01*
X527348Y38941D01*
X526883Y36600D01*
Y35659D01*
X504167D01*
X493163Y46663D01*
X492170Y47326D01*
X491000Y47559D01*
X491000Y47559D01*
X466750D01*
X466750Y47559D01*
X465579Y47326D01*
X464587Y46663D01*
X464587Y46663D01*
X445983Y28059D01*
X395767D01*
X384157Y39669D01*
X383567Y40063D01*
Y60250D01*
X383301Y62273D01*
X382520Y64158D01*
X381277Y65777D01*
X379659Y67020D01*
X377773Y67800D01*
X375750Y68067D01*
X364250D01*
X362227Y67800D01*
X360342Y67020D01*
X358723Y65777D01*
X357480Y64158D01*
X356699Y62273D01*
X356433Y60250D01*
Y58554D01*
X355250Y58344D01*
X354413Y60366D01*
X352865Y61913D01*
X350844Y62750D01*
X348656D01*
X346634Y61913D01*
X345087Y60366D01*
X344250Y58344D01*
Y56156D01*
X345087Y54134D01*
X346634Y52587D01*
X348656Y51750D01*
X350844D01*
X352865Y52587D01*
X354413Y54134D01*
X355250Y56156D01*
X356433Y55946D01*
Y41559D01*
X157339D01*
X156302Y43354D01*
X154254Y45402D01*
X151746Y46850D01*
X148948Y47600D01*
X146052D01*
X143254Y46850D01*
X140746Y45402D01*
X138698Y43354D01*
X137250Y40846D01*
X136500Y38048D01*
Y35152D01*
X137250Y32354D01*
X138698Y29846D01*
X140746Y27798D01*
X143254Y26350D01*
X146052Y25600D01*
X148948D01*
X151746Y26350D01*
X154254Y27798D01*
X156302Y29846D01*
X157750Y32354D01*
X158500Y35152D01*
Y35441D01*
X357232D01*
X357480Y34842D01*
X358723Y33223D01*
X360342Y31980D01*
X362227Y31200D01*
X364250Y30933D01*
X375750D01*
X377773Y31200D01*
X379658Y31980D01*
X381277Y33223D01*
X381910Y33264D01*
X392337Y22837D01*
X392337Y22837D01*
X393330Y22174D01*
X394500Y21941D01*
X394500Y21941D01*
X447250D01*
X447250Y21941D01*
X448420Y22174D01*
X449413Y22837D01*
X468017Y41441D01*
X489733D01*
X500737Y30437D01*
X500737Y30437D01*
X501730Y29774D01*
X502900Y29541D01*
X502900Y29541D01*
X526883D01*
Y28600D01*
X527348Y26259D01*
X528674Y24274D01*
X530659Y22948D01*
X533000Y22483D01*
X541000D01*
X543341Y22948D01*
X545326Y24274D01*
X546652Y26259D01*
X547118Y28600D01*
Y29541D01*
X552467D01*
X552682Y28740D01*
X553998Y26460D01*
X555860Y24598D01*
X558140Y23282D01*
X560684Y22600D01*
X563316D01*
X565860Y23282D01*
X568140Y24598D01*
X570002Y26460D01*
X571319Y28740D01*
X571533Y29541D01*
X664133D01*
X678337Y15337D01*
X678337Y15337D01*
X679330Y14674D01*
X680500Y14441D01*
X753250D01*
X753250Y14441D01*
X754420Y14674D01*
X755413Y15337D01*
X765796Y25720D01*
X766004Y25600D01*
X768802Y24850D01*
X771698D01*
X774496Y25600D01*
X777004Y27048D01*
X779052Y29096D01*
X780500Y31604D01*
X780818Y32791D01*
X801591D01*
X801591Y32791D01*
X802762Y33024D01*
X803754Y33687D01*
X805175Y35108D01*
X805342Y34980D01*
X807227Y34200D01*
X809250Y33933D01*
X820750D01*
X822773Y34200D01*
X824658Y34980D01*
X826277Y36223D01*
X827520Y37842D01*
X828301Y39727D01*
X828567Y41750D01*
Y49441D01*
X831715D01*
X869819Y11337D01*
X870812Y10674D01*
X871982Y10441D01*
X1335500D01*
X1335500Y10441D01*
X1336671Y10674D01*
X1337663Y11337D01*
X1359625Y33299D01*
X1361302Y32850D01*
X1364198D01*
X1366996Y33600D01*
X1368060Y34214D01*
X1383087Y19187D01*
X1383087Y19187D01*
X1384079Y18524D01*
X1385250Y18291D01*
X1385250Y18291D01*
X1463350D01*
X1463350Y18291D01*
X1464521Y18524D01*
X1465145Y18941D01*
X1466500D01*
X1466500Y18941D01*
X1467670Y19174D01*
X1468663Y19837D01*
X1483377Y34551D01*
X1484227Y34200D01*
X1486250Y33933D01*
X1497750D01*
X1499773Y34200D01*
X1501658Y34980D01*
X1503277Y36223D01*
X1504520Y37842D01*
X1505300Y39727D01*
X1505567Y41750D01*
Y44691D01*
X1578983D01*
X1609837Y13837D01*
X1610829Y13174D01*
X1612000Y12941D01*
X1612000Y12941D01*
X2168250D01*
X2168250Y12941D01*
X2169420Y13174D01*
X2170413Y13837D01*
X2203318Y46743D01*
X2203750Y46657D01*
X2211250D01*
X2213103Y47026D01*
X2214675Y48075D01*
X2215724Y49647D01*
X2216032Y51191D01*
X2255169D01*
X2259516Y46845D01*
X2259516Y46844D01*
X2260508Y46181D01*
X2261679Y45949D01*
X2265821D01*
X2265821Y45949D01*
X2266991Y46181D01*
X2267984Y46844D01*
X2272330Y51191D01*
X2280968D01*
X2281275Y49647D01*
X2282325Y48075D01*
X2283897Y47026D01*
X2285750Y46657D01*
X2293250D01*
X2295103Y47026D01*
X2296674Y48075D01*
X2297724Y49647D01*
X2298031Y51191D01*
X2352968D01*
X2353275Y49647D01*
X2354325Y48075D01*
X2355897Y47026D01*
X2357750Y46657D01*
X2365250D01*
X2367103Y47026D01*
X2368674Y48075D01*
X2369724Y49647D01*
X2370093Y51500D01*
Y57000D01*
X2370007Y57431D01*
X2405163Y92587D01*
X2405163Y92587D01*
X2405826Y93580D01*
X2406059Y94750D01*
X2406059Y94750D01*
Y114250D01*
X2405826Y115421D01*
X2405163Y116413D01*
X2385913Y135663D01*
X2384921Y136326D01*
X2383750Y136559D01*
X2383750Y136559D01*
X2286444D01*
X2285273Y136326D01*
X2284281Y135663D01*
X2284052Y135434D01*
X2274948D01*
X2274719Y135663D01*
X2273727Y136326D01*
X2272556Y136559D01*
X2272556Y136559D01*
X2190517D01*
X2180559Y146517D01*
Y173309D01*
X2189327Y182077D01*
X2190500Y181591D01*
Y167712D01*
X2195941D01*
Y155152D01*
X2194761Y154363D01*
X2193960Y153164D01*
X2193679Y151750D01*
Y142500D01*
X2193960Y141086D01*
X2194761Y139886D01*
X2195961Y139085D01*
X2197375Y138804D01*
X2200625D01*
X2202039Y139085D01*
X2203238Y139886D01*
X2204040Y141086D01*
X2204321Y142500D01*
Y151750D01*
X2204040Y153164D01*
X2203238Y154363D01*
X2202059Y155152D01*
Y167712D01*
X2206000D01*
Y185212D01*
X2205448D01*
X2204962Y186386D01*
X2217517Y198941D01*
X2286569D01*
X2287095Y197671D01*
X2277803Y188378D01*
X2277139Y187386D01*
X2276907Y186215D01*
X2276166Y185212D01*
X2270500D01*
Y167712D01*
X2276441D01*
Y155152D01*
X2275261Y154363D01*
X2274460Y153164D01*
X2274179Y151750D01*
Y142500D01*
X2274460Y141086D01*
X2275261Y139886D01*
X2276461Y139085D01*
X2277875Y138804D01*
X2281125D01*
X2282539Y139085D01*
X2283738Y139886D01*
X2284540Y141086D01*
X2284821Y142500D01*
Y151750D01*
X2284540Y153164D01*
X2283738Y154363D01*
X2282559Y155152D01*
Y167712D01*
X2286000D01*
Y185212D01*
X2284948D01*
X2284462Y186386D01*
X2288804Y190729D01*
X2290074Y190203D01*
Y188696D01*
X2290912Y186675D01*
X2292459Y185128D01*
X2294480Y184290D01*
X2296669D01*
X2298690Y185128D01*
X2300237Y186675D01*
X2301075Y188696D01*
Y190884D01*
X2300628Y191961D01*
X2301477Y193231D01*
X2416971D01*
X2446115Y164087D01*
X2447108Y163424D01*
X2447587Y163329D01*
X2447462Y162059D01*
X2373267D01*
X2361000Y174326D01*
Y186500D01*
X2345500D01*
Y169000D01*
X2349941D01*
Y155152D01*
X2348761Y154363D01*
X2347960Y153164D01*
X2347679Y151750D01*
Y142500D01*
X2347960Y141086D01*
X2348761Y139886D01*
X2349960Y139085D01*
X2351375Y138804D01*
X2354625D01*
X2356039Y139085D01*
X2357238Y139886D01*
X2358040Y141086D01*
X2358321Y142500D01*
Y151750D01*
X2358040Y153164D01*
X2357238Y154363D01*
X2356059Y155152D01*
Y169000D01*
X2357674D01*
X2369837Y156837D01*
X2370829Y156174D01*
X2372000Y155941D01*
X2372000Y155941D01*
X2996281D01*
X2996884Y155337D01*
X2998906Y154500D01*
X3001094D01*
X3003116Y155337D01*
X3004662Y156884D01*
X3005500Y158906D01*
Y161094D01*
X3004662Y163116D01*
X3003116Y164663D01*
X3001094Y165500D01*
X2998906D01*
X2996884Y164663D01*
X2995337Y163116D01*
X2994900Y162059D01*
X2839817D01*
X2839691Y163329D01*
X2840171Y163424D01*
X2841163Y164087D01*
X2852517Y175441D01*
X2955531D01*
X2955634Y175337D01*
X2957656Y174500D01*
X2959844D01*
X2961866Y175337D01*
X2963412Y176884D01*
X2964250Y178906D01*
Y181094D01*
X2963412Y183116D01*
X2961866Y184663D01*
X2959844Y185500D01*
X2957656D01*
X2955634Y184663D01*
X2954087Y183116D01*
X2953442Y181559D01*
X2851250D01*
X2850080Y181326D01*
X2849087Y180663D01*
X2837733Y169309D01*
X2835930D01*
X2835405Y170579D01*
X2852767Y187941D01*
X2956133D01*
X2956167Y187908D01*
X2958188Y187070D01*
X2960376D01*
X2962398Y187908D01*
X2963945Y189455D01*
X2964782Y191476D01*
Y193664D01*
X2963945Y195686D01*
X2962398Y197233D01*
X2960376Y198070D01*
X2958188D01*
X2956167Y197233D01*
X2954620Y195686D01*
X2953946Y194059D01*
X2851500D01*
X2851500Y194059D01*
X2850330Y193826D01*
X2849337Y193163D01*
X2849337Y193163D01*
X2831233Y175059D01*
X2457267D01*
X2428163Y204163D01*
X2427171Y204826D01*
X2426000Y205059D01*
X2426000Y205059D01*
X2216250D01*
X2216250Y205059D01*
X2215079Y204826D01*
X2214087Y204163D01*
X2197128Y187204D01*
X2196465Y186211D01*
X2196266Y185212D01*
X2194121D01*
X2193635Y186386D01*
X2214191Y206941D01*
X2237734D01*
X2237734Y206941D01*
X2238905Y207174D01*
X2239897Y207837D01*
X2282145Y250085D01*
X2282808Y251077D01*
X2283041Y252248D01*
Y340018D01*
X2283041Y340018D01*
X2282808Y341188D01*
X2282145Y342181D01*
X2282145Y342181D01*
X2218653Y405672D01*
X2218653Y405673D01*
X2209667Y414659D01*
Y582091D01*
X2250767Y623191D01*
X2300233D01*
X2393087Y530337D01*
X2393087Y530337D01*
X2394079Y529674D01*
X2395250Y529441D01*
X2540146D01*
X2540568Y527868D01*
X2542148Y525132D01*
X2544382Y522898D01*
X2547118Y521318D01*
X2550170Y520500D01*
X2553330D01*
X2556382Y521318D01*
X2559118Y522898D01*
X2561353Y525132D01*
X2562932Y527868D01*
X2563593Y530333D01*
X2564908D01*
X2565568Y527868D01*
X2567148Y525132D01*
X2569382Y522898D01*
X2572118Y521318D01*
X2575170Y520500D01*
X2576971D01*
X2577497Y519230D01*
X2567106Y508838D01*
X2462214D01*
X2457808Y513244D01*
X2456319Y514239D01*
X2454563Y514588D01*
X2340800D01*
Y515916D01*
X2340119Y518460D01*
X2338802Y520740D01*
X2336940Y522602D01*
X2335388Y523498D01*
Y556502D01*
X2336940Y557398D01*
X2338802Y559260D01*
X2340119Y561540D01*
X2340800Y564084D01*
Y566716D01*
X2340119Y569260D01*
X2338802Y571540D01*
X2336940Y573402D01*
X2334660Y574719D01*
X2332117Y575400D01*
X2329483D01*
X2326940Y574719D01*
X2324660Y573402D01*
X2322798Y571540D01*
X2321481Y569260D01*
X2320800Y566716D01*
Y564084D01*
X2321481Y561540D01*
X2322798Y559260D01*
X2324660Y557398D01*
X2326212Y556502D01*
Y523498D01*
X2324660Y522602D01*
X2322798Y520740D01*
X2321481Y518460D01*
X2320800Y515916D01*
Y513284D01*
X2321481Y510740D01*
X2322798Y508460D01*
X2324660Y506598D01*
X2326940Y505281D01*
X2329483Y504600D01*
X2332117D01*
X2334660Y505281D01*
X2336097Y506111D01*
X2336621Y505761D01*
X2338377Y505412D01*
X2452663D01*
X2457069Y501006D01*
X2458557Y500011D01*
X2460313Y499662D01*
X2566764D01*
X2567250Y498489D01*
X2519923Y451162D01*
X2518750Y451648D01*
Y462000D01*
X2514963D01*
Y472500D01*
X2516500D01*
Y490000D01*
X2501000D01*
Y472500D01*
X2505787D01*
Y462000D01*
X2501250D01*
Y452989D01*
X2451006Y402744D01*
X2450011Y401256D01*
X2449662Y399500D01*
Y374821D01*
X2449625D01*
X2448211Y374540D01*
X2447012Y373739D01*
X2446210Y372539D01*
X2445929Y371125D01*
Y367875D01*
X2446210Y366461D01*
X2447012Y365261D01*
X2448211Y364460D01*
X2449625Y364179D01*
X2458875D01*
X2460289Y364460D01*
X2461488Y365261D01*
X2462290Y366461D01*
X2462571Y367875D01*
Y371125D01*
X2462290Y372539D01*
X2461488Y373739D01*
X2460289Y374540D01*
X2458875Y374821D01*
X2458838D01*
Y397599D01*
X2500077Y438838D01*
X2501250Y438352D01*
Y428000D01*
X2512261D01*
X2573106Y367156D01*
X2574594Y366161D01*
X2575038Y366073D01*
X2575456Y364695D01*
X2575006Y364244D01*
X2574011Y362756D01*
X2573662Y361000D01*
Y349500D01*
X2574011Y347744D01*
X2575006Y346256D01*
X2579506Y341756D01*
X2580994Y340761D01*
X2582750Y340412D01*
X2586072D01*
X2586384Y340203D01*
X2587750Y339931D01*
X2600250D01*
X2601616Y340203D01*
X2602392Y340722D01*
X2603592Y340224D01*
X2603662Y340159D01*
Y337401D01*
X2603149Y336888D01*
X2601928D01*
X2601616Y337097D01*
X2600250Y337369D01*
X2587750D01*
X2586384Y337097D01*
X2585227Y336323D01*
X2584453Y335166D01*
X2584182Y333800D01*
Y330800D01*
X2584453Y329434D01*
X2585227Y328277D01*
X2586384Y327503D01*
X2587750Y327231D01*
X2600250D01*
X2601616Y327503D01*
X2601928Y327712D01*
X2605050D01*
X2606806Y328061D01*
X2608294Y329056D01*
X2611494Y332256D01*
X2612489Y333744D01*
X2612506Y333830D01*
X2612950Y334935D01*
X2612950Y334935D01*
Y334934D01*
X2614000Y334831D01*
X2614000Y334730D01*
Y326989D01*
X2611200Y324188D01*
X2601928D01*
X2601616Y324397D01*
X2600250Y324669D01*
X2587750D01*
X2586384Y324397D01*
X2585227Y323623D01*
X2584453Y322466D01*
X2584182Y321100D01*
Y318100D01*
X2584453Y316734D01*
X2585227Y315577D01*
X2586384Y314803D01*
X2587750Y314531D01*
X2600250D01*
X2601616Y314803D01*
X2601928Y315012D01*
X2613100D01*
X2613268Y315045D01*
X2614250Y314240D01*
Y306500D01*
X2631250D01*
Y319500D01*
X2631250Y319500D01*
X2631500Y320500D01*
X2631500Y320500D01*
X2631500Y320666D01*
Y336000D01*
X2614302D01*
Y336000D01*
X2614296Y336001D01*
X2613151Y336194D01*
X2612838Y337322D01*
Y338739D01*
X2614000Y339000D01*
X2614108Y339000D01*
X2631500D01*
Y352222D01*
X2632913Y353634D01*
X2633750Y355656D01*
Y357844D01*
X2632913Y359865D01*
X2631365Y361413D01*
X2629344Y362250D01*
X2627156D01*
X2625135Y361413D01*
X2623587Y359865D01*
X2622750Y357844D01*
Y357739D01*
X2619511Y354500D01*
X2614000D01*
Y351919D01*
X2612730Y351794D01*
X2612489Y353006D01*
X2611494Y354494D01*
X2605544Y360444D01*
X2605544Y360444D01*
X2604056Y361439D01*
X2602796Y361689D01*
X2602773Y361723D01*
X2601616Y362497D01*
X2600250Y362769D01*
X2588303D01*
X2587777Y364039D01*
X2589070Y365331D01*
X2600250D01*
X2601616Y365603D01*
X2602773Y366377D01*
X2603547Y367534D01*
X2603818Y368900D01*
Y371900D01*
X2603547Y373266D01*
X2602773Y374423D01*
X2601616Y375197D01*
X2600250Y375469D01*
X2587750D01*
X2586384Y375197D01*
X2586072Y374988D01*
X2578250D01*
X2518750Y434489D01*
Y437011D01*
X2610101Y528363D01*
X2611096Y529851D01*
X2611445Y531607D01*
Y596779D01*
X2611096Y598535D01*
X2610371Y599621D01*
Y600401D01*
X2609533Y602422D01*
X2607986Y603970D01*
X2605965Y604807D01*
X2603777D01*
X2601755Y603970D01*
X2600208Y602422D01*
X2599371Y600401D01*
Y598213D01*
X2600208Y596191D01*
X2601755Y594644D01*
X2602269Y594431D01*
Y550168D01*
X2600999Y549711D01*
X2599094Y550500D01*
X2596906D01*
X2594885Y549663D01*
X2593337Y548116D01*
X2592903Y547068D01*
X2591405Y546770D01*
X2586971Y551204D01*
X2587932Y552868D01*
X2588750Y555920D01*
Y559080D01*
X2587932Y562132D01*
X2586353Y564868D01*
X2584118Y567102D01*
X2581382Y568682D01*
X2578917Y569343D01*
Y570657D01*
X2581382Y571318D01*
X2584118Y572898D01*
X2586353Y575132D01*
X2587932Y577868D01*
X2588750Y580920D01*
Y584080D01*
X2587932Y587132D01*
X2586353Y589868D01*
X2584118Y592102D01*
X2581382Y593682D01*
X2578917Y594343D01*
Y595657D01*
X2581382Y596318D01*
X2584118Y597898D01*
X2586353Y600132D01*
X2587932Y602868D01*
X2588750Y605920D01*
Y609080D01*
X2588327Y610658D01*
X2589225Y611557D01*
X2589436Y611500D01*
X2591674D01*
X2593836Y612079D01*
X2595774Y613198D01*
X2597357Y614781D01*
X2598476Y616719D01*
X2599055Y618881D01*
Y621119D01*
X2598476Y623281D01*
X2597357Y625219D01*
X2595934Y626642D01*
X2596160Y627912D01*
X2603350D01*
X2621506Y609756D01*
X2622994Y608761D01*
X2624750Y608412D01*
X2836000D01*
X2837756Y608761D01*
X2839244Y609756D01*
X2904244Y674756D01*
X2905239Y676244D01*
X2905588Y678000D01*
Y709235D01*
X2905699Y709400D01*
X2905948D01*
X2907283Y709758D01*
X2908181Y708860D01*
X2908000Y708185D01*
Y705815D01*
X2908613Y703526D01*
X2909798Y701474D01*
X2911474Y699798D01*
X2913526Y698613D01*
X2915815Y698000D01*
X2918185D01*
X2920474Y698613D01*
X2922526Y699798D01*
X2924142Y701414D01*
X2924415Y701396D01*
X2925412Y701030D01*
Y529650D01*
X2786849Y391088D01*
X2748000D01*
X2746244Y390739D01*
X2744756Y389744D01*
X2639349Y284338D01*
X2587250D01*
Y292000D01*
X2571750D01*
Y274500D01*
X2587250D01*
Y275162D01*
X2641250D01*
X2643006Y275511D01*
X2644494Y276506D01*
X2749901Y381912D01*
X2788750D01*
X2790506Y382261D01*
X2791994Y383256D01*
X2933244Y524506D01*
X2934239Y525994D01*
X2934588Y527750D01*
Y710636D01*
X2936254Y711598D01*
X2938302Y713646D01*
X2939750Y716154D01*
X2940500Y718952D01*
Y721848D01*
X2939750Y724646D01*
X2938302Y727154D01*
X2936254Y729202D01*
X2933746Y730650D01*
X2930948Y731400D01*
D02*
G37*
G36*
X2331094Y725500D02*
X2328906D01*
X2326884Y724663D01*
X2325337Y723115D01*
X2324500Y721094D01*
Y718906D01*
X2325337Y716885D01*
X2326884Y715337D01*
X2328906Y714500D01*
X2331094D01*
X2333116Y715337D01*
X2334663Y716885D01*
X2335500Y718906D01*
Y721094D01*
X2334663Y723115D01*
X2333116Y724663D01*
X2331094Y725500D01*
D02*
G37*
G36*
X2965500Y731400D02*
X2943500D01*
Y709400D01*
X2965500D01*
Y731400D01*
D02*
G37*
G36*
X2692685Y715250D02*
X2690315D01*
X2688026Y714637D01*
X2685974Y713452D01*
X2684298Y711776D01*
X2683113Y709724D01*
X2682500Y707435D01*
Y705065D01*
X2682681Y704390D01*
X2681783Y703492D01*
X2680448Y703850D01*
X2677552D01*
X2674754Y703100D01*
X2672246Y701652D01*
X2670198Y699604D01*
X2668750Y697096D01*
X2668000Y694298D01*
Y691402D01*
X2668750Y688604D01*
X2670198Y686096D01*
X2672246Y684048D01*
X2674754Y682600D01*
X2677552Y681850D01*
X2680448D01*
X2683246Y682600D01*
X2685754Y684048D01*
X2687802Y686096D01*
X2689250Y688604D01*
X2690000Y691402D01*
Y694298D01*
X2689503Y696153D01*
X2689957Y696767D01*
X2690524Y697250D01*
X2692476D01*
X2693043Y696767D01*
X2693497Y696153D01*
X2693000Y694298D01*
Y691402D01*
X2693750Y688604D01*
X2695198Y686096D01*
X2697246Y684048D01*
X2699754Y682600D01*
X2702552Y681850D01*
X2705448D01*
X2708246Y682600D01*
X2710754Y684048D01*
X2712802Y686096D01*
X2714250Y688604D01*
X2715000Y691402D01*
Y694298D01*
X2714250Y697096D01*
X2712802Y699604D01*
X2710754Y701652D01*
X2708246Y703100D01*
X2705448Y703850D01*
X2702552D01*
X2701217Y703492D01*
X2700319Y704390D01*
X2700500Y705065D01*
Y707435D01*
X2699886Y709724D01*
X2698702Y711776D01*
X2697026Y713452D01*
X2694974Y714637D01*
X2692685Y715250D01*
D02*
G37*
G36*
X2665000Y703850D02*
X2643000D01*
Y681850D01*
X2665000D01*
Y703850D01*
D02*
G37*
G36*
X2241950Y693363D02*
X2234450D01*
X2232207Y692916D01*
X2230305Y691646D01*
X2229034Y689743D01*
X2228587Y687500D01*
Y680000D01*
X2229034Y677757D01*
X2230305Y675854D01*
X2232207Y674584D01*
X2234450Y674137D01*
X2241950D01*
X2244194Y674584D01*
X2246095Y675854D01*
X2247366Y677757D01*
X2247813Y680000D01*
Y687500D01*
X2247366Y689743D01*
X2246095Y691646D01*
X2244194Y692916D01*
X2241950Y693363D01*
D02*
G37*
G36*
X2311094Y645500D02*
X2308906D01*
X2306884Y644663D01*
X2305337Y643115D01*
X2304500Y641094D01*
Y638906D01*
X2305337Y636884D01*
X2306884Y635337D01*
X2308906Y634500D01*
X2311094D01*
X2313116Y635337D01*
X2314663Y636884D01*
X2315500Y638906D01*
Y641094D01*
X2314663Y643115D01*
X2313116Y644663D01*
X2311094Y645500D01*
D02*
G37*
G36*
X2435751Y577000D02*
X2433249D01*
X2430833Y576353D01*
X2428667Y575102D01*
X2426898Y573333D01*
X2425647Y571167D01*
X2425000Y568751D01*
Y566249D01*
X2425647Y563833D01*
X2426898Y561667D01*
X2428667Y559898D01*
X2430833Y558647D01*
X2433249Y558000D01*
X2435751D01*
X2438167Y558647D01*
X2440333Y559898D01*
X2442102Y561667D01*
X2443353Y563833D01*
X2444000Y566249D01*
Y568751D01*
X2443353Y571167D01*
X2442102Y573333D01*
X2440333Y575102D01*
X2438167Y576353D01*
X2435751Y577000D01*
D02*
G37*
G36*
X2384951D02*
X2382449D01*
X2380033Y576353D01*
X2377867Y575102D01*
X2376098Y573333D01*
X2374847Y571167D01*
X2374200Y568751D01*
Y566249D01*
X2374847Y563833D01*
X2376098Y561667D01*
X2377867Y559898D01*
X2380033Y558647D01*
X2382449Y558000D01*
X2384951D01*
X2387367Y558647D01*
X2389533Y559898D01*
X2391302Y561667D01*
X2392553Y563833D01*
X2393200Y566249D01*
Y568751D01*
X2392553Y571167D01*
X2391302Y573333D01*
X2389533Y575102D01*
X2387367Y576353D01*
X2384951Y577000D01*
D02*
G37*
G36*
X2239200Y575400D02*
X2219200D01*
Y555400D01*
X2239200D01*
Y575400D01*
D02*
G37*
G36*
X2293750Y530093D02*
X2286250D01*
X2284397Y529724D01*
X2282825Y528675D01*
X2281776Y527103D01*
X2281642Y526432D01*
X2263029D01*
X2261273Y526083D01*
X2259785Y525089D01*
X2258558Y523862D01*
X2258460Y523918D01*
X2255916Y524600D01*
X2253284D01*
X2250740Y523918D01*
X2248460Y522602D01*
X2246598Y520740D01*
X2245282Y518460D01*
X2244600Y515916D01*
Y513284D01*
X2245282Y510740D01*
X2246598Y508460D01*
X2248460Y506598D01*
X2250740Y505281D01*
X2253284Y504600D01*
X2255916D01*
X2258460Y505281D01*
X2260740Y506598D01*
X2262602Y508460D01*
X2263918Y510740D01*
X2264600Y513284D01*
Y515916D01*
X2264538Y516148D01*
X2265449Y517256D01*
X2282204D01*
X2282825Y516325D01*
X2284397Y515276D01*
X2286250Y514907D01*
X2293750D01*
X2295603Y515276D01*
X2297175Y516325D01*
X2298224Y517897D01*
X2298593Y519750D01*
Y525250D01*
X2298224Y527103D01*
X2297175Y528675D01*
X2295603Y529724D01*
X2293750Y530093D01*
D02*
G37*
G36*
X2230517Y524600D02*
X2227883D01*
X2225340Y523918D01*
X2223060Y522602D01*
X2221198Y520740D01*
X2219881Y518460D01*
X2219200Y515916D01*
Y513284D01*
X2219881Y510740D01*
X2221198Y508460D01*
X2223060Y506598D01*
X2225340Y505281D01*
X2227883Y504600D01*
X2230517D01*
X2233060Y505281D01*
X2235340Y506598D01*
X2237202Y508460D01*
X2238519Y510740D01*
X2239200Y513284D01*
Y515916D01*
X2238519Y518460D01*
X2237202Y520740D01*
X2235340Y522602D01*
X2233060Y523918D01*
X2230517Y524600D01*
D02*
G37*
G36*
X3197844Y496750D02*
X3195656D01*
X3193635Y495913D01*
X3192087Y494366D01*
X3191250Y492344D01*
Y490156D01*
X3192087Y488134D01*
X3193635Y486587D01*
X3195656Y485750D01*
X3197844D01*
X3199865Y486587D01*
X3201413Y488134D01*
X3202250Y490156D01*
Y492344D01*
X3201413Y494366D01*
X3199865Y495913D01*
X3197844Y496750D01*
D02*
G37*
G36*
X2428098Y500500D02*
X2425202D01*
X2422404Y499750D01*
X2419896Y498302D01*
X2417848Y496254D01*
X2416400Y493746D01*
X2415650Y490948D01*
Y488052D01*
X2416400Y485254D01*
X2417848Y482746D01*
X2419896Y480698D01*
X2422404Y479250D01*
X2425202Y478500D01*
X2428098D01*
X2430896Y479250D01*
X2433404Y480698D01*
X2435452Y482746D01*
X2436900Y485254D01*
X2437650Y488052D01*
Y490948D01*
X2436900Y493746D01*
X2435452Y496254D01*
X2433404Y498302D01*
X2430896Y499750D01*
X2428098Y500500D01*
D02*
G37*
G36*
X2402698D02*
X2399802D01*
X2397004Y499750D01*
X2394496Y498302D01*
X2392448Y496254D01*
X2391000Y493746D01*
X2390250Y490948D01*
Y488052D01*
X2391000Y485254D01*
X2392448Y482746D01*
X2394496Y480698D01*
X2397004Y479250D01*
X2399802Y478500D01*
X2402698D01*
X2405496Y479250D01*
X2408004Y480698D01*
X2410052Y482746D01*
X2411500Y485254D01*
X2412250Y488052D01*
Y490948D01*
X2411500Y493746D01*
X2410052Y496254D01*
X2408004Y498302D01*
X2405496Y499750D01*
X2402698Y500500D01*
D02*
G37*
G36*
X2306716Y485400D02*
X2304084D01*
X2301540Y484719D01*
X2299260Y483402D01*
X2297398Y481540D01*
X2296082Y479260D01*
X2295400Y476716D01*
Y474865D01*
X2292623Y472088D01*
X2278227D01*
X2278224Y472103D01*
X2277175Y473675D01*
X2275603Y474724D01*
X2273750Y475093D01*
X2266250D01*
X2264397Y474724D01*
X2262825Y473675D01*
X2261776Y472103D01*
X2261407Y470250D01*
Y464750D01*
X2261776Y462897D01*
X2262825Y461325D01*
X2264397Y460276D01*
X2266250Y459907D01*
X2273750D01*
X2275603Y460276D01*
X2277175Y461325D01*
X2278224Y462897D01*
X2278227Y462912D01*
X2294523D01*
X2296279Y463261D01*
X2297768Y464256D01*
X2300306Y466794D01*
X2301540Y466082D01*
X2304084Y465400D01*
X2306716D01*
X2309260Y466082D01*
X2311540Y467398D01*
X2313402Y469260D01*
X2314718Y471540D01*
X2315400Y474084D01*
Y476716D01*
X2314718Y479260D01*
X2313402Y481540D01*
X2311540Y483402D01*
X2309260Y484719D01*
X2306716Y485400D01*
D02*
G37*
G36*
X3038344Y481000D02*
X3036156D01*
X3034135Y480163D01*
X3032587Y478615D01*
X3031750Y476594D01*
Y474406D01*
X3032587Y472384D01*
X3034135Y470837D01*
X3036156Y470000D01*
X3038344D01*
X3040366Y470837D01*
X3041913Y472384D01*
X3041936Y472441D01*
X3056750D01*
Y464000D01*
X3076750D01*
Y468191D01*
X3082575D01*
X3082575Y468191D01*
X3083746Y468424D01*
X3084738Y469087D01*
X3085049Y469398D01*
X3085406Y469250D01*
X3087594D01*
X3089615Y470087D01*
X3091163Y471634D01*
X3092000Y473656D01*
Y475844D01*
X3091163Y477865D01*
X3089615Y479413D01*
X3087594Y480250D01*
X3085406D01*
X3083384Y479413D01*
X3081837Y477865D01*
X3081000Y475844D01*
Y474309D01*
X3076750D01*
Y480000D01*
X3056750D01*
Y478559D01*
X3041936D01*
X3041913Y478615D01*
X3040366Y480163D01*
X3038344Y481000D01*
D02*
G37*
G36*
X2230517Y485400D02*
X2227883D01*
X2225340Y484719D01*
X2223060Y483402D01*
X2221198Y481540D01*
X2219881Y479260D01*
X2219200Y476716D01*
Y474084D01*
X2219881Y471540D01*
X2221198Y469260D01*
X2223060Y467398D01*
X2225340Y466082D01*
X2227883Y465400D01*
X2230517D01*
X2233060Y466082D01*
X2235340Y467398D01*
X2237202Y469260D01*
X2238519Y471540D01*
X2239200Y474084D01*
Y476716D01*
X2238519Y479260D01*
X2237202Y481540D01*
X2235340Y483402D01*
X2233060Y484719D01*
X2230517Y485400D01*
D02*
G37*
G36*
X3126344Y464000D02*
X3124156D01*
X3122134Y463163D01*
X3120587Y461615D01*
X3119750Y459594D01*
Y457406D01*
X3120587Y455384D01*
X3122134Y453837D01*
X3124156Y453000D01*
X3126344D01*
X3128365Y453837D01*
X3129913Y455384D01*
X3130750Y457406D01*
Y459594D01*
X3129913Y461615D01*
X3128365Y463163D01*
X3126344Y464000D01*
D02*
G37*
G36*
X3162519Y453500D02*
X3160331D01*
X3158309Y452663D01*
X3156762Y451115D01*
X3156342Y450102D01*
X3155302D01*
X3155302Y450102D01*
X3154131Y449869D01*
X3153139Y449206D01*
X3152658Y448725D01*
X3139560D01*
X3139455Y448829D01*
X3138463Y449492D01*
X3137292Y449725D01*
X3137292Y449725D01*
X3135482D01*
X3135455Y449790D01*
X3133908Y451338D01*
X3131887Y452175D01*
X3129698D01*
X3127677Y451338D01*
X3126130Y449790D01*
X3125292Y447769D01*
Y445581D01*
X3126130Y443559D01*
X3127677Y442012D01*
X3129698Y441175D01*
X3131887D01*
X3133908Y442012D01*
X3135011Y443115D01*
X3135879Y443416D01*
X3136649Y443157D01*
X3137122Y442840D01*
X3138293Y442607D01*
X3153925D01*
X3153925Y442607D01*
X3155095Y442840D01*
X3156088Y443503D01*
X3156569Y443984D01*
X3157662D01*
X3158309Y443337D01*
X3160331Y442500D01*
X3162519D01*
X3164540Y443337D01*
X3166087Y444884D01*
X3166925Y446906D01*
Y449094D01*
X3166087Y451115D01*
X3164540Y452663D01*
X3162519Y453500D01*
D02*
G37*
G36*
X3197962Y453093D02*
X3195774D01*
X3193753Y452255D01*
X3192206Y450708D01*
X3191368Y448687D01*
Y446499D01*
X3192206Y444477D01*
X3193753Y442930D01*
X3195774Y442093D01*
X3197962D01*
X3199984Y442930D01*
X3201531Y444477D01*
X3202368Y446499D01*
Y448687D01*
X3201531Y450708D01*
X3199984Y452255D01*
X3197962Y453093D01*
D02*
G37*
G36*
X3221909Y451733D02*
X3219721D01*
X3217699Y450896D01*
X3216152Y449348D01*
X3215315Y447327D01*
Y445139D01*
X3216152Y443117D01*
X3217699Y441570D01*
X3219721Y440733D01*
X3221909D01*
X3223930Y441570D01*
X3225478Y443117D01*
X3226315Y445139D01*
Y447327D01*
X3225478Y449348D01*
X3223930Y450896D01*
X3221909Y451733D01*
D02*
G37*
G36*
X2726000Y466838D02*
X2615500D01*
X2613744Y466489D01*
X2612256Y465494D01*
X2588582Y441821D01*
X2582125D01*
X2580710Y441540D01*
X2580222Y441213D01*
X2572750D01*
Y444500D01*
X2555250D01*
Y429000D01*
X2572750D01*
Y432037D01*
X2579848D01*
X2580710Y431460D01*
X2582125Y431179D01*
X2591375D01*
X2592789Y431460D01*
X2593989Y432262D01*
X2594790Y433461D01*
X2595071Y434875D01*
Y435332D01*
X2605756Y446017D01*
X2606929Y445531D01*
Y444375D01*
X2607210Y442961D01*
X2608011Y441762D01*
X2609211Y440960D01*
X2610625Y440679D01*
X2619875D01*
X2621289Y440960D01*
X2621965Y441412D01*
X2634099D01*
X2650491Y425020D01*
X2649965Y423750D01*
X2635500D01*
Y413489D01*
X2631256Y409244D01*
X2630261Y407756D01*
X2629912Y406000D01*
Y405940D01*
X2629837Y405866D01*
X2629000Y403844D01*
Y401656D01*
X2629837Y399635D01*
X2630952Y398520D01*
X2630426Y397250D01*
X2616500D01*
Y393088D01*
X2604150D01*
X2602394Y392739D01*
X2600905Y391744D01*
X2597330Y388169D01*
X2587750D01*
X2586384Y387897D01*
X2585227Y387123D01*
X2584453Y385966D01*
X2584182Y384600D01*
Y381600D01*
X2584453Y380234D01*
X2585227Y379077D01*
X2586384Y378303D01*
X2587750Y378031D01*
X2600250D01*
X2601616Y378303D01*
X2602773Y379077D01*
X2603547Y380234D01*
X2603818Y381600D01*
Y381680D01*
X2606050Y383912D01*
X2616500D01*
Y379750D01*
X2632000D01*
Y396458D01*
X2633242Y397318D01*
X2633406Y397250D01*
X2635000D01*
X2635000Y396185D01*
Y379750D01*
X2650500D01*
Y389761D01*
X2663494Y402756D01*
X2664489Y404244D01*
X2664838Y406000D01*
Y406250D01*
X2669500D01*
Y423750D01*
X2664738D01*
X2639244Y449244D01*
X2637756Y450239D01*
X2636000Y450588D01*
X2621965D01*
X2621289Y451040D01*
X2619875Y451321D01*
X2612719D01*
X2612233Y452494D01*
X2617401Y457662D01*
X2724099D01*
X2760750Y421011D01*
Y420906D01*
X2761587Y418885D01*
X2763134Y417337D01*
X2765156Y416500D01*
X2767344D01*
X2769366Y417337D01*
X2770912Y418885D01*
X2771750Y420906D01*
Y423094D01*
X2770912Y425116D01*
X2769366Y426663D01*
X2767344Y427500D01*
X2767238D01*
X2729244Y465494D01*
X2727756Y466489D01*
X2726000Y466838D01*
D02*
G37*
G36*
X2511750Y411000D02*
X2494250D01*
Y395500D01*
X2511750D01*
Y398000D01*
X2513094D01*
X2515116Y398837D01*
X2516663Y400384D01*
X2517500Y402406D01*
Y404594D01*
X2516663Y406615D01*
X2515116Y408163D01*
X2513094Y409000D01*
X2511750D01*
Y411000D01*
D02*
G37*
G36*
X2529731Y395542D02*
X2527543D01*
X2525522Y394705D01*
X2523975Y393158D01*
X2523138Y391136D01*
Y388948D01*
X2523975Y386927D01*
X2525522Y385380D01*
X2527543Y384542D01*
X2529731D01*
X2530181Y383369D01*
Y381600D01*
X2530453Y380234D01*
X2531227Y379077D01*
X2532384Y378303D01*
X2533750Y378031D01*
X2546250D01*
X2547616Y378303D01*
X2548773Y379077D01*
X2549547Y380234D01*
X2549819Y381600D01*
Y384600D01*
X2549547Y385966D01*
X2548773Y387123D01*
X2547616Y387897D01*
X2546250Y388169D01*
X2541420D01*
X2536302Y393287D01*
X2534814Y394281D01*
X2533058Y394630D01*
X2531827D01*
X2531753Y394705D01*
X2529731Y395542D01*
D02*
G37*
G36*
X2511750Y392500D02*
X2494250D01*
Y377166D01*
X2494250Y377000D01*
X2494250Y377000D01*
X2494500Y376000D01*
X2494500Y376000D01*
Y363000D01*
X2511500D01*
Y365362D01*
X2533597D01*
X2533750Y365331D01*
X2546250D01*
X2547616Y365603D01*
X2548773Y366377D01*
X2549547Y367534D01*
X2549819Y368900D01*
Y371900D01*
X2549547Y373266D01*
X2548773Y374423D01*
X2547616Y375197D01*
X2546250Y375469D01*
X2533750D01*
X2532384Y375197D01*
X2531398Y374538D01*
X2511500D01*
Y376000D01*
X2511500Y376000D01*
X2511750Y377000D01*
X2511750Y377000D01*
X2511750Y377166D01*
Y392500D01*
D02*
G37*
G36*
X2562094Y373500D02*
X2559906D01*
X2557885Y372663D01*
X2556337Y371115D01*
X2555500Y369094D01*
Y368989D01*
X2549006Y362494D01*
X2548578Y361854D01*
X2547616Y362497D01*
X2546250Y362769D01*
X2533750D01*
X2532384Y362497D01*
X2531227Y361723D01*
X2530453Y360566D01*
X2530181Y359200D01*
Y359120D01*
X2524006Y352944D01*
X2523011Y351456D01*
X2522662Y349700D01*
Y340300D01*
X2523011Y338544D01*
X2524006Y337056D01*
X2530181Y330880D01*
Y330800D01*
X2530453Y329434D01*
X2531227Y328277D01*
X2532384Y327503D01*
X2533750Y327231D01*
X2546250D01*
X2546642Y327309D01*
X2547912Y326290D01*
Y324929D01*
X2547671Y324688D01*
X2540500D01*
X2540401Y324669D01*
X2533750D01*
X2532384Y324397D01*
X2531227Y323623D01*
X2530453Y322466D01*
X2530181Y321100D01*
Y321020D01*
X2511499Y302338D01*
X2506250D01*
X2505807Y302250D01*
X2494250D01*
Y286750D01*
X2511750D01*
Y293162D01*
X2513400D01*
X2515156Y293511D01*
X2516644Y294506D01*
X2529008Y306870D01*
X2530181Y306383D01*
Y305400D01*
X2530453Y304034D01*
X2531227Y302877D01*
X2532384Y302103D01*
X2533750Y301831D01*
X2540662D01*
Y300000D01*
X2541011Y298244D01*
X2542006Y296756D01*
X2553250Y285511D01*
Y274500D01*
X2568750D01*
Y292000D01*
X2559739D01*
X2549838Y301901D01*
Y306400D01*
X2549819Y306498D01*
Y308400D01*
X2549547Y309766D01*
X2548773Y310923D01*
X2547616Y311697D01*
X2546250Y311969D01*
X2535766D01*
X2535280Y313142D01*
X2536670Y314531D01*
X2546250D01*
X2547616Y314803D01*
X2548676Y315512D01*
X2549571D01*
X2551327Y315861D01*
X2552815Y316856D01*
X2555744Y319785D01*
X2556739Y321273D01*
X2557088Y323029D01*
Y341571D01*
X2556739Y343327D01*
X2555744Y344815D01*
X2553690Y346870D01*
X2553680Y348656D01*
X2555494Y350470D01*
X2556489Y351959D01*
X2556838Y353715D01*
Y357350D01*
X2561989Y362500D01*
X2562094D01*
X2564116Y363337D01*
X2565663Y364884D01*
X2566500Y366906D01*
Y369094D01*
X2565663Y371115D01*
X2564116Y372663D01*
X2562094Y373500D01*
D02*
G37*
G36*
X2255916Y575400D02*
X2253284D01*
X2250740Y574719D01*
X2248460Y573402D01*
X2246598Y571540D01*
X2245282Y569260D01*
X2244600Y566716D01*
Y564084D01*
X2245282Y561540D01*
X2246598Y559260D01*
X2248460Y557398D01*
X2250740Y556082D01*
X2253284Y555400D01*
X2255916D01*
X2258460Y556082D01*
X2260740Y557398D01*
X2262004Y558662D01*
X2281407D01*
Y554750D01*
X2281776Y552897D01*
X2282825Y551325D01*
X2284397Y550276D01*
X2286250Y549907D01*
X2293750D01*
X2294848Y550126D01*
X2303162Y541812D01*
Y507712D01*
X2303511Y505957D01*
X2304506Y504468D01*
X2322218Y486756D01*
X2323707Y485761D01*
X2325462Y485412D01*
X2325601D01*
X2325941Y484142D01*
X2324660Y483402D01*
X2322798Y481540D01*
X2321481Y479260D01*
X2320800Y476716D01*
Y474084D01*
X2321481Y471540D01*
X2322798Y469260D01*
X2324660Y467398D01*
X2326940Y466082D01*
X2329483Y465400D01*
X2332117D01*
X2334660Y466082D01*
X2336940Y467398D01*
X2338802Y469260D01*
X2340119Y471540D01*
X2340800Y474084D01*
Y476716D01*
X2340119Y479260D01*
X2338802Y481540D01*
X2336940Y483402D01*
X2335659Y484142D01*
X2335999Y485412D01*
X2348100D01*
X2421162Y412350D01*
Y365321D01*
X2421125D01*
X2419711Y365040D01*
X2418512Y364239D01*
X2417710Y363039D01*
X2417429Y361625D01*
Y358375D01*
X2417710Y356961D01*
X2418512Y355761D01*
X2419711Y354960D01*
X2421125Y354679D01*
X2430375D01*
X2431789Y354960D01*
X2432988Y355761D01*
X2433790Y356961D01*
X2434071Y358375D01*
Y361625D01*
X2433790Y363039D01*
X2432988Y364239D01*
X2431789Y365040D01*
X2430375Y365321D01*
X2430338D01*
Y414250D01*
X2429989Y416006D01*
X2428994Y417494D01*
X2353244Y493244D01*
X2351756Y494239D01*
X2350000Y494588D01*
X2327363D01*
X2312338Y509613D01*
Y543713D01*
X2311989Y545468D01*
X2310994Y546957D01*
X2298593Y559358D01*
Y560250D01*
X2298224Y562103D01*
X2297175Y563675D01*
X2295603Y564724D01*
X2293750Y565093D01*
X2292858D01*
X2291457Y566494D01*
X2289968Y567489D01*
X2288212Y567838D01*
X2264299D01*
X2263918Y569260D01*
X2262602Y571540D01*
X2260740Y573402D01*
X2258460Y574719D01*
X2255916Y575400D01*
D02*
G37*
G36*
X3066344Y351500D02*
X3064156D01*
X3062134Y350663D01*
X3060587Y349115D01*
X3059750Y347094D01*
Y344906D01*
X3060587Y342884D01*
X3062134Y341337D01*
X3064156Y340500D01*
X3066344D01*
X3068365Y341337D01*
X3069913Y342884D01*
X3070750Y344906D01*
Y347094D01*
X3069913Y349115D01*
X3068365Y350663D01*
X3066344Y351500D01*
D02*
G37*
G36*
X2318594Y349000D02*
X2316406D01*
X2314384Y348163D01*
X2312837Y346615D01*
X2312000Y344594D01*
Y342406D01*
X2312837Y340384D01*
X2314384Y338837D01*
X2316406Y338000D01*
X2318594D01*
X2320616Y338837D01*
X2322163Y340384D01*
X2323000Y342406D01*
Y344594D01*
X2322163Y346615D01*
X2320616Y348163D01*
X2318594Y349000D01*
D02*
G37*
G36*
X2263856Y335874D02*
X2261668D01*
X2259646Y335037D01*
X2258833Y334224D01*
X2257388Y334188D01*
X2255734Y335293D01*
X2253783Y335681D01*
X2241783D01*
X2239832Y335293D01*
X2238178Y334188D01*
X2237073Y332534D01*
X2236685Y330583D01*
X2237073Y328633D01*
X2238178Y326979D01*
X2239832Y325874D01*
X2241783Y325486D01*
X2253783D01*
X2255734Y325874D01*
X2256987Y326711D01*
X2257483Y326955D01*
X2258700Y326657D01*
X2259646Y325712D01*
X2261668Y324874D01*
X2263856D01*
X2265877Y325712D01*
X2267424Y327259D01*
X2268262Y329280D01*
Y331468D01*
X2267424Y333490D01*
X2265877Y335037D01*
X2263856Y335874D01*
D02*
G37*
G36*
X2957594Y339500D02*
X2955406D01*
X2953384Y338663D01*
X2951837Y337116D01*
X2951000Y335094D01*
Y333271D01*
X2845834D01*
X2845833Y333271D01*
X2844663Y333038D01*
X2843671Y332375D01*
X2776586Y265291D01*
X2775088Y265589D01*
X2774662Y266616D01*
X2773116Y268163D01*
X2771094Y269000D01*
X2768906D01*
X2766884Y268163D01*
X2765337Y266616D01*
X2764500Y264594D01*
Y262406D01*
X2765337Y260385D01*
X2765412Y260310D01*
Y246600D01*
X2746606Y227794D01*
X2745611Y226306D01*
X2745262Y224550D01*
Y208428D01*
X2745053Y208116D01*
X2744781Y206750D01*
Y195250D01*
X2745053Y193884D01*
X2745827Y192727D01*
X2746984Y191953D01*
X2748350Y191681D01*
X2750060D01*
X2750586Y190411D01*
X2747983Y187809D01*
X2702825D01*
X2695759Y194875D01*
Y208264D01*
X2695526Y209435D01*
X2694863Y210427D01*
X2694863Y210427D01*
X2691877Y213413D01*
X2690884Y214076D01*
X2689714Y214309D01*
X2689714Y214309D01*
X2679650D01*
X2679650Y214309D01*
X2678480Y214076D01*
X2677487Y213413D01*
X2677487Y213413D01*
X2674393Y210319D01*
X2672150D01*
X2670784Y210047D01*
X2669627Y209273D01*
X2669316Y208809D01*
X2668082D01*
X2659478Y217413D01*
X2658485Y218076D01*
X2657315Y218309D01*
X2657314Y218309D01*
X2654250D01*
Y224000D01*
X2638750D01*
Y206500D01*
X2654250D01*
Y212191D01*
X2656048D01*
X2664652Y203587D01*
X2665644Y202924D01*
X2666815Y202691D01*
X2668582D01*
Y195250D01*
X2668765Y194329D01*
X2667993Y193059D01*
X2654500D01*
Y198750D01*
X2639000D01*
Y181250D01*
X2654500D01*
Y186941D01*
X2679600D01*
X2679600Y186941D01*
X2680771Y187174D01*
X2681763Y187837D01*
X2684567Y190642D01*
X2685446Y190555D01*
X2686023Y190302D01*
X2697738Y178587D01*
X2697738Y178587D01*
X2698730Y177924D01*
X2699901Y177691D01*
X2755000D01*
X2755000Y177691D01*
X2756170Y177924D01*
X2757163Y178587D01*
X2781663Y203087D01*
X2781663Y203087D01*
X2782326Y204079D01*
X2782559Y205250D01*
Y248367D01*
X2847008Y312816D01*
X2956759D01*
X2958030Y312289D01*
X2960218D01*
X2962240Y313127D01*
X2963787Y314674D01*
X2964624Y316695D01*
Y318883D01*
X2963787Y320905D01*
X2962240Y322452D01*
X2960218Y323289D01*
X2958030D01*
X2956009Y322452D01*
X2954461Y320905D01*
X2953645Y318933D01*
X2845741D01*
X2844570Y318701D01*
X2843578Y318037D01*
X2843578Y318037D01*
X2779732Y254192D01*
X2778559Y254678D01*
Y258612D01*
X2847101Y327154D01*
X2952712D01*
X2952712Y327154D01*
X2953883Y327386D01*
X2954875Y328050D01*
X2955349Y328523D01*
X2955406Y328500D01*
X2957594D01*
X2959615Y329337D01*
X2961163Y330885D01*
X2962000Y332906D01*
Y335094D01*
X2961163Y337116D01*
X2959615Y338663D01*
X2957594Y339500D01*
D02*
G37*
G36*
X2253783Y322981D02*
X2241783D01*
X2239832Y322593D01*
X2238178Y321488D01*
X2237073Y319834D01*
X2236685Y317883D01*
X2237073Y315933D01*
X2238178Y314279D01*
X2239832Y313174D01*
X2241783Y312786D01*
X2253783D01*
X2255734Y313174D01*
X2257388Y314279D01*
X2257753Y314825D01*
X2264106D01*
X2264599Y313634D01*
X2266146Y312087D01*
X2268168Y311250D01*
X2270356D01*
X2272377Y312087D01*
X2273925Y313634D01*
X2274762Y315656D01*
Y317844D01*
X2273925Y319865D01*
X2272377Y321413D01*
X2270356Y322250D01*
X2268168D01*
X2266146Y321413D01*
X2265676Y320942D01*
X2257753D01*
X2257388Y321488D01*
X2255734Y322593D01*
X2253783Y322981D01*
D02*
G37*
G36*
X3296844Y313250D02*
X3294656D01*
X3292635Y312413D01*
X3291087Y310865D01*
X3290250Y308844D01*
Y306656D01*
X3291087Y304634D01*
X3292635Y303087D01*
X3294656Y302250D01*
X3296844D01*
X3298865Y303087D01*
X3300413Y304634D01*
X3301250Y306656D01*
Y308844D01*
X3300413Y310865D01*
X3298865Y312413D01*
X3296844Y313250D01*
D02*
G37*
G36*
X2253783Y310282D02*
X2241783D01*
X2239832Y309893D01*
X2238178Y308788D01*
X2237073Y307134D01*
X2236685Y305184D01*
X2237073Y303233D01*
X2238178Y301579D01*
X2239832Y300474D01*
X2241783Y300086D01*
X2244724D01*
Y292217D01*
X2244724Y292217D01*
X2244957Y291047D01*
X2245620Y290054D01*
X2248116Y287558D01*
X2248116Y287558D01*
X2248517Y287290D01*
X2249099Y285884D01*
X2250646Y284337D01*
X2252668Y283500D01*
X2254856D01*
X2256877Y284337D01*
X2258425Y285884D01*
X2259262Y287906D01*
Y290094D01*
X2258425Y292115D01*
X2256877Y293663D01*
X2254856Y294500D01*
X2252668D01*
X2251898Y294181D01*
X2250842Y294887D01*
Y300086D01*
X2253783D01*
X2255734Y300474D01*
X2257388Y301579D01*
X2258493Y303233D01*
X2258881Y305184D01*
X2258493Y307134D01*
X2257388Y308788D01*
X2255734Y309893D01*
X2253783Y310282D01*
D02*
G37*
G36*
X2755750Y292500D02*
X2740250D01*
Y275000D01*
X2755750D01*
Y277768D01*
X2757020Y278617D01*
X2757906Y278250D01*
X2760094D01*
X2762115Y279087D01*
X2763663Y280634D01*
X2764500Y282656D01*
Y284844D01*
X2763663Y286866D01*
X2762115Y288413D01*
X2760094Y289250D01*
X2757906D01*
X2757020Y288883D01*
X2755750Y289732D01*
Y292500D01*
D02*
G37*
G36*
X3326844Y277000D02*
X3324656D01*
X3322635Y276163D01*
X3321087Y274615D01*
X3320250Y272594D01*
Y270406D01*
X3321087Y268384D01*
X3322635Y266837D01*
X3324656Y266000D01*
X3326844D01*
X3328865Y266837D01*
X3330413Y268384D01*
X3331250Y270406D01*
Y272594D01*
X3330413Y274615D01*
X3328865Y276163D01*
X3326844Y277000D01*
D02*
G37*
G36*
X2511750Y283750D02*
X2494250D01*
Y268250D01*
X2494250D01*
Y267000D01*
X2494250D01*
Y262559D01*
X2472277D01*
X2471488Y263738D01*
X2470289Y264540D01*
X2468875Y264821D01*
X2459625D01*
X2458211Y264540D01*
X2457012Y263738D01*
X2456210Y262539D01*
X2455929Y261125D01*
Y257875D01*
X2456210Y256461D01*
X2457012Y255261D01*
X2458211Y254460D01*
X2459625Y254179D01*
X2468875D01*
X2470289Y254460D01*
X2471488Y255261D01*
X2472277Y256441D01*
X2494250D01*
Y251500D01*
X2511750D01*
Y267000D01*
X2511750D01*
Y268250D01*
X2511750D01*
Y283750D01*
D02*
G37*
G36*
X2230517Y434600D02*
X2227883D01*
X2225340Y433918D01*
X2223060Y432602D01*
X2221198Y430740D01*
X2219881Y428460D01*
X2219200Y425916D01*
Y423284D01*
X2219881Y420740D01*
X2221198Y418460D01*
X2223060Y416598D01*
X2225340Y415281D01*
X2227883Y414600D01*
X2230517D01*
X2232247Y415064D01*
X2240556Y406756D01*
X2242044Y405761D01*
X2243800Y405412D01*
X2278100D01*
X2283417Y400094D01*
X2283417Y400094D01*
X2392662Y290849D01*
Y253750D01*
X2393011Y251994D01*
X2394006Y250506D01*
X2426756Y217756D01*
X2428244Y216761D01*
X2430000Y216412D01*
X2539000D01*
X2540756Y216761D01*
X2542244Y217756D01*
X2543239Y219244D01*
X2543302Y219564D01*
X2581776Y258037D01*
X2640375D01*
X2642131Y258386D01*
X2643619Y259381D01*
X2655901Y271662D01*
X2656750D01*
X2658506Y272011D01*
X2659994Y273006D01*
X2674401Y287412D01*
X2699850D01*
X2702088Y285173D01*
X2701602Y284000D01*
X2691500D01*
Y280294D01*
X2690548D01*
X2688526Y279457D01*
X2686979Y277910D01*
X2686142Y275889D01*
Y273701D01*
X2686979Y271679D01*
X2688526Y270132D01*
X2690548Y269294D01*
X2691500D01*
Y267000D01*
X2691500D01*
X2692061Y266160D01*
X2692050Y266132D01*
Y263944D01*
X2692887Y261923D01*
X2693962Y260848D01*
Y260250D01*
X2693982Y260152D01*
Y253854D01*
X2692808Y253368D01*
X2691418Y254757D01*
Y261250D01*
X2691147Y262616D01*
X2690374Y263773D01*
X2689216Y264547D01*
X2687850Y264819D01*
X2684850D01*
X2683484Y264547D01*
X2682327Y263773D01*
X2681553Y262616D01*
X2681281Y261250D01*
Y250507D01*
X2679887Y249112D01*
X2678716Y249738D01*
X2678719Y249750D01*
Y261250D01*
X2678447Y262616D01*
X2677673Y263773D01*
X2676516Y264547D01*
X2675150Y264819D01*
X2672150D01*
X2670784Y264547D01*
X2669627Y263773D01*
X2668853Y262616D01*
X2668582Y261250D01*
Y249750D01*
X2668853Y248384D01*
X2669627Y247227D01*
X2670784Y246453D01*
X2672150Y246181D01*
X2675150D01*
X2675162Y246184D01*
X2675788Y245013D01*
X2671614Y240840D01*
X2653941D01*
Y246531D01*
X2638441D01*
Y229031D01*
X2653941D01*
Y234722D01*
X2672881D01*
X2672881Y234722D01*
X2674052Y234955D01*
X2675044Y235618D01*
X2685607Y246181D01*
X2687850D01*
X2688721Y246355D01*
X2689991Y245560D01*
Y237088D01*
X2689991Y237088D01*
X2690224Y235918D01*
X2690887Y234925D01*
X2699441Y226371D01*
Y219936D01*
X2699384Y219913D01*
X2697838Y218365D01*
X2697000Y216344D01*
Y214156D01*
X2697838Y212134D01*
X2699384Y210587D01*
X2701406Y209750D01*
X2703594D01*
X2705616Y210587D01*
X2705988Y210960D01*
X2707162Y210474D01*
Y208428D01*
X2706953Y208116D01*
X2706682Y206750D01*
Y195250D01*
X2706953Y193884D01*
X2707727Y192727D01*
X2708884Y191953D01*
X2710250Y191681D01*
X2713250D01*
X2714616Y191953D01*
X2715773Y192727D01*
X2716547Y193884D01*
X2716819Y195250D01*
Y206750D01*
X2716547Y208116D01*
X2716338Y208428D01*
Y235636D01*
X2716492Y235866D01*
X2716725Y237036D01*
X2724450Y244761D01*
X2732562Y236649D01*
Y208428D01*
X2732353Y208116D01*
X2732082Y206750D01*
Y195250D01*
X2732353Y193884D01*
X2733127Y192727D01*
X2734284Y191953D01*
X2735650Y191681D01*
X2738650D01*
X2740016Y191953D01*
X2741173Y192727D01*
X2741947Y193884D01*
X2742219Y195250D01*
Y206750D01*
X2741947Y208116D01*
X2741738Y208428D01*
Y238550D01*
X2741389Y240306D01*
X2740394Y241794D01*
X2737180Y245008D01*
X2737667Y246181D01*
X2738650D01*
X2740016Y246453D01*
X2741173Y247227D01*
X2741947Y248384D01*
X2742219Y249750D01*
Y261250D01*
X2741947Y262616D01*
X2741173Y263773D01*
X2740016Y264547D01*
X2738650Y264819D01*
X2735650D01*
X2734284Y264547D01*
X2733029Y265236D01*
Y275000D01*
X2737250D01*
Y292500D01*
X2733029D01*
Y300250D01*
X2736750D01*
Y317750D01*
X2721250D01*
Y300250D01*
X2723853D01*
Y292500D01*
X2721750D01*
Y275000D01*
X2723853D01*
Y265641D01*
X2723030Y264819D01*
X2722950D01*
X2721584Y264547D01*
X2720427Y263773D01*
X2719653Y262616D01*
X2719381Y261250D01*
Y252670D01*
X2717992Y251280D01*
X2716819Y251767D01*
Y261250D01*
X2716547Y262616D01*
X2716338Y262928D01*
Y282000D01*
X2715989Y283756D01*
X2714994Y285244D01*
X2704994Y295244D01*
X2703506Y296239D01*
X2701750Y296588D01*
X2672500D01*
X2670744Y296239D01*
X2669256Y295244D01*
X2654850Y280838D01*
X2654000D01*
X2652244Y280489D01*
X2650756Y279494D01*
X2638474Y267213D01*
X2579875D01*
X2578119Y266864D01*
X2576631Y265869D01*
X2536349Y225588D01*
X2431900D01*
X2401838Y255651D01*
Y292750D01*
X2401489Y294506D01*
X2400494Y295994D01*
X2289906Y406583D01*
X2289906Y406583D01*
X2283244Y413244D01*
X2281756Y414239D01*
X2280000Y414588D01*
X2245701D01*
X2238736Y421553D01*
X2239200Y423284D01*
Y425916D01*
X2238519Y428460D01*
X2237202Y430740D01*
X2235340Y432602D01*
X2233060Y433918D01*
X2230517Y434600D01*
D02*
G37*
G36*
X2751350Y264819D02*
X2748350D01*
X2746984Y264547D01*
X2745827Y263773D01*
X2745053Y262616D01*
X2744781Y261250D01*
Y249750D01*
X2745053Y248384D01*
X2745827Y247227D01*
X2746984Y246453D01*
X2748350Y246181D01*
X2751350D01*
X2752716Y246453D01*
X2753873Y247227D01*
X2754647Y248384D01*
X2754919Y249750D01*
Y261250D01*
X2754647Y262616D01*
X2753873Y263773D01*
X2752716Y264547D01*
X2751350Y264819D01*
D02*
G37*
G36*
X2273750Y440093D02*
X2266250D01*
X2264397Y439724D01*
X2262825Y438675D01*
X2261776Y437103D01*
X2261407Y435250D01*
Y429750D01*
X2261776Y427897D01*
X2262825Y426325D01*
X2264397Y425276D01*
X2266250Y424907D01*
X2273750D01*
X2275603Y425276D01*
X2275807Y425412D01*
X2278100D01*
X2283006Y420506D01*
X2284494Y419511D01*
X2286250Y419162D01*
X2296993D01*
X2297398Y418460D01*
X2299260Y416598D01*
X2301540Y415281D01*
X2304084Y414600D01*
X2306716D01*
X2308448Y415064D01*
X2431162Y292349D01*
Y255321D01*
X2431125D01*
X2429711Y255040D01*
X2428512Y254238D01*
X2427710Y253039D01*
X2427429Y251625D01*
Y248375D01*
X2427710Y246961D01*
X2428512Y245762D01*
X2429711Y244960D01*
X2431125Y244679D01*
X2440375D01*
X2441789Y244960D01*
X2442988Y245762D01*
X2443790Y246961D01*
X2444071Y248375D01*
Y251625D01*
X2443790Y253039D01*
X2442988Y254238D01*
X2441789Y255040D01*
X2440375Y255321D01*
X2440338D01*
Y294250D01*
X2439989Y296006D01*
X2438994Y297494D01*
X2323062Y413427D01*
X2323548Y414600D01*
X2340800D01*
Y434600D01*
X2320800D01*
Y417348D01*
X2319627Y416862D01*
X2314936Y421553D01*
X2315400Y423284D01*
Y425916D01*
X2314718Y428460D01*
X2313402Y430740D01*
X2311540Y432602D01*
X2309260Y433918D01*
X2306716Y434600D01*
X2304084D01*
X2301540Y433918D01*
X2299260Y432602D01*
X2297398Y430740D01*
X2296082Y428460D01*
X2296049Y428338D01*
X2288150D01*
X2283244Y433244D01*
X2281756Y434239D01*
X2280000Y434588D01*
X2278593D01*
Y435250D01*
X2278224Y437103D01*
X2277175Y438675D01*
X2275603Y439724D01*
X2273750Y440093D01*
D02*
G37*
G36*
X2725125Y228947D02*
X2722936D01*
X2720915Y228110D01*
X2719368Y226563D01*
X2718531Y224541D01*
Y222353D01*
X2719368Y220332D01*
X2719862Y219838D01*
Y208428D01*
X2719653Y208116D01*
X2719381Y206750D01*
Y195250D01*
X2719653Y193884D01*
X2720427Y192727D01*
X2721584Y191953D01*
X2722950Y191681D01*
X2725950D01*
X2727316Y191953D01*
X2728474Y192727D01*
X2729247Y193884D01*
X2729519Y195250D01*
Y206750D01*
X2729247Y208116D01*
X2729038Y208428D01*
Y221165D01*
X2729531Y222353D01*
Y224541D01*
X2728693Y226563D01*
X2727146Y228110D01*
X2725125Y228947D01*
D02*
G37*
G36*
X2225623Y193824D02*
X2223436D01*
X2221414Y192987D01*
X2219867Y191440D01*
X2219030Y189418D01*
Y187230D01*
X2219867Y185209D01*
X2221414Y183662D01*
X2223436Y182824D01*
X2225623D01*
X2227645Y183662D01*
X2229192Y185209D01*
X2230029Y187230D01*
Y189418D01*
X2229192Y191440D01*
X2227645Y192987D01*
X2225623Y193824D01*
D02*
G37*
G36*
X2635441Y246531D02*
X2619941D01*
Y229031D01*
X2622533D01*
X2623192Y227761D01*
X2623063Y227450D01*
Y225262D01*
X2623148Y225056D01*
X2622443Y224000D01*
X2620250D01*
Y206500D01*
X2622404D01*
X2622649Y206260D01*
X2623148Y205230D01*
X2622470Y203594D01*
Y201406D01*
X2623044Y200020D01*
X2622283Y198750D01*
X2620500D01*
Y181250D01*
X2636000D01*
Y198750D01*
X2633368D01*
X2632896Y200020D01*
X2633470Y201406D01*
Y203594D01*
X2632793Y205230D01*
X2633292Y206260D01*
X2633537Y206500D01*
X2635750D01*
Y224000D01*
X2634683D01*
X2633977Y225056D01*
X2634063Y225262D01*
Y227450D01*
X2633846Y227975D01*
X2634551Y229031D01*
X2635441D01*
Y246531D01*
D02*
G37*
G36*
X2472844Y190250D02*
X2470656D01*
X2468634Y189413D01*
X2467087Y187866D01*
X2466250Y185844D01*
Y183656D01*
X2467087Y181635D01*
X2468634Y180087D01*
X2470656Y179250D01*
X2472844D01*
X2474866Y180087D01*
X2476413Y181635D01*
X2477250Y183656D01*
Y185844D01*
X2476413Y187866D01*
X2474866Y189413D01*
X2472844Y190250D01*
D02*
G37*
G36*
X2384451Y187857D02*
X2382263D01*
X2380242Y187020D01*
X2378695Y185473D01*
X2377857Y183451D01*
Y181263D01*
X2378695Y179242D01*
X2380242Y177695D01*
X2382263Y176857D01*
X2384451D01*
X2386473Y177695D01*
X2388020Y179242D01*
X2388857Y181263D01*
Y183451D01*
X2388020Y185473D01*
X2386473Y187020D01*
X2384451Y187857D01*
D02*
G37*
G36*
X2954259Y220947D02*
X2952071D01*
X2950049Y220110D01*
X2948502Y218563D01*
X2947665Y216541D01*
Y214353D01*
X2948502Y212332D01*
X2950049Y210784D01*
X2952071Y209947D01*
X2954259D01*
X2956280Y210784D01*
X2956355Y210859D01*
X3007402D01*
X3052912Y165350D01*
Y93690D01*
X3052838Y93616D01*
X3052000Y91594D01*
Y89809D01*
X3047250D01*
Y94500D01*
X3033735D01*
X3033249Y95673D01*
X3034913Y97337D01*
X3035022Y97500D01*
X3047250D01*
Y113000D01*
X3041559D01*
Y122250D01*
X3047250D01*
Y137750D01*
X3029750D01*
Y122250D01*
X3035441D01*
Y113000D01*
X3029750D01*
Y100826D01*
X3019283Y90359D01*
X3012750D01*
X3012725Y90354D01*
X3001650D01*
X3000577Y90140D01*
X2999667Y89533D01*
X2999059Y88623D01*
X2999007Y88359D01*
X2991550D01*
X2990380Y88126D01*
X2989387Y87463D01*
X2983337Y81413D01*
X2982674Y80421D01*
X2982441Y79250D01*
X2982441Y79250D01*
Y61267D01*
X2972582Y51408D01*
X2972332Y51433D01*
X2971423Y52040D01*
X2970350Y52254D01*
X2952150D01*
X2951077Y52040D01*
X2950168Y51433D01*
X2949560Y50523D01*
X2949346Y49450D01*
Y44950D01*
X2949560Y43877D01*
X2950168Y42967D01*
X2951077Y42360D01*
X2952150Y42146D01*
X2970350D01*
X2971423Y42360D01*
X2972332Y42967D01*
X2972940Y43877D01*
X2973043Y44392D01*
X2974099Y44602D01*
X2975091Y45266D01*
X2987663Y57837D01*
X2988326Y58829D01*
X2988559Y60000D01*
Y77983D01*
X2992817Y82241D01*
X2999007D01*
X2999059Y81977D01*
X2999667Y81067D01*
X3000577Y80460D01*
X3001650Y80246D01*
X3019850D01*
X3020923Y80460D01*
X3021833Y81067D01*
X3022440Y81977D01*
X3022654Y83050D01*
Y85098D01*
X3022713Y85137D01*
X3028577Y91001D01*
X3029750Y90515D01*
Y79000D01*
X3047250D01*
Y83691D01*
X3053750D01*
X3053750Y83691D01*
X3054921Y83924D01*
X3055913Y84587D01*
X3056349Y85023D01*
X3056406Y85000D01*
X3058594D01*
X3060616Y85837D01*
X3062163Y87385D01*
X3063000Y89406D01*
Y91594D01*
X3062163Y93616D01*
X3062088Y93690D01*
Y167250D01*
X3061739Y169006D01*
X3060744Y170494D01*
X3012547Y218692D01*
X3011059Y219686D01*
X3009303Y220035D01*
X2956355D01*
X2956280Y220110D01*
X2954259Y220947D01*
D02*
G37*
G36*
X2970350Y77654D02*
X2952150D01*
X2951077Y77440D01*
X2950168Y76833D01*
X2949560Y75923D01*
X2949507Y75659D01*
X2930350D01*
X2929179Y75426D01*
X2928187Y74763D01*
X2928187Y74763D01*
X2923337Y69913D01*
X2922674Y68920D01*
X2922441Y67750D01*
X2922441Y67750D01*
Y65186D01*
X2922385Y65163D01*
X2920837Y63615D01*
X2920000Y61594D01*
Y59406D01*
X2920837Y57385D01*
X2922385Y55837D01*
X2924406Y55000D01*
X2926594D01*
X2928615Y55837D01*
X2930000Y57222D01*
X2931385Y55837D01*
X2933406Y55000D01*
X2935594D01*
X2937615Y55837D01*
X2939163Y57385D01*
X2939186Y57441D01*
X2949388D01*
X2949560Y56577D01*
X2950168Y55667D01*
X2951077Y55060D01*
X2952150Y54846D01*
X2970350D01*
X2971423Y55060D01*
X2972332Y55667D01*
X2972940Y56577D01*
X2973154Y57650D01*
Y62150D01*
X2972940Y63223D01*
X2972332Y64133D01*
X2971423Y64740D01*
X2970350Y64954D01*
X2952150D01*
X2951077Y64740D01*
X2950168Y64133D01*
X2949784Y63559D01*
X2939186D01*
X2939163Y63615D01*
X2937615Y65163D01*
X2935594Y66000D01*
X2933406D01*
X2931385Y65163D01*
X2930000Y63778D01*
X2928615Y65163D01*
X2928559Y65186D01*
Y66483D01*
X2931617Y69541D01*
X2949507D01*
X2949560Y69277D01*
X2950168Y68367D01*
X2951077Y67760D01*
X2952150Y67546D01*
X2970350D01*
X2971423Y67760D01*
X2972332Y68367D01*
X2972940Y69277D01*
X2973154Y70350D01*
Y74850D01*
X2972940Y75923D01*
X2972332Y76833D01*
X2971423Y77440D01*
X2970350Y77654D01*
D02*
G37*
G36*
X3028026Y65580D02*
X3025838D01*
X3023816Y64742D01*
X3023083Y64009D01*
X3021833Y64133D01*
X3020923Y64740D01*
X3019850Y64954D01*
X3001650D01*
X3000577Y64740D01*
X2999667Y64133D01*
X2999059Y63223D01*
X2998846Y62150D01*
Y57650D01*
X2999059Y56577D01*
X2999667Y55667D01*
X3000577Y55060D01*
X3001650Y54846D01*
X3019850D01*
X3020923Y55060D01*
X3021833Y55667D01*
X3023443Y55791D01*
X3023816Y55417D01*
X3025838Y54580D01*
X3028026D01*
X3030047Y55417D01*
X3031595Y56964D01*
X3032432Y58986D01*
Y61174D01*
X3031595Y63195D01*
X3030047Y64742D01*
X3028026Y65580D01*
D02*
G37*
G36*
X3150594Y65500D02*
X3148406D01*
X3146385Y64663D01*
X3144837Y63116D01*
X3144000Y61094D01*
Y58906D01*
X3144837Y56884D01*
X3146385Y55337D01*
X3148406Y54500D01*
X3150594D01*
X3152615Y55337D01*
X3154163Y56884D01*
X3155000Y58906D01*
Y61094D01*
X3154163Y63116D01*
X3152615Y64663D01*
X3150594Y65500D01*
D02*
G37*
G36*
X3019850Y77654D02*
X3001650D01*
X3000577Y77440D01*
X2999667Y76833D01*
X2999059Y75923D01*
X2998846Y74850D01*
Y70350D01*
X2999059Y69277D01*
X2999667Y68367D01*
X3000577Y67760D01*
X3001650Y67546D01*
X3019850D01*
X3020923Y67760D01*
X3021833Y68367D01*
X3022440Y69277D01*
X3022493Y69541D01*
X3028633D01*
X3044805Y53369D01*
X3045797Y52706D01*
X3046968Y52473D01*
X3064852D01*
X3064875Y52417D01*
X3066422Y50869D01*
X3068444Y50032D01*
X3070632D01*
X3072654Y50869D01*
X3074201Y52417D01*
X3075038Y54438D01*
Y56626D01*
X3074201Y58647D01*
X3072654Y60195D01*
X3070632Y61032D01*
X3068444D01*
X3066422Y60195D01*
X3064875Y58647D01*
X3064852Y58591D01*
X3048235D01*
X3032063Y74763D01*
X3031071Y75426D01*
X3029900Y75659D01*
X3029900Y75659D01*
X3022493D01*
X3022440Y75923D01*
X3021833Y76833D01*
X3020923Y77440D01*
X3019850Y77654D01*
D02*
G37*
G36*
X934500Y88372D02*
X926000D01*
X923561Y87887D01*
X921494Y86506D01*
X920527Y85059D01*
X744500D01*
X743329Y84826D01*
X742337Y84163D01*
X742337Y84163D01*
X719587Y61413D01*
X718924Y60420D01*
X718691Y59250D01*
X718691Y59250D01*
Y46820D01*
X716004Y46100D01*
X714940Y45486D01*
X693513Y66913D01*
X692521Y67576D01*
X691350Y67809D01*
X691350Y67809D01*
X485622D01*
Y73000D01*
X485137Y75439D01*
X483756Y77506D01*
X481689Y78887D01*
X479250Y79373D01*
X470750D01*
X469043Y79033D01*
X464663Y83413D01*
X463671Y84076D01*
X462500Y84309D01*
X462500Y84309D01*
X127108D01*
X127108Y84309D01*
X125937Y84076D01*
X124945Y83413D01*
X95337Y53805D01*
X94674Y52813D01*
X94441Y51642D01*
X94441Y51642D01*
Y47168D01*
X93254Y46850D01*
X90746Y45402D01*
X88698Y43354D01*
X87250Y40846D01*
X86500Y38048D01*
Y35152D01*
X87250Y32354D01*
X88698Y29846D01*
X90746Y27798D01*
X93254Y26350D01*
X96052Y25600D01*
X98948D01*
X101746Y26350D01*
X104254Y27798D01*
X106302Y29846D01*
X107750Y32354D01*
X108500Y35152D01*
Y38048D01*
X108003Y39903D01*
X108457Y40517D01*
X109024Y41000D01*
X110976D01*
X111543Y40517D01*
X111997Y39903D01*
X111500Y38048D01*
Y35152D01*
X112250Y32354D01*
X113698Y29846D01*
X115746Y27798D01*
X118254Y26350D01*
X121052Y25600D01*
X123948D01*
X126746Y26350D01*
X129254Y27798D01*
X131302Y29846D01*
X132750Y32354D01*
X133500Y35152D01*
Y38048D01*
X132750Y40846D01*
X131302Y43354D01*
X129254Y45402D01*
X126746Y46850D01*
X123948Y47600D01*
X121052D01*
X119717Y47242D01*
X118819Y48140D01*
X119000Y48815D01*
Y51185D01*
X118387Y53474D01*
X117202Y55526D01*
X115526Y57202D01*
X113474Y58387D01*
X111185Y59000D01*
X110843D01*
X110357Y60173D01*
X128375Y78191D01*
X461233D01*
X464717Y74707D01*
X464378Y73000D01*
Y56500D01*
X464863Y54061D01*
X466244Y51994D01*
X468311Y50613D01*
X470750Y50128D01*
X479250D01*
X481689Y50613D01*
X483756Y51994D01*
X485137Y54061D01*
X485622Y56500D01*
Y61691D01*
X690083D01*
X703751Y48023D01*
X703265Y46850D01*
X684250D01*
Y24850D01*
X706250D01*
Y43865D01*
X707423Y44351D01*
X710614Y41160D01*
X710000Y40096D01*
X709250Y37298D01*
Y34402D01*
X710000Y31604D01*
X711448Y29096D01*
X713496Y27048D01*
X716004Y25600D01*
X718802Y24850D01*
X721698D01*
X724496Y25600D01*
X727004Y27048D01*
X729052Y29096D01*
X730500Y31604D01*
X731250Y34402D01*
Y37298D01*
X730753Y39153D01*
X731207Y39766D01*
X731774Y40250D01*
X733726D01*
X734293Y39766D01*
X734747Y39153D01*
X734250Y37298D01*
Y34402D01*
X735000Y31604D01*
X736448Y29096D01*
X738496Y27048D01*
X741004Y25600D01*
X743802Y24850D01*
X746698D01*
X749496Y25600D01*
X752004Y27048D01*
X754052Y29096D01*
X755500Y31604D01*
X756250Y34402D01*
Y37298D01*
X755500Y40096D01*
X754052Y42604D01*
X752004Y44652D01*
X749496Y46100D01*
X746698Y46850D01*
X743802D01*
X742467Y46492D01*
X741569Y47390D01*
X741750Y48065D01*
Y50435D01*
X741137Y52724D01*
X739952Y54776D01*
X738276Y56452D01*
X736224Y57637D01*
X733935Y58250D01*
X731565D01*
X729276Y57637D01*
X727224Y56452D01*
X726079Y55307D01*
X724809Y55833D01*
Y57983D01*
X745767Y78941D01*
X919628D01*
Y65500D01*
X920113Y63061D01*
X921494Y60994D01*
X923561Y59613D01*
X926000Y59127D01*
X934500D01*
X936939Y59613D01*
X939006Y60994D01*
X940387Y63061D01*
X940872Y65500D01*
Y70691D01*
X1281583D01*
X1296251Y56023D01*
X1295765Y54850D01*
X1276750D01*
Y32850D01*
X1298750D01*
Y51865D01*
X1299923Y52351D01*
X1303114Y49160D01*
X1302500Y48096D01*
X1301750Y45298D01*
Y42402D01*
X1302500Y39604D01*
X1303948Y37096D01*
X1305996Y35048D01*
X1308504Y33600D01*
X1311302Y32850D01*
X1314198D01*
X1316996Y33600D01*
X1319504Y35048D01*
X1321552Y37096D01*
X1323000Y39604D01*
X1323750Y42402D01*
Y45298D01*
X1323253Y47153D01*
X1323707Y47767D01*
X1324274Y48250D01*
X1326226D01*
X1326793Y47767D01*
X1327247Y47153D01*
X1326750Y45298D01*
Y42402D01*
X1327500Y39604D01*
X1328948Y37096D01*
X1330996Y35048D01*
X1333504Y33600D01*
X1336302Y32850D01*
X1339198D01*
X1341996Y33600D01*
X1344504Y35048D01*
X1346552Y37096D01*
X1348000Y39604D01*
X1348750Y42402D01*
Y45298D01*
X1348000Y48096D01*
X1346552Y50604D01*
X1344504Y52652D01*
X1341996Y54100D01*
X1339198Y54850D01*
X1336302D01*
X1334967Y54492D01*
X1334069Y55390D01*
X1334250Y56065D01*
Y58435D01*
X1333637Y60724D01*
X1332452Y62776D01*
X1330776Y64452D01*
X1328724Y65637D01*
X1326435Y66250D01*
X1324065D01*
X1321776Y65637D01*
X1319724Y64452D01*
X1318048Y62776D01*
X1317079Y61097D01*
X1315809Y61437D01*
Y68983D01*
X1326517Y79691D01*
X1533483D01*
X1539128Y74047D01*
Y59500D01*
X1539613Y57061D01*
X1540994Y54994D01*
X1543061Y53613D01*
X1545500Y53128D01*
X1554000D01*
X1556439Y53613D01*
X1558506Y54994D01*
X1559887Y57061D01*
X1560372Y59500D01*
Y64691D01*
X1562357D01*
X1562587Y64134D01*
X1564135Y62587D01*
X1566156Y61750D01*
X1568344D01*
X1570365Y62587D01*
X1571913Y64134D01*
X1572750Y66156D01*
Y68344D01*
X1571913Y70366D01*
X1570365Y71913D01*
X1568344Y72750D01*
X1566156D01*
X1564135Y71913D01*
X1563031Y70809D01*
X1560372D01*
Y76000D01*
X1559887Y78439D01*
X1558506Y80506D01*
X1556439Y81887D01*
X1554000Y82373D01*
X1545500D01*
X1543061Y81887D01*
X1541189Y80637D01*
X1536913Y84913D01*
X1535921Y85576D01*
X1534750Y85809D01*
X1534750Y85809D01*
X1325250D01*
X1324079Y85576D01*
X1323087Y84913D01*
X1323087Y84913D01*
X1310587Y72413D01*
X1309924Y71420D01*
X1309691Y70250D01*
X1309691Y70250D01*
Y54418D01*
X1308504Y54100D01*
X1307440Y53486D01*
X1285013Y75913D01*
X1284021Y76576D01*
X1282850Y76809D01*
X1282850Y76809D01*
X940872D01*
Y82000D01*
X940387Y84439D01*
X939006Y86506D01*
X936939Y87887D01*
X934500Y88372D01*
D02*
G37*
G36*
X396594Y55000D02*
X394406D01*
X392384Y54163D01*
X390837Y52615D01*
X390000Y50594D01*
Y48406D01*
X390837Y46385D01*
X392384Y44837D01*
X394406Y44000D01*
X396594D01*
X398615Y44837D01*
X400163Y46385D01*
X401000Y48406D01*
Y50594D01*
X400163Y52615D01*
X398615Y54163D01*
X396594Y55000D01*
D02*
G37*
G36*
X3019850Y52254D02*
X3001650D01*
X3000577Y52040D01*
X2999667Y51433D01*
X2999059Y50523D01*
X2998846Y49450D01*
Y44950D01*
X2999059Y43877D01*
X2999667Y42967D01*
X3000577Y42360D01*
X3001650Y42146D01*
X3019850D01*
X3020923Y42360D01*
X3021833Y42967D01*
X3022440Y43877D01*
X3022654Y44950D01*
Y49450D01*
X3022440Y50523D01*
X3021833Y51433D01*
X3020923Y52040D01*
X3019850Y52254D01*
D02*
G37*
G36*
X83500Y47600D02*
X61500D01*
Y25600D01*
X83500D01*
Y47600D01*
D02*
G37*
%LPD*%
G36*
X2547118Y671318D02*
X2549583Y670657D01*
Y669343D01*
X2547118Y668682D01*
X2544382Y667102D01*
X2542148Y664868D01*
X2540568Y662132D01*
X2539750Y659080D01*
Y655920D01*
X2540568Y652868D01*
X2541382Y651458D01*
X2519837Y629913D01*
X2519174Y628921D01*
X2518941Y627750D01*
X2518941Y627750D01*
Y551686D01*
X2518884Y551663D01*
X2517337Y550116D01*
X2516967Y549221D01*
X2516880Y549171D01*
X2515509Y549019D01*
X2514366Y550163D01*
X2514309Y550186D01*
Y640733D01*
X2545708Y672132D01*
X2547118Y671318D01*
D02*
G37*
G36*
Y696318D02*
X2549583Y695657D01*
Y694343D01*
X2547118Y693682D01*
X2544382Y692102D01*
X2542148Y689868D01*
X2540568Y687132D01*
X2539750Y684080D01*
Y680920D01*
X2540568Y677868D01*
X2541382Y676458D01*
X2509087Y644163D01*
X2508424Y643170D01*
X2508191Y642000D01*
X2508191Y642000D01*
Y550186D01*
X2508134Y550163D01*
X2506587Y548615D01*
X2505913Y546988D01*
X2504717Y546659D01*
X2503809Y547531D01*
Y655233D01*
X2545708Y697132D01*
X2547118Y696318D01*
D02*
G37*
G36*
X2174590Y175323D02*
X2174441Y174576D01*
X2174441Y174576D01*
Y145250D01*
X2174441Y145250D01*
X2174674Y144080D01*
X2175337Y143087D01*
X2187087Y131337D01*
X2187087Y131337D01*
X2188080Y130674D01*
X2189250Y130441D01*
X2189250Y130441D01*
X2271289D01*
X2271518Y130212D01*
X2272511Y129549D01*
X2273681Y129316D01*
X2285319D01*
X2285319Y129316D01*
X2286489Y129549D01*
X2287482Y130212D01*
X2287711Y130441D01*
X2382483D01*
X2399941Y112983D01*
Y96017D01*
X2365681Y61757D01*
X2365250Y61843D01*
X2357750D01*
X2355897Y61474D01*
X2354325Y60424D01*
X2353275Y58853D01*
X2352968Y57309D01*
X2298031D01*
X2297724Y58853D01*
X2296674Y60424D01*
X2295103Y61474D01*
X2293250Y61843D01*
X2289715D01*
X2289189Y63113D01*
X2312267Y86191D01*
X2352968D01*
X2353275Y84647D01*
X2354325Y83075D01*
X2355897Y82026D01*
X2357750Y81657D01*
X2365250D01*
X2367103Y82026D01*
X2368674Y83075D01*
X2369724Y84647D01*
X2370093Y86500D01*
Y92000D01*
X2369724Y93853D01*
X2368674Y95424D01*
X2367103Y96474D01*
X2365559Y96782D01*
Y110598D01*
X2366738Y111386D01*
X2367540Y112585D01*
X2367821Y114000D01*
Y123250D01*
X2367540Y124664D01*
X2366738Y125863D01*
X2365539Y126665D01*
X2364125Y126946D01*
X2360875D01*
X2359460Y126665D01*
X2358262Y125863D01*
X2357460Y124664D01*
X2357179Y123250D01*
Y114000D01*
X2357460Y112585D01*
X2358262Y111386D01*
X2359441Y110598D01*
Y96843D01*
X2357750D01*
X2355897Y96474D01*
X2354325Y95424D01*
X2353275Y93853D01*
X2352968Y92309D01*
X2311000D01*
X2309829Y92076D01*
X2308837Y91413D01*
X2308837Y91413D01*
X2285233Y67809D01*
X2198000D01*
X2196830Y67576D01*
X2195837Y66913D01*
X2195837Y66913D01*
X2159983Y31059D01*
X1711923D01*
X1710750Y31406D01*
Y33594D01*
X1709913Y35615D01*
X1708365Y37163D01*
X1706595Y37896D01*
X1706848Y39166D01*
X2163250D01*
X2164526Y39420D01*
X2165607Y40142D01*
X2195131Y69666D01*
X2272250D01*
X2273526Y69920D01*
X2274608Y70642D01*
X2285643Y81678D01*
X2285750Y81657D01*
X2293250D01*
X2295103Y82026D01*
X2296674Y83075D01*
X2297724Y84647D01*
X2298093Y86500D01*
Y92000D01*
X2297724Y93853D01*
X2296674Y95424D01*
X2295103Y96474D01*
X2293250Y96843D01*
X2292584D01*
Y110949D01*
X2293238Y111386D01*
X2294040Y112585D01*
X2294321Y114000D01*
Y123250D01*
X2294040Y124664D01*
X2293238Y125863D01*
X2292039Y126665D01*
X2290625Y126946D01*
X2287375D01*
X2285961Y126665D01*
X2284761Y125863D01*
X2283960Y124664D01*
X2283679Y123250D01*
Y114000D01*
X2283960Y112585D01*
X2284761Y111386D01*
X2285916Y110615D01*
Y96843D01*
X2285750D01*
X2283897Y96474D01*
X2282325Y95424D01*
X2281275Y93853D01*
X2280907Y92000D01*
Y86500D01*
X2280928Y86393D01*
X2270869Y76334D01*
X2193750D01*
X2192474Y76080D01*
X2191393Y75357D01*
X2161869Y45834D01*
X1735908D01*
X1735432Y46983D01*
X1736142Y47864D01*
X1736163Y47884D01*
X1736167Y47895D01*
X1736204Y47941D01*
X2160000D01*
X2160000Y47941D01*
X2161171Y48174D01*
X2162163Y48837D01*
X2198062Y84736D01*
X2199473Y84351D01*
X2200325Y83075D01*
X2201897Y82026D01*
X2203750Y81657D01*
X2211250D01*
X2213103Y82026D01*
X2214675Y83075D01*
X2215724Y84647D01*
X2216093Y86500D01*
Y92000D01*
X2215724Y93853D01*
X2214675Y95424D01*
X2213103Y96474D01*
X2211559Y96782D01*
Y110598D01*
X2212738Y111386D01*
X2213540Y112585D01*
X2213821Y114000D01*
Y123250D01*
X2213540Y124664D01*
X2212738Y125863D01*
X2211539Y126665D01*
X2210125Y126946D01*
X2206875D01*
X2205461Y126665D01*
X2204261Y125863D01*
X2203460Y124664D01*
X2203179Y123250D01*
Y114000D01*
X2203460Y112585D01*
X2204261Y111386D01*
X2205441Y110598D01*
Y96843D01*
X2203750D01*
X2201897Y96474D01*
X2200325Y95424D01*
X2199276Y93853D01*
X2198968Y92309D01*
X2198250D01*
X2197079Y92076D01*
X2196087Y91413D01*
X2196087Y91413D01*
X2158733Y54059D01*
X1736186D01*
X1736163Y54116D01*
X1734615Y55663D01*
X1732594Y56500D01*
X1730406D01*
X1728385Y55663D01*
X1726837Y54116D01*
X1726000Y52094D01*
Y49906D01*
X1726837Y47884D01*
X1727618Y47104D01*
X1727092Y45834D01*
X1705944D01*
X1704834Y46944D01*
Y49869D01*
X1737631Y82666D01*
X2090539D01*
X2091815Y82920D01*
X2092896Y83643D01*
X2154518Y145264D01*
X2155691Y144778D01*
Y142672D01*
X2114172Y101152D01*
X2114172Y101152D01*
X2114172Y101152D01*
X2093746Y80726D01*
X2093689Y80750D01*
X2091501D01*
X2089480Y79913D01*
X2087933Y78366D01*
X2087095Y76344D01*
Y74156D01*
X2087933Y72134D01*
X2089480Y70587D01*
X2091501Y69750D01*
X2093689D01*
X2095711Y70587D01*
X2097258Y72134D01*
X2098095Y74156D01*
Y76344D01*
X2098072Y76401D01*
X2118497Y96826D01*
X2118497Y96826D01*
X2160913Y139242D01*
X2160913Y139242D01*
X2161576Y140234D01*
X2161809Y141405D01*
Y164338D01*
X2173419Y175949D01*
X2174590Y175323D01*
D02*
G37*
G36*
X2282325Y60424D02*
X2281275Y58853D01*
X2280968Y57309D01*
X2271064D01*
X2269893Y57076D01*
X2268901Y56413D01*
X2268901Y56413D01*
X2264554Y52066D01*
X2262946D01*
X2258599Y56413D01*
X2257607Y57076D01*
X2256436Y57309D01*
X2256436Y57309D01*
X2216032D01*
X2215724Y58853D01*
X2214675Y60424D01*
X2215065Y61691D01*
X2281935D01*
X2282325Y60424D01*
D02*
G37*
G36*
X2772441Y238993D02*
Y212267D01*
X2756189Y196014D01*
X2754919Y196540D01*
Y206750D01*
X2754647Y208116D01*
X2754438Y208428D01*
Y222650D01*
X2771268Y239479D01*
X2772441Y238993D01*
D02*
G37*
G36*
X2707162Y280100D02*
Y262928D01*
X2706953Y262616D01*
X2706682Y261250D01*
Y249750D01*
X2706953Y248384D01*
X2707727Y247227D01*
X2708884Y246453D01*
X2710250Y246181D01*
X2711234D01*
X2711719Y245008D01*
X2709008Y242297D01*
X2708014Y240809D01*
X2707680Y239127D01*
X2707511Y238875D01*
X2707162Y237119D01*
Y221174D01*
X2705892Y220507D01*
X2705559Y220736D01*
Y227638D01*
X2705326Y228809D01*
X2704663Y229801D01*
X2704663Y229801D01*
X2696109Y238355D01*
Y245173D01*
X2697379Y246215D01*
X2697550Y246181D01*
X2700550D01*
X2701916Y246453D01*
X2703073Y247227D01*
X2703847Y248384D01*
X2704119Y249750D01*
Y261250D01*
X2703847Y262616D01*
X2703088Y263751D01*
X2703050Y263944D01*
X2703050Y263944D01*
Y266132D01*
X2703630Y267000D01*
X2704500D01*
Y281102D01*
X2705674Y281588D01*
X2707162Y280100D01*
D02*
G37*
D13*
X2249500Y252500D02*
X2257020Y244980D01*
X2213303Y227913D02*
X2232451D01*
X2233699Y229160D01*
X2257020Y237446D02*
Y244980D01*
X2248734Y229160D02*
X2257020Y237446D01*
X2233699Y229160D02*
X2248734D01*
X2154480Y169090D02*
X2213303Y227913D01*
X2154480Y149941D02*
Y169090D01*
X1736250Y86000D02*
X2090539D01*
X2154480Y149941D01*
X1701500Y51250D02*
X1736250Y86000D01*
X1701500Y42500D02*
Y51250D01*
X2289250Y89500D02*
X2289500Y89250D01*
X2289250Y89500D02*
Y118375D01*
X2289000Y118625D02*
X2289250Y118375D01*
X2193750Y73000D02*
X2272250D01*
X2163250Y42500D02*
X2193750Y73000D01*
X1701500Y42500D02*
X2163250D01*
X2272250Y73000D02*
X2288500Y89250D01*
X2289500D01*
D14*
X2206608Y413392D02*
Y583358D01*
X2249500Y626250D01*
X2206608Y413392D02*
X2216490Y403510D01*
X2216490D01*
X2279982Y340018D01*
Y252248D02*
Y340018D01*
X2237734Y210000D02*
X2279982Y252248D01*
X2266775Y317883D02*
X2267909Y316750D01*
X2247783Y317883D02*
X2266775D01*
X2267909Y316750D02*
X2269262D01*
X147500Y36600D02*
X149400Y38500D01*
X97500Y36600D02*
Y51642D01*
X127108Y81250D01*
X2996372Y159043D02*
X2999043D01*
X2372000Y159000D02*
X2996328D01*
X2999043Y159043D02*
X3000000Y160000D01*
X2996328Y159000D02*
X2996372Y159043D01*
X2215078Y221143D02*
X2237563D01*
X2212923Y210000D02*
X2237734D01*
X2212436Y218500D02*
X2215078Y221143D01*
X2211645Y218500D02*
X2212436D01*
X2158750Y165605D02*
X2211645Y218500D01*
X2299105Y146520D02*
X2307017D01*
X2296750Y176462D02*
Y178274D01*
X2279966Y186215D02*
X2290040Y196290D01*
X2253041Y289721D02*
X2253762Y289000D01*
X2418238Y196290D02*
X2448278Y166250D01*
X2250279Y289721D02*
X2253041D01*
X2296750Y178274D02*
X2301438Y182962D01*
X2290040Y196290D02*
X2418238D01*
X2364176Y148000D02*
X2365052Y147125D01*
X2372000D01*
X2363500Y148000D02*
X2364176D01*
X2371750Y177750D02*
X2374143Y180143D01*
Y189643D01*
X2247783Y292217D02*
X2250279Y289721D01*
X2247783Y292217D02*
Y305184D01*
X2279966Y178178D02*
Y186215D01*
X2245328Y245172D02*
X2250250Y240250D01*
X2243672Y245172D02*
X2245328D01*
X2285319Y132375D02*
X2286444Y133500D01*
X2383750D02*
X2403000Y114250D01*
X2286444Y133500D02*
X2383750D01*
X2216250Y202000D02*
X2426000D01*
X2456000Y172000D01*
X2199291Y185041D02*
X2216250Y202000D01*
X3038500Y86750D02*
X3053750D01*
X3057500Y90500D01*
X3014500Y148500D02*
X3038500D01*
X2940750Y85750D02*
X2941200Y85300D01*
X2961250D01*
X3038500Y105250D02*
Y130000D01*
X3012750Y87300D02*
X3020550D01*
X3010750Y85300D02*
X3012750Y87300D01*
X3037500Y105250D02*
X3038500D01*
X3032750Y100500D02*
X3037500Y105250D01*
X3032750Y99500D02*
Y100500D01*
X3020550Y87300D02*
X3032750Y99500D01*
X2991550Y85300D02*
X3010750D01*
X2985500Y79250D02*
X2991550Y85300D01*
X2985500Y60000D02*
Y79250D01*
X2961479Y47428D02*
X2972928D01*
X2961250Y47200D02*
X2961479Y47428D01*
X2972928D02*
X2985500Y60000D01*
X3026752Y59900D02*
X3026932Y60080D01*
X3010750Y59900D02*
X3026752D01*
X3029900Y72600D02*
X3046968Y55532D01*
X3010750Y72600D02*
X3029900D01*
X3046968Y55532D02*
X3069538D01*
X2934500Y60500D02*
X2960650D01*
X2961250Y59900D01*
X2930350Y72600D02*
X2961250D01*
X2925500Y67750D02*
X2930350Y72600D01*
X2925500Y60500D02*
Y67750D01*
X2262638Y330250D02*
X2262762Y330374D01*
X2262000Y330250D02*
X2262638D01*
X2261667Y330583D02*
X2262000Y330250D01*
X2247783Y330583D02*
X2261667D01*
X2247783Y343284D02*
Y355533D01*
X2248000Y355750D01*
X2456000Y172000D02*
X2832500D01*
X2851500Y191000D01*
X2353250Y177750D02*
X2372000Y159000D01*
X2199291Y177503D02*
Y185041D01*
X2198250Y176462D02*
X2199291Y177503D01*
X2138500Y269750D02*
X2154500Y285750D01*
X2103500Y269750D02*
X2138500D01*
X2261679Y49007D02*
X2265821D01*
X2256436Y54250D02*
X2261679Y49007D01*
X2265821D02*
X2271064Y54250D01*
X2086000Y363750D02*
X2145000D01*
X2154500Y354250D01*
X2086000Y351250D02*
Y363750D01*
X2154500Y285750D02*
Y354250D01*
X1950500Y306000D02*
X2067500D01*
X2080250Y318750D01*
X1996500Y314250D02*
X1997250Y313500D01*
X2025000D01*
X2043750Y332250D01*
X2086000D01*
X2134017Y318649D02*
X2134783Y317883D01*
X2125712Y318649D02*
X2134017D01*
X2125611Y318750D02*
X2125712Y318649D01*
X2080250Y318750D02*
X2125611D01*
X2103500Y269750D02*
X2104000Y270250D01*
Y283000D01*
Y306000D02*
X2133966D01*
X2134783Y305184D01*
X2120466Y343284D02*
X2134783D01*
X2112500Y351250D02*
X2120466Y343284D01*
X2104000Y351250D02*
X2112500D01*
X2086000D02*
X2104000D01*
X2126034Y332250D02*
X2127700Y330583D01*
X2104000Y332250D02*
X2126034D01*
X2127700Y330583D02*
X2134783D01*
X2086000Y332250D02*
X2104000D01*
X2704250Y191250D02*
Y191400D01*
X2699901Y180750D02*
X2755000D01*
X2688041Y192609D02*
X2699901Y180750D01*
X2693050Y237088D02*
X2702500Y227638D01*
Y215250D02*
Y227638D01*
X2692700Y193608D02*
Y208264D01*
X2701558Y184750D02*
X2749250D01*
X2692700Y193608D02*
X2701558Y184750D01*
X2699050Y196600D02*
Y201000D01*
X2749250Y184750D02*
X2775500Y211000D01*
X2688041Y192609D02*
Y195059D01*
X2699050Y196600D02*
X2704250Y191400D01*
X2755000Y180750D02*
X2779500Y205250D01*
X2216750Y177074D02*
X2221500Y181824D01*
X2216750Y176462D02*
Y177074D01*
X2221500Y181824D02*
X2234074D01*
X2235000Y182750D01*
X192600Y482000D02*
Y517000D01*
X194828Y519229D01*
Y528828D02*
X196750Y530750D01*
Y665250D02*
X260500Y729000D01*
X196750Y530750D02*
Y665250D01*
X194828Y519229D02*
Y528828D01*
X897293Y37957D02*
X898250Y37000D01*
X883000Y50071D02*
Y52500D01*
Y50071D02*
X895114Y37957D01*
X897293D01*
X438000Y49500D02*
X438250Y49250D01*
X455500D01*
X2218000Y147125D02*
X2218125Y147000D01*
X2225500D01*
X475000Y25250D02*
X480000Y20250D01*
X488750D01*
X2672750Y272750D02*
X2676250D01*
X2679000Y275500D01*
X2490250Y481250D02*
X2494750Y485750D01*
Y494500D01*
X2298500Y147125D02*
X2299105Y146520D01*
X2298500Y147125D02*
Y174713D01*
X2296750Y176462D02*
X2298500Y174713D01*
X2207500Y54250D02*
X2256436D01*
X2271064D02*
X2289500D01*
X2751000Y309000D02*
X2756000Y314000D01*
X2747500Y309000D02*
X2751000D01*
X3066750Y509517D02*
X3067036Y509804D01*
X3066750Y503000D02*
Y509517D01*
X2272556Y133500D02*
X2273681Y132375D01*
X2285319D01*
X2189250Y133500D02*
X2272556D01*
X2150210Y170858D02*
X2211534Y232183D01*
X2230683D02*
X2243672Y245172D01*
X2150210Y151710D02*
Y170858D01*
X1729750Y90750D02*
X2089250D01*
X2177500Y174576D02*
X2212923Y210000D01*
X2211534Y232183D02*
X2230683D01*
X2089250Y90750D02*
X2150210Y151710D01*
X2158750Y141405D02*
Y165605D01*
X2177500Y145250D02*
Y174576D01*
X1535000Y21750D02*
X1542497D01*
X1542730Y21517D01*
Y21230D02*
Y21517D01*
X871982Y13500D02*
X1335500D01*
X1362750Y43850D02*
X1385250Y21350D01*
X832982Y52500D02*
X871982Y13500D01*
X815000Y52500D02*
X832982D01*
X1620087Y567687D02*
Y617663D01*
X260500Y729000D02*
X1508750D01*
X1620087Y617663D01*
Y567687D02*
X1737775Y450000D01*
X1740000D01*
X1742225D01*
X1816000Y523775D01*
Y646800D01*
X1889200Y720000D01*
X3137292Y446666D02*
X3138293Y445666D01*
X3130793Y446675D02*
X3130801Y446666D01*
X3137292D01*
X3138293Y445666D02*
X3153925D01*
X3155302Y447043D01*
X3160468D01*
X3161425Y448000D01*
X2693050Y237088D02*
Y248800D01*
X2686350Y255500D02*
X2693050Y248800D01*
X2646191Y237781D02*
X2672881D01*
X2686350Y251250D01*
Y255500D01*
X2952712Y330212D02*
X2956500Y334000D01*
X2845833Y330212D02*
X2952712D01*
X2957209Y315875D02*
X2959124Y317789D01*
X2845741Y315875D02*
X2957209D01*
X2957712Y191000D02*
X2959282Y192570D01*
X2851500Y191000D02*
X2957712D01*
X2957250Y178500D02*
X2958750Y180000D01*
X2851250Y178500D02*
X2957250D01*
X3086075Y474750D02*
X3086500D01*
X3068339Y471250D02*
X3082575D01*
X3086075Y474750D01*
X3066839Y475500D02*
X3068839Y473500D01*
X3037250Y475500D02*
X3066839D01*
X2779500Y205250D02*
Y249634D01*
X2775500Y211000D02*
Y259879D01*
X2845833Y330212D01*
X2779500Y249634D02*
X2845741Y315875D01*
X2686350Y196750D02*
X2688041Y195059D01*
X2686350Y196750D02*
Y201000D01*
X2673650Y203788D02*
Y205250D01*
Y201000D02*
Y203788D01*
X2689714Y211250D02*
X2692700Y208264D01*
X2679650Y211250D02*
X2689714D01*
X2673650Y205250D02*
X2679650Y211250D01*
X2679600Y190000D02*
X2686350Y196750D01*
X2646750Y190000D02*
X2679600D01*
X2448278Y166250D02*
X2839000D01*
X2851250Y178500D01*
X2116335Y98989D02*
X2158750Y141405D01*
X2116335Y98989D02*
X2116335D01*
X2092595Y75250D02*
X2116335Y98989D01*
X2278250Y176462D02*
X2279966Y178178D01*
X949486Y28410D02*
X953000Y24896D01*
X946450Y33550D02*
X949486Y30514D01*
X953000Y24500D02*
Y24896D01*
X949486Y28410D02*
Y30514D01*
X937503Y33550D02*
X946450D01*
X2161250Y28000D02*
X2198000Y64750D01*
X1709750Y28000D02*
X2161250D01*
X1705250Y32500D02*
X1709750Y28000D01*
X1335500Y13500D02*
X1362750Y40750D01*
X1542730Y21230D02*
X1549750Y28250D01*
X1566750Y67750D02*
X1567250Y67250D01*
X1549750Y67750D02*
X1566750D01*
X1443750Y52500D02*
X1444750Y53500D01*
X1424000Y52500D02*
X1443750D01*
X2500750Y542500D02*
Y656500D01*
X2551750Y707500D01*
X2511250Y642000D02*
X2551750Y682500D01*
X2511250Y545500D02*
Y642000D01*
X2522000Y547000D02*
Y627750D01*
X2551750Y657500D01*
X2671688Y205750D02*
X2673650Y203788D01*
X2666815Y205750D02*
X2671688D01*
X2657315Y215250D02*
X2666815Y205750D01*
X2646500Y215250D02*
X2657315D01*
X2353000Y177500D02*
X2353250Y177750D01*
X2301500Y626250D02*
X2395250Y532500D01*
X2249500Y626250D02*
X2301500D01*
X2395250Y532500D02*
X2551750D01*
X1692750Y53750D02*
X1729750Y90750D01*
X1692750Y39422D02*
X1699421Y32750D01*
X1704975D01*
X1692750Y39422D02*
Y53750D01*
X2177500Y145250D02*
X2189250Y133500D01*
X2403000Y94750D02*
Y114250D01*
X2362500Y54250D02*
X2403000Y94750D01*
X2361500Y54250D02*
X2362500D01*
X2503000Y259250D02*
Y276000D01*
X2464250Y259500D02*
X2502750D01*
X2503000Y259250D01*
X2311000Y89250D02*
X2361500D01*
X2286500Y64750D02*
X2311000Y89250D01*
X2198000Y64750D02*
X2286500D01*
X2199000Y147125D02*
Y175713D01*
X2198250Y176462D02*
X2199000Y175713D01*
X2278250Y176462D02*
X2279500Y175212D01*
Y147125D02*
Y175212D01*
X2353000Y147125D02*
Y177500D01*
X2361500Y89250D02*
X2362500Y90250D01*
Y118625D01*
X2208500Y90250D02*
Y118625D01*
X2207500Y89250D02*
X2208500Y90250D01*
X2289500Y54250D02*
X2361500D01*
X2168250Y16000D02*
X2206500Y54250D01*
X2207500D01*
X1612000Y16000D02*
X2168250D01*
X1496750Y47750D02*
X1580250D01*
X1612000Y16000D01*
X2160000Y51000D02*
X2198250Y89250D01*
X1731500Y51000D02*
X2160000D01*
X2198250Y89250D02*
X2207500D01*
X1492000Y52500D02*
X1496750Y47750D01*
X1466500Y22000D02*
X1492000Y47500D01*
X1464000Y22000D02*
X1466500D01*
X1492000Y47500D02*
Y52500D01*
X1463350Y21350D02*
X1464000Y22000D01*
X1385250Y21350D02*
X1463350D01*
X1362750Y40750D02*
Y43850D01*
X815000Y49259D02*
Y52500D01*
X770250Y35850D02*
X801591D01*
X815000Y49259D01*
X753250Y17500D02*
X770250Y34500D01*
X680500Y17500D02*
X753250D01*
X665400Y32600D02*
X680500Y17500D01*
X770250Y34500D02*
Y35850D01*
X562000Y32600D02*
X665400D01*
X537000D02*
X562000D01*
X491000Y44500D02*
X502900Y32600D01*
X447250Y25000D02*
X466750Y44500D01*
X491000D01*
X370000Y47253D02*
Y49500D01*
Y46259D02*
Y47253D01*
X502900Y32600D02*
X537000D01*
X378753Y37506D02*
X381994D01*
X394500Y25000D01*
X447250D01*
X370000Y46259D02*
X378753Y37506D01*
X149400Y38500D02*
X361247D01*
X370000Y47253D01*
X1312750Y70250D02*
X1325250Y82750D01*
X1312750Y43850D02*
Y70250D01*
X1325250Y82750D02*
X1534750D01*
X1549750Y67750D01*
X1282850Y73750D02*
X1312750Y43850D01*
X930250Y73750D02*
X1282850D01*
X922997Y82000D02*
X930250Y74747D01*
X744500Y82000D02*
X922997D01*
X930250Y73750D02*
Y74747D01*
X721750Y59250D02*
X744500Y82000D01*
X721750Y37350D02*
Y59250D01*
X720250Y35850D02*
X721750Y37350D01*
X691350Y64750D02*
X720250Y35850D01*
X475000Y64750D02*
X691350D01*
X462500Y81250D02*
X469821Y73929D01*
X127108Y81250D02*
X462500D01*
X469821Y73929D02*
X472400D01*
D16*
X2353000Y147125D02*
D03*
X2372000D02*
D03*
X2362500Y118625D02*
D03*
X2279500Y147125D02*
D03*
X2298500D02*
D03*
X2289000Y118625D02*
D03*
X2199000Y147125D02*
D03*
X2218000D02*
D03*
X2208500Y118625D02*
D03*
D19*
X2749850Y201000D02*
D03*
X2737150D02*
D03*
X2724450D02*
D03*
X2711750D02*
D03*
X2699050D02*
D03*
X2686350D02*
D03*
X2673650D02*
D03*
X2749850Y255500D02*
D03*
X2737150D02*
D03*
X2724450D02*
D03*
X2711750D02*
D03*
X2699050D02*
D03*
X2686350D02*
D03*
X2673650D02*
D03*
D22*
X2104000Y351250D02*
D03*
Y332250D02*
D03*
X2086000D02*
D03*
Y351250D02*
D03*
X2104000Y306000D02*
D03*
Y283000D02*
D03*
X2503000Y350500D02*
D03*
Y369500D02*
D03*
X2622750Y294000D02*
D03*
Y313000D02*
D03*
D23*
X2698000Y275500D02*
D03*
X2679000D02*
D03*
D24*
X3066750Y503000D02*
D03*
Y472000D02*
D03*
D27*
X2579500Y283250D02*
D03*
X2561000D02*
D03*
X2216750Y176462D02*
D03*
X2198250D02*
D03*
X2627691Y237781D02*
D03*
X2646191D02*
D03*
X2729000Y309000D02*
D03*
X2747500D02*
D03*
X2628000Y215250D02*
D03*
X2646500D02*
D03*
X2643250Y415000D02*
D03*
X2661750D02*
D03*
X2624250Y388500D02*
D03*
X2642750D02*
D03*
X2646750Y190000D02*
D03*
X2628250D02*
D03*
X2278250Y176462D02*
D03*
X2296750D02*
D03*
X2353250Y177750D02*
D03*
X2371750D02*
D03*
X2490250Y481250D02*
D03*
X2508750D02*
D03*
X2729500Y283750D02*
D03*
X2748000D02*
D03*
D29*
X1492000Y52500D02*
D03*
X1424000D02*
D03*
X815000D02*
D03*
X883000D02*
D03*
X370000Y49500D02*
D03*
X438000D02*
D03*
D30*
X3038500Y148500D02*
D03*
Y130000D02*
D03*
Y105250D02*
D03*
Y86750D02*
D03*
X2510000Y454250D02*
D03*
Y435750D02*
D03*
X2503000Y276000D02*
D03*
Y294500D02*
D03*
Y259250D02*
D03*
Y240750D02*
D03*
Y403250D02*
D03*
Y384750D02*
D03*
X2622750Y346750D02*
D03*
Y328250D02*
D03*
X2564000Y436750D02*
D03*
Y455250D02*
D03*
D34*
X930250Y34250D02*
D03*
Y73750D02*
D03*
X1549750Y67750D02*
D03*
Y28250D02*
D03*
X475000Y25250D02*
D03*
Y64750D02*
D03*
D35*
X2435750Y250000D02*
D03*
X2464250Y240500D02*
D03*
Y259500D02*
D03*
X2425750Y360000D02*
D03*
X2454250Y350500D02*
D03*
Y369500D02*
D03*
X2586750Y436500D02*
D03*
Y455500D02*
D03*
X2615250Y446000D02*
D03*
D36*
X1744000Y245000D02*
D03*
X1716000D02*
D03*
D84*
X1489250Y179000D02*
X1519250D01*
X1252266Y187750D02*
Y217750D01*
X2594000Y306900D02*
X2606900Y294000D01*
X2496500Y345000D02*
X2502000Y350500D01*
X2503000D01*
X2494500Y345000D02*
X2496500D01*
X2454250Y350000D02*
X2455500Y348750D01*
X2457000Y347750D02*
X2465250D01*
X2454250Y350000D02*
Y350500D01*
X2455500Y348750D02*
X2456000D01*
X2457000Y347750D01*
X2575375Y455375D02*
X2586625D01*
X2586750Y455500D01*
X2564000Y455250D02*
X2564125Y455375D01*
X2575375D01*
X1889026Y191250D02*
X1889728Y190548D01*
X1817100Y174800D02*
X1833550Y191250D01*
X1889728Y190548D02*
X1892081D01*
X1892783Y191250D01*
X1833550D02*
X1889026D01*
X1917500Y189400D02*
X1920500Y192400D01*
Y197258D01*
X1921500Y198258D01*
Y335000D01*
X1990000Y403500D01*
X1676396Y146396D02*
X1716000Y186000D01*
Y245000D01*
X1718000Y247000D01*
Y273000D01*
X1716000Y275000D02*
X1718000Y273000D01*
X2521858Y240750D02*
X2522189Y241081D01*
X2503000Y240750D02*
X2521858D01*
X2606900Y294000D02*
X2622750D01*
X2502750Y240500D02*
X2503000Y240750D01*
X2481500Y240500D02*
X2502750D01*
X2481500Y240500D02*
X2481500Y240500D01*
X2464250Y240500D02*
X2481500D01*
X1807100Y171200D02*
Y174800D01*
X1990000Y403500D02*
Y405000D01*
X1744000Y275000D02*
Y290000D01*
X1732000Y302000D02*
X1744000Y290000D01*
X1775000Y274000D02*
X1815000D01*
X1840000Y249000D01*
Y240000D02*
Y249000D01*
X1775000Y246000D02*
X1777000Y244000D01*
X1794200Y240000D02*
Y243850D01*
X1794050Y244000D02*
X1794200Y243850D01*
X1777000Y244000D02*
X1794050D01*
X1744500Y274500D02*
X1774500D01*
X1775000Y274000D01*
X1774500Y245500D02*
X1775000Y246000D01*
X1744000Y245000D02*
X1744500Y245500D01*
X1774500D01*
X2055000Y405000D02*
X2120000D01*
X1990000D02*
X2055000D01*
X1925000D02*
X1990000D01*
X1860000D02*
X1925000D01*
D86*
X2693345Y275500D02*
G03*
X2691642Y274795I0J-2409D01*
G01*
X2698000Y275500D02*
G03*
X2697550Y274414I1086J-1086D01*
G01*
X2325462Y490000D02*
X2350000D01*
X2454563Y510000D02*
X2460313Y504250D01*
X2333777Y514600D02*
X2338377Y510000D01*
X2330800Y514600D02*
X2333777D01*
X2338377Y510000D02*
X2454563D01*
X2280000Y410000D02*
X2286661Y403339D01*
Y403339D02*
Y403339D01*
X2243800Y410000D02*
X2280000D01*
X2286661Y403339D02*
X2397250Y292750D01*
Y253750D02*
Y292750D01*
X2229200Y424600D02*
X2243800Y410000D01*
X2435750Y250000D02*
Y294250D01*
X2306416Y423584D02*
X2435750Y294250D01*
X2397250Y253750D02*
X2430000Y221000D01*
X2539000D01*
Y221750D02*
X2579875Y262625D01*
X2539000Y221000D02*
Y221750D01*
X2627970Y202500D02*
Y215250D01*
X2953165Y215447D02*
X3009303D01*
X3057500Y90500D02*
Y167250D01*
X3009303Y215447D02*
X3057500Y167250D01*
X2930000Y527750D02*
Y722146D01*
X2788750Y386500D02*
X2930000Y527750D01*
X2748000Y386500D02*
X2788750D01*
X2641250Y279750D02*
X2748000Y386500D01*
X2582750Y279750D02*
X2641250D01*
X2711750Y201000D02*
Y237119D01*
X2712253Y239053D02*
X2724450Y251250D01*
X2712253Y237622D02*
Y239053D01*
X2711750Y237119D02*
X2712253Y237622D01*
X2606857Y531607D02*
Y596779D01*
X2604871Y598766D02*
Y599307D01*
Y598766D02*
X2606857Y596779D01*
X2576750Y554936D02*
X2591250Y540436D01*
X2576750Y554936D02*
Y557500D01*
X2569006Y504250D02*
X2591250Y526494D01*
Y540436D01*
X2511000Y435750D02*
X2606857Y531607D01*
X2460313Y504250D02*
X2569006D01*
X2552250Y353715D02*
Y359250D01*
X2561000Y368000D01*
X2540000Y345000D02*
X2543500D01*
X2548700Y350200D01*
X2548735D01*
X2552250Y353715D01*
X2698550Y260250D02*
Y263500D01*
X2697550Y264500D02*
Y265038D01*
Y264500D02*
X2698550Y263500D01*
X2693345Y275500D02*
X2698000D01*
X2698550Y260250D02*
X2699050Y259750D01*
X2510000Y435750D02*
X2511000D01*
X2836000Y613000D02*
X2901000Y678000D01*
Y710971D02*
X2902013Y711984D01*
Y717913D02*
X2904500Y720400D01*
X2901000Y678000D02*
Y710971D01*
X2902013Y711984D02*
Y717913D01*
X2624750Y613000D02*
X2836000D01*
X2257931Y516746D02*
X2263029Y521844D01*
X2253770Y516746D02*
X2257931D01*
X2263029Y521844D02*
X2287040D01*
X2726000Y462250D02*
X2766250Y422000D01*
X2615500Y462250D02*
X2726000D01*
X2770000Y244700D02*
Y263500D01*
X2749850Y201000D02*
Y224550D01*
X2770000Y244700D01*
X2330800Y514600D02*
Y565400D01*
X2307750Y507712D02*
X2325462Y490000D01*
X2350000D02*
X2425750Y414250D01*
Y360000D02*
Y414250D01*
X2288212Y563250D02*
X2307750Y543713D01*
X2634500Y406000D02*
X2645000Y416500D01*
X2697550Y265038D02*
Y274414D01*
X2294523Y467500D02*
X2302423Y475400D01*
X2270000Y467500D02*
X2294523D01*
X2302423Y475400D02*
X2305400D01*
X2286250Y423750D02*
X2305400D01*
X2280000Y430000D02*
X2286250Y423750D01*
X2274516Y430000D02*
X2280000D01*
X2260620Y563250D02*
X2288212D01*
X2307750Y507712D02*
Y543713D01*
X2660250Y406000D02*
Y414250D01*
X2642750Y389500D02*
X2646000Y392750D01*
X2660250Y414250D02*
X2663500Y417500D01*
X2642750Y388500D02*
Y389500D01*
X2647000Y392750D02*
X2660250Y406000D01*
X2646000Y392750D02*
X2647000D01*
X2540500Y320100D02*
X2549571D01*
X2552500Y323029D02*
Y341571D01*
X2540500Y344500D02*
X2549571D01*
Y320100D02*
X2552500Y323029D01*
X2540000Y319600D02*
X2540500Y320100D01*
X2540000Y345000D02*
X2540500Y344500D01*
X2549571D02*
X2552500Y341571D01*
X2535250Y319600D02*
X2540000D01*
X2589750Y436500D02*
X2615500Y462250D01*
X2586750Y436500D02*
X2589750D01*
X2724030Y223447D02*
X2724450Y223028D01*
Y201000D02*
Y223028D01*
X2640375Y262625D02*
X2654000Y276250D01*
X2579875Y262625D02*
X2640375D01*
X2654000Y276250D02*
X2656750D01*
X2672500Y292000D02*
X2701750D01*
X2656750Y276250D02*
X2672500Y292000D01*
X2701750D02*
X2711750Y282000D01*
Y255500D02*
Y282000D01*
X2748000Y283750D02*
X2759000D01*
X2699050Y255500D02*
Y259750D01*
X2503250Y403500D02*
X2512000D01*
X2503000Y403250D02*
X2503250Y403500D01*
X2634500Y402750D02*
Y406000D01*
X2645000Y416500D02*
Y417500D01*
X2724450Y251250D02*
Y255500D01*
X2594000Y319600D02*
X2613100D01*
X2621750Y328250D01*
X2622750D01*
Y313000D02*
Y328250D01*
X2528638Y390042D02*
X2533058D01*
X2540000Y383100D01*
X2622750Y351250D02*
X2628250Y356750D01*
X2622750Y346750D02*
Y351250D01*
X2627970Y226356D02*
Y237501D01*
Y202500D02*
X2628250Y202220D01*
Y190000D02*
Y202220D01*
X2627691Y237781D02*
X2627970Y237501D01*
X2728441Y263741D02*
Y308441D01*
X2729000Y309000D01*
X2576750Y632500D02*
X2605250D01*
X2624750Y613000D01*
X2454250Y399500D02*
X2509000Y454250D01*
X2510000D01*
X2454250Y369500D02*
Y399500D01*
X2545250Y300000D02*
Y306400D01*
X2544750Y306900D02*
X2545250Y306400D01*
X2540000Y306900D02*
X2544750D01*
X2561000Y283250D02*
Y284250D01*
X2545250Y300000D02*
X2561000Y284250D01*
X2527250Y340300D02*
Y349700D01*
X2535250Y357700D02*
X2540000D01*
X2527250Y349700D02*
X2535250Y357700D01*
Y332300D02*
X2540000D01*
X2527250Y340300D02*
X2535250Y332300D01*
X2605050D02*
X2608250Y335500D01*
X2602300Y357200D02*
X2608250Y351250D01*
Y335500D02*
Y351250D01*
X2594500Y357200D02*
X2602300D01*
X2594000Y332300D02*
X2605050D01*
X2594000Y357700D02*
X2594500Y357200D01*
X2578250Y361000D02*
X2587650Y370400D01*
X2578250Y349500D02*
Y361000D01*
Y349500D02*
X2582750Y345000D01*
X2576350Y370400D02*
X2588951D01*
X2582750Y345000D02*
X2594000D01*
X2579500Y283000D02*
X2582750Y279750D01*
X2579500Y283000D02*
Y283250D01*
X2724450Y255500D02*
Y259750D01*
X2728441Y263741D01*
X2724450Y251250D02*
X2737150Y238550D01*
Y201000D02*
Y238550D01*
X2636000Y446000D02*
X2663500Y418500D01*
X2615250Y446000D02*
X2636000D01*
X2663500Y417500D02*
Y418500D01*
X2604150Y388500D02*
X2624250D01*
X2598750Y383100D02*
X2604150Y388500D01*
X2594000Y383100D02*
X2598750D01*
X2586625Y436625D02*
X2586750Y436500D01*
X2564125Y436625D02*
X2586625D01*
X2564000Y436750D02*
X2564125Y436625D01*
X2510000Y454250D02*
X2510375Y454625D01*
Y479625D01*
X2510750Y480000D01*
X2511000Y435750D02*
X2576350Y370400D01*
X2503000Y369500D02*
Y384750D01*
X2503450Y369950D02*
X2539550D01*
X2540000Y370400D01*
X2503000Y369500D02*
X2503450Y369950D01*
X2506250Y297750D02*
X2513400D01*
X2503000Y294500D02*
X2506250Y297750D01*
X2513400D02*
X2535250Y319600D01*
X2561000Y283250D02*
X2561000Y283250D01*
X2540000Y306900D02*
X2540000Y306900D01*
D87*
X2929500Y720400D02*
D03*
X2879500D02*
D03*
X2904500D02*
D03*
X2704000Y692850D02*
D03*
X2729000D02*
D03*
X2679000D02*
D03*
X627300Y242700D02*
D03*
X652700D02*
D03*
X627300Y217300D02*
D03*
X652700D02*
D03*
X627300Y191900D02*
D03*
X652700D02*
D03*
X678100D02*
D03*
Y217300D02*
D03*
Y268100D02*
D03*
Y242700D02*
D03*
X652700Y268100D02*
D03*
X601900D02*
D03*
X627300D02*
D03*
X601900Y217300D02*
D03*
Y242700D02*
D03*
Y191900D02*
D03*
X922700Y217300D02*
D03*
X897300D02*
D03*
X922700Y242700D02*
D03*
X897300D02*
D03*
X922700Y268100D02*
D03*
X897300D02*
D03*
X871900D02*
D03*
Y242700D02*
D03*
Y191900D02*
D03*
Y217300D02*
D03*
X897300Y191900D02*
D03*
X948100D02*
D03*
X922700D02*
D03*
X948100Y242700D02*
D03*
Y217300D02*
D03*
Y268100D02*
D03*
X134600Y240000D02*
D03*
X160000D02*
D03*
X134600Y214600D02*
D03*
X160000D02*
D03*
X134600Y189200D02*
D03*
X160000D02*
D03*
X185400D02*
D03*
Y214600D02*
D03*
Y265400D02*
D03*
Y240000D02*
D03*
X160000Y265400D02*
D03*
X109200D02*
D03*
X134600D02*
D03*
X109200Y214600D02*
D03*
Y240000D02*
D03*
Y189200D02*
D03*
X422700Y217300D02*
D03*
X397300D02*
D03*
X422700Y242700D02*
D03*
X397300D02*
D03*
X422700Y268100D02*
D03*
X397300D02*
D03*
X371900D02*
D03*
Y242700D02*
D03*
Y191900D02*
D03*
Y217300D02*
D03*
X397300Y191900D02*
D03*
X448100D02*
D03*
X422700D02*
D03*
X448100Y242700D02*
D03*
Y217300D02*
D03*
Y268100D02*
D03*
X2426650Y489500D02*
D03*
X2401250D02*
D03*
X97500Y36600D02*
D03*
X147500D02*
D03*
X122500D02*
D03*
X1312750Y43850D02*
D03*
X1362750D02*
D03*
X1337750D02*
D03*
X720250Y35850D02*
D03*
X770250D02*
D03*
X745250D02*
D03*
D88*
X2954500Y720400D02*
D03*
X2654000Y692850D02*
D03*
X72500Y36600D02*
D03*
X1287750Y43850D02*
D03*
X695250Y35850D02*
D03*
D89*
X2917000Y707000D02*
D03*
X2691500Y706250D02*
D03*
X110000Y50000D02*
D03*
X1325250Y57250D02*
D03*
X732750Y49250D02*
D03*
D90*
X2383700Y567500D02*
D03*
X2434500D02*
D03*
X2409100D02*
D03*
X2085800Y683750D02*
D03*
X2212800D02*
D03*
X2136600D02*
D03*
D91*
X3439410Y63020D02*
D03*
X2839410D02*
D03*
X3439410Y513020D02*
D03*
X2839410D02*
D03*
X2076000Y167300D02*
D03*
X2807500Y667500D02*
D03*
X3375000Y167500D02*
D03*
D92*
X2551750Y532500D02*
D03*
X2576750Y557500D02*
D03*
X2551750D02*
D03*
X2576750Y582500D02*
D03*
X2551750D02*
D03*
X2576750Y607500D02*
D03*
X2551750D02*
D03*
X2576750Y632500D02*
D03*
X2551750Y707500D02*
D03*
Y682500D02*
D03*
X2576750D02*
D03*
Y657500D02*
D03*
Y532500D02*
D03*
X2551750Y632500D02*
D03*
Y657500D02*
D03*
X1519250Y179000D02*
D03*
X1489250D02*
D03*
X1252266Y217750D02*
D03*
Y187750D02*
D03*
X1860000Y615000D02*
D03*
Y405000D02*
D03*
X1925000D02*
D03*
Y615000D02*
D03*
X1990000Y405000D02*
D03*
Y615000D02*
D03*
X2055000Y405000D02*
D03*
Y615000D02*
D03*
X1166500Y181250D02*
D03*
Y211250D02*
D03*
X1670000Y360000D02*
D03*
Y150000D02*
D03*
X2120000Y615000D02*
D03*
Y405000D02*
D03*
X1740000Y450000D02*
D03*
Y540000D02*
D03*
Y510000D02*
D03*
D93*
X2576750Y707500D02*
D03*
D94*
X2590555Y620000D02*
D03*
D95*
X1423250Y175750D02*
D03*
X1313250D02*
D03*
D96*
X1381100Y482000D02*
D03*
X1558900D02*
D03*
D03*
X192600D02*
D03*
X370400D02*
D03*
D03*
X692200D02*
D03*
X870000D02*
D03*
D03*
D97*
X1155000Y624750D02*
D03*
Y384750D02*
D03*
D98*
Y548750D02*
D03*
Y308750D02*
D03*
D99*
X2330800Y514600D02*
D03*
X2254600D02*
D03*
X2229200D02*
D03*
X2330800Y565400D02*
D03*
X2254600D02*
D03*
X2229200Y475400D02*
D03*
X2305400D02*
D03*
X2330800D02*
D03*
X2229200Y424600D02*
D03*
X2305400D02*
D03*
X1892500Y189400D02*
D03*
X562000Y32600D02*
D03*
X3213500Y722900D02*
D03*
D100*
X2229200Y565400D02*
D03*
X2330800Y424600D02*
D03*
D101*
X1917500Y189400D02*
D03*
X537000Y32600D02*
D03*
X3238500Y722900D02*
D03*
D102*
X2238200Y683750D02*
D03*
D103*
X1889200Y720000D02*
D03*
X1914600D02*
D03*
D104*
X1940000D02*
D03*
D105*
X2310000Y640000D02*
D03*
X3142590Y485519D02*
D03*
X2270000Y670000D02*
D03*
X2290000D02*
D03*
X2330000Y720000D02*
D03*
X2317500Y343500D02*
D03*
X2269262Y316750D02*
D03*
X3439410Y90520D02*
D03*
X3459410Y83020D02*
D03*
X3466910Y63020D02*
D03*
X3459410Y43020D02*
D03*
X3439410Y35520D02*
D03*
X3419410Y43020D02*
D03*
X3411910Y63020D02*
D03*
X3419410Y83020D02*
D03*
X2839410Y90520D02*
D03*
X2819410Y83020D02*
D03*
X2811910Y63020D02*
D03*
X2819410Y43020D02*
D03*
X2839410Y35520D02*
D03*
X2859410Y43020D02*
D03*
X2866910Y63020D02*
D03*
X2859410Y83020D02*
D03*
X3439410Y540520D02*
D03*
X3459410Y533020D02*
D03*
X3466910Y513020D02*
D03*
X3459410Y493020D02*
D03*
X3439410Y485520D02*
D03*
X3419410Y493020D02*
D03*
X3411910Y513020D02*
D03*
X3419410Y533020D02*
D03*
X2839410Y540520D02*
D03*
X2859410Y533020D02*
D03*
X2866910Y513020D02*
D03*
X2859410Y493020D02*
D03*
X2839410Y485520D02*
D03*
X2819410Y493020D02*
D03*
X2811910Y513020D02*
D03*
X2819410Y533020D02*
D03*
X3230000Y80000D02*
D03*
X3000000Y160000D02*
D03*
X3210000Y50000D02*
D03*
X3310000Y150000D02*
D03*
X3170000Y340000D02*
D03*
X3040000Y420000D02*
D03*
X2400000D02*
D03*
X2490000Y700000D02*
D03*
X2650000Y550000D02*
D03*
X2700055Y665870D02*
D03*
X3190000Y410000D02*
D03*
X3163904Y414640D02*
D03*
X3100000Y520000D02*
D03*
Y550000D02*
D03*
X3050000Y540000D02*
D03*
X3000000Y480000D02*
D03*
X3030000Y580000D02*
D03*
Y550000D02*
D03*
X3025652Y530408D02*
D03*
X3020000Y510000D02*
D03*
X3090000Y450000D02*
D03*
X2237563Y221143D02*
D03*
X2343056Y65136D02*
D03*
X2307017Y146520D02*
D03*
X2342784Y95750D02*
D03*
X2518389Y65820D02*
D03*
X2301438Y182962D02*
D03*
X2253762Y289000D02*
D03*
X2295574Y189790D02*
D03*
X2363500Y148000D02*
D03*
X2374143Y189643D02*
D03*
X2249500Y252500D02*
D03*
X2250250Y240250D02*
D03*
X2383357Y182357D02*
D03*
X2471750Y184750D02*
D03*
X2953165Y215447D02*
D03*
X3295750Y307750D02*
D03*
X1489250Y179000D02*
D03*
X1550750Y198000D02*
D03*
X1459750Y198000D02*
D03*
X1233266Y249250D02*
D03*
X1233266Y158250D02*
D03*
X3014500Y148500D02*
D03*
X2940750Y85750D02*
D03*
X3026932Y60080D02*
D03*
X3069538Y55532D02*
D03*
X2934500Y60500D02*
D03*
X2925500D02*
D03*
X2262762Y330374D02*
D03*
X2248000Y355750D02*
D03*
X2086000Y363750D02*
D03*
X1950500Y306000D02*
D03*
X1996500Y314250D02*
D03*
X2103500Y269750D02*
D03*
X2958391Y282884D02*
D03*
X3149500Y60000D02*
D03*
X2704250Y191250D02*
D03*
X2702500Y215250D02*
D03*
X2224530Y188324D02*
D03*
X2225500Y147000D02*
D03*
X898250Y37000D02*
D03*
X488750Y20250D02*
D03*
X2672750Y272750D02*
D03*
X3073710Y528341D02*
D03*
X2260198Y90949D02*
D03*
X2263750Y58250D02*
D03*
X2423059Y68878D02*
D03*
X2423546Y90834D02*
D03*
X2756000Y314000D02*
D03*
X3201750Y422250D02*
D03*
X3216500Y460500D02*
D03*
X3212819Y503360D02*
D03*
X3067036Y509804D02*
D03*
X3323356Y209240D02*
D03*
X1147500Y149750D02*
D03*
X1147500Y240750D02*
D03*
X3125250Y458500D02*
D03*
X2235000Y182750D02*
D03*
X3065250Y346000D02*
D03*
X3220815Y446233D02*
D03*
X3057500Y90500D02*
D03*
X3325750Y271500D02*
D03*
X2959282Y192570D02*
D03*
X2958750Y180000D02*
D03*
X2766250Y422000D02*
D03*
X1535000Y21750D02*
D03*
X455500Y49250D02*
D03*
X395500Y49500D02*
D03*
X841648Y55148D02*
D03*
X947000Y63500D02*
D03*
X1509000Y58000D02*
D03*
X2598000Y545000D02*
D03*
X2604871Y599307D02*
D03*
X3130793Y446675D02*
D03*
X3161425Y448000D02*
D03*
X2561000Y368000D02*
D03*
X2512000Y403500D02*
D03*
X2465250Y347750D02*
D03*
X2494500Y345000D02*
D03*
X2691642Y274795D02*
D03*
X2697550Y265038D02*
D03*
X3164750Y361500D02*
D03*
X2956500Y334000D02*
D03*
X2959124Y317789D02*
D03*
X3196750Y491250D02*
D03*
X3196868Y447593D02*
D03*
X3086500Y474750D02*
D03*
X3037250Y475500D02*
D03*
X3148431Y550168D02*
D03*
X2770000Y263500D02*
D03*
X1406100Y457000D02*
D03*
X1416100Y482000D02*
D03*
X1406100Y507000D02*
D03*
X1381100Y517000D02*
D03*
X2606900Y294000D02*
D03*
X2575375Y455375D02*
D03*
X2075000Y195000D02*
D03*
X2095000Y187500D02*
D03*
X2102500Y167500D02*
D03*
X2095000Y147500D02*
D03*
X2075000Y140000D02*
D03*
X2055000Y147500D02*
D03*
X2047500Y167500D02*
D03*
X2055000Y187500D02*
D03*
X657200Y482000D02*
D03*
X717200Y507000D02*
D03*
X667200Y457000D02*
D03*
X692200Y447000D02*
D03*
X727200Y482000D02*
D03*
X692200Y517000D02*
D03*
X717200Y457000D02*
D03*
X835000Y482000D02*
D03*
X870000Y447000D02*
D03*
X845000Y457000D02*
D03*
X835000Y482000D02*
D03*
X845000Y507000D02*
D03*
X870000Y517000D02*
D03*
X895000Y507000D02*
D03*
X845000Y457000D02*
D03*
X895000D02*
D03*
X870000Y447000D02*
D03*
X845000Y507000D02*
D03*
X870000Y517000D02*
D03*
X895000Y507000D02*
D03*
Y457000D02*
D03*
X905000Y482000D02*
D03*
X1732000Y302000D02*
D03*
X2807500Y695000D02*
D03*
X2787500Y687500D02*
D03*
X2780000Y667500D02*
D03*
X2787500Y647500D02*
D03*
X2807500Y640000D02*
D03*
X2827500Y647500D02*
D03*
X2835000Y667500D02*
D03*
X2827500Y687500D02*
D03*
X3375000Y195000D02*
D03*
X3395000Y187500D02*
D03*
X3402500Y167500D02*
D03*
X3395000Y147500D02*
D03*
X3375000Y140000D02*
D03*
X3355000Y147500D02*
D03*
X3347500Y167500D02*
D03*
X3355000Y187500D02*
D03*
X370400Y517000D02*
D03*
X405400Y482000D02*
D03*
X395400Y457000D02*
D03*
Y507000D02*
D03*
X345400D02*
D03*
X335400Y482000D02*
D03*
X345400Y457000D02*
D03*
X370400Y447000D02*
D03*
X405400Y482000D02*
D03*
X395400Y457000D02*
D03*
X335400Y482000D02*
D03*
X345400Y507000D02*
D03*
Y457000D02*
D03*
X167600Y507000D02*
D03*
X192600Y517000D02*
D03*
X167600Y457000D02*
D03*
X217600D02*
D03*
X227600Y482000D02*
D03*
X217600Y507000D02*
D03*
X192600Y447000D02*
D03*
X157600Y482000D02*
D03*
X667200Y507000D02*
D03*
X905000Y482000D02*
D03*
X1740000Y700000D02*
D03*
X458250Y67750D02*
D03*
X2724030Y223447D02*
D03*
X2522189Y241081D02*
D03*
X2759000Y283750D02*
D03*
X2092595Y75250D02*
D03*
X953000Y24500D02*
D03*
X349750Y57250D02*
D03*
X1567250Y67250D02*
D03*
X2628563Y226356D02*
D03*
X2634500Y402750D02*
D03*
X1444750Y53500D02*
D03*
X1535250Y67250D02*
D03*
X2494750Y494500D02*
D03*
X2528638Y390042D02*
D03*
X2628250Y356750D02*
D03*
X2481500Y240500D02*
D03*
X2627970Y202500D02*
D03*
X2500750Y542500D02*
D03*
X2511250Y545500D02*
D03*
X2522000Y547000D02*
D03*
X1705250Y32500D02*
D03*
X1701500Y42500D02*
D03*
X1731500Y51000D02*
D03*
X1356100Y507000D02*
D03*
Y457000D02*
D03*
X1381100Y447000D02*
D03*
X1346100Y482000D02*
D03*
X1593900D02*
D03*
X1583900Y457000D02*
D03*
Y507000D02*
D03*
X1558900Y517000D02*
D03*
X1533900Y507000D02*
D03*
X1523900Y482000D02*
D03*
X1533900Y457000D02*
D03*
X1558900Y447000D02*
D03*
X1593900Y482000D02*
D03*
X1583900Y457000D02*
D03*
Y507000D02*
D03*
X1558900Y517000D02*
D03*
X1533900Y507000D02*
D03*
X1523900Y482000D02*
D03*
X1533900Y457000D02*
D03*
X1558900Y447000D02*
D03*
X395400Y507000D02*
D03*
X370400Y517000D02*
D03*
Y447000D02*
D03*
D106*
X3010750Y47200D02*
D03*
Y59900D02*
D03*
Y72600D02*
D03*
Y85300D02*
D03*
X2961250D02*
D03*
Y72600D02*
D03*
Y59900D02*
D03*
Y47200D02*
D03*
D107*
X2247783Y343284D02*
D03*
Y330583D02*
D03*
Y317883D02*
D03*
Y305184D02*
D03*
X2138783Y343284D02*
D03*
Y330583D02*
D03*
Y317883D02*
D03*
D108*
Y305184D02*
D03*
D109*
X2270000Y432500D02*
D03*
Y467500D02*
D03*
X2290000Y522500D02*
D03*
Y557500D02*
D03*
X2207500Y89250D02*
D03*
Y54250D02*
D03*
X2361500Y89250D02*
D03*
Y54250D02*
D03*
X2289500Y89250D02*
D03*
Y54250D02*
D03*
D110*
X1794200Y240000D02*
D03*
X1840000D02*
D03*
D111*
X1817100Y174800D02*
D03*
D112*
X2540000Y306900D02*
D03*
Y319600D02*
D03*
Y332300D02*
D03*
Y345000D02*
D03*
Y357700D02*
D03*
Y370400D02*
D03*
Y383100D02*
D03*
X2594000Y306900D02*
D03*
Y319600D02*
D03*
Y332300D02*
D03*
Y345000D02*
D03*
Y357700D02*
D03*
Y383100D02*
D03*
Y370400D02*
D03*
D113*
X1775000Y274000D02*
D03*
Y246000D02*
D03*
D114*
X1744000Y275000D02*
D03*
X1716000D02*
D03*
M02*
