G04*
G04 #@! TF.GenerationSoftware,Altium Limited,Altium Designer,18.1.9 (240)*
G04*
G04 Layer_Physical_Order=4*
G04 Layer_Color=16711680*
%FSLAX44Y44*%
%MOMM*%
G71*
G01*
G75*
%ADD12C,0.3000*%
%ADD18R,1.3000X0.7000*%
%ADD19R,1.3000X0.9000*%
%ADD26R,0.7000X1.3000*%
%ADD51C,0.2540*%
%ADD52C,0.5000*%
%ADD54C,1.9000*%
%ADD55C,1.7500*%
%ADD56C,1.6000*%
%ADD57R,1.6000X1.6000*%
%ADD58C,6.0000*%
%ADD59C,1.3000*%
%ADD60C,0.8000*%
%ADD61C,0.7000*%
%ADD62C,0.6000*%
%ADD75R,2.2100X2.2000*%
%ADD76R,2.3000X1.7000*%
%ADD77R,1.8000X1.0000*%
%ADD78R,1.0000X1.8000*%
%ADD79R,1.7000X2.3000*%
%ADD80R,1.2200X0.9100*%
G36*
X1280000Y508000D02*
X1279750Y507750D01*
X565750D01*
Y895250D01*
X1280000D01*
Y508000D01*
D02*
G37*
%LPC*%
G36*
X683500Y890946D02*
X681143Y890478D01*
X679145Y889143D01*
X677811Y887145D01*
X677507Y885619D01*
X673590D01*
Y887040D01*
X671127D01*
X671033Y887059D01*
X670933Y887040D01*
X670793D01*
X670743Y887045D01*
X670729Y887040D01*
X646410D01*
Y859960D01*
X673590D01*
Y877381D01*
X680212D01*
X681788Y877694D01*
X683125Y878587D01*
X683222Y878685D01*
X683500Y878630D01*
X685857Y879099D01*
X687855Y880433D01*
X689190Y882431D01*
X689658Y884788D01*
X689190Y887145D01*
X687855Y889143D01*
X685857Y890478D01*
X683500Y890946D01*
D02*
G37*
G36*
X1134750Y887808D02*
X1132393Y887340D01*
X1130395Y886005D01*
X1129061Y884007D01*
X1128592Y881650D01*
X1128957Y879811D01*
X1128923Y879756D01*
X1127878Y878951D01*
X1125393Y879980D01*
X1122250Y880394D01*
X1119107Y879980D01*
X1116178Y878767D01*
X1113663Y876837D01*
X1113430Y876534D01*
X1112900Y876020D01*
X1112202Y875412D01*
X1111522Y874891D01*
X1110864Y874452D01*
X1110229Y874094D01*
X1109620Y873812D01*
X1109034Y873601D01*
X1108470Y873456D01*
X1108037Y873389D01*
X1096424D01*
X1094458Y872998D01*
X1092790Y871884D01*
X1081389Y860482D01*
X1080513Y859670D01*
X1079784Y859088D01*
X1079142Y858641D01*
X1078966Y858540D01*
X1064210D01*
Y843460D01*
X1064539D01*
X1064730Y842887D01*
X1064751Y842190D01*
X1063587Y841413D01*
X1034794Y812619D01*
X827206D01*
X761413Y878413D01*
X760076Y879306D01*
X758500Y879619D01*
X706064D01*
X705962Y879634D01*
X705841Y879661D01*
X705751Y879688D01*
X705704Y879706D01*
X705605Y879855D01*
X703607Y881190D01*
X701250Y881658D01*
X698893Y881190D01*
X696895Y879855D01*
X695561Y877857D01*
X695092Y875500D01*
X695561Y873143D01*
X696895Y871145D01*
X698893Y869810D01*
X701250Y869342D01*
X703607Y869810D01*
X705605Y871145D01*
X705704Y871294D01*
X705751Y871312D01*
X705841Y871339D01*
X705962Y871366D01*
X706064Y871381D01*
X756794D01*
X822587Y805587D01*
X823924Y804694D01*
X825500Y804381D01*
X936303D01*
X936981Y803111D01*
X936310Y802107D01*
X935842Y799750D01*
X936310Y797393D01*
X937645Y795395D01*
X937794Y795296D01*
X937812Y795249D01*
X937839Y795159D01*
X937866Y795039D01*
X937881Y794936D01*
Y789660D01*
X937875Y789625D01*
X937840Y789619D01*
X807408D01*
X787355Y809672D01*
X787293Y809756D01*
X787227Y809860D01*
X787182Y809943D01*
X787162Y809989D01*
X787196Y810164D01*
X786728Y812521D01*
X785393Y814519D01*
X783395Y815853D01*
X781038Y816322D01*
X778681Y815853D01*
X776684Y814519D01*
X775349Y812521D01*
X774880Y810164D01*
X775349Y807807D01*
X776684Y805809D01*
X778681Y804474D01*
X781038Y804006D01*
X781213Y804040D01*
X781259Y804020D01*
X781342Y803975D01*
X781446Y803909D01*
X781530Y803847D01*
X802789Y782587D01*
X804126Y781694D01*
X805702Y781381D01*
X836675D01*
X837329Y780111D01*
X836350Y778647D01*
X835882Y776290D01*
X835911Y776143D01*
X835892Y776101D01*
X835846Y776016D01*
X835779Y775911D01*
X835716Y775827D01*
X793492Y733602D01*
X793408Y733540D01*
X793304Y733474D01*
X793221Y733429D01*
X793175Y733409D01*
X793000Y733444D01*
X790643Y732975D01*
X788645Y731640D01*
X787310Y729642D01*
X786842Y727285D01*
X787310Y724929D01*
X788645Y722931D01*
X790643Y721596D01*
X793000Y721127D01*
X795357Y721596D01*
X797355Y722931D01*
X798690Y724929D01*
X799158Y727285D01*
X799124Y727460D01*
X799144Y727506D01*
X799189Y727590D01*
X799255Y727694D01*
X799317Y727777D01*
X841520Y769980D01*
X841603Y770042D01*
X841705Y770107D01*
X841786Y770150D01*
X841837Y770172D01*
X842040Y770132D01*
X844397Y770600D01*
X846395Y771935D01*
X847729Y773933D01*
X848198Y776290D01*
X847729Y778647D01*
X846751Y780111D01*
X847405Y781381D01*
X1064794D01*
X1116337Y729837D01*
X1117674Y728944D01*
X1119250Y728631D01*
X1121936D01*
X1122038Y728616D01*
X1122159Y728589D01*
X1122249Y728562D01*
X1122296Y728544D01*
X1122395Y728395D01*
X1124393Y727060D01*
X1126750Y726592D01*
X1129107Y727060D01*
X1131105Y728395D01*
X1132439Y730393D01*
X1132908Y732750D01*
X1132439Y735107D01*
X1132157Y735530D01*
X1133143Y736340D01*
X1145173Y724310D01*
X1144647Y723040D01*
X1124710D01*
Y701960D01*
X1142192D01*
X1142678Y700787D01*
X1076030Y634139D01*
X1044931D01*
X1044107Y634690D01*
X1041750Y635158D01*
X1039393Y634690D01*
X1037395Y633355D01*
X1036060Y631357D01*
X1035592Y629000D01*
X1036060Y626643D01*
X1036611Y625819D01*
Y615750D01*
X1037002Y613783D01*
X1038116Y612116D01*
X1112447Y537786D01*
X1112669Y537490D01*
X1112948Y537034D01*
X1113195Y536533D01*
X1113409Y535983D01*
X1113588Y535377D01*
X1113732Y534714D01*
X1113835Y533990D01*
X1113895Y533207D01*
X1113906Y532580D01*
X1113863Y532250D01*
X1114251Y529303D01*
X1115388Y526556D01*
X1117198Y524198D01*
X1119556Y522388D01*
X1122303Y521251D01*
X1125250Y520863D01*
X1128197Y521251D01*
X1130944Y522388D01*
X1133302Y524198D01*
X1135112Y526556D01*
X1136249Y529303D01*
X1136637Y532250D01*
X1136249Y535197D01*
X1135112Y537944D01*
X1133302Y540302D01*
X1130944Y542112D01*
X1128197Y543249D01*
X1125250Y543637D01*
X1124920Y543594D01*
X1124293Y543605D01*
X1123510Y543665D01*
X1122786Y543769D01*
X1122123Y543912D01*
X1121517Y544091D01*
X1120967Y544305D01*
X1120466Y544552D01*
X1120010Y544831D01*
X1119714Y545053D01*
X1046889Y617878D01*
Y623861D01*
X1078158D01*
X1080125Y624252D01*
X1081792Y625366D01*
X1155634Y699208D01*
X1156748Y700875D01*
X1157139Y702842D01*
Y724750D01*
X1156898Y725963D01*
X1156915Y726002D01*
X1157998Y726940D01*
X1159750Y726592D01*
X1162107Y727060D01*
X1164105Y728395D01*
X1164204Y728544D01*
X1164250Y728562D01*
X1164341Y728589D01*
X1164462Y728616D01*
X1164564Y728631D01*
X1173210D01*
Y708960D01*
X1195290D01*
Y723131D01*
X1210210D01*
Y715710D01*
X1225290D01*
Y732025D01*
X1226560Y732703D01*
X1226631Y732656D01*
Y720000D01*
X1226944Y718424D01*
X1227837Y717087D01*
X1237087Y707837D01*
X1238424Y706944D01*
X1240000Y706631D01*
X1247544D01*
X1267131Y687044D01*
Y642206D01*
X1250052Y625128D01*
X1250047Y625123D01*
X1249722Y624915D01*
X1249272Y624697D01*
X1248692Y624486D01*
X1247983Y624292D01*
X1247148Y624126D01*
X1246631Y624055D01*
X1246296Y625290D01*
X1248572Y626233D01*
X1251087Y628163D01*
X1253017Y630678D01*
X1254230Y633607D01*
X1254644Y636750D01*
X1254230Y639893D01*
X1253201Y642378D01*
X1254006Y643423D01*
X1254061Y643457D01*
X1255900Y643092D01*
X1258257Y643560D01*
X1260255Y644895D01*
X1261590Y646893D01*
X1262058Y649250D01*
X1261590Y651607D01*
X1260255Y653605D01*
X1258257Y654940D01*
X1255900Y655408D01*
X1254061Y655043D01*
X1254006Y655077D01*
X1253201Y656122D01*
X1254230Y658607D01*
X1254644Y661750D01*
X1254230Y664893D01*
X1253017Y667822D01*
X1251087Y670337D01*
X1248572Y672267D01*
X1245643Y673480D01*
X1242500Y673894D01*
X1239357Y673480D01*
X1236428Y672267D01*
X1233913Y670337D01*
X1233668Y670018D01*
X1232958Y669317D01*
X1231210Y667781D01*
X1230462Y667215D01*
X1229754Y666741D01*
X1229116Y666377D01*
X1228556Y666117D01*
X1228085Y665952D01*
X1227708Y665870D01*
X1227700Y665869D01*
X1224750D01*
X1223174Y665556D01*
X1221837Y664663D01*
X1131945Y574771D01*
X1131663Y574586D01*
X1131262Y574387D01*
X1130748Y574192D01*
X1130121Y574013D01*
X1129381Y573859D01*
X1128561Y573740D01*
X1126491Y573598D01*
X1125600Y573591D01*
X1125250Y573637D01*
X1122303Y573249D01*
X1119556Y572112D01*
X1117198Y570302D01*
X1115388Y567944D01*
X1114251Y565197D01*
X1113863Y562250D01*
X1114251Y559303D01*
X1115388Y556556D01*
X1117198Y554198D01*
X1119556Y552388D01*
X1122303Y551251D01*
X1125250Y550863D01*
X1128197Y551251D01*
X1130944Y552388D01*
X1133302Y554198D01*
X1135112Y556556D01*
X1136249Y559303D01*
X1136637Y562250D01*
X1136596Y562563D01*
X1136650Y564603D01*
X1136736Y565532D01*
X1136859Y566381D01*
X1137013Y567121D01*
X1137192Y567749D01*
X1137387Y568262D01*
X1137586Y568662D01*
X1137770Y568945D01*
X1226456Y657631D01*
X1227700D01*
X1227708Y657630D01*
X1228085Y657548D01*
X1228556Y657383D01*
X1229116Y657123D01*
X1229754Y656759D01*
X1230462Y656286D01*
X1231210Y655719D01*
X1232958Y654183D01*
X1233668Y653482D01*
X1233913Y653163D01*
X1236428Y651233D01*
X1239357Y650020D01*
X1240340Y649891D01*
Y648609D01*
X1239357Y648480D01*
X1236428Y647267D01*
X1233913Y645337D01*
X1231983Y642822D01*
X1230770Y639893D01*
X1230356Y636750D01*
X1230409Y636351D01*
X1230402Y635354D01*
X1230252Y633031D01*
X1230124Y632102D01*
X1229958Y631267D01*
X1229764Y630558D01*
X1229553Y629978D01*
X1229335Y629528D01*
X1229127Y629203D01*
X1229123Y629198D01*
X1176837Y576913D01*
X1175944Y575576D01*
X1175631Y574000D01*
Y558456D01*
X1161945Y544771D01*
X1161663Y544586D01*
X1161262Y544387D01*
X1160748Y544192D01*
X1160121Y544013D01*
X1159381Y543859D01*
X1158561Y543740D01*
X1156491Y543598D01*
X1155600Y543591D01*
X1155250Y543637D01*
X1152303Y543249D01*
X1149556Y542112D01*
X1147198Y540302D01*
X1145388Y537944D01*
X1144251Y535197D01*
X1143863Y532250D01*
X1144251Y529303D01*
X1145388Y526556D01*
X1147198Y524198D01*
X1149556Y522388D01*
X1152303Y521251D01*
X1155250Y520863D01*
X1158197Y521251D01*
X1160944Y522388D01*
X1163302Y524198D01*
X1165112Y526556D01*
X1166249Y529303D01*
X1166637Y532250D01*
X1166596Y532563D01*
X1166650Y534603D01*
X1166736Y535532D01*
X1166859Y536381D01*
X1167013Y537121D01*
X1167192Y537749D01*
X1167387Y538262D01*
X1167586Y538662D01*
X1167770Y538945D01*
X1182663Y553837D01*
X1183556Y555174D01*
X1183869Y556750D01*
Y572294D01*
X1234948Y623372D01*
X1234953Y623377D01*
X1235278Y623585D01*
X1235728Y623803D01*
X1236308Y624014D01*
X1237017Y624208D01*
X1237852Y624374D01*
X1238369Y624445D01*
X1238704Y623209D01*
X1236428Y622267D01*
X1233913Y620337D01*
X1231983Y617822D01*
X1230770Y614893D01*
X1230356Y611750D01*
X1230770Y608607D01*
X1231983Y605678D01*
X1233913Y603163D01*
X1236428Y601233D01*
X1239357Y600020D01*
X1242500Y599606D01*
X1245643Y600020D01*
X1248572Y601233D01*
X1251087Y603163D01*
X1253017Y605678D01*
X1254230Y608607D01*
X1254644Y611750D01*
X1254591Y612149D01*
X1254598Y613146D01*
X1254748Y615469D01*
X1254876Y616398D01*
X1255042Y617233D01*
X1255236Y617943D01*
X1255447Y618522D01*
X1255665Y618972D01*
X1255873Y619297D01*
X1255878Y619302D01*
X1274163Y637587D01*
X1275056Y638924D01*
X1275369Y640500D01*
Y688750D01*
X1275056Y690326D01*
X1274163Y691663D01*
X1252163Y713663D01*
X1250999Y714440D01*
X1251020Y715137D01*
X1251210Y715710D01*
X1253290D01*
Y738790D01*
X1246189D01*
X1246027Y739605D01*
X1245134Y740942D01*
X1231628Y754448D01*
X1231623Y754453D01*
X1231415Y754778D01*
X1231197Y755228D01*
X1230986Y755807D01*
X1230792Y756517D01*
X1230626Y757352D01*
X1230555Y757868D01*
X1231790Y758204D01*
X1232733Y755928D01*
X1234663Y753413D01*
X1237178Y751483D01*
X1240107Y750270D01*
X1243250Y749856D01*
X1246393Y750270D01*
X1249322Y751483D01*
X1251837Y753413D01*
X1253767Y755928D01*
X1254980Y758857D01*
X1255394Y762000D01*
X1254980Y765143D01*
X1253951Y767628D01*
X1254756Y768673D01*
X1254811Y768707D01*
X1256650Y768342D01*
X1259007Y768811D01*
X1261005Y770145D01*
X1262339Y772143D01*
X1262808Y774500D01*
X1262339Y776857D01*
X1261005Y778855D01*
X1259007Y780190D01*
X1256650Y780658D01*
X1254811Y780293D01*
X1254756Y780327D01*
X1253951Y781372D01*
X1254980Y783857D01*
X1255394Y787000D01*
X1254980Y790143D01*
X1253767Y793072D01*
X1251837Y795587D01*
X1249322Y797517D01*
X1246393Y798730D01*
X1243250Y799144D01*
X1242851Y799091D01*
X1241854Y799098D01*
X1239531Y799248D01*
X1238602Y799376D01*
X1237767Y799542D01*
X1237057Y799736D01*
X1236478Y799947D01*
X1236028Y800165D01*
X1235703Y800373D01*
X1235698Y800378D01*
X1205119Y830956D01*
Y856000D01*
X1204806Y857576D01*
X1203913Y858913D01*
X1196666Y866160D01*
X1196200Y866661D01*
X1195890Y867049D01*
X1195790Y867193D01*
Y867926D01*
X1195809Y868023D01*
X1195790Y868120D01*
Y876290D01*
X1172710D01*
Y861210D01*
X1188880D01*
X1188977Y861191D01*
X1189074Y861210D01*
X1189808D01*
X1189922Y861131D01*
X1190717Y860458D01*
X1196881Y854294D01*
Y848723D01*
X1195790Y848290D01*
X1195611Y848290D01*
X1172710D01*
Y833210D01*
X1180131D01*
Y819165D01*
X1173210D01*
Y817369D01*
X1117956D01*
X1093913Y841413D01*
X1092576Y842306D01*
X1091000Y842619D01*
X1088212D01*
X1087290Y843460D01*
X1087290Y843889D01*
Y851458D01*
X1087691Y852029D01*
X1088947Y853505D01*
X1098553Y863111D01*
X1108037D01*
X1108470Y863044D01*
X1109034Y862899D01*
X1109620Y862688D01*
X1110230Y862406D01*
X1110864Y862048D01*
X1111522Y861609D01*
X1112202Y861088D01*
X1112900Y860480D01*
X1113430Y859967D01*
X1113663Y859663D01*
X1116178Y857733D01*
X1119107Y856520D01*
X1120090Y856391D01*
Y855109D01*
X1119107Y854980D01*
X1116178Y853767D01*
X1113663Y851837D01*
X1111733Y849322D01*
X1110520Y846393D01*
X1110106Y843250D01*
X1110520Y840107D01*
X1111733Y837178D01*
X1113663Y834663D01*
X1116178Y832733D01*
X1119107Y831520D01*
X1122250Y831106D01*
X1125393Y831520D01*
X1128322Y832733D01*
X1130837Y834663D01*
X1132767Y837178D01*
X1133980Y840107D01*
X1134109Y841090D01*
X1135390D01*
X1135520Y840107D01*
X1136733Y837178D01*
X1138663Y834663D01*
X1141178Y832733D01*
X1144107Y831520D01*
X1147250Y831106D01*
X1150393Y831520D01*
X1153322Y832733D01*
X1155837Y834663D01*
X1157767Y837178D01*
X1158980Y840107D01*
X1159394Y843250D01*
X1158980Y846393D01*
X1157767Y849322D01*
X1155837Y851837D01*
X1153322Y853767D01*
X1150393Y854980D01*
X1147250Y855394D01*
X1144107Y854980D01*
X1141178Y853767D01*
X1138663Y851837D01*
X1136733Y849322D01*
X1135520Y846393D01*
X1135390Y845410D01*
X1134109D01*
X1133980Y846393D01*
X1132767Y849322D01*
X1130837Y851837D01*
X1128322Y853767D01*
X1125393Y854980D01*
X1124410Y855109D01*
Y856391D01*
X1125393Y856520D01*
X1128322Y857733D01*
X1130837Y859663D01*
X1132767Y862178D01*
X1133980Y865107D01*
X1134394Y868250D01*
X1133980Y871393D01*
X1132767Y874322D01*
X1132523Y874640D01*
X1133240Y875792D01*
X1134750Y875492D01*
X1137107Y875960D01*
X1139105Y877295D01*
X1140440Y879293D01*
X1140908Y881650D01*
X1140440Y884007D01*
X1139105Y886005D01*
X1137107Y887340D01*
X1134750Y887808D01*
D02*
G37*
G36*
X1070250Y883558D02*
X1067893Y883090D01*
X1065895Y881755D01*
X1064560Y879757D01*
X1064092Y877400D01*
X1064560Y875043D01*
X1065895Y873045D01*
X1067893Y871710D01*
X1070250Y871242D01*
X1072607Y871710D01*
X1074605Y873045D01*
X1075939Y875043D01*
X1076408Y877400D01*
X1075939Y879757D01*
X1074605Y881755D01*
X1072607Y883090D01*
X1070250Y883558D01*
D02*
G37*
G36*
X1010250D02*
X1007893Y883090D01*
X1005895Y881755D01*
X1004560Y879757D01*
X1004092Y877400D01*
X1004560Y875043D01*
X1005895Y873045D01*
X1007893Y871710D01*
X1010250Y871242D01*
X1012607Y871710D01*
X1014605Y873045D01*
X1015939Y875043D01*
X1016408Y877400D01*
X1015939Y879757D01*
X1014605Y881755D01*
X1012607Y883090D01*
X1010250Y883558D01*
D02*
G37*
G36*
X841243Y870899D02*
X839081Y870469D01*
X837249Y869244D01*
X836024Y867412D01*
X835594Y865250D01*
X836024Y863088D01*
X837249Y861256D01*
X839081Y860032D01*
X841243Y859602D01*
X843404Y860032D01*
X845237Y861256D01*
X846461Y863088D01*
X846891Y865250D01*
X846461Y867412D01*
X845237Y869244D01*
X843404Y870469D01*
X841243Y870899D01*
D02*
G37*
G36*
X1040250Y879387D02*
X1037303Y878999D01*
X1034556Y877862D01*
X1032198Y876052D01*
X1030388Y873694D01*
X1029251Y870947D01*
X1028863Y868000D01*
X1029251Y865053D01*
X1030388Y862306D01*
X1032198Y859948D01*
X1034556Y858138D01*
X1037303Y857001D01*
X1040250Y856613D01*
X1043197Y857001D01*
X1045944Y858138D01*
X1048302Y859948D01*
X1050112Y862306D01*
X1051249Y865053D01*
X1051637Y868000D01*
X1051249Y870947D01*
X1050112Y873694D01*
X1048302Y876052D01*
X1045944Y877862D01*
X1043197Y878999D01*
X1040250Y879387D01*
D02*
G37*
G36*
X737000Y847908D02*
X734643Y847440D01*
X732645Y846105D01*
X732519Y845915D01*
X732492Y845908D01*
X732402Y845890D01*
X732191Y845869D01*
X731500D01*
X729924Y845556D01*
X728587Y844663D01*
X688087Y804163D01*
X687194Y802826D01*
X686881Y801250D01*
Y618190D01*
X682360D01*
Y609984D01*
X682294Y609889D01*
X681616Y609091D01*
X674087Y601563D01*
X673194Y600226D01*
X672881Y598650D01*
Y546954D01*
X673036Y546172D01*
X671233Y543822D01*
X670020Y540893D01*
X669606Y537750D01*
X670020Y534607D01*
X671233Y531678D01*
X673163Y529163D01*
X675678Y527233D01*
X678607Y526020D01*
X681750Y525606D01*
X684893Y526020D01*
X687822Y527233D01*
X690337Y529163D01*
X692267Y531678D01*
X693480Y534607D01*
X693609Y535590D01*
X694891D01*
X695020Y534607D01*
X696233Y531678D01*
X698163Y529163D01*
X700678Y527233D01*
X703607Y526020D01*
X706750Y525606D01*
X709893Y526020D01*
X712378Y527049D01*
X713423Y526244D01*
X713457Y526189D01*
X713092Y524350D01*
X713560Y521993D01*
X714895Y519995D01*
X716893Y518661D01*
X719250Y518192D01*
X721607Y518661D01*
X723605Y519995D01*
X724939Y521993D01*
X725408Y524350D01*
X725043Y526189D01*
X725077Y526244D01*
X726122Y527049D01*
X728607Y526020D01*
X731750Y525606D01*
X734893Y526020D01*
X737822Y527233D01*
X740337Y529163D01*
X742267Y531678D01*
X743480Y534607D01*
X743609Y535590D01*
X744891D01*
X745020Y534607D01*
X746233Y531678D01*
X748163Y529163D01*
X750678Y527233D01*
X753607Y526020D01*
X756750Y525606D01*
X759893Y526020D01*
X762822Y527233D01*
X765337Y529163D01*
X767267Y531678D01*
X768480Y534607D01*
X768894Y537750D01*
X768480Y540893D01*
X768253Y541441D01*
X768253Y541444D01*
X768230Y541540D01*
X768240Y541582D01*
X768300Y541733D01*
X768418Y541958D01*
X768603Y542246D01*
X768861Y542588D01*
X768899Y542632D01*
X769634Y543366D01*
X770748Y545033D01*
X771139Y547000D01*
Y569746D01*
X771171Y570116D01*
X771259Y570648D01*
X771360Y571024D01*
X771375Y571060D01*
X774640D01*
Y585240D01*
X757360D01*
Y571060D01*
X760626D01*
X760640Y571024D01*
X760741Y570648D01*
X760829Y570116D01*
X760861Y569746D01*
Y550454D01*
X760428Y550018D01*
X759591Y549520D01*
X756750Y549894D01*
X753607Y549480D01*
X750678Y548267D01*
X748163Y546337D01*
X746233Y543822D01*
X745020Y540893D01*
X744891Y539910D01*
X743609D01*
X743480Y540893D01*
X742267Y543822D01*
X740337Y546337D01*
X737822Y548267D01*
X737193Y548527D01*
X737143Y548568D01*
X736354Y548992D01*
X735758Y549382D01*
X735263Y549778D01*
X734861Y550177D01*
X734542Y550578D01*
X734292Y550986D01*
X734100Y551412D01*
X733961Y551870D01*
X733889Y552292D01*
Y569746D01*
X733921Y570116D01*
X734009Y570648D01*
X734110Y571024D01*
X734124Y571060D01*
X737390D01*
Y585240D01*
X720110D01*
Y571060D01*
X723376D01*
X723390Y571024D01*
X723491Y570648D01*
X723579Y570116D01*
X723611Y569746D01*
Y550491D01*
X723570Y550149D01*
X723458Y549547D01*
X723037Y548008D01*
X722771Y547243D01*
X721508Y544303D01*
X721334Y543953D01*
X721233Y543822D01*
X721058Y543398D01*
X720980Y543241D01*
X720954Y543149D01*
X720020Y540893D01*
X719891Y539910D01*
X718609D01*
X718480Y540893D01*
X717267Y543822D01*
X715337Y546337D01*
X712822Y548267D01*
X709893Y549480D01*
X706750Y549894D01*
X706371Y549844D01*
X705633Y549855D01*
X704709Y549920D01*
X703859Y550032D01*
X703084Y550187D01*
X702383Y550382D01*
X701752Y550614D01*
X701189Y550879D01*
X700687Y551175D01*
X700333Y551434D01*
X696139Y555629D01*
Y569996D01*
X696171Y570366D01*
X696259Y570898D01*
X696360Y571274D01*
X696375Y571310D01*
X699640D01*
Y585490D01*
X682389D01*
X682360Y585490D01*
X681119Y585560D01*
Y596944D01*
X687321Y603146D01*
X687818Y603608D01*
X688211Y603923D01*
X688334Y604010D01*
X699640D01*
Y606981D01*
X720110D01*
Y603760D01*
X737390D01*
Y606731D01*
X757360D01*
Y603760D01*
X774640D01*
Y617940D01*
X757360D01*
Y614969D01*
X737390D01*
Y617940D01*
X720110D01*
Y615219D01*
X699640D01*
Y618190D01*
X695119D01*
Y799544D01*
X732840Y837265D01*
X734643Y836060D01*
X737000Y835592D01*
X739357Y836060D01*
X741355Y837395D01*
X742690Y839393D01*
X743158Y841750D01*
X742690Y844107D01*
X741355Y846105D01*
X739357Y847440D01*
X737000Y847908D01*
D02*
G37*
G36*
X1040250Y849387D02*
X1037303Y848999D01*
X1034556Y847862D01*
X1032198Y846052D01*
X1030388Y843694D01*
X1029251Y840947D01*
X1028863Y838000D01*
X1029251Y835053D01*
X1030388Y832306D01*
X1032198Y829948D01*
X1034556Y828138D01*
X1037303Y827001D01*
X1040250Y826613D01*
X1043197Y827001D01*
X1045944Y828138D01*
X1048302Y829948D01*
X1050112Y832306D01*
X1051249Y835053D01*
X1051637Y838000D01*
X1051249Y840947D01*
X1050112Y843694D01*
X1048302Y846052D01*
X1045944Y847862D01*
X1043197Y848999D01*
X1040250Y849387D01*
D02*
G37*
G36*
X635250Y829596D02*
X633543Y829372D01*
X631952Y828713D01*
X630586Y827664D01*
X629537Y826298D01*
X628878Y824707D01*
X628654Y823000D01*
X628878Y821293D01*
X629537Y819702D01*
X630586Y818336D01*
X630620Y818309D01*
X630741Y818181D01*
X630829Y818071D01*
X630903Y817961D01*
X630965Y817850D01*
X631018Y817731D01*
X631064Y817600D01*
X631102Y817455D01*
X631131Y817298D01*
Y815540D01*
X629210D01*
Y797460D01*
X641290D01*
Y815540D01*
X639369D01*
Y817298D01*
X639398Y817455D01*
X639436Y817600D01*
X639482Y817731D01*
X639535Y817850D01*
X639597Y817961D01*
X639671Y818071D01*
X639759Y818181D01*
X639880Y818309D01*
X639914Y818336D01*
X640963Y819702D01*
X641622Y821293D01*
X641846Y823000D01*
X641622Y824707D01*
X640963Y826298D01*
X639914Y827664D01*
X638548Y828713D01*
X636957Y829372D01*
X635250Y829596D01*
D02*
G37*
G36*
X594750Y820158D02*
X592393Y819689D01*
X590395Y818355D01*
X589060Y816357D01*
X588592Y814000D01*
X589060Y811643D01*
X590395Y809645D01*
X592393Y808310D01*
X594750Y807842D01*
X594925Y807877D01*
X594971Y807856D01*
X595054Y807812D01*
X595158Y807745D01*
X595242Y807683D01*
X597837Y805087D01*
X599174Y804194D01*
X600750Y803881D01*
X610210D01*
Y797460D01*
X622290D01*
Y815540D01*
X610210D01*
Y812119D01*
X602456D01*
X601067Y813508D01*
X601005Y813592D01*
X600938Y813696D01*
X600894Y813779D01*
X600873Y813825D01*
X600908Y814000D01*
X600439Y816357D01*
X599105Y818355D01*
X597107Y819689D01*
X594750Y820158D01*
D02*
G37*
G36*
X762290Y805040D02*
X744210D01*
Y792960D01*
X755268D01*
X755355Y792941D01*
X755459Y792960D01*
X756228D01*
X756355Y792872D01*
X757145Y792203D01*
X762039Y787310D01*
X761513Y786040D01*
X744210D01*
Y773960D01*
X762290D01*
Y773960D01*
X762410Y774059D01*
X763500Y773842D01*
X763728Y773887D01*
X764710Y773081D01*
Y772960D01*
X782790D01*
Y782762D01*
X783772Y783567D01*
X784710Y783381D01*
X786872Y783811D01*
X788704Y785035D01*
X789929Y786868D01*
X790359Y789029D01*
X789929Y791191D01*
X788704Y793023D01*
X786872Y794248D01*
X784710Y794678D01*
X782549Y794248D01*
X780919Y793159D01*
X780900Y793156D01*
X780811Y793148D01*
X767851D01*
X763163Y797837D01*
X762694Y798341D01*
X762381Y798732D01*
X762290Y798863D01*
Y799564D01*
X762309Y799651D01*
X762290Y799755D01*
Y805040D01*
D02*
G37*
G36*
X621500Y786644D02*
X618357Y786230D01*
X615428Y785017D01*
X612913Y783087D01*
X610983Y780572D01*
X609770Y777643D01*
X609356Y774500D01*
X609770Y771357D01*
X610799Y768872D01*
X609994Y767827D01*
X609939Y767793D01*
X608100Y768158D01*
X605743Y767690D01*
X603745Y766355D01*
X602411Y764357D01*
X601942Y762000D01*
X602411Y759643D01*
X603745Y757645D01*
X605743Y756311D01*
X608100Y755842D01*
X609939Y756207D01*
X609994Y756173D01*
X610799Y755128D01*
X609770Y752643D01*
X609356Y749500D01*
X609770Y746357D01*
X610983Y743428D01*
X612913Y740913D01*
X615428Y738983D01*
X618357Y737770D01*
X621500Y737356D01*
X624643Y737770D01*
X627572Y738983D01*
X630087Y740913D01*
X632017Y743428D01*
X633230Y746357D01*
X633644Y749500D01*
X633230Y752643D01*
X632017Y755572D01*
X630087Y758087D01*
X627572Y760017D01*
X624643Y761230D01*
X623660Y761359D01*
Y762641D01*
X624643Y762770D01*
X627572Y763983D01*
X630087Y765913D01*
X632017Y768428D01*
X633230Y771357D01*
X633644Y774500D01*
X633230Y777643D01*
X632017Y780572D01*
X630087Y783087D01*
X627572Y785017D01*
X624643Y786230D01*
X621500Y786644D01*
D02*
G37*
G36*
X1025500Y774969D02*
X1023143Y774500D01*
X1021145Y773165D01*
X1019810Y771167D01*
X1019342Y768811D01*
X1019810Y766454D01*
X1021145Y764456D01*
X1023143Y763121D01*
X1025500Y762652D01*
X1027857Y763121D01*
X1029855Y764456D01*
X1031190Y766454D01*
X1031658Y768811D01*
X1031190Y771167D01*
X1029855Y773165D01*
X1027857Y774500D01*
X1025500Y774969D01*
D02*
G37*
G36*
X982740Y765040D02*
X961660D01*
Y743960D01*
X982740D01*
Y765040D01*
D02*
G37*
G36*
X903650Y776369D02*
X862250D01*
X860674Y776056D01*
X859337Y775163D01*
X826374Y742199D01*
X825481Y740863D01*
X825168Y739287D01*
Y702564D01*
X825152Y702461D01*
X825126Y702341D01*
X825099Y702251D01*
X825080Y702204D01*
X824932Y702105D01*
X823597Y700107D01*
X823128Y697750D01*
X823597Y695393D01*
X824932Y693395D01*
X826930Y692060D01*
X829287Y691592D01*
X831643Y692060D01*
X833641Y693395D01*
X834976Y695393D01*
X835445Y697750D01*
X834976Y700107D01*
X833641Y702105D01*
X833493Y702204D01*
X833475Y702251D01*
X833447Y702341D01*
X833421Y702461D01*
X833406Y702564D01*
Y737580D01*
X863956Y768131D01*
X901944D01*
X909736Y760338D01*
X909896Y760099D01*
X910077Y759747D01*
X910254Y759299D01*
X910417Y758753D01*
X910559Y758110D01*
X910668Y757402D01*
X910802Y755585D01*
X910809Y754800D01*
X910769Y754500D01*
X911131Y751749D01*
X912193Y749184D01*
X913883Y746983D01*
X916085Y745293D01*
X918649Y744231D01*
X921400Y743869D01*
X924152Y744231D01*
X926715Y745293D01*
X928917Y746983D01*
X930607Y749184D01*
X931669Y751749D01*
X932031Y754500D01*
X931669Y757252D01*
X930607Y759815D01*
X928917Y762017D01*
X926715Y763707D01*
X924152Y764769D01*
X921400Y765131D01*
X921133Y765096D01*
X919335Y765148D01*
X918530Y765227D01*
X917791Y765341D01*
X917147Y765482D01*
X916601Y765646D01*
X916153Y765823D01*
X915801Y766004D01*
X915562Y766163D01*
X906563Y775163D01*
X905226Y776056D01*
X903650Y776369D01*
D02*
G37*
G36*
X896000Y765131D02*
X893249Y764769D01*
X890685Y763707D01*
X888483Y762017D01*
X886793Y759815D01*
X885731Y757252D01*
X885369Y754500D01*
X885731Y751749D01*
X886793Y749184D01*
X888483Y746983D01*
X890685Y745293D01*
X893249Y744231D01*
X896000Y743869D01*
X898752Y744231D01*
X901316Y745293D01*
X903517Y746983D01*
X905207Y749184D01*
X906269Y751749D01*
X906631Y754500D01*
X906269Y757252D01*
X905207Y759815D01*
X903517Y762017D01*
X901316Y763707D01*
X898752Y764769D01*
X896000Y765131D01*
D02*
G37*
G36*
X1109850Y723131D02*
X1107098Y722769D01*
X1104535Y721707D01*
X1102333Y720017D01*
X1100643Y717815D01*
X1099581Y715251D01*
X1099219Y712500D01*
X1099581Y709749D01*
X1100643Y707185D01*
X1102333Y704983D01*
X1104535Y703293D01*
X1107098Y702231D01*
X1109850Y701869D01*
X1112601Y702231D01*
X1115165Y703293D01*
X1117367Y704983D01*
X1119057Y707185D01*
X1120119Y709749D01*
X1120481Y712500D01*
X1120119Y715251D01*
X1119057Y717815D01*
X1117367Y720017D01*
X1115165Y721707D01*
X1112601Y722769D01*
X1109850Y723131D01*
D02*
G37*
G36*
X1059050D02*
X1056299Y722769D01*
X1053735Y721707D01*
X1051533Y720017D01*
X1049843Y717815D01*
X1048781Y715251D01*
X1048419Y712500D01*
X1048781Y709749D01*
X1049843Y707185D01*
X1051533Y704983D01*
X1053735Y703293D01*
X1056299Y702231D01*
X1059050Y701869D01*
X1061802Y702231D01*
X1064365Y703293D01*
X1066567Y704983D01*
X1068257Y707185D01*
X1069319Y709749D01*
X1069681Y712500D01*
X1069319Y715251D01*
X1068257Y717815D01*
X1066567Y720017D01*
X1064365Y721707D01*
X1061802Y722769D01*
X1059050Y723131D01*
D02*
G37*
G36*
X1008250D02*
X1005499Y722769D01*
X1002934Y721707D01*
X1000733Y720017D01*
X999043Y717815D01*
X997981Y715251D01*
X997619Y712500D01*
X997981Y709749D01*
X999043Y707185D01*
X1000733Y704983D01*
X1002934Y703293D01*
X1005499Y702231D01*
X1008250Y701869D01*
X1011002Y702231D01*
X1013566Y703293D01*
X1015767Y704983D01*
X1017457Y707185D01*
X1018519Y709749D01*
X1018881Y712500D01*
X1018519Y715251D01*
X1017457Y717815D01*
X1015767Y720017D01*
X1013566Y721707D01*
X1011002Y722769D01*
X1008250Y723131D01*
D02*
G37*
G36*
X849250Y695908D02*
X846893Y695440D01*
X844895Y694105D01*
X843560Y692107D01*
X843092Y689750D01*
X843295Y688727D01*
X842397Y687829D01*
X842000Y687908D01*
X839643Y687439D01*
X837645Y686105D01*
X836310Y684107D01*
X835842Y681750D01*
X836310Y679393D01*
X837645Y677395D01*
X839643Y676060D01*
X842000Y675592D01*
X844357Y676060D01*
X846355Y677395D01*
X846454Y677544D01*
X846500Y677562D01*
X846591Y677589D01*
X846712Y677616D01*
X846814Y677631D01*
X858794D01*
X930631Y605794D01*
Y598814D01*
X930616Y598712D01*
X930589Y598591D01*
X930562Y598501D01*
X930544Y598454D01*
X930395Y598355D01*
X929060Y596357D01*
X928592Y594000D01*
X929060Y591643D01*
X930395Y589645D01*
X932393Y588311D01*
X934750Y587842D01*
X937107Y588311D01*
X939105Y589645D01*
X939611Y590403D01*
X940881Y590018D01*
Y560764D01*
X940866Y560662D01*
X940839Y560541D01*
X940812Y560451D01*
X940794Y560404D01*
X940645Y560305D01*
X939310Y558307D01*
X938842Y555950D01*
X939310Y553593D01*
X940645Y551595D01*
X942643Y550260D01*
X945000Y549792D01*
X947357Y550260D01*
X949355Y551595D01*
X950689Y553593D01*
X951158Y555950D01*
X950689Y558307D01*
X949355Y560305D01*
X949206Y560404D01*
X949188Y560451D01*
X949161Y560541D01*
X949134Y560662D01*
X949119Y560764D01*
Y612000D01*
X948806Y613576D01*
X947913Y614913D01*
X870163Y692663D01*
X868826Y693556D01*
X867250Y693869D01*
X854064D01*
X853961Y693884D01*
X853841Y693911D01*
X853751Y693938D01*
X853704Y693956D01*
X853605Y694105D01*
X851607Y695440D01*
X849250Y695908D01*
D02*
G37*
G36*
X1033650Y723131D02*
X1030899Y722769D01*
X1028335Y721707D01*
X1026133Y720017D01*
X1024443Y717815D01*
X1023381Y715251D01*
X1023019Y712500D01*
X1023381Y709749D01*
X1024443Y707185D01*
X1026133Y704983D01*
X1026313Y704844D01*
X1027489Y703572D01*
X1028001Y702936D01*
X1028443Y702323D01*
X1028798Y701760D01*
X1029069Y701251D01*
X1029261Y700804D01*
X1029382Y700424D01*
X1029438Y700142D01*
Y694564D01*
X1029423Y694462D01*
X1029397Y694341D01*
X1029370Y694251D01*
X1029351Y694204D01*
X1029203Y694105D01*
X1027868Y692107D01*
X1027399Y689750D01*
X1027868Y687393D01*
X1029203Y685395D01*
X1031201Y684060D01*
X1033557Y683592D01*
X1035914Y684060D01*
X1037912Y685395D01*
X1039247Y687393D01*
X1039716Y689750D01*
X1039247Y692107D01*
X1037912Y694105D01*
X1037764Y694204D01*
X1037745Y694250D01*
X1037718Y694341D01*
X1037692Y694462D01*
X1037677Y694564D01*
Y700108D01*
X1037733Y700390D01*
X1037853Y700763D01*
X1038045Y701200D01*
X1038315Y701695D01*
X1038670Y702242D01*
X1039093Y702810D01*
X1040287Y704167D01*
X1040903Y704780D01*
X1041167Y704983D01*
X1042857Y707185D01*
X1043919Y709749D01*
X1044281Y712500D01*
X1043919Y715251D01*
X1042857Y717815D01*
X1041167Y720017D01*
X1038966Y721707D01*
X1036402Y722769D01*
X1033650Y723131D01*
D02*
G37*
G36*
X621500Y702144D02*
X618357Y701730D01*
X615428Y700517D01*
X612913Y698587D01*
X610983Y696072D01*
X609770Y693143D01*
X609356Y690000D01*
X609770Y686857D01*
X610799Y684372D01*
X609994Y683326D01*
X609939Y683293D01*
X608100Y683658D01*
X605743Y683189D01*
X603745Y681855D01*
X602411Y679857D01*
X601942Y677500D01*
X602411Y675143D01*
X603745Y673145D01*
X605743Y671810D01*
X608100Y671342D01*
X609939Y671707D01*
X609994Y671674D01*
X610799Y670628D01*
X609770Y668143D01*
X609356Y665000D01*
X609770Y661857D01*
X610983Y658928D01*
X612913Y656413D01*
X615428Y654483D01*
X618357Y653270D01*
X621500Y652856D01*
X624643Y653270D01*
X627572Y654483D01*
X630087Y656413D01*
X632017Y658928D01*
X633230Y661857D01*
X633644Y665000D01*
X633230Y668143D01*
X632017Y671072D01*
X630087Y673587D01*
X627572Y675517D01*
X624643Y676730D01*
X623660Y676860D01*
Y678140D01*
X624643Y678270D01*
X627572Y679483D01*
X630087Y681413D01*
X632017Y683928D01*
X633230Y686857D01*
X633644Y690000D01*
X633230Y693143D01*
X632017Y696072D01*
X630087Y698587D01*
X627572Y700517D01*
X624643Y701730D01*
X621500Y702144D01*
D02*
G37*
G36*
X842000Y735928D02*
X839643Y735460D01*
X837645Y734125D01*
X836310Y732127D01*
X835842Y729770D01*
X836310Y727413D01*
X837645Y725415D01*
X839643Y724080D01*
X842000Y723612D01*
X842213Y723654D01*
X843293Y722574D01*
X843092Y721562D01*
X843560Y719205D01*
X844895Y717207D01*
X846893Y715872D01*
X849250Y715403D01*
X851607Y715872D01*
X853605Y717207D01*
X853704Y717355D01*
X853751Y717374D01*
X853841Y717401D01*
X853961Y717427D01*
X854064Y717442D01*
X872002D01*
X904933Y684511D01*
X904995Y684428D01*
X905061Y684324D01*
X905106Y684241D01*
X905126Y684195D01*
X905092Y684020D01*
X905560Y681663D01*
X906895Y679665D01*
X908893Y678330D01*
X911250Y677862D01*
X911425Y677896D01*
X911471Y677876D01*
X911554Y677831D01*
X911658Y677765D01*
X911742Y677703D01*
X921107Y668337D01*
X922444Y667444D01*
X924020Y667131D01*
X938460D01*
Y664210D01*
X956540D01*
X956540Y664210D01*
X957710D01*
Y664210D01*
X957810Y664210D01*
X975790D01*
Y667131D01*
X993000D01*
X994576Y667444D01*
X995913Y668337D01*
X1005758Y678183D01*
X1005842Y678245D01*
X1005946Y678311D01*
X1006029Y678356D01*
X1006075Y678376D01*
X1006250Y678342D01*
X1008607Y678811D01*
X1010605Y680145D01*
X1011940Y682143D01*
X1012408Y684500D01*
X1011940Y686857D01*
X1010605Y688855D01*
X1008607Y690190D01*
X1006250Y690658D01*
X1003893Y690190D01*
X1001895Y688855D01*
X1000561Y686857D01*
X1000092Y684500D01*
X1000126Y684325D01*
X1000106Y684279D01*
X1000062Y684196D01*
X999995Y684092D01*
X999933Y684008D01*
X991294Y675369D01*
X975790D01*
Y678290D01*
X964620D01*
X964523Y678309D01*
X964426Y678290D01*
X963692D01*
X963578Y678370D01*
X962783Y679042D01*
X909163Y732663D01*
X907826Y733556D01*
X906250Y733869D01*
X846826D01*
X846724Y733884D01*
X846605Y733911D01*
X846517Y733937D01*
X846467Y733957D01*
X846355Y734125D01*
X844357Y735460D01*
X842000Y735928D01*
D02*
G37*
G36*
X1155250Y573637D02*
X1152303Y573249D01*
X1149556Y572112D01*
X1147198Y570302D01*
X1145388Y567944D01*
X1144251Y565197D01*
X1143863Y562250D01*
X1144251Y559303D01*
X1145388Y556556D01*
X1147198Y554198D01*
X1149556Y552388D01*
X1152303Y551251D01*
X1155250Y550863D01*
X1158197Y551251D01*
X1160944Y552388D01*
X1163302Y554198D01*
X1165112Y556556D01*
X1166249Y559303D01*
X1166637Y562250D01*
X1166249Y565197D01*
X1165112Y567944D01*
X1163302Y570302D01*
X1160944Y572112D01*
X1158197Y573249D01*
X1155250Y573637D01*
D02*
G37*
G36*
X867161Y545899D02*
X864999Y545469D01*
X863167Y544244D01*
X861942Y542412D01*
X861512Y540250D01*
X861942Y538088D01*
X863167Y536256D01*
X864999Y535031D01*
X867161Y534602D01*
X869322Y535031D01*
X871155Y536256D01*
X872379Y538088D01*
X872809Y540250D01*
X872379Y542412D01*
X871155Y544244D01*
X869322Y545469D01*
X867161Y545899D01*
D02*
G37*
G36*
X1185250Y529008D02*
X1182893Y528540D01*
X1180895Y527205D01*
X1179560Y525207D01*
X1179092Y522850D01*
X1179560Y520493D01*
X1180895Y518495D01*
X1182893Y517160D01*
X1185250Y516692D01*
X1187607Y517160D01*
X1189605Y518495D01*
X1190940Y520493D01*
X1191408Y522850D01*
X1190940Y525207D01*
X1189605Y527205D01*
X1187607Y528540D01*
X1185250Y529008D01*
D02*
G37*
G36*
X1095250D02*
X1092893Y528540D01*
X1090895Y527205D01*
X1089560Y525207D01*
X1089092Y522850D01*
X1089560Y520493D01*
X1090895Y518495D01*
X1092893Y517160D01*
X1095250Y516692D01*
X1097607Y517160D01*
X1099605Y518495D01*
X1100939Y520493D01*
X1101408Y522850D01*
X1100939Y525207D01*
X1099605Y527205D01*
X1097607Y528540D01*
X1095250Y529008D01*
D02*
G37*
%LPD*%
G36*
X671049Y884190D02*
X671140Y883941D01*
X671290Y883720D01*
X671499Y883529D01*
X671769Y883367D01*
X672100Y883235D01*
X672489Y883132D01*
X672940Y883059D01*
X673449Y883015D01*
X674019Y883000D01*
Y880000D01*
X673445Y879985D01*
X672931Y879940D01*
X672477Y879865D01*
X672084Y879760D01*
X671750Y879625D01*
X671478Y879460D01*
X671265Y879265D01*
X671113Y879040D01*
X671021Y878785D01*
X670989Y878500D01*
X671020Y884470D01*
X671049Y884190D01*
D02*
G37*
G36*
X703945Y877769D02*
X704158Y877608D01*
X704389Y877466D01*
X704639Y877342D01*
X704906Y877237D01*
X705191Y877152D01*
X705494Y877085D01*
X705816Y877038D01*
X706155Y877010D01*
X706512Y877000D01*
Y874000D01*
X706155Y873990D01*
X705816Y873962D01*
X705494Y873914D01*
X705191Y873848D01*
X704906Y873763D01*
X704639Y873658D01*
X704389Y873534D01*
X704158Y873392D01*
X703945Y873231D01*
X703749Y873050D01*
Y877950D01*
X703945Y877769D01*
D02*
G37*
G36*
X1193050Y867790D02*
X1192965Y867514D01*
Y867196D01*
X1193050Y866835D01*
X1193220Y866432D01*
X1193474Y865987D01*
X1193813Y865499D01*
X1194238Y864968D01*
X1195341Y863781D01*
X1193220Y861659D01*
X1192604Y862253D01*
X1191501Y863186D01*
X1191013Y863526D01*
X1190568Y863781D01*
X1190165Y863950D01*
X1189804Y864035D01*
X1189486D01*
X1189210Y863950D01*
X1188977Y863781D01*
X1193220Y868023D01*
X1193050Y867790D01*
D02*
G37*
G36*
X1115466Y861600D02*
X1114653Y862389D01*
X1113841Y863094D01*
X1113030Y863717D01*
X1112220Y864256D01*
X1111412Y864713D01*
X1110604Y865086D01*
X1109798Y865377D01*
X1108992Y865584D01*
X1108188Y865708D01*
X1107385Y865750D01*
Y870750D01*
X1108188Y870791D01*
X1108992Y870916D01*
X1109798Y871124D01*
X1110604Y871414D01*
X1111412Y871787D01*
X1112220Y872244D01*
X1113030Y872784D01*
X1113841Y873406D01*
X1114653Y874111D01*
X1115466Y874900D01*
Y861600D01*
D02*
G37*
G36*
X1088255Y856545D02*
X1087236Y855492D01*
X1085640Y853615D01*
X1085063Y852792D01*
X1084633Y852047D01*
X1084350Y851378D01*
X1084214Y850787D01*
X1084225Y850272D01*
X1084383Y849835D01*
X1084689Y849474D01*
X1077073Y855939D01*
X1077485Y855685D01*
X1077962Y855567D01*
X1078505Y855584D01*
X1079114Y855737D01*
X1079788Y856026D01*
X1080528Y856450D01*
X1081334Y857010D01*
X1082205Y857706D01*
X1084144Y859505D01*
X1088255Y856545D01*
D02*
G37*
G36*
X1077645Y849022D02*
X1077515Y849113D01*
X1077371Y849194D01*
X1077215Y849266D01*
X1077045Y849328D01*
X1076862Y849380D01*
X1076666Y849424D01*
X1076457Y849457D01*
X1075999Y849495D01*
X1075750Y849500D01*
Y852500D01*
X1075999Y852505D01*
X1076457Y852543D01*
X1076666Y852577D01*
X1076862Y852619D01*
X1077045Y852672D01*
X1077215Y852734D01*
X1077371Y852806D01*
X1077515Y852887D01*
X1077645Y852978D01*
Y849022D01*
D02*
G37*
G36*
X1186965Y835751D02*
X1186710Y835660D01*
X1186485Y835510D01*
X1186290Y835301D01*
X1186125Y835031D01*
X1185990Y834700D01*
X1185885Y834311D01*
X1185810Y833860D01*
X1185765Y833351D01*
X1185750Y832781D01*
X1182750D01*
X1182735Y833351D01*
X1182690Y833860D01*
X1182615Y834311D01*
X1182510Y834700D01*
X1182375Y835031D01*
X1182210Y835301D01*
X1182015Y835510D01*
X1181790Y835660D01*
X1181535Y835751D01*
X1181250Y835780D01*
X1187250D01*
X1186965Y835751D01*
D02*
G37*
G36*
X1185765Y819019D02*
X1185810Y818503D01*
X1185885Y818049D01*
X1185990Y817655D01*
X1186125Y817322D01*
X1186290Y817049D01*
X1186485Y816837D01*
X1186710Y816685D01*
X1186965Y816594D01*
X1187250Y816564D01*
X1181250D01*
X1181535Y816594D01*
X1181790Y816685D01*
X1182015Y816837D01*
X1182210Y817049D01*
X1182375Y817322D01*
X1182510Y817655D01*
X1182615Y818049D01*
X1182690Y818503D01*
X1182735Y819019D01*
X1182750Y819594D01*
X1185750D01*
X1185765Y819019D01*
D02*
G37*
G36*
X1080275Y820981D02*
X1079850Y820831D01*
X1079475Y820581D01*
X1079150Y820230D01*
X1078875Y819781D01*
X1078650Y819230D01*
X1078475Y818580D01*
X1078350Y817831D01*
X1078275Y816981D01*
X1078250Y816031D01*
X1073250D01*
X1073225Y816981D01*
X1073150Y817831D01*
X1073025Y818580D01*
X1072850Y819230D01*
X1072625Y819781D01*
X1072350Y820230D01*
X1072025Y820581D01*
X1071650Y820831D01*
X1071225Y820981D01*
X1070750Y821031D01*
X1080750D01*
X1080275Y820981D01*
D02*
G37*
G36*
X1175811Y810250D02*
X1175781Y810535D01*
X1175690Y810790D01*
X1175538Y811015D01*
X1175326Y811210D01*
X1175053Y811375D01*
X1174720Y811510D01*
X1174326Y811615D01*
X1173872Y811690D01*
X1173356Y811735D01*
X1172781Y811750D01*
Y814750D01*
X1173356Y814765D01*
X1173872Y814810D01*
X1174326Y814885D01*
X1174720Y814990D01*
X1175053Y815125D01*
X1175326Y815290D01*
X1175538Y815485D01*
X1175690Y815710D01*
X1175781Y815965D01*
X1175811Y816250D01*
Y810250D01*
D02*
G37*
G36*
X1078275Y810770D02*
X1078350Y809920D01*
X1078475Y809169D01*
X1078650Y808520D01*
X1078875Y807970D01*
X1079150Y807520D01*
X1079475Y807169D01*
X1079850Y806919D01*
X1080275Y806769D01*
X1080750Y806720D01*
X1070750D01*
X1071225Y806769D01*
X1071650Y806919D01*
X1072025Y807169D01*
X1072350Y807520D01*
X1072625Y807970D01*
X1072850Y808520D01*
X1073025Y809169D01*
X1073150Y809920D01*
X1073225Y810770D01*
X1073250Y811720D01*
X1078250D01*
X1078275Y810770D01*
D02*
G37*
G36*
X784548Y809863D02*
X784585Y809598D01*
X784648Y809334D01*
X784737Y809070D01*
X784852Y808807D01*
X784993Y808545D01*
X785161Y808284D01*
X785354Y808023D01*
X785574Y807763D01*
X785820Y807504D01*
X783699Y805382D01*
X783439Y805628D01*
X783179Y805848D01*
X782918Y806041D01*
X782657Y806209D01*
X782394Y806350D01*
X782132Y806465D01*
X781868Y806554D01*
X781604Y806617D01*
X781339Y806654D01*
X781073Y806664D01*
X784538Y810129D01*
X784548Y809863D01*
D02*
G37*
G36*
X1076800Y796417D02*
X1076727Y796480D01*
X1076653Y796537D01*
X1076577Y796587D01*
X1076500Y796630D01*
X1076421Y796667D01*
X1076340Y796697D01*
X1076257Y796720D01*
X1076173Y796737D01*
X1076087Y796747D01*
X1076000Y796750D01*
Y799750D01*
X1076087Y799753D01*
X1076173Y799763D01*
X1076257Y799780D01*
X1076340Y799803D01*
X1076421Y799833D01*
X1076500Y799870D01*
X1076577Y799913D01*
X1076653Y799963D01*
X1076727Y800020D01*
X1076800Y800083D01*
Y796417D01*
D02*
G37*
G36*
X944269Y797055D02*
X944108Y796842D01*
X943966Y796611D01*
X943842Y796361D01*
X943737Y796094D01*
X943652Y795809D01*
X943586Y795506D01*
X943538Y795184D01*
X943510Y794845D01*
X943500Y794488D01*
X940500D01*
X940490Y794845D01*
X940462Y795184D01*
X940415Y795506D01*
X940348Y795809D01*
X940263Y796094D01*
X940158Y796361D01*
X940034Y796611D01*
X939892Y796842D01*
X939731Y797055D01*
X939550Y797251D01*
X944450D01*
X944269Y797055D01*
D02*
G37*
G36*
X1192553Y797737D02*
X1192471Y797459D01*
X1192473Y797139D01*
X1192559Y796777D01*
X1192729Y796374D01*
X1192983Y795928D01*
X1193322Y795442D01*
X1193744Y794913D01*
X1194841Y793731D01*
X1192795Y791534D01*
X1192177Y792132D01*
X1191069Y793070D01*
X1190580Y793410D01*
X1190134Y793665D01*
X1189732Y793834D01*
X1189372Y793918D01*
X1189056Y793916D01*
X1188783Y793829D01*
X1188553Y793655D01*
X1192719Y797974D01*
X1192553Y797737D01*
D02*
G37*
G36*
X1064210Y828725D02*
Y818460D01*
X1070367D01*
X1070391Y818400D01*
X1070491Y818030D01*
X1070579Y817503D01*
X1070611Y817138D01*
Y810612D01*
X1070579Y810247D01*
X1070491Y809720D01*
X1070391Y809350D01*
X1070367Y809290D01*
X1061960D01*
Y789619D01*
X946160D01*
X946125Y789625D01*
X946119Y789660D01*
Y794936D01*
X946134Y795038D01*
X946161Y795159D01*
X946188Y795249D01*
X946206Y795296D01*
X946355Y795395D01*
X947690Y797393D01*
X948158Y799750D01*
X947690Y802107D01*
X947019Y803111D01*
X947697Y804381D01*
X1036500D01*
X1038076Y804694D01*
X1039413Y805587D01*
X1063037Y829211D01*
X1064210Y828725D01*
D02*
G37*
G36*
X1234155Y798289D02*
X1234762Y797900D01*
X1235467Y797559D01*
X1236271Y797266D01*
X1237172Y797020D01*
X1238172Y796821D01*
X1239271Y796669D01*
X1241762Y796509D01*
X1243155Y796499D01*
X1233751Y787095D01*
X1233741Y788488D01*
X1233580Y790979D01*
X1233429Y792078D01*
X1233230Y793078D01*
X1232984Y793979D01*
X1232691Y794783D01*
X1232350Y795488D01*
X1231961Y796095D01*
X1231526Y796603D01*
X1233647Y798724D01*
X1234155Y798289D01*
D02*
G37*
G36*
X1087137Y795988D02*
X1086981Y795548D01*
X1086972Y795031D01*
X1087109Y794439D01*
X1087392Y793770D01*
X1087822Y793025D01*
X1088398Y792203D01*
X1089121Y791305D01*
X1091005Y789280D01*
X1086970Y786245D01*
X1085964Y787215D01*
X1084152Y788747D01*
X1083345Y789309D01*
X1082605Y789734D01*
X1081931Y790022D01*
X1081323Y790174D01*
X1080782Y790189D01*
X1080307Y790068D01*
X1079898Y789811D01*
X1087439Y796351D01*
X1087137Y795988D01*
D02*
G37*
G36*
X943530Y789430D02*
X943620Y788920D01*
X943770Y788470D01*
X943980Y788080D01*
X944250Y787750D01*
X944580Y787480D01*
X944970Y787270D01*
X945420Y787120D01*
X945930Y787030D01*
X946500Y787000D01*
X942000Y784000D01*
X937500Y787000D01*
X938070Y787030D01*
X938580Y787120D01*
X939030Y787270D01*
X939420Y787480D01*
X939750Y787750D01*
X940020Y788080D01*
X940230Y788470D01*
X940380Y788920D01*
X940470Y789430D01*
X940500Y790000D01*
X943500D01*
X943530Y789430D01*
D02*
G37*
G36*
X841980Y772791D02*
X841714Y772782D01*
X841449Y772747D01*
X841185Y772685D01*
X840921Y772598D01*
X840658Y772484D01*
X840396Y772343D01*
X840134Y772176D01*
X839873Y771983D01*
X839613Y771764D01*
X839354Y771518D01*
X837249Y773656D01*
X837495Y773915D01*
X837715Y774175D01*
X837909Y774436D01*
X838077Y774697D01*
X838219Y774959D01*
X838335Y775222D01*
X838425Y775485D01*
X838490Y775750D01*
X838528Y776014D01*
X838540Y776280D01*
X841980Y772791D01*
D02*
G37*
G36*
X1195611Y833210D02*
X1195790Y833210D01*
X1196881Y832778D01*
Y829250D01*
X1197194Y827674D01*
X1198087Y826337D01*
X1229872Y794552D01*
X1229877Y794547D01*
X1230085Y794222D01*
X1230303Y793772D01*
X1230514Y793193D01*
X1230708Y792483D01*
X1230874Y791648D01*
X1231002Y790719D01*
X1231152Y788396D01*
X1231159Y787399D01*
X1231106Y787000D01*
X1231520Y783857D01*
X1232733Y780928D01*
X1234663Y778413D01*
X1237178Y776483D01*
X1240107Y775270D01*
X1241090Y775141D01*
Y773859D01*
X1240107Y773730D01*
X1237178Y772517D01*
X1234663Y770587D01*
X1232733Y768072D01*
X1231520Y765143D01*
X1231391Y764160D01*
X1230109D01*
X1229980Y765143D01*
X1228767Y768072D01*
X1226837Y770587D01*
X1224322Y772517D01*
X1221393Y773730D01*
X1218250Y774144D01*
X1215107Y773730D01*
X1212178Y772517D01*
X1209663Y770587D01*
X1207733Y768072D01*
X1206520Y765143D01*
X1206106Y762000D01*
X1206520Y758857D01*
X1206877Y757994D01*
X1205801Y757275D01*
X1202619Y760456D01*
Y787951D01*
X1202306Y789527D01*
X1201413Y790864D01*
X1196169Y796107D01*
X1195707Y796605D01*
X1195399Y796991D01*
X1195290Y797147D01*
Y797916D01*
X1195309Y798020D01*
X1195290Y798107D01*
Y819165D01*
X1188369D01*
Y833210D01*
X1195611D01*
D02*
G37*
G36*
X1227759Y760512D02*
X1227919Y758021D01*
X1228071Y756922D01*
X1228270Y755922D01*
X1228516Y755021D01*
X1228809Y754217D01*
X1229150Y753512D01*
X1229539Y752906D01*
X1229974Y752397D01*
X1227853Y750276D01*
X1227345Y750711D01*
X1226738Y751100D01*
X1226033Y751441D01*
X1225229Y751734D01*
X1224327Y751980D01*
X1223328Y752179D01*
X1222229Y752330D01*
X1219738Y752491D01*
X1218345Y752501D01*
X1227749Y761905D01*
X1227759Y760512D01*
D02*
G37*
G36*
X1081958Y787119D02*
X1082573Y786691D01*
X1083988Y785494D01*
X1112179Y757304D01*
X1112310Y756643D01*
X1113645Y754645D01*
X1115643Y753310D01*
X1116304Y753179D01*
X1130340Y739143D01*
X1129530Y738157D01*
X1129107Y738439D01*
X1126750Y738908D01*
X1124393Y738439D01*
X1122395Y737105D01*
X1122296Y736956D01*
X1122250Y736938D01*
X1122159Y736911D01*
X1122038Y736884D01*
X1121936Y736869D01*
X1120956D01*
X1071789Y786037D01*
X1072275Y787210D01*
X1081799D01*
X1081958Y787119D01*
D02*
G37*
G36*
X1243724Y737680D02*
X1243798Y736650D01*
X1243832Y736485D01*
X1243873Y736356D01*
X1243919Y736264D01*
X1243972Y736208D01*
X1244031Y736189D01*
X1240780Y736219D01*
X1240721Y738029D01*
X1243721D01*
X1243724Y737680D01*
D02*
G37*
G36*
X1113337Y810337D02*
X1114674Y809444D01*
X1116250Y809131D01*
X1173210D01*
Y791085D01*
X1188494D01*
X1188599Y791066D01*
X1188686Y791085D01*
X1189387D01*
X1189489Y791014D01*
X1190289Y790337D01*
X1194381Y786245D01*
Y758750D01*
X1194694Y757174D01*
X1195587Y755837D01*
X1208837Y742587D01*
X1210174Y741694D01*
X1211750Y741381D01*
X1219044D01*
X1220461Y739963D01*
X1219975Y738790D01*
X1210210D01*
Y731369D01*
X1195290D01*
Y737040D01*
X1175864D01*
X1175764Y737059D01*
X1175670Y737040D01*
X1173210D01*
Y736869D01*
X1164564D01*
X1164462Y736884D01*
X1164341Y736911D01*
X1164251Y736938D01*
X1164204Y736956D01*
X1164105Y737105D01*
X1162107Y738439D01*
X1159750Y738908D01*
X1157393Y738439D01*
X1155395Y737105D01*
X1154060Y735107D01*
X1153592Y732750D01*
X1153723Y732091D01*
X1152552Y731465D01*
X1123945Y760072D01*
X1123689Y761357D01*
X1122355Y763355D01*
X1120357Y764689D01*
X1119072Y764945D01*
X1091939Y792079D01*
X1091080Y793001D01*
X1090469Y793760D01*
X1090040Y794372D01*
Y809290D01*
X1081133D01*
X1081108Y809350D01*
X1081009Y809720D01*
X1080921Y810247D01*
X1080889Y810612D01*
Y817138D01*
X1080921Y817503D01*
X1081009Y818030D01*
X1081108Y818400D01*
X1081133Y818460D01*
X1087290D01*
Y833540D01*
X1088212Y834381D01*
X1089294D01*
X1113337Y810337D01*
D02*
G37*
G36*
X1162445Y735020D02*
X1162658Y734858D01*
X1162889Y734715D01*
X1163139Y734592D01*
X1163406Y734488D01*
X1163691Y734402D01*
X1163994Y734335D01*
X1164316Y734288D01*
X1164655Y734259D01*
X1165012Y734250D01*
Y731250D01*
X1164655Y731240D01*
X1164316Y731212D01*
X1163994Y731164D01*
X1163691Y731098D01*
X1163406Y731012D01*
X1163139Y730908D01*
X1162889Y730785D01*
X1162658Y730642D01*
X1162445Y730480D01*
X1162250Y730300D01*
Y735200D01*
X1162445Y735020D01*
D02*
G37*
G36*
X1124250Y730300D02*
X1124055Y730480D01*
X1123842Y730642D01*
X1123611Y730785D01*
X1123362Y730908D01*
X1123094Y731012D01*
X1122809Y731098D01*
X1122506Y731164D01*
X1122184Y731212D01*
X1121845Y731240D01*
X1121488Y731250D01*
Y734250D01*
X1121845Y734259D01*
X1122184Y734288D01*
X1122506Y734335D01*
X1122809Y734402D01*
X1123094Y734488D01*
X1123362Y734592D01*
X1123611Y734715D01*
X1123842Y734858D01*
X1124055Y735020D01*
X1124250Y735200D01*
Y730300D01*
D02*
G37*
G36*
X1175811Y729750D02*
X1175779Y730035D01*
X1175687Y730290D01*
X1175534Y730515D01*
X1175321Y730710D01*
X1175049Y730875D01*
X1174715Y731010D01*
X1174322Y731115D01*
X1173868Y731190D01*
X1173354Y731235D01*
X1172781Y731250D01*
Y734250D01*
X1173351Y734252D01*
X1175660Y734390D01*
X1175751Y734428D01*
X1175780Y734470D01*
X1175811Y729750D01*
D02*
G37*
G36*
X797782Y729946D02*
X797536Y729686D01*
X797316Y729426D01*
X797122Y729165D01*
X796955Y728904D01*
X796814Y728642D01*
X796699Y728379D01*
X796610Y728115D01*
X796547Y727851D01*
X796510Y727586D01*
X796500Y727320D01*
X793035Y730785D01*
X793301Y730796D01*
X793566Y730832D01*
X793830Y730895D01*
X794094Y730984D01*
X794357Y731099D01*
X794619Y731240D01*
X794880Y731408D01*
X795141Y731601D01*
X795401Y731821D01*
X795660Y732067D01*
X797782Y729946D01*
D02*
G37*
G36*
X1212781Y724250D02*
X1212750Y724535D01*
X1212661Y724790D01*
X1212511Y725015D01*
X1212300Y725210D01*
X1212030Y725375D01*
X1211701Y725510D01*
X1211311Y725615D01*
X1210861Y725690D01*
X1210350Y725735D01*
X1209781Y725750D01*
Y728750D01*
X1210350Y728765D01*
X1210861Y728810D01*
X1211311Y728885D01*
X1211701Y728990D01*
X1212030Y729125D01*
X1212300Y729290D01*
X1212511Y729485D01*
X1212661Y729710D01*
X1212750Y729965D01*
X1212781Y730250D01*
Y724250D01*
D02*
G37*
G36*
X1192749Y729965D02*
X1192840Y729710D01*
X1192990Y729485D01*
X1193199Y729290D01*
X1193469Y729125D01*
X1193800Y728990D01*
X1194190Y728885D01*
X1194640Y728810D01*
X1195150Y728765D01*
X1195720Y728750D01*
Y725750D01*
X1195150Y725735D01*
X1194640Y725690D01*
X1194190Y725615D01*
X1193800Y725510D01*
X1193469Y725375D01*
X1193199Y725210D01*
X1192990Y725015D01*
X1192840Y724790D01*
X1192749Y724535D01*
X1192719Y724250D01*
Y730250D01*
X1192749Y729965D01*
D02*
G37*
G36*
X1235716Y655100D02*
X1234724Y656078D01*
X1232849Y657727D01*
X1231965Y658396D01*
X1231117Y658962D01*
X1230306Y659426D01*
X1229530Y659787D01*
X1228791Y660044D01*
X1228087Y660199D01*
X1227419Y660250D01*
Y663250D01*
X1228087Y663301D01*
X1228791Y663456D01*
X1229530Y663714D01*
X1230306Y664074D01*
X1231117Y664538D01*
X1231965Y665104D01*
X1232849Y665773D01*
X1234724Y667421D01*
X1235716Y668400D01*
Y655100D01*
D02*
G37*
G36*
X1242405Y627251D02*
X1241012Y627241D01*
X1238521Y627080D01*
X1237422Y626929D01*
X1236422Y626730D01*
X1235521Y626484D01*
X1234717Y626191D01*
X1234012Y625850D01*
X1233406Y625461D01*
X1232897Y625026D01*
X1230776Y627147D01*
X1231211Y627655D01*
X1231600Y628262D01*
X1231941Y628967D01*
X1232234Y629771D01*
X1232480Y630672D01*
X1232679Y631672D01*
X1232831Y632771D01*
X1232991Y635262D01*
X1233000Y636655D01*
X1242405Y627251D01*
D02*
G37*
G36*
X1254224Y621353D02*
X1253789Y620845D01*
X1253400Y620238D01*
X1253059Y619533D01*
X1252766Y618729D01*
X1252520Y617828D01*
X1252321Y616828D01*
X1252169Y615729D01*
X1252009Y613238D01*
X1252000Y611845D01*
X1242595Y621250D01*
X1243988Y621259D01*
X1246479Y621419D01*
X1247578Y621571D01*
X1248578Y621770D01*
X1249479Y622016D01*
X1250283Y622309D01*
X1250988Y622650D01*
X1251595Y623039D01*
X1252103Y623474D01*
X1254224Y621353D01*
D02*
G37*
G36*
X1136119Y570997D02*
X1135704Y570518D01*
X1135335Y569952D01*
X1135011Y569301D01*
X1134731Y568563D01*
X1134497Y567740D01*
X1134307Y566832D01*
X1134163Y565837D01*
X1134064Y564756D01*
X1134000Y562337D01*
X1125338Y570999D01*
X1126590Y571009D01*
X1128837Y571163D01*
X1129831Y571307D01*
X1130740Y571497D01*
X1131563Y571731D01*
X1132301Y572011D01*
X1132952Y572335D01*
X1133518Y572704D01*
X1133997Y573119D01*
X1136119Y570997D01*
D02*
G37*
G36*
X1166118Y540997D02*
X1165704Y540518D01*
X1165335Y539952D01*
X1165011Y539301D01*
X1164731Y538563D01*
X1164497Y537740D01*
X1164307Y536832D01*
X1164163Y535837D01*
X1164064Y534756D01*
X1164000Y532337D01*
X1155338Y541000D01*
X1156590Y541009D01*
X1158837Y541163D01*
X1159831Y541307D01*
X1160740Y541497D01*
X1161563Y541731D01*
X1162301Y542011D01*
X1162952Y542335D01*
X1163518Y542704D01*
X1163997Y543119D01*
X1166118Y540997D01*
D02*
G37*
G36*
X1117942Y543145D02*
X1118555Y542686D01*
X1119215Y542281D01*
X1119923Y541933D01*
X1120678Y541639D01*
X1121480Y541401D01*
X1122330Y541218D01*
X1123227Y541090D01*
X1124171Y541017D01*
X1125163Y541000D01*
X1116500Y532337D01*
X1116483Y533329D01*
X1116410Y534273D01*
X1116282Y535170D01*
X1116099Y536020D01*
X1115861Y536822D01*
X1115567Y537577D01*
X1115219Y538285D01*
X1114814Y538945D01*
X1114355Y539558D01*
X1113841Y540124D01*
X1117376Y543659D01*
X1117942Y543145D01*
D02*
G37*
G36*
X734391Y839417D02*
X734230Y839575D01*
X734047Y839717D01*
X733839Y839842D01*
X733609Y839950D01*
X733355Y840042D01*
X733078Y840117D01*
X732778Y840175D01*
X732455Y840217D01*
X732108Y840242D01*
X731738Y840250D01*
Y843250D01*
X732108Y843258D01*
X732778Y843325D01*
X733078Y843383D01*
X733355Y843458D01*
X733609Y843550D01*
X733839Y843658D01*
X734047Y843783D01*
X734230Y843925D01*
X734391Y844083D01*
Y839417D01*
D02*
G37*
G36*
X692515Y618050D02*
X692560Y617539D01*
X692635Y617090D01*
X692740Y616699D01*
X692875Y616370D01*
X693040Y616100D01*
X693235Y615890D01*
X693460Y615740D01*
X693715Y615649D01*
X694000Y615620D01*
X688000D01*
X688285Y615649D01*
X688540Y615740D01*
X688765Y615890D01*
X688960Y616100D01*
X689125Y616370D01*
X689260Y616699D01*
X689365Y617090D01*
X689440Y617539D01*
X689485Y618050D01*
X689500Y618619D01*
X692500D01*
X692515Y618050D01*
D02*
G37*
G36*
X722711Y608100D02*
X722681Y608385D01*
X722590Y608640D01*
X722438Y608865D01*
X722226Y609060D01*
X721953Y609225D01*
X721620Y609360D01*
X721226Y609465D01*
X720771Y609540D01*
X720256Y609585D01*
X719680Y609600D01*
Y612600D01*
X720256Y612615D01*
X720771Y612660D01*
X721226Y612735D01*
X721620Y612840D01*
X721953Y612975D01*
X722226Y613140D01*
X722438Y613335D01*
X722590Y613560D01*
X722681Y613815D01*
X722711Y614100D01*
Y608100D01*
D02*
G37*
G36*
X697069Y613815D02*
X697160Y613560D01*
X697312Y613335D01*
X697524Y613140D01*
X697797Y612975D01*
X698130Y612840D01*
X698524Y612735D01*
X698979Y612660D01*
X699494Y612615D01*
X700070Y612600D01*
Y609600D01*
X699494Y609585D01*
X698979Y609540D01*
X698524Y609465D01*
X698130Y609360D01*
X697797Y609225D01*
X697524Y609060D01*
X697312Y608865D01*
X697160Y608640D01*
X697069Y608385D01*
X697039Y608100D01*
Y614100D01*
X697069Y613815D01*
D02*
G37*
G36*
X759961Y607850D02*
X759931Y608135D01*
X759840Y608390D01*
X759688Y608615D01*
X759476Y608810D01*
X759203Y608975D01*
X758870Y609110D01*
X758476Y609215D01*
X758021Y609290D01*
X757506Y609335D01*
X756930Y609350D01*
Y612350D01*
X757506Y612365D01*
X758021Y612410D01*
X758476Y612485D01*
X758870Y612590D01*
X759203Y612725D01*
X759476Y612890D01*
X759688Y613085D01*
X759840Y613310D01*
X759931Y613565D01*
X759961Y613850D01*
Y607850D01*
D02*
G37*
G36*
X734819Y613565D02*
X734910Y613310D01*
X735062Y613085D01*
X735274Y612890D01*
X735547Y612725D01*
X735880Y612590D01*
X736274Y612485D01*
X736729Y612410D01*
X737244Y612365D01*
X737820Y612350D01*
Y609350D01*
X737244Y609335D01*
X736729Y609290D01*
X736274Y609215D01*
X735880Y609110D01*
X735547Y608975D01*
X735274Y608810D01*
X735062Y608615D01*
X734910Y608390D01*
X734819Y608135D01*
X734789Y607850D01*
Y613850D01*
X734819Y613565D01*
D02*
G37*
G36*
X689173Y606611D02*
X688942Y606778D01*
X688669Y606859D01*
X688352Y606856D01*
X687992Y606768D01*
X687590Y606596D01*
X687144Y606338D01*
X686655Y605996D01*
X686123Y605568D01*
X684930Y604459D01*
X682809Y606581D01*
X683406Y607198D01*
X684346Y608305D01*
X684688Y608794D01*
X684946Y609240D01*
X685118Y609642D01*
X685206Y610002D01*
X685209Y610319D01*
X685128Y610592D01*
X684961Y610823D01*
X689173Y606611D01*
D02*
G37*
G36*
X695525Y573861D02*
X695100Y573710D01*
X694725Y573458D01*
X694400Y573106D01*
X694125Y572653D01*
X693900Y572100D01*
X693725Y571446D01*
X693600Y570691D01*
X693525Y569836D01*
X693500Y568881D01*
X688500D01*
X688475Y569836D01*
X688400Y570691D01*
X688275Y571446D01*
X688100Y572100D01*
X687875Y572653D01*
X687600Y573106D01*
X687275Y573458D01*
X686900Y573710D01*
X686475Y573861D01*
X686000Y573911D01*
X696000D01*
X695525Y573861D01*
D02*
G37*
G36*
X770525Y573611D02*
X770100Y573460D01*
X769725Y573208D01*
X769400Y572856D01*
X769125Y572403D01*
X768900Y571850D01*
X768725Y571196D01*
X768600Y570441D01*
X768525Y569586D01*
X768500Y568630D01*
X763500D01*
X763475Y569586D01*
X763400Y570441D01*
X763275Y571196D01*
X763100Y571850D01*
X762875Y572403D01*
X762600Y572856D01*
X762275Y573208D01*
X761900Y573460D01*
X761475Y573611D01*
X761000Y573661D01*
X771000D01*
X770525Y573611D01*
D02*
G37*
G36*
X733275D02*
X732850Y573460D01*
X732475Y573208D01*
X732150Y572856D01*
X731875Y572403D01*
X731650Y571850D01*
X731475Y571196D01*
X731350Y570441D01*
X731275Y569586D01*
X731250Y568630D01*
X726250D01*
X726225Y569586D01*
X726150Y570441D01*
X726025Y571196D01*
X725850Y571850D01*
X725625Y572403D01*
X725350Y572856D01*
X725025Y573208D01*
X724650Y573460D01*
X724225Y573611D01*
X723750Y573661D01*
X733750D01*
X733275Y573611D01*
D02*
G37*
G36*
X767768Y545232D02*
X767273Y544714D01*
X766843Y544213D01*
X766478Y543729D01*
X766178Y543262D01*
X765942Y542813D01*
X765772Y542382D01*
X765666Y541967D01*
X765625Y541570D01*
X765649Y541191D01*
X765738Y540828D01*
X759828Y546738D01*
X760191Y546649D01*
X760570Y546625D01*
X760967Y546666D01*
X761382Y546772D01*
X761813Y546942D01*
X762262Y547178D01*
X762729Y547478D01*
X763213Y547843D01*
X763714Y548273D01*
X764232Y548768D01*
X767768Y545232D01*
D02*
G37*
G36*
X731297Y552084D02*
X731437Y551272D01*
X731670Y550502D01*
X731997Y549775D01*
X732417Y549089D01*
X732930Y548445D01*
X733537Y547842D01*
X734237Y547282D01*
X735031Y546764D01*
X735917Y546287D01*
X723298Y542087D01*
X723859Y543214D01*
X725187Y546306D01*
X725512Y547241D01*
X725984Y548967D01*
X726132Y549758D01*
X726220Y550501D01*
X726250Y551196D01*
X731250Y552937D01*
X731297Y552084D01*
D02*
G37*
G36*
X698604Y549490D02*
X699260Y549010D01*
X699977Y548587D01*
X700752Y548222D01*
X701587Y547915D01*
X702482Y547666D01*
X703436Y547475D01*
X704450Y547342D01*
X705523Y547267D01*
X706655Y547249D01*
X697251Y537845D01*
X697233Y538978D01*
X697158Y540050D01*
X697025Y541064D01*
X696834Y542018D01*
X696585Y542913D01*
X696278Y543748D01*
X695913Y544523D01*
X695490Y545239D01*
X695010Y545896D01*
X694471Y546493D01*
X698007Y550029D01*
X698604Y549490D01*
D02*
G37*
G36*
X731262Y540932D02*
X731326Y540748D01*
X731417Y540551D01*
X731535Y540341D01*
X731680Y540118D01*
X731852Y539882D01*
X732278Y539372D01*
X732811Y538811D01*
X730689Y536689D01*
X730402Y536969D01*
X729618Y537648D01*
X729382Y537820D01*
X729159Y537965D01*
X728949Y538083D01*
X728752Y538174D01*
X728568Y538238D01*
X728397Y538275D01*
X731225Y541103D01*
X731262Y540932D01*
D02*
G37*
G36*
X637803Y819882D02*
X637582Y819606D01*
X637387Y819316D01*
X637218Y819012D01*
X637075Y818693D01*
X636958Y818361D01*
X636867Y818015D01*
X636802Y817655D01*
X636763Y817280D01*
X636750Y816892D01*
X633750D01*
X633737Y817280D01*
X633698Y817655D01*
X633633Y818015D01*
X633542Y818361D01*
X633425Y818693D01*
X633282Y819012D01*
X633113Y819316D01*
X632918Y819606D01*
X632697Y819882D01*
X632450Y820143D01*
X638050D01*
X637803Y819882D01*
D02*
G37*
G36*
X636765Y815394D02*
X636810Y814878D01*
X636885Y814424D01*
X636990Y814030D01*
X637125Y813697D01*
X637290Y813424D01*
X637485Y813212D01*
X637710Y813060D01*
X637965Y812969D01*
X638250Y812939D01*
X632250D01*
X632535Y812969D01*
X632790Y813060D01*
X633015Y813212D01*
X633210Y813424D01*
X633375Y813697D01*
X633510Y814030D01*
X633615Y814424D01*
X633690Y814878D01*
X633735Y815394D01*
X633750Y815969D01*
X636750D01*
X636765Y815394D01*
D02*
G37*
G36*
X598260Y813699D02*
X598297Y813434D01*
X598360Y813170D01*
X598448Y812906D01*
X598564Y812644D01*
X598705Y812381D01*
X598872Y812120D01*
X599066Y811859D01*
X599286Y811599D01*
X599532Y811340D01*
X597410Y809218D01*
X597151Y809464D01*
X596891Y809684D01*
X596630Y809878D01*
X596369Y810045D01*
X596106Y810186D01*
X595844Y810302D01*
X595580Y810390D01*
X595316Y810453D01*
X595051Y810490D01*
X594785Y810500D01*
X598250Y813965D01*
X598260Y813699D01*
D02*
G37*
G36*
X612780Y805000D02*
X612751Y805285D01*
X612660Y805540D01*
X612510Y805765D01*
X612300Y805960D01*
X612030Y806125D01*
X611701Y806260D01*
X611311Y806365D01*
X610860Y806440D01*
X610350Y806485D01*
X609781Y806500D01*
Y809500D01*
X610350Y809515D01*
X610860Y809560D01*
X611311Y809635D01*
X611701Y809740D01*
X612030Y809875D01*
X612300Y810040D01*
X612510Y810235D01*
X612660Y810460D01*
X612751Y810715D01*
X612780Y811000D01*
Y805000D01*
D02*
G37*
G36*
X759546Y799467D02*
X759459Y799194D01*
X759457Y798878D01*
X759541Y798518D01*
X759710Y798116D01*
X759965Y797670D01*
X760305Y797181D01*
X760732Y796648D01*
X761841Y795454D01*
X759644Y793409D01*
X759032Y794000D01*
X757933Y794929D01*
X757447Y795267D01*
X757001Y795521D01*
X756598Y795691D01*
X756236Y795777D01*
X755916Y795779D01*
X755638Y795697D01*
X755401Y795530D01*
X759719Y799697D01*
X759546Y799467D01*
D02*
G37*
G36*
X782568Y786929D02*
X782439Y787043D01*
X782289Y787145D01*
X782118Y787235D01*
X781925Y787313D01*
X781710Y787379D01*
X781473Y787433D01*
X781216Y787475D01*
X780936Y787505D01*
X780312Y787529D01*
Y790529D01*
X780635Y790535D01*
X781216Y790583D01*
X781473Y790625D01*
X781710Y790679D01*
X781925Y790745D01*
X782118Y790823D01*
X782289Y790913D01*
X782439Y791015D01*
X782568Y791129D01*
Y786929D01*
D02*
G37*
G36*
X767281Y781700D02*
X767441Y781652D01*
X767744Y781585D01*
X768066Y781538D01*
X768405Y781509D01*
X768762Y781500D01*
Y778500D01*
X768405Y778491D01*
X768066Y778462D01*
X767744Y778415D01*
X767441Y778348D01*
X767281Y778300D01*
Y777000D01*
X767251Y777285D01*
X767160Y777540D01*
X767010Y777765D01*
X766801Y777960D01*
X766661Y778045D01*
X766639Y778035D01*
X766408Y777892D01*
X766195Y777730D01*
X766000Y777550D01*
Y778314D01*
X765810Y778365D01*
X765360Y778440D01*
X764850Y778485D01*
X764280Y778500D01*
Y781500D01*
X764850Y781515D01*
X765360Y781560D01*
X765810Y781635D01*
X766000Y781686D01*
Y782450D01*
X766195Y782270D01*
X766408Y782108D01*
X766639Y781965D01*
X766661Y781955D01*
X766801Y782040D01*
X767010Y782235D01*
X767160Y782460D01*
X767251Y782715D01*
X767281Y783000D01*
Y781700D01*
D02*
G37*
G36*
X759719Y782715D02*
X759810Y782460D01*
X759962Y782235D01*
X760174Y782040D01*
X760326Y781948D01*
X760361Y781965D01*
X760592Y782108D01*
X760805Y782270D01*
X761001Y782450D01*
Y781681D01*
X761174Y781635D01*
X761628Y781560D01*
X762144Y781515D01*
X762719Y781500D01*
Y778500D01*
X762144Y778485D01*
X761628Y778440D01*
X761174Y778365D01*
X761001Y778319D01*
Y777550D01*
X760805Y777730D01*
X760592Y777892D01*
X760361Y778035D01*
X760326Y778052D01*
X760174Y777960D01*
X759962Y777765D01*
X759810Y777540D01*
X759719Y777285D01*
X759689Y777000D01*
Y778309D01*
X759559Y778348D01*
X759256Y778415D01*
X758934Y778462D01*
X758595Y778491D01*
X758238Y778500D01*
Y781500D01*
X758595Y781509D01*
X758934Y781538D01*
X759256Y781585D01*
X759559Y781652D01*
X759689Y781691D01*
Y783000D01*
X759719Y782715D01*
D02*
G37*
G36*
X913961Y764119D02*
X914485Y763769D01*
X915082Y763461D01*
X915753Y763196D01*
X916497Y762974D01*
X917315Y762794D01*
X918206Y762656D01*
X919171Y762562D01*
X921320Y762500D01*
X913400Y754580D01*
X913391Y755692D01*
X913243Y757694D01*
X913106Y758585D01*
X912926Y759403D01*
X912704Y760147D01*
X912439Y760818D01*
X912131Y761415D01*
X911781Y761939D01*
X911389Y762390D01*
X913510Y764511D01*
X913961Y764119D01*
D02*
G37*
G36*
X830796Y702655D02*
X830825Y702316D01*
X830872Y701994D01*
X830939Y701691D01*
X831024Y701406D01*
X831129Y701139D01*
X831252Y700889D01*
X831395Y700658D01*
X831556Y700445D01*
X831737Y700249D01*
X826837D01*
X827017Y700445D01*
X827179Y700658D01*
X827321Y700889D01*
X827445Y701139D01*
X827549Y701406D01*
X827635Y701691D01*
X827701Y701994D01*
X827749Y702316D01*
X827777Y702655D01*
X827787Y703012D01*
X830787D01*
X830796Y702655D01*
D02*
G37*
G36*
X851945Y692020D02*
X852158Y691858D01*
X852389Y691715D01*
X852638Y691592D01*
X852906Y691488D01*
X853191Y691402D01*
X853494Y691336D01*
X853816Y691288D01*
X854155Y691260D01*
X854512Y691250D01*
Y688250D01*
X854155Y688241D01*
X853816Y688212D01*
X853494Y688165D01*
X853191Y688098D01*
X852906Y688012D01*
X852638Y687908D01*
X852389Y687785D01*
X852158Y687642D01*
X851945Y687480D01*
X851749Y687300D01*
Y692200D01*
X851945Y692020D01*
D02*
G37*
G36*
X844695Y684019D02*
X844908Y683858D01*
X845139Y683716D01*
X845388Y683592D01*
X845656Y683487D01*
X845941Y683402D01*
X846244Y683335D01*
X846566Y683288D01*
X846905Y683260D01*
X847262Y683250D01*
Y680250D01*
X846905Y680240D01*
X846566Y680212D01*
X846244Y680164D01*
X845941Y680098D01*
X845656Y680013D01*
X845388Y679908D01*
X845139Y679784D01*
X844908Y679642D01*
X844695Y679481D01*
X844500Y679300D01*
Y684200D01*
X844695Y684019D01*
D02*
G37*
G36*
X940881Y610294D02*
Y597982D01*
X939731Y597634D01*
X939133Y598312D01*
X939105Y598355D01*
X939083Y598369D01*
X938923Y598550D01*
X938911Y598591D01*
X938884Y598712D01*
X938869Y598814D01*
Y607500D01*
X938556Y609076D01*
X937663Y610413D01*
X863715Y684361D01*
X864115Y685552D01*
X864177Y685631D01*
X865544D01*
X940881Y610294D01*
D02*
G37*
G36*
X936260Y598905D02*
X936288Y598566D01*
X936336Y598244D01*
X936402Y597941D01*
X936488Y597656D01*
X936592Y597388D01*
X936715Y597139D01*
X936858Y596908D01*
X937020Y596695D01*
X937200Y596499D01*
X932300D01*
X932480Y596695D01*
X932642Y596908D01*
X932785Y597139D01*
X932908Y597388D01*
X933012Y597656D01*
X933098Y597941D01*
X933165Y598244D01*
X933212Y598566D01*
X933241Y598905D01*
X933250Y599262D01*
X936250D01*
X936260Y598905D01*
D02*
G37*
G36*
X946509Y560855D02*
X946538Y560516D01*
X946585Y560194D01*
X946652Y559891D01*
X946738Y559606D01*
X946842Y559338D01*
X946965Y559089D01*
X947108Y558858D01*
X947270Y558645D01*
X947450Y558450D01*
X942550D01*
X942730Y558645D01*
X942892Y558858D01*
X943035Y559089D01*
X943158Y559338D01*
X943262Y559606D01*
X943348Y559891D01*
X943415Y560194D01*
X943462Y560516D01*
X943491Y560855D01*
X943500Y561212D01*
X946500D01*
X946509Y560855D01*
D02*
G37*
G36*
X1039184Y706722D02*
X1038400Y705942D01*
X1037079Y704442D01*
X1036543Y703722D01*
X1036089Y703022D01*
X1035718Y702342D01*
X1035429Y701683D01*
X1035222Y701043D01*
X1035099Y700424D01*
X1035057Y699825D01*
X1032057Y699860D01*
X1032017Y700453D01*
X1031895Y701070D01*
X1031691Y701710D01*
X1031406Y702374D01*
X1031039Y703061D01*
X1030591Y703772D01*
X1030062Y704507D01*
X1029451Y705265D01*
X1027984Y706852D01*
X1039184Y706722D01*
D02*
G37*
G36*
X1035067Y694655D02*
X1035095Y694316D01*
X1035143Y693994D01*
X1035209Y693691D01*
X1035295Y693406D01*
X1035399Y693139D01*
X1035523Y692889D01*
X1035665Y692658D01*
X1035827Y692445D01*
X1036008Y692250D01*
X1031107D01*
X1031288Y692445D01*
X1031449Y692658D01*
X1031592Y692889D01*
X1031715Y693139D01*
X1031820Y693406D01*
X1031906Y693691D01*
X1031972Y693994D01*
X1032019Y694316D01*
X1032048Y694655D01*
X1032057Y695012D01*
X1035057D01*
X1035067Y694655D01*
D02*
G37*
G36*
X844708Y732024D02*
X844920Y731862D01*
X845151Y731718D01*
X845399Y731594D01*
X845666Y731489D01*
X845951Y731403D01*
X846254Y731336D01*
X846575Y731288D01*
X846914Y731260D01*
X847272Y731250D01*
X847253Y728250D01*
X846896Y728241D01*
X846556Y728212D01*
X846235Y728165D01*
X845931Y728099D01*
X845645Y728014D01*
X845378Y727910D01*
X845128Y727787D01*
X844896Y727646D01*
X844682Y727485D01*
X844485Y727306D01*
X844513Y732206D01*
X844708Y732024D01*
D02*
G37*
G36*
X851945Y723831D02*
X852158Y723670D01*
X852389Y723527D01*
X852638Y723404D01*
X852906Y723299D01*
X853191Y723214D01*
X853494Y723147D01*
X853816Y723100D01*
X854155Y723071D01*
X854512Y723062D01*
Y720062D01*
X854155Y720052D01*
X853816Y720024D01*
X853494Y719976D01*
X853191Y719910D01*
X852906Y719824D01*
X852638Y719719D01*
X852389Y719596D01*
X852158Y719454D01*
X851945Y719292D01*
X851749Y719111D01*
Y724012D01*
X851945Y723831D01*
D02*
G37*
G36*
X908849Y688556D02*
X909109Y688336D01*
X909370Y688142D01*
X909631Y687975D01*
X909894Y687834D01*
X910156Y687719D01*
X910420Y687630D01*
X910684Y687567D01*
X910949Y687530D01*
X911215Y687520D01*
X907750Y684055D01*
X907740Y684321D01*
X907703Y684586D01*
X907640Y684850D01*
X907551Y685114D01*
X907436Y685376D01*
X907295Y685639D01*
X907128Y685900D01*
X906934Y686161D01*
X906714Y686421D01*
X906468Y686680D01*
X908590Y688802D01*
X908849Y688556D01*
D02*
G37*
G36*
X1006215Y681000D02*
X1005949Y680990D01*
X1005684Y680953D01*
X1005420Y680890D01*
X1005156Y680801D01*
X1004894Y680686D01*
X1004631Y680545D01*
X1004370Y680378D01*
X1004109Y680184D01*
X1003849Y679964D01*
X1003590Y679718D01*
X1001468Y681840D01*
X1001714Y682099D01*
X1001934Y682359D01*
X1002128Y682620D01*
X1002295Y682881D01*
X1002436Y683144D01*
X1002551Y683407D01*
X1002640Y683670D01*
X1002703Y683934D01*
X1002740Y684199D01*
X1002750Y684465D01*
X1006215Y681000D01*
D02*
G37*
G36*
X914760Y683719D02*
X914797Y683454D01*
X914860Y683190D01*
X914949Y682926D01*
X915064Y682664D01*
X915205Y682401D01*
X915372Y682140D01*
X915566Y681879D01*
X915786Y681619D01*
X916032Y681360D01*
X913910Y679238D01*
X913651Y679484D01*
X913391Y679704D01*
X913130Y679898D01*
X912869Y680065D01*
X912606Y680206D01*
X912344Y680321D01*
X912080Y680410D01*
X911816Y680473D01*
X911551Y680510D01*
X911285Y680520D01*
X914750Y683985D01*
X914760Y683719D01*
D02*
G37*
G36*
X950711Y679463D02*
X950225Y678290D01*
X938460D01*
Y675369D01*
X925726D01*
X917567Y683528D01*
X917505Y683612D01*
X917438Y683716D01*
X917394Y683799D01*
X917374Y683845D01*
X917408Y684020D01*
X916939Y686377D01*
X915605Y688375D01*
X913607Y689709D01*
X911250Y690178D01*
X911075Y690144D01*
X911029Y690164D01*
X910946Y690208D01*
X910842Y690275D01*
X910759Y690337D01*
X876734Y724361D01*
X876794Y724835D01*
X877176Y725631D01*
X904544D01*
X950711Y679463D01*
D02*
G37*
G36*
X960896Y677247D02*
X961999Y676313D01*
X962487Y675974D01*
X962932Y675720D01*
X963335Y675550D01*
X963696Y675465D01*
X964014D01*
X964290Y675550D01*
X964523Y675720D01*
X960281Y671477D01*
X960450Y671710D01*
X960535Y671986D01*
Y672304D01*
X960450Y672665D01*
X960281Y673068D01*
X960026Y673513D01*
X959687Y674001D01*
X959262Y674532D01*
X958159Y675720D01*
X960281Y677841D01*
X960896Y677247D01*
D02*
G37*
G36*
X973219Y673965D02*
X973310Y673710D01*
X973462Y673485D01*
X973674Y673290D01*
X973947Y673125D01*
X974280Y672990D01*
X974674Y672885D01*
X975128Y672810D01*
X975644Y672765D01*
X976219Y672750D01*
Y669750D01*
X975644Y669735D01*
X975128Y669690D01*
X974674Y669615D01*
X974280Y669510D01*
X973947Y669375D01*
X973674Y669210D01*
X973462Y669015D01*
X973310Y668790D01*
X973219Y668535D01*
X973189Y668250D01*
Y674250D01*
X973219Y673965D01*
D02*
G37*
G36*
X941031Y668250D02*
X941001Y668535D01*
X940910Y668790D01*
X940760Y669015D01*
X940551Y669210D01*
X940281Y669375D01*
X939950Y669510D01*
X939560Y669615D01*
X939110Y669690D01*
X938600Y669735D01*
X938030Y669750D01*
Y672750D01*
X938600Y672765D01*
X939110Y672810D01*
X939560Y672885D01*
X939950Y672990D01*
X940281Y673125D01*
X940551Y673290D01*
X940760Y673485D01*
X940910Y673710D01*
X941001Y673965D01*
X941031Y674250D01*
Y668250D01*
D02*
G37*
D12*
X635250Y806500D02*
Y823000D01*
X660000Y873500D02*
X668000Y881500D01*
X680212D01*
X614750Y808000D02*
X616250Y806500D01*
X600750Y808000D02*
X614750D01*
X594750Y814000D02*
X600750Y808000D01*
X680212Y881500D02*
X683500Y884788D01*
X1201000Y829250D02*
X1243250Y787000D01*
X1201000Y829250D02*
Y856000D01*
X1179049Y813250D02*
X1184250Y808049D01*
X1116250Y813250D02*
X1179049D01*
X1091000Y838500D02*
X1116250Y813250D01*
X1124500Y562250D02*
X1124875Y562625D01*
X1125250Y562250D02*
X1224750Y661750D01*
X1242500D01*
X1155250Y532250D02*
X1179750Y556750D01*
Y574000D01*
X1188250Y868750D02*
X1201000Y856000D01*
X793000Y727285D02*
X842005Y776290D01*
X842040D01*
X805702Y785500D02*
X942000D01*
X781038Y810164D02*
X805702Y785500D01*
X860500Y681750D02*
X934750Y607500D01*
X993000Y671250D02*
X1006250Y684500D01*
X942000Y785500D02*
Y799750D01*
X756174Y799000D02*
X766145Y789029D01*
X784710D01*
X945000Y555950D02*
Y612000D01*
X934750Y594000D02*
Y607500D01*
X1033557Y689750D02*
Y712407D01*
X1033650Y712500D01*
X691000Y611100D02*
Y801250D01*
X731500Y841750D01*
X903650Y772250D02*
X921400Y754500D01*
X862250Y772250D02*
X903650D01*
X829287Y739287D02*
X862250Y772250D01*
X829287Y697750D02*
Y739287D01*
X753250Y799000D02*
X756174D01*
X942000Y785500D02*
X1066500D01*
X1159750Y732750D02*
X1177020D01*
X1184250Y725520D01*
Y723000D02*
Y725520D01*
X1119250Y732750D02*
X1126750D01*
X1066500Y785500D02*
X1119250Y732750D01*
X758500Y875500D02*
X825500Y808500D01*
X701250Y875500D02*
X758500D01*
X825500Y808500D02*
X1036500D01*
X1066500Y838500D02*
X1091000D01*
X1036500Y808500D02*
X1066500Y838500D01*
X1184250Y808049D02*
Y840750D01*
Y805125D02*
Y808049D01*
X1249250Y710750D02*
X1271250Y688750D01*
Y640500D02*
Y688750D01*
X1242500Y611750D02*
X1271250Y640500D01*
X1220750Y745500D02*
X1230750Y735500D01*
X1211750Y745500D02*
X1220750D01*
X1198500Y758750D02*
X1211750Y745500D01*
X1198500Y758750D02*
Y787951D01*
X1240000Y710750D02*
X1249250D01*
X1230750Y720000D02*
X1240000Y710750D01*
X1230750Y720000D02*
Y735500D01*
X1184250Y802201D02*
X1198500Y787951D01*
X1184250Y802201D02*
Y805125D01*
X731500Y841750D02*
X737000D01*
X1075750Y851000D02*
X1079174D01*
X1076000Y798250D02*
X1078500D01*
X1075750Y798500D02*
X1076000Y798250D01*
X1184250Y868750D02*
X1188250D01*
X1184250Y723000D02*
X1188500Y727250D01*
X1217750D01*
X1218250Y762000D02*
X1242221Y738029D01*
Y730779D02*
Y738029D01*
Y730779D02*
X1245750Y727250D01*
X867250Y689750D02*
X945000Y612000D01*
X842000Y681750D02*
X860500D01*
X849250Y689750D02*
X867250D01*
X1179750Y574000D02*
X1242500Y636750D01*
X842500Y729750D02*
X906250D01*
X964750Y671250D01*
X966750D01*
X993000D01*
X873708Y721562D02*
X911250Y684020D01*
X849250Y721562D02*
X873708D01*
X924020Y671250D02*
X947500D01*
X911250Y684020D02*
X924020Y671250D01*
X763500Y780000D02*
X773750D01*
X753250D02*
X763500D01*
X773750D02*
X773750Y780000D01*
X677000Y598650D02*
X689450Y611100D01*
X677000Y546954D02*
Y598650D01*
X689450Y611100D02*
X691000D01*
X677000Y546954D02*
X681750Y542204D01*
Y537750D02*
Y542204D01*
X728750Y610850D02*
X766000D01*
X728500Y611100D02*
X728750Y610850D01*
X691000Y611100D02*
X728500D01*
X728750Y540750D02*
X731750Y537750D01*
D18*
X753250Y799000D02*
D03*
Y780000D02*
D03*
D19*
X773750Y780000D02*
D03*
Y799000D02*
D03*
X947500Y652250D02*
D03*
Y671250D02*
D03*
X966750Y652250D02*
D03*
Y671250D02*
D03*
D26*
X616250Y806500D02*
D03*
X635250D02*
D03*
D51*
X635250Y806500D01*
D52*
X1078500Y798250D02*
X1152000Y724750D01*
X691000Y553500D02*
Y578400D01*
Y553500D02*
X706750Y537750D01*
X1041750Y615750D02*
X1125250Y532250D01*
X1041750Y615750D02*
Y629000D01*
X1078158D01*
X1152000Y702842D01*
X1096424Y868250D02*
X1122250D01*
X1079174Y851000D02*
X1096424Y868250D01*
X1152000Y702842D02*
Y724750D01*
X1075750Y798500D02*
Y826000D01*
X728750Y540750D02*
Y578150D01*
X756750Y537750D02*
X766000Y547000D01*
Y578150D01*
D54*
X1122250Y843250D02*
D03*
X1147250D02*
D03*
X1122250Y868250D02*
D03*
X1147250D02*
D03*
X1218250Y787000D02*
D03*
Y762000D02*
D03*
X1243250Y787000D02*
D03*
Y762000D02*
D03*
X1242500Y611750D02*
D03*
Y636750D02*
D03*
Y661750D02*
D03*
Y686750D02*
D03*
X621500Y749500D02*
D03*
Y774500D02*
D03*
Y690000D02*
D03*
Y665000D02*
D03*
X756750Y537750D02*
D03*
X731750D02*
D03*
X706750D02*
D03*
X681750D02*
D03*
D55*
X1040250Y868000D02*
D03*
Y838000D02*
D03*
X1155250Y562250D02*
D03*
X1125250D02*
D03*
X1155250Y532250D02*
D03*
X1125250D02*
D03*
D56*
X896000Y754500D02*
D03*
X921400D02*
D03*
X946800D02*
D03*
X1008250Y712500D02*
D03*
X1033650D02*
D03*
X1084450D02*
D03*
X1109850D02*
D03*
X1059050D02*
D03*
D57*
X972200Y754500D02*
D03*
X1135250Y712500D02*
D03*
D58*
X1236500Y852800D02*
D03*
Y550250D02*
D03*
X606750Y852800D02*
D03*
X607000Y548750D02*
D03*
D59*
X724250Y660441D02*
D03*
D60*
X635250Y823000D02*
D03*
X974500Y557750D02*
D03*
X789750Y520250D02*
D03*
X1115165Y614000D02*
D03*
X906269Y834250D02*
D03*
X1100000Y809750D02*
D03*
X1225000Y700000D02*
D03*
X1200000Y650000D02*
D03*
X1225000Y600000D02*
D03*
X1200000Y550000D02*
D03*
X1175000Y600000D02*
D03*
X1100000Y850000D02*
D03*
X1000000D02*
D03*
X1025000Y800000D02*
D03*
X1000000Y750000D02*
D03*
X975000Y600000D02*
D03*
X925000Y800000D02*
D03*
X775000Y700000D02*
D03*
X750000Y650000D02*
D03*
X725000Y800000D02*
D03*
X650000Y550000D02*
D03*
X600000Y750000D02*
D03*
Y650000D02*
D03*
X625000Y600000D02*
D03*
D61*
X683500Y884788D02*
D03*
X1025500Y768811D02*
D03*
X1134750Y881650D02*
D03*
X1070250Y877400D02*
D03*
X1010250D02*
D03*
X1185250Y522850D02*
D03*
X1095250D02*
D03*
X594750Y814000D02*
D03*
X842040Y776290D02*
D03*
X781038Y810164D02*
D03*
X793000Y727285D02*
D03*
X849250Y721562D02*
D03*
X842000Y729770D02*
D03*
X1006250Y684500D02*
D03*
X945000Y555950D02*
D03*
X934750Y594000D02*
D03*
X1033557Y689750D02*
D03*
X1256650Y774500D02*
D03*
X1255900Y649250D02*
D03*
X608100Y762000D02*
D03*
Y677500D02*
D03*
X719250Y524350D02*
D03*
X829287Y697750D02*
D03*
X843967Y563568D02*
D03*
X865500D02*
D03*
X1118000Y759000D02*
D03*
X942000Y799750D02*
D03*
X1159750Y732750D02*
D03*
X1126750D02*
D03*
X701250Y875500D02*
D03*
X737000Y841750D02*
D03*
X1041750Y629000D02*
D03*
X911250Y684020D02*
D03*
X842000Y681750D02*
D03*
X849250Y689750D02*
D03*
X763500Y780000D02*
D03*
D62*
X841243Y865250D02*
D03*
X867161Y540250D02*
D03*
X784710Y789029D02*
D03*
D75*
X660000Y873500D02*
D03*
Y828500D02*
D03*
D76*
X1076000Y798250D02*
D03*
X1118000D02*
D03*
D77*
X1075750Y826000D02*
D03*
Y851000D02*
D03*
X1184250Y840750D02*
D03*
Y868750D02*
D03*
D78*
X1217750Y727250D02*
D03*
X1245750D02*
D03*
D79*
X1184250Y723000D02*
D03*
Y681000D02*
D03*
Y805125D02*
D03*
Y763125D02*
D03*
D80*
X766000Y610850D02*
D03*
Y578150D02*
D03*
X728750Y610850D02*
D03*
Y578150D02*
D03*
X691000Y611100D02*
D03*
Y578400D02*
D03*
M02*
