G04*
G04 #@! TF.GenerationSoftware,Altium Limited,Altium Designer,18.1.9 (240)*
G04*
G04 Layer_Color=8388736*
%FSLAX44Y44*%
%MOMM*%
G71*
G01*
G75*
%ADD28R,1.4032X1.3032*%
%ADD29R,0.7532X1.7032*%
%ADD30R,1.7032X0.7532*%
%ADD31R,1.3032X1.4032*%
%ADD32R,1.5032X0.9032*%
%ADD33R,1.5032X1.1032*%
%ADD34R,1.1032X1.5032*%
%ADD35R,5.7032X2.2032*%
G04:AMPARAMS|DCode=36|XSize=0.8032mm|YSize=1.8532mm|CornerRadius=0.2516mm|HoleSize=0mm|Usage=FLASHONLY|Rotation=90.000|XOffset=0mm|YOffset=0mm|HoleType=Round|Shape=RoundedRectangle|*
%AMROUNDEDRECTD36*
21,1,0.8032,1.3500,0,0,90.0*
21,1,0.3000,1.8532,0,0,90.0*
1,1,0.5032,0.6750,0.1500*
1,1,0.5032,0.6750,-0.1500*
1,1,0.5032,-0.6750,-0.1500*
1,1,0.5032,-0.6750,0.1500*
%
%ADD36ROUNDEDRECTD36*%
%ADD37R,0.8032X1.6032*%
%ADD38R,2.3532X3.4532*%
%ADD39R,2.3532X1.1532*%
%ADD40R,0.9032X1.5032*%
%ADD41R,1.6032X0.8032*%
%ADD42C,2.1032*%
%ADD43C,1.9532*%
%ADD44C,1.8032*%
%ADD45R,1.8032X1.8032*%
%ADD46C,6.2032*%
%ADD47C,1.5032*%
%ADD48C,1.0032*%
%ADD49C,0.9032*%
%ADD50C,0.8032*%
D28*
X660750Y801500D02*
D03*
Y780500D02*
D03*
X876250Y553500D02*
D03*
Y574500D02*
D03*
X854500Y553500D02*
D03*
Y574500D02*
D03*
X833000Y553500D02*
D03*
Y574500D02*
D03*
X1179500Y736000D02*
D03*
Y757000D02*
D03*
Y787250D02*
D03*
Y808250D02*
D03*
D29*
X769000Y762750D02*
D03*
X777000D02*
D03*
X785000D02*
D03*
X793000D02*
D03*
X801000D02*
D03*
X809000D02*
D03*
X817000D02*
D03*
X825000D02*
D03*
X833000D02*
D03*
X841000D02*
D03*
X849000D02*
D03*
Y648750D02*
D03*
X841000D02*
D03*
X833000D02*
D03*
X825000D02*
D03*
X817000D02*
D03*
X809000D02*
D03*
X801000D02*
D03*
X793000D02*
D03*
X785000D02*
D03*
X777000D02*
D03*
X769000D02*
D03*
D30*
X866000Y745750D02*
D03*
Y737750D02*
D03*
Y729750D02*
D03*
Y721750D02*
D03*
Y713750D02*
D03*
Y705750D02*
D03*
Y697750D02*
D03*
Y689750D02*
D03*
Y681750D02*
D03*
Y673750D02*
D03*
Y665750D02*
D03*
X752000D02*
D03*
Y673750D02*
D03*
Y681750D02*
D03*
Y689750D02*
D03*
Y697750D02*
D03*
Y705750D02*
D03*
Y713750D02*
D03*
Y721750D02*
D03*
Y729750D02*
D03*
Y737750D02*
D03*
Y745750D02*
D03*
X698000Y854600D02*
D03*
Y841900D02*
D03*
Y829200D02*
D03*
Y816500D02*
D03*
Y803800D02*
D03*
Y791100D02*
D03*
Y778400D02*
D03*
X752000Y854600D02*
D03*
Y841900D02*
D03*
Y829200D02*
D03*
Y816500D02*
D03*
Y803800D02*
D03*
Y791100D02*
D03*
Y778400D02*
D03*
D31*
X614250Y807894D02*
D03*
X635250D02*
D03*
D32*
X1145500Y641750D02*
D03*
Y622750D02*
D03*
X1151750Y765500D02*
D03*
Y746500D02*
D03*
Y801250D02*
D03*
Y782250D02*
D03*
X1135250Y687000D02*
D03*
Y668000D02*
D03*
X1115500Y668000D02*
D03*
Y687000D02*
D03*
X876250Y620000D02*
D03*
Y601000D02*
D03*
X854500Y620000D02*
D03*
Y601000D02*
D03*
X833000Y620000D02*
D03*
Y601000D02*
D03*
X1063750Y574750D02*
D03*
Y555750D02*
D03*
X1041750Y574750D02*
D03*
Y555750D02*
D03*
X1008750Y780000D02*
D03*
Y799000D02*
D03*
X986750Y840500D02*
D03*
Y821500D02*
D03*
X706750Y645250D02*
D03*
Y664250D02*
D03*
X706750Y735750D02*
D03*
Y754750D02*
D03*
X706250Y686250D02*
D03*
Y705250D02*
D03*
X660750Y847000D02*
D03*
Y828000D02*
D03*
X773500Y842250D02*
D03*
Y861250D02*
D03*
D33*
X1130750Y765500D02*
D03*
Y746500D02*
D03*
Y801250D02*
D03*
Y782250D02*
D03*
X897500Y573250D02*
D03*
Y554250D02*
D03*
X1096000Y687000D02*
D03*
Y668000D02*
D03*
X897500Y620000D02*
D03*
Y601000D02*
D03*
X1041750Y618250D02*
D03*
Y599250D02*
D03*
X970250Y725000D02*
D03*
Y706000D02*
D03*
X950000Y725000D02*
D03*
Y706000D02*
D03*
X929500Y725000D02*
D03*
Y706000D02*
D03*
X909750Y725000D02*
D03*
Y706000D02*
D03*
X889500Y725000D02*
D03*
Y706000D02*
D03*
X986750Y805014D02*
D03*
Y786014D02*
D03*
X986250Y876750D02*
D03*
Y857750D02*
D03*
X732250Y719250D02*
D03*
Y700250D02*
D03*
X830250Y823500D02*
D03*
Y804500D02*
D03*
Y862000D02*
D03*
Y843000D02*
D03*
X773500Y803750D02*
D03*
Y822750D02*
D03*
D34*
X810750Y861250D02*
D03*
X791750D02*
D03*
X810750Y841750D02*
D03*
X791750D02*
D03*
X810750Y822250D02*
D03*
X791750D02*
D03*
X810750Y803000D02*
D03*
X791750D02*
D03*
X810750Y783750D02*
D03*
X791750D02*
D03*
X1060750Y530550D02*
D03*
X1041750D02*
D03*
X795750Y553000D02*
D03*
X814750D02*
D03*
X795500Y572250D02*
D03*
X814500D02*
D03*
X795500Y591250D02*
D03*
X814500D02*
D03*
X795500Y610500D02*
D03*
X814500D02*
D03*
X795500Y629500D02*
D03*
X814500D02*
D03*
D35*
X928000Y665500D02*
D03*
X1023000D02*
D03*
D36*
X1018000Y530550D02*
D03*
Y543250D02*
D03*
Y555950D02*
D03*
Y568650D02*
D03*
Y581350D02*
D03*
Y594050D02*
D03*
Y606750D02*
D03*
Y619450D02*
D03*
X920500Y530550D02*
D03*
Y543250D02*
D03*
Y555950D02*
D03*
Y568650D02*
D03*
Y581350D02*
D03*
Y594050D02*
D03*
Y606750D02*
D03*
Y619450D02*
D03*
X965250Y787800D02*
D03*
Y800500D02*
D03*
Y813200D02*
D03*
Y825900D02*
D03*
Y838600D02*
D03*
Y851300D02*
D03*
Y864000D02*
D03*
Y876700D02*
D03*
X867750Y787800D02*
D03*
Y800500D02*
D03*
Y813200D02*
D03*
Y825900D02*
D03*
Y838600D02*
D03*
Y851300D02*
D03*
Y864000D02*
D03*
Y876700D02*
D03*
D37*
X1081500Y625000D02*
D03*
X1062500D02*
D03*
X1072000Y601000D02*
D03*
X775500Y594000D02*
D03*
X756500D02*
D03*
X766000Y570000D02*
D03*
X738750Y594000D02*
D03*
X719750D02*
D03*
X729250Y570000D02*
D03*
X700500Y594000D02*
D03*
X681500D02*
D03*
X691000Y570000D02*
D03*
D38*
X1044500Y769750D02*
D03*
D39*
X1102500Y792750D02*
D03*
Y769750D02*
D03*
Y746750D02*
D03*
D40*
X775500Y616500D02*
D03*
X756500D02*
D03*
X738750D02*
D03*
X719750D02*
D03*
X700750Y616000D02*
D03*
X681750D02*
D03*
X715500Y874250D02*
D03*
X734500D02*
D03*
D41*
X684750Y686000D02*
D03*
Y705000D02*
D03*
X660750Y695500D02*
D03*
X685000Y645250D02*
D03*
Y664250D02*
D03*
X661000Y654750D02*
D03*
X685250Y735750D02*
D03*
Y754750D02*
D03*
X661250Y745250D02*
D03*
D42*
X1122250Y843250D02*
D03*
X1147250D02*
D03*
X1122250Y868250D02*
D03*
X1147250D02*
D03*
X1218250Y787000D02*
D03*
Y762000D02*
D03*
X1243250Y787000D02*
D03*
Y762000D02*
D03*
X1242500Y611750D02*
D03*
Y636750D02*
D03*
Y661750D02*
D03*
Y686750D02*
D03*
X621500Y749500D02*
D03*
Y774500D02*
D03*
Y690000D02*
D03*
Y665000D02*
D03*
X756750Y537750D02*
D03*
X731750D02*
D03*
X706750D02*
D03*
X681750D02*
D03*
D43*
X1040250Y868000D02*
D03*
Y838000D02*
D03*
X1155250Y562250D02*
D03*
X1125250D02*
D03*
X1155250Y532250D02*
D03*
X1125250D02*
D03*
D44*
X896000Y754500D02*
D03*
X921400D02*
D03*
X946800D02*
D03*
X1008250Y712500D02*
D03*
X1033650D02*
D03*
X1084450D02*
D03*
X1109850D02*
D03*
X1059050D02*
D03*
D45*
X972200Y754500D02*
D03*
X1135250Y712500D02*
D03*
D46*
X1236500Y852800D02*
D03*
Y550250D02*
D03*
X606750Y852800D02*
D03*
X607000Y548750D02*
D03*
D47*
X724250Y660441D02*
D03*
D48*
X635250Y823000D02*
D03*
X974500Y557750D02*
D03*
X789750Y520250D02*
D03*
X1115165Y614000D02*
D03*
X906269Y834250D02*
D03*
X1100000Y809750D02*
D03*
X1225000Y700000D02*
D03*
X1200000Y650000D02*
D03*
X1225000Y600000D02*
D03*
X1200000Y550000D02*
D03*
X1175000Y600000D02*
D03*
X1100000Y850000D02*
D03*
X1000000D02*
D03*
X1025000Y800000D02*
D03*
X1000000Y750000D02*
D03*
X975000Y600000D02*
D03*
X925000Y800000D02*
D03*
X775000Y700000D02*
D03*
X750000Y650000D02*
D03*
X725000Y800000D02*
D03*
X650000Y550000D02*
D03*
X600000Y750000D02*
D03*
Y650000D02*
D03*
X625000Y600000D02*
D03*
D49*
X683500Y884788D02*
D03*
X1025500Y768811D02*
D03*
X1134750Y881650D02*
D03*
X1070250Y877400D02*
D03*
X1010250D02*
D03*
X1185250Y522850D02*
D03*
X1095250D02*
D03*
X594750Y814000D02*
D03*
X842040Y776290D02*
D03*
X781038Y810164D02*
D03*
X793000Y727285D02*
D03*
X849250Y721562D02*
D03*
X842000Y729770D02*
D03*
X1006250Y684500D02*
D03*
X945000Y555950D02*
D03*
X934750Y594000D02*
D03*
X1033557Y689750D02*
D03*
X1256650Y774500D02*
D03*
X1255900Y649250D02*
D03*
X608100Y762000D02*
D03*
Y677500D02*
D03*
X719250Y524350D02*
D03*
X829287Y697750D02*
D03*
X843967Y563568D02*
D03*
X865500D02*
D03*
X1118000Y759000D02*
D03*
X942000Y799750D02*
D03*
X1159750Y732750D02*
D03*
X1126750D02*
D03*
X701250Y875500D02*
D03*
X737000Y841750D02*
D03*
X1041750Y629000D02*
D03*
X911250Y684020D02*
D03*
X842000Y681750D02*
D03*
X849250Y689750D02*
D03*
X763500Y780000D02*
D03*
D50*
X841243Y865250D02*
D03*
X867161Y540250D02*
D03*
X784710Y789029D02*
D03*
M02*
