G04*
G04 #@! TF.GenerationSoftware,Altium Limited,Altium Designer,18.1.9 (240)*
G04*
G04 Layer_Physical_Order=2*
G04 Layer_Color=32768*
%FSLAX44Y44*%
%MOMM*%
G71*
G01*
G75*
%ADD63C,1.0160*%
%ADD64C,2.3160*%
G04:AMPARAMS|DCode=65|XSize=2.824mm|YSize=2.824mm|CornerRadius=0mm|HoleSize=0mm|Usage=FLASHONLY|Rotation=0.000|XOffset=0mm|YOffset=0mm|HoleType=Round|Shape=Relief|Width=0.254mm|Gap=0.254mm|Entries=4|*
%AMTHD65*
7,0,0,2.8240,2.3160,0.2540,45*
%
%ADD65THD65*%
%ADD66C,2.1660*%
%ADD67C,2.1160*%
G04:AMPARAMS|DCode=68|XSize=2.624mm|YSize=2.624mm|CornerRadius=0mm|HoleSize=0mm|Usage=FLASHONLY|Rotation=0.000|XOffset=0mm|YOffset=0mm|HoleType=Round|Shape=Relief|Width=0.254mm|Gap=0.254mm|Entries=4|*
%AMTHD68*
7,0,0,2.6240,2.1160,0.2540,45*
%
%ADD68THD68*%
G04:AMPARAMS|DCode=69|XSize=4.774mm|YSize=4.774mm|CornerRadius=0mm|HoleSize=0mm|Usage=FLASHONLY|Rotation=0.000|XOffset=0mm|YOffset=0mm|HoleType=Round|Shape=Relief|Width=0.254mm|Gap=0.254mm|Entries=4|*
%AMTHD69*
7,0,0,4.7740,4.2660,0.2540,45*
%
%ADD69THD69*%
G04:AMPARAMS|DCode=70|XSize=2.424mm|YSize=2.424mm|CornerRadius=0mm|HoleSize=0mm|Usage=FLASHONLY|Rotation=0.000|XOffset=0mm|YOffset=0mm|HoleType=Round|Shape=Relief|Width=0.254mm|Gap=0.254mm|Entries=4|*
%AMTHD70*
7,0,0,2.4240,1.9160,0.2540,45*
%
%ADD70THD70*%
%ADD71C,1.5160*%
G04:AMPARAMS|DCode=72|XSize=2.024mm|YSize=2.024mm|CornerRadius=0mm|HoleSize=0mm|Usage=FLASHONLY|Rotation=0.000|XOffset=0mm|YOffset=0mm|HoleType=Round|Shape=Relief|Width=0.254mm|Gap=0.254mm|Entries=4|*
%AMTHD72*
7,0,0,2.0240,1.5160,0.2540,45*
%
%ADD72THD72*%
D63*
X565750Y507750D02*
X1280000D01*
Y895250D01*
X565750D02*
X1280000D01*
X565750Y507750D02*
Y895250D01*
D64*
X1122250Y843250D02*
D03*
X1147250D02*
D03*
X1122250Y868250D02*
D03*
X1218250Y762000D02*
D03*
X1243250Y787000D02*
D03*
Y762000D02*
D03*
X1242500Y611750D02*
D03*
Y636750D02*
D03*
Y661750D02*
D03*
X621500Y749500D02*
D03*
Y774500D02*
D03*
Y690000D02*
D03*
Y665000D02*
D03*
X756750Y537750D02*
D03*
X731750D02*
D03*
X706750D02*
D03*
X681750D02*
D03*
D65*
X1147250Y868250D02*
D03*
X1218250Y787000D02*
D03*
X1242500Y686750D02*
D03*
D66*
X1040250Y868000D02*
D03*
Y838000D02*
D03*
X1155250Y562250D02*
D03*
X1125250D02*
D03*
X1155250Y532250D02*
D03*
X1125250D02*
D03*
D67*
X896000Y754500D02*
D03*
X921400D02*
D03*
X972200D02*
D03*
X1008250Y712500D02*
D03*
X1033650D02*
D03*
X1135250D02*
D03*
X1109850D02*
D03*
X1059050D02*
D03*
D68*
X946800Y754500D02*
D03*
X1084450Y712500D02*
D03*
D69*
X1236500Y852800D02*
D03*
Y550250D02*
D03*
X606750Y852800D02*
D03*
X607000Y548750D02*
D03*
D70*
X724250Y660441D02*
D03*
D71*
X635250Y823000D02*
D03*
X683500Y884788D02*
D03*
X1025500Y768811D02*
D03*
X1134750Y881650D02*
D03*
X1070250Y877400D02*
D03*
X1010250D02*
D03*
X1185250Y522850D02*
D03*
X1095250D02*
D03*
X594750Y814000D02*
D03*
X842040Y776290D02*
D03*
X781038Y810164D02*
D03*
X793000Y727285D02*
D03*
X849250Y721562D02*
D03*
X842000Y729770D02*
D03*
X841243Y865250D02*
D03*
X867161Y540250D02*
D03*
X1006250Y684500D02*
D03*
X784710Y789029D02*
D03*
X945000Y555950D02*
D03*
X934750Y594000D02*
D03*
X1033557Y689750D02*
D03*
X1256650Y774500D02*
D03*
X1255900Y649250D02*
D03*
X608100Y762000D02*
D03*
Y677500D02*
D03*
X719250Y524350D02*
D03*
X829287Y697750D02*
D03*
X1118000Y759000D02*
D03*
X942000Y799750D02*
D03*
X1159750Y732750D02*
D03*
X1126750D02*
D03*
X701250Y875500D02*
D03*
X737000Y841750D02*
D03*
X1041750Y629000D02*
D03*
X911250Y684020D02*
D03*
X842000Y681750D02*
D03*
X849250Y689750D02*
D03*
X763500Y780000D02*
D03*
D72*
X974500Y557750D02*
D03*
X789750Y520250D02*
D03*
X1115165Y614000D02*
D03*
X906269Y834250D02*
D03*
X1100000Y809750D02*
D03*
X1225000Y700000D02*
D03*
X1200000Y650000D02*
D03*
X1225000Y600000D02*
D03*
X1200000Y550000D02*
D03*
X1175000Y600000D02*
D03*
X1100000Y850000D02*
D03*
X1000000D02*
D03*
X1025000Y800000D02*
D03*
X1000000Y750000D02*
D03*
X975000Y600000D02*
D03*
X925000Y800000D02*
D03*
X775000Y700000D02*
D03*
X750000Y650000D02*
D03*
X725000Y800000D02*
D03*
X650000Y550000D02*
D03*
X600000Y750000D02*
D03*
Y650000D02*
D03*
X625000Y600000D02*
D03*
X843967Y563568D02*
D03*
X865500D02*
D03*
M02*
