G04*
G04 #@! TF.GenerationSoftware,Altium Limited,Altium Designer,18.1.9 (240)*
G04*
G04 Layer_Color=12632256*
%FSLAX44Y44*%
%MOMM*%
G71*
G01*
G75*
%ADD54C,1.9000*%
%ADD55C,1.7500*%
%ADD56C,1.6000*%
%ADD57R,1.6000X1.6000*%
%ADD58C,6.0000*%
D54*
X1122250Y843250D02*
D03*
X1147250D02*
D03*
X1122250Y868250D02*
D03*
X1147250D02*
D03*
X1218250Y787000D02*
D03*
Y762000D02*
D03*
X1243250Y787000D02*
D03*
Y762000D02*
D03*
X1242500Y611750D02*
D03*
Y636750D02*
D03*
Y661750D02*
D03*
Y686750D02*
D03*
X621500Y749500D02*
D03*
Y774500D02*
D03*
Y690000D02*
D03*
Y665000D02*
D03*
X756750Y537750D02*
D03*
X731750D02*
D03*
X706750D02*
D03*
X681750D02*
D03*
D55*
X1040250Y868000D02*
D03*
Y838000D02*
D03*
X1155250Y562250D02*
D03*
X1125250D02*
D03*
X1155250Y532250D02*
D03*
X1125250D02*
D03*
D56*
X896000Y754500D02*
D03*
X921400D02*
D03*
X946800D02*
D03*
X1008250Y712500D02*
D03*
X1033650D02*
D03*
X1084450D02*
D03*
X1109850D02*
D03*
X1059050D02*
D03*
D57*
X972200Y754500D02*
D03*
X1135250Y712500D02*
D03*
D58*
X1236500Y852800D02*
D03*
Y550250D02*
D03*
X606750Y852800D02*
D03*
X607000Y548750D02*
D03*
M02*
