G04*
G04 #@! TF.GenerationSoftware,Altium Limited,Altium Designer,23.11.1 (41)*
G04*
G04 Layer_Color=16711935*
%FSLAX44Y44*%
%MOMM*%
G71*
G04*
G04 #@! TF.SameCoordinates,025D5C86-A068-4BC3-B2EE-C31E22AC0A5F*
G04*
G04*
G04 #@! TF.FilePolarity,Negative*
G04*
G01*
G75*
%ADD27R,1.1032X1.5032*%
%ADD30C,1.2032*%
%ADD31R,1.3532X1.5532*%
%ADD34R,1.5032X1.1032*%
%ADD37C,3.2032*%
%ADD38C,0.2032*%
%ADD39C,2.2032*%
%ADD40C,1.8032*%
G04:AMPARAMS|DCode=41|XSize=1.8032mm|YSize=1.8032mm|CornerRadius=0.5016mm|HoleSize=0mm|Usage=FLASHONLY|Rotation=270.000|XOffset=0mm|YOffset=0mm|HoleType=Round|Shape=RoundedRectangle|*
%AMROUNDEDRECTD41*
21,1,1.8032,0.8000,0,0,270.0*
21,1,0.8000,1.8032,0,0,270.0*
1,1,1.0032,-0.4000,-0.4000*
1,1,1.0032,-0.4000,0.4000*
1,1,1.0032,0.4000,0.4000*
1,1,1.0032,0.4000,-0.4000*
%
%ADD41ROUNDEDRECTD41*%
%ADD42C,2.0032*%
G04:AMPARAMS|DCode=43|XSize=2.0032mm|YSize=2.0032mm|CornerRadius=0.5516mm|HoleSize=0mm|Usage=FLASHONLY|Rotation=90.000|XOffset=0mm|YOffset=0mm|HoleType=Round|Shape=RoundedRectangle|*
%AMROUNDEDRECTD43*
21,1,2.0032,0.9000,0,0,90.0*
21,1,0.9000,2.0032,0,0,90.0*
1,1,1.1032,0.4500,0.4500*
1,1,1.1032,0.4500,-0.4500*
1,1,1.1032,-0.4500,-0.4500*
1,1,1.1032,-0.4500,0.4500*
%
%ADD43ROUNDEDRECTD43*%
%ADD44C,0.6532*%
G04:AMPARAMS|DCode=57|XSize=0.8532mm|YSize=1.4532mm|CornerRadius=0.2641mm|HoleSize=0mm|Usage=FLASHONLY|Rotation=270.000|XOffset=0mm|YOffset=0mm|HoleType=Round|Shape=RoundedRectangle|*
%AMROUNDEDRECTD57*
21,1,0.8532,0.9250,0,0,270.0*
21,1,0.3250,1.4532,0,0,270.0*
1,1,0.5282,-0.4625,-0.1625*
1,1,0.5282,-0.4625,0.1625*
1,1,0.5282,0.4625,0.1625*
1,1,0.5282,0.4625,-0.1625*
%
%ADD57ROUNDEDRECTD57*%
%ADD58R,1.5532X1.3532*%
%ADD59R,1.8032X0.6532*%
D27*
X345384Y211034D02*
D03*
X322384D02*
D03*
X407500Y148000D02*
D03*
X388500D02*
D03*
X273500Y142500D02*
D03*
X292500D02*
D03*
X264500Y127500D02*
D03*
X283500D02*
D03*
X276500Y166500D02*
D03*
X257500D02*
D03*
X380068Y211267D02*
D03*
X357068D02*
D03*
X349750Y190250D02*
D03*
X330750D02*
D03*
X171500Y150500D02*
D03*
X152500D02*
D03*
X193524Y133124D02*
D03*
X212524D02*
D03*
X234500Y141500D02*
D03*
X253500D02*
D03*
X246880Y122774D02*
D03*
X227880D02*
D03*
X137500Y187500D02*
D03*
X156500D02*
D03*
X216458Y154252D02*
D03*
X197458D02*
D03*
D30*
X718820Y353060D02*
D03*
X744220D02*
D03*
D31*
X503050Y395016D02*
D03*
X521550D02*
D03*
X503050Y369616D02*
D03*
X521550D02*
D03*
X503050Y344216D02*
D03*
X521550D02*
D03*
X503050Y318820D02*
D03*
X521550D02*
D03*
X503050Y293420D02*
D03*
X521550D02*
D03*
X503050Y268016D02*
D03*
X521550D02*
D03*
X503050Y242616D02*
D03*
X521550D02*
D03*
X503050Y217216D02*
D03*
X521550D02*
D03*
X503050Y191816D02*
D03*
X521550D02*
D03*
X503050Y166416D02*
D03*
X521550D02*
D03*
X503050Y141016D02*
D03*
X521550D02*
D03*
Y115616D02*
D03*
X503050D02*
D03*
X323839Y231229D02*
D03*
X342339D02*
D03*
X377644Y230445D02*
D03*
X359144D02*
D03*
D34*
X383540Y287680D02*
D03*
Y306680D02*
D03*
X363883Y173339D02*
D03*
Y150339D02*
D03*
X363695Y136761D02*
D03*
Y113761D02*
D03*
D37*
X1374250Y105400D02*
D03*
X316000Y394600D02*
D03*
X1369750D02*
D03*
D38*
X25400Y105400D02*
D03*
D39*
X170000Y470000D02*
D03*
X200000D02*
D03*
X50000D02*
D03*
X80000D02*
D03*
D40*
X1274000Y107050D02*
D03*
Y81650D02*
D03*
Y132450D02*
D03*
Y157850D02*
D03*
Y208650D02*
D03*
Y234050D02*
D03*
Y284850D02*
D03*
Y335650D02*
D03*
Y361050D02*
D03*
Y310250D02*
D03*
Y259450D02*
D03*
Y183250D02*
D03*
D41*
Y386450D02*
D03*
D42*
X152400Y55400D02*
D03*
X228600D02*
D03*
X203200D02*
D03*
X177800D02*
D03*
X127000D02*
D03*
X101600D02*
D03*
X254000D02*
D03*
D43*
X279400D02*
D03*
D44*
X358000Y198750D02*
D03*
X183500Y108000D02*
D03*
X162381Y111881D02*
D03*
X137481Y111981D02*
D03*
X112184Y111684D02*
D03*
X721750Y279750D02*
D03*
X1077250Y201250D02*
D03*
X1078250Y230600D02*
D03*
X1079250Y147250D02*
D03*
X79750Y267250D02*
D03*
X1017500Y76500D02*
D03*
X1042000Y144000D02*
D03*
X245875Y168750D02*
D03*
X1022450Y52150D02*
D03*
X1049000Y66176D02*
D03*
X1220900Y55850D02*
D03*
X1210035Y411450D02*
D03*
X1041750Y391000D02*
D03*
X1042250Y367250D02*
D03*
X1039750Y341600D02*
D03*
Y290800D02*
D03*
X1080250Y265000D02*
D03*
X1044000Y248500D02*
D03*
X1041516Y204516D02*
D03*
X1048750Y189500D02*
D03*
X1043750Y122000D02*
D03*
X1077450Y306800D02*
D03*
X1084250Y99850D02*
D03*
X1078250Y129000D02*
D03*
Y179800D02*
D03*
Y281400D02*
D03*
Y332200D02*
D03*
Y357600D02*
D03*
X1081249Y383000D02*
D03*
D57*
X915600Y395016D02*
D03*
X944100Y309316D02*
D03*
X915600Y318816D02*
D03*
Y299816D02*
D03*
Y376016D02*
D03*
X944100Y385516D02*
D03*
X915600Y33116D02*
D03*
Y52116D02*
D03*
X944100Y42616D02*
D03*
X915600Y71216D02*
D03*
Y90216D02*
D03*
X944100Y80716D02*
D03*
X915600Y109316D02*
D03*
Y128316D02*
D03*
X944100Y118816D02*
D03*
X915600Y147416D02*
D03*
Y166416D02*
D03*
X944100Y156916D02*
D03*
X915600Y185516D02*
D03*
Y204516D02*
D03*
X944100Y195016D02*
D03*
X915600Y223616D02*
D03*
Y242616D02*
D03*
X944100Y233116D02*
D03*
X915600Y261716D02*
D03*
Y280716D02*
D03*
X944100Y271216D02*
D03*
X915600Y337916D02*
D03*
Y356916D02*
D03*
X944100Y347416D02*
D03*
X915600Y414116D02*
D03*
Y433116D02*
D03*
X944100Y423616D02*
D03*
X915600Y452216D02*
D03*
Y471216D02*
D03*
X944100Y461716D02*
D03*
D58*
X345123Y170336D02*
D03*
Y151836D02*
D03*
X344874Y135538D02*
D03*
Y117038D02*
D03*
X365760Y281030D02*
D03*
Y262530D02*
D03*
X383540Y270870D02*
D03*
Y252370D02*
D03*
X104000Y85000D02*
D03*
Y103500D02*
D03*
X129000Y85000D02*
D03*
Y103500D02*
D03*
X154000Y85000D02*
D03*
Y103500D02*
D03*
X179000Y85000D02*
D03*
Y103500D02*
D03*
X204000Y85000D02*
D03*
Y103500D02*
D03*
X229000Y85000D02*
D03*
Y103500D02*
D03*
X254000Y85000D02*
D03*
Y103500D02*
D03*
X279000Y85000D02*
D03*
Y103500D02*
D03*
D59*
X175500Y168750D02*
D03*
Y175250D02*
D03*
Y181750D02*
D03*
Y188250D02*
D03*
Y194750D02*
D03*
Y201250D02*
D03*
Y207750D02*
D03*
Y214250D02*
D03*
X236500Y168750D02*
D03*
Y175250D02*
D03*
Y181750D02*
D03*
Y188250D02*
D03*
Y194750D02*
D03*
Y201250D02*
D03*
Y207750D02*
D03*
Y214250D02*
D03*
M02*
