M48
;Layer_Color=9474304
;FILE_FORMAT=4:4
METRIC,LZ
;TYPE=PLATED
T01F00S00C1.1000
%
T01
X00026Y000236
Y00049
Y000744
Y000998
Y001252
Y001506
Y00176
Y002014
Y002268
Y002522
Y002776
Y00303
Y003284
Y003538
Y003792
X00266
Y003538
Y003284
Y00303
Y002776
Y002522
Y002268
Y002014
Y00176
Y001506
Y001252
Y000998
Y000744
Y00049
Y000236
Y004046
Y0043
Y004554
Y004808
Y005062
Y005316
Y00557
Y005824
Y006078
X00266Y006332
Y006586
Y00684
Y007094
Y007348
Y007602
Y007856
X00026
Y007602
Y007348
Y007094
Y00684
Y006586
Y006332
Y006078
Y005824
Y00557
Y005316
Y005062
Y004808
Y004554
Y0043
Y004046
Y00811
X00266
M30
