G04*
G04 #@! TF.GenerationSoftware,Altium Limited,Altium Designer,23.11.1 (41)*
G04*
G04 Layer_Physical_Order=3*
G04 Layer_Color=16440176*
%FSLAX44Y44*%
%MOMM*%
G71*
G04*
G04 #@! TF.SameCoordinates,5EC7E9E9-DCDC-4549-86B2-7143CB65AA8E*
G04*
G04*
G04 #@! TF.FilePolarity,Positive*
G04*
G01*
G75*
%ADD46C,3.0000*%
%ADD47C,2.0000*%
%ADD48C,0.6000*%
%ADD49C,1.6000*%
G04:AMPARAMS|DCode=50|XSize=1.6mm|YSize=1.6mm|CornerRadius=0.4mm|HoleSize=0mm|Usage=FLASHONLY|Rotation=270.000|XOffset=0mm|YOffset=0mm|HoleType=Round|Shape=RoundedRectangle|*
%AMROUNDEDRECTD50*
21,1,1.6000,0.8000,0,0,270.0*
21,1,0.8000,1.6000,0,0,270.0*
1,1,0.8000,-0.4000,-0.4000*
1,1,0.8000,-0.4000,0.4000*
1,1,0.8000,0.4000,0.4000*
1,1,0.8000,0.4000,-0.4000*
%
%ADD50ROUNDEDRECTD50*%
%ADD51C,1.8000*%
G04:AMPARAMS|DCode=52|XSize=1.8mm|YSize=1.8mm|CornerRadius=0.45mm|HoleSize=0mm|Usage=FLASHONLY|Rotation=90.000|XOffset=0mm|YOffset=0mm|HoleType=Round|Shape=RoundedRectangle|*
%AMROUNDEDRECTD52*
21,1,1.8000,0.9000,0,0,90.0*
21,1,0.9000,1.8000,0,0,90.0*
1,1,0.9000,0.4500,0.4500*
1,1,0.9000,0.4500,-0.4500*
1,1,0.9000,-0.4500,-0.4500*
1,1,0.9000,-0.4500,0.4500*
%
%ADD52ROUNDEDRECTD52*%
%ADD53C,0.4500*%
%ADD54C,0.5000*%
G36*
X1380000Y500000D02*
X1381970Y500000D01*
X1385834Y499231D01*
X1389474Y497724D01*
X1392749Y495535D01*
X1395535Y492749D01*
X1397724Y489473D01*
X1399231Y485834D01*
X1400000Y481970D01*
X1400000Y480000D01*
X1400000D01*
X1400000Y480000D01*
X1400000Y20000D01*
X1400000Y18030D01*
X1399231Y14166D01*
X1397724Y10526D01*
X1395535Y7251D01*
X1392749Y4465D01*
X1389474Y2276D01*
X1385834Y769D01*
X1381970Y0D01*
X19945D01*
X15671Y850D01*
X11644Y2518D01*
X8021Y4939D01*
X4939Y8021D01*
X2518Y11644D01*
X850Y15671D01*
X0Y19945D01*
Y22124D01*
Y290000D01*
X280000D01*
Y500000D01*
X1380000Y500000D01*
D02*
G37*
%LPC*%
G36*
X930485Y476690D02*
X928795D01*
X927233Y476043D01*
X926037Y474847D01*
X925390Y473285D01*
Y471595D01*
X926037Y470033D01*
X927233Y468837D01*
X928795Y468190D01*
X930485D01*
X932047Y468837D01*
X933243Y470033D01*
X933890Y471595D01*
Y473285D01*
X933243Y474847D01*
X932047Y476043D01*
X930485Y476690D01*
D02*
G37*
G36*
X830845Y464250D02*
X829155D01*
X827593Y463603D01*
X826397Y462407D01*
X825750Y460845D01*
Y459155D01*
X826397Y457593D01*
X827593Y456397D01*
X829155Y455750D01*
X830845D01*
X832407Y456397D01*
X833603Y457593D01*
X834250Y459155D01*
Y460845D01*
X833603Y462407D01*
X832407Y463603D01*
X830845Y464250D01*
D02*
G37*
G36*
X899322Y450783D02*
X897632D01*
X896070Y450136D01*
X894874Y448940D01*
X894227Y447378D01*
Y445688D01*
X894874Y444126D01*
X896070Y442930D01*
X897632Y442283D01*
X899322D01*
X900884Y442930D01*
X902080Y444126D01*
X902727Y445688D01*
Y447378D01*
X902080Y448940D01*
X900884Y450136D01*
X899322Y450783D01*
D02*
G37*
G36*
X587345Y445250D02*
X585655D01*
X584093Y444603D01*
X582897Y443407D01*
X582250Y441845D01*
Y440155D01*
X582897Y438593D01*
X584093Y437397D01*
X585655Y436750D01*
X587345D01*
X588907Y437397D01*
X590103Y438593D01*
X590750Y440155D01*
Y441845D01*
X590103Y443407D01*
X588907Y444603D01*
X587345Y445250D01*
D02*
G37*
G36*
X666325Y436050D02*
X664635D01*
X663073Y435403D01*
X661877Y434207D01*
X661230Y432645D01*
Y430955D01*
X661877Y429393D01*
X663073Y428197D01*
X664635Y427550D01*
X666325D01*
X667887Y428197D01*
X669083Y429393D01*
X669730Y430955D01*
Y432645D01*
X669083Y434207D01*
X667887Y435403D01*
X666325Y436050D01*
D02*
G37*
G36*
X1211305Y416109D02*
Y412720D01*
X1214694D01*
X1214096Y414163D01*
X1212748Y415511D01*
X1211305Y416109D01*
D02*
G37*
G36*
X1208765D02*
X1207322Y415511D01*
X1205974Y414163D01*
X1205376Y412720D01*
X1208765D01*
Y416109D01*
D02*
G37*
G36*
X472270Y410659D02*
Y407270D01*
X475659D01*
X475061Y408713D01*
X473713Y410061D01*
X472270Y410659D01*
D02*
G37*
G36*
X469730D02*
X468287Y410061D01*
X466939Y408713D01*
X466341Y407270D01*
X469730D01*
Y410659D01*
D02*
G37*
G36*
X1214694Y410180D02*
X1211305D01*
Y406791D01*
X1212748Y407389D01*
X1214096Y408737D01*
X1214694Y410180D01*
D02*
G37*
G36*
X1208765D02*
X1205376D01*
X1205974Y408737D01*
X1207322Y407389D01*
X1208765Y406791D01*
Y410180D01*
D02*
G37*
G36*
X475659Y404730D02*
X472270D01*
Y401341D01*
X473713Y401939D01*
X475061Y403287D01*
X475659Y404730D01*
D02*
G37*
G36*
X469730D02*
X466341D01*
X466939Y403287D01*
X468287Y401939D01*
X469730Y401341D01*
Y404730D01*
D02*
G37*
G36*
X1042595Y395250D02*
X1040905D01*
X1039343Y394603D01*
X1038147Y393407D01*
X1037500Y391845D01*
Y390155D01*
X1038147Y388593D01*
X1039343Y387397D01*
X1040905Y386750D01*
X1042595D01*
X1044157Y387397D01*
X1045353Y388593D01*
X1046000Y390155D01*
Y391845D01*
X1045353Y393407D01*
X1044157Y394603D01*
X1042595Y395250D01*
D02*
G37*
G36*
X1012129Y387776D02*
Y384387D01*
X1015518D01*
X1014920Y385830D01*
X1013572Y387178D01*
X1012129Y387776D01*
D02*
G37*
G36*
X1009589D02*
X1008146Y387178D01*
X1006798Y385830D01*
X1006200Y384387D01*
X1009589D01*
Y387776D01*
D02*
G37*
G36*
X1082095Y387250D02*
X1080404D01*
X1078842Y386603D01*
X1077646Y385407D01*
X1076999Y383845D01*
Y382155D01*
X1077646Y380593D01*
X1078842Y379397D01*
X1080404Y378750D01*
X1082095D01*
X1083657Y379397D01*
X1084852Y380593D01*
X1085499Y382155D01*
Y383845D01*
X1084852Y385407D01*
X1083657Y386603D01*
X1082095Y387250D01*
D02*
G37*
G36*
X1015518Y381847D02*
X1012129D01*
Y378458D01*
X1013572Y379056D01*
X1014920Y380404D01*
X1015518Y381847D01*
D02*
G37*
G36*
X1009589D02*
X1006200D01*
X1006798Y380404D01*
X1008146Y379056D01*
X1009589Y378458D01*
Y381847D01*
D02*
G37*
G36*
X1371523Y412600D02*
X1367977D01*
X1364500Y411908D01*
X1361224Y410551D01*
X1358276Y408582D01*
X1355768Y406074D01*
X1353799Y403126D01*
X1352442Y399850D01*
X1351750Y396373D01*
Y392827D01*
X1352442Y389350D01*
X1353799Y386074D01*
X1355768Y383126D01*
X1358276Y380619D01*
X1361224Y378649D01*
X1364500Y377292D01*
X1367977Y376600D01*
X1371523D01*
X1375000Y377292D01*
X1378276Y378649D01*
X1381224Y380619D01*
X1383732Y383126D01*
X1385701Y386074D01*
X1387058Y389350D01*
X1387750Y392827D01*
Y396373D01*
X1387058Y399850D01*
X1385701Y403126D01*
X1383732Y406074D01*
X1381224Y408582D01*
X1378276Y410551D01*
X1375000Y411908D01*
X1371523Y412600D01*
D02*
G37*
G36*
X317773D02*
X314227D01*
X310750Y411908D01*
X307474Y410551D01*
X304526Y408582D01*
X302019Y406074D01*
X300049Y403126D01*
X298692Y399850D01*
X298000Y396373D01*
Y392827D01*
X298692Y389350D01*
X300049Y386074D01*
X302019Y383126D01*
X304526Y380619D01*
X307474Y378649D01*
X310750Y377292D01*
X314227Y376600D01*
X317773D01*
X321250Y377292D01*
X324526Y378649D01*
X327474Y380619D01*
X329981Y383126D01*
X331951Y386074D01*
X333308Y389350D01*
X334000Y392827D01*
Y396373D01*
X333308Y399850D01*
X331951Y403126D01*
X329981Y406074D01*
X327474Y408582D01*
X324526Y410551D01*
X321250Y411908D01*
X317773Y412600D01*
D02*
G37*
G36*
X1278000Y396567D02*
X1270000D01*
X1267659Y396102D01*
X1265674Y394776D01*
X1264348Y392791D01*
X1263883Y390450D01*
Y382450D01*
X1264348Y380109D01*
X1265674Y378124D01*
X1267659Y376798D01*
X1270000Y376333D01*
X1278000D01*
X1280341Y376798D01*
X1282326Y378124D01*
X1283652Y380109D01*
X1284117Y382450D01*
Y390450D01*
X1283652Y392791D01*
X1282326Y394776D01*
X1280341Y396102D01*
X1278000Y396567D01*
D02*
G37*
G36*
X682595Y377500D02*
X680905D01*
X679343Y376853D01*
X678147Y375657D01*
X677500Y374095D01*
Y372405D01*
X678147Y370843D01*
X679343Y369647D01*
X680905Y369000D01*
X682595D01*
X684157Y369647D01*
X685353Y370843D01*
X686000Y372405D01*
Y374095D01*
X685353Y375657D01*
X684157Y376853D01*
X682595Y377500D01*
D02*
G37*
G36*
X794942Y377054D02*
X793252D01*
X791690Y376407D01*
X790494Y375211D01*
X789847Y373649D01*
Y371959D01*
X790494Y370397D01*
X791690Y369201D01*
X793252Y368554D01*
X794942D01*
X796504Y369201D01*
X797700Y370397D01*
X798347Y371959D01*
Y373649D01*
X797700Y375211D01*
X796504Y376407D01*
X794942Y377054D01*
D02*
G37*
G36*
X459845Y373250D02*
X458155D01*
X456593Y372603D01*
X455397Y371407D01*
X454750Y369845D01*
Y368155D01*
X455397Y366593D01*
X456593Y365397D01*
X458155Y364750D01*
X459845D01*
X461407Y365397D01*
X462603Y366593D01*
X463250Y368155D01*
Y369845D01*
X462603Y371407D01*
X461407Y372603D01*
X459845Y373250D01*
D02*
G37*
G36*
X1043095Y371500D02*
X1041405D01*
X1039843Y370853D01*
X1038647Y369657D01*
X1038000Y368095D01*
Y366405D01*
X1038647Y364843D01*
X1039843Y363647D01*
X1041405Y363000D01*
X1043095D01*
X1044657Y363647D01*
X1045853Y364843D01*
X1046500Y366405D01*
Y368095D01*
X1045853Y369657D01*
X1044657Y370853D01*
X1043095Y371500D01*
D02*
G37*
G36*
X1012770Y359409D02*
Y356020D01*
X1016159D01*
X1015561Y357463D01*
X1014213Y358811D01*
X1012770Y359409D01*
D02*
G37*
G36*
X1010230D02*
X1008787Y358811D01*
X1007439Y357463D01*
X1006841Y356020D01*
X1010230D01*
Y359409D01*
D02*
G37*
G36*
X745490Y358530D02*
Y354330D01*
X749690D01*
X748917Y356198D01*
X747358Y357757D01*
X745490Y358530D01*
D02*
G37*
G36*
X742950D02*
X741082Y357757D01*
X739523Y356198D01*
X738750Y354330D01*
X742950D01*
Y358530D01*
D02*
G37*
G36*
X1079095Y361850D02*
X1077405D01*
X1075843Y361203D01*
X1074647Y360007D01*
X1074000Y358445D01*
Y356755D01*
X1074647Y355193D01*
X1075843Y353997D01*
X1077405Y353350D01*
X1079095D01*
X1080657Y353997D01*
X1081853Y355193D01*
X1082500Y356755D01*
Y358445D01*
X1081853Y360007D01*
X1080657Y361203D01*
X1079095Y361850D01*
D02*
G37*
G36*
X932845Y360250D02*
X931155D01*
X929593Y359603D01*
X928397Y358407D01*
X927750Y356845D01*
Y355155D01*
X928397Y353593D01*
X929593Y352397D01*
X931155Y351750D01*
X932845D01*
X934407Y352397D01*
X935603Y353593D01*
X936250Y355155D01*
Y356845D01*
X935603Y358407D01*
X934407Y359603D01*
X932845Y360250D01*
D02*
G37*
G36*
X1275316Y371050D02*
X1272683D01*
X1270140Y370368D01*
X1267860Y369052D01*
X1265998Y367190D01*
X1264681Y364910D01*
X1264000Y362366D01*
Y359734D01*
X1264681Y357190D01*
X1265998Y354910D01*
X1267860Y353048D01*
X1270140Y351731D01*
X1272683Y351050D01*
X1275316D01*
X1277860Y351731D01*
X1280140Y353048D01*
X1282002Y354910D01*
X1283318Y357190D01*
X1284000Y359734D01*
Y362366D01*
X1283318Y364910D01*
X1282002Y367190D01*
X1280140Y369052D01*
X1277860Y370368D01*
X1275316Y371050D01*
D02*
G37*
G36*
X1016159Y353480D02*
X1012770D01*
Y350091D01*
X1014213Y350689D01*
X1015561Y352037D01*
X1016159Y353480D01*
D02*
G37*
G36*
X1010230D02*
X1006841D01*
X1007439Y352037D01*
X1008787Y350689D01*
X1010230Y350091D01*
Y353480D01*
D02*
G37*
G36*
X719815Y358060D02*
X717825D01*
X715988Y357299D01*
X714581Y355892D01*
X713820Y354055D01*
Y352065D01*
X714581Y350228D01*
X715988Y348821D01*
X717825Y348060D01*
X719815D01*
X721652Y348821D01*
X723059Y350228D01*
X723820Y352065D01*
Y354055D01*
X723059Y355892D01*
X721652Y357299D01*
X719815Y358060D01*
D02*
G37*
G36*
X749690Y351790D02*
X745490D01*
Y347590D01*
X747358Y348363D01*
X748917Y349922D01*
X749690Y351790D01*
D02*
G37*
G36*
X742950D02*
X738750D01*
X739523Y349922D01*
X741082Y348363D01*
X742950Y347590D01*
Y351790D01*
D02*
G37*
G36*
X639903Y354242D02*
X638213D01*
X636651Y353595D01*
X635455Y352399D01*
X634808Y350837D01*
Y349146D01*
X635455Y347584D01*
X636651Y346389D01*
X638213Y345742D01*
X639903D01*
X641466Y346389D01*
X642661Y347584D01*
X643308Y349146D01*
Y350837D01*
X642661Y352399D01*
X641466Y353595D01*
X639903Y354242D01*
D02*
G37*
G36*
X464406Y353755D02*
X462716D01*
X461154Y353108D01*
X459958Y351912D01*
X459311Y350350D01*
Y348660D01*
X459958Y347098D01*
X461154Y345902D01*
X462716Y345255D01*
X464406D01*
X465968Y345902D01*
X467164Y347098D01*
X467811Y348660D01*
Y350350D01*
X467164Y351912D01*
X465968Y353108D01*
X464406Y353755D01*
D02*
G37*
G36*
X701934Y352712D02*
X700243D01*
X698681Y352065D01*
X697485Y350869D01*
X696838Y349307D01*
Y347617D01*
X697485Y346055D01*
X698681Y344859D01*
X700243Y344212D01*
X701934D01*
X703496Y344859D01*
X704691Y346055D01*
X705338Y347617D01*
Y349307D01*
X704691Y350869D01*
X703496Y352065D01*
X701934Y352712D01*
D02*
G37*
G36*
X1040595Y345850D02*
X1038905D01*
X1037343Y345203D01*
X1036147Y344007D01*
X1035500Y342445D01*
Y340755D01*
X1036147Y339193D01*
X1037343Y337997D01*
X1038905Y337350D01*
X1040595D01*
X1042157Y337997D01*
X1043353Y339193D01*
X1044000Y340755D01*
Y342445D01*
X1043353Y344007D01*
X1042157Y345203D01*
X1040595Y345850D01*
D02*
G37*
G36*
X461291Y339255D02*
X459600D01*
X458038Y338608D01*
X456842Y337412D01*
X456195Y335850D01*
Y334160D01*
X456842Y332598D01*
X458038Y331402D01*
X459600Y330755D01*
X461291D01*
X462853Y331402D01*
X464048Y332598D01*
X464695Y334160D01*
Y335850D01*
X464048Y337412D01*
X462853Y338608D01*
X461291Y339255D01*
D02*
G37*
G36*
X1079095Y336450D02*
X1077405D01*
X1075843Y335803D01*
X1074647Y334607D01*
X1074000Y333045D01*
Y331355D01*
X1074647Y329793D01*
X1075843Y328597D01*
X1077405Y327950D01*
X1079095D01*
X1080657Y328597D01*
X1081853Y329793D01*
X1082500Y331355D01*
Y333045D01*
X1081853Y334607D01*
X1080657Y335803D01*
X1079095Y336450D01*
D02*
G37*
G36*
X1275316Y345650D02*
X1272683D01*
X1270140Y344968D01*
X1267860Y343652D01*
X1265998Y341790D01*
X1264681Y339510D01*
X1264000Y336967D01*
Y334333D01*
X1264681Y331790D01*
X1265998Y329510D01*
X1267860Y327648D01*
X1270140Y326331D01*
X1272683Y325650D01*
X1275316D01*
X1277860Y326331D01*
X1280140Y327648D01*
X1282002Y329510D01*
X1283318Y331790D01*
X1284000Y334333D01*
Y336967D01*
X1283318Y339510D01*
X1282002Y341790D01*
X1280140Y343652D01*
X1277860Y344968D01*
X1275316Y345650D01*
D02*
G37*
G36*
X1014020Y327909D02*
Y324520D01*
X1017409D01*
X1016811Y325963D01*
X1015463Y327311D01*
X1014020Y327909D01*
D02*
G37*
G36*
X1011480D02*
X1010037Y327311D01*
X1008689Y325963D01*
X1008091Y324520D01*
X1011480D01*
Y327909D01*
D02*
G37*
G36*
X464781Y328013D02*
X463091D01*
X461529Y327366D01*
X460333Y326170D01*
X459686Y324608D01*
Y322918D01*
X460333Y321356D01*
X461529Y320160D01*
X463091Y319513D01*
X464781D01*
X466343Y320160D01*
X467539Y321356D01*
X468186Y322918D01*
Y324608D01*
X467539Y326170D01*
X466343Y327366D01*
X464781Y328013D01*
D02*
G37*
G36*
X1017409Y321980D02*
X1014020D01*
Y318591D01*
X1015463Y319189D01*
X1016811Y320537D01*
X1017409Y321980D01*
D02*
G37*
G36*
X1011480D02*
X1008091D01*
X1008689Y320537D01*
X1010037Y319189D01*
X1011480Y318591D01*
Y321980D01*
D02*
G37*
G36*
X1040595Y324250D02*
X1038905D01*
X1037343Y323603D01*
X1036147Y322407D01*
X1035500Y320845D01*
Y319155D01*
X1036147Y317593D01*
X1037343Y316397D01*
X1038905Y315750D01*
X1040595D01*
X1042157Y316397D01*
X1043353Y317593D01*
X1044000Y319155D01*
Y320845D01*
X1043353Y322407D01*
X1042157Y323603D01*
X1040595Y324250D01*
D02*
G37*
G36*
X458551Y319394D02*
X456861D01*
X455298Y318747D01*
X454103Y317551D01*
X453456Y315989D01*
Y314299D01*
X454103Y312736D01*
X455298Y311541D01*
X456861Y310894D01*
X458551D01*
X460113Y311541D01*
X461309Y312736D01*
X461956Y314299D01*
Y315989D01*
X461309Y317551D01*
X460113Y318747D01*
X458551Y319394D01*
D02*
G37*
G36*
X1008270Y309659D02*
Y306270D01*
X1011659D01*
X1011061Y307713D01*
X1009713Y309061D01*
X1008270Y309659D01*
D02*
G37*
G36*
X1005730D02*
X1004287Y309061D01*
X1002939Y307713D01*
X1002341Y306270D01*
X1005730D01*
Y309659D01*
D02*
G37*
G36*
X290830Y309459D02*
Y306070D01*
X294219D01*
X293621Y307513D01*
X292273Y308861D01*
X290830Y309459D01*
D02*
G37*
G36*
X288290D02*
X286847Y308861D01*
X285499Y307513D01*
X284901Y306070D01*
X288290D01*
Y309459D01*
D02*
G37*
G36*
X1078295Y311050D02*
X1076605D01*
X1075043Y310403D01*
X1073847Y309207D01*
X1073200Y307645D01*
Y305955D01*
X1073847Y304393D01*
X1075043Y303197D01*
X1076605Y302550D01*
X1078295D01*
X1079857Y303197D01*
X1081053Y304393D01*
X1081700Y305955D01*
Y307645D01*
X1081053Y309207D01*
X1079857Y310403D01*
X1078295Y311050D01*
D02*
G37*
G36*
X1011659Y303730D02*
X1008270D01*
Y300341D01*
X1009713Y300939D01*
X1011061Y302287D01*
X1011659Y303730D01*
D02*
G37*
G36*
X1005730D02*
X1002341D01*
X1002939Y302287D01*
X1004287Y300939D01*
X1005730Y300341D01*
Y303730D01*
D02*
G37*
G36*
X1275316Y320250D02*
X1272683D01*
X1270140Y319569D01*
X1267860Y318252D01*
X1265998Y316390D01*
X1264681Y314110D01*
X1264000Y311567D01*
Y308934D01*
X1264681Y306390D01*
X1265998Y304110D01*
X1267860Y302248D01*
X1270140Y300931D01*
X1272683Y300250D01*
X1275316D01*
X1277860Y300931D01*
X1280140Y302248D01*
X1282002Y304110D01*
X1283318Y306390D01*
X1284000Y308934D01*
Y311567D01*
X1283318Y314110D01*
X1282002Y316390D01*
X1280140Y318252D01*
X1277860Y319569D01*
X1275316Y320250D01*
D02*
G37*
G36*
X294219Y303530D02*
X290830D01*
Y300141D01*
X292273Y300739D01*
X293621Y302087D01*
X294219Y303530D01*
D02*
G37*
G36*
X288290D02*
X284901D01*
X285499Y302087D01*
X286847Y300739D01*
X288290Y300141D01*
Y303530D01*
D02*
G37*
G36*
X384810Y302659D02*
Y299270D01*
X388199D01*
X387601Y300713D01*
X386253Y302061D01*
X384810Y302659D01*
D02*
G37*
G36*
X382270D02*
X380827Y302061D01*
X379479Y300713D01*
X378881Y299270D01*
X382270D01*
Y302659D01*
D02*
G37*
G36*
X465904Y303766D02*
X464214D01*
X462652Y303119D01*
X461456Y301923D01*
X460809Y300361D01*
Y298671D01*
X461456Y297109D01*
X462652Y295913D01*
X464214Y295266D01*
X465904D01*
X467466Y295913D01*
X468662Y297109D01*
X469309Y298671D01*
Y300361D01*
X468662Y301923D01*
X467466Y303119D01*
X465904Y303766D01*
D02*
G37*
G36*
X388199Y296730D02*
X384810D01*
Y293341D01*
X386253Y293939D01*
X387601Y295287D01*
X388199Y296730D01*
D02*
G37*
G36*
X382270D02*
X378881D01*
X379479Y295287D01*
X380827Y293939D01*
X382270Y293341D01*
Y296730D01*
D02*
G37*
G36*
X351845Y301520D02*
X350155D01*
X348593Y300873D01*
X347397Y299677D01*
X346750Y298115D01*
Y296425D01*
X347397Y294863D01*
X348593Y293667D01*
X350155Y293020D01*
X351845D01*
X353407Y293667D01*
X354603Y294863D01*
X355250Y296425D01*
Y298115D01*
X354603Y299677D01*
X353407Y300873D01*
X351845Y301520D01*
D02*
G37*
G36*
X1040595Y295050D02*
X1038905D01*
X1037343Y294403D01*
X1036147Y293207D01*
X1035500Y291645D01*
Y289955D01*
X1036147Y288393D01*
X1037343Y287197D01*
X1038905Y286550D01*
X1040595D01*
X1042157Y287197D01*
X1043353Y288393D01*
X1044000Y289955D01*
Y291645D01*
X1043353Y293207D01*
X1042157Y294403D01*
X1040595Y295050D01*
D02*
G37*
G36*
X460254Y294581D02*
X458564D01*
X457002Y293934D01*
X455806Y292738D01*
X455159Y291176D01*
Y289486D01*
X455806Y287924D01*
X457002Y286728D01*
X458564Y286081D01*
X460254D01*
X461816Y286728D01*
X463012Y287924D01*
X463659Y289486D01*
Y291176D01*
X463012Y292738D01*
X461816Y293934D01*
X460254Y294581D01*
D02*
G37*
G36*
X399051Y290809D02*
X397360D01*
X395798Y290163D01*
X394603Y288967D01*
X393956Y287405D01*
Y285714D01*
X394603Y284152D01*
X395798Y282957D01*
X397360Y282309D01*
X399051D01*
X400613Y282957D01*
X401809Y284152D01*
X402456Y285714D01*
Y287405D01*
X401809Y288967D01*
X400613Y290163D01*
X399051Y290809D01*
D02*
G37*
G36*
X1008270Y284659D02*
Y281270D01*
X1011659D01*
X1011061Y282713D01*
X1009713Y284061D01*
X1008270Y284659D01*
D02*
G37*
G36*
X1005730D02*
X1004287Y284061D01*
X1002939Y282713D01*
X1002341Y281270D01*
X1005730D01*
Y284659D01*
D02*
G37*
G36*
X1079095Y285650D02*
X1077405D01*
X1075843Y285003D01*
X1074647Y283807D01*
X1074000Y282245D01*
Y280555D01*
X1074647Y278993D01*
X1075843Y277797D01*
X1077405Y277150D01*
X1079095D01*
X1080657Y277797D01*
X1081853Y278993D01*
X1082500Y280555D01*
Y282245D01*
X1081853Y283807D01*
X1080657Y285003D01*
X1079095Y285650D01*
D02*
G37*
G36*
X722595Y284000D02*
X720905D01*
X719343Y283353D01*
X718147Y282157D01*
X717500Y280595D01*
Y278905D01*
X718147Y277343D01*
X719343Y276147D01*
X720905Y275500D01*
X722595D01*
X724157Y276147D01*
X725353Y277343D01*
X726000Y278905D01*
Y280595D01*
X725353Y282157D01*
X724157Y283353D01*
X722595Y284000D01*
D02*
G37*
G36*
X1011659Y278730D02*
X1008270D01*
Y275341D01*
X1009713Y275939D01*
X1011061Y277287D01*
X1011659Y278730D01*
D02*
G37*
G36*
X1005730D02*
X1002341D01*
X1002939Y277287D01*
X1004287Y275939D01*
X1005730Y275341D01*
Y278730D01*
D02*
G37*
G36*
X1275316Y294850D02*
X1272683D01*
X1270140Y294168D01*
X1267860Y292852D01*
X1265998Y290990D01*
X1264681Y288710D01*
X1264000Y286166D01*
Y283533D01*
X1264681Y280990D01*
X1265998Y278710D01*
X1267860Y276848D01*
X1270140Y275532D01*
X1272683Y274850D01*
X1275316D01*
X1277860Y275532D01*
X1280140Y276848D01*
X1282002Y278710D01*
X1283318Y280990D01*
X1284000Y283533D01*
Y286166D01*
X1283318Y288710D01*
X1282002Y290990D01*
X1280140Y292852D01*
X1277860Y294168D01*
X1275316Y294850D01*
D02*
G37*
G36*
X351365Y281110D02*
X349675D01*
X348113Y280463D01*
X346917Y279267D01*
X346270Y277705D01*
Y276015D01*
X346917Y274453D01*
X348113Y273257D01*
X349675Y272610D01*
X351365D01*
X352927Y273257D01*
X354123Y274453D01*
X354770Y276015D01*
Y277705D01*
X354123Y279267D01*
X352927Y280463D01*
X351365Y281110D01*
D02*
G37*
G36*
X400516Y279345D02*
X398825D01*
X397263Y278698D01*
X396067Y277502D01*
X395420Y275940D01*
Y274250D01*
X396067Y272688D01*
X397263Y271492D01*
X398825Y270845D01*
X400516D01*
X402078Y271492D01*
X403273Y272688D01*
X403920Y274250D01*
Y275940D01*
X403273Y277502D01*
X402078Y278698D01*
X400516Y279345D01*
D02*
G37*
G36*
X465885Y278638D02*
X464195D01*
X462633Y277991D01*
X461437Y276796D01*
X460790Y275234D01*
Y273543D01*
X461437Y271981D01*
X462633Y270785D01*
X464195Y270138D01*
X465885D01*
X467448Y270785D01*
X468643Y271981D01*
X469290Y273543D01*
Y275234D01*
X468643Y276796D01*
X467448Y277991D01*
X465885Y278638D01*
D02*
G37*
G36*
X351270Y269659D02*
Y266270D01*
X354659D01*
X354061Y267713D01*
X352713Y269061D01*
X351270Y269659D01*
D02*
G37*
G36*
X348730D02*
X347287Y269061D01*
X345939Y267713D01*
X345341Y266270D01*
X348730D01*
Y269659D01*
D02*
G37*
G36*
X80595Y271500D02*
X78905D01*
X77343Y270853D01*
X76147Y269657D01*
X75500Y268095D01*
Y266405D01*
X76147Y264843D01*
X77343Y263647D01*
X78905Y263000D01*
X80595D01*
X82157Y263647D01*
X83353Y264843D01*
X84000Y266405D01*
Y268095D01*
X83353Y269657D01*
X82157Y270853D01*
X80595Y271500D01*
D02*
G37*
G36*
X761845Y270250D02*
X760155D01*
X758593Y269603D01*
X757397Y268407D01*
X756750Y266845D01*
Y265155D01*
X757397Y263593D01*
X758593Y262397D01*
X760155Y261750D01*
X761845D01*
X763407Y262397D01*
X764603Y263593D01*
X765250Y265155D01*
Y266845D01*
X764603Y268407D01*
X763407Y269603D01*
X761845Y270250D01*
D02*
G37*
G36*
X400516Y269345D02*
X398825D01*
X397263Y268698D01*
X396067Y267502D01*
X395420Y265940D01*
Y264250D01*
X396067Y262688D01*
X397263Y261492D01*
X398825Y260845D01*
X400516D01*
X402078Y261492D01*
X403273Y262688D01*
X403920Y264250D01*
Y265940D01*
X403273Y267502D01*
X402078Y268698D01*
X400516Y269345D01*
D02*
G37*
G36*
X1081095Y269250D02*
X1079405D01*
X1077843Y268603D01*
X1076647Y267407D01*
X1076000Y265845D01*
Y264155D01*
X1076647Y262593D01*
X1077843Y261397D01*
X1079405Y260750D01*
X1081095D01*
X1082657Y261397D01*
X1083853Y262593D01*
X1084500Y264155D01*
Y265845D01*
X1083853Y267407D01*
X1082657Y268603D01*
X1081095Y269250D01*
D02*
G37*
G36*
X354659Y263730D02*
X351270D01*
Y260341D01*
X352713Y260939D01*
X354061Y262287D01*
X354659Y263730D01*
D02*
G37*
G36*
X348730D02*
X345341D01*
X345939Y262287D01*
X347287Y260939D01*
X348730Y260341D01*
Y263730D01*
D02*
G37*
G36*
X460165Y267642D02*
X458475D01*
X456913Y266995D01*
X455717Y265799D01*
X455070Y264237D01*
Y262547D01*
X455717Y260985D01*
X456913Y259789D01*
X458475Y259142D01*
X460165D01*
X461727Y259789D01*
X462923Y260985D01*
X463570Y262547D01*
Y264237D01*
X462923Y265799D01*
X461727Y266995D01*
X460165Y267642D01*
D02*
G37*
G36*
X141095Y265500D02*
X139405D01*
X137843Y264853D01*
X136647Y263657D01*
X136000Y262095D01*
Y260405D01*
X136647Y258843D01*
X137843Y257647D01*
X139405Y257000D01*
X141095D01*
X142657Y257647D01*
X143853Y258843D01*
X144500Y260405D01*
Y262095D01*
X143853Y263657D01*
X142657Y264853D01*
X141095Y265500D01*
D02*
G37*
G36*
X106595Y265250D02*
X104905D01*
X103343Y264603D01*
X102147Y263407D01*
X101500Y261845D01*
Y260155D01*
X102147Y258593D01*
X103343Y257397D01*
X104905Y256750D01*
X106595D01*
X108157Y257397D01*
X109353Y258593D01*
X110000Y260155D01*
Y261845D01*
X109353Y263407D01*
X108157Y264603D01*
X106595Y265250D01*
D02*
G37*
G36*
X163845Y264750D02*
X162155D01*
X160593Y264103D01*
X159397Y262907D01*
X158750Y261345D01*
Y259655D01*
X159397Y258093D01*
X160593Y256897D01*
X162155Y256250D01*
X163845D01*
X165407Y256897D01*
X166603Y258093D01*
X167250Y259655D01*
Y261345D01*
X166603Y262907D01*
X165407Y264103D01*
X163845Y264750D01*
D02*
G37*
G36*
X1008270Y258659D02*
Y255270D01*
X1011659D01*
X1011061Y256713D01*
X1009713Y258061D01*
X1008270Y258659D01*
D02*
G37*
G36*
X1005730D02*
X1004287Y258061D01*
X1002939Y256713D01*
X1002341Y255270D01*
X1005730D01*
Y258659D01*
D02*
G37*
G36*
X400516Y259345D02*
X398825D01*
X397263Y258698D01*
X396067Y257502D01*
X395420Y255940D01*
Y254250D01*
X396067Y252688D01*
X397263Y251492D01*
X398825Y250845D01*
X400516D01*
X402078Y251492D01*
X403273Y252688D01*
X403920Y254250D01*
Y255940D01*
X403273Y257502D01*
X402078Y258698D01*
X400516Y259345D01*
D02*
G37*
G36*
X1275316Y269450D02*
X1272683D01*
X1270140Y268769D01*
X1267860Y267452D01*
X1265998Y265590D01*
X1264681Y263310D01*
X1264000Y260767D01*
Y258134D01*
X1264681Y255590D01*
X1265998Y253310D01*
X1267860Y251448D01*
X1270140Y250131D01*
X1272683Y249450D01*
X1275316D01*
X1277860Y250131D01*
X1280140Y251448D01*
X1282002Y253310D01*
X1283318Y255590D01*
X1284000Y258134D01*
Y260767D01*
X1283318Y263310D01*
X1282002Y265590D01*
X1280140Y267452D01*
X1277860Y268769D01*
X1275316Y269450D01*
D02*
G37*
G36*
X1011659Y252730D02*
X1008270D01*
Y249341D01*
X1009713Y249939D01*
X1011061Y251287D01*
X1011659Y252730D01*
D02*
G37*
G36*
X1005730D02*
X1002341D01*
X1002939Y251287D01*
X1004287Y249939D01*
X1005730Y249341D01*
Y252730D01*
D02*
G37*
G36*
X372845Y256250D02*
X371155D01*
X369593Y255603D01*
X368397Y254407D01*
X367750Y252845D01*
Y251155D01*
X368397Y249593D01*
X369593Y248397D01*
X371155Y247750D01*
X372845D01*
X374407Y248397D01*
X375603Y249593D01*
X376250Y251155D01*
Y252845D01*
X375603Y254407D01*
X374407Y255603D01*
X372845Y256250D01*
D02*
G37*
G36*
X465074Y254783D02*
X463384D01*
X461822Y254136D01*
X460626Y252940D01*
X459979Y251378D01*
Y249688D01*
X460626Y248126D01*
X461822Y246930D01*
X463384Y246283D01*
X465074D01*
X466636Y246930D01*
X467832Y248126D01*
X468479Y249688D01*
Y251378D01*
X467832Y252940D01*
X466636Y254136D01*
X465074Y254783D01*
D02*
G37*
G36*
X177020Y248659D02*
Y245270D01*
X180409D01*
X179811Y246713D01*
X178463Y248061D01*
X177020Y248659D01*
D02*
G37*
G36*
X174480D02*
X173037Y248061D01*
X171689Y246713D01*
X171091Y245270D01*
X174480D01*
Y248659D01*
D02*
G37*
G36*
X823845Y249500D02*
X822155D01*
X820593Y248853D01*
X819397Y247657D01*
X818750Y246095D01*
Y244405D01*
X819397Y242843D01*
X820593Y241647D01*
X822155Y241000D01*
X823845D01*
X825407Y241647D01*
X826603Y242843D01*
X827250Y244405D01*
Y246095D01*
X826603Y247657D01*
X825407Y248853D01*
X823845Y249500D01*
D02*
G37*
G36*
X400516Y249345D02*
X398825D01*
X397263Y248698D01*
X396067Y247502D01*
X395420Y245940D01*
Y244250D01*
X396067Y242688D01*
X397263Y241492D01*
X398825Y240845D01*
X400516D01*
X402078Y241492D01*
X403273Y242688D01*
X403920Y244250D01*
Y245940D01*
X403273Y247502D01*
X402078Y248698D01*
X400516Y249345D01*
D02*
G37*
G36*
X180409Y242730D02*
X177020D01*
Y239341D01*
X178463Y239939D01*
X179811Y241287D01*
X180409Y242730D01*
D02*
G37*
G36*
X174480D02*
X171091D01*
X171689Y241287D01*
X173037Y239939D01*
X174480Y239341D01*
Y242730D01*
D02*
G37*
G36*
X336703Y237583D02*
X336534Y237545D01*
X336360Y237545D01*
X336150Y237458D01*
X335928Y237407D01*
X335786Y237307D01*
X335625Y237241D01*
X291958Y208088D01*
X290688Y208768D01*
Y209851D01*
X289959Y211611D01*
X288611Y212959D01*
X287168Y213556D01*
Y208898D01*
X285898D01*
Y207628D01*
X281239D01*
X281837Y206185D01*
X283185Y204837D01*
X284182Y204424D01*
X284322Y202991D01*
X246295Y177604D01*
X246152Y177462D01*
X245985Y177350D01*
X244790Y176155D01*
X244348Y175494D01*
X244193Y174713D01*
X244348Y173933D01*
X244374Y173581D01*
X243948Y172552D01*
X243468Y172353D01*
X242272Y171157D01*
X242073Y170677D01*
X241044Y170251D01*
X240692Y170277D01*
X239912Y170432D01*
X239131Y170277D01*
X238470Y169835D01*
X231817Y163183D01*
X231699Y163005D01*
X231549Y162852D01*
X231480Y162677D01*
X231376Y162521D01*
X231334Y162311D01*
X231255Y162113D01*
X231257Y161925D01*
X231220Y161740D01*
X231262Y161531D01*
X231265Y161317D01*
X237105Y133815D01*
X236343Y133500D01*
X234996Y132153D01*
X234398Y130709D01*
X239057D01*
Y129439D01*
X240327D01*
Y124781D01*
X241747Y125369D01*
X250558Y116558D01*
X251220Y116116D01*
X252000Y115961D01*
X255493D01*
X256019Y114691D01*
X255317Y113988D01*
X254669Y112426D01*
Y110735D01*
X255317Y109173D01*
X256512Y107978D01*
X258074Y107331D01*
X259765D01*
X261327Y107978D01*
X262522Y109173D01*
X263169Y110735D01*
Y112426D01*
X262522Y113988D01*
X261819Y114691D01*
X262345Y115961D01*
X284266D01*
X284518Y114691D01*
X284403Y114643D01*
X283207Y113447D01*
X282560Y111885D01*
Y110195D01*
X283207Y108633D01*
X284403Y107437D01*
X285965Y106790D01*
X287655D01*
X289217Y107437D01*
X290413Y108633D01*
X291060Y110195D01*
Y111260D01*
X292330Y111786D01*
X306558Y97558D01*
X307220Y97116D01*
X308000Y96961D01*
X413000D01*
X413000Y96961D01*
X413780Y97116D01*
X414442Y97558D01*
X414442Y97558D01*
X415442Y98558D01*
X415884Y99220D01*
X416039Y100000D01*
Y111426D01*
X417309Y111952D01*
X422506Y106756D01*
X423994Y105761D01*
X425750Y105412D01*
X433315D01*
X435071Y105761D01*
X436560Y106756D01*
X441216Y111412D01*
X447304D01*
X454344Y104372D01*
X455832Y103377D01*
X457588Y103028D01*
X462331D01*
X462584Y101758D01*
X461596Y101349D01*
X460401Y100153D01*
X459754Y98591D01*
Y96901D01*
X460401Y95339D01*
X461596Y94143D01*
X463159Y93496D01*
X464849D01*
X466411Y94143D01*
X467607Y95339D01*
X468254Y96901D01*
Y98591D01*
X467607Y100153D01*
X466411Y101349D01*
X465424Y101758D01*
X465677Y103028D01*
X915300D01*
X945072Y73256D01*
X946560Y72261D01*
X948316Y71912D01*
X1017500D01*
X1019256Y72261D01*
X1020744Y73256D01*
X1021739Y74744D01*
X1022088Y76500D01*
X1021739Y78256D01*
X1020744Y79744D01*
X1019256Y80739D01*
X1017500Y81088D01*
X950216D01*
X920444Y110860D01*
X918956Y111855D01*
X917200Y112204D01*
X893846D01*
X893517Y113100D01*
X893484Y113474D01*
X894603Y114593D01*
X895250Y116155D01*
Y117845D01*
X894603Y119407D01*
X893407Y120603D01*
X891845Y121250D01*
X890155D01*
X888593Y120603D01*
X887397Y119407D01*
X886750Y117845D01*
Y116155D01*
X887397Y114593D01*
X888515Y113474D01*
X888483Y113100D01*
X888154Y112204D01*
X464124D01*
X463365Y113474D01*
X463750Y114405D01*
Y116095D01*
X463103Y117657D01*
X461907Y118853D01*
X460345Y119500D01*
X458655D01*
X457093Y118853D01*
X455897Y117657D01*
X455789Y117397D01*
X454543Y117149D01*
X452448Y119244D01*
X450960Y120239D01*
X449204Y120588D01*
X439315D01*
X437560Y120239D01*
X436071Y119244D01*
X431415Y114588D01*
X427650D01*
X423244Y118994D01*
X421756Y119989D01*
X420000Y120338D01*
X418244Y119989D01*
X417309Y119364D01*
X416039Y120034D01*
Y133348D01*
X417309Y133601D01*
X417439Y133287D01*
X418787Y131939D01*
X420230Y131341D01*
Y136000D01*
Y140659D01*
X418787Y140061D01*
X417439Y138713D01*
X417272Y138310D01*
X415952Y138441D01*
X415884Y138780D01*
X415442Y139442D01*
X362039Y192845D01*
Y193835D01*
X362000Y194032D01*
Y194233D01*
X361923Y194419D01*
X361884Y194616D01*
X361772Y194783D01*
X361696Y194968D01*
X361553Y195110D01*
X361442Y195277D01*
X361603Y196343D01*
X362250Y197905D01*
Y199595D01*
X361603Y201157D01*
X361159Y201602D01*
X360603Y202842D01*
X361250Y204404D01*
Y206095D01*
X360603Y207657D01*
X361442Y208477D01*
X361534Y208615D01*
X361655Y208728D01*
X361753Y208943D01*
X361884Y209139D01*
X361916Y209301D01*
X361985Y209452D01*
X361993Y209688D01*
X362039Y209919D01*
Y226631D01*
X362034Y226658D01*
X362038Y226685D01*
X361956Y227047D01*
X361884Y227411D01*
X361869Y227434D01*
X361863Y227461D01*
X361648Y227764D01*
X361442Y228073D01*
X361419Y228088D01*
X361403Y228110D01*
X361089Y228308D01*
X360780Y228515D01*
X360753Y228520D01*
X360730Y228535D01*
X337488Y237449D01*
X337317Y237478D01*
X337156Y237544D01*
X336928Y237544D01*
X336703Y237583D01*
D02*
G37*
G36*
X461643Y244239D02*
X459953D01*
X458391Y243592D01*
X457195Y242396D01*
X456548Y240834D01*
Y239144D01*
X457195Y237582D01*
X458391Y236386D01*
X459953Y235739D01*
X461643D01*
X463205Y236386D01*
X464401Y237582D01*
X465048Y239144D01*
Y240834D01*
X464401Y242396D01*
X463205Y243592D01*
X461643Y244239D01*
D02*
G37*
G36*
X66720Y239111D02*
Y235722D01*
X70109D01*
X69511Y237165D01*
X68163Y238513D01*
X66720Y239111D01*
D02*
G37*
G36*
X64180D02*
X62737Y238513D01*
X61389Y237165D01*
X60791Y235722D01*
X64180D01*
Y239111D01*
D02*
G37*
G36*
X1044845Y252750D02*
X1043155D01*
X1041593Y252103D01*
X1040397Y250907D01*
X1039750Y249345D01*
Y247655D01*
X1040397Y246093D01*
X1041593Y244897D01*
X1042736Y244423D01*
X1042345Y243250D01*
X1040655Y243250D01*
X1039093Y242603D01*
X1037897Y241407D01*
X1037250Y239845D01*
Y238155D01*
X1037897Y236593D01*
X1039093Y235397D01*
X1040655Y234750D01*
X1042345D01*
X1043907Y235397D01*
X1045103Y236593D01*
X1045750Y238155D01*
Y239845D01*
X1045103Y241407D01*
X1043907Y242603D01*
X1042764Y243077D01*
X1043155Y244250D01*
X1044845Y244250D01*
X1046407Y244897D01*
X1047603Y246093D01*
X1048250Y247655D01*
Y249345D01*
X1047603Y250907D01*
X1046407Y252103D01*
X1044845Y252750D01*
D02*
G37*
G36*
X400611Y239250D02*
X398920D01*
X397358Y238603D01*
X396162Y237407D01*
X395516Y235845D01*
Y234155D01*
X396162Y232593D01*
X397358Y231397D01*
X398920Y230750D01*
X400611D01*
X402173Y231397D01*
X403368Y232593D01*
X404015Y234155D01*
Y235845D01*
X403368Y237407D01*
X402173Y238603D01*
X400611Y239250D01*
D02*
G37*
G36*
X1008270Y233659D02*
Y230270D01*
X1011659D01*
X1011061Y231713D01*
X1009713Y233061D01*
X1008270Y233659D01*
D02*
G37*
G36*
X1005730D02*
X1004287Y233061D01*
X1002939Y231713D01*
X1002341Y230270D01*
X1005730D01*
Y233659D01*
D02*
G37*
G36*
X264345Y238500D02*
X262655D01*
X261093Y237853D01*
X259897Y236657D01*
X259250Y235095D01*
Y233405D01*
X259897Y231843D01*
X261093Y230647D01*
X262655Y230000D01*
X264345D01*
X265907Y230647D01*
X267103Y231843D01*
X267750Y233405D01*
Y235095D01*
X267103Y236657D01*
X265907Y237853D01*
X264345Y238500D01*
D02*
G37*
G36*
X70109Y233182D02*
X66720D01*
Y229793D01*
X68163Y230391D01*
X69511Y231739D01*
X70109Y233182D01*
D02*
G37*
G36*
X64180D02*
X60791D01*
X61389Y231739D01*
X62737Y230391D01*
X64180Y229793D01*
Y233182D01*
D02*
G37*
G36*
X933025Y237930D02*
X931335D01*
X929773Y237283D01*
X928577Y236087D01*
X927930Y234525D01*
Y232835D01*
X928577Y231273D01*
X929773Y230077D01*
X931335Y229430D01*
X933025D01*
X934587Y230077D01*
X935783Y231273D01*
X936430Y232835D01*
Y234525D01*
X935783Y236087D01*
X934587Y237283D01*
X933025Y237930D01*
D02*
G37*
G36*
X1079095Y234850D02*
X1077405D01*
X1075843Y234203D01*
X1074647Y233007D01*
X1074000Y231445D01*
Y229755D01*
X1074647Y228193D01*
X1075843Y226997D01*
X1077405Y226350D01*
X1079095D01*
X1080657Y226997D01*
X1081853Y228193D01*
X1082500Y229755D01*
Y231445D01*
X1081853Y233007D01*
X1080657Y234203D01*
X1079095Y234850D01*
D02*
G37*
G36*
X1011659Y227730D02*
X1008270D01*
Y224341D01*
X1009713Y224939D01*
X1011061Y226287D01*
X1011659Y227730D01*
D02*
G37*
G36*
X1005730D02*
X1002341D01*
X1002939Y226287D01*
X1004287Y224939D01*
X1005730Y224341D01*
Y227730D01*
D02*
G37*
G36*
X1275316Y244050D02*
X1272683D01*
X1270140Y243368D01*
X1267860Y242052D01*
X1265998Y240190D01*
X1264681Y237910D01*
X1264000Y235366D01*
Y232733D01*
X1264681Y230190D01*
X1265998Y227910D01*
X1267860Y226048D01*
X1270140Y224732D01*
X1272683Y224050D01*
X1275316D01*
X1277860Y224732D01*
X1280140Y226048D01*
X1282002Y227910D01*
X1283318Y230190D01*
X1284000Y232733D01*
Y235366D01*
X1283318Y237910D01*
X1282002Y240190D01*
X1280140Y242052D01*
X1277860Y243368D01*
X1275316Y244050D01*
D02*
G37*
G36*
X234520Y227159D02*
Y223770D01*
X237909D01*
X237311Y225213D01*
X235963Y226561D01*
X234520Y227159D01*
D02*
G37*
G36*
X231980D02*
X230537Y226561D01*
X229189Y225213D01*
X228591Y223770D01*
X231980D01*
Y227159D01*
D02*
G37*
G36*
X465025Y230632D02*
X463335D01*
X461773Y229985D01*
X460577Y228789D01*
X459930Y227227D01*
Y225537D01*
X460577Y223975D01*
X461773Y222779D01*
X463335Y222132D01*
X465025D01*
X466587Y222779D01*
X467783Y223975D01*
X468430Y225537D01*
Y227227D01*
X467783Y228789D01*
X466587Y229985D01*
X465025Y230632D01*
D02*
G37*
G36*
X400611Y229250D02*
X398920D01*
X397358Y228603D01*
X396162Y227407D01*
X395516Y225845D01*
Y224155D01*
X396162Y222593D01*
X397358Y221397D01*
X398920Y220750D01*
X400611D01*
X402173Y221397D01*
X403368Y222593D01*
X404015Y224155D01*
Y225845D01*
X403368Y227407D01*
X402173Y228603D01*
X400611Y229250D01*
D02*
G37*
G36*
X237909Y221230D02*
X234520D01*
Y217841D01*
X235963Y218439D01*
X237311Y219787D01*
X237909Y221230D01*
D02*
G37*
G36*
X231980D02*
X228591D01*
X229189Y219787D01*
X230537Y218439D01*
X231980Y217841D01*
Y221230D01*
D02*
G37*
G36*
X164270Y219159D02*
Y215770D01*
X167659D01*
X167061Y217213D01*
X165713Y218561D01*
X164270Y219159D01*
D02*
G37*
G36*
X161730D02*
X160287Y218561D01*
X158939Y217213D01*
X158341Y215770D01*
X161730D01*
Y219159D01*
D02*
G37*
G36*
X270270Y217659D02*
Y214270D01*
X273659D01*
X273061Y215713D01*
X271713Y217061D01*
X270270Y217659D01*
D02*
G37*
G36*
X267730D02*
X266287Y217061D01*
X264939Y215713D01*
X264341Y214270D01*
X267730D01*
Y217659D01*
D02*
G37*
G36*
X400611Y219250D02*
X398920D01*
X397358Y218603D01*
X396162Y217407D01*
X395516Y215845D01*
Y214155D01*
X396162Y212593D01*
X397358Y211397D01*
X398920Y210750D01*
X400611D01*
X402173Y211397D01*
X403368Y212593D01*
X404015Y214155D01*
Y215845D01*
X403368Y217407D01*
X402173Y218603D01*
X400611Y219250D01*
D02*
G37*
G36*
X284628Y213556D02*
X283185Y212959D01*
X281837Y211611D01*
X281239Y210168D01*
X284628D01*
Y213556D01*
D02*
G37*
G36*
X167659Y213230D02*
X164270D01*
Y209841D01*
X165713Y210439D01*
X167061Y211787D01*
X167659Y213230D01*
D02*
G37*
G36*
X161730D02*
X158341D01*
X158939Y211787D01*
X160287Y210439D01*
X161730Y209841D01*
Y213230D01*
D02*
G37*
G36*
X273659Y211730D02*
X270270D01*
Y208341D01*
X271713Y208939D01*
X273061Y210287D01*
X273659Y211730D01*
D02*
G37*
G36*
X267730D02*
X264341D01*
X264939Y210287D01*
X266287Y208939D01*
X267730Y208341D01*
Y211730D01*
D02*
G37*
G36*
X458345Y215966D02*
X456655D01*
X455093Y215319D01*
X453897Y214123D01*
X453250Y212561D01*
Y210871D01*
X453897Y209309D01*
X455093Y208113D01*
X456655Y207466D01*
X458345D01*
X459907Y208113D01*
X461103Y209309D01*
X461750Y210871D01*
Y212561D01*
X461103Y214123D01*
X459907Y215319D01*
X458345Y215966D01*
D02*
G37*
G36*
X250845Y211750D02*
X249155D01*
X247593Y211103D01*
X246397Y209907D01*
X245750Y208345D01*
Y206655D01*
X246397Y205093D01*
X247593Y203897D01*
X249155Y203250D01*
X250845D01*
X252407Y203897D01*
X253065Y204554D01*
X254083Y203536D01*
X255645Y202889D01*
X257335D01*
X258897Y203536D01*
X260093Y204732D01*
X260740Y206294D01*
Y207985D01*
X260093Y209547D01*
X258897Y210742D01*
X257335Y211389D01*
X255645D01*
X254083Y210742D01*
X253425Y210085D01*
X252407Y211103D01*
X250845Y211750D01*
D02*
G37*
G36*
X1008830Y205023D02*
Y201634D01*
X1012219D01*
X1011621Y203077D01*
X1010273Y204425D01*
X1008830Y205023D01*
D02*
G37*
G36*
X1006290D02*
X1004847Y204425D01*
X1003499Y203077D01*
X1002901Y201634D01*
X1006290D01*
Y205023D01*
D02*
G37*
G36*
X400611Y209250D02*
X398920D01*
X397358Y208603D01*
X396162Y207407D01*
X395516Y205845D01*
Y204155D01*
X396162Y202593D01*
X397358Y201397D01*
X398920Y200750D01*
X400611D01*
X402173Y201397D01*
X403368Y202593D01*
X404015Y204155D01*
Y205845D01*
X403368Y207407D01*
X402173Y208603D01*
X400611Y209250D01*
D02*
G37*
G36*
X1042361Y208766D02*
X1040671D01*
X1039109Y208119D01*
X1037913Y206923D01*
X1037266Y205361D01*
Y203671D01*
X1037913Y202109D01*
X1039109Y200913D01*
X1040671Y200266D01*
X1042361D01*
X1043923Y200913D01*
X1045119Y202109D01*
X1045766Y203671D01*
Y205361D01*
X1045119Y206923D01*
X1043923Y208119D01*
X1042361Y208766D01*
D02*
G37*
G36*
X140270Y202159D02*
Y198770D01*
X143659D01*
X143061Y200213D01*
X141713Y201561D01*
X140270Y202159D01*
D02*
G37*
G36*
X137730D02*
X136287Y201561D01*
X134939Y200213D01*
X134341Y198770D01*
X137730D01*
Y202159D01*
D02*
G37*
G36*
X1275316Y218650D02*
X1272683D01*
X1270140Y217969D01*
X1267860Y216652D01*
X1265998Y214790D01*
X1264681Y212510D01*
X1264000Y209967D01*
Y207334D01*
X1264681Y204790D01*
X1265998Y202510D01*
X1267860Y200648D01*
X1270140Y199331D01*
X1272683Y198650D01*
X1275316D01*
X1277860Y199331D01*
X1280140Y200648D01*
X1282002Y202510D01*
X1283318Y204790D01*
X1284000Y207334D01*
Y209967D01*
X1283318Y212510D01*
X1282002Y214790D01*
X1280140Y216652D01*
X1277860Y217969D01*
X1275316Y218650D01*
D02*
G37*
G36*
X224845Y206250D02*
X223155D01*
X221593Y205603D01*
X220397Y204407D01*
X219750Y202845D01*
Y201155D01*
X220397Y199593D01*
X221593Y198397D01*
X223155Y197750D01*
X224845D01*
X226407Y198397D01*
X227603Y199593D01*
X228250Y201155D01*
Y202845D01*
X227603Y204407D01*
X226407Y205603D01*
X224845Y206250D01*
D02*
G37*
G36*
X1078095Y205500D02*
X1076405D01*
X1074843Y204853D01*
X1073647Y203657D01*
X1073000Y202095D01*
Y200405D01*
X1073647Y198843D01*
X1074843Y197647D01*
X1076405Y197000D01*
X1078095D01*
X1079657Y197647D01*
X1080853Y198843D01*
X1081500Y200405D01*
Y202095D01*
X1080853Y203657D01*
X1079657Y204853D01*
X1078095Y205500D01*
D02*
G37*
G36*
X1012219Y199094D02*
X1008830D01*
Y195705D01*
X1010273Y196303D01*
X1011621Y197651D01*
X1012219Y199094D01*
D02*
G37*
G36*
X1006290D02*
X1002901D01*
X1003499Y197651D01*
X1004847Y196303D01*
X1006290Y195705D01*
Y199094D01*
D02*
G37*
G36*
X467911Y202000D02*
X466221D01*
X464659Y201353D01*
X463463Y200157D01*
X462816Y198595D01*
Y196905D01*
X463463Y195343D01*
X464659Y194147D01*
X466221Y193500D01*
X467911D01*
X469473Y194147D01*
X470669Y195343D01*
X471316Y196905D01*
Y198595D01*
X470669Y200157D01*
X469473Y201353D01*
X467911Y202000D01*
D02*
G37*
G36*
X143659Y196230D02*
X140270D01*
Y192841D01*
X141713Y193439D01*
X143061Y194787D01*
X143659Y196230D01*
D02*
G37*
G36*
X137730D02*
X134341D01*
X134939Y194787D01*
X136287Y193439D01*
X137730Y192841D01*
Y196230D01*
D02*
G37*
G36*
X400611Y199250D02*
X398920D01*
X397358Y198603D01*
X396162Y197407D01*
X395516Y195845D01*
Y194155D01*
X396162Y192593D01*
X397358Y191397D01*
X398920Y190750D01*
X400611D01*
X402173Y191397D01*
X403368Y192593D01*
X404015Y194155D01*
Y195845D01*
X403368Y197407D01*
X402173Y198603D01*
X400611Y199250D01*
D02*
G37*
G36*
X459219Y194480D02*
X457529D01*
X455967Y193833D01*
X454771Y192637D01*
X454124Y191075D01*
Y189385D01*
X454771Y187823D01*
X455967Y186627D01*
X457529Y185980D01*
X459219D01*
X460781Y186627D01*
X461977Y187823D01*
X462624Y189385D01*
Y191075D01*
X461977Y192637D01*
X460781Y193833D01*
X459219Y194480D01*
D02*
G37*
G36*
X1049595Y193750D02*
X1047905D01*
X1046343Y193103D01*
X1045147Y191907D01*
X1044500Y190345D01*
Y188655D01*
X1045147Y187093D01*
X1046343Y185897D01*
X1047905Y185250D01*
X1049595D01*
X1051157Y185897D01*
X1052353Y187093D01*
X1053000Y188655D01*
Y190345D01*
X1052353Y191907D01*
X1051157Y193103D01*
X1049595Y193750D01*
D02*
G37*
G36*
X400611Y189250D02*
X398920D01*
X397358Y188603D01*
X396162Y187407D01*
X395516Y185845D01*
Y184155D01*
X396162Y182593D01*
X397358Y181397D01*
X398920Y180750D01*
X400611D01*
X402173Y181397D01*
X403368Y182593D01*
X404015Y184155D01*
Y185845D01*
X403368Y187407D01*
X402173Y188603D01*
X400611Y189250D01*
D02*
G37*
G36*
X1008518Y179426D02*
Y176037D01*
X1011907D01*
X1011309Y177480D01*
X1009961Y178828D01*
X1008518Y179426D01*
D02*
G37*
G36*
X1005978D02*
X1004535Y178828D01*
X1003187Y177480D01*
X1002589Y176037D01*
X1005978D01*
Y179426D01*
D02*
G37*
G36*
X1079095Y184050D02*
X1077405D01*
X1075843Y183403D01*
X1074647Y182207D01*
X1074000Y180645D01*
Y178955D01*
X1074647Y177393D01*
X1075843Y176197D01*
X1077405Y175550D01*
X1079095D01*
X1080657Y176197D01*
X1081853Y177393D01*
X1082500Y178955D01*
Y180645D01*
X1081853Y182207D01*
X1080657Y183403D01*
X1079095Y184050D01*
D02*
G37*
G36*
X189845Y183750D02*
X188155D01*
X186593Y183103D01*
X185397Y181907D01*
X184750Y180345D01*
Y178655D01*
X185397Y177093D01*
X186593Y175897D01*
X188155Y175250D01*
X189845D01*
X191407Y175897D01*
X192603Y177093D01*
X193250Y178655D01*
Y180345D01*
X192603Y181907D01*
X191407Y183103D01*
X189845Y183750D01*
D02*
G37*
G36*
X1275316Y193250D02*
X1272683D01*
X1270140Y192568D01*
X1267860Y191252D01*
X1265998Y189390D01*
X1264681Y187110D01*
X1264000Y184566D01*
Y181933D01*
X1264681Y179390D01*
X1265998Y177110D01*
X1267860Y175248D01*
X1270140Y173932D01*
X1272683Y173250D01*
X1275316D01*
X1277860Y173932D01*
X1280140Y175248D01*
X1282002Y177110D01*
X1283318Y179390D01*
X1284000Y181933D01*
Y184566D01*
X1283318Y187110D01*
X1282002Y189390D01*
X1280140Y191252D01*
X1277860Y192568D01*
X1275316Y193250D01*
D02*
G37*
G36*
X470920Y181316D02*
X469229D01*
X467667Y180669D01*
X466472Y179473D01*
X465825Y177911D01*
Y176221D01*
X466472Y174659D01*
X467667Y173463D01*
X469229Y172816D01*
X470920D01*
X472482Y173463D01*
X473677Y174659D01*
X474324Y176221D01*
Y177911D01*
X473677Y179473D01*
X472482Y180669D01*
X470920Y181316D01*
D02*
G37*
G36*
X1011907Y173497D02*
X1008518D01*
Y170108D01*
X1009961Y170706D01*
X1011309Y172054D01*
X1011907Y173497D01*
D02*
G37*
G36*
X1005978D02*
X1002589D01*
X1003187Y172054D01*
X1004535Y170706D01*
X1005978Y170108D01*
Y173497D01*
D02*
G37*
G36*
X847012Y178428D02*
X845322D01*
X843760Y177781D01*
X842564Y176585D01*
X841917Y175023D01*
Y173333D01*
X842564Y171771D01*
X843760Y170575D01*
X845322Y169928D01*
X847012D01*
X848574Y170575D01*
X849770Y171771D01*
X850417Y173333D01*
Y175023D01*
X849770Y176585D01*
X848574Y177781D01*
X847012Y178428D01*
D02*
G37*
G36*
X897465Y176970D02*
X895775D01*
X894213Y176323D01*
X893017Y175127D01*
X892370Y173565D01*
Y171875D01*
X893017Y170313D01*
X894213Y169117D01*
X895775Y168470D01*
X897465D01*
X899027Y169117D01*
X900223Y170313D01*
X900870Y171875D01*
Y173565D01*
X900223Y175127D01*
X899027Y176323D01*
X897465Y176970D01*
D02*
G37*
G36*
X462127Y168523D02*
X460437D01*
X458875Y167876D01*
X457679Y166680D01*
X457032Y165118D01*
Y163427D01*
X457679Y161865D01*
X458875Y160670D01*
X460437Y160023D01*
X462127D01*
X463689Y160670D01*
X464885Y161865D01*
X465532Y163427D01*
Y165118D01*
X464885Y166680D01*
X463689Y167876D01*
X462127Y168523D01*
D02*
G37*
G36*
X224270Y158159D02*
Y154770D01*
X227659D01*
X227061Y156213D01*
X225713Y157561D01*
X224270Y158159D01*
D02*
G37*
G36*
X221730D02*
X220287Y157561D01*
X218939Y156213D01*
X218341Y154770D01*
X221730D01*
Y158159D01*
D02*
G37*
G36*
X1008270Y157659D02*
Y154270D01*
X1011659D01*
X1011061Y155713D01*
X1009713Y157061D01*
X1008270Y157659D01*
D02*
G37*
G36*
X1005730D02*
X1004287Y157061D01*
X1002939Y155713D01*
X1002341Y154270D01*
X1005730D01*
Y157659D01*
D02*
G37*
G36*
X930485Y161730D02*
X928795D01*
X927233Y161083D01*
X926037Y159887D01*
X925390Y158325D01*
Y156635D01*
X926037Y155073D01*
X927233Y153877D01*
X928795Y153230D01*
X930485D01*
X932047Y153877D01*
X933243Y155073D01*
X933890Y156635D01*
Y158325D01*
X933243Y159887D01*
X932047Y161083D01*
X930485Y161730D01*
D02*
G37*
G36*
X180729Y155159D02*
Y151770D01*
X184117D01*
X183519Y153213D01*
X182172Y154561D01*
X180729Y155159D01*
D02*
G37*
G36*
X178189D02*
X176745Y154561D01*
X175398Y153213D01*
X174800Y151770D01*
X178189D01*
Y155159D01*
D02*
G37*
G36*
X656165Y159190D02*
X654475D01*
X652913Y158543D01*
X651717Y157347D01*
X651070Y155785D01*
Y154095D01*
X651717Y152533D01*
X652913Y151337D01*
X654475Y150690D01*
X656165D01*
X657727Y151337D01*
X658923Y152533D01*
X659570Y154095D01*
Y155785D01*
X658923Y157347D01*
X657727Y158543D01*
X656165Y159190D01*
D02*
G37*
G36*
X227659Y152230D02*
X224270D01*
Y148841D01*
X225713Y149439D01*
X227061Y150787D01*
X227659Y152230D01*
D02*
G37*
G36*
X221730D02*
X218341D01*
X218939Y150787D01*
X220287Y149439D01*
X221730Y148841D01*
Y152230D01*
D02*
G37*
G36*
X1011659Y151730D02*
X1008270D01*
Y148341D01*
X1009713Y148939D01*
X1011061Y150287D01*
X1011659Y151730D01*
D02*
G37*
G36*
X1005730D02*
X1002341D01*
X1002939Y150287D01*
X1004287Y148939D01*
X1005730Y148341D01*
Y151730D01*
D02*
G37*
G36*
X1275316Y167850D02*
X1272683D01*
X1270140Y167169D01*
X1267860Y165852D01*
X1265998Y163990D01*
X1264681Y161710D01*
X1264000Y159166D01*
Y156533D01*
X1264681Y153990D01*
X1265998Y151710D01*
X1267860Y149848D01*
X1270140Y148532D01*
X1272683Y147850D01*
X1275316D01*
X1277860Y148532D01*
X1280140Y149848D01*
X1282002Y151710D01*
X1283318Y153990D01*
X1284000Y156533D01*
Y159166D01*
X1283318Y161710D01*
X1282002Y163990D01*
X1280140Y165852D01*
X1277860Y167169D01*
X1275316Y167850D01*
D02*
G37*
G36*
X464293Y156000D02*
X462603D01*
X461041Y155353D01*
X459845Y154157D01*
X459198Y152595D01*
Y150905D01*
X459845Y149343D01*
X461041Y148147D01*
X462603Y147500D01*
X464293D01*
X465855Y148147D01*
X467051Y149343D01*
X467698Y150905D01*
Y152595D01*
X467051Y154157D01*
X465855Y155353D01*
X464293Y156000D01*
D02*
G37*
G36*
X184117Y149230D02*
X180729D01*
Y145841D01*
X182172Y146439D01*
X183519Y147787D01*
X184117Y149230D01*
D02*
G37*
G36*
X178189D02*
X174800D01*
X175398Y147787D01*
X176745Y146439D01*
X178189Y145841D01*
Y149230D01*
D02*
G37*
G36*
X1080095Y151500D02*
X1078405D01*
X1076843Y150853D01*
X1075647Y149657D01*
X1075000Y148095D01*
Y146405D01*
X1075647Y144843D01*
X1076843Y143647D01*
X1078405Y143000D01*
X1080095D01*
X1081657Y143647D01*
X1082853Y144843D01*
X1083500Y146405D01*
Y148095D01*
X1082853Y149657D01*
X1081657Y150853D01*
X1080095Y151500D01*
D02*
G37*
G36*
X1042845Y148250D02*
X1041155D01*
X1039593Y147603D01*
X1038397Y146407D01*
X1037750Y144845D01*
Y143155D01*
X1038397Y141593D01*
X1039593Y140397D01*
X1041155Y139750D01*
X1042845D01*
X1044407Y140397D01*
X1045603Y141593D01*
X1046250Y143155D01*
Y144845D01*
X1045603Y146407D01*
X1044407Y147603D01*
X1042845Y148250D01*
D02*
G37*
G36*
X433770Y141159D02*
Y137770D01*
X437159D01*
X436561Y139213D01*
X435213Y140561D01*
X433770Y141159D01*
D02*
G37*
G36*
X431230D02*
X429787Y140561D01*
X428439Y139213D01*
X427841Y137770D01*
X431230D01*
Y141159D01*
D02*
G37*
G36*
X422770Y140659D02*
Y137270D01*
X426159D01*
X425561Y138713D01*
X424213Y140061D01*
X422770Y140659D01*
D02*
G37*
G36*
X459845Y144250D02*
X458155D01*
X456593Y143603D01*
X455397Y142407D01*
X454750Y140845D01*
Y139155D01*
X455397Y137593D01*
X456593Y136397D01*
X458155Y135750D01*
X459845D01*
X461407Y136397D01*
X462603Y137593D01*
X463250Y139155D01*
Y140845D01*
X462603Y142407D01*
X461407Y143603D01*
X459845Y144250D01*
D02*
G37*
G36*
X437159Y135230D02*
X433770D01*
Y131841D01*
X435213Y132439D01*
X436561Y133787D01*
X437159Y135230D01*
D02*
G37*
G36*
X431230D02*
X427841D01*
X428439Y133787D01*
X429787Y132439D01*
X431230Y131841D01*
Y135230D01*
D02*
G37*
G36*
X426159Y134730D02*
X422770D01*
Y131341D01*
X424213Y131939D01*
X425561Y133287D01*
X426159Y134730D01*
D02*
G37*
G36*
X217990Y132938D02*
Y129550D01*
X221379D01*
X220781Y130993D01*
X219434Y132340D01*
X217990Y132938D01*
D02*
G37*
G36*
X215450D02*
X214007Y132340D01*
X212660Y130993D01*
X212062Y129550D01*
X215450D01*
Y132938D01*
D02*
G37*
G36*
X237787Y128169D02*
X234398D01*
X234996Y126726D01*
X236343Y125379D01*
X237787Y124781D01*
Y128169D01*
D02*
G37*
G36*
X1079095Y133250D02*
X1077405D01*
X1075843Y132603D01*
X1074647Y131407D01*
X1074000Y129845D01*
Y128155D01*
X1074647Y126593D01*
X1075843Y125397D01*
X1077405Y124750D01*
X1079095D01*
X1080657Y125397D01*
X1081853Y126593D01*
X1082500Y128155D01*
Y129845D01*
X1081853Y131407D01*
X1080657Y132603D01*
X1079095Y133250D01*
D02*
G37*
G36*
X221379Y127009D02*
X217990D01*
Y123621D01*
X219434Y124219D01*
X220781Y125566D01*
X221379Y127009D01*
D02*
G37*
G36*
X215450D02*
X212062D01*
X212660Y125566D01*
X214007Y124219D01*
X215450Y123621D01*
Y127009D01*
D02*
G37*
G36*
X1275316Y142450D02*
X1272683D01*
X1270140Y141769D01*
X1267860Y140452D01*
X1265998Y138590D01*
X1264681Y136310D01*
X1264000Y133766D01*
Y131133D01*
X1264681Y128590D01*
X1265998Y126310D01*
X1267860Y124448D01*
X1270140Y123132D01*
X1272683Y122450D01*
X1275316D01*
X1277860Y123132D01*
X1280140Y124448D01*
X1282002Y126310D01*
X1283318Y128590D01*
X1284000Y131133D01*
Y133766D01*
X1283318Y136310D01*
X1282002Y138590D01*
X1280140Y140452D01*
X1277860Y141769D01*
X1275316Y142450D01*
D02*
G37*
G36*
X1011520Y125159D02*
Y121770D01*
X1014909D01*
X1014311Y123213D01*
X1012963Y124561D01*
X1011520Y125159D01*
D02*
G37*
G36*
X1008980D02*
X1007537Y124561D01*
X1006189Y123213D01*
X1005591Y121770D01*
X1008980D01*
Y125159D01*
D02*
G37*
G36*
X467845Y130000D02*
X466155D01*
X464593Y129353D01*
X463397Y128157D01*
X462750Y126595D01*
Y124905D01*
X463397Y123343D01*
X464593Y122147D01*
X466155Y121500D01*
X467845D01*
X469407Y122147D01*
X470603Y123343D01*
X471250Y124905D01*
Y126595D01*
X470603Y128157D01*
X469407Y129353D01*
X467845Y130000D01*
D02*
G37*
G36*
X1044595Y126250D02*
X1042905D01*
X1041343Y125603D01*
X1040147Y124407D01*
X1039500Y122845D01*
Y121155D01*
X1040147Y119593D01*
X1041343Y118397D01*
X1042905Y117750D01*
X1044595D01*
X1046157Y118397D01*
X1047353Y119593D01*
X1048000Y121155D01*
Y122845D01*
X1047353Y124407D01*
X1046157Y125603D01*
X1044595Y126250D01*
D02*
G37*
G36*
X1014909Y119230D02*
X1011520D01*
Y115841D01*
X1012963Y116439D01*
X1014311Y117787D01*
X1014909Y119230D01*
D02*
G37*
G36*
X1008980D02*
X1005591D01*
X1006189Y117787D01*
X1007537Y116439D01*
X1008980Y115841D01*
Y119230D01*
D02*
G37*
G36*
X138327Y116231D02*
X136636D01*
X135074Y115584D01*
X133878Y114389D01*
X133231Y112827D01*
Y111136D01*
X133878Y109574D01*
X135074Y108378D01*
X136636Y107731D01*
X138327D01*
X139889Y108378D01*
X141084Y109574D01*
X141731Y111136D01*
Y112827D01*
X141084Y114389D01*
X139889Y115584D01*
X138327Y116231D01*
D02*
G37*
G36*
X163226Y116131D02*
X161535D01*
X159973Y115484D01*
X158778Y114288D01*
X158131Y112726D01*
Y111035D01*
X158778Y109473D01*
X159973Y108278D01*
X161535Y107631D01*
X163226D01*
X164788Y108278D01*
X165984Y109473D01*
X166631Y111035D01*
Y112726D01*
X165984Y114288D01*
X164788Y115484D01*
X163226Y116131D01*
D02*
G37*
G36*
X113029Y115934D02*
X111338D01*
X109776Y115287D01*
X108581Y114091D01*
X107934Y112529D01*
Y110838D01*
X108581Y109276D01*
X109776Y108081D01*
X111338Y107434D01*
X113029D01*
X114591Y108081D01*
X115787Y109276D01*
X116434Y110838D01*
Y112529D01*
X115787Y114091D01*
X114591Y115287D01*
X113029Y115934D01*
D02*
G37*
G36*
X239395Y115290D02*
X237705D01*
X236143Y114643D01*
X234947Y113447D01*
X234300Y111885D01*
Y110195D01*
X234947Y108633D01*
X236143Y107437D01*
X237705Y106790D01*
X239395D01*
X240957Y107437D01*
X242153Y108633D01*
X242800Y110195D01*
Y111885D01*
X242153Y113447D01*
X240957Y114643D01*
X239395Y115290D01*
D02*
G37*
G36*
X211345Y115250D02*
X209655D01*
X208093Y114603D01*
X206897Y113407D01*
X206250Y111845D01*
Y110155D01*
X206897Y108593D01*
X208093Y107397D01*
X209655Y106750D01*
X211345D01*
X212907Y107397D01*
X214103Y108593D01*
X214750Y110155D01*
Y111845D01*
X214103Y113407D01*
X212907Y114603D01*
X211345Y115250D01*
D02*
G37*
G36*
X184345Y112250D02*
X182655D01*
X181093Y111603D01*
X179897Y110407D01*
X179250Y108845D01*
Y107155D01*
X179897Y105593D01*
X181093Y104397D01*
X182655Y103750D01*
X184345D01*
X185907Y104397D01*
X187103Y105593D01*
X187750Y107155D01*
Y108845D01*
X187103Y110407D01*
X185907Y111603D01*
X184345Y112250D01*
D02*
G37*
G36*
X1008770Y102909D02*
Y99520D01*
X1012159D01*
X1011561Y100963D01*
X1010213Y102311D01*
X1008770Y102909D01*
D02*
G37*
G36*
X1006230D02*
X1004787Y102311D01*
X1003439Y100963D01*
X1002841Y99520D01*
X1006230D01*
Y102909D01*
D02*
G37*
G36*
X1275316Y117050D02*
X1272683D01*
X1270140Y116369D01*
X1267860Y115052D01*
X1265998Y113190D01*
X1264681Y110910D01*
X1264000Y108366D01*
Y105733D01*
X1264681Y103190D01*
X1265998Y100910D01*
X1267860Y99048D01*
X1270140Y97732D01*
X1272683Y97050D01*
X1275316D01*
X1277860Y97732D01*
X1280140Y99048D01*
X1282002Y100910D01*
X1283318Y103190D01*
X1284000Y105733D01*
Y108366D01*
X1283318Y110910D01*
X1282002Y113190D01*
X1280140Y115052D01*
X1277860Y116369D01*
X1275316Y117050D01*
D02*
G37*
G36*
X1085095Y104100D02*
X1083405D01*
X1081843Y103453D01*
X1080647Y102257D01*
X1080000Y100695D01*
Y99005D01*
X1080647Y97443D01*
X1081843Y96247D01*
X1083405Y95600D01*
X1085095D01*
X1086657Y96247D01*
X1087853Y97443D01*
X1088500Y99005D01*
Y100695D01*
X1087853Y102257D01*
X1086657Y103453D01*
X1085095Y104100D01*
D02*
G37*
G36*
X1012159Y96980D02*
X1008770D01*
Y93591D01*
X1010213Y94189D01*
X1011561Y95537D01*
X1012159Y96980D01*
D02*
G37*
G36*
X1006230D02*
X1002841D01*
X1003439Y95537D01*
X1004787Y94189D01*
X1006230Y93591D01*
Y96980D01*
D02*
G37*
G36*
X864845Y97250D02*
X863155D01*
X861593Y96603D01*
X860397Y95407D01*
X859750Y93845D01*
Y92155D01*
X860397Y90593D01*
X861593Y89397D01*
X863155Y88750D01*
X864845D01*
X866407Y89397D01*
X867603Y90593D01*
X868250Y92155D01*
Y93845D01*
X867603Y95407D01*
X866407Y96603D01*
X864845Y97250D01*
D02*
G37*
G36*
X1376023Y123400D02*
X1372477D01*
X1369000Y122708D01*
X1365724Y121351D01*
X1362776Y119382D01*
X1360269Y116874D01*
X1358299Y113926D01*
X1356942Y110650D01*
X1356250Y107173D01*
Y103627D01*
X1356942Y100150D01*
X1358299Y96874D01*
X1360269Y93926D01*
X1362776Y91419D01*
X1365724Y89449D01*
X1369000Y88092D01*
X1372477Y87400D01*
X1376023D01*
X1379500Y88092D01*
X1382776Y89449D01*
X1385724Y91419D01*
X1388232Y93926D01*
X1390201Y96874D01*
X1391558Y100150D01*
X1392250Y103627D01*
Y107173D01*
X1391558Y110650D01*
X1390201Y113926D01*
X1388232Y116874D01*
X1385724Y119382D01*
X1382776Y121351D01*
X1379500Y122708D01*
X1376023Y123400D01*
D02*
G37*
G36*
X27173D02*
X23627D01*
X20150Y122708D01*
X16874Y121351D01*
X13926Y119382D01*
X11418Y116874D01*
X9449Y113926D01*
X8092Y110650D01*
X7400Y107173D01*
Y103627D01*
X8092Y100150D01*
X9449Y96874D01*
X11418Y93926D01*
X13926Y91419D01*
X16874Y89449D01*
X20150Y88092D01*
X23627Y87400D01*
X27173D01*
X30650Y88092D01*
X33926Y89449D01*
X36874Y91419D01*
X39381Y93926D01*
X41351Y96874D01*
X42708Y100150D01*
X43400Y103627D01*
Y107173D01*
X42708Y110650D01*
X41351Y113926D01*
X39381Y116874D01*
X36874Y119382D01*
X33926Y121351D01*
X30650Y122708D01*
X27173Y123400D01*
D02*
G37*
G36*
X606000Y88039D02*
X592353D01*
X592156Y88000D01*
X591955D01*
X591770Y87923D01*
X591573Y87884D01*
X591406Y87772D01*
X591220Y87696D01*
X591078Y87554D01*
X590911Y87442D01*
X590800Y87275D01*
X590658Y87133D01*
X590649Y87130D01*
X590000Y87034D01*
X589351Y87130D01*
X589342Y87133D01*
X589200Y87275D01*
X589089Y87442D01*
X588922Y87554D01*
X588780Y87696D01*
X588594Y87772D01*
X588427Y87884D01*
X588230Y87923D01*
X588045Y88000D01*
X587844D01*
X587647Y88039D01*
X351659D01*
X350879Y87884D01*
X350217Y87442D01*
X349775Y86780D01*
X349775Y86780D01*
X349289Y85607D01*
X349289Y85607D01*
X349134Y84827D01*
X349289Y84046D01*
X349731Y83385D01*
X356857Y76259D01*
X356920Y76217D01*
X356967Y76157D01*
X357249Y75997D01*
X357519Y75817D01*
X357593Y75802D01*
X357660Y75765D01*
X357981Y75725D01*
X358299Y75662D01*
X358374Y75677D01*
X358449Y75667D01*
X358761Y75754D01*
X359079Y75817D01*
X359143Y75859D01*
X359216Y75880D01*
X359291Y75917D01*
X360917D01*
Y74291D01*
X360880Y74216D01*
X360859Y74143D01*
X360817Y74079D01*
X360754Y73762D01*
X360667Y73449D01*
X360677Y73374D01*
X360662Y73299D01*
X360725Y72981D01*
X360765Y72660D01*
X360802Y72593D01*
X360817Y72519D01*
X360997Y72249D01*
X361157Y71967D01*
X361217Y71920D01*
X361259Y71857D01*
X404558Y28558D01*
X405220Y28116D01*
X406000Y27961D01*
X919646D01*
X920495Y26691D01*
X920310Y26245D01*
Y24555D01*
X920957Y22993D01*
X922153Y21797D01*
X923715Y21150D01*
X925405D01*
X926967Y21797D01*
X928163Y22993D01*
X928810Y24555D01*
Y26245D01*
X928625Y26691D01*
X929474Y27961D01*
X1025500D01*
X1025677Y27996D01*
X1025857Y27992D01*
X1026063Y28073D01*
X1026280Y28116D01*
X1026430Y28216D01*
X1026598Y28282D01*
X1026758Y28435D01*
X1026942Y28558D01*
X1027042Y28708D01*
X1027172Y28833D01*
X1039297Y46208D01*
X1039386Y46411D01*
X1039509Y46595D01*
X1039544Y46771D01*
X1039616Y46937D01*
X1039621Y47158D01*
X1039664Y47375D01*
Y57750D01*
X1039509Y58530D01*
X1039067Y59192D01*
X1039067Y59192D01*
X1037317Y60942D01*
X1036655Y61384D01*
X1035875Y61539D01*
X928967D01*
X928770Y61500D01*
X928569D01*
X928383Y61423D01*
X928186Y61384D01*
X928019Y61272D01*
X927834Y61196D01*
X927795D01*
X926967Y62023D01*
X925405Y62670D01*
X923715D01*
X922153Y62023D01*
X921325Y61196D01*
X921286D01*
X921101Y61272D01*
X920934Y61384D01*
X920737Y61423D01*
X920551Y61500D01*
X920350D01*
X920153Y61539D01*
X887988D01*
X887845Y62750D01*
X889407Y63397D01*
X890603Y64593D01*
X891250Y66155D01*
Y67845D01*
X890603Y69407D01*
X889407Y70603D01*
X887845Y71250D01*
X886155D01*
X884593Y70603D01*
X883397Y69407D01*
X882750Y67845D01*
Y66155D01*
X883397Y64593D01*
X884593Y63397D01*
X886155Y62750D01*
X886012Y61539D01*
X633345D01*
X607442Y87442D01*
X606780Y87884D01*
X606000Y88039D01*
D02*
G37*
G36*
X1275316Y91650D02*
X1272683D01*
X1270140Y90969D01*
X1267860Y89652D01*
X1265998Y87790D01*
X1264681Y85510D01*
X1264000Y82966D01*
Y80333D01*
X1264681Y77790D01*
X1265998Y75510D01*
X1267860Y73648D01*
X1270140Y72332D01*
X1272683Y71650D01*
X1275316D01*
X1277860Y72332D01*
X1280140Y73648D01*
X1282002Y75510D01*
X1283318Y77790D01*
X1284000Y80333D01*
Y82966D01*
X1283318Y85510D01*
X1282002Y87790D01*
X1280140Y89652D01*
X1277860Y90969D01*
X1275316Y91650D01*
D02*
G37*
G36*
X1049918Y84329D02*
X1049531Y84255D01*
X1049150Y84184D01*
X1049144Y84180D01*
X1049137Y84179D01*
X1048811Y83965D01*
X1048482Y83751D01*
X1048478Y83746D01*
X1048472Y83742D01*
X1047568Y82850D01*
X1047564Y82844D01*
X1047558Y82840D01*
X1047340Y82513D01*
X1047121Y82191D01*
X1047120Y82184D01*
X1047116Y82178D01*
X1047040Y81797D01*
X1046961Y81412D01*
X1046962Y81405D01*
X1046961Y81398D01*
Y70966D01*
X1047116Y70186D01*
X1047050Y69969D01*
X1046593Y69779D01*
X1045397Y68584D01*
X1044750Y67021D01*
Y65331D01*
X1045397Y63769D01*
X1046593Y62573D01*
X1047050Y62384D01*
X1047116Y62167D01*
X1046961Y61386D01*
Y50050D01*
X1047116Y49270D01*
X1047558Y48608D01*
X1048220Y48166D01*
X1049000Y48011D01*
X1084249D01*
X1084500Y47961D01*
X1084500Y47961D01*
X1084501Y47961D01*
X1219073Y48008D01*
X1219270Y48048D01*
X1219471Y48048D01*
X1219657Y48125D01*
X1219854Y48164D01*
X1220018Y48274D01*
X1220021Y48276D01*
X1220206Y48352D01*
X1220324Y48380D01*
X1221482Y48380D01*
X1221598Y48353D01*
X1221783Y48277D01*
X1221787Y48274D01*
X1221951Y48165D01*
X1222148Y48126D01*
X1222333Y48049D01*
X1222534Y48049D01*
X1222731Y48010D01*
X1229305Y48012D01*
X1229693Y48089D01*
X1230084Y48167D01*
X1230085Y48168D01*
X1230085Y48168D01*
X1230409Y48384D01*
X1230746Y48609D01*
X1230746Y48610D01*
X1230746Y48610D01*
X1230972Y48947D01*
X1231188Y49271D01*
X1231188Y49271D01*
X1231188Y49272D01*
X1231266Y49664D01*
X1231343Y50051D01*
Y79825D01*
X1231268Y80202D01*
X1231198Y80579D01*
X1231191Y80591D01*
X1231188Y80605D01*
X1230975Y80924D01*
X1230765Y81246D01*
X1230754Y81255D01*
X1230746Y81266D01*
X1230427Y81480D01*
X1230110Y81698D01*
X1230096Y81700D01*
X1230084Y81708D01*
X1229707Y81783D01*
X1229332Y81863D01*
X1049932Y84329D01*
X1049925Y84328D01*
X1049918Y84329D01*
D02*
G37*
G36*
X255448Y66400D02*
X252552D01*
X249754Y65650D01*
X247246Y64202D01*
X245198Y62154D01*
X243750Y59646D01*
X243000Y56848D01*
Y53952D01*
X243750Y51154D01*
X245198Y48646D01*
X247246Y46598D01*
X249754Y45150D01*
X252552Y44400D01*
X255448D01*
X258246Y45150D01*
X260754Y46598D01*
X262802Y48646D01*
X264250Y51154D01*
X265000Y53952D01*
Y56848D01*
X264250Y59646D01*
X262802Y62154D01*
X260754Y64202D01*
X258246Y65650D01*
X255448Y66400D01*
D02*
G37*
G36*
X230048D02*
X227152D01*
X224354Y65650D01*
X221846Y64202D01*
X219798Y62154D01*
X218350Y59646D01*
X217600Y56848D01*
Y53952D01*
X218350Y51154D01*
X219798Y48646D01*
X221846Y46598D01*
X224354Y45150D01*
X227152Y44400D01*
X230048D01*
X232846Y45150D01*
X235354Y46598D01*
X237402Y48646D01*
X238850Y51154D01*
X239600Y53952D01*
Y56848D01*
X238850Y59646D01*
X237402Y62154D01*
X235354Y64202D01*
X232846Y65650D01*
X230048Y66400D01*
D02*
G37*
G36*
X204648D02*
X201752D01*
X198954Y65650D01*
X196446Y64202D01*
X194398Y62154D01*
X192950Y59646D01*
X192200Y56848D01*
Y53952D01*
X192950Y51154D01*
X194398Y48646D01*
X196446Y46598D01*
X198954Y45150D01*
X201752Y44400D01*
X204648D01*
X207446Y45150D01*
X209954Y46598D01*
X212002Y48646D01*
X213450Y51154D01*
X214200Y53952D01*
Y56848D01*
X213450Y59646D01*
X212002Y62154D01*
X209954Y64202D01*
X207446Y65650D01*
X204648Y66400D01*
D02*
G37*
G36*
X179248D02*
X176352D01*
X173554Y65650D01*
X171046Y64202D01*
X168998Y62154D01*
X167550Y59646D01*
X166800Y56848D01*
Y53952D01*
X167550Y51154D01*
X168998Y48646D01*
X171046Y46598D01*
X173554Y45150D01*
X176352Y44400D01*
X179248D01*
X182046Y45150D01*
X184554Y46598D01*
X186602Y48646D01*
X188050Y51154D01*
X188800Y53952D01*
Y56848D01*
X188050Y59646D01*
X186602Y62154D01*
X184554Y64202D01*
X182046Y65650D01*
X179248Y66400D01*
D02*
G37*
G36*
X153848D02*
X150952D01*
X148154Y65650D01*
X145646Y64202D01*
X143598Y62154D01*
X142150Y59646D01*
X141400Y56848D01*
Y53952D01*
X142150Y51154D01*
X143598Y48646D01*
X145646Y46598D01*
X148154Y45150D01*
X150952Y44400D01*
X153848D01*
X156646Y45150D01*
X159154Y46598D01*
X161202Y48646D01*
X162650Y51154D01*
X163400Y53952D01*
Y56848D01*
X162650Y59646D01*
X161202Y62154D01*
X159154Y64202D01*
X156646Y65650D01*
X153848Y66400D01*
D02*
G37*
G36*
X128448D02*
X125552D01*
X122754Y65650D01*
X120246Y64202D01*
X118198Y62154D01*
X116750Y59646D01*
X116000Y56848D01*
Y53952D01*
X116750Y51154D01*
X118198Y48646D01*
X120246Y46598D01*
X122754Y45150D01*
X125552Y44400D01*
X128448D01*
X131246Y45150D01*
X133754Y46598D01*
X135802Y48646D01*
X137250Y51154D01*
X138000Y53952D01*
Y56848D01*
X137250Y59646D01*
X135802Y62154D01*
X133754Y64202D01*
X131246Y65650D01*
X128448Y66400D01*
D02*
G37*
G36*
X103048D02*
X100152D01*
X97354Y65650D01*
X94846Y64202D01*
X92798Y62154D01*
X91350Y59646D01*
X90600Y56848D01*
Y53952D01*
X91350Y51154D01*
X92798Y48646D01*
X94846Y46598D01*
X97354Y45150D01*
X100152Y44400D01*
X103048D01*
X105846Y45150D01*
X108354Y46598D01*
X110402Y48646D01*
X111850Y51154D01*
X112600Y53952D01*
Y56848D01*
X111850Y59646D01*
X110402Y62154D01*
X108354Y64202D01*
X105846Y65650D01*
X103048Y66400D01*
D02*
G37*
G36*
X283900Y66456D02*
X274900D01*
X273203Y66233D01*
X271622Y65578D01*
X270264Y64536D01*
X269222Y63178D01*
X268567Y61597D01*
X268344Y59900D01*
Y50900D01*
X268567Y49203D01*
X269222Y47622D01*
X270264Y46264D01*
X271622Y45222D01*
X273203Y44567D01*
X274900Y44344D01*
X283900D01*
X285597Y44567D01*
X287178Y45222D01*
X288536Y46264D01*
X289578Y47622D01*
X290233Y49203D01*
X290456Y50900D01*
Y59900D01*
X290233Y61597D01*
X289578Y63178D01*
X288536Y64536D01*
X287178Y65578D01*
X285597Y66233D01*
X283900Y66456D01*
D02*
G37*
%LPD*%
G36*
X360000Y226631D02*
Y209919D01*
X358730Y209133D01*
X357845Y209499D01*
X356155D01*
X354593Y208852D01*
X353397Y207657D01*
X352750Y206095D01*
Y204404D01*
X353397Y202842D01*
X353841Y202398D01*
X354397Y201157D01*
X353750Y199595D01*
Y197905D01*
X354397Y196343D01*
X355593Y195147D01*
X357155Y194500D01*
X358845D01*
X358944Y194541D01*
X360000Y193835D01*
Y192000D01*
X414000Y138000D01*
Y100000D01*
X413000Y99000D01*
X308000D01*
X289000Y118000D01*
X252000D01*
X242750Y127250D01*
X243307Y128594D01*
Y130285D01*
X242660Y131847D01*
X241464Y133042D01*
X239902Y133689D01*
X239217D01*
X233259Y161740D01*
X239912Y168393D01*
X241085Y167907D01*
Y167797D01*
X241814Y166037D01*
X243162Y164689D01*
X244605Y164091D01*
Y168750D01*
X245875D01*
Y170020D01*
X250534D01*
X249936Y171463D01*
X248588Y172811D01*
X246828Y173540D01*
X246718D01*
X246232Y174713D01*
X247427Y175908D01*
X336758Y235545D01*
X360000Y226631D01*
D02*
G37*
%LPC*%
G36*
X295270Y199659D02*
Y196270D01*
X298659D01*
X298061Y197713D01*
X296713Y199061D01*
X295270Y199659D01*
D02*
G37*
G36*
X292730D02*
X291287Y199061D01*
X289939Y197713D01*
X289341Y196270D01*
X292730D01*
Y199659D01*
D02*
G37*
G36*
X298659Y193730D02*
X295270D01*
Y190341D01*
X296713Y190939D01*
X298061Y192287D01*
X298659Y193730D01*
D02*
G37*
G36*
X292730D02*
X289341D01*
X289939Y192287D01*
X291287Y190939D01*
X292730Y190341D01*
Y193730D01*
D02*
G37*
G36*
X284520Y192159D02*
Y188770D01*
X287909D01*
X287311Y190213D01*
X285963Y191561D01*
X284520Y192159D01*
D02*
G37*
G36*
X281980D02*
X280537Y191561D01*
X279189Y190213D01*
X278591Y188770D01*
X281980D01*
Y192159D01*
D02*
G37*
G36*
X287909Y186230D02*
X284520D01*
Y182841D01*
X285963Y183439D01*
X287311Y184787D01*
X287909Y186230D01*
D02*
G37*
G36*
X281980D02*
X278591D01*
X279189Y184787D01*
X280537Y183439D01*
X281980Y182841D01*
Y186230D01*
D02*
G37*
G36*
X325933Y190204D02*
X324242D01*
X322680Y189557D01*
X321485Y188361D01*
X320838Y186799D01*
Y185109D01*
X321485Y183547D01*
X322680Y182351D01*
X324242Y181704D01*
X325933D01*
X327495Y182351D01*
X328691Y183547D01*
X329338Y185109D01*
Y186799D01*
X328691Y188361D01*
X327495Y189557D01*
X325933Y190204D01*
D02*
G37*
G36*
X316939Y184096D02*
X315248D01*
X313686Y183449D01*
X312491Y182253D01*
X311843Y180692D01*
Y179001D01*
X312491Y177439D01*
X313686Y176243D01*
X315248Y175596D01*
X316939D01*
X318501Y176243D01*
X319696Y177439D01*
X320343Y179001D01*
Y180692D01*
X319696Y182253D01*
X318501Y183449D01*
X316939Y184096D01*
D02*
G37*
G36*
X250534Y167480D02*
X247145D01*
Y164091D01*
X248588Y164689D01*
X249936Y166037D01*
X250534Y167480D01*
D02*
G37*
G36*
X295845Y164250D02*
X294155D01*
X292593Y163603D01*
X291397Y162407D01*
X290750Y160845D01*
Y159155D01*
X291397Y157593D01*
X292593Y156397D01*
X294155Y155750D01*
X295845D01*
X297407Y156397D01*
X298603Y157593D01*
X299250Y159155D01*
Y160845D01*
X298603Y162407D01*
X297407Y163603D01*
X295845Y164250D01*
D02*
G37*
G36*
X380595Y158687D02*
X378905D01*
X377343Y158040D01*
X376147Y156845D01*
X375500Y155282D01*
Y154250D01*
X374155D01*
X372593Y153603D01*
X371397Y152407D01*
X370750Y150845D01*
Y149155D01*
X371397Y147593D01*
X372593Y146397D01*
X374155Y145750D01*
X375845D01*
X377407Y146397D01*
X378603Y147593D01*
X379250Y149155D01*
Y150187D01*
X380595D01*
X382157Y150834D01*
X383353Y152030D01*
X384000Y153592D01*
Y155282D01*
X383353Y156845D01*
X382157Y158040D01*
X380595Y158687D01*
D02*
G37*
G36*
X293845Y138750D02*
X292155D01*
X290593Y138103D01*
X289397Y136907D01*
X288750Y135345D01*
Y133655D01*
X289397Y132093D01*
X290593Y130897D01*
X292155Y130250D01*
X293845D01*
X295407Y130897D01*
X296603Y132093D01*
X297250Y133655D01*
Y135345D01*
X296603Y136907D01*
X295407Y138103D01*
X293845Y138750D01*
D02*
G37*
G36*
X374823Y134446D02*
X373132D01*
X371570Y133799D01*
X370374Y132603D01*
X369728Y131041D01*
Y129351D01*
X370374Y127789D01*
X371570Y126593D01*
X373132Y125946D01*
X374823D01*
X376385Y126593D01*
X377580Y127789D01*
X378227Y129351D01*
Y131041D01*
X377580Y132603D01*
X376385Y133799D01*
X374823Y134446D01*
D02*
G37*
G36*
X401270Y111659D02*
Y108270D01*
X404659D01*
X404061Y109713D01*
X402713Y111061D01*
X401270Y111659D01*
D02*
G37*
G36*
X398730D02*
X397287Y111061D01*
X395939Y109713D01*
X395341Y108270D01*
X398730D01*
Y111659D01*
D02*
G37*
G36*
X404659Y105730D02*
X401270D01*
Y102341D01*
X402713Y102939D01*
X404061Y104287D01*
X404659Y105730D01*
D02*
G37*
G36*
X398730D02*
X395341D01*
X395939Y104287D01*
X397287Y102939D01*
X398730Y102341D01*
Y105730D01*
D02*
G37*
%LPD*%
G36*
X632500Y59500D02*
X920153D01*
X920310Y59265D01*
Y57575D01*
X920957Y56013D01*
X922153Y54817D01*
X923715Y54170D01*
X925405D01*
X926967Y54817D01*
X928163Y56013D01*
X928810Y57575D01*
Y59265D01*
X928967Y59500D01*
X1035875D01*
X1037625Y57750D01*
Y47375D01*
X1025500Y30000D01*
X406000D01*
X362701Y73299D01*
X362956Y73806D01*
Y77956D01*
X358806D01*
X358299Y77701D01*
X351173Y84827D01*
X351659Y86000D01*
X587647D01*
X587899Y84730D01*
X587593Y84603D01*
X586397Y83407D01*
X585750Y81845D01*
Y80155D01*
X586397Y78593D01*
X587593Y77397D01*
X589155Y76750D01*
X590845D01*
X592407Y77397D01*
X593603Y78593D01*
X594250Y80155D01*
Y81845D01*
X593603Y83407D01*
X592407Y84603D01*
X592101Y84730D01*
X592353Y86000D01*
X606000D01*
X632500Y59500D01*
D02*
G37*
%LPC*%
G36*
X365496Y83885D02*
Y80496D01*
X368885D01*
X368287Y81940D01*
X366940Y83287D01*
X365496Y83885D01*
D02*
G37*
G36*
X362956D02*
X361513Y83287D01*
X360166Y81940D01*
X359568Y80496D01*
X362956D01*
Y83885D01*
D02*
G37*
G36*
X396270Y80659D02*
Y77270D01*
X399659D01*
X399061Y78713D01*
X397713Y80061D01*
X396270Y80659D01*
D02*
G37*
G36*
X393730D02*
X392287Y80061D01*
X390939Y78713D01*
X390341Y77270D01*
X393730D01*
Y80659D01*
D02*
G37*
G36*
X431270Y79159D02*
Y75770D01*
X434659D01*
X434061Y77213D01*
X432713Y78561D01*
X431270Y79159D01*
D02*
G37*
G36*
X428730D02*
X427287Y78561D01*
X425939Y77213D01*
X425341Y75770D01*
X428730D01*
Y79159D01*
D02*
G37*
G36*
X368885Y77956D02*
X365496D01*
Y74568D01*
X366940Y75166D01*
X368287Y76513D01*
X368885Y77956D01*
D02*
G37*
G36*
X399659Y74730D02*
X396270D01*
Y71341D01*
X397713Y71939D01*
X399061Y73287D01*
X399659Y74730D01*
D02*
G37*
G36*
X393730D02*
X390341D01*
X390939Y73287D01*
X392287Y71939D01*
X393730Y71341D01*
Y74730D01*
D02*
G37*
G36*
X434659Y73230D02*
X431270D01*
Y69841D01*
X432713Y70439D01*
X434061Y71787D01*
X434659Y73230D01*
D02*
G37*
G36*
X428730D02*
X425341D01*
X425939Y71787D01*
X427287Y70439D01*
X428730Y69841D01*
Y73230D01*
D02*
G37*
G36*
X480845Y74250D02*
X479155D01*
X477593Y73603D01*
X476397Y72407D01*
X475750Y70845D01*
Y69155D01*
X476397Y67593D01*
X477593Y66397D01*
X479155Y65750D01*
X480845D01*
X482407Y66397D01*
X483603Y67593D01*
X484250Y69155D01*
Y70845D01*
X483603Y72407D01*
X482407Y73603D01*
X480845Y74250D01*
D02*
G37*
G36*
X1023720Y56809D02*
Y53420D01*
X1027109D01*
X1026511Y54863D01*
X1025163Y56211D01*
X1023720Y56809D01*
D02*
G37*
G36*
X1021180D02*
X1019737Y56211D01*
X1018389Y54863D01*
X1017791Y53420D01*
X1021180D01*
Y56809D01*
D02*
G37*
G36*
X1027109Y50880D02*
X1023720D01*
Y47491D01*
X1025163Y48089D01*
X1026511Y49437D01*
X1027109Y50880D01*
D02*
G37*
G36*
X1021180D02*
X1017791D01*
X1018389Y49437D01*
X1019737Y48089D01*
X1021180Y47491D01*
Y50880D01*
D02*
G37*
G36*
X461270Y50659D02*
Y47270D01*
X464659D01*
X464061Y48713D01*
X462713Y50061D01*
X461270Y50659D01*
D02*
G37*
G36*
X458730D02*
X457287Y50061D01*
X455939Y48713D01*
X455341Y47270D01*
X458730D01*
Y50659D01*
D02*
G37*
G36*
X767925Y52510D02*
X766235D01*
X764673Y51863D01*
X763477Y50667D01*
X762830Y49105D01*
Y47415D01*
X763477Y45853D01*
X764673Y44657D01*
X766235Y44010D01*
X767925D01*
X769487Y44657D01*
X770683Y45853D01*
X771330Y47415D01*
Y49105D01*
X770683Y50667D01*
X769487Y51863D01*
X767925Y52510D01*
D02*
G37*
G36*
X464659Y44730D02*
X461270D01*
Y41341D01*
X462713Y41939D01*
X464061Y43287D01*
X464659Y44730D01*
D02*
G37*
G36*
X458730D02*
X455341D01*
X455939Y43287D01*
X457287Y41939D01*
X458730Y41341D01*
Y44730D01*
D02*
G37*
G36*
X483504Y49520D02*
X481813D01*
X480251Y48873D01*
X479056Y47677D01*
X478409Y46115D01*
Y44425D01*
X479056Y42863D01*
X480251Y41667D01*
X481813Y41020D01*
X483504D01*
X485066Y41667D01*
X486261Y42863D01*
X486909Y44425D01*
Y46115D01*
X486261Y47677D01*
X485066Y48873D01*
X483504Y49520D01*
D02*
G37*
%LPD*%
G36*
X1229304Y79825D02*
Y50051D01*
X1222730Y50049D01*
X1222478Y51319D01*
X1223613Y51789D01*
X1224961Y53137D01*
X1225559Y54580D01*
X1216241D01*
X1216839Y53137D01*
X1218187Y51789D01*
X1219325Y51318D01*
X1219073Y50048D01*
X1084500Y50000D01*
X1084450Y50050D01*
X1049000D01*
Y61386D01*
X1049953D01*
X1051713Y62115D01*
X1053061Y63463D01*
X1053659Y64906D01*
X1049000D01*
Y67446D01*
X1053659D01*
X1053061Y68889D01*
X1051713Y70237D01*
X1049953Y70966D01*
X1049000D01*
Y81398D01*
X1049904Y82290D01*
X1229304Y79825D01*
D02*
G37*
%LPC*%
G36*
X1222170Y60509D02*
Y57120D01*
X1225559D01*
X1224961Y58563D01*
X1223613Y59911D01*
X1222170Y60509D01*
D02*
G37*
G36*
X1219630D02*
X1218187Y59911D01*
X1216839Y58563D01*
X1216241Y57120D01*
X1219630D01*
Y60509D01*
D02*
G37*
%LPD*%
D46*
X1374250Y105400D02*
D03*
X316000Y394600D02*
D03*
X1369750D02*
D03*
D47*
X170000Y470000D02*
D03*
X200000D02*
D03*
X50000D02*
D03*
X80000D02*
D03*
D48*
X718820Y353060D02*
D03*
X744220D02*
D03*
D49*
X1274000Y107050D02*
D03*
Y81650D02*
D03*
Y132450D02*
D03*
Y157850D02*
D03*
Y208650D02*
D03*
Y234050D02*
D03*
Y284850D02*
D03*
Y335650D02*
D03*
Y361050D02*
D03*
Y310250D02*
D03*
Y259450D02*
D03*
Y183250D02*
D03*
D50*
Y386450D02*
D03*
D51*
X152400Y55400D02*
D03*
X228600D02*
D03*
X203200D02*
D03*
X177800D02*
D03*
X127000D02*
D03*
X101600D02*
D03*
X254000D02*
D03*
D52*
X279400D02*
D03*
D53*
X239057Y129439D02*
D03*
X258919Y111580D02*
D03*
X358000Y198750D02*
D03*
X216721Y128279D02*
D03*
X357000Y205249D02*
D03*
X898477Y446533D02*
D03*
X794097Y372804D02*
D03*
X1010859Y383117D02*
D03*
X461282Y164273D02*
D03*
X846167Y174178D02*
D03*
X1007248Y174767D02*
D03*
X1007560Y200364D02*
D03*
X459320Y263392D02*
D03*
X460798Y239989D02*
D03*
X463448Y151750D02*
D03*
X470075Y177066D02*
D03*
X458374Y190230D02*
D03*
X467066Y197750D02*
D03*
X457500Y211716D02*
D03*
X464180Y226382D02*
D03*
X464229Y250533D02*
D03*
X465040Y274388D02*
D03*
X465059Y299516D02*
D03*
X459409Y290331D02*
D03*
X457706Y315144D02*
D03*
X463936Y323763D02*
D03*
X460445Y335005D02*
D03*
X463561Y349505D02*
D03*
X351000Y297270D02*
D03*
X399765Y185000D02*
D03*
X399670Y255095D02*
D03*
X399765Y215000D02*
D03*
X399670Y245095D02*
D03*
X399765Y205000D02*
D03*
Y195000D02*
D03*
Y225000D02*
D03*
Y235000D02*
D03*
X398206Y286560D02*
D03*
X399670Y265095D02*
D03*
Y275095D02*
D03*
X263500Y234250D02*
D03*
X183500Y108000D02*
D03*
X162381Y111881D02*
D03*
X137481Y111981D02*
D03*
X112184Y111684D02*
D03*
X467000Y125750D02*
D03*
X459500Y115250D02*
D03*
X464004Y97746D02*
D03*
X421500Y136000D02*
D03*
X586500Y441000D02*
D03*
X639058Y349992D02*
D03*
X681750Y373250D02*
D03*
X721750Y279750D02*
D03*
X761000Y266000D02*
D03*
X823000Y245250D02*
D03*
X1012750Y323250D02*
D03*
X1011500Y354750D02*
D03*
X1077250Y201250D02*
D03*
X1078250Y230600D02*
D03*
X1010250Y120500D02*
D03*
X1007500Y98250D02*
D03*
X1079250Y147250D02*
D03*
X1039750Y320000D02*
D03*
X175750Y244000D02*
D03*
X163000Y260500D02*
D03*
X140250Y261250D02*
D03*
X105750Y261000D02*
D03*
X79750Y267250D02*
D03*
X233250Y222500D02*
D03*
X1017500Y76500D02*
D03*
X1042000Y144000D02*
D03*
X245875Y168750D02*
D03*
X482659Y45270D02*
D03*
X250000Y207500D02*
D03*
X256490Y207139D02*
D03*
X379750Y154437D02*
D03*
X375000Y150000D02*
D03*
X295000Y160000D02*
D03*
X420000Y115750D02*
D03*
X400000Y107000D02*
D03*
X325088Y185954D02*
D03*
X316093Y179846D02*
D03*
X1022450Y52150D02*
D03*
X1049000Y66176D02*
D03*
X1220900Y55850D02*
D03*
X1007000Y254000D02*
D03*
X665480Y431800D02*
D03*
X1210035Y411450D02*
D03*
X471000Y406000D02*
D03*
X1041750Y391000D02*
D03*
X1042250Y367250D02*
D03*
X1039750Y341600D02*
D03*
Y290800D02*
D03*
X1080250Y265000D02*
D03*
X1044000Y248500D02*
D03*
X1041500Y239000D02*
D03*
X932180Y233680D02*
D03*
X1041516Y204516D02*
D03*
X1048750Y189500D02*
D03*
X1043750Y122000D02*
D03*
X1007000Y153000D02*
D03*
X1077450Y306800D02*
D03*
X1084250Y99850D02*
D03*
X1078250Y129000D02*
D03*
Y179800D02*
D03*
Y281400D02*
D03*
Y332200D02*
D03*
Y357600D02*
D03*
X1081249Y383000D02*
D03*
X1007000Y280000D02*
D03*
X283250Y187500D02*
D03*
X294000Y195000D02*
D03*
X373977Y130196D02*
D03*
X179459Y150500D02*
D03*
X223000Y153500D02*
D03*
X224000Y202000D02*
D03*
X1007000Y305000D02*
D03*
X459000Y369000D02*
D03*
X932000Y356000D02*
D03*
X590000Y81000D02*
D03*
X891000Y117000D02*
D03*
X864000Y93000D02*
D03*
X887000Y67000D02*
D03*
X830000Y460000D02*
D03*
X767080Y48260D02*
D03*
X138500Y489000D02*
D03*
X229500Y489000D02*
D03*
X18500Y489000D02*
D03*
X109500Y489000D02*
D03*
X701088Y348462D02*
D03*
X65450Y234452D02*
D03*
X293000Y134500D02*
D03*
X460000Y46000D02*
D03*
X210500Y111000D02*
D03*
X430000Y74500D02*
D03*
X395000Y76000D02*
D03*
X364226Y79226D02*
D03*
X269000Y213000D02*
D03*
X383540Y298000D02*
D03*
X350000Y265000D02*
D03*
X163000Y214500D02*
D03*
X372000Y252000D02*
D03*
X285898Y208898D02*
D03*
X289560Y304800D02*
D03*
X189000Y179500D02*
D03*
X350520Y276860D02*
D03*
X286810Y111040D02*
D03*
X238550D02*
D03*
X924560Y58420D02*
D03*
X929640Y157480D02*
D03*
X924560Y25400D02*
D03*
X896620Y172720D02*
D03*
X655320Y154940D02*
D03*
X929640Y472440D02*
D03*
X432500Y136500D02*
D03*
X459000Y140000D02*
D03*
X1007000Y229000D02*
D03*
X139000Y197500D02*
D03*
X480000Y70000D02*
D03*
D54*
X457588Y107616D02*
X917200D01*
X439315Y116000D02*
X449204D01*
X457588Y107616D01*
X917200D02*
X948316Y76500D01*
X1017500D01*
X420000Y115750D02*
X425750Y110000D01*
X433315D01*
X439315Y116000D01*
M02*
