G04*
G04 #@! TF.GenerationSoftware,Altium Limited,Altium Designer,22.11.1 (43)*
G04*
G04 Layer_Color=128*
%FSLAX44Y44*%
%MOMM*%
G71*
G04*
G04 #@! TF.SameCoordinates,29317E8A-5C5B-4438-BA8D-C417C64156BC*
G04*
G04*
G04 #@! TF.FilePolarity,Positive*
G04*
G01*
G75*
%ADD138C,0.1270*%
D138*
X921000Y174750D02*
X924000D01*
X922500Y173250D02*
Y176250D01*
X938500Y39000D02*
X941500D01*
X940000Y37500D02*
Y40500D01*
X1300500Y70000D02*
X1303500D01*
X1302000Y68500D02*
Y71500D01*
X1178500Y272000D02*
X1181500D01*
X1180000Y270500D02*
Y273500D01*
X1448000Y474500D02*
X1450000D01*
X1449000Y473500D02*
Y475500D01*
X1448000Y482500D02*
X1450000D01*
X1449000Y481500D02*
Y483500D01*
X1448250Y490250D02*
X1450250D01*
X1449250Y489250D02*
Y491250D01*
X1436750Y482500D02*
X1438750D01*
X1437750Y481500D02*
Y483500D01*
X1436750Y474250D02*
X1438750D01*
X1437750Y473250D02*
Y475250D01*
X1436750Y490250D02*
X1438750D01*
X1437750Y489250D02*
Y491250D01*
X1448250Y498000D02*
X1450250D01*
X1449250Y497000D02*
Y499000D01*
X1436750Y497750D02*
X1438750D01*
X1437750Y496750D02*
Y498750D01*
X1178750Y199000D02*
X1181750D01*
X1180250Y197500D02*
Y200500D01*
X643250Y159250D02*
X646250D01*
X644750Y157750D02*
Y160750D01*
X1133500Y156000D02*
X1136500D01*
X1135000Y154500D02*
Y157500D01*
X990621Y244433D02*
X993621D01*
X992121Y242933D02*
Y245933D01*
X1069250Y272000D02*
X1072250D01*
X1070750Y270500D02*
Y273500D01*
X1052750Y272000D02*
X1055750D01*
X1054250Y270500D02*
Y273500D01*
X1011000Y271750D02*
X1014000D01*
X1012500Y270250D02*
Y273250D01*
X651750Y239750D02*
X654750D01*
X653250Y238250D02*
Y241250D01*
X805750Y97500D02*
X808750D01*
X807250Y96000D02*
Y99000D01*
X921000Y100750D02*
X924000D01*
X922500Y99250D02*
Y102250D01*
X918250Y140500D02*
X921250D01*
X919750Y139000D02*
Y142000D01*
X1200250Y215000D02*
X1203250D01*
X1201750Y213500D02*
Y216500D01*
X1313250Y246500D02*
X1316250D01*
X1314750Y245000D02*
Y248000D01*
X1189750Y598000D02*
X1192750D01*
X1191250Y596500D02*
Y599500D01*
X1291250Y491500D02*
X1294250D01*
X1292750Y490000D02*
Y493000D01*
X1434750Y215750D02*
X1437750D01*
X1436250Y214250D02*
Y217250D01*
X1441250Y462750D02*
X1444250D01*
X1442750Y461250D02*
Y464250D01*
X1488500Y485250D02*
X1491500D01*
X1490000Y483750D02*
Y486750D01*
X1441750Y507500D02*
X1444750D01*
X1443250Y506000D02*
Y509000D01*
X1504750Y518750D02*
X1507750D01*
X1506250Y517250D02*
Y520250D01*
X1418500Y596000D02*
X1421500D01*
X1420000Y594500D02*
Y597500D01*
X701500Y41500D02*
X704500D01*
X703000Y40000D02*
Y43000D01*
X929750Y68250D02*
X932750D01*
X931250Y66750D02*
Y69750D01*
X843250Y114000D02*
X846250D01*
X844750Y112500D02*
Y115500D01*
X775250Y129250D02*
X778250D01*
X776750Y127750D02*
Y130750D01*
X715500Y255750D02*
X718500D01*
X717000Y254250D02*
Y257250D01*
X663250Y258250D02*
X666250D01*
X664750Y256750D02*
Y259750D01*
X703500Y310250D02*
X706500D01*
X705000Y308750D02*
Y311750D01*
X797750Y340000D02*
X800750D01*
X799250Y338500D02*
Y341500D01*
X746750Y340250D02*
X749750D01*
X748250Y338750D02*
Y341750D01*
X786750Y395000D02*
X789750D01*
X788250Y393500D02*
Y396500D01*
X638000Y98000D02*
X641000D01*
X639500Y96500D02*
Y99500D01*
X364250Y184500D02*
X367250D01*
X365750Y183000D02*
Y186000D01*
X260500Y121000D02*
X265500D01*
X263000Y118500D02*
Y123500D01*
M02*
