G04*
G04 #@! TF.GenerationSoftware,Altium Limited,Altium Designer,22.11.1 (43)*
G04*
G04 Layer_Color=2752767*
%FSLAX44Y44*%
%MOMM*%
G71*
G04*
G04 #@! TF.SameCoordinates,CE3EE1F7-2002-4A30-8AAF-CFD3FAF0E8B6*
G04*
G04*
G04 #@! TF.FilePolarity,Positive*
G04*
G01*
G75*
%ADD136C,0.1270*%
D136*
X880960Y150460D02*
Y147920D01*
X886040D01*
Y150460D01*
X888580D01*
Y155540D01*
X886040D01*
Y158080D01*
X880960D01*
Y155540D01*
X878420D01*
Y150460D01*
X880960D01*
X881976Y151476D02*
Y149952D01*
X885024D01*
Y151476D01*
X886548D01*
Y154524D01*
X885024D01*
Y156048D01*
X881976D01*
Y154524D01*
X880452D01*
Y151476D01*
X881976D01*
X916460Y161210D02*
Y158670D01*
X921540D01*
Y161210D01*
X924080D01*
Y166290D01*
X921540D01*
Y168830D01*
X916460D01*
Y166290D01*
X913920D01*
Y161210D01*
X916460D01*
X917476Y162226D02*
Y160702D01*
X920524D01*
Y162226D01*
X922048D01*
Y165274D01*
X920524D01*
Y166798D01*
X917476D01*
Y165274D01*
X915952D01*
Y162226D01*
X917476D01*
X1301960Y338460D02*
Y335920D01*
X1307040D01*
Y338460D01*
X1309580D01*
Y343540D01*
X1307040D01*
Y346080D01*
X1301960D01*
Y343540D01*
X1299420D01*
Y338460D01*
X1301960D01*
X1302976Y339476D02*
Y337952D01*
X1306024D01*
Y339476D01*
X1307548D01*
Y342524D01*
X1306024D01*
Y344048D01*
X1302976D01*
Y342524D01*
X1301452D01*
Y339476D01*
X1302976D01*
X1441460Y384960D02*
Y382420D01*
X1446540D01*
Y384960D01*
X1449080D01*
Y390040D01*
X1446540D01*
Y392580D01*
X1441460D01*
Y390040D01*
X1438920D01*
Y384960D01*
X1441460D01*
X1442476Y385976D02*
Y384452D01*
X1445524D01*
Y385976D01*
X1447048D01*
Y389024D01*
X1445524D01*
Y390548D01*
X1442476D01*
Y389024D01*
X1440952D01*
Y385976D01*
X1442476D01*
X1619960Y565460D02*
Y562920D01*
X1625040D01*
Y565460D01*
X1627580D01*
Y570540D01*
X1625040D01*
Y573080D01*
X1619960D01*
Y570540D01*
X1617420D01*
Y565460D01*
X1619960D01*
X1620976Y566476D02*
Y564952D01*
X1624024D01*
Y566476D01*
X1625548D01*
Y569524D01*
X1624024D01*
Y571048D01*
X1620976D01*
Y569524D01*
X1619452D01*
Y566476D01*
X1620976D01*
X1595460Y565710D02*
Y563170D01*
X1600540D01*
Y565710D01*
X1603080D01*
Y570790D01*
X1600540D01*
Y573330D01*
X1595460D01*
Y570790D01*
X1592920D01*
Y565710D01*
X1595460D01*
X1596476Y566726D02*
Y565202D01*
X1599524D01*
Y566726D01*
X1601048D01*
Y569774D01*
X1599524D01*
Y571298D01*
X1596476D01*
Y569774D01*
X1594952D01*
Y566726D01*
X1596476D01*
X1645331Y566252D02*
Y563712D01*
X1650411D01*
Y566252D01*
X1652951D01*
Y571332D01*
X1650411D01*
Y573872D01*
X1645331D01*
Y571332D01*
X1642791D01*
Y566252D01*
X1645331D01*
X1646347Y567268D02*
Y565744D01*
X1649395D01*
Y567268D01*
X1650919D01*
Y570316D01*
X1649395D01*
Y571840D01*
X1646347D01*
Y570316D01*
X1644823D01*
Y567268D01*
X1646347D01*
X42710Y197460D02*
Y194920D01*
X47790D01*
Y197460D01*
X50330D01*
Y202540D01*
X47790D01*
Y205080D01*
X42710D01*
Y202540D01*
X40170D01*
Y197460D01*
X42710D01*
X43726Y198476D02*
Y196952D01*
X46774D01*
Y198476D01*
X48298D01*
Y201524D01*
X46774D01*
Y203048D01*
X43726D01*
Y201524D01*
X42202D01*
Y198476D01*
X43726D01*
M02*
