G04*
G04 #@! TF.GenerationSoftware,Altium Limited,Altium Designer,22.11.1 (43)*
G04*
G04 Layer_Color=32768*
%FSLAX44Y44*%
%MOMM*%
G71*
G04*
G04 #@! TF.SameCoordinates,29317E8A-5C5B-4438-BA8D-C417C64156BC*
G04*
G04*
G04 #@! TF.FilePolarity,Positive*
G04*
G01*
G75*
%ADD14C,0.1500*%
%ADD17C,0.1000*%
%ADD134C,0.0500*%
D14*
X1384870Y370400D02*
X1388870D01*
X1386870Y368400D02*
Y372400D01*
X1402650Y370400D02*
X1406650D01*
X1404650Y368400D02*
Y372400D01*
X1420430Y370400D02*
X1424430D01*
X1422430Y368400D02*
Y372400D01*
X1701310Y208830D02*
Y224830D01*
X1671310Y208830D02*
Y224830D01*
Y208830D02*
X1701310D01*
X1671310Y224830D02*
X1701310D01*
X1686310Y211831D02*
Y221831D01*
X1681310Y216830D02*
X1691310D01*
X451500Y613750D02*
X461500D01*
X456500Y608750D02*
Y618750D01*
X1647220Y584700D02*
Y594700D01*
X1642220Y589700D02*
X1652220D01*
X355750Y452500D02*
Y456500D01*
X353750Y454500D02*
X357750D01*
X356000Y471250D02*
Y475250D01*
X354000Y473250D02*
X358000D01*
X521000Y579750D02*
X531000D01*
X526000Y574750D02*
Y584750D01*
X511000Y587750D02*
X541000D01*
X511000Y571750D02*
X541000D01*
X511000D02*
Y587750D01*
X541000Y571750D02*
Y587750D01*
X1443250Y588750D02*
X1453250D01*
X1448250Y583750D02*
Y593750D01*
X1433250Y580750D02*
X1463250D01*
X1433250Y596750D02*
X1463250D01*
Y580750D02*
Y596750D01*
X1433250Y580750D02*
Y596750D01*
X372000Y660000D02*
X382000D01*
X377000Y655000D02*
Y665000D01*
X393000Y597000D02*
X403000D01*
X398000Y592000D02*
Y602000D01*
X443250Y542750D02*
X453250D01*
X448250Y537750D02*
Y547750D01*
X36000Y208250D02*
Y218250D01*
X31000Y213250D02*
X41000D01*
X69250Y227250D02*
Y231250D01*
X67250Y229250D02*
X71250D01*
X1475250Y588000D02*
X1485250D01*
X1480250Y583000D02*
Y593000D01*
X1361750Y424500D02*
Y434500D01*
X1356750Y429500D02*
X1366750D01*
X1352250Y464750D02*
Y474750D01*
X1347250Y469750D02*
X1357250D01*
X1236500Y426500D02*
X1246500D01*
X1241500Y421500D02*
Y431500D01*
X1274250Y409000D02*
X1284250D01*
X1279250Y404000D02*
Y414000D01*
X1290000Y341000D02*
X1300000D01*
X1295000Y336000D02*
Y346000D01*
X1331000Y338750D02*
Y342750D01*
X1329000Y340750D02*
X1333000D01*
X1240000Y454750D02*
X1250000D01*
X1245000Y449750D02*
Y459750D01*
X1265000Y449750D02*
Y459750D01*
X1260000Y454750D02*
X1270000D01*
X1280000D02*
X1290000D01*
X1285000Y449750D02*
Y459750D01*
X1300000Y454750D02*
X1310000D01*
X1305000Y449750D02*
Y459750D01*
X1320000Y454750D02*
X1330000D01*
X1325000Y449750D02*
Y459750D01*
X1319750Y397500D02*
X1329750D01*
X1324750Y392500D02*
Y402500D01*
X1523460Y584700D02*
Y594700D01*
X1518460Y589700D02*
X1528460D01*
X1671310Y172500D02*
X1701310D01*
X1671310Y156500D02*
X1701310D01*
X1671310D02*
Y172500D01*
X1701310Y156500D02*
Y172500D01*
X1681310Y269240D02*
X1691310D01*
X1686310Y264240D02*
Y274240D01*
X1671310Y277240D02*
X1701310D01*
X1671310Y261240D02*
X1701310D01*
X1671310D02*
Y277240D01*
X1701310Y261240D02*
Y277240D01*
X1634290Y174300D02*
X1644290D01*
X1639290Y169300D02*
Y179300D01*
X1634290Y226630D02*
X1644290D01*
X1639290Y221630D02*
Y231630D01*
X1635560Y279040D02*
X1645560D01*
X1640560Y274041D02*
Y284041D01*
X1622750Y161500D02*
X1650750D01*
X1622750Y143500D02*
X1650750D01*
Y161500D01*
X1622750Y143500D02*
Y161500D01*
X1636750Y147500D02*
Y157500D01*
X1631750Y152500D02*
X1641750D01*
X1631750Y204830D02*
X1641750D01*
X1636750Y199830D02*
Y209830D01*
X1622750Y195830D02*
Y213830D01*
X1650750Y195830D02*
Y213830D01*
X1622750Y195830D02*
X1650750D01*
X1622750Y213830D02*
X1650750D01*
X1622750Y266240D02*
X1650750D01*
X1622750Y248240D02*
X1650750D01*
Y266240D01*
X1622750Y248240D02*
Y266240D01*
X1636750Y252240D02*
Y262240D01*
X1631750Y257241D02*
X1641750D01*
X1681310Y164500D02*
X1691310D01*
X1686310Y159501D02*
Y169501D01*
X1548212Y584700D02*
Y594700D01*
X1543212Y589700D02*
X1553212D01*
X1572964Y584700D02*
Y594700D01*
X1567964Y589700D02*
X1577964D01*
X1298000Y370000D02*
X1308000D01*
X1303000Y365000D02*
Y375000D01*
X1617468Y589700D02*
X1627468D01*
X1622468Y584700D02*
Y594700D01*
X1592716Y589700D02*
X1602716D01*
X1597716Y584700D02*
Y594700D01*
X524000Y611500D02*
Y621500D01*
X519000Y616500D02*
X529000D01*
D17*
X986000Y117000D02*
Y127000D01*
X981000Y122000D02*
X991000D01*
X1072000Y71000D02*
Y81000D01*
X1067000Y76000D02*
X1077000D01*
X565000Y622000D02*
X575000D01*
X570000Y617000D02*
Y627000D01*
X477000Y668000D02*
Y678000D01*
X472000Y673000D02*
X482000D01*
X535500Y492500D02*
Y502500D01*
X530500Y497500D02*
X540500D01*
X354000Y491750D02*
X358000D01*
X356000Y489750D02*
Y493750D01*
X452000Y496000D02*
X462000D01*
X457000Y491000D02*
Y501000D01*
X347750Y552750D02*
X357750D01*
X352750Y547750D02*
Y557750D01*
X475750Y416750D02*
X485750D01*
X480750Y411750D02*
Y421750D01*
X559750Y417000D02*
X569750D01*
X564750Y412000D02*
Y422000D01*
X1388038Y380735D02*
X1386872Y381901D01*
Y384234D01*
X1388038Y385400D01*
X1392704D01*
X1393870Y384234D01*
Y381901D01*
X1392704Y380735D01*
X1393870Y373737D02*
Y378402D01*
X1389205Y373737D01*
X1388038D01*
X1386872Y374903D01*
Y377236D01*
X1388038Y378402D01*
Y371404D02*
X1386872Y370238D01*
Y367906D01*
X1388038Y366739D01*
X1392704D01*
X1393870Y367906D01*
Y370238D01*
X1392704Y371404D01*
X1388038D01*
X1386872Y364407D02*
Y359742D01*
X1388038D01*
X1392704Y364407D01*
X1393870D01*
X1405818Y380735D02*
X1404652Y381901D01*
Y384234D01*
X1405818Y385400D01*
X1410484D01*
X1411650Y384234D01*
Y381901D01*
X1410484Y380735D01*
X1411650Y373737D02*
Y378402D01*
X1406985Y373737D01*
X1405818D01*
X1404652Y374903D01*
Y377236D01*
X1405818Y378402D01*
Y371404D02*
X1404652Y370238D01*
Y367906D01*
X1405818Y366739D01*
X1410484D01*
X1411650Y367906D01*
Y370238D01*
X1410484Y371404D01*
X1405818D01*
Y364407D02*
X1404652Y363240D01*
Y360908D01*
X1405818Y359742D01*
X1406985D01*
X1408151Y360908D01*
X1409317Y359742D01*
X1410484D01*
X1411650Y360908D01*
Y363240D01*
X1410484Y364407D01*
X1409317D01*
X1408151Y363240D01*
X1406985Y364407D01*
X1405818D01*
X1408151Y363240D02*
Y360908D01*
X1423598Y380735D02*
X1422432Y381901D01*
Y384234D01*
X1423598Y385400D01*
X1428264D01*
X1429430Y384234D01*
Y381901D01*
X1428264Y380735D01*
X1429430Y373737D02*
Y378402D01*
X1424765Y373737D01*
X1423598D01*
X1422432Y374903D01*
Y377236D01*
X1423598Y378402D01*
Y371404D02*
X1422432Y370238D01*
Y367906D01*
X1423598Y366739D01*
X1428264D01*
X1429430Y367906D01*
Y370238D01*
X1428264Y371404D01*
X1423598D01*
X1428264Y364407D02*
X1429430Y363240D01*
Y360908D01*
X1428264Y359742D01*
X1423598D01*
X1422432Y360908D01*
Y363240D01*
X1423598Y364407D01*
X1424765D01*
X1425931Y363240D01*
Y359742D01*
X994500Y138500D02*
X987502D01*
Y135001D01*
X988669Y133835D01*
X991001D01*
X992167Y135001D01*
Y138500D01*
Y136167D02*
X994500Y133835D01*
X988669Y131502D02*
X987502Y130336D01*
Y128003D01*
X988669Y126837D01*
X989835D01*
X991001Y128003D01*
X992167Y126837D01*
X993334D01*
X994500Y128003D01*
Y130336D01*
X993334Y131502D01*
X992167D01*
X991001Y130336D01*
X989835Y131502D01*
X988669D01*
X991001Y130336D02*
Y128003D01*
X994500Y124504D02*
Y122172D01*
Y123338D01*
X987502D01*
X988669Y124504D01*
X987502Y114008D02*
X988669Y116341D01*
X991001Y118673D01*
X993334D01*
X994500Y117507D01*
Y115174D01*
X993334Y114008D01*
X992167D01*
X991001Y115174D01*
Y118673D01*
X1080500Y92500D02*
X1073502D01*
Y89001D01*
X1074669Y87835D01*
X1077001D01*
X1078167Y89001D01*
Y92500D01*
Y90167D02*
X1080500Y87835D01*
X1074669Y85502D02*
X1073502Y84336D01*
Y82003D01*
X1074669Y80837D01*
X1075835D01*
X1077001Y82003D01*
X1078167Y80837D01*
X1079334D01*
X1080500Y82003D01*
Y84336D01*
X1079334Y85502D01*
X1078167D01*
X1077001Y84336D01*
X1075835Y85502D01*
X1074669D01*
X1077001Y84336D02*
Y82003D01*
X1080500Y78505D02*
Y76172D01*
Y77338D01*
X1073502D01*
X1074669Y78505D01*
X1080500Y68008D02*
Y72673D01*
X1075835Y68008D01*
X1074669D01*
X1073502Y69174D01*
Y71507D01*
X1074669Y72673D01*
X1704144Y236665D02*
X1699478D01*
X1698312Y237831D01*
Y240164D01*
X1699478Y241330D01*
X1704144D01*
X1705310Y240164D01*
Y237831D01*
X1702977Y238998D02*
X1705310Y236665D01*
Y237831D02*
X1704144Y236665D01*
Y234333D02*
X1705310Y233166D01*
Y230834D01*
X1704144Y229667D01*
X1699478D01*
X1698312Y230834D01*
Y233166D01*
X1699478Y234333D01*
X1700645D01*
X1701811Y233166D01*
Y229667D01*
X1699478Y227335D02*
X1698312Y226168D01*
Y223836D01*
X1699478Y222670D01*
X1704144D01*
X1705310Y223836D01*
Y226168D01*
X1704144Y227335D01*
X1699478D01*
X1705310Y215672D02*
Y220337D01*
X1700645Y215672D01*
X1699478D01*
X1698312Y216838D01*
Y219171D01*
X1699478Y220337D01*
X561500Y605500D02*
X568498D01*
Y608999D01*
X567332Y610165D01*
X564999D01*
X563833Y608999D01*
Y605500D01*
Y607833D02*
X561500Y610165D01*
X568498Y612498D02*
Y617163D01*
X567332D01*
X562666Y612498D01*
X561500D01*
Y619496D02*
Y621828D01*
Y620662D01*
X568498D01*
X567332Y619496D01*
X568498Y629992D02*
X567332Y627659D01*
X564999Y625327D01*
X562666D01*
X561500Y626493D01*
Y628826D01*
X562666Y629992D01*
X563833D01*
X564999Y628826D01*
Y625327D01*
X460000Y677750D02*
Y670752D01*
X463499D01*
X464665Y671918D01*
Y674251D01*
X463499Y675417D01*
X460000D01*
X462333D02*
X464665Y677750D01*
X466998Y670752D02*
X471663D01*
Y671918D01*
X466998Y676584D01*
Y677750D01*
X473996Y671918D02*
X475162Y670752D01*
X477494D01*
X478661Y671918D01*
Y676584D01*
X477494Y677750D01*
X475162D01*
X473996Y676584D01*
Y671918D01*
X480993D02*
X482160Y670752D01*
X484492D01*
X485658Y671918D01*
Y673085D01*
X484492Y674251D01*
X485658Y675417D01*
Y676584D01*
X484492Y677750D01*
X482160D01*
X480993Y676584D01*
Y675417D01*
X482160Y674251D01*
X480993Y673085D01*
Y671918D01*
X482160Y674251D02*
X484492D01*
X527000Y481000D02*
X533998D01*
Y484499D01*
X532831Y485665D01*
X530499D01*
X529333Y484499D01*
Y481000D01*
Y483333D02*
X527000Y485665D01*
X533998Y487998D02*
Y492663D01*
X532831D01*
X528166Y487998D01*
X527000D01*
Y494995D02*
Y497328D01*
Y496162D01*
X533998D01*
X532831Y494995D01*
X527000Y504326D02*
X533998D01*
X530499Y500827D01*
Y505492D01*
X441998Y575750D02*
X436166D01*
X435000Y576916D01*
Y579249D01*
X436166Y580415D01*
X441998D01*
Y582748D02*
Y587413D01*
X440831D01*
X436166Y582748D01*
X435000D01*
X440831Y589745D02*
X441998Y590912D01*
Y593244D01*
X440831Y594411D01*
X436166D01*
X435000Y593244D01*
Y590912D01*
X436166Y589745D01*
X440831D01*
X435000Y596743D02*
Y599076D01*
Y597910D01*
X441998D01*
X440831Y596743D01*
X1655720Y606200D02*
X1648722D01*
Y602701D01*
X1649888Y601535D01*
X1652221D01*
X1653387Y602701D01*
Y606200D01*
Y603867D02*
X1655720Y601535D01*
Y599202D02*
Y596870D01*
Y598036D01*
X1648722D01*
X1649888Y599202D01*
Y593371D02*
X1648722Y592205D01*
Y589872D01*
X1649888Y588706D01*
X1654554D01*
X1655720Y589872D01*
Y592205D01*
X1654554Y593371D01*
X1649888D01*
X1655720Y586373D02*
Y584040D01*
Y585207D01*
X1648722D01*
X1649888Y586373D01*
X366085Y453331D02*
X367251Y454498D01*
X369584D01*
X370750Y453331D01*
Y448666D01*
X369584Y447500D01*
X367251D01*
X366085Y448666D01*
X363752Y454498D02*
X359087D01*
Y453331D01*
X363752Y448666D01*
Y447500D01*
X356754Y453331D02*
X355588Y454498D01*
X353256D01*
X352089Y453331D01*
Y448666D01*
X353256Y447500D01*
X355588D01*
X356754Y448666D01*
Y453331D01*
X345092Y454498D02*
X347424Y453331D01*
X349757Y450999D01*
Y448666D01*
X348590Y447500D01*
X346258D01*
X345092Y448666D01*
Y449833D01*
X346258Y450999D01*
X349757D01*
X366335Y472081D02*
X367501Y473248D01*
X369834D01*
X371000Y472081D01*
Y467416D01*
X369834Y466250D01*
X367501D01*
X366335Y467416D01*
X364002Y473248D02*
X359337D01*
Y472081D01*
X364002Y467416D01*
Y466250D01*
X357005Y472081D02*
X355838Y473248D01*
X353506D01*
X352339Y472081D01*
Y467416D01*
X353506Y466250D01*
X355838D01*
X357005Y467416D01*
Y472081D01*
X345342Y473248D02*
X350007D01*
Y469749D01*
X347674Y470915D01*
X346508D01*
X345342Y469749D01*
Y467416D01*
X346508Y466250D01*
X348840D01*
X350007Y467416D01*
X366335Y490581D02*
X367501Y491748D01*
X369834D01*
X371000Y490581D01*
Y485916D01*
X369834Y484750D01*
X367501D01*
X366335Y485916D01*
X364002Y491748D02*
X359337D01*
Y490581D01*
X364002Y485916D01*
Y484750D01*
X357005Y490581D02*
X355838Y491748D01*
X353506D01*
X352339Y490581D01*
Y485916D01*
X353506Y484750D01*
X355838D01*
X357005Y485916D01*
Y490581D01*
X346508Y484750D02*
Y491748D01*
X350007Y488249D01*
X345342D01*
X448500Y479501D02*
X455498D01*
Y482999D01*
X454332Y484166D01*
X451999D01*
X450833Y482999D01*
Y479501D01*
Y481833D02*
X448500Y484166D01*
X455498Y486498D02*
Y491163D01*
X454332D01*
X449667Y486498D01*
X448500D01*
Y493496D02*
Y495829D01*
Y494662D01*
X455498D01*
X454332Y493496D01*
X455498Y503993D02*
Y499327D01*
X451999D01*
X453166Y501660D01*
Y502826D01*
X451999Y503993D01*
X449667D01*
X448500Y502826D01*
Y500494D01*
X449667Y499327D01*
X543834Y599585D02*
X539169D01*
X538002Y600751D01*
Y603084D01*
X539169Y604250D01*
X543834D01*
X545000Y603084D01*
Y600751D01*
X542667Y601917D02*
X545000Y599585D01*
Y600751D02*
X543834Y599585D01*
X538002Y597252D02*
Y592587D01*
X539169D01*
X543834Y597252D01*
X545000D01*
X539169Y590255D02*
X538002Y589088D01*
Y586756D01*
X539169Y585589D01*
X543834D01*
X545000Y586756D01*
Y589088D01*
X543834Y590255D01*
X539169D01*
X545000Y583257D02*
Y580924D01*
Y582090D01*
X538002D01*
X539169Y583257D01*
X1430416Y568915D02*
X1435081D01*
X1436248Y567749D01*
Y565416D01*
X1435081Y564250D01*
X1430416D01*
X1429250Y565416D01*
Y567749D01*
X1431583Y566583D02*
X1429250Y568915D01*
Y567749D02*
X1430416Y568915D01*
X1435081Y571248D02*
X1436248Y572414D01*
Y574747D01*
X1435081Y575913D01*
X1433915D01*
X1432749Y574747D01*
Y573580D01*
Y574747D01*
X1431583Y575913D01*
X1430416D01*
X1429250Y574747D01*
Y572414D01*
X1430416Y571248D01*
X1435081Y578246D02*
X1436248Y579412D01*
Y581744D01*
X1435081Y582911D01*
X1430416D01*
X1429250Y581744D01*
Y579412D01*
X1430416Y578246D01*
X1435081D01*
X1429250Y585243D02*
Y587576D01*
Y586409D01*
X1436248D01*
X1435081Y585243D01*
X355500Y671500D02*
Y664502D01*
X358999D01*
X360165Y665668D01*
Y668001D01*
X358999Y669167D01*
X355500D01*
X357832D02*
X360165Y671500D01*
X362498Y664502D02*
X367163D01*
Y665668D01*
X362498Y670334D01*
Y671500D01*
X369496Y665668D02*
X370662Y664502D01*
X372994D01*
X374161Y665668D01*
Y670334D01*
X372994Y671500D01*
X370662D01*
X369496Y670334D01*
Y665668D01*
X376493Y670334D02*
X377659Y671500D01*
X379992D01*
X381158Y670334D01*
Y665668D01*
X379992Y664502D01*
X377659D01*
X376493Y665668D01*
Y666835D01*
X377659Y668001D01*
X381158D01*
X409500Y618500D02*
X402502D01*
Y615001D01*
X403669Y613835D01*
X406001D01*
X407167Y615001D01*
Y618500D01*
Y616167D02*
X409500Y613835D01*
X402502Y611502D02*
Y606837D01*
X403669D01*
X408334Y611502D01*
X409500D01*
X403669Y604505D02*
X402502Y603338D01*
Y601006D01*
X403669Y599839D01*
X408334D01*
X409500Y601006D01*
Y603338D01*
X408334Y604505D01*
X403669D01*
Y597507D02*
X402502Y596340D01*
Y594008D01*
X403669Y592842D01*
X404835D01*
X406001Y594008D01*
Y595174D01*
Y594008D01*
X407167Y592842D01*
X408334D01*
X409500Y594008D01*
Y596340D01*
X408334Y597507D01*
X369250Y544250D02*
Y551248D01*
X365751D01*
X364585Y550081D01*
Y547749D01*
X365751Y546583D01*
X369250D01*
X366917D02*
X364585Y544250D01*
X362252Y551248D02*
X357587D01*
Y550081D01*
X362252Y545416D01*
Y544250D01*
X355255Y550081D02*
X354088Y551248D01*
X351756D01*
X350589Y550081D01*
Y545416D01*
X351756Y544250D01*
X354088D01*
X355255Y545416D01*
Y550081D01*
X343592Y544250D02*
X348257D01*
X343592Y548915D01*
Y550081D01*
X344758Y551248D01*
X347090D01*
X348257Y550081D01*
X456750Y559250D02*
X449752D01*
Y555751D01*
X450919Y554585D01*
X453251D01*
X454417Y555751D01*
Y559250D01*
Y556917D02*
X456750Y554585D01*
X449752Y552252D02*
Y547587D01*
X450919D01*
X455584Y552252D01*
X456750D01*
Y545255D02*
Y542922D01*
Y544088D01*
X449752D01*
X450919Y545255D01*
Y539423D02*
X449752Y538257D01*
Y535924D01*
X450919Y534758D01*
X455584D01*
X456750Y535924D01*
Y538257D01*
X455584Y539423D01*
X450919D01*
X52500Y204750D02*
Y211748D01*
X49001D01*
X47835Y210582D01*
Y208249D01*
X49001Y207083D01*
X52500D01*
X50167D02*
X47835Y204750D01*
X40837Y211748D02*
X43170Y210582D01*
X45502Y208249D01*
Y205917D01*
X44336Y204750D01*
X42003D01*
X40837Y205917D01*
Y207083D01*
X42003Y208249D01*
X45502D01*
X38504Y210582D02*
X37338Y211748D01*
X35006D01*
X33839Y210582D01*
Y205917D01*
X35006Y204750D01*
X37338D01*
X38504Y205917D01*
Y210582D01*
X31507Y204750D02*
X29174D01*
X30340D01*
Y211748D01*
X31507Y210582D01*
X70419Y239585D02*
X69252Y240751D01*
Y243084D01*
X70419Y244250D01*
X75084D01*
X76250Y243084D01*
Y240751D01*
X75084Y239585D01*
X69252Y232587D02*
X70419Y234920D01*
X72751Y237253D01*
X75084D01*
X76250Y236086D01*
Y233754D01*
X75084Y232587D01*
X73917D01*
X72751Y233754D01*
Y237253D01*
X70419Y230255D02*
X69252Y229088D01*
Y226756D01*
X70419Y225590D01*
X75084D01*
X76250Y226756D01*
Y229088D01*
X75084Y230255D01*
X70419D01*
X76250Y223257D02*
Y220924D01*
Y222091D01*
X69252D01*
X70419Y223257D01*
X1471750Y571500D02*
X1478748D01*
Y574999D01*
X1477581Y576165D01*
X1475249D01*
X1474083Y574999D01*
Y571500D01*
Y573833D02*
X1471750Y576165D01*
X1477581Y578498D02*
X1478748Y579664D01*
Y581997D01*
X1477581Y583163D01*
X1476415D01*
X1475249Y581997D01*
Y580830D01*
Y581997D01*
X1474083Y583163D01*
X1472916D01*
X1471750Y581997D01*
Y579664D01*
X1472916Y578498D01*
X1477581Y585495D02*
X1478748Y586662D01*
Y588994D01*
X1477581Y590161D01*
X1472916D01*
X1471750Y588994D01*
Y586662D01*
X1472916Y585495D01*
X1477581D01*
X1478748Y597158D02*
Y592493D01*
X1475249D01*
X1476415Y594826D01*
Y595992D01*
X1475249Y597158D01*
X1472916D01*
X1471750Y595992D01*
Y593660D01*
X1472916Y592493D01*
X1370250Y446000D02*
X1363252D01*
Y442501D01*
X1364418Y441335D01*
X1366751D01*
X1367917Y442501D01*
Y446000D01*
Y443668D02*
X1370250Y441335D01*
Y434337D02*
Y439002D01*
X1365585Y434337D01*
X1364418D01*
X1363252Y435504D01*
Y437836D01*
X1364418Y439002D01*
Y432005D02*
X1363252Y430838D01*
Y428506D01*
X1364418Y427340D01*
X1369084D01*
X1370250Y428506D01*
Y430838D01*
X1369084Y432005D01*
X1364418D01*
X1370250Y421508D02*
X1363252D01*
X1366751Y425007D01*
Y420342D01*
X1360750Y486250D02*
X1353752D01*
Y482751D01*
X1354919Y481585D01*
X1357251D01*
X1358417Y482751D01*
Y486250D01*
Y483917D02*
X1360750Y481585D01*
Y474587D02*
Y479252D01*
X1356085Y474587D01*
X1354919D01*
X1353752Y475753D01*
Y478086D01*
X1354919Y479252D01*
Y472254D02*
X1353752Y471088D01*
Y468756D01*
X1354919Y467589D01*
X1359584D01*
X1360750Y468756D01*
Y471088D01*
X1359584Y472254D01*
X1354919D01*
X1353752Y460592D02*
Y465257D01*
X1357251D01*
X1356085Y462924D01*
Y461758D01*
X1357251Y460592D01*
X1359584D01*
X1360750Y461758D01*
Y464090D01*
X1359584Y465257D01*
X1225000Y435000D02*
Y428002D01*
X1228499D01*
X1229665Y429169D01*
Y431501D01*
X1228499Y432667D01*
X1225000D01*
X1227333D02*
X1229665Y435000D01*
X1236663D02*
X1231998D01*
X1236663Y430335D01*
Y429169D01*
X1235497Y428002D01*
X1233164D01*
X1231998Y429169D01*
X1238996Y435000D02*
X1241328D01*
X1240162D01*
Y428002D01*
X1238996Y429169D01*
X1249492Y435000D02*
X1244827D01*
X1249492Y430335D01*
Y429169D01*
X1248326Y428002D01*
X1245993D01*
X1244827Y429169D01*
X1295750Y400500D02*
Y407498D01*
X1292251D01*
X1291085Y406331D01*
Y403999D01*
X1292251Y402833D01*
X1295750D01*
X1293417D02*
X1291085Y400500D01*
X1284087D02*
X1288752D01*
X1284087Y405165D01*
Y406331D01*
X1285253Y407498D01*
X1287586D01*
X1288752Y406331D01*
X1281754Y400500D02*
X1279422D01*
X1280588D01*
Y407498D01*
X1281754Y406331D01*
X1275923D02*
X1274757Y407498D01*
X1272424D01*
X1271258Y406331D01*
Y405165D01*
X1272424Y403999D01*
X1273590D01*
X1272424D01*
X1271258Y402833D01*
Y401666D01*
X1272424Y400500D01*
X1274757D01*
X1275923Y401666D01*
X1278500Y349500D02*
Y342502D01*
X1281999D01*
X1283165Y343669D01*
Y346001D01*
X1281999Y347167D01*
X1278500D01*
X1280832D02*
X1283165Y349500D01*
X1290163D02*
X1285497D01*
X1290163Y344835D01*
Y343669D01*
X1288996Y342502D01*
X1286664D01*
X1285497Y343669D01*
X1292495Y349500D02*
X1294828D01*
X1293662D01*
Y342502D01*
X1292495Y343669D01*
X1298327D02*
X1299493Y342502D01*
X1301826D01*
X1302992Y343669D01*
Y344835D01*
X1301826Y346001D01*
X1302992Y347167D01*
Y348334D01*
X1301826Y349500D01*
X1299493D01*
X1298327Y348334D01*
Y347167D01*
X1299493Y346001D01*
X1298327Y344835D01*
Y343669D01*
X1299493Y346001D02*
X1301826D01*
X1320665Y341918D02*
X1319499Y340752D01*
X1317166D01*
X1316000Y341918D01*
Y346584D01*
X1317166Y347750D01*
X1319499D01*
X1320665Y346584D01*
X1327663Y347750D02*
X1322998D01*
X1327663Y343085D01*
Y341918D01*
X1326497Y340752D01*
X1324164D01*
X1322998Y341918D01*
X1329996Y347750D02*
X1332328D01*
X1331162D01*
Y340752D01*
X1329996Y341918D01*
X1335827D02*
X1336993Y340752D01*
X1339326D01*
X1340492Y341918D01*
Y343085D01*
X1339326Y344251D01*
X1338160D01*
X1339326D01*
X1340492Y345417D01*
Y346584D01*
X1339326Y347750D01*
X1336993D01*
X1335827Y346584D01*
X1624060Y287540D02*
Y280543D01*
X1627559D01*
X1628725Y281709D01*
Y284041D01*
X1627559Y285208D01*
X1624060D01*
X1626393D02*
X1628725Y287540D01*
X1631058Y286374D02*
X1632224Y287540D01*
X1634557D01*
X1635723Y286374D01*
Y281709D01*
X1634557Y280543D01*
X1632224D01*
X1631058Y281709D01*
Y282875D01*
X1632224Y284041D01*
X1635723D01*
X1638056Y281709D02*
X1639222Y280543D01*
X1641555D01*
X1642721Y281709D01*
Y286374D01*
X1641555Y287540D01*
X1639222D01*
X1638056Y286374D01*
Y281709D01*
X1645053D02*
X1646220Y280543D01*
X1648552D01*
X1649718Y281709D01*
Y282875D01*
X1648552Y284041D01*
X1647386D01*
X1648552D01*
X1649718Y285208D01*
Y286374D01*
X1648552Y287540D01*
X1646220D01*
X1645053Y286374D01*
X1622790Y235130D02*
Y228132D01*
X1626289D01*
X1627455Y229299D01*
Y231631D01*
X1626289Y232798D01*
X1622790D01*
X1625123D02*
X1627455Y235130D01*
X1629788Y233964D02*
X1630954Y235130D01*
X1633287D01*
X1634453Y233964D01*
Y229299D01*
X1633287Y228132D01*
X1630954D01*
X1629788Y229299D01*
Y230465D01*
X1630954Y231631D01*
X1634453D01*
X1636786Y229299D02*
X1637952Y228132D01*
X1640284D01*
X1641451Y229299D01*
Y233964D01*
X1640284Y235130D01*
X1637952D01*
X1636786Y233964D01*
Y229299D01*
X1648448Y235130D02*
X1643783D01*
X1648448Y230465D01*
Y229299D01*
X1647282Y228132D01*
X1644950D01*
X1643783Y229299D01*
X1622790Y182800D02*
Y175802D01*
X1626289D01*
X1627455Y176969D01*
Y179301D01*
X1626289Y180468D01*
X1622790D01*
X1625123D02*
X1627455Y182800D01*
X1629788Y181634D02*
X1630954Y182800D01*
X1633287D01*
X1634453Y181634D01*
Y176969D01*
X1633287Y175802D01*
X1630954D01*
X1629788Y176969D01*
Y178135D01*
X1630954Y179301D01*
X1634453D01*
X1636786Y176969D02*
X1637952Y175802D01*
X1640284D01*
X1641451Y176969D01*
Y181634D01*
X1640284Y182800D01*
X1637952D01*
X1636786Y181634D01*
Y176969D01*
X1643783Y182800D02*
X1646116D01*
X1644950D01*
Y175802D01*
X1643783Y176969D01*
X1704144Y289075D02*
X1699479D01*
X1698312Y290241D01*
Y292574D01*
X1699479Y293740D01*
X1704144D01*
X1705310Y292574D01*
Y290241D01*
X1702977Y291408D02*
X1705310Y289075D01*
Y290241D02*
X1704144Y289075D01*
Y286742D02*
X1705310Y285576D01*
Y283244D01*
X1704144Y282077D01*
X1699479D01*
X1698312Y283244D01*
Y285576D01*
X1699479Y286742D01*
X1700645D01*
X1701811Y285576D01*
Y282077D01*
X1699479Y279745D02*
X1698312Y278578D01*
Y276246D01*
X1699479Y275080D01*
X1704144D01*
X1705310Y276246D01*
Y278578D01*
X1704144Y279745D01*
X1699479D01*
Y272747D02*
X1698312Y271581D01*
Y269248D01*
X1699479Y268082D01*
X1700645D01*
X1701811Y269248D01*
Y270414D01*
Y269248D01*
X1702977Y268082D01*
X1704144D01*
X1705310Y269248D01*
Y271581D01*
X1704144Y272747D01*
X1704144Y184335D02*
X1699478D01*
X1698312Y185501D01*
Y187834D01*
X1699478Y189000D01*
X1704144D01*
X1705310Y187834D01*
Y185501D01*
X1702977Y186668D02*
X1705310Y184335D01*
Y185501D02*
X1704144Y184335D01*
Y182003D02*
X1705310Y180836D01*
Y178504D01*
X1704144Y177337D01*
X1699478D01*
X1698312Y178504D01*
Y180836D01*
X1699478Y182003D01*
X1700645D01*
X1701811Y180836D01*
Y177337D01*
X1699478Y175005D02*
X1698312Y173839D01*
Y171506D01*
X1699478Y170340D01*
X1704144D01*
X1705310Y171506D01*
Y173839D01*
X1704144Y175005D01*
X1699478D01*
X1705310Y168007D02*
Y165674D01*
Y166841D01*
X1698312D01*
X1699478Y168007D01*
X1612250Y260742D02*
Y267740D01*
X1615749D01*
X1616915Y266574D01*
Y261909D01*
X1615749Y260742D01*
X1612250D01*
X1619248Y266574D02*
X1620414Y267740D01*
X1622747D01*
X1623913Y266574D01*
Y261909D01*
X1622747Y260742D01*
X1620414D01*
X1619248Y261909D01*
Y263075D01*
X1620414Y264241D01*
X1623913D01*
X1626246Y261909D02*
X1627412Y260742D01*
X1629745D01*
X1630911Y261909D01*
Y266574D01*
X1629745Y267740D01*
X1627412D01*
X1626246Y266574D01*
Y261909D01*
X1633243D02*
X1634410Y260742D01*
X1636742D01*
X1637908Y261909D01*
Y263075D01*
X1636742Y264241D01*
X1635576D01*
X1636742D01*
X1637908Y265408D01*
Y266574D01*
X1636742Y267740D01*
X1634410D01*
X1633243Y266574D01*
X1612250Y208333D02*
Y215330D01*
X1615749D01*
X1616915Y214164D01*
Y209499D01*
X1615749Y208333D01*
X1612250D01*
X1619248Y214164D02*
X1620414Y215330D01*
X1622747D01*
X1623913Y214164D01*
Y209499D01*
X1622747Y208333D01*
X1620414D01*
X1619248Y209499D01*
Y210665D01*
X1620414Y211831D01*
X1623913D01*
X1626246Y209499D02*
X1627412Y208333D01*
X1629745D01*
X1630911Y209499D01*
Y214164D01*
X1629745Y215330D01*
X1627412D01*
X1626246Y214164D01*
Y209499D01*
X1637908Y215330D02*
X1633243D01*
X1637908Y210665D01*
Y209499D01*
X1636742Y208333D01*
X1634410D01*
X1633243Y209499D01*
X1612250Y156003D02*
Y163000D01*
X1615749D01*
X1616915Y161834D01*
Y157169D01*
X1615749Y156003D01*
X1612250D01*
X1619248Y161834D02*
X1620414Y163000D01*
X1622747D01*
X1623913Y161834D01*
Y157169D01*
X1622747Y156003D01*
X1620414D01*
X1619248Y157169D01*
Y158335D01*
X1620414Y159501D01*
X1623913D01*
X1626246Y157169D02*
X1627412Y156003D01*
X1629745D01*
X1630911Y157169D01*
Y161834D01*
X1629745Y163000D01*
X1627412D01*
X1626246Y161834D01*
Y157169D01*
X1633243Y163000D02*
X1635576D01*
X1634410D01*
Y156003D01*
X1633243Y157169D01*
X509252Y465750D02*
X515084D01*
X516250Y464584D01*
Y462251D01*
X515084Y461085D01*
X509252D01*
Y458752D02*
Y454087D01*
X510419D01*
X515084Y458752D01*
X516250D01*
X510419Y451754D02*
X509252Y450588D01*
Y448256D01*
X510419Y447089D01*
X515084D01*
X516250Y448256D01*
Y450588D01*
X515084Y451754D01*
X510419D01*
Y444757D02*
X509252Y443591D01*
Y441258D01*
X510419Y440092D01*
X511585D01*
X512751Y441258D01*
Y442424D01*
Y441258D01*
X513917Y440092D01*
X515084D01*
X516250Y441258D01*
Y443591D01*
X515084Y444757D01*
X593252Y466000D02*
X599084D01*
X600250Y464834D01*
Y462501D01*
X599084Y461335D01*
X593252D01*
Y459002D02*
Y454337D01*
X594418D01*
X599084Y459002D01*
X600250D01*
X594418Y452005D02*
X593252Y450838D01*
Y448506D01*
X594418Y447339D01*
X599084D01*
X600250Y448506D01*
Y450838D01*
X599084Y452005D01*
X594418D01*
X600250Y440342D02*
Y445007D01*
X595585Y440342D01*
X594418D01*
X593252Y441508D01*
Y443840D01*
X594418Y445007D01*
X1606216Y606200D02*
X1599218D01*
Y602701D01*
X1600385Y601535D01*
X1602717D01*
X1603883Y602701D01*
Y606200D01*
Y603867D02*
X1606216Y601535D01*
Y599202D02*
Y596870D01*
Y598036D01*
X1599218D01*
X1600385Y599202D01*
Y593371D02*
X1599218Y592205D01*
Y589872D01*
X1600385Y588706D01*
X1605050D01*
X1606216Y589872D01*
Y592205D01*
X1605050Y593371D01*
X1600385D01*
Y586373D02*
X1599218Y585207D01*
Y582874D01*
X1600385Y581708D01*
X1601551D01*
X1602717Y582874D01*
Y584040D01*
Y582874D01*
X1603883Y581708D01*
X1605050D01*
X1606216Y582874D01*
Y585207D01*
X1605050Y586373D01*
X1630968Y606200D02*
X1623970D01*
Y602701D01*
X1625137Y601535D01*
X1627469D01*
X1628635Y602701D01*
Y606200D01*
Y603867D02*
X1630968Y601535D01*
Y599202D02*
Y596870D01*
Y598036D01*
X1623970D01*
X1625137Y599202D01*
Y593371D02*
X1623970Y592205D01*
Y589872D01*
X1625137Y588706D01*
X1629802D01*
X1630968Y589872D01*
Y592205D01*
X1629802Y593371D01*
X1625137D01*
X1630968Y581708D02*
Y586373D01*
X1626303Y581708D01*
X1625137D01*
X1623970Y582874D01*
Y585207D01*
X1625137Y586373D01*
X1311500Y386500D02*
X1304502D01*
Y383001D01*
X1305668Y381835D01*
X1308001D01*
X1309167Y383001D01*
Y386500D01*
Y384167D02*
X1311500Y381835D01*
Y374837D02*
Y379502D01*
X1306835Y374837D01*
X1305668D01*
X1304502Y376003D01*
Y378336D01*
X1305668Y379502D01*
X1311500Y372505D02*
Y370172D01*
Y371338D01*
X1304502D01*
X1305668Y372505D01*
X1304502Y366673D02*
Y362008D01*
X1305668D01*
X1310334Y366673D01*
X1311500D01*
X1564464Y573200D02*
X1571462D01*
Y576699D01*
X1570295Y577865D01*
X1567963D01*
X1566797Y576699D01*
Y573200D01*
Y575533D02*
X1564464Y577865D01*
Y584863D02*
Y580198D01*
X1569129Y584863D01*
X1570295D01*
X1571462Y583697D01*
Y581364D01*
X1570295Y580198D01*
Y587196D02*
X1571462Y588362D01*
Y590694D01*
X1570295Y591861D01*
X1565630D01*
X1564464Y590694D01*
Y588362D01*
X1565630Y587196D01*
X1570295D01*
X1564464Y594193D02*
Y596526D01*
Y595359D01*
X1571462D01*
X1570295Y594193D01*
X1539712Y573200D02*
X1546710D01*
Y576699D01*
X1545543Y577865D01*
X1543211D01*
X1542045Y576699D01*
Y573200D01*
Y575533D02*
X1539712Y577865D01*
Y584863D02*
Y580198D01*
X1544377Y584863D01*
X1545543D01*
X1546710Y583697D01*
Y581364D01*
X1545543Y580198D01*
Y587196D02*
X1546710Y588362D01*
Y590694D01*
X1545543Y591861D01*
X1540878D01*
X1539712Y590694D01*
Y588362D01*
X1540878Y587196D01*
X1545543D01*
X1539712Y598858D02*
Y594193D01*
X1544377Y598858D01*
X1545543D01*
X1546710Y597692D01*
Y595359D01*
X1545543Y594193D01*
X1514960Y573200D02*
X1521958D01*
Y576699D01*
X1520791Y577865D01*
X1518459D01*
X1517293Y576699D01*
Y573200D01*
Y575533D02*
X1514960Y577865D01*
Y584863D02*
Y580198D01*
X1519625Y584863D01*
X1520791D01*
X1521958Y583697D01*
Y581364D01*
X1520791Y580198D01*
Y587196D02*
X1521958Y588362D01*
Y590694D01*
X1520791Y591861D01*
X1516126D01*
X1514960Y590694D01*
Y588362D01*
X1516126Y587196D01*
X1520791D01*
Y594193D02*
X1521958Y595359D01*
Y597692D01*
X1520791Y598858D01*
X1519625D01*
X1518459Y597692D01*
Y596526D01*
Y597692D01*
X1517293Y598858D01*
X1516126D01*
X1514960Y597692D01*
Y595359D01*
X1516126Y594193D01*
X1316250Y381000D02*
X1323248D01*
Y384499D01*
X1322081Y385665D01*
X1319749D01*
X1318583Y384499D01*
Y381000D01*
Y383333D02*
X1316250Y385665D01*
Y392663D02*
Y387998D01*
X1320915Y392663D01*
X1322081D01*
X1323248Y391497D01*
Y389164D01*
X1322081Y387998D01*
Y394995D02*
X1323248Y396162D01*
Y398494D01*
X1322081Y399661D01*
X1317416D01*
X1316250Y398494D01*
Y396162D01*
X1317416Y394995D01*
X1322081D01*
X1323248Y406658D02*
X1322081Y404326D01*
X1319749Y401993D01*
X1317416D01*
X1316250Y403159D01*
Y405492D01*
X1317416Y406658D01*
X1318583D01*
X1319749Y405492D01*
Y401993D01*
X1333500Y471250D02*
X1326503D01*
Y467751D01*
X1327669Y466585D01*
X1330001D01*
X1331168Y467751D01*
Y471250D01*
Y468917D02*
X1333500Y466585D01*
Y459587D02*
Y464252D01*
X1328835Y459587D01*
X1327669D01*
X1326503Y460753D01*
Y463086D01*
X1327669Y464252D01*
Y457254D02*
X1326503Y456088D01*
Y453756D01*
X1327669Y452589D01*
X1332334D01*
X1333500Y453756D01*
Y456088D01*
X1332334Y457254D01*
X1327669D01*
X1326503Y450257D02*
Y445592D01*
X1327669D01*
X1332334Y450257D01*
X1333500D01*
X1313500Y471250D02*
X1306502D01*
Y467751D01*
X1307669Y466585D01*
X1310001D01*
X1311168Y467751D01*
Y471250D01*
Y468917D02*
X1313500Y466585D01*
Y459587D02*
Y464252D01*
X1308835Y459587D01*
X1307669D01*
X1306502Y460753D01*
Y463086D01*
X1307669Y464252D01*
Y457254D02*
X1306502Y456088D01*
Y453756D01*
X1307669Y452589D01*
X1312334D01*
X1313500Y453756D01*
Y456088D01*
X1312334Y457254D01*
X1307669D01*
Y450257D02*
X1306502Y449090D01*
Y446758D01*
X1307669Y445592D01*
X1308835D01*
X1310001Y446758D01*
X1311168Y445592D01*
X1312334D01*
X1313500Y446758D01*
Y449090D01*
X1312334Y450257D01*
X1311168D01*
X1310001Y449090D01*
X1308835Y450257D01*
X1307669D01*
X1310001Y449090D02*
Y446758D01*
X1293500Y471250D02*
X1286502D01*
Y467751D01*
X1287669Y466585D01*
X1290001D01*
X1291167Y467751D01*
Y471250D01*
Y468917D02*
X1293500Y466585D01*
Y459587D02*
Y464252D01*
X1288835Y459587D01*
X1287669D01*
X1286502Y460753D01*
Y463086D01*
X1287669Y464252D01*
Y457254D02*
X1286502Y456088D01*
Y453756D01*
X1287669Y452589D01*
X1292334D01*
X1293500Y453756D01*
Y456088D01*
X1292334Y457254D01*
X1287669D01*
X1292334Y450257D02*
X1293500Y449090D01*
Y446758D01*
X1292334Y445592D01*
X1287669D01*
X1286502Y446758D01*
Y449090D01*
X1287669Y450257D01*
X1288835D01*
X1290001Y449090D01*
Y445592D01*
X1273500Y471250D02*
X1266502D01*
Y467751D01*
X1267669Y466585D01*
X1270001D01*
X1271168Y467751D01*
Y471250D01*
Y468917D02*
X1273500Y466585D01*
Y459587D02*
Y464252D01*
X1268835Y459587D01*
X1267669D01*
X1266502Y460753D01*
Y463086D01*
X1267669Y464252D01*
X1273500Y457254D02*
Y454922D01*
Y456088D01*
X1266502D01*
X1267669Y457254D01*
Y451423D02*
X1266502Y450257D01*
Y447924D01*
X1267669Y446758D01*
X1272334D01*
X1273500Y447924D01*
Y450257D01*
X1272334Y451423D01*
X1267669D01*
X1251500Y471500D02*
X1244502D01*
Y468001D01*
X1245669Y466835D01*
X1248001D01*
X1249167Y468001D01*
Y471500D01*
Y469167D02*
X1251500Y466835D01*
Y459837D02*
Y464502D01*
X1246835Y459837D01*
X1245669D01*
X1244502Y461003D01*
Y463336D01*
X1245669Y464502D01*
X1251500Y457505D02*
Y455172D01*
Y456338D01*
X1244502D01*
X1245669Y457505D01*
X1251500Y451673D02*
Y449341D01*
Y450507D01*
X1244502D01*
X1245669Y451673D01*
X540500Y608000D02*
Y614998D01*
X537001D01*
X535835Y613831D01*
Y611499D01*
X537001Y610333D01*
X540500D01*
X538167D02*
X535835Y608000D01*
X533502Y614998D02*
X528837D01*
Y613831D01*
X533502Y609166D01*
Y608000D01*
X526505Y613831D02*
X525338Y614998D01*
X523006D01*
X521839Y613831D01*
Y609166D01*
X523006Y608000D01*
X525338D01*
X526505Y609166D01*
Y613831D01*
X516008Y608000D02*
Y614998D01*
X519507Y611499D01*
X514842D01*
D134*
X1394870Y354400D02*
Y386400D01*
X1378870Y354400D02*
Y386400D01*
Y354400D02*
X1394870D01*
X1378870Y386400D02*
X1394870D01*
X1412650Y354400D02*
Y386400D01*
X1396650Y354400D02*
Y386400D01*
Y354400D02*
X1412650D01*
X1396650Y386400D02*
X1412650D01*
X1430430Y354400D02*
Y386400D01*
X1414430Y354400D02*
Y386400D01*
Y354400D02*
X1430430D01*
X1414430Y386400D02*
X1430430D01*
X995500Y104500D02*
Y139500D01*
X976500Y104500D02*
Y139500D01*
Y104500D02*
X995500D01*
X976500Y139500D02*
X995500D01*
X1081500Y58500D02*
Y93500D01*
X1062500Y58500D02*
Y93500D01*
Y58500D02*
X1081500D01*
X1062500Y93500D02*
X1081500D01*
X1706310Y191330D02*
Y242330D01*
X1666310Y191330D02*
Y242330D01*
Y191330D02*
X1706310D01*
X1666310Y242330D02*
X1706310D01*
X560500Y604500D02*
X579500D01*
X560500Y639500D02*
X579500D01*
Y604500D02*
Y639500D01*
X560500Y604500D02*
Y639500D01*
X459500Y663500D02*
Y682500D01*
X494500Y663500D02*
Y682500D01*
X459500Y663500D02*
X494500D01*
X459500Y682500D02*
X494500D01*
X526000Y480000D02*
Y515000D01*
X545000Y480000D02*
Y515000D01*
X526000D02*
X545000D01*
X526000Y480000D02*
X545000D01*
X410000Y576750D02*
X503000D01*
X410000Y650750D02*
X503000D01*
Y576750D02*
Y650750D01*
X410000Y576750D02*
Y650750D01*
X413250Y583750D02*
X499751D01*
X413250Y643751D02*
X499751D01*
Y583750D02*
Y643751D01*
X413250Y583750D02*
Y643751D01*
X1637720Y607200D02*
X1656720D01*
X1637720Y572200D02*
X1656720D01*
X1637720D02*
Y607200D01*
X1656720Y572200D02*
Y607200D01*
X371750Y446500D02*
Y462500D01*
X339750Y446500D02*
Y462500D01*
X371750D01*
X339750Y446500D02*
X371750D01*
X372000Y465250D02*
Y481250D01*
X340000Y465250D02*
Y481250D01*
X372000D01*
X340000Y465250D02*
X372000D01*
Y483750D02*
Y499750D01*
X340000Y483750D02*
Y499750D01*
X372000D01*
X340000Y483750D02*
X372000D01*
X447500Y478500D02*
X466500D01*
X447500Y513500D02*
X466500D01*
Y478500D02*
Y513500D01*
X447500Y478500D02*
Y513500D01*
X546000Y554250D02*
Y605250D01*
X506000Y554250D02*
Y605250D01*
Y554250D02*
X546000D01*
X506000Y605250D02*
X546000D01*
X1428250Y563250D02*
Y614250D01*
X1468250Y563250D02*
Y614250D01*
X1428250D02*
X1468250D01*
X1428250Y563250D02*
X1468250D01*
X354500Y647500D02*
Y672500D01*
X399500Y647500D02*
Y672500D01*
X354500Y647500D02*
X399500D01*
X354500Y672500D02*
X399500D01*
X410500Y574500D02*
Y619500D01*
X385500Y574500D02*
Y619500D01*
Y574500D02*
X410500D01*
X385500Y619500D02*
X410500D01*
X335250Y543250D02*
X370250D01*
X335250Y562250D02*
X370250D01*
X335250Y543250D02*
Y562250D01*
X370250Y543250D02*
Y562250D01*
X438750Y560250D02*
X457750D01*
X438750Y525250D02*
X457750D01*
X438750D02*
Y560250D01*
X457750Y525250D02*
Y560250D01*
X53500Y203750D02*
Y222750D01*
X18500Y203750D02*
Y222750D01*
X53500D01*
X18500Y203750D02*
X53500D01*
X61250Y245250D02*
X77250D01*
X61250Y213250D02*
X77250D01*
X61250D02*
Y245250D01*
X77250Y213250D02*
Y245250D01*
X1470750Y570500D02*
X1489750D01*
X1470750Y605500D02*
X1489750D01*
Y570500D02*
Y605500D01*
X1470750Y570500D02*
Y605500D01*
X1371250Y412000D02*
Y447000D01*
X1352250Y412000D02*
Y447000D01*
Y412000D02*
X1371250D01*
X1352250Y447000D02*
X1371250D01*
X1361750Y452250D02*
Y487250D01*
X1342750Y452250D02*
Y487250D01*
Y452250D02*
X1361750D01*
X1342750Y487250D02*
X1361750D01*
X1224000Y436000D02*
X1259000D01*
X1224000Y417000D02*
X1259000D01*
Y436000D01*
X1224000Y417000D02*
Y436000D01*
X1261750Y399500D02*
X1296750D01*
X1261750Y418500D02*
X1296750D01*
X1261750Y399500D02*
Y418500D01*
X1296750Y399500D02*
Y418500D01*
X1277500Y350500D02*
X1312500D01*
X1277500Y331500D02*
X1312500D01*
Y350500D01*
X1277500Y331500D02*
Y350500D01*
X1315000Y348750D02*
X1347000D01*
X1315000Y332750D02*
X1347000D01*
Y348750D01*
X1315000Y332750D02*
Y348750D01*
X1623060Y269540D02*
Y288540D01*
X1658060Y269540D02*
Y288540D01*
X1623060Y269540D02*
X1658060D01*
X1623060Y288540D02*
X1658060D01*
X1621790Y217130D02*
Y236130D01*
X1656790Y217130D02*
Y236130D01*
X1621790Y217130D02*
X1656790D01*
X1621790Y236130D02*
X1656790D01*
X1621790Y164800D02*
Y183800D01*
X1656790Y164800D02*
Y183800D01*
X1621790Y164800D02*
X1656790D01*
X1621790Y183800D02*
X1656790D01*
X1666310Y294740D02*
X1706310D01*
X1666310Y243740D02*
X1706310D01*
X1666310D02*
Y294740D01*
X1706310Y243740D02*
Y294740D01*
X1666310Y190000D02*
X1706310D01*
X1666310Y139000D02*
X1706310D01*
X1666310D02*
Y190000D01*
X1706310Y139000D02*
Y190000D01*
X1611250Y245990D02*
Y268740D01*
X1662250Y245990D02*
Y268740D01*
X1611250Y245990D02*
X1662250D01*
X1611250Y268740D02*
X1662250D01*
X1611250Y216330D02*
X1662250D01*
X1611250Y193580D02*
X1662250D01*
Y216330D01*
X1611250Y193580D02*
Y216330D01*
Y141250D02*
Y164000D01*
X1662250Y141250D02*
Y164000D01*
X1611250Y141250D02*
X1662250D01*
X1611250Y164000D02*
X1662250D01*
X522250Y358250D02*
Y475250D01*
X439250Y358250D02*
Y475250D01*
Y358250D02*
X522250D01*
X439250Y475250D02*
X522250D01*
X444248Y467500D02*
X517500D01*
X444248Y365749D02*
X517500D01*
X444248D02*
Y467500D01*
X517500Y365749D02*
Y467500D01*
X606250Y358500D02*
Y475500D01*
X523250Y358500D02*
Y475500D01*
Y358500D02*
X606250D01*
X523250Y475500D02*
X606250D01*
X528248Y467750D02*
X601500D01*
X528248Y365999D02*
X601500D01*
X528248D02*
Y467750D01*
X601500Y365999D02*
Y467750D01*
X1607216Y572200D02*
Y607200D01*
X1588216Y572200D02*
Y607200D01*
Y572200D02*
X1607216D01*
X1588216Y607200D02*
X1607216D01*
X1631968Y572200D02*
Y607200D01*
X1612968Y572200D02*
Y607200D01*
Y572200D02*
X1631968D01*
X1612968Y607200D02*
X1631968D01*
X1312500Y352500D02*
Y387500D01*
X1293500Y352500D02*
Y387500D01*
Y352500D02*
X1312500D01*
X1293500Y387500D02*
X1312500D01*
X1563464Y572200D02*
X1582464D01*
X1563464Y607200D02*
X1582464D01*
Y572200D02*
Y607200D01*
X1563464Y572200D02*
Y607200D01*
X1538712Y572200D02*
X1557712D01*
X1538712Y607200D02*
X1557712D01*
Y572200D02*
Y607200D01*
X1538712Y572200D02*
Y607200D01*
X1513960Y572200D02*
X1532960D01*
X1513960Y607200D02*
X1532960D01*
Y572200D02*
Y607200D01*
X1513960Y572200D02*
Y607200D01*
X1315250Y380000D02*
Y415000D01*
X1334250Y380000D02*
Y415000D01*
X1315250D02*
X1334250D01*
X1315250Y380000D02*
X1334250D01*
X1334500Y437250D02*
Y472250D01*
X1315500Y437250D02*
Y472250D01*
Y437250D02*
X1334500D01*
X1315500Y472250D02*
X1334500D01*
X1314500Y437250D02*
Y472250D01*
X1295500Y437250D02*
Y472250D01*
Y437250D02*
X1314500D01*
X1295500Y472250D02*
X1314500D01*
X1294500Y437250D02*
Y472250D01*
X1275500Y437250D02*
Y472250D01*
Y437250D02*
X1294500D01*
X1275500Y472250D02*
X1294500D01*
X1255500D02*
X1274500D01*
X1255500Y437250D02*
X1274500D01*
X1255500D02*
Y472250D01*
X1274500Y437250D02*
Y472250D01*
X1254500Y437250D02*
Y472250D01*
X1235500Y437250D02*
Y472250D01*
Y437250D02*
X1254500D01*
X1235500Y472250D02*
X1254500D01*
X506500Y607000D02*
X541500D01*
X506500Y626000D02*
X541500D01*
X506500Y607000D02*
Y626000D01*
X541500Y607000D02*
Y626000D01*
M02*
