G04*
G04 #@! TF.GenerationSoftware,Altium Limited,Altium Designer,22.7.1 (60)*
G04*
G04 Layer_Color=16711935*
%FSLAX44Y44*%
%MOMM*%
G71*
G04*
G04 #@! TF.SameCoordinates,F110A0D0-B471-48EF-BBF6-E10C2EB46B9C*
G04*
G04*
G04 #@! TF.FilePolarity,Negative*
G04*
G01*
G75*
%ADD17C,1.0000*%
%ADD44R,1.3100X1.5100*%
%ADD45R,1.0600X1.4600*%
%ADD46R,1.5100X1.3100*%
%ADD51R,1.4600X1.0600*%
G04:AMPARAMS|DCode=58|XSize=1.46mm|YSize=1.26mm|CornerRadius=0.355mm|HoleSize=0mm|Usage=FLASHONLY|Rotation=270.000|XOffset=0mm|YOffset=0mm|HoleType=Round|Shape=RoundedRectangle|*
%AMROUNDEDRECTD58*
21,1,1.4600,0.5500,0,0,270.0*
21,1,0.7500,1.2600,0,0,270.0*
1,1,0.7100,-0.2750,-0.3750*
1,1,0.7100,-0.2750,0.3750*
1,1,0.7100,0.2750,0.3750*
1,1,0.7100,0.2750,-0.3750*
%
%ADD58ROUNDEDRECTD58*%
%ADD66C,2.1600*%
%ADD67R,2.1600X2.1600*%
%ADD68C,1.4600*%
%ADD69C,2.6600*%
%ADD70R,2.6600X2.6600*%
%ADD71C,1.7600*%
%ADD72R,1.7600X1.7600*%
%ADD73C,1.9600*%
G04:AMPARAMS|DCode=74|XSize=2.16mm|YSize=2.16mm|CornerRadius=0.58mm|HoleSize=0mm|Usage=FLASHONLY|Rotation=270.000|XOffset=0mm|YOffset=0mm|HoleType=Round|Shape=RoundedRectangle|*
%AMROUNDEDRECTD74*
21,1,2.1600,1.0000,0,0,270.0*
21,1,1.0000,2.1600,0,0,270.0*
1,1,1.1600,-0.5000,-0.5000*
1,1,1.1600,-0.5000,0.5000*
1,1,1.1600,0.5000,0.5000*
1,1,1.1600,0.5000,-0.5000*
%
%ADD74ROUNDEDRECTD74*%
%ADD75C,3.3600*%
%ADD76C,1.3600*%
%ADD77C,1.5600*%
%ADD78R,1.9600X1.9600*%
%ADD79C,1.6600*%
%ADD80C,8.1600*%
%ADD81C,1.1600*%
G04:AMPARAMS|DCode=82|XSize=1.96mm|YSize=1.96mm|CornerRadius=0.53mm|HoleSize=0mm|Usage=FLASHONLY|Rotation=315.000|XOffset=0mm|YOffset=0mm|HoleType=Round|Shape=RoundedRectangle|*
%AMROUNDEDRECTD82*
21,1,1.9600,0.9000,0,0,315.0*
21,1,0.9000,1.9600,0,0,315.0*
1,1,1.0600,0.0000,-0.6364*
1,1,1.0600,-0.6364,0.0000*
1,1,1.0600,0.0000,0.6364*
1,1,1.0600,0.6364,0.0000*
%
%ADD82ROUNDEDRECTD82*%
%ADD83R,1.3600X1.3600*%
G04:AMPARAMS|DCode=84|XSize=2.16mm|YSize=2.16mm|CornerRadius=0.58mm|HoleSize=0mm|Usage=FLASHONLY|Rotation=180.000|XOffset=0mm|YOffset=0mm|HoleType=Round|Shape=RoundedRectangle|*
%AMROUNDEDRECTD84*
21,1,2.1600,1.0000,0,0,180.0*
21,1,1.0000,2.1600,0,0,180.0*
1,1,1.1600,-0.5000,0.5000*
1,1,1.1600,0.5000,0.5000*
1,1,1.1600,0.5000,-0.5000*
1,1,1.1600,-0.5000,-0.5000*
%
%ADD84ROUNDEDRECTD84*%
G04:AMPARAMS|DCode=114|XSize=0.76mm|YSize=1.71mm|CornerRadius=0.23mm|HoleSize=0mm|Usage=FLASHONLY|Rotation=90.000|XOffset=0mm|YOffset=0mm|HoleType=Round|Shape=RoundedRectangle|*
%AMROUNDEDRECTD114*
21,1,0.7600,1.2500,0,0,90.0*
21,1,0.3000,1.7100,0,0,90.0*
1,1,0.4600,0.6250,0.1500*
1,1,0.4600,0.6250,-0.1500*
1,1,0.4600,-0.6250,-0.1500*
1,1,0.4600,-0.6250,0.1500*
%
%ADD114ROUNDEDRECTD114*%
G04:AMPARAMS|DCode=115|XSize=0.81mm|YSize=1.41mm|CornerRadius=0.2425mm|HoleSize=0mm|Usage=FLASHONLY|Rotation=90.000|XOffset=0mm|YOffset=0mm|HoleType=Round|Shape=RoundedRectangle|*
%AMROUNDEDRECTD115*
21,1,0.8100,0.9250,0,0,90.0*
21,1,0.3250,1.4100,0,0,90.0*
1,1,0.4850,0.4625,0.1625*
1,1,0.4850,0.4625,-0.1625*
1,1,0.4850,-0.4625,-0.1625*
1,1,0.4850,-0.4625,0.1625*
%
%ADD115ROUNDEDRECTD115*%
%ADD116R,7.0600X5.7600*%
D17*
X50000Y590000D02*
G03*
X45466Y589742I0J-40000D01*
G01*
D44*
X170750Y120000D02*
D03*
X189250D02*
D03*
X1351500Y160000D02*
D03*
X1370000D02*
D03*
X1350750Y130000D02*
D03*
X1369250D02*
D03*
Y280000D02*
D03*
X1350750D02*
D03*
X1370000Y250000D02*
D03*
X1351500D02*
D03*
X1369250Y220000D02*
D03*
X1350750D02*
D03*
X1351500Y190000D02*
D03*
X1370000D02*
D03*
D45*
X770500Y330000D02*
D03*
X789500D02*
D03*
X770500Y350000D02*
D03*
X789500D02*
D03*
X770500Y370000D02*
D03*
X789500D02*
D03*
X550500Y440000D02*
D03*
X569500D02*
D03*
X550000Y460000D02*
D03*
X569000D02*
D03*
X550500Y420000D02*
D03*
X569500D02*
D03*
D46*
X210000Y110750D02*
D03*
Y129250D02*
D03*
Y229250D02*
D03*
Y210750D02*
D03*
X340000D02*
D03*
Y229250D02*
D03*
Y179250D02*
D03*
Y160750D02*
D03*
X190000Y150750D02*
D03*
Y169250D02*
D03*
X370000Y69250D02*
D03*
Y50750D02*
D03*
Y101500D02*
D03*
Y120000D02*
D03*
X380000Y279250D02*
D03*
Y260750D02*
D03*
X430000Y220750D02*
D03*
Y239250D02*
D03*
D51*
X210000Y179500D02*
D03*
Y160500D02*
D03*
X340000Y129500D02*
D03*
Y110500D02*
D03*
D58*
X152500Y80000D02*
D03*
X187500D02*
D03*
X282500D02*
D03*
X317500D02*
D03*
D66*
X1250000Y245000D02*
D03*
X1225000Y220000D02*
D03*
X1250000D02*
D03*
X1225000Y195000D02*
D03*
X1250000D02*
D03*
X1225000Y170000D02*
D03*
X1250000D02*
D03*
X1225000Y145000D02*
D03*
X1250000Y70000D02*
D03*
Y95000D02*
D03*
X1225000D02*
D03*
Y120000D02*
D03*
Y245000D02*
D03*
X1250000Y145000D02*
D03*
Y120000D02*
D03*
X95000Y417600D02*
D03*
Y387600D02*
D03*
Y357600D02*
D03*
X1100000Y540000D02*
D03*
X1070000Y510000D02*
D03*
Y540000D02*
D03*
X103200Y218500D02*
D03*
X133200D02*
D03*
Y158500D02*
D03*
Y188500D02*
D03*
Y248500D02*
D03*
X103200Y188500D02*
D03*
Y248500D02*
D03*
X510000Y560000D02*
D03*
X480000D02*
D03*
X360000D02*
D03*
X330000D02*
D03*
X1240000Y490000D02*
D03*
Y520000D02*
D03*
Y460000D02*
D03*
Y430000D02*
D03*
Y400000D02*
D03*
Y370000D02*
D03*
Y340000D02*
D03*
Y310000D02*
D03*
D67*
X1225000Y70000D02*
D03*
D68*
X1211195Y157500D02*
D03*
D69*
X541400Y241600D02*
D03*
Y140000D02*
D03*
X998600Y216200D02*
D03*
Y114600D02*
D03*
X541400Y38400D02*
D03*
D70*
X998600Y63800D02*
D03*
D71*
X210800Y34600D02*
D03*
X134600D02*
D03*
X109200D02*
D03*
X210800Y85400D02*
D03*
X134600D02*
D03*
X340800Y34600D02*
D03*
X264600D02*
D03*
X239200D02*
D03*
X340800Y85400D02*
D03*
X264600D02*
D03*
X570800Y390800D02*
D03*
X545400D02*
D03*
X570800Y340000D02*
D03*
D72*
X109200Y85400D02*
D03*
X239200D02*
D03*
X520000Y340000D02*
D03*
D73*
X287350Y114581D02*
D03*
X312750D02*
D03*
X310000Y247300D02*
D03*
Y272700D02*
D03*
X260000Y247300D02*
D03*
Y272700D02*
D03*
X942500Y526600D02*
D03*
X967500D02*
D03*
X917500D02*
D03*
X644079Y324079D02*
D03*
X662039Y342039D02*
D03*
X680000Y360000D02*
D03*
X697961Y377961D02*
D03*
X1010000Y517300D02*
D03*
Y542700D02*
D03*
D74*
X95000Y327600D02*
D03*
X1100000Y510000D02*
D03*
D75*
X50000Y350000D02*
D03*
Y396100D02*
D03*
X60000Y180000D02*
D03*
Y227000D02*
D03*
D76*
X1130000Y549400D02*
D03*
X1040000D02*
D03*
X445400Y410000D02*
D03*
X420000D02*
D03*
D77*
X930000Y540000D02*
D03*
D78*
X892500Y526600D02*
D03*
D79*
X1145400Y360000D02*
D03*
X1170800D02*
D03*
X1120000D02*
D03*
D80*
X1350000Y50000D02*
D03*
Y550000D02*
D03*
X50000Y50000D02*
D03*
X782500Y550000D02*
D03*
D81*
X30000Y542500D02*
D03*
Y517500D02*
D03*
D82*
X715921Y395921D02*
D03*
D83*
X394600Y410000D02*
D03*
D84*
X103200Y158500D02*
D03*
D114*
X307002Y195400D02*
D03*
Y208100D02*
D03*
Y182700D02*
D03*
Y170000D02*
D03*
Y157300D02*
D03*
Y144600D02*
D03*
Y131900D02*
D03*
X253002Y208100D02*
D03*
Y195400D02*
D03*
Y182700D02*
D03*
Y170000D02*
D03*
Y157300D02*
D03*
Y144600D02*
D03*
Y131900D02*
D03*
D115*
X155751Y50000D02*
D03*
X184251Y40500D02*
D03*
Y59500D02*
D03*
X285750Y50000D02*
D03*
X314250Y40500D02*
D03*
Y59500D02*
D03*
X375750Y230000D02*
D03*
X404250Y220500D02*
D03*
Y239500D02*
D03*
D116*
X520000Y500000D02*
D03*
X620000D02*
D03*
X320000D02*
D03*
X220000D02*
D03*
M02*
