G04*
G04 #@! TF.GenerationSoftware,Altium Limited,Altium Designer,22.11.1 (43)*
G04*
G04 Layer_Physical_Order=1*
G04 Layer_Color=255*
%FSLAX44Y44*%
%MOMM*%
G71*
G04*
G04 #@! TF.SameCoordinates,CE3EE1F7-2002-4A30-8AAF-CFD3FAF0E8B6*
G04*
G04*
G04 #@! TF.FilePolarity,Positive*
G04*
G01*
G75*
%ADD10C,0.2000*%
%ADD14C,0.1500*%
%ADD16C,0.5000*%
%ADD18R,1.1500X1.3500*%
%ADD19R,1.3000X0.9000*%
%ADD20R,2.2100X2.2000*%
G04:AMPARAMS|DCode=21|XSize=0.6mm|YSize=1.45mm|CornerRadius=0.15mm|HoleSize=0mm|Usage=FLASHONLY|Rotation=90.000|XOffset=0mm|YOffset=0mm|HoleType=Round|Shape=RoundedRectangle|*
%AMROUNDEDRECTD21*
21,1,0.6000,1.1500,0,0,90.0*
21,1,0.3000,1.4500,0,0,90.0*
1,1,0.3000,0.5750,0.1500*
1,1,0.3000,0.5750,-0.1500*
1,1,0.3000,-0.5750,-0.1500*
1,1,0.3000,-0.5750,0.1500*
%
%ADD21ROUNDEDRECTD21*%
G04:AMPARAMS|DCode=22|XSize=1.75mm|YSize=1.25mm|CornerRadius=0.3125mm|HoleSize=0mm|Usage=FLASHONLY|Rotation=270.000|XOffset=0mm|YOffset=0mm|HoleType=Round|Shape=RoundedRectangle|*
%AMROUNDEDRECTD22*
21,1,1.7500,0.6250,0,0,270.0*
21,1,1.1250,1.2500,0,0,270.0*
1,1,0.6250,-0.3125,-0.5625*
1,1,0.6250,-0.3125,0.5625*
1,1,0.6250,0.3125,0.5625*
1,1,0.6250,0.3125,-0.5625*
%
%ADD22ROUNDEDRECTD22*%
%ADD23R,0.9000X1.3000*%
%ADD24R,1.3500X1.1500*%
G04:AMPARAMS|DCode=25|XSize=0.6mm|YSize=2mm|CornerRadius=0.15mm|HoleSize=0mm|Usage=FLASHONLY|Rotation=90.000|XOffset=0mm|YOffset=0mm|HoleType=Round|Shape=RoundedRectangle|*
%AMROUNDEDRECTD25*
21,1,0.6000,1.7000,0,0,90.0*
21,1,0.3000,2.0000,0,0,90.0*
1,1,0.3000,0.8500,0.1500*
1,1,0.3000,0.8500,-0.1500*
1,1,0.3000,-0.8500,-0.1500*
1,1,0.3000,-0.8500,0.1500*
%
%ADD25ROUNDEDRECTD25*%
G04:AMPARAMS|DCode=26|XSize=1.2mm|YSize=2.75mm|CornerRadius=0.3mm|HoleSize=0mm|Usage=FLASHONLY|Rotation=90.000|XOffset=0mm|YOffset=0mm|HoleType=Round|Shape=RoundedRectangle|*
%AMROUNDEDRECTD26*
21,1,1.2000,2.1500,0,0,90.0*
21,1,0.6000,2.7500,0,0,90.0*
1,1,0.6000,1.0750,0.3000*
1,1,0.6000,1.0750,-0.3000*
1,1,0.6000,-1.0750,-0.3000*
1,1,0.6000,-1.0750,0.3000*
%
%ADD26ROUNDEDRECTD26*%
G04:AMPARAMS|DCode=27|XSize=0.55mm|YSize=1.5mm|CornerRadius=0.1375mm|HoleSize=0mm|Usage=FLASHONLY|Rotation=90.000|XOffset=0mm|YOffset=0mm|HoleType=Round|Shape=RoundedRectangle|*
%AMROUNDEDRECTD27*
21,1,0.5500,1.2250,0,0,90.0*
21,1,0.2750,1.5000,0,0,90.0*
1,1,0.2750,0.6125,0.1375*
1,1,0.2750,0.6125,-0.1375*
1,1,0.2750,-0.6125,-0.1375*
1,1,0.2750,-0.6125,0.1375*
%
%ADD27ROUNDEDRECTD27*%
G04:AMPARAMS|DCode=28|XSize=0.55mm|YSize=1.5mm|CornerRadius=0.1375mm|HoleSize=0mm|Usage=FLASHONLY|Rotation=0.000|XOffset=0mm|YOffset=0mm|HoleType=Round|Shape=RoundedRectangle|*
%AMROUNDEDRECTD28*
21,1,0.5500,1.2250,0,0,0.0*
21,1,0.2750,1.5000,0,0,0.0*
1,1,0.2750,0.1375,-0.6125*
1,1,0.2750,-0.1375,-0.6125*
1,1,0.2750,-0.1375,0.6125*
1,1,0.2750,0.1375,0.6125*
%
%ADD28ROUNDEDRECTD28*%
G04:AMPARAMS|DCode=29|XSize=0.65mm|YSize=1.25mm|CornerRadius=0.1625mm|HoleSize=0mm|Usage=FLASHONLY|Rotation=180.000|XOffset=0mm|YOffset=0mm|HoleType=Round|Shape=RoundedRectangle|*
%AMROUNDEDRECTD29*
21,1,0.6500,0.9250,0,0,180.0*
21,1,0.3250,1.2500,0,0,180.0*
1,1,0.3250,-0.1625,0.4625*
1,1,0.3250,0.1625,0.4625*
1,1,0.3250,0.1625,-0.4625*
1,1,0.3250,-0.1625,-0.4625*
%
%ADD29ROUNDEDRECTD29*%
G04:AMPARAMS|DCode=30|XSize=0.65mm|YSize=1.25mm|CornerRadius=0.1625mm|HoleSize=0mm|Usage=FLASHONLY|Rotation=90.000|XOffset=0mm|YOffset=0mm|HoleType=Round|Shape=RoundedRectangle|*
%AMROUNDEDRECTD30*
21,1,0.6500,0.9250,0,0,90.0*
21,1,0.3250,1.2500,0,0,90.0*
1,1,0.3250,0.4625,0.1625*
1,1,0.3250,0.4625,-0.1625*
1,1,0.3250,-0.4625,-0.1625*
1,1,0.3250,-0.4625,0.1625*
%
%ADD30ROUNDEDRECTD30*%
G04:AMPARAMS|DCode=31|XSize=1.2mm|YSize=2.75mm|CornerRadius=0.3mm|HoleSize=0mm|Usage=FLASHONLY|Rotation=180.000|XOffset=0mm|YOffset=0mm|HoleType=Round|Shape=RoundedRectangle|*
%AMROUNDEDRECTD31*
21,1,1.2000,2.1500,0,0,180.0*
21,1,0.6000,2.7500,0,0,180.0*
1,1,0.6000,-0.3000,1.0750*
1,1,0.6000,0.3000,1.0750*
1,1,0.6000,0.3000,-1.0750*
1,1,0.6000,-0.3000,-1.0750*
%
%ADD31ROUNDEDRECTD31*%
G04:AMPARAMS|DCode=32|XSize=1.7mm|YSize=2.5mm|CornerRadius=0.425mm|HoleSize=0mm|Usage=FLASHONLY|Rotation=180.000|XOffset=0mm|YOffset=0mm|HoleType=Round|Shape=RoundedRectangle|*
%AMROUNDEDRECTD32*
21,1,1.7000,1.6500,0,0,180.0*
21,1,0.8500,2.5000,0,0,180.0*
1,1,0.8500,-0.4250,0.8250*
1,1,0.8500,0.4250,0.8250*
1,1,0.8500,0.4250,-0.8250*
1,1,0.8500,-0.4250,-0.8250*
%
%ADD32ROUNDEDRECTD32*%
%ADD33R,6.9000X5.6000*%
%ADD34R,2.8000X2.0000*%
%ADD35R,2.0000X2.8000*%
G04:AMPARAMS|DCode=36|XSize=3.3mm|YSize=2.3mm|CornerRadius=0.575mm|HoleSize=0mm|Usage=FLASHONLY|Rotation=0.000|XOffset=0mm|YOffset=0mm|HoleType=Round|Shape=RoundedRectangle|*
%AMROUNDEDRECTD36*
21,1,3.3000,1.1500,0,0,0.0*
21,1,2.1500,2.3000,0,0,0.0*
1,1,1.1500,1.0750,-0.5750*
1,1,1.1500,-1.0750,-0.5750*
1,1,1.1500,-1.0750,0.5750*
1,1,1.1500,1.0750,0.5750*
%
%ADD36ROUNDEDRECTD36*%
G04:AMPARAMS|DCode=37|XSize=1mm|YSize=2.1mm|CornerRadius=0.25mm|HoleSize=0mm|Usage=FLASHONLY|Rotation=270.000|XOffset=0mm|YOffset=0mm|HoleType=Round|Shape=RoundedRectangle|*
%AMROUNDEDRECTD37*
21,1,1.0000,1.6000,0,0,270.0*
21,1,0.5000,2.1000,0,0,270.0*
1,1,0.5000,-0.8000,-0.2500*
1,1,0.5000,-0.8000,0.2500*
1,1,0.5000,0.8000,0.2500*
1,1,0.5000,0.8000,-0.2500*
%
%ADD37ROUNDEDRECTD37*%
G04:AMPARAMS|DCode=38|XSize=3.3mm|YSize=2.1mm|CornerRadius=0.525mm|HoleSize=0mm|Usage=FLASHONLY|Rotation=270.000|XOffset=0mm|YOffset=0mm|HoleType=Round|Shape=RoundedRectangle|*
%AMROUNDEDRECTD38*
21,1,3.3000,1.0500,0,0,270.0*
21,1,2.2500,2.1000,0,0,270.0*
1,1,1.0500,-0.5250,-1.1250*
1,1,1.0500,-0.5250,1.1250*
1,1,1.0500,0.5250,1.1250*
1,1,1.0500,0.5250,-1.1250*
%
%ADD38ROUNDEDRECTD38*%
%ADD39R,1.3000X2.2000*%
G04:AMPARAMS|DCode=40|XSize=1.3mm|YSize=1.1mm|CornerRadius=0.275mm|HoleSize=0mm|Usage=FLASHONLY|Rotation=90.000|XOffset=0mm|YOffset=0mm|HoleType=Round|Shape=RoundedRectangle|*
%AMROUNDEDRECTD40*
21,1,1.3000,0.5500,0,0,90.0*
21,1,0.7500,1.1000,0,0,90.0*
1,1,0.5500,0.2750,0.3750*
1,1,0.5500,0.2750,-0.3750*
1,1,0.5500,-0.2750,-0.3750*
1,1,0.5500,-0.2750,0.3750*
%
%ADD40ROUNDEDRECTD40*%
G04:AMPARAMS|DCode=41|XSize=1.2mm|YSize=1.1mm|CornerRadius=0.275mm|HoleSize=0mm|Usage=FLASHONLY|Rotation=180.000|XOffset=0mm|YOffset=0mm|HoleType=Round|Shape=RoundedRectangle|*
%AMROUNDEDRECTD41*
21,1,1.2000,0.5500,0,0,180.0*
21,1,0.6500,1.1000,0,0,180.0*
1,1,0.5500,-0.3250,0.2750*
1,1,0.5500,0.3250,0.2750*
1,1,0.5500,0.3250,-0.2750*
1,1,0.5500,-0.3250,-0.2750*
%
%ADD41ROUNDEDRECTD41*%
%ADD42R,1.6000X1.2000*%
%ADD90C,0.8000*%
%ADD91C,1.0000*%
%ADD92C,1.5000*%
%ADD93C,2.0000*%
G04:AMPARAMS|DCode=94|XSize=0.6mm|YSize=1.55mm|CornerRadius=0.15mm|HoleSize=0mm|Usage=FLASHONLY|Rotation=90.000|XOffset=0mm|YOffset=0mm|HoleType=Round|Shape=RoundedRectangle|*
%AMROUNDEDRECTD94*
21,1,0.6000,1.2500,0,0,90.0*
21,1,0.3000,1.5500,0,0,90.0*
1,1,0.3000,0.6250,0.1500*
1,1,0.3000,0.6250,-0.1500*
1,1,0.3000,-0.6250,-0.1500*
1,1,0.3000,-0.6250,0.1500*
%
%ADD94ROUNDEDRECTD94*%
%ADD95C,1.5000*%
%ADD96R,1.5000X1.5000*%
%ADD97C,1.6000*%
%ADD98R,1.6000X1.6000*%
%ADD99C,3.2000*%
%ADD100C,2.0000*%
G04:AMPARAMS|DCode=101|XSize=2mm|YSize=2mm|CornerRadius=0.5mm|HoleSize=0mm|Usage=FLASHONLY|Rotation=180.000|XOffset=0mm|YOffset=0mm|HoleType=Round|Shape=RoundedRectangle|*
%AMROUNDEDRECTD101*
21,1,2.0000,1.0000,0,0,180.0*
21,1,1.0000,2.0000,0,0,180.0*
1,1,1.0000,-0.5000,0.5000*
1,1,1.0000,0.5000,0.5000*
1,1,1.0000,0.5000,-0.5000*
1,1,1.0000,-0.5000,-0.5000*
%
%ADD101ROUNDEDRECTD101*%
%ADD102C,1.4000*%
%ADD103R,1.8000X1.8000*%
%ADD104C,1.8000*%
%ADD105C,8.0000*%
%ADD106C,1.0000*%
%ADD107C,1.2000*%
%ADD108R,1.2000X1.2000*%
%ADD109C,1.3000*%
%ADD110R,2.0000X2.0000*%
G04:AMPARAMS|DCode=111|XSize=2mm|YSize=2mm|CornerRadius=0.5mm|HoleSize=0mm|Usage=FLASHONLY|Rotation=90.000|XOffset=0mm|YOffset=0mm|HoleType=Round|Shape=RoundedRectangle|*
%AMROUNDEDRECTD111*
21,1,2.0000,1.0000,0,0,90.0*
21,1,1.0000,2.0000,0,0,90.0*
1,1,1.0000,0.5000,0.5000*
1,1,1.0000,0.5000,-0.5000*
1,1,1.0000,-0.5000,-0.5000*
1,1,1.0000,-0.5000,0.5000*
%
%ADD111ROUNDEDRECTD111*%
G04:AMPARAMS|DCode=112|XSize=1.8mm|YSize=1.8mm|CornerRadius=0.45mm|HoleSize=0mm|Usage=FLASHONLY|Rotation=270.000|XOffset=0mm|YOffset=0mm|HoleType=Round|Shape=RoundedRectangle|*
%AMROUNDEDRECTD112*
21,1,1.8000,0.9000,0,0,270.0*
21,1,0.9000,1.8000,0,0,270.0*
1,1,0.9000,-0.4500,-0.4500*
1,1,0.9000,-0.4500,0.4500*
1,1,0.9000,0.4500,0.4500*
1,1,0.9000,0.4500,-0.4500*
%
%ADD112ROUNDEDRECTD112*%
%ADD113C,2.5000*%
%ADD114C,0.5000*%
%ADD115C,0.7000*%
%ADD116C,0.8000*%
G36*
X1799750Y657750D02*
Y600725D01*
X1798480Y600473D01*
X1797164Y603649D01*
X1794582Y607864D01*
X1791372Y611622D01*
X1787614Y614832D01*
X1783399Y617414D01*
X1781889Y618040D01*
X1781674Y619125D01*
X1780543Y621855D01*
X1778901Y624312D01*
X1776812Y626401D01*
X1774355Y628043D01*
X1771625Y629174D01*
X1768727Y629750D01*
X1765773D01*
X1762875Y629174D01*
X1760145Y628043D01*
X1757688Y626401D01*
X1755599Y624312D01*
X1753957Y621855D01*
X1752827Y619125D01*
X1752250Y616227D01*
Y613273D01*
X1752827Y610375D01*
X1753957Y607645D01*
X1755599Y605188D01*
X1757688Y603099D01*
X1760145Y601457D01*
X1762643Y600422D01*
X1762768Y599750D01*
X1762643Y599078D01*
X1760145Y598043D01*
X1757688Y596401D01*
X1755599Y594312D01*
X1753957Y591855D01*
X1752827Y589125D01*
X1752250Y586227D01*
Y583273D01*
X1752827Y580375D01*
X1753957Y577645D01*
X1755599Y575188D01*
X1757688Y573099D01*
X1760145Y571457D01*
X1762643Y570422D01*
X1762768Y569750D01*
X1762643Y569078D01*
X1760145Y568043D01*
X1757688Y566401D01*
X1755599Y564312D01*
X1753957Y561855D01*
X1752827Y559125D01*
X1752250Y556227D01*
Y553273D01*
X1752827Y550375D01*
X1753957Y547645D01*
X1755599Y545188D01*
X1757688Y543099D01*
X1760145Y541457D01*
X1762643Y540422D01*
X1762768Y539750D01*
X1762643Y539078D01*
X1760145Y538043D01*
X1757688Y536401D01*
X1755599Y534312D01*
X1753957Y531855D01*
X1752827Y529125D01*
X1752250Y526227D01*
Y523273D01*
X1752827Y520375D01*
X1753957Y517645D01*
X1755599Y515188D01*
X1757688Y513099D01*
X1760145Y511457D01*
X1762875Y510326D01*
X1765773Y509750D01*
X1768727D01*
X1771625Y510326D01*
X1774355Y511457D01*
X1776812Y513099D01*
X1778901Y515188D01*
X1780543Y517645D01*
X1781674Y520375D01*
X1782250Y523273D01*
Y526227D01*
X1781674Y529125D01*
X1780543Y531855D01*
X1778901Y534312D01*
X1776812Y536401D01*
X1774355Y538043D01*
X1771857Y539078D01*
X1771732Y539750D01*
X1771857Y540422D01*
X1774355Y541457D01*
X1776812Y543099D01*
X1778901Y545188D01*
X1780543Y547645D01*
X1781674Y550375D01*
X1782250Y553273D01*
Y556227D01*
X1781674Y559125D01*
X1780543Y561855D01*
X1778901Y564312D01*
X1776812Y566401D01*
X1774355Y568043D01*
X1771857Y569078D01*
X1771732Y569750D01*
X1771857Y570422D01*
X1774355Y571457D01*
X1776812Y573099D01*
X1778901Y575188D01*
X1780543Y577645D01*
X1781674Y580375D01*
X1782250Y583273D01*
Y586227D01*
X1781674Y589125D01*
X1780543Y591855D01*
X1778901Y594312D01*
X1776812Y596401D01*
X1774355Y598043D01*
X1771857Y599078D01*
X1771732Y599750D01*
X1771857Y600422D01*
X1774355Y601457D01*
X1776812Y603099D01*
X1778901Y605188D01*
X1780340Y605058D01*
X1782794Y603044D01*
X1785202Y600109D01*
X1786992Y596761D01*
X1788094Y593128D01*
X1788439Y589632D01*
X1788383Y589350D01*
Y281473D01*
X1787112Y281093D01*
X1783613Y284082D01*
X1779399Y286664D01*
X1774833Y288556D01*
X1770027Y289709D01*
X1765270Y290084D01*
X1765100Y290117D01*
X1764202D01*
X1763793Y291105D01*
X1762151Y293562D01*
X1760062Y295651D01*
X1759742Y295865D01*
Y297135D01*
X1760062Y297349D01*
X1762151Y299438D01*
X1763793Y301895D01*
X1764924Y304625D01*
X1765500Y307523D01*
Y310477D01*
X1764924Y313375D01*
X1763793Y316105D01*
X1762151Y318562D01*
X1760062Y320651D01*
X1757605Y322293D01*
X1754875Y323424D01*
X1751977Y324000D01*
X1749023D01*
X1746125Y323424D01*
X1743395Y322293D01*
X1740938Y320651D01*
X1738849Y318562D01*
X1738635Y318242D01*
X1737365D01*
X1737151Y318562D01*
X1735062Y320651D01*
X1734742Y320865D01*
Y322135D01*
X1735062Y322349D01*
X1737151Y324438D01*
X1738793Y326895D01*
X1739924Y329625D01*
X1740500Y332523D01*
Y335477D01*
X1739924Y338375D01*
X1738793Y341105D01*
X1737151Y343562D01*
X1735062Y345651D01*
X1732605Y347293D01*
X1729875Y348424D01*
X1726977Y349000D01*
X1724023D01*
X1721125Y348424D01*
X1718395Y347293D01*
X1717370Y346608D01*
X1701900D01*
Y346617D01*
X1695953Y346149D01*
X1690152Y344757D01*
X1684641Y342473D01*
X1679554Y339356D01*
X1675018Y335482D01*
X1673271Y333437D01*
X1672406Y334175D01*
X1668615Y336499D01*
X1664507Y338200D01*
X1660234Y339226D01*
X1659031Y339921D01*
X1656869Y340500D01*
X1654631D01*
X1652469Y339921D01*
X1650531Y338802D01*
X1648948Y337219D01*
X1647829Y335281D01*
X1647250Y333119D01*
Y330881D01*
X1647829Y328719D01*
X1648269Y327958D01*
X1647634Y326858D01*
X1623050D01*
Y326867D01*
X1622932Y326858D01*
X1602500D01*
X1599237Y326428D01*
X1596196Y325169D01*
X1593585Y323165D01*
X1591581Y320554D01*
X1590322Y317513D01*
X1589892Y314250D01*
X1590322Y310987D01*
X1591065Y309192D01*
X1589176Y306109D01*
X1586893Y300598D01*
X1585550Y295003D01*
X1584987Y294782D01*
X1584224Y294760D01*
X1583453Y296096D01*
X1580846Y298703D01*
X1580108Y299129D01*
Y314185D01*
X1580116Y314250D01*
X1580108D01*
X1579678Y317513D01*
X1578419Y320554D01*
X1576415Y323165D01*
X1573804Y325169D01*
X1570763Y326428D01*
X1567770Y326822D01*
X1567500Y326858D01*
X1566500Y326835D01*
X1566115Y326675D01*
X1565296Y326568D01*
X1564237Y326428D01*
X1562860Y325858D01*
X1556121D01*
X1555972Y325972D01*
X1555750Y326064D01*
Y328187D01*
X1556250Y329250D01*
X1579250D01*
Y340051D01*
X1579890Y341595D01*
X1580371Y345250D01*
X1580358D01*
X1579928Y348513D01*
X1579250Y350151D01*
Y361250D01*
X1556250D01*
X1555750Y362313D01*
Y362750D01*
X1551602D01*
X1551507Y363148D01*
X1549223Y368659D01*
X1546107Y373746D01*
X1542232Y378282D01*
X1537696Y382156D01*
X1532609Y385274D01*
X1529093Y386730D01*
X1529346Y388000D01*
X1542645D01*
X1544658Y386924D01*
X1547922Y385934D01*
X1550591Y385671D01*
X1551317Y385575D01*
X1612816D01*
Y382183D01*
X1635816D01*
Y387692D01*
X1639542Y389235D01*
X1644029Y391985D01*
X1648031Y395403D01*
X1651448Y399404D01*
X1654198Y403891D01*
X1656212Y408753D01*
X1657440Y413871D01*
X1657847Y419032D01*
X1657858Y419117D01*
Y453442D01*
X1658958Y454077D01*
X1659175Y453952D01*
X1662354Y453100D01*
X1665646D01*
X1668825Y453952D01*
X1671675Y455597D01*
X1674003Y457925D01*
X1675648Y460775D01*
X1676500Y463954D01*
Y467246D01*
X1675648Y470425D01*
X1674003Y473275D01*
X1671675Y475602D01*
X1668825Y477248D01*
X1665646Y478100D01*
X1662354D01*
X1659175Y477248D01*
X1658958Y477123D01*
X1657858Y477758D01*
Y497650D01*
X1657818Y497955D01*
X1658232Y500039D01*
X1659416Y501810D01*
X1659558Y502024D01*
X1659594Y502070D01*
X1661611Y503418D01*
X1663901Y503873D01*
X1664000Y503792D01*
Y503792D01*
X1664819Y503900D01*
X1665646D01*
X1666444Y504114D01*
X1667263Y504222D01*
X1668027Y504538D01*
X1668825Y504752D01*
X1669540Y505165D01*
X1670304Y505481D01*
X1670960Y505984D01*
X1671675Y506398D01*
X1672259Y506982D01*
X1672915Y507485D01*
X1673418Y508141D01*
X1674003Y508725D01*
X1674416Y509440D01*
X1674919Y510096D01*
X1675235Y510860D01*
X1675648Y511575D01*
X1675862Y512373D01*
X1676178Y513137D01*
X1676286Y513956D01*
X1676500Y514754D01*
Y515581D01*
X1676608Y516400D01*
X1676500Y517219D01*
Y518046D01*
X1676286Y518844D01*
X1676178Y519663D01*
X1675862Y520427D01*
X1675648Y521225D01*
X1675235Y521940D01*
X1674919Y522704D01*
X1674416Y523360D01*
X1674003Y524075D01*
X1673418Y524660D01*
X1672915Y525315D01*
X1672259Y525818D01*
X1671675Y526403D01*
X1670960Y526816D01*
X1670304Y527319D01*
X1669540Y527635D01*
X1668825Y528048D01*
X1668027Y528262D01*
X1667263Y528578D01*
X1666444Y528686D01*
X1665646Y528900D01*
X1664819D01*
X1664000Y529008D01*
Y528997D01*
X1662772Y528900D01*
X1662354D01*
X1662180Y528853D01*
X1659096Y528611D01*
X1654313Y527462D01*
X1649769Y525580D01*
X1645575Y523010D01*
X1645397Y522858D01*
X1588011D01*
X1587375Y523958D01*
X1587671Y524469D01*
X1588250Y526631D01*
Y528869D01*
X1588141Y529276D01*
X1588824Y530925D01*
X1589844Y535174D01*
X1590166Y539267D01*
X1590219Y539531D01*
Y578898D01*
X1590142Y579281D01*
X1589864Y582104D01*
X1588929Y585186D01*
X1587411Y588027D01*
X1585368Y590517D01*
X1582878Y592560D01*
X1582724Y593273D01*
X1582984Y593611D01*
X1583764Y595497D01*
X1584031Y597520D01*
Y603020D01*
X1583764Y605043D01*
X1582984Y606928D01*
X1581741Y608547D01*
X1581500Y608732D01*
Y609619D01*
X1580921Y611781D01*
X1579802Y613719D01*
X1578219Y615302D01*
X1576281Y616421D01*
X1574119Y617000D01*
X1571881D01*
X1569719Y616421D01*
X1567781Y615302D01*
X1566198Y613719D01*
X1565079Y611781D01*
X1564500Y609619D01*
Y608788D01*
X1564187Y608547D01*
X1562944Y606928D01*
X1562164Y605043D01*
X1561897Y603020D01*
Y598155D01*
X1560785Y597138D01*
X1560369Y597250D01*
X1559516D01*
X1559279Y597520D01*
Y603020D01*
X1559012Y605043D01*
X1558232Y606928D01*
X1556989Y608547D01*
X1556517Y608910D01*
Y609622D01*
X1555938Y611784D01*
X1554819Y613722D01*
X1553236Y615305D01*
X1551298Y616424D01*
X1549136Y617003D01*
X1546898D01*
X1544736Y616424D01*
X1543138Y615501D01*
X1541868Y616019D01*
Y630312D01*
X1543138Y631046D01*
X1543296Y630954D01*
X1546857Y630000D01*
X1550543D01*
X1554104Y630954D01*
X1557296Y632797D01*
X1559903Y635404D01*
X1560765Y636897D01*
X1562035D01*
X1562897Y635404D01*
X1565504Y632797D01*
X1568696Y630954D01*
X1572257Y630000D01*
X1575943D01*
X1579504Y630954D01*
X1582696Y632797D01*
X1585303Y635404D01*
X1587146Y638596D01*
X1588100Y642157D01*
Y645843D01*
X1587146Y649404D01*
X1585303Y652596D01*
X1585122Y652777D01*
X1585205Y654044D01*
X1586484Y655026D01*
X1589555Y656298D01*
X1592549Y656692D01*
X1592850Y656633D01*
X1613418D01*
X1613826Y655430D01*
X1613625Y655275D01*
X1612102Y653291D01*
X1611145Y650980D01*
X1610818Y648500D01*
Y639500D01*
X1611145Y637020D01*
X1612102Y634709D01*
X1613625Y632725D01*
X1615609Y631202D01*
X1617920Y630245D01*
X1620400Y629918D01*
X1629400D01*
X1631880Y630245D01*
X1634191Y631202D01*
X1636175Y632725D01*
X1637698Y634709D01*
X1638655Y637020D01*
X1638982Y639500D01*
Y648500D01*
X1638655Y650980D01*
X1637698Y653291D01*
X1636175Y655275D01*
X1635974Y655430D01*
X1636382Y656633D01*
X1639590D01*
X1639911Y656696D01*
X1643091Y656278D01*
X1646353Y654927D01*
X1649155Y652777D01*
X1651304Y649975D01*
X1652104Y648046D01*
X1651207Y646493D01*
X1650628Y644331D01*
Y642093D01*
X1651207Y639931D01*
X1652326Y637993D01*
X1653909Y636410D01*
X1655847Y635291D01*
X1658009Y634712D01*
X1660247D01*
X1662409Y635291D01*
X1664347Y636410D01*
X1665930Y637993D01*
X1667049Y639931D01*
X1667628Y642093D01*
Y644331D01*
X1667049Y646493D01*
X1665930Y648431D01*
X1664347Y650014D01*
X1664185Y650107D01*
X1663298Y653032D01*
X1660927Y657469D01*
X1657735Y661357D01*
X1654030Y664398D01*
X1654199Y665668D01*
X1654800D01*
X1657280Y665995D01*
X1659591Y666952D01*
X1661575Y668475D01*
X1663098Y670459D01*
X1664055Y672770D01*
X1664382Y675250D01*
Y684250D01*
X1664055Y686730D01*
X1663098Y689041D01*
X1661575Y691025D01*
X1659591Y692548D01*
X1657280Y693505D01*
X1654800Y693832D01*
X1645800D01*
X1643320Y693505D01*
X1641009Y692548D01*
X1639025Y691025D01*
X1637502Y689041D01*
X1637293Y688538D01*
X1635916Y688532D01*
X1633496Y690953D01*
X1630304Y692796D01*
X1626743Y693750D01*
X1623057D01*
X1619496Y692796D01*
X1616304Y690953D01*
X1613697Y688346D01*
X1611854Y685154D01*
X1610900Y681593D01*
Y677907D01*
X1611854Y674346D01*
X1613697Y671154D01*
X1614810Y670041D01*
X1614324Y668867D01*
X1592850D01*
Y668870D01*
X1587998Y668392D01*
X1583333Y666977D01*
X1579033Y664678D01*
X1575264Y661586D01*
X1572322Y658000D01*
X1572257D01*
X1568696Y657046D01*
X1565504Y655203D01*
X1562897Y652596D01*
X1562035Y651103D01*
X1560765D01*
X1559903Y652596D01*
X1557296Y655203D01*
X1554104Y657046D01*
X1550543Y658000D01*
X1546857D01*
X1543296Y657046D01*
X1540104Y655203D01*
X1537520Y652619D01*
X1537232Y652626D01*
X1536250Y652889D01*
Y670861D01*
X1537232Y671124D01*
X1537520Y671131D01*
X1540104Y668547D01*
X1543296Y666704D01*
X1546857Y665750D01*
X1550543D01*
X1554104Y666704D01*
X1557296Y668547D01*
X1559903Y671154D01*
X1560765Y672647D01*
X1562035D01*
X1562897Y671154D01*
X1565504Y668547D01*
X1568696Y666704D01*
X1572257Y665750D01*
X1575943D01*
X1579504Y666704D01*
X1582696Y668547D01*
X1585303Y671154D01*
X1587146Y674346D01*
X1588100Y677907D01*
Y681593D01*
X1587146Y685154D01*
X1585303Y688346D01*
X1582696Y690953D01*
X1579504Y692796D01*
X1575943Y693750D01*
X1572257D01*
X1568696Y692796D01*
X1565504Y690953D01*
X1562897Y688346D01*
X1562035Y686853D01*
X1560765D01*
X1559903Y688346D01*
X1557296Y690953D01*
X1554104Y692796D01*
X1550543Y693750D01*
X1546857D01*
X1543296Y692796D01*
X1540104Y690953D01*
X1537520Y688369D01*
X1537232Y688376D01*
X1536250Y688639D01*
Y698500D01*
X1759000D01*
X1799750Y657750D01*
D02*
G37*
G36*
X1529829Y632783D02*
X1529684Y631307D01*
X1529633Y631050D01*
Y615298D01*
X1528459Y614812D01*
X1528219Y615052D01*
X1526281Y616171D01*
X1524119Y616750D01*
X1521881D01*
X1519719Y616171D01*
X1517781Y615052D01*
X1516198Y613469D01*
X1515079Y611531D01*
X1514500Y609369D01*
Y608309D01*
X1513440Y606928D01*
X1512659Y605043D01*
X1512393Y603020D01*
Y597520D01*
X1512659Y595497D01*
X1513440Y593611D01*
X1514683Y591993D01*
X1516302Y590750D01*
X1518187Y589969D01*
X1520210Y589703D01*
X1526710D01*
X1528362Y589921D01*
X1529633Y589134D01*
Y546250D01*
X1529699Y545916D01*
X1529266Y542628D01*
X1527868Y539254D01*
X1525644Y536356D01*
X1522746Y534132D01*
X1519372Y532734D01*
X1516084Y532301D01*
X1515750Y532368D01*
X1504000D01*
X1503742Y532316D01*
X1499606Y531991D01*
X1495321Y530962D01*
X1495060Y530854D01*
X1494420Y531963D01*
X1495159Y532530D01*
X1496441Y534201D01*
X1497247Y536147D01*
X1497522Y538236D01*
Y548510D01*
X1498792Y549153D01*
X1500219Y548329D01*
X1502381Y547750D01*
X1504619D01*
X1506781Y548329D01*
X1508719Y549448D01*
X1510302Y551031D01*
X1511421Y552969D01*
X1512000Y555131D01*
Y557369D01*
X1511421Y559531D01*
X1510302Y561469D01*
X1509617Y562153D01*
Y572951D01*
X1511031Y573329D01*
X1512969Y574448D01*
X1514552Y576031D01*
X1515671Y577969D01*
X1516250Y580131D01*
Y582369D01*
X1515671Y584531D01*
X1514552Y586469D01*
X1512969Y588052D01*
X1511031Y589171D01*
X1508869Y589750D01*
X1506631D01*
X1504469Y589171D01*
X1502531Y588052D01*
X1501520Y587041D01*
X1500250Y587567D01*
Y605000D01*
X1528610Y633360D01*
X1529829Y632783D01*
D02*
G37*
G36*
X1302250Y614367D02*
X1191574D01*
Y614372D01*
X1187883Y613886D01*
X1184444Y612462D01*
X1182455Y610936D01*
X1182455Y610936D01*
X1181490Y610195D01*
X1181490Y610195D01*
X1181493Y610192D01*
X1181327Y609943D01*
X1179242Y607402D01*
X1177553Y604243D01*
X1176513Y600815D01*
X1176189Y597528D01*
X1176135Y597250D01*
X1176132D01*
X1176132Y597239D01*
X1176132Y597238D01*
X1176133Y595980D01*
Y582403D01*
X1174948Y581219D01*
X1173829Y579281D01*
X1173250Y577119D01*
Y574881D01*
X1173829Y572719D01*
X1174948Y570781D01*
X1176531Y569198D01*
X1178469Y568079D01*
X1180631Y567500D01*
X1182869D01*
X1185031Y568079D01*
X1186969Y569198D01*
X1188552Y570781D01*
X1189671Y572719D01*
X1190250Y574881D01*
Y577119D01*
X1189671Y579281D01*
X1188552Y581219D01*
X1188367Y581403D01*
Y586119D01*
X1189507Y586681D01*
X1190688Y585775D01*
X1194092Y584364D01*
X1197746Y583883D01*
Y583939D01*
X1199853D01*
X1200469Y583583D01*
X1202631Y583004D01*
X1204869D01*
X1207031Y583583D01*
X1208969Y584702D01*
X1210552Y586285D01*
X1211671Y588223D01*
X1212250Y590385D01*
Y591004D01*
X1215120D01*
Y591004D01*
X1226184D01*
Y591004D01*
X1244777D01*
X1245114Y590564D01*
X1246472Y589522D01*
X1248053Y588867D01*
X1249750Y588644D01*
X1266750D01*
X1268447Y588867D01*
X1270028Y589522D01*
X1271386Y590564D01*
X1272428Y591922D01*
X1273083Y593503D01*
X1273306Y595200D01*
Y598200D01*
X1273083Y599897D01*
X1272683Y600862D01*
X1273433Y602132D01*
X1302250D01*
Y539980D01*
X1300980Y538994D01*
X1297484Y539269D01*
X1297240Y539318D01*
X1287632D01*
X1286996Y540417D01*
X1287171Y540719D01*
X1287750Y542881D01*
Y545119D01*
X1287171Y547281D01*
X1286052Y549219D01*
X1284469Y550802D01*
X1282531Y551921D01*
X1281768Y552125D01*
X1281071Y553627D01*
X1281213Y553927D01*
X1281781Y554079D01*
X1283719Y555198D01*
X1285302Y556781D01*
X1286421Y558719D01*
X1287000Y560881D01*
Y563119D01*
X1286421Y565281D01*
X1285302Y567219D01*
X1283719Y568802D01*
X1282553Y569475D01*
X1281983Y570541D01*
X1280071Y572871D01*
X1277741Y574783D01*
X1275083Y576204D01*
X1272199Y577079D01*
X1271616Y577136D01*
X1271386Y577436D01*
X1270028Y578478D01*
X1268447Y579133D01*
X1266750Y579356D01*
X1249750D01*
X1248053Y579133D01*
X1246472Y578478D01*
X1245114Y577436D01*
X1244072Y576078D01*
X1243456Y574589D01*
X1242049Y573837D01*
X1238843Y571207D01*
X1236213Y568001D01*
X1234258Y564344D01*
X1233055Y560377D01*
X1232663Y556406D01*
X1232633Y556250D01*
Y460760D01*
X1232666Y460590D01*
X1233041Y455833D01*
X1234167Y451140D01*
X1233605Y450989D01*
X1231895Y450001D01*
X1230499Y448605D01*
X1229511Y446895D01*
X1229000Y444987D01*
Y443013D01*
X1229511Y441105D01*
X1230499Y439395D01*
X1230882Y439011D01*
X1232301Y434333D01*
X1234636Y429965D01*
X1237777Y426137D01*
X1241605Y422996D01*
X1245973Y420661D01*
X1250712Y419224D01*
X1255640Y418738D01*
Y418742D01*
X1258765D01*
Y418735D01*
X1259260Y416248D01*
X1259445Y415971D01*
X1258529Y415055D01*
X1258252Y415240D01*
X1255765Y415735D01*
X1243515D01*
X1241028Y415240D01*
X1239617Y414297D01*
X1225559D01*
X1225355Y414501D01*
X1223645Y415489D01*
X1221737Y416000D01*
X1219763D01*
X1217855Y415489D01*
X1216145Y414501D01*
X1214749Y413105D01*
X1213761Y411395D01*
X1213250Y409487D01*
Y407513D01*
X1213761Y405605D01*
X1214749Y403895D01*
X1214853Y403791D01*
X1214367Y402617D01*
X1185750D01*
X1185430Y402554D01*
X1182259Y402971D01*
X1179006Y404319D01*
X1176212Y406462D01*
X1174069Y409256D01*
X1173276Y411170D01*
X1174171Y412719D01*
X1174750Y414881D01*
Y417119D01*
X1174171Y419281D01*
X1173052Y421219D01*
X1171469Y422802D01*
X1170681Y423257D01*
X1169412Y425630D01*
X1167257Y428257D01*
X1164630Y430412D01*
X1161633Y432014D01*
X1158382Y433000D01*
X1155339Y433300D01*
X1155000Y433368D01*
X1130250D01*
Y433370D01*
X1125398Y432892D01*
X1120733Y431477D01*
X1116433Y429178D01*
X1112664Y426086D01*
X1109572Y422317D01*
X1107273Y418017D01*
X1105858Y413352D01*
X1105380Y408500D01*
X1105383D01*
Y335153D01*
X1104698Y334469D01*
X1103579Y332531D01*
X1103000Y330369D01*
Y328131D01*
X1102798Y327868D01*
X1101650D01*
X1101360Y327810D01*
X1097774Y328163D01*
X1094047Y329294D01*
X1090611Y331130D01*
X1087601Y333601D01*
X1085130Y336612D01*
X1083294Y340047D01*
X1082163Y343774D01*
X1081810Y347360D01*
X1081868Y347650D01*
Y406846D01*
X1081834Y407016D01*
X1081459Y411773D01*
X1080305Y416579D01*
X1078414Y421145D01*
X1075832Y425359D01*
X1072622Y429118D01*
X1068864Y432327D01*
X1064649Y434910D01*
X1060083Y436801D01*
X1055277Y437955D01*
X1051000Y438292D01*
Y442996D01*
X1029373D01*
X1028753Y444104D01*
X1029472Y445278D01*
X1030660Y448144D01*
X1031778Y449002D01*
X1031931Y449202D01*
X1040780D01*
Y449193D01*
X1045169Y449539D01*
X1049450Y450566D01*
X1053517Y452251D01*
X1057271Y454552D01*
X1060619Y457411D01*
X1063478Y460759D01*
X1065779Y464512D01*
X1067463Y468580D01*
X1068491Y472861D01*
X1068837Y477250D01*
X1068828D01*
Y594400D01*
X1068856D01*
X1068431Y599798D01*
X1067168Y605063D01*
X1065095Y610066D01*
X1062266Y614682D01*
X1058750Y618800D01*
X1054632Y622316D01*
X1050016Y625145D01*
X1045013Y627217D01*
X1039748Y628481D01*
X1034350Y628906D01*
Y628878D01*
X1027557D01*
X1026232Y630203D01*
X1023268Y631914D01*
X1019961Y632800D01*
X1016538D01*
X1013232Y631914D01*
X1010268Y630203D01*
X1007847Y627782D01*
X1006136Y624818D01*
X1005250Y621511D01*
Y618088D01*
X1006136Y614782D01*
X1007847Y611818D01*
X1010268Y609397D01*
X1013232Y607686D01*
X1016538Y606800D01*
X1019961D01*
X1023268Y607686D01*
X1026232Y609397D01*
X1027557Y610722D01*
X1034350D01*
X1034478Y610739D01*
X1037540Y610438D01*
X1040608Y609507D01*
X1043435Y607996D01*
X1045912Y605962D01*
X1047946Y603484D01*
X1049457Y600658D01*
X1050388Y597590D01*
X1050689Y594528D01*
X1050672Y594400D01*
Y477250D01*
X1050690Y477115D01*
X1050370Y474680D01*
X1049378Y472286D01*
X1047800Y470230D01*
X1045744Y468652D01*
X1043349Y467660D01*
X1040915Y467340D01*
X1040780Y467357D01*
X1031931D01*
X1031778Y467557D01*
X1030159Y468799D01*
X1028273Y469580D01*
X1026250Y469847D01*
X1020750D01*
X1018727Y469580D01*
X1016842Y468799D01*
X1015223Y467557D01*
X1013981Y465938D01*
X1013200Y464053D01*
X1012933Y462030D01*
Y454530D01*
X1013114Y453155D01*
X1013061Y453026D01*
X1011398Y450859D01*
X1009231Y449196D01*
X1009036Y449115D01*
X1008966Y449169D01*
X1007355Y449836D01*
X1005625Y450064D01*
X1002375D01*
X1000646Y449836D01*
X999034Y449169D01*
X997650Y448107D01*
X996588Y446723D01*
X995920Y445111D01*
X995693Y443382D01*
Y442220D01*
X995232Y441106D01*
X994922Y438757D01*
X995232Y436408D01*
X995693Y435294D01*
Y434132D01*
X995920Y432402D01*
X996588Y430791D01*
X997179Y430020D01*
X996949Y428457D01*
X996494Y428214D01*
X993222Y425528D01*
X990536Y422256D01*
X989731Y420751D01*
X989534Y420669D01*
X988150Y419607D01*
X987088Y418223D01*
X986421Y416611D01*
X986193Y414882D01*
Y413660D01*
X984158Y412099D01*
X981959Y409232D01*
X980781Y408552D01*
X979198Y406969D01*
X978079Y405031D01*
X977500Y402869D01*
Y400631D01*
X978079Y398469D01*
X979198Y396531D01*
X980781Y394948D01*
X982719Y393829D01*
X984881Y393250D01*
X987119D01*
X989281Y393829D01*
X991219Y394948D01*
X992802Y396531D01*
X993921Y398469D01*
X994050Y398950D01*
X996125D01*
X997855Y399178D01*
X999466Y399845D01*
X1000850Y400907D01*
X1001912Y402291D01*
X1002579Y403903D01*
X1002807Y405632D01*
Y413206D01*
X1003903Y414847D01*
X1006009Y416254D01*
X1008304Y416710D01*
X1008493Y416685D01*
X1031254D01*
Y416675D01*
X1034292Y416974D01*
X1037213Y417860D01*
X1039905Y419299D01*
X1042264Y421236D01*
X1042478Y421496D01*
X1051000D01*
Y425202D01*
X1051941Y426055D01*
X1054128Y425840D01*
X1057761Y424738D01*
X1061109Y422948D01*
X1064044Y420540D01*
X1066452Y417605D01*
X1068242Y414257D01*
X1069344Y410624D01*
X1069688Y407127D01*
X1069632Y406846D01*
Y347650D01*
X1069664Y347493D01*
X1070045Y342644D01*
X1070795Y339520D01*
X1069794Y338250D01*
X1068631D01*
X1067875Y338047D01*
X1066868Y338821D01*
Y359998D01*
X1066821Y360233D01*
X1066482Y364533D01*
X1065421Y368956D01*
X1063680Y373159D01*
X1061303Y377038D01*
X1058349Y380497D01*
X1054890Y383451D01*
X1051011Y385828D01*
X1046808Y387569D01*
X1042385Y388631D01*
X1038084Y388969D01*
X1037850Y389016D01*
X861660D01*
X861162Y390219D01*
X860100Y391603D01*
X858716Y392665D01*
X857104Y393332D01*
X855375Y393560D01*
X852125D01*
X850395Y393332D01*
X848784Y392665D01*
X847400Y391603D01*
X846525Y390463D01*
X829250D01*
Y394648D01*
X796750D01*
Y396119D01*
X796171Y398281D01*
X795052Y400219D01*
X793469Y401802D01*
X791531Y402921D01*
X789369Y403500D01*
X787131D01*
X784969Y402921D01*
X783031Y401802D01*
X781448Y400219D01*
X780329Y398281D01*
X779750Y396119D01*
Y393881D01*
X779902Y393315D01*
X779129Y392307D01*
X774125D01*
X772395Y392080D01*
X770784Y391412D01*
X769400Y390350D01*
X768338Y388966D01*
X767670Y387355D01*
X767443Y385625D01*
Y382375D01*
X767670Y380645D01*
X768338Y379034D01*
X769400Y377650D01*
X770185Y377047D01*
Y363380D01*
X769085Y362745D01*
X768781Y362921D01*
X766619Y363500D01*
X764381D01*
X762219Y362921D01*
X760281Y361802D01*
X758698Y360219D01*
X757579Y358281D01*
X757000Y356119D01*
Y353881D01*
X757301Y352758D01*
X756528Y351750D01*
X748500D01*
Y348750D01*
X747131D01*
X744969Y348171D01*
X744352Y347814D01*
X737750D01*
Y359453D01*
X738178Y360487D01*
X738608Y363750D01*
X738565D01*
Y385685D01*
X743257D01*
X743896Y385421D01*
X745625Y385193D01*
X754875D01*
X756605Y385421D01*
X758216Y386088D01*
X759600Y387150D01*
X760662Y388534D01*
X761330Y390146D01*
X761557Y391875D01*
Y395125D01*
X761330Y396855D01*
X760662Y398466D01*
X759600Y399850D01*
X758216Y400912D01*
X756605Y401580D01*
X754875Y401807D01*
X745625D01*
X743896Y401580D01*
X742284Y400912D01*
X742157Y400815D01*
X737327D01*
X737140Y401002D01*
X734860Y402318D01*
X734674Y402368D01*
X734345Y403595D01*
X775250Y444500D01*
Y699750D01*
X1302250D01*
Y614367D01*
D02*
G37*
G36*
X1575398Y582878D02*
X1576795Y581944D01*
X1577729Y580547D01*
X1578020Y579083D01*
X1577983Y578898D01*
Y539531D01*
X1578028Y539308D01*
X1577799Y536989D01*
X1576878Y536347D01*
X1575695Y536689D01*
X1575671Y536781D01*
X1574552Y538719D01*
X1572969Y540302D01*
X1571031Y541421D01*
X1568869Y542000D01*
X1567368D01*
Y565847D01*
X1568052Y566531D01*
X1569171Y568469D01*
X1569750Y570631D01*
Y572869D01*
X1569171Y575031D01*
X1568052Y576969D01*
X1566469Y578552D01*
X1564531Y579671D01*
X1563529Y579939D01*
X1563350Y581302D01*
X1564469Y581948D01*
X1565653Y583133D01*
X1573749D01*
X1573934Y583169D01*
X1575398Y582878D01*
D02*
G37*
G36*
X1544962Y589703D02*
X1550750D01*
Y587631D01*
X1551329Y585469D01*
X1552448Y583531D01*
X1554031Y581948D01*
X1555969Y580829D01*
X1556971Y580561D01*
X1557150Y579198D01*
X1556031Y578552D01*
X1554448Y576969D01*
X1553329Y575031D01*
X1552750Y572869D01*
Y570631D01*
X1553329Y568469D01*
X1554448Y566531D01*
X1555132Y565847D01*
Y541500D01*
X1555183Y541245D01*
X1554843Y538662D01*
X1553748Y536017D01*
X1552005Y533745D01*
X1549733Y532002D01*
X1547088Y530907D01*
X1544891Y530617D01*
X1544250D01*
X1544152Y530598D01*
X1539888Y530178D01*
X1537158Y529350D01*
X1536421Y530453D01*
X1537473Y531735D01*
X1539887Y536252D01*
X1541374Y541153D01*
X1541876Y546250D01*
X1541868D01*
Y589270D01*
X1542481Y589680D01*
X1543138Y589943D01*
X1544962Y589703D01*
D02*
G37*
G36*
X1300452Y526836D02*
X1302250Y526291D01*
Y510750D01*
X1313633Y499367D01*
Y439000D01*
X1313681Y438755D01*
X1313265Y437485D01*
X1310778Y436990D01*
X1308669Y435581D01*
X1307475Y433794D01*
X1306205Y434179D01*
Y437710D01*
X1306255D01*
X1305797Y441190D01*
X1304454Y444432D01*
X1302317Y447217D01*
X1302310Y447223D01*
Y449820D01*
Y467600D01*
Y490600D01*
X1301250D01*
Y492619D01*
X1300671Y494781D01*
X1299552Y496719D01*
X1297969Y498302D01*
X1296031Y499421D01*
X1293869Y500000D01*
X1291631D01*
X1289469Y499421D01*
X1287531Y498302D01*
X1285948Y496719D01*
X1284829Y494781D01*
X1284250Y492619D01*
Y490600D01*
X1283310D01*
Y467600D01*
Y449820D01*
Y441478D01*
X1264150D01*
X1263868Y441422D01*
X1260372Y441766D01*
X1256739Y442868D01*
X1253391Y444658D01*
X1250456Y447066D01*
X1248047Y450001D01*
X1246258Y453349D01*
X1245156Y456982D01*
X1244811Y460478D01*
X1244867Y460760D01*
Y525653D01*
X1246137Y526279D01*
X1246472Y526022D01*
X1248053Y525367D01*
X1249750Y525144D01*
X1266750D01*
X1268447Y525367D01*
X1270028Y526022D01*
X1271386Y527064D01*
X1271400Y527082D01*
X1297240D01*
X1297475Y527129D01*
X1300452Y526836D01*
D02*
G37*
G36*
X426081Y497531D02*
X425930Y497620D01*
X425480Y497700D01*
X424730Y497770D01*
X420681Y497925D01*
X411081Y498000D01*
Y513000D01*
X426081Y513470D01*
Y497531D01*
D02*
G37*
G36*
X1521882Y478465D02*
Y466750D01*
X1521919Y466567D01*
X1521664Y464630D01*
X1520845Y462653D01*
X1519543Y460957D01*
X1517847Y459655D01*
X1515871Y458836D01*
X1513934Y458581D01*
X1513750Y458618D01*
X1497000D01*
X1496897Y458597D01*
X1491665Y458185D01*
X1486461Y456936D01*
X1481517Y454888D01*
X1481419Y454828D01*
X1480681Y455866D01*
X1481342Y456408D01*
X1484216Y459910D01*
X1486352Y463906D01*
X1487667Y468241D01*
X1488105Y472687D01*
X1488118Y472750D01*
Y476164D01*
X1488881Y476750D01*
X1491119D01*
X1493281Y477329D01*
X1493632Y477532D01*
X1494718Y476699D01*
X1496542Y475943D01*
X1498500Y475685D01*
X1514500D01*
X1516458Y475943D01*
X1518282Y476699D01*
X1519849Y477901D01*
X1520612Y478896D01*
X1521882Y478465D01*
D02*
G37*
G36*
X1632642Y419117D02*
X1632668Y418917D01*
X1632409Y416948D01*
X1631572Y414928D01*
X1631001Y414183D01*
X1612816D01*
Y410791D01*
X1565500D01*
Y418000D01*
X1527500D01*
Y415608D01*
X1518303D01*
X1516093Y416200D01*
X1512407D01*
X1508846Y415246D01*
X1505654Y413403D01*
X1503047Y410796D01*
X1501204Y407604D01*
X1500250Y404043D01*
Y400357D01*
X1501204Y396796D01*
X1503047Y393604D01*
X1505654Y390997D01*
X1507147Y390135D01*
Y388865D01*
X1505654Y388003D01*
X1503047Y385396D01*
X1501204Y382204D01*
X1500250Y378643D01*
Y374957D01*
X1501204Y371396D01*
X1503047Y368204D01*
X1505654Y365597D01*
X1508846Y363754D01*
X1512407Y362800D01*
X1516093D01*
X1519197Y363632D01*
X1521792Y362557D01*
X1524460Y360510D01*
X1525750Y358828D01*
Y351514D01*
X1523408Y349592D01*
X1520534Y346090D01*
X1518398Y342094D01*
X1517083Y337759D01*
X1516639Y333250D01*
X1516642D01*
Y327006D01*
X1515004Y326791D01*
X1513028Y325972D01*
X1511330Y324670D01*
X1510028Y322972D01*
X1509209Y320996D01*
X1508930Y318875D01*
Y318585D01*
X1508072Y316513D01*
X1507642Y313250D01*
X1508072Y309987D01*
X1508930Y307915D01*
Y307625D01*
X1509209Y305504D01*
X1510028Y303528D01*
X1511330Y301830D01*
X1513028Y300528D01*
X1515004Y299709D01*
X1517125Y299430D01*
X1523375D01*
X1525496Y299709D01*
X1527473Y300528D01*
X1529170Y301830D01*
X1530222Y303202D01*
X1532253Y304287D01*
X1535526Y306974D01*
X1536160Y307745D01*
X1536732Y307691D01*
X1537468Y307337D01*
X1537709Y305504D01*
X1538528Y303528D01*
X1539830Y301830D01*
X1541527Y300528D01*
X1543504Y299709D01*
X1545625Y299430D01*
X1551875D01*
X1553622Y299660D01*
X1554892Y298872D01*
Y292250D01*
X1554989Y291514D01*
X1555250Y288868D01*
X1556236Y285617D01*
X1557838Y282620D01*
X1559993Y279993D01*
X1560801Y279331D01*
X1561047Y278904D01*
X1563654Y276297D01*
X1566846Y274454D01*
X1570407Y273500D01*
X1574093D01*
X1577654Y274454D01*
X1580846Y276297D01*
X1583453Y278904D01*
X1584315Y280397D01*
X1585585D01*
X1586447Y278904D01*
X1587564Y277787D01*
Y268865D01*
X1587390Y268818D01*
X1586818Y268488D01*
X1586207Y268235D01*
X1585682Y267833D01*
X1585110Y267502D01*
X1584642Y267034D01*
X1584118Y266632D01*
X1583715Y266108D01*
X1583248Y265640D01*
X1582917Y265068D01*
X1582515Y264543D01*
X1582262Y263932D01*
X1581931Y263360D01*
X1581760Y262721D01*
X1581507Y262111D01*
X1581421Y261455D01*
X1581250Y260816D01*
Y260155D01*
X1581164Y259500D01*
X1581250Y258845D01*
Y258183D01*
X1581421Y257545D01*
X1581507Y256889D01*
X1581760Y256279D01*
X1581931Y255640D01*
X1582262Y255068D01*
X1582515Y254457D01*
X1582917Y253932D01*
X1583248Y253360D01*
X1583715Y252892D01*
X1584118Y252368D01*
X1584642Y251965D01*
X1585110Y251498D01*
X1585682Y251168D01*
X1586207Y250765D01*
X1586818Y250512D01*
X1587390Y250182D01*
X1588029Y250010D01*
X1588640Y249757D01*
X1589295Y249671D01*
X1589933Y249500D01*
X1590595D01*
X1591250Y249414D01*
Y249421D01*
X1592056Y249500D01*
X1592567D01*
X1592863Y249580D01*
X1594465Y249737D01*
X1597556Y250675D01*
X1600405Y252198D01*
X1602903Y254247D01*
X1604952Y256744D01*
X1606475Y259594D01*
X1607413Y262685D01*
X1607709Y265691D01*
X1607736Y265900D01*
Y277787D01*
X1608853Y278904D01*
X1610696Y282096D01*
X1611650Y285657D01*
Y289343D01*
X1610777Y292599D01*
X1611893Y295292D01*
X1613940Y297960D01*
X1616608Y300007D01*
X1619716Y301294D01*
X1622358Y301642D01*
X1655053D01*
X1655277Y299944D01*
X1656360Y297329D01*
X1658083Y295083D01*
X1660329Y293360D01*
X1662944Y292277D01*
X1665750Y291907D01*
X1687250D01*
X1690056Y292277D01*
X1692671Y293360D01*
X1694917Y295083D01*
X1696640Y297329D01*
X1697723Y299944D01*
X1698093Y302750D01*
Y314250D01*
X1697723Y317056D01*
X1696640Y319671D01*
X1696814Y320318D01*
X1698566Y321044D01*
X1701554Y321438D01*
X1701900Y321392D01*
X1714883D01*
X1715409Y320122D01*
X1713849Y318562D01*
X1712207Y316105D01*
X1711077Y313375D01*
X1710500Y310477D01*
Y307523D01*
X1711077Y304625D01*
X1712207Y301895D01*
X1713849Y299438D01*
X1715938Y297349D01*
X1716258Y297135D01*
Y295865D01*
X1715938Y295651D01*
X1713849Y293562D01*
X1712207Y291105D01*
X1711798Y290117D01*
X1670900D01*
X1670730Y290084D01*
X1665973Y289709D01*
X1661167Y288556D01*
X1656601Y286664D01*
X1652386Y284082D01*
X1648628Y280872D01*
X1645418Y277113D01*
X1642836Y272899D01*
X1640945Y268333D01*
X1639791Y263527D01*
X1639416Y258770D01*
X1639382Y258600D01*
Y245500D01*
X1639423Y245297D01*
X1639145Y243184D01*
X1638251Y241025D01*
X1636828Y239172D01*
X1634975Y237749D01*
X1632816Y236855D01*
X1630703Y236577D01*
X1630500Y236618D01*
X1532900D01*
X1532704Y236579D01*
X1528130Y236219D01*
X1523477Y235102D01*
X1519056Y233270D01*
X1514976Y230770D01*
X1511337Y227663D01*
X1508230Y224024D01*
X1505730Y219944D01*
X1503898Y215523D01*
X1502781Y210870D01*
X1502421Y206296D01*
X1502383Y206100D01*
Y74400D01*
X1502439Y74118D01*
X1502094Y70622D01*
X1500992Y66989D01*
X1499203Y63641D01*
X1496794Y60706D01*
X1493859Y58298D01*
X1490511Y56508D01*
X1486878Y55406D01*
X1483382Y55061D01*
X1483100Y55118D01*
X1297000D01*
Y61945D01*
X1298270Y62339D01*
X1298719Y62079D01*
X1300881Y61500D01*
X1303119D01*
X1305281Y62079D01*
X1307219Y63198D01*
X1308802Y64781D01*
X1309921Y66719D01*
X1310500Y68881D01*
Y71119D01*
X1309921Y73281D01*
X1308802Y75219D01*
X1307219Y76802D01*
X1305281Y77921D01*
X1303119Y78500D01*
X1300881D01*
X1298719Y77921D01*
X1298103Y77565D01*
X1292250D01*
Y77617D01*
X1288726Y77153D01*
X1285442Y75792D01*
X1285387Y75750D01*
X1271039D01*
X1269895Y77145D01*
X1267078Y79457D01*
X1263864Y81174D01*
X1260377Y82232D01*
X1256750Y82590D01*
Y82565D01*
X1243300D01*
Y107000D01*
X1211200D01*
Y82559D01*
X1210350Y81665D01*
X1199654D01*
X1198806Y82935D01*
X1199083Y83603D01*
X1199306Y85300D01*
Y88300D01*
X1199083Y89997D01*
X1198428Y91578D01*
X1197386Y92936D01*
Y93364D01*
X1198428Y94722D01*
X1199083Y96303D01*
X1199306Y98000D01*
Y101000D01*
X1199083Y102697D01*
X1198428Y104278D01*
X1197386Y105636D01*
X1196028Y106678D01*
X1194447Y107333D01*
X1192750Y107556D01*
X1181250D01*
X1179553Y107333D01*
X1177972Y106678D01*
X1176614Y105636D01*
X1175572Y104278D01*
X1174917Y102697D01*
X1174694Y101000D01*
Y98000D01*
X1174917Y96303D01*
X1175572Y94722D01*
X1176614Y93364D01*
Y92936D01*
X1175572Y91578D01*
X1174917Y89997D01*
X1174694Y88300D01*
Y87211D01*
X1173424Y87022D01*
X1173139Y87960D01*
X1171700Y90653D01*
X1169763Y93013D01*
X1167403Y94950D01*
X1164710Y96389D01*
X1161788Y97276D01*
X1158750Y97575D01*
Y97565D01*
X1145188D01*
X1144806Y98000D01*
Y101000D01*
X1144583Y102697D01*
X1144158Y103723D01*
X1144434Y104521D01*
X1144695Y104960D01*
X1144879Y105124D01*
X1149102Y106405D01*
X1153237Y108615D01*
X1156861Y111589D01*
X1159835Y115213D01*
X1162045Y119348D01*
X1163406Y123834D01*
X1163865Y128500D01*
X1163815D01*
Y149321D01*
X1163875D01*
X1163379Y153088D01*
X1161925Y156598D01*
X1159612Y159612D01*
X1156598Y161925D01*
X1156250Y162069D01*
Y164435D01*
X1171750D01*
Y161250D01*
Y142750D01*
X1174352D01*
X1175200Y141480D01*
X1174917Y140797D01*
X1174694Y139100D01*
Y136100D01*
X1174917Y134403D01*
X1175572Y132822D01*
X1176614Y131464D01*
Y131036D01*
X1175572Y129678D01*
X1174917Y128097D01*
X1174694Y126400D01*
Y123400D01*
X1174917Y121703D01*
X1175572Y120122D01*
X1176614Y118764D01*
X1177972Y117722D01*
X1179553Y117067D01*
X1181250Y116844D01*
X1192750D01*
X1194447Y117067D01*
X1196028Y117722D01*
X1197386Y118764D01*
X1198428Y120122D01*
X1198925Y121321D01*
X1199275Y121766D01*
X1200421Y122141D01*
X1201881Y121750D01*
X1204119D01*
X1206281Y122329D01*
X1208219Y123448D01*
X1209802Y125031D01*
X1210921Y126969D01*
X1211500Y129131D01*
Y131369D01*
X1210921Y133531D01*
X1209802Y135469D01*
X1208219Y137052D01*
X1206494Y138048D01*
X1205171Y139771D01*
X1202383Y141911D01*
X1199135Y143256D01*
X1197598Y143459D01*
X1197386Y143736D01*
X1196028Y144778D01*
X1195250Y145100D01*
Y150901D01*
X1196441Y151340D01*
X1197878Y149658D01*
X1201637Y146448D01*
X1205851Y143866D01*
X1210417Y141974D01*
X1215223Y140821D01*
X1219980Y140446D01*
X1220150Y140412D01*
X1258610D01*
X1258624Y140394D01*
X1259982Y139352D01*
X1261563Y138697D01*
X1263260Y138474D01*
X1280260D01*
X1281957Y138697D01*
X1283538Y139352D01*
X1284823Y140338D01*
X1288244D01*
X1288929Y139654D01*
X1290867Y138535D01*
X1293029Y137956D01*
X1295267D01*
X1297428Y138535D01*
X1299367Y139654D01*
X1300949Y141237D01*
X1302068Y143175D01*
X1302648Y145337D01*
Y147575D01*
X1302068Y149737D01*
X1300949Y151675D01*
X1299367Y153258D01*
X1297428Y154377D01*
X1295267Y154956D01*
X1293029D01*
X1290867Y154377D01*
X1288929Y153258D01*
X1288244Y152573D01*
X1286097D01*
X1285471Y153843D01*
X1285938Y154452D01*
X1286593Y156033D01*
X1286816Y157730D01*
Y160730D01*
X1286593Y162427D01*
X1285938Y164008D01*
X1284896Y165366D01*
Y165794D01*
X1285938Y167152D01*
X1286593Y168733D01*
X1286816Y170430D01*
Y170751D01*
X1288086Y171091D01*
X1288698Y170031D01*
X1290281Y168448D01*
X1292219Y167329D01*
X1294381Y166750D01*
X1296619D01*
X1298781Y167329D01*
X1300719Y168448D01*
X1302302Y170031D01*
X1303421Y171969D01*
X1304000Y174131D01*
Y176369D01*
X1303421Y178531D01*
X1302302Y180469D01*
X1300949Y181821D01*
X1300867Y183260D01*
X1301960Y183930D01*
X1305325Y186805D01*
X1308200Y190170D01*
X1310513Y193944D01*
X1312206Y198034D01*
X1313240Y202337D01*
X1313567Y206495D01*
X1313618Y206750D01*
X1313566Y207012D01*
X1313913Y209654D01*
X1315034Y212360D01*
X1316817Y214683D01*
X1319140Y216466D01*
X1321846Y217587D01*
X1324488Y217934D01*
X1324750Y217882D01*
X1351775D01*
X1352206Y216612D01*
X1351624Y216166D01*
X1350582Y214808D01*
X1349927Y213227D01*
X1349704Y211530D01*
Y208530D01*
X1349927Y206833D01*
X1350582Y205252D01*
X1351624Y203894D01*
X1352982Y202852D01*
X1354563Y202197D01*
X1356260Y201974D01*
X1373260D01*
X1374957Y202197D01*
X1375604Y202465D01*
X1386710D01*
Y202447D01*
X1387716Y202580D01*
X1428634D01*
X1429390Y201560D01*
X1428965Y200157D01*
X1428678Y197250D01*
X1428685D01*
Y190315D01*
X1415680D01*
Y190331D01*
X1412412Y190009D01*
X1409270Y189056D01*
X1406374Y187508D01*
X1403836Y185424D01*
X1401911Y183080D01*
X1400510D01*
Y183080D01*
X1379860D01*
X1379816Y183130D01*
Y186130D01*
X1379593Y187827D01*
X1378938Y189408D01*
X1377896Y190766D01*
X1376538Y191807D01*
X1374957Y192463D01*
X1373260Y192686D01*
X1356260D01*
X1354563Y192463D01*
X1352982Y191807D01*
X1351624Y190766D01*
X1350582Y189408D01*
X1349927Y187827D01*
X1349704Y186130D01*
Y183130D01*
X1349927Y181433D01*
X1350582Y179852D01*
X1351624Y178494D01*
Y178066D01*
X1350582Y176708D01*
X1349927Y175127D01*
X1349704Y173430D01*
Y170430D01*
X1349927Y168733D01*
X1350582Y167152D01*
X1351624Y165794D01*
Y165366D01*
X1350582Y164008D01*
X1349927Y162427D01*
X1349704Y160730D01*
Y157730D01*
X1349927Y156033D01*
X1350582Y154452D01*
X1351624Y153094D01*
Y152666D01*
X1350582Y151308D01*
X1349927Y149727D01*
X1349704Y148030D01*
Y145030D01*
X1349927Y143333D01*
X1350582Y141752D01*
X1351624Y140394D01*
X1352982Y139352D01*
X1354563Y138697D01*
X1356260Y138474D01*
X1373260D01*
X1374957Y138697D01*
X1375990Y139125D01*
X1377260Y138415D01*
Y127080D01*
X1400260D01*
Y129015D01*
X1438287D01*
X1438564Y128820D01*
X1439041Y128201D01*
X1439192Y127769D01*
X1438750Y126119D01*
Y123881D01*
X1439329Y121719D01*
X1440448Y119781D01*
X1442031Y118198D01*
X1443969Y117079D01*
X1446131Y116500D01*
X1448369D01*
X1450531Y117079D01*
X1452469Y118198D01*
X1454052Y119781D01*
X1455171Y121719D01*
X1455750Y123881D01*
Y126119D01*
X1455171Y128281D01*
X1454815Y128897D01*
Y134330D01*
X1459010D01*
Y137926D01*
X1459091Y137934D01*
X1463699Y139331D01*
X1467945Y141601D01*
X1471667Y144656D01*
X1474722Y148378D01*
X1476099Y150955D01*
X1481993D01*
X1484081Y151229D01*
X1486027Y152036D01*
X1487699Y153318D01*
X1488981Y154989D01*
X1489787Y156935D01*
X1490062Y159024D01*
Y165024D01*
X1489787Y167112D01*
X1488981Y169058D01*
X1487699Y170729D01*
X1486027Y172012D01*
X1484081Y172818D01*
X1481993Y173093D01*
X1464971D01*
X1464750Y173381D01*
Y175619D01*
X1465355Y176407D01*
X1482007D01*
X1484095Y176682D01*
X1486042Y177488D01*
X1487713Y178771D01*
X1488995Y180442D01*
X1489801Y182388D01*
X1489891Y183071D01*
X1491684Y184542D01*
X1493655Y186944D01*
X1495120Y189685D01*
X1495300Y190280D01*
X1495552Y190531D01*
X1496671Y192469D01*
X1497250Y194631D01*
Y196869D01*
X1496671Y199031D01*
X1495552Y200969D01*
X1493969Y202552D01*
X1492031Y203671D01*
X1489869Y204250D01*
X1487631D01*
X1485469Y203671D01*
X1483531Y202552D01*
X1481948Y200969D01*
X1480829Y199031D01*
X1480699Y198545D01*
X1476135D01*
X1474710Y201212D01*
X1471635Y204958D01*
X1467889Y208033D01*
X1463614Y210317D01*
X1459260Y211638D01*
Y215330D01*
X1444750D01*
Y216869D01*
X1444171Y219031D01*
X1443052Y220969D01*
X1441469Y222552D01*
X1439531Y223671D01*
X1437369Y224250D01*
X1435131D01*
X1432969Y223671D01*
X1431031Y222552D01*
X1430059Y221580D01*
X1377260D01*
Y217595D01*
X1375604D01*
X1374957Y217862D01*
X1373260Y218086D01*
X1365364D01*
X1365214Y219356D01*
X1365583Y219445D01*
X1370149Y221336D01*
X1374364Y223918D01*
X1378122Y227128D01*
X1381332Y230886D01*
X1383914Y235101D01*
X1385806Y239667D01*
X1386959Y244473D01*
X1387276Y248500D01*
X1388869D01*
X1391031Y249079D01*
X1392969Y250198D01*
X1393653Y250882D01*
X1443600D01*
X1443770Y250916D01*
X1448527Y251291D01*
X1453333Y252444D01*
X1457899Y254336D01*
X1462113Y256918D01*
X1465872Y260128D01*
X1469082Y263887D01*
X1470612Y266384D01*
X1471882Y266026D01*
Y264146D01*
X1471957Y263771D01*
X1472275Y261353D01*
X1473353Y258751D01*
X1474479Y257284D01*
X1474779Y256166D01*
X1475898Y254228D01*
X1477480Y252645D01*
X1479418Y251526D01*
X1481580Y250947D01*
X1483818D01*
X1485980Y251526D01*
X1487918Y252645D01*
X1489501Y254228D01*
X1490620Y256166D01*
X1491199Y258328D01*
Y260566D01*
X1490620Y262728D01*
X1489501Y264666D01*
X1487918Y266249D01*
X1485980Y267368D01*
X1484117Y267867D01*
Y425924D01*
X1484074Y426145D01*
X1484352Y428969D01*
X1485240Y431897D01*
X1486682Y434596D01*
X1488623Y436961D01*
X1490989Y438902D01*
X1493687Y440344D01*
X1496615Y441233D01*
X1499439Y441511D01*
X1499660Y441467D01*
X1511850D01*
X1512020Y441501D01*
X1516777Y441875D01*
X1521583Y443029D01*
X1526149Y444920D01*
X1530363Y447503D01*
X1534122Y450713D01*
X1537332Y454471D01*
X1539914Y458685D01*
X1541806Y463251D01*
X1542959Y468057D01*
X1543334Y472814D01*
X1543368Y472984D01*
Y475098D01*
X1543432Y475145D01*
X1544638Y475535D01*
X1544932Y475241D01*
X1545435Y474585D01*
X1546091Y474082D01*
X1546675Y473498D01*
X1547390Y473084D01*
X1548046Y472581D01*
X1548810Y472265D01*
X1549525Y471852D01*
X1550323Y471638D01*
X1551087Y471322D01*
X1551906Y471214D01*
X1552704Y471000D01*
X1553531D01*
X1554350Y470892D01*
X1555169Y471000D01*
X1555996D01*
X1556794Y471214D01*
X1557613Y471322D01*
X1558377Y471638D01*
X1559175Y471852D01*
X1559890Y472265D01*
X1560654Y472581D01*
X1561310Y473084D01*
X1562025Y473498D01*
X1562609Y474082D01*
X1563265Y474585D01*
X1563768Y475241D01*
X1564353Y475825D01*
X1564766Y476540D01*
X1565269Y477196D01*
X1565585Y477960D01*
X1565998Y478675D01*
X1566212Y479473D01*
X1566528Y480237D01*
X1566636Y481056D01*
X1566850Y481854D01*
Y482681D01*
X1566958Y483500D01*
Y484850D01*
X1566912Y485196D01*
X1567306Y488184D01*
X1568593Y491292D01*
X1570456Y493720D01*
X1571414Y494550D01*
X1572304Y495021D01*
X1572293Y495061D01*
X1572600Y495188D01*
X1577696Y496918D01*
X1577737Y496938D01*
X1578896Y497453D01*
X1580065Y497642D01*
X1632642D01*
Y419117D01*
D02*
G37*
G36*
X1475477Y450831D02*
X1472884Y448616D01*
X1469408Y444547D01*
X1466612Y439983D01*
X1464564Y435039D01*
X1463315Y429835D01*
X1462903Y424603D01*
X1462883Y424500D01*
Y282400D01*
X1462939Y282118D01*
X1462594Y278622D01*
X1461492Y274989D01*
X1459702Y271641D01*
X1457294Y268706D01*
X1454359Y266297D01*
X1451011Y264508D01*
X1447378Y263406D01*
X1443882Y263062D01*
X1443600Y263118D01*
X1393653D01*
X1392969Y263802D01*
X1391031Y264921D01*
X1388869Y265500D01*
X1387368D01*
Y334250D01*
X1387361Y334283D01*
X1386908Y338878D01*
X1385558Y343329D01*
X1383366Y347430D01*
X1381151Y350130D01*
X1381751Y351400D01*
X1428630D01*
Y352174D01*
X1429381Y352750D01*
X1431619D01*
X1433781Y353329D01*
X1435719Y354448D01*
X1437302Y356031D01*
X1438421Y357969D01*
X1439000Y360131D01*
Y362369D01*
X1438421Y364531D01*
X1437302Y366469D01*
X1435719Y368052D01*
X1433781Y369171D01*
X1431619Y369750D01*
X1429381D01*
X1428630Y370326D01*
Y370400D01*
X1385547D01*
X1384923Y371213D01*
X1381902Y373531D01*
X1378385Y374988D01*
X1374610Y375485D01*
Y375425D01*
X1372959D01*
X1372574Y376695D01*
X1374361Y377889D01*
X1375770Y379998D01*
X1376265Y382485D01*
Y385235D01*
X1375770Y387722D01*
X1375678Y387860D01*
X1375770Y387998D01*
X1376265Y390485D01*
Y392750D01*
X1377487D01*
X1379395Y393261D01*
X1381105Y394249D01*
X1382502Y395645D01*
X1383489Y397355D01*
X1384000Y399263D01*
Y401237D01*
X1383489Y403145D01*
X1382502Y404855D01*
X1381105Y406251D01*
X1380286Y406725D01*
X1380159Y408264D01*
X1380948Y408912D01*
X1383993Y412621D01*
X1386255Y416853D01*
X1387648Y421445D01*
X1388118Y426220D01*
X1388118D01*
Y433485D01*
X1388072Y433716D01*
X1388360Y436649D01*
X1389283Y439691D01*
X1390782Y442494D01*
X1392798Y444952D01*
X1395256Y446968D01*
X1398059Y448467D01*
X1401101Y449389D01*
X1404034Y449678D01*
X1404265Y449632D01*
X1465000D01*
X1465063Y449645D01*
X1469509Y450083D01*
X1473844Y451398D01*
X1474757Y451886D01*
X1475477Y450831D01*
D02*
G37*
G36*
X1130250Y421133D02*
X1155000D01*
X1155229Y421178D01*
X1156999Y420826D01*
X1158603Y419754D01*
X1158329Y419281D01*
X1157750Y417119D01*
Y414881D01*
X1158329Y412719D01*
X1159448Y410781D01*
X1161031Y409198D01*
X1161195Y409104D01*
X1162077Y406194D01*
X1164445Y401764D01*
X1167632Y397882D01*
X1171514Y394695D01*
X1175944Y392327D01*
X1180751Y390869D01*
X1185750Y390377D01*
Y390382D01*
X1225500D01*
Y389513D01*
X1226011Y387605D01*
X1226999Y385895D01*
X1228395Y384498D01*
X1230105Y383511D01*
X1231182Y383223D01*
X1232335Y382840D01*
X1232453Y382513D01*
X1232671Y382187D01*
X1232890Y381762D01*
X1232964Y381582D01*
X1234166Y380015D01*
X1235733Y378813D01*
X1236609Y378450D01*
X1236698Y378382D01*
X1236910Y378325D01*
X1237074Y378216D01*
X1237205Y378190D01*
X1237015Y377235D01*
Y374485D01*
X1237510Y371998D01*
X1238919Y369889D01*
X1240706Y368695D01*
X1240321Y367425D01*
X1237610D01*
Y367455D01*
X1233766Y367076D01*
X1230069Y365955D01*
X1226663Y364134D01*
X1223677Y361683D01*
X1221269Y358750D01*
X1212500D01*
Y356065D01*
X1209648D01*
X1209031Y356421D01*
X1206869Y357000D01*
X1204631D01*
X1202469Y356421D01*
X1200531Y355302D01*
X1198948Y353719D01*
X1197829Y351781D01*
X1197250Y349619D01*
Y347381D01*
X1197829Y345219D01*
X1198948Y343281D01*
X1200531Y341698D01*
X1202469Y340579D01*
X1204631Y340000D01*
X1206869D01*
X1209031Y340579D01*
X1209648Y340935D01*
X1212500D01*
Y336750D01*
X1228182D01*
X1228523Y335480D01*
X1227781Y335052D01*
X1226198Y333469D01*
X1225079Y331531D01*
X1224500Y329369D01*
Y327868D01*
X1120202D01*
X1120000Y328131D01*
Y330369D01*
X1119421Y332531D01*
X1118302Y334469D01*
X1117618Y335153D01*
Y408500D01*
X1117558Y408801D01*
X1117952Y411795D01*
X1119224Y414866D01*
X1121247Y417503D01*
X1123884Y419526D01*
X1126955Y420798D01*
X1129949Y421192D01*
X1130250Y421133D01*
D02*
G37*
G36*
X1299064Y301120D02*
X1299367Y298044D01*
X1300264Y295087D01*
X1301721Y292361D01*
X1303682Y289972D01*
X1305330Y288619D01*
Y281430D01*
Y263650D01*
Y246117D01*
X1093750D01*
X1093507Y246069D01*
X1089976Y245721D01*
X1086348Y244621D01*
X1083003Y242833D01*
X1080072Y240428D01*
X1077667Y237496D01*
X1075879Y234152D01*
X1074779Y230524D01*
X1074431Y226993D01*
X1074382Y226750D01*
Y225043D01*
X1073369Y224000D01*
X1073236Y224000D01*
X1071131D01*
X1068969Y223421D01*
X1068138Y222941D01*
X1066868Y223674D01*
Y263062D01*
X1068138Y263900D01*
X1069631Y263500D01*
X1071869D01*
X1074031Y264079D01*
X1074648Y264435D01*
X1176103D01*
X1176719Y264079D01*
X1178881Y263500D01*
X1181119D01*
X1183281Y264079D01*
X1185219Y265198D01*
X1186802Y266781D01*
X1187921Y268719D01*
X1188500Y270881D01*
Y273119D01*
X1187921Y275281D01*
X1186802Y277219D01*
X1185219Y278802D01*
X1183281Y279921D01*
X1181119Y280500D01*
X1178881D01*
X1176719Y279921D01*
X1176103Y279565D01*
X1074648D01*
X1074031Y279921D01*
X1071869Y280500D01*
X1069631D01*
X1068138Y280100D01*
X1066868Y280938D01*
Y296960D01*
X1068090Y297304D01*
X1069418Y295137D01*
X1072628Y291378D01*
X1076386Y288168D01*
X1080601Y285586D01*
X1085167Y283694D01*
X1089973Y282541D01*
X1094730Y282166D01*
X1094900Y282132D01*
X1273500D01*
X1273659Y282164D01*
X1277617Y282554D01*
X1281575Y283755D01*
X1285223Y285705D01*
X1288421Y288329D01*
X1291045Y291527D01*
X1292995Y295175D01*
X1294046Y298639D01*
X1294502Y298730D01*
X1296611Y300139D01*
X1297208Y301032D01*
X1298870Y301264D01*
X1299064Y301120D01*
D02*
G37*
G36*
X721632Y389326D02*
X721682Y389140D01*
X722998Y386860D01*
X723435Y386423D01*
Y369500D01*
X714250D01*
Y348000D01*
Y329500D01*
X737750D01*
Y332685D01*
X744353D01*
X744969Y332329D01*
X747131Y331750D01*
X748500D01*
Y328250D01*
X788500D01*
Y340149D01*
X789250Y341109D01*
X790750D01*
Y338881D01*
X791329Y336719D01*
X792448Y334781D01*
X794031Y333198D01*
X795969Y332079D01*
X798131Y331500D01*
X800369D01*
X802531Y332079D01*
X804469Y333198D01*
X806052Y334781D01*
X807171Y336719D01*
X807750Y338881D01*
Y341109D01*
X829250D01*
Y345294D01*
X837216D01*
X837900Y344403D01*
X839284Y343341D01*
X840895Y342674D01*
X842625Y342446D01*
X845875D01*
X847604Y342674D01*
X849216Y343341D01*
X850600Y344403D01*
X851662Y345787D01*
X852329Y347399D01*
X852557Y349128D01*
Y358378D01*
X852329Y360107D01*
X852131Y360587D01*
X853064Y361652D01*
X853631Y361500D01*
X855869D01*
X858031Y362079D01*
X859969Y363198D01*
X861552Y364781D01*
X862671Y366719D01*
X863250Y368881D01*
Y371119D01*
X862671Y373281D01*
X861552Y375219D01*
X861549Y375222D01*
X861829Y375899D01*
X861945Y376781D01*
X1037850D01*
X1038091Y376828D01*
X1041138Y376528D01*
X1044300Y375569D01*
X1047214Y374012D01*
X1049768Y371916D01*
X1051864Y369362D01*
X1053421Y366448D01*
X1054380Y363286D01*
X1054680Y360239D01*
X1054632Y359998D01*
Y280500D01*
X1053131D01*
X1050969Y279921D01*
X1049920Y279315D01*
X1016397D01*
X1015781Y279671D01*
X1013619Y280250D01*
X1011381D01*
X1009219Y279671D01*
X1007281Y278552D01*
X1005698Y276969D01*
X1004579Y275031D01*
X1004000Y272869D01*
Y270631D01*
X1004400Y269138D01*
X1003562Y267868D01*
X828250D01*
X828024Y267822D01*
X825138Y268107D01*
X822146Y269014D01*
X819389Y270488D01*
X816972Y272472D01*
X814988Y274889D01*
X813514Y277646D01*
X812607Y280638D01*
X812322Y283524D01*
X812367Y283750D01*
X812337Y283905D01*
X811945Y287880D01*
X810740Y291852D01*
X808784Y295512D01*
X806151Y298720D01*
X802943Y301353D01*
X799283Y303310D01*
X795311Y304515D01*
X791461Y304894D01*
X791156Y305322D01*
X791097Y305458D01*
X790978Y306207D01*
X791302Y306531D01*
X792421Y308469D01*
X793000Y310631D01*
Y312869D01*
X792421Y315031D01*
X791302Y316969D01*
X789719Y318552D01*
X787781Y319671D01*
X785619Y320250D01*
X783381D01*
X781219Y319671D01*
X779281Y318552D01*
X777698Y316969D01*
X777423Y316492D01*
X776905Y316335D01*
X773474Y314501D01*
X770467Y312033D01*
X767999Y309025D01*
X767932Y308900D01*
X767395Y308829D01*
X765784Y308162D01*
X764400Y307100D01*
X763851Y306384D01*
X746250D01*
Y310569D01*
X713500D01*
Y311369D01*
X712921Y313531D01*
X711802Y315469D01*
X710219Y317052D01*
X708281Y318171D01*
X706119Y318750D01*
X703881D01*
X701719Y318171D01*
X699781Y317052D01*
X698198Y315469D01*
X697079Y313531D01*
X696500Y311369D01*
Y309807D01*
X689875D01*
X688146Y309580D01*
X686534Y308912D01*
X685150Y307850D01*
X684088Y306466D01*
X683420Y304855D01*
X683193Y303125D01*
Y299875D01*
X683420Y298146D01*
X684088Y296534D01*
X685150Y295150D01*
X686534Y294088D01*
X687185Y293818D01*
Y280147D01*
X686829Y279531D01*
X686250Y277369D01*
Y275131D01*
X686829Y272969D01*
X687185Y272353D01*
Y270000D01*
X665500D01*
Y266750D01*
X663631D01*
X661469Y266171D01*
X660853Y265815D01*
X656250D01*
Y270500D01*
Y283065D01*
X656603Y285750D01*
X656565D01*
Y303560D01*
X658101D01*
X659645Y302920D01*
X661375Y302693D01*
X670625D01*
X672355Y302920D01*
X673966Y303588D01*
X675350Y304650D01*
X676412Y306034D01*
X677079Y307645D01*
X677307Y309375D01*
Y312625D01*
X677079Y314354D01*
X676412Y315966D01*
X675350Y317350D01*
X673966Y318412D01*
X672355Y319079D01*
X670625Y319307D01*
X661375D01*
X659645Y319079D01*
X658705Y318690D01*
X655702D01*
X655140Y319252D01*
X653021Y320475D01*
X652544Y321794D01*
X720405Y389655D01*
X721632Y389326D01*
D02*
G37*
G36*
X1213000Y224382D02*
X1307823D01*
X1308101Y223113D01*
X1305325Y219729D01*
X1303166Y215690D01*
X1301836Y211308D01*
X1301393Y206800D01*
X1301382Y206750D01*
X1301428Y206521D01*
X1301142Y203615D01*
X1300227Y200600D01*
X1298742Y197822D01*
X1296743Y195386D01*
X1294308Y193388D01*
X1291530Y191903D01*
X1288515Y190988D01*
X1286070Y190747D01*
X1284910D01*
X1284896Y190766D01*
X1283538Y191807D01*
X1281957Y192463D01*
X1280260Y192686D01*
X1263260D01*
X1261563Y192463D01*
X1259982Y191807D01*
X1258624Y190766D01*
X1257582Y189408D01*
X1256927Y187827D01*
X1256704Y186130D01*
Y183130D01*
X1256927Y181433D01*
X1257582Y179852D01*
X1258624Y178494D01*
Y178066D01*
X1257582Y176708D01*
X1256927Y175127D01*
X1256704Y173430D01*
Y170430D01*
X1256927Y168733D01*
X1257582Y167152D01*
X1258624Y165794D01*
Y165366D01*
X1257582Y164008D01*
X1256927Y162427D01*
X1256704Y160730D01*
Y157730D01*
X1256927Y156033D01*
X1257582Y154452D01*
X1257992Y153917D01*
X1257366Y152647D01*
X1220150D01*
X1219868Y152591D01*
X1216372Y152936D01*
X1212739Y154038D01*
X1209391Y155827D01*
X1206456Y158236D01*
X1204048Y161171D01*
X1202258Y164519D01*
X1201156Y168152D01*
X1200811Y171648D01*
X1200868Y171930D01*
Y203236D01*
X1202138Y203980D01*
X1202530Y203759D01*
Y202790D01*
X1249281D01*
X1249302Y202781D01*
X1251850Y202446D01*
Y202465D01*
X1260916D01*
X1261563Y202197D01*
X1263260Y201974D01*
X1280260D01*
X1281957Y202197D01*
X1283538Y202852D01*
X1284896Y203894D01*
X1285938Y205252D01*
X1286593Y206833D01*
X1286816Y208530D01*
Y211530D01*
X1286593Y213227D01*
X1285938Y214808D01*
X1284896Y216166D01*
X1283538Y217208D01*
X1281957Y217862D01*
X1280260Y218086D01*
X1263260D01*
X1262360Y217967D01*
X1261090Y218944D01*
Y221790D01*
X1207671D01*
X1207418Y223060D01*
X1209835Y224061D01*
X1212712Y224440D01*
X1213000Y224382D01*
D02*
G37*
G36*
X1541650Y220133D02*
X1571250D01*
Y208250D01*
X1594250D01*
Y209435D01*
X1600170D01*
Y198400D01*
X1600317Y197286D01*
X1599274Y196487D01*
X1597140Y195603D01*
X1594901Y195308D01*
X1594850Y195315D01*
X1588786D01*
Y195328D01*
X1585642Y195018D01*
X1584759Y194750D01*
X1572312D01*
X1571213Y196182D01*
X1569542Y197464D01*
X1567596Y198270D01*
X1565507Y198545D01*
X1544007D01*
X1541919Y198270D01*
X1539973Y197464D01*
X1538301Y196182D01*
X1537019Y194511D01*
X1536213Y192565D01*
X1535938Y190476D01*
Y189943D01*
X1534668Y188969D01*
X1533619Y189250D01*
X1531381D01*
X1529219Y188671D01*
X1527281Y187552D01*
X1525698Y185969D01*
X1524579Y184031D01*
X1524000Y181869D01*
Y179631D01*
X1524579Y177469D01*
X1525698Y175531D01*
X1526267Y174962D01*
X1526081Y173352D01*
X1524948Y172219D01*
X1523829Y170281D01*
X1523638Y169565D01*
X1522368Y169733D01*
Y200850D01*
X1522312Y201132D01*
X1522656Y204628D01*
X1523758Y208261D01*
X1525547Y211609D01*
X1527956Y214544D01*
X1530891Y216952D01*
X1534239Y218742D01*
X1537872Y219844D01*
X1541368Y220189D01*
X1541650Y220133D01*
D02*
G37*
G36*
X894315Y179781D02*
X897544Y178444D01*
X900316Y176316D01*
X902444Y173544D01*
X903781Y170315D01*
X904196Y167168D01*
X904133Y166850D01*
Y68103D01*
X902862Y67538D01*
X899902Y69121D01*
X896274Y70221D01*
X892743Y70569D01*
X892500Y70617D01*
X874050D01*
X873927Y70593D01*
X869786Y70185D01*
X865686Y68942D01*
X861908Y66922D01*
X858596Y64204D01*
X857403Y62750D01*
X856457D01*
X852896Y61796D01*
X849704Y59953D01*
X847097Y57346D01*
X846572Y56437D01*
X845335Y56834D01*
X845598Y59500D01*
X845208Y63460D01*
X844053Y67268D01*
X842177Y70777D01*
X839959Y73480D01*
X840463Y74750D01*
X853750D01*
Y73500D01*
X872750D01*
Y96500D01*
X856750D01*
Y114750D01*
X853250D01*
Y115119D01*
X852671Y117281D01*
X851552Y119219D01*
X849969Y120802D01*
X848031Y121921D01*
X845869Y122500D01*
X843631D01*
X841469Y121921D01*
X839531Y120802D01*
X837948Y119219D01*
X836829Y117281D01*
X836250Y115119D01*
Y114750D01*
X833250D01*
Y92465D01*
X831654D01*
X830806Y93735D01*
X831083Y94403D01*
X831306Y96100D01*
Y99100D01*
X831083Y100797D01*
X830428Y102378D01*
X829386Y103736D01*
X828028Y104778D01*
X826447Y105433D01*
X824750Y105656D01*
X814710D01*
X814445Y109013D01*
X814161Y110196D01*
X814948Y111193D01*
X821875D01*
X823605Y111420D01*
X825216Y112088D01*
X826600Y113150D01*
X827252Y114000D01*
X830282Y115619D01*
X833632Y118368D01*
X836381Y121718D01*
X838424Y125540D01*
X839682Y129687D01*
X840106Y134000D01*
X840065D01*
Y141250D01*
X840070D01*
X840297Y142979D01*
X840965Y144590D01*
X841087Y144750D01*
X858500D01*
Y146933D01*
X858964Y147277D01*
X859770Y147560D01*
X861469Y146579D01*
X863631Y146000D01*
X865869D01*
X868031Y146579D01*
X869969Y147698D01*
X871552Y149281D01*
X872671Y151219D01*
X873250Y153381D01*
Y155619D01*
X872671Y157781D01*
X871552Y159719D01*
X869969Y161302D01*
X868031Y162421D01*
X865869Y163000D01*
X863631D01*
X861469Y162421D01*
X859770Y161440D01*
X858964Y161723D01*
X858500Y162067D01*
Y166250D01*
X835000D01*
Y159632D01*
X834608Y159422D01*
X831296Y156704D01*
X828578Y153392D01*
X826558Y149614D01*
X825771Y147017D01*
X824232Y146320D01*
X823605Y146580D01*
X822676Y146702D01*
X821912Y148130D01*
X819757Y150757D01*
X817130Y152912D01*
X814133Y154514D01*
X810882Y155500D01*
X807500Y155833D01*
Y155815D01*
X770250D01*
Y160000D01*
X748750D01*
Y136500D01*
X751935D01*
Y134250D01*
X751948Y134155D01*
X751612Y131608D01*
X750592Y129145D01*
X749138Y127250D01*
X730000D01*
Y124065D01*
X723450D01*
X723355Y124052D01*
X720044Y124378D01*
X716769Y125372D01*
X713751Y126985D01*
X711106Y129156D01*
X708935Y131802D01*
X708801Y132052D01*
X709653Y132904D01*
X711496Y136096D01*
X712450Y139657D01*
Y143343D01*
X711496Y146904D01*
X709653Y150096D01*
X707046Y152703D01*
X703854Y154546D01*
X700293Y155500D01*
X696607D01*
X693046Y154546D01*
X689854Y152703D01*
X687247Y150096D01*
X686385Y148603D01*
X685115D01*
X684253Y150096D01*
X681646Y152703D01*
X679167Y154134D01*
Y166850D01*
X679104Y167168D01*
X679519Y170315D01*
X680856Y173544D01*
X682984Y176316D01*
X685756Y178444D01*
X688985Y179781D01*
X692132Y180196D01*
X692450Y180133D01*
X890850D01*
X891168Y180196D01*
X894315Y179781D01*
D02*
G37*
G36*
X639775Y307229D02*
X640998Y305110D01*
X641435Y304673D01*
Y292000D01*
X632750D01*
Y270500D01*
Y252000D01*
X643595D01*
X645867Y251059D01*
X649000Y250646D01*
Y250685D01*
X660853D01*
X661469Y250329D01*
X663631Y249750D01*
X665500D01*
Y247315D01*
X657148D01*
X656531Y247671D01*
X654369Y248250D01*
X652131D01*
X649969Y247671D01*
X648031Y246552D01*
X646448Y244969D01*
X645329Y243031D01*
X644750Y240869D01*
Y238631D01*
X645329Y236469D01*
X646448Y234531D01*
X648031Y232948D01*
X649969Y231829D01*
X652131Y231250D01*
X654369D01*
X656531Y231829D01*
X657148Y232185D01*
X987438D01*
Y232145D01*
X990619Y232564D01*
X993582Y233791D01*
X996127Y235744D01*
X998080Y238289D01*
X998138Y238429D01*
X998923Y239214D01*
X1000042Y241152D01*
X1000621Y243314D01*
Y245552D01*
X1000042Y247714D01*
X998923Y249652D01*
X997340Y251234D01*
X995402Y252353D01*
X993240Y252933D01*
X991002D01*
X988840Y252353D01*
X986902Y251234D01*
X985319Y249652D01*
X984200Y247714D01*
X984093Y247315D01*
X721930D01*
X721589Y248585D01*
X722219Y248948D01*
X723802Y250531D01*
X724921Y252469D01*
X725500Y254631D01*
Y256869D01*
X725623Y257030D01*
X746250D01*
Y261215D01*
X753891D01*
X754900Y259900D01*
X756284Y258838D01*
X757895Y258171D01*
X759625Y257943D01*
X762875D01*
X764604Y258171D01*
X766216Y258838D01*
X767600Y259900D01*
X768662Y261284D01*
X769329Y262896D01*
X769557Y264625D01*
Y273875D01*
X769329Y275604D01*
X768662Y277216D01*
X767600Y278600D01*
X766216Y279662D01*
X764604Y280329D01*
X762875Y280557D01*
X759625D01*
X757895Y280329D01*
X756284Y279662D01*
X754900Y278600D01*
X753838Y277216D01*
X753477Y276345D01*
X746250D01*
Y280530D01*
X740417D01*
X739586Y282084D01*
X736993Y285243D01*
X736226Y285874D01*
X736653Y287069D01*
X746250D01*
Y291255D01*
X762729D01*
X763338Y289784D01*
X764400Y288400D01*
X765784Y287338D01*
X767395Y286670D01*
X769125Y286443D01*
X772375D01*
X774104Y286670D01*
X775716Y287338D01*
X777100Y288400D01*
X778162Y289784D01*
X778829Y291395D01*
X779001Y292702D01*
X791181D01*
X791385Y292743D01*
X793515Y292462D01*
X795690Y291561D01*
X797558Y290128D01*
X798992Y288260D01*
X799893Y286084D01*
X800173Y283955D01*
X800133Y283750D01*
X800184Y283492D01*
X800509Y279356D01*
X801538Y275071D01*
X803225Y270999D01*
X805527Y267241D01*
X808390Y263890D01*
X811741Y261028D01*
X815499Y258725D01*
X819571Y257038D01*
X823856Y256009D01*
X827992Y255684D01*
X828250Y255632D01*
X1031250D01*
X1031489Y255680D01*
X1034509Y255382D01*
X1037642Y254432D01*
X1040530Y252888D01*
X1043061Y250811D01*
X1045138Y248280D01*
X1046682Y245392D01*
X1047633Y242259D01*
X1047930Y239239D01*
X1047883Y239000D01*
Y77768D01*
X1046650Y77459D01*
X1046460Y77815D01*
X1044152Y80628D01*
X1041338Y82937D01*
X1038128Y84653D01*
X1034645Y85709D01*
X1031303Y86039D01*
X1031023Y86094D01*
X993114D01*
X993079Y86361D01*
X992412Y87972D01*
X991350Y89356D01*
X989966Y90418D01*
X988354Y91086D01*
X986625Y91313D01*
X983375D01*
X981646Y91086D01*
X980034Y90418D01*
X978650Y89356D01*
X977588Y87972D01*
X977410Y87542D01*
X960500D01*
Y91727D01*
X939985D01*
X938829Y92000D01*
X938515Y95186D01*
X937966Y96996D01*
X938907Y98266D01*
X960500D01*
Y102451D01*
X969421D01*
X970534Y101598D01*
X972145Y100930D01*
X973875Y100702D01*
X977125D01*
X978854Y100930D01*
X980466Y101598D01*
X981850Y102660D01*
X982912Y104044D01*
X983579Y105655D01*
X983807Y107385D01*
Y114882D01*
X984833Y116417D01*
X986855Y117768D01*
X989066Y118208D01*
X989240Y118185D01*
X993750D01*
Y118154D01*
X994063Y118185D01*
X1003099D01*
X1004198Y116281D01*
X1005781Y114698D01*
X1007719Y113579D01*
X1009881Y113000D01*
X1012119D01*
X1014281Y113579D01*
X1016219Y114698D01*
X1017802Y116281D01*
X1018921Y118219D01*
X1019500Y120381D01*
Y122619D01*
X1018921Y124781D01*
X1017802Y126719D01*
X1016745Y127776D01*
X1015130Y129880D01*
X1012676Y131764D01*
X1012517Y131829D01*
X1013214Y134128D01*
X1013596Y138000D01*
X1013565D01*
Y141250D01*
X1013599D01*
X1013203Y145269D01*
X1012031Y149133D01*
X1010128Y152694D01*
X1007566Y155816D01*
X1004444Y158378D01*
X1000883Y160281D01*
X997019Y161453D01*
X993000Y161849D01*
Y161849D01*
X991771Y161949D01*
X990292Y162144D01*
X987769Y163189D01*
X985602Y164852D01*
X983939Y167019D01*
X983249Y168685D01*
X983307Y169125D01*
Y178375D01*
X983080Y180105D01*
X982412Y181716D01*
X981350Y183100D01*
X979966Y184162D01*
X978354Y184830D01*
X976625Y185057D01*
X974466D01*
X973614Y185998D01*
X973614Y186000D01*
X973565D01*
Y188750D01*
X973544Y188910D01*
X973968Y191042D01*
X975266Y192984D01*
X977130Y194230D01*
X978150Y192900D01*
X979534Y191838D01*
X981146Y191170D01*
X982875Y190943D01*
X986125D01*
X987855Y191170D01*
X989466Y191838D01*
X990850Y192900D01*
X991912Y194284D01*
X992367Y195382D01*
X1024097D01*
X1024781Y194698D01*
X1026719Y193579D01*
X1028881Y193000D01*
X1031119D01*
X1033281Y193579D01*
X1035219Y194698D01*
X1036802Y196281D01*
X1037921Y198219D01*
X1038500Y200381D01*
Y202619D01*
X1037921Y204781D01*
X1036802Y206719D01*
X1035219Y208302D01*
X1033281Y209421D01*
X1031119Y210000D01*
X1028881D01*
X1026719Y209421D01*
X1024781Y208302D01*
X1024097Y207617D01*
X992710D01*
X992580Y208604D01*
X991912Y210216D01*
X990850Y211600D01*
X989466Y212662D01*
X987855Y213329D01*
X986125Y213557D01*
X982875D01*
X981146Y213329D01*
X979534Y212662D01*
X978150Y211600D01*
X977088Y210216D01*
X976828Y209588D01*
X975383Y209446D01*
X971425Y208245D01*
X967777Y206295D01*
X964579Y203671D01*
X962628Y201293D01*
X962539Y201361D01*
X960350Y202268D01*
X958000Y202578D01*
X939993D01*
X939220Y203585D01*
X939500Y204631D01*
Y206869D01*
X938921Y209031D01*
X937802Y210969D01*
X936219Y212552D01*
X934281Y213671D01*
X932119Y214250D01*
X929881D01*
X927719Y213671D01*
X927103Y213315D01*
X502400D01*
Y213352D01*
X497237Y212945D01*
X492202Y211737D01*
X487417Y209755D01*
X483002Y207049D01*
X479064Y203686D01*
X475701Y199748D01*
X472995Y195333D01*
X471013Y190548D01*
X469805Y185513D01*
X469398Y180350D01*
X469435D01*
Y138631D01*
X469426Y138609D01*
X468287Y133864D01*
X467904Y129000D01*
X467922D01*
Y111500D01*
X467877D01*
X468367Y106531D01*
X469816Y101752D01*
X472170Y97348D01*
X475338Y93488D01*
X479198Y90320D01*
X483602Y87966D01*
X488381Y86517D01*
X493350Y86027D01*
Y86027D01*
X494422Y85550D01*
X494825Y85147D01*
X497675Y83502D01*
X500854Y82650D01*
X504146D01*
X507325Y83502D01*
X510175Y85147D01*
X512503Y87475D01*
X514148Y90325D01*
X514543Y91797D01*
X515857D01*
X516252Y90325D01*
X517897Y87475D01*
X520225Y85147D01*
X523075Y83502D01*
X526254Y82650D01*
X529546D01*
X532725Y83502D01*
X535575Y85147D01*
X537902Y87475D01*
X539548Y90325D01*
X539943Y91797D01*
X541257D01*
X541652Y90325D01*
X543298Y87475D01*
X545625Y85147D01*
X548475Y83502D01*
X551654Y82650D01*
X554946D01*
X558125Y83502D01*
X560975Y85147D01*
X563302Y87475D01*
X564948Y90325D01*
X565343Y91797D01*
X566657D01*
X567052Y90325D01*
X568698Y87475D01*
X571025Y85147D01*
X573875Y83502D01*
X577054Y82650D01*
X580346D01*
X583525Y83502D01*
X586375Y85147D01*
X588393Y87166D01*
X591413Y86250D01*
X594183Y84769D01*
Y81750D01*
X594449Y79727D01*
X595230Y77841D01*
X596473Y76223D01*
X597739Y75251D01*
X598003Y72569D01*
X599004Y69271D01*
X600629Y66231D01*
X602816Y63566D01*
X605480Y61379D01*
X608521Y59754D01*
X611819Y58753D01*
X615250Y58415D01*
Y58435D01*
X618922D01*
X619088Y58034D01*
X619437Y57579D01*
X619474Y57364D01*
X619052Y55995D01*
X616789Y54786D01*
X614276Y52724D01*
X612214Y50211D01*
X610682Y47345D01*
X610455Y46596D01*
X609588Y45466D01*
X608920Y43854D01*
X608693Y42125D01*
Y32875D01*
X608920Y31145D01*
X609588Y29534D01*
X610650Y28150D01*
X611139Y27775D01*
X612581Y24293D01*
X614966Y20401D01*
X617930Y16930D01*
X621401Y13966D01*
X625293Y11581D01*
X629510Y9834D01*
X633949Y8769D01*
X638500Y8410D01*
Y8435D01*
X642500D01*
Y4000D01*
X664000D01*
Y18009D01*
X664065Y18500D01*
X664065Y18500D01*
Y26000D01*
X680185D01*
Y22250D01*
X680161D01*
X680518Y18623D01*
X681575Y15136D01*
X683293Y11922D01*
X685605Y9105D01*
X688422Y6793D01*
X691636Y5076D01*
X695123Y4018D01*
X698750Y3661D01*
Y3685D01*
X775000D01*
Y3668D01*
X778333Y3996D01*
X781537Y4968D01*
X784490Y6547D01*
X787079Y8671D01*
X789203Y11260D01*
X790782Y14213D01*
X792000Y13853D01*
Y13131D01*
X792579Y10969D01*
X793698Y9031D01*
X795281Y7448D01*
X797219Y6329D01*
X799381Y5750D01*
X801619D01*
X803781Y6329D01*
X805719Y7448D01*
X807302Y9031D01*
X808421Y10969D01*
X808929Y12866D01*
X810101Y13755D01*
X810553Y13567D01*
X812250Y13344D01*
X824750D01*
X826447Y13567D01*
X826980Y13788D01*
X828250Y13332D01*
Y11000D01*
X868250D01*
Y13132D01*
X1769100D01*
X1769270Y13166D01*
X1769771Y13206D01*
X1770302Y12052D01*
X1758250Y0D01*
X45250D01*
X500Y44750D01*
Y260000D01*
X604Y260250D01*
X355750D01*
Y238250D01*
X356822D01*
Y234875D01*
X355750D01*
Y211875D01*
X356822D01*
Y208500D01*
X355750D01*
Y185500D01*
X356672D01*
Y184500D01*
X356982Y182150D01*
X357888Y179961D01*
X359331Y178081D01*
X361211Y176639D01*
X363400Y175732D01*
X365750Y175422D01*
X368100Y175732D01*
X370289Y176639D01*
X372169Y178081D01*
X373611Y179961D01*
X374518Y182150D01*
X374828Y184500D01*
Y196511D01*
X374978Y197650D01*
Y260250D01*
X591000D01*
X638456Y307706D01*
X639775Y307229D01*
D02*
G37*
G36*
X673071Y183274D02*
X671228Y181030D01*
X668870Y176617D01*
X667418Y171829D01*
X666927Y166850D01*
X666932D01*
Y154134D01*
X664454Y152703D01*
X661847Y150096D01*
X660004Y146904D01*
X659050Y143343D01*
Y139657D01*
X660004Y136096D01*
X661847Y132904D01*
X664454Y130297D01*
X667646Y128454D01*
X671207Y127500D01*
X672185D01*
Y124250D01*
X664672D01*
X662566Y126816D01*
X659445Y129378D01*
X655883Y131281D01*
X652019Y132453D01*
X651723Y132483D01*
X650531Y133171D01*
X648369Y133750D01*
X646131D01*
X643969Y133171D01*
X642031Y132052D01*
X640448Y130469D01*
X639329Y128531D01*
X638750Y126369D01*
Y124131D01*
X639329Y121969D01*
X639507Y121662D01*
X638680Y120554D01*
X634436Y121573D01*
X629865Y123466D01*
X625646Y126051D01*
X623807Y127622D01*
Y131125D01*
X623579Y132854D01*
X622912Y134466D01*
X621850Y135850D01*
X620466Y136912D01*
X618854Y137579D01*
X617125Y137807D01*
X613875D01*
X612145Y137579D01*
X610534Y136912D01*
X609150Y135850D01*
X608088Y134466D01*
X607420Y132854D01*
X607193Y131125D01*
Y121875D01*
X607420Y120145D01*
X608088Y118534D01*
X609150Y117150D01*
X610534Y116088D01*
X612145Y115420D01*
X613875Y115193D01*
X615033D01*
X615775Y114542D01*
X620849Y111151D01*
X626323Y108452D01*
X632103Y106490D01*
X634129Y106087D01*
X634251Y105348D01*
X634248Y104768D01*
X632698Y103219D01*
X631579Y101281D01*
X631000Y99119D01*
Y96881D01*
X631548Y94835D01*
X631473Y94777D01*
X630230Y93158D01*
X629450Y91273D01*
X629183Y89250D01*
Y81750D01*
X629450Y79727D01*
X630026Y78335D01*
X629305Y77237D01*
X629197Y77166D01*
X628125Y77307D01*
X624875D01*
X623145Y77080D01*
X621534Y76412D01*
X620150Y75350D01*
X619088Y73966D01*
X618922Y73565D01*
X615250D01*
Y73581D01*
X614324Y73765D01*
X613539Y74289D01*
X613015Y75074D01*
X612831Y76000D01*
X613027Y76222D01*
X613027Y76223D01*
X613590Y76955D01*
X614269Y77841D01*
X615050Y79727D01*
X615317Y81750D01*
Y89250D01*
X615050Y91273D01*
X614269Y93158D01*
X613027Y94777D01*
X611408Y96019D01*
X609523Y96800D01*
X607500Y97067D01*
X602969D01*
X599561Y99155D01*
X594777Y101137D01*
X589741Y102345D01*
X588943Y102408D01*
X588703Y102825D01*
X586375Y105153D01*
X583525Y106798D01*
X580346Y107650D01*
X577054D01*
X573875Y106798D01*
X571025Y105153D01*
X568698Y102825D01*
X567052Y99975D01*
X566657Y98503D01*
X565343D01*
X564948Y99975D01*
X563302Y102825D01*
X560975Y105153D01*
X558125Y106798D01*
X554946Y107650D01*
X551654D01*
X548475Y106798D01*
X545625Y105153D01*
X543298Y102825D01*
X541652Y99975D01*
X541257Y98503D01*
X539943D01*
X539548Y99975D01*
X537902Y102825D01*
X535575Y105153D01*
X532725Y106798D01*
X529546Y107650D01*
X526254D01*
X523075Y106798D01*
X520225Y105153D01*
X517897Y102825D01*
X516252Y99975D01*
X515857Y98503D01*
X514543D01*
X514148Y99975D01*
X512503Y102825D01*
X510175Y105153D01*
X507325Y106798D01*
X504146Y107650D01*
X500854D01*
X497675Y106798D01*
X494825Y105153D01*
X493900Y104228D01*
X493350D01*
X493301Y104221D01*
X491464Y104463D01*
X489707Y105191D01*
X488199Y106348D01*
X487041Y107857D01*
X486313Y109614D01*
X486071Y111451D01*
X486078Y111500D01*
Y129000D01*
X486047Y129234D01*
X486458Y132360D01*
X487756Y135492D01*
X489819Y138181D01*
X492508Y140245D01*
X495639Y141542D01*
X498766Y141953D01*
X499000Y141922D01*
X502650D01*
Y141894D01*
X508024Y142317D01*
X513267Y143576D01*
X518247Y145639D01*
X522844Y148455D01*
X526943Y151957D01*
X530444Y156056D01*
X533261Y160653D01*
X535324Y165633D01*
X535455Y166178D01*
X535575Y166248D01*
X537902Y168575D01*
X539548Y171425D01*
X539943Y172897D01*
X541257D01*
X541652Y171425D01*
X543298Y168575D01*
X545625Y166248D01*
X548475Y164602D01*
X551654Y163750D01*
X554946D01*
X558125Y164602D01*
X560975Y166248D01*
X563302Y168575D01*
X564948Y171425D01*
X565343Y172897D01*
X566657D01*
X567052Y171425D01*
X568698Y168575D01*
X571025Y166248D01*
X573875Y164602D01*
X577054Y163750D01*
X580346D01*
X583525Y164602D01*
X586375Y166248D01*
X588703Y168575D01*
X588766Y168685D01*
X598847D01*
X599667Y168056D01*
X601095Y163348D01*
X603486Y158875D01*
X606704Y154954D01*
X610625Y151736D01*
X615098Y149345D01*
X616900Y148798D01*
X616921Y148646D01*
X617588Y147034D01*
X618650Y145650D01*
X620034Y144588D01*
X621646Y143921D01*
X623375Y143693D01*
X626625D01*
X628354Y143921D01*
X629966Y144588D01*
X631350Y145650D01*
X632412Y147034D01*
X633079Y148646D01*
X633307Y150375D01*
Y159263D01*
X634520Y159509D01*
X635578Y156955D01*
X637261Y154761D01*
X637738Y154396D01*
X637948Y154031D01*
X639531Y152448D01*
X641469Y151329D01*
X643631Y150750D01*
X645869D01*
X648031Y151329D01*
X649969Y152448D01*
X651552Y154031D01*
X652671Y155969D01*
X653250Y158131D01*
Y160369D01*
X652671Y162531D01*
X651552Y164469D01*
X649969Y166052D01*
X649315Y166430D01*
Y168426D01*
X650027Y168972D01*
X651270Y170591D01*
X652051Y172477D01*
X652317Y174500D01*
Y182000D01*
X652165Y183152D01*
X653175Y184422D01*
X672527D01*
X673071Y183274D01*
D02*
G37*
G36*
X1435010Y164080D02*
X1435510Y163017D01*
Y152830D01*
Y144144D01*
X1401318D01*
X1400510Y145080D01*
Y164080D01*
X1435010D01*
D02*
G37*
G36*
X1763199Y172699D02*
X1765433Y169978D01*
X1767092Y166873D01*
X1767796Y164555D01*
X1767792Y163285D01*
X1768036Y162695D01*
X1768132Y161460D01*
Y54750D01*
X1768170Y54560D01*
X1767908Y52564D01*
X1767064Y50527D01*
X1765722Y48778D01*
X1763973Y47436D01*
X1761936Y46592D01*
X1759940Y46330D01*
X1759750Y46368D01*
X1513005Y46368D01*
X1512566Y47559D01*
X1512903Y47847D01*
X1516190Y51696D01*
X1518834Y56011D01*
X1520771Y60686D01*
X1521952Y65608D01*
X1522337Y70502D01*
X1522368Y70653D01*
Y164267D01*
X1523638Y164435D01*
X1523829Y163719D01*
X1524948Y161781D01*
X1526531Y160198D01*
X1528469Y159079D01*
X1530631Y158500D01*
X1532869D01*
X1534671Y158983D01*
X1534714Y158984D01*
X1535655Y158527D01*
X1536033Y158192D01*
X1536199Y156935D01*
X1537005Y154989D01*
X1538287Y153318D01*
X1539958Y152036D01*
X1541904Y151229D01*
X1543993Y150955D01*
X1565493D01*
X1567581Y151229D01*
X1569527Y152036D01*
X1571198Y153318D01*
X1572481Y154989D01*
X1573006Y156257D01*
X1573649Y156750D01*
X1583261D01*
X1583793Y155597D01*
X1581701Y153148D01*
X1578995Y148732D01*
X1577014Y143948D01*
X1576102Y140150D01*
X1573500D01*
Y117150D01*
X1592500D01*
Y140150D01*
X1592500D01*
X1592347Y141420D01*
X1593551Y143672D01*
X1595772Y146378D01*
X1598446Y148572D01*
X1598753Y148552D01*
X1599960Y147951D01*
X1600670Y146235D01*
X1602153Y144303D01*
X1604085Y142820D01*
X1606335Y141888D01*
X1608750Y141570D01*
X1614156D01*
X1615284Y140644D01*
X1619133Y138587D01*
X1623308Y137320D01*
X1627650Y136893D01*
Y136935D01*
X1733894D01*
X1735148Y136894D01*
X1735201Y136889D01*
X1736372Y137004D01*
X1739693Y137331D01*
X1744012Y138642D01*
X1747993Y140769D01*
X1751482Y143633D01*
X1751783Y144000D01*
X1751977D01*
X1754875Y144576D01*
X1757605Y145707D01*
X1760062Y147349D01*
X1762151Y149438D01*
X1763793Y151895D01*
X1764924Y154625D01*
X1765500Y157523D01*
Y160477D01*
X1764924Y163375D01*
X1763793Y166105D01*
X1762151Y168562D01*
X1760062Y170651D01*
X1759742Y170865D01*
Y172135D01*
X1760062Y172349D01*
X1761669Y173955D01*
X1763199Y172699D01*
D02*
G37*
G36*
X771034Y135555D02*
X769948Y134469D01*
X768829Y132531D01*
X768250Y130369D01*
Y128131D01*
X768829Y125969D01*
X769948Y124031D01*
X771531Y122448D01*
X773469Y121329D01*
X775631Y120750D01*
X777869D01*
X780031Y121329D01*
X780648Y121685D01*
X780657D01*
X780784Y121588D01*
X782395Y120920D01*
X784125Y120693D01*
X787553D01*
X788684Y120350D01*
X791772Y118699D01*
X794478Y116478D01*
X796699Y113772D01*
X798350Y110684D01*
X799366Y107334D01*
X799699Y103953D01*
X799685Y103850D01*
Y101397D01*
X799329Y100781D01*
X798750Y98619D01*
Y96381D01*
X799329Y94219D01*
X800448Y92281D01*
X801945Y90784D01*
X802017Y90564D01*
X801888Y89314D01*
X800192Y88408D01*
X797886Y86515D01*
X795992Y84208D01*
X795476Y83242D01*
X794281Y82552D01*
X792698Y80969D01*
X791579Y79031D01*
X791000Y76869D01*
Y74631D01*
X791579Y72469D01*
X792698Y70531D01*
X794281Y68948D01*
X796219Y67829D01*
X798381Y67250D01*
X800619D01*
X802781Y67829D01*
X804719Y68948D01*
X804744Y68973D01*
X806108Y68542D01*
X806553Y67468D01*
X806646Y67147D01*
X806298Y66064D01*
X804425Y65495D01*
X800777Y63545D01*
X797579Y60921D01*
X794955Y57723D01*
X793005Y54075D01*
X791804Y50117D01*
X791398Y46000D01*
X791406D01*
X791688Y43136D01*
X787712Y41011D01*
X784020Y37980D01*
X780989Y34288D01*
X778737Y30075D01*
X777351Y25504D01*
X776883Y20750D01*
X776883D01*
X776508Y19635D01*
X776350Y19400D01*
X775731Y18986D01*
X775000Y18840D01*
Y18815D01*
X732250D01*
Y26535D01*
X755906D01*
X756553Y26267D01*
X758250Y26044D01*
X770750D01*
X772447Y26267D01*
X774028Y26922D01*
X775386Y27964D01*
X776428Y29322D01*
X777083Y30903D01*
X777306Y32600D01*
Y35600D01*
X777083Y37297D01*
X776428Y38878D01*
X776204Y39169D01*
X776676Y40640D01*
X776972Y40729D01*
X780437Y42582D01*
X783475Y45075D01*
X785968Y48113D01*
X787821Y51578D01*
X788961Y55339D01*
X789346Y59250D01*
X789349D01*
X788954Y63259D01*
X787785Y67114D01*
X785886Y70666D01*
X783330Y73780D01*
X780216Y76336D01*
X776664Y78235D01*
X776596Y78255D01*
X776124Y79726D01*
X776428Y80122D01*
X777083Y81703D01*
X777306Y83400D01*
Y86400D01*
X777083Y88097D01*
X776428Y89678D01*
X775386Y91036D01*
Y91342D01*
X776295Y92335D01*
X780602D01*
X781219Y91979D01*
X783381Y91400D01*
X785619D01*
X787781Y91979D01*
X789719Y93098D01*
X791302Y94681D01*
X792421Y96619D01*
X793000Y98781D01*
Y101019D01*
X792421Y103181D01*
X791302Y105119D01*
X789719Y106702D01*
X787781Y107821D01*
X785619Y108400D01*
X783381D01*
X781219Y107821D01*
X780602Y107465D01*
X766800D01*
Y107485D01*
X764242Y107148D01*
X761858Y106160D01*
X761201Y105656D01*
X758250D01*
X756553Y105433D01*
X755906Y105165D01*
X753500D01*
Y111900D01*
X755846Y113154D01*
X759691Y116309D01*
X762846Y120154D01*
X765191Y124541D01*
X766635Y129300D01*
X767122Y134250D01*
X767065D01*
Y136500D01*
X770183D01*
X771034Y135555D01*
D02*
G37*
G36*
X1075052Y106315D02*
X1078074Y105918D01*
X1078250Y105883D01*
X1089500D01*
X1090250Y104808D01*
Y88250D01*
X1090250D01*
X1090202Y87000D01*
X1090000D01*
Y77738D01*
X1088521Y75810D01*
X1087446Y73215D01*
X1086329Y71281D01*
X1085750Y69119D01*
Y66881D01*
X1086329Y64719D01*
X1087448Y62781D01*
X1089031Y61198D01*
X1090969Y60079D01*
X1093131Y59500D01*
X1095369D01*
X1097531Y60079D01*
X1099469Y61198D01*
X1101052Y62781D01*
X1101467Y63500D01*
X1111500D01*
Y66535D01*
X1119846D01*
X1120694Y65265D01*
X1120417Y64597D01*
X1120194Y62900D01*
Y59900D01*
X1120417Y58203D01*
X1121072Y56622D01*
X1121252Y56388D01*
X1120626Y55118D01*
X1095400D01*
X1095118Y55061D01*
X1091622Y55406D01*
X1087989Y56508D01*
X1084641Y58298D01*
X1081706Y60706D01*
X1079297Y63641D01*
X1077508Y66989D01*
X1076406Y70622D01*
X1076061Y74118D01*
X1076117Y74400D01*
X1075652Y76741D01*
X1074326Y78726D01*
X1073368Y79684D01*
Y105870D01*
X1074424Y106576D01*
X1075052Y106315D01*
D02*
G37*
G36*
X691686Y104657D02*
X693723Y103814D01*
X695472Y102472D01*
X696814Y100723D01*
X697657Y98686D01*
X697785Y97719D01*
X697908Y96500D01*
X697908D01*
X698276Y92756D01*
X699369Y89155D01*
X701142Y85837D01*
X703529Y82929D01*
X706437Y80542D01*
X709755Y78769D01*
X713356Y77676D01*
X717100Y77308D01*
Y77335D01*
X737384D01*
X738141Y76315D01*
X738045Y75999D01*
X737651Y72000D01*
X737653D01*
X738014Y68335D01*
X737814Y67839D01*
X737036Y67012D01*
X736943Y67000D01*
X735381D01*
X733219Y66421D01*
X731281Y65302D01*
X729698Y63719D01*
X728579Y61781D01*
X728000Y59619D01*
Y59250D01*
X710947D01*
X710671Y60281D01*
X709552Y62219D01*
X707969Y63802D01*
X706031Y64921D01*
X703869Y65500D01*
X701631D01*
X699469Y64921D01*
X697531Y63802D01*
X695948Y62219D01*
X694829Y60281D01*
X694250Y58119D01*
Y55881D01*
X694829Y53719D01*
X695948Y51781D01*
X696266Y51463D01*
X696307Y51328D01*
X697676Y48766D01*
X697831Y48577D01*
X697781Y48302D01*
X696198Y46719D01*
X695079Y44781D01*
X694500Y42619D01*
Y41750D01*
X692250D01*
Y39873D01*
X691054Y39445D01*
X690329Y40329D01*
X689000Y41420D01*
Y49500D01*
X685923D01*
X685150Y50507D01*
X685250Y50881D01*
Y53119D01*
X684671Y55281D01*
X683552Y57219D01*
X681969Y58802D01*
X680031Y59921D01*
X677869Y60500D01*
X675631D01*
X673469Y59921D01*
X671531Y58802D01*
X669948Y57219D01*
X668829Y55281D01*
X668250Y53119D01*
Y50881D01*
X668350Y50507D01*
X667577Y49500D01*
X649000D01*
Y33992D01*
X648935Y33500D01*
Y27500D01*
X642500D01*
Y23565D01*
X638500D01*
X638282Y23536D01*
X634878Y23984D01*
X631503Y25382D01*
X628605Y27606D01*
X626382Y30503D01*
X625307Y33098D01*
Y41500D01*
X627119D01*
X629281Y42079D01*
X631219Y43198D01*
X632802Y44781D01*
X633921Y46719D01*
X634500Y48881D01*
Y51119D01*
X633921Y53281D01*
X632802Y55219D01*
X632694Y55327D01*
X632777Y56594D01*
X632850Y56650D01*
X633912Y58034D01*
X634580Y59646D01*
X634807Y61375D01*
Y70625D01*
X634580Y72354D01*
X634262Y73121D01*
X634635Y73683D01*
X635202Y74170D01*
X637000Y73933D01*
X642500D01*
X644523Y74199D01*
X646408Y74980D01*
X648027Y76223D01*
X649270Y77841D01*
X649551Y78520D01*
X650250Y79500D01*
X671750D01*
Y100750D01*
X690500D01*
Y103850D01*
X691455Y104688D01*
X691686Y104657D01*
D02*
G37*
G36*
X1033501Y73481D02*
X1035601Y72078D01*
X1037005Y69978D01*
X1037440Y67789D01*
X1037383Y67500D01*
Y60900D01*
X1037416Y60730D01*
X1037791Y55973D01*
X1038944Y51167D01*
X1040836Y46601D01*
X1043418Y42386D01*
X1046620Y38637D01*
X1046587Y38229D01*
X1046270Y37367D01*
X972380D01*
X971417Y38638D01*
X971590Y39283D01*
X971906Y39934D01*
X973020Y40312D01*
X973875Y40199D01*
X977125D01*
X978854Y40427D01*
X980466Y41094D01*
X981850Y42156D01*
X982912Y43540D01*
X983579Y45152D01*
X983807Y46881D01*
Y56131D01*
X983579Y57861D01*
X982912Y59472D01*
X981850Y60856D01*
X980466Y61918D01*
X978854Y62586D01*
X977125Y62814D01*
X973875D01*
X972145Y62586D01*
X970534Y61918D01*
X969150Y60856D01*
X968088Y59472D01*
X967420Y57861D01*
X967373Y57502D01*
X960500D01*
Y61687D01*
X958820D01*
X958087Y62957D01*
X958671Y63969D01*
X959250Y66131D01*
Y68227D01*
X960500D01*
Y72412D01*
X977434D01*
X977588Y72040D01*
X978650Y70656D01*
X980034Y69594D01*
X981646Y68927D01*
X983375Y68699D01*
X986625D01*
X988354Y68927D01*
X989966Y69594D01*
X991350Y70656D01*
X992412Y72040D01*
X993079Y73652D01*
X993107Y73859D01*
X1031023D01*
X1031312Y73917D01*
X1033501Y73481D01*
D02*
G37*
G36*
X1243250Y67386D02*
Y67435D01*
X1256750D01*
X1257000Y66220D01*
Y55118D01*
X1241250D01*
Y66638D01*
X1242191Y67491D01*
X1243250Y67386D01*
D02*
G37*
%LPC*%
G36*
X1749896Y655750D02*
X1746604D01*
X1743425Y654898D01*
X1740575Y653252D01*
X1738248Y650925D01*
X1736602Y648075D01*
X1735750Y644896D01*
Y641604D01*
X1736602Y638425D01*
X1738248Y635575D01*
X1740575Y633247D01*
X1743425Y631602D01*
X1746604Y630750D01*
X1749896D01*
X1753075Y631602D01*
X1755925Y633247D01*
X1758253Y635575D01*
X1759898Y638425D01*
X1760750Y641604D01*
Y644896D01*
X1759898Y648075D01*
X1758253Y650925D01*
X1755925Y653252D01*
X1753075Y654898D01*
X1749896Y655750D01*
D02*
G37*
G36*
X1648369Y617000D02*
X1646131D01*
X1643969Y616421D01*
X1642031Y615302D01*
X1640448Y613719D01*
X1639329Y611781D01*
X1638750Y609619D01*
Y608783D01*
X1638443Y608547D01*
X1637200Y606928D01*
X1636420Y605043D01*
X1636153Y603020D01*
Y597520D01*
X1636420Y595497D01*
X1637200Y593611D01*
X1638443Y591992D01*
X1640061Y590750D01*
X1641947Y589969D01*
X1643970Y589703D01*
X1650470D01*
X1652493Y589969D01*
X1654378Y590750D01*
X1655997Y591992D01*
X1657240Y593611D01*
X1658020Y595497D01*
X1658287Y597520D01*
Y603020D01*
X1658020Y605043D01*
X1657240Y606928D01*
X1655997Y608547D01*
X1655750Y608737D01*
Y609619D01*
X1655171Y611781D01*
X1654052Y613719D01*
X1652469Y615302D01*
X1650531Y616421D01*
X1648369Y617000D01*
D02*
G37*
G36*
X1623619D02*
X1621381D01*
X1619219Y616421D01*
X1617281Y615302D01*
X1615698Y613719D01*
X1614579Y611781D01*
X1614000Y609619D01*
Y608785D01*
X1613691Y608547D01*
X1612448Y606928D01*
X1611667Y605043D01*
X1611401Y603020D01*
Y597520D01*
X1611667Y595497D01*
X1612448Y593611D01*
X1613691Y591992D01*
X1615309Y590750D01*
X1617195Y589969D01*
X1619218Y589703D01*
X1625718D01*
X1627741Y589969D01*
X1629626Y590750D01*
X1631245Y591992D01*
X1632488Y593611D01*
X1633268Y595497D01*
X1633535Y597520D01*
Y603020D01*
X1633268Y605043D01*
X1632488Y606928D01*
X1631245Y608547D01*
X1631000Y608736D01*
Y609619D01*
X1630421Y611781D01*
X1629302Y613719D01*
X1627719Y615302D01*
X1625781Y616421D01*
X1623619Y617000D01*
D02*
G37*
G36*
X1599119D02*
X1596881D01*
X1594719Y616421D01*
X1592781Y615302D01*
X1591198Y613719D01*
X1590079Y611781D01*
X1589500Y609619D01*
Y608978D01*
X1588939Y608547D01*
X1587696Y606928D01*
X1586915Y605043D01*
X1586649Y603020D01*
Y597520D01*
X1586915Y595497D01*
X1587696Y593611D01*
X1588939Y591992D01*
X1590558Y590750D01*
X1592443Y589969D01*
X1594466Y589703D01*
X1600966D01*
X1602989Y589969D01*
X1604874Y590750D01*
X1606493Y591992D01*
X1607736Y593611D01*
X1608517Y595497D01*
X1608783Y597520D01*
Y603020D01*
X1608517Y605043D01*
X1607736Y606928D01*
X1606500Y608539D01*
Y609619D01*
X1605921Y611781D01*
X1604802Y613719D01*
X1603219Y615302D01*
X1601281Y616421D01*
X1599119Y617000D01*
D02*
G37*
G36*
X1768727Y449750D02*
X1765773D01*
X1762875Y449174D01*
X1760145Y448043D01*
X1757688Y446401D01*
X1755599Y444312D01*
X1753957Y441855D01*
X1752827Y439125D01*
X1752250Y436227D01*
Y433273D01*
X1752827Y430375D01*
X1753957Y427645D01*
X1755599Y425188D01*
X1757688Y423099D01*
X1760145Y421457D01*
X1762875Y420326D01*
X1765773Y419750D01*
X1768727D01*
X1771625Y420326D01*
X1774355Y421457D01*
X1776812Y423099D01*
X1778901Y425188D01*
X1780543Y427645D01*
X1781674Y430375D01*
X1782250Y433273D01*
Y436227D01*
X1781674Y439125D01*
X1780543Y441855D01*
X1778901Y444312D01*
X1776812Y446401D01*
X1774355Y448043D01*
X1771625Y449174D01*
X1768727Y449750D01*
D02*
G37*
G36*
X1725843Y419000D02*
X1722157D01*
X1718596Y418046D01*
X1715404Y416203D01*
X1712797Y413596D01*
X1710954Y410404D01*
X1710000Y406843D01*
Y403157D01*
X1710954Y399596D01*
X1712797Y396404D01*
X1715404Y393797D01*
X1716897Y392935D01*
Y391665D01*
X1715404Y390803D01*
X1712797Y388196D01*
X1710954Y385004D01*
X1710000Y381443D01*
Y377757D01*
X1710954Y374196D01*
X1712797Y371004D01*
X1715404Y368397D01*
X1718596Y366554D01*
X1722157Y365600D01*
X1725843D01*
X1729404Y366554D01*
X1732596Y368397D01*
X1734724Y370525D01*
X1736132Y370180D01*
X1736602Y368425D01*
X1738248Y365575D01*
X1740575Y363247D01*
X1743425Y361602D01*
X1746604Y360750D01*
X1749896D01*
X1753075Y361602D01*
X1755925Y363247D01*
X1758252Y365575D01*
X1759898Y368425D01*
X1760750Y371604D01*
Y374896D01*
X1759898Y378075D01*
X1758252Y380925D01*
X1755925Y383252D01*
X1753075Y384898D01*
X1749896Y385750D01*
X1746604D01*
X1743425Y384898D01*
X1740575Y383252D01*
X1739199Y381876D01*
X1737782Y382256D01*
X1737046Y385004D01*
X1735203Y388196D01*
X1732596Y390803D01*
X1731103Y391665D01*
Y392935D01*
X1732596Y393797D01*
X1735203Y396404D01*
X1737046Y399596D01*
X1738000Y403157D01*
Y406843D01*
X1737046Y410404D01*
X1735203Y413596D01*
X1732596Y416203D01*
X1729404Y418046D01*
X1725843Y419000D01*
D02*
G37*
G36*
X1236830Y676650D02*
X1233670D01*
X1230618Y675832D01*
X1227882Y674252D01*
X1225648Y672018D01*
X1224068Y669282D01*
X1223250Y666230D01*
Y665250D01*
X1220907D01*
X1217346Y664296D01*
X1214154Y662453D01*
X1212923Y661222D01*
X1211750Y661708D01*
Y665250D01*
X1183750D01*
Y637250D01*
X1211750D01*
Y640792D01*
X1212923Y641278D01*
X1214154Y640047D01*
X1217346Y638204D01*
X1220907Y637250D01*
X1224593D01*
X1228154Y638204D01*
X1231346Y640047D01*
X1233953Y642654D01*
X1234615Y643801D01*
X1235885D01*
X1236547Y642654D01*
X1239154Y640047D01*
X1242346Y638204D01*
X1245907Y637250D01*
X1249593D01*
X1253154Y638204D01*
X1256346Y640047D01*
X1258953Y642654D01*
X1260796Y645846D01*
X1261750Y649407D01*
Y653093D01*
X1260796Y656654D01*
X1258953Y659846D01*
X1256346Y662453D01*
X1253154Y664296D01*
X1249593Y665250D01*
X1247250D01*
Y666230D01*
X1246432Y669282D01*
X1244852Y672018D01*
X1242618Y674252D01*
X1239882Y675832D01*
X1236830Y676650D01*
D02*
G37*
G36*
X1019961Y556600D02*
X1016538D01*
X1013232Y555714D01*
X1010268Y554003D01*
X1008551Y552285D01*
X1008502Y552281D01*
X1003237Y551017D01*
X998235Y548945D01*
X993618Y546116D01*
X989501Y542600D01*
X985984Y538482D01*
X983155Y533866D01*
X981083Y528863D01*
X979819Y523598D01*
X979394Y518200D01*
X979423D01*
Y466514D01*
X978981Y465938D01*
X978200Y464053D01*
X977933Y462030D01*
Y454530D01*
X978200Y452507D01*
X978981Y450621D01*
X980223Y449002D01*
X981842Y447760D01*
X983727Y446979D01*
X985750Y446713D01*
X991250D01*
X993273Y446979D01*
X995159Y447760D01*
X996778Y449002D01*
X998020Y450621D01*
X998801Y452507D01*
X999067Y454530D01*
Y462030D01*
X998801Y464053D01*
X998020Y465938D01*
X997578Y466514D01*
Y518200D01*
X997561Y518328D01*
X997863Y521390D01*
X998793Y524458D01*
X1000304Y527285D01*
X1002338Y529762D01*
X1004816Y531796D01*
X1007643Y533307D01*
X1009573Y533893D01*
X1010268Y533197D01*
X1013232Y531486D01*
X1016538Y530600D01*
X1019961D01*
X1023268Y531486D01*
X1026232Y533197D01*
X1028653Y535618D01*
X1030364Y538582D01*
X1031250Y541889D01*
Y545312D01*
X1030364Y548618D01*
X1028653Y551582D01*
X1026232Y554003D01*
X1023268Y555714D01*
X1019961Y556600D01*
D02*
G37*
G36*
X1606796Y496000D02*
X1603504D01*
X1600325Y495148D01*
X1597475Y493503D01*
X1595148Y491175D01*
X1593502Y488325D01*
X1592650Y485146D01*
Y481854D01*
X1593502Y478675D01*
X1595148Y475825D01*
X1597475Y473498D01*
X1600325Y471852D01*
X1603504Y471000D01*
X1606796D01*
X1609975Y471852D01*
X1612825Y473498D01*
X1615152Y475825D01*
X1616798Y478675D01*
X1617650Y481854D01*
Y485146D01*
X1616798Y488325D01*
X1615152Y491175D01*
X1612825Y493503D01*
X1609975Y495148D01*
X1606796Y496000D01*
D02*
G37*
G36*
X1618043Y448250D02*
X1614357D01*
X1610796Y447296D01*
X1607604Y445453D01*
X1604997Y442846D01*
X1604135Y441353D01*
X1602865D01*
X1602003Y442846D01*
X1599396Y445453D01*
X1596204Y447296D01*
X1592643Y448250D01*
X1588957D01*
X1585396Y447296D01*
X1582204Y445453D01*
X1579597Y442846D01*
X1577754Y439654D01*
X1576800Y436093D01*
Y432407D01*
X1577754Y428846D01*
X1579597Y425654D01*
X1582204Y423047D01*
X1585396Y421204D01*
X1588957Y420250D01*
X1592643D01*
X1596204Y421204D01*
X1599396Y423047D01*
X1602003Y425654D01*
X1602865Y427147D01*
X1604135D01*
X1604997Y425654D01*
X1607604Y423047D01*
X1610796Y421204D01*
X1614357Y420250D01*
X1618043D01*
X1621604Y421204D01*
X1624796Y423047D01*
X1627403Y425654D01*
X1629246Y428846D01*
X1630200Y432407D01*
Y436093D01*
X1629246Y439654D01*
X1627403Y442846D01*
X1624796Y445453D01*
X1621604Y447296D01*
X1618043Y448250D01*
D02*
G37*
G36*
X53067Y245000D02*
X50433D01*
X47890Y244319D01*
X45610Y243002D01*
X43748Y241140D01*
X42432Y238860D01*
X41750Y236317D01*
Y233684D01*
X42432Y231140D01*
X43748Y228860D01*
X45610Y226998D01*
X47890Y225682D01*
X50433Y225000D01*
X53067D01*
X55610Y225682D01*
X57890Y226998D01*
X59752Y228860D01*
X61069Y231140D01*
X61750Y233684D01*
Y236317D01*
X61069Y238860D01*
X59752Y241140D01*
X57890Y243002D01*
X55610Y244319D01*
X53067Y245000D01*
D02*
G37*
G36*
X28066D02*
X25433D01*
X22890Y244319D01*
X20610Y243002D01*
X18748Y241140D01*
X17431Y238860D01*
X16750Y236317D01*
Y233684D01*
X17431Y231140D01*
X18748Y228860D01*
X20610Y226998D01*
X22890Y225682D01*
X25433Y225000D01*
X28066D01*
X30610Y225682D01*
X32890Y226998D01*
X34752Y228860D01*
X36068Y231140D01*
X36750Y233684D01*
Y236317D01*
X36068Y238860D01*
X34752Y241140D01*
X32890Y243002D01*
X30610Y244319D01*
X28066Y245000D01*
D02*
G37*
G36*
X453346Y188750D02*
X450054D01*
X446875Y187898D01*
X444025Y186252D01*
X441698Y183925D01*
X440052Y181075D01*
X439200Y177896D01*
Y174604D01*
X440052Y171425D01*
X441698Y168575D01*
X444025Y166248D01*
X446875Y164602D01*
X450054Y163750D01*
X453346D01*
X456525Y164602D01*
X459375Y166248D01*
X461702Y168575D01*
X463348Y171425D01*
X464200Y174604D01*
Y177896D01*
X463348Y181075D01*
X461702Y183925D01*
X459375Y186252D01*
X456525Y187898D01*
X453346Y188750D01*
D02*
G37*
G36*
X269000Y166500D02*
X245500D01*
Y160868D01*
X243028D01*
X242850Y161100D01*
X241466Y162162D01*
X239855Y162829D01*
X238125Y163057D01*
X228875D01*
X227146Y162829D01*
X225534Y162162D01*
X224150Y161100D01*
X223088Y159716D01*
X222421Y158104D01*
X222193Y156375D01*
Y153125D01*
X222421Y151396D01*
X223088Y149784D01*
X224150Y148400D01*
X225534Y147338D01*
X227146Y146671D01*
X228875Y146443D01*
X238125D01*
X239855Y146671D01*
X241466Y147338D01*
X242850Y148400D01*
X243028Y148632D01*
X245500D01*
Y145000D01*
X269000D01*
Y149382D01*
X288347D01*
X289031Y148698D01*
X290969Y147579D01*
X293131Y147000D01*
X295369D01*
X297531Y147579D01*
X299469Y148698D01*
X301052Y150281D01*
X302171Y152219D01*
X302750Y154381D01*
Y156619D01*
X302171Y158781D01*
X301052Y160719D01*
X299469Y162302D01*
X297531Y163421D01*
X295369Y164000D01*
X293131D01*
X290969Y163421D01*
X289031Y162302D01*
X288347Y161618D01*
X269000D01*
Y166500D01*
D02*
G37*
G36*
X192619Y192000D02*
X190381D01*
X188219Y191421D01*
X186281Y190302D01*
X184698Y188719D01*
X183579Y186781D01*
X183000Y184619D01*
Y182381D01*
X183579Y180219D01*
X183935Y179603D01*
Y176650D01*
X183904D01*
X184288Y172749D01*
X185413Y169039D01*
X183028Y167578D01*
X178791Y163959D01*
X175172Y159722D01*
X172261Y154971D01*
X170128Y149823D01*
X168828Y144405D01*
X168391Y138850D01*
X168414D01*
Y129400D01*
X168433Y129256D01*
X168309Y128001D01*
X168309D01*
X168199Y126883D01*
X168199Y126883D01*
X168152Y126406D01*
X167279Y123527D01*
X165861Y120874D01*
X163952Y118548D01*
X161626Y116639D01*
X158973Y115221D01*
X156094Y114348D01*
X153244Y114067D01*
X153100Y114086D01*
X137827D01*
X136262Y115651D01*
X133805Y117293D01*
X131307Y118328D01*
X131182Y119000D01*
X131307Y119672D01*
X133805Y120707D01*
X136262Y122349D01*
X138351Y124438D01*
X139993Y126895D01*
X141124Y129625D01*
X141700Y132523D01*
Y135477D01*
X141124Y138375D01*
X139993Y141105D01*
X138351Y143562D01*
X136262Y145651D01*
X133805Y147293D01*
X131075Y148424D01*
X128177Y149000D01*
X125223D01*
X122325Y148424D01*
X119595Y147293D01*
X117138Y145651D01*
X115049Y143562D01*
X113407Y141105D01*
X112372Y138607D01*
X111700Y138482D01*
X111028Y138607D01*
X109993Y141105D01*
X108351Y143562D01*
X106262Y145651D01*
X103805Y147293D01*
X101075Y148424D01*
X98177Y149000D01*
X95223D01*
X92325Y148424D01*
X89595Y147293D01*
X87138Y145651D01*
X85049Y143562D01*
X83407Y141105D01*
X82276Y138375D01*
X81700Y135477D01*
Y132523D01*
X82276Y129625D01*
X83407Y126895D01*
X85049Y124438D01*
X87138Y122349D01*
X89595Y120707D01*
X92093Y119672D01*
X92218Y119000D01*
X92093Y118328D01*
X89595Y117293D01*
X87138Y115651D01*
X85049Y113562D01*
X83427Y111135D01*
X82150Y110606D01*
X77862Y107978D01*
X74038Y104712D01*
X73734Y104356D01*
X72480Y104555D01*
X72110Y105447D01*
X69812Y108887D01*
X66887Y111812D01*
X63447Y114110D01*
X59626Y115693D01*
X55568Y116500D01*
X51432D01*
X47375Y115693D01*
X43553Y114110D01*
X40113Y111812D01*
X37188Y108887D01*
X34890Y105447D01*
X33307Y101625D01*
X32500Y97568D01*
Y93432D01*
X33307Y89375D01*
X34890Y85553D01*
X37188Y82113D01*
X40113Y79188D01*
X43553Y76890D01*
X47375Y75307D01*
X51432Y74500D01*
X55568D01*
X59626Y75307D01*
X63447Y76890D01*
X63544Y76954D01*
X64664Y76356D01*
Y69900D01*
X64640D01*
X65078Y64345D01*
X66378Y58927D01*
X68511Y53779D01*
X71422Y49028D01*
X75041Y44791D01*
X79278Y41172D01*
X84029Y38261D01*
X89177Y36128D01*
X94595Y34828D01*
X100150Y34391D01*
Y34414D01*
X179850D01*
Y34391D01*
X185405Y34828D01*
X190823Y36128D01*
X195971Y38261D01*
X200722Y41172D01*
X204959Y44791D01*
X208578Y49028D01*
X211489Y53779D01*
X213622Y58927D01*
X214922Y64345D01*
X215359Y69900D01*
X215359D01*
X215377Y71163D01*
X215662Y71534D01*
X216329Y73145D01*
X216557Y74875D01*
Y78125D01*
X216329Y79854D01*
X215662Y81466D01*
X215336Y81890D01*
Y106000D01*
X215360D01*
X214922Y109328D01*
X213637Y112430D01*
X212960Y113313D01*
X212801Y114523D01*
X212020Y116408D01*
X210777Y118027D01*
X209158Y119270D01*
X207273Y120050D01*
X207117Y120071D01*
X206946Y121375D01*
X208408Y121980D01*
X210027Y123223D01*
X211270Y124842D01*
X212050Y126727D01*
X212317Y128750D01*
Y136250D01*
X212050Y138273D01*
X211270Y140158D01*
X210027Y141777D01*
X208408Y143020D01*
X206523Y143800D01*
X204500Y144067D01*
X199000D01*
X196977Y143800D01*
X195092Y143020D01*
X194527Y142586D01*
X190139D01*
X189383Y143606D01*
X189721Y144723D01*
X191140Y147376D01*
X193048Y149702D01*
X195374Y151610D01*
X198027Y153029D01*
X200906Y153902D01*
X203867Y154194D01*
X203900Y154164D01*
Y154164D01*
X206511Y154507D01*
X208943Y155515D01*
X209501Y155943D01*
X209625D01*
X211355Y156171D01*
X212966Y156838D01*
X214350Y157900D01*
X215412Y159284D01*
X216080Y160896D01*
X216307Y162625D01*
Y165875D01*
X216080Y167605D01*
X215412Y169216D01*
X214350Y170600D01*
X212966Y171662D01*
X211355Y172330D01*
X209625Y172557D01*
X209501D01*
X208943Y172985D01*
X206511Y173993D01*
X203900Y174336D01*
Y174359D01*
X199900Y174045D01*
X199404Y174788D01*
X199052Y176556D01*
X199065Y176650D01*
Y179603D01*
X199421Y180219D01*
X200000Y182381D01*
Y184619D01*
X199421Y186781D01*
X198302Y188719D01*
X196719Y190302D01*
X194781Y191421D01*
X192619Y192000D01*
D02*
G37*
G36*
X55568Y163500D02*
X51432D01*
X47375Y162693D01*
X43553Y161110D01*
X40113Y158812D01*
X37188Y155887D01*
X34890Y152447D01*
X33307Y148625D01*
X32500Y144568D01*
Y140432D01*
X33307Y136375D01*
X34890Y132553D01*
X37188Y129113D01*
X40113Y126188D01*
X43553Y123890D01*
X47375Y122307D01*
X51432Y121500D01*
X55568D01*
X59626Y122307D01*
X63447Y123890D01*
X66887Y126188D01*
X69812Y129113D01*
X72110Y132553D01*
X73693Y136375D01*
X74500Y140432D01*
Y144568D01*
X73693Y148625D01*
X72110Y152447D01*
X69812Y155887D01*
X66887Y158812D01*
X63447Y161110D01*
X59626Y162693D01*
X55568Y163500D01*
D02*
G37*
G36*
X464200Y137950D02*
X439200D01*
Y112950D01*
X464200D01*
Y137950D01*
D02*
G37*
G36*
X239500Y144067D02*
X234000D01*
X231977Y143800D01*
X230092Y143020D01*
X228473Y141777D01*
X227230Y140158D01*
X226450Y138273D01*
X226183Y136250D01*
Y128750D01*
X226450Y126727D01*
X227230Y124842D01*
X228473Y123223D01*
X229079Y122757D01*
X230287Y120498D01*
X230267Y120325D01*
X229618Y119827D01*
X228015Y117738D01*
X227007Y115305D01*
X226664Y112695D01*
X226933Y110649D01*
Y105000D01*
X227199Y102977D01*
X227980Y101092D01*
X229223Y99473D01*
X230842Y98230D01*
X232727Y97450D01*
X234750Y97183D01*
X240250D01*
X242273Y97450D01*
X244158Y98230D01*
X245777Y99473D01*
X247020Y101092D01*
X247801Y102977D01*
X248067Y105000D01*
Y110052D01*
X248219Y110281D01*
X248922Y110750D01*
X249746Y110914D01*
X263000D01*
X265611Y111257D01*
X268043Y112265D01*
X270132Y113868D01*
X271735Y115957D01*
X272743Y118390D01*
X273086Y121000D01*
X272743Y123610D01*
X271735Y126043D01*
X270132Y128132D01*
X268043Y129735D01*
X265611Y130743D01*
X263000Y131086D01*
X261062D01*
X260289Y132094D01*
X260500Y132881D01*
Y135119D01*
X259921Y137281D01*
X258802Y139219D01*
X257219Y140802D01*
X255281Y141921D01*
X253119Y142500D01*
X250881D01*
X248719Y141921D01*
X248102Y141565D01*
X245191D01*
X245027Y141777D01*
X243408Y143020D01*
X241523Y143800D01*
X239500Y144067D01*
D02*
G37*
G36*
X453346Y107650D02*
X450054D01*
X446875Y106798D01*
X444025Y105153D01*
X441698Y102825D01*
X440052Y99975D01*
X439200Y96796D01*
Y93504D01*
X440052Y90325D01*
X441698Y87475D01*
X444025Y85147D01*
X446875Y83502D01*
X450054Y82650D01*
X453346D01*
X456525Y83502D01*
X459375Y85147D01*
X461702Y87475D01*
X463348Y90325D01*
X464200Y93504D01*
Y96796D01*
X463348Y99975D01*
X461702Y102825D01*
X459375Y105153D01*
X456525Y106798D01*
X453346Y107650D01*
D02*
G37*
G36*
X272250Y78750D02*
X248750D01*
Y73117D01*
X243278D01*
X243100Y73350D01*
X241716Y74412D01*
X240105Y75079D01*
X238375Y75307D01*
X229125D01*
X227395Y75079D01*
X225784Y74412D01*
X224400Y73350D01*
X223338Y71966D01*
X222670Y70354D01*
X222443Y68625D01*
Y65375D01*
X222670Y63646D01*
X223338Y62034D01*
X224400Y60650D01*
X225784Y59588D01*
X227395Y58920D01*
X229125Y58693D01*
X238375D01*
X240105Y58920D01*
X241716Y59588D01*
X243100Y60650D01*
X243278Y60883D01*
X248750D01*
Y57250D01*
X272250D01*
Y60633D01*
X296597D01*
X297281Y59948D01*
X299219Y58829D01*
X301381Y58250D01*
X303619D01*
X305781Y58829D01*
X307719Y59948D01*
X309302Y61531D01*
X310421Y63469D01*
X311000Y65631D01*
Y67869D01*
X310421Y70031D01*
X309302Y71969D01*
X307719Y73552D01*
X305781Y74671D01*
X303619Y75250D01*
X301381D01*
X299219Y74671D01*
X297281Y73552D01*
X296597Y72867D01*
X272250D01*
Y78750D01*
D02*
G37*
G36*
X580346Y56850D02*
X577054D01*
X573875Y55998D01*
X571025Y54352D01*
X568698Y52025D01*
X567052Y49175D01*
X566657Y47703D01*
X565343D01*
X564948Y49175D01*
X563302Y52025D01*
X560975Y54352D01*
X558125Y55998D01*
X554946Y56850D01*
X551654D01*
X548475Y55998D01*
X545625Y54352D01*
X543298Y52025D01*
X541652Y49175D01*
X541257Y47703D01*
X539943D01*
X539548Y49175D01*
X537902Y52025D01*
X535575Y54352D01*
X532725Y55998D01*
X529546Y56850D01*
X526254D01*
X523075Y55998D01*
X520225Y54352D01*
X517897Y52025D01*
X516252Y49175D01*
X515857Y47703D01*
X514543D01*
X514148Y49175D01*
X512503Y52025D01*
X510175Y54352D01*
X507325Y55998D01*
X504146Y56850D01*
X500854D01*
X497675Y55998D01*
X494825Y54352D01*
X492497Y52025D01*
X490852Y49175D01*
X490000Y45996D01*
Y42704D01*
X490852Y39525D01*
X492497Y36675D01*
X494825Y34348D01*
X497675Y32702D01*
X500854Y31850D01*
X504146D01*
X507325Y32702D01*
X510175Y34348D01*
X512503Y36675D01*
X514148Y39525D01*
X514543Y40997D01*
X515857D01*
X516252Y39525D01*
X517897Y36675D01*
X520225Y34348D01*
X523075Y32702D01*
X526254Y31850D01*
X529546D01*
X532725Y32702D01*
X535575Y34348D01*
X537902Y36675D01*
X539548Y39525D01*
X539943Y40997D01*
X541257D01*
X541652Y39525D01*
X543298Y36675D01*
X545625Y34348D01*
X548475Y32702D01*
X551654Y31850D01*
X554946D01*
X558125Y32702D01*
X560975Y34348D01*
X563302Y36675D01*
X564948Y39525D01*
X565343Y40997D01*
X566657D01*
X567052Y39525D01*
X568698Y36675D01*
X571025Y34348D01*
X573875Y32702D01*
X577054Y31850D01*
X580346D01*
X583525Y32702D01*
X586375Y34348D01*
X588703Y36675D01*
X590348Y39525D01*
X591200Y42704D01*
Y45996D01*
X590348Y49175D01*
X588703Y52025D01*
X586375Y54352D01*
X583525Y55998D01*
X580346Y56850D01*
D02*
G37*
G36*
X464200D02*
X439200D01*
Y31850D01*
X464200D01*
Y56850D01*
D02*
G37*
%LPD*%
G36*
X195092Y121980D02*
X196977Y121200D01*
X197132Y121179D01*
X197304Y119875D01*
X195842Y119270D01*
X194223Y118027D01*
X192980Y116408D01*
X192199Y114523D01*
X192107Y113821D01*
X189464Y112409D01*
X185908Y109490D01*
X182990Y105935D01*
X180821Y101878D01*
X179486Y97476D01*
X179101Y93564D01*
X178728Y92917D01*
X178148Y90755D01*
Y88517D01*
X178728Y86355D01*
X179847Y84417D01*
X181429Y82835D01*
X183367Y81715D01*
X185529Y81136D01*
X187767D01*
X189929Y81715D01*
X191867Y82835D01*
X193450Y84417D01*
X193894Y85186D01*
X195164Y84846D01*
Y81890D01*
X194838Y81466D01*
X194170Y79854D01*
X193943Y78125D01*
Y74875D01*
X194170Y73145D01*
X194838Y71534D01*
X195164Y71109D01*
Y69900D01*
X195183Y69756D01*
X194902Y66906D01*
X194029Y64027D01*
X192610Y61374D01*
X190702Y59048D01*
X188376Y57140D01*
X185723Y55721D01*
X182844Y54848D01*
X179994Y54567D01*
X179850Y54586D01*
X100150D01*
X100006Y54567D01*
X97156Y54848D01*
X94277Y55721D01*
X91624Y57140D01*
X90893Y57739D01*
X91419Y58951D01*
X91700Y58914D01*
X101700D01*
X104311Y59257D01*
X106743Y60265D01*
X108832Y61868D01*
X110435Y63957D01*
X111443Y66389D01*
X111635Y67854D01*
X112939Y68025D01*
X113407Y66895D01*
X115049Y64438D01*
X117138Y62349D01*
X119595Y60707D01*
X122325Y59577D01*
X125223Y59000D01*
X128177D01*
X131075Y59577D01*
X133805Y60707D01*
X136262Y62349D01*
X138351Y64438D01*
X139993Y66895D01*
X141124Y69625D01*
X141700Y72523D01*
Y75477D01*
X141124Y78375D01*
X139993Y81105D01*
X138351Y83562D01*
X136262Y85651D01*
X133805Y87293D01*
X131307Y88328D01*
X131182Y89000D01*
X131307Y89672D01*
X133805Y90707D01*
X136262Y92349D01*
X137827Y93914D01*
X153100D01*
Y93891D01*
X158655Y94328D01*
X164073Y95628D01*
X169221Y97761D01*
X173972Y100672D01*
X178209Y104291D01*
X181828Y108528D01*
X184739Y113279D01*
X186871Y118427D01*
X187829Y122414D01*
X194527D01*
X195092Y121980D01*
D02*
G37*
%LPC*%
G36*
X580346Y137950D02*
X577054D01*
X573875Y137098D01*
X571025Y135452D01*
X568698Y133125D01*
X567052Y130275D01*
X566657Y128803D01*
X565343D01*
X564948Y130275D01*
X563302Y133125D01*
X560975Y135452D01*
X558125Y137098D01*
X554946Y137950D01*
X551654D01*
X548475Y137098D01*
X545625Y135452D01*
X543298Y133125D01*
X541652Y130275D01*
X541257Y128803D01*
X539943D01*
X539548Y130275D01*
X537902Y133125D01*
X535575Y135452D01*
X532725Y137098D01*
X529546Y137950D01*
X526254D01*
X523075Y137098D01*
X520225Y135452D01*
X517897Y133125D01*
X516252Y130275D01*
X515857Y128803D01*
X514543D01*
X514148Y130275D01*
X512503Y133125D01*
X510175Y135452D01*
X507325Y137098D01*
X504146Y137950D01*
X500854D01*
X497675Y137098D01*
X494825Y135452D01*
X492497Y133125D01*
X490852Y130275D01*
X490000Y127096D01*
Y123804D01*
X490852Y120625D01*
X492497Y117775D01*
X494825Y115448D01*
X497675Y113802D01*
X500854Y112950D01*
X504146D01*
X507325Y113802D01*
X510175Y115448D01*
X512503Y117775D01*
X514148Y120625D01*
X514543Y122097D01*
X515857D01*
X516252Y120625D01*
X517897Y117775D01*
X520225Y115448D01*
X523075Y113802D01*
X526254Y112950D01*
X529546D01*
X532725Y113802D01*
X535575Y115448D01*
X537902Y117775D01*
X539548Y120625D01*
X539943Y122097D01*
X541257D01*
X541652Y120625D01*
X543298Y117775D01*
X545625Y115448D01*
X548475Y113802D01*
X551654Y112950D01*
X554946D01*
X558125Y113802D01*
X560975Y115448D01*
X563302Y117775D01*
X564948Y120625D01*
X565343Y122097D01*
X566657D01*
X567052Y120625D01*
X568698Y117775D01*
X571025Y115448D01*
X573875Y113802D01*
X577054Y112950D01*
X580346D01*
X583525Y113802D01*
X586375Y115448D01*
X588703Y117775D01*
X590348Y120625D01*
X591200Y123804D01*
Y127096D01*
X590348Y130275D01*
X588703Y133125D01*
X586375Y135452D01*
X583525Y137098D01*
X580346Y137950D01*
D02*
G37*
%LPD*%
D10*
X1490097Y44500D02*
G03*
X1516250Y70653I0J26153D01*
G01*
X1082500Y100000D02*
G03*
X1079000Y96500I0J-3500D01*
G01*
X1272000Y53000D02*
G03*
X1277000Y58000I0J5000D01*
G01*
X1249000Y63000D02*
G03*
X1259000Y53000I10000J0D01*
G01*
X1256775Y343860D02*
G03*
X1281500Y368585I0J24725D01*
G01*
X1199000Y313500D02*
G03*
X1203250Y317750I0J4250D01*
G01*
X1139100Y137600D02*
G03*
X1145750Y144250I0J6650D01*
G01*
X1233000Y390500D02*
G03*
X1233872Y389395I1476J269D01*
G01*
X1238105Y384854D02*
G03*
X1239405Y383868I1411J510D01*
G01*
X1239415Y383867D02*
G03*
X1239640Y383860I225J3345D01*
G01*
X1203000Y130250D02*
G03*
X1195650Y137600I-7350J0D01*
G01*
X1089500Y112000D02*
G03*
X1100500Y123000I0J11000D01*
G01*
X1072000Y118250D02*
G03*
X1078250Y112000I6250J0D01*
G01*
X1079000Y178750D02*
G03*
X1072000Y171750I0J-7000D01*
G01*
X1060750Y72400D02*
G03*
X1088650Y44500I27900J0D01*
G01*
X1060750Y359998D02*
G03*
X1037850Y382898I-22900J0D01*
G01*
X1130250Y427250D02*
G03*
X1111500Y408500I0J-18750D01*
G01*
X1166250Y416000D02*
G03*
X1185750Y396500I19500J0D01*
G01*
X1166250Y416000D02*
G03*
X1155000Y427250I-11250J0D01*
G01*
X950750Y78976D02*
G03*
X949750Y79977I-1000J0D01*
G01*
X910250Y166850D02*
G03*
X890850Y186250I-19400J0D01*
G01*
X692450D02*
G03*
X673050Y166850I0J-19400D01*
G01*
X1555653Y516245D02*
G03*
X1537250Y497750I93J-18495D01*
G01*
X1555826Y516239D02*
G03*
X1555653Y516245I-163J-1993D01*
G01*
X1577047Y523491D02*
G03*
X1584101Y539531I-14710J16040D01*
G01*
X1555826Y516239D02*
G03*
X1577047Y523491I2332J27850D01*
G01*
X1558750Y524500D02*
G03*
X1567750Y533500I0J9000D01*
G01*
X1541650Y226250D02*
G03*
X1516250Y200850I0J-25400D01*
G01*
X1671250Y259000D02*
G03*
X1658000Y245750I0J-13250D01*
G01*
X1639086Y226250D02*
G03*
X1658042Y245205I0J18955D01*
G01*
X1630500Y230500D02*
G03*
X1645500Y245500I0J15000D01*
G01*
X1532900Y230500D02*
G03*
X1508500Y206100I0J-24400D01*
G01*
X1483100Y49000D02*
G03*
X1508500Y74400I0J25400D01*
G01*
X1670900Y284000D02*
G03*
X1645500Y258600I0J-25400D01*
G01*
X1238000Y393750D02*
G03*
X1235250Y396500I-2750J0D01*
G01*
X1238000Y393750D02*
G03*
X1239890Y391860I1890J0D01*
G01*
X1238105Y384854D02*
G03*
X1233872Y389395I-7279J-2541D01*
G01*
X1236500Y444000D02*
G03*
X1255640Y424860I19140J0D01*
G01*
X1369765Y408912D02*
G03*
X1382000Y426220I-6125J17308D01*
G01*
X1404265Y455750D02*
G03*
X1382000Y433485I0J-22265D01*
G01*
X1093750Y305000D02*
G03*
X1097750Y301000I4000J0D01*
G01*
X1185819Y605866D02*
G03*
X1182250Y597250I8616J-8616D01*
G01*
X1249640Y375860D02*
G03*
X1250500Y375000I860J0D01*
G01*
X1330640Y443360D02*
G03*
X1328500Y445500I-2140J0D01*
G01*
X1347750Y461250D02*
G03*
X1346640Y460140I0J-1110D01*
G01*
X1323750Y485250D02*
G03*
X1347750Y461250I24000J0D01*
G01*
X1322486Y435308D02*
G03*
X1321463Y436361I-1846J-770D01*
G01*
X1319750Y510690D02*
G03*
X1297240Y533200I-22510J0D01*
G01*
X1319750Y439000D02*
G03*
X1321463Y436361I2890J0D01*
G01*
X1268450Y533200D02*
G03*
X1279250Y544000I0J10800D01*
G01*
X1376110Y399860D02*
G03*
X1376500Y400250I0J390D01*
G01*
X854750Y381253D02*
G03*
X853750Y382253I-1000J0D01*
G01*
X770774Y298819D02*
G03*
X770750Y298000I13726J-820D01*
G01*
X784500Y311750D02*
G03*
X770774Y298819I0J-13750D01*
G01*
X1659128Y643212D02*
G03*
X1639590Y662750I-19538J0D01*
G01*
X1592850D02*
G03*
X1574100Y644000I0J-18750D01*
G01*
X1548700D02*
G03*
X1535750Y631050I0J-12950D01*
G01*
X1523250Y644000D02*
G03*
X1513500Y634250I0J-9750D01*
G01*
X938500Y126500D02*
G03*
X915000Y103000I0J-23500D01*
G01*
X938500Y126500D02*
G03*
X950204Y138204I0J11704D01*
G01*
X948500Y142214D02*
G03*
X950204Y140510I1704J0D01*
G01*
X984500Y202250D02*
G03*
X985250Y201500I750J0D01*
G01*
X1194750Y171930D02*
G03*
X1220150Y146530I25400J0D01*
G01*
X1072250Y215500D02*
G03*
X1080500Y223750I0J8250D01*
G01*
X1093750Y240000D02*
G03*
X1080500Y226750I0J-13250D01*
G01*
X1054000Y239000D02*
G03*
X1031250Y261750I-22750J0D01*
G01*
X1069500Y313650D02*
G03*
X1094900Y288250I25400J0D01*
G01*
X1076750Y313250D02*
G03*
X1095250Y294750I18500J0D01*
G01*
X1075750Y347650D02*
G03*
X1101650Y321750I25900J0D01*
G01*
X994500Y410257D02*
G03*
X986000Y401757I0J-8500D01*
G01*
X1075750Y406846D02*
G03*
X1050350Y432246I-25400J0D01*
G01*
X1213000Y230500D02*
G03*
X1194750Y212250I0J-18250D01*
G01*
X1233000Y328250D02*
G03*
X1233390Y327860I390J0D01*
G01*
X1265750Y294750D02*
G03*
X1274640Y303640I0J8890D01*
G01*
X1256780Y301000D02*
G03*
X1266640Y310860I0J9860D01*
G01*
X1266750Y328000D02*
G03*
X1258890Y335860I-7860J0D01*
G01*
X1262860Y351860D02*
G03*
X1266750Y355750I0J3890D01*
G01*
X1191574Y608250D02*
G03*
X1185819Y605866I0J-8138D01*
G01*
X1238750Y460760D02*
G03*
X1264150Y435360I25400J0D01*
G01*
X1253800Y571300D02*
G03*
X1238750Y556250I0J-15050D01*
G01*
X1278500Y562000D02*
G03*
X1269200Y571300I-9300J0D01*
G01*
X1295500Y175250D02*
G03*
X1286120Y184630I-9380J0D01*
G01*
X1285380D02*
G03*
X1307500Y206750I0J22120D01*
G01*
X1273500Y288250D02*
G03*
X1288500Y303250I0J15000D01*
G01*
X1324750Y224000D02*
G03*
X1307500Y206750I0J-17250D01*
G01*
X1355850Y224000D02*
G03*
X1381250Y249400I0J25400D01*
G01*
X1350600Y230500D02*
G03*
X1376000Y255900I0J25400D01*
G01*
X1321240Y240000D02*
G03*
X1346640Y265400I0J25400D01*
G01*
X1290640Y310860D02*
G03*
X1288500Y308720I0J-2140D01*
G01*
X1330640Y310860D02*
G03*
X1329500Y309720I0J-1140D01*
G01*
X1282640Y316860D02*
G03*
X1277750Y321750I-4890J0D01*
G01*
X1341750Y364500D02*
G03*
X1346390Y359860I4640J0D01*
G01*
X1322640Y375110D02*
G03*
X1301750Y396000I-20890J0D01*
G01*
X1311500Y406000D02*
G03*
X1281500Y376000I0J-30000D01*
G01*
X1345000Y406000D02*
G03*
X1352500Y413500I0J7500D01*
G01*
X1368750Y322750D02*
G03*
X1363640Y327860I-5110J0D01*
G01*
X1349000Y343250D02*
G03*
X1356390Y335860I7390J0D01*
G01*
X1376000Y337750D02*
G03*
X1369890Y343860I-6110J0D01*
G01*
X1381250Y334250D02*
G03*
X1363640Y351860I-17610J0D01*
G01*
X1349250Y353000D02*
G03*
X1349000Y352750I0J-250D01*
G01*
X1478000Y264146D02*
G03*
X1482699Y259447I4699J0D01*
G01*
X1443600Y257000D02*
G03*
X1469000Y282400I0J25400D01*
G01*
X1288972Y431125D02*
G03*
X1289265Y430798I1625J1165D01*
G01*
X1288972Y431125D02*
G03*
X1288525Y431708I-7472J-5265D01*
G01*
X1288175Y432341D02*
G03*
X1288525Y431708I1897J635D01*
G01*
X1288175Y432341D02*
G03*
X1284015Y435360I-4160J-1356D01*
G01*
X1325750Y411750D02*
G03*
X1334229Y414931I0J12890D01*
G01*
X1309750Y412500D02*
G03*
X1314640Y417390I0J4890D01*
G01*
X1334436Y415091D02*
G03*
X1334229Y414931I1115J-1660D01*
G01*
X1334436Y415091D02*
G03*
X1335796Y416534I-2421J3644D01*
G01*
X1335934Y416738D02*
G03*
X1335796Y416534I1585J-1219D01*
G01*
X1335934Y416738D02*
G03*
X1337242Y418801I-10184J7902D01*
G01*
X1337260Y418835D02*
G03*
X1337242Y418801I1760J-950D01*
G01*
X1377900Y476000D02*
G03*
X1352500Y450600I0J-25400D01*
G01*
X1414750Y476000D02*
G03*
X1424000Y485250I0J9250D01*
G01*
X1499660Y447584D02*
G03*
X1478000Y425924I0J-21660D01*
G01*
X1497000Y452500D02*
G03*
X1469000Y424500I0J-28000D01*
G01*
X1465000Y455750D02*
G03*
X1482000Y472750I0J17000D01*
G01*
X1504000Y526250D02*
G03*
X1482000Y504250I0J-22000D01*
G01*
X1507750Y581250D02*
G03*
X1503500Y577000I0J-4250D01*
G01*
X1513750Y452500D02*
G03*
X1528000Y466750I0J14250D01*
G01*
X1511850Y447584D02*
G03*
X1537250Y472984I0J25400D01*
G01*
X1544250Y524500D02*
G03*
X1528000Y508250I0J-16250D01*
G01*
X1544250Y524500D02*
G03*
X1561250Y541500I0J17000D01*
G01*
X1515750Y526250D02*
G03*
X1535750Y546250I0J20000D01*
G01*
X1584101Y578898D02*
G03*
X1573749Y589250I-10352J0D01*
G01*
X678250Y50500D02*
G03*
X676750Y52000I-1500J0D01*
G01*
X807650Y21400D02*
G03*
X800500Y14250I0J-7150D01*
G01*
X808650Y84900D02*
G03*
X799500Y75750I0J-9150D01*
G01*
X858384Y20425D02*
G03*
X861000Y19250I2616J2325D01*
G01*
X874050Y64500D02*
G03*
X858300Y48750I0J-15750D01*
G01*
X905750Y48650D02*
G03*
X931150Y23250I25400J0D01*
G01*
X910250Y52650D02*
G03*
X935650Y27250I25400J0D01*
G01*
X915000Y56650D02*
G03*
X940400Y31250I25400J0D01*
G01*
X905750Y51250D02*
G03*
X892500Y64500I-13250J0D01*
G01*
X1043500Y67500D02*
G03*
X1031023Y79977I-12477J0D01*
G01*
X1043500Y60900D02*
G03*
X1068900Y35500I25400J0D01*
G01*
X1054000Y65650D02*
G03*
X1079400Y40250I25400J0D01*
G01*
X1070000Y74400D02*
G03*
X1095400Y49000I25400J0D01*
G01*
X846750Y155500D02*
G03*
X847750Y154500I1000J0D01*
G01*
X806250Y283750D02*
G03*
X828250Y261750I22000J0D01*
G01*
X806250Y283750D02*
G03*
X791181Y298819I-15069J0D01*
G01*
X260500Y68000D02*
G03*
X261750Y66750I1250J0D01*
G01*
X259500Y67000D02*
G03*
X260500Y68000I0J1000D01*
G01*
X257000Y155500D02*
G03*
X256250Y154750I0J-750D01*
G01*
X1774229Y163595D02*
G03*
X1750500Y184000I-23729J-3595D01*
G01*
X1774250Y163317D02*
G03*
X1774229Y163595I-2000J-10D01*
G01*
X1759750Y40250D02*
G03*
X1774250Y54750I0J14500D01*
G01*
X1786250Y233600D02*
G03*
X1760850Y259000I-25400J0D01*
G01*
X1781973Y32944D02*
G03*
X1786250Y44500I-13473J11556D01*
G01*
X1781947Y32915D02*
G03*
X1781973Y32944I-1482J1343D01*
G01*
X1769100Y27250D02*
G03*
X1781947Y32915I0J17400D01*
G01*
X1790500Y258600D02*
G03*
X1765100Y284000I-25400J0D01*
G01*
X1769100Y23250D02*
G03*
X1790454Y43253I0J21400D01*
G01*
X1775404Y33880D02*
G03*
X1782250Y47187I-9511J13308D01*
G01*
X1782211Y213806D02*
G03*
X1757350Y234000I-24861J-5206D01*
G01*
X1782250Y213421D02*
G03*
X1782211Y213806I-2000J-10D01*
G01*
X1775250Y33780D02*
G03*
X1775403Y33879I-1008J1727D01*
G01*
X1765750Y31250D02*
G03*
X1775250Y33780I-0J19101D01*
G01*
X1778250Y183600D02*
G03*
X1752850Y209000I-25400J0D01*
G01*
X1764000Y35500D02*
G03*
X1778250Y49750I0J14250D01*
G01*
X1794500Y589350D02*
G03*
X1769100Y614750I-25400J0D01*
G01*
Y19250D02*
G03*
X1794500Y44650I0J25400D01*
G01*
X1790454Y43253D02*
G03*
X1790500Y44650I-21354J1397D01*
G01*
X1249640Y391860D02*
X1250926Y390574D01*
X1259426D02*
X1260000Y390000D01*
X1250926Y390574D02*
X1259426D01*
X1239890Y391860D02*
X1249640D01*
X1145000Y44500D02*
X1490097Y44500D01*
X1516250Y70653D02*
Y200850D01*
X1079000Y95000D02*
Y96500D01*
X1259000Y53000D02*
X1272000D01*
X1277000Y58000D02*
Y78000D01*
X1249640Y343860D02*
X1256775D01*
X1281500Y368585D02*
Y376000D01*
X1250500Y375000D02*
X1266000D01*
X1151250Y313500D02*
X1199000D01*
X1132500Y137600D02*
X1139100D01*
X1203250Y315250D02*
Y317750D01*
X1145750Y144250D02*
X1146750D01*
X1233000Y390500D02*
X1233000D01*
X1233000Y390500D02*
X1233000Y390500D01*
X1239405Y383868D02*
X1239415Y383867D01*
X1187000Y137600D02*
X1195650D01*
X1078250Y112000D02*
X1089500D01*
X1072000Y118250D02*
Y171750D01*
X1067250Y77150D02*
X1070000Y74400D01*
X1067250Y77150D02*
Y201500D01*
X1060750Y72400D02*
Y359998D01*
X1111500Y329250D02*
Y408500D01*
X1130250Y427250D02*
X1155000D01*
X950750Y67250D02*
Y78976D01*
X692450Y186250D02*
X890850D01*
X1478000Y264146D02*
Y425924D01*
X1555653Y516245D02*
X1555653Y516245D01*
X1584101Y539531D02*
Y578898D01*
X1541650Y226250D02*
X1639086D01*
X1532900Y230500D02*
X1630500D01*
X1671250Y259000D02*
X1725500D01*
X1095400Y49000D02*
X1483100D01*
X1508500Y74400D02*
Y206100D01*
X1645500Y245500D02*
Y258600D01*
X1670900Y284000D02*
X1725500D01*
X1185750Y396500D02*
X1235250D01*
X1243515Y401235D02*
X1249640Y399860D01*
X1220750Y408500D02*
X1221070Y408180D01*
X1249320D02*
X1249640Y407860D01*
X1221070Y408180D02*
X1249320D01*
X1239640Y383860D02*
X1249640D01*
X1255640Y424860D02*
X1266640D01*
X1382000Y426220D02*
Y433485D01*
X1363640Y407860D02*
X1369765Y408912D01*
X1404265Y455750D02*
X1465000D01*
X1093750Y305000D02*
X1094942D01*
X1097750Y301000D02*
X1256780D01*
X1182250Y576500D02*
Y597236D01*
X1181750Y576000D02*
X1182250Y576500D01*
X1182250Y597250D02*
X1182250Y597236D01*
X1330640Y424860D02*
Y443360D01*
X1346640Y424860D02*
Y460140D01*
X1323750Y485250D02*
Y532250D01*
X1319750Y439000D02*
Y510690D01*
X1322486Y435308D02*
X1322640Y434938D01*
Y425704D02*
Y434938D01*
X1268450Y533200D02*
X1297240D01*
X1258250D02*
X1268450D01*
X1321796Y425704D02*
X1322640Y424860D01*
X1363640Y399860D02*
X1376110D01*
X853750Y382898D02*
X1037850D01*
X854750Y370000D02*
Y381253D01*
X770750Y297750D02*
Y298000D01*
X770774Y298819D02*
X791181D01*
X769680D02*
X770774D01*
X1592850Y662750D02*
X1639590D01*
X1523250Y644000D02*
X1548700D01*
X950204Y138204D02*
Y140510D01*
X948500Y142214D02*
Y155500D01*
X985250Y201500D02*
X1030000D01*
X1271760Y146456D02*
Y146530D01*
X1220150D02*
X1271760D01*
X1194750Y171930D02*
Y212250D01*
X1080500Y223750D02*
Y226750D01*
X1095250Y294750D02*
X1265750D01*
X1069500Y313650D02*
Y329750D01*
X1069750D01*
X986000Y401750D02*
Y401757D01*
X1075750Y347650D02*
Y406846D01*
X1039250Y432246D02*
X1050350D01*
X1093750Y240000D02*
X1321240D01*
X1094900Y288250D02*
X1273500D01*
X1101650Y321750D02*
X1277750D01*
X1233390Y327860D02*
X1249640D01*
X1266750Y328000D02*
Y328250D01*
X1249640Y335860D02*
X1258890D01*
X1249640Y351860D02*
X1262860D01*
X1238750Y460760D02*
Y556250D01*
X1264150Y435360D02*
X1284015D01*
X1253800Y571300D02*
X1258250D01*
X1269200D01*
X1271760Y146456D02*
X1294148D01*
X1271760Y184630D02*
X1285380D01*
X1286120D01*
X1213000Y230500D02*
X1350600D01*
X1288500Y303250D02*
Y308720D01*
X1324750Y224000D02*
X1355850D01*
X1329500Y251000D02*
Y309720D01*
X1337750Y258250D02*
Y309970D01*
X1346640Y265400D02*
Y310860D01*
X1274640Y303640D02*
Y310860D01*
X1337750Y309970D02*
X1338640Y310860D01*
X1282640D02*
Y316860D01*
X1322640Y310860D02*
Y375110D01*
X1314640Y318822D02*
Y377750D01*
X1314750D01*
X1311500Y406000D02*
X1345000D01*
X1368750Y303000D02*
Y322750D01*
X1356390Y335860D02*
X1363640D01*
Y343860D02*
X1369890D01*
X1349000Y343250D02*
Y352750D01*
X1346390Y359860D02*
X1363640D01*
X1387750Y257000D02*
X1443600D01*
X1381250Y249400D02*
Y334250D01*
X1376000Y255900D02*
Y337750D01*
X1469000Y282400D02*
Y424500D01*
X1290640Y424860D02*
Y425860D01*
X1289265Y430985D02*
X1290640Y425860D01*
X1289265Y430798D02*
Y430985D01*
X1337260Y418835D02*
X1337265D01*
X1337260D02*
X1337260D01*
X1314640Y417390D02*
Y424860D01*
X1337265Y418835D02*
X1338640Y424640D01*
Y424860D01*
X1352500Y413500D02*
Y450600D01*
X1191574Y608250D02*
X1424250D01*
X1377900Y476000D02*
X1414750D01*
X1499660Y447584D02*
X1511850D01*
X1497000Y452500D02*
X1513750D01*
X1482000Y472750D02*
Y504250D01*
X1503500Y556250D02*
Y577000D01*
X1537250Y472984D02*
Y497750D01*
X1528000Y466750D02*
Y508250D01*
X1544250Y524500D02*
X1558750D01*
X1504000Y526250D02*
X1515750D01*
X1561250Y541500D02*
Y571750D01*
X1535750Y546250D02*
Y631050D01*
X1559250Y588750D02*
X1559750Y589250D01*
X1573749D01*
X257000Y155500D02*
X294250D01*
X261750Y66750D02*
X302500D01*
X678250Y37750D02*
Y50500D01*
X807650Y21400D02*
X818500D01*
X808650Y84900D02*
X818500D01*
X847750Y154500D02*
X864750D01*
X905750Y48650D02*
Y51250D01*
X874050Y64500D02*
X892500D01*
X915000Y56650D02*
Y103000D01*
X985000Y79977D02*
X1031023D01*
X910250Y52650D02*
Y166850D01*
X1043500Y60900D02*
Y67500D01*
X1054000Y65650D02*
Y239000D01*
X673050Y141500D02*
Y166850D01*
X828250Y261750D02*
X1031250D01*
X233750Y67000D02*
X259500D01*
X233500Y154750D02*
X256250D01*
X1088650Y44500D02*
X1145000D01*
Y40250D02*
X1759750Y40250D01*
X1079400Y40250D02*
X1145000D01*
Y35500D02*
X1764000Y35500D01*
X1068900Y35500D02*
X1145000D01*
Y31250D02*
X1765750Y31250D01*
X940400Y31250D02*
X1145000D01*
Y27250D02*
X1769100Y27250D01*
X935650Y27250D02*
X1145000D01*
Y23250D02*
X1769100Y23250D01*
X931150Y23250D02*
X1145000D01*
X861000Y19250D02*
X1769100D01*
X1774250Y54750D02*
Y163317D01*
X1750500Y259000D02*
X1760850D01*
X1750500Y284000D02*
X1765100D01*
X1790500Y44650D02*
Y258600D01*
X1782250Y47187D02*
Y213421D01*
Y213421D01*
X1782211Y213806D02*
X1782211Y213806D01*
X1775403Y33879D02*
X1775404Y33880D01*
X1775250Y33780D02*
X1775250Y33780D01*
X1765750Y31250D02*
X1765750D01*
X1750500Y234000D02*
X1757350D01*
X1778250Y49750D02*
Y183600D01*
X1750500Y209000D02*
X1752850D01*
X1794500Y44650D02*
Y589350D01*
X1767250Y614750D02*
X1769100D01*
X1786250Y44500D02*
Y233600D01*
D14*
X1249640Y399860D02*
G03*
X1247250Y402250I-2390J0D01*
G01*
X1234500D02*
X1247250D01*
D16*
X1507000Y594000D02*
G03*
X1506750Y594250I-250J0D01*
G01*
X1448750Y582000D02*
G03*
X1461000Y594250I0J12250D01*
G01*
X1635000Y168250D02*
G03*
X1644250Y159000I9250J0D01*
G01*
X1635000Y185400D02*
G03*
X1613750Y206650I-21250J0D01*
G01*
X431000Y683500D02*
G03*
X418250Y696250I-12750J0D01*
G01*
X326450D02*
G03*
X313600Y683400I0J-12850D01*
G01*
X1292250Y70000D02*
G03*
X1286250Y64000I0J-6000D01*
G01*
X1267750D02*
G03*
X1256750Y75000I-11000J0D01*
G01*
X1210350Y74100D02*
G03*
X1227250Y91000I0J16900D01*
G01*
D02*
G03*
X1243250Y75000I16000J0D01*
G01*
X1127000Y172000D02*
G03*
X1113750Y158750I0J-13250D01*
G01*
X1490500Y485750D02*
G03*
X1490000Y485250I0J-500D01*
G01*
X1443500Y507250D02*
G03*
X1443250Y507500I-250J0D01*
G01*
X1381570Y360900D02*
G03*
X1374610Y367860I-6960J0D01*
G01*
X1430150Y360900D02*
G03*
X1430500Y361250I0J350D01*
G01*
X1298640Y437710D02*
G03*
X1292810Y443540I-5830J0D01*
G01*
X1306640Y301120D02*
G03*
X1314830Y292930I8190J0D01*
G01*
X1258250Y596700D02*
G03*
X1254446Y600504I-3804J0D01*
G01*
X1191250Y598000D02*
G03*
X1197746Y591504I6496J0D01*
G01*
X1193754Y600504D02*
G03*
X1191250Y598000I0J-2504D01*
G01*
X1054000Y271750D02*
G03*
X1054250Y272000I0J250D01*
G01*
X987438Y239750D02*
G03*
X992121Y244433I0J4683D01*
G01*
X1201750Y215000D02*
G03*
X1204460Y212290I2710J0D01*
G01*
X1249590D02*
G03*
X1251850Y210030I2260J0D01*
G01*
X1107400Y158750D02*
G03*
X1082000Y133350I0J-25400D01*
G01*
X785405Y129000D02*
G03*
X781850Y129250I-3555J-25150D01*
G01*
X807250Y103850D02*
G03*
X785405Y129000I-25400J0D01*
G01*
X601922Y176250D02*
G03*
X606750Y178250I0J6828D01*
G01*
Y173250D02*
G03*
X625000Y155000I18250J0D01*
G01*
X1156250Y149321D02*
G03*
X1149321Y156250I-6929J0D01*
G01*
X1139950Y112200D02*
G03*
X1156250Y128500I0J16300D01*
G01*
X1187000Y150000D02*
G03*
X1183500Y153500I-3500J0D01*
G01*
X1102400Y124900D02*
G03*
X1100500Y123000I0J-1900D01*
G01*
X994500Y99500D02*
G03*
X999500Y94500I5000J0D01*
G01*
X1228900Y61400D02*
G03*
X1230500Y63000I0J1600D01*
G01*
X1155000Y78250D02*
G03*
X1171850Y61400I16850J0D01*
G01*
X238250Y134000D02*
G03*
X236750Y132500I0J-1500D01*
G01*
X641750Y162250D02*
G03*
X644750Y159250I3000J0D01*
G01*
X1132500Y99500D02*
G03*
X1132000Y100000I-500J0D01*
G01*
X1101000D02*
G03*
X1105750Y104750I0J4750D01*
G01*
X502400Y205750D02*
G03*
X477000Y180350I0J-25400D01*
G01*
X605250Y84292D02*
G03*
X604750Y85500I-1707J0D01*
G01*
X602539Y87711D02*
G03*
X584579Y95150I-17960J-17960D01*
G01*
X605250Y76000D02*
G03*
X615250Y66000I10000J0D01*
G01*
X1100750Y75250D02*
G03*
X1094250Y68750I0J-6500D01*
G01*
X1166750Y82000D02*
G03*
X1158750Y90000I-8000J0D01*
G01*
X1135700D02*
G03*
X1132500Y86800I0J-3200D01*
G01*
X1146000Y76500D02*
G03*
X1135700Y86800I-10300J0D01*
G01*
X1132500Y61400D02*
G03*
X1146000Y74900I0J13500D01*
G01*
X1166750Y82000D02*
G03*
X1174650Y74100I7900J0D01*
G01*
X1135250Y156250D02*
G03*
X1135000Y156000I0J-250D01*
G01*
X1113750Y140250D02*
G03*
X1116400Y137600I2650J0D01*
G01*
X616562Y123938D02*
G03*
X644179Y112500I27617J27620D01*
G01*
X660998Y112500D02*
G03*
X648000Y125250I-12997J-250D01*
G01*
X661000Y112250D02*
G03*
X660998Y112500I-13000J0D01*
G01*
X638502Y135502D02*
G03*
X638500Y135500I4223J-4227D01*
G01*
X642725Y137250D02*
G03*
X638502Y135502I0J-5975D01*
G01*
X638036Y135036D02*
G03*
X634500Y126500I8536J-8536D01*
G01*
X1750176Y156422D02*
G03*
X1750179Y156451I-4959J640D01*
G01*
X1735166Y144500D02*
G03*
X1750135Y156096I36J15413D01*
G01*
X1594850Y187750D02*
G03*
X1611250Y204150I0J16400D01*
G01*
X1608400Y159150D02*
G03*
X1583000Y133750I0J-25400D01*
G01*
X1613000Y159150D02*
G03*
X1627650Y144500I14650J0D01*
G01*
X1588786Y187750D02*
G03*
X1582750Y185250I0J-8536D01*
G01*
X1571007D02*
G03*
X1568781Y187476I-2226J0D01*
G01*
X1548031Y180750D02*
G03*
X1554757Y187476I0J6726D01*
G01*
X1554743Y162024D02*
G03*
X1549766Y167000I-4976J0D01*
G01*
X1566766Y162024D02*
G03*
X1570993Y166250I0J4226D01*
G01*
X389650Y632685D02*
G03*
X364400Y610041I0J-25400D01*
G01*
D02*
G03*
X364250Y607285I25250J-2756D01*
G01*
X748250Y340250D02*
G03*
X748500Y340000I250J0D01*
G01*
X777750Y342750D02*
G03*
X765500Y355000I-12250J0D01*
G01*
X705000Y310250D02*
G03*
X716431Y298819I11431J0D01*
G01*
X800000Y352859D02*
G03*
X799250Y352109I0J-750D01*
G01*
X788250Y394648D02*
G03*
X800000Y382898I11750J0D01*
G01*
X858384Y20425D02*
G03*
X883700Y45741I-0J25316D01*
G01*
X919750Y140500D02*
G03*
X920195Y140055I445J0D01*
G01*
X1506500Y518500D02*
G03*
X1506250Y518750I-250J0D01*
G01*
X1432580Y212080D02*
G03*
X1436250Y215750I0J3670D01*
G01*
X1386710Y210030D02*
G03*
X1388760Y212080I0J2050D01*
G01*
X644500Y262750D02*
G03*
X649000Y258250I4500J0D01*
G01*
X931250Y92000D02*
G03*
X922500Y100750I-8750J0D01*
G01*
D02*
G03*
X931250Y109500I0J8750D01*
G01*
X973506Y110016D02*
G03*
X975500Y112010I0J1994D01*
G01*
X953266Y110016D02*
G03*
X963000Y119750I0J9734D01*
G01*
X989240Y125750D02*
G03*
X975500Y112010I0J-13740D01*
G01*
X1011000Y121500D02*
G03*
X1006750Y125750I-4250J0D01*
G01*
X993750D02*
G03*
X1006000Y138000I0J12250D01*
G01*
Y141250D02*
G03*
X993000Y154250I-13000J0D01*
G01*
X975000Y172250D02*
G03*
X993000Y154250I18000J0D01*
G01*
X994000Y172000D02*
G03*
X1003750Y162250I9750J0D01*
G01*
X950000Y170000D02*
G03*
X966000Y186000I0J16000D01*
G01*
X979500Y202250D02*
G03*
X966000Y188750I0J-13500D01*
G01*
X1202540Y193290D02*
G03*
X1202000Y192750I0J-540D01*
G01*
X1253630Y197330D02*
G03*
X1249590Y193290I0J-4040D01*
G01*
X1013250Y397500D02*
G03*
X1013500Y397750I0J250D01*
G01*
X1008493Y424250D02*
G03*
X994500Y410257I0J-13993D01*
G01*
X1031254Y424250D02*
G03*
X1039250Y432246I0J7996D01*
G01*
X1225500Y347750D02*
G03*
X1224750Y348500I-750J0D01*
G01*
X1237610Y359860D02*
G03*
X1226023Y351271I0J-12110D01*
G01*
X1225400Y378280D02*
G03*
X1235820Y367860I10420J0D01*
G01*
X1210500Y379250D02*
G03*
X1211000Y378750I500J0D01*
G01*
X1191500Y582000D02*
G03*
X1191996Y581504I496J0D01*
G01*
X1240180Y584000D02*
G03*
X1237684Y581504I0J-2496D01*
G01*
X1295830Y257370D02*
G03*
X1295500Y257040I0J-330D01*
G01*
X1295830Y292930D02*
G03*
X1298640Y295740I0J2810D01*
G01*
X1347000Y134250D02*
G03*
X1347420Y133830I420J0D01*
G01*
X1356360Y383610D02*
G03*
X1349000Y376250I0J-7360D01*
G01*
X1349500Y399000D02*
G03*
X1356750Y391750I7250J0D01*
G01*
X1419250Y145250D02*
G03*
X1423510Y149510I0J4260D01*
G01*
X1389010Y154580D02*
G03*
X1388760Y154330I0J-250D01*
G01*
X1389010Y154580D02*
G03*
X1384360Y159230I-4650J0D01*
G01*
X1415680Y182750D02*
G03*
X1406510Y173580I0J-9170D01*
G01*
X1438760Y136580D02*
G03*
X1447250Y144667I0J8500D01*
G01*
X1454299Y145080D02*
G03*
X1471243Y162024I0J16944D01*
G01*
X1447260Y163580D02*
G03*
X1440304Y173105I-10000J0D01*
G01*
D02*
G03*
X1437260Y173580I-3044J-9525D01*
G01*
X1441699Y174500D02*
G03*
X1440304Y173105I0J-1395D01*
G01*
X1435010Y173580D02*
G03*
X1447510Y186080I0J12500D01*
G01*
X1432250Y182750D02*
G03*
X1436250Y186750I0J4000D01*
G01*
X1480476Y187476D02*
G03*
X1488750Y195750I0J8274D01*
G01*
X1388760Y193080D02*
G03*
X1384510Y197330I-4250J0D01*
G01*
X1377530Y375860D02*
G03*
X1381570Y379900I0J4040D01*
G01*
X1471257Y187476D02*
G03*
X1454153Y204580I-17104J0D01*
G01*
X1428000Y202500D02*
G03*
X1423760Y198260I0J-4240D01*
G01*
X1443580Y204580D02*
G03*
X1436250Y197250I0J-7330D01*
G01*
X1429650Y379900D02*
G03*
X1430000Y380250I0J350D01*
G01*
X1311810Y443540D02*
G03*
X1306640Y438370I0J-5170D01*
G01*
X1311810Y479100D02*
G03*
X1312500Y479790I0J690D01*
G01*
X1277050Y507800D02*
G03*
X1277250Y508000I0J200D01*
G01*
X1332000Y508500D02*
G03*
X1332700Y507800I700J0D01*
G01*
X1332250Y521000D02*
G03*
X1332750Y520500I500J0D01*
G01*
X1351254Y545793D02*
G03*
X1352650Y544500I1396J107D01*
G01*
X1351250Y545900D02*
G03*
X1351254Y545793I1400J0D01*
G01*
X1373510Y487080D02*
G03*
X1373840Y486750I330J0D01*
G01*
X1373930Y506500D02*
G03*
X1373510Y506080I0J-420D01*
G01*
X1384760Y517330D02*
G03*
X1373510Y506080I0J-11250D01*
G01*
Y534080D02*
G03*
X1372760Y534830I-750J0D01*
G01*
Y534990D02*
G03*
X1363250Y544500I-9510J0D01*
G01*
X1372760Y553830D02*
G03*
X1367990Y558600I-4770J0D01*
G01*
X1372480Y576830D02*
G03*
X1365310Y584000I-7170J0D01*
G01*
X1372480Y595830D02*
G03*
X1371610Y596700I-870J0D01*
G01*
X1374085Y637097D02*
G03*
X1374085Y637096I3535J-3536D01*
G01*
X1386000Y646350D02*
G03*
X1371500Y631850I0J-14500D01*
G01*
X1442750Y462750D02*
G03*
X1443500Y463500I0J750D01*
G01*
X1401750Y525330D02*
G03*
X1407010Y529510I326J4989D01*
G01*
X1461576Y517330D02*
G03*
X1486976Y542730I0J25400D01*
G01*
X1461500Y548500D02*
G03*
X1461000Y549000I-500J0D01*
G01*
X1424260Y553830D02*
G03*
X1426260Y555830I0J2000D01*
G01*
X1403180Y567250D02*
G03*
X1389760Y553830I0J-13420D01*
G01*
X1418180Y567250D02*
G03*
X1425260Y574330I0J7080D01*
G01*
X1416960Y586250D02*
G03*
X1407540Y576830I0J-9420D01*
G01*
X1433500Y628000D02*
G03*
X1415928Y646074I-18081J-0D01*
G01*
X1414446Y646350D02*
G03*
X1415928Y646074I1647J4721D01*
G01*
X1441000Y644250D02*
G03*
X1423400Y661850I-17600J0D01*
G01*
X1461524Y549257D02*
G03*
X1436451Y574330I-25073J0D01*
G01*
X1433500Y623500D02*
G03*
X1453500Y603500I20000J0D01*
G01*
X1457467D02*
G03*
X1485062Y623616I0J28986D01*
G01*
X1454250Y611000D02*
G03*
X1461000Y617750I0J6750D01*
G01*
X1441000Y623500D02*
G03*
X1453500Y611000I12500J0D01*
G01*
X1485062Y623616D02*
G03*
X1486453Y632486I-27595J8870D01*
G01*
X1461000Y632500D02*
G03*
X1464000Y635500I0J3000D01*
G01*
X1483000Y635939D02*
G03*
X1486453Y632486I3453J0D01*
G01*
X1484500Y669250D02*
G03*
X1483000Y667750I0J-1500D01*
G01*
X1485250Y689000D02*
G03*
X1464000Y667750I0J-21250D01*
G01*
X1553750Y129000D02*
G03*
X1554100Y128650I350J0D01*
G01*
X1584420Y200420D02*
G03*
X1582750Y198750I0J-1670D01*
G01*
X1523000Y568250D02*
G03*
X1523460Y568710I0J460D01*
G01*
X1547750Y569000D02*
G03*
X1548212Y569462I0J462D01*
G01*
X1676500Y311250D02*
G03*
X1655750Y332000I-20750J0D01*
G01*
X1518750Y655250D02*
G03*
X1524000Y660500I0J5250D01*
G01*
X1607000Y571750D02*
G03*
X1599480Y579270I-7520J0D01*
G01*
X1657500Y571750D02*
G03*
X1649980Y579270I-7520J0D01*
G01*
X1632750Y572500D02*
G03*
X1625980Y579270I-6770J0D01*
G01*
X202500Y108750D02*
G03*
X186648Y92898I0J-15852D01*
G01*
X191500Y176650D02*
G03*
X203900Y164250I12400J0D01*
G01*
X617000Y37500D02*
G03*
X638500Y16000I21500J0D01*
G01*
X626000Y50000D02*
G03*
X617000Y41000I0J-9000D01*
G01*
X687750Y28250D02*
G03*
X678250Y37750I-9500J0D01*
G01*
X721750Y49750D02*
G03*
X721500Y49500I0J-250D01*
G01*
X702750Y57000D02*
G03*
X710000Y49750I7250J0D01*
G01*
X698450Y141500D02*
G03*
X723450Y116500I25000J0D01*
G01*
X766800Y99900D02*
G03*
X764500Y97600I0J-2300D01*
G01*
X741750Y98000D02*
G03*
X742150Y97600I400J0D01*
G01*
X737500Y59500D02*
G03*
X736500Y58500I0J-1000D01*
G01*
X745250Y72000D02*
G03*
X757750Y59500I12500J0D01*
G01*
X837650Y21400D02*
G03*
X839000Y22750I0J1350D01*
G01*
X644250Y37500D02*
G03*
X644500Y37750I0J250D01*
G01*
X680959Y15579D02*
G03*
X679662Y15750I-1297J-4829D01*
G01*
X687750Y22250D02*
G03*
X698750Y11250I11000J0D01*
G01*
X725600Y34100D02*
G03*
X721500Y30000I0J-4100D01*
G01*
X758150Y84900D02*
G03*
X745250Y72000I0J-12900D01*
G01*
X705500Y96500D02*
G03*
X717100Y84900I11600J0D01*
G01*
X680000Y90750D02*
G03*
X679500Y91250I-500J0D01*
G01*
X705500Y96500D02*
G03*
X689500Y112500I-16000J0D01*
G01*
X741750Y116500D02*
G03*
X759500Y134250I0J17750D01*
G01*
X775000Y11250D02*
G03*
X784500Y20750I0J9500D01*
G01*
X801250Y37500D02*
G03*
X784500Y20750I0J-16750D01*
G01*
X799000Y46000D02*
G03*
X810900Y34100I11900J0D01*
G01*
X843650D02*
G03*
X858300Y48750I0J14650D01*
G01*
X812500Y59500D02*
G03*
X799000Y46000I0J-13500D01*
G01*
X769300Y46800D02*
G03*
X781750Y59250I0J12450D01*
G01*
X825300Y46800D02*
G03*
X838000Y59500I0J12700D01*
G01*
X781750Y59250D02*
G03*
X768800Y72200I-12950J0D01*
G01*
X838000Y59500D02*
G03*
X825300Y72200I-12700J0D01*
G01*
X994500Y47000D02*
G03*
X1001750Y39750I7250J0D01*
G01*
X963250Y41000D02*
G03*
X954313Y49937I-8937J0D01*
G01*
X973931D02*
G03*
X975500Y51506I0J1569D01*
G01*
X885000Y101000D02*
G03*
X882250Y98250I0J-2750D01*
G01*
X818000Y119500D02*
G03*
X832500Y134000I0J14500D01*
G01*
X861250Y131000D02*
G03*
X855250Y137000I-6000J0D01*
G01*
X679750Y134800D02*
G03*
X673050Y141500I-6700J0D01*
G01*
X735500Y270500D02*
G03*
X722250Y283750I-13250J0D01*
G01*
X644500Y281250D02*
G03*
X649000Y285750I0J4500D01*
G01*
X665750Y292000D02*
G03*
X657000Y283250I0J-8750D01*
G01*
X694750Y298531D02*
G03*
X712250Y283750I17500J2969D01*
G01*
X694750Y301250D02*
G03*
X694500Y301500I-250J0D01*
G01*
X726000Y358750D02*
G03*
X731000Y363750I0J5000D01*
G01*
X746750Y374500D02*
G03*
X739500Y367250I0J-7250D01*
G01*
X817250Y138500D02*
G03*
X807500Y148250I-9750J0D01*
G01*
X846750Y155500D02*
G03*
X832500Y141250I0J-14250D01*
G01*
X780250Y262250D02*
G03*
X786250Y256250I6000J0D01*
G01*
X760780Y268780D02*
G03*
X761250Y269250I0J470D01*
G01*
X863000Y341250D02*
G03*
X863250Y341500I0J250D01*
G01*
X843356Y352859D02*
G03*
X844250Y353753I0J894D01*
G01*
X818500Y353250D02*
G03*
X804000Y367750I-14500J0D01*
G01*
X778750Y384000D02*
G03*
X795000Y367750I16250J0D01*
G01*
X778750Y384000D02*
G03*
X777750Y383000I0J-1000D01*
G01*
X244750Y86000D02*
G03*
X247750Y89000I0J3000D01*
G01*
X261250Y87250D02*
G03*
X260500Y86500I0J-750D01*
G01*
X233500Y173750D02*
G03*
X234250Y174500I0J750D01*
G01*
X639750Y97750D02*
G03*
X639500Y98000I-250J0D01*
G01*
X939617Y39383D02*
Y40570D01*
X931250Y48937D02*
Y68250D01*
Y48937D02*
X939617Y40570D01*
Y39383D02*
X940000Y39000D01*
X1461000Y594250D02*
X1506750D01*
X1447000Y582000D02*
X1448750D01*
X1447000Y581250D02*
Y582000D01*
X1635000Y168250D02*
Y185400D01*
X326450Y696250D02*
X418250D01*
X1292250Y70000D02*
X1302000D01*
X1243250Y75000D02*
X1256750D01*
X1070750Y272000D02*
X1180000D01*
X1443500Y484791D02*
Y492000D01*
X1437750Y497750D02*
X1443500Y492000D01*
Y495250D02*
Y507250D01*
X1176500Y172750D02*
X1179867D01*
Y198617D01*
X1180250Y199000D01*
X1127000Y172000D02*
X1176500D01*
X1490500Y485750D02*
X1506500D01*
X1292810Y479100D02*
Y491500D01*
X1443500Y463500D02*
Y484791D01*
X1363640Y367860D02*
X1374610D01*
X1417130Y360900D02*
X1430150D01*
X1298640Y424860D02*
Y437710D01*
X1314750Y245750D02*
X1314830D01*
Y257370D01*
X1306640Y301120D02*
Y310860D01*
X1237684Y600504D02*
X1254446D01*
X1193754D02*
X1203620D01*
X1197746Y591504D02*
X1203750D01*
X1012500Y271750D02*
X1054000D01*
X1204460Y212290D02*
X1214030D01*
X1251850Y210030D02*
X1271760D01*
X653250Y239750D02*
X987438D01*
X1107400Y158750D02*
X1113750D01*
X1082000Y123000D02*
Y133350D01*
X807250Y97500D02*
Y103850D01*
X785405Y129000D02*
X788750D01*
X776750Y129250D02*
X781850D01*
X606750Y173250D02*
Y178250D01*
X578700Y176250D02*
X601922D01*
X578700Y95150D02*
X584579D01*
X1116400Y137600D02*
X1132500D01*
X1156250Y128500D02*
Y149321D01*
X1146750Y156250D02*
X1149321D01*
X1135250D02*
X1146750D01*
X1132500Y112200D02*
X1139950D01*
X1187000Y137600D02*
Y150000D01*
X1102400Y124900D02*
X1132500D01*
X999500Y94500D02*
Y95041D01*
X994500Y99500D02*
Y112010D01*
X995250Y111260D01*
X1187000Y61400D02*
X1228900D01*
X1171850D02*
X1187000D01*
X1155000Y78250D02*
Y80000D01*
X238250Y134000D02*
X252000D01*
X949750Y79977D02*
X985000D01*
X641750Y162250D02*
Y178250D01*
X1101000Y100000D02*
X1132000D01*
X477000Y129000D02*
Y180350D01*
X502400Y205750D02*
X931000D01*
X602539Y87711D02*
X604750Y85500D01*
X615250Y66000D02*
X626500D01*
X605250Y76000D02*
Y84292D01*
X1094250Y68000D02*
Y68750D01*
X1100750Y75250D02*
X1101900Y74100D01*
X1105750Y109000D02*
X1106762Y109670D01*
X1105750Y104750D02*
Y109000D01*
X1135700Y90000D02*
X1158750D01*
X1132500Y86800D02*
X1135700D01*
X1146000Y74900D02*
Y76500D01*
X1187000Y74100D02*
X1210350D01*
X1174650D02*
X1187000D01*
X1101900D02*
X1132500D01*
X616250Y123940D02*
X616560D01*
X644179Y112500D02*
X644195Y112500D01*
X660998D01*
X615500Y126500D02*
X616250Y123940D01*
X616560D02*
X616562Y123938D01*
X661000Y91250D02*
Y112250D01*
X660998Y112500D02*
X661250D01*
X638500Y135500D02*
X638502Y135502D01*
X638036Y135036D02*
X638500Y135500D01*
X642725Y137250D02*
X649000D01*
X648617Y136867D02*
X649000Y137250D01*
X647250Y125250D02*
X648000D01*
X1581079Y217000D02*
X1606453D01*
X1613750Y206650D02*
Y209703D01*
X1606453Y217000D02*
X1613750Y209703D01*
X1627650Y144500D02*
X1735166D01*
X1750179Y156451D02*
X1750271Y157182D01*
X1750135Y156096D02*
X1750176Y156422D01*
X1750271Y157182D02*
X1750500Y159000D01*
X1644250D02*
X1725500D01*
X1611250Y204150D02*
X1613750Y206650D01*
X1608400Y159150D02*
X1613000D01*
X1588786Y187750D02*
X1594850D01*
X1571007Y185250D02*
X1582750D01*
X1554757Y187476D02*
X1568781D01*
X1532500Y180750D02*
X1548031D01*
X1582750Y166250D02*
X1617542D01*
X1583000Y128650D02*
Y133750D01*
X1531750Y167000D02*
X1549766D01*
X1554743Y162024D02*
X1566766D01*
X1570993Y166250D02*
X1582750D01*
X389650Y632685D02*
X393351D01*
X364400Y610041D02*
Y683400D01*
X364250Y582000D02*
Y607285D01*
X1038250Y413746D02*
X1039250D01*
X1030883Y401133D02*
Y406378D01*
X1038250Y413746D01*
X1030500Y400750D02*
X1030883Y401133D01*
X726000Y340250D02*
X748250D01*
Y340250D01*
X748500Y340000D02*
X759250D01*
X694750Y258250D02*
Y301250D01*
X777750Y340000D02*
Y342750D01*
Y383000D01*
X799250Y340000D02*
Y352109D01*
X788250Y394648D02*
Y395000D01*
X649000Y258250D02*
X664750D01*
X920195Y140055D02*
X931250D01*
X1506500Y508750D02*
Y518500D01*
X1423760Y212080D02*
X1432580D01*
X1364760Y210030D02*
X1386710D01*
X818450Y97550D02*
X818500Y97600D01*
X807300Y97550D02*
X818450D01*
X807250Y97500D02*
X807300Y97550D01*
X931250Y68250D02*
Y92000D01*
X931250Y109500D02*
Y110016D01*
X949750D02*
X953266D01*
X973506D01*
X1252750Y121130D02*
X1271760D01*
X1252750D02*
Y121250D01*
X989240Y125750D02*
X993750D01*
X1006750D01*
X1006000Y138000D02*
Y141250D01*
X950204Y140510D02*
X985000D01*
X994000Y172000D02*
Y173750D01*
X975000Y172250D02*
Y173750D01*
X966000Y186000D02*
Y188750D01*
X979500Y202250D02*
X984500D01*
X1253000Y133830D02*
X1271760D01*
X1253000D02*
Y134000D01*
X1202540Y193290D02*
X1214030D01*
X1253630Y197330D02*
X1271760D01*
X1013500Y397750D02*
Y410257D01*
X1008493Y424250D02*
X1031254D01*
X1205750Y348500D02*
X1224750D01*
X1225500Y347750D02*
X1226023Y351250D01*
Y351271D01*
X1211000Y378750D02*
X1225500D01*
X1237610Y359860D02*
X1249640D01*
X1235820Y367860D02*
X1249640D01*
X1191996Y581504D02*
X1203620D01*
X1222750Y651250D02*
X1223750Y652250D01*
X1258250Y507800D02*
X1277050D01*
X1258250Y520500D02*
X1277000D01*
X1240180Y584000D02*
X1258250D01*
X1314750Y245750D02*
Y246500D01*
X1295500Y246750D02*
Y257040D01*
X1298640Y295740D02*
Y310860D01*
X1347250Y121130D02*
X1364760D01*
X1347250D02*
Y121250D01*
X1347420Y133830D02*
X1364760D01*
Y159230D02*
X1384360D01*
X1364760Y171930D02*
X1371760D01*
X1373410Y173580D01*
X1364760Y197330D02*
X1384510D01*
X1363640Y375860D02*
X1377530D01*
X1356360Y383610D02*
X1363390D01*
X1356750Y391750D02*
X1363640D01*
X1388760Y117580D02*
X1401500D01*
Y117750D01*
X1388760Y136580D02*
X1438760D01*
X1388760D02*
Y154330D01*
X1423510Y149510D02*
Y154580D01*
X1406510D02*
X1423510D01*
X1373410Y173580D02*
X1389010D01*
X1389010D02*
X1406510D01*
X1389010D02*
Y173580D01*
X1415680Y182750D02*
X1432250D01*
X1447250Y125000D02*
Y144667D01*
Y145080D01*
X1447260D02*
X1454299D01*
X1447250D02*
X1447260D01*
X1423510Y173580D02*
X1435010D01*
X1437260D01*
X1441699Y174500D02*
X1456250D01*
X1471257Y187476D02*
X1480476D01*
X1436250Y186750D02*
Y197250D01*
X1417130Y379900D02*
X1429650D01*
X1423760Y193080D02*
Y198260D01*
X1428000Y202080D02*
Y202500D01*
X1443580Y204580D02*
X1447510D01*
X1454153D01*
X1306640Y424860D02*
Y438370D01*
X1312500Y479790D02*
Y491000D01*
X1292750Y491500D02*
X1292810D01*
X1332700Y507800D02*
X1351250D01*
X1332750Y520500D02*
X1351250D01*
X1352650Y544500D02*
X1363250D01*
X1351250Y558600D02*
X1367990D01*
X1351250Y584000D02*
X1365310D01*
X1373840Y486750D02*
X1386250D01*
X1373930Y506500D02*
X1389000D01*
X1373510Y506080D02*
Y534080D01*
X1372760Y534830D02*
Y534990D01*
Y553830D02*
X1389760D01*
X1351250Y596700D02*
X1371610D01*
X1371500Y631850D02*
X1373382Y636393D01*
X1374085Y637096D01*
X1374085Y637097D02*
X1375274Y638285D01*
X1384760Y517330D02*
X1426260D01*
X1401750Y525330D02*
Y525330D01*
X1407010Y529510D02*
Y534830D01*
X1389760D02*
X1407010D01*
X1426260Y535830D02*
Y555830D01*
X1407010Y553830D02*
X1424260D01*
X1443500Y484791D02*
X1451291Y477000D01*
X1426260Y517330D02*
X1461576D01*
X1461500Y530250D02*
Y548500D01*
X1486976Y542730D02*
Y549243D01*
X1403180Y567250D02*
X1418180D01*
X1426260Y574330D02*
X1436451D01*
X1416960Y586250D02*
X1420000D01*
X1407540Y595830D02*
X1420000D01*
Y596000D01*
X1386000Y646350D02*
X1414446D01*
X1401500Y661850D02*
X1423400D01*
X1453500Y603500D02*
X1457467D01*
X1453500Y611000D02*
X1454250D01*
X1461000Y617750D02*
Y632500D01*
X1433500Y623500D02*
Y627975D01*
X1433500Y628000D02*
X1433500Y627975D01*
X1441000Y623500D02*
Y644250D01*
X1464000Y635500D02*
Y667750D01*
X1483000Y635939D02*
Y667750D01*
X1503500D02*
X1505000Y669250D01*
X1484500D02*
X1505000D01*
X1485250Y689000D02*
X1505000D01*
X1554100Y128650D02*
X1564000D01*
X1613000Y101250D02*
X1613000D01*
Y119650D01*
X1584420Y200420D02*
X1595740D01*
X1572964Y569250D02*
X1573000D01*
X1613750Y246150D02*
Y263500D01*
X1676500Y308500D02*
Y308600D01*
Y311250D01*
X1523460Y568710D02*
Y579270D01*
X1572964Y569250D02*
Y579270D01*
X1548212Y569462D02*
Y579270D01*
X1523000Y608250D02*
X1523230Y608020D01*
Y600500D02*
Y608020D01*
Y600500D02*
X1523460Y600270D01*
X1524000Y669250D02*
Y689000D01*
Y660500D02*
Y669250D01*
X1548017Y608503D02*
X1548115Y608406D01*
Y600367D02*
Y608406D01*
Y600367D02*
X1548212Y600270D01*
X1572964D02*
X1572982Y600288D01*
Y608482D01*
X1573000Y608500D01*
X1597716Y600270D02*
X1597858Y600412D01*
Y608358D01*
X1597716Y579270D02*
X1599480D01*
X1647220D02*
X1649980D01*
X1622468D02*
X1625980D01*
X1597858Y608358D02*
X1598000Y608500D01*
X1622468Y600270D02*
X1622484Y600286D01*
Y608484D01*
X1622500Y608500D01*
X1647220Y600270D02*
X1647235Y600285D01*
Y608485D01*
X1647250Y608500D01*
X186648Y89636D02*
Y92898D01*
X191500Y176650D02*
Y183500D01*
X617000Y37500D02*
Y41000D01*
X721500Y30000D02*
Y49500D01*
X710000Y49750D02*
X721750D01*
X766800Y99900D02*
X784500D01*
X742150Y97600D02*
X764500D01*
X757750Y59500D02*
X764500D01*
X737500D02*
X757750D01*
X818500Y21400D02*
X837650D01*
X818500Y84900D02*
X863250D01*
X671750Y15750D02*
X679662D01*
X638500Y16000D02*
X654500D01*
Y16500D02*
X656500Y18500D01*
Y33500D01*
X659750Y36750D01*
Y37750D01*
X636000Y37500D02*
X644250D01*
X698750Y11250D02*
X775000D01*
X680959Y15579D02*
X680960Y15579D01*
X749250Y21250D02*
Y21400D01*
X764500D01*
X687750Y22250D02*
Y28250D01*
X725600Y34100D02*
X764500D01*
X703000Y30250D02*
Y41500D01*
X703000Y41500D02*
X703000Y41500D01*
X710000Y68750D02*
X721750D01*
X680000Y78900D02*
Y90750D01*
X717100Y84900D02*
X758150D01*
X764500D01*
X679750Y112500D02*
X689500D01*
X723450Y116500D02*
X741750D01*
X679750Y112500D02*
Y134800D01*
X810900Y34100D02*
X818500D01*
X843650D01*
X764500Y46800D02*
X769300D01*
X818500D02*
X825300D01*
X812500Y59500D02*
X818500D01*
X764500Y72200D02*
X768800D01*
X818500D02*
X825300D01*
X883700Y45741D02*
Y48750D01*
X994500Y47000D02*
Y51506D01*
X954313Y49937D02*
X973931D01*
X949750D02*
X954313D01*
X863250Y84900D02*
Y85000D01*
X882250D02*
Y98250D01*
X884869Y101283D02*
X885000Y101000D01*
X845000Y104000D02*
Y113750D01*
X817250Y119500D02*
X818000D01*
X846750Y137000D02*
X855250D01*
X741000Y135250D02*
Y148250D01*
X717000Y255750D02*
X717000D01*
X664750Y258250D02*
X676250D01*
X717000Y255750D02*
Y268780D01*
X735500D02*
X760780D01*
X735500D02*
Y270500D01*
X657000Y283250D02*
X657383Y283633D01*
X712250Y283750D02*
X722250D01*
X665750Y292000D02*
X666000D01*
X649000Y285750D02*
Y311250D01*
X665875Y311125D02*
X666000Y311000D01*
X649125Y311125D02*
X665875D01*
X649000Y311250D02*
X649125Y311125D01*
X716431Y298819D02*
X717000D01*
X735500D02*
X769680D01*
X746750Y374500D02*
X750250D01*
X731000Y363750D02*
Y393000D01*
X731250Y393250D01*
X750000D01*
X750250Y393500D01*
X832500Y134000D02*
Y141250D01*
X759500Y134250D02*
Y148250D01*
X807500D01*
X780250Y262250D02*
Y269250D01*
X863250Y341500D02*
Y353753D01*
X818500Y352859D02*
X843356D01*
X818500D02*
Y353250D01*
X795000Y367750D02*
X804000D01*
X818500Y382898D02*
X853105D01*
X233750Y86000D02*
X244750D01*
X246936Y89825D02*
X247750Y89000D01*
X261250Y87250D02*
X274000D01*
X257250Y174250D02*
X270250D01*
X234250Y174500D02*
Y183000D01*
X639750Y85500D02*
Y97750D01*
X431000Y563250D02*
Y683500D01*
D18*
X659750Y37750D02*
D03*
X678250D02*
D03*
X1267750Y64000D02*
D03*
X1286250D02*
D03*
X1082500Y100000D02*
D03*
X1101000D02*
D03*
X1100500Y123000D02*
D03*
X1082000D02*
D03*
X1100750Y75250D02*
D03*
X1082250D02*
D03*
X1249000Y63000D02*
D03*
X1230500D02*
D03*
X661250Y112500D02*
D03*
X679750D02*
D03*
X661000Y91250D02*
D03*
X679500D02*
D03*
X857500Y22750D02*
D03*
X839000D02*
D03*
X703000Y30000D02*
D03*
X721500D02*
D03*
X653250Y15750D02*
D03*
X671750D02*
D03*
X931250Y140055D02*
D03*
X949750D02*
D03*
X931250Y110016D02*
D03*
X949750D02*
D03*
X931250Y79977D02*
D03*
X949750D02*
D03*
X931250Y49937D02*
D03*
X949750D02*
D03*
X800000Y382898D02*
D03*
X818500D02*
D03*
X800000Y352859D02*
D03*
X818500D02*
D03*
X735500Y298819D02*
D03*
X717000D02*
D03*
X735500Y268780D02*
D03*
X717000D02*
D03*
X950000Y170000D02*
D03*
X931500D02*
D03*
X759250Y340000D02*
D03*
X777750D02*
D03*
X741000Y148250D02*
D03*
X759500D02*
D03*
X676250Y258250D02*
D03*
X694750D02*
D03*
D19*
X1237684Y581504D02*
D03*
Y600504D02*
D03*
X1220652Y581504D02*
D03*
Y600504D02*
D03*
X1203620Y581504D02*
D03*
Y600504D02*
D03*
X1582750Y198750D02*
D03*
Y217750D02*
D03*
X1249590Y212290D02*
D03*
Y193290D02*
D03*
X1231810Y212290D02*
D03*
Y193290D02*
D03*
X1214030Y212290D02*
D03*
Y193290D02*
D03*
X1388760Y136580D02*
D03*
Y117580D02*
D03*
X1423510Y173580D02*
D03*
Y154580D02*
D03*
X1406510Y173580D02*
D03*
Y154580D02*
D03*
X1389010Y173580D02*
D03*
Y154580D02*
D03*
X1423760Y193080D02*
D03*
Y212080D02*
D03*
X1406260Y193080D02*
D03*
Y212080D02*
D03*
X1388760Y193080D02*
D03*
Y212080D02*
D03*
X1582750Y185250D02*
D03*
Y166250D02*
D03*
X1407540Y595830D02*
D03*
Y576830D02*
D03*
X1389760Y595830D02*
D03*
Y576830D02*
D03*
X1372480Y595830D02*
D03*
Y576830D02*
D03*
X1407010Y553830D02*
D03*
Y534830D02*
D03*
X1389760Y553830D02*
D03*
Y534830D02*
D03*
X1372760Y553830D02*
D03*
Y534830D02*
D03*
X1417130Y360900D02*
D03*
Y379900D02*
D03*
X1399350Y360900D02*
D03*
Y379900D02*
D03*
X1381570Y360900D02*
D03*
Y379900D02*
D03*
X1373510Y506080D02*
D03*
Y487080D02*
D03*
X721750Y68750D02*
D03*
Y49750D02*
D03*
D20*
X1272250Y91000D02*
D03*
X1227250D02*
D03*
D21*
X1132500Y137600D02*
D03*
Y124900D02*
D03*
Y112200D02*
D03*
Y99500D02*
D03*
Y86800D02*
D03*
Y74100D02*
D03*
Y61400D02*
D03*
X1187000Y137600D02*
D03*
Y124900D02*
D03*
Y112200D02*
D03*
Y99500D02*
D03*
Y86800D02*
D03*
Y74100D02*
D03*
Y61400D02*
D03*
D22*
X1548750Y313250D02*
D03*
X1520250D02*
D03*
D23*
X1146750Y156250D02*
D03*
X1165750D02*
D03*
X1583000Y128650D02*
D03*
X1564000D02*
D03*
X1314830Y257370D02*
D03*
X1295830D02*
D03*
X1314830Y275150D02*
D03*
X1295830D02*
D03*
X1314830Y292930D02*
D03*
X1295830D02*
D03*
X1292810Y443540D02*
D03*
X1311810D02*
D03*
X1292810Y461320D02*
D03*
X1311810D02*
D03*
Y479100D02*
D03*
X1292810D02*
D03*
X1524000Y689000D02*
D03*
X1505000D02*
D03*
X1524000Y669250D02*
D03*
X1505000D02*
D03*
X1483000Y667750D02*
D03*
X1464000D02*
D03*
X365250Y249750D02*
D03*
X346250D02*
D03*
X365250Y223375D02*
D03*
X346250D02*
D03*
X365250Y197000D02*
D03*
X346250D02*
D03*
X882250Y85000D02*
D03*
X863250D02*
D03*
D24*
X1113750Y140250D02*
D03*
Y158750D02*
D03*
X1183500Y153500D02*
D03*
Y172000D02*
D03*
X257250Y174250D02*
D03*
Y155750D02*
D03*
X1447510Y204580D02*
D03*
Y186080D02*
D03*
X1447260Y163580D02*
D03*
Y145080D02*
D03*
X1426260Y574330D02*
D03*
Y555830D02*
D03*
Y535830D02*
D03*
Y517330D02*
D03*
X741750Y98000D02*
D03*
Y116500D02*
D03*
X1039250Y432246D02*
D03*
Y413746D02*
D03*
X260500Y68000D02*
D03*
Y86500D02*
D03*
X726000Y358750D02*
D03*
Y340250D02*
D03*
X644500Y281250D02*
D03*
Y262750D02*
D03*
X846750Y155500D02*
D03*
Y137000D02*
D03*
X845000Y104000D02*
D03*
Y85500D02*
D03*
D25*
X1271760Y210030D02*
D03*
Y197330D02*
D03*
Y184630D02*
D03*
Y171930D02*
D03*
Y159230D02*
D03*
Y146530D02*
D03*
Y133830D02*
D03*
Y121130D02*
D03*
X1364760Y210030D02*
D03*
Y197330D02*
D03*
Y184630D02*
D03*
Y171930D02*
D03*
Y159230D02*
D03*
Y146530D02*
D03*
Y133830D02*
D03*
Y121130D02*
D03*
X1258250Y596700D02*
D03*
Y584000D02*
D03*
Y571300D02*
D03*
Y558600D02*
D03*
Y545900D02*
D03*
Y533200D02*
D03*
Y520500D02*
D03*
Y507800D02*
D03*
X1351250Y596700D02*
D03*
Y584000D02*
D03*
Y571300D02*
D03*
Y558600D02*
D03*
Y545900D02*
D03*
Y533200D02*
D03*
Y520500D02*
D03*
Y507800D02*
D03*
D26*
X1554757Y187476D02*
D03*
X1471243Y162024D02*
D03*
X1554743D02*
D03*
X1471257Y187476D02*
D03*
D27*
X1249640Y407860D02*
D03*
Y399860D02*
D03*
Y391860D02*
D03*
Y383860D02*
D03*
Y375860D02*
D03*
Y367860D02*
D03*
Y359860D02*
D03*
Y351860D02*
D03*
Y343860D02*
D03*
Y335860D02*
D03*
Y327860D02*
D03*
X1363640D02*
D03*
Y335860D02*
D03*
Y343860D02*
D03*
Y351860D02*
D03*
Y359860D02*
D03*
Y367860D02*
D03*
Y375860D02*
D03*
Y383860D02*
D03*
Y391860D02*
D03*
Y399860D02*
D03*
Y407860D02*
D03*
D28*
X1266640Y310860D02*
D03*
X1274640D02*
D03*
X1282640D02*
D03*
X1290640D02*
D03*
X1298640D02*
D03*
X1306640D02*
D03*
X1314640D02*
D03*
X1322640D02*
D03*
X1330640D02*
D03*
X1338640D02*
D03*
X1346640D02*
D03*
Y424860D02*
D03*
X1338640D02*
D03*
X1330640D02*
D03*
X1322640D02*
D03*
X1314640D02*
D03*
X1306640D02*
D03*
X1298640D02*
D03*
X1290640D02*
D03*
X1282640D02*
D03*
X1274640D02*
D03*
X1266640D02*
D03*
D29*
X1004000Y438757D02*
D03*
X1013500Y410257D02*
D03*
X994500D02*
D03*
X985000Y140510D02*
D03*
X994500Y112010D02*
D03*
X975500D02*
D03*
X985000Y80006D02*
D03*
X994500Y51506D02*
D03*
X975500D02*
D03*
X853750Y382253D02*
D03*
X863250Y353753D02*
D03*
X844250D02*
D03*
X761250Y269250D02*
D03*
X780250D02*
D03*
X770750Y297750D02*
D03*
X994000Y173750D02*
D03*
X975000D02*
D03*
X984500Y202250D02*
D03*
X636000Y37500D02*
D03*
X617000D02*
D03*
X626500Y66000D02*
D03*
X625000Y155000D02*
D03*
X615500Y126500D02*
D03*
X634500D02*
D03*
D30*
X694500Y301500D02*
D03*
X666000Y292000D02*
D03*
Y311000D02*
D03*
X750250Y374500D02*
D03*
Y393500D02*
D03*
X778750Y384000D02*
D03*
X205000Y164250D02*
D03*
X233500Y173750D02*
D03*
Y154750D02*
D03*
X205250Y76500D02*
D03*
X233750Y86000D02*
D03*
Y67000D02*
D03*
X817250Y119500D02*
D03*
Y138500D02*
D03*
X788750Y129000D02*
D03*
D31*
X1461000Y549000D02*
D03*
X1486453Y548986D02*
D03*
X1461000Y632500D02*
D03*
X1486453Y632486D02*
D03*
D32*
X1613000Y119650D02*
D03*
Y159150D02*
D03*
X1613750Y206650D02*
D03*
Y246150D02*
D03*
D33*
X248500Y497250D02*
D03*
X148500D02*
D03*
X139750Y574250D02*
D03*
X239750D02*
D03*
D34*
X1546500Y403000D02*
D03*
Y436500D02*
D03*
D35*
X1540750Y343750D02*
D03*
X1507250D02*
D03*
D36*
X1676500Y376500D02*
D03*
Y308500D02*
D03*
D37*
X1506500Y462750D02*
D03*
Y485750D02*
D03*
Y508750D02*
D03*
D38*
X1443500Y485750D02*
D03*
D39*
X1567750Y345250D02*
D03*
X1624316Y398183D02*
D03*
D40*
X1602500Y314250D02*
D03*
X1567500D02*
D03*
X1023500Y458280D02*
D03*
X988500D02*
D03*
X201750Y132500D02*
D03*
X236750D02*
D03*
X202500Y108750D02*
D03*
X237500D02*
D03*
X641750Y178250D02*
D03*
X606750D02*
D03*
X639750Y85500D02*
D03*
X604750D02*
D03*
D41*
X1597716Y600270D02*
D03*
Y579270D02*
D03*
X1647220Y600270D02*
D03*
Y579270D02*
D03*
X1622468Y600270D02*
D03*
Y579270D02*
D03*
X1548212Y600270D02*
D03*
Y579270D02*
D03*
X1572964Y600270D02*
D03*
Y579270D02*
D03*
X1523460D02*
D03*
Y600270D02*
D03*
D42*
X1225500Y378750D02*
D03*
Y347750D02*
D03*
D90*
X517582Y193500D02*
G03*
X502787Y176293I0J-14964D01*
G01*
X1013900Y543600D02*
G03*
X988500Y518200I0J-25400D01*
G01*
X502650Y151000D02*
G03*
X527900Y176250I0J25250D01*
G01*
X499000Y151000D02*
G03*
X477000Y129000I0J-22000D01*
G01*
Y111500D02*
G03*
X493350Y95150I16350J0D01*
G01*
X337000Y197250D02*
G03*
X337250Y197000I250J0D01*
G01*
X1004000Y438757D02*
G03*
X1023500Y458257I0J19500D01*
G01*
X1040780Y458280D02*
G03*
X1059750Y477250I0J18970D01*
G01*
Y594400D02*
G03*
X1034350Y619800I-25400J0D01*
G01*
X1490750Y463000D02*
G03*
X1491000Y462750I250J0D01*
G01*
X346250Y348696D02*
G03*
X320596Y374350I-25654J0D01*
G01*
X1381570Y360900D02*
X1399350D01*
X1292810Y443540D02*
Y461320D01*
X1314830Y275150D02*
Y292930D01*
X1203620Y600504D02*
X1237684D01*
X1231810Y212290D02*
X1249590D01*
X988500Y458280D02*
Y518200D01*
X517582Y193500D02*
X958000D01*
X477000Y111500D02*
Y129000D01*
X493350Y95150D02*
X502500D01*
X499000Y151000D02*
X502650D01*
X337250Y197000D02*
X346250D01*
X365900Y197650D02*
Y374350D01*
X365750Y184500D02*
Y197650D01*
X1214030Y193290D02*
X1231810D01*
X1249590D01*
X1023500Y458280D02*
X1040780D01*
X1059750Y477250D02*
Y594400D01*
X1018250Y619800D02*
X1034350D01*
X1214030Y212290D02*
X1231810D01*
X1203620Y581504D02*
X1237684D01*
X1295830Y257370D02*
Y275150D01*
X1314830Y257370D02*
Y275150D01*
X1295830D02*
Y292930D01*
X1388760Y193080D02*
X1406260D01*
X1423760D01*
X1388760Y212080D02*
X1406260D01*
X1423760D01*
X1399350Y360900D02*
X1417130D01*
X1381570Y379900D02*
X1399350D01*
X1417130D01*
X1311810Y443540D02*
Y461320D01*
X1292810D02*
Y479100D01*
X1311810Y461320D02*
Y479100D01*
X1372480Y576830D02*
X1389760D01*
X1372480Y595830D02*
X1389760D01*
X1491000Y462750D02*
X1506500D01*
X1389760Y576830D02*
X1407540D01*
X1389760Y595830D02*
X1407540D01*
X365750Y197650D02*
X365900D01*
X346250Y249750D02*
Y348696D01*
Y223375D02*
Y249750D01*
Y197000D02*
Y223375D01*
X315100Y374350D02*
X320596D01*
D91*
X236750Y132500D02*
G03*
X248250Y121000I11500J0D01*
G01*
X249750D02*
G03*
X237500Y108750I0J-12250D01*
G01*
D02*
G03*
X236750Y112695I-10750J0D01*
G01*
X205250Y106000D02*
G03*
X202500Y108750I-2750J0D01*
G01*
X1591250Y259500D02*
G03*
X1597650Y265900I0J6400D01*
G01*
X178393Y127073D02*
G03*
X178500Y129400I-25293J2327D01*
G01*
X153100Y104000D02*
G03*
X178154Y125224I0J25400D01*
G01*
X185430Y132500D02*
G03*
X178393Y127073I0J-7276D01*
G01*
D02*
G03*
X178154Y125224I7037J-1849D01*
G01*
X203900Y164250D02*
G03*
X178500Y138850I0J-25400D01*
G01*
X179850Y44500D02*
G03*
X205250Y69900I0J25400D01*
G01*
X96700Y104000D02*
G03*
X74750Y82050I0J-21950D01*
G01*
Y69900D02*
G03*
X100150Y44500I25400J0D01*
G01*
X1013900Y543600D02*
X1018250D01*
X249750Y121000D02*
X263000D01*
X248250D02*
X249750D01*
X930750Y171750D02*
X931500Y171000D01*
X926750Y174750D02*
X929750Y171750D01*
X922500Y174750D02*
X926750D01*
X931500Y170000D02*
Y171000D01*
X929750Y171750D02*
X930750D01*
X205250Y76500D02*
Y106000D01*
Y69900D02*
Y76500D01*
X1023500Y458257D02*
Y458280D01*
X1597650Y265900D02*
Y287500D01*
X126700Y104000D02*
X153100D01*
X178500Y129400D02*
Y138850D01*
X185430Y132500D02*
X201750D01*
X74750Y69900D02*
Y82050D01*
X100150Y44500D02*
X179850D01*
D92*
X1567500Y292250D02*
G03*
X1572250Y287500I4750J0D01*
G01*
X1566500Y313250D02*
G03*
X1567500Y314250I0J1000D01*
G01*
X1540750Y351400D02*
G03*
X1515350Y376800I-25400J0D01*
G01*
X1624316Y398183D02*
G03*
X1645250Y419117I0J20934D01*
G01*
X1650115Y510250D02*
G03*
X1645250Y497650I13885J-12600D01*
G01*
X1664000Y516400D02*
G03*
X1650115Y510250I0J-18750D01*
G01*
X1579748D02*
G03*
X1573795Y508965I123J-15000D01*
G01*
X1563217Y504133D02*
G03*
X1554350Y484850I16533J-19283D01*
G01*
X1568794Y507141D02*
G03*
X1563217Y504133I4173J-14408D01*
G01*
X1568794Y507141D02*
G03*
X1573795Y508965I-10636J36947D01*
G01*
X1505000Y346000D02*
G03*
X1507250Y343750I2250J0D01*
G01*
X1492750Y348000D02*
G03*
X1497000Y343750I4250J0D01*
G01*
X1539750D02*
G03*
X1529250Y333250I0J-10500D01*
G01*
X1546500Y403000D02*
G03*
X1551317Y398183I4817J0D01*
G01*
X1515050Y403000D02*
G03*
X1514250Y402200I0J-800D01*
G01*
X1566250Y343750D02*
G03*
X1567750Y345250I0J1500D01*
G01*
X1520250Y313250D02*
G03*
X1529250Y322250I0J9000D01*
G01*
X287000Y574250D02*
G03*
X287500Y574750I0J500D01*
G01*
X1623050Y314250D02*
G03*
X1597650Y288850I0J-25400D01*
G01*
X1701900Y334000D02*
G03*
X1676500Y308600I0J-25400D01*
G01*
X262037Y443000D02*
G03*
X248250Y429213I0J-13787D01*
G01*
X531350Y443000D02*
G03*
X561500Y473150I0J30150D01*
G01*
X239250Y505500D02*
G03*
X231000Y497250I0J-8250D01*
G01*
X586900Y505500D02*
G03*
X561500Y480100I0J-25400D01*
G01*
X1548750Y313250D02*
X1566500D01*
X1567500Y292250D02*
Y314250D01*
X1514250Y376800D02*
X1515350D01*
X1551317Y398183D02*
X1624316D01*
X1579748Y510250D02*
X1650115D01*
X1645250Y419117D02*
Y497650D01*
X1554350Y483500D02*
Y484850D01*
X1497000Y343750D02*
X1507250D01*
X1529250Y322250D02*
Y333250D01*
X1540750Y343750D02*
Y351400D01*
X1539750Y343750D02*
X1540750D01*
X1566250D01*
X1515050Y403000D02*
X1546500D01*
X239750Y574250D02*
X287000D01*
X1546500Y436500D02*
X1568000D01*
X1597650Y287500D02*
Y288850D01*
X1602500Y314250D02*
X1623050D01*
X1670750D01*
X1676500Y376500D02*
Y394000D01*
X1701900Y334000D02*
X1725500D01*
X262037Y443000D02*
X531350D01*
X248250Y428500D02*
Y429213D01*
X239250Y505500D02*
X434050D01*
X232250Y574250D02*
X239750D01*
X586900Y505500D02*
X637250D01*
X561500Y473150D02*
Y480100D01*
D93*
X117900Y666250D02*
G03*
X89750Y638100I0J-28150D01*
G01*
Y604400D02*
G03*
X117900Y576250I28150J0D01*
G01*
X130250D02*
G03*
X132250Y574250I2000J0D01*
G01*
X59900Y456500D02*
G03*
X34500Y431100I0J-25400D01*
G01*
X99750Y497250D02*
G03*
X82500Y480000I0J-17250D01*
G01*
X59900Y456500D02*
G03*
X82500Y479100I0J22600D01*
G01*
X89750Y604400D02*
Y638100D01*
X117900Y576250D02*
X130250D01*
X82500Y479100D02*
Y480000D01*
X99750Y497250D02*
X148500D01*
X100250Y666250D02*
X117900D01*
X130250D01*
X34500Y431100D02*
Y457000D01*
Y427000D02*
Y431100D01*
D94*
X818500Y21400D02*
D03*
Y34100D02*
D03*
Y46800D02*
D03*
Y59500D02*
D03*
Y72200D02*
D03*
Y84900D02*
D03*
Y97600D02*
D03*
X764500Y21400D02*
D03*
Y34100D02*
D03*
Y46800D02*
D03*
Y59500D02*
D03*
Y72200D02*
D03*
Y97600D02*
D03*
Y84900D02*
D03*
D95*
X578700Y176250D02*
D03*
Y125450D02*
D03*
X527900Y176250D02*
D03*
Y125450D02*
D03*
X451700Y176250D02*
D03*
X502500D02*
D03*
X553300D02*
D03*
X502500Y125450D02*
D03*
X553300D02*
D03*
X1664000Y491000D02*
D03*
Y465600D02*
D03*
Y516400D02*
D03*
X578700Y95150D02*
D03*
Y44350D02*
D03*
X527900Y95150D02*
D03*
Y44350D02*
D03*
X451700Y95150D02*
D03*
X502500D02*
D03*
X553300D02*
D03*
X502500Y44350D02*
D03*
X553300D02*
D03*
X1579750Y483500D02*
D03*
X1605150D02*
D03*
X1554350D02*
D03*
X1748250Y373250D02*
D03*
X1748250Y643250D02*
D03*
X53500Y397500D02*
D03*
X53500Y488500D02*
D03*
X287500Y574750D02*
D03*
X189250Y647250D02*
D03*
X280250Y647250D02*
D03*
X70750Y647250D02*
D03*
X161750Y647250D02*
D03*
D96*
X451700Y125450D02*
D03*
Y44350D02*
D03*
D97*
X535650Y657900D02*
D03*
X637250Y505500D02*
D03*
X1018250Y543600D02*
D03*
Y619800D02*
D03*
X365900Y374350D02*
D03*
X340500Y425150D02*
D03*
X365900D02*
D03*
D98*
X434050Y505500D02*
D03*
X315100Y374350D02*
D03*
D99*
X53500Y142500D02*
D03*
Y95500D02*
D03*
D100*
X96700Y164000D02*
D03*
Y104000D02*
D03*
X126700Y164000D02*
D03*
Y104000D02*
D03*
Y74000D02*
D03*
Y134000D02*
D03*
X96700D02*
D03*
X1767250Y614750D02*
D03*
Y584750D02*
D03*
Y554750D02*
D03*
Y524750D02*
D03*
Y494750D02*
D03*
Y464750D02*
D03*
Y404750D02*
D03*
Y434750D02*
D03*
X34500Y427000D02*
D03*
Y457000D02*
D03*
X1371500Y631850D02*
D03*
X1401500Y661850D02*
D03*
X218750Y666250D02*
D03*
X248750D02*
D03*
X100250D02*
D03*
X130250D02*
D03*
X1725500Y284000D02*
D03*
Y259000D02*
D03*
X1750500Y159000D02*
D03*
Y284000D02*
D03*
Y309000D02*
D03*
X1725500D02*
D03*
Y334000D02*
D03*
X1750500Y259000D02*
D03*
X1725500Y234000D02*
D03*
X1750500D02*
D03*
X1725500Y209000D02*
D03*
X1750500D02*
D03*
X1725500Y184000D02*
D03*
X1750500D02*
D03*
X1725500Y159000D02*
D03*
X1371500Y661850D02*
D03*
D101*
X96700Y74000D02*
D03*
D102*
X1235250Y664650D02*
D03*
D103*
X1197750Y651250D02*
D03*
D104*
X1272750D02*
D03*
X1247750D02*
D03*
X1222750D02*
D03*
X1091550Y197750D02*
D03*
X1116950D02*
D03*
X1724000Y405000D02*
D03*
Y379600D02*
D03*
X1616200Y434250D02*
D03*
X1590800D02*
D03*
X858300Y48750D02*
D03*
X883700D02*
D03*
X1597650Y287500D02*
D03*
X1572250D02*
D03*
X1514250Y402200D02*
D03*
Y376800D02*
D03*
X1599500Y644000D02*
D03*
X1574100D02*
D03*
X1548700D02*
D03*
X1599500Y679750D02*
D03*
X1624900D02*
D03*
X1574100D02*
D03*
X1548700D02*
D03*
X673050Y141500D02*
D03*
X698450D02*
D03*
D105*
X400000Y100000D02*
D03*
X1132500Y600000D02*
D03*
X1700000D02*
D03*
Y100000D02*
D03*
D106*
X26750Y235000D02*
D03*
X51750D02*
D03*
X1568000Y436500D02*
D03*
X1591250Y259500D02*
D03*
X1676500Y394000D02*
D03*
X649000Y311250D02*
D03*
X731000Y393000D02*
D03*
D107*
X339000Y658000D02*
D03*
X313600Y683400D02*
D03*
X1341500Y671250D02*
D03*
X1431500D02*
D03*
D108*
X364400Y683400D02*
D03*
D109*
X1764305Y246500D02*
D03*
D110*
X1750500Y334000D02*
D03*
D111*
X1401500Y631850D02*
D03*
D112*
X1624900Y644000D02*
D03*
X1650300Y679750D02*
D03*
D113*
X248250Y428500D02*
D03*
X138250D02*
D03*
D114*
X1260000Y390000D02*
D03*
X1449000Y474500D02*
D03*
Y482500D02*
D03*
X1449250Y490250D02*
D03*
X1437750Y482500D02*
D03*
Y474250D02*
D03*
Y490250D02*
D03*
X1449250Y498000D02*
D03*
X1437750Y497750D02*
D03*
X1234500Y402250D02*
D03*
X1233000Y390500D02*
D03*
X1220750Y408500D02*
D03*
X1236500Y444000D02*
D03*
X1309750Y412500D02*
D03*
X1274640Y424860D02*
D03*
X1282640D02*
D03*
X1325750Y411750D02*
D03*
X1376500Y400250D02*
D03*
X1328500Y445500D02*
D03*
X1347750Y461250D02*
D03*
D115*
X940000Y39000D02*
D03*
X1079000Y95000D02*
D03*
X1447000Y581250D02*
D03*
X1461000Y594250D02*
D03*
X1780001Y640000D02*
D03*
Y600000D02*
D03*
Y540000D02*
D03*
Y380000D02*
D03*
X1760001Y80000D02*
D03*
Y60000D02*
D03*
X1740001Y560000D02*
D03*
Y540000D02*
D03*
Y520000D02*
D03*
Y500000D02*
D03*
Y480000D02*
D03*
Y460000D02*
D03*
Y420000D02*
D03*
Y60000D02*
D03*
X1720001Y680000D02*
D03*
Y660000D02*
D03*
Y540000D02*
D03*
Y520000D02*
D03*
Y500000D02*
D03*
Y480000D02*
D03*
Y460000D02*
D03*
Y440000D02*
D03*
X1700001Y680000D02*
D03*
Y660000D02*
D03*
Y540000D02*
D03*
Y520000D02*
D03*
Y460000D02*
D03*
Y440000D02*
D03*
X1680001Y540000D02*
D03*
Y520000D02*
D03*
Y460000D02*
D03*
Y440000D02*
D03*
X1660001Y540000D02*
D03*
Y60000D02*
D03*
X1640001Y360000D02*
D03*
Y340000D02*
D03*
X1600001Y380000D02*
D03*
X1580001Y100000D02*
D03*
Y80000D02*
D03*
X1560001Y100000D02*
D03*
Y80000D02*
D03*
X1540001Y100000D02*
D03*
Y80000D02*
D03*
X1520001Y240000D02*
D03*
X1480001Y80000D02*
D03*
X1060001Y680000D02*
D03*
X1040001D02*
D03*
Y660000D02*
D03*
X1020001Y680000D02*
D03*
Y660000D02*
D03*
Y640000D02*
D03*
Y600000D02*
D03*
Y580000D02*
D03*
Y520000D02*
D03*
Y500000D02*
D03*
Y480000D02*
D03*
Y360000D02*
D03*
Y340000D02*
D03*
X1000001Y680000D02*
D03*
Y660000D02*
D03*
Y640000D02*
D03*
Y600000D02*
D03*
Y580000D02*
D03*
Y560000D02*
D03*
Y360000D02*
D03*
Y340000D02*
D03*
Y320000D02*
D03*
Y300000D02*
D03*
Y280000D02*
D03*
X980001Y680000D02*
D03*
Y660000D02*
D03*
Y640000D02*
D03*
Y600000D02*
D03*
Y580000D02*
D03*
Y560000D02*
D03*
Y440000D02*
D03*
Y420000D02*
D03*
Y360000D02*
D03*
Y340000D02*
D03*
Y320000D02*
D03*
Y300000D02*
D03*
Y280000D02*
D03*
X960001Y680000D02*
D03*
Y660000D02*
D03*
Y640000D02*
D03*
Y440000D02*
D03*
Y420000D02*
D03*
Y400000D02*
D03*
Y360000D02*
D03*
Y340000D02*
D03*
Y320000D02*
D03*
Y300000D02*
D03*
Y280000D02*
D03*
X940001Y680000D02*
D03*
Y660000D02*
D03*
Y640000D02*
D03*
Y620000D02*
D03*
Y600000D02*
D03*
Y580000D02*
D03*
Y560000D02*
D03*
Y520000D02*
D03*
Y500000D02*
D03*
Y480000D02*
D03*
Y440000D02*
D03*
Y420000D02*
D03*
Y400000D02*
D03*
Y360000D02*
D03*
Y340000D02*
D03*
Y320000D02*
D03*
Y300000D02*
D03*
Y280000D02*
D03*
X920001Y680000D02*
D03*
Y660000D02*
D03*
Y640000D02*
D03*
Y620000D02*
D03*
Y600000D02*
D03*
Y580000D02*
D03*
Y560000D02*
D03*
Y520000D02*
D03*
Y500000D02*
D03*
Y480000D02*
D03*
Y460000D02*
D03*
Y440000D02*
D03*
Y420000D02*
D03*
Y400000D02*
D03*
Y360000D02*
D03*
Y340000D02*
D03*
Y320000D02*
D03*
Y300000D02*
D03*
Y280000D02*
D03*
X900001Y680000D02*
D03*
Y660000D02*
D03*
Y640000D02*
D03*
Y620000D02*
D03*
Y600000D02*
D03*
Y580000D02*
D03*
Y560000D02*
D03*
Y540000D02*
D03*
X880001Y420000D02*
D03*
Y400000D02*
D03*
Y340000D02*
D03*
Y320000D02*
D03*
Y300000D02*
D03*
Y280000D02*
D03*
X860001Y680000D02*
D03*
Y660000D02*
D03*
Y640000D02*
D03*
Y620000D02*
D03*
Y600000D02*
D03*
Y580000D02*
D03*
Y560000D02*
D03*
Y540000D02*
D03*
Y520000D02*
D03*
Y500000D02*
D03*
Y480000D02*
D03*
Y460000D02*
D03*
Y440000D02*
D03*
Y400000D02*
D03*
Y320000D02*
D03*
Y300000D02*
D03*
Y280000D02*
D03*
X840001Y680000D02*
D03*
Y660000D02*
D03*
Y640000D02*
D03*
Y620000D02*
D03*
Y600000D02*
D03*
Y580000D02*
D03*
Y560000D02*
D03*
Y540000D02*
D03*
Y520000D02*
D03*
Y500000D02*
D03*
Y480000D02*
D03*
Y460000D02*
D03*
Y440000D02*
D03*
Y400000D02*
D03*
X820000Y680000D02*
D03*
Y660000D02*
D03*
Y640000D02*
D03*
Y620000D02*
D03*
Y600000D02*
D03*
Y580000D02*
D03*
Y560000D02*
D03*
Y540000D02*
D03*
Y520000D02*
D03*
Y500000D02*
D03*
Y480000D02*
D03*
Y460000D02*
D03*
Y440000D02*
D03*
Y400000D02*
D03*
Y280000D02*
D03*
X800000Y680000D02*
D03*
Y660000D02*
D03*
Y640000D02*
D03*
Y620000D02*
D03*
Y600000D02*
D03*
Y580000D02*
D03*
Y560000D02*
D03*
Y540000D02*
D03*
Y520000D02*
D03*
Y500000D02*
D03*
Y480000D02*
D03*
Y460000D02*
D03*
Y440000D02*
D03*
Y400000D02*
D03*
X780000Y680000D02*
D03*
Y660000D02*
D03*
Y640000D02*
D03*
Y620000D02*
D03*
Y600000D02*
D03*
Y580000D02*
D03*
Y560000D02*
D03*
Y540000D02*
D03*
Y520000D02*
D03*
Y500000D02*
D03*
Y480000D02*
D03*
Y460000D02*
D03*
Y440000D02*
D03*
X700000Y360000D02*
D03*
X680000Y320000D02*
D03*
X620000Y280000D02*
D03*
X460000Y200000D02*
D03*
X440000D02*
D03*
X420000D02*
D03*
Y180000D02*
D03*
Y160000D02*
D03*
Y40000D02*
D03*
X400000Y200000D02*
D03*
Y180000D02*
D03*
Y160000D02*
D03*
Y40000D02*
D03*
X380000Y200000D02*
D03*
Y180000D02*
D03*
Y160000D02*
D03*
Y40000D02*
D03*
X360000Y160000D02*
D03*
Y140000D02*
D03*
Y60000D02*
D03*
Y40000D02*
D03*
X340000Y160000D02*
D03*
Y140000D02*
D03*
Y120000D02*
D03*
Y100000D02*
D03*
Y80000D02*
D03*
Y60000D02*
D03*
Y40000D02*
D03*
X320000Y60000D02*
D03*
Y40000D02*
D03*
X300000Y240000D02*
D03*
Y120000D02*
D03*
Y100000D02*
D03*
Y40000D02*
D03*
X280000Y240000D02*
D03*
Y220000D02*
D03*
Y40000D02*
D03*
X260000Y240000D02*
D03*
Y40000D02*
D03*
X240000Y240000D02*
D03*
Y220000D02*
D03*
Y40000D02*
D03*
X220000Y240000D02*
D03*
Y220000D02*
D03*
Y140000D02*
D03*
Y120000D02*
D03*
Y100000D02*
D03*
Y40000D02*
D03*
X200000Y240000D02*
D03*
Y220000D02*
D03*
X180000Y240000D02*
D03*
Y220000D02*
D03*
X160000Y240000D02*
D03*
Y220000D02*
D03*
Y160000D02*
D03*
Y140000D02*
D03*
X140000Y240000D02*
D03*
Y220000D02*
D03*
Y120000D02*
D03*
Y60000D02*
D03*
X120000Y220000D02*
D03*
Y20000D02*
D03*
X100000Y220000D02*
D03*
Y20000D02*
D03*
X80000Y120000D02*
D03*
Y20000D02*
D03*
X60000Y180000D02*
D03*
Y60000D02*
D03*
Y40000D02*
D03*
Y20000D02*
D03*
X40000Y180000D02*
D03*
Y120000D02*
D03*
Y60000D02*
D03*
Y40000D02*
D03*
Y20000D02*
D03*
X20000Y180000D02*
D03*
Y160000D02*
D03*
Y140000D02*
D03*
Y120000D02*
D03*
Y100000D02*
D03*
Y80000D02*
D03*
Y60000D02*
D03*
Y40000D02*
D03*
X1302000Y70000D02*
D03*
X1180000Y272000D02*
D03*
X1180250Y199000D02*
D03*
X1203250Y315250D02*
D03*
X1151250Y313500D02*
D03*
X1146750Y144250D02*
D03*
X1203000Y130250D02*
D03*
X1067250Y201500D02*
D03*
X1079000Y178750D02*
D03*
X1111500Y329250D02*
D03*
X999500Y94500D02*
D03*
X950750Y67250D02*
D03*
X644750Y159250D02*
D03*
X931000Y205750D02*
D03*
X922500Y174750D02*
D03*
X958000Y193500D02*
D03*
X1094250Y68000D02*
D03*
X1106762Y109670D02*
D03*
X1135000Y156000D02*
D03*
X1155000Y80000D02*
D03*
X1492750Y348000D02*
D03*
X649000Y137250D02*
D03*
X647250Y125250D02*
D03*
X1579750Y527750D02*
D03*
X1567750Y533500D02*
D03*
X400000Y127500D02*
D03*
X420000Y120000D02*
D03*
X427500Y100000D02*
D03*
X420000Y80000D02*
D03*
X400000Y72500D02*
D03*
X380000Y80000D02*
D03*
X372500Y100000D02*
D03*
X380000Y120000D02*
D03*
X1132500Y627500D02*
D03*
X1152500Y620000D02*
D03*
X1160000Y600000D02*
D03*
X1152500Y580000D02*
D03*
X1132500Y572500D02*
D03*
X1112500Y580000D02*
D03*
X1105000Y600000D02*
D03*
X1112500Y620000D02*
D03*
X1532500Y180750D02*
D03*
X1531750Y167000D02*
D03*
X1030500Y400750D02*
D03*
X337000Y197250D02*
D03*
X992121Y244433D02*
D03*
X1070750Y272000D02*
D03*
X1054250D02*
D03*
X1012500Y271750D02*
D03*
X653250Y239750D02*
D03*
X694750Y276250D02*
D03*
X765500Y355000D02*
D03*
X1093750Y305000D02*
D03*
X807250Y97500D02*
D03*
X1181750Y576000D02*
D03*
X1266000Y375000D02*
D03*
X1166250Y416000D02*
D03*
X1323750Y532250D02*
D03*
X854750Y370000D02*
D03*
X784500Y311750D02*
D03*
X1659128Y643212D02*
D03*
X1513500Y634250D02*
D03*
X922500Y100750D02*
D03*
X963000Y119750D02*
D03*
X1011000Y121500D02*
D03*
X919750Y140500D02*
D03*
X948500Y155500D02*
D03*
X1003750Y162250D02*
D03*
X1030000Y201500D02*
D03*
X1069750Y329750D02*
D03*
X1252750Y121250D02*
D03*
X1253000Y134000D02*
D03*
X1294148Y146456D02*
D03*
X1295500Y175250D02*
D03*
X1202000Y192750D02*
D03*
X1201750Y215000D02*
D03*
X1072250Y215500D02*
D03*
X1314750Y246500D02*
D03*
X1295500Y246750D02*
D03*
X1076750Y313250D02*
D03*
X1314640Y318822D02*
D03*
X1233000Y328250D02*
D03*
X1266750Y328250D02*
D03*
X1205750Y348500D02*
D03*
X1266750Y355750D02*
D03*
X1210500Y379250D02*
D03*
X1013250Y397500D02*
D03*
X986000Y401750D02*
D03*
X1191500Y582000D02*
D03*
X1203750Y591504D02*
D03*
X1191250Y598000D02*
D03*
X1314750Y377750D02*
D03*
X1301750Y396000D02*
D03*
X1312500Y491000D02*
D03*
X1292750Y491500D02*
D03*
X1277250Y508000D02*
D03*
X1277000Y520500D02*
D03*
X1279250Y544000D02*
D03*
X1278500Y562000D02*
D03*
X1329500Y251000D02*
D03*
X1337750Y258250D02*
D03*
X1341750Y364500D02*
D03*
X1347000Y134250D02*
D03*
X1347250Y121250D02*
D03*
X1349000Y376250D02*
D03*
X1349250Y353000D02*
D03*
X1401500Y117750D02*
D03*
X1447250Y125000D02*
D03*
X1419250Y145250D02*
D03*
X1456250Y174500D02*
D03*
X1488750Y195750D02*
D03*
X1428000Y202080D02*
D03*
X1436250Y215750D02*
D03*
X1387750Y257000D02*
D03*
X1482699Y259447D02*
D03*
X1368750Y303000D02*
D03*
X1430500Y361250D02*
D03*
X1430000Y380250D02*
D03*
X1349500Y399000D02*
D03*
X1332000Y508500D02*
D03*
X1332250Y521000D02*
D03*
X1386250Y486750D02*
D03*
X1389000Y506500D02*
D03*
X1442750Y462750D02*
D03*
X1490750Y463000D02*
D03*
X1424000Y485250D02*
D03*
X1490000D02*
D03*
X1443250Y507500D02*
D03*
X1506250Y518750D02*
D03*
X1401750Y525330D02*
D03*
X1461500Y530250D02*
D03*
X1503500Y556250D02*
D03*
X1523000Y568250D02*
D03*
X1547750Y569000D02*
D03*
X1507750Y581250D02*
D03*
X1420000Y586250D02*
D03*
Y596000D02*
D03*
X1424250Y608250D02*
D03*
X1523000Y608250D02*
D03*
X1548017Y608503D02*
D03*
X1518750Y655250D02*
D03*
X1553750Y129000D02*
D03*
X1613000Y101250D02*
D03*
X1613750Y263500D02*
D03*
X1595740Y200420D02*
D03*
X1655750Y332000D02*
D03*
X1573000Y569250D02*
D03*
X1561250Y571750D02*
D03*
X1607000D02*
D03*
X1632750Y572500D02*
D03*
X1559250Y588750D02*
D03*
X1573000Y608500D02*
D03*
X1598000D02*
D03*
X1622500D02*
D03*
X1647250D02*
D03*
X1657500Y571750D02*
D03*
X186648Y89636D02*
D03*
X252000Y134000D02*
D03*
X191500Y183500D02*
D03*
X626000Y50000D02*
D03*
X676750Y52000D02*
D03*
X702750Y57000D02*
D03*
X784500Y99900D02*
D03*
X736500Y58500D02*
D03*
X800500Y14250D02*
D03*
X799500Y75750D02*
D03*
X680960Y15579D02*
D03*
X749250Y21250D02*
D03*
X644500Y37750D02*
D03*
X1001750Y39750D02*
D03*
X963250Y41000D02*
D03*
X703000Y41500D02*
D03*
X931250Y68250D02*
D03*
X710000Y68750D02*
D03*
X680000Y78900D02*
D03*
X884869Y101283D02*
D03*
X844750Y114000D02*
D03*
X776750Y129250D02*
D03*
X861250Y131000D02*
D03*
X741000Y135250D02*
D03*
X864750Y154500D02*
D03*
X717000Y255750D02*
D03*
X786250Y256250D02*
D03*
X664750Y258250D02*
D03*
X657000Y283250D02*
D03*
X705000Y310250D02*
D03*
X799250Y340000D02*
D03*
X748250Y340250D02*
D03*
X863000Y341250D02*
D03*
X739500Y367250D02*
D03*
X788250Y395000D02*
D03*
X246936Y89825D02*
D03*
X274000Y87250D02*
D03*
X270250Y174250D02*
D03*
X234250Y183000D02*
D03*
X639500Y98000D02*
D03*
X365750Y184500D02*
D03*
X294250Y155500D02*
D03*
X302500Y66750D02*
D03*
X393351Y632685D02*
D03*
X1680000Y620000D02*
D03*
X1672500Y600000D02*
D03*
X1680000Y580000D02*
D03*
X1700000Y572500D02*
D03*
X1720000Y580000D02*
D03*
X1727500Y600000D02*
D03*
X1720000Y620000D02*
D03*
X1700000Y627500D02*
D03*
X1680000Y120000D02*
D03*
X1672500Y100000D02*
D03*
X1680000Y80000D02*
D03*
X1700000Y72500D02*
D03*
X1720000Y80000D02*
D03*
X1727500Y100000D02*
D03*
X1720000Y120000D02*
D03*
X1700000Y127500D02*
D03*
D116*
X263000Y121000D02*
D03*
X431000Y563250D02*
D03*
X364250Y582000D02*
D03*
M02*
