G04*
G04 #@! TF.GenerationSoftware,Altium Limited,Altium Designer,22.11.1 (43)*
G04*
G04 Layer_Color=2752767*
%FSLAX44Y44*%
%MOMM*%
G71*
G04*
G04 #@! TF.SameCoordinates,CE3EE1F7-2002-4A30-8AAF-CFD3FAF0E8B6*
G04*
G04*
G04 #@! TF.FilePolarity,Positive*
G04*
G01*
G75*
%ADD136C,0.1270*%
D136*
X1254920Y384920D02*
X1257460Y390000D01*
X1254920Y395080D01*
X1260000Y392540D01*
X1265080Y395080D01*
X1262540Y390000D01*
X1265080Y384920D01*
X1260000Y387460D01*
X1254920Y384920D01*
X1256952Y386952D02*
X1258476Y390000D01*
X1256952Y393048D01*
X1260000Y391524D01*
X1263048Y393048D01*
X1261524Y390000D01*
X1263048Y386952D01*
X1260000Y388476D01*
X1256952Y386952D01*
X1444460Y578710D02*
Y576170D01*
X1449540D01*
Y578710D01*
X1452080D01*
Y583790D01*
X1449540D01*
Y586330D01*
X1444460D01*
Y583790D01*
X1441920D01*
Y578710D01*
X1444460D01*
X1445476Y579726D02*
Y578202D01*
X1448524D01*
Y579726D01*
X1450048D01*
Y582774D01*
X1448524D01*
Y584298D01*
X1445476D01*
Y582774D01*
X1443952D01*
Y579726D01*
X1445476D01*
X1458460Y591710D02*
Y589170D01*
X1463540D01*
Y591710D01*
X1466080D01*
Y596790D01*
X1463540D01*
Y599330D01*
X1458460D01*
Y596790D01*
X1455920D01*
Y591710D01*
X1458460D01*
X1459476Y592726D02*
Y591202D01*
X1462524D01*
Y592726D01*
X1464048D01*
Y595774D01*
X1462524D01*
Y597298D01*
X1459476D01*
Y595774D01*
X1457952D01*
Y592726D01*
X1459476D01*
X1200710Y312710D02*
Y310170D01*
X1205790D01*
Y312710D01*
X1208330D01*
Y317790D01*
X1205790D01*
Y320330D01*
X1200710D01*
Y317790D01*
X1198170D01*
Y312710D01*
X1200710D01*
X1201726Y313726D02*
Y312202D01*
X1204774D01*
Y313726D01*
X1206298D01*
Y316774D01*
X1204774D01*
Y318298D01*
X1201726D01*
Y316774D01*
X1200202D01*
Y313726D01*
X1201726D01*
X1148710Y310960D02*
Y308420D01*
X1153790D01*
Y310960D01*
X1156330D01*
Y316040D01*
X1153790D01*
Y318580D01*
X1148710D01*
Y316040D01*
X1146170D01*
Y310960D01*
X1148710D01*
X1149726Y311976D02*
Y310452D01*
X1152774D01*
Y311976D01*
X1154298D01*
Y315024D01*
X1152774D01*
Y316548D01*
X1149726D01*
Y315024D01*
X1148202D01*
Y311976D01*
X1149726D01*
X1144210Y141710D02*
Y139170D01*
X1149290D01*
Y141710D01*
X1151830D01*
Y146790D01*
X1149290D01*
Y149330D01*
X1144210D01*
Y146790D01*
X1141670D01*
Y141710D01*
X1144210D01*
X1145226Y142726D02*
Y141202D01*
X1148274D01*
Y142726D01*
X1149798D01*
Y145774D01*
X1148274D01*
Y147298D01*
X1145226D01*
Y145774D01*
X1143702D01*
Y142726D01*
X1145226D01*
X1200460Y127710D02*
Y125170D01*
X1205540D01*
Y127710D01*
X1208080D01*
Y132790D01*
X1205540D01*
Y135330D01*
X1200460D01*
Y132790D01*
X1197920D01*
Y127710D01*
X1200460D01*
X1201476Y128726D02*
Y127202D01*
X1204524D01*
Y128726D01*
X1206048D01*
Y131774D01*
X1204524D01*
Y133298D01*
X1201476D01*
Y131774D01*
X1199952D01*
Y128726D01*
X1201476D01*
X1064710Y198960D02*
Y196420D01*
X1069790D01*
Y198960D01*
X1072330D01*
Y204040D01*
X1069790D01*
Y206580D01*
X1064710D01*
Y204040D01*
X1062170D01*
Y198960D01*
X1064710D01*
X1065726Y199976D02*
Y198452D01*
X1068774D01*
Y199976D01*
X1070298D01*
Y203024D01*
X1068774D01*
Y204548D01*
X1065726D01*
Y203024D01*
X1064202D01*
Y199976D01*
X1065726D01*
X1076460Y176210D02*
Y173670D01*
X1081540D01*
Y176210D01*
X1084080D01*
Y181290D01*
X1081540D01*
Y183830D01*
X1076460D01*
Y181290D01*
X1073920D01*
Y176210D01*
X1076460D01*
X1077476Y177226D02*
Y175702D01*
X1080524D01*
Y177226D01*
X1082048D01*
Y180274D01*
X1080524D01*
Y181798D01*
X1077476D01*
Y180274D01*
X1075952D01*
Y177226D01*
X1077476D01*
X1108960Y326710D02*
Y324170D01*
X1114040D01*
Y326710D01*
X1116580D01*
Y331790D01*
X1114040D01*
Y334330D01*
X1108960D01*
Y331790D01*
X1106420D01*
Y326710D01*
X1108960D01*
X1109976Y327726D02*
Y326202D01*
X1113024D01*
Y327726D01*
X1114548D01*
Y330774D01*
X1113024D01*
Y332298D01*
X1109976D01*
Y330774D01*
X1108452D01*
Y327726D01*
X1109976D01*
X948210Y64710D02*
Y62170D01*
X953290D01*
Y64710D01*
X955830D01*
Y69790D01*
X953290D01*
Y72330D01*
X948210D01*
Y69790D01*
X945670D01*
Y64710D01*
X948210D01*
X949226Y65726D02*
Y64202D01*
X952274D01*
Y65726D01*
X953798D01*
Y68774D01*
X952274D01*
Y70298D01*
X949226D01*
Y68774D01*
X947702D01*
Y65726D01*
X949226D01*
X928460Y203210D02*
Y200670D01*
X933540D01*
Y203210D01*
X936080D01*
Y208290D01*
X933540D01*
Y210830D01*
X928460D01*
Y208290D01*
X925920D01*
Y203210D01*
X928460D01*
X929476Y204226D02*
Y202702D01*
X932524D01*
Y204226D01*
X934048D01*
Y207274D01*
X932524D01*
Y208798D01*
X929476D01*
Y207274D01*
X927952D01*
Y204226D01*
X929476D01*
X955460Y190960D02*
Y188420D01*
X960540D01*
Y190960D01*
X963080D01*
Y196040D01*
X960540D01*
Y198580D01*
X955460D01*
Y196040D01*
X952920D01*
Y190960D01*
X955460D01*
X956476Y191976D02*
Y190452D01*
X959524D01*
Y191976D01*
X961048D01*
Y195024D01*
X959524D01*
Y196548D01*
X956476D01*
Y195024D01*
X954952D01*
Y191976D01*
X956476D01*
X1027460Y198960D02*
Y196420D01*
X1032540D01*
Y198960D01*
X1035080D01*
Y204040D01*
X1032540D01*
Y206580D01*
X1027460D01*
Y204040D01*
X1024920D01*
Y198960D01*
X1027460D01*
X1028476Y199976D02*
Y198452D01*
X1031524D01*
Y199976D01*
X1033048D01*
Y203024D01*
X1031524D01*
Y204548D01*
X1028476D01*
Y203024D01*
X1026952D01*
Y199976D01*
X1028476D01*
X1050210Y184710D02*
Y182170D01*
X1055290D01*
Y184710D01*
X1057830D01*
Y189790D01*
X1055290D01*
Y192330D01*
X1050210D01*
Y189790D01*
X1047670D01*
Y184710D01*
X1050210D01*
X1051226Y185726D02*
Y184202D01*
X1054274D01*
Y185726D01*
X1055798D01*
Y188774D01*
X1054274D01*
Y190298D01*
X1051226D01*
Y188774D01*
X1049702D01*
Y185726D01*
X1051226D01*
X1091710Y65460D02*
Y62920D01*
X1096790D01*
Y65460D01*
X1099330D01*
Y70540D01*
X1096790D01*
Y73080D01*
X1091710D01*
Y70540D01*
X1089170D01*
Y65460D01*
X1091710D01*
X1092726Y66476D02*
Y64952D01*
X1095774D01*
Y66476D01*
X1097298D01*
Y69524D01*
X1095774D01*
Y71048D01*
X1092726D01*
Y69524D01*
X1091202D01*
Y66476D01*
X1092726D01*
X1104222Y107130D02*
Y104590D01*
X1109302D01*
Y107130D01*
X1111842D01*
Y112210D01*
X1109302D01*
Y114750D01*
X1104222D01*
Y112210D01*
X1101682D01*
Y107130D01*
X1104222D01*
X1105238Y108146D02*
Y106622D01*
X1108286D01*
Y108146D01*
X1109810D01*
Y111194D01*
X1108286D01*
Y112718D01*
X1105238D01*
Y111194D01*
X1103714D01*
Y108146D01*
X1105238D01*
X1152460Y77460D02*
Y74920D01*
X1157540D01*
Y77460D01*
X1160080D01*
Y82540D01*
X1157540D01*
Y85080D01*
X1152460D01*
Y82540D01*
X1149920D01*
Y77460D01*
X1152460D01*
X1153476Y78476D02*
Y76952D01*
X1156524D01*
Y78476D01*
X1158048D01*
Y81524D01*
X1156524D01*
Y83048D01*
X1153476D01*
Y81524D01*
X1151952D01*
Y78476D01*
X1153476D01*
X1577210Y525210D02*
Y522670D01*
X1582290D01*
Y525210D01*
X1584830D01*
Y530290D01*
X1582290D01*
Y532830D01*
X1577210D01*
Y530290D01*
X1574670D01*
Y525210D01*
X1577210D01*
X1578226Y526226D02*
Y524702D01*
X1581274D01*
Y526226D01*
X1582798D01*
Y529274D01*
X1581274D01*
Y530798D01*
X1578226D01*
Y529274D01*
X1576702D01*
Y526226D01*
X1578226D01*
X1565210Y530960D02*
Y528420D01*
X1570290D01*
Y530960D01*
X1572830D01*
Y536040D01*
X1570290D01*
Y538580D01*
X1565210D01*
Y536040D01*
X1562670D01*
Y530960D01*
X1565210D01*
X1566226Y531976D02*
Y530452D01*
X1569274D01*
Y531976D01*
X1570798D01*
Y535024D01*
X1569274D01*
Y536548D01*
X1566226D01*
Y535024D01*
X1564702D01*
Y531976D01*
X1566226D01*
X1529960Y178210D02*
Y175670D01*
X1535040D01*
Y178210D01*
X1537580D01*
Y183290D01*
X1535040D01*
Y185830D01*
X1529960D01*
Y183290D01*
X1527420D01*
Y178210D01*
X1529960D01*
X1530976Y179226D02*
Y177702D01*
X1534024D01*
Y179226D01*
X1535548D01*
Y182274D01*
X1534024D01*
Y183798D01*
X1530976D01*
Y182274D01*
X1529452D01*
Y179226D01*
X1530976D01*
X1529210Y164460D02*
Y161920D01*
X1534290D01*
Y164460D01*
X1536830D01*
Y169540D01*
X1534290D01*
Y172080D01*
X1529210D01*
Y169540D01*
X1526670D01*
Y164460D01*
X1529210D01*
X1530226Y165476D02*
Y163952D01*
X1533274D01*
Y165476D01*
X1534798D01*
Y168524D01*
X1533274D01*
Y170048D01*
X1530226D01*
Y168524D01*
X1528702D01*
Y165476D01*
X1530226D01*
X1229420Y397170D02*
X1231960Y402250D01*
X1229420Y407330D01*
X1234500Y404790D01*
X1239580Y407330D01*
X1237040Y402250D01*
X1239580Y397170D01*
X1234500Y399710D01*
X1229420Y397170D01*
X1231452Y399202D02*
X1232976Y402250D01*
X1231452Y405298D01*
X1234500Y403774D01*
X1237548Y405298D01*
X1236024Y402250D01*
X1237548Y399202D01*
X1234500Y400726D01*
X1231452Y399202D01*
X1227920Y385420D02*
X1230460Y390500D01*
X1227920Y395580D01*
X1233000Y393040D01*
X1238080Y395580D01*
X1235540Y390500D01*
X1238080Y385420D01*
X1233000Y387960D01*
X1227920Y385420D01*
X1229952Y387452D02*
X1231476Y390500D01*
X1229952Y393548D01*
X1233000Y392024D01*
X1236048Y393548D01*
X1234524Y390500D01*
X1236048Y387452D01*
X1233000Y388976D01*
X1229952Y387452D01*
X1215670Y403420D02*
X1218210Y408500D01*
X1215670Y413580D01*
X1220750Y411040D01*
X1225830Y413580D01*
X1223290Y408500D01*
X1225830Y403420D01*
X1220750Y405960D01*
X1215670Y403420D01*
X1217702Y405452D02*
X1219226Y408500D01*
X1217702Y411548D01*
X1220750Y410024D01*
X1223798Y411548D01*
X1222274Y408500D01*
X1223798Y405452D01*
X1220750Y406976D01*
X1217702Y405452D01*
X757460Y416960D02*
Y414420D01*
X762540D01*
Y416960D01*
X765080D01*
Y422040D01*
X762540D01*
Y424580D01*
X757460D01*
Y422040D01*
X754920D01*
Y416960D01*
X757460D01*
X758476Y417976D02*
Y416452D01*
X761524D01*
Y417976D01*
X763048D01*
Y421024D01*
X761524D01*
Y422548D01*
X758476D01*
Y421024D01*
X756952D01*
Y417976D01*
X758476D01*
X504210Y326460D02*
Y323920D01*
X509290D01*
Y326460D01*
X511830D01*
Y331540D01*
X509290D01*
Y334080D01*
X504210D01*
Y331540D01*
X501670D01*
Y326460D01*
X504210D01*
X505226Y327476D02*
Y325952D01*
X508274D01*
Y327476D01*
X509798D01*
Y330524D01*
X508274D01*
Y332048D01*
X505226D01*
Y330524D01*
X503702D01*
Y327476D01*
X505226D01*
X692210Y273710D02*
Y271170D01*
X697290D01*
Y273710D01*
X699830D01*
Y278790D01*
X697290D01*
Y281330D01*
X692210D01*
Y278790D01*
X689670D01*
Y273710D01*
X692210D01*
X693226Y274726D02*
Y273202D01*
X696274D01*
Y274726D01*
X697798D01*
Y277774D01*
X696274D01*
Y279298D01*
X693226D01*
Y277774D01*
X691702D01*
Y274726D01*
X693226D01*
X762960Y352460D02*
Y349920D01*
X768040D01*
Y352460D01*
X770580D01*
Y357540D01*
X768040D01*
Y360080D01*
X762960D01*
Y357540D01*
X760420D01*
Y352460D01*
X762960D01*
X763976Y353476D02*
Y351952D01*
X767024D01*
Y353476D01*
X768548D01*
Y356524D01*
X767024D01*
Y358048D01*
X763976D01*
Y356524D01*
X762452D01*
Y353476D01*
X763976D01*
X1091210Y302460D02*
Y299920D01*
X1096290D01*
Y302460D01*
X1098830D01*
Y307540D01*
X1096290D01*
Y310080D01*
X1091210D01*
Y307540D01*
X1088670D01*
Y302460D01*
X1091210D01*
X1092226Y303476D02*
Y301952D01*
X1095274D01*
Y303476D01*
X1096798D01*
Y306524D01*
X1095274D01*
Y308048D01*
X1092226D01*
Y306524D01*
X1090702D01*
Y303476D01*
X1092226D01*
X1179210Y573460D02*
Y570920D01*
X1184290D01*
Y573460D01*
X1186830D01*
Y578540D01*
X1184290D01*
Y581080D01*
X1179210D01*
Y578540D01*
X1176670D01*
Y573460D01*
X1179210D01*
X1180226Y574476D02*
Y572952D01*
X1183274D01*
Y574476D01*
X1184798D01*
Y577524D01*
X1183274D01*
Y579048D01*
X1180226D01*
Y577524D01*
X1178702D01*
Y574476D01*
X1180226D01*
X1263460Y372460D02*
Y369920D01*
X1268540D01*
Y372460D01*
X1271080D01*
Y377540D01*
X1268540D01*
Y380080D01*
X1263460D01*
Y377540D01*
X1260920D01*
Y372460D01*
X1263460D01*
X1264476Y373476D02*
Y371952D01*
X1267524D01*
Y373476D01*
X1269048D01*
Y376524D01*
X1267524D01*
Y378048D01*
X1264476D01*
Y376524D01*
X1262952D01*
Y373476D01*
X1264476D01*
X1163710Y413460D02*
Y410920D01*
X1168790D01*
Y413460D01*
X1171330D01*
Y418540D01*
X1168790D01*
Y421080D01*
X1163710D01*
Y418540D01*
X1161170D01*
Y413460D01*
X1163710D01*
X1164726Y414476D02*
Y412952D01*
X1167774D01*
Y414476D01*
X1169298D01*
Y417524D01*
X1167774D01*
Y419048D01*
X1164726D01*
Y417524D01*
X1163202D01*
Y414476D01*
X1164726D01*
X1239920Y458920D02*
X1242460Y464000D01*
X1239920Y469080D01*
X1245000Y466540D01*
X1250080Y469080D01*
X1247540Y464000D01*
X1250080Y458920D01*
X1245000Y461460D01*
X1239920Y458920D01*
X1241952Y460952D02*
X1243476Y464000D01*
X1241952Y467048D01*
X1245000Y465524D01*
X1248048Y467048D01*
X1246524Y464000D01*
X1248048Y460952D01*
X1245000Y462476D01*
X1241952Y460952D01*
X1321210Y529710D02*
Y527170D01*
X1326290D01*
Y529710D01*
X1328830D01*
Y534790D01*
X1326290D01*
Y537330D01*
X1321210D01*
Y534790D01*
X1318670D01*
Y529710D01*
X1321210D01*
X1322226Y530726D02*
Y529202D01*
X1325274D01*
Y530726D01*
X1326798D01*
Y533774D01*
X1325274D01*
Y535298D01*
X1322226D01*
Y533774D01*
X1320702D01*
Y530726D01*
X1322226D01*
X852210Y367460D02*
Y364920D01*
X857290D01*
Y367460D01*
X859830D01*
Y372540D01*
X857290D01*
Y375080D01*
X852210D01*
Y372540D01*
X849670D01*
Y367460D01*
X852210D01*
X853226Y368476D02*
Y366952D01*
X856274D01*
Y368476D01*
X857798D01*
Y371524D01*
X856274D01*
Y373048D01*
X853226D01*
Y371524D01*
X851702D01*
Y368476D01*
X853226D01*
X781960Y309210D02*
Y306670D01*
X787040D01*
Y309210D01*
X789580D01*
Y314290D01*
X787040D01*
Y316830D01*
X781960D01*
Y314290D01*
X779420D01*
Y309210D01*
X781960D01*
X782976Y310226D02*
Y308702D01*
X786024D01*
Y310226D01*
X787548D01*
Y313274D01*
X786024D01*
Y314798D01*
X782976D01*
Y313274D01*
X781452D01*
Y310226D01*
X782976D01*
X1656588Y640672D02*
Y638132D01*
X1661668D01*
Y640672D01*
X1664208D01*
Y645752D01*
X1661668D01*
Y648292D01*
X1656588D01*
Y645752D01*
X1654048D01*
Y640672D01*
X1656588D01*
X1657604Y641688D02*
Y640164D01*
X1660652D01*
Y641688D01*
X1662176D01*
Y644736D01*
X1660652D01*
Y646260D01*
X1657604D01*
Y644736D01*
X1656080D01*
Y641688D01*
X1657604D01*
X1510960Y631710D02*
Y629170D01*
X1516040D01*
Y631710D01*
X1518580D01*
Y636790D01*
X1516040D01*
Y639330D01*
X1510960D01*
Y636790D01*
X1508420D01*
Y631710D01*
X1510960D01*
X1511976Y632726D02*
Y631202D01*
X1515024D01*
Y632726D01*
X1516548D01*
Y635774D01*
X1515024D01*
Y637298D01*
X1511976D01*
Y635774D01*
X1510452D01*
Y632726D01*
X1511976D01*
X960460Y117210D02*
Y114670D01*
X965540D01*
Y117210D01*
X968080D01*
Y122290D01*
X965540D01*
Y124830D01*
X960460D01*
Y122290D01*
X957920D01*
Y117210D01*
X960460D01*
X961476Y118226D02*
Y116702D01*
X964524D01*
Y118226D01*
X966048D01*
Y121274D01*
X964524D01*
Y122798D01*
X961476D01*
Y121274D01*
X959952D01*
Y118226D01*
X961476D01*
X1008460Y118960D02*
Y116420D01*
X1013540D01*
Y118960D01*
X1016080D01*
Y124040D01*
X1013540D01*
Y126580D01*
X1008460D01*
Y124040D01*
X1005920D01*
Y118960D01*
X1008460D01*
X1009476Y119976D02*
Y118452D01*
X1012524D01*
Y119976D01*
X1014048D01*
Y123024D01*
X1012524D01*
Y124548D01*
X1009476D01*
Y123024D01*
X1007952D01*
Y119976D01*
X1009476D01*
X945960Y152960D02*
Y150420D01*
X951040D01*
Y152960D01*
X953580D01*
Y158040D01*
X951040D01*
Y160580D01*
X945960D01*
Y158040D01*
X943420D01*
Y152960D01*
X945960D01*
X946976Y153976D02*
Y152452D01*
X950024D01*
Y153976D01*
X951548D01*
Y157024D01*
X950024D01*
Y158548D01*
X946976D01*
Y157024D01*
X945452D01*
Y153976D01*
X946976D01*
X1291608Y143916D02*
Y141376D01*
X1296688D01*
Y143916D01*
X1299228D01*
Y148996D01*
X1296688D01*
Y151536D01*
X1291608D01*
Y148996D01*
X1289068D01*
Y143916D01*
X1291608D01*
X1292624Y144932D02*
Y143408D01*
X1295672D01*
Y144932D01*
X1297196D01*
Y147980D01*
X1295672D01*
Y149504D01*
X1292624D01*
Y147980D01*
X1291100D01*
Y144932D01*
X1292624D01*
X1292960Y172710D02*
Y170170D01*
X1298040D01*
Y172710D01*
X1300580D01*
Y177790D01*
X1298040D01*
Y180330D01*
X1292960D01*
Y177790D01*
X1290420D01*
Y172710D01*
X1292960D01*
X1293976Y173726D02*
Y172202D01*
X1297024D01*
Y173726D01*
X1298548D01*
Y176774D01*
X1297024D01*
Y178298D01*
X1293976D01*
Y176774D01*
X1292452D01*
Y173726D01*
X1293976D01*
X1069710Y212960D02*
Y210420D01*
X1074790D01*
Y212960D01*
X1077330D01*
Y218040D01*
X1074790D01*
Y220580D01*
X1069710D01*
Y218040D01*
X1067170D01*
Y212960D01*
X1069710D01*
X1070726Y213976D02*
Y212452D01*
X1073774D01*
Y213976D01*
X1075298D01*
Y217024D01*
X1073774D01*
Y218548D01*
X1070726D01*
Y217024D01*
X1069202D01*
Y213976D01*
X1070726D01*
X1074210Y310710D02*
Y308170D01*
X1079290D01*
Y310710D01*
X1081830D01*
Y315790D01*
X1079290D01*
Y318330D01*
X1074210D01*
Y315790D01*
X1071670D01*
Y310710D01*
X1074210D01*
X1075226Y311726D02*
Y310202D01*
X1078274D01*
Y311726D01*
X1079798D01*
Y314774D01*
X1078274D01*
Y316298D01*
X1075226D01*
Y314774D01*
X1073702D01*
Y311726D01*
X1075226D01*
X1312100Y316282D02*
Y313742D01*
X1317180D01*
Y316282D01*
X1319720D01*
Y321362D01*
X1317180D01*
Y323902D01*
X1312100D01*
Y321362D01*
X1309560D01*
Y316282D01*
X1312100D01*
X1313116Y317298D02*
Y315774D01*
X1316164D01*
Y317298D01*
X1317688D01*
Y320346D01*
X1316164D01*
Y321870D01*
X1313116D01*
Y320346D01*
X1311592D01*
Y317298D01*
X1313116D01*
X1230460Y325710D02*
Y323170D01*
X1235540D01*
Y325710D01*
X1238080D01*
Y330790D01*
X1235540D01*
Y333330D01*
X1230460D01*
Y330790D01*
X1227920D01*
Y325710D01*
X1230460D01*
X1231476Y326726D02*
Y325202D01*
X1234524D01*
Y326726D01*
X1236048D01*
Y329774D01*
X1234524D01*
Y331298D01*
X1231476D01*
Y329774D01*
X1229952D01*
Y326726D01*
X1231476D01*
X1264210Y325710D02*
Y323170D01*
X1269290D01*
Y325710D01*
X1271830D01*
Y330790D01*
X1269290D01*
Y333330D01*
X1264210D01*
Y330790D01*
X1261670D01*
Y325710D01*
X1264210D01*
X1265226Y326726D02*
Y325202D01*
X1268274D01*
Y326726D01*
X1269798D01*
Y329774D01*
X1268274D01*
Y331298D01*
X1265226D01*
Y329774D01*
X1263702D01*
Y326726D01*
X1265226D01*
X1067210Y327210D02*
Y324670D01*
X1072290D01*
Y327210D01*
X1074830D01*
Y332290D01*
X1072290D01*
Y334830D01*
X1067210D01*
Y332290D01*
X1064670D01*
Y327210D01*
X1067210D01*
X1068226Y328226D02*
Y326702D01*
X1071274D01*
Y328226D01*
X1072798D01*
Y331274D01*
X1071274D01*
Y332798D01*
X1068226D01*
Y331274D01*
X1066702D01*
Y328226D01*
X1068226D01*
X1316455Y335989D02*
X1318995Y341069D01*
X1316455Y346149D01*
X1321535Y343610D01*
X1326615Y346149D01*
X1324075Y341069D01*
X1326615Y335989D01*
X1321535Y338530D01*
X1316455Y335989D01*
X1318487Y338022D02*
X1320011Y341069D01*
X1318487Y344118D01*
X1321535Y342593D01*
X1324583Y344118D01*
X1323059Y341069D01*
X1324583Y338022D01*
X1321535Y339546D01*
X1318487Y338022D01*
X1203210Y345960D02*
Y343420D01*
X1208290D01*
Y345960D01*
X1210830D01*
Y351040D01*
X1208290D01*
Y353580D01*
X1203210D01*
Y351040D01*
X1200670D01*
Y345960D01*
X1203210D01*
X1204226Y346976D02*
Y345452D01*
X1207274D01*
Y346976D01*
X1208798D01*
Y350024D01*
X1207274D01*
Y351548D01*
X1204226D01*
Y350024D01*
X1202702D01*
Y346976D01*
X1204226D01*
X1264210Y353210D02*
Y350670D01*
X1269290D01*
Y353210D01*
X1271830D01*
Y358290D01*
X1269290D01*
Y360830D01*
X1264210D01*
Y358290D01*
X1261670D01*
Y353210D01*
X1264210D01*
X1265226Y354226D02*
Y352702D01*
X1268274D01*
Y354226D01*
X1269798D01*
Y357274D01*
X1268274D01*
Y358798D01*
X1265226D01*
Y357274D01*
X1263702D01*
Y354226D01*
X1265226D01*
X1224920Y358670D02*
X1227460Y363750D01*
X1224920Y368830D01*
X1230000Y366290D01*
X1235080Y368830D01*
X1232540Y363750D01*
X1235080Y358670D01*
X1230000Y361210D01*
X1224920Y358670D01*
X1226952Y360702D02*
X1228476Y363750D01*
X1226952Y366798D01*
X1230000Y365274D01*
X1233048Y366798D01*
X1231524Y363750D01*
X1233048Y360702D01*
X1230000Y362226D01*
X1226952Y360702D01*
X983460Y399210D02*
Y396670D01*
X988540D01*
Y399210D01*
X991080D01*
Y404290D01*
X988540D01*
Y406830D01*
X983460D01*
Y404290D01*
X980920D01*
Y399210D01*
X983460D01*
X984476Y400226D02*
Y398702D01*
X987524D01*
Y400226D01*
X989048D01*
Y403274D01*
X987524D01*
Y404798D01*
X984476D01*
Y403274D01*
X982952D01*
Y400226D01*
X984476D01*
X1226670Y421670D02*
X1229210Y426750D01*
X1226670Y431830D01*
X1231750Y429290D01*
X1236830Y431830D01*
X1234290Y426750D01*
X1236830Y421670D01*
X1231750Y424210D01*
X1226670Y421670D01*
X1228702Y423702D02*
X1230226Y426750D01*
X1228702Y429798D01*
X1231750Y428274D01*
X1234798Y429798D01*
X1233274Y426750D01*
X1234798Y423702D01*
X1231750Y425226D01*
X1228702Y423702D01*
X1231420Y438920D02*
X1233960Y444000D01*
X1231420Y449080D01*
X1236500Y446540D01*
X1241580Y449080D01*
X1239040Y444000D01*
X1241580Y438920D01*
X1236500Y441460D01*
X1231420Y438920D01*
X1233452Y440952D02*
X1234976Y444000D01*
X1233452Y447048D01*
X1236500Y445524D01*
X1239548Y447048D01*
X1238024Y444000D01*
X1239548Y440952D01*
X1236500Y442476D01*
X1233452Y440952D01*
X1201210Y588964D02*
Y586424D01*
X1206290D01*
Y588964D01*
X1208830D01*
Y594044D01*
X1206290D01*
Y596584D01*
X1201210D01*
Y594044D01*
X1198670D01*
Y588964D01*
X1201210D01*
X1202226Y589980D02*
Y588456D01*
X1205274D01*
Y589980D01*
X1206798D01*
Y593028D01*
X1205274D01*
Y594552D01*
X1202226D01*
Y593028D01*
X1200702D01*
Y589980D01*
X1202226D01*
X1312210Y375210D02*
Y372670D01*
X1317290D01*
Y375210D01*
X1319830D01*
Y380290D01*
X1317290D01*
Y382830D01*
X1312210D01*
Y380290D01*
X1309670D01*
Y375210D01*
X1312210D01*
X1313226Y376226D02*
Y374702D01*
X1316274D01*
Y376226D01*
X1317798D01*
Y379274D01*
X1316274D01*
Y380798D01*
X1313226D01*
Y379274D01*
X1311702D01*
Y376226D01*
X1313226D01*
X1299210Y393460D02*
Y390920D01*
X1304290D01*
Y393460D01*
X1306830D01*
Y398540D01*
X1304290D01*
Y401080D01*
X1299210D01*
Y398540D01*
X1296670D01*
Y393460D01*
X1299210D01*
X1300226Y394476D02*
Y392952D01*
X1303274D01*
Y394476D01*
X1304798D01*
Y397524D01*
X1303274D01*
Y399048D01*
X1300226D01*
Y397524D01*
X1298702D01*
Y394476D01*
X1300226D01*
X1283170Y403670D02*
X1285710Y408750D01*
X1283170Y413830D01*
X1288250Y411290D01*
X1293330Y413830D01*
X1290790Y408750D01*
X1293330Y403670D01*
X1288250Y406210D01*
X1283170Y403670D01*
X1285202Y405702D02*
X1286726Y408750D01*
X1285202Y411798D01*
X1288250Y410274D01*
X1291298Y411798D01*
X1289774Y408750D01*
X1291298Y405702D01*
X1288250Y407226D01*
X1285202Y405702D01*
X1304670Y407420D02*
X1307210Y412500D01*
X1304670Y417580D01*
X1309750Y415040D01*
X1314830Y417580D01*
X1312290Y412500D01*
X1314830Y407420D01*
X1309750Y409960D01*
X1304670Y407420D01*
X1306702Y409452D02*
X1308226Y412500D01*
X1306702Y415548D01*
X1309750Y414024D01*
X1312798Y415548D01*
X1311274Y412500D01*
X1312798Y409452D01*
X1309750Y410976D01*
X1306702Y409452D01*
X1277560Y419780D02*
X1280100Y424860D01*
X1277560Y429940D01*
X1282640Y427400D01*
X1287720Y429940D01*
X1285180Y424860D01*
X1287720Y419780D01*
X1282640Y422320D01*
X1277560Y419780D01*
X1279592Y421812D02*
X1281116Y424860D01*
X1279592Y427908D01*
X1282640Y426384D01*
X1285688Y427908D01*
X1284164Y424860D01*
X1285688Y421812D01*
X1282640Y423336D01*
X1279592Y421812D01*
X1269560Y419780D02*
X1272100Y424860D01*
X1269560Y429940D01*
X1274640Y427400D01*
X1279720Y429940D01*
X1277180Y424860D01*
X1279720Y419780D01*
X1274640Y422320D01*
X1269560Y419780D01*
X1271592Y421812D02*
X1273116Y424860D01*
X1271592Y427908D01*
X1274640Y426384D01*
X1277688Y427908D01*
X1276164Y424860D01*
X1277688Y421812D01*
X1274640Y423336D01*
X1271592Y421812D01*
X1282670Y458420D02*
X1285210Y463500D01*
X1282670Y468580D01*
X1287750Y466040D01*
X1292830Y468580D01*
X1290290Y463500D01*
X1292830Y458420D01*
X1287750Y460960D01*
X1282670Y458420D01*
X1284702Y460452D02*
X1286226Y463500D01*
X1284702Y466548D01*
X1287750Y465024D01*
X1290798Y466548D01*
X1289274Y463500D01*
X1290798Y460452D01*
X1287750Y461976D01*
X1284702Y460452D01*
X1300420Y458670D02*
X1302960Y463750D01*
X1300420Y468830D01*
X1305500Y466290D01*
X1310580Y468830D01*
X1308040Y463750D01*
X1310580Y458670D01*
X1305500Y461210D01*
X1300420Y458670D01*
X1302452Y460702D02*
X1303976Y463750D01*
X1302452Y466798D01*
X1305500Y465274D01*
X1308548Y466798D01*
X1307024Y463750D01*
X1308548Y460702D01*
X1305500Y462226D01*
X1302452Y460702D01*
X1263920Y459420D02*
X1266460Y464500D01*
X1263920Y469580D01*
X1269000Y467040D01*
X1274080Y469580D01*
X1271540Y464500D01*
X1274080Y459420D01*
X1269000Y461960D01*
X1263920Y459420D01*
X1265952Y461452D02*
X1267476Y464500D01*
X1265952Y467548D01*
X1269000Y466024D01*
X1272048Y467548D01*
X1270524Y464500D01*
X1272048Y461452D01*
X1269000Y462976D01*
X1265952Y461452D01*
X1276710Y541460D02*
Y538920D01*
X1281790D01*
Y541460D01*
X1284330D01*
Y546540D01*
X1281790D01*
Y549080D01*
X1276710D01*
Y546540D01*
X1274170D01*
Y541460D01*
X1276710D01*
X1277726Y542476D02*
Y540952D01*
X1280774D01*
Y542476D01*
X1282298D01*
Y545524D01*
X1280774D01*
Y547048D01*
X1277726D01*
Y545524D01*
X1276202D01*
Y542476D01*
X1277726D01*
X1275960Y559460D02*
Y556920D01*
X1281040D01*
Y559460D01*
X1283580D01*
Y564540D01*
X1281040D01*
Y567080D01*
X1275960D01*
Y564540D01*
X1273420D01*
Y559460D01*
X1275960D01*
X1276976Y560476D02*
Y558952D01*
X1280024D01*
Y560476D01*
X1281548D01*
Y563524D01*
X1280024D01*
Y565048D01*
X1276976D01*
Y563524D01*
X1275452D01*
Y560476D01*
X1276976D01*
X1319850Y385483D02*
X1322390Y390563D01*
X1319850Y395643D01*
X1324930Y393103D01*
X1330010Y395643D01*
X1327470Y390563D01*
X1330010Y385483D01*
X1324930Y388023D01*
X1319850Y385483D01*
X1321882Y387515D02*
X1323406Y390563D01*
X1321882Y393611D01*
X1324930Y392087D01*
X1327978Y393611D01*
X1326454Y390563D01*
X1327978Y387515D01*
X1324930Y389039D01*
X1321882Y387515D01*
X1320670Y406670D02*
X1323210Y411750D01*
X1320670Y416830D01*
X1325750Y414290D01*
X1330830Y416830D01*
X1328290Y411750D01*
X1330830Y406670D01*
X1325750Y409210D01*
X1320670Y406670D01*
X1322702Y408702D02*
X1324226Y411750D01*
X1322702Y414798D01*
X1325750Y413274D01*
X1328798Y414798D01*
X1327274Y411750D01*
X1328798Y408702D01*
X1325750Y410226D01*
X1322702Y408702D01*
X1326960Y248460D02*
Y245920D01*
X1332040D01*
Y248460D01*
X1334580D01*
Y253540D01*
X1332040D01*
Y256080D01*
X1326960D01*
Y253540D01*
X1324420D01*
Y248460D01*
X1326960D01*
X1327976Y249476D02*
Y247952D01*
X1331024D01*
Y249476D01*
X1332548D01*
Y252524D01*
X1331024D01*
Y254048D01*
X1327976D01*
Y252524D01*
X1326452D01*
Y249476D01*
X1327976D01*
X1335210Y255710D02*
Y253170D01*
X1340290D01*
Y255710D01*
X1342830D01*
Y260790D01*
X1340290D01*
Y263330D01*
X1335210D01*
Y260790D01*
X1332670D01*
Y255710D01*
X1335210D01*
X1336226Y256726D02*
Y255202D01*
X1339274D01*
Y256726D01*
X1340798D01*
Y259774D01*
X1339274D01*
Y261298D01*
X1336226D01*
Y259774D01*
X1334702D01*
Y256726D01*
X1336226D01*
X1339210Y361960D02*
Y359420D01*
X1344290D01*
Y361960D01*
X1346830D01*
Y367040D01*
X1344290D01*
Y369580D01*
X1339210D01*
Y367040D01*
X1336670D01*
Y361960D01*
X1339210D01*
X1340226Y362976D02*
Y361452D01*
X1343274D01*
Y362976D01*
X1344798D01*
Y366024D01*
X1343274D01*
Y367548D01*
X1340226D01*
Y366024D01*
X1338702D01*
Y362976D01*
X1340226D01*
X1346460Y373710D02*
Y371170D01*
X1351540D01*
Y373710D01*
X1354080D01*
Y378790D01*
X1351540D01*
Y381330D01*
X1346460D01*
Y378790D01*
X1343920D01*
Y373710D01*
X1346460D01*
X1347476Y374726D02*
Y373202D01*
X1350524D01*
Y374726D01*
X1352048D01*
Y377774D01*
X1350524D01*
Y379298D01*
X1347476D01*
Y377774D01*
X1345952D01*
Y374726D01*
X1347476D01*
X1346710Y350460D02*
Y347920D01*
X1351790D01*
Y350460D01*
X1354330D01*
Y355540D01*
X1351790D01*
Y358080D01*
X1346710D01*
Y355540D01*
X1344170D01*
Y350460D01*
X1346710D01*
X1347726Y351476D02*
Y349952D01*
X1350774D01*
Y351476D01*
X1352298D01*
Y354524D01*
X1350774D01*
Y356048D01*
X1347726D01*
Y354524D01*
X1346202D01*
Y351476D01*
X1347726D01*
X1346960Y396460D02*
Y393920D01*
X1352040D01*
Y396460D01*
X1354580D01*
Y401540D01*
X1352040D01*
Y404080D01*
X1346960D01*
Y401540D01*
X1344420D01*
Y396460D01*
X1346960D01*
X1347976Y397476D02*
Y395952D01*
X1351024D01*
Y397476D01*
X1352548D01*
Y400524D01*
X1351024D01*
Y402048D01*
X1347976D01*
Y400524D01*
X1346452D01*
Y397476D01*
X1347976D01*
X1444710Y122460D02*
Y119920D01*
X1449790D01*
Y122460D01*
X1452330D01*
Y127540D01*
X1449790D01*
Y130080D01*
X1444710D01*
Y127540D01*
X1442170D01*
Y122460D01*
X1444710D01*
X1445726Y123476D02*
Y121952D01*
X1448774D01*
Y123476D01*
X1450298D01*
Y126524D01*
X1448774D01*
Y128048D01*
X1445726D01*
Y126524D01*
X1444202D01*
Y123476D01*
X1445726D01*
X1453710Y171960D02*
Y169420D01*
X1458790D01*
Y171960D01*
X1461330D01*
Y177040D01*
X1458790D01*
Y179580D01*
X1453710D01*
Y177040D01*
X1451170D01*
Y171960D01*
X1453710D01*
X1454726Y172976D02*
Y171452D01*
X1457774D01*
Y172976D01*
X1459298D01*
Y176024D01*
X1457774D01*
Y177548D01*
X1454726D01*
Y176024D01*
X1453202D01*
Y172976D01*
X1454726D01*
X1486210Y193210D02*
Y190670D01*
X1491290D01*
Y193210D01*
X1493830D01*
Y198290D01*
X1491290D01*
Y200830D01*
X1486210D01*
Y198290D01*
X1483670D01*
Y193210D01*
X1486210D01*
X1487226Y194226D02*
Y192702D01*
X1490274D01*
Y194226D01*
X1491798D01*
Y197274D01*
X1490274D01*
Y198798D01*
X1487226D01*
Y197274D01*
X1485702D01*
Y194226D01*
X1487226D01*
X1385210Y254460D02*
Y251920D01*
X1390290D01*
Y254460D01*
X1392830D01*
Y259540D01*
X1390290D01*
Y262080D01*
X1385210D01*
Y259540D01*
X1382670D01*
Y254460D01*
X1385210D01*
X1386226Y255476D02*
Y253952D01*
X1389274D01*
Y255476D01*
X1390798D01*
Y258524D01*
X1389274D01*
Y260048D01*
X1386226D01*
Y258524D01*
X1384702D01*
Y255476D01*
X1386226D01*
X1480159Y256907D02*
Y254367D01*
X1485239D01*
Y256907D01*
X1487779D01*
Y261987D01*
X1485239D01*
Y264527D01*
X1480159D01*
Y261987D01*
X1477619D01*
Y256907D01*
X1480159D01*
X1481175Y257923D02*
Y256399D01*
X1484223D01*
Y257923D01*
X1485747D01*
Y260971D01*
X1484223D01*
Y262495D01*
X1481175D01*
Y260971D01*
X1479651D01*
Y257923D01*
X1481175D01*
X1366210Y300460D02*
Y297920D01*
X1371290D01*
Y300460D01*
X1373830D01*
Y305540D01*
X1371290D01*
Y308080D01*
X1366210D01*
Y305540D01*
X1363670D01*
Y300460D01*
X1366210D01*
X1367226Y301476D02*
Y299952D01*
X1370274D01*
Y301476D01*
X1371798D01*
Y304524D01*
X1370274D01*
Y306048D01*
X1367226D01*
Y304524D01*
X1365702D01*
Y301476D01*
X1367226D01*
X1450710Y327710D02*
Y325170D01*
X1455790D01*
Y327710D01*
X1458330D01*
Y332790D01*
X1455790D01*
Y335330D01*
X1450710D01*
Y332790D01*
X1448170D01*
Y327710D01*
X1450710D01*
X1451726Y328726D02*
Y327202D01*
X1454774D01*
Y328726D01*
X1456298D01*
Y331774D01*
X1454774D01*
Y333298D01*
X1451726D01*
Y331774D01*
X1450202D01*
Y328726D01*
X1451726D01*
X1371420Y395170D02*
X1373960Y400250D01*
X1371420Y405330D01*
X1376500Y402790D01*
X1381580Y405330D01*
X1379040Y400250D01*
X1381580Y395170D01*
X1376500Y397710D01*
X1371420Y395170D01*
X1373452Y397202D02*
X1374976Y400250D01*
X1373452Y403298D01*
X1376500Y401774D01*
X1379548Y403298D01*
X1378024Y400250D01*
X1379548Y397202D01*
X1376500Y398726D01*
X1373452Y397202D01*
X1355670Y433920D02*
X1358210Y439000D01*
X1355670Y444080D01*
X1360750Y441540D01*
X1365830Y444080D01*
X1363290Y439000D01*
X1365830Y433920D01*
X1360750Y436460D01*
X1355670Y433920D01*
X1357702Y435952D02*
X1359226Y439000D01*
X1357702Y442048D01*
X1360750Y440524D01*
X1363798Y442048D01*
X1362274Y439000D01*
X1363798Y435952D01*
X1360750Y437476D01*
X1357702Y435952D01*
X1318920Y458670D02*
X1321460Y463750D01*
X1318920Y468830D01*
X1324000Y466290D01*
X1329080Y468830D01*
X1326540Y463750D01*
X1329080Y458670D01*
X1324000Y461210D01*
X1318920Y458670D01*
X1320952Y460702D02*
X1322476Y463750D01*
X1320952Y466798D01*
X1324000Y465274D01*
X1327048Y466798D01*
X1325524Y463750D01*
X1327048Y460702D01*
X1324000Y462226D01*
X1320952Y460702D01*
X1323420Y440420D02*
X1325960Y445500D01*
X1323420Y450580D01*
X1328500Y448040D01*
X1333580Y450580D01*
X1331040Y445500D01*
X1333580Y440420D01*
X1328500Y442960D01*
X1323420Y440420D01*
X1325452Y442452D02*
X1326976Y445500D01*
X1325452Y448548D01*
X1328500Y447024D01*
X1331548Y448548D01*
X1330024Y445500D01*
X1331548Y442452D01*
X1328500Y443976D01*
X1325452Y442452D01*
X1342670Y456170D02*
X1345210Y461250D01*
X1342670Y466330D01*
X1347750Y463790D01*
X1352830Y466330D01*
X1350290Y461250D01*
X1352830Y456170D01*
X1347750Y458710D01*
X1342670Y456170D01*
X1344702Y458202D02*
X1346226Y461250D01*
X1344702Y464298D01*
X1347750Y462774D01*
X1350798Y464298D01*
X1349274Y461250D01*
X1350798Y458202D01*
X1347750Y459726D01*
X1344702Y458202D01*
X1365170Y456170D02*
X1367710Y461250D01*
X1365170Y466330D01*
X1370250Y463790D01*
X1375330Y466330D01*
X1372790Y461250D01*
X1375330Y456170D01*
X1370250Y458710D01*
X1365170Y456170D01*
X1367202Y458202D02*
X1368726Y461250D01*
X1367202Y464298D01*
X1370250Y462774D01*
X1373298Y464298D01*
X1371774Y461250D01*
X1373298Y458202D01*
X1370250Y459726D01*
X1367202Y458202D01*
X1386460Y503960D02*
Y501420D01*
X1391540D01*
Y503960D01*
X1394080D01*
Y509040D01*
X1391540D01*
Y511580D01*
X1386460D01*
Y509040D01*
X1383920D01*
Y503960D01*
X1386460D01*
X1387476Y504976D02*
Y503452D01*
X1390524D01*
Y504976D01*
X1392048D01*
Y508024D01*
X1390524D01*
Y509548D01*
X1387476D01*
Y508024D01*
X1385952D01*
Y504976D01*
X1387476D01*
X1451210Y439210D02*
Y436670D01*
X1456290D01*
Y439210D01*
X1458830D01*
Y444290D01*
X1456290D01*
Y446830D01*
X1451210D01*
Y444290D01*
X1448670D01*
Y439210D01*
X1451210D01*
X1452226Y440226D02*
Y438702D01*
X1455274D01*
Y440226D01*
X1456798D01*
Y443274D01*
X1455274D01*
Y444798D01*
X1452226D01*
Y443274D01*
X1450702D01*
Y440226D01*
X1452226D01*
X1421460Y482710D02*
Y480170D01*
X1426540D01*
Y482710D01*
X1429080D01*
Y487790D01*
X1426540D01*
Y490330D01*
X1421460D01*
Y487790D01*
X1418920D01*
Y482710D01*
X1421460D01*
X1422476Y483726D02*
Y482202D01*
X1425524D01*
Y483726D01*
X1427048D01*
Y486774D01*
X1425524D01*
Y488298D01*
X1422476D01*
Y486774D01*
X1420952D01*
Y483726D01*
X1422476D01*
X1458960Y527710D02*
Y525170D01*
X1464040D01*
Y527710D01*
X1466580D01*
Y532790D01*
X1464040D01*
Y535330D01*
X1458960D01*
Y532790D01*
X1456420D01*
Y527710D01*
X1458960D01*
X1459976Y528726D02*
Y527202D01*
X1463024D01*
Y528726D01*
X1464548D01*
Y531774D01*
X1463024D01*
Y533298D01*
X1459976D01*
Y531774D01*
X1458452D01*
Y528726D01*
X1459976D01*
X1443460Y541460D02*
Y538920D01*
X1448540D01*
Y541460D01*
X1451080D01*
Y546540D01*
X1448540D01*
Y549080D01*
X1443460D01*
Y546540D01*
X1440920D01*
Y541460D01*
X1443460D01*
X1444476Y542476D02*
Y540952D01*
X1447524D01*
Y542476D01*
X1449048D01*
Y545524D01*
X1447524D01*
Y547048D01*
X1444476D01*
Y545524D01*
X1442952D01*
Y542476D01*
X1444476D01*
X1500960Y553710D02*
Y551170D01*
X1506040D01*
Y553710D01*
X1508580D01*
Y558790D01*
X1506040D01*
Y561330D01*
X1500960D01*
Y558790D01*
X1498420D01*
Y553710D01*
X1500960D01*
X1501976Y554726D02*
Y553202D01*
X1505024D01*
Y554726D01*
X1506548D01*
Y557774D01*
X1505024D01*
Y559298D01*
X1501976D01*
Y557774D01*
X1500452D01*
Y554726D01*
X1501976D01*
X1505210Y578710D02*
Y576170D01*
X1510290D01*
Y578710D01*
X1512830D01*
Y583790D01*
X1510290D01*
Y586330D01*
X1505210D01*
Y583790D01*
X1502670D01*
Y578710D01*
X1505210D01*
X1506226Y579726D02*
Y578202D01*
X1509274D01*
Y579726D01*
X1510798D01*
Y582774D01*
X1509274D01*
Y584298D01*
X1506226D01*
Y582774D01*
X1504702D01*
Y579726D01*
X1506226D01*
X1445460Y594460D02*
Y591920D01*
X1450540D01*
Y594460D01*
X1453080D01*
Y599540D01*
X1450540D01*
Y602080D01*
X1445460D01*
Y599540D01*
X1442920D01*
Y594460D01*
X1445460D01*
X1446476Y595476D02*
Y593952D01*
X1449524D01*
Y595476D01*
X1451048D01*
Y598524D01*
X1449524D01*
Y600048D01*
X1446476D01*
Y598524D01*
X1444952D01*
Y595476D01*
X1446476D01*
X1421710Y605710D02*
Y603170D01*
X1426790D01*
Y605710D01*
X1429330D01*
Y610790D01*
X1426790D01*
Y613330D01*
X1421710D01*
Y610790D01*
X1419170D01*
Y605710D01*
X1421710D01*
X1422726Y606726D02*
Y605202D01*
X1425774D01*
Y606726D01*
X1427298D01*
Y609774D01*
X1425774D01*
Y611298D01*
X1422726D01*
Y609774D01*
X1421202D01*
Y606726D01*
X1422726D01*
X1520460Y605710D02*
Y603170D01*
X1525540D01*
Y605710D01*
X1528080D01*
Y610790D01*
X1525540D01*
Y613330D01*
X1520460D01*
Y610790D01*
X1517920D01*
Y605710D01*
X1520460D01*
X1521476Y606726D02*
Y605202D01*
X1524524D01*
Y606726D01*
X1526048D01*
Y609774D01*
X1524524D01*
Y611298D01*
X1521476D01*
Y609774D01*
X1519952D01*
Y606726D01*
X1521476D01*
X1545477Y605963D02*
Y603423D01*
X1550557D01*
Y605963D01*
X1553097D01*
Y611043D01*
X1550557D01*
Y613583D01*
X1545477D01*
Y611043D01*
X1542937D01*
Y605963D01*
X1545477D01*
X1546493Y606979D02*
Y605455D01*
X1549541D01*
Y606979D01*
X1551065D01*
Y610027D01*
X1549541D01*
Y611551D01*
X1546493D01*
Y610027D01*
X1544969D01*
Y606979D01*
X1546493D01*
X1591250Y254420D02*
X1593790Y256960D01*
X1596330D01*
X1593790Y259500D01*
X1596330Y262040D01*
X1593790D01*
X1591250Y264580D01*
X1588710Y262040D01*
X1586170D01*
X1588710Y259500D01*
X1586170Y256960D01*
X1588710D01*
X1591250Y254420D01*
Y256452D02*
X1592774Y257976D01*
X1594298D01*
X1592774Y259500D01*
X1594298Y261024D01*
X1592774D01*
X1591250Y262548D01*
X1589726Y261024D01*
X1588202D01*
X1589726Y259500D01*
X1588202Y257976D01*
X1589726D01*
X1591250Y256452D01*
X1618710Y276460D02*
Y273920D01*
X1623790D01*
Y276460D01*
X1626330D01*
Y281540D01*
X1623790D01*
Y284080D01*
X1618710D01*
Y281540D01*
X1616170D01*
Y276460D01*
X1618710D01*
X1619726Y277476D02*
Y275952D01*
X1622774D01*
Y277476D01*
X1624298D01*
Y280524D01*
X1622774D01*
Y282048D01*
X1619726D01*
Y280524D01*
X1618202D01*
Y277476D01*
X1619726D01*
X1630460Y237210D02*
Y234670D01*
X1635540D01*
Y237210D01*
X1638080D01*
Y242290D01*
X1635540D01*
Y244830D01*
X1630460D01*
Y242290D01*
X1627920D01*
Y237210D01*
X1630460D01*
X1631476Y238226D02*
Y236702D01*
X1634524D01*
Y238226D01*
X1636048D01*
Y241274D01*
X1634524D01*
Y242798D01*
X1631476D01*
Y241274D01*
X1629952D01*
Y238226D01*
X1631476D01*
X1630460Y184710D02*
Y182170D01*
X1635540D01*
Y184710D01*
X1638080D01*
Y189790D01*
X1635540D01*
Y192330D01*
X1630460D01*
Y189790D01*
X1627920D01*
Y184710D01*
X1630460D01*
X1631476Y185726D02*
Y184202D01*
X1634524D01*
Y185726D01*
X1636048D01*
Y188774D01*
X1634524D01*
Y190298D01*
X1631476D01*
Y188774D01*
X1629952D01*
Y185726D01*
X1631476D01*
X1653210Y329460D02*
Y326920D01*
X1658290D01*
Y329460D01*
X1660830D01*
Y334540D01*
X1658290D01*
Y337080D01*
X1653210D01*
Y334540D01*
X1650670D01*
Y329460D01*
X1653210D01*
X1654226Y330476D02*
Y328952D01*
X1657274D01*
Y330476D01*
X1658798D01*
Y333524D01*
X1657274D01*
Y335048D01*
X1654226D01*
Y333524D01*
X1652702D01*
Y330476D01*
X1654226D01*
X1558710Y569210D02*
Y566670D01*
X1563790D01*
Y569210D01*
X1566330D01*
Y574290D01*
X1563790D01*
Y576830D01*
X1558710D01*
Y574290D01*
X1556170D01*
Y569210D01*
X1558710D01*
X1559726Y570226D02*
Y568702D01*
X1562774D01*
Y570226D01*
X1564298D01*
Y573274D01*
X1562774D01*
Y574798D01*
X1559726D01*
Y573274D01*
X1558202D01*
Y570226D01*
X1559726D01*
X1556710Y586210D02*
Y583670D01*
X1561790D01*
Y586210D01*
X1564330D01*
Y591290D01*
X1561790D01*
Y593830D01*
X1556710D01*
Y591290D01*
X1554170D01*
Y586210D01*
X1556710D01*
X1557726Y587226D02*
Y585702D01*
X1560774D01*
Y587226D01*
X1562298D01*
Y590274D01*
X1560774D01*
Y591798D01*
X1557726D01*
Y590274D01*
X1556202D01*
Y587226D01*
X1557726D01*
X1570460Y605960D02*
Y603420D01*
X1575540D01*
Y605960D01*
X1578080D01*
Y611040D01*
X1575540D01*
Y613580D01*
X1570460D01*
Y611040D01*
X1567920D01*
Y605960D01*
X1570460D01*
X1571476Y606976D02*
Y605452D01*
X1574524D01*
Y606976D01*
X1576048D01*
Y610024D01*
X1574524D01*
Y611548D01*
X1571476D01*
Y610024D01*
X1569952D01*
Y606976D01*
X1571476D01*
X1595460Y605960D02*
Y603420D01*
X1600540D01*
Y605960D01*
X1603080D01*
Y611040D01*
X1600540D01*
Y613580D01*
X1595460D01*
Y611040D01*
X1592920D01*
Y605960D01*
X1595460D01*
X1596476Y606976D02*
Y605452D01*
X1599524D01*
Y606976D01*
X1601048D01*
Y610024D01*
X1599524D01*
Y611548D01*
X1596476D01*
Y610024D01*
X1594952D01*
Y606976D01*
X1596476D01*
X1619960Y605960D02*
Y603420D01*
X1625040D01*
Y605960D01*
X1627580D01*
Y611040D01*
X1625040D01*
Y613580D01*
X1619960D01*
Y611040D01*
X1617420D01*
Y605960D01*
X1619960D01*
X1620976Y606976D02*
Y605452D01*
X1624024D01*
Y606976D01*
X1625548D01*
Y610024D01*
X1624024D01*
Y611548D01*
X1620976D01*
Y610024D01*
X1619452D01*
Y606976D01*
X1620976D01*
X1644710Y605960D02*
Y603420D01*
X1649790D01*
Y605960D01*
X1652330D01*
Y611040D01*
X1649790D01*
Y613580D01*
X1644710D01*
Y611040D01*
X1642170D01*
Y605960D01*
X1644710D01*
X1645726Y606976D02*
Y605452D01*
X1648774D01*
Y606976D01*
X1650298D01*
Y610024D01*
X1648774D01*
Y611548D01*
X1645726D01*
Y610024D01*
X1644202D01*
Y606976D01*
X1645726D01*
X184108Y87096D02*
Y84556D01*
X189188D01*
Y87096D01*
X191728D01*
Y92176D01*
X189188D01*
Y94716D01*
X184108D01*
Y92176D01*
X181568D01*
Y87096D01*
X184108D01*
X185124Y88112D02*
Y86588D01*
X188172D01*
Y88112D01*
X189696D01*
Y91160D01*
X188172D01*
Y92684D01*
X185124D01*
Y91160D01*
X183600D01*
Y88112D01*
X185124D01*
X249460Y131460D02*
Y128920D01*
X254540D01*
Y131460D01*
X257080D01*
Y136540D01*
X254540D01*
Y139080D01*
X249460D01*
Y136540D01*
X246920D01*
Y131460D01*
X249460D01*
X250476Y132476D02*
Y130952D01*
X253524D01*
Y132476D01*
X255048D01*
Y135524D01*
X253524D01*
Y137048D01*
X250476D01*
Y135524D01*
X248952D01*
Y132476D01*
X250476D01*
X188960Y180960D02*
Y178420D01*
X194040D01*
Y180960D01*
X196580D01*
Y186040D01*
X194040D01*
Y188580D01*
X188960D01*
Y186040D01*
X186420D01*
Y180960D01*
X188960D01*
X189976Y181976D02*
Y180452D01*
X193024D01*
Y181976D01*
X194548D01*
Y185024D01*
X193024D01*
Y186548D01*
X189976D01*
Y185024D01*
X188452D01*
Y181976D01*
X189976D01*
X644710Y122710D02*
Y120170D01*
X649790D01*
Y122710D01*
X652330D01*
Y127790D01*
X649790D01*
Y130330D01*
X644710D01*
Y127790D01*
X642170D01*
Y122710D01*
X644710D01*
X645726Y123726D02*
Y122202D01*
X648774D01*
Y123726D01*
X650298D01*
Y126774D01*
X648774D01*
Y128298D01*
X645726D01*
Y126774D01*
X644202D01*
Y123726D01*
X645726D01*
X623460Y47460D02*
Y44920D01*
X628540D01*
Y47460D01*
X631080D01*
Y52540D01*
X628540D01*
Y55080D01*
X623460D01*
Y52540D01*
X620920D01*
Y47460D01*
X623460D01*
X624476Y48476D02*
Y46952D01*
X627524D01*
Y48476D01*
X629048D01*
Y51524D01*
X627524D01*
Y53048D01*
X624476D01*
Y51524D01*
X622952D01*
Y48476D01*
X624476D01*
X674210Y49460D02*
Y46920D01*
X679290D01*
Y49460D01*
X681830D01*
Y54540D01*
X679290D01*
Y57080D01*
X674210D01*
Y54540D01*
X671670D01*
Y49460D01*
X674210D01*
X675226Y50476D02*
Y48952D01*
X678274D01*
Y50476D01*
X679798D01*
Y53524D01*
X678274D01*
Y55048D01*
X675226D01*
Y53524D01*
X673702D01*
Y50476D01*
X675226D01*
X700210Y54460D02*
Y51920D01*
X705290D01*
Y54460D01*
X707830D01*
Y59540D01*
X705290D01*
Y62080D01*
X700210D01*
Y59540D01*
X697670D01*
Y54460D01*
X700210D01*
X701226Y55476D02*
Y53952D01*
X704274D01*
Y55476D01*
X705798D01*
Y58524D01*
X704274D01*
Y60048D01*
X701226D01*
Y58524D01*
X699702D01*
Y55476D01*
X701226D01*
X781960Y97360D02*
Y94820D01*
X787040D01*
Y97360D01*
X789580D01*
Y102440D01*
X787040D01*
Y104980D01*
X781960D01*
Y102440D01*
X779420D01*
Y97360D01*
X781960D01*
X782976Y98376D02*
Y96852D01*
X786024D01*
Y98376D01*
X787548D01*
Y101424D01*
X786024D01*
Y102948D01*
X782976D01*
Y101424D01*
X781452D01*
Y98376D01*
X782976D01*
X733960Y55960D02*
Y53420D01*
X739040D01*
Y55960D01*
X741580D01*
Y61040D01*
X739040D01*
Y63580D01*
X733960D01*
Y61040D01*
X731420D01*
Y55960D01*
X733960D01*
X734976Y56976D02*
Y55452D01*
X738024D01*
Y56976D01*
X739548D01*
Y60024D01*
X738024D01*
Y61548D01*
X734976D01*
Y60024D01*
X733452D01*
Y56976D01*
X734976D01*
X797960Y11710D02*
Y9170D01*
X803040D01*
Y11710D01*
X805580D01*
Y16790D01*
X803040D01*
Y19330D01*
X797960D01*
Y16790D01*
X795420D01*
Y11710D01*
X797960D01*
X798976Y12726D02*
Y11202D01*
X802024D01*
Y12726D01*
X803548D01*
Y15774D01*
X802024D01*
Y17298D01*
X798976D01*
Y15774D01*
X797452D01*
Y12726D01*
X798976D01*
X796960Y73210D02*
Y70670D01*
X802040D01*
Y73210D01*
X804580D01*
Y78290D01*
X802040D01*
Y80830D01*
X796960D01*
Y78290D01*
X794420D01*
Y73210D01*
X796960D01*
X797976Y74226D02*
Y72702D01*
X801024D01*
Y74226D01*
X802548D01*
Y77274D01*
X801024D01*
Y78798D01*
X797976D01*
Y77274D01*
X796452D01*
Y74226D01*
X797976D01*
X960710Y38460D02*
Y35920D01*
X965790D01*
Y38460D01*
X968330D01*
Y43540D01*
X965790D01*
Y46080D01*
X960710D01*
Y43540D01*
X958170D01*
Y38460D01*
X960710D01*
X961726Y39476D02*
Y37952D01*
X964774D01*
Y39476D01*
X966298D01*
Y42524D01*
X964774D01*
Y44048D01*
X961726D01*
Y42524D01*
X960202D01*
Y39476D01*
X961726D01*
X862210Y151960D02*
Y149420D01*
X867290D01*
Y151960D01*
X869830D01*
Y157040D01*
X867290D01*
Y159580D01*
X862210D01*
Y157040D01*
X859670D01*
Y151960D01*
X862210D01*
X863226Y152976D02*
Y151452D01*
X866274D01*
Y152976D01*
X867798D01*
Y156024D01*
X866274D01*
Y157548D01*
X863226D01*
Y156024D01*
X861702D01*
Y152976D01*
X863226D01*
X649000Y306170D02*
X651540Y308710D01*
X654080D01*
X651540Y311250D01*
X654080Y313790D01*
X651540D01*
X649000Y316330D01*
X646460Y313790D01*
X643920D01*
X646460Y311250D01*
X643920Y308710D01*
X646460D01*
X649000Y306170D01*
Y308202D02*
X650524Y309726D01*
X652048D01*
X650524Y311250D01*
X652048Y312774D01*
X650524D01*
X649000Y314298D01*
X647476Y312774D01*
X645952D01*
X647476Y311250D01*
X645952Y309726D01*
X647476D01*
X649000Y308202D01*
X731000Y387920D02*
X733540Y390460D01*
X736080D01*
X733540Y393000D01*
X736080Y395540D01*
X733540D01*
X731000Y398080D01*
X728460Y395540D01*
X725920D01*
X728460Y393000D01*
X725920Y390460D01*
X728460D01*
X731000Y387920D01*
Y389952D02*
X732524Y391476D01*
X734048D01*
X732524Y393000D01*
X734048Y394524D01*
X732524D01*
X731000Y396048D01*
X729476Y394524D01*
X727952D01*
X729476Y393000D01*
X727952Y391476D01*
X729476D01*
X731000Y389952D01*
X1700460Y291210D02*
Y288670D01*
X1705540D01*
Y291210D01*
X1708080D01*
Y296290D01*
X1705540D01*
Y298830D01*
X1700460D01*
Y296290D01*
X1697920D01*
Y291210D01*
X1700460D01*
X1701476Y292226D02*
Y290702D01*
X1704524D01*
Y292226D01*
X1706048D01*
Y295274D01*
X1704524D01*
Y296798D01*
X1701476D01*
Y295274D01*
X1699952D01*
Y292226D01*
X1701476D01*
X1702460Y220460D02*
Y217920D01*
X1707540D01*
Y220460D01*
X1710080D01*
Y225540D01*
X1707540D01*
Y228080D01*
X1702460D01*
Y225540D01*
X1699920D01*
Y220460D01*
X1702460D01*
X1703476Y221476D02*
Y219952D01*
X1706524D01*
Y221476D01*
X1708048D01*
Y224524D01*
X1706524D01*
Y226048D01*
X1703476D01*
Y224524D01*
X1701952D01*
Y221476D01*
X1703476D01*
X1700960Y187210D02*
Y184670D01*
X1706040D01*
Y187210D01*
X1708580D01*
Y192290D01*
X1706040D01*
Y194830D01*
X1700960D01*
Y192290D01*
X1698420D01*
Y187210D01*
X1700960D01*
X1701976Y188226D02*
Y186702D01*
X1705024D01*
Y188226D01*
X1706548D01*
Y191274D01*
X1705024D01*
Y192798D01*
X1701976D01*
Y191274D01*
X1700452D01*
Y188226D01*
X1701976D01*
X66327Y206814D02*
Y204274D01*
X71407D01*
Y206814D01*
X73947D01*
Y211894D01*
X71407D01*
Y214434D01*
X66327D01*
Y211894D01*
X63787D01*
Y206814D01*
X66327D01*
X67343Y207830D02*
Y206306D01*
X70391D01*
Y207830D01*
X71915D01*
Y210878D01*
X70391D01*
Y212402D01*
X67343D01*
Y210878D01*
X65819D01*
Y207830D01*
X67343D01*
X291710Y152960D02*
Y150420D01*
X296790D01*
Y152960D01*
X299330D01*
Y158040D01*
X296790D01*
Y160580D01*
X291710D01*
Y158040D01*
X289170D01*
Y152960D01*
X291710D01*
X292726Y153976D02*
Y152452D01*
X295774D01*
Y153976D01*
X297298D01*
Y157024D01*
X295774D01*
Y158548D01*
X292726D01*
Y157024D01*
X291202D01*
Y153976D01*
X292726D01*
X299960Y64210D02*
Y61670D01*
X305040D01*
Y64210D01*
X307580D01*
Y69290D01*
X305040D01*
Y71830D01*
X299960D01*
Y69290D01*
X297420D01*
Y64210D01*
X299960D01*
X300976Y65226D02*
Y63702D01*
X304024D01*
Y65226D01*
X305548D01*
Y68274D01*
X304024D01*
Y69798D01*
X300976D01*
Y68274D01*
X299452D01*
Y65226D01*
X300976D01*
X390811Y630145D02*
Y627605D01*
X395891D01*
Y630145D01*
X398431D01*
Y635225D01*
X395891D01*
Y637765D01*
X390811D01*
Y635225D01*
X388271D01*
Y630145D01*
X390811D01*
X391827Y631161D02*
Y629637D01*
X394875D01*
Y631161D01*
X396399D01*
Y634209D01*
X394875D01*
Y635733D01*
X391827D01*
Y634209D01*
X390303D01*
Y631161D01*
X391827D01*
X431000Y558170D02*
X433540Y560710D01*
X436080D01*
X433540Y563250D01*
X436080Y565790D01*
X433540D01*
X431000Y568330D01*
X428460Y565790D01*
X425920D01*
X428460Y563250D01*
X425920Y560710D01*
X428460D01*
X431000Y558170D01*
Y560202D02*
X432524Y561726D01*
X434048D01*
X432524Y563250D01*
X434048Y564774D01*
X432524D01*
X431000Y566298D01*
X429476Y564774D01*
X427952D01*
X429476Y563250D01*
X427952Y561726D01*
X429476D01*
X431000Y560202D01*
X364250Y576920D02*
X366790Y579460D01*
X369330D01*
X366790Y582000D01*
X369330Y584540D01*
X366790D01*
X364250Y587080D01*
X361710Y584540D01*
X359170D01*
X361710Y582000D01*
X359170Y579460D01*
X361710D01*
X364250Y576920D01*
Y578952D02*
X365774Y580476D01*
X367298D01*
X365774Y582000D01*
X367298Y583524D01*
X365774D01*
X364250Y585048D01*
X362726Y583524D01*
X361202D01*
X362726Y582000D01*
X361202Y580476D01*
X362726D01*
X364250Y578952D01*
X287500Y569670D02*
X290040Y572210D01*
X292580D01*
X290040Y574750D01*
X292580Y577290D01*
X290040D01*
X287500Y579830D01*
X284960Y577290D01*
X282420D01*
X284960Y574750D01*
X282420Y572210D01*
X284960D01*
X287500Y569670D01*
Y571702D02*
X289024Y573226D01*
X290548D01*
X289024Y574750D01*
X290548Y576274D01*
X289024D01*
X287500Y577798D01*
X285976Y576274D01*
X284452D01*
X285976Y574750D01*
X284452Y573226D01*
X285976D01*
X287500Y571702D01*
M02*
