G04*
G04 #@! TF.GenerationSoftware,Altium Limited,Altium Designer,22.11.1 (43)*
G04*
G04 Layer_Color=2752767*
%FSLAX44Y44*%
%MOMM*%
G71*
G04*
G04 #@! TF.SameCoordinates,703FB55D-1442-4A2A-B505-2E36BED11F84*
G04*
G04*
G04 #@! TF.FilePolarity,Positive*
G04*
G01*
G75*
%ADD138C,0.1270*%
%ADD139C,0.1693*%
%ADD140C,0.1016*%
D138*
X1749920Y335000D02*
X1755000Y340080D01*
X1760080Y335000D01*
X1755000Y329920D01*
X1749920Y335000D01*
X1724920Y310000D02*
X1730000Y315080D01*
X1735080Y310000D01*
X1730000Y304920D01*
X1724920Y310000D01*
X1749920D02*
X1755000Y315080D01*
X1760080Y310000D01*
X1755000Y304920D01*
X1749920Y310000D01*
X1724920Y285000D02*
X1730000Y290080D01*
X1735080Y285000D01*
X1730000Y279920D01*
X1724920Y285000D01*
X1749920D02*
X1755000Y290080D01*
X1760080Y285000D01*
X1755000Y279920D01*
X1749920Y285000D01*
X1724920Y260000D02*
X1730000Y265080D01*
X1735080Y260000D01*
X1730000Y254920D01*
X1724920Y260000D01*
X1749920D02*
X1755000Y265080D01*
X1760080Y260000D01*
X1755000Y254920D01*
X1749920Y260000D01*
X1724920Y235000D02*
X1730000Y240080D01*
X1735080Y235000D01*
X1730000Y229920D01*
X1724920Y235000D01*
X1749920Y160000D02*
X1755000Y165080D01*
X1760080Y160000D01*
X1755000Y154920D01*
X1749920Y160000D01*
Y185000D02*
X1755000Y190080D01*
X1760080Y185000D01*
X1755000Y179920D01*
X1749920Y185000D01*
X1724920D02*
X1730000Y190080D01*
X1735080Y185000D01*
X1730000Y179920D01*
X1724920Y185000D01*
Y210000D02*
X1730000Y215080D01*
X1735080Y210000D01*
X1730000Y204920D01*
X1724920Y210000D01*
Y335000D02*
X1730000Y340080D01*
X1735080Y335000D01*
X1730000Y329920D01*
X1724920Y335000D01*
Y160000D02*
X1730000Y165080D01*
X1735080Y160000D01*
X1730000Y154920D01*
X1724920Y160000D01*
X1749920Y235000D02*
X1755000Y240080D01*
X1760080Y235000D01*
X1755000Y229920D01*
X1749920Y235000D01*
Y210000D02*
X1755000Y215080D01*
X1760080Y210000D01*
X1755000Y204920D01*
X1749920Y210000D01*
X1711115Y242420D02*
X1713655D01*
X1716195Y244960D01*
X1718735Y242420D01*
X1721275D01*
Y244960D01*
X1718735Y247500D01*
X1721275Y250040D01*
Y252580D01*
X1718735D01*
X1716195Y250040D01*
X1713655Y252580D01*
X1711115D01*
Y250040D01*
X1713655Y247500D01*
X1711115Y244960D01*
Y242420D01*
X1562620Y69970D02*
X1567700Y75050D01*
X1572780Y69970D01*
X1567700Y64890D01*
X1562620Y69970D01*
Y94970D02*
X1567700Y100050D01*
X1572780Y94970D01*
X1567700Y89890D01*
X1562620Y94970D01*
X1537620D02*
X1542700Y100050D01*
X1547780Y94970D01*
X1542700Y89890D01*
X1537620Y94970D01*
X1537220Y69970D02*
X1542300Y75050D01*
X1547380Y69970D01*
X1542300Y64890D01*
X1537220Y69970D01*
X1549920Y56000D02*
X1555000Y61080D01*
X1560080Y56000D01*
X1555000Y50920D01*
X1549920Y56000D01*
X40936Y265920D02*
X43476D01*
X46016Y268460D01*
X48556Y265920D01*
X51096D01*
Y268460D01*
X48556Y271000D01*
X51096Y273540D01*
Y276080D01*
X48556D01*
X46016Y273540D01*
X43476Y276080D01*
X40936D01*
Y273540D01*
X43476Y271000D01*
X40936Y268460D01*
Y265920D01*
X42968Y267952D02*
X44492D01*
X46016Y269476D01*
X47540Y267952D01*
X49064D01*
Y269476D01*
X47540Y271000D01*
X49064Y272524D01*
Y274048D01*
X47540D01*
X46016Y272524D01*
X44492Y274048D01*
X42968D01*
Y272524D01*
X44492Y271000D01*
X42968Y269476D01*
Y267952D01*
X40936Y219820D02*
X43476D01*
X46016Y222360D01*
X48556Y219820D01*
X51096D01*
Y222360D01*
X48556Y224900D01*
X51096Y227440D01*
Y229980D01*
X48556D01*
X46016Y227440D01*
X43476Y229980D01*
X40936D01*
Y227440D01*
X43476Y224900D01*
X40936Y222360D01*
Y219820D01*
X42968Y221852D02*
X44492D01*
X46016Y223376D01*
X47540Y221852D01*
X49064D01*
Y223376D01*
X47540Y224900D01*
X49064Y226424D01*
Y227948D01*
X47540D01*
X46016Y226424D01*
X44492Y227948D01*
X42968D01*
Y226424D01*
X44492Y224900D01*
X42968Y223376D01*
Y221852D01*
X85936Y232500D02*
X91016Y237580D01*
X96096Y232500D01*
X91016Y227420D01*
X85936Y232500D01*
Y202500D02*
X91016Y207580D01*
X96096Y202500D01*
X91016Y197420D01*
X85936Y202500D01*
Y262500D02*
X91016Y267580D01*
X96096Y262500D01*
X91016Y257420D01*
X85936Y262500D01*
Y292500D02*
X91016Y297580D01*
X96096Y292500D01*
X91016Y287420D01*
X85936Y292500D01*
X1767250Y429670D02*
X1769790Y432210D01*
X1772330D01*
X1769790Y434750D01*
X1772330Y437290D01*
X1769790D01*
X1767250Y439830D01*
X1764710Y437290D01*
X1762170D01*
X1764710Y434750D01*
X1762170Y432210D01*
X1764710D01*
X1767250Y429670D01*
Y399670D02*
X1769790Y402210D01*
X1772330D01*
X1769790Y404750D01*
X1772330Y407290D01*
X1769790D01*
X1767250Y409830D01*
X1764710Y407290D01*
X1762170D01*
X1764710Y404750D01*
X1762170Y402210D01*
X1764710D01*
X1767250Y399670D01*
Y459670D02*
X1769790Y462210D01*
X1772330D01*
X1769790Y464750D01*
X1772330Y467290D01*
X1769790D01*
X1767250Y469830D01*
X1764710Y467290D01*
X1762170D01*
X1764710Y464750D01*
X1762170Y462210D01*
X1764710D01*
X1767250Y459670D01*
Y489670D02*
X1769790Y492210D01*
X1772330D01*
X1769790Y494750D01*
X1772330Y497290D01*
X1769790D01*
X1767250Y499830D01*
X1764710Y497290D01*
X1762170D01*
X1764710Y494750D01*
X1762170Y492210D01*
X1764710D01*
X1767250Y489670D01*
Y519670D02*
X1769790Y522210D01*
X1772330D01*
X1769790Y524750D01*
X1772330Y527290D01*
X1769790D01*
X1767250Y529830D01*
X1764710Y527290D01*
X1762170D01*
X1764710Y524750D01*
X1762170Y522210D01*
X1764710D01*
X1767250Y519670D01*
Y549670D02*
X1769790Y552210D01*
X1772330D01*
X1769790Y554750D01*
X1772330Y557290D01*
X1769790D01*
X1767250Y559830D01*
X1764710Y557290D01*
X1762170D01*
X1764710Y554750D01*
X1762170Y552210D01*
X1764710D01*
X1767250Y549670D01*
Y579670D02*
X1769790Y582210D01*
X1772330D01*
X1769790Y584750D01*
X1772330Y587290D01*
X1769790D01*
X1767250Y589830D01*
X1764710Y587290D01*
X1762170D01*
X1764710Y584750D01*
X1762170Y582210D01*
X1764710D01*
X1767250Y579670D01*
Y609670D02*
X1769790Y612210D01*
X1772330D01*
X1769790Y614750D01*
X1772330Y617290D01*
X1769790D01*
X1767250Y619830D01*
X1764710Y617290D01*
X1762170D01*
X1764710Y614750D01*
X1762170Y612210D01*
X1764710D01*
X1767250Y609670D01*
X923920Y372220D02*
Y382380D01*
X934080D01*
Y372220D01*
X923920D01*
Y397620D02*
Y407780D01*
X934080D01*
Y397620D01*
X923920D01*
X987420Y334720D02*
Y344880D01*
X997580D01*
Y334720D01*
X987420D01*
Y360120D02*
Y370280D01*
X997580D01*
Y360120D01*
X987420D01*
X1014920Y360120D02*
Y370280D01*
X1025080D01*
Y360120D01*
X1014920D01*
Y334720D02*
Y344880D01*
X1025080D01*
Y334720D01*
X1014920D01*
X952420Y397820D02*
Y407980D01*
X962580D01*
Y397820D01*
X952420D01*
Y372420D02*
Y382580D01*
X962580D01*
Y372420D01*
X952420D01*
X35000Y522420D02*
X37540Y524960D01*
X40080D01*
X37540Y527500D01*
X40080Y530040D01*
X37540D01*
X35000Y532580D01*
X32460Y530040D01*
X29920D01*
X32460Y527500D01*
X29920Y524960D01*
X32460D01*
X35000Y522420D01*
Y492420D02*
X37540Y494960D01*
X40080D01*
X37540Y497500D01*
X40080Y500040D01*
X37540D01*
X35000Y502580D01*
X32460Y500040D01*
X29920D01*
X32460Y497500D01*
X29920Y494960D01*
X32460D01*
X35000Y492420D01*
X1009920Y62220D02*
Y72380D01*
X1020080D01*
Y62220D01*
X1009920D01*
Y87620D02*
Y97780D01*
X1020080D01*
Y87620D01*
X1009920D01*
X1039920Y152620D02*
Y162780D01*
X1050080D01*
Y152620D01*
X1039920D01*
Y127220D02*
Y137380D01*
X1050080D01*
Y127220D01*
X1039920D01*
X1009920D02*
Y137380D01*
X1020080D01*
Y127220D01*
X1009920D01*
Y152620D02*
Y162780D01*
X1020080D01*
Y152620D01*
X1009920D01*
X1039920Y87620D02*
Y97780D01*
X1050080D01*
Y87620D01*
X1039920D01*
Y62220D02*
Y72380D01*
X1050080D01*
Y62220D01*
X1039920D01*
X829920Y414520D02*
Y424680D01*
X840080D01*
Y414520D01*
X829920D01*
Y439920D02*
Y450080D01*
X840080D01*
Y439920D01*
X829920D01*
X799920Y267220D02*
Y277380D01*
X810080D01*
Y267220D01*
X799920D01*
Y292620D02*
Y302780D01*
X810080D01*
Y292620D01*
X799920D01*
X859920Y439920D02*
Y450080D01*
X870080D01*
Y439920D01*
X859920D01*
Y414520D02*
Y424680D01*
X870080D01*
Y414520D01*
X859920D01*
X829920Y292620D02*
Y302780D01*
X840080D01*
Y292620D01*
X829920D01*
Y267220D02*
Y277380D01*
X840080D01*
Y267220D01*
X829920D01*
X573620Y171170D02*
X576160Y176250D01*
X573620Y181330D01*
X578700Y178790D01*
X583780Y181330D01*
X581240Y176250D01*
X583780Y171170D01*
X578700Y173710D01*
X573620Y171170D01*
Y120370D02*
X576160Y125450D01*
X573620Y130530D01*
X578700Y127990D01*
X583780Y130530D01*
X581240Y125450D01*
X583780Y120370D01*
X578700Y122910D01*
X573620Y120370D01*
X522820Y171170D02*
X525360Y176250D01*
X522820Y181330D01*
X527900Y178790D01*
X532980Y181330D01*
X530440Y176250D01*
X532980Y171170D01*
X527900Y173710D01*
X522820Y171170D01*
Y120370D02*
X525360Y125450D01*
X522820Y130530D01*
X527900Y127990D01*
X532980Y130530D01*
X530440Y125450D01*
X532980Y120370D01*
X527900Y122910D01*
X522820Y120370D01*
X446620Y171170D02*
X449160Y176250D01*
X446620Y181330D01*
X451700Y178790D01*
X456780Y181330D01*
X454240Y176250D01*
X456780Y171170D01*
X451700Y173710D01*
X446620Y171170D01*
X497420D02*
X499960Y176250D01*
X497420Y181330D01*
X502500Y178790D01*
X507580Y181330D01*
X505040Y176250D01*
X507580Y171170D01*
X502500Y173710D01*
X497420Y171170D01*
X548220D02*
X550760Y176250D01*
X548220Y181330D01*
X553300Y178790D01*
X558380Y181330D01*
X555840Y176250D01*
X558380Y171170D01*
X553300Y173710D01*
X548220Y171170D01*
X446620Y120370D02*
X449160Y125450D01*
X446620Y130530D01*
X451700Y127990D01*
X456780Y130530D01*
X454240Y125450D01*
X456780Y120370D01*
X451700Y122910D01*
X446620Y120370D01*
X497420D02*
X499960Y125450D01*
X497420Y130530D01*
X502500Y127990D01*
X507580Y130530D01*
X505040Y125450D01*
X507580Y120370D01*
X502500Y122910D01*
X497420Y120370D01*
X548220D02*
X550760Y125450D01*
X548220Y130530D01*
X553300Y127990D01*
X558380Y130530D01*
X555840Y125450D01*
X558380Y120370D01*
X553300Y122910D01*
X548220Y120370D01*
X535650Y652820D02*
X530570Y662980D01*
X540730D01*
X535650Y652820D01*
X434050Y500420D02*
X428970Y510580D01*
X439130D01*
X434050Y500420D01*
X637250D02*
X632170Y510580D01*
X642330D01*
X637250Y500420D01*
X1018250Y538520D02*
X1013170Y548680D01*
X1023330D01*
X1018250Y538520D01*
Y614720D02*
X1013170Y624880D01*
X1023330D01*
X1018250Y614720D01*
X58000Y100920D02*
X52920Y111080D01*
X63080D01*
X58000Y100920D01*
Y102952D02*
X54952Y109048D01*
X61048D01*
X58000Y102952D01*
Y53920D02*
X52920Y64080D01*
X63080D01*
X58000Y53920D01*
Y55952D02*
X54952Y62048D01*
X61048D01*
X58000Y55952D01*
X96120Y127500D02*
X101200Y132580D01*
X106280Y127500D01*
X101200Y122420D01*
X96120Y127500D01*
Y67500D02*
X101200Y72580D01*
X106280Y67500D01*
X101200Y62420D01*
X96120Y67500D01*
Y37500D02*
X101200Y42580D01*
X106280Y37500D01*
X101200Y32420D01*
X96120Y37500D01*
X126120Y127500D02*
X131200Y132580D01*
X136280Y127500D01*
X131200Y122420D01*
X126120Y127500D01*
Y67500D02*
X131200Y72580D01*
X136280Y67500D01*
X131200Y62420D01*
X126120Y67500D01*
Y37500D02*
X131200Y42580D01*
X136280Y37500D01*
X131200Y32420D01*
X126120Y37500D01*
Y97500D02*
X131200Y102580D01*
X136280Y97500D01*
X131200Y92420D01*
X126120Y97500D01*
X96120D02*
X101200Y102580D01*
X106280Y97500D01*
X101200Y92420D01*
X96120Y97500D01*
X1230170Y659570D02*
Y669730D01*
X1240330D01*
Y659570D01*
X1230170D01*
X1232202Y661602D02*
Y667698D01*
X1238298D01*
Y661602D01*
X1232202D01*
X1192670Y651250D02*
X1197750Y656330D01*
X1202830Y651250D01*
X1197750Y646170D01*
X1192670Y651250D01*
X1267670D02*
X1272750Y656330D01*
X1277830Y651250D01*
X1272750Y646170D01*
X1267670Y651250D01*
X1242670D02*
X1247750Y656330D01*
X1252830Y651250D01*
X1247750Y646170D01*
X1242670Y651250D01*
X1217670D02*
X1222750Y656330D01*
X1227830Y651250D01*
X1222750Y646170D01*
X1217670Y651250D01*
X1658920Y485920D02*
X1661460Y491000D01*
X1658920Y496080D01*
X1664000Y493540D01*
X1669080Y496080D01*
X1666540Y491000D01*
X1669080Y485920D01*
X1664000Y488460D01*
X1658920Y485920D01*
Y460520D02*
X1661460Y465600D01*
X1658920Y470680D01*
X1664000Y468140D01*
X1669080Y470680D01*
X1666540Y465600D01*
X1669080Y460520D01*
X1664000Y463060D01*
X1658920Y460520D01*
Y511320D02*
X1661460Y516400D01*
X1658920Y521480D01*
X1664000Y518940D01*
X1669080Y521480D01*
X1666540Y516400D01*
X1669080Y511320D01*
X1664000Y513860D01*
X1658920Y511320D01*
X573620Y90070D02*
X576160Y95150D01*
X573620Y100230D01*
X578700Y97690D01*
X583780Y100230D01*
X581240Y95150D01*
X583780Y90070D01*
X578700Y92610D01*
X573620Y90070D01*
Y39270D02*
X576160Y44350D01*
X573620Y49430D01*
X578700Y46890D01*
X583780Y49430D01*
X581240Y44350D01*
X583780Y39270D01*
X578700Y41810D01*
X573620Y39270D01*
X522820Y90070D02*
X525360Y95150D01*
X522820Y100230D01*
X527900Y97690D01*
X532980Y100230D01*
X530440Y95150D01*
X532980Y90070D01*
X527900Y92610D01*
X522820Y90070D01*
Y39270D02*
X525360Y44350D01*
X522820Y49430D01*
X527900Y46890D01*
X532980Y49430D01*
X530440Y44350D01*
X532980Y39270D01*
X527900Y41810D01*
X522820Y39270D01*
X446620Y90070D02*
X449160Y95150D01*
X446620Y100230D01*
X451700Y97690D01*
X456780Y100230D01*
X454240Y95150D01*
X456780Y90070D01*
X451700Y92610D01*
X446620Y90070D01*
X497420D02*
X499960Y95150D01*
X497420Y100230D01*
X502500Y97690D01*
X507580Y100230D01*
X505040Y95150D01*
X507580Y90070D01*
X502500Y92610D01*
X497420Y90070D01*
X548220D02*
X550760Y95150D01*
X548220Y100230D01*
X553300Y97690D01*
X558380Y100230D01*
X555840Y95150D01*
X558380Y90070D01*
X553300Y92610D01*
X548220Y90070D01*
X446620Y39270D02*
X449160Y44350D01*
X446620Y49430D01*
X451700Y46890D01*
X456780Y49430D01*
X454240Y44350D01*
X456780Y39270D01*
X451700Y41810D01*
X446620Y39270D01*
X497420D02*
X499960Y44350D01*
X497420Y49430D01*
X502500Y46890D01*
X507580Y49430D01*
X505040Y44350D01*
X507580Y39270D01*
X502500Y41810D01*
X497420Y39270D01*
X548220D02*
X550760Y44350D01*
X548220Y49430D01*
X553300Y46890D01*
X558380Y49430D01*
X555840Y44350D01*
X558380Y39270D01*
X553300Y41810D01*
X548220Y39270D01*
X1574670Y478420D02*
X1577210Y483500D01*
X1574670Y488580D01*
X1579750Y486040D01*
X1584830Y488580D01*
X1582290Y483500D01*
X1584830Y478420D01*
X1579750Y480960D01*
X1574670Y478420D01*
X1600070D02*
X1602610Y483500D01*
X1600070Y488580D01*
X1605150Y486040D01*
X1610230Y488580D01*
X1607690Y483500D01*
X1610230Y478420D01*
X1605150Y480960D01*
X1600070Y478420D01*
X1549270D02*
X1551810Y483500D01*
X1549270Y488580D01*
X1554350Y486040D01*
X1559430Y488580D01*
X1556890Y483500D01*
X1559430Y478420D01*
X1554350Y480960D01*
X1549270Y478420D01*
X1086470Y192670D02*
Y202830D01*
X1096630D01*
Y192670D01*
X1086470D01*
X1111870D02*
Y202830D01*
X1122030D01*
Y192670D01*
X1111870D01*
X397460Y97460D02*
Y94920D01*
X402540D01*
Y97460D01*
X405080D01*
Y102540D01*
X402540D01*
Y105080D01*
X397460D01*
Y102540D01*
X394920D01*
Y97460D01*
X397460D01*
X1129960Y597460D02*
Y594920D01*
X1135040D01*
Y597460D01*
X1137580D01*
Y602540D01*
X1135040D01*
Y605080D01*
X1129960D01*
Y602540D01*
X1127420D01*
Y597460D01*
X1129960D01*
X315100Y369270D02*
X310020Y379430D01*
X320180D01*
X315100Y369270D01*
X365900D02*
X360820Y379430D01*
X370980D01*
X365900Y369270D01*
X340500Y420070D02*
X335420Y430230D01*
X345580D01*
X340500Y420070D01*
X365900D02*
X360820Y430230D01*
X370980D01*
X365900Y420070D01*
X172500Y229920D02*
X175040Y232460D01*
X177580D01*
X175040Y235000D01*
X177580Y237540D01*
X175040D01*
X172500Y240080D01*
X169960Y237540D01*
X167420D01*
X169960Y235000D01*
X167420Y232460D01*
X169960D01*
X172500Y229920D01*
Y231952D02*
X174024Y233476D01*
X175548D01*
X174024Y235000D01*
X175548Y236524D01*
X174024D01*
X172500Y238048D01*
X170976Y236524D01*
X169452D01*
X170976Y235000D01*
X169452Y233476D01*
X170976D01*
X172500Y231952D01*
X197500Y229920D02*
X200040Y232460D01*
X202580D01*
X200040Y235000D01*
X202580Y237540D01*
X200040D01*
X197500Y240080D01*
X194960Y237540D01*
X192420D01*
X194960Y235000D01*
X192420Y232460D01*
X194960D01*
X197500Y229920D01*
Y231952D02*
X199024Y233476D01*
X200548D01*
X199024Y235000D01*
X200548Y236524D01*
X199024D01*
X197500Y238048D01*
X195976Y236524D01*
X194452D01*
X195976Y235000D01*
X194452Y233476D01*
X195976D01*
X197500Y231952D01*
X1718920Y399920D02*
Y410080D01*
X1729080D01*
Y399920D01*
X1718920D01*
Y374520D02*
Y384680D01*
X1729080D01*
Y374520D01*
X1718920D01*
X1611120Y429170D02*
Y439330D01*
X1621280D01*
Y429170D01*
X1611120D01*
X1585720D02*
Y439330D01*
X1595880D01*
Y429170D01*
X1585720D01*
X35000Y602420D02*
X37540Y604960D01*
X40080D01*
X37540Y607500D01*
X40080Y610040D01*
X37540D01*
X35000Y612580D01*
X32460Y610040D01*
X29920D01*
X32460Y607500D01*
X29920Y604960D01*
X32460D01*
X35000Y602420D01*
Y632420D02*
X37540Y634960D01*
X40080D01*
X37540Y637500D01*
X40080Y640040D01*
X37540D01*
X35000Y642580D01*
X32460Y640040D01*
X29920D01*
X32460Y637500D01*
X29920Y634960D01*
X32460D01*
X35000Y632420D01*
X853220Y43920D02*
Y54080D01*
X863380D01*
Y43920D01*
X853220D01*
X878620D02*
Y54080D01*
X888780D01*
Y43920D01*
X878620D01*
X1366420Y631850D02*
X1371500Y636930D01*
X1376580Y631850D01*
X1371500Y626770D01*
X1366420Y631850D01*
X1396420Y661850D02*
X1401500Y666930D01*
X1406580Y661850D01*
X1401500Y656770D01*
X1396420Y661850D01*
X1592570Y282420D02*
Y292580D01*
X1602730D01*
Y282420D01*
X1592570D01*
X1567170D02*
Y292580D01*
X1577330D01*
Y282420D01*
X1567170D01*
X1509170Y397120D02*
Y407280D01*
X1519330D01*
Y397120D01*
X1509170D01*
Y371720D02*
Y381880D01*
X1519330D01*
Y371720D01*
X1509170D01*
X218750Y661170D02*
X221290Y663710D01*
X223830D01*
X221290Y666250D01*
X223830Y668790D01*
X221290D01*
X218750Y671330D01*
X216210Y668790D01*
X213670D01*
X216210Y666250D01*
X213670Y663710D01*
X216210D01*
X218750Y661170D01*
X248750D02*
X251290Y663710D01*
X253830D01*
X251290Y666250D01*
X253830Y668790D01*
X251290D01*
X248750Y671330D01*
X246210Y668790D01*
X243670D01*
X246210Y666250D01*
X243670Y663710D01*
X246210D01*
X248750Y661170D01*
X100250D02*
X102790Y663710D01*
X105330D01*
X102790Y666250D01*
X105330Y668790D01*
X102790D01*
X100250Y671330D01*
X97710Y668790D01*
X95170D01*
X97710Y666250D01*
X95170Y663710D01*
X97710D01*
X100250Y661170D01*
X130250D02*
X132790Y663710D01*
X135330D01*
X132790Y666250D01*
X135330Y668790D01*
X132790D01*
X130250Y671330D01*
X127710Y668790D01*
X125170D01*
X127710Y666250D01*
X125170Y663710D01*
X127710D01*
X130250Y661170D01*
X1336420Y671250D02*
X1341500Y676330D01*
X1346580Y671250D01*
X1341500Y666170D01*
X1336420Y671250D01*
X1426420D02*
X1431500Y676330D01*
X1436580Y671250D01*
X1431500Y666170D01*
X1426420Y671250D01*
X1366420Y661850D02*
X1371500Y666930D01*
X1376580Y661850D01*
X1371500Y656770D01*
X1366420Y661850D01*
X1396420Y631850D02*
X1401500Y636930D01*
X1406580Y631850D01*
X1401500Y626770D01*
X1396420Y631850D01*
X1593420Y642420D02*
Y652580D01*
X1603580D01*
Y642420D01*
X1593420D01*
X1618820D02*
Y652580D01*
X1628980D01*
Y642420D01*
X1618820D01*
X1568020D02*
Y652580D01*
X1578180D01*
Y642420D01*
X1568020D01*
X1542620D02*
Y652580D01*
X1552780D01*
Y642420D01*
X1542620D01*
X1592020Y672420D02*
Y682580D01*
X1602180D01*
Y672420D01*
X1592020D01*
X1642820D02*
Y682580D01*
X1652980D01*
Y672420D01*
X1642820D01*
X1617420D02*
Y682580D01*
X1627580D01*
Y672420D01*
X1617420D01*
X1566620D02*
Y682580D01*
X1576780D01*
Y672420D01*
X1566620D01*
X1541220D02*
Y682580D01*
X1551380D01*
Y672420D01*
X1541220D01*
X1697460Y597460D02*
Y594920D01*
X1702540D01*
Y597460D01*
X1705080D01*
Y602540D01*
X1702540D01*
Y605080D01*
X1697460D01*
Y602540D01*
X1694920D01*
Y597460D01*
X1697460D01*
X667970Y136420D02*
Y146580D01*
X678130D01*
Y136420D01*
X667970D01*
X693370D02*
Y146580D01*
X703530D01*
Y136420D01*
X693370D01*
X1697460Y97460D02*
Y94920D01*
X1702540D01*
Y97460D01*
X1705080D01*
Y102540D01*
X1702540D01*
Y105080D01*
X1697460D01*
Y102540D01*
X1694920D01*
Y97460D01*
X1697460D01*
X400000Y122420D02*
X402540Y124960D01*
X405080D01*
X402540Y127500D01*
X405080Y130040D01*
X402540D01*
X400000Y132580D01*
X397460Y130040D01*
X394920D01*
X397460Y127500D01*
X394920Y124960D01*
X397460D01*
X400000Y122420D01*
Y124452D02*
X401524Y125976D01*
X403048D01*
X401524Y127500D01*
X403048Y129024D01*
X401524D01*
X400000Y130548D01*
X398476Y129024D01*
X396952D01*
X398476Y127500D01*
X396952Y125976D01*
X398476D01*
X400000Y124452D01*
X420000Y114920D02*
X422540Y117460D01*
X425080D01*
X422540Y120000D01*
X425080Y122540D01*
X422540D01*
X420000Y125080D01*
X417460Y122540D01*
X414920D01*
X417460Y120000D01*
X414920Y117460D01*
X417460D01*
X420000Y114920D01*
Y116952D02*
X421524Y118476D01*
X423048D01*
X421524Y120000D01*
X423048Y121524D01*
X421524D01*
X420000Y123048D01*
X418476Y121524D01*
X416952D01*
X418476Y120000D01*
X416952Y118476D01*
X418476D01*
X420000Y116952D01*
X427500Y94920D02*
X430040Y97460D01*
X432580D01*
X430040Y100000D01*
X432580Y102540D01*
X430040D01*
X427500Y105080D01*
X424960Y102540D01*
X422420D01*
X424960Y100000D01*
X422420Y97460D01*
X424960D01*
X427500Y94920D01*
Y96952D02*
X429024Y98476D01*
X430548D01*
X429024Y100000D01*
X430548Y101524D01*
X429024D01*
X427500Y103048D01*
X425976Y101524D01*
X424452D01*
X425976Y100000D01*
X424452Y98476D01*
X425976D01*
X427500Y96952D01*
X420000Y74920D02*
X422540Y77460D01*
X425080D01*
X422540Y80000D01*
X425080Y82540D01*
X422540D01*
X420000Y85080D01*
X417460Y82540D01*
X414920D01*
X417460Y80000D01*
X414920Y77460D01*
X417460D01*
X420000Y74920D01*
Y76952D02*
X421524Y78476D01*
X423048D01*
X421524Y80000D01*
X423048Y81524D01*
X421524D01*
X420000Y83048D01*
X418476Y81524D01*
X416952D01*
X418476Y80000D01*
X416952Y78476D01*
X418476D01*
X420000Y76952D01*
X400000Y67420D02*
X402540Y69960D01*
X405080D01*
X402540Y72500D01*
X405080Y75040D01*
X402540D01*
X400000Y77580D01*
X397460Y75040D01*
X394920D01*
X397460Y72500D01*
X394920Y69960D01*
X397460D01*
X400000Y67420D01*
Y69452D02*
X401524Y70976D01*
X403048D01*
X401524Y72500D01*
X403048Y74024D01*
X401524D01*
X400000Y75548D01*
X398476Y74024D01*
X396952D01*
X398476Y72500D01*
X396952Y70976D01*
X398476D01*
X400000Y69452D01*
X380000Y74920D02*
X382540Y77460D01*
X385080D01*
X382540Y80000D01*
X385080Y82540D01*
X382540D01*
X380000Y85080D01*
X377460Y82540D01*
X374920D01*
X377460Y80000D01*
X374920Y77460D01*
X377460D01*
X380000Y74920D01*
Y76952D02*
X381524Y78476D01*
X383048D01*
X381524Y80000D01*
X383048Y81524D01*
X381524D01*
X380000Y83048D01*
X378476Y81524D01*
X376952D01*
X378476Y80000D01*
X376952Y78476D01*
X378476D01*
X380000Y76952D01*
X372500Y94920D02*
X375040Y97460D01*
X377580D01*
X375040Y100000D01*
X377580Y102540D01*
X375040D01*
X372500Y105080D01*
X369960Y102540D01*
X367420D01*
X369960Y100000D01*
X367420Y97460D01*
X369960D01*
X372500Y94920D01*
Y96952D02*
X374024Y98476D01*
X375548D01*
X374024Y100000D01*
X375548Y101524D01*
X374024D01*
X372500Y103048D01*
X370976Y101524D01*
X369452D01*
X370976Y100000D01*
X369452Y98476D01*
X370976D01*
X372500Y96952D01*
X380000Y114920D02*
X382540Y117460D01*
X385080D01*
X382540Y120000D01*
X385080Y122540D01*
X382540D01*
X380000Y125080D01*
X377460Y122540D01*
X374920D01*
X377460Y120000D01*
X374920Y117460D01*
X377460D01*
X380000Y114920D01*
Y116952D02*
X381524Y118476D01*
X383048D01*
X381524Y120000D01*
X383048Y121524D01*
X381524D01*
X380000Y123048D01*
X378476Y121524D01*
X376952D01*
X378476Y120000D01*
X376952Y118476D01*
X378476D01*
X380000Y116952D01*
X1132500Y622420D02*
X1135040Y624960D01*
X1137580D01*
X1135040Y627500D01*
X1137580Y630040D01*
X1135040D01*
X1132500Y632580D01*
X1129960Y630040D01*
X1127420D01*
X1129960Y627500D01*
X1127420Y624960D01*
X1129960D01*
X1132500Y622420D01*
Y624452D02*
X1134024Y625976D01*
X1135548D01*
X1134024Y627500D01*
X1135548Y629024D01*
X1134024D01*
X1132500Y630548D01*
X1130976Y629024D01*
X1129452D01*
X1130976Y627500D01*
X1129452Y625976D01*
X1130976D01*
X1132500Y624452D01*
X1152500Y614920D02*
X1155040Y617460D01*
X1157580D01*
X1155040Y620000D01*
X1157580Y622540D01*
X1155040D01*
X1152500Y625080D01*
X1149960Y622540D01*
X1147420D01*
X1149960Y620000D01*
X1147420Y617460D01*
X1149960D01*
X1152500Y614920D01*
Y616952D02*
X1154024Y618476D01*
X1155548D01*
X1154024Y620000D01*
X1155548Y621524D01*
X1154024D01*
X1152500Y623048D01*
X1150976Y621524D01*
X1149452D01*
X1150976Y620000D01*
X1149452Y618476D01*
X1150976D01*
X1152500Y616952D01*
X1160000Y594920D02*
X1162540Y597460D01*
X1165080D01*
X1162540Y600000D01*
X1165080Y602540D01*
X1162540D01*
X1160000Y605080D01*
X1157460Y602540D01*
X1154920D01*
X1157460Y600000D01*
X1154920Y597460D01*
X1157460D01*
X1160000Y594920D01*
Y596952D02*
X1161524Y598476D01*
X1163048D01*
X1161524Y600000D01*
X1163048Y601524D01*
X1161524D01*
X1160000Y603048D01*
X1158476Y601524D01*
X1156952D01*
X1158476Y600000D01*
X1156952Y598476D01*
X1158476D01*
X1160000Y596952D01*
X1152500Y574920D02*
X1155040Y577460D01*
X1157580D01*
X1155040Y580000D01*
X1157580Y582540D01*
X1155040D01*
X1152500Y585080D01*
X1149960Y582540D01*
X1147420D01*
X1149960Y580000D01*
X1147420Y577460D01*
X1149960D01*
X1152500Y574920D01*
Y576952D02*
X1154024Y578476D01*
X1155548D01*
X1154024Y580000D01*
X1155548Y581524D01*
X1154024D01*
X1152500Y583048D01*
X1150976Y581524D01*
X1149452D01*
X1150976Y580000D01*
X1149452Y578476D01*
X1150976D01*
X1152500Y576952D01*
X1132500Y567420D02*
X1135040Y569960D01*
X1137580D01*
X1135040Y572500D01*
X1137580Y575040D01*
X1135040D01*
X1132500Y577580D01*
X1129960Y575040D01*
X1127420D01*
X1129960Y572500D01*
X1127420Y569960D01*
X1129960D01*
X1132500Y567420D01*
Y569452D02*
X1134024Y570976D01*
X1135548D01*
X1134024Y572500D01*
X1135548Y574024D01*
X1134024D01*
X1132500Y575548D01*
X1130976Y574024D01*
X1129452D01*
X1130976Y572500D01*
X1129452Y570976D01*
X1130976D01*
X1132500Y569452D01*
X1112500Y574920D02*
X1115040Y577460D01*
X1117580D01*
X1115040Y580000D01*
X1117580Y582540D01*
X1115040D01*
X1112500Y585080D01*
X1109960Y582540D01*
X1107420D01*
X1109960Y580000D01*
X1107420Y577460D01*
X1109960D01*
X1112500Y574920D01*
Y576952D02*
X1114024Y578476D01*
X1115548D01*
X1114024Y580000D01*
X1115548Y581524D01*
X1114024D01*
X1112500Y583048D01*
X1110976Y581524D01*
X1109452D01*
X1110976Y580000D01*
X1109452Y578476D01*
X1110976D01*
X1112500Y576952D01*
X1105000Y594920D02*
X1107540Y597460D01*
X1110080D01*
X1107540Y600000D01*
X1110080Y602540D01*
X1107540D01*
X1105000Y605080D01*
X1102460Y602540D01*
X1099920D01*
X1102460Y600000D01*
X1099920Y597460D01*
X1102460D01*
X1105000Y594920D01*
Y596952D02*
X1106524Y598476D01*
X1108048D01*
X1106524Y600000D01*
X1108048Y601524D01*
X1106524D01*
X1105000Y603048D01*
X1103476Y601524D01*
X1101952D01*
X1103476Y600000D01*
X1101952Y598476D01*
X1103476D01*
X1105000Y596952D01*
X1112500Y614920D02*
X1115040Y617460D01*
X1117580D01*
X1115040Y620000D01*
X1117580Y622540D01*
X1115040D01*
X1112500Y625080D01*
X1109960Y622540D01*
X1107420D01*
X1109960Y620000D01*
X1107420Y617460D01*
X1109960D01*
X1112500Y614920D01*
Y616952D02*
X1114024Y618476D01*
X1115548D01*
X1114024Y620000D01*
X1115548Y621524D01*
X1114024D01*
X1112500Y623048D01*
X1110976Y621524D01*
X1109452D01*
X1110976Y620000D01*
X1109452Y618476D01*
X1110976D01*
X1112500Y616952D01*
X1680000Y614920D02*
X1682540Y617460D01*
X1685080D01*
X1682540Y620000D01*
X1685080Y622540D01*
X1682540D01*
X1680000Y625080D01*
X1677460Y622540D01*
X1674920D01*
X1677460Y620000D01*
X1674920Y617460D01*
X1677460D01*
X1680000Y614920D01*
Y616952D02*
X1681524Y618476D01*
X1683048D01*
X1681524Y620000D01*
X1683048Y621524D01*
X1681524D01*
X1680000Y623048D01*
X1678476Y621524D01*
X1676952D01*
X1678476Y620000D01*
X1676952Y618476D01*
X1678476D01*
X1680000Y616952D01*
X1672500Y594920D02*
X1675040Y597460D01*
X1677580D01*
X1675040Y600000D01*
X1677580Y602540D01*
X1675040D01*
X1672500Y605080D01*
X1669960Y602540D01*
X1667420D01*
X1669960Y600000D01*
X1667420Y597460D01*
X1669960D01*
X1672500Y594920D01*
Y596952D02*
X1674024Y598476D01*
X1675548D01*
X1674024Y600000D01*
X1675548Y601524D01*
X1674024D01*
X1672500Y603048D01*
X1670976Y601524D01*
X1669452D01*
X1670976Y600000D01*
X1669452Y598476D01*
X1670976D01*
X1672500Y596952D01*
X1680000Y574920D02*
X1682540Y577460D01*
X1685080D01*
X1682540Y580000D01*
X1685080Y582540D01*
X1682540D01*
X1680000Y585080D01*
X1677460Y582540D01*
X1674920D01*
X1677460Y580000D01*
X1674920Y577460D01*
X1677460D01*
X1680000Y574920D01*
Y576952D02*
X1681524Y578476D01*
X1683048D01*
X1681524Y580000D01*
X1683048Y581524D01*
X1681524D01*
X1680000Y583048D01*
X1678476Y581524D01*
X1676952D01*
X1678476Y580000D01*
X1676952Y578476D01*
X1678476D01*
X1680000Y576952D01*
X1700000Y567420D02*
X1702540Y569960D01*
X1705080D01*
X1702540Y572500D01*
X1705080Y575040D01*
X1702540D01*
X1700000Y577580D01*
X1697460Y575040D01*
X1694920D01*
X1697460Y572500D01*
X1694920Y569960D01*
X1697460D01*
X1700000Y567420D01*
Y569452D02*
X1701524Y570976D01*
X1703048D01*
X1701524Y572500D01*
X1703048Y574024D01*
X1701524D01*
X1700000Y575548D01*
X1698476Y574024D01*
X1696952D01*
X1698476Y572500D01*
X1696952Y570976D01*
X1698476D01*
X1700000Y569452D01*
X1720000Y574920D02*
X1722540Y577460D01*
X1725080D01*
X1722540Y580000D01*
X1725080Y582540D01*
X1722540D01*
X1720000Y585080D01*
X1717460Y582540D01*
X1714920D01*
X1717460Y580000D01*
X1714920Y577460D01*
X1717460D01*
X1720000Y574920D01*
Y576952D02*
X1721524Y578476D01*
X1723048D01*
X1721524Y580000D01*
X1723048Y581524D01*
X1721524D01*
X1720000Y583048D01*
X1718476Y581524D01*
X1716952D01*
X1718476Y580000D01*
X1716952Y578476D01*
X1718476D01*
X1720000Y576952D01*
X1727500Y594920D02*
X1730040Y597460D01*
X1732580D01*
X1730040Y600000D01*
X1732580Y602540D01*
X1730040D01*
X1727500Y605080D01*
X1724960Y602540D01*
X1722420D01*
X1724960Y600000D01*
X1722420Y597460D01*
X1724960D01*
X1727500Y594920D01*
Y596952D02*
X1729024Y598476D01*
X1730548D01*
X1729024Y600000D01*
X1730548Y601524D01*
X1729024D01*
X1727500Y603048D01*
X1725976Y601524D01*
X1724452D01*
X1725976Y600000D01*
X1724452Y598476D01*
X1725976D01*
X1727500Y596952D01*
X1720000Y614920D02*
X1722540Y617460D01*
X1725080D01*
X1722540Y620000D01*
X1725080Y622540D01*
X1722540D01*
X1720000Y625080D01*
X1717460Y622540D01*
X1714920D01*
X1717460Y620000D01*
X1714920Y617460D01*
X1717460D01*
X1720000Y614920D01*
Y616952D02*
X1721524Y618476D01*
X1723048D01*
X1721524Y620000D01*
X1723048Y621524D01*
X1721524D01*
X1720000Y623048D01*
X1718476Y621524D01*
X1716952D01*
X1718476Y620000D01*
X1716952Y618476D01*
X1718476D01*
X1720000Y616952D01*
X1700000Y622420D02*
X1702540Y624960D01*
X1705080D01*
X1702540Y627500D01*
X1705080Y630040D01*
X1702540D01*
X1700000Y632580D01*
X1697460Y630040D01*
X1694920D01*
X1697460Y627500D01*
X1694920Y624960D01*
X1697460D01*
X1700000Y622420D01*
Y624452D02*
X1701524Y625976D01*
X1703048D01*
X1701524Y627500D01*
X1703048Y629024D01*
X1701524D01*
X1700000Y630548D01*
X1698476Y629024D01*
X1696952D01*
X1698476Y627500D01*
X1696952Y625976D01*
X1698476D01*
X1700000Y624452D01*
X1680000Y114920D02*
X1682540Y117460D01*
X1685080D01*
X1682540Y120000D01*
X1685080Y122540D01*
X1682540D01*
X1680000Y125080D01*
X1677460Y122540D01*
X1674920D01*
X1677460Y120000D01*
X1674920Y117460D01*
X1677460D01*
X1680000Y114920D01*
Y116952D02*
X1681524Y118476D01*
X1683048D01*
X1681524Y120000D01*
X1683048Y121524D01*
X1681524D01*
X1680000Y123048D01*
X1678476Y121524D01*
X1676952D01*
X1678476Y120000D01*
X1676952Y118476D01*
X1678476D01*
X1680000Y116952D01*
X1672500Y94920D02*
X1675040Y97460D01*
X1677580D01*
X1675040Y100000D01*
X1677580Y102540D01*
X1675040D01*
X1672500Y105080D01*
X1669960Y102540D01*
X1667420D01*
X1669960Y100000D01*
X1667420Y97460D01*
X1669960D01*
X1672500Y94920D01*
Y96952D02*
X1674024Y98476D01*
X1675548D01*
X1674024Y100000D01*
X1675548Y101524D01*
X1674024D01*
X1672500Y103048D01*
X1670976Y101524D01*
X1669452D01*
X1670976Y100000D01*
X1669452Y98476D01*
X1670976D01*
X1672500Y96952D01*
X1680000Y74920D02*
X1682540Y77460D01*
X1685080D01*
X1682540Y80000D01*
X1685080Y82540D01*
X1682540D01*
X1680000Y85080D01*
X1677460Y82540D01*
X1674920D01*
X1677460Y80000D01*
X1674920Y77460D01*
X1677460D01*
X1680000Y74920D01*
Y76952D02*
X1681524Y78476D01*
X1683048D01*
X1681524Y80000D01*
X1683048Y81524D01*
X1681524D01*
X1680000Y83048D01*
X1678476Y81524D01*
X1676952D01*
X1678476Y80000D01*
X1676952Y78476D01*
X1678476D01*
X1680000Y76952D01*
X1700000Y67420D02*
X1702540Y69960D01*
X1705080D01*
X1702540Y72500D01*
X1705080Y75040D01*
X1702540D01*
X1700000Y77580D01*
X1697460Y75040D01*
X1694920D01*
X1697460Y72500D01*
X1694920Y69960D01*
X1697460D01*
X1700000Y67420D01*
Y69452D02*
X1701524Y70976D01*
X1703048D01*
X1701524Y72500D01*
X1703048Y74024D01*
X1701524D01*
X1700000Y75548D01*
X1698476Y74024D01*
X1696952D01*
X1698476Y72500D01*
X1696952Y70976D01*
X1698476D01*
X1700000Y69452D01*
X1720000Y74920D02*
X1722540Y77460D01*
X1725080D01*
X1722540Y80000D01*
X1725080Y82540D01*
X1722540D01*
X1720000Y85080D01*
X1717460Y82540D01*
X1714920D01*
X1717460Y80000D01*
X1714920Y77460D01*
X1717460D01*
X1720000Y74920D01*
Y76952D02*
X1721524Y78476D01*
X1723048D01*
X1721524Y80000D01*
X1723048Y81524D01*
X1721524D01*
X1720000Y83048D01*
X1718476Y81524D01*
X1716952D01*
X1718476Y80000D01*
X1716952Y78476D01*
X1718476D01*
X1720000Y76952D01*
X1727500Y94920D02*
X1730040Y97460D01*
X1732580D01*
X1730040Y100000D01*
X1732580Y102540D01*
X1730040D01*
X1727500Y105080D01*
X1724960Y102540D01*
X1722420D01*
X1724960Y100000D01*
X1722420Y97460D01*
X1724960D01*
X1727500Y94920D01*
Y96952D02*
X1729024Y98476D01*
X1730548D01*
X1729024Y100000D01*
X1730548Y101524D01*
X1729024D01*
X1727500Y103048D01*
X1725976Y101524D01*
X1724452D01*
X1725976Y100000D01*
X1724452Y98476D01*
X1725976D01*
X1727500Y96952D01*
X1720000Y114920D02*
X1722540Y117460D01*
X1725080D01*
X1722540Y120000D01*
X1725080Y122540D01*
X1722540D01*
X1720000Y125080D01*
X1717460Y122540D01*
X1714920D01*
X1717460Y120000D01*
X1714920Y117460D01*
X1717460D01*
X1720000Y114920D01*
Y116952D02*
X1721524Y118476D01*
X1723048D01*
X1721524Y120000D01*
X1723048Y121524D01*
X1721524D01*
X1720000Y123048D01*
X1718476Y121524D01*
X1716952D01*
X1718476Y120000D01*
X1716952Y118476D01*
X1718476D01*
X1720000Y116952D01*
X1700000Y122420D02*
X1702540Y124960D01*
X1705080D01*
X1702540Y127500D01*
X1705080Y130040D01*
X1702540D01*
X1700000Y132580D01*
X1697460Y130040D01*
X1694920D01*
X1697460Y127500D01*
X1694920Y124960D01*
X1697460D01*
X1700000Y122420D01*
Y124452D02*
X1701524Y125976D01*
X1703048D01*
X1701524Y127500D01*
X1703048Y129024D01*
X1701524D01*
X1700000Y130548D01*
X1698476Y129024D01*
X1696952D01*
X1698476Y127500D01*
X1696952Y125976D01*
X1698476D01*
X1700000Y124452D01*
D139*
X192580Y472500D02*
G03*
X192580Y472500I-5080J0D01*
G01*
X302580D02*
G03*
X302580Y472500I-5080J0D01*
G01*
X344080Y658000D02*
G03*
X344080Y658000I-5080J0D01*
G01*
X318680Y683400D02*
G03*
X318680Y683400I-5080J0D01*
G01*
X369480D02*
G03*
X369480Y683400I-5080J0D01*
G01*
X1753330Y643250D02*
G03*
X1753330Y643250I-5080J0D01*
G01*
Y373250D02*
G03*
X1753330Y373250I-5080J0D01*
G01*
X59080Y559000D02*
G03*
X59080Y559000I-5080J0D01*
G01*
X59080Y468000D02*
G03*
X59080Y468000I-5080J0D01*
G01*
X59080Y578000D02*
G03*
X59080Y578000I-5080J0D01*
G01*
Y669000D02*
G03*
X59080Y669000I-5080J0D01*
G01*
X194330Y647250D02*
G03*
X194330Y647250I-5080J0D01*
G01*
X285330D02*
G03*
X285330Y647250I-5080J0D01*
G01*
X75830D02*
G03*
X75830Y647250I-5080J0D01*
G01*
X166830D02*
G03*
X166830Y647250I-5080J0D01*
G01*
D140*
X342048Y658000D02*
G03*
X342048Y658000I-3048J0D01*
G01*
X316648Y683400D02*
G03*
X316648Y683400I-3048J0D01*
G01*
X367448D02*
G03*
X367448Y683400I-3048J0D01*
G01*
M02*
