G04*
G04 #@! TF.GenerationSoftware,Altium Limited,Altium Designer,23.0.1 (38)*
G04*
G04 Layer_Physical_Order=4*
G04 Layer_Color=16711680*
%FSLAX44Y44*%
%MOMM*%
G71*
G04*
G04 #@! TF.SameCoordinates,45C13FE1-74D7-4DC4-897C-9120B35D5960*
G04*
G04*
G04 #@! TF.FilePolarity,Positive*
G04*
G01*
G75*
%ADD12C,0.2000*%
%ADD14C,0.1500*%
%ADD15C,0.5000*%
%ADD20R,1.1500X1.3500*%
G04:AMPARAMS|DCode=21|XSize=0.65mm|YSize=1.25mm|CornerRadius=0.1625mm|HoleSize=0mm|Usage=FLASHONLY|Rotation=90.000|XOffset=0mm|YOffset=0mm|HoleType=Round|Shape=RoundedRectangle|*
%AMROUNDEDRECTD21*
21,1,0.6500,0.9250,0,0,90.0*
21,1,0.3250,1.2500,0,0,90.0*
1,1,0.3250,0.4625,0.1625*
1,1,0.3250,0.4625,-0.1625*
1,1,0.3250,-0.4625,-0.1625*
1,1,0.3250,-0.4625,0.1625*
%
%ADD21ROUNDEDRECTD21*%
%ADD22R,1.3500X1.1500*%
%ADD24R,1.3000X0.9000*%
%ADD29R,0.9000X1.3000*%
G04:AMPARAMS|DCode=32|XSize=0.65mm|YSize=1.25mm|CornerRadius=0.1625mm|HoleSize=0mm|Usage=FLASHONLY|Rotation=180.000|XOffset=0mm|YOffset=0mm|HoleType=Round|Shape=RoundedRectangle|*
%AMROUNDEDRECTD32*
21,1,0.6500,0.9250,0,0,180.0*
21,1,0.3250,1.2500,0,0,180.0*
1,1,0.3250,-0.1625,0.4625*
1,1,0.3250,0.1625,0.4625*
1,1,0.3250,0.1625,-0.4625*
1,1,0.3250,-0.1625,-0.4625*
%
%ADD32ROUNDEDRECTD32*%
G04:AMPARAMS|DCode=41|XSize=1.3mm|YSize=1.1mm|CornerRadius=0.275mm|HoleSize=0mm|Usage=FLASHONLY|Rotation=90.000|XOffset=0mm|YOffset=0mm|HoleType=Round|Shape=RoundedRectangle|*
%AMROUNDEDRECTD41*
21,1,1.3000,0.5500,0,0,90.0*
21,1,0.7500,1.1000,0,0,90.0*
1,1,0.5500,0.2750,0.3750*
1,1,0.5500,0.2750,-0.3750*
1,1,0.5500,-0.2750,-0.3750*
1,1,0.5500,-0.2750,0.3750*
%
%ADD41ROUNDEDRECTD41*%
%ADD91C,1.5000*%
%ADD92C,1.0000*%
%ADD93C,0.8000*%
%ADD95C,1.5000*%
%ADD96C,0.5000*%
%ADD97C,0.2000*%
%ADD99C,2.0000*%
G04:AMPARAMS|DCode=100|XSize=2mm|YSize=2mm|CornerRadius=0.5mm|HoleSize=0mm|Usage=FLASHONLY|Rotation=180.000|XOffset=0mm|YOffset=0mm|HoleType=Round|Shape=RoundedRectangle|*
%AMROUNDEDRECTD100*
21,1,2.0000,1.0000,0,0,180.0*
21,1,1.0000,2.0000,0,0,180.0*
1,1,1.0000,-0.5000,0.5000*
1,1,1.0000,0.5000,0.5000*
1,1,1.0000,0.5000,-0.5000*
1,1,1.0000,-0.5000,-0.5000*
%
%ADD100ROUNDEDRECTD100*%
%ADD101C,1.3000*%
%ADD102O,1.8000X1.7000*%
%ADD103C,1.8000*%
%ADD104C,1.2000*%
%ADD105C,3.2000*%
G04:AMPARAMS|DCode=106|XSize=2mm|YSize=2mm|CornerRadius=0.5mm|HoleSize=0mm|Usage=FLASHONLY|Rotation=270.000|XOffset=0mm|YOffset=0mm|HoleType=Round|Shape=RoundedRectangle|*
%AMROUNDEDRECTD106*
21,1,2.0000,1.0000,0,0,270.0*
21,1,1.0000,2.0000,0,0,270.0*
1,1,1.0000,-0.5000,-0.5000*
1,1,1.0000,-0.5000,0.5000*
1,1,1.0000,0.5000,0.5000*
1,1,1.0000,0.5000,-0.5000*
%
%ADD106ROUNDEDRECTD106*%
%ADD107C,2.5000*%
%ADD108R,1.5000X1.5000*%
%ADD109C,1.6000*%
G04:AMPARAMS|DCode=110|XSize=1.6mm|YSize=1.6mm|CornerRadius=0.4mm|HoleSize=0mm|Usage=FLASHONLY|Rotation=0.000|XOffset=0mm|YOffset=0mm|HoleType=Round|Shape=RoundedRectangle|*
%AMROUNDEDRECTD110*
21,1,1.6000,0.8000,0,0,0.0*
21,1,0.8000,1.6000,0,0,0.0*
1,1,0.8000,0.4000,-0.4000*
1,1,0.8000,-0.4000,-0.4000*
1,1,0.8000,-0.4000,0.4000*
1,1,0.8000,0.4000,0.4000*
%
%ADD110ROUNDEDRECTD110*%
%ADD111C,1.4000*%
%ADD112R,1.8000X1.8000*%
%ADD113C,8.0000*%
%ADD114R,1.6000X1.6000*%
%ADD115C,1.0000*%
G04:AMPARAMS|DCode=116|XSize=1.2mm|YSize=1.2mm|CornerRadius=0.3mm|HoleSize=0mm|Usage=FLASHONLY|Rotation=270.000|XOffset=0mm|YOffset=0mm|HoleType=Round|Shape=RoundedRectangle|*
%AMROUNDEDRECTD116*
21,1,1.2000,0.6000,0,0,270.0*
21,1,0.6000,1.2000,0,0,270.0*
1,1,0.6000,-0.3000,-0.3000*
1,1,0.6000,-0.3000,0.3000*
1,1,0.6000,0.3000,0.3000*
1,1,0.6000,0.3000,-0.3000*
%
%ADD116ROUNDEDRECTD116*%
G04:AMPARAMS|DCode=117|XSize=1.8mm|YSize=1.8mm|CornerRadius=0.45mm|HoleSize=0mm|Usage=FLASHONLY|Rotation=270.000|XOffset=0mm|YOffset=0mm|HoleType=Round|Shape=RoundedRectangle|*
%AMROUNDEDRECTD117*
21,1,1.8000,0.9000,0,0,270.0*
21,1,0.9000,1.8000,0,0,270.0*
1,1,0.9000,-0.4500,-0.4500*
1,1,0.9000,-0.4500,0.4500*
1,1,0.9000,0.4500,0.4500*
1,1,0.9000,0.4500,-0.4500*
%
%ADD117ROUNDEDRECTD117*%
%ADD118C,0.7000*%
%ADD119C,0.8000*%
G04:AMPARAMS|DCode=120|XSize=3.5mm|YSize=1.5mm|CornerRadius=0.375mm|HoleSize=0mm|Usage=FLASHONLY|Rotation=0.000|XOffset=0mm|YOffset=0mm|HoleType=Round|Shape=RoundedRectangle|*
%AMROUNDEDRECTD120*
21,1,3.5000,0.7500,0,0,0.0*
21,1,2.7500,1.5000,0,0,0.0*
1,1,0.7500,1.3750,-0.3750*
1,1,0.7500,-1.3750,-0.3750*
1,1,0.7500,-1.3750,0.3750*
1,1,0.7500,1.3750,0.3750*
%
%ADD120ROUNDEDRECTD120*%
G04:AMPARAMS|DCode=121|XSize=3.5mm|YSize=1.5mm|CornerRadius=0.375mm|HoleSize=0mm|Usage=FLASHONLY|Rotation=270.000|XOffset=0mm|YOffset=0mm|HoleType=Round|Shape=RoundedRectangle|*
%AMROUNDEDRECTD121*
21,1,3.5000,0.7500,0,0,270.0*
21,1,2.7500,1.5000,0,0,270.0*
1,1,0.7500,-0.3750,-1.3750*
1,1,0.7500,-0.3750,1.3750*
1,1,0.7500,0.3750,1.3750*
1,1,0.7500,0.3750,-1.3750*
%
%ADD121ROUNDEDRECTD121*%
G04:AMPARAMS|DCode=122|XSize=1.35mm|YSize=1.15mm|CornerRadius=0.2875mm|HoleSize=0mm|Usage=FLASHONLY|Rotation=0.000|XOffset=0mm|YOffset=0mm|HoleType=Round|Shape=RoundedRectangle|*
%AMROUNDEDRECTD122*
21,1,1.3500,0.5750,0,0,0.0*
21,1,0.7750,1.1500,0,0,0.0*
1,1,0.5750,0.3875,-0.2875*
1,1,0.5750,-0.3875,-0.2875*
1,1,0.5750,-0.3875,0.2875*
1,1,0.5750,0.3875,0.2875*
%
%ADD122ROUNDEDRECTD122*%
G04:AMPARAMS|DCode=123|XSize=0.6mm|YSize=1.45mm|CornerRadius=0.15mm|HoleSize=0mm|Usage=FLASHONLY|Rotation=0.000|XOffset=0mm|YOffset=0mm|HoleType=Round|Shape=RoundedRectangle|*
%AMROUNDEDRECTD123*
21,1,0.6000,1.1500,0,0,0.0*
21,1,0.3000,1.4500,0,0,0.0*
1,1,0.3000,0.1500,-0.5750*
1,1,0.3000,-0.1500,-0.5750*
1,1,0.3000,-0.1500,0.5750*
1,1,0.3000,0.1500,0.5750*
%
%ADD123ROUNDEDRECTD123*%
G04:AMPARAMS|DCode=124|XSize=1.95mm|YSize=1.4mm|CornerRadius=0.35mm|HoleSize=0mm|Usage=FLASHONLY|Rotation=270.000|XOffset=0mm|YOffset=0mm|HoleType=Round|Shape=RoundedRectangle|*
%AMROUNDEDRECTD124*
21,1,1.9500,0.7000,0,0,270.0*
21,1,1.2500,1.4000,0,0,270.0*
1,1,0.7000,-0.3500,-0.6250*
1,1,0.7000,-0.3500,0.6250*
1,1,0.7000,0.3500,0.6250*
1,1,0.7000,0.3500,-0.6250*
%
%ADD124ROUNDEDRECTD124*%
G04:AMPARAMS|DCode=125|XSize=1.95mm|YSize=1.4mm|CornerRadius=0.35mm|HoleSize=0mm|Usage=FLASHONLY|Rotation=180.000|XOffset=0mm|YOffset=0mm|HoleType=Round|Shape=RoundedRectangle|*
%AMROUNDEDRECTD125*
21,1,1.9500,0.7000,0,0,180.0*
21,1,1.2500,1.4000,0,0,180.0*
1,1,0.7000,-0.6250,0.3500*
1,1,0.7000,0.6250,0.3500*
1,1,0.7000,0.6250,-0.3500*
1,1,0.7000,-0.6250,-0.3500*
%
%ADD125ROUNDEDRECTD125*%
G04:AMPARAMS|DCode=126|XSize=1.5mm|YSize=2.1mm|CornerRadius=0.375mm|HoleSize=0mm|Usage=FLASHONLY|Rotation=180.000|XOffset=0mm|YOffset=0mm|HoleType=Round|Shape=RoundedRectangle|*
%AMROUNDEDRECTD126*
21,1,1.5000,1.3500,0,0,180.0*
21,1,0.7500,2.1000,0,0,180.0*
1,1,0.7500,-0.3750,0.6750*
1,1,0.7500,0.3750,0.6750*
1,1,0.7500,0.3750,-0.6750*
1,1,0.7500,-0.3750,-0.6750*
%
%ADD126ROUNDEDRECTD126*%
D12*
X939000Y152000D02*
G03*
X934000Y157000I-5000J0D01*
G01*
X1492650Y563000D02*
G03*
X1469500Y539850I0J-23150D01*
G01*
X1576000Y563000D02*
G03*
X1586100Y573100I0J10100D01*
G01*
X1004850Y250000D02*
G03*
X1019500Y264650I0J14650D01*
G01*
X187457Y250000D02*
G03*
X172500Y235000I42J-15000D01*
G01*
X1020000Y339800D02*
G03*
X1000000Y319800I0J-20000D01*
G01*
X977300Y339800D02*
G03*
X957500Y320000I0J-19800D01*
G01*
X945000Y374900D02*
G03*
X967400Y352500I22400J0D01*
G01*
X982103Y405647D02*
G03*
X986000Y401750I3897J0D01*
G01*
X927900Y402700D02*
G03*
X902500Y377300I0J-25400D01*
G01*
X877100Y300000D02*
G03*
X902500Y325400I0J25400D01*
G01*
X255750Y239000D02*
G03*
X233250Y216500I0J-22500D01*
G01*
X255750Y239000D02*
G03*
X233250Y216500I0J-22500D01*
G01*
X207850Y190500D02*
G03*
X233250Y215900I0J25400D01*
G01*
X207850Y190500D02*
G03*
X233250Y215900I0J25400D01*
G01*
X172500Y213250D02*
G03*
X195250Y190500I22750J0D01*
G01*
X172500Y213250D02*
G03*
X195250Y190500I22750J0D01*
G01*
X1122000Y93000D02*
G03*
X1128750Y99750I0J6750D01*
G01*
X1101000Y62000D02*
G03*
X1096430Y57429I0J-4571D01*
G01*
X1101000Y62000D02*
G03*
X1100168Y61894I0J-3333D01*
G01*
X939500Y34500D02*
G03*
X928000Y23000I0J-11500D01*
G01*
X1076459Y16000D02*
G03*
X1096430Y34638I0J20018D01*
G01*
X1566000Y252000D02*
G03*
X1557000Y261000I-9000J0D01*
G01*
X1517000D02*
G03*
X1502000Y246000I0J-15000D01*
G01*
X1646000Y243000D02*
G03*
X1637622Y251378I-8378J0D01*
G01*
X1492000Y236000D02*
G03*
X1502000Y246000I0J10000D01*
G01*
X1230000Y255000D02*
G03*
X1249000Y236000I19000J0D01*
G01*
X1646000Y234000D02*
G03*
X1671000Y209000I25000J0D01*
G01*
X1128750Y200097D02*
G03*
X1128777Y199780I2000J10D01*
G01*
X1128777Y195721D02*
G03*
X1128750Y195403I1973J-328D01*
G01*
X972944Y34500D02*
G03*
X991444Y16000I18500J0D01*
G01*
X786000Y37000D02*
G03*
X779000Y30000I0J-7000D01*
G01*
X879000Y24000D02*
G03*
X866000Y37000I-13000J0D01*
G01*
X879000Y24000D02*
G03*
X886000Y17000I7000J0D01*
G01*
X922000D02*
G03*
X928000Y23000I0J6000D01*
G01*
X333000Y30000D02*
G03*
X346000Y17000I13000J0D01*
G01*
X766000D02*
G03*
X779000Y30000I0J13000D01*
G01*
X1128777Y195721D02*
G03*
X1128777Y199780I-11827J2029D01*
G01*
X1156000Y217000D02*
G03*
X1162000Y223000I0J6000D01*
G01*
X1522298Y227228D02*
G03*
X1536613Y234698I-3298J23772D01*
G01*
X845919Y33000D02*
G03*
X841000Y27000I0J-5016D01*
G01*
X874000Y24000D02*
G03*
X865000Y33000I-9000J0D01*
G01*
X874000Y24000D02*
G03*
X885663Y12337I11663J0D01*
G01*
X837000Y23000D02*
G03*
X841000Y27000I0J4000D01*
G01*
X1665000Y241600D02*
G03*
X1639600Y267000I-25400J0D01*
G01*
X1263447Y225000D02*
G03*
X1223000Y184553I0J-40447D01*
G01*
X1198000Y57000D02*
G03*
X1223000Y82000I0J25000D01*
G01*
X1154000Y57000D02*
G03*
X1152000Y55000I0J-2000D01*
G01*
X1077244Y12000D02*
G03*
X1102645Y37400I0J25400D01*
G01*
X795000Y23000D02*
G03*
X790000Y18000I0J-5000D01*
G01*
X784000Y12000D02*
G03*
X790000Y18000I0J6000D01*
G01*
X316000Y36000D02*
G03*
X340000Y12000I24000J0D01*
G01*
X740500Y58500D02*
G03*
X753000Y71000I0J12500D01*
G01*
X1670613Y266497D02*
G03*
X1670496Y266625I-1535J-1282D01*
G01*
X1678000Y248600D02*
G03*
X1676546Y257069I-25400J0D01*
G01*
X1670496Y266625D02*
G03*
X1652600Y274000I-17896J-18025D01*
G01*
X1676481Y257228D02*
G03*
X1670613Y266497I-38881J-18128D01*
G01*
X1676546Y257069D02*
G03*
X1676481Y257228I-1883J-675D01*
G01*
X1519000Y231000D02*
G03*
X1539000Y251000I0J20000D01*
G01*
X1220000Y256400D02*
G03*
X1245400Y231000I25400J0D01*
G01*
X1266750Y343500D02*
G03*
X1280250Y330000I13500J0D01*
G01*
X1336750Y312750D02*
G03*
X1319500Y330000I-17250J0D01*
G01*
X1352000Y311000D02*
G03*
X1336750Y295750I0J-15250D01*
G01*
X835000Y272300D02*
G03*
X835300Y272000I300J0D01*
G01*
X860000Y338000D02*
G03*
X880000Y318000I20000J0D01*
G01*
X992000Y94000D02*
G03*
X1000000Y102000I0J8000D01*
G01*
X1052000Y110000D02*
G03*
X1062000Y120000I0J10000D01*
G01*
X998000Y156000D02*
G03*
X980000Y174000I-18000J0D01*
G01*
X965380Y206000D02*
G03*
X948690Y189310I0J-16690D01*
G01*
D02*
G03*
X964000Y174000I15310J0D01*
G01*
X990000Y200000D02*
G03*
X984000Y206000I-6000J0D01*
G01*
X997750Y112750D02*
G03*
X1005000Y120000I0J7250D01*
G01*
X998000Y156000D02*
G03*
X1009288Y144712I11288J0D01*
G01*
X1032700Y120000D02*
G03*
X1045000Y132300I0J12300D01*
G01*
X1158750Y391500D02*
G03*
X1159750Y390500I1000J0D01*
G01*
X1158750Y318750D02*
G03*
X1173500Y304000I14750J0D01*
G01*
X1203000Y130250D02*
G03*
X1213750Y141000I0J10750D01*
G01*
X1092000Y251750D02*
G03*
X1079500Y239250I0J-12500D01*
G01*
X1092000Y251750D02*
G03*
X1111500Y271250I0J19500D01*
G01*
X1235500Y335750D02*
G03*
X1260250Y360500I0J24750D01*
G01*
X1266000Y375000D02*
G03*
X1260250Y369250I0J-5750D01*
G01*
X1267000Y374000D02*
G03*
X1266000Y375000I-1000J0D01*
G01*
X821250Y75750D02*
G03*
X837500Y92000I0J16250D01*
G01*
X639500Y64250D02*
G03*
X651750Y52000I12250J0D01*
G01*
X1362301Y614750D02*
G03*
X1341750Y590850I3622J-23900D01*
G01*
X797750Y325000D02*
G03*
X784500Y311750I0J-13250D01*
G01*
X1381250Y327600D02*
G03*
X1355850Y353000I-25400J0D01*
G01*
X1381250Y308750D02*
G03*
X1393250Y296750I12000J0D01*
G01*
X1454500D02*
G03*
X1469500Y311750I0J15000D01*
G01*
X1478000Y541750D02*
G03*
X1469500Y533250I0J-8500D01*
G01*
X1495997Y510500D02*
G03*
X1482424Y496927I0J-13573D01*
G01*
X1586600Y510500D02*
G03*
X1612000Y535900I0J25400D01*
G01*
D02*
G03*
X1608150Y539750I-3850J0D01*
G01*
X1610500Y680750D02*
G03*
X1599500Y691750I-11000J0D01*
G01*
X1560700D02*
G03*
X1548700Y679750I0J-12000D01*
G01*
X1341250Y339750D02*
G03*
X1320250Y360750I-21000J0D01*
G01*
X1303000D02*
G03*
X1285750Y343499I0J-17250D01*
G01*
X1310100Y360750D02*
G03*
X1335500Y386150I0J25400D01*
G01*
X1358000Y618750D02*
G03*
X1335500Y596250I0J-22500D01*
G01*
X1555920Y696250D02*
G03*
X1531000Y671330I0J-24920D01*
G01*
X1649400Y684122D02*
G03*
X1637272Y696250I-12128J0D01*
G01*
X1548750Y539250D02*
G03*
X1566500Y521500I17750J0D01*
G01*
X1556512Y588750D02*
G03*
X1548212Y580450I0J-8300D01*
G01*
X1574250Y549750D02*
G03*
X1567750Y543250I0J-6500D01*
G01*
X1564963Y569350D02*
G03*
X1571956Y575700I-3698J11100D01*
G01*
X1016500Y201500D02*
G03*
X1015000Y200000I0J-1500D01*
G01*
X1266750Y295900D02*
G03*
X1292150Y270500I25400J0D01*
G01*
X1583250Y125400D02*
G03*
X1608650Y100000I25400J0D01*
G01*
X1583250Y255000D02*
G03*
X1567750Y270500I-15500J0D01*
G01*
X1610000Y82000D02*
G03*
X1622000Y70000I12000J0D01*
G01*
X1624588Y100000D02*
G03*
X1610000Y85412I0J-14588D01*
G01*
X1643750Y100000D02*
G03*
X1646000Y102250I0J2250D01*
G01*
X1461000Y118000D02*
G03*
X1443000Y100000I0J-18000D01*
G01*
D02*
G03*
X1459250Y83750I16250J0D01*
G01*
X1233000Y291650D02*
G03*
X1258400Y266250I25400J0D01*
G01*
X1479000Y118000D02*
G03*
X1492000Y131000I0J13000D01*
G01*
X1563500Y141000D02*
G03*
X1578500Y156000I0J15000D01*
G01*
Y222750D02*
G03*
X1565500Y235750I-13000J0D01*
G01*
X1188741Y402269D02*
G03*
X1203860Y396000I15118J15094D01*
G01*
X1503500Y556250D02*
G03*
X1511750Y548000I8250J0D01*
G01*
X1424250Y608250D02*
G03*
X1444750Y587750I20500J0D01*
G01*
X1523460Y580450D02*
G03*
X1522660Y581250I-800J0D01*
G01*
X1523460Y580450D02*
G03*
X1516160Y587750I-7300J0D01*
G01*
X1306500Y186250D02*
G03*
X1295500Y175250I0J-11000D01*
G01*
X864750Y154500D02*
G03*
X857000Y162250I-7750J0D01*
G01*
X1217250Y412000D02*
G03*
X1220750Y408500I3500J0D01*
G01*
X1217250Y439500D02*
G03*
X1197500Y459250I-19750J0D01*
G01*
X1243000Y408250D02*
G03*
X1250750Y416000I0J7750D01*
G01*
X1255000Y455500D02*
G03*
X1265000Y445500I10000J0D01*
G01*
X1264000Y435500D02*
G03*
X1274640Y424860I10640J0D01*
G01*
X1295250Y456000D02*
G03*
X1305750Y445500I10500J0D01*
G01*
X1314750Y469750D02*
G03*
X1314750Y469783I-3000J0D01*
G01*
X1322000Y415500D02*
G03*
X1325750Y411750I3750J0D01*
G01*
X1323750Y532250D02*
G03*
X1321000Y535000I-2750J0D01*
G01*
X1361750Y415000D02*
G03*
X1376500Y400250I14750J0D01*
G01*
D02*
G03*
X1377250Y401000I0J750D01*
G01*
X1402000Y476500D02*
G03*
X1377250Y451750I0J-24750D01*
G01*
X1278500Y562000D02*
G03*
X1278750Y561750I250J0D01*
G01*
X1281500D02*
G03*
X1293500Y573750I0J12000D01*
G01*
X1279250Y544000D02*
G03*
X1290500Y532750I11250J0D01*
G01*
X1441840Y560250D02*
G03*
X1458498Y576908I0J16658D01*
G01*
X329652Y222500D02*
G03*
X310500Y203348I0J-19152D01*
G01*
X1020479Y222500D02*
G03*
X1042000Y244021I0J21521D01*
G01*
X1061656Y305000D02*
G03*
X1042000Y285345I0J-19655D01*
G01*
X294250Y180100D02*
G03*
X268850Y205500I-25400J0D01*
G01*
X312500Y232250D02*
G03*
X294250Y214000I0J-18250D01*
G01*
X1010000Y232250D02*
G03*
X1031000Y253250I0J21000D01*
G01*
X1056400Y313250D02*
G03*
X1031000Y287850I0J-25400D01*
G01*
X993000Y147250D02*
G03*
X1007950Y132300I14950J0D01*
G01*
X951250Y108000D02*
G03*
X963000Y119750I0J11750D01*
G01*
X951251Y108000D02*
G03*
X963000Y119750I-1J11750D01*
G01*
X993000Y147250D02*
G03*
X1007950Y132300I14950J0D01*
G01*
X1056400Y313250D02*
G03*
X1031000Y287850I0J-25400D01*
G01*
X1010000Y232250D02*
G03*
X1031000Y253250I0J21000D01*
G01*
X312500Y232250D02*
G03*
X294250Y214000I0J-18250D01*
G01*
Y180100D02*
G03*
X294250Y180188I-25400J0D01*
G01*
D02*
G03*
X268850Y205500I-25400J-88D01*
G01*
X1061656Y305000D02*
G03*
X1042000Y285345I0J-19655D01*
G01*
X1020479Y222500D02*
G03*
X1042000Y244021I0J21521D01*
G01*
X329652Y222500D02*
G03*
X310500Y203348I0J-19152D01*
G01*
X302500Y66750D02*
G03*
X297750Y71500I-4750J0D01*
G01*
X302500Y66750D02*
G03*
X310500Y74750I0J8000D01*
G01*
X1441840Y560250D02*
G03*
X1458498Y576908I0J16658D01*
G01*
X1437500Y560250D02*
G03*
X1424000Y546750I0J-13500D01*
G01*
X1279250Y544000D02*
G03*
X1290500Y532750I11250J0D01*
G01*
X1281500Y561750D02*
G03*
X1293500Y573750I-0J12000D01*
G01*
X1278500Y562000D02*
G03*
X1278750Y561750I250J0D01*
G01*
X1402000Y476500D02*
G03*
X1377250Y451752I0J-24750D01*
G01*
X1376500Y400250D02*
G03*
X1377250Y401000I0J750D01*
G01*
X1361750Y414999D02*
G03*
X1376500Y400250I14750J1D01*
G01*
X1323750Y532250D02*
G03*
X1321000Y535000I-2750J0D01*
G01*
X1322000Y415500D02*
G03*
X1325750Y411750I3750J0D01*
G01*
X1314750Y459250D02*
G03*
X1328500Y445500I13750J0D01*
G01*
X1314750Y506250D02*
G03*
X1312000Y509000I-2750J-0D01*
G01*
X1314750Y469750D02*
G03*
X1314750Y469783I-3000J-0D01*
G01*
X1305750Y416500D02*
G03*
X1309750Y412500I4000J0D01*
G01*
X1296636Y450786D02*
G03*
X1305750Y445500I9114J5214D01*
G01*
X1295250Y456000D02*
G03*
X1296636Y450786I10500J0D01*
G01*
X1287250Y445500D02*
G03*
X1282640Y440890I0J-4610D01*
G01*
X1275000Y455500D02*
G03*
X1285000Y445500I10000J0D01*
G01*
X1264000Y435500D02*
G03*
X1274640Y424860I10640J0D01*
G01*
X1255000Y483000D02*
G03*
X1249000Y489000I-6000J0D01*
G01*
X1255000Y455500D02*
G03*
X1265000Y445500I10000J0D01*
G01*
X1236500Y450250D02*
G03*
X1222500Y464250I-14000J0D01*
G01*
X1243000Y408250D02*
G03*
X1250750Y416000I0J7750D01*
G01*
X1217250Y439500D02*
G03*
X1197500Y459250I-19750J0D01*
G01*
X1217250Y412000D02*
G03*
X1220750Y408500I3500J0D01*
G01*
X1263250Y402250D02*
G03*
X1269911Y407912I0J6750D01*
G01*
X1044900Y329750D02*
G03*
X1019500Y304350I0J-25400D01*
G01*
X908691Y215500D02*
G03*
X886750Y190100I3732J-25400D01*
G01*
X864750Y154500D02*
G03*
X886750Y176500I0J22000D01*
G01*
X864750Y154500D02*
G03*
X857000Y162250I-7750J0D01*
G01*
X1294442Y146750D02*
G03*
X1294148Y146456I0J-294D01*
G01*
X1306500Y186250D02*
G03*
X1295500Y175250I0J-11000D01*
G01*
X1523460Y580450D02*
G03*
X1516160Y587750I-7300J0D01*
G01*
X1523460Y580450D02*
G03*
X1522660Y581250I-800J0D01*
G01*
X1424250Y608250D02*
G03*
X1444750Y587750I20500J0D01*
G01*
X1503500Y556250D02*
G03*
X1511750Y548000I8250J0D01*
G01*
X1188741Y402269D02*
G03*
X1203860Y396000I15118J15094D01*
G01*
X1182250Y417957D02*
G03*
X1188741Y402269I22203J-0D01*
G01*
X1578500Y222750D02*
G03*
X1578500Y222827I-13000J0D01*
G01*
X1578500Y242750D02*
G03*
X1555000Y266250I-23500J0D01*
G01*
X1578500Y222827D02*
G03*
X1565500Y235750I-13000J-77D01*
G01*
X1563500Y141000D02*
G03*
X1578500Y156000I-0J15000D01*
G01*
X1502000Y141000D02*
G03*
X1492000Y131000I0J-10000D01*
G01*
X1479000Y118000D02*
G03*
X1492000Y131000I0J13000D01*
G01*
X1465000Y83750D02*
G03*
X1467750Y81000I2750J0D01*
G01*
X1233000Y291650D02*
G03*
X1258399Y266250I25400J0D01*
G01*
X1443000Y100000D02*
G03*
X1459250Y83750I16250J0D01*
G01*
X1461000Y118000D02*
G03*
X1443000Y100000I0J-18000D01*
G01*
X1643750Y100000D02*
G03*
X1646000Y102250I-0J2250D01*
G01*
X1624588Y100000D02*
G03*
X1624516Y100000I0J-14588D01*
G01*
D02*
G03*
X1610000Y85413I72J-14587D01*
G01*
Y82000D02*
G03*
X1622000Y70000I12000J0D01*
G01*
X1266750Y295900D02*
G03*
X1292150Y270500I25400J0D01*
G01*
X1583250Y125400D02*
G03*
X1608650Y100000I25400J0D01*
G01*
X1583250Y255000D02*
G03*
X1567750Y270500I-15500J-0D01*
G01*
X854750Y370000D02*
G03*
X860000Y364750I5250J0D01*
G01*
X1564963Y569350D02*
G03*
X1571956Y575700I-3698J11100D01*
G01*
X1574250Y549750D02*
G03*
X1567750Y543250I0J-6500D01*
G01*
X1561250Y571250D02*
G03*
X1563250Y569250I2000J0D01*
G01*
X1564348D02*
G03*
X1564963Y569350I-10J2000D01*
G01*
X1337750Y258250D02*
G03*
X1339000Y257000I1250J0D01*
G01*
X1556512Y588750D02*
G03*
X1548212Y580450I0J-8300D01*
G01*
X1573500Y521500D02*
G03*
X1579750Y527750I0J6250D01*
G01*
X1548750Y539249D02*
G03*
X1566500Y521500I17750J1D01*
G01*
X1464752Y241500D02*
G03*
X1482699Y259447I0J17947D01*
G01*
X1329500Y251000D02*
G03*
X1339000Y241500I9500J0D01*
G01*
X1649400Y684122D02*
G03*
X1637272Y696250I-12128J0D01*
G01*
X1555920D02*
G03*
X1531000Y671330I0J-24920D01*
G01*
X1521500Y618750D02*
G03*
X1531000Y628250I0J9500D01*
G01*
X1358000Y618750D02*
G03*
X1335500Y596250I0J-22500D01*
G01*
X1321000Y627500D02*
G03*
X1329750Y618750I8750J0D01*
G01*
X1310214Y360750D02*
G03*
X1335500Y386150I-114J25400D01*
G01*
X1310100Y360750D02*
G03*
X1310214Y360750I0J25400D01*
G01*
X1341250Y339750D02*
G03*
X1320250Y360750I-21000J0D01*
G01*
X1303000D02*
G03*
X1285750Y343499I0J-17250D01*
G01*
X1610500Y680750D02*
G03*
X1599500Y691750I-11000J-0D01*
G01*
X1610500Y538949D02*
G03*
X1608150Y539750I-2350J-3049D01*
G01*
X1549662Y684457D02*
G03*
X1548700Y679750I11038J-4707D01*
G01*
X1560700Y691750D02*
G03*
X1549662Y684457I0J-12000D01*
G01*
X1611999Y535980D02*
G03*
X1610500Y538949I-3849J-80D01*
G01*
X1612000Y535900D02*
G03*
X1611999Y535980I-3850J0D01*
G01*
X1610500Y527301D02*
G03*
X1612000Y535900I-23900J8599D01*
G01*
X1586600Y510500D02*
G03*
X1610500Y527301I0J25400D01*
G01*
X1495997Y510500D02*
G03*
X1482424Y496928I0J-13573D01*
G01*
X1457024Y283000D02*
G03*
X1482424Y308400I0J25400D01*
G01*
X1368750Y303000D02*
G03*
X1388750Y283000I20000J0D01*
G01*
X1586100Y667750D02*
G03*
X1574100Y679750I-12000J0D01*
G01*
X1474381Y540941D02*
G03*
X1469500Y533312I3619J-7691D01*
G01*
X1478000Y541750D02*
G03*
X1474381Y540941I0J-8500D01*
G01*
X1469500Y533312D02*
G03*
X1469500Y533250I8500J-62D01*
G01*
X1454500Y296750D02*
G03*
X1469500Y311750I0J15000D01*
G01*
X1381250Y308750D02*
G03*
X1393250Y296750I12000J0D01*
G01*
X1381250Y327600D02*
G03*
X1355850Y353000I-25400J0D01*
G01*
X797750Y325000D02*
G03*
X784500Y311750I0J-13250D01*
G01*
X1558350Y628250D02*
G03*
X1574100Y644000I0J15750D01*
G01*
X1548750Y628250D02*
G03*
X1540750Y620250I0J-8000D01*
G01*
X1535250Y614750D02*
G03*
X1540750Y620250I0J5500D01*
G01*
X1362301Y614750D02*
G03*
X1341750Y590850I3622J-23900D01*
G01*
X639500Y64250D02*
G03*
X651748Y52000I12250J0D01*
G01*
X821250Y75750D02*
G03*
X837500Y92000I0J16250D01*
G01*
X948500Y65000D02*
G03*
X950750Y67250I0J2250D01*
G01*
X1267000Y374000D02*
G03*
X1266000Y375000I-1000J0D01*
G01*
D02*
G03*
X1260250Y369250I0J-5750D01*
G01*
X1235500Y335750D02*
G03*
X1260250Y360500I-0J24750D01*
G01*
X1221250Y335750D02*
G03*
X1203250Y317750I0J-18000D01*
G01*
X1092000Y251750D02*
G03*
X1111500Y271250I0J19500D01*
G01*
X1092000Y251750D02*
G03*
X1079500Y239250I0J-12500D01*
G01*
X1213750Y278600D02*
G03*
X1188350Y304000I-25400J0D01*
G01*
X1203000Y130250D02*
G03*
X1213750Y141000I0J10750D01*
G01*
X1158750Y391480D02*
G03*
X1159750Y390500I1000J20D01*
G01*
X1158750Y391500D02*
G03*
X1158750Y391480I1000J0D01*
G01*
X1158750Y318750D02*
G03*
X1173500Y304000I14750J0D01*
G01*
X1045000Y132300D02*
G03*
X1032588Y144712I-12412J0D01*
G01*
X1032700Y120000D02*
G03*
X1045000Y132300I0J12300D01*
G01*
X998000Y156000D02*
G03*
X1009288Y144712I11288J0D01*
G01*
X997750Y112750D02*
G03*
X1005000Y120000I0J7250D01*
G01*
X990000Y200000D02*
G03*
X984000Y206000I-6000J0D01*
G01*
X965380D02*
G03*
X948690Y189310I0J-16690D01*
G01*
X998000Y156000D02*
G03*
X980000Y174000I-18000J0D01*
G01*
X948690Y189310D02*
G03*
X964000Y174000I15310J0D01*
G01*
X1062000Y140700D02*
G03*
X1045000Y157700I-17000J0D01*
G01*
X1052000Y110000D02*
G03*
X1062000Y120000I0J10000D01*
G01*
X1008000Y110000D02*
G03*
X1000000Y102000I0J-8000D01*
G01*
X992000Y94000D02*
G03*
X1000000Y102000I-0J8000D01*
G01*
X966000Y54000D02*
G03*
X982000Y38000I16000J0D01*
G01*
X1072000Y66750D02*
G03*
X1071450Y67300I-550J0D01*
G01*
X1072000Y66750D02*
G03*
X1090000Y84750I0J18000D01*
G01*
X1005000Y80000D02*
G03*
X995000Y70000I0J-10000D01*
G01*
X860000Y338000D02*
G03*
X880000Y318000I20000J0D01*
G01*
X835000Y272300D02*
G03*
X835300Y272000I300J0D01*
G01*
X1352000Y311000D02*
G03*
X1336750Y295824I0J-15250D01*
G01*
D02*
G03*
X1336750Y295750I15250J-74D01*
G01*
Y292000D02*
G03*
X1341750Y287000I5000J0D01*
G01*
X1336750Y312750D02*
G03*
X1319500Y330000I-17250J-0D01*
G01*
X1266750Y343500D02*
G03*
X1280250Y330000I13500J0D01*
G01*
X1657000Y63000D02*
G03*
X1650000Y70000I-7000J0D01*
G01*
X1318000Y318750D02*
G03*
X1314375Y322375I-3625J0D01*
G01*
X1045000Y67300D02*
G03*
X1032300Y80000I-12700J0D01*
G01*
X1151250Y313500D02*
G03*
X1146750Y309000I0J-4500D01*
G01*
X1166250Y416000D02*
G03*
X1166000Y415750I0J-250D01*
G01*
X1546851Y683702D02*
G03*
X1546851Y683701I2000J-0D01*
G01*
X1269911Y407912D02*
G03*
X1270000Y409000I-6662J1088D01*
G01*
X1300750Y484750D02*
G03*
X1295250Y479250I0J-5500D01*
G01*
X1303000Y379250D02*
G03*
X1304500Y377750I1500J0D01*
G01*
X1248750Y444000D02*
G03*
X1250250Y445500I0J1500D01*
G01*
X736500Y58500D02*
G03*
X737000Y58000I500J0D01*
G01*
X915000Y157000D02*
X934000D01*
X915000D02*
X915000D01*
X915000Y157000D02*
X915000Y157000D01*
X1549692Y561750D02*
X1550942Y563000D01*
X1520308Y561750D02*
X1549692D01*
X1550942Y563000D02*
X1576000D01*
X1519058D02*
X1520308Y561750D01*
X1492650Y563000D02*
X1519058D01*
X1469500Y533250D02*
Y533312D01*
Y539850D01*
X187457Y250000D02*
X1004850D01*
X187457Y250000D02*
X187457Y250000D01*
X967400Y352500D02*
X1113500D01*
X1000000Y295000D02*
Y319800D01*
X977300Y339800D02*
X992500D01*
X1113500Y352500D02*
X1124000Y342000D01*
X986000Y401750D02*
Y403103D01*
X980000Y420000D02*
X982103Y417897D01*
Y405647D02*
Y417897D01*
X927900Y402700D02*
X929000D01*
X902500Y325400D02*
Y377300D01*
X870000Y300000D02*
X877100D01*
X945000Y454522D02*
X952500Y462022D01*
Y463750D01*
X945000Y374900D02*
Y454522D01*
X233250Y215900D02*
Y216500D01*
X195250Y190500D02*
X207850D01*
X195250D02*
X195250D01*
X1128750Y195403D02*
Y195403D01*
Y99750D02*
Y195403D01*
X1122000Y93000D02*
X1122750Y93000D01*
X939500Y34500D02*
X952363D01*
X1096430Y34638D02*
Y57429D01*
X1517000Y261000D02*
X1557000D01*
X1593545Y251378D02*
X1637622D01*
X1646000Y234000D02*
Y243000D01*
X1249000Y236000D02*
X1492000D01*
X1128750Y200097D02*
Y213027D01*
X991444Y16000D02*
X1076459D01*
X786000Y37000D02*
X866000D01*
X886000Y17000D02*
X922000D01*
X346000D02*
X766000D01*
X1162000Y223000D02*
Y248000D01*
X1536613Y234698D02*
X1548000Y247000D01*
X1520657Y227000D02*
X1522298Y227228D01*
X1263447Y225000D02*
X1520657Y227000D01*
X845919Y33000D02*
X865000D01*
X795000Y23000D02*
X837000D01*
X1665000Y234000D02*
Y241600D01*
X1598000Y267000D02*
X1639600D01*
X1223000Y82000D02*
Y184553D01*
X1154000Y57000D02*
X1198000D01*
X973000Y12000D02*
X1077244D01*
X340000D02*
X784000D01*
X855022Y14250D02*
X861772Y21000D01*
X800500Y14250D02*
X855022D01*
X861772Y21000D02*
X865000D01*
X885663Y12337D02*
X934771D01*
X736500Y58500D02*
X740500D01*
X1102645Y37400D02*
Y54644D01*
X1103000Y55000D01*
X1678000Y184000D02*
Y248600D01*
X1670496Y266625D02*
X1670496Y266625D01*
X1614000Y274000D02*
X1652600D01*
X1245400Y231000D02*
X1519000D01*
X1220000Y256400D02*
Y328250D01*
X1266750Y343500D02*
Y355750D01*
X1336750Y295750D02*
Y312750D01*
X1280250Y330000D02*
X1319500D01*
X1336750Y292000D02*
Y295750D01*
X835300Y272000D02*
X866000D01*
X860000Y338000D02*
Y340000D01*
X986000Y94000D02*
X992000D01*
X1008000Y110000D02*
X1052000D01*
X964000Y174000D02*
X980000D01*
X965380Y206000D02*
X984000D01*
X1005000Y120000D02*
X1032700D01*
X1009288Y144712D02*
X1032588D01*
X1158750Y318750D02*
Y391500D01*
X1173500Y304000D02*
X1188350D01*
X1213750Y141000D02*
Y278600D01*
X1079500Y179250D02*
Y239250D01*
X1221250Y335750D02*
X1235500D01*
X1260250Y360500D02*
Y369250D01*
X799500Y75750D02*
X821250D01*
X651750Y52000D02*
X676750D01*
X1341750Y364500D02*
Y590850D01*
X797750Y325000D02*
X825000D01*
X1381250Y308750D02*
Y327600D01*
X1349250Y353000D02*
X1355850D01*
X1469500Y311750D02*
Y533250D01*
X1478000Y541750D02*
X1489500D01*
X1482424Y308400D02*
Y496928D01*
X1495997Y510500D02*
X1586600D01*
X1597500Y539750D02*
X1608150D01*
X1610500Y538949D02*
Y680750D01*
Y525184D02*
Y527300D01*
Y538949D01*
X1546851Y683199D02*
Y683701D01*
Y683997D01*
X1547088Y682757D02*
X1548700Y679750D01*
X1560700Y691750D02*
X1599500D01*
X1285750Y341000D02*
Y343499D01*
X1310100Y360750D02*
X1320250D01*
X1303000D02*
X1310100D01*
X1329750Y618750D02*
X1358000D01*
X1335500Y386150D02*
Y596250D01*
X1358000Y618750D02*
X1521500D01*
X1555920Y696250D02*
X1637272D01*
X1548750Y539250D02*
Y547000D01*
X1548212Y580450D02*
X1549212D01*
X1556512Y588750D02*
X1559250D01*
X1567750Y533500D02*
Y543250D01*
X1571956Y575700D02*
X1572964Y580450D01*
X1016500Y201500D02*
X1030000D01*
X1292150Y270500D02*
X1567750D01*
X1266750Y295900D02*
Y328250D01*
X1583250Y125400D02*
Y255000D01*
X1610000Y82000D02*
Y85413D01*
X1622000Y70000D02*
X1650000D01*
X1624588Y100000D02*
X1643750D01*
X1608650D02*
X1624588D01*
X1258400Y266250D02*
X1555000D01*
X1461000Y118000D02*
X1479000D01*
X1233000Y291650D02*
Y328250D01*
X1502000Y141000D02*
X1563500D01*
X1558750Y235750D02*
X1565500D01*
X1578500Y222750D02*
Y242750D01*
Y156000D02*
Y222750D01*
X1203860Y396000D02*
X1203873D01*
X1511750Y548000D02*
X1522000D01*
X1507750Y581250D02*
X1522660D01*
X1444750Y587750D02*
X1516160D01*
X1203873Y396000D02*
X1301750D01*
X1306500Y186250D02*
X1315250D01*
X845750Y162250D02*
X857000D01*
X1220750Y408500D02*
X1221000Y408250D01*
X1197250Y459250D02*
X1197500D01*
X1250750Y416000D02*
Y426500D01*
X1236500Y444000D02*
X1248750D01*
X1255000Y455500D02*
Y483000D01*
X1264000Y435500D02*
Y445500D01*
X1305750Y416500D02*
Y445500D01*
X1314750Y469783D02*
Y506250D01*
X1322000Y415500D02*
Y426500D01*
X1319500Y535000D02*
X1321000D01*
X1361750Y415000D02*
Y420250D01*
X1377250Y401000D02*
Y451750D01*
X1278750Y561750D02*
X1281500D01*
X1293500Y573750D02*
Y576750D01*
X1290500Y532750D02*
X1293000D01*
X1424000Y485250D02*
Y546750D01*
X1437500Y560250D02*
X1441840D01*
X310500Y74750D02*
Y203348D01*
X329652Y222500D02*
X1020479D01*
X1042000Y244021D02*
Y285345D01*
X1061656Y305000D02*
X1093750D01*
X255750Y205500D02*
X268850D01*
X294250Y180100D02*
Y214000D01*
X312500Y232250D02*
X1010000D01*
X1056400Y313250D02*
X1076750D01*
X294250Y155500D02*
Y180100D01*
X1007950Y132300D02*
X1015000D01*
X992000Y146270D02*
X993000Y147250D01*
X1644000Y104250D02*
X1646000Y102250D01*
X1459250Y83750D02*
X1465000D01*
X1467750Y81000D02*
X1486000D01*
X1649400Y680000D02*
Y684123D01*
X1318000Y300000D02*
Y318750D01*
X1314375Y321022D02*
Y322375D01*
X986000Y112750D02*
X997750D01*
X1045000Y67300D02*
X1071450D01*
X1090000Y84750D02*
Y100000D01*
X966000Y54000D02*
Y94000D01*
X1062000Y120000D02*
Y140700D01*
X1005000Y80000D02*
X1032300D01*
X1015000Y157700D02*
X1045000D01*
X915000Y65000D02*
X948500D01*
X1015000Y92700D02*
X1045000D01*
X1146750Y144250D02*
Y309000D01*
X1159750Y390500D02*
X1233000D01*
X1030000Y201500D02*
X1067250D01*
X1079000Y178750D02*
X1079500Y179250D01*
X1111500Y271250D02*
Y329250D01*
X908691Y215500D02*
X1072250D01*
X1531000Y628250D02*
Y671330D01*
X1546851Y683997D02*
X1547312Y685522D01*
X1548252Y686462D01*
X1546851Y683199D02*
X1547088Y682757D01*
X1566500Y521500D02*
X1573500D01*
X1234500Y402250D02*
X1263250D01*
X1221000Y408250D02*
X1243000D01*
X1217250Y412000D02*
Y439500D01*
X1182250Y417957D02*
Y575500D01*
X1181750Y576000D02*
X1182250Y575500D01*
X1236500Y444000D02*
Y450250D01*
X1275000Y455500D02*
Y484750D01*
X1295250Y456000D02*
Y479250D01*
X1314750Y459250D02*
Y469750D01*
X860000Y364750D02*
X882250D01*
X1294442Y146750D02*
X1315500D01*
X1019500Y264650D02*
Y304350D01*
X1031000Y253250D02*
Y287850D01*
X1044900Y329750D02*
X1069750D01*
X1304500Y377750D02*
X1314750D01*
X1282640Y424860D02*
Y440890D01*
X1339000Y241500D02*
X1464752D01*
X1339000Y257000D02*
X1387750D01*
X1388750Y283000D02*
X1457024D01*
X1393250Y296750D02*
X1454500D01*
X1561250Y571250D02*
Y571750D01*
X1563250Y569250D02*
X1564348D01*
X1362302Y614750D02*
X1535250D01*
X1558294Y587793D02*
X1559250Y588750D01*
X1548750Y628250D02*
X1558350D01*
X1586100Y573100D02*
Y667750D01*
X255750Y239000D02*
X258000D01*
X283500Y71500D02*
X297750D01*
X886750Y176500D02*
Y190100D01*
D14*
X1234000Y401750D02*
G03*
X1234500Y402250I0J500D01*
G01*
X1200500Y418000D02*
G03*
X1216750Y401750I16250J0D01*
G01*
X1200500Y418000D02*
G03*
X1216750Y401750I16250J0D01*
G01*
Y401750D02*
X1234000D01*
X1200500Y418000D02*
Y434750D01*
D15*
X779513Y337068D02*
G03*
X778619Y336362I2630J-4252D01*
G01*
X798714Y342500D02*
G03*
X779513Y337068I0J-36653D01*
G01*
X852500Y317100D02*
G03*
X827100Y342500I-25400J0D01*
G01*
X767256Y325000D02*
G03*
X766734Y324516I3128J-3901D01*
G01*
X765799Y323093D02*
G03*
X763122Y310222I29601J-12871D01*
G01*
X766169Y323913D02*
G03*
X765799Y323093I29231J-13691D01*
G01*
X749656Y277713D02*
G03*
X763122Y310222I-32509J32509D01*
G01*
X700842Y257500D02*
G03*
X749656Y277713I16J69010D01*
G01*
X1724000Y405000D02*
G03*
X1710500Y418500I-13500J0D01*
G01*
X1724000Y405000D02*
G03*
X1710500Y418500I-13500J0D01*
G01*
X611476Y346748D02*
G03*
X675826Y373342I-0J91151D01*
G01*
X691512Y383997D02*
G03*
X675826Y373342I20056J-46400D01*
G01*
X731000Y393000D02*
G03*
X691512Y383997I4464J-110677D01*
G01*
X741000Y149500D02*
G03*
X739500Y151000I-1500J0D01*
G01*
X977900Y619800D02*
G03*
X945000Y586900I0J-32900D01*
G01*
X852500Y307500D02*
G03*
X870000Y290000I17500J0D01*
G01*
X161500Y71421D02*
G03*
X135421Y97500I-26079J0D01*
G01*
X98205Y148000D02*
G03*
X78000Y124811I0J-20397D01*
G01*
X176000Y124973D02*
G03*
X152973Y148000I-23027J0D01*
G01*
X78000Y124811D02*
G03*
X89042Y101781I29523J-8D01*
G01*
X252500Y134500D02*
G03*
X252000Y134000I0J-500D01*
G01*
X252500Y134500D02*
G03*
X252000Y134000I0J-500D01*
G01*
X1095948Y67948D02*
G03*
X1088000Y60000I0J-7948D01*
G01*
X191500Y183500D02*
G03*
X210250Y164750I18750J0D01*
G01*
X1073000Y45000D02*
G03*
X1088000Y60000I0J15000D01*
G01*
X1114250Y106250D02*
G03*
X1110830Y109670I-3420J-0D01*
G01*
X828019Y71267D02*
G03*
X827320Y71114I719J-4948D01*
G01*
X727873Y41758D02*
G03*
X774880Y56376I-48844J239951D01*
G01*
X858900Y73500D02*
G03*
X828019Y71267I0J-214690D01*
G01*
X824474Y70490D02*
G03*
X827320Y71114I-3224J21509D01*
G01*
X824474Y70490D02*
G03*
X823528Y70250I752J-4943D01*
G01*
X821247Y70172D02*
G03*
X774880Y56376I37653J-211363D01*
G01*
X611257Y30000D02*
G03*
X611494Y30000I-7J584231D01*
G01*
X622166Y30102D02*
G03*
X621256Y30000I99J-4999D01*
G01*
X622166Y30102D02*
G03*
X727873Y41758I-10916J584129D01*
G01*
X821685Y70250D02*
G03*
X821247Y70172I37215J-211440D01*
G01*
X874850Y73500D02*
G03*
X900250Y98900I0J25400D01*
G01*
X434825Y57505D02*
G03*
X432752Y54238I2858J-4103D01*
G01*
X423000Y46000D02*
G03*
X432753Y54238I0J9892D01*
G01*
X442810Y60000D02*
G03*
X434825Y57505I0J-14026D01*
G01*
X176000Y69000D02*
G03*
X199000Y46000I23000J0D01*
G01*
X483000D02*
G03*
X469000Y60000I-14000J0D01*
G01*
X483000Y44999D02*
G03*
X498000Y30000I15000J0D01*
G01*
X936600Y5000D02*
G03*
X963250Y31650I0J26650D01*
G01*
X161500D02*
G03*
X188150Y5000I26650J0D01*
G01*
X1686000Y174389D02*
G03*
X1715969Y144274I30115J-0D01*
G01*
X1686000Y239100D02*
G03*
X1637600Y287500I-48400J0D01*
G01*
X845000Y355000D02*
G03*
X860000Y340000I15000J0D01*
G01*
X1514250Y376800D02*
G03*
X1519300Y371750I5050J0D01*
G01*
X502500Y176250D02*
G03*
X498250Y180500I-4250J0D01*
G01*
X739000Y99250D02*
G03*
X737000Y97250I0J-2000D01*
G01*
X620500Y44500D02*
G03*
X626000Y50000I0J5500D01*
G01*
X632250Y110250D02*
G03*
X647250Y125250I0J15000D01*
G01*
X565500Y66500D02*
G03*
X578700Y79700I0J13200D01*
G01*
X702750Y57000D02*
G03*
X693000Y66750I-9750J0D01*
G01*
X883700Y48750D02*
G03*
X898700Y33750I15000J0D01*
G01*
X527900Y161850D02*
G03*
X542000Y147750I14100J0D01*
G01*
X964206Y153771D02*
G03*
X953992Y158000I-10189J-10161D01*
G01*
X931000Y181022D02*
G03*
X953992Y158000I23022J-0D01*
G01*
X974000Y130106D02*
G03*
X964211Y153766I-33487J-0D01*
G01*
X570000Y652000D02*
G03*
X564100Y657900I-5900J0D01*
G01*
X558750Y681000D02*
G03*
X535650Y657900I0J-23100D01*
G01*
X431100Y641000D02*
G03*
X412100Y660000I-19000J0D01*
G01*
X447000Y673000D02*
G03*
X431100Y657100I0J-15900D01*
G01*
X649000Y311250D02*
G03*
X659000Y301250I10000J0D01*
G01*
X504250Y496000D02*
G03*
X479500Y471250I0J-24750D01*
G01*
X442750Y555250D02*
G03*
X414500Y527000I0J-28250D01*
G01*
X480750Y453900D02*
G03*
X506150Y428500I25400J0D01*
G01*
X585182Y494313D02*
G03*
X577500Y475750I18587J-18563D01*
G01*
X585182Y494313D02*
G03*
X607250Y547573I-53235J53260D01*
G01*
Y560024D02*
G03*
X526274Y641000I-80976J0D01*
G01*
X1204000Y590250D02*
G03*
X1211500Y597750I0J7500D01*
G01*
X1597716Y568534D02*
G03*
X1598000Y568250I284J0D01*
G01*
X346500Y491750D02*
G03*
X340250Y498000I-6250J0D01*
G01*
X368150Y606500D02*
G03*
X346500Y584850I0J-21650D01*
G01*
X535500Y594000D02*
G03*
X537500Y592000I2000J0D01*
G01*
X535500Y594000D02*
G03*
X551250Y609750I0J15750D01*
G01*
X449139Y615250D02*
G03*
X468774Y638969I-0J19987D01*
G01*
X469200Y639050D02*
G03*
X479000Y629250I9800J0D01*
G01*
X551250Y618148D02*
G03*
X539694Y629253I-11114J0D01*
G01*
X539530Y629250D02*
G03*
X539694Y629253I-16J5000D01*
G01*
X382750Y552750D02*
G03*
X386499Y553218I0J15250D01*
G01*
D02*
G03*
X398000Y568000I-3749J14782D01*
G01*
X564750Y367200D02*
G03*
X585202Y346748I20452J0D01*
G01*
X520000Y594000D02*
G03*
X527250Y601250I0J7250D01*
G01*
X564000Y540100D02*
G03*
X538600Y565500I-25400J0D01*
G01*
X570000D02*
G03*
X574000Y569500I0J4000D01*
G01*
X1474250Y156500D02*
G03*
X1456250Y174500I-18000J0D01*
G01*
X1433500Y125000D02*
G03*
X1427250Y118750I0J-6250D01*
G01*
X1449500Y514750D02*
G03*
X1461500Y526750I0J12000D01*
G01*
X1389000Y506500D02*
G03*
X1393500Y502000I4500J0D01*
G01*
X1480500Y59000D02*
G03*
X1479500Y60000I-1000J0D01*
G01*
X1480500Y59000D02*
G03*
X1500500Y39000I20000J0D01*
G01*
X1627500Y59000D02*
G03*
X1640500Y46000I13000J0D01*
G01*
X1705000D02*
G03*
X1749000Y90000I0J44000D01*
G01*
X1720069Y143680D02*
G03*
X1715969Y144274I-5291J-22071D01*
G01*
X761250Y339500D02*
G03*
X765500Y343750I0J4250D01*
G01*
X980620Y135640D02*
G03*
X981015Y134285I4950J707D01*
G01*
X980620Y135641D02*
G03*
X980107Y138565I-40107J-5534D01*
G01*
X980000Y139576D02*
G03*
X980107Y138565I5000J16D01*
G01*
X1198250Y369250D02*
G03*
X1203750Y363750I5500J0D01*
G01*
X1198250Y369250D02*
G03*
X1191750Y375750I-6500J0D01*
G01*
X1268750Y464000D02*
G03*
X1269000Y464250I0J250D01*
G01*
X1288500Y409000D02*
G03*
X1288250Y408750I0J-250D01*
G01*
X1451650Y441750D02*
G03*
X1438720Y428820I0J-12930D01*
G01*
X1370250Y461250D02*
G03*
X1352500Y479000I-17750J0D01*
G01*
X1445500Y581250D02*
G03*
X1438750Y574500I0J-6750D01*
G01*
X1567700Y94485D02*
G03*
X1570000Y96785I0J2300D01*
G01*
X1517750Y191000D02*
G03*
X1528000Y180750I10250J0D01*
G01*
X1371518Y631853D02*
G03*
X1379857Y635661I-2578J16681D01*
G01*
D02*
G03*
X1384893Y643161I-10716J12636D01*
G01*
X1252750Y646250D02*
G03*
X1247750Y651250I-5000J0D01*
G01*
X1274477Y684250D02*
G03*
X1247750Y657523I0J-26727D01*
G01*
X1387000Y668837D02*
G03*
X1370862Y684250I-16138J-742D01*
G01*
X1384897Y643171D02*
G03*
X1387000Y656503I-40480J13219D01*
G01*
X1255650Y691750D02*
G03*
X1222750Y658850I0J-32900D01*
G01*
X1374938Y691518D02*
G03*
X1371600Y691750I-3338J-23918D01*
G01*
X1395143Y671375D02*
G03*
X1375342Y691454I-23542J-3414D01*
G01*
X1395809Y666775D02*
G03*
X1401500Y661850I5691J825D01*
G01*
X893500Y70500D02*
G03*
X916000Y48000I22500J0D01*
G01*
X919250Y124250D02*
G03*
X900250Y105250I0J-19000D01*
G01*
X897750Y124250D02*
G03*
X893500Y120000I0J-4250D01*
G01*
X963000Y119750D02*
G03*
X958500Y124250I-4500J0D01*
G01*
X1151115Y69820D02*
G03*
X1137250Y52500I3885J-17320D01*
G01*
X374050Y499500D02*
G03*
X365900Y491350I0J-8150D01*
G01*
X372250Y598000D02*
G03*
X356000Y581750I0J-16250D01*
G01*
X372250Y598000D02*
G03*
X364250Y590000I0J-8000D01*
G01*
X372500Y598250D02*
G03*
X372250Y598000I0J-250D01*
G01*
X455350Y526400D02*
G03*
X448250Y533500I-7100J0D01*
G01*
X535500Y509350D02*
G03*
X510100Y534750I-25400J0D01*
G01*
X466935Y533500D02*
G03*
X479750Y546315I0J12815D01*
G01*
X479750Y546331D02*
G03*
X471695Y565796I-27547J-0D01*
G01*
X401666Y641000D02*
G03*
X393351Y632685I0J-8315D01*
G01*
X469200Y571800D02*
G03*
X471666Y565824I8473J0D01*
G01*
X469200Y590800D02*
G03*
X461750Y598250I-7450J0D01*
G01*
X494600Y616500D02*
G03*
X469200Y591100I0J-25400D01*
G01*
X1616200Y434250D02*
G03*
X1618700Y431750I2500J0D01*
G01*
X494600Y616500D02*
G03*
X469200Y591100I0J-25400D01*
G01*
Y571800D02*
G03*
X471666Y565824I8473J0D01*
G01*
X469200Y590819D02*
G03*
X461750Y598250I-7450J-19D01*
G01*
X469200Y590800D02*
G03*
X469200Y590819I-7450J0D01*
G01*
X479750Y546331D02*
G03*
X471695Y565795I-27547J-0D01*
G01*
X466935Y533500D02*
G03*
X479750Y546314I0J12815D01*
G01*
X535500Y509351D02*
G03*
X510100Y534750I-25400J-1D01*
G01*
X455350Y526400D02*
G03*
X448250Y533500I-7100J0D01*
G01*
X401666Y641000D02*
G03*
X393351Y632685I0J-8315D01*
G01*
X372500Y598250D02*
G03*
X372250Y598000I0J-250D01*
G01*
Y598000D02*
G03*
X364250Y590000I0J-8000D01*
G01*
X372250Y598000D02*
G03*
X356000Y581750I0J-16250D01*
G01*
X374050Y499500D02*
G03*
X365900Y491350I0J-8150D01*
G01*
X356000Y501250D02*
G03*
X365500Y491750I9500J0D01*
G01*
X1606250Y334000D02*
G03*
X1616750Y344500I0J10500D01*
G01*
X1582900Y334000D02*
G03*
X1557500Y308600I0J-25400D01*
G01*
Y299500D02*
G03*
X1569500Y287500I12000J0D01*
G01*
X1749400Y434750D02*
G03*
X1724000Y409350I0J-25400D01*
G01*
X1151115Y69820D02*
G03*
X1154159Y71919I-1115J4874D01*
G01*
X1151115Y69820D02*
G03*
X1137250Y52500I3885J-17320D01*
G01*
X513500Y65000D02*
G03*
X527900Y79400I0J14400D01*
G01*
X963000Y119750D02*
G03*
X958500Y124250I-4500J0D01*
G01*
X897750D02*
G03*
X893500Y120000I0J-4250D01*
G01*
X919250Y124250D02*
G03*
X900250Y105250I0J-19000D01*
G01*
X874850Y73500D02*
G03*
X900250Y98900I-0J25400D01*
G01*
X186648Y89636D02*
G03*
X199535Y76750I12886J0D01*
G01*
X963250Y41000D02*
G03*
X956250Y48000I-7000J0D01*
G01*
X893500Y70500D02*
G03*
X916000Y48000I22500J0D01*
G01*
X1462000Y578750D02*
G03*
X1457750Y574500I0J-4250D01*
G01*
X1395809Y666775D02*
G03*
X1401500Y661850I5691J825D01*
G01*
X1395143Y671375D02*
G03*
X1375342Y691454I-23542J-3414D01*
G01*
X1374937Y691518D02*
G03*
X1371600Y691750I-3337J-23918D01*
G01*
X1255650D02*
G03*
X1222750Y658850I0J-32900D01*
G01*
Y622000D02*
G03*
X1223250Y621500I500J0D01*
G01*
X1384897Y643171D02*
G03*
X1387000Y656503I-40480J13219D01*
G01*
X1387000Y668837D02*
G03*
X1370862Y684250I-16138J-742D01*
G01*
X1274476D02*
G03*
X1247750Y657523I0J-26727D01*
G01*
X1252750Y646250D02*
G03*
X1247750Y651250I-5000J0D01*
G01*
X1379857Y635661D02*
G03*
X1384893Y643161I-10716J12636D01*
G01*
X699250Y172500D02*
G03*
X698450Y171700I0J-800D01*
G01*
X1517750Y191000D02*
G03*
X1528000Y180750I10250J0D01*
G01*
X1514500Y122500D02*
G03*
X1509000Y128000I-5500J0D01*
G01*
X1567700Y94485D02*
G03*
X1570000Y96785I-0J2300D01*
G01*
X1464250Y597250D02*
G03*
X1461000Y594000I0J-3250D01*
G01*
X1198250Y369250D02*
G03*
X1191750Y375750I-6500J0D01*
G01*
X980620Y135641D02*
G03*
X980107Y138565I-40107J-5534D01*
G01*
X980620Y135640D02*
G03*
X981015Y134285I4950J707D01*
G01*
X761250Y339500D02*
G03*
X765500Y343750I0J4250D01*
G01*
X1661750Y338000D02*
G03*
X1655750Y332000I0J-6000D01*
G01*
X1749000Y106964D02*
G03*
X1720069Y143680I-37764J0D01*
G01*
X1705000Y46000D02*
G03*
X1749000Y90000I0J44000D01*
G01*
X1607500Y39000D02*
G03*
X1627500Y59000I0J20000D01*
G01*
D02*
G03*
X1640500Y46000I13000J0D01*
G01*
X1480500Y59000D02*
G03*
X1479500Y60000I-1000J0D01*
G01*
X1480500Y59000D02*
G03*
X1500500Y39000I20000J0D01*
G01*
X1181000Y350750D02*
G03*
X1183250Y348500I2250J0D01*
G01*
X1389000Y506500D02*
G03*
X1393500Y502000I4500J0D01*
G01*
X1449500Y514750D02*
G03*
X1461500Y526750I0J12000D01*
G01*
X1433500Y125000D02*
G03*
X1427250Y118750I0J-6250D01*
G01*
X1488750Y195750D02*
G03*
X1475750Y208750I-13000J0D01*
G01*
X1474250Y156500D02*
G03*
X1456250Y174500I-18000J-0D01*
G01*
X570000Y565500D02*
G03*
X574000Y569500I0J4000D01*
G01*
X564000Y540100D02*
G03*
X538600Y565500I-25400J0D01*
G01*
X520000Y594000D02*
G03*
X527250Y601250I0J7250D01*
G01*
X509000Y586500D02*
G03*
X516500Y594000I0J7500D01*
G01*
X492000Y570250D02*
G03*
X494600Y572850I0J2600D01*
G01*
X731000Y393000D02*
G03*
X740250Y383750I9250J0D01*
G01*
X386499Y553218D02*
G03*
X398000Y568000I-3749J14782D01*
G01*
X382750Y552750D02*
G03*
X386499Y553218I0J15250D01*
G01*
X469200Y639050D02*
G03*
X479000Y629250I9800J0D01*
G01*
X449139Y615250D02*
G03*
X468774Y638969I-0J19987D01*
G01*
X539530Y629250D02*
G03*
X539694Y629253I-16J5000D01*
G01*
X551250Y618148D02*
G03*
X539694Y629253I-11114J-0D01*
G01*
X361000Y658000D02*
G03*
X363000Y660000I0J2000D01*
G01*
X596000Y575000D02*
G03*
X579000Y592000I-17000J0D01*
G01*
X535500Y594000D02*
G03*
X551250Y609750I0J15750D01*
G01*
X535500Y594000D02*
G03*
X537500Y592000I2000J0D01*
G01*
X368150Y606500D02*
G03*
X346500Y584944I0J-21650D01*
G01*
D02*
G03*
X346500Y584850I21650J-94D01*
G01*
Y491750D02*
G03*
X340250Y498000I-6250J-0D01*
G01*
X340500Y425150D02*
G03*
X346500Y431150I0J6000D01*
G01*
X1597716Y568534D02*
G03*
X1598000Y568250I284J0D01*
G01*
X1352000Y368000D02*
G03*
X1359100Y360900I7100J0D01*
G01*
X201250Y238750D02*
G03*
X197500Y235000I0J-3750D01*
G01*
X607250Y560024D02*
G03*
X526274Y641000I-80976J0D01*
G01*
X585182Y494313D02*
G03*
X607250Y547573I-53235J53260D01*
G01*
X585182Y494313D02*
G03*
X577500Y475750I18587J-18563D01*
G01*
X553500Y428500D02*
G03*
X577500Y452500I0J24000D01*
G01*
X482514Y444600D02*
G03*
X506114Y428500I23636J9299D01*
G01*
X480750Y453899D02*
G03*
X482514Y444600I25400J1D01*
G01*
X506114Y428500D02*
G03*
X506150Y428500I36J25400D01*
G01*
X442747Y555250D02*
G03*
X414500Y527000I3J-28250D01*
G01*
X504250Y496000D02*
G03*
X479500Y471250I0J-24750D01*
G01*
X414500Y491000D02*
G03*
X477000Y428500I62500J0D01*
G01*
X649000Y311250D02*
G03*
X659000Y301250I10000J0D01*
G01*
X481500Y346977D02*
G03*
X517227Y311250I35727J0D01*
G01*
X447000Y673000D02*
G03*
X431100Y657100I0J-15900D01*
G01*
Y641000D02*
G03*
X431100Y641031I-19000J0D01*
G01*
X431100Y657600D02*
G03*
X405700Y683000I-25400J0D01*
G01*
X431100Y641031D02*
G03*
X412100Y660000I-19000J-31D01*
G01*
X558750Y681000D02*
G03*
X535650Y657900I0J-23100D01*
G01*
X570000Y652000D02*
G03*
X564100Y657900I-5900J0D01*
G01*
X974000Y130106D02*
G03*
X964211Y153766I-33487J-0D01*
G01*
X964206Y153771D02*
G03*
X953992Y158000I-10189J-10161D01*
G01*
X931000Y181021D02*
G03*
X953992Y158000I23022J0D01*
G01*
X974000Y100650D02*
G03*
X1029650Y45000I55650J0D01*
G01*
X527900Y161850D02*
G03*
X542000Y147750I14100J0D01*
G01*
X883700Y48750D02*
G03*
X898700Y33750I15000J0D01*
G01*
X702750Y57000D02*
G03*
X693000Y66750I-9750J0D01*
G01*
X578700Y176250D02*
G03*
X577000Y174550I0J-1700D01*
G01*
X565582Y66500D02*
G03*
X578700Y79700I-82J13200D01*
G01*
X565500Y66500D02*
G03*
X565582Y66500I0J13200D01*
G01*
X1562750Y475100D02*
G03*
X1554350Y483500I-8400J-0D01*
G01*
X632250Y110250D02*
G03*
X647250Y125250I-0J15000D01*
G01*
X620500Y44500D02*
G03*
X626000Y50000I-0J5500D01*
G01*
X739000Y99250D02*
G03*
X737000Y97250I0J-2000D01*
G01*
X502500Y176250D02*
G03*
X498250Y180500I-4250J0D01*
G01*
X1514250Y376800D02*
G03*
X1519300Y371750I5050J0D01*
G01*
X535500Y466350D02*
G03*
X539350Y462500I3850J0D01*
G01*
X455350Y462250D02*
G03*
X457000Y463900I0J1650D01*
G01*
X845000Y355000D02*
G03*
X860000Y340000I15000J0D01*
G01*
X1530250Y167000D02*
G03*
X1519750Y156500I0J-10500D01*
G01*
X1422430Y387570D02*
G03*
X1422000Y388000I-430J0D01*
G01*
X1432000Y360000D02*
G03*
X1431100Y360900I-900J0D01*
G01*
X865000Y419600D02*
G03*
X845000Y399600I0J-20000D01*
G01*
X585000Y538000D02*
G03*
X596000Y549000I0J11000D01*
G01*
X533250Y616500D02*
G03*
X527250Y610500I0J-6000D01*
G01*
X1324930Y390563D02*
G03*
X1324750Y390383I0J-180D01*
G01*
X1231750Y426750D02*
G03*
X1232000Y426500I250J0D01*
G01*
X1305500Y463750D02*
G03*
X1305750Y464000I0J250D01*
G01*
X1444000Y387500D02*
G03*
X1444250Y387750I0J250D01*
G01*
X1360750Y439000D02*
G03*
X1361000Y438750I250J0D01*
G01*
X1446000Y544000D02*
G03*
X1447000Y543000I1000J0D01*
G01*
X1074617Y95617D02*
X1075000Y96000D01*
X1072000Y85250D02*
X1074617Y87867D01*
Y95617D01*
X798737Y342500D02*
X827100D01*
X767256Y325000D02*
X778607Y336351D01*
X798714Y342500D02*
X798737Y342500D01*
X778607Y336351D02*
X778619Y336362D01*
X766169Y323913D02*
X766734Y324516D01*
X700842Y257500D02*
X700842Y257500D01*
X100075D02*
X700842D01*
X1321500Y340750D02*
X1323250Y339000D01*
X1329000D01*
X1325000Y464000D02*
X1326000D01*
X1326000Y464000D01*
X1285000D02*
X1285000Y464000D01*
X1282000Y464000D02*
X1285000D01*
X1691500Y418500D02*
X1710500D01*
X215375Y219375D02*
X225625D01*
X215000Y219750D02*
X215375Y219375D01*
X225625D02*
X226000Y219000D01*
X201617Y212383D02*
X202000Y212000D01*
X191868Y212383D02*
X201617D01*
X191000Y213250D02*
X191868Y212383D01*
X1647110Y580340D02*
X1647220Y580450D01*
X1647000Y566000D02*
X1647110Y566110D01*
Y580340D01*
X1448250Y603000D02*
X1448500Y602750D01*
Y594500D02*
Y602750D01*
Y594500D02*
X1448750Y594250D01*
X1203750Y363750D02*
X1223750D01*
X1224000Y364000D01*
X585202Y346748D02*
X611460D01*
X675826Y373342D02*
X675826Y373342D01*
X611460Y346748D02*
X611476Y346748D01*
X741000Y135250D02*
Y149500D01*
X91016Y262500D02*
X95075D01*
X100075Y257500D01*
X852500Y307500D02*
Y317100D01*
X870000Y290000D02*
X935000D01*
X945000Y460000D02*
Y586900D01*
X161500Y31650D02*
Y71421D01*
X131200Y97500D02*
X135421D01*
X98205Y148000D02*
X152973D01*
X176000Y69000D02*
Y124973D01*
X89042Y101781D02*
X89661Y101555D01*
X89902Y101471D01*
X101200Y97500D01*
X286750Y591679D02*
X303679Y574750D01*
X309863D01*
X316306Y568306D01*
X322750Y561863D01*
Y552750D02*
Y561863D01*
X172500Y213250D02*
Y235000D01*
X252500Y134500D02*
X285000D01*
X1095948Y67948D02*
X1097309D01*
X210250Y164750D02*
X210250D01*
X221250D01*
X1029650Y45000D02*
X1073000D01*
X1097309Y67948D02*
Y68000D01*
X1106762Y109670D02*
X1110830D01*
X498000Y30000D02*
X611241D01*
X611494Y30000D02*
X621256D01*
X611241Y30000D02*
X611257Y30000D01*
X828019Y71267D02*
X828019Y71267D01*
X727873Y41758D02*
Y41758D01*
X821685Y70250D02*
X823528D01*
X858900Y73500D02*
X874850D01*
X432752Y54238D02*
X432752D01*
X442810Y60000D02*
X469000D01*
X199000Y46000D02*
X423000D01*
X483000Y44999D02*
Y46000D01*
X188150Y5000D02*
X936600D01*
X963250Y31650D02*
Y41000D01*
Y41000D01*
X1686000Y174389D02*
Y239100D01*
X1519300Y371750D02*
X1563750D01*
X431100Y563250D02*
Y586500D01*
X478000Y180500D02*
X498250D01*
X739000Y99250D02*
X784500D01*
X615250Y44500D02*
X620500D01*
X619750Y110250D02*
X632250D01*
X565500Y66500D02*
X567679D01*
X686000Y66750D02*
X693000D01*
X898700Y33750D02*
X906750D01*
X527900Y161850D02*
Y176250D01*
X964206Y153771D02*
X964210Y153766D01*
X974000Y100650D02*
Y130106D01*
X931000Y181022D02*
Y205750D01*
X507000Y657900D02*
X535650D01*
X564100D01*
X391000Y660000D02*
X412100D01*
X431100Y641000D02*
Y657100D01*
Y657600D01*
X481500Y346977D02*
Y371250D01*
X517227Y311250D02*
X649000D01*
X480750Y453900D02*
Y462250D01*
X477000Y428500D02*
X506150D01*
X442750Y555250D02*
X445000D01*
X577500Y452500D02*
Y475750D01*
X501000Y496000D02*
X504250D01*
X494600Y641000D02*
X526274D01*
X607250Y547573D02*
Y547595D01*
Y560024D01*
X445000Y555250D02*
X446464Y553786D01*
X506150Y428500D02*
X553500D01*
X446464Y553786D02*
X448250Y552000D01*
X1203750Y590250D02*
X1204000D01*
X1597716Y568534D02*
Y580450D01*
X346500Y491750D02*
Y584850D01*
Y431150D02*
Y473250D01*
Y491750D01*
X339000Y658000D02*
X339836D01*
X361000D01*
X368150Y606500D02*
X393500D01*
X402250Y615250D01*
X449139D01*
X479000Y629250D02*
X539530D01*
X551250Y609750D02*
Y618148D01*
X377750Y547750D02*
X382750Y552750D01*
X398000Y568000D02*
Y583000D01*
Y586500D02*
X418400D01*
X740250Y383750D02*
X764250D01*
X516500Y594000D02*
X520000D01*
X538600Y565500D02*
X570000D01*
X526000D02*
X538600D01*
X564000Y462500D02*
Y540100D01*
X1474250Y137750D02*
Y156500D01*
X1433500Y125000D02*
X1447250D01*
X1461500Y526750D02*
Y530250D01*
X1393500Y502000D02*
X1406750D01*
X1640500Y46000D02*
X1705000D01*
X1457000Y60000D02*
X1479500D01*
X1597650Y287500D02*
X1637600D01*
X765500Y343750D02*
Y355000D01*
X981015Y134285D02*
X981750D01*
X1269000Y464250D02*
Y464500D01*
X1350000Y379900D02*
X1386870D01*
X1288500Y409000D02*
X1288500D01*
X1451650Y441750D02*
X1453750D01*
X1352250Y479000D02*
X1352500D01*
X1445500Y581250D02*
X1447000D01*
X980000Y139576D02*
Y152000D01*
X1514500Y90500D02*
Y122500D01*
X1528000Y180750D02*
X1532500D01*
X1371500Y631850D02*
X1371518Y631853D01*
X1247750Y651250D02*
Y657523D01*
X1274476Y684250D02*
X1370862D01*
X1384893Y643161D02*
X1384896Y643171D01*
X1387000Y656503D02*
Y668447D01*
Y668837D01*
X1222750Y651250D02*
Y658850D01*
X1255650Y691750D02*
X1371600D01*
X1395143Y671375D02*
X1395809Y666775D01*
X1374938Y691518D02*
X1374939D01*
X1375342Y691454D01*
X893500Y70500D02*
Y71192D01*
X916000Y48000D02*
X956250D01*
X900250Y98900D02*
Y105250D01*
X946000Y108000D02*
X951250D01*
X897750Y124250D02*
X958500D01*
X365900Y473250D02*
Y491350D01*
Y425150D02*
Y454500D01*
Y473250D01*
X356000Y501250D02*
Y581750D01*
X374050Y499500D02*
X386500D01*
X448250Y533500D02*
X466935D01*
X471666Y565824D02*
X471695Y565796D01*
X535500Y506750D02*
Y509350D01*
X473500Y534750D02*
X510100D01*
X479750Y546314D02*
Y546331D01*
X469200Y590800D02*
Y591100D01*
X401666Y641000D02*
X418400D01*
X494600Y616500D02*
X514750D01*
X469200Y586500D02*
Y590800D01*
X1622468Y568000D02*
Y580450D01*
X1570000Y96785D02*
Y125000D01*
X1530250Y167000D02*
X1531750D01*
X1500500Y39000D02*
X1607500D01*
X199535Y76750D02*
X216500D01*
X1749000Y90000D02*
Y106964D01*
X1661750Y338000D02*
X1678250D01*
X1749400Y434750D02*
X1767250D01*
X1724000Y405000D02*
Y409350D01*
Y379600D02*
Y405000D01*
X1422430Y379900D02*
Y387570D01*
Y360900D02*
X1431100D01*
X1350000Y379900D02*
Y380000D01*
X1404650Y379900D02*
X1422430D01*
X1386870D02*
X1404650D01*
X1359100Y360900D02*
X1386870D01*
X1404650D02*
X1422430D01*
X1386870D02*
X1404650D01*
X981750Y134285D02*
X986000Y131250D01*
X982959Y134291D02*
X986000Y131250D01*
X937500Y108000D02*
X946000D01*
X845000Y355000D02*
Y399600D01*
X1464250Y597250D02*
X1480250D01*
X1461000Y594000D02*
Y594250D01*
X479500Y463500D02*
Y471250D01*
X558750Y681000D02*
X561000D01*
X537500Y592000D02*
X570000D01*
X579000D01*
X596000Y549000D02*
Y575000D01*
X404000Y683000D02*
X405700D01*
X578700Y79700D02*
Y95150D01*
X577000Y147500D02*
Y174550D01*
X527900Y79400D02*
Y95150D01*
X1155000Y73179D02*
Y80000D01*
X1154159Y71919D02*
X1155000Y73179D01*
X469200Y571800D02*
Y586500D01*
X535500Y466350D02*
Y488250D01*
X457000Y463900D02*
Y486750D01*
X455350Y506500D02*
Y526400D01*
X1569500Y287500D02*
X1572250D01*
X1557500Y299500D02*
Y308600D01*
X1582900Y334000D02*
X1606250D01*
X1562750Y456550D02*
Y475100D01*
X414500Y491000D02*
Y527000D01*
X398000Y583000D02*
Y586500D01*
X374750Y523000D02*
X377620Y525870D01*
X377750D02*
Y547750D01*
X659000Y301250D02*
X678250D01*
X564750Y367200D02*
Y371500D01*
X372500Y598250D02*
X461750D01*
X364250Y582000D02*
Y590000D01*
X527250Y601250D02*
Y610500D01*
X494600Y586500D02*
X509000D01*
X494600Y572850D02*
Y586500D01*
X567250Y572250D02*
X570000Y569500D01*
X1618700Y431750D02*
X1646250D01*
X1183250Y348500D02*
X1205750D01*
X1184250Y375750D02*
X1191750D01*
X1304250Y341000D02*
X1304500D01*
X1324750Y388250D02*
Y390383D01*
X1203750Y590250D02*
Y591504D01*
X1232000Y426500D02*
X1232250D01*
X1222750Y622000D02*
Y651250D01*
X1252750Y623500D02*
Y646250D01*
X1470750Y208750D02*
X1475750D01*
X1616750Y344500D02*
Y352750D01*
X1361000Y438750D02*
X1361750D01*
X1453750Y441750D02*
X1454570Y442570D01*
Y455490D01*
X1462000Y578750D02*
X1480250D01*
X1523000Y608250D02*
X1523230Y608020D01*
Y599180D02*
Y608020D01*
Y599180D02*
X1523460Y598950D01*
X1548115Y599047D02*
Y608406D01*
Y599047D02*
X1548212Y598950D01*
X1572964D02*
X1572982Y598968D01*
Y608482D01*
X1597716Y598950D02*
X1597858Y599092D01*
Y608358D01*
X1598000Y608500D01*
X1548017Y608503D02*
X1548115Y608406D01*
X1572982Y608482D02*
X1573000Y608500D01*
X1622468Y568000D02*
X1622500D01*
X1622468Y598950D02*
X1622484Y598966D01*
Y608484D01*
X1622500Y608500D01*
X1647220Y598950D02*
X1647235Y598965D01*
Y608485D01*
X1647250Y608500D01*
X698450Y141500D02*
Y171700D01*
X784500Y99250D02*
Y99900D01*
X431000Y563250D02*
X431100D01*
X323250Y498000D02*
X340250D01*
X201250Y238750D02*
X215000D01*
X568133Y569500D02*
X570000D01*
D20*
X1360250Y287000D02*
D03*
X1341750D02*
D03*
X191000Y213250D02*
D03*
X172500D02*
D03*
X1250750Y426500D02*
D03*
X1232250D02*
D03*
X1270000Y409000D02*
D03*
X1288500D02*
D03*
X1304250Y341000D02*
D03*
X1285750D02*
D03*
X514750Y616500D02*
D03*
X533250D02*
D03*
D21*
X1596088Y90500D02*
D03*
X1624588Y100000D02*
D03*
Y81000D02*
D03*
X1486000Y100000D02*
D03*
Y81000D02*
D03*
X1514500Y90500D02*
D03*
D22*
X1646000Y102250D02*
D03*
Y83750D02*
D03*
X1465000D02*
D03*
Y102250D02*
D03*
X986000Y112750D02*
D03*
Y131250D02*
D03*
X1072000Y66750D02*
D03*
Y85250D02*
D03*
X1647220Y598950D02*
D03*
Y580450D02*
D03*
X1480250Y578750D02*
D03*
Y597250D02*
D03*
X1361750Y420250D02*
D03*
Y438750D02*
D03*
X1352250Y460500D02*
D03*
Y479000D02*
D03*
X1597716Y580450D02*
D03*
Y598950D02*
D03*
X1622468Y580450D02*
D03*
Y598950D02*
D03*
X1303000Y360750D02*
D03*
Y379250D02*
D03*
X1572964Y580450D02*
D03*
Y598950D02*
D03*
X1548212Y580450D02*
D03*
Y598950D02*
D03*
X1523460Y580450D02*
D03*
Y598950D02*
D03*
X1324750Y406750D02*
D03*
Y388250D02*
D03*
X1325000Y445500D02*
D03*
Y464000D02*
D03*
X1305000Y445500D02*
D03*
Y464000D02*
D03*
X1285000Y445500D02*
D03*
Y464000D02*
D03*
X1265000D02*
D03*
Y445500D02*
D03*
X1245000D02*
D03*
Y464000D02*
D03*
D24*
X1386870Y379900D02*
D03*
Y360900D02*
D03*
X1404650Y379900D02*
D03*
Y360900D02*
D03*
X1422430Y379900D02*
D03*
Y360900D02*
D03*
X215000Y219750D02*
D03*
Y238750D02*
D03*
D29*
X346250Y454500D02*
D03*
X365250D02*
D03*
X346500Y473250D02*
D03*
X365500D02*
D03*
X346500Y491750D02*
D03*
X365500D02*
D03*
X1321500Y340750D02*
D03*
X1340500D02*
D03*
D32*
X516500Y594000D02*
D03*
X535500D02*
D03*
X526000Y565500D02*
D03*
X1457750Y574500D02*
D03*
X1448250Y603000D02*
D03*
X1438750Y574500D02*
D03*
D41*
X1627500Y59000D02*
D03*
X1592500D02*
D03*
X1515500Y59000D02*
D03*
X1480500D02*
D03*
D91*
X214250Y501750D02*
G03*
X186581Y474081I0J-27669D01*
G01*
X262100Y501750D02*
G03*
X286750Y526400I0J24650D01*
G01*
X1596073Y90513D02*
G03*
X1585906Y94485I-10168J-11028D01*
G01*
X1515500Y89500D02*
G03*
X1514500Y90500I-1000J0D01*
G01*
X1518485Y94485D02*
G03*
X1514500Y90500I0J-3985D01*
G01*
X1542300Y69485D02*
G03*
X1542700Y69885I0J400D01*
G01*
X1518485Y94485D02*
G03*
X1514500Y90520I0J-3985D01*
G01*
X1515500Y89500D02*
G03*
X1514500Y90500I-1000J0D01*
G01*
Y90520D02*
G03*
X1514500Y90500I3985J-20D01*
G01*
X1596073Y90513D02*
G03*
X1585906Y94485I-10168J-11028D01*
G01*
X1592500Y59000D02*
G03*
X1596073Y62573I0J3573D01*
G01*
X214250Y501750D02*
X262100D01*
X286750Y607000D02*
X287750Y608000D01*
X286750Y526400D02*
Y591679D01*
Y607000D01*
X1567700Y69485D02*
Y94485D01*
X1585906D01*
X1596073Y62573D02*
Y90513D01*
X1518485Y94485D02*
X1542700D01*
Y69885D02*
Y94485D01*
X1515500Y59000D02*
Y89499D01*
X218750Y666250D02*
X248750D01*
D92*
X87500Y182500D02*
G03*
X93264Y194402I-14244J14244D01*
G01*
X93264Y195084D02*
G03*
X93264Y195085I-10000J0D01*
G01*
X69368Y175005D02*
G03*
X28000Y133600I37J-41405D01*
G01*
X69405Y175005D02*
G03*
X87500Y182500I-0J25591D01*
G01*
X28000Y59000D02*
G03*
X67000Y20000I39000J0D01*
G01*
X83700D02*
G03*
X101200Y37500I0J17500D01*
G01*
X1537250Y127250D02*
G03*
X1538000Y128000I0J750D01*
G01*
X1360250Y287000D02*
G03*
X1360000Y286750I0J-250D01*
G01*
X339836Y658000D02*
G03*
X321100Y666250I-18736J-17150D01*
G01*
X346500Y640850D02*
G03*
X339836Y658000I-25400J0D01*
G01*
X1627338Y83750D02*
G03*
X1624588Y81000I0J-2750D01*
G01*
X1486000Y100000D02*
G03*
X1483750Y102250I-2250J0D01*
G01*
X346500Y640850D02*
G03*
X339836Y658000I-25400J-0D01*
G01*
X339836Y658000D02*
G03*
X321100Y666250I-18736J-17150D01*
G01*
X1651750Y83750D02*
G03*
X1652000Y84000I0J250D01*
G01*
X1457250Y102250D02*
G03*
X1457000Y102000I0J-250D01*
G01*
X93264Y195085D02*
Y197073D01*
X91016Y202500D02*
X92502Y198912D01*
X69368Y175005D02*
X69405D01*
X93264Y194402D02*
Y195084D01*
X92502Y198912D02*
X93264Y197073D01*
X67000Y20000D02*
X83700D01*
X28000Y59000D02*
Y133600D01*
X1538000Y128000D02*
Y128000D01*
X1360000Y286000D02*
Y286750D01*
X1750500Y309000D02*
X1753850D01*
X248750Y666250D02*
X321100D01*
X346500Y584850D02*
Y640850D01*
X1646000Y83750D02*
X1651750D01*
X1627338D02*
X1646000D01*
X1457250Y102250D02*
X1465000D01*
X1483750D01*
D93*
X862300Y619800D02*
G03*
X807500Y565000I0J-54800D01*
G01*
X958000Y193500D02*
G03*
X969000Y182500I11000J0D01*
G01*
X1070000Y160000D02*
G03*
X1047500Y182500I-22500J0D01*
G01*
X782100Y367500D02*
G03*
X807500Y392900I0J25400D01*
G01*
X747900Y367500D02*
G03*
X722500Y342100I0J-25400D01*
G01*
X692498Y290000D02*
G03*
X687820Y288428I86J-8000D01*
G01*
X692500Y290000D02*
G03*
X692498Y290000I84J-8000D01*
G01*
X700000D02*
G03*
X722500Y312500I0J22500D01*
G01*
X675000Y272500D02*
G03*
X682500Y280000I0J7500D01*
G01*
X686481Y287529D02*
G03*
X683123Y283474I4140J-6846D01*
G01*
X686481Y287529D02*
G03*
X687820Y288428I-8231J13721D01*
G01*
X683123Y283474D02*
G03*
X682500Y280000I9377J-3474D01*
G01*
X1052500Y414600D02*
G03*
X1027100Y440000I-25400J0D01*
G01*
X1779250Y283600D02*
G03*
X1753850Y309000I-25400J-0D01*
G01*
X1779250Y283600D02*
G03*
X1753850Y309000I-25400J-0D01*
G01*
X1137250Y255099D02*
G03*
X1137250Y255150I-25400J51D01*
G01*
X1111850Y229750D02*
G03*
X1137250Y255099I0J25400D01*
G01*
X1137250Y518200D02*
G03*
X1111850Y543600I-25400J0D01*
G01*
X1137250Y518200D02*
G03*
X1111850Y543600I-25400J0D01*
G01*
X1137250Y255099D02*
G03*
X1137250Y255150I-25400J51D01*
G01*
X1111850Y229750D02*
G03*
X1137250Y255099I0J25400D01*
G01*
X1103750Y229750D02*
G03*
X1091550Y217550I0J-12200D01*
G01*
X1103750Y229750D02*
G03*
X1091550Y217550I0J-12200D01*
G01*
X1775274Y40471D02*
G03*
X1779250Y56150I-28924J15679D01*
G01*
X1775274Y40471D02*
G03*
X1779250Y56150I-28924J15679D01*
G01*
X1774757Y39622D02*
G03*
X1775274Y40471I-8275J5615D01*
G01*
X1774757Y39622D02*
G03*
X1775274Y40471I-8275J5615D01*
G01*
X1137250Y48650D02*
G03*
X1162650Y23250I25400J0D01*
G01*
X1137250Y48650D02*
G03*
X1162650Y23250I25400J0D01*
G01*
X1723500Y357500D02*
G03*
X1701750Y335750I0J-21750D01*
G01*
X1743805Y12250D02*
G03*
X1792250Y60695I0J48445D01*
G01*
X1743805Y12250D02*
G03*
X1792250Y60695I0J48445D01*
G01*
X1095000Y150000D02*
G03*
X1114250Y169250I0J19250D01*
G01*
X1701750Y332750D02*
G03*
X1725500Y309000I23750J0D01*
G01*
X1792250Y328600D02*
G03*
X1763350Y357500I-28900J0D01*
G01*
X1114250Y32400D02*
G03*
X1134400Y12250I20150J0D01*
G01*
X1070000Y160000D02*
G03*
X1080000Y150000I10000J0D01*
G01*
X1095000D02*
G03*
X1114250Y169250I0J19250D01*
G01*
X590150Y402456D02*
G03*
X590146Y402711I-8000J0D01*
G01*
X597500Y106650D02*
G03*
X578700Y125450I-18800J0D01*
G01*
Y44350D02*
G03*
X597500Y63150I0J18800D01*
G01*
X1743805Y23250D02*
G03*
X1774757Y39622I0J37445D01*
G01*
X590150Y402456D02*
G03*
X590146Y402711I-8000J-0D01*
G01*
X606446Y419500D02*
G03*
X590146Y402711I0J-16307D01*
G01*
X1116950Y197750D02*
G03*
X1114250Y195050I0J-2700D01*
G01*
X807500Y392900D02*
Y565000D01*
X862300Y619800D02*
X977900D01*
X1018250D01*
X969000Y182500D02*
X1047500D01*
X747900Y367500D02*
X782100D01*
X722500Y312500D02*
Y342100D01*
X692500Y290000D02*
X700000D01*
X692498D02*
X692500D01*
X630000Y272500D02*
X675000D01*
X1052500Y365000D02*
Y414600D01*
X992500Y440000D02*
X1027100D01*
X1018250Y543600D02*
X1111850D01*
X1103750Y229750D02*
X1111850D01*
X1091550Y197750D02*
Y217550D01*
X1779250Y56150D02*
Y283600D01*
X1137250Y255099D02*
Y518200D01*
Y48650D02*
Y255099D01*
X1114250Y109670D02*
Y195050D01*
X1114250Y32400D02*
Y106250D01*
X1134400Y12250D02*
X1743804D01*
X506650Y329000D02*
Y371250D01*
X590150Y371500D02*
Y402456D01*
X597500Y63150D02*
Y106650D01*
X1080000Y150000D02*
X1095000D01*
X1723500Y357500D02*
X1763350D01*
X1701750Y332750D02*
Y335750D01*
X1792250Y60695D02*
Y328600D01*
X1162650Y23250D02*
X1743804D01*
X606446Y419500D02*
X760000D01*
X506650Y329000D02*
X506750D01*
D95*
X578700Y176250D02*
D03*
Y125450D02*
D03*
X527900Y176250D02*
D03*
Y125450D02*
D03*
X451700Y176250D02*
D03*
X502500D02*
D03*
X553300D02*
D03*
X502500Y125450D02*
D03*
X553300D02*
D03*
X1664000Y491000D02*
D03*
Y465600D02*
D03*
Y516400D02*
D03*
X578700Y95150D02*
D03*
Y44350D02*
D03*
X527900Y95150D02*
D03*
Y44350D02*
D03*
X451700Y95150D02*
D03*
X502500D02*
D03*
X553300D02*
D03*
X502500Y44350D02*
D03*
X553300D02*
D03*
X1579750Y483500D02*
D03*
X1605150D02*
D03*
X1554350D02*
D03*
X1748250Y643250D02*
D03*
Y373250D02*
D03*
X54000Y559000D02*
D03*
X54000Y468000D02*
D03*
X287750Y608000D02*
D03*
X54000Y578000D02*
D03*
Y669000D02*
D03*
X189250Y647250D02*
D03*
X280250D02*
D03*
X70750D02*
D03*
X161750D02*
D03*
D96*
X252500Y134500D02*
D03*
D03*
X252000Y134000D02*
D03*
X1597716Y568534D02*
D03*
X1598000Y568250D02*
D03*
X749000Y261000D02*
D03*
X1329000Y339000D02*
D03*
X1326000Y464000D02*
D03*
X1282000D02*
D03*
X973000Y346000D02*
D03*
X1224000Y364000D02*
D03*
X1665000Y234000D02*
D03*
X935000Y290000D02*
D03*
X870000Y300000D02*
D03*
X1122750Y93000D02*
D03*
X1360000Y286000D02*
D03*
X1101000Y62000D02*
D03*
X1097309Y67948D02*
D03*
X1103000Y55000D02*
D03*
X1128750Y213027D02*
D03*
X1156000Y217000D02*
D03*
X1162000Y248000D02*
D03*
X1230000Y255000D02*
D03*
X1548000Y247000D02*
D03*
X1566000Y252000D02*
D03*
X1593545Y251378D02*
D03*
X972944Y34500D02*
D03*
X952363D02*
D03*
X1152000Y55000D02*
D03*
X934771Y12337D02*
D03*
X973000Y12000D02*
D03*
X1598000Y267000D02*
D03*
X1671000Y209000D02*
D03*
X1678000Y184000D02*
D03*
X316000Y36000D02*
D03*
X333000Y30000D02*
D03*
X1614000Y274000D02*
D03*
X1539000Y251000D02*
D03*
X1220000Y328250D02*
D03*
X1124000Y342000D02*
D03*
X1264000Y390000D02*
D03*
X1449000Y474500D02*
D03*
Y482500D02*
D03*
X1449250Y490250D02*
D03*
X1437750Y482500D02*
D03*
Y474250D02*
D03*
Y490250D02*
D03*
X1449250Y498000D02*
D03*
X1437750Y497750D02*
D03*
X1234500Y402250D02*
D03*
X1233000Y390500D02*
D03*
X1220750Y408500D02*
D03*
X1245000Y464000D02*
D03*
X1231750Y426750D02*
D03*
X1236500Y444000D02*
D03*
X1288250Y408750D02*
D03*
X1309750Y412500D02*
D03*
X1274640Y424860D02*
D03*
X1282640D02*
D03*
X1305500Y463750D02*
D03*
X1269000Y464500D02*
D03*
X1324930Y390563D02*
D03*
X1325750Y411750D02*
D03*
X1376500Y400250D02*
D03*
X1360750Y439000D02*
D03*
X1328500Y445500D02*
D03*
X1347750Y461250D02*
D03*
X1370250D02*
D03*
D97*
X1278750Y561750D02*
D03*
X835300Y272000D02*
D03*
D99*
X561000Y681000D02*
D03*
X957500Y320000D02*
D03*
X1000000Y295000D02*
D03*
X306000Y579000D02*
D03*
X1457000Y62000D02*
D03*
X1570000Y125000D02*
D03*
X1509000Y128000D02*
D03*
X990000Y200000D02*
D03*
X1090000Y100000D02*
D03*
X880000Y318000D02*
D03*
X866000Y272000D02*
D03*
X946000Y108000D02*
D03*
X1015000Y200000D02*
D03*
X1513750Y633750D02*
D03*
X1678250Y338000D02*
D03*
X1453000Y352750D02*
D03*
X323250Y498000D02*
D03*
X1300750Y484750D02*
D03*
X1312000Y509000D02*
D03*
X1293000Y532750D02*
D03*
X1322000Y426500D02*
D03*
X1447000Y543000D02*
D03*
X678250Y301250D02*
D03*
X764250Y383750D02*
D03*
X585000Y538000D02*
D03*
X374750Y523000D02*
D03*
X389750Y496750D02*
D03*
X425750Y540750D02*
D03*
X492000Y570250D02*
D03*
X574000Y569500D02*
D03*
X221250Y164750D02*
D03*
X255750Y205500D02*
D03*
X285000Y134500D02*
D03*
X283500Y71500D02*
D03*
X216500Y76750D02*
D03*
X513500Y65000D02*
D03*
X565500Y66500D02*
D03*
X639500Y64250D02*
D03*
X739500Y151000D02*
D03*
X945000Y460000D02*
D03*
X1252750Y623500D02*
D03*
X1223250Y621500D02*
D03*
X1417000Y533000D02*
D03*
X1522000Y548000D02*
D03*
X1548750Y547000D02*
D03*
X1574250Y549750D02*
D03*
X1597500Y539750D02*
D03*
X1562751Y456550D02*
D03*
X1402000Y476500D02*
D03*
X1222500Y464250D02*
D03*
X1197250Y459250D02*
D03*
X1200500Y434750D02*
D03*
X1166000Y415750D02*
D03*
X1158750Y391500D02*
D03*
X1184250Y375750D02*
D03*
X1203250Y317750D02*
D03*
X1318000Y300000D02*
D03*
X1315500Y146750D02*
D03*
X1474250Y137750D02*
D03*
X1519750Y156500D02*
D03*
X1352000Y311000D02*
D03*
X1563750Y371750D02*
D03*
X1616750Y352750D02*
D03*
X1691500Y418500D02*
D03*
X1646250Y431750D02*
D03*
X980000Y420000D02*
D03*
X1537250Y127250D02*
D03*
X1517750Y191000D02*
D03*
X1427250Y118750D02*
D03*
X1470750Y208750D02*
D03*
X1406750Y502000D02*
D03*
X1449500Y514750D02*
D03*
X1092000Y271250D02*
D03*
X915000Y157000D02*
D03*
X915000Y65000D02*
D03*
X882250Y364750D02*
D03*
X825000Y325000D02*
D03*
X1444250Y387750D02*
D03*
X404000Y683000D02*
D03*
X504250Y496000D02*
D03*
X761250Y339500D02*
D03*
X619750Y110250D02*
D03*
X542000Y147750D02*
D03*
X577000Y147500D02*
D03*
X478000Y180500D02*
D03*
X837500Y92000D02*
D03*
X699250Y172500D02*
D03*
X686000Y66750D02*
D03*
X753000Y71000D02*
D03*
X737000Y97250D02*
D03*
X1181000Y350750D02*
D03*
X1438720Y428820D02*
D03*
X1211500Y597750D02*
D03*
X1319500Y634750D02*
D03*
X1249000Y489000D02*
D03*
X1275000Y484750D02*
D03*
X1293500Y576750D02*
D03*
X1319500Y535000D02*
D03*
X1659500Y642250D02*
D03*
X615250Y44500D02*
D03*
X857000Y20000D02*
D03*
X906750Y33750D02*
D03*
X1315250Y186250D02*
D03*
X1489500Y541750D02*
D03*
X845750Y162250D02*
D03*
X258000Y239000D02*
D03*
X1558750Y235750D02*
D03*
X1657000Y63000D02*
D03*
X698000Y273000D02*
D03*
X1755000Y335000D02*
D03*
X1730000Y310000D02*
D03*
X1755000D02*
D03*
X1730000Y285000D02*
D03*
X1755000D02*
D03*
X1730000Y260000D02*
D03*
X1755000D02*
D03*
X1730000Y235000D02*
D03*
X1755000Y160000D02*
D03*
Y185000D02*
D03*
X1730000D02*
D03*
Y210000D02*
D03*
Y335000D02*
D03*
X1755000Y235000D02*
D03*
Y210000D02*
D03*
X91016Y232500D02*
D03*
Y262500D02*
D03*
Y292500D02*
D03*
X1767250Y434750D02*
D03*
Y404750D02*
D03*
Y464750D02*
D03*
Y494750D02*
D03*
Y524750D02*
D03*
Y554750D02*
D03*
Y584750D02*
D03*
Y614750D02*
D03*
X35000Y527500D02*
D03*
Y497500D02*
D03*
X101200Y127500D02*
D03*
Y67500D02*
D03*
X131200Y127500D02*
D03*
Y67500D02*
D03*
Y37500D02*
D03*
Y97500D02*
D03*
X101200D02*
D03*
X35000Y607500D02*
D03*
Y637500D02*
D03*
X1371500Y631850D02*
D03*
X1401500Y661850D02*
D03*
X218750Y666250D02*
D03*
X248750D02*
D03*
X100250D02*
D03*
X130250D02*
D03*
X1371500Y661850D02*
D03*
D100*
X1730000Y160000D02*
D03*
X101200Y37500D02*
D03*
D101*
X1716195Y247500D02*
D03*
D102*
X1567700Y69970D02*
D03*
D103*
Y94970D02*
D03*
X1542700D02*
D03*
X1542300Y69970D02*
D03*
X929000Y377300D02*
D03*
Y402700D02*
D03*
X992500Y339800D02*
D03*
Y365200D02*
D03*
X1020000Y365200D02*
D03*
Y339800D02*
D03*
X957500Y402900D02*
D03*
Y377500D02*
D03*
X1015000Y67300D02*
D03*
Y92700D02*
D03*
X1045000Y157700D02*
D03*
Y132300D02*
D03*
X1015000D02*
D03*
Y157700D02*
D03*
X1045000Y92700D02*
D03*
Y67300D02*
D03*
X835000Y419600D02*
D03*
Y445000D02*
D03*
X805000Y272300D02*
D03*
Y297700D02*
D03*
X865000Y445000D02*
D03*
Y419600D02*
D03*
X835000Y297700D02*
D03*
Y272300D02*
D03*
X1272750Y651250D02*
D03*
X1247750D02*
D03*
X1222750D02*
D03*
X1091550Y197750D02*
D03*
X1116950D02*
D03*
X1724000Y405000D02*
D03*
Y379600D02*
D03*
X1616200Y434250D02*
D03*
X1590800D02*
D03*
X858300Y49000D02*
D03*
X883700D02*
D03*
X1597650Y287500D02*
D03*
X1572250D02*
D03*
X1514250Y402200D02*
D03*
Y376800D02*
D03*
X1598500Y647500D02*
D03*
X1573100D02*
D03*
X1547700D02*
D03*
X1597100Y677500D02*
D03*
X1622500D02*
D03*
X1571700D02*
D03*
X1546300D02*
D03*
X673050Y141500D02*
D03*
X698450D02*
D03*
D104*
X1555000Y56000D02*
D03*
X339000Y658000D02*
D03*
X313600Y683400D02*
D03*
X1341500Y671250D02*
D03*
X1431500D02*
D03*
D105*
X46016Y271000D02*
D03*
Y224900D02*
D03*
X58000Y106000D02*
D03*
Y59000D02*
D03*
D106*
X91016Y202500D02*
D03*
X1401500Y631850D02*
D03*
D107*
X187500Y472500D02*
D03*
X297500D02*
D03*
D108*
X451700Y125450D02*
D03*
Y44350D02*
D03*
D109*
X535650Y657900D02*
D03*
X637250Y505500D02*
D03*
X1018250Y543600D02*
D03*
Y619800D02*
D03*
X365900Y374350D02*
D03*
X340500Y425150D02*
D03*
X365900D02*
D03*
D110*
X434050Y505500D02*
D03*
D111*
X1235250Y664650D02*
D03*
D112*
X1197750Y651250D02*
D03*
D113*
X400000Y100000D02*
D03*
X1132500Y600000D02*
D03*
X1700000D02*
D03*
Y100000D02*
D03*
D114*
X315100Y374350D02*
D03*
D115*
X172500Y235000D02*
D03*
X197500D02*
D03*
X1568000Y436500D02*
D03*
X1676500Y394000D02*
D03*
X649000Y311250D02*
D03*
X731000Y393000D02*
D03*
D116*
X364400Y683400D02*
D03*
D117*
X1623900Y647500D02*
D03*
X1647900Y677500D02*
D03*
D118*
X992000Y240000D02*
D03*
X876000Y257000D02*
D03*
X1092000Y280000D02*
D03*
X1437000Y505000D02*
D03*
X1360000Y500000D02*
D03*
X1365000Y520000D02*
D03*
X1614000Y260000D02*
D03*
X1440000Y290000D02*
D03*
X1295332Y502831D02*
D03*
X1288000Y494000D02*
D03*
X1156000Y110000D02*
D03*
X1003000Y173000D02*
D03*
X1075000Y96000D02*
D03*
X676000Y80000D02*
D03*
X922000Y40000D02*
D03*
X939000Y152000D02*
D03*
X716000Y275750D02*
D03*
X673000Y283000D02*
D03*
X333000Y211000D02*
D03*
X872000Y378000D02*
D03*
X801000Y334000D02*
D03*
X745000Y340000D02*
D03*
X739000Y350000D02*
D03*
X670000Y24000D02*
D03*
X750000D02*
D03*
X699000Y45000D02*
D03*
X645000Y41000D02*
D03*
X226000Y219000D02*
D03*
X202000Y212000D02*
D03*
X1594000Y119000D02*
D03*
X1660000Y567000D02*
D03*
X1647000Y566000D02*
D03*
X1448750Y594250D02*
D03*
X1350000Y380000D02*
D03*
X980000Y152000D02*
D03*
X1005000Y120000D02*
D03*
X1538000Y128000D02*
D03*
X932500Y272500D02*
D03*
X977500D02*
D03*
X741000Y135250D02*
D03*
X1162500Y164000D02*
D03*
X691750Y276250D02*
D03*
X630000Y272500D02*
D03*
X1052500Y365000D02*
D03*
X992500Y440000D02*
D03*
X986000Y401750D02*
D03*
X1419250Y145250D02*
D03*
X800500Y14250D02*
D03*
X1652000Y84000D02*
D03*
X1447250Y125000D02*
D03*
X1457000Y102000D02*
D03*
X1456250Y174500D02*
D03*
X1531750Y167000D02*
D03*
X1314375Y322375D02*
D03*
X1453000Y352750D02*
D03*
X1422000Y388000D02*
D03*
X1432000Y360000D02*
D03*
X1352000Y368000D02*
D03*
X1414000Y466000D02*
D03*
X884869Y101283D02*
D03*
X922500Y174750D02*
D03*
X893500Y120000D02*
D03*
Y71192D02*
D03*
X966000Y94000D02*
D03*
X982000Y38000D02*
D03*
X986000Y94000D02*
D03*
X995000Y70000D02*
D03*
X992000Y146270D02*
D03*
X1025000Y400000D02*
D03*
X1030000Y201500D02*
D03*
X860000Y340000D02*
D03*
X784500Y311750D02*
D03*
X1447000Y581250D02*
D03*
X1461000Y594250D02*
D03*
X1302000Y70000D02*
D03*
X1180000Y272000D02*
D03*
X1180250Y199000D02*
D03*
X1203250Y315250D02*
D03*
X1151250Y313500D02*
D03*
X1146750Y144250D02*
D03*
X1203000Y130250D02*
D03*
X1067250Y201500D02*
D03*
X1079000Y178750D02*
D03*
X1111500Y329250D02*
D03*
X950750Y67250D02*
D03*
X644750Y159250D02*
D03*
X931000Y205750D02*
D03*
X958000Y193500D02*
D03*
X1106762Y109670D02*
D03*
X1155000Y80000D02*
D03*
X1492750Y348000D02*
D03*
X649000Y137250D02*
D03*
X1579750Y527750D02*
D03*
X1567750Y533500D02*
D03*
X1532500Y180750D02*
D03*
X760000Y419500D02*
D03*
X506750Y329000D02*
D03*
X1070750Y272000D02*
D03*
X1054250D02*
D03*
X1012500Y271750D02*
D03*
X653250Y239750D02*
D03*
X765500Y355000D02*
D03*
X1093750Y305000D02*
D03*
X807250Y97500D02*
D03*
X1181750Y576000D02*
D03*
X1266000Y375000D02*
D03*
X1166250Y416000D02*
D03*
X1323750Y532250D02*
D03*
X854750Y370000D02*
D03*
X1659128Y643212D02*
D03*
X1513500Y634250D02*
D03*
X922500Y100750D02*
D03*
X963000Y119750D02*
D03*
X919750Y140500D02*
D03*
X1069750Y329750D02*
D03*
X1252750Y121250D02*
D03*
X1253000Y134000D02*
D03*
X1294148Y146456D02*
D03*
X1295500Y175250D02*
D03*
X1202000Y192750D02*
D03*
X1201750Y215000D02*
D03*
X1072250Y215500D02*
D03*
X1314750Y246500D02*
D03*
X1295500Y246750D02*
D03*
X1076750Y313250D02*
D03*
X1233000Y328250D02*
D03*
X1266750D02*
D03*
X1304500Y341000D02*
D03*
X1205750Y348500D02*
D03*
X1266750Y355750D02*
D03*
X1210500Y379250D02*
D03*
X1013250Y397500D02*
D03*
X1191500Y582000D02*
D03*
X1203750Y591504D02*
D03*
X1191250Y598000D02*
D03*
X1314750Y377750D02*
D03*
X1301750Y396000D02*
D03*
X1277250Y508000D02*
D03*
X1277000Y520500D02*
D03*
X1279250Y544000D02*
D03*
X1278500Y562000D02*
D03*
X1329500Y251000D02*
D03*
X1337750Y258250D02*
D03*
X1341750Y364500D02*
D03*
X1347000Y134250D02*
D03*
X1347250Y121250D02*
D03*
X1349250Y353000D02*
D03*
X1401500Y117750D02*
D03*
X1488750Y195750D02*
D03*
X1428000Y202080D02*
D03*
X1436250Y215750D02*
D03*
X1387750Y257000D02*
D03*
X1482699Y259447D02*
D03*
X1368750Y303000D02*
D03*
X1444000Y387500D02*
D03*
X1386250Y486750D02*
D03*
X1389000Y506500D02*
D03*
X1453750Y441750D02*
D03*
X1442750Y462750D02*
D03*
X1490750Y463000D02*
D03*
X1424000Y485250D02*
D03*
X1490000D02*
D03*
X1506250Y518750D02*
D03*
X1401750Y525330D02*
D03*
X1461500Y530250D02*
D03*
X1446000Y544000D02*
D03*
X1503500Y556250D02*
D03*
X1523000Y568250D02*
D03*
X1547750Y569000D02*
D03*
X1507750Y581250D02*
D03*
X1420000Y586250D02*
D03*
Y596000D02*
D03*
X1424250Y608250D02*
D03*
X1523000D02*
D03*
X1548017Y608503D02*
D03*
X1518750Y655250D02*
D03*
X1595740Y200420D02*
D03*
X1655750Y332000D02*
D03*
X1622500Y568000D02*
D03*
X1598000Y568250D02*
D03*
X1561250Y571750D02*
D03*
X1559250Y588750D02*
D03*
X1573000Y608500D02*
D03*
X1598000D02*
D03*
X1622500D02*
D03*
X1647250D02*
D03*
X186648Y89636D02*
D03*
X252000Y134000D02*
D03*
X191500Y183500D02*
D03*
X647250Y125250D02*
D03*
X626000Y50000D02*
D03*
X676750Y52000D02*
D03*
X702750Y57000D02*
D03*
X784500Y99900D02*
D03*
X736500Y58500D02*
D03*
X799500Y75750D02*
D03*
X963250Y41000D02*
D03*
X710000Y68750D02*
D03*
X844750Y114000D02*
D03*
X776750Y129250D02*
D03*
X861250Y131000D02*
D03*
X864750Y154500D02*
D03*
X657000Y283250D02*
D03*
X705000Y310250D02*
D03*
X788250Y395000D02*
D03*
X246936Y89825D02*
D03*
X274000Y87250D02*
D03*
X270250Y174250D02*
D03*
X234250Y183000D02*
D03*
X639500Y98000D02*
D03*
X365750Y184500D02*
D03*
X294250Y155500D02*
D03*
X302500Y66750D02*
D03*
X393350Y632685D02*
D03*
X400000Y127500D02*
D03*
X420000Y120000D02*
D03*
X427500Y100000D02*
D03*
X420000Y80000D02*
D03*
X400000Y72500D02*
D03*
X380000Y80000D02*
D03*
X372500Y100000D02*
D03*
X380000Y120000D02*
D03*
X1132500Y627500D02*
D03*
X1152500Y620000D02*
D03*
X1160000Y600000D02*
D03*
X1152500Y580000D02*
D03*
X1132500Y572500D02*
D03*
X1112500Y580000D02*
D03*
X1105000Y600000D02*
D03*
X1112500Y620000D02*
D03*
X1680000D02*
D03*
X1672500Y600000D02*
D03*
X1680000Y580000D02*
D03*
X1700000Y572500D02*
D03*
X1720000Y580000D02*
D03*
X1727500Y600000D02*
D03*
X1720000Y620000D02*
D03*
X1700000Y627500D02*
D03*
X1680000Y120000D02*
D03*
X1672500Y100000D02*
D03*
X1680000Y80000D02*
D03*
X1700000Y72500D02*
D03*
X1720000Y80000D02*
D03*
X1727500Y100000D02*
D03*
X1720000Y120000D02*
D03*
X1700000Y127500D02*
D03*
D119*
X263000Y121000D02*
D03*
X431000Y563250D02*
D03*
X364250Y582000D02*
D03*
D120*
X570000Y652000D02*
D03*
Y592000D02*
D03*
D121*
X507000Y673000D02*
D03*
X447000D02*
D03*
X382750Y552750D02*
D03*
X322750D02*
D03*
D122*
X535500Y506750D02*
D03*
Y488250D02*
D03*
X457000Y486750D02*
D03*
Y505250D02*
D03*
X448250Y552000D02*
D03*
Y533500D02*
D03*
D123*
X418400Y641000D02*
D03*
X431100D02*
D03*
X443800D02*
D03*
X456500D02*
D03*
X469200D02*
D03*
X481900D02*
D03*
X494600D02*
D03*
X418400Y586500D02*
D03*
X431100D02*
D03*
X443800D02*
D03*
X456500D02*
D03*
X469200D02*
D03*
X481900D02*
D03*
X494600D02*
D03*
D124*
X363000Y660000D02*
D03*
X391000D02*
D03*
D125*
X398000Y583000D02*
D03*
Y611000D02*
D03*
D126*
X506150Y371250D02*
D03*
X480750D02*
D03*
X455350D02*
D03*
X506150Y462250D02*
D03*
X480750D02*
D03*
X455350D02*
D03*
X590150Y371500D02*
D03*
X564750D02*
D03*
X539350D02*
D03*
X590150Y462500D02*
D03*
X564750D02*
D03*
X539350D02*
D03*
M02*
