G04*
G04 #@! TF.GenerationSoftware,Altium Limited,Altium Designer,22.11.1 (43)*
G04*
G04 Layer_Color=16711935*
%FSLAX44Y44*%
%MOMM*%
G71*
G04*
G04 #@! TF.SameCoordinates,29317E8A-5C5B-4438-BA8D-C417C64156BC*
G04*
G04*
G04 #@! TF.FilePolarity,Negative*
G04*
G01*
G75*
%ADD45R,1.4600X1.0600*%
%ADD47R,1.3100X1.5100*%
%ADD48R,1.5100X1.3100*%
%ADD53R,1.0600X1.4600*%
G04:AMPARAMS|DCode=58|XSize=0.81mm|YSize=1.41mm|CornerRadius=0.2425mm|HoleSize=0mm|Usage=FLASHONLY|Rotation=180.000|XOffset=0mm|YOffset=0mm|HoleType=Round|Shape=RoundedRectangle|*
%AMROUNDEDRECTD58*
21,1,0.8100,0.9250,0,0,180.0*
21,1,0.3250,1.4100,0,0,180.0*
1,1,0.4850,-0.1625,0.4625*
1,1,0.4850,0.1625,0.4625*
1,1,0.4850,0.1625,-0.4625*
1,1,0.4850,-0.1625,-0.4625*
%
%ADD58ROUNDEDRECTD58*%
G04:AMPARAMS|DCode=68|XSize=1.46mm|YSize=1.26mm|CornerRadius=0.355mm|HoleSize=0mm|Usage=FLASHONLY|Rotation=90.000|XOffset=0mm|YOffset=0mm|HoleType=Round|Shape=RoundedRectangle|*
%AMROUNDEDRECTD68*
21,1,1.4600,0.5500,0,0,90.0*
21,1,0.7500,1.2600,0,0,90.0*
1,1,0.7100,0.2750,0.3750*
1,1,0.7100,0.2750,-0.3750*
1,1,0.7100,-0.2750,-0.3750*
1,1,0.7100,-0.2750,0.3750*
%
%ADD68ROUNDEDRECTD68*%
%ADD71C,1.9600*%
%ADD72C,1.6600*%
%ADD73R,1.6600X1.6600*%
%ADD74C,1.7600*%
G04:AMPARAMS|DCode=75|XSize=1.76mm|YSize=1.76mm|CornerRadius=0.48mm|HoleSize=0mm|Usage=FLASHONLY|Rotation=0.000|XOffset=0mm|YOffset=0mm|HoleType=Round|Shape=RoundedRectangle|*
%AMROUNDEDRECTD75*
21,1,1.7600,0.8000,0,0,0.0*
21,1,0.8000,1.7600,0,0,0.0*
1,1,0.9600,0.4000,-0.4000*
1,1,0.9600,-0.4000,-0.4000*
1,1,0.9600,-0.4000,0.4000*
1,1,0.9600,0.4000,0.4000*
%
%ADD75ROUNDEDRECTD75*%
%ADD76C,3.3600*%
%ADD77C,2.1600*%
G04:AMPARAMS|DCode=78|XSize=2.16mm|YSize=2.16mm|CornerRadius=0.58mm|HoleSize=0mm|Usage=FLASHONLY|Rotation=180.000|XOffset=0mm|YOffset=0mm|HoleType=Round|Shape=RoundedRectangle|*
%AMROUNDEDRECTD78*
21,1,2.1600,1.0000,0,0,180.0*
21,1,1.0000,2.1600,0,0,180.0*
1,1,1.1600,-0.5000,0.5000*
1,1,1.1600,0.5000,0.5000*
1,1,1.1600,0.5000,-0.5000*
1,1,1.1600,-0.5000,-0.5000*
%
%ADD78ROUNDEDRECTD78*%
%ADD79C,1.5600*%
%ADD80R,1.9600X1.9600*%
%ADD81C,8.1600*%
%ADD82R,1.7600X1.7600*%
%ADD83C,1.1600*%
%ADD84C,1.3600*%
G04:AMPARAMS|DCode=85|XSize=1.36mm|YSize=1.36mm|CornerRadius=0.38mm|HoleSize=0mm|Usage=FLASHONLY|Rotation=270.000|XOffset=0mm|YOffset=0mm|HoleType=Round|Shape=RoundedRectangle|*
%AMROUNDEDRECTD85*
21,1,1.3600,0.6000,0,0,270.0*
21,1,0.6000,1.3600,0,0,270.0*
1,1,0.7600,-0.3000,-0.3000*
1,1,0.7600,-0.3000,0.3000*
1,1,0.7600,0.3000,0.3000*
1,1,0.7600,0.3000,-0.3000*
%
%ADD85ROUNDEDRECTD85*%
%ADD86C,1.4600*%
%ADD87R,2.1600X2.1600*%
G04:AMPARAMS|DCode=88|XSize=2.16mm|YSize=2.16mm|CornerRadius=0.58mm|HoleSize=0mm|Usage=FLASHONLY|Rotation=90.000|XOffset=0mm|YOffset=0mm|HoleType=Round|Shape=RoundedRectangle|*
%AMROUNDEDRECTD88*
21,1,2.1600,1.0000,0,0,90.0*
21,1,1.0000,2.1600,0,0,90.0*
1,1,1.1600,0.5000,0.5000*
1,1,1.1600,0.5000,-0.5000*
1,1,1.1600,-0.5000,-0.5000*
1,1,1.1600,-0.5000,0.5000*
%
%ADD88ROUNDEDRECTD88*%
G04:AMPARAMS|DCode=89|XSize=1.96mm|YSize=1.96mm|CornerRadius=0.53mm|HoleSize=0mm|Usage=FLASHONLY|Rotation=270.000|XOffset=0mm|YOffset=0mm|HoleType=Round|Shape=RoundedRectangle|*
%AMROUNDEDRECTD89*
21,1,1.9600,0.9000,0,0,270.0*
21,1,0.9000,1.9600,0,0,270.0*
1,1,1.0600,-0.4500,-0.4500*
1,1,1.0600,-0.4500,0.4500*
1,1,1.0600,0.4500,0.4500*
1,1,1.0600,0.4500,-0.4500*
%
%ADD89ROUNDEDRECTD89*%
%ADD90C,2.6600*%
G04:AMPARAMS|DCode=127|XSize=3.66mm|YSize=1.66mm|CornerRadius=0.455mm|HoleSize=0mm|Usage=FLASHONLY|Rotation=0.000|XOffset=0mm|YOffset=0mm|HoleType=Round|Shape=RoundedRectangle|*
%AMROUNDEDRECTD127*
21,1,3.6600,0.7500,0,0,0.0*
21,1,2.7500,1.6600,0,0,0.0*
1,1,0.9100,1.3750,-0.3750*
1,1,0.9100,-1.3750,-0.3750*
1,1,0.9100,-1.3750,0.3750*
1,1,0.9100,1.3750,0.3750*
%
%ADD127ROUNDEDRECTD127*%
G04:AMPARAMS|DCode=128|XSize=3.66mm|YSize=1.66mm|CornerRadius=0.455mm|HoleSize=0mm|Usage=FLASHONLY|Rotation=270.000|XOffset=0mm|YOffset=0mm|HoleType=Round|Shape=RoundedRectangle|*
%AMROUNDEDRECTD128*
21,1,3.6600,0.7500,0,0,270.0*
21,1,2.7500,1.6600,0,0,270.0*
1,1,0.9100,-0.3750,-1.3750*
1,1,0.9100,-0.3750,1.3750*
1,1,0.9100,0.3750,1.3750*
1,1,0.9100,0.3750,-1.3750*
%
%ADD128ROUNDEDRECTD128*%
G04:AMPARAMS|DCode=129|XSize=1.51mm|YSize=1.31mm|CornerRadius=0.3675mm|HoleSize=0mm|Usage=FLASHONLY|Rotation=0.000|XOffset=0mm|YOffset=0mm|HoleType=Round|Shape=RoundedRectangle|*
%AMROUNDEDRECTD129*
21,1,1.5100,0.5750,0,0,0.0*
21,1,0.7750,1.3100,0,0,0.0*
1,1,0.7350,0.3875,-0.2875*
1,1,0.7350,-0.3875,-0.2875*
1,1,0.7350,-0.3875,0.2875*
1,1,0.7350,0.3875,0.2875*
%
%ADD129ROUNDEDRECTD129*%
G04:AMPARAMS|DCode=130|XSize=0.76mm|YSize=1.61mm|CornerRadius=0.23mm|HoleSize=0mm|Usage=FLASHONLY|Rotation=0.000|XOffset=0mm|YOffset=0mm|HoleType=Round|Shape=RoundedRectangle|*
%AMROUNDEDRECTD130*
21,1,0.7600,1.1500,0,0,0.0*
21,1,0.3000,1.6100,0,0,0.0*
1,1,0.4600,0.1500,-0.5750*
1,1,0.4600,-0.1500,-0.5750*
1,1,0.4600,-0.1500,0.5750*
1,1,0.4600,0.1500,0.5750*
%
%ADD130ROUNDEDRECTD130*%
G04:AMPARAMS|DCode=131|XSize=2.11mm|YSize=1.56mm|CornerRadius=0.43mm|HoleSize=0mm|Usage=FLASHONLY|Rotation=270.000|XOffset=0mm|YOffset=0mm|HoleType=Round|Shape=RoundedRectangle|*
%AMROUNDEDRECTD131*
21,1,2.1100,0.7000,0,0,270.0*
21,1,1.2500,1.5600,0,0,270.0*
1,1,0.8600,-0.3500,-0.6250*
1,1,0.8600,-0.3500,0.6250*
1,1,0.8600,0.3500,0.6250*
1,1,0.8600,0.3500,-0.6250*
%
%ADD131ROUNDEDRECTD131*%
G04:AMPARAMS|DCode=132|XSize=2.11mm|YSize=1.56mm|CornerRadius=0.43mm|HoleSize=0mm|Usage=FLASHONLY|Rotation=180.000|XOffset=0mm|YOffset=0mm|HoleType=Round|Shape=RoundedRectangle|*
%AMROUNDEDRECTD132*
21,1,2.1100,0.7000,0,0,180.0*
21,1,1.2500,1.5600,0,0,180.0*
1,1,0.8600,-0.6250,0.3500*
1,1,0.8600,0.6250,0.3500*
1,1,0.8600,0.6250,-0.3500*
1,1,0.8600,-0.6250,-0.3500*
%
%ADD132ROUNDEDRECTD132*%
G04:AMPARAMS|DCode=133|XSize=1.66mm|YSize=2.26mm|CornerRadius=0.455mm|HoleSize=0mm|Usage=FLASHONLY|Rotation=180.000|XOffset=0mm|YOffset=0mm|HoleType=Round|Shape=RoundedRectangle|*
%AMROUNDEDRECTD133*
21,1,1.6600,1.3500,0,0,180.0*
21,1,0.7500,2.2600,0,0,180.0*
1,1,0.9100,-0.3750,0.6750*
1,1,0.9100,0.3750,0.6750*
1,1,0.9100,0.3750,-0.6750*
1,1,0.9100,-0.3750,-0.6750*
%
%ADD133ROUNDEDRECTD133*%
D45*
X1386870Y379900D02*
D03*
Y360900D02*
D03*
X1404650Y379900D02*
D03*
Y360900D02*
D03*
X1422430Y379900D02*
D03*
Y360900D02*
D03*
X69250Y219750D02*
D03*
Y238750D02*
D03*
D47*
X45250Y213250D02*
D03*
X26750D02*
D03*
X1250750Y426500D02*
D03*
X1232250D02*
D03*
X1270000Y409000D02*
D03*
X1288500D02*
D03*
X1304250Y341000D02*
D03*
X1285750D02*
D03*
X1631310Y279040D02*
D03*
X1649810D02*
D03*
X1630040Y226630D02*
D03*
X1648540D02*
D03*
X1630040Y174300D02*
D03*
X1648540D02*
D03*
X514750Y616500D02*
D03*
X533250D02*
D03*
D48*
X986000Y112750D02*
D03*
Y131250D02*
D03*
X1072000Y66750D02*
D03*
Y85250D02*
D03*
X1647220Y598950D02*
D03*
Y580450D02*
D03*
X1480250Y578750D02*
D03*
Y597250D02*
D03*
X1361750Y420250D02*
D03*
Y438750D02*
D03*
X1352250Y460500D02*
D03*
Y479000D02*
D03*
X1597716Y580450D02*
D03*
Y598950D02*
D03*
X1622468Y580450D02*
D03*
Y598950D02*
D03*
X1303000Y360750D02*
D03*
Y379250D02*
D03*
X1572964Y580450D02*
D03*
Y598950D02*
D03*
X1548212Y580450D02*
D03*
Y598950D02*
D03*
X1523460Y580450D02*
D03*
Y598950D02*
D03*
X1324750Y406750D02*
D03*
Y388250D02*
D03*
X1325000Y445500D02*
D03*
Y464000D02*
D03*
X1305000Y445500D02*
D03*
Y464000D02*
D03*
X1285000Y445500D02*
D03*
Y464000D02*
D03*
X1265000D02*
D03*
Y445500D02*
D03*
X1245000D02*
D03*
Y464000D02*
D03*
D53*
X346250Y454500D02*
D03*
X365250D02*
D03*
X346500Y473250D02*
D03*
X365500D02*
D03*
X346500Y491750D02*
D03*
X365500D02*
D03*
X1321500Y340750D02*
D03*
X1340500D02*
D03*
D58*
X1695810Y231080D02*
D03*
X1676810D02*
D03*
X1686310Y202580D02*
D03*
X516500Y594000D02*
D03*
X535500D02*
D03*
X526000Y565500D02*
D03*
X1457750Y574500D02*
D03*
X1448250Y603000D02*
D03*
X1438750Y574500D02*
D03*
X1686310Y254990D02*
D03*
X1676810Y283490D02*
D03*
X1695810D02*
D03*
X1686310Y150250D02*
D03*
X1676810Y178750D02*
D03*
X1695810D02*
D03*
D68*
X1619250Y257241D02*
D03*
X1654250D02*
D03*
Y204830D02*
D03*
X1619250D02*
D03*
Y152500D02*
D03*
X1654250D02*
D03*
D71*
X1015000Y67300D02*
D03*
Y92700D02*
D03*
X1045000Y157700D02*
D03*
Y132300D02*
D03*
X1015000Y132300D02*
D03*
Y157700D02*
D03*
X1045000Y92700D02*
D03*
Y67300D02*
D03*
X835000Y419600D02*
D03*
Y445000D02*
D03*
X805000Y272300D02*
D03*
Y297700D02*
D03*
X865000Y445000D02*
D03*
Y419600D02*
D03*
X835000Y297700D02*
D03*
Y272300D02*
D03*
X1272750Y651250D02*
D03*
X1247750D02*
D03*
X1222750D02*
D03*
X1091550Y197750D02*
D03*
X1116950D02*
D03*
X1724000Y405000D02*
D03*
Y379600D02*
D03*
X1616200Y434250D02*
D03*
X1590800D02*
D03*
X858300Y48750D02*
D03*
X883700D02*
D03*
X1597650Y287500D02*
D03*
X1572250D02*
D03*
X1514250Y402200D02*
D03*
Y376800D02*
D03*
X1599500Y644000D02*
D03*
X1574100D02*
D03*
X1548700D02*
D03*
X1599500Y679750D02*
D03*
X1624900D02*
D03*
X1574100D02*
D03*
X1548700D02*
D03*
X673050Y141500D02*
D03*
X698450D02*
D03*
D72*
X578700Y176250D02*
D03*
Y125450D02*
D03*
X527900Y176250D02*
D03*
Y125450D02*
D03*
X451700Y176250D02*
D03*
X502500D02*
D03*
X553300D02*
D03*
X502500Y125450D02*
D03*
X553300D02*
D03*
X1664000Y491000D02*
D03*
Y465600D02*
D03*
Y516400D02*
D03*
X578700Y95150D02*
D03*
Y44350D02*
D03*
X527900Y95150D02*
D03*
Y44350D02*
D03*
X451700Y95150D02*
D03*
X502500D02*
D03*
X553300D02*
D03*
X502500Y44350D02*
D03*
X553300D02*
D03*
X1579750Y483500D02*
D03*
X1605150D02*
D03*
X1554350D02*
D03*
D73*
X451700Y125450D02*
D03*
Y44350D02*
D03*
D74*
X535650Y657900D02*
D03*
X637250Y505500D02*
D03*
X1018250Y543600D02*
D03*
Y619800D02*
D03*
X365900Y374350D02*
D03*
X340500Y425150D02*
D03*
X365900D02*
D03*
D75*
X434050Y505500D02*
D03*
D76*
X53500Y142500D02*
D03*
Y95500D02*
D03*
D77*
X990000Y200000D02*
D03*
X1090000Y100000D02*
D03*
X880000Y318000D02*
D03*
X866000Y272000D02*
D03*
X946000Y108000D02*
D03*
X1015000Y200000D02*
D03*
X1513750Y633750D02*
D03*
X1678250Y338000D02*
D03*
X1453000Y352750D02*
D03*
X323250Y498000D02*
D03*
X1300750Y484750D02*
D03*
X1312000Y509000D02*
D03*
X1293000Y532750D02*
D03*
X1322000Y426500D02*
D03*
X1447000Y543000D02*
D03*
X678250Y301250D02*
D03*
X764250Y383750D02*
D03*
X585000Y538000D02*
D03*
X287500Y574750D02*
D03*
X374750Y523000D02*
D03*
X389750Y496750D02*
D03*
X425750Y540750D02*
D03*
X492000Y570250D02*
D03*
X574000Y569500D02*
D03*
X221250Y164750D02*
D03*
X255750Y205500D02*
D03*
X285000Y134500D02*
D03*
X283500Y71500D02*
D03*
X216500Y76750D02*
D03*
X513500Y65000D02*
D03*
X565500Y66500D02*
D03*
X639500Y64250D02*
D03*
X739500Y151000D02*
D03*
X952500Y463750D02*
D03*
X1252750Y623500D02*
D03*
X1223250Y621500D02*
D03*
X1417000Y533000D02*
D03*
X1522000Y548000D02*
D03*
X1548750Y547000D02*
D03*
X1574250Y549750D02*
D03*
X1597500Y539750D02*
D03*
X1562750Y438000D02*
D03*
X1402000Y476500D02*
D03*
X1222500Y464250D02*
D03*
X1197250Y459250D02*
D03*
X1200500Y434750D02*
D03*
X1166000Y415750D02*
D03*
X1158750Y391500D02*
D03*
X1184250Y375750D02*
D03*
X1203250Y317750D02*
D03*
X1318000Y300000D02*
D03*
X1315500Y146750D02*
D03*
X1474250Y137750D02*
D03*
X1519750Y156500D02*
D03*
X1519500Y294000D02*
D03*
X1563750Y371750D02*
D03*
X1616750Y352750D02*
D03*
X1691500Y418500D02*
D03*
X1646250Y431750D02*
D03*
X987750Y384000D02*
D03*
X1537250Y127250D02*
D03*
X1517750Y191000D02*
D03*
X1427250Y118750D02*
D03*
X1470750Y208750D02*
D03*
X1406750Y502000D02*
D03*
X1449500Y514750D02*
D03*
X1092000Y271250D02*
D03*
X924250Y143750D02*
D03*
X915000Y65000D02*
D03*
X882250Y364750D02*
D03*
X825000Y325000D02*
D03*
X1582500Y315250D02*
D03*
X1684000Y305250D02*
D03*
X1669000Y196000D02*
D03*
X1651000Y128500D02*
D03*
X1444250Y387750D02*
D03*
X404000Y683000D02*
D03*
X504250Y496000D02*
D03*
X761250Y339500D02*
D03*
X619750Y110250D02*
D03*
X542000Y147750D02*
D03*
X577000Y147500D02*
D03*
X478000Y180500D02*
D03*
X837500Y92000D02*
D03*
X699250Y172500D02*
D03*
X686000Y66750D02*
D03*
X790750Y58000D02*
D03*
X737000Y97250D02*
D03*
X1181000Y350750D02*
D03*
X1438720Y428820D02*
D03*
X1211500Y597750D02*
D03*
X1319500Y634750D02*
D03*
X1249000Y489000D02*
D03*
X1275000Y484750D02*
D03*
X1293500Y576750D02*
D03*
X1319500Y535000D02*
D03*
X1659500Y642250D02*
D03*
X615250Y44500D02*
D03*
X866250Y22750D02*
D03*
X906750Y33750D02*
D03*
X1315250Y186250D02*
D03*
X1489500Y541750D02*
D03*
X845750Y162250D02*
D03*
X112250Y239000D02*
D03*
X1558750Y235750D02*
D03*
X1592500Y234500D02*
D03*
X692250Y276000D02*
D03*
X561000Y681000D02*
D03*
X96700Y164000D02*
D03*
Y104000D02*
D03*
X126700Y164000D02*
D03*
Y104000D02*
D03*
Y74000D02*
D03*
Y134000D02*
D03*
X96700D02*
D03*
X1767250Y614750D02*
D03*
Y584750D02*
D03*
Y554750D02*
D03*
Y524750D02*
D03*
Y494750D02*
D03*
Y464750D02*
D03*
Y404750D02*
D03*
Y434750D02*
D03*
X34500Y427000D02*
D03*
Y457000D02*
D03*
X1371500Y631850D02*
D03*
X1401500Y661850D02*
D03*
X218750Y666250D02*
D03*
X248750D02*
D03*
X100250D02*
D03*
X130250D02*
D03*
X1725500Y284000D02*
D03*
Y259000D02*
D03*
X1750500Y159000D02*
D03*
Y284000D02*
D03*
Y309000D02*
D03*
X1725500D02*
D03*
Y334000D02*
D03*
X1750500Y259000D02*
D03*
X1725500Y234000D02*
D03*
X1750500D02*
D03*
X1725500Y209000D02*
D03*
X1750500D02*
D03*
X1725500Y184000D02*
D03*
X1750500D02*
D03*
X1725500Y159000D02*
D03*
X1371500Y661850D02*
D03*
D78*
X96700Y74000D02*
D03*
D79*
X1235250Y664650D02*
D03*
D80*
X1197750Y651250D02*
D03*
D81*
X400000Y100000D02*
D03*
X1132500Y600000D02*
D03*
X1700000D02*
D03*
Y100000D02*
D03*
D82*
X315100Y374350D02*
D03*
D83*
X26750Y235000D02*
D03*
X51750D02*
D03*
D84*
X339000Y658000D02*
D03*
X313600Y683400D02*
D03*
X1341500Y671250D02*
D03*
X1431500D02*
D03*
D85*
X364400Y683400D02*
D03*
D86*
X1764305Y246500D02*
D03*
D87*
X1750500Y334000D02*
D03*
D88*
X1401500Y631850D02*
D03*
D89*
X1624900Y644000D02*
D03*
X1650300Y679750D02*
D03*
D90*
X248250Y428500D02*
D03*
X138250D02*
D03*
D127*
X570000Y652000D02*
D03*
Y592000D02*
D03*
D128*
X507000Y673000D02*
D03*
X447000D02*
D03*
X382750Y552750D02*
D03*
X322750D02*
D03*
D129*
X535500Y506750D02*
D03*
Y488250D02*
D03*
X457000Y486750D02*
D03*
Y505250D02*
D03*
X448250Y552000D02*
D03*
Y533500D02*
D03*
D130*
X418400Y641000D02*
D03*
X431100D02*
D03*
X443800D02*
D03*
X456500D02*
D03*
X469200D02*
D03*
X481900D02*
D03*
X494600D02*
D03*
X418400Y586500D02*
D03*
X431100D02*
D03*
X443800D02*
D03*
X456500D02*
D03*
X469200D02*
D03*
X481900D02*
D03*
X494600D02*
D03*
D131*
X363000Y660000D02*
D03*
X391000D02*
D03*
D132*
X398000Y583000D02*
D03*
Y611000D02*
D03*
D133*
X506150Y371250D02*
D03*
X480750D02*
D03*
X455350D02*
D03*
X506150Y462250D02*
D03*
X480750D02*
D03*
X455350D02*
D03*
X590150Y371500D02*
D03*
X564750D02*
D03*
X539350D02*
D03*
X590150Y462500D02*
D03*
X564750D02*
D03*
X539350D02*
D03*
M02*
