G04*
G04 #@! TF.GenerationSoftware,Altium Limited,Altium Designer,22.11.1 (43)*
G04*
G04 Layer_Color=2752767*
%FSLAX44Y44*%
%MOMM*%
G71*
G04*
G04 #@! TF.SameCoordinates,703FB55D-1442-4A2A-B505-2E36BED11F84*
G04*
G04*
G04 #@! TF.FilePolarity,Positive*
G04*
G01*
G75*
%ADD138C,0.1270*%
D138*
X967420Y337420D02*
X969960Y342500D01*
X967420Y347580D01*
X972500Y345040D01*
X977580Y347580D01*
X975040Y342500D01*
X977580Y337420D01*
X972500Y339960D01*
X967420Y337420D01*
X969452Y339452D02*
X970976Y342500D01*
X969452Y345548D01*
X972500Y344024D01*
X975548Y345548D01*
X974024Y342500D01*
X975548Y339452D01*
X972500Y340976D01*
X969452Y339452D01*
X919960Y172210D02*
Y169670D01*
X925040D01*
Y172210D01*
X927580D01*
Y177290D01*
X925040D01*
Y179830D01*
X919960D01*
Y177290D01*
X917420D01*
Y172210D01*
X919960D01*
X920976Y173226D02*
Y171702D01*
X924024D01*
Y173226D01*
X925548D01*
Y176274D01*
X924024D01*
Y177798D01*
X920976D01*
Y176274D01*
X919452D01*
Y173226D01*
X920976D01*
X937460Y36460D02*
Y33920D01*
X942540D01*
Y36460D01*
X945080D01*
Y41540D01*
X942540D01*
Y44080D01*
X937460D01*
Y41540D01*
X934920D01*
Y36460D01*
X937460D01*
X938476Y37476D02*
Y35952D01*
X941524D01*
Y37476D01*
X943048D01*
Y40524D01*
X941524D01*
Y42048D01*
X938476D01*
Y40524D01*
X936952D01*
Y37476D01*
X938476D01*
X1299460Y67460D02*
Y64920D01*
X1304540D01*
Y67460D01*
X1307080D01*
Y72540D01*
X1304540D01*
Y75080D01*
X1299460D01*
Y72540D01*
X1296920D01*
Y67460D01*
X1299460D01*
X1300476Y68476D02*
Y66952D01*
X1303524D01*
Y68476D01*
X1305048D01*
Y71524D01*
X1303524D01*
Y73048D01*
X1300476D01*
Y71524D01*
X1298952D01*
Y68476D01*
X1300476D01*
X1177460Y269460D02*
Y266920D01*
X1182540D01*
Y269460D01*
X1185080D01*
Y274540D01*
X1182540D01*
Y277080D01*
X1177460D01*
Y274540D01*
X1174920D01*
Y269460D01*
X1177460D01*
X1178476Y270476D02*
Y268952D01*
X1181524D01*
Y270476D01*
X1183048D01*
Y273524D01*
X1181524D01*
Y275048D01*
X1178476D01*
Y273524D01*
X1176952D01*
Y270476D01*
X1178476D01*
X1443920Y469420D02*
X1446460Y474500D01*
X1443920Y479580D01*
X1449000Y477040D01*
X1454080Y479580D01*
X1451540Y474500D01*
X1454080Y469420D01*
X1449000Y471960D01*
X1443920Y469420D01*
X1445952Y471452D02*
X1447476Y474500D01*
X1445952Y477548D01*
X1449000Y476024D01*
X1452048Y477548D01*
X1450524Y474500D01*
X1452048Y471452D01*
X1449000Y472976D01*
X1445952Y471452D01*
X1443920Y477420D02*
X1446460Y482500D01*
X1443920Y487580D01*
X1449000Y485040D01*
X1454080Y487580D01*
X1451540Y482500D01*
X1454080Y477420D01*
X1449000Y479960D01*
X1443920Y477420D01*
X1445952Y479452D02*
X1447476Y482500D01*
X1445952Y485548D01*
X1449000Y484024D01*
X1452048Y485548D01*
X1450524Y482500D01*
X1452048Y479452D01*
X1449000Y480976D01*
X1445952Y479452D01*
X1444170Y485170D02*
X1446710Y490250D01*
X1444170Y495330D01*
X1449250Y492790D01*
X1454330Y495330D01*
X1451790Y490250D01*
X1454330Y485170D01*
X1449250Y487710D01*
X1444170Y485170D01*
X1446202Y487202D02*
X1447726Y490250D01*
X1446202Y493298D01*
X1449250Y491774D01*
X1452298Y493298D01*
X1450774Y490250D01*
X1452298Y487202D01*
X1449250Y488726D01*
X1446202Y487202D01*
X1432670Y477420D02*
X1435210Y482500D01*
X1432670Y487580D01*
X1437750Y485040D01*
X1442830Y487580D01*
X1440290Y482500D01*
X1442830Y477420D01*
X1437750Y479960D01*
X1432670Y477420D01*
X1434702Y479452D02*
X1436226Y482500D01*
X1434702Y485548D01*
X1437750Y484024D01*
X1440798Y485548D01*
X1439274Y482500D01*
X1440798Y479452D01*
X1437750Y480976D01*
X1434702Y479452D01*
X1432670Y469170D02*
X1435210Y474250D01*
X1432670Y479330D01*
X1437750Y476790D01*
X1442830Y479330D01*
X1440290Y474250D01*
X1442830Y469170D01*
X1437750Y471710D01*
X1432670Y469170D01*
X1434702Y471202D02*
X1436226Y474250D01*
X1434702Y477298D01*
X1437750Y475774D01*
X1440798Y477298D01*
X1439274Y474250D01*
X1440798Y471202D01*
X1437750Y472726D01*
X1434702Y471202D01*
X1432670Y485170D02*
X1435210Y490250D01*
X1432670Y495330D01*
X1437750Y492790D01*
X1442830Y495330D01*
X1440290Y490250D01*
X1442830Y485170D01*
X1437750Y487710D01*
X1432670Y485170D01*
X1434702Y487202D02*
X1436226Y490250D01*
X1434702Y493298D01*
X1437750Y491774D01*
X1440798Y493298D01*
X1439274Y490250D01*
X1440798Y487202D01*
X1437750Y488726D01*
X1434702Y487202D01*
X1444170Y492920D02*
X1446710Y498000D01*
X1444170Y503080D01*
X1449250Y500540D01*
X1454330Y503080D01*
X1451790Y498000D01*
X1454330Y492920D01*
X1449250Y495460D01*
X1444170Y492920D01*
X1446202Y494952D02*
X1447726Y498000D01*
X1446202Y501048D01*
X1449250Y499524D01*
X1452298Y501048D01*
X1450774Y498000D01*
X1452298Y494952D01*
X1449250Y496476D01*
X1446202Y494952D01*
X1432670Y492670D02*
X1435210Y497750D01*
X1432670Y502830D01*
X1437750Y500290D01*
X1442830Y502830D01*
X1440290Y497750D01*
X1442830Y492670D01*
X1437750Y495210D01*
X1432670Y492670D01*
X1434702Y494702D02*
X1436226Y497750D01*
X1434702Y500798D01*
X1437750Y499274D01*
X1440798Y500798D01*
X1439274Y497750D01*
X1440798Y494702D01*
X1437750Y496226D01*
X1434702Y494702D01*
X1177710Y196460D02*
Y193920D01*
X1182790D01*
Y196460D01*
X1185330D01*
Y201540D01*
X1182790D01*
Y204080D01*
X1177710D01*
Y201540D01*
X1175170D01*
Y196460D01*
X1177710D01*
X1178726Y197476D02*
Y195952D01*
X1181774D01*
Y197476D01*
X1183298D01*
Y200524D01*
X1181774D01*
Y202048D01*
X1178726D01*
Y200524D01*
X1177202D01*
Y197476D01*
X1178726D01*
X642210Y156710D02*
Y154170D01*
X647290D01*
Y156710D01*
X649830D01*
Y161790D01*
X647290D01*
Y164330D01*
X642210D01*
Y161790D01*
X639670D01*
Y156710D01*
X642210D01*
X643226Y157726D02*
Y156202D01*
X646274D01*
Y157726D01*
X647798D01*
Y160774D01*
X646274D01*
Y162298D01*
X643226D01*
Y160774D01*
X641702D01*
Y157726D01*
X643226D01*
X1132460Y153460D02*
Y150920D01*
X1137540D01*
Y153460D01*
X1140080D01*
Y158540D01*
X1137540D01*
Y161080D01*
X1132460D01*
Y158540D01*
X1129920D01*
Y153460D01*
X1132460D01*
X1133476Y154476D02*
Y152952D01*
X1136524D01*
Y154476D01*
X1138048D01*
Y157524D01*
X1136524D01*
Y159048D01*
X1133476D01*
Y157524D01*
X1131952D01*
Y154476D01*
X1133476D01*
X989581Y241893D02*
Y239353D01*
X994661D01*
Y241893D01*
X997201D01*
Y246973D01*
X994661D01*
Y249513D01*
X989581D01*
Y246973D01*
X987041D01*
Y241893D01*
X989581D01*
X990597Y242909D02*
Y241385D01*
X993645D01*
Y242909D01*
X995169D01*
Y245957D01*
X993645D01*
Y247481D01*
X990597D01*
Y245957D01*
X989073D01*
Y242909D01*
X990597D01*
X1068210Y269460D02*
Y266920D01*
X1073290D01*
Y269460D01*
X1075830D01*
Y274540D01*
X1073290D01*
Y277080D01*
X1068210D01*
Y274540D01*
X1065670D01*
Y269460D01*
X1068210D01*
X1069226Y270476D02*
Y268952D01*
X1072274D01*
Y270476D01*
X1073798D01*
Y273524D01*
X1072274D01*
Y275048D01*
X1069226D01*
Y273524D01*
X1067702D01*
Y270476D01*
X1069226D01*
X1051710Y269460D02*
Y266920D01*
X1056790D01*
Y269460D01*
X1059330D01*
Y274540D01*
X1056790D01*
Y277080D01*
X1051710D01*
Y274540D01*
X1049170D01*
Y269460D01*
X1051710D01*
X1052726Y270476D02*
Y268952D01*
X1055774D01*
Y270476D01*
X1057298D01*
Y273524D01*
X1055774D01*
Y275048D01*
X1052726D01*
Y273524D01*
X1051202D01*
Y270476D01*
X1052726D01*
X1009960Y269210D02*
Y266670D01*
X1015040D01*
Y269210D01*
X1017580D01*
Y274290D01*
X1015040D01*
Y276830D01*
X1009960D01*
Y274290D01*
X1007420D01*
Y269210D01*
X1009960D01*
X1010976Y270226D02*
Y268702D01*
X1014024D01*
Y270226D01*
X1015548D01*
Y273274D01*
X1014024D01*
Y274798D01*
X1010976D01*
Y273274D01*
X1009452D01*
Y270226D01*
X1010976D01*
X650710Y237210D02*
Y234670D01*
X655790D01*
Y237210D01*
X658330D01*
Y242290D01*
X655790D01*
Y244830D01*
X650710D01*
Y242290D01*
X648170D01*
Y237210D01*
X650710D01*
X651726Y238226D02*
Y236702D01*
X654774D01*
Y238226D01*
X656298D01*
Y241274D01*
X654774D01*
Y242798D01*
X651726D01*
Y241274D01*
X650202D01*
Y238226D01*
X651726D01*
X804710Y94960D02*
Y92420D01*
X809790D01*
Y94960D01*
X812330D01*
Y100040D01*
X809790D01*
Y102580D01*
X804710D01*
Y100040D01*
X802170D01*
Y94960D01*
X804710D01*
X805726Y95976D02*
Y94452D01*
X808774D01*
Y95976D01*
X810298D01*
Y99024D01*
X808774D01*
Y100548D01*
X805726D01*
Y99024D01*
X804202D01*
Y95976D01*
X805726D01*
X919960Y98210D02*
Y95670D01*
X925040D01*
Y98210D01*
X927580D01*
Y103290D01*
X925040D01*
Y105830D01*
X919960D01*
Y103290D01*
X917420D01*
Y98210D01*
X919960D01*
X920976Y99226D02*
Y97702D01*
X924024D01*
Y99226D01*
X925548D01*
Y102274D01*
X924024D01*
Y103798D01*
X920976D01*
Y102274D01*
X919452D01*
Y99226D01*
X920976D01*
X917210Y137960D02*
Y135420D01*
X922290D01*
Y137960D01*
X924830D01*
Y143040D01*
X922290D01*
Y145580D01*
X917210D01*
Y143040D01*
X914670D01*
Y137960D01*
X917210D01*
X918226Y138976D02*
Y137452D01*
X921274D01*
Y138976D01*
X922798D01*
Y142024D01*
X921274D01*
Y143548D01*
X918226D01*
Y142024D01*
X916702D01*
Y138976D01*
X918226D01*
X1199210Y212460D02*
Y209920D01*
X1204290D01*
Y212460D01*
X1206830D01*
Y217540D01*
X1204290D01*
Y220080D01*
X1199210D01*
Y217540D01*
X1196670D01*
Y212460D01*
X1199210D01*
X1200226Y213476D02*
Y211952D01*
X1203274D01*
Y213476D01*
X1204798D01*
Y216524D01*
X1203274D01*
Y218048D01*
X1200226D01*
Y216524D01*
X1198702D01*
Y213476D01*
X1200226D01*
X1312210Y243960D02*
Y241420D01*
X1317290D01*
Y243960D01*
X1319830D01*
Y249040D01*
X1317290D01*
Y251580D01*
X1312210D01*
Y249040D01*
X1309670D01*
Y243960D01*
X1312210D01*
X1313226Y244976D02*
Y243452D01*
X1316274D01*
Y244976D01*
X1317798D01*
Y248024D01*
X1316274D01*
Y249548D01*
X1313226D01*
Y248024D01*
X1311702D01*
Y244976D01*
X1313226D01*
X1188710Y595460D02*
Y592920D01*
X1193790D01*
Y595460D01*
X1196330D01*
Y600540D01*
X1193790D01*
Y603080D01*
X1188710D01*
Y600540D01*
X1186170D01*
Y595460D01*
X1188710D01*
X1189726Y596476D02*
Y594952D01*
X1192774D01*
Y596476D01*
X1194298D01*
Y599524D01*
X1192774D01*
Y601048D01*
X1189726D01*
Y599524D01*
X1188202D01*
Y596476D01*
X1189726D01*
X1290210Y488960D02*
Y486420D01*
X1295290D01*
Y488960D01*
X1297830D01*
Y494040D01*
X1295290D01*
Y496580D01*
X1290210D01*
Y494040D01*
X1287670D01*
Y488960D01*
X1290210D01*
X1291226Y489976D02*
Y488452D01*
X1294274D01*
Y489976D01*
X1295798D01*
Y493024D01*
X1294274D01*
Y494548D01*
X1291226D01*
Y493024D01*
X1289702D01*
Y489976D01*
X1291226D01*
X1433710Y213210D02*
Y210670D01*
X1438790D01*
Y213210D01*
X1441330D01*
Y218290D01*
X1438790D01*
Y220830D01*
X1433710D01*
Y218290D01*
X1431170D01*
Y213210D01*
X1433710D01*
X1434726Y214226D02*
Y212702D01*
X1437774D01*
Y214226D01*
X1439298D01*
Y217274D01*
X1437774D01*
Y218798D01*
X1434726D01*
Y217274D01*
X1433202D01*
Y214226D01*
X1434726D01*
X1440210Y460210D02*
Y457670D01*
X1445290D01*
Y460210D01*
X1447830D01*
Y465290D01*
X1445290D01*
Y467830D01*
X1440210D01*
Y465290D01*
X1437670D01*
Y460210D01*
X1440210D01*
X1441226Y461226D02*
Y459702D01*
X1444274D01*
Y461226D01*
X1445798D01*
Y464274D01*
X1444274D01*
Y465798D01*
X1441226D01*
Y464274D01*
X1439702D01*
Y461226D01*
X1441226D01*
X1487460Y482710D02*
Y480170D01*
X1492540D01*
Y482710D01*
X1495080D01*
Y487790D01*
X1492540D01*
Y490330D01*
X1487460D01*
Y487790D01*
X1484920D01*
Y482710D01*
X1487460D01*
X1488476Y483726D02*
Y482202D01*
X1491524D01*
Y483726D01*
X1493048D01*
Y486774D01*
X1491524D01*
Y488298D01*
X1488476D01*
Y486774D01*
X1486952D01*
Y483726D01*
X1488476D01*
X1440710Y504960D02*
Y502420D01*
X1445790D01*
Y504960D01*
X1448330D01*
Y510040D01*
X1445790D01*
Y512580D01*
X1440710D01*
Y510040D01*
X1438170D01*
Y504960D01*
X1440710D01*
X1441726Y505976D02*
Y504452D01*
X1444774D01*
Y505976D01*
X1446298D01*
Y509024D01*
X1444774D01*
Y510548D01*
X1441726D01*
Y509024D01*
X1440202D01*
Y505976D01*
X1441726D01*
X1503710Y516210D02*
Y513670D01*
X1508790D01*
Y516210D01*
X1511330D01*
Y521290D01*
X1508790D01*
Y523830D01*
X1503710D01*
Y521290D01*
X1501170D01*
Y516210D01*
X1503710D01*
X1504726Y517226D02*
Y515702D01*
X1507774D01*
Y517226D01*
X1509298D01*
Y520274D01*
X1507774D01*
Y521798D01*
X1504726D01*
Y520274D01*
X1503202D01*
Y517226D01*
X1504726D01*
X1417460Y593460D02*
Y590920D01*
X1422540D01*
Y593460D01*
X1425080D01*
Y598540D01*
X1422540D01*
Y601080D01*
X1417460D01*
Y598540D01*
X1414920D01*
Y593460D01*
X1417460D01*
X1418476Y594476D02*
Y592952D01*
X1421524D01*
Y594476D01*
X1423048D01*
Y597524D01*
X1421524D01*
Y599048D01*
X1418476D01*
Y597524D01*
X1416952D01*
Y594476D01*
X1418476D01*
X700460Y38960D02*
Y36420D01*
X705540D01*
Y38960D01*
X708080D01*
Y44040D01*
X705540D01*
Y46580D01*
X700460D01*
Y44040D01*
X697920D01*
Y38960D01*
X700460D01*
X701476Y39976D02*
Y38452D01*
X704524D01*
Y39976D01*
X706048D01*
Y43024D01*
X704524D01*
Y44548D01*
X701476D01*
Y43024D01*
X699952D01*
Y39976D01*
X701476D01*
X842210Y111460D02*
Y108920D01*
X847290D01*
Y111460D01*
X849830D01*
Y116540D01*
X847290D01*
Y119080D01*
X842210D01*
Y116540D01*
X839670D01*
Y111460D01*
X842210D01*
X843226Y112476D02*
Y110952D01*
X846274D01*
Y112476D01*
X847798D01*
Y115524D01*
X846274D01*
Y117048D01*
X843226D01*
Y115524D01*
X841702D01*
Y112476D01*
X843226D01*
X774210Y126710D02*
Y124170D01*
X779290D01*
Y126710D01*
X781830D01*
Y131790D01*
X779290D01*
Y134330D01*
X774210D01*
Y131790D01*
X771670D01*
Y126710D01*
X774210D01*
X775226Y127726D02*
Y126202D01*
X778274D01*
Y127726D01*
X779798D01*
Y130774D01*
X778274D01*
Y132298D01*
X775226D01*
Y130774D01*
X773702D01*
Y127726D01*
X775226D01*
X714460Y253210D02*
Y250670D01*
X719540D01*
Y253210D01*
X722080D01*
Y258290D01*
X719540D01*
Y260830D01*
X714460D01*
Y258290D01*
X711920D01*
Y253210D01*
X714460D01*
X715476Y254226D02*
Y252702D01*
X718524D01*
Y254226D01*
X720048D01*
Y257274D01*
X718524D01*
Y258798D01*
X715476D01*
Y257274D01*
X713952D01*
Y254226D01*
X715476D01*
X662210Y255710D02*
Y253170D01*
X667290D01*
Y255710D01*
X669830D01*
Y260790D01*
X667290D01*
Y263330D01*
X662210D01*
Y260790D01*
X659670D01*
Y255710D01*
X662210D01*
X663226Y256726D02*
Y255202D01*
X666274D01*
Y256726D01*
X667798D01*
Y259774D01*
X666274D01*
Y261298D01*
X663226D01*
Y259774D01*
X661702D01*
Y256726D01*
X663226D01*
X702460Y307710D02*
Y305170D01*
X707540D01*
Y307710D01*
X710080D01*
Y312790D01*
X707540D01*
Y315330D01*
X702460D01*
Y312790D01*
X699920D01*
Y307710D01*
X702460D01*
X703476Y308726D02*
Y307202D01*
X706524D01*
Y308726D01*
X708048D01*
Y311774D01*
X706524D01*
Y313298D01*
X703476D01*
Y311774D01*
X701952D01*
Y308726D01*
X703476D01*
X796710Y337460D02*
Y334920D01*
X801790D01*
Y337460D01*
X804330D01*
Y342540D01*
X801790D01*
Y345080D01*
X796710D01*
Y342540D01*
X794170D01*
Y337460D01*
X796710D01*
X797726Y338476D02*
Y336952D01*
X800774D01*
Y338476D01*
X802298D01*
Y341524D01*
X800774D01*
Y343048D01*
X797726D01*
Y341524D01*
X796202D01*
Y338476D01*
X797726D01*
X745710Y337710D02*
Y335170D01*
X750790D01*
Y337710D01*
X753330D01*
Y342790D01*
X750790D01*
Y345330D01*
X745710D01*
Y342790D01*
X743170D01*
Y337710D01*
X745710D01*
X746726Y338726D02*
Y337202D01*
X749774D01*
Y338726D01*
X751298D01*
Y341774D01*
X749774D01*
Y343298D01*
X746726D01*
Y341774D01*
X745202D01*
Y338726D01*
X746726D01*
X785710Y392460D02*
Y389920D01*
X790790D01*
Y392460D01*
X793330D01*
Y397540D01*
X790790D01*
Y400080D01*
X785710D01*
Y397540D01*
X783170D01*
Y392460D01*
X785710D01*
X786726Y393476D02*
Y391952D01*
X789774D01*
Y393476D01*
X791298D01*
Y396524D01*
X789774D01*
Y398048D01*
X786726D01*
Y396524D01*
X785202D01*
Y393476D01*
X786726D01*
X636960Y95460D02*
Y92920D01*
X642040D01*
Y95460D01*
X644580D01*
Y100540D01*
X642040D01*
Y103080D01*
X636960D01*
Y100540D01*
X634420D01*
Y95460D01*
X636960D01*
X637976Y96476D02*
Y94952D01*
X641024D01*
Y96476D01*
X642548D01*
Y99524D01*
X641024D01*
Y101048D01*
X637976D01*
Y99524D01*
X636452D01*
Y96476D01*
X637976D01*
X363210Y181960D02*
Y179420D01*
X368290D01*
Y181960D01*
X370830D01*
Y187040D01*
X368290D01*
Y189580D01*
X363210D01*
Y187040D01*
X360670D01*
Y181960D01*
X363210D01*
X364226Y182976D02*
Y181452D01*
X367274D01*
Y182976D01*
X368798D01*
Y186024D01*
X367274D01*
Y187548D01*
X364226D01*
Y186024D01*
X362702D01*
Y182976D01*
X364226D01*
X263000Y115920D02*
X265540Y118460D01*
X268080D01*
X265540Y121000D01*
X268080Y123540D01*
X265540D01*
X263000Y126080D01*
X260460Y123540D01*
X257920D01*
X260460Y121000D01*
X257920Y118460D01*
X260460D01*
X263000Y115920D01*
Y117952D02*
X264524Y119476D01*
X266048D01*
X264524Y121000D01*
X266048Y122524D01*
X264524D01*
X263000Y124048D01*
X261476Y122524D01*
X259952D01*
X261476Y121000D01*
X259952Y119476D01*
X261476D01*
X263000Y117952D01*
M02*
