G04*
G04 #@! TF.GenerationSoftware,Altium Limited,Altium Designer,22.7.1 (60)*
G04*
G04 Layer_Color=128*
%FSLAX44Y44*%
%MOMM*%
G71*
G04*
G04 #@! TF.SameCoordinates,F110A0D0-B471-48EF-BBF6-E10C2EB46B9C*
G04*
G04*
G04 #@! TF.FilePolarity,Positive*
G04*
G01*
G75*
%ADD17C,1.0000*%
%ADD20R,1.1500X1.3500*%
%ADD21R,0.9000X1.3000*%
%ADD22R,1.3500X1.1500*%
%ADD27R,1.3000X0.9000*%
G04:AMPARAMS|DCode=34|XSize=1.3mm|YSize=1.1mm|CornerRadius=0.275mm|HoleSize=0mm|Usage=FLASHONLY|Rotation=270.000|XOffset=0mm|YOffset=0mm|HoleType=Round|Shape=RoundedRectangle|*
%AMROUNDEDRECTD34*
21,1,1.3000,0.5500,0,0,270.0*
21,1,0.7500,1.1000,0,0,270.0*
1,1,0.5500,-0.2750,-0.3750*
1,1,0.5500,-0.2750,0.3750*
1,1,0.5500,0.2750,0.3750*
1,1,0.5500,0.2750,-0.3750*
%
%ADD34ROUNDEDRECTD34*%
G04:AMPARAMS|DCode=109|XSize=0.6mm|YSize=1.55mm|CornerRadius=0.15mm|HoleSize=0mm|Usage=FLASHONLY|Rotation=90.000|XOffset=0mm|YOffset=0mm|HoleType=Round|Shape=RoundedRectangle|*
%AMROUNDEDRECTD109*
21,1,0.6000,1.2500,0,0,90.0*
21,1,0.3000,1.5500,0,0,90.0*
1,1,0.3000,0.6250,0.1500*
1,1,0.3000,0.6250,-0.1500*
1,1,0.3000,-0.6250,-0.1500*
1,1,0.3000,-0.6250,0.1500*
%
%ADD109ROUNDEDRECTD109*%
G04:AMPARAMS|DCode=110|XSize=0.65mm|YSize=1.25mm|CornerRadius=0.1625mm|HoleSize=0mm|Usage=FLASHONLY|Rotation=90.000|XOffset=0mm|YOffset=0mm|HoleType=Round|Shape=RoundedRectangle|*
%AMROUNDEDRECTD110*
21,1,0.6500,0.9250,0,0,90.0*
21,1,0.3250,1.2500,0,0,90.0*
1,1,0.3250,0.4625,0.1625*
1,1,0.3250,0.4625,-0.1625*
1,1,0.3250,-0.4625,-0.1625*
1,1,0.3250,-0.4625,0.1625*
%
%ADD110ROUNDEDRECTD110*%
%ADD111R,6.9000X5.6000*%
D17*
X50000Y590000D02*
G03*
X45466Y589742I0J-40000D01*
G01*
D20*
X170750Y120000D02*
D03*
X189250D02*
D03*
X1351500Y160000D02*
D03*
X1370000D02*
D03*
X1350750Y130000D02*
D03*
X1369250D02*
D03*
Y280000D02*
D03*
X1350750D02*
D03*
X1370000Y250000D02*
D03*
X1351500D02*
D03*
X1369250Y220000D02*
D03*
X1350750D02*
D03*
X1351500Y190000D02*
D03*
X1370000D02*
D03*
D21*
X770500Y330000D02*
D03*
X789500D02*
D03*
X770500Y350000D02*
D03*
X789500D02*
D03*
X770500Y370000D02*
D03*
X789500D02*
D03*
X550500Y440000D02*
D03*
X569500D02*
D03*
X550000Y460000D02*
D03*
X569000D02*
D03*
X550500Y420000D02*
D03*
X569500D02*
D03*
D22*
X210000Y110750D02*
D03*
Y129250D02*
D03*
Y229250D02*
D03*
Y210750D02*
D03*
X340000D02*
D03*
Y229250D02*
D03*
Y179250D02*
D03*
Y160750D02*
D03*
X190000Y150750D02*
D03*
Y169250D02*
D03*
X370000Y69250D02*
D03*
Y50750D02*
D03*
Y101500D02*
D03*
Y120000D02*
D03*
X380000Y279250D02*
D03*
Y260750D02*
D03*
X430000Y220750D02*
D03*
Y239250D02*
D03*
D27*
X210000Y179500D02*
D03*
Y160500D02*
D03*
X340000Y129500D02*
D03*
Y110500D02*
D03*
D34*
X152500Y80000D02*
D03*
X187500D02*
D03*
X282500D02*
D03*
X317500D02*
D03*
D109*
X307002Y195400D02*
D03*
Y208100D02*
D03*
Y182700D02*
D03*
Y170000D02*
D03*
Y157300D02*
D03*
Y144600D02*
D03*
Y131900D02*
D03*
X253002Y208100D02*
D03*
Y195400D02*
D03*
Y182700D02*
D03*
Y170000D02*
D03*
Y157300D02*
D03*
Y144600D02*
D03*
Y131900D02*
D03*
D110*
X155751Y50000D02*
D03*
X184251Y40500D02*
D03*
Y59500D02*
D03*
X285750Y50000D02*
D03*
X314250Y40500D02*
D03*
Y59500D02*
D03*
X375750Y230000D02*
D03*
X404250Y220500D02*
D03*
Y239500D02*
D03*
D111*
X520000Y500000D02*
D03*
X620000D02*
D03*
X320000D02*
D03*
X220000D02*
D03*
M02*
