G04*
G04 #@! TF.GenerationSoftware,Altium Limited,Altium Designer,22.11.1 (43)*
G04*
G04 Layer_Color=2752767*
%FSLAX44Y44*%
%MOMM*%
G71*
G04*
G04 #@! TF.SameCoordinates,703FB55D-1442-4A2A-B505-2E36BED11F84*
G04*
G04*
G04 #@! TF.FilePolarity,Positive*
G04*
G01*
G75*
%ADD138C,0.1270*%
D138*
X1535460Y125460D02*
Y122920D01*
X1540540D01*
Y125460D01*
X1543080D01*
Y130540D01*
X1540540D01*
Y133080D01*
X1535460D01*
Y130540D01*
X1532920D01*
Y125460D01*
X1535460D01*
X1536476Y126476D02*
Y124952D01*
X1539524D01*
Y126476D01*
X1541048D01*
Y129524D01*
X1539524D01*
Y131048D01*
X1536476D01*
Y129524D01*
X1534952D01*
Y126476D01*
X1536476D01*
X738460Y132710D02*
Y130170D01*
X743540D01*
Y132710D01*
X746080D01*
Y137790D01*
X743540D01*
Y140330D01*
X738460D01*
Y137790D01*
X735920D01*
Y132710D01*
X738460D01*
X739476Y133726D02*
Y132202D01*
X742524D01*
Y133726D01*
X744048D01*
Y136774D01*
X742524D01*
Y138298D01*
X739476D01*
Y136774D01*
X737952D01*
Y133726D01*
X739476D01*
X692210Y273710D02*
Y271170D01*
X697290D01*
Y273710D01*
X699830D01*
Y278790D01*
X697290D01*
Y281330D01*
X692210D01*
Y278790D01*
X689670D01*
Y273710D01*
X692210D01*
X693226Y274726D02*
Y273202D01*
X696274D01*
Y274726D01*
X697798D01*
Y277774D01*
X696274D01*
Y279298D01*
X693226D01*
Y277774D01*
X691702D01*
Y274726D01*
X693226D01*
X287750Y602920D02*
X290290Y605460D01*
X292830D01*
X290290Y608000D01*
X292830Y610540D01*
X290290D01*
X287750Y613080D01*
X285210Y610540D01*
X282670D01*
X285210Y608000D01*
X282670Y605460D01*
X285210D01*
X287750Y602920D01*
Y604952D02*
X289274Y606476D01*
X290798D01*
X289274Y608000D01*
X290798Y609524D01*
X289274D01*
X287750Y611048D01*
X286226Y609524D01*
X284702D01*
X286226Y608000D01*
X284702Y606476D01*
X286226D01*
X287750Y604952D01*
X1049960Y362460D02*
Y359920D01*
X1055040D01*
Y362460D01*
X1057580D01*
Y367540D01*
X1055040D01*
Y370080D01*
X1049960D01*
Y367540D01*
X1047420D01*
Y362460D01*
X1049960D01*
X1050976Y363476D02*
Y361952D01*
X1054024D01*
Y363476D01*
X1055548D01*
Y366524D01*
X1054024D01*
Y368048D01*
X1050976D01*
Y366524D01*
X1049452D01*
Y363476D01*
X1050976D01*
X989960Y437460D02*
Y434920D01*
X995040D01*
Y437460D01*
X997580D01*
Y442540D01*
X995040D01*
Y445080D01*
X989960D01*
Y442540D01*
X987420D01*
Y437460D01*
X989960D01*
X990976Y438476D02*
Y436952D01*
X994024D01*
Y438476D01*
X995548D01*
Y441524D01*
X994024D01*
Y443048D01*
X990976D01*
Y441524D01*
X989452D01*
Y438476D01*
X990976D01*
X929920Y284920D02*
X932460Y290000D01*
X929920Y295080D01*
X935000Y292540D01*
X940080Y295080D01*
X937540Y290000D01*
X940080Y284920D01*
X935000Y287460D01*
X929920Y284920D01*
X931952Y286952D02*
X933476Y290000D01*
X931952Y293048D01*
X935000Y291524D01*
X938048Y293048D01*
X936524Y290000D01*
X938048Y286952D01*
X935000Y288476D01*
X931952Y286952D01*
X983460Y399210D02*
Y396670D01*
X988540D01*
Y399210D01*
X991080D01*
Y404290D01*
X988540D01*
Y406830D01*
X983460D01*
Y404290D01*
X980920D01*
Y399210D01*
X983460D01*
X984476Y400226D02*
Y398702D01*
X987524D01*
Y400226D01*
X989048D01*
Y403274D01*
X987524D01*
Y404798D01*
X984476D01*
Y403274D01*
X982952D01*
Y400226D01*
X984476D01*
X864920Y294920D02*
X867460Y300000D01*
X864920Y305080D01*
X870000Y302540D01*
X875080Y305080D01*
X872540Y300000D01*
X875080Y294920D01*
X870000Y297460D01*
X864920Y294920D01*
X866952Y296952D02*
X868476Y300000D01*
X866952Y303048D01*
X870000Y301524D01*
X873048Y303048D01*
X871524Y300000D01*
X873048Y296952D01*
X870000Y298476D01*
X866952Y296952D01*
X1117670Y87920D02*
X1120210Y93000D01*
X1117670Y98080D01*
X1122750Y95540D01*
X1127830Y98080D01*
X1125290Y93000D01*
X1127830Y87920D01*
X1122750Y90460D01*
X1117670Y87920D01*
X1119702Y89952D02*
X1121226Y93000D01*
X1119702Y96048D01*
X1122750Y94524D01*
X1125798Y96048D01*
X1124274Y93000D01*
X1125798Y89952D01*
X1122750Y91476D01*
X1119702Y89952D01*
X1354920Y280920D02*
X1357460Y286000D01*
X1354920Y291080D01*
X1360000Y288540D01*
X1365080Y291080D01*
X1362540Y286000D01*
X1365080Y280920D01*
X1360000Y283460D01*
X1354920Y280920D01*
X1356952Y282952D02*
X1358476Y286000D01*
X1356952Y289048D01*
X1360000Y287524D01*
X1363048Y289048D01*
X1361524Y286000D01*
X1363048Y282952D01*
X1360000Y284476D01*
X1356952Y282952D01*
X1092229Y62868D02*
X1094769Y67948D01*
X1092229Y73028D01*
X1097309Y70488D01*
X1102389Y73028D01*
X1099849Y67948D01*
X1102389Y62868D01*
X1097309Y65408D01*
X1092229Y62868D01*
X1094261Y64900D02*
X1095785Y67948D01*
X1094261Y70996D01*
X1097309Y69472D01*
X1100357Y70996D01*
X1098833Y67948D01*
X1100357Y64900D01*
X1097309Y66424D01*
X1094261Y64900D01*
X1097920Y49920D02*
X1100460Y55000D01*
X1097920Y60080D01*
X1103000Y57540D01*
X1108080Y60080D01*
X1105540Y55000D01*
X1108080Y49920D01*
X1103000Y52460D01*
X1097920Y49920D01*
X1099952Y51952D02*
X1101476Y55000D01*
X1099952Y58048D01*
X1103000Y56524D01*
X1106048Y58048D01*
X1104524Y55000D01*
X1106048Y51952D01*
X1103000Y53476D01*
X1099952Y51952D01*
X1095920Y56920D02*
X1098460Y62000D01*
X1095920Y67080D01*
X1101000Y64540D01*
X1106080Y67080D01*
X1103540Y62000D01*
X1106080Y56920D01*
X1101000Y59460D01*
X1095920Y56920D01*
X1097952Y58952D02*
X1099476Y62000D01*
X1097952Y65048D01*
X1101000Y63524D01*
X1104048Y65048D01*
X1102524Y62000D01*
X1104048Y58952D01*
X1101000Y60476D01*
X1097952Y58952D01*
X1123670Y207947D02*
X1126210Y213027D01*
X1123670Y218107D01*
X1128750Y215567D01*
X1133830Y218107D01*
X1131290Y213027D01*
X1133830Y207947D01*
X1128750Y210487D01*
X1123670Y207947D01*
X1125702Y209979D02*
X1127226Y213027D01*
X1125702Y216075D01*
X1128750Y214551D01*
X1131798Y216075D01*
X1130274Y213027D01*
X1131798Y209979D01*
X1128750Y211503D01*
X1125702Y209979D01*
X1150920Y211920D02*
X1153460Y217000D01*
X1150920Y222080D01*
X1156000Y219540D01*
X1161080Y222080D01*
X1158540Y217000D01*
X1161080Y211920D01*
X1156000Y214460D01*
X1150920Y211920D01*
X1152952Y213952D02*
X1154476Y217000D01*
X1152952Y220048D01*
X1156000Y218524D01*
X1159048Y220048D01*
X1157524Y217000D01*
X1159048Y213952D01*
X1156000Y215476D01*
X1152952Y213952D01*
X1156920Y242920D02*
X1159460Y248000D01*
X1156920Y253080D01*
X1162000Y250540D01*
X1167080Y253080D01*
X1164540Y248000D01*
X1167080Y242920D01*
X1162000Y245460D01*
X1156920Y242920D01*
X1158952Y244952D02*
X1160476Y248000D01*
X1158952Y251048D01*
X1162000Y249524D01*
X1165048Y251048D01*
X1163524Y248000D01*
X1165048Y244952D01*
X1162000Y246476D01*
X1158952Y244952D01*
X1224920Y249920D02*
X1227460Y255000D01*
X1224920Y260080D01*
X1230000Y257540D01*
X1235080Y260080D01*
X1232540Y255000D01*
X1235080Y249920D01*
X1230000Y252460D01*
X1224920Y249920D01*
X1226952Y251952D02*
X1228476Y255000D01*
X1226952Y258048D01*
X1230000Y256524D01*
X1233048Y258048D01*
X1231524Y255000D01*
X1233048Y251952D01*
X1230000Y253476D01*
X1226952Y251952D01*
X1542920Y241920D02*
X1545460Y247000D01*
X1542920Y252080D01*
X1548000Y249540D01*
X1553080Y252080D01*
X1550540Y247000D01*
X1553080Y241920D01*
X1548000Y244460D01*
X1542920Y241920D01*
X1544952Y243952D02*
X1546476Y247000D01*
X1544952Y250048D01*
X1548000Y248524D01*
X1551048Y250048D01*
X1549524Y247000D01*
X1551048Y243952D01*
X1548000Y245476D01*
X1544952Y243952D01*
X1560920Y246920D02*
X1563460Y252000D01*
X1560920Y257080D01*
X1566000Y254540D01*
X1571080Y257080D01*
X1568540Y252000D01*
X1571080Y246920D01*
X1566000Y249460D01*
X1560920Y246920D01*
X1562952Y248952D02*
X1564476Y252000D01*
X1562952Y255048D01*
X1566000Y253524D01*
X1569048Y255048D01*
X1567524Y252000D01*
X1569048Y248952D01*
X1566000Y250476D01*
X1562952Y248952D01*
X1588465Y246298D02*
X1591005Y251378D01*
X1588465Y256458D01*
X1593545Y253918D01*
X1598625Y256458D01*
X1596085Y251378D01*
X1598625Y246298D01*
X1593545Y248838D01*
X1588465Y246298D01*
X1590497Y248330D02*
X1592021Y251378D01*
X1590497Y254426D01*
X1593545Y252902D01*
X1596593Y254426D01*
X1595069Y251378D01*
X1596593Y248330D01*
X1593545Y249854D01*
X1590497Y248330D01*
X967864Y29420D02*
X970404Y34500D01*
X967864Y39580D01*
X972944Y37040D01*
X978024Y39580D01*
X975484Y34500D01*
X978024Y29420D01*
X972944Y31960D01*
X967864Y29420D01*
X969896Y31452D02*
X971420Y34500D01*
X969896Y37548D01*
X972944Y36024D01*
X975992Y37548D01*
X974468Y34500D01*
X975992Y31452D01*
X972944Y32976D01*
X969896Y31452D01*
X947283Y29420D02*
X949823Y34500D01*
X947283Y39580D01*
X952363Y37040D01*
X957443Y39580D01*
X954903Y34500D01*
X957443Y29420D01*
X952363Y31960D01*
X947283Y29420D01*
X949315Y31452D02*
X950839Y34500D01*
X949315Y37548D01*
X952363Y36024D01*
X955411Y37548D01*
X953887Y34500D01*
X955411Y31452D01*
X952363Y32976D01*
X949315Y31452D01*
X1146920Y49920D02*
X1149460Y55000D01*
X1146920Y60080D01*
X1152000Y57540D01*
X1157080Y60080D01*
X1154540Y55000D01*
X1157080Y49920D01*
X1152000Y52460D01*
X1146920Y49920D01*
X1148952Y51952D02*
X1150476Y55000D01*
X1148952Y58048D01*
X1152000Y56524D01*
X1155048Y58048D01*
X1153524Y55000D01*
X1155048Y51952D01*
X1152000Y53476D01*
X1148952Y51952D01*
X929691Y7257D02*
X932231Y12337D01*
X929691Y17417D01*
X934771Y14877D01*
X939851Y17417D01*
X937311Y12337D01*
X939851Y7257D01*
X934771Y9797D01*
X929691Y7257D01*
X931723Y9289D02*
X933247Y12337D01*
X931723Y15385D01*
X934771Y13861D01*
X937819Y15385D01*
X936295Y12337D01*
X937819Y9289D01*
X934771Y10813D01*
X931723Y9289D01*
X967920Y6920D02*
X970460Y12000D01*
X967920Y17080D01*
X973000Y14540D01*
X978080Y17080D01*
X975540Y12000D01*
X978080Y6920D01*
X973000Y9460D01*
X967920Y6920D01*
X969952Y8952D02*
X971476Y12000D01*
X969952Y15048D01*
X973000Y13524D01*
X976048Y15048D01*
X974524Y12000D01*
X976048Y8952D01*
X973000Y10476D01*
X969952Y8952D01*
X1592920Y261920D02*
X1595460Y267000D01*
X1592920Y272080D01*
X1598000Y269540D01*
X1603080Y272080D01*
X1600540Y267000D01*
X1603080Y261920D01*
X1598000Y264460D01*
X1592920Y261920D01*
X1594952Y263952D02*
X1596476Y267000D01*
X1594952Y270048D01*
X1598000Y268524D01*
X1601048Y270048D01*
X1599524Y267000D01*
X1601048Y263952D01*
X1598000Y265476D01*
X1594952Y263952D01*
X1665920Y203920D02*
X1668460Y209000D01*
X1665920Y214080D01*
X1671000Y211540D01*
X1676080Y214080D01*
X1673540Y209000D01*
X1676080Y203920D01*
X1671000Y206460D01*
X1665920Y203920D01*
X1667952Y205952D02*
X1669476Y209000D01*
X1667952Y212048D01*
X1671000Y210524D01*
X1674048Y212048D01*
X1672524Y209000D01*
X1674048Y205952D01*
X1671000Y207476D01*
X1667952Y205952D01*
X1659920Y228920D02*
X1662460Y234000D01*
X1659920Y239080D01*
X1665000Y236540D01*
X1670080Y239080D01*
X1667540Y234000D01*
X1670080Y228920D01*
X1665000Y231460D01*
X1659920Y228920D01*
X1661952Y230952D02*
X1663476Y234000D01*
X1661952Y237048D01*
X1665000Y235524D01*
X1668048Y237048D01*
X1666524Y234000D01*
X1668048Y230952D01*
X1665000Y232476D01*
X1661952Y230952D01*
X1672920Y178920D02*
X1675460Y184000D01*
X1672920Y189080D01*
X1678000Y186540D01*
X1683080Y189080D01*
X1680540Y184000D01*
X1683080Y178920D01*
X1678000Y181460D01*
X1672920Y178920D01*
X1674952Y180952D02*
X1676476Y184000D01*
X1674952Y187048D01*
X1678000Y185524D01*
X1681048Y187048D01*
X1679524Y184000D01*
X1681048Y180952D01*
X1678000Y182476D01*
X1674952Y180952D01*
X797960Y11710D02*
Y9170D01*
X803040D01*
Y11710D01*
X805580D01*
Y16790D01*
X803040D01*
Y19330D01*
X797960D01*
Y16790D01*
X795420D01*
Y11710D01*
X797960D01*
X798976Y12726D02*
Y11202D01*
X802024D01*
Y12726D01*
X803548D01*
Y15774D01*
X802024D01*
Y17298D01*
X798976D01*
Y15774D01*
X797452D01*
Y12726D01*
X798976D01*
X310920Y30920D02*
X313460Y36000D01*
X310920Y41080D01*
X316000Y38540D01*
X321080Y41080D01*
X318540Y36000D01*
X321080Y30920D01*
X316000Y33460D01*
X310920Y30920D01*
X312952Y32952D02*
X314476Y36000D01*
X312952Y39048D01*
X316000Y37524D01*
X319048Y39048D01*
X317524Y36000D01*
X319048Y32952D01*
X316000Y34476D01*
X312952Y32952D01*
X327920Y24920D02*
X330460Y30000D01*
X327920Y35080D01*
X333000Y32540D01*
X338080Y35080D01*
X335540Y30000D01*
X338080Y24920D01*
X333000Y27460D01*
X327920Y24920D01*
X329952Y26952D02*
X331476Y30000D01*
X329952Y33048D01*
X333000Y31524D01*
X336048Y33048D01*
X334524Y30000D01*
X336048Y26952D01*
X333000Y28476D01*
X329952Y26952D01*
X1608920Y268920D02*
X1611460Y274000D01*
X1608920Y279080D01*
X1614000Y276540D01*
X1619080Y279080D01*
X1616540Y274000D01*
X1619080Y268920D01*
X1614000Y271460D01*
X1608920Y268920D01*
X1610952Y270952D02*
X1612476Y274000D01*
X1610952Y277048D01*
X1614000Y275524D01*
X1617048Y277048D01*
X1615524Y274000D01*
X1617048Y270952D01*
X1614000Y272476D01*
X1610952Y270952D01*
X1533920Y245920D02*
X1536460Y251000D01*
X1533920Y256080D01*
X1539000Y253540D01*
X1544080Y256080D01*
X1541540Y251000D01*
X1544080Y245920D01*
X1539000Y248460D01*
X1533920Y245920D01*
X1535952Y247952D02*
X1537476Y251000D01*
X1535952Y254048D01*
X1539000Y252524D01*
X1542048Y254048D01*
X1540524Y251000D01*
X1542048Y247952D01*
X1539000Y249476D01*
X1535952Y247952D01*
X1214920Y323170D02*
X1217460Y328250D01*
X1214920Y333330D01*
X1220000Y330790D01*
X1225080Y333330D01*
X1222540Y328250D01*
X1225080Y323170D01*
X1220000Y325710D01*
X1214920Y323170D01*
X1216952Y325202D02*
X1218476Y328250D01*
X1216952Y331298D01*
X1220000Y329774D01*
X1223048Y331298D01*
X1221524Y328250D01*
X1223048Y325202D01*
X1220000Y326726D01*
X1216952Y325202D01*
X1118920Y336920D02*
X1121460Y342000D01*
X1118920Y347080D01*
X1124000Y344540D01*
X1129080Y347080D01*
X1126540Y342000D01*
X1129080Y336920D01*
X1124000Y339460D01*
X1118920Y336920D01*
X1120952Y338952D02*
X1122476Y342000D01*
X1120952Y345048D01*
X1124000Y343524D01*
X1127048Y345048D01*
X1125524Y342000D01*
X1127048Y338952D01*
X1124000Y340476D01*
X1120952Y338952D01*
X1649460Y81460D02*
Y78920D01*
X1654540D01*
Y81460D01*
X1657080D01*
Y86540D01*
X1654540D01*
Y89080D01*
X1649460D01*
Y86540D01*
X1646920D01*
Y81460D01*
X1649460D01*
X1650476Y82476D02*
Y80952D01*
X1653524D01*
Y82476D01*
X1655048D01*
Y85524D01*
X1653524D01*
Y87048D01*
X1650476D01*
Y85524D01*
X1648952D01*
Y82476D01*
X1650476D01*
X1444710Y122460D02*
Y119920D01*
X1449790D01*
Y122460D01*
X1452330D01*
Y127540D01*
X1449790D01*
Y130080D01*
X1444710D01*
Y127540D01*
X1442170D01*
Y122460D01*
X1444710D01*
X1445726Y123476D02*
Y121952D01*
X1448774D01*
Y123476D01*
X1450298D01*
Y126524D01*
X1448774D01*
Y128048D01*
X1445726D01*
Y126524D01*
X1444202D01*
Y123476D01*
X1445726D01*
X1454460Y99460D02*
Y96920D01*
X1459540D01*
Y99460D01*
X1462080D01*
Y104540D01*
X1459540D01*
Y107080D01*
X1454460D01*
Y104540D01*
X1451920D01*
Y99460D01*
X1454460D01*
X1455476Y100476D02*
Y98952D01*
X1458524D01*
Y100476D01*
X1460048D01*
Y103524D01*
X1458524D01*
Y105048D01*
X1455476D01*
Y103524D01*
X1453952D01*
Y100476D01*
X1455476D01*
X1453710Y171960D02*
Y169420D01*
X1458790D01*
Y171960D01*
X1461330D01*
Y177040D01*
X1458790D01*
Y179580D01*
X1453710D01*
Y177040D01*
X1451170D01*
Y171960D01*
X1453710D01*
X1454726Y172976D02*
Y171452D01*
X1457774D01*
Y172976D01*
X1459298D01*
Y176024D01*
X1457774D01*
Y177548D01*
X1454726D01*
Y176024D01*
X1453202D01*
Y172976D01*
X1454726D01*
X1529210Y164460D02*
Y161920D01*
X1534290D01*
Y164460D01*
X1536830D01*
Y169540D01*
X1534290D01*
Y172080D01*
X1529210D01*
Y169540D01*
X1526670D01*
Y164460D01*
X1529210D01*
X1530226Y165476D02*
Y163952D01*
X1533274D01*
Y165476D01*
X1534798D01*
Y168524D01*
X1533274D01*
Y170048D01*
X1530226D01*
Y168524D01*
X1528702D01*
Y165476D01*
X1530226D01*
X1311835Y319835D02*
Y317295D01*
X1316915D01*
Y319835D01*
X1319455D01*
Y324915D01*
X1316915D01*
Y327455D01*
X1311835D01*
Y324915D01*
X1309295D01*
Y319835D01*
X1311835D01*
X1312851Y320851D02*
Y319327D01*
X1315899D01*
Y320851D01*
X1317423D01*
Y323899D01*
X1315899D01*
Y325423D01*
X1312851D01*
Y323899D01*
X1311327D01*
Y320851D01*
X1312851D01*
X1450460Y350210D02*
Y347670D01*
X1455540D01*
Y350210D01*
X1458080D01*
Y355290D01*
X1455540D01*
Y357830D01*
X1450460D01*
Y355290D01*
X1447920D01*
Y350210D01*
X1450460D01*
X1451476Y351226D02*
Y349702D01*
X1454524D01*
Y351226D01*
X1456048D01*
Y354274D01*
X1454524D01*
Y355798D01*
X1451476D01*
Y354274D01*
X1449952D01*
Y351226D01*
X1451476D01*
X1419460Y385460D02*
Y382920D01*
X1424540D01*
Y385460D01*
X1427080D01*
Y390540D01*
X1424540D01*
Y393080D01*
X1419460D01*
Y390540D01*
X1416920D01*
Y385460D01*
X1419460D01*
X1420476Y386476D02*
Y384952D01*
X1423524D01*
Y386476D01*
X1425048D01*
Y389524D01*
X1423524D01*
Y391048D01*
X1420476D01*
Y389524D01*
X1418952D01*
Y386476D01*
X1420476D01*
X1347460Y377460D02*
Y374920D01*
X1352540D01*
Y377460D01*
X1355080D01*
Y382540D01*
X1352540D01*
Y385080D01*
X1347460D01*
Y382540D01*
X1344920D01*
Y377460D01*
X1347460D01*
X1348476Y378476D02*
Y376952D01*
X1351524D01*
Y378476D01*
X1353048D01*
Y381524D01*
X1351524D01*
Y383048D01*
X1348476D01*
Y381524D01*
X1346952D01*
Y378476D01*
X1348476D01*
X1349460Y365460D02*
Y362920D01*
X1354540D01*
Y365460D01*
X1357080D01*
Y370540D01*
X1354540D01*
Y373080D01*
X1349460D01*
Y370540D01*
X1346920D01*
Y365460D01*
X1349460D01*
X1350476Y366476D02*
Y364952D01*
X1353524D01*
Y366476D01*
X1355048D01*
Y369524D01*
X1353524D01*
Y371048D01*
X1350476D01*
Y369524D01*
X1348952D01*
Y366476D01*
X1350476D01*
X1258920Y384920D02*
X1261460Y390000D01*
X1258920Y395080D01*
X1264000Y392540D01*
X1269080Y395080D01*
X1266540Y390000D01*
X1269080Y384920D01*
X1264000Y387460D01*
X1258920Y384920D01*
X1260952Y386952D02*
X1262476Y390000D01*
X1260952Y393048D01*
X1264000Y391524D01*
X1267048Y393048D01*
X1265524Y390000D01*
X1267048Y386952D01*
X1264000Y388476D01*
X1260952Y386952D01*
X977460Y149460D02*
Y146920D01*
X982540D01*
Y149460D01*
X985080D01*
Y154540D01*
X982540D01*
Y157080D01*
X977460D01*
Y154540D01*
X974920D01*
Y149460D01*
X977460D01*
X978476Y150476D02*
Y148952D01*
X981524D01*
Y150476D01*
X983048D01*
Y153524D01*
X981524D01*
Y155048D01*
X978476D01*
Y153524D01*
X976952D01*
Y150476D01*
X978476D01*
X1061120Y91666D02*
Y89126D01*
X1066200D01*
Y91666D01*
X1068740D01*
Y96746D01*
X1066200D01*
Y99286D01*
X1061120D01*
Y96746D01*
X1058580D01*
Y91666D01*
X1061120D01*
X1062136Y92682D02*
Y91158D01*
X1065184D01*
Y92682D01*
X1066708D01*
Y95730D01*
X1065184D01*
Y97254D01*
X1062136D01*
Y95730D01*
X1060612D01*
Y92682D01*
X1062136D01*
X937460Y149460D02*
Y146920D01*
X942540D01*
Y149460D01*
X945080D01*
Y154540D01*
X942540D01*
Y157080D01*
X937460D01*
Y154540D01*
X934920D01*
Y149460D01*
X937460D01*
X938476Y150476D02*
Y148952D01*
X941524D01*
Y150476D01*
X943048D01*
Y153524D01*
X941524D01*
Y155048D01*
X938476D01*
Y153524D01*
X936952D01*
Y150476D01*
X938476D01*
X890960Y117460D02*
Y114920D01*
X896040D01*
Y117460D01*
X898580D01*
Y122540D01*
X896040D01*
Y125080D01*
X890960D01*
Y122540D01*
X888420D01*
Y117460D01*
X890960D01*
X891976Y118476D02*
Y116952D01*
X895024D01*
Y118476D01*
X896548D01*
Y121524D01*
X895024D01*
Y123048D01*
X891976D01*
Y121524D01*
X890452D01*
Y118476D01*
X891976D01*
X890960Y68652D02*
Y66112D01*
X896040D01*
Y68652D01*
X898580D01*
Y73732D01*
X896040D01*
Y76272D01*
X890960D01*
Y73732D01*
X888420D01*
Y68652D01*
X890960D01*
X891976Y69668D02*
Y68144D01*
X895024D01*
Y69668D01*
X896548D01*
Y72716D01*
X895024D01*
Y74240D01*
X891976D01*
Y72716D01*
X890452D01*
Y69668D01*
X891976D01*
X963460Y91460D02*
Y88920D01*
X968540D01*
Y91460D01*
X971080D01*
Y96540D01*
X968540D01*
Y99080D01*
X963460D01*
Y96540D01*
X960920D01*
Y91460D01*
X963460D01*
X964476Y92476D02*
Y90952D01*
X967524D01*
Y92476D01*
X969048D01*
Y95524D01*
X967524D01*
Y97048D01*
X964476D01*
Y95524D01*
X962952D01*
Y92476D01*
X964476D01*
X979460Y35460D02*
Y32920D01*
X984540D01*
Y35460D01*
X987080D01*
Y40540D01*
X984540D01*
Y43080D01*
X979460D01*
Y40540D01*
X976920D01*
Y35460D01*
X979460D01*
X980476Y36476D02*
Y34952D01*
X983524D01*
Y36476D01*
X985048D01*
Y39524D01*
X983524D01*
Y41048D01*
X980476D01*
Y39524D01*
X978952D01*
Y36476D01*
X980476D01*
X983460Y91460D02*
Y88920D01*
X988540D01*
Y91460D01*
X991080D01*
Y96540D01*
X988540D01*
Y99080D01*
X983460D01*
Y96540D01*
X980920D01*
Y91460D01*
X983460D01*
X984476Y92476D02*
Y90952D01*
X987524D01*
Y92476D01*
X989048D01*
Y95524D01*
X987524D01*
Y97048D01*
X984476D01*
Y95524D01*
X982952D01*
Y92476D01*
X984476D01*
X992460Y67460D02*
Y64920D01*
X997540D01*
Y67460D01*
X1000080D01*
Y72540D01*
X997540D01*
Y75080D01*
X992460D01*
Y72540D01*
X989920D01*
Y67460D01*
X992460D01*
X993476Y68476D02*
Y66952D01*
X996524D01*
Y68476D01*
X998048D01*
Y71524D01*
X996524D01*
Y73048D01*
X993476D01*
Y71524D01*
X991952D01*
Y68476D01*
X993476D01*
X989460Y143729D02*
Y141189D01*
X994540D01*
Y143729D01*
X997080D01*
Y148809D01*
X994540D01*
Y151349D01*
X989460D01*
Y148809D01*
X986920D01*
Y143729D01*
X989460D01*
X990476Y144746D02*
Y143222D01*
X993524D01*
Y144746D01*
X995048D01*
Y147794D01*
X993524D01*
Y149318D01*
X990476D01*
Y147794D01*
X988952D01*
Y144746D01*
X990476D01*
X1002460Y117460D02*
Y114920D01*
X1007540D01*
Y117460D01*
X1010080D01*
Y122540D01*
X1007540D01*
Y125080D01*
X1002460D01*
Y122540D01*
X999920D01*
Y117460D01*
X1002460D01*
X1003476Y118476D02*
Y116952D01*
X1006524D01*
Y118476D01*
X1008048D01*
Y121524D01*
X1006524D01*
Y123048D01*
X1003476D01*
Y121524D01*
X1001952D01*
Y118476D01*
X1003476D01*
X1027460Y198960D02*
Y196420D01*
X1032540D01*
Y198960D01*
X1035080D01*
Y204040D01*
X1032540D01*
Y206580D01*
X1027460D01*
Y204040D01*
X1024920D01*
Y198960D01*
X1027460D01*
X1028476Y199976D02*
Y198452D01*
X1031524D01*
Y199976D01*
X1033048D01*
Y203024D01*
X1031524D01*
Y204548D01*
X1028476D01*
Y203024D01*
X1026952D01*
Y199976D01*
X1028476D01*
X857460Y337460D02*
Y334920D01*
X862540D01*
Y337460D01*
X865080D01*
Y342540D01*
X862540D01*
Y345080D01*
X857460D01*
Y342540D01*
X854920D01*
Y337460D01*
X857460D01*
X858476Y338476D02*
Y336952D01*
X861524D01*
Y338476D01*
X863048D01*
Y341524D01*
X861524D01*
Y343048D01*
X858476D01*
Y341524D01*
X856952D01*
Y338476D01*
X858476D01*
X781960Y309210D02*
Y306670D01*
X787040D01*
Y309210D01*
X789580D01*
Y314290D01*
X787040D01*
Y316830D01*
X781960D01*
Y314290D01*
X779420D01*
Y309210D01*
X781960D01*
X782976Y310226D02*
Y308702D01*
X786024D01*
Y310226D01*
X787548D01*
Y313274D01*
X786024D01*
Y314798D01*
X782976D01*
Y313274D01*
X781452D01*
Y310226D01*
X782976D01*
X1444460Y578710D02*
Y576170D01*
X1449540D01*
Y578710D01*
X1452080D01*
Y583790D01*
X1449540D01*
Y586330D01*
X1444460D01*
Y583790D01*
X1441920D01*
Y578710D01*
X1444460D01*
X1445476Y579726D02*
Y578202D01*
X1448524D01*
Y579726D01*
X1450048D01*
Y582774D01*
X1448524D01*
Y584298D01*
X1445476D01*
Y582774D01*
X1443952D01*
Y579726D01*
X1445476D01*
X1458460Y591710D02*
Y589170D01*
X1463540D01*
Y591710D01*
X1466080D01*
Y596790D01*
X1463540D01*
Y599330D01*
X1458460D01*
Y596790D01*
X1455920D01*
Y591710D01*
X1458460D01*
X1459476Y592726D02*
Y591202D01*
X1462524D01*
Y592726D01*
X1464048D01*
Y595774D01*
X1462524D01*
Y597298D01*
X1459476D01*
Y595774D01*
X1457952D01*
Y592726D01*
X1459476D01*
X1200710Y312710D02*
Y310170D01*
X1205790D01*
Y312710D01*
X1208330D01*
Y317790D01*
X1205790D01*
Y320330D01*
X1200710D01*
Y317790D01*
X1198170D01*
Y312710D01*
X1200710D01*
X1201726Y313726D02*
Y312202D01*
X1204774D01*
Y313726D01*
X1206298D01*
Y316774D01*
X1204774D01*
Y318298D01*
X1201726D01*
Y316774D01*
X1200202D01*
Y313726D01*
X1201726D01*
X1148710Y310960D02*
Y308420D01*
X1153790D01*
Y310960D01*
X1156330D01*
Y316040D01*
X1153790D01*
Y318580D01*
X1148710D01*
Y316040D01*
X1146170D01*
Y310960D01*
X1148710D01*
X1149726Y311976D02*
Y310452D01*
X1152774D01*
Y311976D01*
X1154298D01*
Y315024D01*
X1152774D01*
Y316548D01*
X1149726D01*
Y315024D01*
X1148202D01*
Y311976D01*
X1149726D01*
X1144210Y141710D02*
Y139170D01*
X1149290D01*
Y141710D01*
X1151830D01*
Y146790D01*
X1149290D01*
Y149330D01*
X1144210D01*
Y146790D01*
X1141670D01*
Y141710D01*
X1144210D01*
X1145226Y142726D02*
Y141202D01*
X1148274D01*
Y142726D01*
X1149798D01*
Y145774D01*
X1148274D01*
Y147298D01*
X1145226D01*
Y145774D01*
X1143702D01*
Y142726D01*
X1145226D01*
X1200460Y127710D02*
Y125170D01*
X1205540D01*
Y127710D01*
X1208080D01*
Y132790D01*
X1205540D01*
Y135330D01*
X1200460D01*
Y132790D01*
X1197920D01*
Y127710D01*
X1200460D01*
X1201476Y128726D02*
Y127202D01*
X1204524D01*
Y128726D01*
X1206048D01*
Y131774D01*
X1204524D01*
Y133298D01*
X1201476D01*
Y131774D01*
X1199952D01*
Y128726D01*
X1201476D01*
X1064710Y198960D02*
Y196420D01*
X1069790D01*
Y198960D01*
X1072330D01*
Y204040D01*
X1069790D01*
Y206580D01*
X1064710D01*
Y204040D01*
X1062170D01*
Y198960D01*
X1064710D01*
X1065726Y199976D02*
Y198452D01*
X1068774D01*
Y199976D01*
X1070298D01*
Y203024D01*
X1068774D01*
Y204548D01*
X1065726D01*
Y203024D01*
X1064202D01*
Y199976D01*
X1065726D01*
X1076460Y176210D02*
Y173670D01*
X1081540D01*
Y176210D01*
X1084080D01*
Y181290D01*
X1081540D01*
Y183830D01*
X1076460D01*
Y181290D01*
X1073920D01*
Y176210D01*
X1076460D01*
X1077476Y177226D02*
Y175702D01*
X1080524D01*
Y177226D01*
X1082048D01*
Y180274D01*
X1080524D01*
Y181798D01*
X1077476D01*
Y180274D01*
X1075952D01*
Y177226D01*
X1077476D01*
X1108960Y326710D02*
Y324170D01*
X1114040D01*
Y326710D01*
X1116580D01*
Y331790D01*
X1114040D01*
Y334330D01*
X1108960D01*
Y331790D01*
X1106420D01*
Y326710D01*
X1108960D01*
X1109976Y327726D02*
Y326202D01*
X1113024D01*
Y327726D01*
X1114548D01*
Y330774D01*
X1113024D01*
Y332298D01*
X1109976D01*
Y330774D01*
X1108452D01*
Y327726D01*
X1109976D01*
X948210Y64710D02*
Y62170D01*
X953290D01*
Y64710D01*
X955830D01*
Y69790D01*
X953290D01*
Y72330D01*
X948210D01*
Y69790D01*
X945670D01*
Y64710D01*
X948210D01*
X949226Y65726D02*
Y64202D01*
X952274D01*
Y65726D01*
X953798D01*
Y68774D01*
X952274D01*
Y70298D01*
X949226D01*
Y68774D01*
X947702D01*
Y65726D01*
X949226D01*
X928460Y203210D02*
Y200670D01*
X933540D01*
Y203210D01*
X936080D01*
Y208290D01*
X933540D01*
Y210830D01*
X928460D01*
Y208290D01*
X925920D01*
Y203210D01*
X928460D01*
X929476Y204226D02*
Y202702D01*
X932524D01*
Y204226D01*
X934048D01*
Y207274D01*
X932524D01*
Y208798D01*
X929476D01*
Y207274D01*
X927952D01*
Y204226D01*
X929476D01*
X955460Y190960D02*
Y188420D01*
X960540D01*
Y190960D01*
X963080D01*
Y196040D01*
X960540D01*
Y198580D01*
X955460D01*
Y196040D01*
X952920D01*
Y190960D01*
X955460D01*
X956476Y191976D02*
Y190452D01*
X959524D01*
Y191976D01*
X961048D01*
Y195024D01*
X959524D01*
Y196548D01*
X956476D01*
Y195024D01*
X954952D01*
Y191976D01*
X956476D01*
X1089460Y268710D02*
Y266170D01*
X1094540D01*
Y268710D01*
X1097080D01*
Y273790D01*
X1094540D01*
Y276330D01*
X1089460D01*
Y273790D01*
X1086920D01*
Y268710D01*
X1089460D01*
X1090476Y269726D02*
Y268202D01*
X1093524D01*
Y269726D01*
X1095048D01*
Y272774D01*
X1093524D01*
Y274298D01*
X1090476D01*
Y272774D01*
X1088952D01*
Y269726D01*
X1090476D01*
X1104222Y107130D02*
Y104590D01*
X1109302D01*
Y107130D01*
X1111842D01*
Y112210D01*
X1109302D01*
Y114750D01*
X1104222D01*
Y112210D01*
X1101682D01*
Y107130D01*
X1104222D01*
X1105238Y108146D02*
Y106622D01*
X1108286D01*
Y108146D01*
X1109810D01*
Y111194D01*
X1108286D01*
Y112718D01*
X1105238D01*
Y111194D01*
X1103714D01*
Y108146D01*
X1105238D01*
X1152460Y77460D02*
Y74920D01*
X1157540D01*
Y77460D01*
X1160080D01*
Y82540D01*
X1157540D01*
Y85080D01*
X1152460D01*
Y82540D01*
X1149920D01*
Y77460D01*
X1152460D01*
X1153476Y78476D02*
Y76952D01*
X1156524D01*
Y78476D01*
X1158048D01*
Y81524D01*
X1156524D01*
Y83048D01*
X1153476D01*
Y81524D01*
X1151952D01*
Y78476D01*
X1153476D01*
X1577210Y525210D02*
Y522670D01*
X1582290D01*
Y525210D01*
X1584830D01*
Y530290D01*
X1582290D01*
Y532830D01*
X1577210D01*
Y530290D01*
X1574670D01*
Y525210D01*
X1577210D01*
X1578226Y526226D02*
Y524702D01*
X1581274D01*
Y526226D01*
X1582798D01*
Y529274D01*
X1581274D01*
Y530798D01*
X1578226D01*
Y529274D01*
X1576702D01*
Y526226D01*
X1578226D01*
X1565210Y530960D02*
Y528420D01*
X1570290D01*
Y530960D01*
X1572830D01*
Y536040D01*
X1570290D01*
Y538580D01*
X1565210D01*
Y536040D01*
X1562670D01*
Y530960D01*
X1565210D01*
X1566226Y531976D02*
Y530452D01*
X1569274D01*
Y531976D01*
X1570798D01*
Y535024D01*
X1569274D01*
Y536548D01*
X1566226D01*
Y535024D01*
X1564702D01*
Y531976D01*
X1566226D01*
X1529960Y178210D02*
Y175670D01*
X1535040D01*
Y178210D01*
X1537580D01*
Y183290D01*
X1535040D01*
Y185830D01*
X1529960D01*
Y183290D01*
X1527420D01*
Y178210D01*
X1529960D01*
X1530976Y179226D02*
Y177702D01*
X1534024D01*
Y179226D01*
X1535548D01*
Y182274D01*
X1534024D01*
Y183798D01*
X1530976D01*
Y182274D01*
X1529452D01*
Y179226D01*
X1530976D01*
X1229420Y397170D02*
X1231960Y402250D01*
X1229420Y407330D01*
X1234500Y404790D01*
X1239580Y407330D01*
X1237040Y402250D01*
X1239580Y397170D01*
X1234500Y399710D01*
X1229420Y397170D01*
X1231452Y399202D02*
X1232976Y402250D01*
X1231452Y405298D01*
X1234500Y403774D01*
X1237548Y405298D01*
X1236024Y402250D01*
X1237548Y399202D01*
X1234500Y400726D01*
X1231452Y399202D01*
X1227920Y385420D02*
X1230460Y390500D01*
X1227920Y395580D01*
X1233000Y393040D01*
X1238080Y395580D01*
X1235540Y390500D01*
X1238080Y385420D01*
X1233000Y387960D01*
X1227920Y385420D01*
X1229952Y387452D02*
X1231476Y390500D01*
X1229952Y393548D01*
X1233000Y392024D01*
X1236048Y393548D01*
X1234524Y390500D01*
X1236048Y387452D01*
X1233000Y388976D01*
X1229952Y387452D01*
X1215670Y403420D02*
X1218210Y408500D01*
X1215670Y413580D01*
X1220750Y411040D01*
X1225830Y413580D01*
X1223290Y408500D01*
X1225830Y403420D01*
X1220750Y405960D01*
X1215670Y403420D01*
X1217702Y405452D02*
X1219226Y408500D01*
X1217702Y411548D01*
X1220750Y410024D01*
X1223798Y411548D01*
X1222274Y408500D01*
X1223798Y405452D01*
X1220750Y406976D01*
X1217702Y405452D01*
X757460Y416960D02*
Y414420D01*
X762540D01*
Y416960D01*
X765080D01*
Y422040D01*
X762540D01*
Y424580D01*
X757460D01*
Y422040D01*
X754920D01*
Y416960D01*
X757460D01*
X758476Y417976D02*
Y416452D01*
X761524D01*
Y417976D01*
X763048D01*
Y421024D01*
X761524D01*
Y422548D01*
X758476D01*
Y421024D01*
X756952D01*
Y417976D01*
X758476D01*
X504210Y326460D02*
Y323920D01*
X509290D01*
Y326460D01*
X511830D01*
Y331540D01*
X509290D01*
Y334080D01*
X504210D01*
Y331540D01*
X501670D01*
Y326460D01*
X504210D01*
X505226Y327476D02*
Y325952D01*
X508274D01*
Y327476D01*
X509798D01*
Y330524D01*
X508274D01*
Y332048D01*
X505226D01*
Y330524D01*
X503702D01*
Y327476D01*
X505226D01*
X762960Y352460D02*
Y349920D01*
X768040D01*
Y352460D01*
X770580D01*
Y357540D01*
X768040D01*
Y360080D01*
X762960D01*
Y357540D01*
X760420D01*
Y352460D01*
X762960D01*
X763976Y353476D02*
Y351952D01*
X767024D01*
Y353476D01*
X768548D01*
Y356524D01*
X767024D01*
Y358048D01*
X763976D01*
Y356524D01*
X762452D01*
Y353476D01*
X763976D01*
X1091210Y302460D02*
Y299920D01*
X1096290D01*
Y302460D01*
X1098830D01*
Y307540D01*
X1096290D01*
Y310080D01*
X1091210D01*
Y307540D01*
X1088670D01*
Y302460D01*
X1091210D01*
X1092226Y303476D02*
Y301952D01*
X1095274D01*
Y303476D01*
X1096798D01*
Y306524D01*
X1095274D01*
Y308048D01*
X1092226D01*
Y306524D01*
X1090702D01*
Y303476D01*
X1092226D01*
X1179210Y573460D02*
Y570920D01*
X1184290D01*
Y573460D01*
X1186830D01*
Y578540D01*
X1184290D01*
Y581080D01*
X1179210D01*
Y578540D01*
X1176670D01*
Y573460D01*
X1179210D01*
X1180226Y574476D02*
Y572952D01*
X1183274D01*
Y574476D01*
X1184798D01*
Y577524D01*
X1183274D01*
Y579048D01*
X1180226D01*
Y577524D01*
X1178702D01*
Y574476D01*
X1180226D01*
X1263460Y372460D02*
Y369920D01*
X1268540D01*
Y372460D01*
X1271080D01*
Y377540D01*
X1268540D01*
Y380080D01*
X1263460D01*
Y377540D01*
X1260920D01*
Y372460D01*
X1263460D01*
X1264476Y373476D02*
Y371952D01*
X1267524D01*
Y373476D01*
X1269048D01*
Y376524D01*
X1267524D01*
Y378048D01*
X1264476D01*
Y376524D01*
X1262952D01*
Y373476D01*
X1264476D01*
X1163710Y413460D02*
Y410920D01*
X1168790D01*
Y413460D01*
X1171330D01*
Y418540D01*
X1168790D01*
Y421080D01*
X1163710D01*
Y418540D01*
X1161170D01*
Y413460D01*
X1163710D01*
X1164726Y414476D02*
Y412952D01*
X1167774D01*
Y414476D01*
X1169298D01*
Y417524D01*
X1167774D01*
Y419048D01*
X1164726D01*
Y417524D01*
X1163202D01*
Y414476D01*
X1164726D01*
X1239920Y458920D02*
X1242460Y464000D01*
X1239920Y469080D01*
X1245000Y466540D01*
X1250080Y469080D01*
X1247540Y464000D01*
X1250080Y458920D01*
X1245000Y461460D01*
X1239920Y458920D01*
X1241952Y460952D02*
X1243476Y464000D01*
X1241952Y467048D01*
X1245000Y465524D01*
X1248048Y467048D01*
X1246524Y464000D01*
X1248048Y460952D01*
X1245000Y462476D01*
X1241952Y460952D01*
X1321210Y529710D02*
Y527170D01*
X1326290D01*
Y529710D01*
X1328830D01*
Y534790D01*
X1326290D01*
Y537330D01*
X1321210D01*
Y534790D01*
X1318670D01*
Y529710D01*
X1321210D01*
X1322226Y530726D02*
Y529202D01*
X1325274D01*
Y530726D01*
X1326798D01*
Y533774D01*
X1325274D01*
Y535298D01*
X1322226D01*
Y533774D01*
X1320702D01*
Y530726D01*
X1322226D01*
X852210Y367460D02*
Y364920D01*
X857290D01*
Y367460D01*
X859830D01*
Y372540D01*
X857290D01*
Y375080D01*
X852210D01*
Y372540D01*
X849670D01*
Y367460D01*
X852210D01*
X853226Y368476D02*
Y366952D01*
X856274D01*
Y368476D01*
X857798D01*
Y371524D01*
X856274D01*
Y373048D01*
X853226D01*
Y371524D01*
X851702D01*
Y368476D01*
X853226D01*
X1656588Y640672D02*
Y638132D01*
X1661668D01*
Y640672D01*
X1664208D01*
Y645752D01*
X1661668D01*
Y648292D01*
X1656588D01*
Y645752D01*
X1654048D01*
Y640672D01*
X1656588D01*
X1657604Y641688D02*
Y640164D01*
X1660652D01*
Y641688D01*
X1662176D01*
Y644736D01*
X1660652D01*
Y646260D01*
X1657604D01*
Y644736D01*
X1656080D01*
Y641688D01*
X1657604D01*
X1510960Y631710D02*
Y629170D01*
X1516040D01*
Y631710D01*
X1518580D01*
Y636790D01*
X1516040D01*
Y639330D01*
X1510960D01*
Y636790D01*
X1508420D01*
Y631710D01*
X1510960D01*
X1511976Y632726D02*
Y631202D01*
X1515024D01*
Y632726D01*
X1516548D01*
Y635774D01*
X1515024D01*
Y637298D01*
X1511976D01*
Y635774D01*
X1510452D01*
Y632726D01*
X1511976D01*
X960460Y117210D02*
Y114670D01*
X965540D01*
Y117210D01*
X968080D01*
Y122290D01*
X965540D01*
Y124830D01*
X960460D01*
Y122290D01*
X957920D01*
Y117210D01*
X960460D01*
X961476Y118226D02*
Y116702D01*
X964524D01*
Y118226D01*
X966048D01*
Y121274D01*
X964524D01*
Y122798D01*
X961476D01*
Y121274D01*
X959952D01*
Y118226D01*
X961476D01*
X1291608Y143916D02*
Y141376D01*
X1296688D01*
Y143916D01*
X1299228D01*
Y148996D01*
X1296688D01*
Y151536D01*
X1291608D01*
Y148996D01*
X1289068D01*
Y143916D01*
X1291608D01*
X1292624Y144932D02*
Y143408D01*
X1295672D01*
Y144932D01*
X1297196D01*
Y147980D01*
X1295672D01*
Y149504D01*
X1292624D01*
Y147980D01*
X1291100D01*
Y144932D01*
X1292624D01*
X1292960Y172710D02*
Y170170D01*
X1298040D01*
Y172710D01*
X1300580D01*
Y177790D01*
X1298040D01*
Y180330D01*
X1292960D01*
Y177790D01*
X1290420D01*
Y172710D01*
X1292960D01*
X1293976Y173726D02*
Y172202D01*
X1297024D01*
Y173726D01*
X1298548D01*
Y176774D01*
X1297024D01*
Y178298D01*
X1293976D01*
Y176774D01*
X1292452D01*
Y173726D01*
X1293976D01*
X1069710Y212960D02*
Y210420D01*
X1074790D01*
Y212960D01*
X1077330D01*
Y218040D01*
X1074790D01*
Y220580D01*
X1069710D01*
Y218040D01*
X1067170D01*
Y212960D01*
X1069710D01*
X1070726Y213976D02*
Y212452D01*
X1073774D01*
Y213976D01*
X1075298D01*
Y217024D01*
X1073774D01*
Y218548D01*
X1070726D01*
Y217024D01*
X1069202D01*
Y213976D01*
X1070726D01*
X1074210Y310710D02*
Y308170D01*
X1079290D01*
Y310710D01*
X1081830D01*
Y315790D01*
X1079290D01*
Y318330D01*
X1074210D01*
Y315790D01*
X1071670D01*
Y310710D01*
X1074210D01*
X1075226Y311726D02*
Y310202D01*
X1078274D01*
Y311726D01*
X1079798D01*
Y314774D01*
X1078274D01*
Y316298D01*
X1075226D01*
Y314774D01*
X1073702D01*
Y311726D01*
X1075226D01*
X1230460Y325710D02*
Y323170D01*
X1235540D01*
Y325710D01*
X1238080D01*
Y330790D01*
X1235540D01*
Y333330D01*
X1230460D01*
Y330790D01*
X1227920D01*
Y325710D01*
X1230460D01*
X1231476Y326726D02*
Y325202D01*
X1234524D01*
Y326726D01*
X1236048D01*
Y329774D01*
X1234524D01*
Y331298D01*
X1231476D01*
Y329774D01*
X1229952D01*
Y326726D01*
X1231476D01*
X1264210Y325710D02*
Y323170D01*
X1269290D01*
Y325710D01*
X1271830D01*
Y330790D01*
X1269290D01*
Y333330D01*
X1264210D01*
Y330790D01*
X1261670D01*
Y325710D01*
X1264210D01*
X1265226Y326726D02*
Y325202D01*
X1268274D01*
Y326726D01*
X1269798D01*
Y329774D01*
X1268274D01*
Y331298D01*
X1265226D01*
Y329774D01*
X1263702D01*
Y326726D01*
X1265226D01*
X1067210Y327210D02*
Y324670D01*
X1072290D01*
Y327210D01*
X1074830D01*
Y332290D01*
X1072290D01*
Y334830D01*
X1067210D01*
Y332290D01*
X1064670D01*
Y327210D01*
X1067210D01*
X1068226Y328226D02*
Y326702D01*
X1071274D01*
Y328226D01*
X1072798D01*
Y331274D01*
X1071274D01*
Y332798D01*
X1068226D01*
Y331274D01*
X1066702D01*
Y328226D01*
X1068226D01*
X1316456Y335990D02*
X1318996Y341070D01*
X1316456Y346150D01*
X1321536Y343610D01*
X1326616Y346150D01*
X1324076Y341070D01*
X1326616Y335990D01*
X1321536Y338530D01*
X1316456Y335990D01*
X1318488Y338022D02*
X1320012Y341070D01*
X1318488Y344118D01*
X1321536Y342594D01*
X1324584Y344118D01*
X1323060Y341070D01*
X1324584Y338022D01*
X1321536Y339546D01*
X1318488Y338022D01*
X1203210Y345960D02*
Y343420D01*
X1208290D01*
Y345960D01*
X1210830D01*
Y351040D01*
X1208290D01*
Y353580D01*
X1203210D01*
Y351040D01*
X1200670D01*
Y345960D01*
X1203210D01*
X1204226Y346976D02*
Y345452D01*
X1207274D01*
Y346976D01*
X1208798D01*
Y350024D01*
X1207274D01*
Y351548D01*
X1204226D01*
Y350024D01*
X1202702D01*
Y346976D01*
X1204226D01*
X1264210Y353210D02*
Y350670D01*
X1269290D01*
Y353210D01*
X1271830D01*
Y358290D01*
X1269290D01*
Y360830D01*
X1264210D01*
Y358290D01*
X1261670D01*
Y353210D01*
X1264210D01*
X1265226Y354226D02*
Y352702D01*
X1268274D01*
Y354226D01*
X1269798D01*
Y357274D01*
X1268274D01*
Y358798D01*
X1265226D01*
Y357274D01*
X1263702D01*
Y354226D01*
X1265226D01*
X1224920Y358670D02*
X1227460Y363750D01*
X1224920Y368830D01*
X1230000Y366290D01*
X1235080Y368830D01*
X1232540Y363750D01*
X1235080Y358670D01*
X1230000Y361210D01*
X1224920Y358670D01*
X1226952Y360702D02*
X1228476Y363750D01*
X1226952Y366798D01*
X1230000Y365274D01*
X1233048Y366798D01*
X1231524Y363750D01*
X1233048Y360702D01*
X1230000Y362226D01*
X1226952Y360702D01*
X1226670Y421670D02*
X1229210Y426750D01*
X1226670Y431830D01*
X1231750Y429290D01*
X1236830Y431830D01*
X1234290Y426750D01*
X1236830Y421670D01*
X1231750Y424210D01*
X1226670Y421670D01*
X1228702Y423702D02*
X1230226Y426750D01*
X1228702Y429798D01*
X1231750Y428274D01*
X1234798Y429798D01*
X1233274Y426750D01*
X1234798Y423702D01*
X1231750Y425226D01*
X1228702Y423702D01*
X1231420Y438920D02*
X1233960Y444000D01*
X1231420Y449080D01*
X1236500Y446540D01*
X1241580Y449080D01*
X1239040Y444000D01*
X1241580Y438920D01*
X1236500Y441460D01*
X1231420Y438920D01*
X1233452Y440952D02*
X1234976Y444000D01*
X1233452Y447048D01*
X1236500Y445524D01*
X1239548Y447048D01*
X1238024Y444000D01*
X1239548Y440952D01*
X1236500Y442476D01*
X1233452Y440952D01*
X1201210Y588964D02*
Y586424D01*
X1206290D01*
Y588964D01*
X1208830D01*
Y594044D01*
X1206290D01*
Y596584D01*
X1201210D01*
Y594044D01*
X1198670D01*
Y588964D01*
X1201210D01*
X1202226Y589980D02*
Y588456D01*
X1205274D01*
Y589980D01*
X1206798D01*
Y593028D01*
X1205274D01*
Y594552D01*
X1202226D01*
Y593028D01*
X1200702D01*
Y589980D01*
X1202226D01*
X1312210Y375210D02*
Y372670D01*
X1317290D01*
Y375210D01*
X1319830D01*
Y380290D01*
X1317290D01*
Y382830D01*
X1312210D01*
Y380290D01*
X1309670D01*
Y375210D01*
X1312210D01*
X1313226Y376226D02*
Y374702D01*
X1316274D01*
Y376226D01*
X1317798D01*
Y379274D01*
X1316274D01*
Y380798D01*
X1313226D01*
Y379274D01*
X1311702D01*
Y376226D01*
X1313226D01*
X1299210Y393460D02*
Y390920D01*
X1304290D01*
Y393460D01*
X1306830D01*
Y398540D01*
X1304290D01*
Y401080D01*
X1299210D01*
Y398540D01*
X1296670D01*
Y393460D01*
X1299210D01*
X1300226Y394476D02*
Y392952D01*
X1303274D01*
Y394476D01*
X1304798D01*
Y397524D01*
X1303274D01*
Y399048D01*
X1300226D01*
Y397524D01*
X1298702D01*
Y394476D01*
X1300226D01*
X1283170Y403670D02*
X1285710Y408750D01*
X1283170Y413830D01*
X1288250Y411290D01*
X1293330Y413830D01*
X1290790Y408750D01*
X1293330Y403670D01*
X1288250Y406210D01*
X1283170Y403670D01*
X1285202Y405702D02*
X1286726Y408750D01*
X1285202Y411798D01*
X1288250Y410274D01*
X1291298Y411798D01*
X1289774Y408750D01*
X1291298Y405702D01*
X1288250Y407226D01*
X1285202Y405702D01*
X1304670Y407420D02*
X1307210Y412500D01*
X1304670Y417580D01*
X1309750Y415040D01*
X1314830Y417580D01*
X1312290Y412500D01*
X1314830Y407420D01*
X1309750Y409960D01*
X1304670Y407420D01*
X1306702Y409452D02*
X1308226Y412500D01*
X1306702Y415548D01*
X1309750Y414024D01*
X1312798Y415548D01*
X1311274Y412500D01*
X1312798Y409452D01*
X1309750Y410976D01*
X1306702Y409452D01*
X1277560Y419780D02*
X1280100Y424860D01*
X1277560Y429940D01*
X1282640Y427400D01*
X1287720Y429940D01*
X1285180Y424860D01*
X1287720Y419780D01*
X1282640Y422320D01*
X1277560Y419780D01*
X1279592Y421812D02*
X1281116Y424860D01*
X1279592Y427908D01*
X1282640Y426384D01*
X1285688Y427908D01*
X1284164Y424860D01*
X1285688Y421812D01*
X1282640Y423336D01*
X1279592Y421812D01*
X1269560Y419780D02*
X1272100Y424860D01*
X1269560Y429940D01*
X1274640Y427400D01*
X1279720Y429940D01*
X1277180Y424860D01*
X1279720Y419780D01*
X1274640Y422320D01*
X1269560Y419780D01*
X1271592Y421812D02*
X1273116Y424860D01*
X1271592Y427908D01*
X1274640Y426384D01*
X1277688Y427908D01*
X1276164Y424860D01*
X1277688Y421812D01*
X1274640Y423336D01*
X1271592Y421812D01*
X1282670Y458420D02*
X1285210Y463500D01*
X1282670Y468580D01*
X1287750Y466040D01*
X1292830Y468580D01*
X1290290Y463500D01*
X1292830Y458420D01*
X1287750Y460960D01*
X1282670Y458420D01*
X1284702Y460452D02*
X1286226Y463500D01*
X1284702Y466548D01*
X1287750Y465024D01*
X1290798Y466548D01*
X1289274Y463500D01*
X1290798Y460452D01*
X1287750Y461976D01*
X1284702Y460452D01*
X1300420Y458670D02*
X1302960Y463750D01*
X1300420Y468830D01*
X1305500Y466290D01*
X1310580Y468830D01*
X1308040Y463750D01*
X1310580Y458670D01*
X1305500Y461210D01*
X1300420Y458670D01*
X1302452Y460702D02*
X1303976Y463750D01*
X1302452Y466798D01*
X1305500Y465274D01*
X1308548Y466798D01*
X1307024Y463750D01*
X1308548Y460702D01*
X1305500Y462226D01*
X1302452Y460702D01*
X1263920Y459420D02*
X1266460Y464500D01*
X1263920Y469580D01*
X1269000Y467040D01*
X1274080Y469580D01*
X1271540Y464500D01*
X1274080Y459420D01*
X1269000Y461960D01*
X1263920Y459420D01*
X1265952Y461452D02*
X1267476Y464500D01*
X1265952Y467548D01*
X1269000Y466024D01*
X1272048Y467548D01*
X1270524Y464500D01*
X1272048Y461452D01*
X1269000Y462976D01*
X1265952Y461452D01*
X1276710Y541460D02*
Y538920D01*
X1281790D01*
Y541460D01*
X1284330D01*
Y546540D01*
X1281790D01*
Y549080D01*
X1276710D01*
Y546540D01*
X1274170D01*
Y541460D01*
X1276710D01*
X1277726Y542476D02*
Y540952D01*
X1280774D01*
Y542476D01*
X1282298D01*
Y545524D01*
X1280774D01*
Y547048D01*
X1277726D01*
Y545524D01*
X1276202D01*
Y542476D01*
X1277726D01*
X1275960Y559460D02*
Y556920D01*
X1281040D01*
Y559460D01*
X1283580D01*
Y564540D01*
X1281040D01*
Y567080D01*
X1275960D01*
Y564540D01*
X1273420D01*
Y559460D01*
X1275960D01*
X1276976Y560476D02*
Y558952D01*
X1280024D01*
Y560476D01*
X1281548D01*
Y563524D01*
X1280024D01*
Y565048D01*
X1276976D01*
Y563524D01*
X1275452D01*
Y560476D01*
X1276976D01*
X1319850Y385483D02*
X1322390Y390563D01*
X1319850Y395643D01*
X1324930Y393103D01*
X1330009Y395643D01*
X1327469Y390563D01*
X1330009Y385483D01*
X1324930Y388023D01*
X1319850Y385483D01*
X1321882Y387515D02*
X1323405Y390563D01*
X1321882Y393611D01*
X1324930Y392087D01*
X1327977Y393611D01*
X1326454Y390563D01*
X1327977Y387515D01*
X1324930Y389039D01*
X1321882Y387515D01*
X1320670Y406670D02*
X1323210Y411750D01*
X1320670Y416830D01*
X1325750Y414290D01*
X1330830Y416830D01*
X1328290Y411750D01*
X1330830Y406670D01*
X1325750Y409210D01*
X1320670Y406670D01*
X1322702Y408702D02*
X1324226Y411750D01*
X1322702Y414798D01*
X1325750Y413274D01*
X1328798Y414798D01*
X1327274Y411750D01*
X1328798Y408702D01*
X1325750Y410226D01*
X1322702Y408702D01*
X1326960Y248460D02*
Y245920D01*
X1332040D01*
Y248460D01*
X1334580D01*
Y253540D01*
X1332040D01*
Y256080D01*
X1326960D01*
Y253540D01*
X1324420D01*
Y248460D01*
X1326960D01*
X1327976Y249476D02*
Y247952D01*
X1331024D01*
Y249476D01*
X1332548D01*
Y252524D01*
X1331024D01*
Y254048D01*
X1327976D01*
Y252524D01*
X1326452D01*
Y249476D01*
X1327976D01*
X1335210Y255710D02*
Y253170D01*
X1340290D01*
Y255710D01*
X1342830D01*
Y260790D01*
X1340290D01*
Y263330D01*
X1335210D01*
Y260790D01*
X1332670D01*
Y255710D01*
X1335210D01*
X1336226Y256726D02*
Y255202D01*
X1339274D01*
Y256726D01*
X1340798D01*
Y259774D01*
X1339274D01*
Y261298D01*
X1336226D01*
Y259774D01*
X1334702D01*
Y256726D01*
X1336226D01*
X1339210Y361960D02*
Y359420D01*
X1344290D01*
Y361960D01*
X1346830D01*
Y367040D01*
X1344290D01*
Y369580D01*
X1339210D01*
Y367040D01*
X1336670D01*
Y361960D01*
X1339210D01*
X1340226Y362976D02*
Y361452D01*
X1343274D01*
Y362976D01*
X1344798D01*
Y366024D01*
X1343274D01*
Y367548D01*
X1340226D01*
Y366024D01*
X1338702D01*
Y362976D01*
X1340226D01*
X1346710Y350460D02*
Y347920D01*
X1351790D01*
Y350460D01*
X1354330D01*
Y355540D01*
X1351790D01*
Y358080D01*
X1346710D01*
Y355540D01*
X1344170D01*
Y350460D01*
X1346710D01*
X1347726Y351476D02*
Y349952D01*
X1350774D01*
Y351476D01*
X1352298D01*
Y354524D01*
X1350774D01*
Y356048D01*
X1347726D01*
Y354524D01*
X1346202D01*
Y351476D01*
X1347726D01*
X1486210Y193210D02*
Y190670D01*
X1491290D01*
Y193210D01*
X1493830D01*
Y198290D01*
X1491290D01*
Y200830D01*
X1486210D01*
Y198290D01*
X1483670D01*
Y193210D01*
X1486210D01*
X1487226Y194226D02*
Y192702D01*
X1490274D01*
Y194226D01*
X1491798D01*
Y197274D01*
X1490274D01*
Y198798D01*
X1487226D01*
Y197274D01*
X1485702D01*
Y194226D01*
X1487226D01*
X1385210Y254460D02*
Y251920D01*
X1390290D01*
Y254460D01*
X1392830D01*
Y259540D01*
X1390290D01*
Y262080D01*
X1385210D01*
Y259540D01*
X1382670D01*
Y254460D01*
X1385210D01*
X1386226Y255476D02*
Y253952D01*
X1389274D01*
Y255476D01*
X1390798D01*
Y258524D01*
X1389274D01*
Y260048D01*
X1386226D01*
Y258524D01*
X1384702D01*
Y255476D01*
X1386226D01*
X1480159Y256907D02*
Y254367D01*
X1485239D01*
Y256907D01*
X1487779D01*
Y261987D01*
X1485239D01*
Y264527D01*
X1480159D01*
Y261987D01*
X1477619D01*
Y256907D01*
X1480159D01*
X1481175Y257923D02*
Y256399D01*
X1484223D01*
Y257923D01*
X1485747D01*
Y260971D01*
X1484223D01*
Y262495D01*
X1481175D01*
Y260971D01*
X1479651D01*
Y257923D01*
X1481175D01*
X1366210Y300460D02*
Y297920D01*
X1371290D01*
Y300460D01*
X1373830D01*
Y305540D01*
X1371290D01*
Y308080D01*
X1366210D01*
Y305540D01*
X1363670D01*
Y300460D01*
X1366210D01*
X1367226Y301476D02*
Y299952D01*
X1370274D01*
Y301476D01*
X1371798D01*
Y304524D01*
X1370274D01*
Y306048D01*
X1367226D01*
Y304524D01*
X1365702D01*
Y301476D01*
X1367226D01*
X1371420Y395170D02*
X1373960Y400250D01*
X1371420Y405330D01*
X1376500Y402790D01*
X1381580Y405330D01*
X1379040Y400250D01*
X1381580Y395170D01*
X1376500Y397710D01*
X1371420Y395170D01*
X1373452Y397202D02*
X1374976Y400250D01*
X1373452Y403298D01*
X1376500Y401774D01*
X1379548Y403298D01*
X1378024Y400250D01*
X1379548Y397202D01*
X1376500Y398726D01*
X1373452Y397202D01*
X1355670Y433920D02*
X1358210Y439000D01*
X1355670Y444080D01*
X1360750Y441540D01*
X1365830Y444080D01*
X1363290Y439000D01*
X1365830Y433920D01*
X1360750Y436460D01*
X1355670Y433920D01*
X1357702Y435952D02*
X1359226Y439000D01*
X1357702Y442048D01*
X1360750Y440524D01*
X1363798Y442048D01*
X1362274Y439000D01*
X1363798Y435952D01*
X1360750Y437476D01*
X1357702Y435952D01*
X1318920Y458670D02*
X1321460Y463750D01*
X1318920Y468830D01*
X1324000Y466290D01*
X1329080Y468830D01*
X1326540Y463750D01*
X1329080Y458670D01*
X1324000Y461210D01*
X1318920Y458670D01*
X1320952Y460702D02*
X1322476Y463750D01*
X1320952Y466798D01*
X1324000Y465274D01*
X1327048Y466798D01*
X1325524Y463750D01*
X1327048Y460702D01*
X1324000Y462226D01*
X1320952Y460702D01*
X1323420Y440420D02*
X1325960Y445500D01*
X1323420Y450580D01*
X1328500Y448040D01*
X1333580Y450580D01*
X1331040Y445500D01*
X1333580Y440420D01*
X1328500Y442960D01*
X1323420Y440420D01*
X1325452Y442452D02*
X1326976Y445500D01*
X1325452Y448548D01*
X1328500Y447024D01*
X1331548Y448548D01*
X1330024Y445500D01*
X1331548Y442452D01*
X1328500Y443976D01*
X1325452Y442452D01*
X1342670Y456170D02*
X1345210Y461250D01*
X1342670Y466330D01*
X1347750Y463790D01*
X1352830Y466330D01*
X1350290Y461250D01*
X1352830Y456170D01*
X1347750Y458710D01*
X1342670Y456170D01*
X1344702Y458202D02*
X1346226Y461250D01*
X1344702Y464298D01*
X1347750Y462774D01*
X1350798Y464298D01*
X1349274Y461250D01*
X1350798Y458202D01*
X1347750Y459726D01*
X1344702Y458202D01*
X1365170Y456170D02*
X1367710Y461250D01*
X1365170Y466330D01*
X1370250Y463790D01*
X1375330Y466330D01*
X1372790Y461250D01*
X1375330Y456170D01*
X1370250Y458710D01*
X1365170Y456170D01*
X1367202Y458202D02*
X1368726Y461250D01*
X1367202Y464298D01*
X1370250Y462774D01*
X1373298Y464298D01*
X1371774Y461250D01*
X1373298Y458202D01*
X1370250Y459726D01*
X1367202Y458202D01*
X1386460Y503960D02*
Y501420D01*
X1391540D01*
Y503960D01*
X1394080D01*
Y509040D01*
X1391540D01*
Y511580D01*
X1386460D01*
Y509040D01*
X1383920D01*
Y503960D01*
X1386460D01*
X1387476Y504976D02*
Y503452D01*
X1390524D01*
Y504976D01*
X1392048D01*
Y508024D01*
X1390524D01*
Y509548D01*
X1387476D01*
Y508024D01*
X1385952D01*
Y504976D01*
X1387476D01*
X1451210Y439210D02*
Y436670D01*
X1456290D01*
Y439210D01*
X1458830D01*
Y444290D01*
X1456290D01*
Y446830D01*
X1451210D01*
Y444290D01*
X1448670D01*
Y439210D01*
X1451210D01*
X1452226Y440226D02*
Y438702D01*
X1455274D01*
Y440226D01*
X1456798D01*
Y443274D01*
X1455274D01*
Y444798D01*
X1452226D01*
Y443274D01*
X1450702D01*
Y440226D01*
X1452226D01*
X1421460Y482710D02*
Y480170D01*
X1426540D01*
Y482710D01*
X1429080D01*
Y487790D01*
X1426540D01*
Y490330D01*
X1421460D01*
Y487790D01*
X1418920D01*
Y482710D01*
X1421460D01*
X1422476Y483726D02*
Y482202D01*
X1425524D01*
Y483726D01*
X1427048D01*
Y486774D01*
X1425524D01*
Y488298D01*
X1422476D01*
Y486774D01*
X1420952D01*
Y483726D01*
X1422476D01*
X1458960Y527710D02*
Y525170D01*
X1464040D01*
Y527710D01*
X1466580D01*
Y532790D01*
X1464040D01*
Y535330D01*
X1458960D01*
Y532790D01*
X1456420D01*
Y527710D01*
X1458960D01*
X1459976Y528726D02*
Y527202D01*
X1463024D01*
Y528726D01*
X1464548D01*
Y531774D01*
X1463024D01*
Y533298D01*
X1459976D01*
Y531774D01*
X1458452D01*
Y528726D01*
X1459976D01*
X1443460Y541460D02*
Y538920D01*
X1448540D01*
Y541460D01*
X1451080D01*
Y546540D01*
X1448540D01*
Y549080D01*
X1443460D01*
Y546540D01*
X1440920D01*
Y541460D01*
X1443460D01*
X1444476Y542476D02*
Y540952D01*
X1447524D01*
Y542476D01*
X1449048D01*
Y545524D01*
X1447524D01*
Y547048D01*
X1444476D01*
Y545524D01*
X1442952D01*
Y542476D01*
X1444476D01*
X1500960Y553710D02*
Y551170D01*
X1506040D01*
Y553710D01*
X1508580D01*
Y558790D01*
X1506040D01*
Y561330D01*
X1500960D01*
Y558790D01*
X1498420D01*
Y553710D01*
X1500960D01*
X1501976Y554726D02*
Y553202D01*
X1505024D01*
Y554726D01*
X1506548D01*
Y557774D01*
X1505024D01*
Y559298D01*
X1501976D01*
Y557774D01*
X1500452D01*
Y554726D01*
X1501976D01*
X1505210Y578710D02*
Y576170D01*
X1510290D01*
Y578710D01*
X1512830D01*
Y583790D01*
X1510290D01*
Y586330D01*
X1505210D01*
Y583790D01*
X1502670D01*
Y578710D01*
X1505210D01*
X1506226Y579726D02*
Y578202D01*
X1509274D01*
Y579726D01*
X1510798D01*
Y582774D01*
X1509274D01*
Y584298D01*
X1506226D01*
Y582774D01*
X1504702D01*
Y579726D01*
X1506226D01*
X1445460Y594460D02*
Y591920D01*
X1450540D01*
Y594460D01*
X1453080D01*
Y599540D01*
X1450540D01*
Y602080D01*
X1445460D01*
Y599540D01*
X1442920D01*
Y594460D01*
X1445460D01*
X1446476Y595476D02*
Y593952D01*
X1449524D01*
Y595476D01*
X1451048D01*
Y598524D01*
X1449524D01*
Y600048D01*
X1446476D01*
Y598524D01*
X1444952D01*
Y595476D01*
X1446476D01*
X1421710Y605710D02*
Y603170D01*
X1426790D01*
Y605710D01*
X1429330D01*
Y610790D01*
X1426790D01*
Y613330D01*
X1421710D01*
Y610790D01*
X1419170D01*
Y605710D01*
X1421710D01*
X1422726Y606726D02*
Y605202D01*
X1425774D01*
Y606726D01*
X1427298D01*
Y609774D01*
X1425774D01*
Y611298D01*
X1422726D01*
Y609774D01*
X1421202D01*
Y606726D01*
X1422726D01*
X1520460Y605710D02*
Y603170D01*
X1525540D01*
Y605710D01*
X1528080D01*
Y610790D01*
X1525540D01*
Y613330D01*
X1520460D01*
Y610790D01*
X1517920D01*
Y605710D01*
X1520460D01*
X1521476Y606726D02*
Y605202D01*
X1524524D01*
Y606726D01*
X1526048D01*
Y609774D01*
X1524524D01*
Y611298D01*
X1521476D01*
Y609774D01*
X1519952D01*
Y606726D01*
X1521476D01*
X1545477Y605963D02*
Y603423D01*
X1550557D01*
Y605963D01*
X1553097D01*
Y611043D01*
X1550557D01*
Y613583D01*
X1545477D01*
Y611043D01*
X1542937D01*
Y605963D01*
X1545477D01*
X1546493Y606979D02*
Y605455D01*
X1549541D01*
Y606979D01*
X1551065D01*
Y610027D01*
X1549541D01*
Y611551D01*
X1546493D01*
Y610027D01*
X1544969D01*
Y606979D01*
X1546493D01*
X1653210Y329460D02*
Y326920D01*
X1658290D01*
Y329460D01*
X1660830D01*
Y334540D01*
X1658290D01*
Y337080D01*
X1653210D01*
Y334540D01*
X1650670D01*
Y329460D01*
X1653210D01*
X1654226Y330476D02*
Y328952D01*
X1657274D01*
Y330476D01*
X1658798D01*
Y333524D01*
X1657274D01*
Y335048D01*
X1654226D01*
Y333524D01*
X1652702D01*
Y330476D01*
X1654226D01*
X1558710Y569210D02*
Y566670D01*
X1563790D01*
Y569210D01*
X1566330D01*
Y574290D01*
X1563790D01*
Y576830D01*
X1558710D01*
Y574290D01*
X1556170D01*
Y569210D01*
X1558710D01*
X1559726Y570226D02*
Y568702D01*
X1562774D01*
Y570226D01*
X1564298D01*
Y573274D01*
X1562774D01*
Y574798D01*
X1559726D01*
Y573274D01*
X1558202D01*
Y570226D01*
X1559726D01*
X1556710Y586210D02*
Y583670D01*
X1561790D01*
Y586210D01*
X1564330D01*
Y591290D01*
X1561790D01*
Y593830D01*
X1556710D01*
Y591290D01*
X1554170D01*
Y586210D01*
X1556710D01*
X1557726Y587226D02*
Y585702D01*
X1560774D01*
Y587226D01*
X1562298D01*
Y590274D01*
X1560774D01*
Y591798D01*
X1557726D01*
Y590274D01*
X1556202D01*
Y587226D01*
X1557726D01*
X1570460Y605960D02*
Y603420D01*
X1575540D01*
Y605960D01*
X1578080D01*
Y611040D01*
X1575540D01*
Y613580D01*
X1570460D01*
Y611040D01*
X1567920D01*
Y605960D01*
X1570460D01*
X1571476Y606976D02*
Y605452D01*
X1574524D01*
Y606976D01*
X1576048D01*
Y610024D01*
X1574524D01*
Y611548D01*
X1571476D01*
Y610024D01*
X1569952D01*
Y606976D01*
X1571476D01*
X1595460Y605960D02*
Y603420D01*
X1600540D01*
Y605960D01*
X1603080D01*
Y611040D01*
X1600540D01*
Y613580D01*
X1595460D01*
Y611040D01*
X1592920D01*
Y605960D01*
X1595460D01*
X1596476Y606976D02*
Y605452D01*
X1599524D01*
Y606976D01*
X1601048D01*
Y610024D01*
X1599524D01*
Y611548D01*
X1596476D01*
Y610024D01*
X1594952D01*
Y606976D01*
X1596476D01*
X1619960Y605960D02*
Y603420D01*
X1625040D01*
Y605960D01*
X1627580D01*
Y611040D01*
X1625040D01*
Y613580D01*
X1619960D01*
Y611040D01*
X1617420D01*
Y605960D01*
X1619960D01*
X1620976Y606976D02*
Y605452D01*
X1624024D01*
Y606976D01*
X1625548D01*
Y610024D01*
X1624024D01*
Y611548D01*
X1620976D01*
Y610024D01*
X1619452D01*
Y606976D01*
X1620976D01*
X1644710Y605960D02*
Y603420D01*
X1649790D01*
Y605960D01*
X1652330D01*
Y611040D01*
X1649790D01*
Y613580D01*
X1644710D01*
Y611040D01*
X1642170D01*
Y605960D01*
X1644710D01*
X1645726Y606976D02*
Y605452D01*
X1648774D01*
Y606976D01*
X1650298D01*
Y610024D01*
X1648774D01*
Y611548D01*
X1645726D01*
Y610024D01*
X1644202D01*
Y606976D01*
X1645726D01*
X184108Y87096D02*
Y84556D01*
X189188D01*
Y87096D01*
X191728D01*
Y92176D01*
X189188D01*
Y94716D01*
X184108D01*
Y92176D01*
X181568D01*
Y87096D01*
X184108D01*
X185124Y88112D02*
Y86588D01*
X188172D01*
Y88112D01*
X189696D01*
Y91160D01*
X188172D01*
Y92684D01*
X185124D01*
Y91160D01*
X183600D01*
Y88112D01*
X185124D01*
X249460Y131460D02*
Y128920D01*
X254540D01*
Y131460D01*
X257080D01*
Y136540D01*
X254540D01*
Y139080D01*
X249460D01*
Y136540D01*
X246920D01*
Y131460D01*
X249460D01*
X250476Y132476D02*
Y130952D01*
X253524D01*
Y132476D01*
X255048D01*
Y135524D01*
X253524D01*
Y137048D01*
X250476D01*
Y135524D01*
X248952D01*
Y132476D01*
X250476D01*
X188960Y180960D02*
Y178420D01*
X194040D01*
Y180960D01*
X196580D01*
Y186040D01*
X194040D01*
Y188580D01*
X188960D01*
Y186040D01*
X186420D01*
Y180960D01*
X188960D01*
X189976Y181976D02*
Y180452D01*
X193024D01*
Y181976D01*
X194548D01*
Y185024D01*
X193024D01*
Y186548D01*
X189976D01*
Y185024D01*
X188452D01*
Y181976D01*
X189976D01*
X644710Y122710D02*
Y120170D01*
X649790D01*
Y122710D01*
X652330D01*
Y127790D01*
X649790D01*
Y130330D01*
X644710D01*
Y127790D01*
X642170D01*
Y122710D01*
X644710D01*
X645726Y123726D02*
Y122202D01*
X648774D01*
Y123726D01*
X650298D01*
Y126774D01*
X648774D01*
Y128298D01*
X645726D01*
Y126774D01*
X644202D01*
Y123726D01*
X645726D01*
X623460Y47460D02*
Y44920D01*
X628540D01*
Y47460D01*
X631080D01*
Y52540D01*
X628540D01*
Y55080D01*
X623460D01*
Y52540D01*
X620920D01*
Y47460D01*
X623460D01*
X624476Y48476D02*
Y46952D01*
X627524D01*
Y48476D01*
X629048D01*
Y51524D01*
X627524D01*
Y53048D01*
X624476D01*
Y51524D01*
X622952D01*
Y48476D01*
X624476D01*
X674210Y49460D02*
Y46920D01*
X679290D01*
Y49460D01*
X681830D01*
Y54540D01*
X679290D01*
Y57080D01*
X674210D01*
Y54540D01*
X671670D01*
Y49460D01*
X674210D01*
X675226Y50476D02*
Y48952D01*
X678274D01*
Y50476D01*
X679798D01*
Y53524D01*
X678274D01*
Y55048D01*
X675226D01*
Y53524D01*
X673702D01*
Y50476D01*
X675226D01*
X700210Y54460D02*
Y51920D01*
X705290D01*
Y54460D01*
X707830D01*
Y59540D01*
X705290D01*
Y62080D01*
X700210D01*
Y59540D01*
X697670D01*
Y54460D01*
X700210D01*
X701226Y55476D02*
Y53952D01*
X704274D01*
Y55476D01*
X705798D01*
Y58524D01*
X704274D01*
Y60048D01*
X701226D01*
Y58524D01*
X699702D01*
Y55476D01*
X701226D01*
X781960Y97360D02*
Y94820D01*
X787040D01*
Y97360D01*
X789580D01*
Y102440D01*
X787040D01*
Y104980D01*
X781960D01*
Y102440D01*
X779420D01*
Y97360D01*
X781960D01*
X782976Y98376D02*
Y96852D01*
X786024D01*
Y98376D01*
X787548D01*
Y101424D01*
X786024D01*
Y102948D01*
X782976D01*
Y101424D01*
X781452D01*
Y98376D01*
X782976D01*
X733960Y55960D02*
Y53420D01*
X739040D01*
Y55960D01*
X741580D01*
Y61040D01*
X739040D01*
Y63580D01*
X733960D01*
Y61040D01*
X731420D01*
Y55960D01*
X733960D01*
X734976Y56976D02*
Y55452D01*
X738024D01*
Y56976D01*
X739548D01*
Y60024D01*
X738024D01*
Y61548D01*
X734976D01*
Y60024D01*
X733452D01*
Y56976D01*
X734976D01*
X796960Y73210D02*
Y70670D01*
X802040D01*
Y73210D01*
X804580D01*
Y78290D01*
X802040D01*
Y80830D01*
X796960D01*
Y78290D01*
X794420D01*
Y73210D01*
X796960D01*
X797976Y74226D02*
Y72702D01*
X801024D01*
Y74226D01*
X802548D01*
Y77274D01*
X801024D01*
Y78798D01*
X797976D01*
Y77274D01*
X796452D01*
Y74226D01*
X797976D01*
X960710Y38460D02*
Y35920D01*
X965790D01*
Y38460D01*
X968330D01*
Y43540D01*
X965790D01*
Y46080D01*
X960710D01*
Y43540D01*
X958170D01*
Y38460D01*
X960710D01*
X961726Y39476D02*
Y37952D01*
X964774D01*
Y39476D01*
X966298D01*
Y42524D01*
X964774D01*
Y44048D01*
X961726D01*
Y42524D01*
X960202D01*
Y39476D01*
X961726D01*
X862210Y151960D02*
Y149420D01*
X867290D01*
Y151960D01*
X869830D01*
Y157040D01*
X867290D01*
Y159580D01*
X862210D01*
Y157040D01*
X859670D01*
Y151960D01*
X862210D01*
X863226Y152976D02*
Y151452D01*
X866274D01*
Y152976D01*
X867798D01*
Y156024D01*
X866274D01*
Y157548D01*
X863226D01*
Y156024D01*
X861702D01*
Y152976D01*
X863226D01*
X649000Y306170D02*
X651540Y308710D01*
X654080D01*
X651540Y311250D01*
X654080Y313790D01*
X651540D01*
X649000Y316330D01*
X646460Y313790D01*
X643920D01*
X646460Y311250D01*
X643920Y308710D01*
X646460D01*
X649000Y306170D01*
Y308202D02*
X650524Y309726D01*
X652048D01*
X650524Y311250D01*
X652048Y312774D01*
X650524D01*
X649000Y314298D01*
X647476Y312774D01*
X645952D01*
X647476Y311250D01*
X645952Y309726D01*
X647476D01*
X649000Y308202D01*
X731000Y387920D02*
X733540Y390460D01*
X736080D01*
X733540Y393000D01*
X736080Y395540D01*
X733540D01*
X731000Y398080D01*
X728460Y395540D01*
X725920D01*
X728460Y393000D01*
X725920Y390460D01*
X728460D01*
X731000Y387920D01*
Y389952D02*
X732524Y391476D01*
X734048D01*
X732524Y393000D01*
X734048Y394524D01*
X732524D01*
X731000Y396048D01*
X729476Y394524D01*
X727952D01*
X729476Y393000D01*
X727952Y391476D01*
X729476D01*
X731000Y389952D01*
X212078Y206813D02*
Y204273D01*
X217157D01*
Y206813D01*
X219697D01*
Y211893D01*
X217157D01*
Y214433D01*
X212078D01*
Y211893D01*
X209538D01*
Y206813D01*
X212078D01*
X213093Y207829D02*
Y206305D01*
X216141D01*
Y207829D01*
X217666D01*
Y210877D01*
X216141D01*
Y212401D01*
X213093D01*
Y210877D01*
X211569D01*
Y207829D01*
X213093D01*
X291710Y152960D02*
Y150420D01*
X296790D01*
Y152960D01*
X299330D01*
Y158040D01*
X296790D01*
Y160580D01*
X291710D01*
Y158040D01*
X289170D01*
Y152960D01*
X291710D01*
X292726Y153976D02*
Y152452D01*
X295774D01*
Y153976D01*
X297298D01*
Y157024D01*
X295774D01*
Y158548D01*
X292726D01*
Y157024D01*
X291202D01*
Y153976D01*
X292726D01*
X299960Y64210D02*
Y61670D01*
X305040D01*
Y64210D01*
X307580D01*
Y69290D01*
X305040D01*
Y71830D01*
X299960D01*
Y69290D01*
X297420D01*
Y64210D01*
X299960D01*
X300976Y65226D02*
Y63702D01*
X304024D01*
Y65226D01*
X305548D01*
Y68274D01*
X304024D01*
Y69798D01*
X300976D01*
Y68274D01*
X299452D01*
Y65226D01*
X300976D01*
X390811Y630145D02*
Y627605D01*
X395891D01*
Y630145D01*
X398430D01*
Y635225D01*
X395891D01*
Y637765D01*
X390811D01*
Y635225D01*
X388270D01*
Y630145D01*
X390811D01*
X391827Y631161D02*
Y629637D01*
X394874D01*
Y631161D01*
X396399D01*
Y634209D01*
X394874D01*
Y635733D01*
X391827D01*
Y634209D01*
X390303D01*
Y631161D01*
X391827D01*
X431000Y558170D02*
X433540Y560710D01*
X436080D01*
X433540Y563250D01*
X436080Y565790D01*
X433540D01*
X431000Y568330D01*
X428460Y565790D01*
X425920D01*
X428460Y563250D01*
X425920Y560710D01*
X428460D01*
X431000Y558170D01*
Y560202D02*
X432524Y561726D01*
X434048D01*
X432524Y563250D01*
X434048Y564774D01*
X432524D01*
X431000Y566298D01*
X429476Y564774D01*
X427952D01*
X429476Y563250D01*
X427952Y561726D01*
X429476D01*
X431000Y560202D01*
X364250Y576920D02*
X366790Y579460D01*
X369330D01*
X366790Y582000D01*
X369330Y584540D01*
X366790D01*
X364250Y587080D01*
X361710Y584540D01*
X359170D01*
X361710Y582000D01*
X359170Y579460D01*
X361710D01*
X364250Y576920D01*
Y578952D02*
X365774Y580476D01*
X367298D01*
X365774Y582000D01*
X367298Y583524D01*
X365774D01*
X364250Y585048D01*
X362726Y583524D01*
X361202D01*
X362726Y582000D01*
X361202Y580476D01*
X362726D01*
X364250Y578952D01*
M02*
