G04*
G04 #@! TF.GenerationSoftware,Altium Limited,Altium Designer,23.11.1 (41)*
G04*
G04 Layer_Physical_Order=3*
G04 Layer_Color=16440176*
%FSLAX44Y44*%
%MOMM*%
G71*
G04*
G04 #@! TF.SameCoordinates,A9953501-DB28-4ED5-B30A-BDD53AECFC39*
G04*
G04*
G04 #@! TF.FilePolarity,Positive*
G04*
G01*
G75*
%ADD17C,1.0000*%
%ADD46C,3.0000*%
%ADD47C,2.0000*%
%ADD48C,1.6000*%
G04:AMPARAMS|DCode=49|XSize=1.6mm|YSize=1.6mm|CornerRadius=0.4mm|HoleSize=0mm|Usage=FLASHONLY|Rotation=270.000|XOffset=0mm|YOffset=0mm|HoleType=Round|Shape=RoundedRectangle|*
%AMROUNDEDRECTD49*
21,1,1.6000,0.8000,0,0,270.0*
21,1,0.8000,1.6000,0,0,270.0*
1,1,0.8000,-0.4000,-0.4000*
1,1,0.8000,-0.4000,0.4000*
1,1,0.8000,0.4000,0.4000*
1,1,0.8000,0.4000,-0.4000*
%
%ADD49ROUNDEDRECTD49*%
%ADD50C,1.8000*%
G04:AMPARAMS|DCode=51|XSize=1.8mm|YSize=1.8mm|CornerRadius=0.45mm|HoleSize=0mm|Usage=FLASHONLY|Rotation=90.000|XOffset=0mm|YOffset=0mm|HoleType=Round|Shape=RoundedRectangle|*
%AMROUNDEDRECTD51*
21,1,1.8000,0.9000,0,0,90.0*
21,1,0.9000,1.8000,0,0,90.0*
1,1,0.9000,0.4500,0.4500*
1,1,0.9000,0.4500,-0.4500*
1,1,0.9000,-0.4500,-0.4500*
1,1,0.9000,-0.4500,0.4500*
%
%ADD51ROUNDEDRECTD51*%
%ADD52C,0.3000*%
%ADD53C,0.4000*%
%ADD54C,0.5000*%
G36*
X1380000Y500000D02*
X1381970Y500000D01*
X1385834Y499231D01*
X1389474Y497724D01*
X1392749Y495535D01*
X1395535Y492749D01*
X1397724Y489473D01*
X1399231Y485834D01*
X1400000Y481970D01*
X1400000Y480000D01*
X1400000D01*
X1400000Y480000D01*
X1400000Y20000D01*
X1400000Y18030D01*
X1399231Y14166D01*
X1397724Y10526D01*
X1395535Y7251D01*
X1392749Y4465D01*
X1389474Y2276D01*
X1385834Y769D01*
X1381970Y0D01*
X19945D01*
X15671Y850D01*
X11644Y2518D01*
X8021Y4939D01*
X4939Y8021D01*
X2518Y11644D01*
X850Y15671D01*
X0Y19945D01*
Y22124D01*
Y290000D01*
X280000D01*
Y500000D01*
X1380000Y500000D01*
D02*
G37*
%LPC*%
G36*
X930336Y475940D02*
X928944D01*
X927657Y475407D01*
X926673Y474423D01*
X926140Y473136D01*
Y471744D01*
X926673Y470457D01*
X927657Y469473D01*
X928944Y468940D01*
X930336D01*
X931623Y469473D01*
X932607Y470457D01*
X933140Y471744D01*
Y473136D01*
X932607Y474423D01*
X931623Y475407D01*
X930336Y475940D01*
D02*
G37*
G36*
X830696Y463500D02*
X829304D01*
X828017Y462967D01*
X827033Y461983D01*
X826500Y460696D01*
Y459304D01*
X827033Y458017D01*
X828017Y457033D01*
X829304Y456500D01*
X830696D01*
X831983Y457033D01*
X832967Y458017D01*
X833500Y459304D01*
Y460696D01*
X832967Y461983D01*
X831983Y462967D01*
X830696Y463500D01*
D02*
G37*
G36*
X900696Y453500D02*
X899304D01*
X898017Y452967D01*
X897033Y451983D01*
X896500Y450696D01*
Y449304D01*
X897033Y448017D01*
X898017Y447033D01*
X899304Y446500D01*
X900696D01*
X901983Y447033D01*
X902967Y448017D01*
X903500Y449304D01*
Y450696D01*
X902967Y451983D01*
X901983Y452967D01*
X900696Y453500D01*
D02*
G37*
G36*
X572696Y443500D02*
X571304D01*
X570017Y442967D01*
X569033Y441983D01*
X568500Y440696D01*
Y439304D01*
X569033Y438017D01*
X570017Y437033D01*
X571304Y436500D01*
X572696D01*
X573983Y437033D01*
X574967Y438017D01*
X575500Y439304D01*
Y440696D01*
X574967Y441983D01*
X573983Y442967D01*
X572696Y443500D01*
D02*
G37*
G36*
X666176Y435300D02*
X664784D01*
X663497Y434767D01*
X662513Y433783D01*
X661980Y432496D01*
Y431104D01*
X662513Y429817D01*
X663497Y428833D01*
X664784Y428300D01*
X666176D01*
X667463Y428833D01*
X668447Y429817D01*
X668980Y431104D01*
Y432496D01*
X668447Y433783D01*
X667463Y434767D01*
X666176Y435300D01*
D02*
G37*
G36*
X1211305Y415297D02*
Y412720D01*
X1213882D01*
X1213460Y413739D01*
X1212324Y414875D01*
X1211305Y415297D01*
D02*
G37*
G36*
X1208765D02*
X1207747Y414875D01*
X1206610Y413739D01*
X1206188Y412720D01*
X1208765D01*
Y415297D01*
D02*
G37*
G36*
X1213882Y410180D02*
X1211305D01*
Y407603D01*
X1212324Y408025D01*
X1213460Y409161D01*
X1213882Y410180D01*
D02*
G37*
G36*
X1208765D02*
X1206188D01*
X1206610Y409161D01*
X1207747Y408025D01*
X1208765Y407603D01*
Y410180D01*
D02*
G37*
G36*
X472270Y409847D02*
Y407270D01*
X474847D01*
X474425Y408288D01*
X473288Y409425D01*
X472270Y409847D01*
D02*
G37*
G36*
X469730D02*
X468712Y409425D01*
X467575Y408288D01*
X467153Y407270D01*
X469730D01*
Y409847D01*
D02*
G37*
G36*
X474847Y404730D02*
X472270D01*
Y402153D01*
X473288Y402575D01*
X474425Y403712D01*
X474847Y404730D01*
D02*
G37*
G36*
X469730D02*
X467153D01*
X467575Y403712D01*
X468712Y402575D01*
X469730Y402153D01*
Y404730D01*
D02*
G37*
G36*
X1042446Y394500D02*
X1041054D01*
X1039767Y393967D01*
X1038783Y392983D01*
X1038250Y391696D01*
Y390304D01*
X1038783Y389017D01*
X1039767Y388033D01*
X1041054Y387500D01*
X1042446D01*
X1043733Y388033D01*
X1044717Y389017D01*
X1045250Y390304D01*
Y391696D01*
X1044717Y392983D01*
X1043733Y393967D01*
X1042446Y394500D01*
D02*
G37*
G36*
X1008270Y384847D02*
Y382270D01*
X1010847D01*
X1010425Y383288D01*
X1009288Y384425D01*
X1008270Y384847D01*
D02*
G37*
G36*
X1005730D02*
X1004712Y384425D01*
X1003575Y383288D01*
X1003153Y382270D01*
X1005730D01*
Y384847D01*
D02*
G37*
G36*
X1081946Y386500D02*
X1080553D01*
X1079267Y385967D01*
X1078282Y384983D01*
X1077749Y383696D01*
Y382304D01*
X1078282Y381017D01*
X1079267Y380033D01*
X1080553Y379500D01*
X1081946D01*
X1083232Y380033D01*
X1084217Y381017D01*
X1084749Y382304D01*
Y383696D01*
X1084217Y384983D01*
X1083232Y385967D01*
X1081946Y386500D01*
D02*
G37*
G36*
X1010847Y379730D02*
X1008270D01*
Y377153D01*
X1009288Y377575D01*
X1010425Y378712D01*
X1010847Y379730D01*
D02*
G37*
G36*
X1005730D02*
X1003153D01*
X1003575Y378712D01*
X1004712Y377575D01*
X1005730Y377153D01*
Y379730D01*
D02*
G37*
G36*
X1371523Y412600D02*
X1367977D01*
X1364500Y411908D01*
X1361224Y410551D01*
X1358276Y408582D01*
X1355768Y406074D01*
X1353799Y403126D01*
X1352442Y399850D01*
X1351750Y396373D01*
Y392827D01*
X1352442Y389350D01*
X1353799Y386074D01*
X1355768Y383126D01*
X1358276Y380619D01*
X1361224Y378649D01*
X1364500Y377292D01*
X1367977Y376600D01*
X1371523D01*
X1375000Y377292D01*
X1378276Y378649D01*
X1381224Y380619D01*
X1383732Y383126D01*
X1385701Y386074D01*
X1387058Y389350D01*
X1387750Y392827D01*
Y396373D01*
X1387058Y399850D01*
X1385701Y403126D01*
X1383732Y406074D01*
X1381224Y408582D01*
X1378276Y410551D01*
X1375000Y411908D01*
X1371523Y412600D01*
D02*
G37*
G36*
X317773D02*
X314227D01*
X310750Y411908D01*
X307474Y410551D01*
X304526Y408582D01*
X302019Y406074D01*
X300049Y403126D01*
X298692Y399850D01*
X298000Y396373D01*
Y392827D01*
X298692Y389350D01*
X300049Y386074D01*
X302019Y383126D01*
X304526Y380619D01*
X307474Y378649D01*
X310750Y377292D01*
X314227Y376600D01*
X317773D01*
X321250Y377292D01*
X324526Y378649D01*
X327474Y380619D01*
X329981Y383126D01*
X331951Y386074D01*
X333308Y389350D01*
X334000Y392827D01*
Y396373D01*
X333308Y399850D01*
X331951Y403126D01*
X329981Y406074D01*
X327474Y408582D01*
X324526Y410551D01*
X321250Y411908D01*
X317773Y412600D01*
D02*
G37*
G36*
X1278000Y396567D02*
X1270000D01*
X1267659Y396102D01*
X1265674Y394776D01*
X1264348Y392791D01*
X1263883Y390450D01*
Y382450D01*
X1264348Y380109D01*
X1265674Y378124D01*
X1267659Y376798D01*
X1270000Y376333D01*
X1278000D01*
X1280341Y376798D01*
X1282326Y378124D01*
X1283652Y380109D01*
X1284117Y382450D01*
Y390450D01*
X1283652Y392791D01*
X1282326Y394776D01*
X1280341Y396102D01*
X1278000Y396567D01*
D02*
G37*
G36*
X795716Y373500D02*
X794324D01*
X793037Y372967D01*
X792053Y371983D01*
X791520Y370696D01*
Y369304D01*
X792053Y368017D01*
X793037Y367033D01*
X794324Y366500D01*
X795716D01*
X797003Y367033D01*
X797987Y368017D01*
X798520Y369304D01*
Y370696D01*
X797987Y371983D01*
X797003Y372967D01*
X795716Y373500D01*
D02*
G37*
G36*
X673796D02*
X672404D01*
X671117Y372967D01*
X670133Y371983D01*
X669600Y370696D01*
Y369304D01*
X670133Y368017D01*
X671117Y367033D01*
X672404Y366500D01*
X673796D01*
X675083Y367033D01*
X676067Y368017D01*
X676600Y369304D01*
Y370696D01*
X676067Y371983D01*
X675083Y372967D01*
X673796Y373500D01*
D02*
G37*
G36*
X459696Y372500D02*
X458304D01*
X457017Y371967D01*
X456033Y370983D01*
X455500Y369696D01*
Y368304D01*
X456033Y367017D01*
X457017Y366033D01*
X458304Y365500D01*
X459696D01*
X460983Y366033D01*
X461967Y367017D01*
X462500Y368304D01*
Y369696D01*
X461967Y370983D01*
X460983Y371967D01*
X459696Y372500D01*
D02*
G37*
G36*
X1042946Y370750D02*
X1041554D01*
X1040267Y370217D01*
X1039283Y369233D01*
X1038750Y367946D01*
Y366554D01*
X1039283Y365267D01*
X1040267Y364283D01*
X1041554Y363750D01*
X1042946D01*
X1044233Y364283D01*
X1045217Y365267D01*
X1045750Y366554D01*
Y367946D01*
X1045217Y369233D01*
X1044233Y370217D01*
X1042946Y370750D01*
D02*
G37*
G36*
X1008270Y359847D02*
Y357270D01*
X1010847D01*
X1010425Y358288D01*
X1009288Y359425D01*
X1008270Y359847D01*
D02*
G37*
G36*
X1005730D02*
X1004712Y359425D01*
X1003575Y358288D01*
X1003153Y357270D01*
X1005730D01*
Y359847D01*
D02*
G37*
G36*
X745490Y360526D02*
Y354330D01*
X751686D01*
X751246Y355970D01*
X750254Y357690D01*
X748850Y359094D01*
X747130Y360086D01*
X745490Y360526D01*
D02*
G37*
G36*
X742950D02*
X741310Y360086D01*
X739590Y359094D01*
X738186Y357690D01*
X737194Y355970D01*
X736754Y354330D01*
X742950D01*
Y360526D01*
D02*
G37*
G36*
X1078946Y361100D02*
X1077554D01*
X1076267Y360567D01*
X1075283Y359583D01*
X1074750Y358296D01*
Y356904D01*
X1075283Y355617D01*
X1076267Y354633D01*
X1077554Y354100D01*
X1078946D01*
X1080233Y354633D01*
X1081217Y355617D01*
X1081750Y356904D01*
Y358296D01*
X1081217Y359583D01*
X1080233Y360567D01*
X1078946Y361100D01*
D02*
G37*
G36*
X932696Y359500D02*
X931304D01*
X930017Y358967D01*
X929033Y357983D01*
X928500Y356696D01*
Y355304D01*
X929033Y354017D01*
X930017Y353033D01*
X931304Y352500D01*
X932696D01*
X933983Y353033D01*
X934967Y354017D01*
X935500Y355304D01*
Y356696D01*
X934967Y357983D01*
X933983Y358967D01*
X932696Y359500D01*
D02*
G37*
G36*
X1010847Y354730D02*
X1008270D01*
Y352153D01*
X1009288Y352575D01*
X1010425Y353712D01*
X1010847Y354730D01*
D02*
G37*
G36*
X1005730D02*
X1003153D01*
X1003575Y353712D01*
X1004712Y352575D01*
X1005730Y352153D01*
Y354730D01*
D02*
G37*
G36*
X1275316Y371050D02*
X1272683D01*
X1270140Y370368D01*
X1267860Y369052D01*
X1265998Y367190D01*
X1264681Y364910D01*
X1264000Y362366D01*
Y359734D01*
X1264681Y357190D01*
X1265998Y354910D01*
X1267860Y353048D01*
X1270140Y351731D01*
X1272683Y351050D01*
X1275316D01*
X1277860Y351731D01*
X1280140Y353048D01*
X1282002Y354910D01*
X1283318Y357190D01*
X1284000Y359734D01*
Y362366D01*
X1283318Y364910D01*
X1282002Y367190D01*
X1280140Y369052D01*
X1277860Y370368D01*
X1275316Y371050D01*
D02*
G37*
G36*
X462696Y354418D02*
X461304D01*
X460017Y353885D01*
X459033Y352900D01*
X458500Y351614D01*
Y350221D01*
X459033Y348935D01*
X460017Y347951D01*
X461304Y347418D01*
X462696D01*
X463983Y347951D01*
X464967Y348935D01*
X465500Y350221D01*
Y351614D01*
X464967Y352900D01*
X463983Y353885D01*
X462696Y354418D01*
D02*
G37*
G36*
X639754Y353492D02*
X638362D01*
X637076Y352959D01*
X636091Y351974D01*
X635558Y350688D01*
Y349295D01*
X636091Y348009D01*
X637076Y347024D01*
X638362Y346492D01*
X639754D01*
X641041Y347024D01*
X642025Y348009D01*
X642558Y349295D01*
Y350688D01*
X642025Y351974D01*
X641041Y352959D01*
X639754Y353492D01*
D02*
G37*
G36*
X719742Y360060D02*
X717898D01*
X716118Y359583D01*
X714522Y358661D01*
X713219Y357358D01*
X712297Y355762D01*
X711820Y353982D01*
Y352138D01*
X712297Y350358D01*
X713219Y348762D01*
X714522Y347459D01*
X716118Y346537D01*
X717898Y346060D01*
X719742D01*
X721522Y346537D01*
X723118Y347459D01*
X724421Y348762D01*
X725343Y350358D01*
X725820Y352138D01*
Y353982D01*
X725343Y355762D01*
X724421Y357358D01*
X723118Y358661D01*
X721522Y359583D01*
X719742Y360060D01*
D02*
G37*
G36*
X751686Y351790D02*
X745490D01*
Y345594D01*
X747130Y346034D01*
X748850Y347026D01*
X750254Y348430D01*
X751246Y350150D01*
X751686Y351790D01*
D02*
G37*
G36*
X742950D02*
X736754D01*
X737194Y350150D01*
X738186Y348430D01*
X739590Y347026D01*
X741310Y346034D01*
X742950Y345594D01*
Y351790D01*
D02*
G37*
G36*
X701785Y351962D02*
X700392D01*
X699106Y351429D01*
X698121Y350445D01*
X697588Y349158D01*
Y347766D01*
X698121Y346479D01*
X699106Y345495D01*
X700392Y344962D01*
X701785D01*
X703071Y345495D01*
X704055Y346479D01*
X704588Y347766D01*
Y349158D01*
X704055Y350445D01*
X703071Y351429D01*
X701785Y351962D01*
D02*
G37*
G36*
X1040446Y345100D02*
X1039054D01*
X1037767Y344567D01*
X1036783Y343583D01*
X1036250Y342296D01*
Y340904D01*
X1036783Y339617D01*
X1037767Y338633D01*
X1039054Y338100D01*
X1040446D01*
X1041733Y338633D01*
X1042717Y339617D01*
X1043250Y340904D01*
Y342296D01*
X1042717Y343583D01*
X1041733Y344567D01*
X1040446Y345100D01*
D02*
G37*
G36*
X461696Y340418D02*
X460304D01*
X459017Y339885D01*
X458033Y338900D01*
X457500Y337614D01*
Y336222D01*
X458033Y334935D01*
X459017Y333951D01*
X460304Y333418D01*
X461696D01*
X462983Y333951D01*
X463967Y334935D01*
X464500Y336222D01*
Y337614D01*
X463967Y338900D01*
X462983Y339885D01*
X461696Y340418D01*
D02*
G37*
G36*
X1008270Y333847D02*
Y331270D01*
X1010847D01*
X1010425Y332289D01*
X1009288Y333425D01*
X1008270Y333847D01*
D02*
G37*
G36*
X1005730D02*
X1004712Y333425D01*
X1003575Y332289D01*
X1003153Y331270D01*
X1005730D01*
Y333847D01*
D02*
G37*
G36*
X1078946Y335700D02*
X1077554D01*
X1076267Y335167D01*
X1075283Y334183D01*
X1074750Y332896D01*
Y331504D01*
X1075283Y330217D01*
X1076267Y329233D01*
X1077554Y328700D01*
X1078946D01*
X1080233Y329233D01*
X1081217Y330217D01*
X1081750Y331504D01*
Y332896D01*
X1081217Y334183D01*
X1080233Y335167D01*
X1078946Y335700D01*
D02*
G37*
G36*
X1010847Y328730D02*
X1008270D01*
Y326153D01*
X1009288Y326575D01*
X1010425Y327711D01*
X1010847Y328730D01*
D02*
G37*
G36*
X1005730D02*
X1003153D01*
X1003575Y327711D01*
X1004712Y326575D01*
X1005730Y326153D01*
Y328730D01*
D02*
G37*
G36*
X1275316Y345650D02*
X1272683D01*
X1270140Y344968D01*
X1267860Y343652D01*
X1265998Y341790D01*
X1264681Y339510D01*
X1264000Y336967D01*
Y334333D01*
X1264681Y331790D01*
X1265998Y329510D01*
X1267860Y327648D01*
X1270140Y326331D01*
X1272683Y325650D01*
X1275316D01*
X1277860Y326331D01*
X1280140Y327648D01*
X1282002Y329510D01*
X1283318Y331790D01*
X1284000Y334333D01*
Y336967D01*
X1283318Y339510D01*
X1282002Y341790D01*
X1280140Y343652D01*
X1277860Y344968D01*
X1275316Y345650D01*
D02*
G37*
G36*
X463696Y330000D02*
X462304D01*
X461017Y329467D01*
X460033Y328483D01*
X459500Y327196D01*
Y325804D01*
X460033Y324517D01*
X461017Y323533D01*
X462304Y323000D01*
X463696D01*
X464983Y323533D01*
X465967Y324517D01*
X466500Y325804D01*
Y327196D01*
X465967Y328483D01*
X464983Y329467D01*
X463696Y330000D01*
D02*
G37*
G36*
X1044446Y320750D02*
X1043054D01*
X1041767Y320217D01*
X1040783Y319233D01*
X1040250Y317946D01*
Y316554D01*
X1040783Y315267D01*
X1041767Y314283D01*
X1043054Y313750D01*
X1044446D01*
X1045733Y314283D01*
X1046717Y315267D01*
X1047250Y316554D01*
Y317946D01*
X1046717Y319233D01*
X1045733Y320217D01*
X1044446Y320750D01*
D02*
G37*
G36*
X459660Y319902D02*
X458268D01*
X456982Y319369D01*
X455997Y318385D01*
X455464Y317098D01*
Y315706D01*
X455997Y314420D01*
X456982Y313435D01*
X458268Y312902D01*
X459660D01*
X460947Y313435D01*
X461931Y314420D01*
X462464Y315706D01*
Y317098D01*
X461931Y318385D01*
X460947Y319369D01*
X459660Y319902D01*
D02*
G37*
G36*
X1008270Y308847D02*
Y306270D01*
X1010847D01*
X1010425Y307288D01*
X1009288Y308425D01*
X1008270Y308847D01*
D02*
G37*
G36*
X1005730D02*
X1004712Y308425D01*
X1003575Y307288D01*
X1003153Y306270D01*
X1005730D01*
Y308847D01*
D02*
G37*
G36*
X290830Y308647D02*
Y306070D01*
X293407D01*
X292985Y307089D01*
X291849Y308225D01*
X290830Y308647D01*
D02*
G37*
G36*
X288290D02*
X287271Y308225D01*
X286135Y307089D01*
X285713Y306070D01*
X288290D01*
Y308647D01*
D02*
G37*
G36*
X1078146Y310300D02*
X1076754D01*
X1075467Y309767D01*
X1074483Y308783D01*
X1073950Y307496D01*
Y306104D01*
X1074483Y304817D01*
X1075467Y303833D01*
X1076754Y303300D01*
X1078146D01*
X1079433Y303833D01*
X1080417Y304817D01*
X1080950Y306104D01*
Y307496D01*
X1080417Y308783D01*
X1079433Y309767D01*
X1078146Y310300D01*
D02*
G37*
G36*
X1010847Y303730D02*
X1008270D01*
Y301153D01*
X1009288Y301575D01*
X1010425Y302712D01*
X1010847Y303730D01*
D02*
G37*
G36*
X1005730D02*
X1003153D01*
X1003575Y302712D01*
X1004712Y301575D01*
X1005730Y301153D01*
Y303730D01*
D02*
G37*
G36*
X293407Y303530D02*
X290830D01*
Y300953D01*
X291849Y301375D01*
X292985Y302512D01*
X293407Y303530D01*
D02*
G37*
G36*
X288290D02*
X285713D01*
X286135Y302512D01*
X287271Y301375D01*
X288290Y300953D01*
Y303530D01*
D02*
G37*
G36*
X1275316Y320250D02*
X1272683D01*
X1270140Y319569D01*
X1267860Y318252D01*
X1265998Y316390D01*
X1264681Y314110D01*
X1264000Y311567D01*
Y308934D01*
X1264681Y306390D01*
X1265998Y304110D01*
X1267860Y302248D01*
X1270140Y300931D01*
X1272683Y300250D01*
X1275316D01*
X1277860Y300931D01*
X1280140Y302248D01*
X1282002Y304110D01*
X1283318Y306390D01*
X1284000Y308934D01*
Y311567D01*
X1283318Y314110D01*
X1282002Y316390D01*
X1280140Y318252D01*
X1277860Y319569D01*
X1275316Y320250D01*
D02*
G37*
G36*
X384810Y301847D02*
Y299270D01*
X387387D01*
X386965Y300289D01*
X385829Y301425D01*
X384810Y301847D01*
D02*
G37*
G36*
X382270D02*
X381251Y301425D01*
X380115Y300289D01*
X379693Y299270D01*
X382270D01*
Y301847D01*
D02*
G37*
G36*
X462696Y303800D02*
X461304D01*
X460017Y303267D01*
X459033Y302283D01*
X458500Y300996D01*
Y299604D01*
X459033Y298317D01*
X460017Y297333D01*
X461304Y296800D01*
X462696D01*
X463983Y297333D01*
X464967Y298317D01*
X465500Y299604D01*
Y300996D01*
X464967Y302283D01*
X463983Y303267D01*
X462696Y303800D01*
D02*
G37*
G36*
X387387Y296730D02*
X384810D01*
Y294153D01*
X385829Y294575D01*
X386965Y295711D01*
X387387Y296730D01*
D02*
G37*
G36*
X382270D02*
X379693D01*
X380115Y295711D01*
X381251Y294575D01*
X382270Y294153D01*
Y296730D01*
D02*
G37*
G36*
X350696Y298500D02*
X349304D01*
X348017Y297967D01*
X347033Y296983D01*
X346500Y295696D01*
Y294304D01*
X347033Y293017D01*
X348017Y292033D01*
X349304Y291500D01*
X350696D01*
X351983Y292033D01*
X352967Y293017D01*
X353500Y294304D01*
Y295696D01*
X352967Y296983D01*
X351983Y297967D01*
X350696Y298500D01*
D02*
G37*
G36*
X460696Y294500D02*
X459304D01*
X458017Y293967D01*
X457033Y292983D01*
X456500Y291696D01*
Y290304D01*
X457033Y289017D01*
X458017Y288033D01*
X459304Y287500D01*
X460696D01*
X461983Y288033D01*
X462967Y289017D01*
X463500Y290304D01*
Y291696D01*
X462967Y292983D01*
X461983Y293967D01*
X460696Y294500D01*
D02*
G37*
G36*
X1040446Y294300D02*
X1039054D01*
X1037767Y293767D01*
X1036783Y292783D01*
X1036250Y291496D01*
Y290104D01*
X1036783Y288817D01*
X1037767Y287833D01*
X1039054Y287300D01*
X1040446D01*
X1041733Y287833D01*
X1042717Y288817D01*
X1043250Y290104D01*
Y291496D01*
X1042717Y292783D01*
X1041733Y293767D01*
X1040446Y294300D01*
D02*
G37*
G36*
X398808Y289612D02*
X397416D01*
X396129Y289079D01*
X395145Y288095D01*
X394612Y286808D01*
Y285416D01*
X395145Y284130D01*
X396129Y283145D01*
X397416Y282612D01*
X398808D01*
X400095Y283145D01*
X401079Y284130D01*
X401612Y285416D01*
Y286808D01*
X401079Y288095D01*
X400095Y289079D01*
X398808Y289612D01*
D02*
G37*
G36*
X1008270Y283847D02*
Y281270D01*
X1010847D01*
X1010425Y282288D01*
X1009288Y283425D01*
X1008270Y283847D01*
D02*
G37*
G36*
X1005730D02*
X1004712Y283425D01*
X1003575Y282288D01*
X1003153Y281270D01*
X1005730D01*
Y283847D01*
D02*
G37*
G36*
X1078946Y284900D02*
X1077554D01*
X1076267Y284367D01*
X1075283Y283383D01*
X1074750Y282096D01*
Y280704D01*
X1075283Y279417D01*
X1076267Y278433D01*
X1077554Y277900D01*
X1078946D01*
X1080233Y278433D01*
X1081217Y279417D01*
X1081750Y280704D01*
Y282096D01*
X1081217Y283383D01*
X1080233Y284367D01*
X1078946Y284900D01*
D02*
G37*
G36*
X1010847Y278730D02*
X1008270D01*
Y276153D01*
X1009288Y276575D01*
X1010425Y277712D01*
X1010847Y278730D01*
D02*
G37*
G36*
X1005730D02*
X1003153D01*
X1003575Y277712D01*
X1004712Y276575D01*
X1005730Y276153D01*
Y278730D01*
D02*
G37*
G36*
X726946Y282250D02*
X725554D01*
X724267Y281717D01*
X723283Y280733D01*
X722750Y279446D01*
Y278054D01*
X723283Y276767D01*
X724267Y275783D01*
X725554Y275250D01*
X726946D01*
X728233Y275783D01*
X729217Y276767D01*
X729750Y278054D01*
Y279446D01*
X729217Y280733D01*
X728233Y281717D01*
X726946Y282250D01*
D02*
G37*
G36*
X1275316Y294850D02*
X1272683D01*
X1270140Y294168D01*
X1267860Y292852D01*
X1265998Y290990D01*
X1264681Y288710D01*
X1264000Y286166D01*
Y283533D01*
X1264681Y280990D01*
X1265998Y278710D01*
X1267860Y276848D01*
X1270140Y275532D01*
X1272683Y274850D01*
X1275316D01*
X1277860Y275532D01*
X1280140Y276848D01*
X1282002Y278710D01*
X1283318Y280990D01*
X1284000Y283533D01*
Y286166D01*
X1283318Y288710D01*
X1282002Y290990D01*
X1280140Y292852D01*
X1277860Y294168D01*
X1275316Y294850D01*
D02*
G37*
G36*
X351216Y280360D02*
X349824D01*
X348537Y279827D01*
X347553Y278843D01*
X347020Y277556D01*
Y276164D01*
X347553Y274877D01*
X348537Y273893D01*
X349824Y273360D01*
X351216D01*
X352503Y273893D01*
X353487Y274877D01*
X354020Y276164D01*
Y277556D01*
X353487Y278843D01*
X352503Y279827D01*
X351216Y280360D01*
D02*
G37*
G36*
X398808Y279612D02*
X397416D01*
X396129Y279079D01*
X395145Y278095D01*
X394612Y276808D01*
Y275416D01*
X395145Y274130D01*
X396129Y273145D01*
X397416Y272612D01*
X398808D01*
X400095Y273145D01*
X401079Y274130D01*
X401612Y275416D01*
Y276808D01*
X401079Y278095D01*
X400095Y279079D01*
X398808Y279612D01*
D02*
G37*
G36*
X463696Y278500D02*
X462304D01*
X461017Y277967D01*
X460033Y276983D01*
X459500Y275696D01*
Y274304D01*
X460033Y273017D01*
X461017Y272033D01*
X462304Y271500D01*
X463696D01*
X464983Y272033D01*
X465967Y273017D01*
X466500Y274304D01*
Y275696D01*
X465967Y276983D01*
X464983Y277967D01*
X463696Y278500D01*
D02*
G37*
G36*
X351270Y268847D02*
Y266270D01*
X353847D01*
X353425Y267288D01*
X352289Y268425D01*
X351270Y268847D01*
D02*
G37*
G36*
X348730D02*
X347711Y268425D01*
X346575Y267288D01*
X346153Y266270D01*
X348730D01*
Y268847D01*
D02*
G37*
G36*
X398808Y269612D02*
X397416D01*
X396129Y269079D01*
X395145Y268095D01*
X394612Y266808D01*
Y265416D01*
X395145Y264130D01*
X396129Y263145D01*
X397416Y262612D01*
X398808D01*
X400095Y263145D01*
X401079Y264130D01*
X401612Y265416D01*
Y266808D01*
X401079Y268095D01*
X400095Y269079D01*
X398808Y269612D01*
D02*
G37*
G36*
X460696Y268587D02*
X459304D01*
X458017Y268054D01*
X457033Y267070D01*
X456500Y265783D01*
Y264391D01*
X457033Y263104D01*
X458017Y262120D01*
X459304Y261587D01*
X460696D01*
X461983Y262120D01*
X462967Y263104D01*
X463500Y264391D01*
Y265783D01*
X462967Y267070D01*
X461983Y268054D01*
X460696Y268587D01*
D02*
G37*
G36*
X1080946Y268500D02*
X1079554D01*
X1078267Y267967D01*
X1077283Y266983D01*
X1076750Y265696D01*
Y264304D01*
X1077283Y263017D01*
X1078267Y262033D01*
X1079554Y261500D01*
X1080946D01*
X1082233Y262033D01*
X1083217Y263017D01*
X1083750Y264304D01*
Y265696D01*
X1083217Y266983D01*
X1082233Y267967D01*
X1080946Y268500D01*
D02*
G37*
G36*
X353847Y263730D02*
X351270D01*
Y261153D01*
X352289Y261575D01*
X353425Y262712D01*
X353847Y263730D01*
D02*
G37*
G36*
X348730D02*
X346153D01*
X346575Y262712D01*
X347711Y261575D01*
X348730Y261153D01*
Y263730D01*
D02*
G37*
G36*
X762696Y265120D02*
X761304D01*
X760017Y264587D01*
X759033Y263603D01*
X758500Y262316D01*
Y260924D01*
X759033Y259637D01*
X760017Y258653D01*
X761304Y258120D01*
X762696D01*
X763983Y258653D01*
X764967Y259637D01*
X765500Y260924D01*
Y262316D01*
X764967Y263603D01*
X763983Y264587D01*
X762696Y265120D01*
D02*
G37*
G36*
X98696Y263500D02*
X97304D01*
X96017Y262967D01*
X95033Y261983D01*
X94500Y260696D01*
Y259304D01*
X95033Y258017D01*
X96017Y257033D01*
X97304Y256500D01*
X98696D01*
X99983Y257033D01*
X100967Y258017D01*
X101500Y259304D01*
Y260696D01*
X100967Y261983D01*
X99983Y262967D01*
X98696Y263500D01*
D02*
G37*
G36*
X1008270Y257847D02*
Y255270D01*
X1010847D01*
X1010425Y256289D01*
X1009288Y257425D01*
X1008270Y257847D01*
D02*
G37*
G36*
X1005730D02*
X1004712Y257425D01*
X1003575Y256289D01*
X1003153Y255270D01*
X1005730D01*
Y257847D01*
D02*
G37*
G36*
X398808Y259612D02*
X397416D01*
X396129Y259079D01*
X395145Y258095D01*
X394612Y256808D01*
Y255416D01*
X395145Y254130D01*
X396129Y253145D01*
X397416Y252612D01*
X398808D01*
X400095Y253145D01*
X401079Y254130D01*
X401612Y255416D01*
Y256808D01*
X401079Y258095D01*
X400095Y259079D01*
X398808Y259612D01*
D02*
G37*
G36*
X1010847Y252730D02*
X1008270D01*
Y250153D01*
X1009288Y250575D01*
X1010425Y251712D01*
X1010847Y252730D01*
D02*
G37*
G36*
X1005730D02*
X1003153D01*
X1003575Y251712D01*
X1004712Y250575D01*
X1005730Y250153D01*
Y252730D01*
D02*
G37*
G36*
X1275316Y269450D02*
X1272683D01*
X1270140Y268769D01*
X1267860Y267452D01*
X1265998Y265590D01*
X1264681Y263310D01*
X1264000Y260767D01*
Y258134D01*
X1264681Y255590D01*
X1265998Y253310D01*
X1267860Y251448D01*
X1270140Y250131D01*
X1272683Y249450D01*
X1275316D01*
X1277860Y250131D01*
X1280140Y251448D01*
X1282002Y253310D01*
X1283318Y255590D01*
X1284000Y258134D01*
Y260767D01*
X1283318Y263310D01*
X1282002Y265590D01*
X1280140Y267452D01*
X1277860Y268769D01*
X1275316Y269450D01*
D02*
G37*
G36*
X372696Y255500D02*
X371304D01*
X370017Y254967D01*
X369033Y253983D01*
X368500Y252696D01*
Y251304D01*
X369033Y250017D01*
X370017Y249033D01*
X371304Y248500D01*
X372696D01*
X373983Y249033D01*
X374967Y250017D01*
X375500Y251304D01*
Y252696D01*
X374967Y253983D01*
X373983Y254967D01*
X372696Y255500D01*
D02*
G37*
G36*
X823656Y254960D02*
X822264D01*
X820977Y254427D01*
X819993Y253443D01*
X819460Y252156D01*
Y250764D01*
X819993Y249477D01*
X820977Y248493D01*
X822264Y247960D01*
X823656D01*
X824943Y248493D01*
X825927Y249477D01*
X826460Y250764D01*
Y252156D01*
X825927Y253443D01*
X824943Y254427D01*
X823656Y254960D01*
D02*
G37*
G36*
X461696Y254500D02*
X460304D01*
X459017Y253967D01*
X458033Y252983D01*
X457500Y251696D01*
Y250304D01*
X458033Y249017D01*
X459017Y248033D01*
X460304Y247500D01*
X461696D01*
X462983Y248033D01*
X463967Y249017D01*
X464500Y250304D01*
Y251696D01*
X463967Y252983D01*
X462983Y253967D01*
X461696Y254500D01*
D02*
G37*
G36*
X98696D02*
X97304D01*
X96017Y253967D01*
X95033Y252983D01*
X94500Y251696D01*
Y250304D01*
X95033Y249017D01*
X96017Y248033D01*
X97304Y247500D01*
X98696D01*
X99983Y248033D01*
X100967Y249017D01*
X101500Y250304D01*
Y251696D01*
X100967Y252983D01*
X99983Y253967D01*
X98696Y254500D01*
D02*
G37*
G36*
X1044696Y252000D02*
X1043304D01*
X1042017Y251467D01*
X1041033Y250483D01*
X1040500Y249196D01*
Y247804D01*
X1041033Y246517D01*
X1042017Y245533D01*
X1043304Y245000D01*
X1044696D01*
X1045983Y245533D01*
X1046967Y246517D01*
X1047500Y247804D01*
Y249196D01*
X1046967Y250483D01*
X1045983Y251467D01*
X1044696Y252000D01*
D02*
G37*
G36*
X153696Y250500D02*
X152304D01*
X151017Y249967D01*
X150033Y248983D01*
X149500Y247696D01*
Y246304D01*
X150033Y245017D01*
X151017Y244033D01*
X152304Y243500D01*
X153696D01*
X154983Y244033D01*
X155967Y245017D01*
X156500Y246304D01*
Y247696D01*
X155967Y248983D01*
X154983Y249967D01*
X153696Y250500D01*
D02*
G37*
G36*
X398808Y249612D02*
X397416D01*
X396129Y249079D01*
X395145Y248095D01*
X394612Y246808D01*
Y245416D01*
X395145Y244130D01*
X396129Y243145D01*
X397416Y242612D01*
X398808D01*
X400095Y243145D01*
X401079Y244130D01*
X401612Y245416D01*
Y246808D01*
X401079Y248095D01*
X400095Y249079D01*
X398808Y249612D01*
D02*
G37*
G36*
X144696Y249500D02*
X143304D01*
X142017Y248967D01*
X141033Y247983D01*
X140500Y246696D01*
Y245304D01*
X141033Y244017D01*
X142017Y243033D01*
X143304Y242500D01*
X144696D01*
X145983Y243033D01*
X146967Y244017D01*
X147500Y245304D01*
Y246696D01*
X146967Y247983D01*
X145983Y248967D01*
X144696Y249500D01*
D02*
G37*
G36*
X182270Y241847D02*
Y239270D01*
X184847D01*
X184425Y240289D01*
X183288Y241425D01*
X182270Y241847D01*
D02*
G37*
G36*
X179730D02*
X178711Y241425D01*
X177575Y240289D01*
X177153Y239270D01*
X179730D01*
Y241847D01*
D02*
G37*
G36*
X336703Y237583D02*
X336534Y237545D01*
X336360Y237545D01*
X336150Y237458D01*
X335928Y237407D01*
X335786Y237307D01*
X335625Y237241D01*
X291063Y207491D01*
X290807Y207628D01*
X282051D01*
X282473Y206609D01*
X283609Y205473D01*
X284932Y204925D01*
X285148Y204301D01*
X285216Y203588D01*
X246295Y177604D01*
X246153Y177462D01*
X245985Y177350D01*
X231817Y163183D01*
X231699Y163005D01*
X231549Y162852D01*
X231480Y162677D01*
X231376Y162521D01*
X231334Y162311D01*
X231255Y162113D01*
X231257Y161925D01*
X231220Y161740D01*
X231262Y161531D01*
X231265Y161317D01*
X236417Y137057D01*
X236454Y136970D01*
X236464Y136876D01*
X236610Y136607D01*
X236731Y136326D01*
X237075Y135788D01*
X236653Y134770D01*
X240500D01*
Y132230D01*
X236653D01*
X237075Y131212D01*
X238211Y130075D01*
X239291Y129628D01*
X239238Y129468D01*
X239198Y129146D01*
X239134Y128827D01*
X239149Y128753D01*
X239140Y128678D01*
X239226Y128365D01*
X239289Y128046D01*
X239331Y127984D01*
X239351Y127911D01*
X239551Y127655D01*
X239732Y127385D01*
X250558Y116558D01*
X251220Y116116D01*
X252000Y115961D01*
X254715D01*
X255241Y114691D01*
X255033Y114483D01*
X254500Y113196D01*
Y111804D01*
X255033Y110517D01*
X256017Y109533D01*
X257304Y109000D01*
X258696D01*
X259983Y109533D01*
X260967Y110517D01*
X261500Y111804D01*
Y113196D01*
X260967Y114483D01*
X260759Y114691D01*
X261285Y115961D01*
X288155D01*
X306558Y97558D01*
X307220Y97116D01*
X308000Y96961D01*
X413000D01*
X413000Y96961D01*
X413780Y97116D01*
X414442Y97558D01*
X414442Y97558D01*
X415442Y98558D01*
X415884Y99220D01*
X416039Y100000D01*
Y138000D01*
X416039Y138000D01*
X415884Y138780D01*
X415442Y139442D01*
X362039Y192845D01*
Y199254D01*
X362013Y199387D01*
X362021Y199523D01*
X361936Y199774D01*
X361884Y200035D01*
X361809Y200147D01*
X361765Y200276D01*
X361589Y200475D01*
X361442Y200696D01*
X361329Y200772D01*
X361239Y200874D01*
X360840Y201179D01*
X360608Y201293D01*
X360395Y201438D01*
X360179Y201529D01*
X360500Y202304D01*
Y203696D01*
X360179Y204471D01*
X360395Y204562D01*
X360608Y204707D01*
X360840Y204821D01*
X361239Y205126D01*
X361329Y205228D01*
X361442Y205304D01*
X361590Y205525D01*
X361765Y205724D01*
X361809Y205853D01*
X361884Y205965D01*
X361936Y206226D01*
X362021Y206477D01*
X362013Y206613D01*
X362039Y206746D01*
X362039Y226631D01*
X362034Y226658D01*
X362038Y226685D01*
X361956Y227047D01*
X361884Y227411D01*
X361869Y227434D01*
X361863Y227461D01*
X361648Y227764D01*
X361442Y228073D01*
X361419Y228088D01*
X361403Y228110D01*
X361089Y228308D01*
X360780Y228515D01*
X360753Y228520D01*
X360730Y228535D01*
X337488Y237449D01*
X337317Y237478D01*
X337156Y237544D01*
X336928Y237544D01*
X336703Y237583D01*
D02*
G37*
G36*
X459696Y244500D02*
X458304D01*
X457017Y243967D01*
X456033Y242983D01*
X455500Y241696D01*
Y240304D01*
X456033Y239017D01*
X457017Y238033D01*
X458304Y237500D01*
X459696D01*
X460983Y238033D01*
X461967Y239017D01*
X462500Y240304D01*
Y241696D01*
X461967Y242983D01*
X460983Y243967D01*
X459696Y244500D01*
D02*
G37*
G36*
X66720Y238299D02*
Y235722D01*
X69297D01*
X68875Y236740D01*
X67738Y237877D01*
X66720Y238299D01*
D02*
G37*
G36*
X64180D02*
X63162Y237877D01*
X62025Y236740D01*
X61603Y235722D01*
X64180D01*
Y238299D01*
D02*
G37*
G36*
X1042196Y242500D02*
X1040804D01*
X1039517Y241967D01*
X1038533Y240983D01*
X1038000Y239696D01*
Y238304D01*
X1038533Y237017D01*
X1039517Y236033D01*
X1040804Y235500D01*
X1042196D01*
X1043483Y236033D01*
X1044467Y237017D01*
X1045000Y238304D01*
Y239696D01*
X1044467Y240983D01*
X1043483Y241967D01*
X1042196Y242500D01*
D02*
G37*
G36*
X184847Y236730D02*
X182270D01*
Y234153D01*
X183288Y234575D01*
X184425Y235711D01*
X184847Y236730D01*
D02*
G37*
G36*
X179730D02*
X177153D01*
X177575Y235711D01*
X178711Y234575D01*
X179730Y234153D01*
Y236730D01*
D02*
G37*
G36*
X398808Y239612D02*
X397416D01*
X396129Y239079D01*
X395145Y238095D01*
X394612Y236808D01*
Y235416D01*
X395145Y234130D01*
X396129Y233145D01*
X397416Y232612D01*
X398808D01*
X400095Y233145D01*
X401079Y234130D01*
X401612Y235416D01*
Y236808D01*
X401079Y238095D01*
X400095Y239079D01*
X398808Y239612D01*
D02*
G37*
G36*
X69297Y233182D02*
X66720D01*
Y230605D01*
X67738Y231027D01*
X68875Y232164D01*
X69297Y233182D01*
D02*
G37*
G36*
X64180D02*
X61603D01*
X62025Y232164D01*
X63162Y231027D01*
X64180Y230605D01*
Y233182D01*
D02*
G37*
G36*
X1008270Y232847D02*
Y230270D01*
X1010847D01*
X1010425Y231289D01*
X1009288Y232425D01*
X1008270Y232847D01*
D02*
G37*
G36*
X1005730D02*
X1004712Y232425D01*
X1003575Y231289D01*
X1003153Y230270D01*
X1005730D01*
Y232847D01*
D02*
G37*
G36*
X932876Y237180D02*
X931484D01*
X930197Y236647D01*
X929213Y235663D01*
X928680Y234376D01*
Y232984D01*
X929213Y231697D01*
X930197Y230713D01*
X931484Y230180D01*
X932876D01*
X934163Y230713D01*
X935147Y231697D01*
X935680Y232984D01*
Y234376D01*
X935147Y235663D01*
X934163Y236647D01*
X932876Y237180D01*
D02*
G37*
G36*
X259696Y233000D02*
X258304D01*
X257017Y232467D01*
X256033Y231483D01*
X255500Y230196D01*
Y228804D01*
X256033Y227517D01*
X257017Y226533D01*
X258304Y226000D01*
X259696D01*
X260983Y226533D01*
X261967Y227517D01*
X262500Y228804D01*
Y230196D01*
X261967Y231483D01*
X260983Y232467D01*
X259696Y233000D01*
D02*
G37*
G36*
X1010847Y227730D02*
X1008270D01*
Y225153D01*
X1009288Y225575D01*
X1010425Y226712D01*
X1010847Y227730D01*
D02*
G37*
G36*
X1005730D02*
X1003153D01*
X1003575Y226712D01*
X1004712Y225575D01*
X1005730Y225153D01*
Y227730D01*
D02*
G37*
G36*
X1275316Y244050D02*
X1272683D01*
X1270140Y243368D01*
X1267860Y242052D01*
X1265998Y240190D01*
X1264681Y237910D01*
X1264000Y235366D01*
Y232733D01*
X1264681Y230190D01*
X1265998Y227910D01*
X1267860Y226048D01*
X1270140Y224732D01*
X1272683Y224050D01*
X1275316D01*
X1277860Y224732D01*
X1280140Y226048D01*
X1282002Y227910D01*
X1283318Y230190D01*
X1284000Y232733D01*
Y235366D01*
X1283318Y237910D01*
X1282002Y240190D01*
X1280140Y242052D01*
X1277860Y243368D01*
X1275316Y244050D01*
D02*
G37*
G36*
X462696Y230500D02*
X461304D01*
X460017Y229967D01*
X459033Y228983D01*
X458500Y227696D01*
Y226304D01*
X459033Y225017D01*
X460017Y224033D01*
X461304Y223500D01*
X462696D01*
X463983Y224033D01*
X464967Y225017D01*
X465500Y226304D01*
Y227696D01*
X464967Y228983D01*
X463983Y229967D01*
X462696Y230500D01*
D02*
G37*
G36*
X1084314Y229718D02*
X1082922D01*
X1081636Y229185D01*
X1080651Y228201D01*
X1080118Y226915D01*
Y225522D01*
X1080651Y224236D01*
X1081636Y223251D01*
X1082922Y222718D01*
X1084314D01*
X1085601Y223251D01*
X1086585Y224236D01*
X1087118Y225522D01*
Y226915D01*
X1086585Y228201D01*
X1085601Y229185D01*
X1084314Y229718D01*
D02*
G37*
G36*
X398808Y229612D02*
X397416D01*
X396129Y229079D01*
X395145Y228095D01*
X394612Y226808D01*
Y225416D01*
X395145Y224130D01*
X396129Y223145D01*
X397416Y222612D01*
X398808D01*
X400095Y223145D01*
X401079Y224130D01*
X401612Y225416D01*
Y226808D01*
X401079Y228095D01*
X400095Y229079D01*
X398808Y229612D01*
D02*
G37*
G36*
X234079Y224888D02*
Y221770D01*
X237197D01*
X236658Y223072D01*
X235380Y224349D01*
X234079Y224888D01*
D02*
G37*
G36*
X231539D02*
X230237Y224349D01*
X228960Y223072D01*
X228421Y221770D01*
X231539D01*
Y224888D01*
D02*
G37*
G36*
X237197Y219230D02*
X234079D01*
Y216112D01*
X235380Y216651D01*
X236658Y217928D01*
X237197Y219230D01*
D02*
G37*
G36*
X231539D02*
X228421D01*
X228960Y217928D01*
X230237Y216651D01*
X231539Y216112D01*
Y219230D01*
D02*
G37*
G36*
X164270Y218347D02*
Y215770D01*
X166847D01*
X166425Y216788D01*
X165288Y217925D01*
X164270Y218347D01*
D02*
G37*
G36*
X161730D02*
X160711Y217925D01*
X159575Y216788D01*
X159153Y215770D01*
X161730D01*
Y218347D01*
D02*
G37*
G36*
X270270Y216847D02*
Y214270D01*
X272847D01*
X272425Y215289D01*
X271289Y216425D01*
X270270Y216847D01*
D02*
G37*
G36*
X267730D02*
X266712Y216425D01*
X265575Y215289D01*
X265153Y214270D01*
X267730D01*
Y216847D01*
D02*
G37*
G36*
X398808Y219612D02*
X397416D01*
X396129Y219079D01*
X395145Y218095D01*
X394612Y216808D01*
Y215416D01*
X395145Y214130D01*
X396129Y213145D01*
X397416Y212612D01*
X398808D01*
X400095Y213145D01*
X401079Y214130D01*
X401612Y215416D01*
Y216808D01*
X401079Y218095D01*
X400095Y219079D01*
X398808Y219612D01*
D02*
G37*
G36*
X459696Y218500D02*
X458304D01*
X457017Y217967D01*
X456033Y216983D01*
X455500Y215696D01*
Y214304D01*
X456033Y213017D01*
X457017Y212033D01*
X458304Y211500D01*
X459696D01*
X460983Y212033D01*
X461967Y213017D01*
X462500Y214304D01*
Y215696D01*
X461967Y216983D01*
X460983Y217967D01*
X459696Y218500D01*
D02*
G37*
G36*
X166847Y213230D02*
X164270D01*
Y210653D01*
X165288Y211075D01*
X166425Y212211D01*
X166847Y213230D01*
D02*
G37*
G36*
X161730D02*
X159153D01*
X159575Y212211D01*
X160711Y211075D01*
X161730Y210653D01*
Y213230D01*
D02*
G37*
G36*
X287168Y212745D02*
Y210168D01*
X289745D01*
X289323Y211186D01*
X288186Y212323D01*
X287168Y212745D01*
D02*
G37*
G36*
X284628D02*
X283609Y212323D01*
X282473Y211186D01*
X282051Y210168D01*
X284628D01*
Y212745D01*
D02*
G37*
G36*
X255196Y210750D02*
X253804D01*
X252517Y210217D01*
X251533Y209233D01*
X250126Y209156D01*
X249878Y209404D01*
X248408Y210013D01*
X246816D01*
X245346Y209404D01*
X244221Y208279D01*
X243612Y206809D01*
Y205217D01*
X244221Y203747D01*
X245346Y202622D01*
X246816Y202013D01*
X248408D01*
X249878Y202622D01*
X251003Y203747D01*
X251166Y204141D01*
X252412Y204389D01*
X252517Y204283D01*
X253804Y203750D01*
X255196D01*
X256483Y204283D01*
X257467Y205267D01*
X258000Y206554D01*
Y207946D01*
X257467Y209233D01*
X256483Y210217D01*
X255196Y210750D01*
D02*
G37*
G36*
X272847Y211730D02*
X270270D01*
Y209153D01*
X271289Y209575D01*
X272425Y210711D01*
X272847Y211730D01*
D02*
G37*
G36*
X267730D02*
X265153D01*
X265575Y210711D01*
X266712Y209575D01*
X267730Y209153D01*
Y211730D01*
D02*
G37*
G36*
X1008270Y206847D02*
Y204270D01*
X1010847D01*
X1010425Y205289D01*
X1009288Y206425D01*
X1008270Y206847D01*
D02*
G37*
G36*
X1005730D02*
X1004712Y206425D01*
X1003575Y205289D01*
X1003153Y204270D01*
X1005730D01*
Y206847D01*
D02*
G37*
G36*
X398808Y209612D02*
X397416D01*
X396129Y209079D01*
X395145Y208095D01*
X394612Y206808D01*
Y205416D01*
X395145Y204130D01*
X396129Y203145D01*
X397416Y202612D01*
X398808D01*
X400095Y203145D01*
X401079Y204130D01*
X401612Y205416D01*
Y206808D01*
X401079Y208095D01*
X400095Y209079D01*
X398808Y209612D01*
D02*
G37*
G36*
X1042212Y208016D02*
X1040820D01*
X1039533Y207483D01*
X1038549Y206499D01*
X1038016Y205212D01*
Y203820D01*
X1038549Y202533D01*
X1039533Y201549D01*
X1040820Y201016D01*
X1042212D01*
X1043499Y201549D01*
X1044483Y202533D01*
X1045016Y203820D01*
Y205212D01*
X1044483Y206499D01*
X1043499Y207483D01*
X1042212Y208016D01*
D02*
G37*
G36*
X1010847Y201730D02*
X1008270D01*
Y199153D01*
X1009288Y199575D01*
X1010425Y200711D01*
X1010847Y201730D01*
D02*
G37*
G36*
X1005730D02*
X1003153D01*
X1003575Y200711D01*
X1004712Y199575D01*
X1005730Y199153D01*
Y201730D01*
D02*
G37*
G36*
X140270Y201347D02*
Y198770D01*
X142847D01*
X142425Y199788D01*
X141288Y200925D01*
X140270Y201347D01*
D02*
G37*
G36*
X137730D02*
X136712Y200925D01*
X135575Y199788D01*
X135153Y198770D01*
X137730D01*
Y201347D01*
D02*
G37*
G36*
X1275316Y218650D02*
X1272683D01*
X1270140Y217969D01*
X1267860Y216652D01*
X1265998Y214790D01*
X1264681Y212510D01*
X1264000Y209967D01*
Y207334D01*
X1264681Y204790D01*
X1265998Y202510D01*
X1267860Y200648D01*
X1270140Y199331D01*
X1272683Y198650D01*
X1275316D01*
X1277860Y199331D01*
X1280140Y200648D01*
X1282002Y202510D01*
X1283318Y204790D01*
X1284000Y207334D01*
Y209967D01*
X1283318Y212510D01*
X1282002Y214790D01*
X1280140Y216652D01*
X1277860Y217969D01*
X1275316Y218650D01*
D02*
G37*
G36*
X224696Y205500D02*
X223304D01*
X222017Y204967D01*
X221033Y203983D01*
X220500Y202696D01*
Y201304D01*
X221033Y200017D01*
X222017Y199033D01*
X223304Y198500D01*
X224696D01*
X225983Y199033D01*
X226967Y200017D01*
X227500Y201304D01*
Y202696D01*
X226967Y203983D01*
X225983Y204967D01*
X224696Y205500D01*
D02*
G37*
G36*
X466296Y202000D02*
X464904D01*
X463617Y201467D01*
X462633Y200483D01*
X462100Y199196D01*
Y197804D01*
X462633Y196517D01*
X463617Y195533D01*
X464904Y195000D01*
X466296D01*
X467583Y195533D01*
X468567Y196517D01*
X469100Y197804D01*
Y199196D01*
X468567Y200483D01*
X467583Y201467D01*
X466296Y202000D01*
D02*
G37*
G36*
X142847Y196230D02*
X140270D01*
Y193653D01*
X141288Y194075D01*
X142425Y195212D01*
X142847Y196230D01*
D02*
G37*
G36*
X137730D02*
X135153D01*
X135575Y195212D01*
X136712Y194075D01*
X137730Y193653D01*
Y196230D01*
D02*
G37*
G36*
X398808Y199612D02*
X397416D01*
X396129Y199079D01*
X395145Y198095D01*
X394612Y196808D01*
Y195416D01*
X395145Y194130D01*
X396129Y193145D01*
X397416Y192612D01*
X398808D01*
X400095Y193145D01*
X401079Y194130D01*
X401612Y195416D01*
Y196808D01*
X401079Y198095D01*
X400095Y199079D01*
X398808Y199612D01*
D02*
G37*
G36*
X1076962Y198516D02*
X1075570D01*
X1074283Y197983D01*
X1073299Y196999D01*
X1072766Y195712D01*
Y194320D01*
X1073299Y193033D01*
X1074283Y192049D01*
X1075570Y191516D01*
X1076962D01*
X1078249Y192049D01*
X1079233Y193033D01*
X1079766Y194320D01*
Y195712D01*
X1079233Y196999D01*
X1078249Y197983D01*
X1076962Y198516D01*
D02*
G37*
G36*
X459453Y194996D02*
X458061D01*
X456774Y194464D01*
X455790Y193479D01*
X455257Y192192D01*
Y190800D01*
X455790Y189514D01*
X456774Y188529D01*
X458061Y187996D01*
X459453D01*
X460740Y188529D01*
X461724Y189514D01*
X462257Y190800D01*
Y192192D01*
X461724Y193479D01*
X460740Y194464D01*
X459453Y194996D01*
D02*
G37*
G36*
X1049446Y193000D02*
X1048054D01*
X1046767Y192467D01*
X1045783Y191483D01*
X1045250Y190196D01*
Y188804D01*
X1045783Y187517D01*
X1046767Y186533D01*
X1048054Y186000D01*
X1049446D01*
X1050733Y186533D01*
X1051717Y187517D01*
X1052250Y188804D01*
Y190196D01*
X1051717Y191483D01*
X1050733Y192467D01*
X1049446Y193000D01*
D02*
G37*
G36*
X398808Y189612D02*
X397416D01*
X396129Y189079D01*
X395145Y188095D01*
X394612Y186808D01*
Y185416D01*
X395145Y184130D01*
X396129Y183145D01*
X397416Y182612D01*
X398808D01*
X400095Y183145D01*
X401079Y184130D01*
X401612Y185416D01*
Y186808D01*
X401079Y188095D01*
X400095Y189079D01*
X398808Y189612D01*
D02*
G37*
G36*
X1008270Y181847D02*
Y179270D01*
X1010847D01*
X1010425Y180289D01*
X1009288Y181425D01*
X1008270Y181847D01*
D02*
G37*
G36*
X1005730D02*
X1004712Y181425D01*
X1003575Y180289D01*
X1003153Y179270D01*
X1005730D01*
Y181847D01*
D02*
G37*
G36*
X1078946Y183300D02*
X1077554D01*
X1076267Y182767D01*
X1075283Y181783D01*
X1074750Y180496D01*
Y179104D01*
X1075283Y177817D01*
X1076267Y176833D01*
X1077554Y176300D01*
X1078946D01*
X1080233Y176833D01*
X1081217Y177817D01*
X1081750Y179104D01*
Y180496D01*
X1081217Y181783D01*
X1080233Y182767D01*
X1078946Y183300D01*
D02*
G37*
G36*
X189696Y183000D02*
X188304D01*
X187017Y182467D01*
X186033Y181483D01*
X185500Y180196D01*
Y178804D01*
X186033Y177517D01*
X187017Y176533D01*
X188304Y176000D01*
X189696D01*
X190983Y176533D01*
X191967Y177517D01*
X192500Y178804D01*
Y180196D01*
X191967Y181483D01*
X190983Y182467D01*
X189696Y183000D01*
D02*
G37*
G36*
X847696Y181500D02*
X846304D01*
X845017Y180967D01*
X844033Y179983D01*
X843500Y178696D01*
Y177304D01*
X844033Y176017D01*
X845017Y175033D01*
X846304Y174500D01*
X847696D01*
X848983Y175033D01*
X849967Y176017D01*
X850500Y177304D01*
Y178696D01*
X849967Y179983D01*
X848983Y180967D01*
X847696Y181500D01*
D02*
G37*
G36*
X1010847Y176730D02*
X1008270D01*
Y174153D01*
X1009288Y174575D01*
X1010425Y175711D01*
X1010847Y176730D01*
D02*
G37*
G36*
X1005730D02*
X1003153D01*
X1003575Y175711D01*
X1004712Y174575D01*
X1005730Y174153D01*
Y176730D01*
D02*
G37*
G36*
X1275316Y193250D02*
X1272683D01*
X1270140Y192568D01*
X1267860Y191252D01*
X1265998Y189390D01*
X1264681Y187110D01*
X1264000Y184566D01*
Y181933D01*
X1264681Y179390D01*
X1265998Y177110D01*
X1267860Y175248D01*
X1270140Y173932D01*
X1272683Y173250D01*
X1275316D01*
X1277860Y173932D01*
X1280140Y175248D01*
X1282002Y177110D01*
X1283318Y179390D01*
X1284000Y181933D01*
Y184566D01*
X1283318Y187110D01*
X1282002Y189390D01*
X1280140Y191252D01*
X1277860Y192568D01*
X1275316Y193250D01*
D02*
G37*
G36*
X469696Y179500D02*
X468304D01*
X467017Y178967D01*
X466033Y177983D01*
X465500Y176696D01*
Y175304D01*
X466033Y174017D01*
X467017Y173033D01*
X468304Y172500D01*
X469696D01*
X470983Y173033D01*
X471967Y174017D01*
X472500Y175304D01*
Y176696D01*
X471967Y177983D01*
X470983Y178967D01*
X469696Y179500D01*
D02*
G37*
G36*
X897316Y176220D02*
X895924D01*
X894637Y175687D01*
X893653Y174703D01*
X893120Y173416D01*
Y172024D01*
X893653Y170737D01*
X894637Y169753D01*
X895924Y169220D01*
X897316D01*
X898603Y169753D01*
X899587Y170737D01*
X900120Y172024D01*
Y173416D01*
X899587Y174703D01*
X898603Y175687D01*
X897316Y176220D01*
D02*
G37*
G36*
X459696Y168023D02*
X458304D01*
X457017Y167490D01*
X456033Y166505D01*
X455500Y165219D01*
Y163826D01*
X456033Y162540D01*
X457017Y161556D01*
X458304Y161023D01*
X459696D01*
X460983Y161556D01*
X461967Y162540D01*
X462500Y163826D01*
Y165219D01*
X461967Y166505D01*
X460983Y167490D01*
X459696Y168023D01*
D02*
G37*
G36*
X224270Y157888D02*
Y154770D01*
X227388D01*
X226849Y156072D01*
X225572Y157349D01*
X224270Y157888D01*
D02*
G37*
G36*
X221730D02*
X220428Y157349D01*
X219151Y156072D01*
X218612Y154770D01*
X221730D01*
Y157888D01*
D02*
G37*
G36*
X1008270Y156847D02*
Y154270D01*
X1010847D01*
X1010425Y155288D01*
X1009288Y156425D01*
X1008270Y156847D01*
D02*
G37*
G36*
X1005730D02*
X1004712Y156425D01*
X1003575Y155288D01*
X1003153Y154270D01*
X1005730D01*
Y156847D01*
D02*
G37*
G36*
X930336Y160980D02*
X928944D01*
X927657Y160447D01*
X926673Y159463D01*
X926140Y158176D01*
Y156784D01*
X926673Y155497D01*
X927657Y154513D01*
X928944Y153980D01*
X930336D01*
X931623Y154513D01*
X932607Y155497D01*
X933140Y156784D01*
Y158176D01*
X932607Y159463D01*
X931623Y160447D01*
X930336Y160980D01*
D02*
G37*
G36*
X180729Y154888D02*
Y151770D01*
X183847D01*
X183308Y153072D01*
X182031Y154349D01*
X180729Y154888D01*
D02*
G37*
G36*
X178189D02*
X176887Y154349D01*
X175610Y153072D01*
X175071Y151770D01*
X178189D01*
Y154888D01*
D02*
G37*
G36*
X656016Y158440D02*
X654624D01*
X653337Y157907D01*
X652353Y156923D01*
X651820Y155636D01*
Y154244D01*
X652353Y152957D01*
X653337Y151973D01*
X654624Y151440D01*
X656016D01*
X657303Y151973D01*
X658287Y152957D01*
X658820Y154244D01*
Y155636D01*
X658287Y156923D01*
X657303Y157907D01*
X656016Y158440D01*
D02*
G37*
G36*
X1010847Y151730D02*
X1008270D01*
Y149153D01*
X1009288Y149575D01*
X1010425Y150711D01*
X1010847Y151730D01*
D02*
G37*
G36*
X1005730D02*
X1003153D01*
X1003575Y150711D01*
X1004712Y149575D01*
X1005730Y149153D01*
Y151730D01*
D02*
G37*
G36*
X227388Y152230D02*
X224270D01*
Y149112D01*
X225572Y149651D01*
X226849Y150928D01*
X227388Y152230D01*
D02*
G37*
G36*
X221730D02*
X218612D01*
X219151Y150928D01*
X220428Y149651D01*
X221730Y149112D01*
Y152230D01*
D02*
G37*
G36*
X462696Y155500D02*
X461304D01*
X460017Y154967D01*
X459033Y153983D01*
X458500Y152696D01*
Y151304D01*
X459033Y150017D01*
X460017Y149033D01*
X461304Y148500D01*
X462696D01*
X463983Y149033D01*
X464967Y150017D01*
X465500Y151304D01*
Y152696D01*
X464967Y153983D01*
X463983Y154967D01*
X462696Y155500D01*
D02*
G37*
G36*
X1275316Y167850D02*
X1272683D01*
X1270140Y167169D01*
X1267860Y165852D01*
X1265998Y163990D01*
X1264681Y161710D01*
X1264000Y159166D01*
Y156533D01*
X1264681Y153990D01*
X1265998Y151710D01*
X1267860Y149848D01*
X1270140Y148532D01*
X1272683Y147850D01*
X1275316D01*
X1277860Y148532D01*
X1280140Y149848D01*
X1282002Y151710D01*
X1283318Y153990D01*
X1284000Y156533D01*
Y159166D01*
X1283318Y161710D01*
X1282002Y163990D01*
X1280140Y165852D01*
X1277860Y167169D01*
X1275316Y167850D01*
D02*
G37*
G36*
X183847Y149230D02*
X180729D01*
Y146112D01*
X182031Y146651D01*
X183308Y147928D01*
X183847Y149230D01*
D02*
G37*
G36*
X178189D02*
X175071D01*
X175610Y147928D01*
X176887Y146651D01*
X178189Y146112D01*
Y149230D01*
D02*
G37*
G36*
X1040266Y150190D02*
X1038873D01*
X1037587Y149657D01*
X1036602Y148673D01*
X1036069Y147386D01*
Y145994D01*
X1036602Y144707D01*
X1037587Y143723D01*
X1038873Y143190D01*
X1040266D01*
X1041552Y143723D01*
X1042536Y144707D01*
X1043069Y145994D01*
Y147386D01*
X1042536Y148673D01*
X1041552Y149657D01*
X1040266Y150190D01*
D02*
G37*
G36*
X1081387Y149250D02*
X1079995D01*
X1078709Y148717D01*
X1077724Y147733D01*
X1077191Y146446D01*
Y145054D01*
X1077724Y143767D01*
X1078709Y142783D01*
X1079995Y142250D01*
X1081387D01*
X1082674Y142783D01*
X1083659Y143767D01*
X1084191Y145054D01*
Y146446D01*
X1083659Y147733D01*
X1082674Y148717D01*
X1081387Y149250D01*
D02*
G37*
G36*
X433770Y140347D02*
Y137770D01*
X436347D01*
X435925Y138788D01*
X434788Y139925D01*
X433770Y140347D01*
D02*
G37*
G36*
X431230D02*
X430211Y139925D01*
X429075Y138788D01*
X428653Y137770D01*
X431230D01*
Y140347D01*
D02*
G37*
G36*
X459696Y143500D02*
X458304D01*
X457017Y142967D01*
X456033Y141983D01*
X455500Y140696D01*
Y139304D01*
X456033Y138017D01*
X457017Y137033D01*
X458304Y136500D01*
X459696D01*
X460983Y137033D01*
X461967Y138017D01*
X462500Y139304D01*
Y140696D01*
X461967Y141983D01*
X460983Y142967D01*
X459696Y143500D01*
D02*
G37*
G36*
X436347Y135230D02*
X433770D01*
Y132653D01*
X434788Y133075D01*
X435925Y134212D01*
X436347Y135230D01*
D02*
G37*
G36*
X431230D02*
X428653D01*
X429075Y134212D01*
X430211Y133075D01*
X431230Y132653D01*
Y135230D01*
D02*
G37*
G36*
X1008270Y130847D02*
Y128270D01*
X1010847D01*
X1010425Y129289D01*
X1009288Y130425D01*
X1008270Y130847D01*
D02*
G37*
G36*
X1005730D02*
X1004712Y130425D01*
X1003575Y129289D01*
X1003153Y128270D01*
X1005730D01*
Y130847D01*
D02*
G37*
G36*
X217270Y130347D02*
Y127770D01*
X219847D01*
X219425Y128788D01*
X218288Y129925D01*
X217270Y130347D01*
D02*
G37*
G36*
X214730D02*
X213711Y129925D01*
X212575Y128788D01*
X212153Y127770D01*
X214730D01*
Y130347D01*
D02*
G37*
G36*
X1078946Y132500D02*
X1077554D01*
X1076267Y131967D01*
X1075283Y130983D01*
X1074750Y129696D01*
Y128304D01*
X1075283Y127017D01*
X1076267Y126033D01*
X1077554Y125500D01*
X1078946D01*
X1080233Y126033D01*
X1081217Y127017D01*
X1081750Y128304D01*
Y129696D01*
X1081217Y130983D01*
X1080233Y131967D01*
X1078946Y132500D01*
D02*
G37*
G36*
X464337Y130410D02*
X462944D01*
X461658Y129878D01*
X460673Y128893D01*
X460140Y127607D01*
Y126214D01*
X460673Y124928D01*
X461658Y123943D01*
X462944Y123411D01*
X464337D01*
X465623Y123943D01*
X466608Y124928D01*
X467140Y126214D01*
Y127607D01*
X466608Y128893D01*
X465623Y129878D01*
X464337Y130410D01*
D02*
G37*
G36*
X1010847Y125730D02*
X1008270D01*
Y123153D01*
X1009288Y123575D01*
X1010425Y124712D01*
X1010847Y125730D01*
D02*
G37*
G36*
X1005730D02*
X1003153D01*
X1003575Y124712D01*
X1004712Y123575D01*
X1005730Y123153D01*
Y125730D01*
D02*
G37*
G36*
X219847Y125230D02*
X217270D01*
Y122653D01*
X218288Y123075D01*
X219425Y124212D01*
X219847Y125230D01*
D02*
G37*
G36*
X214730D02*
X212153D01*
X212575Y124212D01*
X213711Y123075D01*
X214730Y122653D01*
Y125230D01*
D02*
G37*
G36*
X1275316Y142450D02*
X1272683D01*
X1270140Y141769D01*
X1267860Y140452D01*
X1265998Y138590D01*
X1264681Y136310D01*
X1264000Y133766D01*
Y131133D01*
X1264681Y128590D01*
X1265998Y126310D01*
X1267860Y124448D01*
X1270140Y123132D01*
X1272683Y122450D01*
X1275316D01*
X1277860Y123132D01*
X1280140Y124448D01*
X1282002Y126310D01*
X1283318Y128590D01*
X1284000Y131133D01*
Y133766D01*
X1283318Y136310D01*
X1282002Y138590D01*
X1280140Y140452D01*
X1277860Y141769D01*
X1275316Y142450D01*
D02*
G37*
G36*
X1044446Y125500D02*
X1043054D01*
X1041767Y124967D01*
X1040783Y123983D01*
X1040250Y122696D01*
Y121304D01*
X1040783Y120017D01*
X1041767Y119033D01*
X1043054Y118500D01*
X1044446D01*
X1045733Y119033D01*
X1046717Y120017D01*
X1047250Y121304D01*
Y122696D01*
X1046717Y123983D01*
X1045733Y124967D01*
X1044446Y125500D01*
D02*
G37*
G36*
X891696Y120500D02*
X890304D01*
X889017Y119967D01*
X888033Y118983D01*
X887500Y117696D01*
Y116304D01*
X888033Y115017D01*
X889017Y114033D01*
X890304Y113500D01*
X891696D01*
X892983Y114033D01*
X893967Y115017D01*
X894500Y116304D01*
Y117696D01*
X893967Y118983D01*
X892983Y119967D01*
X891696Y120500D01*
D02*
G37*
G36*
X1008270Y108117D02*
Y105540D01*
X1010847D01*
X1010425Y106559D01*
X1009288Y107695D01*
X1008270Y108117D01*
D02*
G37*
G36*
X1005730D02*
X1004712Y107695D01*
X1003575Y106559D01*
X1003153Y105540D01*
X1005730D01*
Y108117D01*
D02*
G37*
G36*
X1010847Y103000D02*
X1008270D01*
Y100423D01*
X1009288Y100845D01*
X1010425Y101981D01*
X1010847Y103000D01*
D02*
G37*
G36*
X1005730D02*
X1003153D01*
X1003575Y101981D01*
X1004712Y100845D01*
X1005730Y100423D01*
Y103000D01*
D02*
G37*
G36*
X114472Y107104D02*
X113080D01*
X111793Y106571D01*
X110809Y105587D01*
X110276Y104300D01*
Y102908D01*
X110809Y101622D01*
X111793Y100637D01*
X113080Y100104D01*
X114472D01*
X115758Y100637D01*
X116743Y101622D01*
X117276Y102908D01*
Y104300D01*
X116743Y105587D01*
X115758Y106571D01*
X114472Y107104D01*
D02*
G37*
G36*
X287256Y107040D02*
X285864D01*
X284577Y106507D01*
X283593Y105523D01*
X283060Y104236D01*
Y102844D01*
X283593Y101557D01*
X284577Y100573D01*
X285864Y100040D01*
X287256D01*
X288543Y100573D01*
X289527Y101557D01*
X290060Y102844D01*
Y104236D01*
X289527Y105523D01*
X288543Y106507D01*
X287256Y107040D01*
D02*
G37*
G36*
X238996D02*
X237604D01*
X236317Y106507D01*
X235333Y105523D01*
X234800Y104236D01*
Y102844D01*
X235333Y101557D01*
X236317Y100573D01*
X237604Y100040D01*
X238996D01*
X240283Y100573D01*
X241267Y101557D01*
X241800Y102844D01*
Y104236D01*
X241267Y105523D01*
X240283Y106507D01*
X238996Y107040D01*
D02*
G37*
G36*
X188196D02*
X186804D01*
X185517Y106507D01*
X184533Y105523D01*
X184000Y104236D01*
Y102844D01*
X184533Y101557D01*
X185517Y100573D01*
X186804Y100040D01*
X188196D01*
X189483Y100573D01*
X190467Y101557D01*
X191000Y102844D01*
Y104236D01*
X190467Y105523D01*
X189483Y106507D01*
X188196Y107040D01*
D02*
G37*
G36*
X164946D02*
X163554D01*
X162267Y106507D01*
X161283Y105523D01*
X160750Y104236D01*
Y102844D01*
X161283Y101557D01*
X162267Y100573D01*
X163554Y100040D01*
X164946D01*
X166233Y100573D01*
X167217Y101557D01*
X167750Y102844D01*
Y104236D01*
X167217Y105523D01*
X166233Y106507D01*
X164946Y107040D01*
D02*
G37*
G36*
X139936D02*
X138544D01*
X137257Y106507D01*
X136273Y105523D01*
X135740Y104236D01*
Y102844D01*
X136273Y101557D01*
X137257Y100573D01*
X138544Y100040D01*
X139936D01*
X141223Y100573D01*
X142207Y101557D01*
X142740Y102844D01*
Y104236D01*
X142207Y105523D01*
X141223Y106507D01*
X139936Y107040D01*
D02*
G37*
G36*
X210946Y107000D02*
X209554D01*
X208267Y106467D01*
X207283Y105483D01*
X206750Y104196D01*
Y102804D01*
X207283Y101517D01*
X208267Y100533D01*
X209554Y100000D01*
X210946D01*
X212233Y100533D01*
X213217Y101517D01*
X213750Y102804D01*
Y104196D01*
X213217Y105483D01*
X212233Y106467D01*
X210946Y107000D01*
D02*
G37*
G36*
X1275316Y117050D02*
X1272683D01*
X1270140Y116369D01*
X1267860Y115052D01*
X1265998Y113190D01*
X1264681Y110910D01*
X1264000Y108366D01*
Y105733D01*
X1264681Y103190D01*
X1265998Y100910D01*
X1267860Y99048D01*
X1270140Y97732D01*
X1272683Y97050D01*
X1275316D01*
X1277860Y97732D01*
X1280140Y99048D01*
X1282002Y100910D01*
X1283318Y103190D01*
X1284000Y105733D01*
Y108366D01*
X1283318Y110910D01*
X1282002Y113190D01*
X1280140Y115052D01*
X1277860Y116369D01*
X1275316Y117050D01*
D02*
G37*
G36*
X1084946Y103350D02*
X1083554D01*
X1082267Y102817D01*
X1081283Y101833D01*
X1080750Y100546D01*
Y99154D01*
X1081283Y97867D01*
X1082267Y96883D01*
X1083554Y96350D01*
X1084946D01*
X1086233Y96883D01*
X1087217Y97867D01*
X1087750Y99154D01*
Y100546D01*
X1087217Y101833D01*
X1086233Y102817D01*
X1084946Y103350D01*
D02*
G37*
G36*
X864696Y96500D02*
X863304D01*
X862017Y95967D01*
X861033Y94983D01*
X860500Y93696D01*
Y92304D01*
X861033Y91017D01*
X862017Y90033D01*
X863304Y89500D01*
X864696D01*
X865983Y90033D01*
X866967Y91017D01*
X867500Y92304D01*
Y93696D01*
X866967Y94983D01*
X865983Y95967D01*
X864696Y96500D01*
D02*
G37*
G36*
X1376023Y123400D02*
X1372477D01*
X1369000Y122708D01*
X1365724Y121351D01*
X1362776Y119382D01*
X1360269Y116874D01*
X1358299Y113926D01*
X1356942Y110650D01*
X1356250Y107173D01*
Y103627D01*
X1356942Y100150D01*
X1358299Y96874D01*
X1360269Y93926D01*
X1362776Y91419D01*
X1365724Y89449D01*
X1369000Y88092D01*
X1372477Y87400D01*
X1376023D01*
X1379500Y88092D01*
X1382776Y89449D01*
X1385724Y91419D01*
X1388232Y93926D01*
X1390201Y96874D01*
X1391558Y100150D01*
X1392250Y103627D01*
Y107173D01*
X1391558Y110650D01*
X1390201Y113926D01*
X1388232Y116874D01*
X1385724Y119382D01*
X1382776Y121351D01*
X1379500Y122708D01*
X1376023Y123400D01*
D02*
G37*
G36*
X27173D02*
X23627D01*
X20150Y122708D01*
X16874Y121351D01*
X13926Y119382D01*
X11418Y116874D01*
X9449Y113926D01*
X8092Y110650D01*
X7400Y107173D01*
Y103627D01*
X8092Y100150D01*
X9449Y96874D01*
X11418Y93926D01*
X13926Y91419D01*
X16874Y89449D01*
X20150Y88092D01*
X23627Y87400D01*
X27173D01*
X30650Y88092D01*
X33926Y89449D01*
X36874Y91419D01*
X39381Y93926D01*
X41351Y96874D01*
X42708Y100150D01*
X43400Y103627D01*
Y107173D01*
X42708Y110650D01*
X41351Y113926D01*
X39381Y116874D01*
X36874Y119382D01*
X33926Y121351D01*
X30650Y122708D01*
X27173Y123400D01*
D02*
G37*
G36*
X452631Y120588D02*
X440000D01*
X438244Y120239D01*
X436756Y119244D01*
X435761Y117756D01*
X435412Y116000D01*
X435761Y114244D01*
X436756Y112756D01*
X438244Y111761D01*
X440000Y111412D01*
X450730D01*
X457770Y104372D01*
X459259Y103377D01*
X459724Y102507D01*
X459500Y101966D01*
Y100574D01*
X460033Y99287D01*
X461017Y98303D01*
X462304Y97770D01*
X463696D01*
X464983Y98303D01*
X465967Y99287D01*
X466500Y100574D01*
Y101966D01*
X466498Y101972D01*
X467203Y103028D01*
X915300D01*
X942322Y76006D01*
X943810Y75011D01*
X945566Y74662D01*
X1017000D01*
X1018756Y75011D01*
X1020244Y76006D01*
X1021239Y77494D01*
X1021588Y79250D01*
X1021239Y81006D01*
X1020244Y82494D01*
X1018756Y83489D01*
X1017000Y83838D01*
X947466D01*
X920444Y110860D01*
X918956Y111855D01*
X917200Y112204D01*
X464834D01*
X464308Y113474D01*
X464467Y113633D01*
X465000Y114920D01*
Y116312D01*
X464467Y117599D01*
X463483Y118583D01*
X462196Y119116D01*
X460804D01*
X459517Y118583D01*
X458925Y117991D01*
X457338Y117781D01*
X455875Y119244D01*
X454386Y120239D01*
X452631Y120588D01*
D02*
G37*
G36*
X1275316Y91650D02*
X1272683D01*
X1270140Y90969D01*
X1267860Y89652D01*
X1265998Y87790D01*
X1264681Y85510D01*
X1264000Y82966D01*
Y80333D01*
X1264681Y77790D01*
X1265998Y75510D01*
X1267860Y73648D01*
X1270140Y72332D01*
X1272683Y71650D01*
X1275316D01*
X1277860Y72332D01*
X1280140Y73648D01*
X1282002Y75510D01*
X1283318Y77790D01*
X1284000Y80333D01*
Y82966D01*
X1283318Y85510D01*
X1282002Y87790D01*
X1280140Y89652D01*
X1277860Y90969D01*
X1275316Y91650D01*
D02*
G37*
G36*
X887696Y70500D02*
X886304D01*
X885017Y69967D01*
X884033Y68983D01*
X883500Y67696D01*
Y66304D01*
X884033Y65017D01*
X885017Y64033D01*
X886304Y63500D01*
X887696D01*
X888983Y64033D01*
X889967Y65017D01*
X890500Y66304D01*
Y67696D01*
X889967Y68983D01*
X888983Y69967D01*
X887696Y70500D01*
D02*
G37*
G36*
X1049918Y84329D02*
X1049531Y84255D01*
X1049150Y84184D01*
X1049144Y84180D01*
X1049137Y84179D01*
X1048811Y83965D01*
X1048482Y83751D01*
X1048478Y83746D01*
X1048472Y83742D01*
X1047568Y82850D01*
X1047564Y82844D01*
X1047558Y82840D01*
X1047340Y82513D01*
X1047121Y82191D01*
X1047120Y82184D01*
X1047116Y82178D01*
X1047040Y81797D01*
X1046961Y81412D01*
X1046962Y81405D01*
X1046961Y81398D01*
Y70216D01*
X1047116Y69436D01*
X1047029Y69148D01*
X1047017Y69143D01*
X1046033Y68159D01*
X1045500Y66872D01*
Y65480D01*
X1046033Y64194D01*
X1047017Y63209D01*
X1047029Y63204D01*
X1047116Y62916D01*
X1046961Y62136D01*
Y50050D01*
X1047116Y49270D01*
X1047558Y48608D01*
X1048220Y48166D01*
X1049000Y48011D01*
X1084249D01*
X1084500Y47961D01*
X1084500Y47961D01*
X1084501Y47961D01*
X1229305Y48012D01*
X1229686Y48088D01*
X1230084Y48167D01*
X1230085Y48168D01*
X1230085Y48168D01*
X1230409Y48384D01*
X1230746Y48609D01*
X1230746Y48610D01*
X1230746Y48610D01*
X1230972Y48947D01*
X1231188Y49271D01*
X1231188Y49271D01*
X1231188Y49272D01*
X1231267Y49671D01*
X1231343Y50051D01*
Y79825D01*
X1231268Y80202D01*
X1231198Y80579D01*
X1231191Y80591D01*
X1231188Y80605D01*
X1230975Y80924D01*
X1230765Y81246D01*
X1230754Y81255D01*
X1230746Y81266D01*
X1230427Y81480D01*
X1230110Y81698D01*
X1230096Y81700D01*
X1230084Y81708D01*
X1229707Y81783D01*
X1229332Y81863D01*
X1049932Y84329D01*
X1049925Y84328D01*
X1049918Y84329D01*
D02*
G37*
G36*
X255448Y66400D02*
X252552D01*
X249754Y65650D01*
X247246Y64202D01*
X245198Y62154D01*
X243750Y59646D01*
X243000Y56848D01*
Y53952D01*
X243750Y51154D01*
X245198Y48646D01*
X247246Y46598D01*
X249754Y45150D01*
X252552Y44400D01*
X255448D01*
X258246Y45150D01*
X260754Y46598D01*
X262802Y48646D01*
X264250Y51154D01*
X265000Y53952D01*
Y56848D01*
X264250Y59646D01*
X262802Y62154D01*
X260754Y64202D01*
X258246Y65650D01*
X255448Y66400D01*
D02*
G37*
G36*
X230048D02*
X227152D01*
X224354Y65650D01*
X221846Y64202D01*
X219798Y62154D01*
X218350Y59646D01*
X217600Y56848D01*
Y53952D01*
X218350Y51154D01*
X219798Y48646D01*
X221846Y46598D01*
X224354Y45150D01*
X227152Y44400D01*
X230048D01*
X232846Y45150D01*
X235354Y46598D01*
X237402Y48646D01*
X238850Y51154D01*
X239600Y53952D01*
Y56848D01*
X238850Y59646D01*
X237402Y62154D01*
X235354Y64202D01*
X232846Y65650D01*
X230048Y66400D01*
D02*
G37*
G36*
X204648D02*
X201752D01*
X198954Y65650D01*
X196446Y64202D01*
X194398Y62154D01*
X192950Y59646D01*
X192200Y56848D01*
Y53952D01*
X192950Y51154D01*
X194398Y48646D01*
X196446Y46598D01*
X198954Y45150D01*
X201752Y44400D01*
X204648D01*
X207446Y45150D01*
X209954Y46598D01*
X212002Y48646D01*
X213450Y51154D01*
X214200Y53952D01*
Y56848D01*
X213450Y59646D01*
X212002Y62154D01*
X209954Y64202D01*
X207446Y65650D01*
X204648Y66400D01*
D02*
G37*
G36*
X179248D02*
X176352D01*
X173554Y65650D01*
X171046Y64202D01*
X168998Y62154D01*
X167550Y59646D01*
X166800Y56848D01*
Y53952D01*
X167550Y51154D01*
X168998Y48646D01*
X171046Y46598D01*
X173554Y45150D01*
X176352Y44400D01*
X179248D01*
X182046Y45150D01*
X184554Y46598D01*
X186602Y48646D01*
X188050Y51154D01*
X188800Y53952D01*
Y56848D01*
X188050Y59646D01*
X186602Y62154D01*
X184554Y64202D01*
X182046Y65650D01*
X179248Y66400D01*
D02*
G37*
G36*
X153848D02*
X150952D01*
X148154Y65650D01*
X145646Y64202D01*
X143598Y62154D01*
X142150Y59646D01*
X141400Y56848D01*
Y53952D01*
X142150Y51154D01*
X143598Y48646D01*
X145646Y46598D01*
X148154Y45150D01*
X150952Y44400D01*
X153848D01*
X156646Y45150D01*
X159154Y46598D01*
X161202Y48646D01*
X162650Y51154D01*
X163400Y53952D01*
Y56848D01*
X162650Y59646D01*
X161202Y62154D01*
X159154Y64202D01*
X156646Y65650D01*
X153848Y66400D01*
D02*
G37*
G36*
X128448D02*
X125552D01*
X122754Y65650D01*
X120246Y64202D01*
X118198Y62154D01*
X116750Y59646D01*
X116000Y56848D01*
Y53952D01*
X116750Y51154D01*
X118198Y48646D01*
X120246Y46598D01*
X122754Y45150D01*
X125552Y44400D01*
X128448D01*
X131246Y45150D01*
X133754Y46598D01*
X135802Y48646D01*
X137250Y51154D01*
X138000Y53952D01*
Y56848D01*
X137250Y59646D01*
X135802Y62154D01*
X133754Y64202D01*
X131246Y65650D01*
X128448Y66400D01*
D02*
G37*
G36*
X103048D02*
X100152D01*
X97354Y65650D01*
X94846Y64202D01*
X92798Y62154D01*
X91350Y59646D01*
X90600Y56848D01*
Y53952D01*
X91350Y51154D01*
X92798Y48646D01*
X94846Y46598D01*
X97354Y45150D01*
X100152Y44400D01*
X103048D01*
X105846Y45150D01*
X108354Y46598D01*
X110402Y48646D01*
X111850Y51154D01*
X112600Y53952D01*
Y56848D01*
X111850Y59646D01*
X110402Y62154D01*
X108354Y64202D01*
X105846Y65650D01*
X103048Y66400D01*
D02*
G37*
G36*
X283900Y66456D02*
X274900D01*
X273203Y66233D01*
X271622Y65578D01*
X270264Y64536D01*
X269222Y63178D01*
X268567Y61597D01*
X268344Y59900D01*
Y50900D01*
X268567Y49203D01*
X269222Y47622D01*
X270264Y46264D01*
X271622Y45222D01*
X273203Y44567D01*
X274900Y44344D01*
X283900D01*
X285597Y44567D01*
X287178Y45222D01*
X288536Y46264D01*
X289578Y47622D01*
X290233Y49203D01*
X290456Y50900D01*
Y59900D01*
X290233Y61597D01*
X289578Y63178D01*
X288536Y64536D01*
X287178Y65578D01*
X285597Y66233D01*
X283900Y66456D01*
D02*
G37*
G36*
X606000Y88039D02*
X351659D01*
X350879Y87884D01*
X350217Y87442D01*
X349775Y86780D01*
X349775Y86780D01*
X349289Y85607D01*
X349289Y85607D01*
X349134Y84827D01*
X349289Y84046D01*
X349731Y83385D01*
X349731Y83385D01*
X358422Y74695D01*
X358687Y74517D01*
X358938Y74320D01*
X359016Y74297D01*
X359083Y74253D01*
X359225Y74225D01*
X359253Y74083D01*
X359297Y74016D01*
X359319Y73938D01*
X359517Y73687D01*
X359695Y73422D01*
X404558Y28558D01*
X405220Y28116D01*
X406000Y27961D01*
X920512D01*
X921306Y26691D01*
X921060Y26096D01*
Y24704D01*
X921593Y23417D01*
X922577Y22433D01*
X923864Y21900D01*
X925256D01*
X926543Y22433D01*
X927527Y23417D01*
X928060Y24704D01*
Y26096D01*
X927814Y26691D01*
X928608Y27961D01*
X1025500D01*
X1025677Y27996D01*
X1025857Y27992D01*
X1026063Y28073D01*
X1026280Y28116D01*
X1026430Y28216D01*
X1026598Y28282D01*
X1026758Y28435D01*
X1026942Y28558D01*
X1027042Y28708D01*
X1027172Y28833D01*
X1039297Y46208D01*
X1039386Y46411D01*
X1039509Y46595D01*
X1039544Y46771D01*
X1039616Y46937D01*
X1039621Y47158D01*
X1039664Y47375D01*
Y57750D01*
X1039509Y58530D01*
X1039067Y59192D01*
X1039067Y59192D01*
X1037317Y60942D01*
X1036655Y61384D01*
X1035875Y61539D01*
X928316D01*
X928120Y61500D01*
X927919D01*
X927733Y61423D01*
X927536Y61384D01*
X927369Y61272D01*
X927184Y61196D01*
X926543Y61387D01*
X925256Y61920D01*
X923864D01*
X922577Y61387D01*
X921936Y61196D01*
X921751Y61272D01*
X921584Y61384D01*
X921387Y61423D01*
X921201Y61500D01*
X921001D01*
X920804Y61539D01*
X633345D01*
X607442Y87442D01*
X606780Y87884D01*
X606000Y88039D01*
D02*
G37*
%LPD*%
G36*
X360000Y226631D02*
X360000Y206746D01*
X359601Y206440D01*
X358730Y206072D01*
X357696Y206500D01*
X356304D01*
X355017Y205967D01*
X354033Y204983D01*
X353500Y203696D01*
Y202304D01*
X354033Y201017D01*
X355017Y200033D01*
X356304Y199500D01*
X357696D01*
X358730Y199928D01*
X359601Y199560D01*
X360000Y199254D01*
Y192000D01*
X414000Y138000D01*
Y100000D01*
X413000Y99000D01*
X308000D01*
X289000Y118000D01*
X252000D01*
X241173Y128827D01*
X241621Y130176D01*
X242483Y130533D01*
X243467Y131517D01*
X244000Y132804D01*
Y134196D01*
X243467Y135483D01*
X242483Y136467D01*
X241196Y137000D01*
X239804D01*
X239535Y136889D01*
X238412Y137480D01*
X233259Y161740D01*
X247427Y175908D01*
X336758Y235545D01*
X360000Y226631D01*
D02*
G37*
%LPC*%
G36*
X332196Y213500D02*
X330804D01*
X329517Y212967D01*
X328533Y211983D01*
X328000Y210696D01*
Y209304D01*
X328533Y208017D01*
X329517Y207033D01*
X330804Y206500D01*
X332196D01*
X333483Y207033D01*
X334467Y208017D01*
X335000Y209304D01*
Y210696D01*
X334467Y211983D01*
X333483Y212967D01*
X332196Y213500D01*
D02*
G37*
G36*
X295270Y198847D02*
Y196270D01*
X297847D01*
X297425Y197288D01*
X296289Y198425D01*
X295270Y198847D01*
D02*
G37*
G36*
X292730D02*
X291712Y198425D01*
X290575Y197288D01*
X290153Y196270D01*
X292730D01*
Y198847D01*
D02*
G37*
G36*
X297847Y193730D02*
X295270D01*
Y191153D01*
X296289Y191575D01*
X297425Y192712D01*
X297847Y193730D01*
D02*
G37*
G36*
X292730D02*
X290153D01*
X290575Y192712D01*
X291712Y191575D01*
X292730Y191153D01*
Y193730D01*
D02*
G37*
G36*
X284520Y191347D02*
Y188770D01*
X287097D01*
X286675Y189788D01*
X285539Y190925D01*
X284520Y191347D01*
D02*
G37*
G36*
X281980D02*
X280961Y190925D01*
X279825Y189788D01*
X279403Y188770D01*
X281980D01*
Y191347D01*
D02*
G37*
G36*
X287097Y186230D02*
X284520D01*
Y183653D01*
X285539Y184075D01*
X286675Y185212D01*
X287097Y186230D01*
D02*
G37*
G36*
X281980D02*
X279403D01*
X279825Y185212D01*
X280961Y184075D01*
X281980Y183653D01*
Y186230D01*
D02*
G37*
G36*
X325034Y188890D02*
X323642D01*
X322355Y188357D01*
X321371Y187373D01*
X320838Y186086D01*
Y184694D01*
X321371Y183408D01*
X322355Y182423D01*
X323642Y181890D01*
X325034D01*
X326320Y182423D01*
X327305Y183408D01*
X327838Y184694D01*
Y186086D01*
X327305Y187373D01*
X326320Y188357D01*
X325034Y188890D01*
D02*
G37*
G36*
X317696Y183500D02*
X316304D01*
X315017Y182967D01*
X314033Y181983D01*
X313500Y180696D01*
Y179304D01*
X314033Y178017D01*
X315017Y177033D01*
X316304Y176500D01*
X317696D01*
X318983Y177033D01*
X319967Y178017D01*
X320500Y179304D01*
Y180696D01*
X319967Y181983D01*
X318983Y182967D01*
X317696Y183500D01*
D02*
G37*
G36*
X261770Y168097D02*
Y165520D01*
X264347D01*
X263925Y166539D01*
X262789Y167675D01*
X261770Y168097D01*
D02*
G37*
G36*
X259230D02*
X258211Y167675D01*
X257075Y166539D01*
X256653Y165520D01*
X259230D01*
Y168097D01*
D02*
G37*
G36*
X288446Y168250D02*
X287054D01*
X285767Y167717D01*
X284783Y166733D01*
X284250Y165446D01*
Y164054D01*
X284783Y162767D01*
X285767Y161783D01*
X287054Y161250D01*
X288446D01*
X289733Y161783D01*
X290717Y162767D01*
X291250Y164054D01*
Y165446D01*
X290717Y166733D01*
X289733Y167717D01*
X288446Y168250D01*
D02*
G37*
G36*
X264347Y162980D02*
X261770D01*
Y160403D01*
X262789Y160825D01*
X263925Y161961D01*
X264347Y162980D01*
D02*
G37*
G36*
X259230D02*
X256653D01*
X257075Y161961D01*
X258211Y160825D01*
X259230Y160403D01*
Y162980D01*
D02*
G37*
G36*
X374453Y146357D02*
X373060D01*
X371774Y145824D01*
X370789Y144840D01*
X370257Y143553D01*
Y142161D01*
X370789Y140875D01*
X371774Y139890D01*
X373060Y139357D01*
X374453D01*
X375739Y139890D01*
X375947Y140098D01*
X376784Y140822D01*
X377606Y140098D01*
X377821Y139883D01*
X379107Y139350D01*
X380499D01*
X381786Y139883D01*
X382770Y140867D01*
X383303Y142154D01*
Y143546D01*
X382770Y144833D01*
X381786Y145817D01*
X380499Y146350D01*
X379107D01*
X377821Y145817D01*
X377613Y145610D01*
X376776Y144885D01*
X375954Y145610D01*
X375739Y145824D01*
X374453Y146357D01*
D02*
G37*
G36*
X409696Y139500D02*
X408304D01*
X407017Y138967D01*
X406033Y137983D01*
X405500Y136696D01*
Y135304D01*
X406033Y134017D01*
X407017Y133033D01*
X408304Y132500D01*
X409696D01*
X410983Y133033D01*
X411967Y134017D01*
X412500Y135304D01*
Y136696D01*
X411967Y137983D01*
X410983Y138967D01*
X409696Y139500D01*
D02*
G37*
G36*
X293696Y138000D02*
X292304D01*
X291017Y137467D01*
X290033Y136483D01*
X289500Y135196D01*
Y133804D01*
X290033Y132517D01*
X291017Y131533D01*
X292304Y131000D01*
X293696D01*
X294983Y131533D01*
X295967Y132517D01*
X296500Y133804D01*
Y135196D01*
X295967Y136483D01*
X294983Y137467D01*
X293696Y138000D01*
D02*
G37*
G36*
X374674Y133696D02*
X373281D01*
X371995Y133163D01*
X371010Y132179D01*
X370477Y130892D01*
Y129500D01*
X371010Y128213D01*
X371995Y127229D01*
X373281Y126696D01*
X374674D01*
X375960Y127229D01*
X376945Y128213D01*
X377477Y129500D01*
Y130892D01*
X376945Y132179D01*
X375960Y133163D01*
X374674Y133696D01*
D02*
G37*
G36*
X401270Y110847D02*
Y108270D01*
X403847D01*
X403425Y109289D01*
X402289Y110425D01*
X401270Y110847D01*
D02*
G37*
G36*
X398730D02*
X397711Y110425D01*
X396575Y109289D01*
X396153Y108270D01*
X398730D01*
Y110847D01*
D02*
G37*
G36*
X403847Y105730D02*
X401270D01*
Y103153D01*
X402289Y103575D01*
X403425Y104712D01*
X403847Y105730D01*
D02*
G37*
G36*
X398730D02*
X396153D01*
X396575Y104712D01*
X397711Y103575D01*
X398730Y103153D01*
Y105730D01*
D02*
G37*
%LPD*%
G36*
X1229304Y79825D02*
Y50051D01*
X1084500Y50000D01*
X1084450Y50050D01*
X1049000D01*
Y62136D01*
X1049804D01*
X1051288Y62751D01*
X1052425Y63888D01*
X1052847Y64906D01*
X1049000D01*
Y67446D01*
X1052847D01*
X1052425Y68465D01*
X1051288Y69601D01*
X1049804Y70216D01*
X1049000D01*
Y81398D01*
X1049904Y82290D01*
X1229304Y79825D01*
D02*
G37*
%LPC*%
G36*
X1222170Y59697D02*
Y57120D01*
X1224747D01*
X1224325Y58138D01*
X1223188Y59275D01*
X1222170Y59697D01*
D02*
G37*
G36*
X1219630D02*
X1218612Y59275D01*
X1217475Y58138D01*
X1217053Y57120D01*
X1219630D01*
Y59697D01*
D02*
G37*
G36*
X1224747Y54580D02*
X1222170D01*
Y52003D01*
X1223188Y52425D01*
X1224325Y53562D01*
X1224747Y54580D01*
D02*
G37*
G36*
X1219630D02*
X1217053D01*
X1217475Y53562D01*
X1218612Y52425D01*
X1219630Y52003D01*
Y54580D01*
D02*
G37*
%LPD*%
G36*
X632500Y59500D02*
X920804D01*
X921060Y59116D01*
Y57724D01*
X921593Y56437D01*
X922577Y55453D01*
X923864Y54920D01*
X925256D01*
X926543Y55453D01*
X927527Y56437D01*
X928060Y57724D01*
Y59116D01*
X928316Y59500D01*
X1035875D01*
X1037625Y57750D01*
Y47375D01*
X1025500Y30000D01*
X406000D01*
X361137Y74864D01*
X361938Y75802D01*
X362956Y75380D01*
Y77956D01*
X360380D01*
X360802Y76938D01*
X359864Y76137D01*
X351173Y84827D01*
X351659Y86000D01*
X606000D01*
X632500Y59500D01*
D02*
G37*
%LPC*%
G36*
X365496Y83073D02*
Y80496D01*
X368073D01*
X367651Y81515D01*
X366515Y82651D01*
X365496Y83073D01*
D02*
G37*
G36*
X362956D02*
X361938Y82651D01*
X360802Y81515D01*
X360380Y80496D01*
X362956D01*
Y83073D01*
D02*
G37*
G36*
X590696Y84500D02*
X589304D01*
X588017Y83967D01*
X587033Y82983D01*
X586500Y81696D01*
Y80304D01*
X587033Y79017D01*
X588017Y78033D01*
X589304Y77500D01*
X590696D01*
X591983Y78033D01*
X592967Y79017D01*
X593500Y80304D01*
Y81696D01*
X592967Y82983D01*
X591983Y83967D01*
X590696Y84500D01*
D02*
G37*
G36*
X396270Y79847D02*
Y77270D01*
X398847D01*
X398425Y78288D01*
X397289Y79425D01*
X396270Y79847D01*
D02*
G37*
G36*
X393730D02*
X392711Y79425D01*
X391575Y78288D01*
X391153Y77270D01*
X393730D01*
Y79847D01*
D02*
G37*
G36*
X431270Y78347D02*
Y75770D01*
X433847D01*
X433425Y76788D01*
X432289Y77925D01*
X431270Y78347D01*
D02*
G37*
G36*
X428730D02*
X427711Y77925D01*
X426575Y76788D01*
X426153Y75770D01*
X428730D01*
Y78347D01*
D02*
G37*
G36*
X368073Y77956D02*
X365496D01*
Y75380D01*
X366515Y75802D01*
X367651Y76938D01*
X368073Y77956D01*
D02*
G37*
G36*
X398847Y74730D02*
X396270D01*
Y72153D01*
X397289Y72575D01*
X398425Y73712D01*
X398847Y74730D01*
D02*
G37*
G36*
X393730D02*
X391153D01*
X391575Y73712D01*
X392711Y72575D01*
X393730Y72153D01*
Y74730D01*
D02*
G37*
G36*
X433847Y73230D02*
X431270D01*
Y70653D01*
X432289Y71075D01*
X433425Y72211D01*
X433847Y73230D01*
D02*
G37*
G36*
X428730D02*
X426153D01*
X426575Y72211D01*
X427711Y71075D01*
X428730Y70653D01*
Y73230D01*
D02*
G37*
G36*
X480696Y73500D02*
X479304D01*
X478017Y72967D01*
X477033Y71983D01*
X476500Y70696D01*
Y69304D01*
X477033Y68017D01*
X478017Y67033D01*
X479304Y66500D01*
X480696D01*
X481983Y67033D01*
X482967Y68017D01*
X483500Y69304D01*
Y70696D01*
X482967Y71983D01*
X481983Y72967D01*
X480696Y73500D01*
D02*
G37*
G36*
X1023720Y55997D02*
Y53420D01*
X1026297D01*
X1025875Y54439D01*
X1024738Y55575D01*
X1023720Y55997D01*
D02*
G37*
G36*
X1021180D02*
X1020162Y55575D01*
X1019025Y54439D01*
X1018603Y53420D01*
X1021180D01*
Y55997D01*
D02*
G37*
G36*
X1026297Y50880D02*
X1023720D01*
Y48303D01*
X1024738Y48725D01*
X1025875Y49861D01*
X1026297Y50880D01*
D02*
G37*
G36*
X1021180D02*
X1018603D01*
X1019025Y49861D01*
X1020162Y48725D01*
X1021180Y48303D01*
Y50880D01*
D02*
G37*
G36*
X461270Y49847D02*
Y47270D01*
X463847D01*
X463425Y48288D01*
X462289Y49425D01*
X461270Y49847D01*
D02*
G37*
G36*
X458730D02*
X457711Y49425D01*
X456575Y48288D01*
X456153Y47270D01*
X458730D01*
Y49847D01*
D02*
G37*
G36*
X767776Y51760D02*
X766384D01*
X765097Y51227D01*
X764113Y50243D01*
X763580Y48956D01*
Y47564D01*
X764113Y46277D01*
X765097Y45293D01*
X766384Y44760D01*
X767776D01*
X769063Y45293D01*
X770047Y46277D01*
X770580Y47564D01*
Y48956D01*
X770047Y50243D01*
X769063Y51227D01*
X767776Y51760D01*
D02*
G37*
G36*
X463847Y44730D02*
X461270D01*
Y42153D01*
X462289Y42575D01*
X463425Y43712D01*
X463847Y44730D01*
D02*
G37*
G36*
X458730D02*
X456153D01*
X456575Y43712D01*
X457711Y42575D01*
X458730Y42153D01*
Y44730D01*
D02*
G37*
G36*
X478696Y47500D02*
X477304D01*
X476017Y46967D01*
X475033Y45983D01*
X474500Y44696D01*
Y43304D01*
X475033Y42017D01*
X476017Y41033D01*
X477304Y40500D01*
X478696D01*
X479983Y41033D01*
X480967Y42017D01*
X481500Y43304D01*
Y44696D01*
X480967Y45983D01*
X479983Y46967D01*
X478696Y47500D01*
D02*
G37*
%LPD*%
D17*
X718820Y353060D02*
D03*
X744220D02*
D03*
D46*
X1374250Y105400D02*
D03*
X316000Y394600D02*
D03*
X1369750D02*
D03*
D47*
X170000Y470000D02*
D03*
X200000D02*
D03*
X50000D02*
D03*
X80000D02*
D03*
D48*
X1274000Y107050D02*
D03*
Y81650D02*
D03*
Y132450D02*
D03*
Y157850D02*
D03*
Y208650D02*
D03*
Y234050D02*
D03*
Y284850D02*
D03*
Y335650D02*
D03*
Y361050D02*
D03*
Y310250D02*
D03*
Y259450D02*
D03*
Y183250D02*
D03*
D49*
Y386450D02*
D03*
D50*
X152400Y55400D02*
D03*
X228600D02*
D03*
X203200D02*
D03*
X177800D02*
D03*
X127000D02*
D03*
X101600D02*
D03*
X254000D02*
D03*
D51*
X279400D02*
D03*
D52*
X1007000Y104270D02*
D03*
X461500Y115616D02*
D03*
X463000Y101270D02*
D03*
X1017000Y79250D02*
D03*
X440000Y116000D02*
D03*
X1022450Y52150D02*
D03*
X1049000Y66176D02*
D03*
X1220900Y55850D02*
D03*
X726250Y278750D02*
D03*
X1007000Y254000D02*
D03*
X665480Y431800D02*
D03*
X1210035Y411450D02*
D03*
X471000Y406000D02*
D03*
X1007000Y381000D02*
D03*
X1041750Y391000D02*
D03*
X1042250Y367250D02*
D03*
X1039750Y341600D02*
D03*
X1043750Y317250D02*
D03*
X1039750Y290800D02*
D03*
X1080250Y265000D02*
D03*
X1044000Y248500D02*
D03*
X1041500Y239000D02*
D03*
X932180Y233680D02*
D03*
X1041516Y204516D02*
D03*
X1048750Y189500D02*
D03*
X1039569Y146690D02*
D03*
X1043750Y122000D02*
D03*
X1007000Y153000D02*
D03*
X1077450Y306800D02*
D03*
X1084250Y99850D02*
D03*
X1078250Y129000D02*
D03*
X1080691Y145750D02*
D03*
X1078250Y179800D02*
D03*
X1076266Y195016D02*
D03*
X1083618Y226218D02*
D03*
X1078250Y281400D02*
D03*
Y332200D02*
D03*
Y357600D02*
D03*
X1081249Y383000D02*
D03*
X1007000Y280000D02*
D03*
X409000Y136000D02*
D03*
X283250Y187500D02*
D03*
X181000Y238000D02*
D03*
X373757Y142857D02*
D03*
X331500Y210000D02*
D03*
X294000Y195000D02*
D03*
X254500Y207250D02*
D03*
X373977Y130196D02*
D03*
X144000Y246000D02*
D03*
X379803Y142850D02*
D03*
X153000Y247000D02*
D03*
X324338Y185390D02*
D03*
X357000Y203000D02*
D03*
X317000Y180000D02*
D03*
X98000Y260000D02*
D03*
Y251000D02*
D03*
X287750Y164750D02*
D03*
X224000Y202000D02*
D03*
X260500Y164250D02*
D03*
X463640Y126910D02*
D03*
X1007000Y305000D02*
D03*
X462000Y300300D02*
D03*
X463000Y326500D02*
D03*
X458964Y316402D02*
D03*
X459000Y369000D02*
D03*
X572000Y440000D02*
D03*
X932000Y356000D02*
D03*
X590000Y81000D02*
D03*
X891000Y117000D02*
D03*
X864000Y93000D02*
D03*
X887000Y67000D02*
D03*
X847000Y178000D02*
D03*
X469000Y176000D02*
D03*
X465600Y198500D02*
D03*
X462000Y227000D02*
D03*
X900000Y450000D02*
D03*
X830000Y460000D02*
D03*
X767080Y48260D02*
D03*
X398112Y276112D02*
D03*
X216000Y126500D02*
D03*
X138500Y489000D02*
D03*
X229500Y489000D02*
D03*
X18500Y489000D02*
D03*
X109500Y489000D02*
D03*
X701088Y348462D02*
D03*
X639058Y349992D02*
D03*
X65450Y234452D02*
D03*
X293000Y134500D02*
D03*
X258000Y112500D02*
D03*
X673100Y370000D02*
D03*
X795020D02*
D03*
X478000Y44000D02*
D03*
X460000Y46000D02*
D03*
X210250Y103500D02*
D03*
X430000Y74500D02*
D03*
X395000Y76000D02*
D03*
X364226Y79226D02*
D03*
X400000Y107000D02*
D03*
X240500Y133500D02*
D03*
X269000Y213000D02*
D03*
X383540Y298000D02*
D03*
X350000Y265000D02*
D03*
X163000Y214500D02*
D03*
X372000Y252000D02*
D03*
X259000Y229500D02*
D03*
X285898Y208898D02*
D03*
X289560Y304800D02*
D03*
X189000Y179500D02*
D03*
X164250Y103540D02*
D03*
X350520Y276860D02*
D03*
X286560Y103540D02*
D03*
X238300D02*
D03*
X460000Y291000D02*
D03*
X398112Y266112D02*
D03*
X187500Y103540D02*
D03*
X139240D02*
D03*
X113776Y103604D02*
D03*
X462000Y350918D02*
D03*
X398112Y286112D02*
D03*
X924560Y58420D02*
D03*
X929640Y157480D02*
D03*
X822960Y251460D02*
D03*
X924560Y25400D02*
D03*
X896620Y172720D02*
D03*
X655320Y154940D02*
D03*
X762000Y261620D02*
D03*
X929640Y472440D02*
D03*
X1007000Y127000D02*
D03*
Y330000D02*
D03*
X461000Y336918D02*
D03*
X460000Y265087D02*
D03*
X459000Y241000D02*
D03*
X398112Y226112D02*
D03*
X458757Y191496D02*
D03*
X459000Y164523D02*
D03*
Y215000D02*
D03*
X398112Y206112D02*
D03*
X462000Y152000D02*
D03*
X461000Y251000D02*
D03*
X463000Y275000D02*
D03*
X1007000Y356000D02*
D03*
X350000Y295000D02*
D03*
X398112Y256112D02*
D03*
Y246112D02*
D03*
Y236112D02*
D03*
Y216112D02*
D03*
Y196112D02*
D03*
Y186112D02*
D03*
X432500Y136500D02*
D03*
X459000Y140000D02*
D03*
X1007000Y229000D02*
D03*
Y203000D02*
D03*
Y178000D02*
D03*
X139000Y197500D02*
D03*
X480000Y70000D02*
D03*
D53*
X179459Y150500D02*
D03*
X223000Y153500D02*
D03*
X247612Y206013D02*
D03*
X232809Y220500D02*
D03*
D54*
X917200Y107616D02*
X945566Y79250D01*
X1017000D01*
X461015Y107616D02*
X917200D01*
X452631Y116000D02*
X461015Y107616D01*
X440000Y116000D02*
X452631D01*
M02*
