G04*
G04 #@! TF.GenerationSoftware,Altium Limited,Altium Designer,23.11.1 (41)*
G04*
G04 Layer_Color=8421504*
%FSLAX44Y44*%
%MOMM*%
G71*
G04*
G04 #@! TF.SameCoordinates,EAB3D492-AAFB-4F80-8F5C-3261374C14B2*
G04*
G04*
G04 #@! TF.FilePolarity,Positive*
G04*
G01*
G75*
%ADD15C,1.0000*%
G04:AMPARAMS|DCode=16|XSize=0.3mm|YSize=1.37mm|CornerRadius=0.075mm|HoleSize=0mm|Usage=FLASHONLY|Rotation=270.000|XOffset=0mm|YOffset=0mm|HoleType=Round|Shape=RoundedRectangle|*
%AMROUNDEDRECTD16*
21,1,0.3000,1.2200,0,0,270.0*
21,1,0.1500,1.3700,0,0,270.0*
1,1,0.1500,-0.6100,-0.0750*
1,1,0.1500,-0.6100,0.0750*
1,1,0.1500,0.6100,0.0750*
1,1,0.1500,0.6100,-0.0750*
%
%ADD16ROUNDEDRECTD16*%
%ADD17R,1.5000X3.5000*%
%ADD18R,1.3000X0.9000*%
%ADD19R,0.9000X1.3000*%
G04:AMPARAMS|DCode=20|XSize=1.08mm|YSize=1.22mm|CornerRadius=0.27mm|HoleSize=0mm|Usage=FLASHONLY|Rotation=270.000|XOffset=0mm|YOffset=0mm|HoleType=Round|Shape=RoundedRectangle|*
%AMROUNDEDRECTD20*
21,1,1.0800,0.6800,0,0,270.0*
21,1,0.5400,1.2200,0,0,270.0*
1,1,0.5400,-0.3400,-0.2700*
1,1,0.5400,-0.3400,0.2700*
1,1,0.5400,0.3400,0.2700*
1,1,0.5400,0.3400,-0.2700*
%
%ADD20ROUNDEDRECTD20*%
G04:AMPARAMS|DCode=21|XSize=1.2mm|YSize=1.1mm|CornerRadius=0.275mm|HoleSize=0mm|Usage=FLASHONLY|Rotation=270.000|XOffset=0mm|YOffset=0mm|HoleType=Round|Shape=RoundedRectangle|*
%AMROUNDEDRECTD21*
21,1,1.2000,0.5500,0,0,270.0*
21,1,0.6500,1.1000,0,0,270.0*
1,1,0.5500,-0.2750,-0.3250*
1,1,0.5500,-0.2750,0.3250*
1,1,0.5500,0.2750,0.3250*
1,1,0.5500,0.2750,-0.3250*
%
%ADD21ROUNDEDRECTD21*%
%ADD22R,1.1500X1.3500*%
%ADD23R,2.0000X3.8000*%
%ADD24R,2.0000X1.5000*%
%ADD25R,1.0200X2.2000*%
D15*
X203200Y76750D02*
D03*
X229000D02*
D03*
X254000D02*
D03*
X279400Y76200D02*
D03*
X177125Y76525D02*
D03*
X152400Y76750D02*
D03*
X126687D02*
D03*
X101661D02*
D03*
X315680Y237232D02*
D03*
X300000Y150000D02*
D03*
X1270000Y330200D02*
D03*
Y355600D02*
D03*
Y381000D02*
D03*
Y406400D02*
D03*
X225000Y211000D02*
D03*
X297000Y117000D02*
D03*
X252925Y188500D02*
D03*
X337000Y313000D02*
D03*
X272000Y127000D02*
D03*
X242000Y146000D02*
D03*
X1270000Y101600D02*
D03*
Y127000D02*
D03*
Y152400D02*
D03*
Y177800D02*
D03*
Y203200D02*
D03*
Y228600D02*
D03*
Y254000D02*
D03*
Y279400D02*
D03*
Y304800D02*
D03*
D16*
X340000Y205000D02*
D03*
Y210000D02*
D03*
X410000Y175000D02*
D03*
Y180000D02*
D03*
Y185000D02*
D03*
Y190000D02*
D03*
Y195000D02*
D03*
Y200000D02*
D03*
Y205000D02*
D03*
Y210000D02*
D03*
Y215000D02*
D03*
Y220000D02*
D03*
Y225000D02*
D03*
Y230000D02*
D03*
Y235000D02*
D03*
Y240000D02*
D03*
Y245000D02*
D03*
Y250000D02*
D03*
Y255000D02*
D03*
Y260000D02*
D03*
Y265000D02*
D03*
Y270000D02*
D03*
Y275000D02*
D03*
Y280000D02*
D03*
Y285000D02*
D03*
Y290000D02*
D03*
X340000Y175000D02*
D03*
Y180000D02*
D03*
Y185000D02*
D03*
Y190000D02*
D03*
Y195000D02*
D03*
Y200000D02*
D03*
Y215000D02*
D03*
Y220000D02*
D03*
Y225000D02*
D03*
Y230000D02*
D03*
Y235000D02*
D03*
Y240000D02*
D03*
Y245000D02*
D03*
Y250000D02*
D03*
Y255000D02*
D03*
Y260000D02*
D03*
Y265000D02*
D03*
Y270000D02*
D03*
Y275000D02*
D03*
Y280000D02*
D03*
Y285000D02*
D03*
Y290000D02*
D03*
D17*
X880000Y50000D02*
D03*
X820000D02*
D03*
X630000D02*
D03*
X570000D02*
D03*
X690000D02*
D03*
X750000D02*
D03*
X770000Y150000D02*
D03*
X830000D02*
D03*
X630000D02*
D03*
X690000D02*
D03*
X810000Y250000D02*
D03*
X870000D02*
D03*
X670000D02*
D03*
X730000D02*
D03*
X625800Y347980D02*
D03*
X685800D02*
D03*
X770000Y350000D02*
D03*
X830000D02*
D03*
X570000Y450000D02*
D03*
X630000D02*
D03*
X820000D02*
D03*
X880000D02*
D03*
X700000D02*
D03*
X760000D02*
D03*
D18*
X307000Y182500D02*
D03*
Y201500D02*
D03*
X270000Y224750D02*
D03*
Y243750D02*
D03*
X301000Y219500D02*
D03*
Y238500D02*
D03*
D19*
X452000Y115616D02*
D03*
X471000D02*
D03*
X452000Y141016D02*
D03*
X471000D02*
D03*
Y166416D02*
D03*
X452000D02*
D03*
Y191816D02*
D03*
X471000D02*
D03*
X452000Y217216D02*
D03*
X471000D02*
D03*
X452000Y242616D02*
D03*
X471000D02*
D03*
X452000Y268016D02*
D03*
X471000D02*
D03*
X452000Y369616D02*
D03*
X471000D02*
D03*
X452000Y395016D02*
D03*
X471000D02*
D03*
X64840Y249000D02*
D03*
X83840D02*
D03*
X169500Y233000D02*
D03*
X150500D02*
D03*
X410500Y147000D02*
D03*
X429500D02*
D03*
X410500Y126000D02*
D03*
X429500D02*
D03*
X981100Y127000D02*
D03*
X1000100D02*
D03*
X981100Y152400D02*
D03*
X1000100D02*
D03*
X981100Y177800D02*
D03*
X1000100D02*
D03*
X981100Y203200D02*
D03*
X1000100D02*
D03*
X981100Y228600D02*
D03*
X1000100D02*
D03*
X981100Y254000D02*
D03*
X1000100D02*
D03*
X981100Y279400D02*
D03*
X1000100D02*
D03*
X981100Y304800D02*
D03*
X1000100D02*
D03*
X981100Y330200D02*
D03*
X1000100D02*
D03*
X981100Y355600D02*
D03*
X1000100D02*
D03*
X981100Y381000D02*
D03*
X1000100D02*
D03*
X452000Y90216D02*
D03*
X471000D02*
D03*
X981100Y101600D02*
D03*
X1000100D02*
D03*
X316840Y304800D02*
D03*
X297840D02*
D03*
X452500Y67000D02*
D03*
X471500D02*
D03*
X452500Y44000D02*
D03*
X471500D02*
D03*
X452000Y293420D02*
D03*
X471000D02*
D03*
X452000Y318820D02*
D03*
X471000D02*
D03*
X452000Y344216D02*
D03*
X471000D02*
D03*
D20*
X1320800Y101600D02*
D03*
X1304000D02*
D03*
Y381000D02*
D03*
X1320800D02*
D03*
X1304000Y406400D02*
D03*
X1320800D02*
D03*
X1313960Y431800D02*
D03*
X1297160D02*
D03*
X1304000Y304800D02*
D03*
X1320800D02*
D03*
X1304000Y254000D02*
D03*
X1320800D02*
D03*
X1304000Y279400D02*
D03*
X1320800D02*
D03*
X1304000Y330200D02*
D03*
X1320800D02*
D03*
X1304000Y228600D02*
D03*
X1320800D02*
D03*
X1304000Y203200D02*
D03*
X1320800D02*
D03*
Y177800D02*
D03*
X1304000D02*
D03*
Y152400D02*
D03*
X1320800D02*
D03*
X1304000Y127000D02*
D03*
X1320800D02*
D03*
X1304000Y355600D02*
D03*
X1320800D02*
D03*
X1304000Y76200D02*
D03*
X1320800D02*
D03*
D21*
X1153500Y127000D02*
D03*
X1132500D02*
D03*
X1153500Y152400D02*
D03*
X1132500D02*
D03*
X1153500Y177800D02*
D03*
X1132500D02*
D03*
X1153500Y203200D02*
D03*
X1132500D02*
D03*
X1153500Y228600D02*
D03*
X1132500D02*
D03*
X1153500Y254000D02*
D03*
X1132500D02*
D03*
X1153500Y279400D02*
D03*
X1132500D02*
D03*
X1153500Y304800D02*
D03*
X1132500D02*
D03*
X1153500Y330200D02*
D03*
X1132500D02*
D03*
X1153500Y355600D02*
D03*
X1132500D02*
D03*
X1153500Y381000D02*
D03*
X1132500D02*
D03*
X1153500Y101600D02*
D03*
X1132500D02*
D03*
D22*
X1057550Y228600D02*
D03*
X1076050D02*
D03*
X1057550Y254000D02*
D03*
X1076050D02*
D03*
X1057550Y279400D02*
D03*
X1076050D02*
D03*
X1057550Y304800D02*
D03*
X1076050D02*
D03*
X1057550Y330200D02*
D03*
X1076050D02*
D03*
X1057550Y355600D02*
D03*
X1076050D02*
D03*
X1057550Y381000D02*
D03*
X1076050D02*
D03*
X1057550Y406400D02*
D03*
X1076050D02*
D03*
X1209950Y101600D02*
D03*
X1228450D02*
D03*
X1209950Y127000D02*
D03*
X1228450D02*
D03*
X1209950Y152400D02*
D03*
X1228450D02*
D03*
X1209950Y177800D02*
D03*
X1228450D02*
D03*
X1209950Y203200D02*
D03*
X1228450D02*
D03*
X1209950Y228600D02*
D03*
X1228450D02*
D03*
X1209950Y254000D02*
D03*
X1228450D02*
D03*
X1209950Y279400D02*
D03*
X1228450D02*
D03*
X1209950Y304800D02*
D03*
X1228450D02*
D03*
X1209950Y330200D02*
D03*
X1228450D02*
D03*
X1209950Y355600D02*
D03*
X1228450D02*
D03*
X1209950Y381000D02*
D03*
X1228450D02*
D03*
X1057550Y101600D02*
D03*
X1076050D02*
D03*
X1057550Y76200D02*
D03*
X1076050D02*
D03*
X213250Y230000D02*
D03*
X194750D02*
D03*
X361250Y150000D02*
D03*
X342750D02*
D03*
Y130000D02*
D03*
X361250D02*
D03*
X1057550Y127000D02*
D03*
X1076050D02*
D03*
X1057550Y152400D02*
D03*
X1076050D02*
D03*
X1057550Y177800D02*
D03*
X1076050D02*
D03*
X1057550Y203200D02*
D03*
X1076050D02*
D03*
X1076250Y50000D02*
D03*
X1057750D02*
D03*
X263750Y197000D02*
D03*
X282250D02*
D03*
X263750Y175000D02*
D03*
X282250D02*
D03*
X283250Y154000D02*
D03*
X264750D02*
D03*
D23*
X350000Y80000D02*
D03*
D24*
X413000Y103000D02*
D03*
Y57000D02*
D03*
Y80000D02*
D03*
D25*
X70000Y423000D02*
D03*
X110000D02*
D03*
X170000D02*
D03*
X90000Y277000D02*
D03*
X150000D02*
D03*
X90000Y423000D02*
D03*
X130000D02*
D03*
X150000D02*
D03*
X110000Y277000D02*
D03*
X70000D02*
D03*
X170000D02*
D03*
X130000D02*
D03*
M02*
