G04*
G04 #@! TF.GenerationSoftware,Altium Limited,Altium Designer,23.11.1 (41)*
G04*
G04 Layer_Color=16711935*
%FSLAX44Y44*%
%MOMM*%
G71*
G04*
G04 #@! TF.SameCoordinates,EAB3D492-AAFB-4F80-8F5C-3261374C14B2*
G04*
G04*
G04 #@! TF.FilePolarity,Negative*
G04*
G01*
G75*
%ADD26C,1.2032*%
%ADD29R,1.5032X1.1032*%
%ADD30R,1.1032X1.5032*%
%ADD33R,1.3532X1.5532*%
%ADD37C,2.2032*%
%ADD38C,1.8032*%
G04:AMPARAMS|DCode=39|XSize=1.8032mm|YSize=1.8032mm|CornerRadius=0.5016mm|HoleSize=0mm|Usage=FLASHONLY|Rotation=270.000|XOffset=0mm|YOffset=0mm|HoleType=Round|Shape=RoundedRectangle|*
%AMROUNDEDRECTD39*
21,1,1.8032,0.8000,0,0,270.0*
21,1,0.8000,1.8032,0,0,270.0*
1,1,1.0032,-0.4000,-0.4000*
1,1,1.0032,-0.4000,0.4000*
1,1,1.0032,0.4000,0.4000*
1,1,1.0032,0.4000,-0.4000*
%
%ADD39ROUNDEDRECTD39*%
%ADD40C,3.2032*%
%ADD41C,0.2032*%
%ADD42C,2.0032*%
G04:AMPARAMS|DCode=43|XSize=2.0032mm|YSize=2.0032mm|CornerRadius=0.5516mm|HoleSize=0mm|Usage=FLASHONLY|Rotation=90.000|XOffset=0mm|YOffset=0mm|HoleType=Round|Shape=RoundedRectangle|*
%AMROUNDEDRECTD43*
21,1,2.0032,0.9000,0,0,90.0*
21,1,0.9000,2.0032,0,0,90.0*
1,1,1.1032,0.4500,0.4500*
1,1,1.1032,0.4500,-0.4500*
1,1,1.1032,-0.4500,-0.4500*
1,1,1.1032,-0.4500,0.4500*
%
%ADD43ROUNDEDRECTD43*%
%ADD44C,0.5032*%
%ADD57R,1.5532X1.3532*%
G04:AMPARAMS|DCode=58|XSize=0.8532mm|YSize=1.4532mm|CornerRadius=0.2641mm|HoleSize=0mm|Usage=FLASHONLY|Rotation=270.000|XOffset=0mm|YOffset=0mm|HoleType=Round|Shape=RoundedRectangle|*
%AMROUNDEDRECTD58*
21,1,0.8532,0.9250,0,0,270.0*
21,1,0.3250,1.4532,0,0,270.0*
1,1,0.5282,-0.4625,-0.1625*
1,1,0.5282,-0.4625,0.1625*
1,1,0.5282,0.4625,0.1625*
1,1,0.5282,0.4625,-0.1625*
%
%ADD58ROUNDEDRECTD58*%
%ADD59R,1.8032X0.6532*%
%ADD60C,0.6032*%
D26*
X718820Y353060D02*
D03*
X744220D02*
D03*
D29*
X383540Y287680D02*
D03*
Y306680D02*
D03*
X363847Y171500D02*
D03*
Y148500D02*
D03*
Y137500D02*
D03*
Y114500D02*
D03*
D30*
X276500Y166500D02*
D03*
X257500D02*
D03*
X380500Y211000D02*
D03*
X357500D02*
D03*
X388500Y148000D02*
D03*
X407500D02*
D03*
X349750Y190250D02*
D03*
X330750D02*
D03*
X171500Y150500D02*
D03*
X152500D02*
D03*
X197500Y137500D02*
D03*
X216500D02*
D03*
X323500Y211000D02*
D03*
X346500D02*
D03*
X234500Y141500D02*
D03*
X253500D02*
D03*
X292500Y142500D02*
D03*
X273500D02*
D03*
X283500Y127500D02*
D03*
X264500D02*
D03*
X246500Y125500D02*
D03*
X227500D02*
D03*
X137500Y187500D02*
D03*
X156500D02*
D03*
X216500Y153500D02*
D03*
X197500D02*
D03*
D33*
X503050Y395016D02*
D03*
X521550D02*
D03*
X503050Y369616D02*
D03*
X521550D02*
D03*
X503050Y344216D02*
D03*
X521550D02*
D03*
X503050Y318820D02*
D03*
X521550D02*
D03*
X503050Y293420D02*
D03*
X521550D02*
D03*
X503050Y268016D02*
D03*
X521550D02*
D03*
X503050Y242616D02*
D03*
X521550D02*
D03*
X503050Y217216D02*
D03*
X521550D02*
D03*
X503050Y191816D02*
D03*
X521550D02*
D03*
X503050Y166416D02*
D03*
X521550D02*
D03*
X503050Y141016D02*
D03*
X521550D02*
D03*
Y115616D02*
D03*
X503050D02*
D03*
X326750Y227000D02*
D03*
X345250D02*
D03*
X378250D02*
D03*
X359750D02*
D03*
D37*
X170000Y470000D02*
D03*
X200000D02*
D03*
X50000D02*
D03*
X80000D02*
D03*
D38*
X1372000Y120600D02*
D03*
Y95200D02*
D03*
Y146000D02*
D03*
Y171400D02*
D03*
Y222200D02*
D03*
Y247600D02*
D03*
Y298400D02*
D03*
Y349200D02*
D03*
Y374600D02*
D03*
Y323800D02*
D03*
Y273000D02*
D03*
Y196800D02*
D03*
D39*
Y400000D02*
D03*
D40*
X1374140Y474980D02*
D03*
X316000Y476000D02*
D03*
X1371600Y25400D02*
D03*
D41*
X25400D02*
D03*
D42*
X152400Y55400D02*
D03*
X228600D02*
D03*
X203200D02*
D03*
X177800D02*
D03*
X127000D02*
D03*
X101600D02*
D03*
X254000D02*
D03*
D43*
X279400D02*
D03*
D44*
X181000Y238000D02*
D03*
X409000Y136000D02*
D03*
X373757Y142857D02*
D03*
X331500Y210000D02*
D03*
X294000Y195000D02*
D03*
X254500Y207250D02*
D03*
X373977Y130196D02*
D03*
X144000Y246000D02*
D03*
X379803Y142850D02*
D03*
X153000Y247000D02*
D03*
X324338Y185390D02*
D03*
X357000Y203000D02*
D03*
X317000Y180000D02*
D03*
X98000Y260000D02*
D03*
Y251000D02*
D03*
X287750Y164750D02*
D03*
X224000Y202000D02*
D03*
X260500Y164250D02*
D03*
X463640Y126910D02*
D03*
X891446Y270810D02*
D03*
X939000Y296000D02*
D03*
X1007000Y305000D02*
D03*
X1046000Y391000D02*
D03*
X1121000Y101000D02*
D03*
X462000Y300300D02*
D03*
X463000Y326500D02*
D03*
X458964Y316402D02*
D03*
X459000Y369000D02*
D03*
X572000Y440000D02*
D03*
X957000Y319000D02*
D03*
X932000Y356000D02*
D03*
X1049300Y76216D02*
D03*
X590000Y81000D02*
D03*
X891000Y117000D02*
D03*
X864000Y93000D02*
D03*
X887000Y67000D02*
D03*
X1064000Y344000D02*
D03*
X847000Y178000D02*
D03*
X469000Y176000D02*
D03*
X465600Y198500D02*
D03*
X462000Y227000D02*
D03*
X900000Y450000D02*
D03*
X830000Y460000D02*
D03*
X767080Y48260D02*
D03*
X398112Y276112D02*
D03*
X216000Y126500D02*
D03*
X138500Y489000D02*
D03*
X229500Y489000D02*
D03*
X18500Y489000D02*
D03*
X109500Y489000D02*
D03*
X701088Y348462D02*
D03*
X639058Y349992D02*
D03*
X65450Y234452D02*
D03*
X293000Y134500D02*
D03*
X258000Y112500D02*
D03*
X673100Y370000D02*
D03*
X795020D02*
D03*
X438000Y113000D02*
D03*
X478000Y44000D02*
D03*
X460000Y46000D02*
D03*
X471000Y406000D02*
D03*
X210250Y103500D02*
D03*
X1296000Y74000D02*
D03*
X1076270Y63341D02*
D03*
X463000Y101270D02*
D03*
X461500Y115616D02*
D03*
X1007000Y104270D02*
D03*
X1049500Y50000D02*
D03*
X430000Y74500D02*
D03*
X395000Y76000D02*
D03*
X364226Y79226D02*
D03*
X400000Y107000D02*
D03*
X288500Y191500D02*
D03*
X240500Y133500D02*
D03*
X269000Y213000D02*
D03*
X383540Y298000D02*
D03*
X350000Y265000D02*
D03*
X163000Y214500D02*
D03*
X372000Y252000D02*
D03*
X259000Y229500D02*
D03*
X285898Y208898D02*
D03*
X289560Y304800D02*
D03*
X189000Y179500D02*
D03*
X164250Y103540D02*
D03*
X1285240Y431800D02*
D03*
X350520Y276860D02*
D03*
X286560Y103540D02*
D03*
X238300D02*
D03*
X460000Y291000D02*
D03*
X398112Y266112D02*
D03*
X187500Y103540D02*
D03*
X139240D02*
D03*
X113776Y103604D02*
D03*
X462000Y350918D02*
D03*
X398112Y286112D02*
D03*
X924560Y58420D02*
D03*
X929640Y157480D02*
D03*
X1066800Y162560D02*
D03*
X932180Y233680D02*
D03*
X822960Y251460D02*
D03*
X924560Y25400D02*
D03*
X896620Y172720D02*
D03*
X655320Y154940D02*
D03*
X762000Y261620D02*
D03*
X929640Y472440D02*
D03*
X665480Y431800D02*
D03*
X1066800Y116840D02*
D03*
X1007000Y127000D02*
D03*
Y153000D02*
D03*
X1066800Y187960D02*
D03*
X1064260Y215900D02*
D03*
X932180Y243840D02*
D03*
X1066800D02*
D03*
X967740Y375920D02*
D03*
X1007000Y381000D02*
D03*
X1123000Y182000D02*
D03*
X1121000Y126000D02*
D03*
X1124000Y156000D02*
D03*
X1121000Y204000D02*
D03*
X1122000Y226000D02*
D03*
Y255000D02*
D03*
X1123000Y281000D02*
D03*
X1124000Y307000D02*
D03*
X1007000Y330000D02*
D03*
X1123000D02*
D03*
X1121000Y357000D02*
D03*
X1124000Y373000D02*
D03*
X461000Y336918D02*
D03*
X460000Y265087D02*
D03*
X459000Y241000D02*
D03*
X398112Y226112D02*
D03*
X458757Y191496D02*
D03*
X459000Y164523D02*
D03*
Y215000D02*
D03*
X398112Y206112D02*
D03*
X462000Y152000D02*
D03*
X461000Y251000D02*
D03*
X463000Y275000D02*
D03*
X1007000Y356000D02*
D03*
X350000Y295000D02*
D03*
X398112Y256112D02*
D03*
Y246112D02*
D03*
Y236112D02*
D03*
Y216112D02*
D03*
Y196112D02*
D03*
Y186112D02*
D03*
X432500Y136500D02*
D03*
X459000Y140000D02*
D03*
X1007000Y280000D02*
D03*
Y254000D02*
D03*
Y229000D02*
D03*
Y203000D02*
D03*
Y178000D02*
D03*
X139000Y197500D02*
D03*
X480000Y70000D02*
D03*
D57*
X344847Y168250D02*
D03*
Y149750D02*
D03*
Y136250D02*
D03*
Y117750D02*
D03*
X365760Y281030D02*
D03*
Y262530D02*
D03*
X383540Y270870D02*
D03*
Y252370D02*
D03*
X104000Y85000D02*
D03*
Y103500D02*
D03*
X129000Y85000D02*
D03*
Y103500D02*
D03*
X154000Y85000D02*
D03*
Y103500D02*
D03*
X179000Y85000D02*
D03*
Y103500D02*
D03*
X204000Y85000D02*
D03*
Y103500D02*
D03*
X229000Y85000D02*
D03*
Y103500D02*
D03*
X254000Y85000D02*
D03*
Y103500D02*
D03*
X279000Y85000D02*
D03*
Y103500D02*
D03*
D58*
X915600Y376016D02*
D03*
Y395016D02*
D03*
X944100Y385516D02*
D03*
X915600Y33116D02*
D03*
Y52116D02*
D03*
X944100Y42616D02*
D03*
X915600Y71216D02*
D03*
Y90216D02*
D03*
X944100Y80716D02*
D03*
X915600Y109316D02*
D03*
Y128316D02*
D03*
X944100Y118816D02*
D03*
X915600Y147416D02*
D03*
Y166416D02*
D03*
X944100Y156916D02*
D03*
X915600Y185516D02*
D03*
Y204516D02*
D03*
X944100Y195016D02*
D03*
X915600Y223616D02*
D03*
Y242616D02*
D03*
X944100Y233116D02*
D03*
X915600Y261716D02*
D03*
Y280716D02*
D03*
X944100Y271216D02*
D03*
X915600Y299816D02*
D03*
Y318816D02*
D03*
X944100Y309316D02*
D03*
X915600Y337916D02*
D03*
Y356916D02*
D03*
X944100Y347416D02*
D03*
X915600Y414116D02*
D03*
Y433116D02*
D03*
X944100Y423616D02*
D03*
X915600Y452216D02*
D03*
Y471216D02*
D03*
X944100Y461716D02*
D03*
D59*
X175500Y168750D02*
D03*
Y175250D02*
D03*
Y181750D02*
D03*
Y188250D02*
D03*
Y194750D02*
D03*
Y201250D02*
D03*
Y207750D02*
D03*
Y214250D02*
D03*
X236500Y168750D02*
D03*
Y175250D02*
D03*
Y181750D02*
D03*
Y188250D02*
D03*
Y194750D02*
D03*
Y201250D02*
D03*
Y207750D02*
D03*
Y214250D02*
D03*
D60*
X179459Y150500D02*
D03*
X223000Y153500D02*
D03*
X247612Y206013D02*
D03*
X232809Y220500D02*
D03*
M02*
