G04*
G04 #@! TF.GenerationSoftware,Altium Limited,Altium Designer,23.11.1 (41)*
G04*
G04 Layer_Physical_Order=2*
G04 Layer_Color=36540*
%FSLAX44Y44*%
%MOMM*%
G71*
G04*
G04 #@! TF.SameCoordinates,EAB3D492-AAFB-4F80-8F5C-3261374C14B2*
G04*
G04*
G04 #@! TF.FilePolarity,Positive*
G04*
G01*
G75*
%ADD15C,1.0000*%
%ADD46C,2.0000*%
%ADD47C,1.6000*%
G04:AMPARAMS|DCode=48|XSize=1.6mm|YSize=1.6mm|CornerRadius=0.4mm|HoleSize=0mm|Usage=FLASHONLY|Rotation=270.000|XOffset=0mm|YOffset=0mm|HoleType=Round|Shape=RoundedRectangle|*
%AMROUNDEDRECTD48*
21,1,1.6000,0.8000,0,0,270.0*
21,1,0.8000,1.6000,0,0,270.0*
1,1,0.8000,-0.4000,-0.4000*
1,1,0.8000,-0.4000,0.4000*
1,1,0.8000,0.4000,0.4000*
1,1,0.8000,0.4000,-0.4000*
%
%ADD48ROUNDEDRECTD48*%
%ADD49C,3.0000*%
%ADD50C,1.8000*%
G04:AMPARAMS|DCode=51|XSize=1.8mm|YSize=1.8mm|CornerRadius=0.45mm|HoleSize=0mm|Usage=FLASHONLY|Rotation=90.000|XOffset=0mm|YOffset=0mm|HoleType=Round|Shape=RoundedRectangle|*
%AMROUNDEDRECTD51*
21,1,1.8000,0.9000,0,0,90.0*
21,1,0.9000,1.8000,0,0,90.0*
1,1,0.9000,0.4500,0.4500*
1,1,0.9000,0.4500,-0.4500*
1,1,0.9000,-0.4500,-0.4500*
1,1,0.9000,-0.4500,0.4500*
%
%ADD51ROUNDEDRECTD51*%
%ADD52C,0.3000*%
%ADD53C,0.4000*%
G36*
X1380000Y500000D02*
X1381970Y500000D01*
X1385834Y499231D01*
X1389474Y497724D01*
X1392749Y495535D01*
X1395535Y492749D01*
X1397724Y489473D01*
X1399231Y485834D01*
X1400000Y481970D01*
X1400000Y480000D01*
X1400000D01*
X1400000Y480000D01*
X1400000Y20000D01*
X1400000Y18030D01*
X1399231Y14166D01*
X1397724Y10526D01*
X1395535Y7251D01*
X1392749Y4465D01*
X1389474Y2276D01*
X1385834Y769D01*
X1381970Y0D01*
X19945D01*
X15671Y850D01*
X11644Y2518D01*
X8021Y4939D01*
X4939Y8021D01*
X2518Y11644D01*
X850Y15671D01*
X0Y19945D01*
Y22124D01*
Y300000D01*
X280000D01*
Y500000D01*
X1380000Y500000D01*
D02*
G37*
%LPC*%
G36*
X930336Y475940D02*
X928944D01*
X927657Y475407D01*
X926673Y474423D01*
X926140Y473136D01*
Y471744D01*
X926673Y470457D01*
X927657Y469473D01*
X928944Y468940D01*
X930336D01*
X931623Y469473D01*
X932607Y470457D01*
X933140Y471744D01*
Y473136D01*
X932607Y474423D01*
X931623Y475407D01*
X930336Y475940D01*
D02*
G37*
G36*
X317773Y494000D02*
X314227D01*
X310750Y493308D01*
X307474Y491951D01*
X304526Y489981D01*
X302019Y487474D01*
X300049Y484526D01*
X298692Y481250D01*
X298000Y477773D01*
Y474227D01*
X298692Y470750D01*
X300049Y467474D01*
X302019Y464526D01*
X304526Y462019D01*
X307474Y460049D01*
X310750Y458692D01*
X314227Y458000D01*
X317773D01*
X321250Y458692D01*
X324526Y460049D01*
X327474Y462019D01*
X329981Y464526D01*
X331951Y467474D01*
X333308Y470750D01*
X334000Y474227D01*
Y477773D01*
X333308Y481250D01*
X331951Y484526D01*
X329981Y487474D01*
X327474Y489981D01*
X324526Y491951D01*
X321250Y493308D01*
X317773Y494000D01*
D02*
G37*
G36*
X1375913Y492980D02*
X1372367D01*
X1368890Y492288D01*
X1365614Y490931D01*
X1362666Y488961D01*
X1360159Y486454D01*
X1358189Y483506D01*
X1356832Y480230D01*
X1356140Y476753D01*
Y473207D01*
X1356832Y469730D01*
X1358189Y466454D01*
X1360159Y463506D01*
X1362666Y460998D01*
X1365614Y459029D01*
X1368890Y457672D01*
X1372367Y456980D01*
X1375913D01*
X1379390Y457672D01*
X1382666Y459029D01*
X1385614Y460998D01*
X1388121Y463506D01*
X1390091Y466454D01*
X1391448Y469730D01*
X1392140Y473207D01*
Y476753D01*
X1391448Y480230D01*
X1390091Y483506D01*
X1388121Y486454D01*
X1385614Y488961D01*
X1382666Y490931D01*
X1379390Y492288D01*
X1375913Y492980D01*
D02*
G37*
G36*
X830696Y463500D02*
X829304D01*
X828017Y462967D01*
X827033Y461983D01*
X826500Y460696D01*
Y459304D01*
X827033Y458017D01*
X828017Y457033D01*
X829304Y456500D01*
X830696D01*
X831983Y457033D01*
X832967Y458017D01*
X833500Y459304D01*
Y460696D01*
X832967Y461983D01*
X831983Y462967D01*
X830696Y463500D01*
D02*
G37*
G36*
X900696Y453500D02*
X899304D01*
X898017Y452967D01*
X897033Y451983D01*
X896500Y450696D01*
Y449304D01*
X897033Y448017D01*
X898017Y447033D01*
X899304Y446500D01*
X900696D01*
X901983Y447033D01*
X902967Y448017D01*
X903500Y449304D01*
Y450696D01*
X902967Y451983D01*
X901983Y452967D01*
X900696Y453500D01*
D02*
G37*
G36*
X572696Y443500D02*
X571304D01*
X570017Y442967D01*
X569033Y441983D01*
X568500Y440696D01*
Y439304D01*
X569033Y438017D01*
X570017Y437033D01*
X571304Y436500D01*
X572696D01*
X573983Y437033D01*
X574967Y438017D01*
X575500Y439304D01*
Y440696D01*
X574967Y441983D01*
X573983Y442967D01*
X572696Y443500D01*
D02*
G37*
G36*
X1286510Y435647D02*
Y433070D01*
X1289087D01*
X1288665Y434089D01*
X1287529Y435225D01*
X1286510Y435647D01*
D02*
G37*
G36*
X1283970D02*
X1282952Y435225D01*
X1281815Y434089D01*
X1281393Y433070D01*
X1283970D01*
Y435647D01*
D02*
G37*
G36*
X666176Y435300D02*
X664784D01*
X663497Y434767D01*
X662513Y433783D01*
X661980Y432496D01*
Y431104D01*
X662513Y429817D01*
X663497Y428833D01*
X664784Y428300D01*
X666176D01*
X667463Y428833D01*
X668447Y429817D01*
X668980Y431104D01*
Y432496D01*
X668447Y433783D01*
X667463Y434767D01*
X666176Y435300D01*
D02*
G37*
G36*
X1289087Y430530D02*
X1286510D01*
Y427953D01*
X1287529Y428375D01*
X1288665Y429511D01*
X1289087Y430530D01*
D02*
G37*
G36*
X1283970D02*
X1281393D01*
X1281815Y429511D01*
X1282952Y428375D01*
X1283970Y427953D01*
Y430530D01*
D02*
G37*
G36*
X472270Y409847D02*
Y407270D01*
X474847D01*
X474425Y408288D01*
X473288Y409425D01*
X472270Y409847D01*
D02*
G37*
G36*
X469730D02*
X468712Y409425D01*
X467575Y408288D01*
X467153Y407270D01*
X469730D01*
Y409847D01*
D02*
G37*
G36*
X474847Y404730D02*
X472270D01*
Y402153D01*
X473288Y402575D01*
X474425Y403712D01*
X474847Y404730D01*
D02*
G37*
G36*
X469730D02*
X467153D01*
X467575Y403712D01*
X468712Y402575D01*
X469730Y402153D01*
Y404730D01*
D02*
G37*
G36*
X1376000Y410117D02*
X1368000D01*
X1365659Y409652D01*
X1363674Y408326D01*
X1362348Y406341D01*
X1361882Y404000D01*
Y396000D01*
X1362348Y393659D01*
X1363674Y391674D01*
X1365659Y390348D01*
X1368000Y389883D01*
X1376000D01*
X1378341Y390348D01*
X1380326Y391674D01*
X1381652Y393659D01*
X1382117Y396000D01*
Y404000D01*
X1381652Y406341D01*
X1380326Y408326D01*
X1378341Y409652D01*
X1376000Y410117D01*
D02*
G37*
G36*
X1046696Y394500D02*
X1045304D01*
X1044017Y393967D01*
X1043033Y392983D01*
X1042500Y391696D01*
Y390304D01*
X1043033Y389017D01*
X1044017Y388033D01*
X1045304Y387500D01*
X1046696D01*
X1047983Y388033D01*
X1048967Y389017D01*
X1049500Y390304D01*
Y391696D01*
X1048967Y392983D01*
X1047983Y393967D01*
X1046696Y394500D01*
D02*
G37*
G36*
X1008270Y384847D02*
Y382270D01*
X1010847D01*
X1010425Y383288D01*
X1009288Y384425D01*
X1008270Y384847D01*
D02*
G37*
G36*
X1005730D02*
X1004712Y384425D01*
X1003575Y383288D01*
X1003153Y382270D01*
X1005730D01*
Y384847D01*
D02*
G37*
G36*
X1010847Y379730D02*
X1008270D01*
Y377153D01*
X1009288Y377575D01*
X1010425Y378712D01*
X1010847Y379730D01*
D02*
G37*
G36*
X1005730D02*
X1003153D01*
X1003575Y378712D01*
X1004712Y377575D01*
X1005730Y377153D01*
Y379730D01*
D02*
G37*
G36*
X968436Y379420D02*
X967044D01*
X965757Y378887D01*
X964773Y377903D01*
X964240Y376616D01*
Y375224D01*
X964773Y373937D01*
X965757Y372953D01*
X967044Y372420D01*
X968436D01*
X969723Y372953D01*
X970707Y373937D01*
X971240Y375224D01*
Y376616D01*
X970707Y377903D01*
X969723Y378887D01*
X968436Y379420D01*
D02*
G37*
G36*
X1124696Y376500D02*
X1123304D01*
X1122017Y375967D01*
X1121033Y374983D01*
X1120500Y373696D01*
Y372304D01*
X1121033Y371017D01*
X1122017Y370033D01*
X1123304Y369500D01*
X1124696D01*
X1125983Y370033D01*
X1126967Y371017D01*
X1127500Y372304D01*
Y373696D01*
X1126967Y374983D01*
X1125983Y375967D01*
X1124696Y376500D01*
D02*
G37*
G36*
X795716Y373500D02*
X794324D01*
X793037Y372967D01*
X792053Y371983D01*
X791520Y370696D01*
Y369304D01*
X792053Y368017D01*
X793037Y367033D01*
X794324Y366500D01*
X795716D01*
X797003Y367033D01*
X797987Y368017D01*
X798520Y369304D01*
Y370696D01*
X797987Y371983D01*
X797003Y372967D01*
X795716Y373500D01*
D02*
G37*
G36*
X673796D02*
X672404D01*
X671117Y372967D01*
X670133Y371983D01*
X669600Y370696D01*
Y369304D01*
X670133Y368017D01*
X671117Y367033D01*
X672404Y366500D01*
X673796D01*
X675083Y367033D01*
X676067Y368017D01*
X676600Y369304D01*
Y370696D01*
X676067Y371983D01*
X675083Y372967D01*
X673796Y373500D01*
D02*
G37*
G36*
X459696Y372500D02*
X458304D01*
X457017Y371967D01*
X456033Y370983D01*
X455500Y369696D01*
Y368304D01*
X456033Y367017D01*
X457017Y366033D01*
X458304Y365500D01*
X459696D01*
X460983Y366033D01*
X461967Y367017D01*
X462500Y368304D01*
Y369696D01*
X461967Y370983D01*
X460983Y371967D01*
X459696Y372500D01*
D02*
G37*
G36*
X1373316Y384600D02*
X1370683D01*
X1368140Y383918D01*
X1365860Y382602D01*
X1363998Y380740D01*
X1362681Y378460D01*
X1362000Y375916D01*
Y373284D01*
X1362681Y370740D01*
X1363998Y368460D01*
X1365860Y366598D01*
X1368140Y365281D01*
X1370683Y364600D01*
X1373316D01*
X1375860Y365281D01*
X1378140Y366598D01*
X1380002Y368460D01*
X1381319Y370740D01*
X1382000Y373284D01*
Y375916D01*
X1381319Y378460D01*
X1380002Y380740D01*
X1378140Y382602D01*
X1375860Y383918D01*
X1373316Y384600D01*
D02*
G37*
G36*
X1008270Y359847D02*
Y357270D01*
X1010847D01*
X1010425Y358288D01*
X1009288Y359425D01*
X1008270Y359847D01*
D02*
G37*
G36*
X1005730D02*
X1004712Y359425D01*
X1003575Y358288D01*
X1003153Y357270D01*
X1005730D01*
Y359847D01*
D02*
G37*
G36*
X745490Y360526D02*
Y354330D01*
X751686D01*
X751246Y355970D01*
X750254Y357690D01*
X748850Y359094D01*
X747130Y360086D01*
X745490Y360526D01*
D02*
G37*
G36*
X742950D02*
X741310Y360086D01*
X739590Y359094D01*
X738186Y357690D01*
X737194Y355970D01*
X736754Y354330D01*
X742950D01*
Y360526D01*
D02*
G37*
G36*
X1121696Y360500D02*
X1120304D01*
X1119017Y359967D01*
X1118033Y358983D01*
X1117500Y357696D01*
Y356304D01*
X1118033Y355017D01*
X1119017Y354033D01*
X1120304Y353500D01*
X1121696D01*
X1122983Y354033D01*
X1123967Y355017D01*
X1124500Y356304D01*
Y357696D01*
X1123967Y358983D01*
X1122983Y359967D01*
X1121696Y360500D01*
D02*
G37*
G36*
X932696Y359500D02*
X931304D01*
X930017Y358967D01*
X929033Y357983D01*
X928500Y356696D01*
Y355304D01*
X929033Y354017D01*
X930017Y353033D01*
X931304Y352500D01*
X932696D01*
X933983Y353033D01*
X934967Y354017D01*
X935500Y355304D01*
Y356696D01*
X934967Y357983D01*
X933983Y358967D01*
X932696Y359500D01*
D02*
G37*
G36*
X1010847Y354730D02*
X1008270D01*
Y352153D01*
X1009288Y352575D01*
X1010425Y353712D01*
X1010847Y354730D01*
D02*
G37*
G36*
X1005730D02*
X1003153D01*
X1003575Y353712D01*
X1004712Y352575D01*
X1005730Y352153D01*
Y354730D01*
D02*
G37*
G36*
X462696Y354418D02*
X461304D01*
X460017Y353885D01*
X459033Y352900D01*
X458500Y351614D01*
Y350221D01*
X459033Y348935D01*
X460017Y347951D01*
X461304Y347418D01*
X462696D01*
X463983Y347951D01*
X464967Y348935D01*
X465500Y350221D01*
Y351614D01*
X464967Y352900D01*
X463983Y353885D01*
X462696Y354418D01*
D02*
G37*
G36*
X639754Y353492D02*
X638362D01*
X637076Y352959D01*
X636091Y351974D01*
X635558Y350688D01*
Y349295D01*
X636091Y348009D01*
X637076Y347024D01*
X638362Y346492D01*
X639754D01*
X641041Y347024D01*
X642025Y348009D01*
X642558Y349295D01*
Y350688D01*
X642025Y351974D01*
X641041Y352959D01*
X639754Y353492D01*
D02*
G37*
G36*
X719742Y360060D02*
X717898D01*
X716118Y359583D01*
X714522Y358661D01*
X713219Y357358D01*
X712297Y355762D01*
X711820Y353982D01*
Y352138D01*
X712297Y350358D01*
X713219Y348762D01*
X714522Y347459D01*
X716118Y346537D01*
X717898Y346060D01*
X719742D01*
X721522Y346537D01*
X723118Y347459D01*
X724421Y348762D01*
X725343Y350358D01*
X725820Y352138D01*
Y353982D01*
X725343Y355762D01*
X724421Y357358D01*
X723118Y358661D01*
X721522Y359583D01*
X719742Y360060D01*
D02*
G37*
G36*
X751686Y351790D02*
X745490D01*
Y345594D01*
X747130Y346034D01*
X748850Y347026D01*
X750254Y348430D01*
X751246Y350150D01*
X751686Y351790D01*
D02*
G37*
G36*
X742950D02*
X736754D01*
X737194Y350150D01*
X738186Y348430D01*
X739590Y347026D01*
X741310Y346034D01*
X742950Y345594D01*
Y351790D01*
D02*
G37*
G36*
X701785Y351962D02*
X700392D01*
X699106Y351429D01*
X698121Y350445D01*
X697588Y349158D01*
Y347766D01*
X698121Y346479D01*
X699106Y345495D01*
X700392Y344962D01*
X701785D01*
X703071Y345495D01*
X704055Y346479D01*
X704588Y347766D01*
Y349158D01*
X704055Y350445D01*
X703071Y351429D01*
X701785Y351962D01*
D02*
G37*
G36*
X1064696Y347500D02*
X1063304D01*
X1062017Y346967D01*
X1061033Y345983D01*
X1060500Y344696D01*
Y343304D01*
X1061033Y342017D01*
X1062017Y341033D01*
X1063304Y340500D01*
X1064696D01*
X1065983Y341033D01*
X1066967Y342017D01*
X1067500Y343304D01*
Y344696D01*
X1066967Y345983D01*
X1065983Y346967D01*
X1064696Y347500D01*
D02*
G37*
G36*
X1373316Y359200D02*
X1370683D01*
X1368140Y358518D01*
X1365860Y357202D01*
X1363998Y355340D01*
X1362681Y353060D01*
X1362000Y350517D01*
Y347883D01*
X1362681Y345340D01*
X1363998Y343060D01*
X1365860Y341198D01*
X1368140Y339882D01*
X1370683Y339200D01*
X1373316D01*
X1375860Y339882D01*
X1378140Y341198D01*
X1380002Y343060D01*
X1381319Y345340D01*
X1382000Y347883D01*
Y350517D01*
X1381319Y353060D01*
X1380002Y355340D01*
X1378140Y357202D01*
X1375860Y358518D01*
X1373316Y359200D01*
D02*
G37*
G36*
X461696Y340418D02*
X460304D01*
X459017Y339885D01*
X458033Y338900D01*
X457500Y337614D01*
Y336222D01*
X458033Y334935D01*
X459017Y333951D01*
X460304Y333418D01*
X461696D01*
X462983Y333951D01*
X463967Y334935D01*
X464500Y336222D01*
Y337614D01*
X463967Y338900D01*
X462983Y339885D01*
X461696Y340418D01*
D02*
G37*
G36*
X1008270Y333847D02*
Y331270D01*
X1010847D01*
X1010425Y332289D01*
X1009288Y333425D01*
X1008270Y333847D01*
D02*
G37*
G36*
X1005730D02*
X1004712Y333425D01*
X1003575Y332289D01*
X1003153Y331270D01*
X1005730D01*
Y333847D01*
D02*
G37*
G36*
X1123696Y333500D02*
X1122304D01*
X1121017Y332967D01*
X1120033Y331983D01*
X1119500Y330696D01*
Y329304D01*
X1120033Y328017D01*
X1121017Y327033D01*
X1122304Y326500D01*
X1123696D01*
X1124983Y327033D01*
X1125967Y328017D01*
X1126500Y329304D01*
Y330696D01*
X1125967Y331983D01*
X1124983Y332967D01*
X1123696Y333500D01*
D02*
G37*
G36*
X1010847Y328730D02*
X1008270D01*
Y326153D01*
X1009288Y326575D01*
X1010425Y327711D01*
X1010847Y328730D01*
D02*
G37*
G36*
X1005730D02*
X1003153D01*
X1003575Y327711D01*
X1004712Y326575D01*
X1005730Y326153D01*
Y328730D01*
D02*
G37*
G36*
X463696Y330000D02*
X462304D01*
X461017Y329467D01*
X460033Y328483D01*
X459500Y327196D01*
Y325804D01*
X460033Y324517D01*
X461017Y323533D01*
X462304Y323000D01*
X463696D01*
X464983Y323533D01*
X465967Y324517D01*
X466500Y325804D01*
Y327196D01*
X465967Y328483D01*
X464983Y329467D01*
X463696Y330000D01*
D02*
G37*
G36*
X957696Y322500D02*
X956304D01*
X955017Y321967D01*
X954033Y320983D01*
X953500Y319696D01*
Y318304D01*
X954033Y317017D01*
X955017Y316033D01*
X956304Y315500D01*
X957696D01*
X958983Y316033D01*
X959967Y317017D01*
X960500Y318304D01*
Y319696D01*
X959967Y320983D01*
X958983Y321967D01*
X957696Y322500D01*
D02*
G37*
G36*
X1373316Y333800D02*
X1370683D01*
X1368140Y333119D01*
X1365860Y331802D01*
X1363998Y329940D01*
X1362681Y327660D01*
X1362000Y325117D01*
Y322483D01*
X1362681Y319940D01*
X1363998Y317660D01*
X1365860Y315798D01*
X1368140Y314482D01*
X1370683Y313800D01*
X1373316D01*
X1375860Y314482D01*
X1378140Y315798D01*
X1380002Y317660D01*
X1381319Y319940D01*
X1382000Y322483D01*
Y325117D01*
X1381319Y327660D01*
X1380002Y329940D01*
X1378140Y331802D01*
X1375860Y333119D01*
X1373316Y333800D01*
D02*
G37*
G36*
X459660Y319902D02*
X458268D01*
X456982Y319369D01*
X455997Y318385D01*
X455464Y317098D01*
Y315706D01*
X455997Y314420D01*
X456982Y313435D01*
X458268Y312902D01*
X459660D01*
X460947Y313435D01*
X461931Y314420D01*
X462464Y315706D01*
Y317098D01*
X461931Y318385D01*
X460947Y319369D01*
X459660Y319902D01*
D02*
G37*
G36*
X1008270Y308847D02*
Y306270D01*
X1010847D01*
X1010425Y307288D01*
X1009288Y308425D01*
X1008270Y308847D01*
D02*
G37*
G36*
X1005730D02*
X1004712Y308425D01*
X1003575Y307288D01*
X1003153Y306270D01*
X1005730D01*
Y308847D01*
D02*
G37*
G36*
X290830Y308647D02*
Y306070D01*
X293407D01*
X292985Y307089D01*
X291849Y308225D01*
X290830Y308647D01*
D02*
G37*
G36*
X288290D02*
X287271Y308225D01*
X286135Y307089D01*
X285713Y306070D01*
X288290D01*
Y308647D01*
D02*
G37*
G36*
X1124696Y310500D02*
X1123304D01*
X1122017Y309967D01*
X1121033Y308983D01*
X1120500Y307696D01*
Y306304D01*
X1121033Y305017D01*
X1122017Y304033D01*
X1123304Y303500D01*
X1124696D01*
X1125983Y304033D01*
X1126967Y305017D01*
X1127500Y306304D01*
Y307696D01*
X1126967Y308983D01*
X1125983Y309967D01*
X1124696Y310500D01*
D02*
G37*
G36*
X1010847Y303730D02*
X1008270D01*
Y301153D01*
X1009288Y301575D01*
X1010425Y302712D01*
X1010847Y303730D01*
D02*
G37*
G36*
X1005730D02*
X1003153D01*
X1003575Y302712D01*
X1004712Y301575D01*
X1005730Y301153D01*
Y303730D01*
D02*
G37*
G36*
X293407Y303530D02*
X290830D01*
Y300953D01*
X291849Y301375D01*
X292985Y302512D01*
X293407Y303530D01*
D02*
G37*
G36*
X288290D02*
X285713D01*
X286135Y302512D01*
X287271Y301375D01*
X288290Y300953D01*
Y303530D01*
D02*
G37*
G36*
X384810Y301847D02*
Y299270D01*
X387387D01*
X386965Y300289D01*
X385829Y301425D01*
X384810Y301847D01*
D02*
G37*
G36*
X382270D02*
X381251Y301425D01*
X380115Y300289D01*
X379693Y299270D01*
X382270D01*
Y301847D01*
D02*
G37*
G36*
X462696Y303800D02*
X461304D01*
X460017Y303267D01*
X459033Y302283D01*
X458500Y300996D01*
Y299604D01*
X459033Y298317D01*
X460017Y297333D01*
X461304Y296800D01*
X462696D01*
X463983Y297333D01*
X464967Y298317D01*
X465500Y299604D01*
Y300996D01*
X464967Y302283D01*
X463983Y303267D01*
X462696Y303800D01*
D02*
G37*
G36*
X387387Y296730D02*
X384810D01*
Y294153D01*
X385829Y294575D01*
X386965Y295711D01*
X387387Y296730D01*
D02*
G37*
G36*
X382270D02*
X379693D01*
X380115Y295711D01*
X381251Y294575D01*
X382270Y294153D01*
Y296730D01*
D02*
G37*
G36*
X939696Y299500D02*
X938304D01*
X937017Y298967D01*
X936033Y297983D01*
X935500Y296696D01*
Y295304D01*
X936033Y294017D01*
X937017Y293033D01*
X938304Y292500D01*
X939696D01*
X940983Y293033D01*
X941967Y294017D01*
X942500Y295304D01*
Y296696D01*
X941967Y297983D01*
X940983Y298967D01*
X939696Y299500D01*
D02*
G37*
G36*
X350696Y298500D02*
X349304D01*
X348017Y297967D01*
X347033Y296983D01*
X346500Y295696D01*
Y294304D01*
X347033Y293017D01*
X348017Y292033D01*
X349304Y291500D01*
X350696D01*
X351983Y292033D01*
X352967Y293017D01*
X353500Y294304D01*
Y295696D01*
X352967Y296983D01*
X351983Y297967D01*
X350696Y298500D01*
D02*
G37*
G36*
X1373316Y308400D02*
X1370683D01*
X1368140Y307719D01*
X1365860Y306402D01*
X1363998Y304540D01*
X1362681Y302260D01*
X1362000Y299716D01*
Y297083D01*
X1362681Y294540D01*
X1363998Y292260D01*
X1365860Y290398D01*
X1368140Y289081D01*
X1370683Y288400D01*
X1373316D01*
X1375860Y289081D01*
X1378140Y290398D01*
X1380002Y292260D01*
X1381319Y294540D01*
X1382000Y297083D01*
Y299716D01*
X1381319Y302260D01*
X1380002Y304540D01*
X1378140Y306402D01*
X1375860Y307719D01*
X1373316Y308400D01*
D02*
G37*
G36*
X460696Y294500D02*
X459304D01*
X458017Y293967D01*
X457033Y292983D01*
X456500Y291696D01*
Y290304D01*
X457033Y289017D01*
X458017Y288033D01*
X459304Y287500D01*
X460696D01*
X461983Y288033D01*
X462967Y289017D01*
X463500Y290304D01*
Y291696D01*
X462967Y292983D01*
X461983Y293967D01*
X460696Y294500D01*
D02*
G37*
G36*
X398808Y289612D02*
X397416D01*
X396129Y289079D01*
X395145Y288095D01*
X394612Y286808D01*
Y285416D01*
X395145Y284130D01*
X396129Y283145D01*
X397416Y282612D01*
X398808D01*
X400095Y283145D01*
X401079Y284130D01*
X401612Y285416D01*
Y286808D01*
X401079Y288095D01*
X400095Y289079D01*
X398808Y289612D01*
D02*
G37*
G36*
X1008270Y283847D02*
Y281270D01*
X1010847D01*
X1010425Y282288D01*
X1009288Y283425D01*
X1008270Y283847D01*
D02*
G37*
G36*
X1005730D02*
X1004712Y283425D01*
X1003575Y282288D01*
X1003153Y281270D01*
X1005730D01*
Y283847D01*
D02*
G37*
G36*
X1123696Y284500D02*
X1122304D01*
X1121017Y283967D01*
X1120033Y282983D01*
X1119500Y281696D01*
Y280304D01*
X1120033Y279017D01*
X1121017Y278033D01*
X1122304Y277500D01*
X1123696D01*
X1124983Y278033D01*
X1125967Y279017D01*
X1126500Y280304D01*
Y281696D01*
X1125967Y282983D01*
X1124983Y283967D01*
X1123696Y284500D01*
D02*
G37*
G36*
X1010847Y278730D02*
X1008270D01*
Y276153D01*
X1009288Y276575D01*
X1010425Y277712D01*
X1010847Y278730D01*
D02*
G37*
G36*
X1005730D02*
X1003153D01*
X1003575Y277712D01*
X1004712Y276575D01*
X1005730Y276153D01*
Y278730D01*
D02*
G37*
G36*
X351216Y280360D02*
X349824D01*
X348537Y279827D01*
X347553Y278843D01*
X347020Y277556D01*
Y276164D01*
X347553Y274877D01*
X348537Y273893D01*
X349824Y273360D01*
X351216D01*
X352503Y273893D01*
X353487Y274877D01*
X354020Y276164D01*
Y277556D01*
X353487Y278843D01*
X352503Y279827D01*
X351216Y280360D01*
D02*
G37*
G36*
X398808Y279612D02*
X397416D01*
X396129Y279079D01*
X395145Y278095D01*
X394612Y276808D01*
Y275416D01*
X395145Y274130D01*
X396129Y273145D01*
X397416Y272612D01*
X398808D01*
X400095Y273145D01*
X401079Y274130D01*
X401612Y275416D01*
Y276808D01*
X401079Y278095D01*
X400095Y279079D01*
X398808Y279612D01*
D02*
G37*
G36*
X463696Y278500D02*
X462304D01*
X461017Y277967D01*
X460033Y276983D01*
X459500Y275696D01*
Y274304D01*
X460033Y273017D01*
X461017Y272033D01*
X462304Y271500D01*
X463696D01*
X464983Y272033D01*
X465967Y273017D01*
X466500Y274304D01*
Y275696D01*
X465967Y276983D01*
X464983Y277967D01*
X463696Y278500D01*
D02*
G37*
G36*
X892142Y274310D02*
X890750D01*
X889463Y273777D01*
X888479Y272792D01*
X887946Y271506D01*
Y270114D01*
X888479Y268827D01*
X889463Y267843D01*
X890750Y267310D01*
X892142D01*
X893429Y267843D01*
X894413Y268827D01*
X894946Y270114D01*
Y271506D01*
X894413Y272792D01*
X893429Y273777D01*
X892142Y274310D01*
D02*
G37*
G36*
X351270Y268847D02*
Y266270D01*
X353847D01*
X353425Y267288D01*
X352289Y268425D01*
X351270Y268847D01*
D02*
G37*
G36*
X348730D02*
X347711Y268425D01*
X346575Y267288D01*
X346153Y266270D01*
X348730D01*
Y268847D01*
D02*
G37*
G36*
X1373316Y283000D02*
X1370683D01*
X1368140Y282318D01*
X1365860Y281002D01*
X1363998Y279140D01*
X1362681Y276860D01*
X1362000Y274317D01*
Y271684D01*
X1362681Y269140D01*
X1363998Y266860D01*
X1365860Y264998D01*
X1368140Y263682D01*
X1370683Y263000D01*
X1373316D01*
X1375860Y263682D01*
X1378140Y264998D01*
X1380002Y266860D01*
X1381319Y269140D01*
X1382000Y271684D01*
Y274317D01*
X1381319Y276860D01*
X1380002Y279140D01*
X1378140Y281002D01*
X1375860Y282318D01*
X1373316Y283000D01*
D02*
G37*
G36*
X398808Y269612D02*
X397416D01*
X396129Y269079D01*
X395145Y268095D01*
X394612Y266808D01*
Y265416D01*
X395145Y264130D01*
X396129Y263145D01*
X397416Y262612D01*
X398808D01*
X400095Y263145D01*
X401079Y264130D01*
X401612Y265416D01*
Y266808D01*
X401079Y268095D01*
X400095Y269079D01*
X398808Y269612D01*
D02*
G37*
G36*
X460696Y268587D02*
X459304D01*
X458017Y268054D01*
X457033Y267070D01*
X456500Y265783D01*
Y264391D01*
X457033Y263104D01*
X458017Y262120D01*
X459304Y261587D01*
X460696D01*
X461983Y262120D01*
X462967Y263104D01*
X463500Y264391D01*
Y265783D01*
X462967Y267070D01*
X461983Y268054D01*
X460696Y268587D01*
D02*
G37*
G36*
X353847Y263730D02*
X351270D01*
Y261153D01*
X352289Y261575D01*
X353425Y262712D01*
X353847Y263730D01*
D02*
G37*
G36*
X348730D02*
X346153D01*
X346575Y262712D01*
X347711Y261575D01*
X348730Y261153D01*
Y263730D01*
D02*
G37*
G36*
X762696Y265120D02*
X761304D01*
X760017Y264587D01*
X759033Y263603D01*
X758500Y262316D01*
Y260924D01*
X759033Y259637D01*
X760017Y258653D01*
X761304Y258120D01*
X762696D01*
X763983Y258653D01*
X764967Y259637D01*
X765500Y260924D01*
Y262316D01*
X764967Y263603D01*
X763983Y264587D01*
X762696Y265120D01*
D02*
G37*
G36*
X98696Y263500D02*
X97304D01*
X96017Y262967D01*
X95033Y261983D01*
X94500Y260696D01*
Y259304D01*
X95033Y258017D01*
X96017Y257033D01*
X97304Y256500D01*
X98696D01*
X99983Y257033D01*
X100967Y258017D01*
X101500Y259304D01*
Y260696D01*
X100967Y261983D01*
X99983Y262967D01*
X98696Y263500D01*
D02*
G37*
G36*
X1008270Y257847D02*
Y255270D01*
X1010847D01*
X1010425Y256289D01*
X1009288Y257425D01*
X1008270Y257847D01*
D02*
G37*
G36*
X1005730D02*
X1004712Y257425D01*
X1003575Y256289D01*
X1003153Y255270D01*
X1005730D01*
Y257847D01*
D02*
G37*
G36*
X398808Y259612D02*
X397416D01*
X396129Y259079D01*
X395145Y258095D01*
X394612Y256808D01*
Y255416D01*
X395145Y254130D01*
X396129Y253145D01*
X397416Y252612D01*
X398808D01*
X400095Y253145D01*
X401079Y254130D01*
X401612Y255416D01*
Y256808D01*
X401079Y258095D01*
X400095Y259079D01*
X398808Y259612D01*
D02*
G37*
G36*
X1122696Y258500D02*
X1121304D01*
X1120017Y257967D01*
X1119033Y256983D01*
X1118500Y255696D01*
Y254304D01*
X1119033Y253017D01*
X1120017Y252033D01*
X1121304Y251500D01*
X1122696D01*
X1123983Y252033D01*
X1124967Y253017D01*
X1125500Y254304D01*
Y255696D01*
X1124967Y256983D01*
X1123983Y257967D01*
X1122696Y258500D01*
D02*
G37*
G36*
X1010847Y252730D02*
X1008270D01*
Y250153D01*
X1009288Y250575D01*
X1010425Y251712D01*
X1010847Y252730D01*
D02*
G37*
G36*
X1005730D02*
X1003153D01*
X1003575Y251712D01*
X1004712Y250575D01*
X1005730Y250153D01*
Y252730D01*
D02*
G37*
G36*
X372696Y255500D02*
X371304D01*
X370017Y254967D01*
X369033Y253983D01*
X368500Y252696D01*
Y251304D01*
X369033Y250017D01*
X370017Y249033D01*
X371304Y248500D01*
X372696D01*
X373983Y249033D01*
X374967Y250017D01*
X375500Y251304D01*
Y252696D01*
X374967Y253983D01*
X373983Y254967D01*
X372696Y255500D01*
D02*
G37*
G36*
X823656Y254960D02*
X822264D01*
X820977Y254427D01*
X819993Y253443D01*
X819460Y252156D01*
Y250764D01*
X819993Y249477D01*
X820977Y248493D01*
X822264Y247960D01*
X823656D01*
X824943Y248493D01*
X825927Y249477D01*
X826460Y250764D01*
Y252156D01*
X825927Y253443D01*
X824943Y254427D01*
X823656Y254960D01*
D02*
G37*
G36*
X461696Y254500D02*
X460304D01*
X459017Y253967D01*
X458033Y252983D01*
X457500Y251696D01*
Y250304D01*
X458033Y249017D01*
X459017Y248033D01*
X460304Y247500D01*
X461696D01*
X462983Y248033D01*
X463967Y249017D01*
X464500Y250304D01*
Y251696D01*
X463967Y252983D01*
X462983Y253967D01*
X461696Y254500D01*
D02*
G37*
G36*
X98696D02*
X97304D01*
X96017Y253967D01*
X95033Y252983D01*
X94500Y251696D01*
Y250304D01*
X95033Y249017D01*
X96017Y248033D01*
X97304Y247500D01*
X98696D01*
X99983Y248033D01*
X100967Y249017D01*
X101500Y250304D01*
Y251696D01*
X100967Y252983D01*
X99983Y253967D01*
X98696Y254500D01*
D02*
G37*
G36*
X153696Y250500D02*
X152304D01*
X151017Y249967D01*
X150033Y248983D01*
X149500Y247696D01*
Y246304D01*
X150033Y245017D01*
X151017Y244033D01*
X152304Y243500D01*
X153696D01*
X154983Y244033D01*
X155967Y245017D01*
X156500Y246304D01*
Y247696D01*
X155967Y248983D01*
X154983Y249967D01*
X153696Y250500D01*
D02*
G37*
G36*
X398808Y249612D02*
X397416D01*
X396129Y249079D01*
X395145Y248095D01*
X394612Y246808D01*
Y245416D01*
X395145Y244130D01*
X396129Y243145D01*
X397416Y242612D01*
X398808D01*
X400095Y243145D01*
X401079Y244130D01*
X401612Y245416D01*
Y246808D01*
X401079Y248095D01*
X400095Y249079D01*
X398808Y249612D01*
D02*
G37*
G36*
X144696Y249500D02*
X143304D01*
X142017Y248967D01*
X141033Y247983D01*
X140500Y246696D01*
Y245304D01*
X141033Y244017D01*
X142017Y243033D01*
X143304Y242500D01*
X144696D01*
X145983Y243033D01*
X146967Y244017D01*
X147500Y245304D01*
Y246696D01*
X146967Y247983D01*
X145983Y248967D01*
X144696Y249500D01*
D02*
G37*
G36*
X1067496Y247340D02*
X1066104D01*
X1064817Y246807D01*
X1063833Y245823D01*
X1063300Y244536D01*
Y243144D01*
X1063833Y241857D01*
X1064817Y240873D01*
X1066104Y240340D01*
X1067496D01*
X1068783Y240873D01*
X1069767Y241857D01*
X1070300Y243144D01*
Y244536D01*
X1069767Y245823D01*
X1068783Y246807D01*
X1067496Y247340D01*
D02*
G37*
G36*
X932876D02*
X931484D01*
X930197Y246807D01*
X929213Y245823D01*
X928680Y244536D01*
Y243144D01*
X929213Y241857D01*
X930197Y240873D01*
X931484Y240340D01*
X932876D01*
X934163Y240873D01*
X935147Y241857D01*
X935680Y243144D01*
Y244536D01*
X935147Y245823D01*
X934163Y246807D01*
X932876Y247340D01*
D02*
G37*
G36*
X182270Y241847D02*
Y239270D01*
X184847D01*
X184425Y240289D01*
X183288Y241425D01*
X182270Y241847D01*
D02*
G37*
G36*
X179730D02*
X178711Y241425D01*
X177575Y240289D01*
X177153Y239270D01*
X179730D01*
Y241847D01*
D02*
G37*
G36*
X1373316Y257600D02*
X1370683D01*
X1368140Y256919D01*
X1365860Y255602D01*
X1363998Y253740D01*
X1362681Y251460D01*
X1362000Y248916D01*
Y246283D01*
X1362681Y243740D01*
X1363998Y241460D01*
X1365860Y239598D01*
X1368140Y238281D01*
X1370683Y237600D01*
X1373316D01*
X1375860Y238281D01*
X1378140Y239598D01*
X1380002Y241460D01*
X1381319Y243740D01*
X1382000Y246283D01*
Y248916D01*
X1381319Y251460D01*
X1380002Y253740D01*
X1378140Y255602D01*
X1375860Y256919D01*
X1373316Y257600D01*
D02*
G37*
G36*
X459696Y244500D02*
X458304D01*
X457017Y243967D01*
X456033Y242983D01*
X455500Y241696D01*
Y240304D01*
X456033Y239017D01*
X457017Y238033D01*
X458304Y237500D01*
X459696D01*
X460983Y238033D01*
X461967Y239017D01*
X462500Y240304D01*
Y241696D01*
X461967Y242983D01*
X460983Y243967D01*
X459696Y244500D01*
D02*
G37*
G36*
X66720Y238299D02*
Y235722D01*
X69297D01*
X68875Y236740D01*
X67738Y237877D01*
X66720Y238299D01*
D02*
G37*
G36*
X64180D02*
X63162Y237877D01*
X62025Y236740D01*
X61603Y235722D01*
X64180D01*
Y238299D01*
D02*
G37*
G36*
X184847Y236730D02*
X182270D01*
Y234153D01*
X183288Y234575D01*
X184425Y235711D01*
X184847Y236730D01*
D02*
G37*
G36*
X179730D02*
X177153D01*
X177575Y235711D01*
X178711Y234575D01*
X179730Y234153D01*
Y236730D01*
D02*
G37*
G36*
X398808Y239612D02*
X397416D01*
X396129Y239079D01*
X395145Y238095D01*
X394612Y236808D01*
Y235416D01*
X395145Y234130D01*
X396129Y233145D01*
X397416Y232612D01*
X398808D01*
X400095Y233145D01*
X401079Y234130D01*
X401612Y235416D01*
Y236808D01*
X401079Y238095D01*
X400095Y239079D01*
X398808Y239612D01*
D02*
G37*
G36*
X69297Y233182D02*
X66720D01*
Y230605D01*
X67738Y231027D01*
X68875Y232164D01*
X69297Y233182D01*
D02*
G37*
G36*
X64180D02*
X61603D01*
X62025Y232164D01*
X63162Y231027D01*
X64180Y230605D01*
Y233182D01*
D02*
G37*
G36*
X1008270Y232847D02*
Y230270D01*
X1010847D01*
X1010425Y231289D01*
X1009288Y232425D01*
X1008270Y232847D01*
D02*
G37*
G36*
X1005730D02*
X1004712Y232425D01*
X1003575Y231289D01*
X1003153Y230270D01*
X1005730D01*
Y232847D01*
D02*
G37*
G36*
X932876Y237180D02*
X931484D01*
X930197Y236647D01*
X929213Y235663D01*
X928680Y234376D01*
Y232984D01*
X929213Y231697D01*
X930197Y230713D01*
X931484Y230180D01*
X932876D01*
X934163Y230713D01*
X935147Y231697D01*
X935680Y232984D01*
Y234376D01*
X935147Y235663D01*
X934163Y236647D01*
X932876Y237180D01*
D02*
G37*
G36*
X259696Y233000D02*
X258304D01*
X257017Y232467D01*
X256033Y231483D01*
X255500Y230196D01*
Y228804D01*
X256033Y227517D01*
X257017Y226533D01*
X258304Y226000D01*
X259696D01*
X260983Y226533D01*
X261967Y227517D01*
X262500Y228804D01*
Y230196D01*
X261967Y231483D01*
X260983Y232467D01*
X259696Y233000D01*
D02*
G37*
G36*
X1010847Y227730D02*
X1008270D01*
Y225153D01*
X1009288Y225575D01*
X1010425Y226712D01*
X1010847Y227730D01*
D02*
G37*
G36*
X1005730D02*
X1003153D01*
X1003575Y226712D01*
X1004712Y225575D01*
X1005730Y225153D01*
Y227730D01*
D02*
G37*
G36*
X462696Y230500D02*
X461304D01*
X460017Y229967D01*
X459033Y228983D01*
X458500Y227696D01*
Y226304D01*
X459033Y225017D01*
X460017Y224033D01*
X461304Y223500D01*
X462696D01*
X463983Y224033D01*
X464967Y225017D01*
X465500Y226304D01*
Y227696D01*
X464967Y228983D01*
X463983Y229967D01*
X462696Y230500D01*
D02*
G37*
G36*
X398808Y229612D02*
X397416D01*
X396129Y229079D01*
X395145Y228095D01*
X394612Y226808D01*
Y225416D01*
X395145Y224130D01*
X396129Y223145D01*
X397416Y222612D01*
X398808D01*
X400095Y223145D01*
X401079Y224130D01*
X401612Y225416D01*
Y226808D01*
X401079Y228095D01*
X400095Y229079D01*
X398808Y229612D01*
D02*
G37*
G36*
X1122696Y229500D02*
X1121304D01*
X1120017Y228967D01*
X1119033Y227983D01*
X1118500Y226696D01*
Y225304D01*
X1119033Y224017D01*
X1120017Y223033D01*
X1121304Y222500D01*
X1122696D01*
X1123983Y223033D01*
X1124967Y224017D01*
X1125500Y225304D01*
Y226696D01*
X1124967Y227983D01*
X1123983Y228967D01*
X1122696Y229500D01*
D02*
G37*
G36*
X234079Y224888D02*
Y221770D01*
X237197D01*
X236658Y223072D01*
X235380Y224349D01*
X234079Y224888D01*
D02*
G37*
G36*
X231539D02*
X230237Y224349D01*
X228960Y223072D01*
X228421Y221770D01*
X231539D01*
Y224888D01*
D02*
G37*
G36*
X237197Y219230D02*
X234079D01*
Y216112D01*
X235380Y216651D01*
X236658Y217928D01*
X237197Y219230D01*
D02*
G37*
G36*
X231539D02*
X228421D01*
X228960Y217928D01*
X230237Y216651D01*
X231539Y216112D01*
Y219230D01*
D02*
G37*
G36*
X164270Y218347D02*
Y215770D01*
X166847D01*
X166425Y216788D01*
X165288Y217925D01*
X164270Y218347D01*
D02*
G37*
G36*
X161730D02*
X160711Y217925D01*
X159575Y216788D01*
X159153Y215770D01*
X161730D01*
Y218347D01*
D02*
G37*
G36*
X270270Y216847D02*
Y214270D01*
X272847D01*
X272425Y215289D01*
X271289Y216425D01*
X270270Y216847D01*
D02*
G37*
G36*
X267730D02*
X266712Y216425D01*
X265575Y215289D01*
X265153Y214270D01*
X267730D01*
Y216847D01*
D02*
G37*
G36*
X398808Y219612D02*
X397416D01*
X396129Y219079D01*
X395145Y218095D01*
X394612Y216808D01*
Y215416D01*
X395145Y214130D01*
X396129Y213145D01*
X397416Y212612D01*
X398808D01*
X400095Y213145D01*
X401079Y214130D01*
X401612Y215416D01*
Y216808D01*
X401079Y218095D01*
X400095Y219079D01*
X398808Y219612D01*
D02*
G37*
G36*
X1064956Y219400D02*
X1063564D01*
X1062277Y218867D01*
X1061293Y217883D01*
X1060760Y216596D01*
Y215204D01*
X1061293Y213917D01*
X1062277Y212933D01*
X1063564Y212400D01*
X1064956D01*
X1066243Y212933D01*
X1067227Y213917D01*
X1067760Y215204D01*
Y216596D01*
X1067227Y217883D01*
X1066243Y218867D01*
X1064956Y219400D01*
D02*
G37*
G36*
X1373316Y232200D02*
X1370683D01*
X1368140Y231518D01*
X1365860Y230202D01*
X1363998Y228340D01*
X1362681Y226060D01*
X1362000Y223517D01*
Y220884D01*
X1362681Y218340D01*
X1363998Y216060D01*
X1365860Y214198D01*
X1368140Y212882D01*
X1370683Y212200D01*
X1373316D01*
X1375860Y212882D01*
X1378140Y214198D01*
X1380002Y216060D01*
X1381319Y218340D01*
X1382000Y220884D01*
Y223517D01*
X1381319Y226060D01*
X1380002Y228340D01*
X1378140Y230202D01*
X1375860Y231518D01*
X1373316Y232200D01*
D02*
G37*
G36*
X459696Y218500D02*
X458304D01*
X457017Y217967D01*
X456033Y216983D01*
X455500Y215696D01*
Y214304D01*
X456033Y213017D01*
X457017Y212033D01*
X458304Y211500D01*
X459696D01*
X460983Y212033D01*
X461967Y213017D01*
X462500Y214304D01*
Y215696D01*
X461967Y216983D01*
X460983Y217967D01*
X459696Y218500D01*
D02*
G37*
G36*
X166847Y213230D02*
X164270D01*
Y210653D01*
X165288Y211075D01*
X166425Y212211D01*
X166847Y213230D01*
D02*
G37*
G36*
X161730D02*
X159153D01*
X159575Y212211D01*
X160711Y211075D01*
X161730Y210653D01*
Y213230D01*
D02*
G37*
G36*
X287168Y212745D02*
Y210168D01*
X289745D01*
X289323Y211186D01*
X288186Y212323D01*
X287168Y212745D01*
D02*
G37*
G36*
X284628D02*
X283609Y212323D01*
X282473Y211186D01*
X282051Y210168D01*
X284628D01*
Y212745D01*
D02*
G37*
G36*
X255196Y210750D02*
X253804D01*
X252517Y210217D01*
X251533Y209233D01*
X250126Y209156D01*
X249878Y209404D01*
X248408Y210013D01*
X246816D01*
X245346Y209404D01*
X244221Y208279D01*
X243612Y206809D01*
Y205217D01*
X244221Y203747D01*
X245346Y202622D01*
X246816Y202013D01*
X248408D01*
X249878Y202622D01*
X251003Y203747D01*
X251166Y204141D01*
X252412Y204389D01*
X252517Y204283D01*
X253804Y203750D01*
X255196D01*
X256483Y204283D01*
X257467Y205267D01*
X258000Y206554D01*
Y207946D01*
X257467Y209233D01*
X256483Y210217D01*
X255196Y210750D01*
D02*
G37*
G36*
X272847Y211730D02*
X270270D01*
Y209153D01*
X271289Y209575D01*
X272425Y210711D01*
X272847Y211730D01*
D02*
G37*
G36*
X267730D02*
X265153D01*
X265575Y210711D01*
X266712Y209575D01*
X267730Y209153D01*
Y211730D01*
D02*
G37*
G36*
X332196Y213500D02*
X330804D01*
X329517Y212967D01*
X328533Y211983D01*
X328000Y210696D01*
Y209304D01*
X328533Y208017D01*
X329517Y207033D01*
X330804Y206500D01*
X332196D01*
X333483Y207033D01*
X334467Y208017D01*
X335000Y209304D01*
Y210696D01*
X334467Y211983D01*
X333483Y212967D01*
X332196Y213500D01*
D02*
G37*
G36*
X289745Y207628D02*
X287168D01*
Y205051D01*
X288186Y205473D01*
X289323Y206609D01*
X289745Y207628D01*
D02*
G37*
G36*
X284628D02*
X282051D01*
X282473Y206609D01*
X283609Y205473D01*
X284628Y205051D01*
Y207628D01*
D02*
G37*
G36*
X1008270Y206847D02*
Y204270D01*
X1010847D01*
X1010425Y205289D01*
X1009288Y206425D01*
X1008270Y206847D01*
D02*
G37*
G36*
X1005730D02*
X1004712Y206425D01*
X1003575Y205289D01*
X1003153Y204270D01*
X1005730D01*
Y206847D01*
D02*
G37*
G36*
X398808Y209612D02*
X397416D01*
X396129Y209079D01*
X395145Y208095D01*
X394612Y206808D01*
Y205416D01*
X395145Y204130D01*
X396129Y203145D01*
X397416Y202612D01*
X398808D01*
X400095Y203145D01*
X401079Y204130D01*
X401612Y205416D01*
Y206808D01*
X401079Y208095D01*
X400095Y209079D01*
X398808Y209612D01*
D02*
G37*
G36*
X1121696Y207500D02*
X1120304D01*
X1119017Y206967D01*
X1118033Y205983D01*
X1117500Y204696D01*
Y203304D01*
X1118033Y202017D01*
X1119017Y201033D01*
X1120304Y200500D01*
X1121696D01*
X1122983Y201033D01*
X1123967Y202017D01*
X1124500Y203304D01*
Y204696D01*
X1123967Y205983D01*
X1122983Y206967D01*
X1121696Y207500D01*
D02*
G37*
G36*
X357696Y206500D02*
X356304D01*
X355017Y205967D01*
X354033Y204983D01*
X353500Y203696D01*
Y202304D01*
X354033Y201017D01*
X355017Y200033D01*
X356304Y199500D01*
X357696D01*
X358983Y200033D01*
X359967Y201017D01*
X360500Y202304D01*
Y203696D01*
X359967Y204983D01*
X358983Y205967D01*
X357696Y206500D01*
D02*
G37*
G36*
X1010847Y201730D02*
X1008270D01*
Y199153D01*
X1009288Y199575D01*
X1010425Y200711D01*
X1010847Y201730D01*
D02*
G37*
G36*
X1005730D02*
X1003153D01*
X1003575Y200711D01*
X1004712Y199575D01*
X1005730Y199153D01*
Y201730D01*
D02*
G37*
G36*
X140270Y201347D02*
Y198770D01*
X142847D01*
X142425Y199788D01*
X141288Y200925D01*
X140270Y201347D01*
D02*
G37*
G36*
X137730D02*
X136712Y200925D01*
X135575Y199788D01*
X135153Y198770D01*
X137730D01*
Y201347D01*
D02*
G37*
G36*
X224696Y205500D02*
X223304D01*
X222017Y204967D01*
X221033Y203983D01*
X220500Y202696D01*
Y201304D01*
X221033Y200017D01*
X222017Y199033D01*
X223304Y198500D01*
X224696D01*
X225983Y199033D01*
X226967Y200017D01*
X227500Y201304D01*
Y202696D01*
X226967Y203983D01*
X225983Y204967D01*
X224696Y205500D01*
D02*
G37*
G36*
X466296Y202000D02*
X464904D01*
X463617Y201467D01*
X462633Y200483D01*
X462100Y199196D01*
Y197804D01*
X462633Y196517D01*
X463617Y195533D01*
X464904Y195000D01*
X466296D01*
X467583Y195533D01*
X468567Y196517D01*
X469100Y197804D01*
Y199196D01*
X468567Y200483D01*
X467583Y201467D01*
X466296Y202000D01*
D02*
G37*
G36*
X294696Y198500D02*
X293304D01*
X292017Y197967D01*
X291033Y196983D01*
X290500Y195696D01*
X289230Y194986D01*
X289196Y195000D01*
X287804D01*
X286517Y194467D01*
X285533Y193483D01*
X285000Y192196D01*
Y190804D01*
X285533Y189517D01*
X286517Y188533D01*
X287804Y188000D01*
X289196D01*
X290483Y188533D01*
X291467Y189517D01*
X292000Y190804D01*
X293270Y191514D01*
X293304Y191500D01*
X294696D01*
X295983Y192033D01*
X296967Y193017D01*
X297500Y194304D01*
Y195696D01*
X296967Y196983D01*
X295983Y197967D01*
X294696Y198500D01*
D02*
G37*
G36*
X142847Y196230D02*
X140270D01*
Y193653D01*
X141288Y194075D01*
X142425Y195212D01*
X142847Y196230D01*
D02*
G37*
G36*
X137730D02*
X135153D01*
X135575Y195212D01*
X136712Y194075D01*
X137730Y193653D01*
Y196230D01*
D02*
G37*
G36*
X398808Y199612D02*
X397416D01*
X396129Y199079D01*
X395145Y198095D01*
X394612Y196808D01*
Y195416D01*
X395145Y194130D01*
X396129Y193145D01*
X397416Y192612D01*
X398808D01*
X400095Y193145D01*
X401079Y194130D01*
X401612Y195416D01*
Y196808D01*
X401079Y198095D01*
X400095Y199079D01*
X398808Y199612D01*
D02*
G37*
G36*
X459453Y194996D02*
X458061D01*
X456774Y194464D01*
X455790Y193479D01*
X455257Y192192D01*
Y190800D01*
X455790Y189514D01*
X456774Y188529D01*
X458061Y187996D01*
X459453D01*
X460740Y188529D01*
X461724Y189514D01*
X462257Y190800D01*
Y192192D01*
X461724Y193479D01*
X460740Y194464D01*
X459453Y194996D01*
D02*
G37*
G36*
X1373316Y206800D02*
X1370683D01*
X1368140Y206119D01*
X1365860Y204802D01*
X1363998Y202940D01*
X1362681Y200660D01*
X1362000Y198116D01*
Y195483D01*
X1362681Y192940D01*
X1363998Y190660D01*
X1365860Y188798D01*
X1368140Y187481D01*
X1370683Y186800D01*
X1373316D01*
X1375860Y187481D01*
X1378140Y188798D01*
X1380002Y190660D01*
X1381319Y192940D01*
X1382000Y195483D01*
Y198116D01*
X1381319Y200660D01*
X1380002Y202940D01*
X1378140Y204802D01*
X1375860Y206119D01*
X1373316Y206800D01*
D02*
G37*
G36*
X325608Y189237D02*
Y186660D01*
X328185D01*
X327763Y187679D01*
X326626Y188815D01*
X325608Y189237D01*
D02*
G37*
G36*
X323068D02*
X322049Y188815D01*
X320913Y187679D01*
X320491Y186660D01*
X323068D01*
Y189237D01*
D02*
G37*
G36*
X1067496Y191460D02*
X1066104D01*
X1064817Y190927D01*
X1063833Y189943D01*
X1063300Y188656D01*
Y187264D01*
X1063833Y185977D01*
X1064817Y184993D01*
X1066104Y184460D01*
X1067496D01*
X1068783Y184993D01*
X1069767Y185977D01*
X1070300Y187264D01*
Y188656D01*
X1069767Y189943D01*
X1068783Y190927D01*
X1067496Y191460D01*
D02*
G37*
G36*
X323068Y184120D02*
X320491D01*
X320563Y183947D01*
X319486Y183227D01*
X319289Y183425D01*
X318270Y183847D01*
Y181270D01*
X320847D01*
X320775Y181443D01*
X321852Y182163D01*
X322049Y181965D01*
X323068Y181543D01*
Y184120D01*
D02*
G37*
G36*
X398808Y189612D02*
X397416D01*
X396129Y189079D01*
X395145Y188095D01*
X394612Y186808D01*
Y185416D01*
X395145Y184130D01*
X396129Y183145D01*
X397416Y182612D01*
X398808D01*
X400095Y183145D01*
X401079Y184130D01*
X401612Y185416D01*
Y186808D01*
X401079Y188095D01*
X400095Y189079D01*
X398808Y189612D01*
D02*
G37*
G36*
X328185Y184120D02*
X325608D01*
Y181543D01*
X326626Y181965D01*
X327763Y183102D01*
X328185Y184120D01*
D02*
G37*
G36*
X315730Y183847D02*
X314711Y183425D01*
X313575Y182288D01*
X313153Y181270D01*
X315730D01*
Y183847D01*
D02*
G37*
G36*
X1008270Y181847D02*
Y179270D01*
X1010847D01*
X1010425Y180289D01*
X1009288Y181425D01*
X1008270Y181847D01*
D02*
G37*
G36*
X1005730D02*
X1004712Y181425D01*
X1003575Y180289D01*
X1003153Y179270D01*
X1005730D01*
Y181847D01*
D02*
G37*
G36*
X1123696Y185500D02*
X1122304D01*
X1121017Y184967D01*
X1120033Y183983D01*
X1119500Y182696D01*
Y181304D01*
X1120033Y180017D01*
X1121017Y179033D01*
X1122304Y178500D01*
X1123696D01*
X1124983Y179033D01*
X1125967Y180017D01*
X1126500Y181304D01*
Y182696D01*
X1125967Y183983D01*
X1124983Y184967D01*
X1123696Y185500D01*
D02*
G37*
G36*
X320847Y178730D02*
X318270D01*
Y176153D01*
X319289Y176575D01*
X320425Y177712D01*
X320847Y178730D01*
D02*
G37*
G36*
X315730D02*
X313153D01*
X313575Y177712D01*
X314711Y176575D01*
X315730Y176153D01*
Y178730D01*
D02*
G37*
G36*
X189696Y183000D02*
X188304D01*
X187017Y182467D01*
X186033Y181483D01*
X185500Y180196D01*
Y178804D01*
X186033Y177517D01*
X187017Y176533D01*
X188304Y176000D01*
X189696D01*
X190983Y176533D01*
X191967Y177517D01*
X192500Y178804D01*
Y180196D01*
X191967Y181483D01*
X190983Y182467D01*
X189696Y183000D01*
D02*
G37*
G36*
X847696Y181500D02*
X846304D01*
X845017Y180967D01*
X844033Y179983D01*
X843500Y178696D01*
Y177304D01*
X844033Y176017D01*
X845017Y175033D01*
X846304Y174500D01*
X847696D01*
X848983Y175033D01*
X849967Y176017D01*
X850500Y177304D01*
Y178696D01*
X849967Y179983D01*
X848983Y180967D01*
X847696Y181500D01*
D02*
G37*
G36*
X1010847Y176730D02*
X1008270D01*
Y174153D01*
X1009288Y174575D01*
X1010425Y175711D01*
X1010847Y176730D01*
D02*
G37*
G36*
X1005730D02*
X1003153D01*
X1003575Y175711D01*
X1004712Y174575D01*
X1005730Y174153D01*
Y176730D01*
D02*
G37*
G36*
X469696Y179500D02*
X468304D01*
X467017Y178967D01*
X466033Y177983D01*
X465500Y176696D01*
Y175304D01*
X466033Y174017D01*
X467017Y173033D01*
X468304Y172500D01*
X469696D01*
X470983Y173033D01*
X471967Y174017D01*
X472500Y175304D01*
Y176696D01*
X471967Y177983D01*
X470983Y178967D01*
X469696Y179500D01*
D02*
G37*
G36*
X897316Y176220D02*
X895924D01*
X894637Y175687D01*
X893653Y174703D01*
X893120Y173416D01*
Y172024D01*
X893653Y170737D01*
X894637Y169753D01*
X895924Y169220D01*
X897316D01*
X898603Y169753D01*
X899587Y170737D01*
X900120Y172024D01*
Y173416D01*
X899587Y174703D01*
X898603Y175687D01*
X897316Y176220D01*
D02*
G37*
G36*
X289020Y168597D02*
Y166020D01*
X291597D01*
X291175Y167038D01*
X290039Y168175D01*
X289020Y168597D01*
D02*
G37*
G36*
X286480D02*
X285462Y168175D01*
X284325Y167038D01*
X283903Y166020D01*
X286480D01*
Y168597D01*
D02*
G37*
G36*
X1373316Y181400D02*
X1370683D01*
X1368140Y180718D01*
X1365860Y179402D01*
X1363998Y177540D01*
X1362681Y175260D01*
X1362000Y172717D01*
Y170084D01*
X1362681Y167540D01*
X1363998Y165260D01*
X1365860Y163398D01*
X1368140Y162082D01*
X1370683Y161400D01*
X1373316D01*
X1375860Y162082D01*
X1378140Y163398D01*
X1380002Y165260D01*
X1381319Y167540D01*
X1382000Y170084D01*
Y172717D01*
X1381319Y175260D01*
X1380002Y177540D01*
X1378140Y179402D01*
X1375860Y180718D01*
X1373316Y181400D01*
D02*
G37*
G36*
X459696Y168023D02*
X458304D01*
X457017Y167490D01*
X456033Y166505D01*
X455500Y165219D01*
Y163826D01*
X456033Y162540D01*
X457017Y161556D01*
X458304Y161023D01*
X459696D01*
X460983Y161556D01*
X461967Y162540D01*
X462500Y163826D01*
Y165219D01*
X461967Y166505D01*
X460983Y167490D01*
X459696Y168023D01*
D02*
G37*
G36*
X291597Y163480D02*
X289020D01*
Y160903D01*
X290039Y161325D01*
X291175Y162461D01*
X291597Y163480D01*
D02*
G37*
G36*
X286480D02*
X283903D01*
X284325Y162461D01*
X285462Y161325D01*
X286480Y160903D01*
Y163480D01*
D02*
G37*
G36*
X261196Y167750D02*
X259804D01*
X258517Y167217D01*
X257533Y166233D01*
X257000Y164946D01*
Y163554D01*
X257533Y162267D01*
X258517Y161283D01*
X259804Y160750D01*
X261196D01*
X262483Y161283D01*
X263467Y162267D01*
X264000Y163554D01*
Y164946D01*
X263467Y166233D01*
X262483Y167217D01*
X261196Y167750D01*
D02*
G37*
G36*
X1067496Y166060D02*
X1066104D01*
X1064817Y165527D01*
X1063833Y164543D01*
X1063300Y163256D01*
Y161864D01*
X1063833Y160577D01*
X1064817Y159593D01*
X1066104Y159060D01*
X1067496D01*
X1068783Y159593D01*
X1069767Y160577D01*
X1070300Y161864D01*
Y163256D01*
X1069767Y164543D01*
X1068783Y165527D01*
X1067496Y166060D01*
D02*
G37*
G36*
X224270Y157888D02*
Y154770D01*
X227388D01*
X226849Y156072D01*
X225572Y157349D01*
X224270Y157888D01*
D02*
G37*
G36*
X221730D02*
X220428Y157349D01*
X219151Y156072D01*
X218612Y154770D01*
X221730D01*
Y157888D01*
D02*
G37*
G36*
X1008270Y156847D02*
Y154270D01*
X1010847D01*
X1010425Y155288D01*
X1009288Y156425D01*
X1008270Y156847D01*
D02*
G37*
G36*
X1005730D02*
X1004712Y156425D01*
X1003575Y155288D01*
X1003153Y154270D01*
X1005730D01*
Y156847D01*
D02*
G37*
G36*
X930336Y160980D02*
X928944D01*
X927657Y160447D01*
X926673Y159463D01*
X926140Y158176D01*
Y156784D01*
X926673Y155497D01*
X927657Y154513D01*
X928944Y153980D01*
X930336D01*
X931623Y154513D01*
X932607Y155497D01*
X933140Y156784D01*
Y158176D01*
X932607Y159463D01*
X931623Y160447D01*
X930336Y160980D01*
D02*
G37*
G36*
X1124696Y159500D02*
X1123304D01*
X1122017Y158967D01*
X1121033Y157983D01*
X1120500Y156696D01*
Y155304D01*
X1121033Y154017D01*
X1122017Y153033D01*
X1123304Y152500D01*
X1124696D01*
X1125983Y153033D01*
X1126967Y154017D01*
X1127500Y155304D01*
Y156696D01*
X1126967Y157983D01*
X1125983Y158967D01*
X1124696Y159500D01*
D02*
G37*
G36*
X180729Y154888D02*
Y151770D01*
X183847D01*
X183308Y153072D01*
X182031Y154349D01*
X180729Y154888D01*
D02*
G37*
G36*
X178189D02*
X176887Y154349D01*
X175610Y153072D01*
X175071Y151770D01*
X178189D01*
Y154888D01*
D02*
G37*
G36*
X656016Y158440D02*
X654624D01*
X653337Y157907D01*
X652353Y156923D01*
X651820Y155636D01*
Y154244D01*
X652353Y152957D01*
X653337Y151973D01*
X654624Y151440D01*
X656016D01*
X657303Y151973D01*
X658287Y152957D01*
X658820Y154244D01*
Y155636D01*
X658287Y156923D01*
X657303Y157907D01*
X656016Y158440D01*
D02*
G37*
G36*
X1010847Y151730D02*
X1008270D01*
Y149153D01*
X1009288Y149575D01*
X1010425Y150711D01*
X1010847Y151730D01*
D02*
G37*
G36*
X1005730D02*
X1003153D01*
X1003575Y150711D01*
X1004712Y149575D01*
X1005730Y149153D01*
Y151730D01*
D02*
G37*
G36*
X227388Y152230D02*
X224270D01*
Y149112D01*
X225572Y149651D01*
X226849Y150928D01*
X227388Y152230D01*
D02*
G37*
G36*
X221730D02*
X218612D01*
X219151Y150928D01*
X220428Y149651D01*
X221730Y149112D01*
Y152230D01*
D02*
G37*
G36*
X462696Y155500D02*
X461304D01*
X460017Y154967D01*
X459033Y153983D01*
X458500Y152696D01*
Y151304D01*
X459033Y150017D01*
X460017Y149033D01*
X461304Y148500D01*
X462696D01*
X463983Y149033D01*
X464967Y150017D01*
X465500Y151304D01*
Y152696D01*
X464967Y153983D01*
X463983Y154967D01*
X462696Y155500D01*
D02*
G37*
G36*
X183847Y149230D02*
X180729D01*
Y146112D01*
X182031Y146651D01*
X183308Y147928D01*
X183847Y149230D01*
D02*
G37*
G36*
X178189D02*
X175071D01*
X175610Y147928D01*
X176887Y146651D01*
X178189Y146112D01*
Y149230D01*
D02*
G37*
G36*
X374453Y146357D02*
X373060D01*
X371774Y145824D01*
X370789Y144840D01*
X370257Y143553D01*
Y142161D01*
X370789Y140875D01*
X371774Y139890D01*
X373060Y139357D01*
X374453D01*
X375739Y139890D01*
X375947Y140098D01*
X376784Y140822D01*
X377606Y140098D01*
X377821Y139883D01*
X379107Y139350D01*
X380499D01*
X381786Y139883D01*
X382770Y140867D01*
X383303Y142154D01*
Y143546D01*
X382770Y144833D01*
X381786Y145817D01*
X380499Y146350D01*
X379107D01*
X377821Y145817D01*
X377613Y145610D01*
X376776Y144885D01*
X375954Y145610D01*
X375739Y145824D01*
X374453Y146357D01*
D02*
G37*
G36*
X433770Y140347D02*
Y137770D01*
X436347D01*
X435925Y138788D01*
X434788Y139925D01*
X433770Y140347D01*
D02*
G37*
G36*
X431230D02*
X430211Y139925D01*
X429075Y138788D01*
X428653Y137770D01*
X431230D01*
Y140347D01*
D02*
G37*
G36*
X410270Y139847D02*
Y137270D01*
X412847D01*
X412425Y138288D01*
X411288Y139425D01*
X410270Y139847D01*
D02*
G37*
G36*
X407730D02*
X406712Y139425D01*
X405575Y138288D01*
X405153Y137270D01*
X407730D01*
Y139847D01*
D02*
G37*
G36*
X459696Y143500D02*
X458304D01*
X457017Y142967D01*
X456033Y141983D01*
X455500Y140696D01*
Y139304D01*
X456033Y138017D01*
X457017Y137033D01*
X458304Y136500D01*
X459696D01*
X460983Y137033D01*
X461967Y138017D01*
X462500Y139304D01*
Y140696D01*
X461967Y141983D01*
X460983Y142967D01*
X459696Y143500D01*
D02*
G37*
G36*
X1373316Y156000D02*
X1370683D01*
X1368140Y155318D01*
X1365860Y154002D01*
X1363998Y152140D01*
X1362681Y149860D01*
X1362000Y147317D01*
Y144684D01*
X1362681Y142140D01*
X1363998Y139860D01*
X1365860Y137998D01*
X1368140Y136681D01*
X1370683Y136000D01*
X1373316D01*
X1375860Y136681D01*
X1378140Y137998D01*
X1380002Y139860D01*
X1381319Y142140D01*
X1382000Y144684D01*
Y147317D01*
X1381319Y149860D01*
X1380002Y152140D01*
X1378140Y154002D01*
X1375860Y155318D01*
X1373316Y156000D01*
D02*
G37*
G36*
X294270Y138347D02*
Y135770D01*
X296847D01*
X296425Y136788D01*
X295288Y137925D01*
X294270Y138347D01*
D02*
G37*
G36*
X291730D02*
X290711Y137925D01*
X289575Y136788D01*
X289153Y135770D01*
X291730D01*
Y138347D01*
D02*
G37*
G36*
X241770Y137347D02*
Y134770D01*
X244347D01*
X243925Y135788D01*
X242789Y136925D01*
X241770Y137347D01*
D02*
G37*
G36*
X239230D02*
X238211Y136925D01*
X237075Y135788D01*
X236653Y134770D01*
X239230D01*
Y137347D01*
D02*
G37*
G36*
X436347Y135230D02*
X433770D01*
Y132653D01*
X434788Y133075D01*
X435925Y134212D01*
X436347Y135230D01*
D02*
G37*
G36*
X431230D02*
X428653D01*
X429075Y134212D01*
X430211Y133075D01*
X431230Y132653D01*
Y135230D01*
D02*
G37*
G36*
X412847Y134730D02*
X410270D01*
Y132153D01*
X411288Y132575D01*
X412425Y133712D01*
X412847Y134730D01*
D02*
G37*
G36*
X407730D02*
X405153D01*
X405575Y133712D01*
X406712Y132575D01*
X407730Y132153D01*
Y134730D01*
D02*
G37*
G36*
X375247Y134043D02*
Y131466D01*
X377824D01*
X377402Y132485D01*
X376266Y133621D01*
X375247Y134043D01*
D02*
G37*
G36*
X372707D02*
X371689Y133621D01*
X370552Y132485D01*
X370131Y131466D01*
X372707D01*
Y134043D01*
D02*
G37*
G36*
X296847Y133230D02*
X294270D01*
Y130653D01*
X295288Y131075D01*
X296425Y132212D01*
X296847Y133230D01*
D02*
G37*
G36*
X291730D02*
X289153D01*
X289575Y132212D01*
X290711Y131075D01*
X291730Y130653D01*
Y133230D01*
D02*
G37*
G36*
X244347Y132230D02*
X241770D01*
Y129653D01*
X242789Y130075D01*
X243925Y131212D01*
X244347Y132230D01*
D02*
G37*
G36*
X239230D02*
X236653D01*
X237075Y131212D01*
X238211Y130075D01*
X239230Y129653D01*
Y132230D01*
D02*
G37*
G36*
X1008270Y130847D02*
Y128270D01*
X1010847D01*
X1010425Y129289D01*
X1009288Y130425D01*
X1008270Y130847D01*
D02*
G37*
G36*
X1005730D02*
X1004712Y130425D01*
X1003575Y129289D01*
X1003153Y128270D01*
X1005730D01*
Y130847D01*
D02*
G37*
G36*
X217270Y130347D02*
Y127770D01*
X219847D01*
X219425Y128788D01*
X218288Y129925D01*
X217270Y130347D01*
D02*
G37*
G36*
X214730D02*
X213711Y129925D01*
X212575Y128788D01*
X212153Y127770D01*
X214730D01*
Y130347D01*
D02*
G37*
G36*
X377824Y128926D02*
X375247D01*
Y126349D01*
X376266Y126771D01*
X377402Y127908D01*
X377824Y128926D01*
D02*
G37*
G36*
X372707D02*
X370131D01*
X370552Y127908D01*
X371689Y126771D01*
X372707Y126349D01*
Y128926D01*
D02*
G37*
G36*
X464337Y130410D02*
X462944D01*
X461658Y129878D01*
X460673Y128893D01*
X460140Y127607D01*
Y126214D01*
X460673Y124928D01*
X461658Y123943D01*
X462944Y123411D01*
X464337D01*
X465623Y123943D01*
X466608Y124928D01*
X467140Y126214D01*
Y127607D01*
X466608Y128893D01*
X465623Y129878D01*
X464337Y130410D01*
D02*
G37*
G36*
X1010847Y125730D02*
X1008270D01*
Y123153D01*
X1009288Y123575D01*
X1010425Y124712D01*
X1010847Y125730D01*
D02*
G37*
G36*
X1005730D02*
X1003153D01*
X1003575Y124712D01*
X1004712Y123575D01*
X1005730Y123153D01*
Y125730D01*
D02*
G37*
G36*
X219847Y125230D02*
X217270D01*
Y122653D01*
X218288Y123075D01*
X219425Y124212D01*
X219847Y125230D01*
D02*
G37*
G36*
X214730D02*
X212153D01*
X212575Y124212D01*
X213711Y123075D01*
X214730Y122653D01*
Y125230D01*
D02*
G37*
G36*
X1121696Y129500D02*
X1120304D01*
X1119017Y128967D01*
X1118033Y127983D01*
X1117500Y126696D01*
Y125304D01*
X1118033Y124017D01*
X1119017Y123033D01*
X1120304Y122500D01*
X1121696D01*
X1122983Y123033D01*
X1123967Y124017D01*
X1124500Y125304D01*
Y126696D01*
X1123967Y127983D01*
X1122983Y128967D01*
X1121696Y129500D01*
D02*
G37*
G36*
X891696Y120500D02*
X890304D01*
X889017Y119967D01*
X888033Y118983D01*
X887500Y117696D01*
Y116304D01*
X888033Y115017D01*
X889017Y114033D01*
X890304Y113500D01*
X891696D01*
X892983Y114033D01*
X893967Y115017D01*
X894500Y116304D01*
Y117696D01*
X893967Y118983D01*
X892983Y119967D01*
X891696Y120500D01*
D02*
G37*
G36*
X1067496Y120340D02*
X1066104D01*
X1064817Y119807D01*
X1063833Y118823D01*
X1063300Y117536D01*
Y116144D01*
X1063833Y114857D01*
X1064817Y113873D01*
X1066104Y113340D01*
X1067496D01*
X1068783Y113873D01*
X1069767Y114857D01*
X1070300Y116144D01*
Y117536D01*
X1069767Y118823D01*
X1068783Y119807D01*
X1067496Y120340D01*
D02*
G37*
G36*
X462196Y119116D02*
X460804D01*
X459517Y118583D01*
X458533Y117599D01*
X458000Y116312D01*
Y114920D01*
X458533Y113633D01*
X459517Y112649D01*
X460804Y112116D01*
X462196D01*
X463483Y112649D01*
X464467Y113633D01*
X465000Y114920D01*
Y116312D01*
X464467Y117599D01*
X463483Y118583D01*
X462196Y119116D01*
D02*
G37*
G36*
X1373316Y130600D02*
X1370683D01*
X1368140Y129918D01*
X1365860Y128602D01*
X1363998Y126740D01*
X1362681Y124460D01*
X1362000Y121917D01*
Y119284D01*
X1362681Y116740D01*
X1363998Y114460D01*
X1365860Y112598D01*
X1368140Y111281D01*
X1370683Y110600D01*
X1373316D01*
X1375860Y111281D01*
X1378140Y112598D01*
X1380002Y114460D01*
X1381319Y116740D01*
X1382000Y119284D01*
Y121917D01*
X1381319Y124460D01*
X1380002Y126740D01*
X1378140Y128602D01*
X1375860Y129918D01*
X1373316Y130600D01*
D02*
G37*
G36*
X438696Y116500D02*
X437304D01*
X436017Y115967D01*
X435033Y114983D01*
X434500Y113696D01*
Y112304D01*
X435033Y111017D01*
X436017Y110033D01*
X437304Y109500D01*
X438696D01*
X439983Y110033D01*
X440967Y111017D01*
X441500Y112304D01*
Y113696D01*
X440967Y114983D01*
X439983Y115967D01*
X438696Y116500D01*
D02*
G37*
G36*
X258696Y116000D02*
X257304D01*
X256017Y115467D01*
X255033Y114483D01*
X254500Y113196D01*
Y111804D01*
X255033Y110517D01*
X256017Y109533D01*
X257304Y109000D01*
X258696D01*
X259983Y109533D01*
X260967Y110517D01*
X261500Y111804D01*
Y113196D01*
X260967Y114483D01*
X259983Y115467D01*
X258696Y116000D01*
D02*
G37*
G36*
X1008270Y108117D02*
Y105540D01*
X1010847D01*
X1010425Y106559D01*
X1009288Y107695D01*
X1008270Y108117D01*
D02*
G37*
G36*
X1005730D02*
X1004712Y107695D01*
X1003575Y106559D01*
X1003153Y105540D01*
X1005730D01*
Y108117D01*
D02*
G37*
G36*
X400696Y110500D02*
X399304D01*
X398017Y109967D01*
X397033Y108983D01*
X396500Y107696D01*
Y106304D01*
X397033Y105017D01*
X398017Y104033D01*
X399304Y103500D01*
X400696D01*
X401983Y104033D01*
X402967Y105017D01*
X403500Y106304D01*
Y107696D01*
X402967Y108983D01*
X401983Y109967D01*
X400696Y110500D01*
D02*
G37*
G36*
X1010847Y103000D02*
X1008270D01*
Y100423D01*
X1009288Y100845D01*
X1010425Y101981D01*
X1010847Y103000D01*
D02*
G37*
G36*
X1005730D02*
X1003153D01*
X1003575Y101981D01*
X1004712Y100845D01*
X1005730Y100423D01*
Y103000D01*
D02*
G37*
G36*
X114472Y107104D02*
X113080D01*
X111793Y106571D01*
X110809Y105587D01*
X110276Y104300D01*
Y102908D01*
X110809Y101622D01*
X111793Y100637D01*
X113080Y100104D01*
X114472D01*
X115758Y100637D01*
X116743Y101622D01*
X117276Y102908D01*
Y104300D01*
X116743Y105587D01*
X115758Y106571D01*
X114472Y107104D01*
D02*
G37*
G36*
X287256Y107040D02*
X285864D01*
X284577Y106507D01*
X283593Y105523D01*
X283060Y104236D01*
Y102844D01*
X283593Y101557D01*
X284577Y100573D01*
X285864Y100040D01*
X287256D01*
X288543Y100573D01*
X289527Y101557D01*
X290060Y102844D01*
Y104236D01*
X289527Y105523D01*
X288543Y106507D01*
X287256Y107040D01*
D02*
G37*
G36*
X238996D02*
X237604D01*
X236317Y106507D01*
X235333Y105523D01*
X234800Y104236D01*
Y102844D01*
X235333Y101557D01*
X236317Y100573D01*
X237604Y100040D01*
X238996D01*
X240283Y100573D01*
X241267Y101557D01*
X241800Y102844D01*
Y104236D01*
X241267Y105523D01*
X240283Y106507D01*
X238996Y107040D01*
D02*
G37*
G36*
X188196D02*
X186804D01*
X185517Y106507D01*
X184533Y105523D01*
X184000Y104236D01*
Y102844D01*
X184533Y101557D01*
X185517Y100573D01*
X186804Y100040D01*
X188196D01*
X189483Y100573D01*
X190467Y101557D01*
X191000Y102844D01*
Y104236D01*
X190467Y105523D01*
X189483Y106507D01*
X188196Y107040D01*
D02*
G37*
G36*
X164946D02*
X163554D01*
X162267Y106507D01*
X161283Y105523D01*
X160750Y104236D01*
Y102844D01*
X161283Y101557D01*
X162267Y100573D01*
X163554Y100040D01*
X164946D01*
X166233Y100573D01*
X167217Y101557D01*
X167750Y102844D01*
Y104236D01*
X167217Y105523D01*
X166233Y106507D01*
X164946Y107040D01*
D02*
G37*
G36*
X139936D02*
X138544D01*
X137257Y106507D01*
X136273Y105523D01*
X135740Y104236D01*
Y102844D01*
X136273Y101557D01*
X137257Y100573D01*
X138544Y100040D01*
X139936D01*
X141223Y100573D01*
X142207Y101557D01*
X142740Y102844D01*
Y104236D01*
X142207Y105523D01*
X141223Y106507D01*
X139936Y107040D01*
D02*
G37*
G36*
X210946Y107000D02*
X209554D01*
X208267Y106467D01*
X207283Y105483D01*
X206750Y104196D01*
Y102804D01*
X207283Y101517D01*
X208267Y100533D01*
X209554Y100000D01*
X210946D01*
X212233Y100533D01*
X213217Y101517D01*
X213750Y102804D01*
Y104196D01*
X213217Y105483D01*
X212233Y106467D01*
X210946Y107000D01*
D02*
G37*
G36*
X463696Y104770D02*
X462304D01*
X461017Y104237D01*
X460033Y103253D01*
X459500Y101966D01*
Y100574D01*
X460033Y99287D01*
X461017Y98303D01*
X462304Y97770D01*
X463696D01*
X464983Y98303D01*
X465967Y99287D01*
X466500Y100574D01*
Y101966D01*
X465967Y103253D01*
X464983Y104237D01*
X463696Y104770D01*
D02*
G37*
G36*
X1121696Y104500D02*
X1120304D01*
X1119017Y103967D01*
X1118033Y102983D01*
X1117500Y101696D01*
Y100304D01*
X1118033Y99017D01*
X1119017Y98033D01*
X1120304Y97500D01*
X1121696D01*
X1122983Y98033D01*
X1123967Y99017D01*
X1124500Y100304D01*
Y101696D01*
X1123967Y102983D01*
X1122983Y103967D01*
X1121696Y104500D01*
D02*
G37*
G36*
X864696Y96500D02*
X863304D01*
X862017Y95967D01*
X861033Y94983D01*
X860500Y93696D01*
Y92304D01*
X861033Y91017D01*
X862017Y90033D01*
X863304Y89500D01*
X864696D01*
X865983Y90033D01*
X866967Y91017D01*
X867500Y92304D01*
Y93696D01*
X866967Y94983D01*
X865983Y95967D01*
X864696Y96500D01*
D02*
G37*
G36*
X1373316Y105200D02*
X1370683D01*
X1368140Y104518D01*
X1365860Y103202D01*
X1363998Y101340D01*
X1362681Y99060D01*
X1362000Y96517D01*
Y93883D01*
X1362681Y91340D01*
X1363998Y89060D01*
X1365860Y87198D01*
X1368140Y85882D01*
X1370683Y85200D01*
X1373316D01*
X1375860Y85882D01*
X1378140Y87198D01*
X1380002Y89060D01*
X1381319Y91340D01*
X1382000Y93883D01*
Y96517D01*
X1381319Y99060D01*
X1380002Y101340D01*
X1378140Y103202D01*
X1375860Y104518D01*
X1373316Y105200D01*
D02*
G37*
G36*
X590696Y84500D02*
X589304D01*
X588017Y83967D01*
X587033Y82983D01*
X586500Y81696D01*
Y80304D01*
X587033Y79017D01*
X588017Y78033D01*
X589304Y77500D01*
X590696D01*
X591983Y78033D01*
X592967Y79017D01*
X593500Y80304D01*
Y81696D01*
X592967Y82983D01*
X591983Y83967D01*
X590696Y84500D01*
D02*
G37*
G36*
X364923Y82726D02*
X363530D01*
X362244Y82194D01*
X361259Y81209D01*
X360727Y79923D01*
Y78530D01*
X361259Y77244D01*
X362244Y76259D01*
X363530Y75726D01*
X364923D01*
X366209Y76259D01*
X367194Y77244D01*
X367726Y78530D01*
Y79923D01*
X367194Y81209D01*
X366209Y82194D01*
X364923Y82726D01*
D02*
G37*
G36*
X1049996Y79716D02*
X1048604D01*
X1047317Y79183D01*
X1046333Y78199D01*
X1045800Y76912D01*
Y75520D01*
X1046333Y74233D01*
X1047317Y73249D01*
X1048604Y72716D01*
X1049996D01*
X1051283Y73249D01*
X1052267Y74233D01*
X1052800Y75520D01*
Y76912D01*
X1052267Y78199D01*
X1051283Y79183D01*
X1049996Y79716D01*
D02*
G37*
G36*
X395696Y79500D02*
X394304D01*
X393017Y78967D01*
X392033Y77983D01*
X391500Y76696D01*
Y75304D01*
X392033Y74017D01*
X393017Y73033D01*
X394304Y72500D01*
X395696D01*
X396983Y73033D01*
X397967Y74017D01*
X398500Y75304D01*
Y76696D01*
X397967Y77983D01*
X396983Y78967D01*
X395696Y79500D01*
D02*
G37*
G36*
X481270Y73847D02*
Y71270D01*
X483847D01*
X483425Y72288D01*
X482289Y73425D01*
X481270Y73847D01*
D02*
G37*
G36*
X478730D02*
X477711Y73425D01*
X476575Y72288D01*
X476153Y71270D01*
X478730D01*
Y73847D01*
D02*
G37*
G36*
X430696Y78000D02*
X429304D01*
X428017Y77467D01*
X427033Y76483D01*
X426500Y75196D01*
Y73804D01*
X427033Y72517D01*
X428017Y71533D01*
X429304Y71000D01*
X430696D01*
X431983Y71533D01*
X432967Y72517D01*
X433500Y73804D01*
Y75196D01*
X432967Y76483D01*
X431983Y77467D01*
X430696Y78000D01*
D02*
G37*
G36*
X1296696Y77500D02*
X1295304D01*
X1294017Y76967D01*
X1293033Y75983D01*
X1292500Y74696D01*
Y73304D01*
X1293033Y72017D01*
X1294017Y71033D01*
X1295304Y70500D01*
X1296696D01*
X1297983Y71033D01*
X1298967Y72017D01*
X1299500Y73304D01*
Y74696D01*
X1298967Y75983D01*
X1297983Y76967D01*
X1296696Y77500D01*
D02*
G37*
G36*
X483847Y68730D02*
X481270D01*
Y66153D01*
X482289Y66575D01*
X483425Y67712D01*
X483847Y68730D01*
D02*
G37*
G36*
X478730D02*
X476153D01*
X476575Y67712D01*
X477711Y66575D01*
X478730Y66153D01*
Y68730D01*
D02*
G37*
G36*
X887696Y70500D02*
X886304D01*
X885017Y69967D01*
X884033Y68983D01*
X883500Y67696D01*
Y66304D01*
X884033Y65017D01*
X885017Y64033D01*
X886304Y63500D01*
X887696D01*
X888983Y64033D01*
X889967Y65017D01*
X890500Y66304D01*
Y67696D01*
X889967Y68983D01*
X888983Y69967D01*
X887696Y70500D01*
D02*
G37*
G36*
X1076966Y66841D02*
X1075574D01*
X1074287Y66308D01*
X1073303Y65324D01*
X1072770Y64037D01*
Y62645D01*
X1073303Y61358D01*
X1074287Y60374D01*
X1075574Y59841D01*
X1076966D01*
X1078253Y60374D01*
X1079237Y61358D01*
X1079770Y62645D01*
Y64037D01*
X1079237Y65324D01*
X1078253Y66308D01*
X1076966Y66841D01*
D02*
G37*
G36*
X925256Y61920D02*
X923864D01*
X922577Y61387D01*
X921593Y60403D01*
X921060Y59116D01*
Y57724D01*
X921593Y56437D01*
X922577Y55453D01*
X923864Y54920D01*
X925256D01*
X926543Y55453D01*
X927527Y56437D01*
X928060Y57724D01*
Y59116D01*
X927527Y60403D01*
X926543Y61387D01*
X925256Y61920D01*
D02*
G37*
G36*
X1050196Y53500D02*
X1048804D01*
X1047517Y52967D01*
X1046533Y51983D01*
X1046000Y50696D01*
Y49304D01*
X1046533Y48017D01*
X1047517Y47033D01*
X1048804Y46500D01*
X1050196D01*
X1051483Y47033D01*
X1052467Y48017D01*
X1053000Y49304D01*
Y50696D01*
X1052467Y51983D01*
X1051483Y52967D01*
X1050196Y53500D01*
D02*
G37*
G36*
X479270Y47847D02*
Y45270D01*
X481847D01*
X481425Y46288D01*
X480288Y47425D01*
X479270Y47847D01*
D02*
G37*
G36*
X476730D02*
X475712Y47425D01*
X474575Y46288D01*
X474153Y45270D01*
X476730D01*
Y47847D01*
D02*
G37*
G36*
X767776Y51760D02*
X766384D01*
X765097Y51227D01*
X764113Y50243D01*
X763580Y48956D01*
Y47564D01*
X764113Y46277D01*
X765097Y45293D01*
X766384Y44760D01*
X767776D01*
X769063Y45293D01*
X770047Y46277D01*
X770580Y47564D01*
Y48956D01*
X770047Y50243D01*
X769063Y51227D01*
X767776Y51760D01*
D02*
G37*
G36*
X255448Y66400D02*
X252552D01*
X249754Y65650D01*
X247246Y64202D01*
X245198Y62154D01*
X243750Y59646D01*
X243000Y56848D01*
Y53952D01*
X243750Y51154D01*
X245198Y48646D01*
X247246Y46598D01*
X249754Y45150D01*
X252552Y44400D01*
X255448D01*
X258246Y45150D01*
X260754Y46598D01*
X262802Y48646D01*
X264250Y51154D01*
X265000Y53952D01*
Y56848D01*
X264250Y59646D01*
X262802Y62154D01*
X260754Y64202D01*
X258246Y65650D01*
X255448Y66400D01*
D02*
G37*
G36*
X230048D02*
X227152D01*
X224354Y65650D01*
X221846Y64202D01*
X219798Y62154D01*
X218350Y59646D01*
X217600Y56848D01*
Y53952D01*
X218350Y51154D01*
X219798Y48646D01*
X221846Y46598D01*
X224354Y45150D01*
X227152Y44400D01*
X230048D01*
X232846Y45150D01*
X235354Y46598D01*
X237402Y48646D01*
X238850Y51154D01*
X239600Y53952D01*
Y56848D01*
X238850Y59646D01*
X237402Y62154D01*
X235354Y64202D01*
X232846Y65650D01*
X230048Y66400D01*
D02*
G37*
G36*
X204648D02*
X201752D01*
X198954Y65650D01*
X196446Y64202D01*
X194398Y62154D01*
X192950Y59646D01*
X192200Y56848D01*
Y53952D01*
X192950Y51154D01*
X194398Y48646D01*
X196446Y46598D01*
X198954Y45150D01*
X201752Y44400D01*
X204648D01*
X207446Y45150D01*
X209954Y46598D01*
X212002Y48646D01*
X213450Y51154D01*
X214200Y53952D01*
Y56848D01*
X213450Y59646D01*
X212002Y62154D01*
X209954Y64202D01*
X207446Y65650D01*
X204648Y66400D01*
D02*
G37*
G36*
X179248D02*
X176352D01*
X173554Y65650D01*
X171046Y64202D01*
X168998Y62154D01*
X167550Y59646D01*
X166800Y56848D01*
Y53952D01*
X167550Y51154D01*
X168998Y48646D01*
X171046Y46598D01*
X173554Y45150D01*
X176352Y44400D01*
X179248D01*
X182046Y45150D01*
X184554Y46598D01*
X186602Y48646D01*
X188050Y51154D01*
X188800Y53952D01*
Y56848D01*
X188050Y59646D01*
X186602Y62154D01*
X184554Y64202D01*
X182046Y65650D01*
X179248Y66400D01*
D02*
G37*
G36*
X153848D02*
X150952D01*
X148154Y65650D01*
X145646Y64202D01*
X143598Y62154D01*
X142150Y59646D01*
X141400Y56848D01*
Y53952D01*
X142150Y51154D01*
X143598Y48646D01*
X145646Y46598D01*
X148154Y45150D01*
X150952Y44400D01*
X153848D01*
X156646Y45150D01*
X159154Y46598D01*
X161202Y48646D01*
X162650Y51154D01*
X163400Y53952D01*
Y56848D01*
X162650Y59646D01*
X161202Y62154D01*
X159154Y64202D01*
X156646Y65650D01*
X153848Y66400D01*
D02*
G37*
G36*
X128448D02*
X125552D01*
X122754Y65650D01*
X120246Y64202D01*
X118198Y62154D01*
X116750Y59646D01*
X116000Y56848D01*
Y53952D01*
X116750Y51154D01*
X118198Y48646D01*
X120246Y46598D01*
X122754Y45150D01*
X125552Y44400D01*
X128448D01*
X131246Y45150D01*
X133754Y46598D01*
X135802Y48646D01*
X137250Y51154D01*
X138000Y53952D01*
Y56848D01*
X137250Y59646D01*
X135802Y62154D01*
X133754Y64202D01*
X131246Y65650D01*
X128448Y66400D01*
D02*
G37*
G36*
X103048D02*
X100152D01*
X97354Y65650D01*
X94846Y64202D01*
X92798Y62154D01*
X91350Y59646D01*
X90600Y56848D01*
Y53952D01*
X91350Y51154D01*
X92798Y48646D01*
X94846Y46598D01*
X97354Y45150D01*
X100152Y44400D01*
X103048D01*
X105846Y45150D01*
X108354Y46598D01*
X110402Y48646D01*
X111850Y51154D01*
X112600Y53952D01*
Y56848D01*
X111850Y59646D01*
X110402Y62154D01*
X108354Y64202D01*
X105846Y65650D01*
X103048Y66400D01*
D02*
G37*
G36*
X283900Y66456D02*
X274900D01*
X273203Y66233D01*
X271622Y65578D01*
X270264Y64536D01*
X269222Y63178D01*
X268567Y61597D01*
X268344Y59900D01*
Y50900D01*
X268567Y49203D01*
X269222Y47622D01*
X270264Y46264D01*
X271622Y45222D01*
X273203Y44567D01*
X274900Y44344D01*
X283900D01*
X285597Y44567D01*
X287178Y45222D01*
X288536Y46264D01*
X289578Y47622D01*
X290233Y49203D01*
X290456Y50900D01*
Y59900D01*
X290233Y61597D01*
X289578Y63178D01*
X288536Y64536D01*
X287178Y65578D01*
X285597Y66233D01*
X283900Y66456D01*
D02*
G37*
G36*
X460696Y49500D02*
X459304D01*
X458017Y48967D01*
X457033Y47983D01*
X456500Y46696D01*
Y45304D01*
X457033Y44017D01*
X458017Y43033D01*
X459304Y42500D01*
X460696D01*
X461983Y43033D01*
X462967Y44017D01*
X463500Y45304D01*
Y46696D01*
X462967Y47983D01*
X461983Y48967D01*
X460696Y49500D01*
D02*
G37*
G36*
X481847Y42730D02*
X479270D01*
Y40153D01*
X480288Y40575D01*
X481425Y41712D01*
X481847Y42730D01*
D02*
G37*
G36*
X476730D02*
X474153D01*
X474575Y41712D01*
X475712Y40575D01*
X476730Y40153D01*
Y42730D01*
D02*
G37*
G36*
X925256Y28900D02*
X923864D01*
X922577Y28367D01*
X921593Y27383D01*
X921060Y26096D01*
Y24704D01*
X921593Y23417D01*
X922577Y22433D01*
X923864Y21900D01*
X925256D01*
X926543Y22433D01*
X927527Y23417D01*
X928060Y24704D01*
Y26096D01*
X927527Y27383D01*
X926543Y28367D01*
X925256Y28900D01*
D02*
G37*
G36*
X1373373Y43400D02*
X1369827D01*
X1366350Y42708D01*
X1363074Y41351D01*
X1360126Y39381D01*
X1357619Y36874D01*
X1355649Y33926D01*
X1354292Y30650D01*
X1353600Y27173D01*
Y23627D01*
X1354292Y20150D01*
X1355649Y16874D01*
X1357619Y13926D01*
X1360126Y11418D01*
X1363074Y9449D01*
X1366350Y8092D01*
X1369827Y7400D01*
X1373373D01*
X1376850Y8092D01*
X1380126Y9449D01*
X1383074Y11418D01*
X1385582Y13926D01*
X1387551Y16874D01*
X1388908Y20150D01*
X1389600Y23627D01*
Y27173D01*
X1388908Y30650D01*
X1387551Y33926D01*
X1385582Y36874D01*
X1383074Y39381D01*
X1380126Y41351D01*
X1376850Y42708D01*
X1373373Y43400D01*
D02*
G37*
G36*
X27173D02*
X23627D01*
X20150Y42708D01*
X16874Y41351D01*
X13926Y39381D01*
X11418Y36874D01*
X9449Y33926D01*
X8092Y30650D01*
X7400Y27173D01*
Y23627D01*
X8092Y20150D01*
X9449Y16874D01*
X11418Y13926D01*
X13926Y11418D01*
X16874Y9449D01*
X20150Y8092D01*
X23627Y7400D01*
X27173D01*
X30650Y8092D01*
X33926Y9449D01*
X36874Y11418D01*
X39381Y13926D01*
X41351Y16874D01*
X42708Y20150D01*
X43400Y23627D01*
Y27173D01*
X42708Y30650D01*
X41351Y33926D01*
X39381Y36874D01*
X36874Y39381D01*
X33926Y41351D01*
X30650Y42708D01*
X27173Y43400D01*
D02*
G37*
%LPD*%
D15*
X718820Y353060D02*
D03*
X744220D02*
D03*
D46*
X170000Y470000D02*
D03*
X200000D02*
D03*
X50000D02*
D03*
X80000D02*
D03*
D47*
X1372000Y120600D02*
D03*
Y95200D02*
D03*
Y146000D02*
D03*
Y171400D02*
D03*
Y222200D02*
D03*
Y247600D02*
D03*
Y298400D02*
D03*
Y349200D02*
D03*
Y374600D02*
D03*
Y323800D02*
D03*
Y273000D02*
D03*
Y196800D02*
D03*
D48*
Y400000D02*
D03*
D49*
X1374140Y474980D02*
D03*
X316000Y476000D02*
D03*
X1371600Y25400D02*
D03*
D50*
X152400Y55400D02*
D03*
X228600D02*
D03*
X203200D02*
D03*
X177800D02*
D03*
X127000D02*
D03*
X101600D02*
D03*
X254000D02*
D03*
D51*
X279400D02*
D03*
D52*
X181000Y238000D02*
D03*
X409000Y136000D02*
D03*
X373757Y142857D02*
D03*
X331500Y210000D02*
D03*
X294000Y195000D02*
D03*
X254500Y207250D02*
D03*
X373977Y130196D02*
D03*
X144000Y246000D02*
D03*
X379803Y142850D02*
D03*
X153000Y247000D02*
D03*
X324338Y185390D02*
D03*
X357000Y203000D02*
D03*
X317000Y180000D02*
D03*
X98000Y260000D02*
D03*
Y251000D02*
D03*
X287750Y164750D02*
D03*
X224000Y202000D02*
D03*
X260500Y164250D02*
D03*
X463640Y126910D02*
D03*
X891446Y270810D02*
D03*
X939000Y296000D02*
D03*
X1007000Y305000D02*
D03*
X1046000Y391000D02*
D03*
X1121000Y101000D02*
D03*
X462000Y300300D02*
D03*
X463000Y326500D02*
D03*
X458964Y316402D02*
D03*
X459000Y369000D02*
D03*
X572000Y440000D02*
D03*
X957000Y319000D02*
D03*
X932000Y356000D02*
D03*
X1049300Y76216D02*
D03*
X590000Y81000D02*
D03*
X891000Y117000D02*
D03*
X864000Y93000D02*
D03*
X887000Y67000D02*
D03*
X1064000Y344000D02*
D03*
X847000Y178000D02*
D03*
X469000Y176000D02*
D03*
X465600Y198500D02*
D03*
X462000Y227000D02*
D03*
X900000Y450000D02*
D03*
X830000Y460000D02*
D03*
X767080Y48260D02*
D03*
X398112Y276112D02*
D03*
X216000Y126500D02*
D03*
X138500Y489000D02*
D03*
X229500Y489000D02*
D03*
X18500Y489000D02*
D03*
X109500Y489000D02*
D03*
X701088Y348462D02*
D03*
X639058Y349992D02*
D03*
X65450Y234452D02*
D03*
X293000Y134500D02*
D03*
X258000Y112500D02*
D03*
X673100Y370000D02*
D03*
X795020D02*
D03*
X438000Y113000D02*
D03*
X478000Y44000D02*
D03*
X460000Y46000D02*
D03*
X471000Y406000D02*
D03*
X210250Y103500D02*
D03*
X1296000Y74000D02*
D03*
X1076270Y63341D02*
D03*
X463000Y101270D02*
D03*
X461500Y115616D02*
D03*
X1007000Y104270D02*
D03*
X1049500Y50000D02*
D03*
X430000Y74500D02*
D03*
X395000Y76000D02*
D03*
X364226Y79226D02*
D03*
X400000Y107000D02*
D03*
X288500Y191500D02*
D03*
X240500Y133500D02*
D03*
X269000Y213000D02*
D03*
X383540Y298000D02*
D03*
X350000Y265000D02*
D03*
X163000Y214500D02*
D03*
X372000Y252000D02*
D03*
X259000Y229500D02*
D03*
X285898Y208898D02*
D03*
X289560Y304800D02*
D03*
X189000Y179500D02*
D03*
X164250Y103540D02*
D03*
X1285240Y431800D02*
D03*
X350520Y276860D02*
D03*
X286560Y103540D02*
D03*
X238300D02*
D03*
X460000Y291000D02*
D03*
X398112Y266112D02*
D03*
X187500Y103540D02*
D03*
X139240D02*
D03*
X113776Y103604D02*
D03*
X462000Y350918D02*
D03*
X398112Y286112D02*
D03*
X924560Y58420D02*
D03*
X929640Y157480D02*
D03*
X1066800Y162560D02*
D03*
X932180Y233680D02*
D03*
X822960Y251460D02*
D03*
X924560Y25400D02*
D03*
X896620Y172720D02*
D03*
X655320Y154940D02*
D03*
X762000Y261620D02*
D03*
X929640Y472440D02*
D03*
X665480Y431800D02*
D03*
X1066800Y116840D02*
D03*
X1007000Y127000D02*
D03*
Y153000D02*
D03*
X1066800Y187960D02*
D03*
X1064260Y215900D02*
D03*
X932180Y243840D02*
D03*
X1066800D02*
D03*
X967740Y375920D02*
D03*
X1007000Y381000D02*
D03*
X1123000Y182000D02*
D03*
X1121000Y126000D02*
D03*
X1124000Y156000D02*
D03*
X1121000Y204000D02*
D03*
X1122000Y226000D02*
D03*
Y255000D02*
D03*
X1123000Y281000D02*
D03*
X1124000Y307000D02*
D03*
X1007000Y330000D02*
D03*
X1123000D02*
D03*
X1121000Y357000D02*
D03*
X1124000Y373000D02*
D03*
X461000Y336918D02*
D03*
X460000Y265087D02*
D03*
X459000Y241000D02*
D03*
X398112Y226112D02*
D03*
X458757Y191496D02*
D03*
X459000Y164523D02*
D03*
Y215000D02*
D03*
X398112Y206112D02*
D03*
X462000Y152000D02*
D03*
X461000Y251000D02*
D03*
X463000Y275000D02*
D03*
X1007000Y356000D02*
D03*
X350000Y295000D02*
D03*
X398112Y256112D02*
D03*
Y246112D02*
D03*
Y236112D02*
D03*
Y216112D02*
D03*
Y196112D02*
D03*
Y186112D02*
D03*
X432500Y136500D02*
D03*
X459000Y140000D02*
D03*
X1007000Y280000D02*
D03*
Y254000D02*
D03*
Y229000D02*
D03*
Y203000D02*
D03*
Y178000D02*
D03*
X139000Y197500D02*
D03*
X480000Y70000D02*
D03*
D53*
X179459Y150500D02*
D03*
X223000Y153500D02*
D03*
X247612Y206013D02*
D03*
X232809Y220500D02*
D03*
M02*
