G04*
G04 #@! TF.GenerationSoftware,Altium Limited,Altium Designer,18.1.9 (240)*
G04*
G04 Layer_Color=12632256*
%FSLAX44Y44*%
%MOMM*%
G71*
G01*
G75*
%ADD54C,6.0000*%
%ADD55C,1.6000*%
%ADD56R,1.6000X1.6000*%
%ADD57C,1.6500*%
%ADD58R,1.6500X1.6500*%
%ADD59C,1.5240*%
%ADD60R,1.5240X1.5240*%
%ADD61C,1.7500*%
D54*
X-35765Y280937D02*
D03*
X643860Y528340D02*
D03*
Y13226D02*
D03*
D55*
X290400Y361250D02*
D03*
X265000D02*
D03*
X239600D02*
D03*
X203200Y0D02*
D03*
X127000D02*
D03*
X76200D02*
D03*
X25400D02*
D03*
X50800D02*
D03*
X101600D02*
D03*
X152400D02*
D03*
X177800D02*
D03*
X228600D02*
D03*
X254000D02*
D03*
X279400D02*
D03*
X304800D02*
D03*
X574410Y470000D02*
D03*
X523610D02*
D03*
X472810D02*
D03*
X498210D02*
D03*
X549010D02*
D03*
X599810D02*
D03*
X625210D02*
D03*
X497450Y529500D02*
D03*
X446650D02*
D03*
X472050D02*
D03*
X522850D02*
D03*
X548250D02*
D03*
D56*
X315800Y361250D02*
D03*
X0Y0D02*
D03*
X447410Y470000D02*
D03*
X421250Y529500D02*
D03*
D57*
X25400Y54610D02*
D03*
Y29210D02*
D03*
X0Y54610D02*
D03*
X50800Y29210D02*
D03*
Y54610D02*
D03*
X76200Y29210D02*
D03*
X101600D02*
D03*
X76200Y54610D02*
D03*
X101600D02*
D03*
D58*
X0Y29210D02*
D03*
D59*
X194000Y45500D02*
D03*
X167000D02*
D03*
X372750D02*
D03*
X345750D02*
D03*
X601300Y72020D02*
D03*
X575900D02*
D03*
D60*
X626700D02*
D03*
D61*
X-22000Y489750D02*
D03*
Y519750D02*
D03*
X-52000Y489750D02*
D03*
Y519750D02*
D03*
M02*
