G04*
G04 #@! TF.GenerationSoftware,Altium Limited,Altium Designer,23.11.1 (41)*
G04*
G04 Layer_Color=8421504*
%FSLAX44Y44*%
%MOMM*%
G71*
G04*
G04 #@! TF.SameCoordinates,5EC7E9E9-DCDC-4549-86B2-7143CB65AA8E*
G04*
G04*
G04 #@! TF.FilePolarity,Positive*
G04*
G01*
G75*
G04:AMPARAMS|DCode=15|XSize=0.3mm|YSize=1.37mm|CornerRadius=0.075mm|HoleSize=0mm|Usage=FLASHONLY|Rotation=270.000|XOffset=0mm|YOffset=0mm|HoleType=Round|Shape=RoundedRectangle|*
%AMROUNDEDRECTD15*
21,1,0.3000,1.2200,0,0,270.0*
21,1,0.1500,1.3700,0,0,270.0*
1,1,0.1500,-0.6100,-0.0750*
1,1,0.1500,-0.6100,0.0750*
1,1,0.1500,0.6100,0.0750*
1,1,0.1500,0.6100,-0.0750*
%
%ADD15ROUNDEDRECTD15*%
%ADD16R,0.9000X1.3000*%
G04:AMPARAMS|DCode=17|XSize=1.2mm|YSize=1.1mm|CornerRadius=0.275mm|HoleSize=0mm|Usage=FLASHONLY|Rotation=270.000|XOffset=0mm|YOffset=0mm|HoleType=Round|Shape=RoundedRectangle|*
%AMROUNDEDRECTD17*
21,1,1.2000,0.5500,0,0,270.0*
21,1,0.6500,1.1000,0,0,270.0*
1,1,0.5500,-0.2750,-0.3250*
1,1,0.5500,-0.2750,0.3250*
1,1,0.5500,0.2750,0.3250*
1,1,0.5500,0.2750,-0.3250*
%
%ADD17ROUNDEDRECTD17*%
G04:AMPARAMS|DCode=18|XSize=1.08mm|YSize=1.22mm|CornerRadius=0.27mm|HoleSize=0mm|Usage=FLASHONLY|Rotation=270.000|XOffset=0mm|YOffset=0mm|HoleType=Round|Shape=RoundedRectangle|*
%AMROUNDEDRECTD18*
21,1,1.0800,0.6800,0,0,270.0*
21,1,0.5400,1.2200,0,0,270.0*
1,1,0.5400,-0.3400,-0.2700*
1,1,0.5400,-0.3400,0.2700*
1,1,0.5400,0.3400,0.2700*
1,1,0.5400,0.3400,-0.2700*
%
%ADD18ROUNDEDRECTD18*%
%ADD19C,1.0000*%
%ADD20R,1.1500X1.3500*%
%ADD21R,1.0200X2.2000*%
%ADD22R,1.5000X3.5000*%
%ADD23R,1.3000X0.9000*%
%ADD24R,2.0000X3.8000*%
%ADD25R,2.0000X1.5000*%
D15*
X340000Y205000D02*
D03*
Y210000D02*
D03*
X410000Y175000D02*
D03*
Y180000D02*
D03*
Y185000D02*
D03*
Y190000D02*
D03*
Y195000D02*
D03*
Y200000D02*
D03*
Y205000D02*
D03*
Y210000D02*
D03*
Y215000D02*
D03*
Y220000D02*
D03*
Y225000D02*
D03*
Y230000D02*
D03*
Y235000D02*
D03*
Y240000D02*
D03*
Y245000D02*
D03*
Y250000D02*
D03*
Y255000D02*
D03*
Y260000D02*
D03*
Y265000D02*
D03*
Y270000D02*
D03*
Y275000D02*
D03*
Y280000D02*
D03*
Y285000D02*
D03*
Y290000D02*
D03*
X340000Y175000D02*
D03*
Y180000D02*
D03*
Y185000D02*
D03*
Y190000D02*
D03*
Y195000D02*
D03*
Y200000D02*
D03*
Y215000D02*
D03*
Y220000D02*
D03*
Y225000D02*
D03*
Y230000D02*
D03*
Y235000D02*
D03*
Y240000D02*
D03*
Y245000D02*
D03*
Y250000D02*
D03*
Y255000D02*
D03*
Y260000D02*
D03*
Y265000D02*
D03*
Y270000D02*
D03*
Y275000D02*
D03*
Y280000D02*
D03*
Y285000D02*
D03*
Y290000D02*
D03*
D16*
X429750Y125000D02*
D03*
X410750D02*
D03*
X452000Y115616D02*
D03*
X471000D02*
D03*
X452000Y141016D02*
D03*
X471000D02*
D03*
Y166416D02*
D03*
X452000D02*
D03*
Y191816D02*
D03*
X471000D02*
D03*
X452000Y217216D02*
D03*
X471000D02*
D03*
X452000Y242616D02*
D03*
X471000D02*
D03*
X452000Y268016D02*
D03*
X471000D02*
D03*
X452000Y369616D02*
D03*
X471000D02*
D03*
X452000Y395016D02*
D03*
X471000D02*
D03*
X64840Y249000D02*
D03*
X83840D02*
D03*
X166500Y245250D02*
D03*
X147500D02*
D03*
X410500Y147000D02*
D03*
X429500D02*
D03*
X981100Y127000D02*
D03*
X1000100D02*
D03*
X981100Y152400D02*
D03*
X1000100D02*
D03*
X981100Y177800D02*
D03*
X1000100D02*
D03*
X981100Y203200D02*
D03*
X1000100D02*
D03*
X981100Y228600D02*
D03*
X1000100D02*
D03*
X981100Y254000D02*
D03*
X1000100D02*
D03*
X981100Y279400D02*
D03*
X1000100D02*
D03*
X981100Y304800D02*
D03*
X1000100D02*
D03*
X981100Y330200D02*
D03*
X1000100D02*
D03*
X981100Y355600D02*
D03*
X1000100D02*
D03*
X981100Y381000D02*
D03*
X1000100D02*
D03*
X452000Y90216D02*
D03*
X471000D02*
D03*
X981100Y101600D02*
D03*
X1000100D02*
D03*
X316840Y304800D02*
D03*
X297840D02*
D03*
X452500Y67000D02*
D03*
X471500D02*
D03*
X452500Y44000D02*
D03*
X471500D02*
D03*
X452000Y293420D02*
D03*
X471000D02*
D03*
X452000Y318820D02*
D03*
X471000D02*
D03*
X452000Y344216D02*
D03*
X471000D02*
D03*
D17*
X1088000Y383000D02*
D03*
X1109000D02*
D03*
X1088000Y103600D02*
D03*
X1109000D02*
D03*
X1088000Y129000D02*
D03*
X1109000D02*
D03*
X1088000Y154400D02*
D03*
X1109000D02*
D03*
X1088000Y179800D02*
D03*
X1109000D02*
D03*
X1088000Y205200D02*
D03*
X1109000D02*
D03*
X1088000Y230600D02*
D03*
X1109000D02*
D03*
X1088000Y256000D02*
D03*
X1109000D02*
D03*
X1088000Y281400D02*
D03*
X1109000D02*
D03*
X1088000Y306800D02*
D03*
X1109000D02*
D03*
X1088000Y332200D02*
D03*
X1109000D02*
D03*
X1088000Y357600D02*
D03*
X1109000D02*
D03*
D18*
X1241650Y386050D02*
D03*
X1224850D02*
D03*
X1218010Y411450D02*
D03*
X1234810D02*
D03*
X1241650Y360650D02*
D03*
X1224850D02*
D03*
X1241650Y259050D02*
D03*
X1224850D02*
D03*
X1241650Y284450D02*
D03*
X1224850D02*
D03*
X1241650Y309850D02*
D03*
X1224850D02*
D03*
X1241650Y335250D02*
D03*
X1224850D02*
D03*
X1241650Y132050D02*
D03*
X1224850D02*
D03*
Y157450D02*
D03*
X1241650D02*
D03*
Y182850D02*
D03*
X1224850D02*
D03*
X1241650Y208250D02*
D03*
X1224850D02*
D03*
X1241650Y55850D02*
D03*
X1224850D02*
D03*
Y81250D02*
D03*
X1241650D02*
D03*
Y106650D02*
D03*
X1224850D02*
D03*
X1241650Y233650D02*
D03*
X1224850D02*
D03*
D19*
X1198500Y360750D02*
D03*
Y386150D02*
D03*
Y284550D02*
D03*
Y335350D02*
D03*
Y309950D02*
D03*
Y81350D02*
D03*
Y106750D02*
D03*
Y132150D02*
D03*
Y157550D02*
D03*
Y182950D02*
D03*
Y208350D02*
D03*
Y233750D02*
D03*
Y259150D02*
D03*
X101661Y76750D02*
D03*
X126687D02*
D03*
X152400D02*
D03*
X177125Y76525D02*
D03*
X203200Y76750D02*
D03*
X229000D02*
D03*
X254000D02*
D03*
X279400Y76200D02*
D03*
X320113Y239500D02*
D03*
X300000Y150000D02*
D03*
X222500Y215000D02*
D03*
X297000Y117000D02*
D03*
X252925Y188500D02*
D03*
X337000Y313000D02*
D03*
X272000Y127000D02*
D03*
X242000Y146000D02*
D03*
D20*
X1171000Y308200D02*
D03*
X1152500D02*
D03*
X1171000Y333600D02*
D03*
X1152500D02*
D03*
X1171000Y359000D02*
D03*
X1152500D02*
D03*
X1171000Y384400D02*
D03*
X1152500D02*
D03*
X1171000Y155800D02*
D03*
X1152500D02*
D03*
X1171000Y130400D02*
D03*
X1152500D02*
D03*
X1171000Y105000D02*
D03*
X1152500D02*
D03*
X1171000Y181200D02*
D03*
X1152500D02*
D03*
X1171000Y206600D02*
D03*
X1152500D02*
D03*
X1171000Y232000D02*
D03*
X1152500D02*
D03*
X1171000Y257400D02*
D03*
X1152500D02*
D03*
X1171000Y282800D02*
D03*
X1152500D02*
D03*
X1030500Y230750D02*
D03*
X1049000D02*
D03*
X1030500Y256150D02*
D03*
X1049000D02*
D03*
X1030500Y281550D02*
D03*
X1049000D02*
D03*
X1030500Y306950D02*
D03*
X1049000D02*
D03*
X1030500Y332350D02*
D03*
X1049000D02*
D03*
X1030500Y357750D02*
D03*
X1049000D02*
D03*
X1030500Y383150D02*
D03*
X1049000D02*
D03*
X1030500Y408550D02*
D03*
X1049000D02*
D03*
X1030500Y103750D02*
D03*
X1049000D02*
D03*
X1030500Y78350D02*
D03*
X1049000D02*
D03*
X213250Y230000D02*
D03*
X194750D02*
D03*
X361250Y150000D02*
D03*
X342750D02*
D03*
Y130000D02*
D03*
X361250D02*
D03*
X1030500Y129150D02*
D03*
X1049000D02*
D03*
X1030500Y154550D02*
D03*
X1049000D02*
D03*
X1030500Y179950D02*
D03*
X1049000D02*
D03*
X1030500Y205350D02*
D03*
X1049000D02*
D03*
X1049200Y52150D02*
D03*
X1030700D02*
D03*
X263750Y197000D02*
D03*
X282250D02*
D03*
X263750Y175000D02*
D03*
X282250D02*
D03*
X283250Y154000D02*
D03*
X264750D02*
D03*
D21*
X130000Y277000D02*
D03*
X170000D02*
D03*
X70000D02*
D03*
X110000D02*
D03*
X150000Y423000D02*
D03*
X130000D02*
D03*
X90000D02*
D03*
X150000Y277000D02*
D03*
X90000D02*
D03*
X170000Y423000D02*
D03*
X110000D02*
D03*
X70000D02*
D03*
D22*
X880000Y50000D02*
D03*
X820000D02*
D03*
X630000D02*
D03*
X570000D02*
D03*
X690000D02*
D03*
X750000D02*
D03*
X770000Y150000D02*
D03*
X830000D02*
D03*
X630000D02*
D03*
X690000D02*
D03*
X810000Y250000D02*
D03*
X870000D02*
D03*
X670000D02*
D03*
X730000D02*
D03*
X625800Y347980D02*
D03*
X685800D02*
D03*
X770000Y350000D02*
D03*
X830000D02*
D03*
X570000Y450000D02*
D03*
X630000D02*
D03*
X820000D02*
D03*
X880000D02*
D03*
X700000D02*
D03*
X760000D02*
D03*
D23*
X307000Y182500D02*
D03*
Y201500D02*
D03*
X270000Y224750D02*
D03*
Y243750D02*
D03*
X301000Y219500D02*
D03*
Y238500D02*
D03*
D24*
X347000Y70000D02*
D03*
D25*
X410000Y93000D02*
D03*
Y47000D02*
D03*
Y70000D02*
D03*
M02*
