M48
;Layer_Color=9474304
;FILE_FORMAT=4:4
METRIC,LZ
;TYPE=PLATED
T1F00S00C0.2000
T2F00S00C0.3000
T3F00S00C0.5000
T4F00S00C0.6000
T5F00S00C0.8000
T6F00S00C1.0000
T7F00S00C1.0200
T8F00S00C1.1000
T9F00S00C1.2000
T10F00S00C1.3000
T11F00S00C1.4000
T12F00S00C1.5000
T13F00S00C3.0000
T14F00S00C3.0000
T15F00S00C4.2000
%
T01
X00316Y00036
X00333Y0003
X00749Y00261
X0087Y003
X00935Y0029
X00973Y00346
X01124Y00342
X01162Y00248
X01156Y00217
X0112875Y00213027
X0112275Y00093
X01097309Y00067948
X01101Y00062
X01103Y00055
X01152
X00972944Y000345
X00952363
X00934771Y00012337
X00973Y00012
X0123Y00255
X0122Y0032825
X01224Y00364
X01233Y003905
X01264Y0039
X0132493Y00390563
X01329Y00339
X0136Y00286
X01539Y00251
X01548Y00247
X01566Y00252
X01593545Y00251378
X01598Y00267
X01614Y00274
X01665Y00234
X01671Y00209
X01678Y00184
X013765Y0040025
X0136075Y00439
X0137025Y0046125
X0134775
X01326Y00464
X013055Y0046375
X01282Y00464
X01269Y004645
X01245Y00464
X012365Y00444
X0123175Y0042675
X012345Y0040225
X0122075Y004085
X0128825Y0040875
X0128264Y0042486
X0127464
X0130975Y004125
X0132575Y0041175
X013285Y004455
X0143775Y0047425
Y004825
Y0049025
Y0049775
X0144925Y00498
Y0049025
X01449Y004825
Y004745
T02
X00186648Y00089636
X00246936Y00089825
X00274Y0008725
X003025Y0006675
X0029425Y001555
X0027025Y0017425
X0023425Y00183
X001915Y001835
X00202Y00212
X00226Y00219
X00252Y00134
X00333Y00211
X0036575Y001845
X0050675Y00329
X0063Y002725
X00657Y0028325
X00673Y00283
X0069175Y0027625
X00716Y0027575
X00705Y0031025
X00745Y0034
X00739Y0035
X007655Y00355
X007845Y0031175
X0078825Y00395
X0077675Y0012925
X007845Y000999
X00741Y0013525
X007365Y000585
X0070275Y00057
X00699Y00045
X0067675Y00052
X00676Y0008
X0071Y0006875
X0075Y00024
X0067
X00645Y00041
X00626Y0005
X006395Y00098
X0064725Y0012525
X00649Y0013725
X0064475Y0015925
X0065325Y0023975
X00876Y00257
X009325Y002725
X009775
X010125Y0027175
X0105425Y00272
X0107075
X01092Y0028
X0109375Y00305
X0107675Y0031325
X0106975Y0032975
X011115Y0032925
X0115125Y003135
X0118Y00272
X0118025Y00199
X011625Y00164
X0114675Y0014425
X01156Y0011
X01155Y0008
X01106762Y0010967
X01075Y00096
X01079Y0017875
X0106725Y002015
X0107225Y002155
X0103Y002015
X01003Y00173
X00992Y0014627
X0098Y00152
X00939Y00152
X0091975Y001405
X009225Y0017475
X00931Y0020575
X00958Y001935
X00963Y0011975
X00966Y00094
X00986
X00995Y0007
X00982Y00038
X0096325Y00041
X0095075Y0006725
X00922Y0004
X008935Y00071192
X00884869Y00101283
X008935Y0012
X0086125Y00131
X0086475Y001545
X0084475Y00114
X0080725Y000975
X007995Y0007575
X008005Y0001425
X009225Y0010075
X01005Y0012
X00992Y0024
X010525Y00365
X00872Y00378
X0085475Y0037
X0086Y0034
X00801Y00334
X0120575Y003485
X012105Y0037925
X01266Y00375
X0126675Y0035575
Y0032825
X01233
X0120325Y0031525
X0120175Y00215
X01202Y0019275
X01203Y0013025
X01253Y00134
X0125275Y0012125
X01294148Y00146456
X012955Y0017525
Y0024675
X0131475Y002465
X013295Y00251
X0133775Y0025825
X0138775Y00257
X0136875Y00303
X0134925Y00353
X01352Y00368
X0134175Y003645
X0135Y0038
X0131475Y0037775
X0130175Y00396
X013045Y00341
X01314375Y00322375
X01432Y0036
X01453Y0035275
X01444Y003875
X01422Y00388
X0149275Y00348
X01482699Y00259447
X0148875Y0019575
X0145625Y001745
X01428Y0020208
X0143625Y0021575
X0144Y0029
X0141925Y0014525
X014015Y0011775
X0144725Y00125
X01457Y00102
X01538Y00128
X0153175Y00167
X015325Y0018075
X01347Y0013425
X0134725Y0012125
X01302Y0007
X01594Y00119
X0159574Y0020042
X01614Y0026
X0165575Y00332
X01652Y00084
X01647Y00566
X0166Y00567
X016225Y00568
X01598Y0056825
Y006085
X016225
X0164725
X01659128Y00643212
X01573Y006085
X01548017Y00608503
X01523Y0060825
X015135Y0063425
X0151875Y0065525
X0150775Y0058125
X01523Y0056825
X0154775Y00569
X0156125Y0057175
X0155925Y0058875
X0156775Y005335
X0157975Y0052775
X0150625Y0051875
X015035Y0055625
X014615Y0053025
X01446Y00544
X01447Y0058125
X0144875Y0059425
X01461Y0059425
X0142Y00596
Y0058625
X0142425Y0060825
X0140175Y0052533
X01389Y005065
X0138625Y0048675
X01424Y0048525
X01414Y00466
X0144275Y0046275
X0145375Y0044175
X0149075Y00463
X0149Y0048525
X01437Y00505
X0136Y005
X01365Y0052
X0132375Y0053225
X0127925Y00544
X012785Y00562
X01277Y005205
X0127725Y00508
X01295332Y00502831
X01288Y00494
X0120375Y00591504
X0119125Y00598
X011915Y00582
X0118175Y00576
X0116625Y00416
X01025Y004
X0101325Y003975
X00986Y0040175
X009925Y0044
X0076Y004195
X0039335Y00632685
T03
X00263Y00121
X0038Y0012
X003725Y001
X0038Y0008
X001975Y00235
X001725
X004Y001275
X0042Y0012
X004275Y001
X0042Y0008
X004Y000725
X00649Y0031125
X00731Y00393
X016765Y00394
X0168Y0012
X017Y001275
X0172Y0012
X017275Y001
X0172Y0008
X017Y000725
X0168Y0008
X016725Y001
X0168Y0058
X017Y005725
X0172Y0058
X017275Y006
X0172Y0062
X017Y006275
X0168Y0062
X016725Y006
X01568Y004365
X011525Y0058
X011325Y005725
X011125Y0058
X01105Y006
X011125Y0062
X011325Y006275
X011525Y0062
X0116Y006
X00431Y0056325
X0036425Y00582
X0028775Y00608
T04
X00339Y00658
X003136Y006834
X003644
T05
X003151Y0037435
X003659
X0101825Y005436
Y006198
X0063725Y005055
X0043405
X0053565Y006579
X003659Y0042515
X003405
T06
X004517Y0004435
Y0009515
Y0012545
Y0017625
X005025
X005279
X005533
X005787
Y0012545
X005533
X005279
X005025
Y0009515
X005279
X005533
X005787
Y0004435
X005533
X005279
X005025
X0160515Y004835
X01664Y00491
Y004656
Y005164
X0157975Y004835
X0155435
T07
X0176725Y0040475
Y0043475
Y0046475
Y0049475
Y0052475
Y0055475
Y0058475
Y0061475
X0024875Y0066625
X0021875
X0013025
X0010025
X00035Y006375
Y006075
X00035Y005275
Y004975
T08
X0067305Y001415
X0069845
X00805Y002723
Y002977
X00835
Y002723
X00929Y003773
X009575Y003775
X009925Y003652
Y003398
X0102Y003398
Y003652
X01015Y001577
Y001323
X01045
Y001577
Y000927
Y000673
X01015
Y000927
X008837Y00049
X008583
X0109155Y0019775
X0111695
X0157225Y002875
X0151425Y003768
X0159765Y002875
X01724Y003796
Y00405
X016162Y0043425
X015908
X015985Y006475
X016239
X016225Y006775
X015971
X016479
X015717
X015463
X015477Y006475
X015731
X0151425Y004022
X009575Y004029
X00929Y004027
X00865Y004196
Y00445
X00835
Y004196
T09
X001012Y000375
Y000675
X001312
Y000375
Y000975
Y001275
X001012
Y000975
X00091016Y002025
Y002325
Y002625
Y002925
X015427Y0009497
X015677
Y0006997
X015423
X01555Y00056
X0173Y0016
X01755
Y00185
X0173
Y0021
Y00235
X01755
Y0021
Y0026
X0173
Y00285
Y0031
X01755
Y00285
Y00335
X0173
X014015Y0063185
X013715
Y0066185
X014015
X014315Y0067125
X013415
X0127275Y0065125
X0124775
X0122275
X0119775
T10
X01716195Y002475
T11
X0123525Y0066465
T12
X0174825Y0037325
Y0064325
X0028025Y0064725
X0018925
X0016175
X0007075
X00054Y00669
Y00578
X00054Y00559
X00054Y00468
X001875Y004725
X002975
T13
X00058Y00059
Y00106
T14
X00046016Y002249
Y00271
T15
X004Y001
X017
Y006
X011325
M30
