G04*
G04 #@! TF.GenerationSoftware,Altium Limited,Altium Designer,22.11.1 (43)*
G04*
G04 Layer_Physical_Order=2*
G04 Layer_Color=16711680*
%FSLAX44Y44*%
%MOMM*%
G71*
G04*
G04 #@! TF.SameCoordinates,096F9F2E-17F2-48AE-9279-630666160F90*
G04*
G04*
G04 #@! TF.FilePolarity,Positive*
G04*
G01*
G75*
%ADD10C,0.2000*%
%ADD15C,0.5000*%
%ADD17R,1.3500X1.1500*%
%ADD18C,2.0000*%
%ADD21R,1.1500X1.3500*%
%ADD25R,0.9000X1.3000*%
%ADD26R,1.3000X0.9000*%
%ADD59C,1.6000*%
%ADD60R,1.6000X1.6000*%
%ADD61C,1.8000*%
G04:AMPARAMS|DCode=62|XSize=1.8mm|YSize=1.8mm|CornerRadius=0.45mm|HoleSize=0mm|Usage=FLASHONLY|Rotation=270.000|XOffset=0mm|YOffset=0mm|HoleType=Round|Shape=RoundedRectangle|*
%AMROUNDEDRECTD62*
21,1,1.8000,0.9000,0,0,270.0*
21,1,0.9000,1.8000,0,0,270.0*
1,1,0.9000,-0.4500,-0.4500*
1,1,0.9000,-0.4500,0.4500*
1,1,0.9000,0.4500,0.4500*
1,1,0.9000,0.4500,-0.4500*
%
%ADD62ROUNDEDRECTD62*%
%ADD63C,1.2000*%
G04:AMPARAMS|DCode=64|XSize=2mm|YSize=2mm|CornerRadius=0.5mm|HoleSize=0mm|Usage=FLASHONLY|Rotation=180.000|XOffset=0mm|YOffset=0mm|HoleType=Round|Shape=RoundedRectangle|*
%AMROUNDEDRECTD64*
21,1,2.0000,1.0000,0,0,180.0*
21,1,1.0000,2.0000,0,0,180.0*
1,1,1.0000,-0.5000,0.5000*
1,1,1.0000,0.5000,0.5000*
1,1,1.0000,0.5000,-0.5000*
1,1,1.0000,-0.5000,-0.5000*
%
%ADD64ROUNDEDRECTD64*%
%ADD65C,3.0000*%
%ADD66C,1.5000*%
%ADD67C,0.7000*%
%ADD68C,0.5000*%
%ADD69C,1.0000*%
G04:AMPARAMS|DCode=70|XSize=0.65mm|YSize=1.25mm|CornerRadius=0.1625mm|HoleSize=0mm|Usage=FLASHONLY|Rotation=90.000|XOffset=0mm|YOffset=0mm|HoleType=Round|Shape=RoundedRectangle|*
%AMROUNDEDRECTD70*
21,1,0.6500,0.9250,0,0,90.0*
21,1,0.3250,1.2500,0,0,90.0*
1,1,0.3250,0.4625,0.1625*
1,1,0.3250,0.4625,-0.1625*
1,1,0.3250,-0.4625,-0.1625*
1,1,0.3250,-0.4625,0.1625*
%
%ADD70ROUNDEDRECTD70*%
G04:AMPARAMS|DCode=71|XSize=0.3mm|YSize=1.37mm|CornerRadius=0.075mm|HoleSize=0mm|Usage=FLASHONLY|Rotation=90.000|XOffset=0mm|YOffset=0mm|HoleType=Round|Shape=RoundedRectangle|*
%AMROUNDEDRECTD71*
21,1,0.3000,1.2200,0,0,90.0*
21,1,0.1500,1.3700,0,0,90.0*
1,1,0.1500,0.6100,0.0750*
1,1,0.1500,0.6100,-0.0750*
1,1,0.1500,-0.6100,-0.0750*
1,1,0.1500,-0.6100,0.0750*
%
%ADD71ROUNDEDRECTD71*%
D10*
X1188500Y231500D02*
X1295000Y125000D01*
Y85000D02*
Y125000D01*
X1290000Y80000D02*
X1295000Y85000D01*
X867000Y231500D02*
X1188500D01*
X591539Y90570D02*
X615000D01*
X545000Y240000D02*
Y250000D01*
X533000Y228000D02*
X545000Y240000D01*
X789500Y475000D02*
X975000D01*
X1229500Y250000D02*
X1230000Y250500D01*
Y265000D01*
X655000Y140000D02*
Y170000D01*
X625000Y175000D02*
Y182500D01*
Y175000D02*
X635000Y165000D01*
X695000Y292500D02*
X705529D01*
X710000Y296971D01*
X695000Y292500D02*
X695500Y293000D01*
X672500Y127371D02*
X675000Y124871D01*
X670000Y129871D02*
X672500Y127371D01*
X601556Y311556D02*
X605000Y315000D01*
X601556Y302556D02*
Y311556D01*
X595000Y296000D02*
X601556Y302556D01*
X585000Y283000D02*
Y325000D01*
X618351Y358351D02*
X647470D01*
X585000Y325000D02*
X618351Y358351D01*
X580000Y279500D02*
X581500D01*
X585000Y283000D01*
X647470Y358351D02*
X650500Y355321D01*
X580000Y275312D02*
Y279500D01*
X780402Y400000D02*
X1315000D01*
X1335000Y340000D02*
Y380000D01*
X1315000Y400000D02*
X1335000Y380000D01*
X1319500Y324500D02*
X1335000Y340000D01*
X1319500Y250000D02*
Y324500D01*
X1219250Y299250D02*
X1230000D01*
X1212650Y279957D02*
Y292650D01*
X1219250Y299250D01*
X1211694Y279000D02*
X1212650Y279957D01*
X595000Y270000D02*
Y296000D01*
X725000Y55000D02*
X745000Y35000D01*
X695000Y130000D02*
Y182500D01*
X725000Y55000D02*
Y100000D01*
X695000Y130000D02*
X725000Y100000D01*
X675000Y120000D02*
Y124871D01*
X430000Y275000D02*
Y350000D01*
Y265000D02*
Y275000D01*
X410000Y295000D02*
X430000Y275000D01*
X355000Y250000D02*
X375000D01*
X540000Y285000D02*
Y290000D01*
X554307Y404307D02*
X555000Y405000D01*
X542000Y404307D02*
X554307D01*
X532915Y395222D02*
X542000Y404307D01*
X524125Y395222D02*
X532915D01*
X532631Y404722D02*
X562909Y435000D01*
X520000D02*
X562909D01*
X570000Y442091D01*
X532569Y470000D02*
X550000D01*
X528016Y474554D02*
X532569Y470000D01*
X527931Y474554D02*
X528016D01*
X340000Y165000D02*
X360000D01*
X331556Y187909D02*
Y196556D01*
X330000Y185000D02*
Y186353D01*
X331556Y196556D02*
X335000Y200000D01*
X330000Y186353D02*
X331556Y187909D01*
X275000Y420000D02*
X275550Y419450D01*
X315950D01*
X316500Y418900D01*
X316035Y378426D02*
Y392300D01*
X295000Y357391D02*
X316035Y378426D01*
X295000Y340000D02*
Y357391D01*
X240000Y319000D02*
X291000Y370000D01*
X301000Y380000D01*
X265000Y370000D02*
X291000D01*
X285000Y395000D02*
X305300D01*
X316500Y406200D01*
X415000Y390000D02*
X425000Y380000D01*
Y380000D02*
Y380000D01*
X475000Y370000D02*
X477500Y367500D01*
Y342500D02*
X480000Y340000D01*
X477500Y342500D02*
Y367500D01*
X500000Y290750D02*
Y300000D01*
X520000Y290000D02*
X525000Y295000D01*
Y315000D01*
X520500Y185500D02*
Y204500D01*
X520000Y185000D02*
X520500Y185500D01*
Y204500D02*
X521000Y205000D01*
X370000Y375000D02*
X370039Y374961D01*
X383000D01*
X388383Y369578D01*
X399910D01*
X425000Y366314D02*
X485000Y306314D01*
X425000Y366314D02*
Y380000D01*
X475000Y280000D02*
Y310657D01*
X406512Y379145D02*
X475000Y310657D01*
X485000Y270000D02*
Y306314D01*
X240000Y205000D02*
X250000Y195000D01*
X264444D01*
X615000Y280000D02*
Y305000D01*
X617173Y277827D02*
X624673D01*
X615000Y305000D02*
X625000Y315000D01*
X605000Y276000D02*
X610000Y271000D01*
X605000Y276000D02*
Y290000D01*
X615000Y280000D02*
X617173Y277827D01*
X560000Y359343D02*
Y359393D01*
X581021Y380414D02*
Y380464D01*
X560000Y359393D02*
X581021Y380414D01*
X436500Y265000D02*
X460000Y288500D01*
X465000Y270000D02*
X475000Y280000D01*
X430000Y265000D02*
X436500D01*
X460000Y435000D02*
X500000D01*
X439222Y414222D02*
X460000Y435000D01*
X420000Y360000D02*
X430000Y350000D01*
X595000Y270000D02*
X602500Y262500D01*
X625000D01*
X614278Y267500D02*
X625000D01*
X490000Y260000D02*
X520000Y290000D01*
X610778Y271000D02*
X614278Y267500D01*
X610000Y271000D02*
X610778D01*
X721186Y272500D02*
X726000Y277314D01*
X695000Y272500D02*
X721186D01*
X695000Y262500D02*
X722500D01*
X734000Y274000D01*
X695000Y277500D02*
X707500D01*
X721843Y267500D02*
X730000Y275657D01*
X695000Y267500D02*
X721843D01*
X742000Y316343D02*
X785657Y360000D01*
X746000Y314686D02*
X785314Y354000D01*
X722000Y324627D02*
X781373Y384000D01*
X726000Y322971D02*
X783029Y380000D01*
X730000Y321314D02*
X782686Y374000D01*
X734000Y319657D02*
X784343Y370000D01*
X738000Y318000D02*
X784000Y364000D01*
X754000Y311373D02*
X771877Y329250D01*
X750000Y313029D02*
X786971Y350000D01*
X730000Y275657D02*
Y321314D01*
X707500Y277500D02*
X722000Y292000D01*
Y324627D01*
X714000Y295314D02*
Y327941D01*
X706186Y287500D02*
X714000Y295314D01*
X726000Y277314D02*
Y322971D01*
X710000Y296971D02*
Y329598D01*
X706843Y282500D02*
X718000Y293657D01*
X734000Y274000D02*
Y319657D01*
X738000Y272343D02*
Y318000D01*
X718000Y293657D02*
Y326284D01*
X695000Y282500D02*
X706843D01*
X687173Y297827D02*
X694673D01*
X695000Y297500D01*
Y287500D02*
X706186D01*
X669500Y357000D02*
X673000Y360500D01*
X669500Y335000D02*
Y349500D01*
X673000Y360500D02*
X675000D01*
X669500Y355000D02*
Y357000D01*
X685000Y300000D02*
X687173Y297827D01*
X625000Y297500D02*
X652500D01*
X625000Y287500D02*
X662500D01*
X647688Y272500D02*
X649188Y274000D01*
X650000D01*
X625000Y272500D02*
X647688D01*
X625000Y282500D02*
X667500D01*
X624673Y277827D02*
X625000Y277500D01*
Y292500D02*
X657500D01*
X823250Y297500D02*
X831250Y289500D01*
X795000Y270000D02*
Y285250D01*
X779000Y299250D02*
X779826D01*
X780000D02*
X781000D01*
X758000Y276424D02*
X774250Y292674D01*
X781000Y299250D02*
X795000Y285250D01*
X774250Y292674D02*
Y294500D01*
X779000Y299250D01*
X771877Y329250D02*
X820000D01*
X823250Y297500D02*
Y307500D01*
X786971Y350000D02*
X843435D01*
X1059250Y164000D02*
Y165000D01*
X1065000Y250000D02*
Y284250D01*
X977907Y276967D02*
Y281343D01*
X1050312Y250000D02*
X1065000D01*
X977907Y276967D02*
X980000Y274874D01*
X885000Y250000D02*
Y284250D01*
X980000Y249640D02*
Y274874D01*
X805750Y80000D02*
Y94250D01*
X790828Y109172D02*
X805750Y94250D01*
X815000Y250000D02*
X850500D01*
X869500D02*
X885000D01*
X850500Y248000D02*
Y250000D01*
X885000D02*
X940500D01*
X850500Y248000D02*
X867000Y231500D01*
X998250Y207500D02*
X1035000Y170750D01*
X1040750Y165000D02*
Y166000D01*
X1050000Y99250D02*
Y178500D01*
X1049000Y99250D02*
X1050000D01*
X1035000Y170750D02*
X1036000D01*
X1040750Y166000D01*
X1016000Y212500D02*
X1050000Y178500D01*
X1014250Y89500D02*
Y119000D01*
X1040000Y90250D02*
X1049000Y99250D01*
X869500Y50000D02*
Y52000D01*
X779500Y50000D02*
X850500D01*
X779500Y48000D02*
Y50000D01*
Y52000D01*
X869500Y50000D02*
X940500D01*
X791565Y55000D02*
X815750D01*
X1049952Y249640D02*
X1050312Y250000D01*
X959860Y249640D02*
X980000D01*
X1030952D01*
X959500Y250000D02*
X959860Y249640D01*
X855000Y170750D02*
X856000D01*
X852500Y192500D02*
X869500Y175500D01*
X838250Y187500D02*
X855000Y170750D01*
X879250Y164000D02*
Y165000D01*
X860750D02*
Y166000D01*
X856000Y170750D02*
X860750Y166000D01*
X799250Y150000D02*
X820000Y129250D01*
X869500Y99750D02*
Y175500D01*
X879250Y164000D02*
X924250Y119000D01*
X950000Y90000D02*
X954250Y94250D01*
X950000Y61500D02*
X959500Y52000D01*
X954250Y94250D02*
Y95250D01*
X932500Y202500D02*
X960000Y175000D01*
X950000Y61500D02*
Y90000D01*
X954250Y95250D02*
X959000Y100000D01*
X945000Y170750D02*
X946000D01*
X950750Y165000D02*
Y166000D01*
X946000Y170750D02*
X950750Y166000D01*
X960000Y100000D02*
Y175000D01*
X831250Y70500D02*
X834250D01*
X815750Y55000D02*
X831250Y70500D01*
X959500Y50000D02*
X1030500D01*
X969250Y164000D02*
X1014250Y119000D01*
X969250Y164000D02*
Y165000D01*
X959500Y50000D02*
Y52000D01*
X860000Y89250D02*
X864250Y93500D01*
X860000Y61500D02*
Y89250D01*
X864250Y93500D02*
Y94500D01*
X869500Y99750D01*
X860000Y61500D02*
X869500Y52000D01*
X918250Y197500D02*
X945000Y170750D01*
X924250Y89500D02*
Y119000D01*
X770000Y61500D02*
X779500Y52000D01*
X770000Y61500D02*
Y89250D01*
X774250Y93500D02*
Y94500D01*
X774593Y109172D02*
X790828D01*
X774250Y94500D02*
X779000Y99250D01*
X780000Y66565D02*
X791565Y55000D01*
X779000Y99250D02*
X780000D01*
Y66565D02*
Y80750D01*
X770000Y89250D02*
X774250Y93500D01*
X1040000Y60000D02*
Y90250D01*
Y60000D02*
X1045000Y55000D01*
X370026Y404722D02*
X532631D01*
X364222Y414222D02*
X439222D01*
X710000Y329598D02*
X780402Y400000D01*
X718000Y326284D02*
X781716Y390000D01*
X714000Y327941D02*
X780059Y394000D01*
X675000Y360500D02*
X789500Y475000D01*
X355000Y360000D02*
X420000D01*
X392251Y379145D02*
X406512D01*
X399642Y274500D02*
X407571Y266571D01*
X335000Y220000D02*
X375000Y180000D01*
X335000Y220000D02*
Y230000D01*
X264444Y195000D02*
X326000Y256556D01*
X240000Y205000D02*
Y319000D01*
X379500Y274500D02*
X399642D01*
X355000Y250000D02*
X379500Y274500D01*
X353985Y388681D02*
X370026Y404722D01*
X350000Y400000D02*
X364222Y414222D01*
X521000Y236000D02*
X530000Y245000D01*
X578000Y234500D02*
X580000D01*
Y260500D02*
X582000D01*
X560000Y235000D02*
X570000Y245000D01*
X580000Y234500D02*
X582000D01*
X445436Y224564D02*
X446010Y223990D01*
X420000Y248339D02*
X443775Y224564D01*
X420000Y240000D02*
Y248339D01*
X435000Y205000D02*
Y225000D01*
X420000Y240000D02*
X435000Y225000D01*
X443775Y224564D02*
X445436D01*
X445000Y260000D02*
X490000D01*
X560000Y190000D02*
Y235000D01*
X565000Y205000D02*
X580000Y190000D01*
X565000Y221500D02*
X578000Y234500D01*
X565000Y205000D02*
Y221500D01*
X533000Y205000D02*
Y228000D01*
X521000Y205000D02*
Y236000D01*
X843435Y350000D02*
X870000Y323435D01*
Y299250D02*
Y323435D01*
Y299250D02*
X871000D01*
X875750Y294500D01*
X913250Y297500D02*
Y307500D01*
Y297500D02*
X921250Y289500D01*
X875750Y293500D02*
Y294500D01*
Y293500D02*
X885000Y284250D01*
X1003750Y297500D02*
X1011657Y289593D01*
X960000Y299250D02*
Y333435D01*
X909000Y329250D02*
X910000D01*
X1089000D02*
X1090000D01*
X1055750Y293500D02*
X1065000Y284250D01*
X1093250Y297500D02*
Y307500D01*
X1055750Y293500D02*
Y294500D01*
X1051000Y299250D02*
X1055750Y294500D01*
X1050000Y299250D02*
X1051000D01*
X1050000D02*
Y333435D01*
X961000Y299250D02*
X965750Y294500D01*
X960000Y299250D02*
X961000D01*
X965750Y293500D02*
X977907Y281343D01*
X965750Y293500D02*
Y294500D01*
X1013435Y370000D02*
X1050000Y333435D01*
X1044250Y374000D02*
X1089000Y329250D01*
X785657Y360000D02*
X933435D01*
X964250Y364000D02*
X999000Y329250D01*
X782686Y374000D02*
X1044250D01*
X784343Y370000D02*
X1013435D01*
X933435Y360000D02*
X960000Y333435D01*
X884250Y354000D02*
X909000Y329250D01*
X785314Y354000D02*
X884250D01*
X784000Y364000D02*
X964250D01*
X999000Y329250D02*
X1000000D01*
X1003750Y297500D02*
Y307500D01*
X745000Y35000D02*
X764500D01*
X774000Y44500D01*
X776000D01*
X750000Y254343D02*
Y313029D01*
X760000Y50500D02*
X760500Y50000D01*
X760000Y50500D02*
Y94578D01*
X776000Y44500D02*
X779500Y48000D01*
X742000Y257657D02*
Y316343D01*
X746000Y256000D02*
Y314686D01*
X695000Y222500D02*
X1097500D01*
X420000Y248339D02*
Y265000D01*
X405000Y190000D02*
X430000Y165000D01*
X695000Y252500D02*
X736843D01*
X695000Y202500D02*
X932500D01*
X695000Y197500D02*
X918250D01*
X695000Y187500D02*
X838250D01*
X695000Y232500D02*
X739471D01*
X695000Y242500D02*
X738157D01*
X695000Y237500D02*
X738814D01*
X695000Y217500D02*
X1078250D01*
X695000Y212500D02*
X1016000D01*
X695000Y207500D02*
X998250D01*
X695000Y247500D02*
X737500D01*
X695000Y192500D02*
X852500D01*
X695000Y257500D02*
X723157D01*
X430000Y165000D02*
X517108D01*
X580000Y215500D02*
X600000D01*
X590828Y175828D02*
X605000Y190000D01*
X560000D02*
X574172Y175828D01*
X590828D01*
X603000Y212500D02*
X625000D01*
X600000Y215500D02*
X603000Y212500D01*
X760000Y94578D02*
X774593Y109172D01*
X723157Y257500D02*
X738000Y272343D01*
X715000Y150000D02*
X799250D01*
X738157Y242500D02*
X750000Y254343D01*
X738814Y237500D02*
X754000Y252686D01*
X739471Y232500D02*
X758000Y251029D01*
X795000Y270000D02*
X815000Y250000D01*
X737500Y247500D02*
X746000Y256000D01*
X754000Y252686D02*
Y311373D01*
X736843Y252500D02*
X742000Y257657D01*
X758000Y251029D02*
Y276424D01*
X670000Y129871D02*
Y225000D01*
X582000Y260500D02*
X590000Y252500D01*
X602000Y232500D02*
X625000D01*
X600000Y242500D02*
X625000D01*
X600000Y234500D02*
X602000Y232500D01*
X589000Y227500D02*
X625000D01*
X598000Y234500D02*
X600000D01*
X590000Y252500D02*
X625000D01*
X587500Y245000D02*
X598000Y234500D01*
X582000D02*
X589000Y227500D01*
X590000Y252500D02*
X600000Y242500D01*
X570000Y245000D02*
X587500D01*
X652500Y257500D02*
X670000Y275000D01*
X652500Y237500D02*
X670000Y255000D01*
X625000Y237500D02*
X652500D01*
X625000Y187500D02*
X637500D01*
X625000Y257500D02*
X652500D01*
X637500Y187500D02*
X655000Y170000D01*
X625000Y207500D02*
X652500D01*
X654250Y209250D01*
X625000Y212500D02*
X657500D01*
X517108Y165000D02*
X591539Y90570D01*
X1275000Y475000D02*
X1290000Y460000D01*
X1230000Y475000D02*
X1275000D01*
X1268172Y131078D02*
X1270000Y129250D01*
X1177500Y227500D02*
X1268172Y136828D01*
X695000Y227500D02*
X1177500D01*
X1268172Y131078D02*
Y136828D01*
X1140000Y99250D02*
Y180000D01*
X1097500Y222500D02*
X1140000Y180000D01*
X1130750Y165000D02*
Y166000D01*
X1125000Y170750D02*
X1126000D01*
X1130750Y166000D01*
X1078250Y217500D02*
X1125000Y170750D01*
X1059250Y164000D02*
X1104250Y119000D01*
Y89500D02*
Y119000D01*
X1271000Y110750D02*
X1275750Y106000D01*
Y95000D02*
X1281250Y89500D01*
X1275750Y95000D02*
Y106000D01*
X1270000Y110750D02*
X1271000D01*
X1281250Y89500D02*
X1284250D01*
X1149250Y164000D02*
X1194250Y119000D01*
X1149250Y164000D02*
Y165000D01*
X1194250Y89500D02*
Y119000D01*
X1130000Y59500D02*
X1139500Y50000D01*
X1130000Y90250D02*
X1139000Y99250D01*
X1130000Y59500D02*
Y90250D01*
X1139000Y99250D02*
X1140000D01*
X1049500Y50000D02*
X1120500D01*
X1139500D02*
X1210500D01*
X1280000Y80000D02*
X1290000D01*
X1250000Y50000D02*
X1280000Y80000D01*
X1229500Y50000D02*
X1250000D01*
X1065000Y250000D02*
X1120500D01*
X1155000D02*
X1210500D01*
X1139500D02*
X1155000D01*
X1145750Y293500D02*
X1155000Y284250D01*
Y250000D02*
Y284250D01*
X1140000Y299250D02*
X1141000D01*
X1145750Y294500D01*
Y293500D02*
Y294500D01*
X1229500Y250000D02*
X1300500D01*
X780059Y394000D02*
X1146000D01*
X1190000Y350000D01*
X1248250D01*
X1269000Y329250D01*
X1270000D01*
X781716Y390000D02*
X1138250D01*
X1229000Y299250D01*
X1124250Y384000D02*
X1179000Y329250D01*
X781373Y384000D02*
X1124250D01*
X1179000Y329250D02*
X1180000D01*
X783029Y380000D02*
X1114435D01*
X1140000Y354435D01*
Y299250D02*
Y354435D01*
X1183250Y297500D02*
Y307500D01*
Y297500D02*
X1191250Y289500D01*
X1093250Y297500D02*
X1101250Y289500D01*
X1273250Y297500D02*
Y307500D01*
Y297500D02*
X1281250Y289500D01*
D15*
X391391Y343550D02*
G03*
X389941Y345000I-1450J0D01*
G01*
X345444Y411000D02*
X345500D01*
X358000Y425500D02*
X360000D01*
X356000Y421500D02*
Y423500D01*
X339000Y351541D02*
Y404556D01*
X345444Y411000D01*
X356000Y423500D02*
X358000Y425500D01*
X345500Y411000D02*
X356000Y421500D01*
X340000Y350000D02*
Y350541D01*
X339000Y351541D02*
X340000Y350541D01*
X565000Y275500D02*
Y300000D01*
Y275500D02*
X575500Y265000D01*
X495000Y245556D02*
X514444Y265000D01*
X575500D01*
X577750Y262750D02*
X580000Y260500D01*
X575500Y265000D02*
X577750Y262750D01*
X575500Y260500D02*
X580000D01*
X230000Y43200D02*
Y62320D01*
X25000Y140000D02*
Y237771D01*
X20000Y242771D02*
Y340000D01*
Y242771D02*
X25000Y237771D01*
X62870Y98800D02*
X66000Y95670D01*
X60000Y125000D02*
X62870Y122130D01*
Y98800D02*
Y122130D01*
Y372870D02*
Y384660D01*
X60000Y370000D02*
X62870Y372870D01*
Y384660D02*
X66000Y387790D01*
Y405290D01*
X975000Y475000D02*
X1025000D01*
X1230000D01*
X1150000Y125000D02*
X1165750Y109250D01*
Y80000D02*
Y109250D01*
X1105000Y160000D02*
X1120293Y144707D01*
X895750Y80000D02*
Y103682D01*
X888275Y111158D02*
X895750Y103682D01*
X795383Y72633D02*
X802750Y80000D01*
X795383Y65383D02*
Y72633D01*
X825000Y160000D02*
X845000Y140000D01*
Y78250D02*
Y140000D01*
X391100Y490000D02*
X1370000D01*
X230000Y62320D02*
Y130000D01*
X465000Y224500D02*
X479500D01*
X555000Y310000D02*
X565000Y300000D01*
Y300000D02*
Y300000D01*
X85870Y75800D02*
X189655D01*
X66000Y95670D02*
X85870Y75800D01*
X1360000Y90000D02*
X1380000D01*
X650500Y355321D02*
Y418287D01*
Y355000D02*
Y355321D01*
X575000Y310000D02*
Y350000D01*
X565000Y300000D02*
X575000Y310000D01*
Y350000D02*
X634600Y409600D01*
X650500Y335000D02*
Y355000D01*
X634600Y409600D02*
Y430000D01*
X902700Y450000D02*
X940000D01*
X1197250Y270500D02*
X1198000Y269750D01*
Y267929D02*
X1200929Y265000D01*
X1213250D02*
X1229000Y280750D01*
X1194250Y270500D02*
X1197250D01*
X1198000Y267929D02*
Y269750D01*
X1200929Y265000D02*
X1213250D01*
X1230000Y280750D02*
X1231000D01*
X1229000D02*
X1230000D01*
X235000Y5000D02*
X1365000D01*
X1390000Y30000D01*
X224500Y15500D02*
X235000Y5000D01*
X224500Y15500D02*
Y37700D01*
X230000Y43200D01*
X240000Y50400D02*
Y52320D01*
X230000Y62320D02*
X240000Y52320D01*
X284261Y25000D02*
X292261Y17000D01*
X240000Y25000D02*
X284261D01*
X672000Y17000D02*
X710000Y55000D01*
X292261Y17000D02*
X672000D01*
X359880Y144040D02*
X379470D01*
X630000Y105000D02*
X685556D01*
X545000Y190000D02*
X630000Y105000D01*
X685556D02*
X710000Y80556D01*
Y55000D02*
Y80556D01*
X545000Y190000D02*
Y205000D01*
X230000Y130000D02*
X244040Y144040D01*
X370000Y220000D02*
X398000D01*
X403000Y225000D01*
X405000D01*
X570000Y425000D02*
X575000D01*
X595000Y445000D01*
Y415000D02*
Y445000D01*
Y410000D02*
Y415000D01*
X555000Y310000D02*
Y335000D01*
X460750Y471000D02*
X469750Y480000D01*
X460750Y470000D02*
Y471000D01*
X469750Y480000D02*
X470000D01*
X470250Y480250D01*
X505941Y470000D02*
X510000D01*
X495691Y480250D02*
X505941Y470000D01*
X470250Y480250D02*
X495691D01*
X685200Y430200D02*
Y459800D01*
Y430200D02*
X685400Y430000D01*
X685000Y460000D02*
X685200Y459800D01*
X634800D02*
X635000Y460000D01*
X634800Y430200D02*
Y459800D01*
X634600Y430000D02*
X634800Y430200D01*
X660000Y430000D02*
Y485000D01*
X805000Y430000D02*
X815000Y440000D01*
X674570Y79570D02*
X675000Y80000D01*
X685000Y90000D01*
X675000Y60000D02*
Y80000D01*
X467000Y205500D02*
X490500D01*
X465000D02*
X467000D01*
X463000D02*
X465000D01*
X467000D02*
X490000Y182500D01*
Y180000D02*
Y182500D01*
X509010Y144040D02*
X525960D01*
X545000Y125000D01*
Y105000D02*
Y125000D01*
X276000Y469250D02*
X279250Y472500D01*
Y472985D02*
X292766Y486500D01*
X275000Y469250D02*
X276000D01*
X279250Y472500D02*
Y472985D01*
X292766Y486500D02*
X384700D01*
X230000Y445000D02*
Y470000D01*
Y130000D02*
Y445000D01*
X245000D01*
X502024Y353500D02*
Y368377D01*
X515000Y340000D02*
Y340523D01*
X502024Y353500D02*
X515000Y340523D01*
X500400Y370000D02*
X502024Y368377D01*
X391391Y343550D02*
X391770D01*
X370000Y345000D02*
X389941D01*
X289866Y493500D02*
X387599D01*
X250000Y490000D02*
X286366D01*
X230000Y470000D02*
X250000Y490000D01*
X286366D02*
X289866Y493500D01*
X269540Y144040D02*
X335960D01*
X509010Y79570D02*
X674570D01*
X329000Y336000D02*
Y415500D01*
Y336000D02*
X345000Y320000D01*
X360000Y444500D02*
X360000Y444500D01*
X329000Y415500D02*
X358000Y444500D01*
X439142Y195000D02*
X451510Y207368D01*
X463000Y224500D02*
X465000D01*
X451510Y207368D02*
Y213010D01*
X463000Y224500D01*
X330000Y185000D02*
X349459D01*
X356012Y178447D01*
X356553D01*
X555000Y370000D02*
X595000Y410000D01*
X251500Y109000D02*
X253500D01*
Y128000D02*
X268708D01*
X244040Y144040D02*
X269540D01*
X253500Y128000D02*
X269540Y144040D01*
X251500Y128000D02*
X253500D01*
X268708Y109000D02*
X285916D01*
X253500D02*
X268708D01*
X253500D02*
X282500Y80000D01*
X295215Y79785D02*
X358935D01*
X335960Y144040D02*
X357880D01*
X319000Y161000D02*
X335960Y144040D01*
X379470Y125040D02*
X380014Y124496D01*
X359150Y79570D02*
X380559D01*
X358515Y110000D02*
Y124405D01*
X380014Y111555D02*
Y124496D01*
X387729Y111555D02*
X388087Y111913D01*
X361880Y148040D02*
X390000Y176160D01*
Y191000D01*
X380014Y111555D02*
X387729D01*
X380014Y98614D02*
Y111555D01*
Y98614D02*
X380559Y98070D01*
X357880Y144040D02*
X359880D01*
X357880Y125040D02*
X358515Y124405D01*
X359880Y144040D02*
X361880Y146040D01*
Y148040D01*
X316459Y128000D02*
X319459Y125000D01*
X320000D01*
X285916Y128000D02*
X316459D01*
X268708D02*
X285916D01*
X358515Y98705D02*
X359150Y98070D01*
X350000Y110000D02*
X358515D01*
Y98705D02*
Y110000D01*
X358935Y79785D02*
X359150Y79570D01*
X282500Y80000D02*
X295000D01*
X310024Y109000D02*
X314917Y113893D01*
X295000Y80000D02*
X295215Y79785D01*
X285916Y109000D02*
X310024D01*
X314917Y113893D02*
X315458D01*
X479250Y469000D02*
X495159Y453091D01*
X479250Y469000D02*
Y470000D01*
X447500D02*
X460750D01*
X438000Y444000D02*
X440000D01*
X439726Y463274D02*
X440000Y463000D01*
X442000D02*
X444000Y465000D01*
X440000Y463000D02*
X442000D01*
X419274Y470000D02*
X426000Y463274D01*
X444000Y465000D02*
Y466500D01*
X419757Y425757D02*
X438000Y444000D01*
X444000Y466500D02*
X447500Y470000D01*
X426000Y463274D02*
X439726D01*
X525800Y370000D02*
X555000D01*
X495159Y453091D02*
X586909D01*
X595000Y445000D01*
X418000Y325500D02*
X420000D01*
X418000Y344500D02*
X420000D01*
X652500Y297500D02*
X657500Y292500D01*
X650500Y299500D02*
X652500Y297500D01*
X650500Y299500D02*
Y335000D01*
X669500Y315500D02*
X685000Y300000D01*
X669500Y315500D02*
Y335000D01*
X657500Y292500D02*
X662500Y287500D01*
X667500Y282500D01*
X831250Y289500D02*
X834250D01*
X805750Y280000D02*
Y293709D01*
X805375Y280375D02*
X805750Y280000D01*
X670000Y275000D02*
Y280000D01*
X667500Y282500D02*
X670000Y280000D01*
X800000Y299459D02*
X805750Y293709D01*
X800000Y299459D02*
Y300000D01*
X840000Y309750D02*
Y340000D01*
X820000Y310750D02*
X823250Y307500D01*
X1059250Y165000D02*
X1062500Y168250D01*
X1064722Y119722D02*
X1075750Y108694D01*
X1038843Y270593D02*
X1049000Y280750D01*
X1014657Y270593D02*
X1038843D01*
X924250Y270500D02*
X948750D01*
X959000Y280750D01*
X444784Y79570D02*
X466193D01*
X487601D01*
X466012Y98251D02*
X466193Y98070D01*
X460000Y110000D02*
X460383Y110383D01*
X464839D01*
X466012Y111555D01*
Y98251D02*
Y111555D01*
X477917Y111056D02*
X487511D01*
X423013Y98433D02*
Y111555D01*
X443592D02*
X444512D01*
X441420Y109924D02*
X441961D01*
X443592Y111555D01*
X423376Y79570D02*
X444784D01*
X423013Y98433D02*
X423376Y98070D01*
X423013Y111555D02*
X423622Y110946D01*
X429054D02*
X429437Y110563D01*
X444512Y98342D02*
Y109924D01*
X423622Y110946D02*
X429054D01*
X444512Y98342D02*
X444784Y98070D01*
X487511Y98161D02*
X487601Y98070D01*
X507838Y110383D02*
X509010Y111555D01*
X509010Y98070D02*
X509010Y98070D01*
Y111555D01*
X487601Y79570D02*
X509010D01*
X501383Y110383D02*
X507838D01*
X487511Y98161D02*
Y111056D01*
X1011250Y89500D02*
X1014250D01*
X1015000Y160000D02*
X1030619Y144381D01*
X879250Y165000D02*
Y165000D01*
X882500Y168250D01*
X820000Y110750D02*
X821000D01*
X824250Y107500D01*
Y99500D02*
X830500Y93250D01*
X824250Y99500D02*
Y107500D01*
X881250Y70500D02*
X924250D01*
X871000Y80750D02*
X881250Y70500D01*
X834250D02*
X837250D01*
X830500Y90250D02*
X831250Y89500D01*
X834250D01*
X837250Y70500D02*
X845000Y78250D01*
X802750Y80000D02*
X805750D01*
X830500Y90250D02*
Y93250D01*
X1030619Y83869D02*
Y144381D01*
X969250Y165000D02*
Y165000D01*
X961000Y81500D02*
X972000Y70500D01*
X960000Y81500D02*
X961000D01*
X985750Y80000D02*
Y114250D01*
X975000Y125000D02*
X985750Y114250D01*
X969250Y165000D02*
X972500Y168250D01*
X972000Y70500D02*
X1014250D01*
X870000Y80750D02*
X871000D01*
X924250Y70500D02*
X925000Y71250D01*
X928000D02*
X935000Y78250D01*
Y165000D01*
X921250Y89500D02*
X924250D01*
X925000Y71250D02*
X928000D01*
X1014250Y70500D02*
X1017250D01*
X1050000Y80750D02*
X1051000D01*
X1017250Y70500D02*
X1030619Y83869D01*
X401200Y470000D02*
X419274D01*
X413500Y340000D02*
X418000Y344500D01*
X660000Y427787D02*
Y430000D01*
X393806Y425757D02*
X419757D01*
X650500Y418287D02*
X660000Y427787D01*
X384700Y486500D02*
X401200Y470000D01*
X387599Y493500D02*
X391100Y490000D01*
X392138Y453091D02*
X495159D01*
X1075750Y80000D02*
Y108694D01*
X1051000Y80750D02*
X1061250Y70500D01*
X390000Y305000D02*
Y330000D01*
X373000Y310000D02*
X375000D01*
X391770Y343550D02*
X395320Y340000D01*
X388459Y329000D02*
X389459Y330000D01*
X375000Y329000D02*
X388459D01*
X389459Y330000D02*
X390000D01*
Y191000D02*
X401000Y202000D01*
X403000Y206000D02*
X405000D01*
Y225000D02*
Y255000D01*
X401000Y204000D02*
X403000Y206000D01*
X405000D02*
X407000D01*
X405000Y225000D02*
X407000D01*
X401000Y202000D02*
Y204000D01*
X395000Y265000D02*
X405000Y255000D01*
X379470Y144040D02*
X401060D01*
Y125040D02*
X401514Y124586D01*
X275375Y450375D02*
X329625D01*
X319000Y161000D02*
Y234000D01*
X265000Y235800D02*
X299200Y270000D01*
X275000Y450750D02*
X275375Y450375D01*
X265000Y210000D02*
Y235800D01*
X360000Y444500D02*
X380000D01*
X360000Y454200D02*
X375800Y470000D01*
Y469471D02*
Y470000D01*
X384700Y460529D02*
Y460571D01*
X360000Y425500D02*
X380000D01*
X380129Y425629D01*
X375800Y469471D02*
X384700Y460571D01*
X360000Y444500D02*
Y454200D01*
X380000Y444500D02*
X380500Y445000D01*
X340000Y295000D02*
X340383Y295383D01*
Y297383D01*
X353000Y310000D01*
X299200Y270000D02*
X345000D01*
X319000Y234000D02*
X390000Y305000D01*
X375000Y300000D02*
Y310000D01*
X345000Y270000D02*
X375000Y300000D01*
X360000Y425500D02*
X360000Y425500D01*
X329625Y450375D02*
X330000Y450000D01*
X358000Y444500D02*
X360000D01*
X355000Y329000D02*
X375000D01*
X345000Y320000D02*
X363000D01*
X353000Y329000D02*
X355000D01*
X363000Y320000D02*
X373000Y310000D01*
X355000D02*
X373000D01*
X340383Y341617D02*
Y349617D01*
X353000Y310000D02*
X355000D01*
X340383Y341617D02*
X353000Y329000D01*
X340000Y350000D02*
X340383Y349617D01*
X380129Y425629D02*
X393677D01*
X384700Y460529D02*
X392138Y453091D01*
X380500Y445000D02*
X395000D01*
X393677Y425629D02*
X393806Y425757D01*
X545000Y230000D02*
X575500Y260500D01*
X515000Y230000D02*
Y250000D01*
X419929Y205929D02*
Y212071D01*
X461000Y203500D02*
X463000Y205500D01*
X461000Y202929D02*
Y203500D01*
X419929Y205929D02*
X430858Y195000D01*
X439142D01*
X545000Y205000D02*
Y230000D01*
X470000Y229459D02*
Y230000D01*
X469000Y228459D02*
X470000Y229459D01*
X469000Y226500D02*
Y228459D01*
X490500Y205500D02*
X515000Y230000D01*
X479500Y224500D02*
X495000Y240000D01*
Y245556D01*
X840000Y309750D02*
X869000Y280750D01*
X858750Y270500D02*
X869000Y280750D01*
X834250Y270500D02*
X858750D01*
X910000Y310750D02*
X913250Y307500D01*
X895750Y280000D02*
Y303709D01*
X921250Y289500D02*
X924250D01*
X890000Y309459D02*
X895750Y303709D01*
X890000Y309459D02*
Y310000D01*
X1011657Y289593D02*
X1014657D01*
X1015000Y314750D02*
X1049000Y280750D01*
X925000Y314750D02*
Y350000D01*
Y314750D02*
X959000Y280750D01*
X1070000Y329459D02*
X1075750Y323709D01*
Y280000D02*
Y323709D01*
X1090000Y310750D02*
X1093250Y307500D01*
X1070000Y329459D02*
Y330000D01*
X980000Y319459D02*
Y320000D01*
X986157Y280093D02*
Y313302D01*
X980000Y319459D02*
X986157Y313302D01*
X1000000Y310750D02*
X1000500D01*
X1003750Y307500D01*
X1015000Y314750D02*
Y350000D01*
X380559Y79570D02*
X401967D01*
X413500Y330000D02*
X418000Y325500D01*
X395320Y340000D02*
X413500D01*
X390000Y330000D02*
X413500D01*
X401060Y144040D02*
X422650D01*
X407000Y206000D02*
X409000Y204000D01*
Y202929D02*
Y204000D01*
X423013Y111555D02*
Y124677D01*
X407000Y225000D02*
X419929Y212071D01*
X409000Y202929D02*
X426929Y185000D01*
X487420Y125040D02*
X487511Y124949D01*
X509010Y111555D02*
Y125040D01*
X401514Y98524D02*
X401967Y98070D01*
Y79570D02*
X423376D01*
X780000Y260000D02*
Y280750D01*
X444240Y144040D02*
X465830D01*
X487420D02*
X509010D01*
X465830D02*
X487420D01*
X422650D02*
X444240D01*
X443071Y185000D02*
X461000Y202929D01*
X422650Y125040D02*
X423013Y124677D01*
X444240Y125040D02*
X444512Y124768D01*
X426929Y185000D02*
X443071D01*
X657500Y212500D02*
X670000Y225000D01*
Y255000D02*
Y275000D01*
X654250Y209250D02*
X657500Y212500D01*
X670000Y225000D02*
Y255000D01*
X408445Y111555D02*
X408762Y111238D01*
X401514Y111555D02*
X408445D01*
X401514Y98524D02*
Y111555D01*
Y124586D01*
X487511Y111056D02*
Y124949D01*
X444512Y111555D02*
Y124768D01*
X465830Y125040D02*
X466012Y124859D01*
X509010Y125040D02*
X509010Y125040D01*
X466012Y111555D02*
Y124859D01*
X1370000Y490000D02*
X1390000Y470000D01*
X55822Y452790D02*
X107210D01*
X145000Y350000D02*
Y415000D01*
X107210Y452790D02*
X145000Y415000D01*
X10000Y406968D02*
X55822Y452790D01*
X1120293Y83543D02*
Y144707D01*
X83500Y360000D02*
Y417790D01*
Y210000D02*
Y360000D01*
X77000D02*
X83500D01*
X77000D02*
Y360541D01*
X35278Y260263D02*
X40000Y255541D01*
Y255000D02*
Y255541D01*
X35278Y260263D02*
Y339722D01*
X20000Y340000D02*
X41565Y361565D01*
X10000Y115000D02*
Y406968D01*
Y115000D02*
X26460Y98540D01*
X33130D01*
X36000Y95670D01*
X41565Y361565D02*
Y380855D01*
X66000Y405290D01*
Y41000D02*
Y65670D01*
X45000Y20000D02*
X66000Y41000D01*
X10000Y33178D02*
X23178Y20000D01*
X45000D01*
X83500Y113170D02*
Y210000D01*
X65000D02*
X83500D01*
X1284250Y70500D02*
X1305500D01*
X1335000Y100000D01*
Y245000D02*
X1360000Y270000D01*
X1335000Y100000D02*
Y245000D01*
X1390000Y30000D02*
Y80000D01*
X1380000Y90000D02*
X1390000Y80000D01*
Y90000D02*
Y470000D01*
X66000Y95670D02*
X83500Y113170D01*
X66000Y435290D02*
X83500Y417790D01*
X1274250Y386500D02*
X1280750Y380000D01*
Y360000D02*
Y380000D01*
Y360000D02*
X1296500Y344250D01*
X1221000Y360000D02*
X1280750D01*
X1274250Y386500D02*
Y387500D01*
X1271000Y390750D02*
X1274250Y387500D01*
X1270000Y390750D02*
X1271000D01*
X1210000Y371000D02*
X1221000Y360000D01*
X1230000Y475000D02*
X1270000Y435000D01*
X1061250Y70500D02*
X1104250D01*
X1107250D01*
X1120293Y83543D01*
X1101250Y89500D02*
X1104250D01*
X1191250D02*
X1194250D01*
X1151250Y70500D02*
X1194250D01*
X1141000Y80750D02*
X1151250Y70500D01*
X1140000Y80750D02*
X1141000D01*
X1194250Y70500D02*
X1197250D01*
X1210000Y83250D01*
Y171000D01*
X1252000Y80750D02*
X1252750Y80000D01*
X1252000Y80750D02*
Y83750D01*
X1252750Y80000D02*
X1255750D01*
X1234722Y101028D02*
X1252000Y83750D01*
X1234722Y101028D02*
Y130278D01*
X1289500Y271250D02*
X1300750Y282500D01*
Y341000D01*
X1297500Y344250D02*
X1300750Y341000D01*
X1270000Y409250D02*
Y435000D01*
X1120000Y299750D02*
X1139000Y280750D01*
X1120000Y299750D02*
Y361000D01*
X1180000Y310750D02*
X1183250Y307500D01*
X1191250Y289500D02*
X1194250D01*
X1101250D02*
X1104250D01*
X1231000Y280750D02*
X1241250Y270500D01*
X1284250D01*
X1104250D02*
X1128750D01*
X1139000Y280750D01*
X1160000Y329459D02*
X1165750Y323709D01*
X1160000Y329459D02*
Y330000D01*
X1165750Y280000D02*
Y323709D01*
X1240000Y339000D02*
X1255750Y323250D01*
Y280000D02*
Y323250D01*
X1270000Y310750D02*
X1273250Y307500D01*
X1281250Y289500D02*
X1284250D01*
Y270500D02*
X1285000Y271250D01*
X1289500D01*
X1296500Y344250D02*
X1297500D01*
D17*
X509010Y79570D02*
D03*
Y98070D02*
D03*
X487601Y79570D02*
D03*
Y98070D02*
D03*
X466193Y79570D02*
D03*
Y98070D02*
D03*
X444784Y79570D02*
D03*
Y98070D02*
D03*
X423376Y79570D02*
D03*
Y98070D02*
D03*
X401967Y79570D02*
D03*
Y98070D02*
D03*
X380559Y79570D02*
D03*
Y98070D02*
D03*
X359150D02*
D03*
Y79570D02*
D03*
X275000Y450750D02*
D03*
Y469250D02*
D03*
X780000Y299250D02*
D03*
Y280750D02*
D03*
X1140000Y99250D02*
D03*
Y80750D02*
D03*
X1230000Y280750D02*
D03*
X1140000D02*
D03*
X1050000D02*
D03*
X960000D02*
D03*
X870000D02*
D03*
X1050000Y80750D02*
D03*
X960000Y81500D02*
D03*
X870000Y80750D02*
D03*
X780000D02*
D03*
Y99250D02*
D03*
X820000Y110750D02*
D03*
Y129250D02*
D03*
X870000Y99250D02*
D03*
X1270000Y129250D02*
D03*
Y110750D02*
D03*
X1050000Y99250D02*
D03*
X960000Y100000D02*
D03*
X1270000Y329250D02*
D03*
Y310750D02*
D03*
X1230000Y299250D02*
D03*
X1180000Y329250D02*
D03*
Y310750D02*
D03*
X1140000Y299250D02*
D03*
X1090000Y329250D02*
D03*
Y310750D02*
D03*
X1050000Y299250D02*
D03*
X1000000Y329250D02*
D03*
Y310750D02*
D03*
X960000Y299250D02*
D03*
X910000Y329250D02*
D03*
Y310750D02*
D03*
X870000Y299250D02*
D03*
X820000Y310750D02*
D03*
Y329250D02*
D03*
X1270000Y390750D02*
D03*
Y409250D02*
D03*
D18*
X635000Y460000D02*
D03*
X685000D02*
D03*
X660000Y485000D02*
D03*
X1025000Y475000D02*
D03*
X480000Y340000D02*
D03*
X515000D02*
D03*
X300000Y445000D02*
D03*
X415000Y390000D02*
D03*
X370000Y375000D02*
D03*
Y345000D02*
D03*
X285000Y395000D02*
D03*
X275000Y85000D02*
D03*
X525000Y315000D02*
D03*
X605000D02*
D03*
X520000Y185000D02*
D03*
X675000Y60000D02*
D03*
X340000Y165000D02*
D03*
X107210Y452790D02*
D03*
X60000Y370000D02*
D03*
X240000Y75000D02*
D03*
X370000Y220000D02*
D03*
X145000Y415000D02*
D03*
X60000Y125000D02*
D03*
X245000Y445000D02*
D03*
X555000Y335000D02*
D03*
X265000Y370000D02*
D03*
X500000Y300000D02*
D03*
X555000Y405000D02*
D03*
X275000Y420000D02*
D03*
X940000Y450000D02*
D03*
X510000Y470000D02*
D03*
X595000Y415000D02*
D03*
X550000Y470000D02*
D03*
X335000Y200000D02*
D03*
X520000Y435000D02*
D03*
X375000Y250000D02*
D03*
X410000Y295000D02*
D03*
X545000Y105000D02*
D03*
X300000Y270000D02*
D03*
X540000Y285000D02*
D03*
X50000Y25000D02*
D03*
X490000Y180000D02*
D03*
X805000Y430000D02*
D03*
X295000Y340000D02*
D03*
X580000Y190000D02*
D03*
X605000D02*
D03*
X672500Y127371D02*
D03*
X1290000Y460000D02*
D03*
X580000Y355000D02*
D03*
X504640Y39370D02*
D03*
X474640D02*
D03*
X444640D02*
D03*
X414640D02*
D03*
X384640D02*
D03*
X354640D02*
D03*
X294640D02*
D03*
X324640D02*
D03*
X1360000Y420000D02*
D03*
Y390000D02*
D03*
Y360000D02*
D03*
Y330000D02*
D03*
Y300000D02*
D03*
Y270000D02*
D03*
Y240000D02*
D03*
Y210000D02*
D03*
Y180000D02*
D03*
Y150000D02*
D03*
Y90000D02*
D03*
Y120000D02*
D03*
X66000Y405290D02*
D03*
X36000D02*
D03*
Y435290D02*
D03*
Y95670D02*
D03*
X66000Y65670D02*
D03*
X36000D02*
D03*
D21*
X460750Y470000D02*
D03*
X479250D02*
D03*
X1040750Y165000D02*
D03*
X1059250D02*
D03*
X1130750D02*
D03*
X1149250D02*
D03*
X860750D02*
D03*
X879250D02*
D03*
X1319250Y315000D02*
D03*
X1300750D02*
D03*
X969250Y165000D02*
D03*
X950750D02*
D03*
D25*
X869500Y250000D02*
D03*
X850500D02*
D03*
X1210500Y50000D02*
D03*
X1229500D02*
D03*
X779500D02*
D03*
X760500D02*
D03*
X850500D02*
D03*
X869500D02*
D03*
X940500D02*
D03*
X959500D02*
D03*
X1030500D02*
D03*
X1049500D02*
D03*
X1120500D02*
D03*
X1139500D02*
D03*
X1300500Y250000D02*
D03*
X1319500D02*
D03*
X940500D02*
D03*
X959500D02*
D03*
X1030952Y249640D02*
D03*
X1049952D02*
D03*
X1120500Y250000D02*
D03*
X1139500D02*
D03*
X1210500D02*
D03*
X1229500D02*
D03*
X669500Y335000D02*
D03*
X650500D02*
D03*
X669500Y355000D02*
D03*
X650500D02*
D03*
D26*
X379470Y144040D02*
D03*
Y125040D02*
D03*
X465000Y205500D02*
D03*
Y224500D02*
D03*
X405000Y225000D02*
D03*
Y206000D02*
D03*
X509010Y125040D02*
D03*
Y144040D02*
D03*
X487420Y125040D02*
D03*
Y144040D02*
D03*
X465830Y125040D02*
D03*
Y144040D02*
D03*
X444240Y125040D02*
D03*
Y144040D02*
D03*
X422650Y125040D02*
D03*
Y144040D02*
D03*
X401060Y125040D02*
D03*
Y144040D02*
D03*
X357880D02*
D03*
Y125040D02*
D03*
X440000Y444000D02*
D03*
Y463000D02*
D03*
X251500Y109000D02*
D03*
Y128000D02*
D03*
X268708Y109000D02*
D03*
Y128000D02*
D03*
X285916Y109000D02*
D03*
Y128000D02*
D03*
X420000Y325500D02*
D03*
Y344500D02*
D03*
X375000Y329000D02*
D03*
Y310000D02*
D03*
X355000D02*
D03*
Y329000D02*
D03*
X380000Y444500D02*
D03*
Y425500D02*
D03*
X360000Y425500D02*
D03*
Y444500D02*
D03*
X580000Y279500D02*
D03*
Y260500D02*
D03*
X600000Y215500D02*
D03*
Y234500D02*
D03*
X580000Y215500D02*
D03*
Y234500D02*
D03*
D59*
X240000Y25000D02*
D03*
Y50400D02*
D03*
X189200Y25000D02*
D03*
D60*
Y75800D02*
D03*
D61*
X299600Y470000D02*
D03*
X325000D02*
D03*
X350400D02*
D03*
X375800D02*
D03*
X449600Y370000D02*
D03*
X475000D02*
D03*
X500400D02*
D03*
X902700Y450000D02*
D03*
X877300D02*
D03*
D62*
X401200Y470000D02*
D03*
X525800Y370000D02*
D03*
D63*
X26600Y375290D02*
D03*
Y465290D02*
D03*
Y125670D02*
D03*
Y35670D02*
D03*
D64*
X66000Y435290D02*
D03*
Y95670D02*
D03*
D65*
X1310000Y365000D02*
D03*
Y145000D02*
D03*
X110000Y365000D02*
D03*
Y145000D02*
D03*
D66*
X685400Y430000D02*
D03*
X634600D02*
D03*
X660000D02*
D03*
X263140Y58370D02*
D03*
X533140Y58370D02*
D03*
X1341000Y448500D02*
D03*
X1341000Y58500D02*
D03*
D67*
X501383Y110383D02*
D03*
X350000Y110000D02*
D03*
X615000Y90570D02*
D03*
X530000Y245000D02*
D03*
X320000Y125000D02*
D03*
X295000Y80000D02*
D03*
X10000Y33178D02*
D03*
X533000Y205000D02*
D03*
X485000Y270000D02*
D03*
X465000D02*
D03*
X439222Y414222D02*
D03*
X393677Y425629D02*
D03*
X515000Y250000D02*
D03*
X545000Y205000D02*
D03*
X25000Y140000D02*
D03*
X390000Y330000D02*
D03*
X340000Y350000D02*
D03*
X65000Y210000D02*
D03*
X40000Y255000D02*
D03*
X35278Y339722D02*
D03*
X145000Y350000D02*
D03*
X521000Y205000D02*
D03*
X685000Y90000D02*
D03*
X315458Y113893D02*
D03*
X356553Y178447D02*
D03*
X353985Y388681D02*
D03*
X429437Y110563D02*
D03*
X391391Y343550D02*
D03*
X545000Y250000D02*
D03*
X388087Y111913D02*
D03*
X405000Y190000D02*
D03*
X581021Y380464D02*
D03*
X540000Y290000D02*
D03*
X77000Y360000D02*
D03*
X500000Y290750D02*
D03*
X527931Y474554D02*
D03*
X560000Y359343D02*
D03*
X570000Y425000D02*
D03*
X815000Y440000D02*
D03*
X1211694Y279000D02*
D03*
X1230000Y265000D02*
D03*
X1210000Y171000D02*
D03*
X1150000Y125000D02*
D03*
X1105000Y160000D02*
D03*
X888275Y111158D02*
D03*
X795383Y65383D02*
D03*
X825000Y160000D02*
D03*
X655000Y140000D02*
D03*
X635000Y165000D02*
D03*
X595000Y445000D02*
D03*
X524125Y395222D02*
D03*
X360000Y165000D02*
D03*
X316500Y418900D02*
D03*
X316035Y392300D02*
D03*
X316500Y406200D02*
D03*
X301000Y380000D02*
D03*
X399910Y369578D02*
D03*
X330000Y185000D02*
D03*
Y450000D02*
D03*
X395000Y265000D02*
D03*
X375000Y180000D02*
D03*
X350000Y400000D02*
D03*
X500000Y435000D02*
D03*
X425000Y380000D02*
D03*
X340000Y295000D02*
D03*
X335000Y230000D02*
D03*
X326000Y256556D02*
D03*
X265000Y210000D02*
D03*
X470000Y230000D02*
D03*
X441420Y109924D02*
D03*
X460000Y110000D02*
D03*
X477917Y111056D02*
D03*
X408762Y111238D02*
D03*
X395000Y445000D02*
D03*
X392251Y379145D02*
D03*
X570000Y442091D02*
D03*
X925000Y350000D02*
D03*
X1015000D02*
D03*
X715000Y150000D02*
D03*
X800000Y300000D02*
D03*
X780000Y260000D02*
D03*
X1015000Y160000D02*
D03*
X980000Y320000D02*
D03*
X935000Y165000D02*
D03*
X890000Y310000D02*
D03*
X1070000Y330000D02*
D03*
X975000Y125000D02*
D03*
X840000Y340000D02*
D03*
X1064722Y119722D02*
D03*
X1234722Y130278D02*
D03*
X1120000Y361000D02*
D03*
X1160000Y330000D02*
D03*
X1240000Y339000D02*
D03*
X1210000Y371000D02*
D03*
D68*
X460000Y288500D02*
D03*
X445000Y260000D02*
D03*
X605000Y290000D02*
D03*
X435000Y205000D02*
D03*
X446010Y223990D02*
D03*
X595000Y296000D02*
D03*
X355000Y250000D02*
D03*
X407571Y266571D02*
D03*
X355000Y360000D02*
D03*
X555000Y310000D02*
D03*
X520000Y290000D02*
D03*
X430000Y265000D02*
D03*
X420000D02*
D03*
X625000Y315000D02*
D03*
X610000Y271000D02*
D03*
X650000Y274000D02*
D03*
D69*
X975000Y475000D02*
D03*
D70*
X924250Y89500D02*
D03*
Y70500D02*
D03*
X895750Y80000D02*
D03*
X1255750Y280000D02*
D03*
X1165750D02*
D03*
X1075750D02*
D03*
X986157Y280093D02*
D03*
X895750Y280000D02*
D03*
X805750D02*
D03*
X1255750Y80000D02*
D03*
X1165750D02*
D03*
X1075750D02*
D03*
X985750Y80000D02*
D03*
X1194250Y270500D02*
D03*
X1104250D02*
D03*
X1014657Y270593D02*
D03*
X924250Y270500D02*
D03*
X834250D02*
D03*
X1284250Y70500D02*
D03*
X1194250D02*
D03*
X1104250D02*
D03*
X1014250Y70500D02*
D03*
X834250D02*
D03*
X1284250Y270500D02*
D03*
Y289500D02*
D03*
X1194250D02*
D03*
X1104250D02*
D03*
X1014657Y289593D02*
D03*
X924250Y289500D02*
D03*
X834250D02*
D03*
X1284250Y89500D02*
D03*
X1194250D02*
D03*
X1104250D02*
D03*
X1014250Y89500D02*
D03*
X805750Y80000D02*
D03*
X834250Y89500D02*
D03*
D71*
X625000Y262500D02*
D03*
Y267500D02*
D03*
Y257500D02*
D03*
Y277500D02*
D03*
Y272500D02*
D03*
Y242500D02*
D03*
Y237500D02*
D03*
Y252500D02*
D03*
Y247500D02*
D03*
Y297500D02*
D03*
Y292500D02*
D03*
Y287500D02*
D03*
Y282500D02*
D03*
Y202500D02*
D03*
Y207500D02*
D03*
Y187500D02*
D03*
Y182500D02*
D03*
Y197500D02*
D03*
Y192500D02*
D03*
Y232500D02*
D03*
Y217500D02*
D03*
Y212500D02*
D03*
Y227500D02*
D03*
Y222500D02*
D03*
X695000Y257500D02*
D03*
Y252500D02*
D03*
Y262500D02*
D03*
Y237500D02*
D03*
Y232500D02*
D03*
Y247500D02*
D03*
Y242500D02*
D03*
Y287500D02*
D03*
Y297500D02*
D03*
Y292500D02*
D03*
Y272500D02*
D03*
Y267500D02*
D03*
Y282500D02*
D03*
Y277500D02*
D03*
Y187500D02*
D03*
Y197500D02*
D03*
Y192500D02*
D03*
Y182500D02*
D03*
Y222500D02*
D03*
Y227500D02*
D03*
Y207500D02*
D03*
Y202500D02*
D03*
Y217500D02*
D03*
Y212500D02*
D03*
M02*
