G04*
G04 #@! TF.GenerationSoftware,Altium Limited,Altium Designer,23.3.1 (30)*
G04*
G04 Layer_Color=2752767*
%FSLAX44Y44*%
%MOMM*%
G71*
G04*
G04 #@! TF.SameCoordinates,8A3622D1-8FB1-4EE3-B2AE-39504A90F10B*
G04*
G04*
G04 #@! TF.FilePolarity,Positive*
G04*
G01*
G75*
%ADD77C,0.1693*%
%ADD78C,0.1016*%
%ADD79C,0.1270*%
D77*
X144680Y95400D02*
G03*
X144680Y95400I-5080J0D01*
G01*
Y44600D02*
G03*
X144680Y44600I-5080J0D01*
G01*
X195480Y70000D02*
G03*
X195480Y70000I-5080J0D01*
G01*
Y44600D02*
G03*
X195480Y44600I-5080J0D01*
G01*
X304680Y470000D02*
G03*
X304680Y470000I-5080J0D01*
G01*
X330080D02*
G03*
X330080Y470000I-5080J0D01*
G01*
X355480D02*
G03*
X355480Y470000I-5080J0D01*
G01*
X380880D02*
G03*
X380880Y470000I-5080J0D01*
G01*
X406280D02*
G03*
X406280Y470000I-5080J0D01*
G01*
X454680Y370000D02*
G03*
X454680Y370000I-5080J0D01*
G01*
X480080D02*
G03*
X480080Y370000I-5080J0D01*
G01*
X505480D02*
G03*
X505480Y370000I-5080J0D01*
G01*
X530880D02*
G03*
X530880Y370000I-5080J0D01*
G01*
X907780Y450000D02*
G03*
X907780Y450000I-5080J0D01*
G01*
X882380D02*
G03*
X882380Y450000I-5080J0D01*
G01*
D78*
X142648Y95400D02*
G03*
X142648Y95400I-3048J0D01*
G01*
Y44600D02*
G03*
X142648Y44600I-3048J0D01*
G01*
X193448Y70000D02*
G03*
X193448Y70000I-3048J0D01*
G01*
Y44600D02*
G03*
X193448Y44600I-3048J0D01*
G01*
D79*
X502100Y36830D02*
Y34290D01*
X507180D01*
Y36830D01*
X509720D01*
Y41910D01*
X507180D01*
Y44450D01*
X502100D01*
Y41910D01*
X499560D01*
Y36830D01*
X502100D01*
X472100D02*
Y34290D01*
X477180D01*
Y36830D01*
X479720D01*
Y41910D01*
X477180D01*
Y44450D01*
X472100D01*
Y41910D01*
X469560D01*
Y36830D01*
X472100D01*
X442100D02*
Y34290D01*
X447180D01*
Y36830D01*
X449720D01*
Y41910D01*
X447180D01*
Y44450D01*
X442100D01*
Y41910D01*
X439560D01*
Y36830D01*
X442100D01*
X412100D02*
Y34290D01*
X417180D01*
Y36830D01*
X419720D01*
Y41910D01*
X417180D01*
Y44450D01*
X412100D01*
Y41910D01*
X409560D01*
Y36830D01*
X412100D01*
X382100D02*
Y34290D01*
X387180D01*
Y36830D01*
X389720D01*
Y41910D01*
X387180D01*
Y44450D01*
X382100D01*
Y41910D01*
X379560D01*
Y36830D01*
X382100D01*
X352100D02*
Y34290D01*
X357180D01*
Y36830D01*
X359720D01*
Y41910D01*
X357180D01*
Y44450D01*
X352100D01*
Y41910D01*
X349560D01*
Y36830D01*
X352100D01*
X292100D02*
Y34290D01*
X297180D01*
Y36830D01*
X299720D01*
Y41910D01*
X297180D01*
Y44450D01*
X292100D01*
Y41910D01*
X289560D01*
Y36830D01*
X292100D01*
X322100D02*
Y34290D01*
X327180D01*
Y36830D01*
X329720D01*
Y41910D01*
X327180D01*
Y44450D01*
X322100D01*
Y41910D01*
X319560D01*
Y36830D01*
X322100D01*
X1357460Y417460D02*
Y414920D01*
X1362540D01*
Y417460D01*
X1365080D01*
Y422540D01*
X1362540D01*
Y425080D01*
X1357460D01*
Y422540D01*
X1354920D01*
Y417460D01*
X1357460D01*
Y387460D02*
Y384920D01*
X1362540D01*
Y387460D01*
X1365080D01*
Y392540D01*
X1362540D01*
Y395080D01*
X1357460D01*
Y392540D01*
X1354920D01*
Y387460D01*
X1357460D01*
Y357460D02*
Y354920D01*
X1362540D01*
Y357460D01*
X1365080D01*
Y362540D01*
X1362540D01*
Y365080D01*
X1357460D01*
Y362540D01*
X1354920D01*
Y357460D01*
X1357460D01*
Y327460D02*
Y324920D01*
X1362540D01*
Y327460D01*
X1365080D01*
Y332540D01*
X1362540D01*
Y335080D01*
X1357460D01*
Y332540D01*
X1354920D01*
Y327460D01*
X1357460D01*
Y297460D02*
Y294920D01*
X1362540D01*
Y297460D01*
X1365080D01*
Y302540D01*
X1362540D01*
Y305080D01*
X1357460D01*
Y302540D01*
X1354920D01*
Y297460D01*
X1357460D01*
Y267460D02*
Y264920D01*
X1362540D01*
Y267460D01*
X1365080D01*
Y272540D01*
X1362540D01*
Y275080D01*
X1357460D01*
Y272540D01*
X1354920D01*
Y267460D01*
X1357460D01*
Y237460D02*
Y234920D01*
X1362540D01*
Y237460D01*
X1365080D01*
Y242540D01*
X1362540D01*
Y245080D01*
X1357460D01*
Y242540D01*
X1354920D01*
Y237460D01*
X1357460D01*
Y207460D02*
Y204920D01*
X1362540D01*
Y207460D01*
X1365080D01*
Y212540D01*
X1362540D01*
Y215080D01*
X1357460D01*
Y212540D01*
X1354920D01*
Y207460D01*
X1357460D01*
Y177460D02*
Y174920D01*
X1362540D01*
Y177460D01*
X1365080D01*
Y182540D01*
X1362540D01*
Y185080D01*
X1357460D01*
Y182540D01*
X1354920D01*
Y177460D01*
X1357460D01*
Y147460D02*
Y144920D01*
X1362540D01*
Y147460D01*
X1365080D01*
Y152540D01*
X1362540D01*
Y155080D01*
X1357460D01*
Y152540D01*
X1354920D01*
Y147460D01*
X1357460D01*
Y87460D02*
Y84920D01*
X1362540D01*
Y87460D01*
X1365080D01*
Y92540D01*
X1362540D01*
Y95080D01*
X1357460D01*
Y92540D01*
X1354920D01*
Y87460D01*
X1357460D01*
Y117460D02*
Y114920D01*
X1362540D01*
Y117460D01*
X1365080D01*
Y122540D01*
X1362540D01*
Y125080D01*
X1357460D01*
Y122540D01*
X1354920D01*
Y117460D01*
X1357460D01*
X26600Y370210D02*
X29140Y372750D01*
X31680D01*
X29140Y375290D01*
X31680Y377830D01*
X29140D01*
X26600Y380370D01*
X24060Y377830D01*
X21520D01*
X24060Y375290D01*
X21520Y372750D01*
X24060D01*
X26600Y370210D01*
Y460210D02*
X29140Y462750D01*
X31680D01*
X29140Y465290D01*
X31680Y467830D01*
X29140D01*
X26600Y470370D01*
X24060Y467830D01*
X21520D01*
X24060Y465290D01*
X21520Y462750D01*
X24060D01*
X26600Y460210D01*
X66000Y400210D02*
X68540Y402750D01*
X71080D01*
X68540Y405290D01*
X71080Y407830D01*
X68540D01*
X66000Y410370D01*
X63460Y407830D01*
X60920D01*
X63460Y405290D01*
X60920Y402750D01*
X63460D01*
X66000Y400210D01*
X36000D02*
X38540Y402750D01*
X41080D01*
X38540Y405290D01*
X41080Y407830D01*
X38540D01*
X36000Y410370D01*
X33460Y407830D01*
X30920D01*
X33460Y405290D01*
X30920Y402750D01*
X33460D01*
X36000Y400210D01*
Y430210D02*
X38540Y432750D01*
X41080D01*
X38540Y435290D01*
X41080Y437830D01*
X38540D01*
X36000Y440370D01*
X33460Y437830D01*
X30920D01*
X33460Y435290D01*
X30920Y432750D01*
X33460D01*
X36000Y430210D01*
X66000D02*
X68540Y432750D01*
X71080D01*
X68540Y435290D01*
X71080Y437830D01*
X68540D01*
X66000Y440370D01*
X63460Y437830D01*
X60920D01*
X63460Y435290D01*
X60920Y432750D01*
X63460D01*
X66000Y430210D01*
X36000Y90590D02*
X38540Y93130D01*
X41080D01*
X38540Y95670D01*
X41080Y98210D01*
X38540D01*
X36000Y100750D01*
X33460Y98210D01*
X30920D01*
X33460Y95670D01*
X30920Y93130D01*
X33460D01*
X36000Y90590D01*
X66000Y60590D02*
X68540Y63130D01*
X71080D01*
X68540Y65670D01*
X71080Y68210D01*
X68540D01*
X66000Y70750D01*
X63460Y68210D01*
X60920D01*
X63460Y65670D01*
X60920Y63130D01*
X63460D01*
X66000Y60590D01*
Y90590D02*
X68540Y93130D01*
X71080D01*
X68540Y95670D01*
X71080Y98210D01*
X68540D01*
X66000Y100750D01*
X63460Y98210D01*
X60920D01*
X63460Y95670D01*
X60920Y93130D01*
X63460D01*
X66000Y90590D01*
X36000Y60590D02*
X38540Y63130D01*
X41080D01*
X38540Y65670D01*
X41080Y68210D01*
X38540D01*
X36000Y70750D01*
X33460Y68210D01*
X30920D01*
X33460Y65670D01*
X30920Y63130D01*
X33460D01*
X36000Y60590D01*
X26600Y120590D02*
X29140Y123130D01*
X31680D01*
X29140Y125670D01*
X31680Y128210D01*
X29140D01*
X26600Y130750D01*
X24060Y128210D01*
X21520D01*
X24060Y125670D01*
X21520Y123130D01*
X24060D01*
X26600Y120590D01*
Y30590D02*
X29140Y33130D01*
X31680D01*
X29140Y35670D01*
X31680Y38210D01*
X29140D01*
X26600Y40750D01*
X24060Y38210D01*
X21520D01*
X24060Y35670D01*
X21520Y33130D01*
X24060D01*
X26600Y30590D01*
X1304920Y359920D02*
Y370080D01*
X1315080D01*
Y359920D01*
X1304920D01*
Y139920D02*
Y150080D01*
X1315080D01*
Y139920D01*
X1304920D01*
X104920Y359920D02*
Y370080D01*
X115080D01*
Y359920D01*
X104920D01*
Y139920D02*
Y150080D01*
X115080D01*
Y139920D01*
X104920D01*
X685400Y424920D02*
X680320Y435080D01*
X690480D01*
X685400Y424920D01*
X634600D02*
X629520Y435080D01*
X639680D01*
X634600Y424920D01*
X660000D02*
X654920Y435080D01*
X665080D01*
X660000Y424920D01*
X289920Y184920D02*
X292460D01*
X295000Y187460D01*
X297540Y184920D01*
X300080D01*
Y187460D01*
X297540Y190000D01*
X300080Y192540D01*
Y195080D01*
X297540D01*
X295000Y192540D01*
X292460Y195080D01*
X289920D01*
Y192540D01*
X292460Y190000D01*
X289920Y187460D01*
Y184920D01*
X19920Y139920D02*
X22460D01*
X25000Y142460D01*
X27540Y139920D01*
X30080D01*
Y142460D01*
X27540Y145000D01*
X30080Y147540D01*
Y150080D01*
X27540D01*
X25000Y147540D01*
X22460Y150080D01*
X19920D01*
Y147540D01*
X22460Y145000D01*
X19920Y142460D01*
Y139920D01*
X12420Y354920D02*
X14960D01*
X17500Y357460D01*
X20040Y354920D01*
X22580D01*
Y357460D01*
X20040Y360000D01*
X22580Y362540D01*
Y365080D01*
X20040D01*
X17500Y362540D01*
X14960Y365080D01*
X12420D01*
Y362540D01*
X14960Y360000D01*
X12420Y357460D01*
Y354920D01*
X119920Y269920D02*
X122460D01*
X125000Y272460D01*
X127540Y269920D01*
X130080D01*
Y272460D01*
X127540Y275000D01*
X130080Y277540D01*
Y280080D01*
X127540D01*
X125000Y277540D01*
X122460Y280080D01*
X119920D01*
Y277540D01*
X122460Y275000D01*
X119920Y272460D01*
Y269920D01*
X104920Y319920D02*
X107460D01*
X110000Y322460D01*
X112540Y319920D01*
X115080D01*
Y322460D01*
X112540Y325000D01*
X115080Y327540D01*
Y330080D01*
X112540D01*
X110000Y327540D01*
X107460Y330080D01*
X104920D01*
Y327540D01*
X107460Y325000D01*
X104920Y322460D01*
Y319920D01*
X245920Y170198D02*
X248460D01*
X251000Y172738D01*
X253540Y170198D01*
X256080D01*
Y172738D01*
X253540Y175278D01*
X256080Y177818D01*
Y180358D01*
X253540D01*
X251000Y177818D01*
X248460Y180358D01*
X245920D01*
Y177818D01*
X248460Y175278D01*
X245920Y172738D01*
Y170198D01*
X244920Y154920D02*
X247460D01*
X250000Y157460D01*
X252540Y154920D01*
X255080D01*
Y157460D01*
X252540Y160000D01*
X255080Y162540D01*
Y165080D01*
X252540D01*
X250000Y162540D01*
X247460Y165080D01*
X244920D01*
Y162540D01*
X247460Y160000D01*
X244920Y157460D01*
Y154920D01*
X234920Y34920D02*
X237460D01*
X240000Y37460D01*
X242540Y34920D01*
X245080D01*
Y37460D01*
X242540Y40000D01*
X245080Y42540D01*
Y45080D01*
X242540D01*
X240000Y42540D01*
X237460Y45080D01*
X234920D01*
Y42540D01*
X237460Y40000D01*
X234920Y37460D01*
Y34920D01*
X294920Y154920D02*
X297460D01*
X300000Y157460D01*
X302540Y154920D01*
X305080D01*
Y157460D01*
X302540Y160000D01*
X305080Y162540D01*
Y165080D01*
X302540D01*
X300000Y162540D01*
X297460Y165080D01*
X294920D01*
Y162540D01*
X297460Y160000D01*
X294920Y157460D01*
Y154920D01*
X259920Y209920D02*
X262460D01*
X265000Y212460D01*
X267540Y209920D01*
X270080D01*
Y212460D01*
X267540Y215000D01*
X270080Y217540D01*
Y220080D01*
X267540D01*
X265000Y217540D01*
X262460Y220080D01*
X259920D01*
Y217540D01*
X262460Y215000D01*
X259920Y212460D01*
Y209920D01*
X351473Y173367D02*
X354013D01*
X356553Y175907D01*
X359093Y173367D01*
X361633D01*
Y175907D01*
X359093Y178447D01*
X361633Y180987D01*
Y183527D01*
X359093D01*
X356553Y180987D01*
X354013Y183527D01*
X351473D01*
Y180987D01*
X354013Y178447D01*
X351473Y175907D01*
Y173367D01*
X329920Y224920D02*
X332460D01*
X335000Y227460D01*
X337540Y224920D01*
X340080D01*
Y227460D01*
X337540Y230000D01*
X340080Y232540D01*
Y235080D01*
X337540D01*
X335000Y232540D01*
X332460Y235080D01*
X329920D01*
Y232540D01*
X332460Y230000D01*
X329920Y227460D01*
Y224920D01*
X320920Y251476D02*
X323460D01*
X326000Y254016D01*
X328540Y251476D01*
X331080D01*
Y254016D01*
X328540Y256556D01*
X331080Y259096D01*
Y261636D01*
X328540D01*
X326000Y259096D01*
X323460Y261636D01*
X320920D01*
Y259096D01*
X323460Y256556D01*
X320920Y254016D01*
Y251476D01*
X349920Y250000D02*
X355000Y255080D01*
X360080Y250000D01*
X355000Y244920D01*
X349920Y250000D01*
X310955Y387220D02*
X313495D01*
X316035Y389760D01*
X318575Y387220D01*
X321115D01*
Y389760D01*
X318575Y392300D01*
X321115Y394840D01*
Y397380D01*
X318575D01*
X316035Y394840D01*
X313495Y397380D01*
X310955D01*
Y394840D01*
X313495Y392300D01*
X310955Y389760D01*
Y387220D01*
X496303Y105303D02*
X498843D01*
X501383Y107843D01*
X503923Y105303D01*
X506463D01*
Y107843D01*
X503923Y110383D01*
X506463Y112923D01*
Y115463D01*
X503923D01*
X501383Y112923D01*
X498843Y115463D01*
X496303D01*
Y112923D01*
X498843Y110383D01*
X496303Y107843D01*
Y105303D01*
X344920Y104920D02*
X347460D01*
X350000Y107460D01*
X352540Y104920D01*
X355080D01*
Y107460D01*
X352540Y110000D01*
X355080Y112540D01*
Y115080D01*
X352540D01*
X350000Y112540D01*
X347460Y115080D01*
X344920D01*
Y112540D01*
X347460Y110000D01*
X344920Y107460D01*
Y104920D01*
X609920Y85490D02*
X612460D01*
X615000Y88030D01*
X617540Y85490D01*
X620080D01*
Y88030D01*
X617540Y90570D01*
X620080Y93110D01*
Y95650D01*
X617540D01*
X615000Y93110D01*
X612460Y95650D01*
X609920D01*
Y93110D01*
X612460Y90570D01*
X609920Y88030D01*
Y85490D01*
X524920Y239920D02*
X527460D01*
X530000Y242460D01*
X532540Y239920D01*
X535080D01*
Y242460D01*
X532540Y245000D01*
X535080Y247540D01*
Y250080D01*
X532540D01*
X530000Y247540D01*
X527460Y250080D01*
X524920D01*
Y247540D01*
X527460Y245000D01*
X524920Y242460D01*
Y239920D01*
X314920Y119920D02*
X317460D01*
X320000Y122460D01*
X322540Y119920D01*
X325080D01*
Y122460D01*
X322540Y125000D01*
X325080Y127540D01*
Y130080D01*
X322540D01*
X320000Y127540D01*
X317460Y130080D01*
X314920D01*
Y127540D01*
X317460Y125000D01*
X314920Y122460D01*
Y119920D01*
X289920Y74920D02*
X292460D01*
X295000Y77460D01*
X297540Y74920D01*
X300080D01*
Y77460D01*
X297540Y80000D01*
X300080Y82540D01*
Y85080D01*
X297540D01*
X295000Y82540D01*
X292460Y85080D01*
X289920D01*
Y82540D01*
X292460Y80000D01*
X289920Y77460D01*
Y74920D01*
X4920Y28098D02*
X7460D01*
X10000Y30638D01*
X12540Y28098D01*
X15080D01*
Y30638D01*
X12540Y33178D01*
X15080Y35718D01*
Y38258D01*
X12540D01*
X10000Y35718D01*
X7460Y38258D01*
X4920D01*
Y35718D01*
X7460Y33178D01*
X4920Y30638D01*
Y28098D01*
X527920Y199920D02*
X530460D01*
X533000Y202460D01*
X535540Y199920D01*
X538080D01*
Y202460D01*
X535540Y205000D01*
X538080Y207540D01*
Y210080D01*
X535540D01*
X533000Y207540D01*
X530460Y210080D01*
X527920D01*
Y207540D01*
X530460Y205000D01*
X527920Y202460D01*
Y199920D01*
X479920Y264920D02*
X482460D01*
X485000Y267460D01*
X487540Y264920D01*
X490080D01*
Y267460D01*
X487540Y270000D01*
X490080Y272540D01*
Y275080D01*
X487540D01*
X485000Y272540D01*
X482460Y275080D01*
X479920D01*
Y272540D01*
X482460Y270000D01*
X479920Y267460D01*
Y264920D01*
X459920D02*
X462460D01*
X465000Y267460D01*
X467540Y264920D01*
X470080D01*
Y267460D01*
X467540Y270000D01*
X470080Y272540D01*
Y275080D01*
X467540D01*
X465000Y272540D01*
X462460Y275080D01*
X459920D01*
Y272540D01*
X462460Y270000D01*
X459920Y267460D01*
Y264920D01*
X434142Y409142D02*
X436682D01*
X439222Y411682D01*
X441762Y409142D01*
X444302D01*
Y411682D01*
X441762Y414222D01*
X444302Y416762D01*
Y419302D01*
X441762D01*
X439222Y416762D01*
X436682Y419302D01*
X434142D01*
Y416762D01*
X436682Y414222D01*
X434142Y411682D01*
Y409142D01*
X388597Y420549D02*
X391137D01*
X393677Y423089D01*
X396217Y420549D01*
X398757D01*
Y423089D01*
X396217Y425629D01*
X398757Y428169D01*
Y430709D01*
X396217D01*
X393677Y428169D01*
X391137Y430709D01*
X388597D01*
Y428169D01*
X391137Y425629D01*
X388597Y423089D01*
Y420549D01*
X509920Y244920D02*
X512460D01*
X515000Y247460D01*
X517540Y244920D01*
X520080D01*
Y247460D01*
X517540Y250000D01*
X520080Y252540D01*
Y255080D01*
X517540D01*
X515000Y252540D01*
X512460Y255080D01*
X509920D01*
Y252540D01*
X512460Y250000D01*
X509920Y247460D01*
Y244920D01*
X539920Y199920D02*
X542460D01*
X545000Y202460D01*
X547540Y199920D01*
X550080D01*
Y202460D01*
X547540Y205000D01*
X550080Y207540D01*
Y210080D01*
X547540D01*
X545000Y207540D01*
X542460Y210080D01*
X539920D01*
Y207540D01*
X542460Y205000D01*
X539920Y202460D01*
Y199920D01*
X384920Y324920D02*
X387460D01*
X390000Y327460D01*
X392540Y324920D01*
X395080D01*
Y327460D01*
X392540Y330000D01*
X395080Y332540D01*
Y335080D01*
X392540D01*
X390000Y332540D01*
X387460Y335080D01*
X384920D01*
Y332540D01*
X387460Y330000D01*
X384920Y327460D01*
Y324920D01*
X334920Y344920D02*
X337460D01*
X340000Y347460D01*
X342540Y344920D01*
X345080D01*
Y347460D01*
X342540Y350000D01*
X345080Y352540D01*
Y355080D01*
X342540D01*
X340000Y352540D01*
X337460Y355080D01*
X334920D01*
Y352540D01*
X337460Y350000D01*
X334920Y347460D01*
Y344920D01*
X59920Y204920D02*
X62460D01*
X65000Y207460D01*
X67540Y204920D01*
X70080D01*
Y207460D01*
X67540Y210000D01*
X70080Y212540D01*
Y215080D01*
X67540D01*
X65000Y212540D01*
X62460Y215080D01*
X59920D01*
Y212540D01*
X62460Y210000D01*
X59920Y207460D01*
Y204920D01*
X515920Y199920D02*
X518460D01*
X521000Y202460D01*
X523540Y199920D01*
X526080D01*
Y202460D01*
X523540Y205000D01*
X526080Y207540D01*
Y210080D01*
X523540D01*
X521000Y207540D01*
X518460Y210080D01*
X515920D01*
Y207540D01*
X518460Y205000D01*
X515920Y202460D01*
Y199920D01*
X679920Y84920D02*
X682460D01*
X685000Y87460D01*
X687540Y84920D01*
X690080D01*
Y87460D01*
X687540Y90000D01*
X690080Y92540D01*
Y95080D01*
X687540D01*
X685000Y92540D01*
X682460Y95080D01*
X679920D01*
Y92540D01*
X682460Y90000D01*
X679920Y87460D01*
Y84920D01*
X310378Y108813D02*
X312918D01*
X315458Y111353D01*
X317998Y108813D01*
X320538D01*
Y111353D01*
X317998Y113893D01*
X320538Y116433D01*
Y118973D01*
X317998D01*
X315458Y116433D01*
X312918Y118973D01*
X310378D01*
Y116433D01*
X312918Y113893D01*
X310378Y111353D01*
Y108813D01*
X348905Y383601D02*
X351446D01*
X353985Y386141D01*
X356525Y383601D01*
X359066D01*
Y386141D01*
X356525Y388681D01*
X359066Y391221D01*
Y393761D01*
X356525D01*
X353985Y391221D01*
X351446Y393761D01*
X348905D01*
Y391221D01*
X351446Y388681D01*
X348905Y386141D01*
Y383601D01*
X424357Y105483D02*
X426897D01*
X429437Y108023D01*
X431977Y105483D01*
X434517D01*
Y108023D01*
X431977Y110563D01*
X434517Y113103D01*
Y115643D01*
X431977D01*
X429437Y113103D01*
X426897Y115643D01*
X424357D01*
Y113103D01*
X426897Y110563D01*
X424357Y108023D01*
Y105483D01*
X386311Y338470D02*
X388851D01*
X391391Y341010D01*
X393931Y338470D01*
X396471D01*
Y341010D01*
X393931Y343550D01*
X396471Y346090D01*
Y348630D01*
X393931D01*
X391391Y346090D01*
X388851Y348630D01*
X386311D01*
Y346090D01*
X388851Y343550D01*
X386311Y341010D01*
Y338470D01*
X539920Y244920D02*
X542460D01*
X545000Y247460D01*
X547540Y244920D01*
X550080D01*
Y247460D01*
X547540Y250000D01*
X550080Y252540D01*
Y255080D01*
X547540D01*
X545000Y252540D01*
X542460Y255080D01*
X539920D01*
Y252540D01*
X542460Y250000D01*
X539920Y247460D01*
Y244920D01*
X383007Y106833D02*
X385547D01*
X388087Y109373D01*
X390627Y106833D01*
X393167D01*
Y109373D01*
X390627Y111913D01*
X393167Y114453D01*
Y116993D01*
X390627D01*
X388087Y114453D01*
X385547Y116993D01*
X383007D01*
Y114453D01*
X385547Y111913D01*
X383007Y109373D01*
Y106833D01*
X454920Y288500D02*
X460000Y293580D01*
X465080Y288500D01*
X460000Y283420D01*
X454920Y288500D01*
X439920Y260000D02*
X445000Y265080D01*
X450080Y260000D01*
X445000Y254920D01*
X439920Y260000D01*
X399920Y184920D02*
X402460D01*
X405000Y187460D01*
X407540Y184920D01*
X410080D01*
Y187460D01*
X407540Y190000D01*
X410080Y192540D01*
Y195080D01*
X407540D01*
X405000Y192540D01*
X402460Y195080D01*
X399920D01*
Y192540D01*
X402460Y190000D01*
X399920Y187460D01*
Y184920D01*
X599920Y290000D02*
X605000Y295080D01*
X610080Y290000D01*
X605000Y284920D01*
X599920Y290000D01*
X575941Y375384D02*
X578481D01*
X581021Y377924D01*
X583561Y375384D01*
X586101D01*
Y377924D01*
X583561Y380464D01*
X586101Y383004D01*
Y385544D01*
X583561D01*
X581021Y383004D01*
X578481Y385544D01*
X575941D01*
Y383004D01*
X578481Y380464D01*
X575941Y377924D01*
Y375384D01*
X534920Y284920D02*
X537460D01*
X540000Y287460D01*
X542540Y284920D01*
X545080D01*
Y287460D01*
X542540Y290000D01*
X545080Y292540D01*
Y295080D01*
X542540D01*
X540000Y292540D01*
X537460Y295080D01*
X534920D01*
Y292540D01*
X537460Y290000D01*
X534920Y287460D01*
Y284920D01*
X71920Y354920D02*
X74460D01*
X77000Y357460D01*
X79540Y354920D01*
X82080D01*
Y357460D01*
X79540Y360000D01*
X82080Y362540D01*
Y365080D01*
X79540D01*
X77000Y362540D01*
X74460Y365080D01*
X71920D01*
Y362540D01*
X74460Y360000D01*
X71920Y357460D01*
Y354920D01*
X494920Y285670D02*
X497460D01*
X500000Y288210D01*
X502540Y285670D01*
X505080D01*
Y288210D01*
X502540Y290750D01*
X505080Y293290D01*
Y295830D01*
X502540D01*
X500000Y293290D01*
X497460Y295830D01*
X494920D01*
Y293290D01*
X497460Y290750D01*
X494920Y288210D01*
Y285670D01*
X522851Y469474D02*
X525391D01*
X527931Y472014D01*
X530471Y469474D01*
X533011D01*
Y472014D01*
X530471Y474554D01*
X533011Y477094D01*
Y479634D01*
X530471D01*
X527931Y477094D01*
X525391Y479634D01*
X522851D01*
Y477094D01*
X525391Y474554D01*
X522851Y472014D01*
Y469474D01*
X429920Y205000D02*
X435000Y210080D01*
X440080Y205000D01*
X435000Y199920D01*
X429920Y205000D01*
X440930Y223990D02*
X446010Y229070D01*
X451090Y223990D01*
X446010Y218910D01*
X440930Y223990D01*
X554920Y354263D02*
X557460D01*
X560000Y356803D01*
X562540Y354263D01*
X565080D01*
Y356803D01*
X562540Y359343D01*
X565080Y361883D01*
Y364423D01*
X562540D01*
X560000Y361883D01*
X557460Y364423D01*
X554920D01*
Y361883D01*
X557460Y359343D01*
X554920Y356803D01*
Y354263D01*
X564920Y419920D02*
X567460D01*
X570000Y422460D01*
X572540Y419920D01*
X575080D01*
Y422460D01*
X572540Y425000D01*
X575080Y427540D01*
Y430080D01*
X572540D01*
X570000Y427540D01*
X567460Y430080D01*
X564920D01*
Y427540D01*
X567460Y425000D01*
X564920Y422460D01*
Y419920D01*
X969920Y469920D02*
Y480080D01*
X980080D01*
Y469920D01*
X969920D01*
X971952Y471952D02*
Y478048D01*
X978048D01*
Y471952D01*
X971952D01*
X809920Y434920D02*
X812460D01*
X815000Y437460D01*
X817540Y434920D01*
X820080D01*
Y437460D01*
X817540Y440000D01*
X820080Y442540D01*
Y445080D01*
X817540D01*
X815000Y442540D01*
X812460Y445080D01*
X809920D01*
Y442540D01*
X812460Y440000D01*
X809920Y437460D01*
Y434920D01*
X1206614Y273920D02*
X1209154D01*
X1211694Y276460D01*
X1214234Y273920D01*
X1216774D01*
Y276460D01*
X1214234Y279000D01*
X1216774Y281540D01*
Y284080D01*
X1214234D01*
X1211694Y281540D01*
X1209154Y284080D01*
X1206614D01*
Y281540D01*
X1209154Y279000D01*
X1206614Y276460D01*
Y273920D01*
X1224920Y259920D02*
X1227460D01*
X1230000Y262460D01*
X1232540Y259920D01*
X1235080D01*
Y262460D01*
X1232540Y265000D01*
X1235080Y267540D01*
Y270080D01*
X1232540D01*
X1230000Y267540D01*
X1227460Y270080D01*
X1224920D01*
Y267540D01*
X1227460Y265000D01*
X1224920Y262460D01*
Y259920D01*
X1204920Y165920D02*
X1207460D01*
X1210000Y168460D01*
X1212540Y165920D01*
X1215080D01*
Y168460D01*
X1212540Y171000D01*
X1215080Y173540D01*
Y176080D01*
X1212540D01*
X1210000Y173540D01*
X1207460Y176080D01*
X1204920D01*
Y173540D01*
X1207460Y171000D01*
X1204920Y168460D01*
Y165920D01*
X1144920Y119920D02*
X1147460D01*
X1150000Y122460D01*
X1152540Y119920D01*
X1155080D01*
Y122460D01*
X1152540Y125000D01*
X1155080Y127540D01*
Y130080D01*
X1152540D01*
X1150000Y127540D01*
X1147460Y130080D01*
X1144920D01*
Y127540D01*
X1147460Y125000D01*
X1144920Y122460D01*
Y119920D01*
X1099920Y154920D02*
X1102460D01*
X1105000Y157460D01*
X1107540Y154920D01*
X1110080D01*
Y157460D01*
X1107540Y160000D01*
X1110080Y162540D01*
Y165080D01*
X1107540D01*
X1105000Y162540D01*
X1102460Y165080D01*
X1099920D01*
Y162540D01*
X1102460Y160000D01*
X1099920Y157460D01*
Y154920D01*
X883195Y106078D02*
X885734D01*
X888275Y108618D01*
X890815Y106078D01*
X893354D01*
Y108618D01*
X890815Y111158D01*
X893354Y113698D01*
Y116238D01*
X890815D01*
X888275Y113698D01*
X885734Y116238D01*
X883195D01*
Y113698D01*
X885734Y111158D01*
X883195Y108618D01*
Y106078D01*
X790303Y60303D02*
X792843D01*
X795383Y62843D01*
X797923Y60303D01*
X800463D01*
Y62843D01*
X797923Y65383D01*
X800463Y67923D01*
Y70463D01*
X797923D01*
X795383Y67923D01*
X792843Y70463D01*
X790303D01*
Y67923D01*
X792843Y65383D01*
X790303Y62843D01*
Y60303D01*
X819920Y154920D02*
X822460D01*
X825000Y157460D01*
X827540Y154920D01*
X830080D01*
Y157460D01*
X827540Y160000D01*
X830080Y162540D01*
Y165080D01*
X827540D01*
X825000Y162540D01*
X822460Y165080D01*
X819920D01*
Y162540D01*
X822460Y160000D01*
X819920Y157460D01*
Y154920D01*
X649920Y134920D02*
X652460D01*
X655000Y137460D01*
X657540Y134920D01*
X660080D01*
Y137460D01*
X657540Y140000D01*
X660080Y142540D01*
Y145080D01*
X657540D01*
X655000Y142540D01*
X652460Y145080D01*
X649920D01*
Y142540D01*
X652460Y140000D01*
X649920Y137460D01*
Y134920D01*
X629920Y159920D02*
X632460D01*
X635000Y162460D01*
X637540Y159920D01*
X640080D01*
Y162460D01*
X637540Y165000D01*
X640080Y167540D01*
Y170080D01*
X637540D01*
X635000Y167540D01*
X632460Y170080D01*
X629920D01*
Y167540D01*
X632460Y165000D01*
X629920Y162460D01*
Y159920D01*
X589920Y296000D02*
X595000Y301080D01*
X600080Y296000D01*
X595000Y290920D01*
X589920Y296000D01*
X258060Y53290D02*
X260600Y58370D01*
X258060Y63450D01*
X263140Y60910D01*
X268220Y63450D01*
X265680Y58370D01*
X268220Y53290D01*
X263140Y55830D01*
X258060Y53290D01*
X528060Y53290D02*
X530600Y58370D01*
X528060Y63450D01*
X533140Y60910D01*
X538220Y63450D01*
X535680Y58370D01*
X538220Y53290D01*
X533140Y55830D01*
X528060Y53290D01*
X589920Y439920D02*
X592460D01*
X595000Y442460D01*
X597540Y439920D01*
X600080D01*
Y442460D01*
X597540Y445000D01*
X600080Y447540D01*
Y450080D01*
X597540D01*
X595000Y447540D01*
X592460Y450080D01*
X589920D01*
Y447540D01*
X592460Y445000D01*
X589920Y442460D01*
Y439920D01*
X519045Y390142D02*
X521585D01*
X524125Y392682D01*
X526665Y390142D01*
X529205D01*
Y392682D01*
X526665Y395222D01*
X529205Y397762D01*
Y400302D01*
X526665D01*
X524125Y397762D01*
X521585Y400302D01*
X519045D01*
Y397762D01*
X521585Y395222D01*
X519045Y392682D01*
Y390142D01*
X354920Y159920D02*
X357460D01*
X360000Y162460D01*
X362540Y159920D01*
X365080D01*
Y162460D01*
X362540Y165000D01*
X365080Y167540D01*
Y170080D01*
X362540D01*
X360000Y167540D01*
X357460Y170080D01*
X354920D01*
Y167540D01*
X357460Y165000D01*
X354920Y162460D01*
Y159920D01*
X311420Y413820D02*
X313960D01*
X316500Y416360D01*
X319040Y413820D01*
X321580D01*
Y416360D01*
X319040Y418900D01*
X321580Y421440D01*
Y423980D01*
X319040D01*
X316500Y421440D01*
X313960Y423980D01*
X311420D01*
Y421440D01*
X313960Y418900D01*
X311420Y416360D01*
Y413820D01*
Y401120D02*
X313960D01*
X316500Y403660D01*
X319040Y401120D01*
X321580D01*
Y403660D01*
X319040Y406200D01*
X321580Y408740D01*
Y411280D01*
X319040D01*
X316500Y408740D01*
X313960Y411280D01*
X311420D01*
Y408740D01*
X313960Y406200D01*
X311420Y403660D01*
Y401120D01*
X295920Y374920D02*
X298460D01*
X301000Y377460D01*
X303540Y374920D01*
X306080D01*
Y377460D01*
X303540Y380000D01*
X306080Y382540D01*
Y385080D01*
X303540D01*
X301000Y382540D01*
X298460Y385080D01*
X295920D01*
Y382540D01*
X298460Y380000D01*
X295920Y377460D01*
Y374920D01*
X394830Y364498D02*
X397370D01*
X399910Y367038D01*
X402450Y364498D01*
X404990D01*
Y367038D01*
X402450Y369578D01*
X404990Y372118D01*
Y374658D01*
X402450D01*
X399910Y372118D01*
X397370Y374658D01*
X394830D01*
Y372118D01*
X397370Y369578D01*
X394830Y367038D01*
Y364498D01*
X324920Y444920D02*
X327460D01*
X330000Y447460D01*
X332540Y444920D01*
X335080D01*
Y447460D01*
X332540Y450000D01*
X335080Y452540D01*
Y455080D01*
X332540D01*
X330000Y452540D01*
X327460Y455080D01*
X324920D01*
Y452540D01*
X327460Y450000D01*
X324920Y447460D01*
Y444920D01*
X389920Y259920D02*
X392460D01*
X395000Y262460D01*
X397540Y259920D01*
X400080D01*
Y262460D01*
X397540Y265000D01*
X400080Y267540D01*
Y270080D01*
X397540D01*
X395000Y267540D01*
X392460Y270080D01*
X389920D01*
Y267540D01*
X392460Y265000D01*
X389920Y262460D01*
Y259920D01*
X369920Y174920D02*
X372460D01*
X375000Y177460D01*
X377540Y174920D01*
X380080D01*
Y177460D01*
X377540Y180000D01*
X380080Y182540D01*
Y185080D01*
X377540D01*
X375000Y182540D01*
X372460Y185080D01*
X369920D01*
Y182540D01*
X372460Y180000D01*
X369920Y177460D01*
Y174920D01*
X402491Y266571D02*
X407571Y271651D01*
X412651Y266571D01*
X407571Y261491D01*
X402491Y266571D01*
X349920Y360000D02*
X355000Y365080D01*
X360080Y360000D01*
X355000Y354920D01*
X349920Y360000D01*
X344920Y394920D02*
X347460D01*
X350000Y397460D01*
X352540Y394920D01*
X355080D01*
Y397460D01*
X352540Y400000D01*
X355080Y402540D01*
Y405080D01*
X352540D01*
X350000Y402540D01*
X347460Y405080D01*
X344920D01*
Y402540D01*
X347460Y400000D01*
X344920Y397460D01*
Y394920D01*
X494920Y429920D02*
X497460D01*
X500000Y432460D01*
X502540Y429920D01*
X505080D01*
Y432460D01*
X502540Y435000D01*
X505080Y437540D01*
Y440080D01*
X502540D01*
X500000Y437540D01*
X497460Y440080D01*
X494920D01*
Y437540D01*
X497460Y435000D01*
X494920Y432460D01*
Y429920D01*
X419920Y374920D02*
X422460D01*
X425000Y377460D01*
X427540Y374920D01*
X430080D01*
Y377460D01*
X427540Y380000D01*
X430080Y382540D01*
Y385080D01*
X427540D01*
X425000Y382540D01*
X422460Y385080D01*
X419920D01*
Y382540D01*
X422460Y380000D01*
X419920Y377460D01*
Y374920D01*
X334920Y289920D02*
X337460D01*
X340000Y292460D01*
X342540Y289920D01*
X345080D01*
Y292460D01*
X342540Y295000D01*
X345080Y297540D01*
Y300080D01*
X342540D01*
X340000Y297540D01*
X337460Y300080D01*
X334920D01*
Y297540D01*
X337460Y295000D01*
X334920Y292460D01*
Y289920D01*
X549920Y310000D02*
X555000Y315080D01*
X560080Y310000D01*
X555000Y304920D01*
X549920Y310000D01*
X514920Y290000D02*
X520000Y295080D01*
X525080Y290000D01*
X520000Y284920D01*
X514920Y290000D01*
X464920Y224920D02*
X467460D01*
X470000Y227460D01*
X472540Y224920D01*
X475080D01*
Y227460D01*
X472540Y230000D01*
X475080Y232540D01*
Y235080D01*
X472540D01*
X470000Y232540D01*
X467460Y235080D01*
X464920D01*
Y232540D01*
X467460Y230000D01*
X464920Y227460D01*
Y224920D01*
X436340Y104844D02*
X438880D01*
X441420Y107384D01*
X443960Y104844D01*
X446500D01*
Y107384D01*
X443960Y109924D01*
X446500Y112464D01*
Y115004D01*
X443960D01*
X441420Y112464D01*
X438880Y115004D01*
X436340D01*
Y112464D01*
X438880Y109924D01*
X436340Y107384D01*
Y104844D01*
X454920Y104920D02*
X457460D01*
X460000Y107460D01*
X462540Y104920D01*
X465080D01*
Y107460D01*
X462540Y110000D01*
X465080Y112540D01*
Y115080D01*
X462540D01*
X460000Y112540D01*
X457460Y115080D01*
X454920D01*
Y112540D01*
X457460Y110000D01*
X454920Y107460D01*
Y104920D01*
X472837Y105976D02*
X475377D01*
X477917Y108516D01*
X480457Y105976D01*
X482997D01*
Y108516D01*
X480457Y111056D01*
X482997Y113596D01*
Y116136D01*
X480457D01*
X477917Y113596D01*
X475377Y116136D01*
X472837D01*
Y113596D01*
X475377Y111056D01*
X472837Y108516D01*
Y105976D01*
X403682Y106158D02*
X406222D01*
X408762Y108698D01*
X411302Y106158D01*
X413842D01*
Y108698D01*
X411302Y111238D01*
X413842Y113778D01*
Y116318D01*
X411302D01*
X408762Y113778D01*
X406222Y116318D01*
X403682D01*
Y113778D01*
X406222Y111238D01*
X403682Y108698D01*
Y106158D01*
X389920Y439920D02*
X392460D01*
X395000Y442460D01*
X397540Y439920D01*
X400080D01*
Y442460D01*
X397540Y445000D01*
X400080Y447540D01*
Y450080D01*
X397540D01*
X395000Y447540D01*
X392460Y450080D01*
X389920D01*
Y447540D01*
X392460Y445000D01*
X389920Y442460D01*
Y439920D01*
X387171Y374065D02*
X389711D01*
X392251Y376605D01*
X394791Y374065D01*
X397331D01*
Y376605D01*
X394791Y379145D01*
X397331Y381685D01*
Y384225D01*
X394791D01*
X392251Y381685D01*
X389711Y384225D01*
X387171D01*
Y381685D01*
X389711Y379145D01*
X387171Y376605D01*
Y374065D01*
X424920Y265000D02*
X430000Y270080D01*
X435080Y265000D01*
X430000Y259920D01*
X424920Y265000D01*
X414920D02*
X420000Y270080D01*
X425080Y265000D01*
X420000Y259920D01*
X414920Y265000D01*
X564920Y437011D02*
X567460D01*
X570000Y439551D01*
X572540Y437011D01*
X575080D01*
Y439551D01*
X572540Y442091D01*
X575080Y444631D01*
Y447171D01*
X572540D01*
X570000Y444631D01*
X567460Y447171D01*
X564920D01*
Y444631D01*
X567460Y442091D01*
X564920Y439551D01*
Y437011D01*
X919920Y344920D02*
X922460D01*
X925000Y347460D01*
X927540Y344920D01*
X930080D01*
Y347460D01*
X927540Y350000D01*
X930080Y352540D01*
Y355080D01*
X927540D01*
X925000Y352540D01*
X922460Y355080D01*
X919920D01*
Y352540D01*
X922460Y350000D01*
X919920Y347460D01*
Y344920D01*
X1009920D02*
X1012460D01*
X1015000Y347460D01*
X1017540Y344920D01*
X1020080D01*
Y347460D01*
X1017540Y350000D01*
X1020080Y352540D01*
Y355080D01*
X1017540D01*
X1015000Y352540D01*
X1012460Y355080D01*
X1009920D01*
Y352540D01*
X1012460Y350000D01*
X1009920Y347460D01*
Y344920D01*
X619920Y315000D02*
X625000Y320080D01*
X630080Y315000D01*
X625000Y309920D01*
X619920Y315000D01*
X604920Y271000D02*
X610000Y276080D01*
X615080Y271000D01*
X610000Y265920D01*
X604920Y271000D01*
X644920Y274000D02*
X650000Y279080D01*
X655080Y274000D01*
X650000Y268920D01*
X644920Y274000D01*
X709920Y144920D02*
X712460D01*
X715000Y147460D01*
X717540Y144920D01*
X720080D01*
Y147460D01*
X717540Y150000D01*
X720080Y152540D01*
Y155080D01*
X717540D01*
X715000Y152540D01*
X712460Y155080D01*
X709920D01*
Y152540D01*
X712460Y150000D01*
X709920Y147460D01*
Y144920D01*
X794920Y294920D02*
X797460D01*
X800000Y297460D01*
X802540Y294920D01*
X805080D01*
Y297460D01*
X802540Y300000D01*
X805080Y302540D01*
Y305080D01*
X802540D01*
X800000Y302540D01*
X797460Y305080D01*
X794920D01*
Y302540D01*
X797460Y300000D01*
X794920Y297460D01*
Y294920D01*
X774920Y254920D02*
X777460D01*
X780000Y257460D01*
X782540Y254920D01*
X785080D01*
Y257460D01*
X782540Y260000D01*
X785080Y262540D01*
Y265080D01*
X782540D01*
X780000Y262540D01*
X777460Y265080D01*
X774920D01*
Y262540D01*
X777460Y260000D01*
X774920Y257460D01*
Y254920D01*
X1009920Y154920D02*
X1012460D01*
X1015000Y157460D01*
X1017540Y154920D01*
X1020080D01*
Y157460D01*
X1017540Y160000D01*
X1020080Y162540D01*
Y165080D01*
X1017540D01*
X1015000Y162540D01*
X1012460Y165080D01*
X1009920D01*
Y162540D01*
X1012460Y160000D01*
X1009920Y157460D01*
Y154920D01*
X974920Y314920D02*
X977460D01*
X980000Y317460D01*
X982540Y314920D01*
X985080D01*
Y317460D01*
X982540Y320000D01*
X985080Y322540D01*
Y325080D01*
X982540D01*
X980000Y322540D01*
X977460Y325080D01*
X974920D01*
Y322540D01*
X977460Y320000D01*
X974920Y317460D01*
Y314920D01*
X929920Y159920D02*
X932460D01*
X935000Y162460D01*
X937540Y159920D01*
X940080D01*
Y162460D01*
X937540Y165000D01*
X940080Y167540D01*
Y170080D01*
X937540D01*
X935000Y167540D01*
X932460Y170080D01*
X929920D01*
Y167540D01*
X932460Y165000D01*
X929920Y162460D01*
Y159920D01*
X884920Y304920D02*
X887460D01*
X890000Y307460D01*
X892540Y304920D01*
X895080D01*
Y307460D01*
X892540Y310000D01*
X895080Y312540D01*
Y315080D01*
X892540D01*
X890000Y312540D01*
X887460Y315080D01*
X884920D01*
Y312540D01*
X887460Y310000D01*
X884920Y307460D01*
Y304920D01*
X1064920Y324920D02*
X1067460D01*
X1070000Y327460D01*
X1072540Y324920D01*
X1075080D01*
Y327460D01*
X1072540Y330000D01*
X1075080Y332540D01*
Y335080D01*
X1072540D01*
X1070000Y332540D01*
X1067460Y335080D01*
X1064920D01*
Y332540D01*
X1067460Y330000D01*
X1064920Y327460D01*
Y324920D01*
X969920Y119920D02*
X972460D01*
X975000Y122460D01*
X977540Y119920D01*
X980080D01*
Y122460D01*
X977540Y125000D01*
X980080Y127540D01*
Y130080D01*
X977540D01*
X975000Y127540D01*
X972460Y130080D01*
X969920D01*
Y127540D01*
X972460Y125000D01*
X969920Y122460D01*
Y119920D01*
X834920Y334920D02*
X837460D01*
X840000Y337460D01*
X842540Y334920D01*
X845080D01*
Y337460D01*
X842540Y340000D01*
X845080Y342540D01*
Y345080D01*
X842540D01*
X840000Y342540D01*
X837460Y345080D01*
X834920D01*
Y342540D01*
X837460Y340000D01*
X834920Y337460D01*
Y334920D01*
X1059642Y114642D02*
X1062182D01*
X1064722Y117182D01*
X1067262Y114642D01*
X1069802D01*
Y117182D01*
X1067262Y119722D01*
X1069802Y122262D01*
Y124802D01*
X1067262D01*
X1064722Y122262D01*
X1062182Y124802D01*
X1059642D01*
Y122262D01*
X1062182Y119722D01*
X1059642Y117182D01*
Y114642D01*
X1229642Y125198D02*
X1232182D01*
X1234722Y127738D01*
X1237262Y125198D01*
X1239802D01*
Y127738D01*
X1237262Y130278D01*
X1239802Y132818D01*
Y135358D01*
X1237262D01*
X1234722Y132818D01*
X1232182Y135358D01*
X1229642D01*
Y132818D01*
X1232182Y130278D01*
X1229642Y127738D01*
Y125198D01*
X1114920Y355920D02*
X1117460D01*
X1120000Y358460D01*
X1122540Y355920D01*
X1125080D01*
Y358460D01*
X1122540Y361000D01*
X1125080Y363540D01*
Y366080D01*
X1122540D01*
X1120000Y363540D01*
X1117460Y366080D01*
X1114920D01*
Y363540D01*
X1117460Y361000D01*
X1114920Y358460D01*
Y355920D01*
X1154920Y324920D02*
X1157460D01*
X1160000Y327460D01*
X1162540Y324920D01*
X1165080D01*
Y327460D01*
X1162540Y330000D01*
X1165080Y332540D01*
Y335080D01*
X1162540D01*
X1160000Y332540D01*
X1157460Y335080D01*
X1154920D01*
Y332540D01*
X1157460Y330000D01*
X1154920Y327460D01*
Y324920D01*
X1234920Y333920D02*
X1237460D01*
X1240000Y336460D01*
X1242540Y333920D01*
X1245080D01*
Y336460D01*
X1242540Y339000D01*
X1245080Y341540D01*
Y344080D01*
X1242540D01*
X1240000Y341540D01*
X1237460Y344080D01*
X1234920D01*
Y341540D01*
X1237460Y339000D01*
X1234920Y336460D01*
Y333920D01*
X1204920Y365920D02*
X1207460D01*
X1210000Y368460D01*
X1212540Y365920D01*
X1215080D01*
Y368460D01*
X1212540Y371000D01*
X1215080Y373540D01*
Y376080D01*
X1212540D01*
X1210000Y373540D01*
X1207460Y376080D01*
X1204920D01*
Y373540D01*
X1207460Y371000D01*
X1204920Y368460D01*
Y365920D01*
X1335920Y443420D02*
X1338460Y448500D01*
X1335920Y453580D01*
X1341000Y451040D01*
X1346080Y453580D01*
X1343540Y448500D01*
X1346080Y443420D01*
X1341000Y445960D01*
X1335920Y443420D01*
X1335920Y53420D02*
X1338460Y58500D01*
X1335920Y63580D01*
X1341000Y61040D01*
X1346080Y63580D01*
X1343540Y58500D01*
X1346080Y53420D01*
X1341000Y55960D01*
X1335920Y53420D01*
M02*
