G04*
G04 #@! TF.GenerationSoftware,Altium Limited,Altium Designer,22.11.1 (43)*
G04*
G04 Layer_Color=32768*
%FSLAX44Y44*%
%MOMM*%
G71*
G04*
G04 #@! TF.SameCoordinates,D90881C4-51E7-43CE-BF4D-9A5F9FB4FD59*
G04*
G04*
G04 #@! TF.FilePolarity,Positive*
G04*
G01*
G75*
%ADD14C,0.1000*%
%ADD16C,0.2540*%
%ADD74C,0.0500*%
D14*
X509010Y83820D02*
Y93820D01*
X504010Y88820D02*
X514010D01*
X487601Y83820D02*
Y93820D01*
X482601Y88820D02*
X492601D01*
X466193Y83820D02*
Y93820D01*
X461193Y88820D02*
X471193D01*
X444784Y83820D02*
Y93820D01*
X439784Y88820D02*
X449784D01*
X423376Y83820D02*
Y93820D01*
X418376Y88820D02*
X428376D01*
X401967Y83820D02*
Y93820D01*
X396967Y88820D02*
X406967D01*
X380559Y83820D02*
Y93820D01*
X375559Y88820D02*
X385559D01*
X354150D02*
X364150D01*
X359150Y83820D02*
Y93820D01*
X379470Y132540D02*
Y136540D01*
X377470Y134540D02*
X381470D01*
X463000Y215000D02*
X467000D01*
X465000Y213000D02*
Y217000D01*
X405000Y213500D02*
Y217500D01*
X403000Y215500D02*
X407000D01*
X507010Y134540D02*
X511010D01*
X509010Y132540D02*
Y136540D01*
X485420Y134540D02*
X489420D01*
X487420Y132540D02*
Y136540D01*
X463830Y134540D02*
X467830D01*
X465830Y132540D02*
Y136540D01*
X442240Y134540D02*
X446240D01*
X444240Y132540D02*
Y136540D01*
X420650Y134540D02*
X424650D01*
X422650Y132540D02*
Y136540D01*
X399060Y134540D02*
X403060D01*
X401060Y132540D02*
Y136540D01*
X357880Y132540D02*
Y136540D01*
X355880Y134540D02*
X359880D01*
X438000Y453500D02*
X442000D01*
X440000Y451500D02*
Y455500D01*
X270000Y460000D02*
X280000D01*
X275000Y455000D02*
Y465000D01*
X470000D02*
Y475000D01*
X465000Y470000D02*
X475000D01*
X249500Y118500D02*
X253500D01*
X251500Y116500D02*
Y120500D01*
X266708Y118500D02*
X270708D01*
X268708Y116500D02*
Y120500D01*
X283916Y118500D02*
X287916D01*
X285916Y116500D02*
Y120500D01*
X780000Y285000D02*
Y295000D01*
X775000Y290000D02*
X785000D01*
X418000Y335000D02*
X422000D01*
X420000Y333000D02*
Y337000D01*
X373000Y319500D02*
X377000D01*
X375000Y317500D02*
Y321500D01*
X353000Y319500D02*
X357000D01*
X355000Y317500D02*
Y321500D01*
X378000Y435000D02*
X382000D01*
X380000Y433000D02*
Y437000D01*
X358000Y435000D02*
X362000D01*
X360000Y433000D02*
Y437000D01*
X1045000Y165000D02*
X1055000D01*
X1050000Y160000D02*
Y170000D01*
X1135000Y165000D02*
X1145000D01*
X1140000Y160000D02*
Y170000D01*
X910000Y75000D02*
Y85000D01*
X905000Y80000D02*
X915000D01*
X918000Y65000D02*
Y95000D01*
X902000Y65000D02*
Y95000D01*
X918000D01*
X902000Y65000D02*
X918000D01*
X1135000Y90000D02*
X1145000D01*
X1140000Y85000D02*
Y95000D01*
X858000Y250000D02*
X862000D01*
X860000Y248000D02*
Y252000D01*
X1220000Y48000D02*
Y52000D01*
X1218000Y50000D02*
X1222000D01*
X768000D02*
X772000D01*
X770000Y48000D02*
Y52000D01*
X860000Y48000D02*
Y52000D01*
X858000Y50000D02*
X862000D01*
X950000Y48000D02*
Y52000D01*
X948000Y50000D02*
X952000D01*
X1040000Y48000D02*
Y52000D01*
X1038000Y50000D02*
X1042000D01*
X1130000Y48000D02*
Y52000D01*
X1128000Y50000D02*
X1132000D01*
X775000Y90000D02*
X785000D01*
X780000Y85000D02*
Y95000D01*
X815000Y120000D02*
X825000D01*
X820000Y115000D02*
Y125000D01*
X870000Y85000D02*
Y95000D01*
X865000Y90000D02*
X875000D01*
X1270000Y115000D02*
Y125000D01*
X1265000Y120000D02*
X1275000D01*
X1050000Y85000D02*
Y95000D01*
X1045000Y90000D02*
X1055000D01*
X960000Y85750D02*
Y95750D01*
X955000Y90750D02*
X965000D01*
X865000Y165000D02*
X875000D01*
X870000Y160000D02*
Y170000D01*
X1305000Y315000D02*
X1315000D01*
X1310000Y310000D02*
Y320000D01*
X1270000Y315000D02*
Y325000D01*
X1265000Y320000D02*
X1275000D01*
X1230000Y285000D02*
Y295000D01*
X1225000Y290000D02*
X1235000D01*
X1180000Y315000D02*
Y325000D01*
X1175000Y320000D02*
X1185000D01*
X1135000Y290000D02*
X1145000D01*
X1140000Y285000D02*
Y295000D01*
X1090000Y315000D02*
Y325000D01*
X1085000Y320000D02*
X1095000D01*
X1050000Y285000D02*
Y295000D01*
X1045000Y290000D02*
X1055000D01*
X1000000Y315000D02*
Y325000D01*
X995000Y320000D02*
X1005000D01*
X960000Y285000D02*
Y295000D01*
X955000Y290000D02*
X965000D01*
X910000Y315000D02*
Y325000D01*
X905000Y320000D02*
X915000D01*
X870000Y285000D02*
Y295000D01*
X865000Y290000D02*
X875000D01*
X1310000Y248000D02*
Y252000D01*
X1308000Y250000D02*
X1312000D01*
X1262000Y265000D02*
X1278000D01*
X1262000Y295000D02*
X1278000D01*
X1262000Y265000D02*
Y295000D01*
X1278000Y265000D02*
Y295000D01*
X1265000Y280000D02*
X1275000D01*
X1270000Y275000D02*
Y285000D01*
X1172000Y265000D02*
X1188000D01*
X1172000Y295000D02*
X1188000D01*
X1172000Y265000D02*
Y295000D01*
X1188000Y265000D02*
Y295000D01*
X1175000Y280000D02*
X1185000D01*
X1180000Y275000D02*
Y285000D01*
X1082000Y265000D02*
X1098000D01*
X1082000Y295000D02*
X1098000D01*
X1082000Y265000D02*
Y295000D01*
X1098000Y265000D02*
Y295000D01*
X1085000Y280000D02*
X1095000D01*
X1090000Y275000D02*
Y285000D01*
X992407Y265093D02*
X1008407D01*
X992407Y295093D02*
X1008407D01*
X992407Y265093D02*
Y295093D01*
X1008407Y265093D02*
Y295093D01*
X995407Y280093D02*
X1005407D01*
X1000407Y275093D02*
Y285093D01*
X950000Y248000D02*
Y252000D01*
X948000Y250000D02*
X952000D01*
X1040452Y247640D02*
Y251640D01*
X1038452Y249640D02*
X1042452D01*
X1130000Y248000D02*
Y252000D01*
X1128000Y250000D02*
X1132000D01*
X1220000Y248000D02*
Y252000D01*
X1218000Y250000D02*
X1222000D01*
X902000Y265000D02*
X918000D01*
X902000Y295000D02*
X918000D01*
X902000Y265000D02*
Y295000D01*
X918000Y265000D02*
Y295000D01*
X905000Y280000D02*
X915000D01*
X910000Y275000D02*
Y285000D01*
X812000Y265000D02*
X828000D01*
X812000Y295000D02*
X828000D01*
X812000Y265000D02*
Y295000D01*
X828000Y265000D02*
Y295000D01*
X815000Y280000D02*
X825000D01*
X820000Y275000D02*
Y285000D01*
X1262000Y65000D02*
X1278000D01*
X1262000Y95000D02*
X1278000D01*
X1262000Y65000D02*
Y95000D01*
X1278000Y65000D02*
Y95000D01*
X1265000Y80000D02*
X1275000D01*
X1270000Y75000D02*
Y85000D01*
X1172000Y65000D02*
X1188000D01*
X1172000Y95000D02*
X1188000D01*
X1172000Y65000D02*
Y95000D01*
X1188000Y65000D02*
Y95000D01*
X1175000Y80000D02*
X1185000D01*
X1180000Y75000D02*
Y85000D01*
X1082000Y65000D02*
X1098000D01*
X1082000Y95000D02*
X1098000D01*
X1082000Y65000D02*
Y95000D01*
X1098000Y65000D02*
Y95000D01*
X1085000Y80000D02*
X1095000D01*
X1090000Y75000D02*
Y85000D01*
X992000Y65000D02*
X1008000D01*
X992000Y95000D02*
X1008000D01*
X992000Y65000D02*
Y95000D01*
X1008000Y65000D02*
Y95000D01*
X995000Y80000D02*
X1005000D01*
X1000000Y75000D02*
Y85000D01*
X655000Y240000D02*
X665000D01*
X660000Y235000D02*
Y245000D01*
X620630Y175230D02*
Y304770D01*
X699370D01*
X620630Y175230D02*
X699370D01*
Y304770D01*
X812000Y65000D02*
X828000D01*
X812000Y95000D02*
X828000D01*
X812000Y65000D02*
Y95000D01*
X828000Y65000D02*
Y95000D01*
X815000Y80000D02*
X825000D01*
X820000Y75000D02*
Y85000D01*
X660000Y333000D02*
Y337000D01*
X658000Y335000D02*
X662000D01*
X578000Y270000D02*
X582000D01*
X580000Y268000D02*
Y272000D01*
X598000Y225000D02*
X602000D01*
X600000Y223000D02*
Y227000D01*
X660000Y353000D02*
Y357000D01*
X658000Y355000D02*
X662000D01*
X578000Y225000D02*
X582000D01*
X580000Y223000D02*
Y227000D01*
X815000Y320000D02*
X825000D01*
X820000Y315000D02*
Y325000D01*
X960000Y160000D02*
Y170000D01*
X955000Y165000D02*
X965000D01*
X1265000Y400000D02*
X1275000D01*
X1270000Y395000D02*
Y405000D01*
X517510Y105320D02*
X510512D01*
Y101821D01*
X511678Y100655D01*
X514011D01*
X515177Y101821D01*
Y105320D01*
Y102987D02*
X517510Y100655D01*
Y94823D02*
X510512D01*
X514011Y98322D01*
Y93657D01*
X511678Y91325D02*
X510512Y90158D01*
Y87826D01*
X511678Y86659D01*
X516344D01*
X517510Y87826D01*
Y90158D01*
X516344Y91325D01*
X511678D01*
Y84327D02*
X510512Y83160D01*
Y80828D01*
X511678Y79662D01*
X512845D01*
X514011Y80828D01*
X515177Y79662D01*
X516344D01*
X517510Y80828D01*
Y83160D01*
X516344Y84327D01*
X515177D01*
X514011Y83160D01*
X512845Y84327D01*
X511678D01*
X514011Y83160D02*
Y80828D01*
X496101Y105320D02*
X489104D01*
Y101821D01*
X490270Y100655D01*
X492602D01*
X493769Y101821D01*
Y105320D01*
Y102987D02*
X496101Y100655D01*
Y94823D02*
X489104D01*
X492602Y98322D01*
Y93657D01*
X490270Y91325D02*
X489104Y90158D01*
Y87826D01*
X490270Y86659D01*
X494935D01*
X496101Y87826D01*
Y90158D01*
X494935Y91325D01*
X490270D01*
X489104Y84327D02*
Y79662D01*
X490270D01*
X494935Y84327D01*
X496101D01*
X474693Y105320D02*
X467695D01*
Y101821D01*
X468861Y100655D01*
X471194D01*
X472360Y101821D01*
Y105320D01*
Y102987D02*
X474693Y100655D01*
Y94823D02*
X467695D01*
X471194Y98322D01*
Y93657D01*
X468861Y91325D02*
X467695Y90158D01*
Y87826D01*
X468861Y86659D01*
X473526D01*
X474693Y87826D01*
Y90158D01*
X473526Y91325D01*
X468861D01*
X467695Y79662D02*
X468861Y81994D01*
X471194Y84327D01*
X473526D01*
X474693Y83160D01*
Y80828D01*
X473526Y79662D01*
X472360D01*
X471194Y80828D01*
Y84327D01*
X453284Y105320D02*
X446287D01*
Y101821D01*
X447453Y100655D01*
X449785D01*
X450952Y101821D01*
Y105320D01*
Y102987D02*
X453284Y100655D01*
Y94823D02*
X446287D01*
X449785Y98322D01*
Y93657D01*
X447453Y91325D02*
X446287Y90158D01*
Y87826D01*
X447453Y86659D01*
X452118D01*
X453284Y87826D01*
Y90158D01*
X452118Y91325D01*
X447453D01*
X446287Y79662D02*
Y84327D01*
X449785D01*
X448619Y81994D01*
Y80828D01*
X449785Y79662D01*
X452118D01*
X453284Y80828D01*
Y83160D01*
X452118Y84327D01*
X431876Y105320D02*
X424878D01*
Y101821D01*
X426044Y100655D01*
X428377D01*
X429543Y101821D01*
Y105320D01*
Y102987D02*
X431876Y100655D01*
Y94823D02*
X424878D01*
X428377Y98322D01*
Y93657D01*
X426044Y91325D02*
X424878Y90158D01*
Y87826D01*
X426044Y86659D01*
X430709D01*
X431876Y87826D01*
Y90158D01*
X430709Y91325D01*
X426044D01*
X431876Y80828D02*
X424878D01*
X428377Y84327D01*
Y79662D01*
X410467Y105320D02*
X403469D01*
Y101821D01*
X404636Y100655D01*
X406968D01*
X408135Y101821D01*
Y105320D01*
Y102987D02*
X410467Y100655D01*
Y94823D02*
X403469D01*
X406968Y98322D01*
Y93657D01*
X404636Y91325D02*
X403469Y90158D01*
Y87826D01*
X404636Y86659D01*
X409301D01*
X410467Y87826D01*
Y90158D01*
X409301Y91325D01*
X404636D01*
Y84327D02*
X403469Y83160D01*
Y80828D01*
X404636Y79662D01*
X405802D01*
X406968Y80828D01*
Y81994D01*
Y80828D01*
X408135Y79662D01*
X409301D01*
X410467Y80828D01*
Y83160D01*
X409301Y84327D01*
X389059Y105320D02*
X382061D01*
Y101821D01*
X383227Y100655D01*
X385560D01*
X386726Y101821D01*
Y105320D01*
Y102987D02*
X389059Y100655D01*
Y94823D02*
X382061D01*
X385560Y98322D01*
Y93657D01*
X383227Y91325D02*
X382061Y90158D01*
Y87826D01*
X383227Y86659D01*
X387892D01*
X389059Y87826D01*
Y90158D01*
X387892Y91325D01*
X383227D01*
X389059Y79662D02*
Y84327D01*
X384393Y79662D01*
X383227D01*
X382061Y80828D01*
Y83160D01*
X383227Y84327D01*
X367650Y105320D02*
X360652D01*
Y101821D01*
X361819Y100655D01*
X364151D01*
X365317Y101821D01*
Y105320D01*
Y102987D02*
X367650Y100655D01*
Y94823D02*
X360652D01*
X364151Y98322D01*
Y93657D01*
X361819Y91325D02*
X360652Y90158D01*
Y87826D01*
X361819Y86659D01*
X366484D01*
X367650Y87826D01*
Y90158D01*
X366484Y91325D01*
X361819D01*
X367650Y84327D02*
Y81994D01*
Y83160D01*
X360652D01*
X361819Y84327D01*
X380639Y144875D02*
X379472Y146041D01*
Y148374D01*
X380639Y149540D01*
X385304D01*
X386470Y148374D01*
Y146041D01*
X385304Y144875D01*
X386470Y139043D02*
X379472D01*
X382971Y142542D01*
Y137877D01*
X380639Y135545D02*
X379472Y134378D01*
Y132046D01*
X380639Y130879D01*
X385304D01*
X386470Y132046D01*
Y134378D01*
X385304Y135545D01*
X380639D01*
X386470Y123882D02*
Y128547D01*
X381805Y123882D01*
X380639D01*
X379472Y125048D01*
Y127381D01*
X380639Y128547D01*
X463831Y204665D02*
X464998Y203499D01*
Y201166D01*
X463831Y200000D01*
X459166D01*
X458000Y201166D01*
Y203499D01*
X459166Y204665D01*
X458000Y210497D02*
X464998D01*
X461499Y206998D01*
Y211663D01*
X458000Y213995D02*
Y216328D01*
Y215162D01*
X464998D01*
X463831Y213995D01*
Y219827D02*
X464998Y220993D01*
Y223326D01*
X463831Y224492D01*
X459166D01*
X458000Y223326D01*
Y220993D01*
X459166Y219827D01*
X463831D01*
X403831Y205165D02*
X404998Y203999D01*
Y201666D01*
X403831Y200500D01*
X399166D01*
X398000Y201666D01*
Y203999D01*
X399166Y205165D01*
X398000Y210997D02*
X404998D01*
X401499Y207498D01*
Y212163D01*
X403831Y214496D02*
X404998Y215662D01*
Y217994D01*
X403831Y219161D01*
X399166D01*
X398000Y217994D01*
Y215662D01*
X399166Y214496D01*
X403831D01*
X399166Y221493D02*
X398000Y222659D01*
Y224992D01*
X399166Y226158D01*
X403831D01*
X404998Y224992D01*
Y222659D01*
X403831Y221493D01*
X402665D01*
X401499Y222659D01*
Y226158D01*
X510179Y144875D02*
X509012Y146041D01*
Y148374D01*
X510179Y149540D01*
X514844D01*
X516010Y148374D01*
Y146041D01*
X514844Y144875D01*
X516010Y139043D02*
X509012D01*
X512511Y142542D01*
Y137877D01*
X510179Y135545D02*
X509012Y134378D01*
Y132046D01*
X510179Y130879D01*
X514844D01*
X516010Y132046D01*
Y134378D01*
X514844Y135545D01*
X510179D01*
Y128547D02*
X509012Y127381D01*
Y125048D01*
X510179Y123882D01*
X511345D01*
X512511Y125048D01*
X513678Y123882D01*
X514844D01*
X516010Y125048D01*
Y127381D01*
X514844Y128547D01*
X513678D01*
X512511Y127381D01*
X511345Y128547D01*
X510179D01*
X512511Y127381D02*
Y125048D01*
X488589Y144875D02*
X487422Y146041D01*
Y148374D01*
X488589Y149540D01*
X493254D01*
X494420Y148374D01*
Y146041D01*
X493254Y144875D01*
X494420Y139043D02*
X487422D01*
X490921Y142542D01*
Y137877D01*
X488589Y135545D02*
X487422Y134378D01*
Y132046D01*
X488589Y130879D01*
X493254D01*
X494420Y132046D01*
Y134378D01*
X493254Y135545D01*
X488589D01*
X487422Y128547D02*
Y123882D01*
X488589D01*
X493254Y128547D01*
X494420D01*
X466999Y144875D02*
X465832Y146041D01*
Y148374D01*
X466999Y149540D01*
X471664D01*
X472830Y148374D01*
Y146041D01*
X471664Y144875D01*
X472830Y139043D02*
X465832D01*
X469331Y142542D01*
Y137877D01*
X466999Y135545D02*
X465832Y134378D01*
Y132046D01*
X466999Y130879D01*
X471664D01*
X472830Y132046D01*
Y134378D01*
X471664Y135545D01*
X466999D01*
X465832Y123882D02*
X466999Y126214D01*
X469331Y128547D01*
X471664D01*
X472830Y127381D01*
Y125048D01*
X471664Y123882D01*
X470498D01*
X469331Y125048D01*
Y128547D01*
X445409Y144875D02*
X444242Y146041D01*
Y148374D01*
X445409Y149540D01*
X450074D01*
X451240Y148374D01*
Y146041D01*
X450074Y144875D01*
X451240Y139043D02*
X444242D01*
X447741Y142542D01*
Y137877D01*
X445409Y135545D02*
X444242Y134378D01*
Y132046D01*
X445409Y130879D01*
X450074D01*
X451240Y132046D01*
Y134378D01*
X450074Y135545D01*
X445409D01*
X444242Y123882D02*
Y128547D01*
X447741D01*
X446575Y126214D01*
Y125048D01*
X447741Y123882D01*
X450074D01*
X451240Y125048D01*
Y127381D01*
X450074Y128547D01*
X423819Y144875D02*
X422652Y146041D01*
Y148374D01*
X423819Y149540D01*
X428484D01*
X429650Y148374D01*
Y146041D01*
X428484Y144875D01*
X429650Y139043D02*
X422652D01*
X426151Y142542D01*
Y137877D01*
X423819Y135545D02*
X422652Y134378D01*
Y132046D01*
X423819Y130879D01*
X428484D01*
X429650Y132046D01*
Y134378D01*
X428484Y135545D01*
X423819D01*
X429650Y125048D02*
X422652D01*
X426151Y128547D01*
Y123882D01*
X402229Y144875D02*
X401062Y146041D01*
Y148374D01*
X402229Y149540D01*
X406894D01*
X408060Y148374D01*
Y146041D01*
X406894Y144875D01*
X408060Y139043D02*
X401062D01*
X404561Y142542D01*
Y137877D01*
X402229Y135545D02*
X401062Y134378D01*
Y132046D01*
X402229Y130879D01*
X406894D01*
X408060Y132046D01*
Y134378D01*
X406894Y135545D01*
X402229D01*
Y128547D02*
X401062Y127381D01*
Y125048D01*
X402229Y123882D01*
X403395D01*
X404561Y125048D01*
Y126214D01*
Y125048D01*
X405728Y123882D01*
X406894D01*
X408060Y125048D01*
Y127381D01*
X406894Y128547D01*
X359049Y144875D02*
X357882Y146041D01*
Y148374D01*
X359049Y149540D01*
X363714D01*
X364880Y148374D01*
Y146041D01*
X363714Y144875D01*
X364880Y139043D02*
X357882D01*
X361381Y142542D01*
Y137877D01*
X359049Y135545D02*
X357882Y134378D01*
Y132046D01*
X359049Y130879D01*
X363714D01*
X364880Y132046D01*
Y134378D01*
X363714Y135545D01*
X359049D01*
X364880Y128547D02*
Y126214D01*
Y127381D01*
X357882D01*
X359049Y128547D01*
X438831Y443165D02*
X439998Y441999D01*
Y439666D01*
X438831Y438500D01*
X434166D01*
X433000Y439666D01*
Y441999D01*
X434166Y443165D01*
X433000Y450163D02*
Y445498D01*
X437665Y450163D01*
X438831D01*
X439998Y448997D01*
Y446664D01*
X438831Y445498D01*
Y452495D02*
X439998Y453662D01*
Y455994D01*
X438831Y457161D01*
X434166D01*
X433000Y455994D01*
Y453662D01*
X434166Y452495D01*
X438831D01*
Y459493D02*
X439998Y460660D01*
Y462992D01*
X438831Y464158D01*
X437665D01*
X436499Y462992D01*
X435333Y464158D01*
X434166D01*
X433000Y462992D01*
Y460660D01*
X434166Y459493D01*
X435333D01*
X436499Y460660D01*
X437665Y459493D01*
X438831D01*
X436499Y460660D02*
Y462992D01*
X266500Y443500D02*
X273498D01*
Y446999D01*
X272332Y448165D01*
X269999D01*
X268833Y446999D01*
Y443500D01*
Y445833D02*
X266500Y448165D01*
Y455163D02*
Y450498D01*
X271165Y455163D01*
X272332D01*
X273498Y453997D01*
Y451664D01*
X272332Y450498D01*
X266500Y457495D02*
Y459828D01*
Y458662D01*
X273498D01*
X272332Y457495D01*
X266500Y463327D02*
Y465659D01*
Y464493D01*
X273498D01*
X272332Y463327D01*
X453500Y478500D02*
Y471502D01*
X456999D01*
X458165Y472668D01*
Y475001D01*
X456999Y476167D01*
X453500D01*
X455833D02*
X458165Y478500D01*
X465163D02*
X460498D01*
X465163Y473835D01*
Y472668D01*
X463997Y471502D01*
X461664D01*
X460498Y472668D01*
X467495Y478500D02*
X469828D01*
X468662D01*
Y471502D01*
X467495Y472668D01*
X473327D02*
X474493Y471502D01*
X476826D01*
X477992Y472668D01*
Y477334D01*
X476826Y478500D01*
X474493D01*
X473327Y477334D01*
Y472668D01*
X250331Y108165D02*
X251498Y106999D01*
Y104666D01*
X250331Y103500D01*
X245666D01*
X244500Y104666D01*
Y106999D01*
X245666Y108165D01*
X250331Y110498D02*
X251498Y111664D01*
Y113997D01*
X250331Y115163D01*
X249165D01*
X247999Y113997D01*
Y112830D01*
Y113997D01*
X246833Y115163D01*
X245666D01*
X244500Y113997D01*
Y111664D01*
X245666Y110498D01*
X244500Y117495D02*
Y119828D01*
Y118662D01*
X251498D01*
X250331Y117495D01*
Y123327D02*
X251498Y124493D01*
Y126826D01*
X250331Y127992D01*
X245666D01*
X244500Y126826D01*
Y124493D01*
X245666Y123327D01*
X250331D01*
X267539Y108165D02*
X268706Y106999D01*
Y104666D01*
X267539Y103500D01*
X262874D01*
X261708Y104666D01*
Y106999D01*
X262874Y108165D01*
X267539Y110498D02*
X268706Y111664D01*
Y113997D01*
X267539Y115163D01*
X266373D01*
X265207Y113997D01*
Y112830D01*
Y113997D01*
X264041Y115163D01*
X262874D01*
X261708Y113997D01*
Y111664D01*
X262874Y110498D01*
X267539Y117495D02*
X268706Y118662D01*
Y120994D01*
X267539Y122161D01*
X262874D01*
X261708Y120994D01*
Y118662D01*
X262874Y117495D01*
X267539D01*
X262874Y124493D02*
X261708Y125660D01*
Y127992D01*
X262874Y129158D01*
X267539D01*
X268706Y127992D01*
Y125660D01*
X267539Y124493D01*
X266373D01*
X265207Y125660D01*
Y129158D01*
X284747Y108165D02*
X285914Y106999D01*
Y104666D01*
X284747Y103500D01*
X280082D01*
X278916Y104666D01*
Y106999D01*
X280082Y108165D01*
X284747Y110498D02*
X285914Y111664D01*
Y113997D01*
X284747Y115163D01*
X283581D01*
X282415Y113997D01*
Y112830D01*
Y113997D01*
X281248Y115163D01*
X280082D01*
X278916Y113997D01*
Y111664D01*
X280082Y110498D01*
X284747Y117495D02*
X285914Y118662D01*
Y120994D01*
X284747Y122161D01*
X280082D01*
X278916Y120994D01*
Y118662D01*
X280082Y117495D01*
X284747D01*
Y124493D02*
X285914Y125660D01*
Y127992D01*
X284747Y129158D01*
X283581D01*
X282415Y127992D01*
X281248Y129158D01*
X280082D01*
X278916Y127992D01*
Y125660D01*
X280082Y124493D01*
X281248D01*
X282415Y125660D01*
X283581Y124493D01*
X284747D01*
X282415Y125660D02*
Y127992D01*
X771500Y273500D02*
X778498D01*
Y276999D01*
X777331Y278165D01*
X774999D01*
X773833Y276999D01*
Y273500D01*
Y275833D02*
X771500Y278165D01*
X778498Y285163D02*
Y280498D01*
X774999D01*
X776165Y282830D01*
Y283997D01*
X774999Y285163D01*
X772666D01*
X771500Y283997D01*
Y281664D01*
X772666Y280498D01*
X771500Y292161D02*
Y287495D01*
X776165Y292161D01*
X777331D01*
X778498Y290994D01*
Y288662D01*
X777331Y287495D01*
X771500Y297992D02*
X778498D01*
X774999Y294493D01*
Y299158D01*
X418831Y324665D02*
X419998Y323499D01*
Y321166D01*
X418831Y320000D01*
X414166D01*
X413000Y321166D01*
Y323499D01*
X414166Y324665D01*
X413000Y331663D02*
Y326998D01*
X417665Y331663D01*
X418831D01*
X419998Y330497D01*
Y328164D01*
X418831Y326998D01*
Y333996D02*
X419998Y335162D01*
Y337494D01*
X418831Y338661D01*
X414166D01*
X413000Y337494D01*
Y335162D01*
X414166Y333996D01*
X418831D01*
Y340993D02*
X419998Y342160D01*
Y344492D01*
X418831Y345658D01*
X417665D01*
X416499Y344492D01*
Y343326D01*
Y344492D01*
X415332Y345658D01*
X414166D01*
X413000Y344492D01*
Y342160D01*
X414166Y340993D01*
X376169Y329835D02*
X375002Y331001D01*
Y333334D01*
X376169Y334500D01*
X380834D01*
X382000Y333334D01*
Y331001D01*
X380834Y329835D01*
X382000Y322837D02*
Y327502D01*
X377335Y322837D01*
X376169D01*
X375002Y324003D01*
Y326336D01*
X376169Y327502D01*
Y320504D02*
X375002Y319338D01*
Y317006D01*
X376169Y315839D01*
X380834D01*
X382000Y317006D01*
Y319338D01*
X380834Y320504D01*
X376169D01*
X375002Y313507D02*
Y308842D01*
X376169D01*
X380834Y313507D01*
X382000D01*
X356831Y315165D02*
X357998Y313999D01*
Y311666D01*
X356831Y310500D01*
X352166D01*
X351000Y311666D01*
Y313999D01*
X352166Y315165D01*
X351000Y322163D02*
Y317498D01*
X355665Y322163D01*
X356831D01*
X357998Y320997D01*
Y318664D01*
X356831Y317498D01*
Y324496D02*
X357998Y325662D01*
Y327994D01*
X356831Y329161D01*
X352166D01*
X351000Y327994D01*
Y325662D01*
X352166Y324496D01*
X356831D01*
X357998Y336158D02*
Y331493D01*
X354499D01*
X355665Y333826D01*
Y334992D01*
X354499Y336158D01*
X352166D01*
X351000Y334992D01*
Y332659D01*
X352166Y331493D01*
X381169Y445335D02*
X380002Y446501D01*
Y448834D01*
X381169Y450000D01*
X385834D01*
X387000Y448834D01*
Y446501D01*
X385834Y445335D01*
X387000Y438337D02*
Y443002D01*
X382335Y438337D01*
X381169D01*
X380002Y439503D01*
Y441836D01*
X381169Y443002D01*
Y436004D02*
X380002Y434838D01*
Y432506D01*
X381169Y431339D01*
X385834D01*
X387000Y432506D01*
Y434838D01*
X385834Y436004D01*
X381169D01*
X380002Y424342D02*
X381169Y426674D01*
X383501Y429007D01*
X385834D01*
X387000Y427840D01*
Y425508D01*
X385834Y424342D01*
X384667D01*
X383501Y425508D01*
Y429007D01*
X358831Y424665D02*
X359998Y423499D01*
Y421166D01*
X358831Y420000D01*
X354166D01*
X353000Y421166D01*
Y423499D01*
X354166Y424665D01*
X353000Y431663D02*
Y426998D01*
X357665Y431663D01*
X358831D01*
X359998Y430497D01*
Y428164D01*
X358831Y426998D01*
Y433995D02*
X359998Y435162D01*
Y437494D01*
X358831Y438661D01*
X354166D01*
X353000Y437494D01*
Y435162D01*
X354166Y433995D01*
X358831D01*
X353000Y444492D02*
X359998D01*
X356499Y440993D01*
Y445658D01*
X1066500Y156500D02*
Y163498D01*
X1063001D01*
X1061835Y162332D01*
Y159999D01*
X1063001Y158833D01*
X1066500D01*
X1064167D02*
X1061835Y156500D01*
X1054837Y163498D02*
X1059502D01*
Y159999D01*
X1057170Y161165D01*
X1056003D01*
X1054837Y159999D01*
Y157666D01*
X1056003Y156500D01*
X1058336D01*
X1059502Y157666D01*
X1052505Y156500D02*
X1050172D01*
X1051338D01*
Y163498D01*
X1052505Y162332D01*
X1046673Y157666D02*
X1045507Y156500D01*
X1043174D01*
X1042008Y157666D01*
Y162332D01*
X1043174Y163498D01*
X1045507D01*
X1046673Y162332D01*
Y161165D01*
X1045507Y159999D01*
X1042008D01*
X1156500Y156500D02*
Y163498D01*
X1153001D01*
X1151835Y162332D01*
Y159999D01*
X1153001Y158833D01*
X1156500D01*
X1154167D02*
X1151835Y156500D01*
X1144837Y163498D02*
X1149502D01*
Y159999D01*
X1147170Y161165D01*
X1146003D01*
X1144837Y159999D01*
Y157666D01*
X1146003Y156500D01*
X1148336D01*
X1149502Y157666D01*
X1137839Y156500D02*
X1142505D01*
X1137839Y161165D01*
Y162332D01*
X1139006Y163498D01*
X1141338D01*
X1142505Y162332D01*
X1135507Y156500D02*
X1133174D01*
X1134341D01*
Y163498D01*
X1135507Y162332D01*
X929835Y62166D02*
Y66831D01*
X931001Y67998D01*
X933334D01*
X934500Y66831D01*
Y62166D01*
X933334Y61000D01*
X931001D01*
X932167Y63333D02*
X929835Y61000D01*
X931001D02*
X929835Y62166D01*
X922837Y67998D02*
X927502D01*
Y64499D01*
X925170Y65665D01*
X924003D01*
X922837Y64499D01*
Y62166D01*
X924003Y61000D01*
X926336D01*
X927502Y62166D01*
X920505Y66831D02*
X919338Y67998D01*
X917006D01*
X915839Y66831D01*
Y62166D01*
X917006Y61000D01*
X919338D01*
X920505Y62166D01*
Y66831D01*
X908842Y61000D02*
X913507D01*
X908842Y65665D01*
Y66831D01*
X910008Y67998D01*
X912340D01*
X913507Y66831D01*
X1131500Y73500D02*
X1138498D01*
Y76999D01*
X1137331Y78165D01*
X1134999D01*
X1133833Y76999D01*
Y73500D01*
Y75833D02*
X1131500Y78165D01*
X1138498Y85163D02*
Y80498D01*
X1134999D01*
X1136165Y82830D01*
Y83997D01*
X1134999Y85163D01*
X1132666D01*
X1131500Y83997D01*
Y81664D01*
X1132666Y80498D01*
X1131500Y92161D02*
Y87495D01*
X1136165Y92161D01*
X1137331D01*
X1138498Y90994D01*
Y88662D01*
X1137331Y87495D01*
X1131500Y99158D02*
Y94493D01*
X1136165Y99158D01*
X1137331D01*
X1138498Y97992D01*
Y95660D01*
X1137331Y94493D01*
X849665Y251168D02*
X848499Y250002D01*
X846166D01*
X845000Y251168D01*
Y255834D01*
X846166Y257000D01*
X848499D01*
X849665Y255834D01*
X856663Y250002D02*
X851998D01*
Y253501D01*
X854330Y252335D01*
X855497D01*
X856663Y253501D01*
Y255834D01*
X855497Y257000D01*
X853164D01*
X851998Y255834D01*
X858996Y251168D02*
X860162Y250002D01*
X862494D01*
X863661Y251168D01*
Y255834D01*
X862494Y257000D01*
X860162D01*
X858996Y255834D01*
Y251168D01*
X865993Y250002D02*
X870658D01*
Y251168D01*
X865993Y255834D01*
Y257000D01*
X1209665Y51168D02*
X1208499Y50002D01*
X1206166D01*
X1205000Y51168D01*
Y55834D01*
X1206166Y57000D01*
X1208499D01*
X1209665Y55834D01*
X1216663Y50002D02*
X1211998D01*
Y53501D01*
X1214330Y52335D01*
X1215497D01*
X1216663Y53501D01*
Y55834D01*
X1215497Y57000D01*
X1213164D01*
X1211998Y55834D01*
X1218996Y51168D02*
X1220162Y50002D01*
X1222494D01*
X1223661Y51168D01*
Y55834D01*
X1222494Y57000D01*
X1220162D01*
X1218996Y55834D01*
Y51168D01*
X1230658Y50002D02*
X1228326Y51168D01*
X1225993Y53501D01*
Y55834D01*
X1227160Y57000D01*
X1229492D01*
X1230658Y55834D01*
Y54667D01*
X1229492Y53501D01*
X1225993D01*
X759665Y51168D02*
X758499Y50002D01*
X756166D01*
X755000Y51168D01*
Y55834D01*
X756166Y57000D01*
X758499D01*
X759665Y55834D01*
X766663Y50002D02*
X761998D01*
Y53501D01*
X764330Y52335D01*
X765497D01*
X766663Y53501D01*
Y55834D01*
X765497Y57000D01*
X763164D01*
X761998Y55834D01*
X768996Y51168D02*
X770162Y50002D01*
X772494D01*
X773661Y51168D01*
Y55834D01*
X772494Y57000D01*
X770162D01*
X768996Y55834D01*
Y51168D01*
X775993Y57000D02*
X778326D01*
X777160D01*
Y50002D01*
X775993Y51168D01*
X849665D02*
X848499Y50002D01*
X846166D01*
X845000Y51168D01*
Y55834D01*
X846166Y57000D01*
X848499D01*
X849665Y55834D01*
X856663Y50002D02*
X851998D01*
Y53501D01*
X854330Y52335D01*
X855497D01*
X856663Y53501D01*
Y55834D01*
X855497Y57000D01*
X853164D01*
X851998Y55834D01*
X858996Y51168D02*
X860162Y50002D01*
X862494D01*
X863661Y51168D01*
Y55834D01*
X862494Y57000D01*
X860162D01*
X858996Y55834D01*
Y51168D01*
X870658Y57000D02*
X865993D01*
X870658Y52335D01*
Y51168D01*
X869492Y50002D01*
X867160D01*
X865993Y51168D01*
X939665D02*
X938499Y50002D01*
X936166D01*
X935000Y51168D01*
Y55834D01*
X936166Y57000D01*
X938499D01*
X939665Y55834D01*
X946663Y50002D02*
X941998D01*
Y53501D01*
X944330Y52335D01*
X945497D01*
X946663Y53501D01*
Y55834D01*
X945497Y57000D01*
X943164D01*
X941998Y55834D01*
X948996Y51168D02*
X950162Y50002D01*
X952494D01*
X953661Y51168D01*
Y55834D01*
X952494Y57000D01*
X950162D01*
X948996Y55834D01*
Y51168D01*
X955993D02*
X957160Y50002D01*
X959492D01*
X960658Y51168D01*
Y52335D01*
X959492Y53501D01*
X958326D01*
X959492D01*
X960658Y54667D01*
Y55834D01*
X959492Y57000D01*
X957160D01*
X955993Y55834D01*
X1029665Y51168D02*
X1028499Y50002D01*
X1026166D01*
X1025000Y51168D01*
Y55834D01*
X1026166Y57000D01*
X1028499D01*
X1029665Y55834D01*
X1036663Y50002D02*
X1031998D01*
Y53501D01*
X1034330Y52335D01*
X1035497D01*
X1036663Y53501D01*
Y55834D01*
X1035497Y57000D01*
X1033164D01*
X1031998Y55834D01*
X1038996Y51168D02*
X1040162Y50002D01*
X1042494D01*
X1043661Y51168D01*
Y55834D01*
X1042494Y57000D01*
X1040162D01*
X1038996Y55834D01*
Y51168D01*
X1049492Y57000D02*
Y50002D01*
X1045993Y53501D01*
X1050658D01*
X1119665Y51168D02*
X1118499Y50002D01*
X1116166D01*
X1115000Y51168D01*
Y55834D01*
X1116166Y57000D01*
X1118499D01*
X1119665Y55834D01*
X1126663Y50002D02*
X1121998D01*
Y53501D01*
X1124330Y52335D01*
X1125497D01*
X1126663Y53501D01*
Y55834D01*
X1125497Y57000D01*
X1123164D01*
X1121998Y55834D01*
X1128996Y51168D02*
X1130162Y50002D01*
X1132494D01*
X1133661Y51168D01*
Y55834D01*
X1132494Y57000D01*
X1130162D01*
X1128996Y55834D01*
Y51168D01*
X1140658Y50002D02*
X1135993D01*
Y53501D01*
X1138326Y52335D01*
X1139492D01*
X1140658Y53501D01*
Y55834D01*
X1139492Y57000D01*
X1137160D01*
X1135993Y55834D01*
X771500Y73500D02*
X778498D01*
Y76999D01*
X777331Y78165D01*
X774999D01*
X773833Y76999D01*
Y73500D01*
Y75833D02*
X771500Y78165D01*
X778498Y85163D02*
Y80498D01*
X774999D01*
X776165Y82831D01*
Y83997D01*
X774999Y85163D01*
X772666D01*
X771500Y83997D01*
Y81664D01*
X772666Y80498D01*
X771500Y87496D02*
Y89828D01*
Y88662D01*
X778498D01*
X777331Y87496D01*
X771500Y96826D02*
X778498D01*
X774999Y93327D01*
Y97992D01*
X811500Y103500D02*
X818498D01*
Y106999D01*
X817331Y108165D01*
X814999D01*
X813832Y106999D01*
Y103500D01*
Y105833D02*
X811500Y108165D01*
X818498Y115163D02*
Y110498D01*
X814999D01*
X816165Y112830D01*
Y113996D01*
X814999Y115163D01*
X812666D01*
X811500Y113996D01*
Y111664D01*
X812666Y110498D01*
X811500Y117495D02*
Y119828D01*
Y118662D01*
X818498D01*
X817331Y117495D01*
Y123327D02*
X818498Y124493D01*
Y126826D01*
X817331Y127992D01*
X816165D01*
X814999Y126826D01*
Y125660D01*
Y126826D01*
X813832Y127992D01*
X812666D01*
X811500Y126826D01*
Y124493D01*
X812666Y123327D01*
X861500Y73500D02*
X868498D01*
Y76999D01*
X867331Y78165D01*
X864999D01*
X863833Y76999D01*
Y73500D01*
Y75833D02*
X861500Y78165D01*
X868498Y85163D02*
Y80498D01*
X864999D01*
X866165Y82830D01*
Y83997D01*
X864999Y85163D01*
X862666D01*
X861500Y83997D01*
Y81664D01*
X862666Y80498D01*
X861500Y87495D02*
Y89828D01*
Y88662D01*
X868498D01*
X867331Y87495D01*
X868498Y97992D02*
X867331Y95660D01*
X864999Y93327D01*
X862666D01*
X861500Y94493D01*
Y96826D01*
X862666Y97992D01*
X863833D01*
X864999Y96826D01*
Y93327D01*
X1261500Y103500D02*
X1268498D01*
Y106999D01*
X1267331Y108165D01*
X1264999D01*
X1263832Y106999D01*
Y103500D01*
Y105833D02*
X1261500Y108165D01*
X1268498Y115163D02*
Y110498D01*
X1264999D01*
X1266165Y112830D01*
Y113997D01*
X1264999Y115163D01*
X1262666D01*
X1261500Y113997D01*
Y111664D01*
X1262666Y110498D01*
X1261500Y122161D02*
Y117495D01*
X1266165Y122161D01*
X1267331D01*
X1268498Y120994D01*
Y118662D01*
X1267331Y117495D01*
Y124493D02*
X1268498Y125660D01*
Y127992D01*
X1267331Y129158D01*
X1266165D01*
X1264999Y127992D01*
Y126826D01*
Y127992D01*
X1263832Y129158D01*
X1262666D01*
X1261500Y127992D01*
Y125660D01*
X1262666Y124493D01*
X1041500Y73500D02*
X1048498D01*
Y76999D01*
X1047331Y78165D01*
X1044999D01*
X1043833Y76999D01*
Y73500D01*
Y75833D02*
X1041500Y78165D01*
X1048498Y85163D02*
Y80498D01*
X1044999D01*
X1046165Y82830D01*
Y83997D01*
X1044999Y85163D01*
X1042666D01*
X1041500Y83997D01*
Y81664D01*
X1042666Y80498D01*
X1041500Y92161D02*
Y87495D01*
X1046165Y92161D01*
X1047331D01*
X1048498Y90994D01*
Y88662D01*
X1047331Y87495D01*
Y94493D02*
X1048498Y95660D01*
Y97992D01*
X1047331Y99158D01*
X1042666D01*
X1041500Y97992D01*
Y95660D01*
X1042666Y94493D01*
X1047331D01*
X951500Y74250D02*
X958498D01*
Y77749D01*
X957331Y78915D01*
X954999D01*
X953833Y77749D01*
Y74250D01*
Y76583D02*
X951500Y78915D01*
X958498Y85913D02*
Y81248D01*
X954999D01*
X956165Y83580D01*
Y84747D01*
X954999Y85913D01*
X952666D01*
X951500Y84747D01*
Y82414D01*
X952666Y81248D01*
X951500Y88245D02*
Y90578D01*
Y89412D01*
X958498D01*
X957331Y88245D01*
Y94077D02*
X958498Y95243D01*
Y97576D01*
X957331Y98742D01*
X956165D01*
X954999Y97576D01*
X953833Y98742D01*
X952666D01*
X951500Y97576D01*
Y95243D01*
X952666Y94077D01*
X953833D01*
X954999Y95243D01*
X956165Y94077D01*
X957331D01*
X954999Y95243D02*
Y97576D01*
X886500Y156500D02*
Y163498D01*
X883001D01*
X881834Y162332D01*
Y159999D01*
X883001Y158833D01*
X886500D01*
X884167D02*
X881834Y156500D01*
X874837Y163498D02*
X879502D01*
Y159999D01*
X877169Y161165D01*
X876003D01*
X874837Y159999D01*
Y157666D01*
X876003Y156500D01*
X878336D01*
X879502Y157666D01*
X872504Y156500D02*
X870172D01*
X871338D01*
Y163498D01*
X872504Y162332D01*
X862008Y163498D02*
X866673D01*
Y159999D01*
X864340Y161165D01*
X863174D01*
X862008Y159999D01*
Y157666D01*
X863174Y156500D01*
X865506D01*
X866673Y157666D01*
X1293500Y323500D02*
Y316502D01*
X1296999D01*
X1298165Y317668D01*
Y320001D01*
X1296999Y321167D01*
X1293500D01*
X1295833D02*
X1298165Y323500D01*
X1305163Y316502D02*
X1300498D01*
Y320001D01*
X1302830Y318835D01*
X1303997D01*
X1305163Y320001D01*
Y322334D01*
X1303997Y323500D01*
X1301664D01*
X1300498Y322334D01*
X1307496Y317668D02*
X1308662Y316502D01*
X1310994D01*
X1312161Y317668D01*
Y318835D01*
X1310994Y320001D01*
X1309828D01*
X1310994D01*
X1312161Y321167D01*
Y322334D01*
X1310994Y323500D01*
X1308662D01*
X1307496Y322334D01*
X1319158Y316502D02*
X1316826Y317668D01*
X1314493Y320001D01*
Y322334D01*
X1315659Y323500D01*
X1317992D01*
X1319158Y322334D01*
Y321167D01*
X1317992Y320001D01*
X1314493D01*
X1261500Y303500D02*
X1268498D01*
Y306999D01*
X1267331Y308165D01*
X1264999D01*
X1263832Y306999D01*
Y303500D01*
Y305833D02*
X1261500Y308165D01*
X1268498Y315163D02*
Y310498D01*
X1264999D01*
X1266165Y312830D01*
Y313997D01*
X1264999Y315163D01*
X1262666D01*
X1261500Y313997D01*
Y311664D01*
X1262666Y310498D01*
X1267331Y317495D02*
X1268498Y318662D01*
Y320994D01*
X1267331Y322161D01*
X1266165D01*
X1264999Y320994D01*
Y319828D01*
Y320994D01*
X1263832Y322161D01*
X1262666D01*
X1261500Y320994D01*
Y318662D01*
X1262666Y317495D01*
X1268498Y329158D02*
Y324493D01*
X1264999D01*
X1266165Y326826D01*
Y327992D01*
X1264999Y329158D01*
X1262666D01*
X1261500Y327992D01*
Y325659D01*
X1262666Y324493D01*
X1221500Y273500D02*
X1228498D01*
Y276999D01*
X1227331Y278165D01*
X1224999D01*
X1223833Y276999D01*
Y273500D01*
Y275833D02*
X1221500Y278165D01*
X1228498Y285163D02*
Y280498D01*
X1224999D01*
X1226165Y282830D01*
Y283997D01*
X1224999Y285163D01*
X1222666D01*
X1221500Y283997D01*
Y281664D01*
X1222666Y280498D01*
X1227331Y287495D02*
X1228498Y288662D01*
Y290994D01*
X1227331Y292161D01*
X1226165D01*
X1224999Y290994D01*
Y289828D01*
Y290994D01*
X1223833Y292161D01*
X1222666D01*
X1221500Y290994D01*
Y288662D01*
X1222666Y287495D01*
X1221500Y297992D02*
X1228498D01*
X1224999Y294493D01*
Y299158D01*
X1171500Y303500D02*
X1178498D01*
Y306999D01*
X1177331Y308165D01*
X1174999D01*
X1173833Y306999D01*
Y303500D01*
Y305833D02*
X1171500Y308165D01*
X1178498Y315163D02*
Y310498D01*
X1174999D01*
X1176165Y312830D01*
Y313997D01*
X1174999Y315163D01*
X1172666D01*
X1171500Y313997D01*
Y311664D01*
X1172666Y310498D01*
X1177331Y317495D02*
X1178498Y318662D01*
Y320994D01*
X1177331Y322161D01*
X1176165D01*
X1174999Y320994D01*
Y319828D01*
Y320994D01*
X1173833Y322161D01*
X1172666D01*
X1171500Y320994D01*
Y318662D01*
X1172666Y317495D01*
X1177331Y324493D02*
X1178498Y325659D01*
Y327992D01*
X1177331Y329158D01*
X1176165D01*
X1174999Y327992D01*
Y326826D01*
Y327992D01*
X1173833Y329158D01*
X1172666D01*
X1171500Y327992D01*
Y325659D01*
X1172666Y324493D01*
X1131500Y273500D02*
X1138498D01*
Y276999D01*
X1137331Y278165D01*
X1134999D01*
X1133833Y276999D01*
Y273500D01*
Y275833D02*
X1131500Y278165D01*
X1138498Y285163D02*
Y280498D01*
X1134999D01*
X1136165Y282830D01*
Y283997D01*
X1134999Y285163D01*
X1132666D01*
X1131500Y283997D01*
Y281664D01*
X1132666Y280498D01*
X1137331Y287495D02*
X1138498Y288662D01*
Y290994D01*
X1137331Y292161D01*
X1136165D01*
X1134999Y290994D01*
Y289828D01*
Y290994D01*
X1133833Y292161D01*
X1132666D01*
X1131500Y290994D01*
Y288662D01*
X1132666Y287495D01*
X1131500Y299158D02*
Y294493D01*
X1136165Y299158D01*
X1137331D01*
X1138498Y297992D01*
Y295660D01*
X1137331Y294493D01*
X1081500Y303500D02*
X1088498D01*
Y306999D01*
X1087331Y308165D01*
X1084999D01*
X1083833Y306999D01*
Y303500D01*
Y305833D02*
X1081500Y308165D01*
X1088498Y315163D02*
Y310498D01*
X1084999D01*
X1086165Y312830D01*
Y313997D01*
X1084999Y315163D01*
X1082666D01*
X1081500Y313997D01*
Y311664D01*
X1082666Y310498D01*
X1087331Y317495D02*
X1088498Y318662D01*
Y320994D01*
X1087331Y322161D01*
X1086165D01*
X1084999Y320994D01*
Y319828D01*
Y320994D01*
X1083833Y322161D01*
X1082666D01*
X1081500Y320994D01*
Y318662D01*
X1082666Y317495D01*
X1081500Y324493D02*
Y326826D01*
Y325659D01*
X1088498D01*
X1087331Y324493D01*
X1041500Y273500D02*
X1048498D01*
Y276999D01*
X1047331Y278165D01*
X1044999D01*
X1043833Y276999D01*
Y273500D01*
Y275833D02*
X1041500Y278165D01*
X1048498Y285163D02*
Y280498D01*
X1044999D01*
X1046165Y282830D01*
Y283997D01*
X1044999Y285163D01*
X1042666D01*
X1041500Y283997D01*
Y281664D01*
X1042666Y280498D01*
X1047331Y287495D02*
X1048498Y288662D01*
Y290994D01*
X1047331Y292161D01*
X1046165D01*
X1044999Y290994D01*
Y289828D01*
Y290994D01*
X1043833Y292161D01*
X1042666D01*
X1041500Y290994D01*
Y288662D01*
X1042666Y287495D01*
X1047331Y294493D02*
X1048498Y295660D01*
Y297992D01*
X1047331Y299158D01*
X1042666D01*
X1041500Y297992D01*
Y295660D01*
X1042666Y294493D01*
X1047331D01*
X991500Y303500D02*
X998498D01*
Y306999D01*
X997331Y308165D01*
X994999D01*
X993833Y306999D01*
Y303500D01*
Y305833D02*
X991500Y308165D01*
X998498Y315163D02*
Y310498D01*
X994999D01*
X996165Y312830D01*
Y313997D01*
X994999Y315163D01*
X992666D01*
X991500Y313997D01*
Y311664D01*
X992666Y310498D01*
X991500Y322161D02*
Y317495D01*
X996165Y322161D01*
X997331D01*
X998498Y320994D01*
Y318662D01*
X997331Y317495D01*
X992666Y324493D02*
X991500Y325659D01*
Y327992D01*
X992666Y329158D01*
X997331D01*
X998498Y327992D01*
Y325659D01*
X997331Y324493D01*
X996165D01*
X994999Y325659D01*
Y329158D01*
X951500Y273500D02*
X958498D01*
Y276999D01*
X957331Y278165D01*
X954999D01*
X953833Y276999D01*
Y273500D01*
Y275833D02*
X951500Y278165D01*
X958498Y285163D02*
Y280498D01*
X954999D01*
X956165Y282830D01*
Y283997D01*
X954999Y285163D01*
X952666D01*
X951500Y283997D01*
Y281664D01*
X952666Y280498D01*
X951500Y292161D02*
Y287495D01*
X956165Y292161D01*
X957331D01*
X958498Y290994D01*
Y288662D01*
X957331Y287495D01*
Y294493D02*
X958498Y295660D01*
Y297992D01*
X957331Y299158D01*
X956165D01*
X954999Y297992D01*
X953833Y299158D01*
X952666D01*
X951500Y297992D01*
Y295660D01*
X952666Y294493D01*
X953833D01*
X954999Y295660D01*
X956165Y294493D01*
X957331D01*
X954999Y295660D02*
Y297992D01*
X901500Y303500D02*
X908498D01*
Y306999D01*
X907331Y308165D01*
X904999D01*
X903833Y306999D01*
Y303500D01*
Y305833D02*
X901500Y308165D01*
X908498Y315163D02*
Y310498D01*
X904999D01*
X906165Y312830D01*
Y313997D01*
X904999Y315163D01*
X902666D01*
X901500Y313997D01*
Y311664D01*
X902666Y310498D01*
X901500Y322161D02*
Y317495D01*
X906165Y322161D01*
X907331D01*
X908498Y320994D01*
Y318662D01*
X907331Y317495D01*
X908498Y324493D02*
Y329158D01*
X907331D01*
X902666Y324493D01*
X901500D01*
X861500Y273500D02*
X868498D01*
Y276999D01*
X867331Y278165D01*
X864999D01*
X863833Y276999D01*
Y273500D01*
Y275833D02*
X861500Y278165D01*
X868498Y285163D02*
Y280498D01*
X864999D01*
X866165Y282830D01*
Y283997D01*
X864999Y285163D01*
X862666D01*
X861500Y283997D01*
Y281664D01*
X862666Y280498D01*
X861500Y292161D02*
Y287495D01*
X866165Y292161D01*
X867331D01*
X868498Y290994D01*
Y288662D01*
X867331Y287495D01*
X868498Y299158D02*
X867331Y296826D01*
X864999Y294493D01*
X862666D01*
X861500Y295660D01*
Y297992D01*
X862666Y299158D01*
X863833D01*
X864999Y297992D01*
Y294493D01*
X1299666Y251168D02*
X1298500Y250002D01*
X1296167D01*
X1295001Y251168D01*
Y255833D01*
X1296167Y256999D01*
X1298500D01*
X1299666Y255833D01*
X1306664Y250002D02*
X1301998D01*
Y253500D01*
X1304331Y252334D01*
X1305497D01*
X1306664Y253500D01*
Y255833D01*
X1305497Y256999D01*
X1303165D01*
X1301998Y255833D01*
X1308996Y256999D02*
X1311329D01*
X1310163D01*
Y250002D01*
X1308996Y251168D01*
X1319493Y256999D02*
X1314828D01*
X1319493Y252334D01*
Y251168D01*
X1318327Y250002D01*
X1315994D01*
X1314828Y251168D01*
X1289834Y262166D02*
Y266831D01*
X1291000Y267998D01*
X1293333D01*
X1294499Y266831D01*
Y262166D01*
X1293333Y261000D01*
X1291000D01*
X1292167Y263333D02*
X1289834Y261000D01*
X1291000D02*
X1289834Y262166D01*
X1282836Y267998D02*
X1287502D01*
Y264499D01*
X1285169Y265665D01*
X1284003D01*
X1282836Y264499D01*
Y262166D01*
X1284003Y261000D01*
X1286335D01*
X1287502Y262166D01*
X1280504Y261000D02*
X1278171D01*
X1279337D01*
Y267998D01*
X1280504Y266831D01*
X1270007Y261000D02*
X1274672D01*
X1270007Y265665D01*
Y266831D01*
X1271173Y267998D01*
X1273506D01*
X1274672Y266831D01*
X1199835Y262166D02*
Y266831D01*
X1201001Y267998D01*
X1203333D01*
X1204500Y266831D01*
Y262166D01*
X1203333Y261000D01*
X1201001D01*
X1202167Y263333D02*
X1199835Y261000D01*
X1201001D02*
X1199835Y262166D01*
X1192837Y267998D02*
X1197502D01*
Y264499D01*
X1195169Y265665D01*
X1194003D01*
X1192837Y264499D01*
Y262166D01*
X1194003Y261000D01*
X1196336D01*
X1197502Y262166D01*
X1190504Y261000D02*
X1188172D01*
X1189338D01*
Y267998D01*
X1190504Y266831D01*
X1184673Y261000D02*
X1182340D01*
X1183506D01*
Y267998D01*
X1184673Y266831D01*
X1109835Y262166D02*
Y266831D01*
X1111001Y267998D01*
X1113334D01*
X1114500Y266831D01*
Y262166D01*
X1113334Y261000D01*
X1111001D01*
X1112167Y263333D02*
X1109835Y261000D01*
X1111001D02*
X1109835Y262166D01*
X1102837Y267998D02*
X1107502D01*
Y264499D01*
X1105170Y265665D01*
X1104003D01*
X1102837Y264499D01*
Y262166D01*
X1104003Y261000D01*
X1106336D01*
X1107502Y262166D01*
X1100505Y261000D02*
X1098172D01*
X1099338D01*
Y267998D01*
X1100505Y266831D01*
X1094673D02*
X1093507Y267998D01*
X1091174D01*
X1090008Y266831D01*
Y262166D01*
X1091174Y261000D01*
X1093507D01*
X1094673Y262166D01*
Y266831D01*
X1020242Y262259D02*
Y266925D01*
X1021408Y268091D01*
X1023741D01*
X1024907Y266925D01*
Y262259D01*
X1023741Y261093D01*
X1021408D01*
X1022575Y263426D02*
X1020242Y261093D01*
X1021408D02*
X1020242Y262259D01*
X1013244Y268091D02*
X1017909D01*
Y264592D01*
X1015577Y265758D01*
X1014411D01*
X1013244Y264592D01*
Y262259D01*
X1014411Y261093D01*
X1016743D01*
X1017909Y262259D01*
X1010912Y266925D02*
X1009745Y268091D01*
X1007413D01*
X1006247Y266925D01*
Y262259D01*
X1007413Y261093D01*
X1009745D01*
X1010912Y262259D01*
Y266925D01*
X1003914Y262259D02*
X1002748Y261093D01*
X1000415D01*
X999249Y262259D01*
Y266925D01*
X1000415Y268091D01*
X1002748D01*
X1003914Y266925D01*
Y265758D01*
X1002748Y264592D01*
X999249D01*
X939665Y251168D02*
X938499Y250002D01*
X936166D01*
X935000Y251168D01*
Y255834D01*
X936166Y257000D01*
X938499D01*
X939665Y255834D01*
X946663Y250002D02*
X941998D01*
Y253501D01*
X944330Y252335D01*
X945497D01*
X946663Y253501D01*
Y255834D01*
X945497Y257000D01*
X943164D01*
X941998Y255834D01*
X948996Y251168D02*
X950162Y250002D01*
X952494D01*
X953661Y251168D01*
Y255834D01*
X952494Y257000D01*
X950162D01*
X948996Y255834D01*
Y251168D01*
X955993D02*
X957160Y250002D01*
X959492D01*
X960658Y251168D01*
Y252335D01*
X959492Y253501D01*
X960658Y254667D01*
Y255834D01*
X959492Y257000D01*
X957160D01*
X955993Y255834D01*
Y254667D01*
X957160Y253501D01*
X955993Y252335D01*
Y251168D01*
X957160Y253501D02*
X959492D01*
X1030117Y250809D02*
X1028951Y249643D01*
X1026618D01*
X1025452Y250809D01*
Y255474D01*
X1026618Y256640D01*
X1028951D01*
X1030117Y255474D01*
X1037115Y249643D02*
X1032450D01*
Y253141D01*
X1034782Y251975D01*
X1035949D01*
X1037115Y253141D01*
Y255474D01*
X1035949Y256640D01*
X1033616D01*
X1032450Y255474D01*
X1039448Y250809D02*
X1040614Y249643D01*
X1042946D01*
X1044113Y250809D01*
Y255474D01*
X1042946Y256640D01*
X1040614D01*
X1039448Y255474D01*
Y250809D01*
X1046445Y255474D02*
X1047612Y256640D01*
X1049944D01*
X1051111Y255474D01*
Y250809D01*
X1049944Y249643D01*
X1047612D01*
X1046445Y250809D01*
Y251975D01*
X1047612Y253141D01*
X1051111D01*
X1119665Y251168D02*
X1118499Y250002D01*
X1116166D01*
X1115000Y251168D01*
Y255834D01*
X1116166Y257000D01*
X1118499D01*
X1119665Y255834D01*
X1126663Y250002D02*
X1121998D01*
Y253501D01*
X1124330Y252335D01*
X1125497D01*
X1126663Y253501D01*
Y255834D01*
X1125497Y257000D01*
X1123164D01*
X1121998Y255834D01*
X1128996Y257000D02*
X1131328D01*
X1130162D01*
Y250002D01*
X1128996Y251168D01*
X1134827D02*
X1135993Y250002D01*
X1138326D01*
X1139492Y251168D01*
Y255834D01*
X1138326Y257000D01*
X1135993D01*
X1134827Y255834D01*
Y251168D01*
X1209665D02*
X1208499Y250002D01*
X1206166D01*
X1205000Y251168D01*
Y255834D01*
X1206166Y257000D01*
X1208499D01*
X1209665Y255834D01*
X1216663Y250002D02*
X1211998D01*
Y253501D01*
X1214330Y252335D01*
X1215497D01*
X1216663Y253501D01*
Y255834D01*
X1215497Y257000D01*
X1213164D01*
X1211998Y255834D01*
X1218996Y257000D02*
X1221328D01*
X1220162D01*
Y250002D01*
X1218996Y251168D01*
X1224827Y257000D02*
X1227160D01*
X1225993D01*
Y250002D01*
X1224827Y251168D01*
X929835Y262166D02*
Y266831D01*
X931001Y267998D01*
X933334D01*
X934500Y266831D01*
Y262166D01*
X933334Y261000D01*
X931001D01*
X932167Y263333D02*
X929835Y261000D01*
X931001D02*
X929835Y262166D01*
X922837Y267998D02*
X927502D01*
Y264499D01*
X925170Y265665D01*
X924003D01*
X922837Y264499D01*
Y262166D01*
X924003Y261000D01*
X926336D01*
X927502Y262166D01*
X920505Y266831D02*
X919338Y267998D01*
X917006D01*
X915839Y266831D01*
Y262166D01*
X917006Y261000D01*
X919338D01*
X920505Y262166D01*
Y266831D01*
X913507D02*
X912340Y267998D01*
X910008D01*
X908842Y266831D01*
Y265665D01*
X910008Y264499D01*
X908842Y263333D01*
Y262166D01*
X910008Y261000D01*
X912340D01*
X913507Y262166D01*
Y263333D01*
X912340Y264499D01*
X913507Y265665D01*
Y266831D01*
X912340Y264499D02*
X910008D01*
X839835Y262166D02*
Y266831D01*
X841001Y267998D01*
X843334D01*
X844500Y266831D01*
Y262166D01*
X843334Y261000D01*
X841001D01*
X842167Y263333D02*
X839835Y261000D01*
X841001D02*
X839835Y262166D01*
X832837Y267998D02*
X837502D01*
Y264499D01*
X835170Y265665D01*
X834003D01*
X832837Y264499D01*
Y262166D01*
X834003Y261000D01*
X836336D01*
X837502Y262166D01*
X830505Y266831D02*
X829338Y267998D01*
X827006D01*
X825839Y266831D01*
Y262166D01*
X827006Y261000D01*
X829338D01*
X830505Y262166D01*
Y266831D01*
X823507Y267998D02*
X818842D01*
Y266831D01*
X823507Y262166D01*
Y261000D01*
X1289835Y62166D02*
Y66831D01*
X1291001Y67998D01*
X1293334D01*
X1294500Y66831D01*
Y62166D01*
X1293334Y61000D01*
X1291001D01*
X1292167Y63333D02*
X1289835Y61000D01*
X1291001D02*
X1289835Y62166D01*
X1282837Y67998D02*
X1287502D01*
Y64499D01*
X1285170Y65665D01*
X1284003D01*
X1282837Y64499D01*
Y62166D01*
X1284003Y61000D01*
X1286336D01*
X1287502Y62166D01*
X1280504Y66831D02*
X1279338Y67998D01*
X1277006D01*
X1275839Y66831D01*
Y62166D01*
X1277006Y61000D01*
X1279338D01*
X1280504Y62166D01*
Y66831D01*
X1268842Y67998D02*
X1271174Y66831D01*
X1273507Y64499D01*
Y62166D01*
X1272340Y61000D01*
X1270008D01*
X1268842Y62166D01*
Y63333D01*
X1270008Y64499D01*
X1273507D01*
X1199835Y62166D02*
Y66831D01*
X1201001Y67998D01*
X1203334D01*
X1204500Y66831D01*
Y62166D01*
X1203334Y61000D01*
X1201001D01*
X1202167Y63333D02*
X1199835Y61000D01*
X1201001D02*
X1199835Y62166D01*
X1192837Y67998D02*
X1197502D01*
Y64499D01*
X1195170Y65665D01*
X1194003D01*
X1192837Y64499D01*
Y62166D01*
X1194003Y61000D01*
X1196336D01*
X1197502Y62166D01*
X1190505Y66831D02*
X1189338Y67998D01*
X1187006D01*
X1185839Y66831D01*
Y62166D01*
X1187006Y61000D01*
X1189338D01*
X1190505Y62166D01*
Y66831D01*
X1178842Y67998D02*
X1183507D01*
Y64499D01*
X1181174Y65665D01*
X1180008D01*
X1178842Y64499D01*
Y62166D01*
X1180008Y61000D01*
X1182340D01*
X1183507Y62166D01*
X1109835D02*
Y66831D01*
X1111001Y67998D01*
X1113334D01*
X1114500Y66831D01*
Y62166D01*
X1113334Y61000D01*
X1111001D01*
X1112167Y63333D02*
X1109835Y61000D01*
X1111001D02*
X1109835Y62166D01*
X1102837Y67998D02*
X1107502D01*
Y64499D01*
X1105170Y65665D01*
X1104003D01*
X1102837Y64499D01*
Y62166D01*
X1104003Y61000D01*
X1106336D01*
X1107502Y62166D01*
X1100505Y66831D02*
X1099338Y67998D01*
X1097006D01*
X1095839Y66831D01*
Y62166D01*
X1097006Y61000D01*
X1099338D01*
X1100505Y62166D01*
Y66831D01*
X1090008Y61000D02*
Y67998D01*
X1093507Y64499D01*
X1088842D01*
X1019835Y62166D02*
Y66831D01*
X1021001Y67998D01*
X1023334D01*
X1024500Y66831D01*
Y62166D01*
X1023334Y61000D01*
X1021001D01*
X1022167Y63333D02*
X1019835Y61000D01*
X1021001D02*
X1019835Y62166D01*
X1012837Y67998D02*
X1017502D01*
Y64499D01*
X1015170Y65665D01*
X1014003D01*
X1012837Y64499D01*
Y62166D01*
X1014003Y61000D01*
X1016336D01*
X1017502Y62166D01*
X1010505Y66831D02*
X1009338Y67998D01*
X1007006D01*
X1005839Y66831D01*
Y62166D01*
X1007006Y61000D01*
X1009338D01*
X1010505Y62166D01*
Y66831D01*
X1003507D02*
X1002340Y67998D01*
X1000008D01*
X998842Y66831D01*
Y65665D01*
X1000008Y64499D01*
X1001174D01*
X1000008D01*
X998842Y63333D01*
Y62166D01*
X1000008Y61000D01*
X1002340D01*
X1003507Y62166D01*
X839835D02*
Y66831D01*
X841001Y67998D01*
X843334D01*
X844500Y66831D01*
Y62166D01*
X843334Y61000D01*
X841001D01*
X842167Y63333D02*
X839835Y61000D01*
X841001D02*
X839835Y62166D01*
X832837Y67998D02*
X837502D01*
Y64499D01*
X835170Y65665D01*
X834003D01*
X832837Y64499D01*
Y62166D01*
X834003Y61000D01*
X836336D01*
X837502Y62166D01*
X830505Y66831D02*
X829338Y67998D01*
X827006D01*
X825839Y66831D01*
Y62166D01*
X827006Y61000D01*
X829338D01*
X830505Y62166D01*
Y66831D01*
X823507Y61000D02*
X821174D01*
X822340D01*
Y67998D01*
X823507Y66831D01*
X670335Y333831D02*
X671501Y334998D01*
X673834D01*
X675000Y333831D01*
Y329166D01*
X673834Y328000D01*
X671501D01*
X670335Y329166D01*
X663337Y334998D02*
X668002D01*
Y331499D01*
X665670Y332665D01*
X664503D01*
X663337Y331499D01*
Y329166D01*
X664503Y328000D01*
X666836D01*
X668002Y329166D01*
X661004Y328000D02*
X658672D01*
X659838D01*
Y334998D01*
X661004Y333831D01*
X655173Y334998D02*
X650508D01*
Y333831D01*
X655173Y329166D01*
Y328000D01*
X581169Y280335D02*
X580002Y281501D01*
Y283834D01*
X581169Y285000D01*
X585834D01*
X587000Y283834D01*
Y281501D01*
X585834Y280335D01*
X580002Y273337D02*
Y278002D01*
X583501D01*
X582335Y275670D01*
Y274503D01*
X583501Y273337D01*
X585834D01*
X587000Y274503D01*
Y276836D01*
X585834Y278002D01*
X587000Y271005D02*
Y268672D01*
Y269838D01*
X580002D01*
X581169Y271005D01*
X580002Y260508D02*
Y265173D01*
X583501D01*
X582335Y262840D01*
Y261674D01*
X583501Y260508D01*
X585834D01*
X587000Y261674D01*
Y264007D01*
X585834Y265173D01*
X598831Y214665D02*
X599998Y213499D01*
Y211166D01*
X598831Y210000D01*
X594166D01*
X593000Y211166D01*
Y213499D01*
X594166Y214665D01*
X599998Y221663D02*
Y216998D01*
X596499D01*
X597665Y219330D01*
Y220497D01*
X596499Y221663D01*
X594166D01*
X593000Y220497D01*
Y218164D01*
X594166Y216998D01*
X593000Y223995D02*
Y226328D01*
Y225162D01*
X599998D01*
X598831Y223995D01*
X593000Y233326D02*
X599998D01*
X596499Y229827D01*
Y234492D01*
X670335Y353831D02*
X671501Y354998D01*
X673834D01*
X675000Y353831D01*
Y349166D01*
X673834Y348000D01*
X671501D01*
X670335Y349166D01*
X663337Y354998D02*
X668002D01*
Y351499D01*
X665670Y352665D01*
X664503D01*
X663337Y351499D01*
Y349166D01*
X664503Y348000D01*
X666836D01*
X668002Y349166D01*
X661004Y348000D02*
X658672D01*
X659838D01*
Y354998D01*
X661004Y353831D01*
X650508Y354998D02*
X652840Y353831D01*
X655173Y351499D01*
Y349166D01*
X654007Y348000D01*
X651674D01*
X650508Y349166D01*
Y350333D01*
X651674Y351499D01*
X655173D01*
X578831Y214665D02*
X579998Y213499D01*
Y211166D01*
X578831Y210000D01*
X574166D01*
X573000Y211166D01*
Y213499D01*
X574166Y214665D01*
X579998Y221663D02*
Y216998D01*
X576499D01*
X577665Y219330D01*
Y220497D01*
X576499Y221663D01*
X574166D01*
X573000Y220497D01*
Y218164D01*
X574166Y216998D01*
X573000Y223995D02*
Y226328D01*
Y225162D01*
X579998D01*
X578831Y223995D01*
Y229827D02*
X579998Y230993D01*
Y233326D01*
X578831Y234492D01*
X577665D01*
X576499Y233326D01*
Y232160D01*
Y233326D01*
X575333Y234492D01*
X574166D01*
X573000Y233326D01*
Y230993D01*
X574166Y229827D01*
X811500Y303500D02*
X818498D01*
Y306999D01*
X817331Y308165D01*
X814999D01*
X813833Y306999D01*
Y303500D01*
Y305833D02*
X811500Y308165D01*
X818498Y315163D02*
Y310498D01*
X814999D01*
X816165Y312830D01*
Y313997D01*
X814999Y315163D01*
X812666D01*
X811500Y313997D01*
Y311664D01*
X812666Y310498D01*
X811500Y322161D02*
Y317495D01*
X816165Y322161D01*
X817331D01*
X818498Y320994D01*
Y318662D01*
X817331Y317495D01*
X818498Y329158D02*
Y324493D01*
X814999D01*
X816165Y326826D01*
Y327992D01*
X814999Y329158D01*
X812666D01*
X811500Y327992D01*
Y325659D01*
X812666Y324493D01*
X976500Y156500D02*
Y163498D01*
X973001D01*
X971835Y162332D01*
Y159999D01*
X973001Y158833D01*
X976500D01*
X974167D02*
X971835Y156500D01*
X964837Y163498D02*
X969502D01*
Y159999D01*
X967170Y161165D01*
X966003D01*
X964837Y159999D01*
Y157666D01*
X966003Y156500D01*
X968336D01*
X969502Y157666D01*
X962505Y156500D02*
X960172D01*
X961338D01*
Y163498D01*
X962505Y162332D01*
X956673Y163498D02*
X952008D01*
Y162332D01*
X956673Y157666D01*
Y156500D01*
X1261500Y383500D02*
X1268498D01*
Y386999D01*
X1267331Y388165D01*
X1264999D01*
X1263832Y386999D01*
Y383500D01*
Y385833D02*
X1261500Y388165D01*
X1268498Y395163D02*
Y390498D01*
X1264999D01*
X1266165Y392830D01*
Y393997D01*
X1264999Y395163D01*
X1262666D01*
X1261500Y393997D01*
Y391664D01*
X1262666Y390498D01*
X1267331Y397495D02*
X1268498Y398662D01*
Y400994D01*
X1267331Y402161D01*
X1266165D01*
X1264999Y400994D01*
Y399828D01*
Y400994D01*
X1263832Y402161D01*
X1262666D01*
X1261500Y400994D01*
Y398662D01*
X1262666Y397495D01*
X1268498Y404493D02*
Y409158D01*
X1267331D01*
X1262666Y404493D01*
X1261500D01*
D16*
X676510Y243805D02*
Y231109D01*
X673970Y228570D01*
X668892D01*
X666353Y231109D01*
Y243805D01*
X651118D02*
X661274D01*
Y236187D01*
X656196Y238727D01*
X653657D01*
X651118Y236187D01*
Y231109D01*
X653657Y228570D01*
X658735D01*
X661274Y231109D01*
X646039Y241266D02*
X643500Y243805D01*
X638422D01*
X635883Y241266D01*
Y231109D01*
X638422Y228570D01*
X643500D01*
X646039Y231109D01*
Y241266D01*
X630804Y228570D02*
X625726D01*
X628265D01*
Y243805D01*
X630804Y241266D01*
D74*
X518510Y71320D02*
Y106320D01*
X499510Y71320D02*
Y106320D01*
Y71320D02*
X518510D01*
X499510Y106320D02*
X518510D01*
X497101Y71320D02*
Y106320D01*
X478101Y71320D02*
Y106320D01*
Y71320D02*
X497101D01*
X478101Y106320D02*
X497101D01*
X475693Y71320D02*
Y106320D01*
X456693Y71320D02*
Y106320D01*
Y71320D02*
X475693D01*
X456693Y106320D02*
X475693D01*
X454284Y71320D02*
Y106320D01*
X435284Y71320D02*
Y106320D01*
Y71320D02*
X454284D01*
X435284Y106320D02*
X454284D01*
X432876Y71320D02*
Y106320D01*
X413876Y71320D02*
Y106320D01*
Y71320D02*
X432876D01*
X413876Y106320D02*
X432876D01*
X411467Y71320D02*
Y106320D01*
X392467Y71320D02*
Y106320D01*
Y71320D02*
X411467D01*
X392467Y106320D02*
X411467D01*
X390059Y71320D02*
Y106320D01*
X371059Y71320D02*
Y106320D01*
Y71320D02*
X390059D01*
X371059Y106320D02*
X390059D01*
X349650D02*
X368650D01*
X349650Y71320D02*
X368650D01*
X349650D02*
Y106320D01*
X368650Y71320D02*
Y106320D01*
X371470Y150540D02*
X387470D01*
Y118540D02*
Y150540D01*
X371470Y118540D02*
Y150540D01*
Y118540D02*
X387470D01*
X457000Y199000D02*
Y231000D01*
X473000Y199000D02*
Y231000D01*
X457000D02*
X473000D01*
X457000Y199000D02*
X473000D01*
X397000Y199500D02*
X413000D01*
X397000Y231500D02*
X413000D01*
Y199500D02*
Y231500D01*
X397000Y199500D02*
Y231500D01*
X501010Y118540D02*
X517010D01*
X501010D02*
Y150540D01*
X517010Y118540D02*
Y150540D01*
X501010D02*
X517010D01*
X479420Y118540D02*
X495420D01*
X479420D02*
Y150540D01*
X495420Y118540D02*
Y150540D01*
X479420D02*
X495420D01*
X457830Y118540D02*
X473830D01*
X457830D02*
Y150540D01*
X473830Y118540D02*
Y150540D01*
X457830D02*
X473830D01*
X436240Y118540D02*
X452240D01*
X436240D02*
Y150540D01*
X452240Y118540D02*
Y150540D01*
X436240D02*
X452240D01*
X414650Y118540D02*
X430650D01*
X414650D02*
Y150540D01*
X430650Y118540D02*
Y150540D01*
X414650D02*
X430650D01*
X393060Y118540D02*
X409060D01*
X393060D02*
Y150540D01*
X409060Y118540D02*
Y150540D01*
X393060D02*
X409060D01*
X349880D02*
X365880D01*
Y118540D02*
Y150540D01*
X349880Y118540D02*
Y150540D01*
Y118540D02*
X365880D01*
X432000Y437500D02*
Y469500D01*
X448000Y437500D02*
Y469500D01*
X432000D02*
X448000D01*
X432000Y437500D02*
X448000D01*
X265500Y442500D02*
X284500D01*
X265500Y477500D02*
X284500D01*
Y442500D02*
Y477500D01*
X265500Y442500D02*
Y477500D01*
X452500Y460500D02*
Y479500D01*
X487500Y460500D02*
Y479500D01*
X452500Y460500D02*
X487500D01*
X452500Y479500D02*
X487500D01*
X243500Y102500D02*
Y134500D01*
X259500Y102500D02*
Y134500D01*
X243500D02*
X259500D01*
X243500Y102500D02*
X259500D01*
X260708D02*
Y134500D01*
X276708Y102500D02*
Y134500D01*
X260708D02*
X276708D01*
X260708Y102500D02*
X276708D01*
X277916D02*
Y134500D01*
X293916Y102500D02*
Y134500D01*
X277916D02*
X293916D01*
X277916Y102500D02*
X293916D01*
X789500Y272500D02*
Y307500D01*
X770500Y272500D02*
X789500D01*
X770500Y307500D02*
X789500D01*
X770500Y272500D02*
Y307500D01*
X412000Y319000D02*
Y351000D01*
X428000Y319000D02*
Y351000D01*
X412000D02*
X428000D01*
X412000Y319000D02*
X428000D01*
X383000Y303500D02*
Y335500D01*
X367000Y303500D02*
Y335500D01*
Y303500D02*
X383000D01*
X367000Y335500D02*
X383000D01*
X347000Y303500D02*
Y335500D01*
X363000Y303500D02*
Y335500D01*
X347000D02*
X363000D01*
X347000Y303500D02*
X363000D01*
X388000Y419000D02*
Y451000D01*
X372000Y419000D02*
Y451000D01*
Y419000D02*
X388000D01*
X372000Y451000D02*
X388000D01*
X352000Y419000D02*
Y451000D01*
X368000Y419000D02*
Y451000D01*
X352000D02*
X368000D01*
X352000Y419000D02*
X368000D01*
X1032500Y174500D02*
X1067500D01*
Y155500D02*
Y174500D01*
X1032500Y155500D02*
Y174500D01*
Y155500D02*
X1067500D01*
X1122500Y174500D02*
X1157500D01*
Y155500D02*
Y174500D01*
X1122500Y155500D02*
Y174500D01*
Y155500D02*
X1157500D01*
X884500Y60000D02*
X935500D01*
X884500Y100000D02*
X935500D01*
X884500Y60000D02*
Y100000D01*
X935500Y60000D02*
Y100000D01*
X1130500Y72500D02*
Y107500D01*
X1149500D01*
X1130500Y72500D02*
X1149500D01*
Y107500D01*
X876000Y242000D02*
Y258000D01*
X844000D02*
X876000D01*
X844000Y242000D02*
X876000D01*
X844000D02*
Y258000D01*
X1204000Y42000D02*
Y58000D01*
Y42000D02*
X1236000D01*
X1204000Y58000D02*
X1236000D01*
Y42000D02*
Y58000D01*
X786000Y42000D02*
Y58000D01*
X754000D02*
X786000D01*
X754000Y42000D02*
X786000D01*
X754000D02*
Y58000D01*
X844000Y42000D02*
Y58000D01*
Y42000D02*
X876000D01*
X844000Y58000D02*
X876000D01*
Y42000D02*
Y58000D01*
X934000Y42000D02*
Y58000D01*
Y42000D02*
X966000D01*
X934000Y58000D02*
X966000D01*
Y42000D02*
Y58000D01*
X1024000Y42000D02*
Y58000D01*
Y42000D02*
X1056000D01*
X1024000Y58000D02*
X1056000D01*
Y42000D02*
Y58000D01*
X1114000Y42000D02*
Y58000D01*
Y42000D02*
X1146000D01*
X1114000Y58000D02*
X1146000D01*
Y42000D02*
Y58000D01*
X770500Y72500D02*
Y107500D01*
X789500D01*
X770500Y72500D02*
X789500D01*
Y107500D01*
X810500Y102500D02*
Y137500D01*
X829500D01*
X810500Y102500D02*
X829500D01*
Y137500D01*
X879500Y72500D02*
Y107500D01*
X860500Y72500D02*
X879500D01*
X860500Y107500D02*
X879500D01*
X860500Y72500D02*
Y107500D01*
X1279500Y102500D02*
Y137500D01*
X1260500Y102500D02*
X1279500D01*
X1260500Y137500D02*
X1279500D01*
X1260500Y102500D02*
Y137500D01*
X1059500Y72500D02*
Y107500D01*
X1040500Y72500D02*
X1059500D01*
X1040500Y107500D02*
X1059500D01*
X1040500Y72500D02*
Y107500D01*
X969500Y73250D02*
Y108250D01*
X950500Y73250D02*
X969500D01*
X950500Y108250D02*
X969500D01*
X950500Y73250D02*
Y108250D01*
X852500Y174500D02*
X887500D01*
Y155500D02*
Y174500D01*
X852500Y155500D02*
Y174500D01*
Y155500D02*
X887500D01*
X1292500Y305500D02*
X1327500D01*
X1292500D02*
Y324500D01*
X1327500Y305500D02*
Y324500D01*
X1292500D02*
X1327500D01*
X1279500Y302500D02*
Y337500D01*
X1260500Y302500D02*
X1279500D01*
X1260500Y337500D02*
X1279500D01*
X1260500Y302500D02*
Y337500D01*
X1239500Y272500D02*
Y307500D01*
X1220500Y272500D02*
X1239500D01*
X1220500Y307500D02*
X1239500D01*
X1220500Y272500D02*
Y307500D01*
X1189500Y302500D02*
Y337500D01*
X1170500Y302500D02*
X1189500D01*
X1170500Y337500D02*
X1189500D01*
X1170500Y302500D02*
Y337500D01*
X1130500Y272500D02*
Y307500D01*
X1149500D01*
X1130500Y272500D02*
X1149500D01*
Y307500D01*
X1099500Y302500D02*
Y337500D01*
X1080500Y302500D02*
X1099500D01*
X1080500Y337500D02*
X1099500D01*
X1080500Y302500D02*
Y337500D01*
X1059500Y272500D02*
Y307500D01*
X1040500Y272500D02*
X1059500D01*
X1040500Y307500D02*
X1059500D01*
X1040500Y272500D02*
Y307500D01*
X1009500Y302500D02*
Y337500D01*
X990500Y302500D02*
X1009500D01*
X990500Y337500D02*
X1009500D01*
X990500Y302500D02*
Y337500D01*
X969500Y272500D02*
Y307500D01*
X950500Y272500D02*
X969500D01*
X950500Y307500D02*
X969500D01*
X950500Y272500D02*
Y307500D01*
X919500Y302500D02*
Y337500D01*
X900500Y302500D02*
X919500D01*
X900500Y337500D02*
X919500D01*
X900500Y302500D02*
Y337500D01*
X879500Y272500D02*
Y307500D01*
X860500Y272500D02*
X879500D01*
X860500Y307500D02*
X879500D01*
X860500Y272500D02*
Y307500D01*
X1294000Y242000D02*
Y258000D01*
Y242000D02*
X1326000D01*
X1294000Y258000D02*
X1326000D01*
Y242000D02*
Y258000D01*
X1295500Y260000D02*
Y300000D01*
X1244500Y260000D02*
Y300000D01*
X1295500D01*
X1244500Y260000D02*
X1295500D01*
X1205500D02*
Y300000D01*
X1154500Y260000D02*
Y300000D01*
X1205500D01*
X1154500Y260000D02*
X1205500D01*
X1115500D02*
Y300000D01*
X1064500Y260000D02*
Y300000D01*
X1115500D01*
X1064500Y260000D02*
X1115500D01*
X1025907Y260093D02*
Y300093D01*
X974907Y260093D02*
Y300093D01*
X1025907D01*
X974907Y260093D02*
X1025907D01*
X934000Y242000D02*
Y258000D01*
Y242000D02*
X966000D01*
X934000Y258000D02*
X966000D01*
Y242000D02*
Y258000D01*
X1024452Y241640D02*
Y257640D01*
Y241640D02*
X1056452D01*
X1024452Y257640D02*
X1056452D01*
Y241640D02*
Y257640D01*
X1114000Y242000D02*
Y258000D01*
Y242000D02*
X1146000D01*
X1114000Y258000D02*
X1146000D01*
Y242000D02*
Y258000D01*
X1204000Y242000D02*
Y258000D01*
Y242000D02*
X1236000D01*
X1204000Y258000D02*
X1236000D01*
Y242000D02*
Y258000D01*
X935500Y260000D02*
Y300000D01*
X884500Y260000D02*
Y300000D01*
X935500D01*
X884500Y260000D02*
X935500D01*
X845500D02*
Y300000D01*
X794500Y260000D02*
Y300000D01*
X845500D01*
X794500Y260000D02*
X845500D01*
X1295500Y60000D02*
Y100000D01*
X1244500Y60000D02*
Y100000D01*
X1295500D01*
X1244500Y60000D02*
X1295500D01*
X1205500D02*
Y100000D01*
X1154500Y60000D02*
Y100000D01*
X1205500D01*
X1154500Y60000D02*
X1205500D01*
X1115500D02*
Y100000D01*
X1064500Y60000D02*
Y100000D01*
X1115500D01*
X1064500Y60000D02*
X1115500D01*
X1025500Y60000D02*
Y100000D01*
X974500Y60000D02*
Y100000D01*
X1025500D01*
X974500Y60000D02*
X1025500D01*
X613000Y172000D02*
Y308000D01*
X707000D01*
X613000Y172000D02*
X707000D01*
Y308000D01*
X845500Y60000D02*
Y100000D01*
X794500Y60000D02*
Y100000D01*
X845500D01*
X794500Y60000D02*
X845500D01*
X644000Y327000D02*
X676000D01*
X644000Y343000D02*
X676000D01*
X644000Y327000D02*
Y343000D01*
X676000Y327000D02*
Y343000D01*
X588000Y254000D02*
Y286000D01*
X572000Y254000D02*
Y286000D01*
Y254000D02*
X588000D01*
X572000Y286000D02*
X588000D01*
X592000Y209000D02*
Y241000D01*
X608000Y209000D02*
Y241000D01*
X592000D02*
X608000D01*
X592000Y209000D02*
X608000D01*
X644000Y347000D02*
X676000D01*
X644000Y363000D02*
X676000D01*
X644000Y347000D02*
Y363000D01*
X676000Y347000D02*
Y363000D01*
X572000Y209000D02*
Y241000D01*
X588000Y209000D02*
Y241000D01*
X572000D02*
X588000D01*
X572000Y209000D02*
X588000D01*
X810500Y302500D02*
Y337500D01*
X829500D01*
X810500Y302500D02*
X829500D01*
Y337500D01*
X942500Y155500D02*
X977500D01*
X942500D02*
Y174500D01*
X977500Y155500D02*
Y174500D01*
X942500D02*
X977500D01*
X1260500Y382500D02*
Y417500D01*
X1279500D01*
X1260500Y382500D02*
X1279500D01*
Y417500D01*
M02*
