G04*
G04 #@! TF.GenerationSoftware,Altium Limited,Altium Designer,23.3.1 (30)*
G04*
G04 Layer_Color=255*
%FSLAX44Y44*%
%MOMM*%
G71*
G04*
G04 #@! TF.SameCoordinates,8A3622D1-8FB1-4EE3-B2AE-39504A90F10B*
G04*
G04*
G04 #@! TF.FilePolarity,Positive*
G04*
G01*
G75*
G04:AMPARAMS|DCode=17|XSize=0.6mm|YSize=2mm|CornerRadius=0.15mm|HoleSize=0mm|Usage=FLASHONLY|Rotation=270.000|XOffset=0mm|YOffset=0mm|HoleType=Round|Shape=RoundedRectangle|*
%AMROUNDEDRECTD17*
21,1,0.6000,1.7000,0,0,270.0*
21,1,0.3000,2.0000,0,0,270.0*
1,1,0.3000,-0.8500,-0.1500*
1,1,0.3000,-0.8500,0.1500*
1,1,0.3000,0.8500,0.1500*
1,1,0.3000,0.8500,-0.1500*
%
%ADD17ROUNDEDRECTD17*%
G04:AMPARAMS|DCode=18|XSize=0.6mm|YSize=1.9mm|CornerRadius=0.15mm|HoleSize=0mm|Usage=FLASHONLY|Rotation=180.000|XOffset=0mm|YOffset=0mm|HoleType=Round|Shape=RoundedRectangle|*
%AMROUNDEDRECTD18*
21,1,0.6000,1.6000,0,0,180.0*
21,1,0.3000,1.9000,0,0,180.0*
1,1,0.3000,-0.1500,0.8000*
1,1,0.3000,0.1500,0.8000*
1,1,0.3000,0.1500,-0.8000*
1,1,0.3000,-0.1500,-0.8000*
%
%ADD18ROUNDEDRECTD18*%
%ADD19R,1.3000X0.9000*%
%ADD20R,1.3500X1.1500*%
%ADD21C,2.0000*%
G04:AMPARAMS|DCode=22|XSize=2mm|YSize=1.2mm|CornerRadius=0.3mm|HoleSize=0mm|Usage=FLASHONLY|Rotation=90.000|XOffset=0mm|YOffset=0mm|HoleType=Round|Shape=RoundedRectangle|*
%AMROUNDEDRECTD22*
21,1,2.0000,0.6000,0,0,90.0*
21,1,1.4000,1.2000,0,0,90.0*
1,1,0.6000,0.3000,0.7000*
1,1,0.6000,0.3000,-0.7000*
1,1,0.6000,-0.3000,-0.7000*
1,1,0.6000,-0.3000,0.7000*
%
%ADD22ROUNDEDRECTD22*%
%ADD23R,1.1500X1.3500*%
G04:AMPARAMS|DCode=24|XSize=0.6mm|YSize=1.85mm|CornerRadius=0.15mm|HoleSize=0mm|Usage=FLASHONLY|Rotation=90.000|XOffset=0mm|YOffset=0mm|HoleType=Round|Shape=RoundedRectangle|*
%AMROUNDEDRECTD24*
21,1,0.6000,1.5500,0,0,90.0*
21,1,0.3000,1.8500,0,0,90.0*
1,1,0.3000,0.7750,0.1500*
1,1,0.3000,0.7750,-0.1500*
1,1,0.3000,-0.7750,-0.1500*
1,1,0.3000,-0.7750,0.1500*
%
%ADD24ROUNDEDRECTD24*%
%ADD25R,3.5000X3.0000*%
%ADD26R,0.9000X1.3000*%
%ADD27R,2.0000X5.5000*%
%ADD28R,2.8000X2.0000*%
G04:AMPARAMS|DCode=29|XSize=1.3mm|YSize=1.1mm|CornerRadius=0.275mm|HoleSize=0mm|Usage=FLASHONLY|Rotation=90.000|XOffset=0mm|YOffset=0mm|HoleType=Round|Shape=RoundedRectangle|*
%AMROUNDEDRECTD29*
21,1,1.3000,0.5500,0,0,90.0*
21,1,0.7500,1.1000,0,0,90.0*
1,1,0.5500,0.2750,0.3750*
1,1,0.5500,0.2750,-0.3750*
1,1,0.5500,-0.2750,-0.3750*
1,1,0.5500,-0.2750,0.3750*
%
%ADD29ROUNDEDRECTD29*%
G04:AMPARAMS|DCode=30|XSize=1mm|YSize=2.1mm|CornerRadius=0.25mm|HoleSize=0mm|Usage=FLASHONLY|Rotation=270.000|XOffset=0mm|YOffset=0mm|HoleType=Round|Shape=RoundedRectangle|*
%AMROUNDEDRECTD30*
21,1,1.0000,1.6000,0,0,270.0*
21,1,0.5000,2.1000,0,0,270.0*
1,1,0.5000,-0.8000,-0.2500*
1,1,0.5000,-0.8000,0.2500*
1,1,0.5000,0.8000,0.2500*
1,1,0.5000,0.8000,-0.2500*
%
%ADD30ROUNDEDRECTD30*%
G04:AMPARAMS|DCode=31|XSize=3.3mm|YSize=2.1mm|CornerRadius=0.525mm|HoleSize=0mm|Usage=FLASHONLY|Rotation=270.000|XOffset=0mm|YOffset=0mm|HoleType=Round|Shape=RoundedRectangle|*
%AMROUNDEDRECTD31*
21,1,3.3000,1.0500,0,0,270.0*
21,1,2.2500,2.1000,0,0,270.0*
1,1,1.0500,-0.5250,-1.1250*
1,1,1.0500,-0.5250,1.1250*
1,1,1.0500,0.5250,1.1250*
1,1,1.0500,0.5250,-1.1250*
%
%ADD31ROUNDEDRECTD31*%
G04:AMPARAMS|DCode=32|XSize=1.75mm|YSize=1.25mm|CornerRadius=0.3125mm|HoleSize=0mm|Usage=FLASHONLY|Rotation=270.000|XOffset=0mm|YOffset=0mm|HoleType=Round|Shape=RoundedRectangle|*
%AMROUNDEDRECTD32*
21,1,1.7500,0.6250,0,0,270.0*
21,1,1.1250,1.2500,0,0,270.0*
1,1,0.6250,-0.3125,-0.5625*
1,1,0.6250,-0.3125,0.5625*
1,1,0.6250,0.3125,0.5625*
1,1,0.6250,0.3125,-0.5625*
%
%ADD32ROUNDEDRECTD32*%
G04:AMPARAMS|DCode=33|XSize=1.2mm|YSize=1.1mm|CornerRadius=0.275mm|HoleSize=0mm|Usage=FLASHONLY|Rotation=180.000|XOffset=0mm|YOffset=0mm|HoleType=Round|Shape=RoundedRectangle|*
%AMROUNDEDRECTD33*
21,1,1.2000,0.5500,0,0,180.0*
21,1,0.6500,1.1000,0,0,180.0*
1,1,0.5500,-0.3250,0.2750*
1,1,0.5500,0.3250,0.2750*
1,1,0.5500,0.3250,-0.2750*
1,1,0.5500,-0.3250,-0.2750*
%
%ADD33ROUNDEDRECTD33*%
%ADD61R,1.6000X1.6000*%
%ADD62C,1.6000*%
%ADD63C,1.8000*%
G04:AMPARAMS|DCode=64|XSize=1.8mm|YSize=1.8mm|CornerRadius=0.45mm|HoleSize=0mm|Usage=FLASHONLY|Rotation=270.000|XOffset=0mm|YOffset=0mm|HoleType=Round|Shape=RoundedRectangle|*
%AMROUNDEDRECTD64*
21,1,1.8000,0.9000,0,0,270.0*
21,1,0.9000,1.8000,0,0,270.0*
1,1,0.9000,-0.4500,-0.4500*
1,1,0.9000,-0.4500,0.4500*
1,1,0.9000,0.4500,0.4500*
1,1,0.9000,0.4500,-0.4500*
%
%ADD64ROUNDEDRECTD64*%
%ADD65C,1.2000*%
G04:AMPARAMS|DCode=66|XSize=2mm|YSize=2mm|CornerRadius=0.5mm|HoleSize=0mm|Usage=FLASHONLY|Rotation=180.000|XOffset=0mm|YOffset=0mm|HoleType=Round|Shape=RoundedRectangle|*
%AMROUNDEDRECTD66*
21,1,2.0000,1.0000,0,0,180.0*
21,1,1.0000,2.0000,0,0,180.0*
1,1,1.0000,-0.5000,0.5000*
1,1,1.0000,0.5000,0.5000*
1,1,1.0000,0.5000,-0.5000*
1,1,1.0000,-0.5000,-0.5000*
%
%ADD66ROUNDEDRECTD66*%
%ADD67C,3.0000*%
%ADD68C,1.5000*%
D17*
X118500Y239050D02*
D03*
Y251750D02*
D03*
Y226350D02*
D03*
Y264450D02*
D03*
Y213650D02*
D03*
X211500Y264450D02*
D03*
Y251750D02*
D03*
Y213650D02*
D03*
Y200950D02*
D03*
Y239050D02*
D03*
Y226350D02*
D03*
X118500Y200950D02*
D03*
Y188250D02*
D03*
Y175550D02*
D03*
X211500Y188250D02*
D03*
Y175550D02*
D03*
D18*
X392850Y152500D02*
D03*
X405550D02*
D03*
X418250D02*
D03*
X430950D02*
D03*
X443650D02*
D03*
X456350D02*
D03*
X469050D02*
D03*
X481750D02*
D03*
X494450D02*
D03*
X507150D02*
D03*
X392850Y247500D02*
D03*
X405550D02*
D03*
X418250D02*
D03*
X430950D02*
D03*
X443650D02*
D03*
X456350D02*
D03*
X469050D02*
D03*
X481750D02*
D03*
X494450D02*
D03*
X507150D02*
D03*
D19*
X70000Y269500D02*
D03*
Y250500D02*
D03*
X30000Y225500D02*
D03*
Y244500D02*
D03*
X50000Y225500D02*
D03*
Y244500D02*
D03*
X75000Y194500D02*
D03*
Y175500D02*
D03*
X55000Y194500D02*
D03*
Y175500D02*
D03*
X35000Y194500D02*
D03*
Y175500D02*
D03*
X774367Y454590D02*
D03*
Y473590D02*
D03*
X792993Y454590D02*
D03*
Y473590D02*
D03*
X811620Y454590D02*
D03*
Y473590D02*
D03*
X603510Y381010D02*
D03*
Y362010D02*
D03*
X715000Y394500D02*
D03*
Y375500D02*
D03*
D20*
X440000Y309250D02*
D03*
Y290750D02*
D03*
X460000Y309250D02*
D03*
Y290750D02*
D03*
X525000Y395750D02*
D03*
Y414250D02*
D03*
X595000Y94250D02*
D03*
Y75750D02*
D03*
X570000Y94250D02*
D03*
Y75750D02*
D03*
X480000Y290750D02*
D03*
Y309250D02*
D03*
X500000Y290750D02*
D03*
Y309250D02*
D03*
X520000Y290750D02*
D03*
Y309250D02*
D03*
X540000Y290750D02*
D03*
Y309250D02*
D03*
X30000Y300750D02*
D03*
Y319250D02*
D03*
X50000D02*
D03*
Y300750D02*
D03*
X670000Y94250D02*
D03*
Y75750D02*
D03*
X645000Y94250D02*
D03*
Y75750D02*
D03*
X620000D02*
D03*
Y94250D02*
D03*
D21*
X510000Y85000D02*
D03*
X485000D02*
D03*
X456350Y86110D02*
D03*
X430000Y85000D02*
D03*
X400000D02*
D03*
X375000D02*
D03*
X400000Y130000D02*
D03*
X365000Y125000D02*
D03*
X504640Y39370D02*
D03*
X474640D02*
D03*
X444640D02*
D03*
X414640D02*
D03*
X384640D02*
D03*
X354640D02*
D03*
X294640D02*
D03*
X324640D02*
D03*
X1360000Y420000D02*
D03*
Y390000D02*
D03*
Y360000D02*
D03*
Y330000D02*
D03*
Y300000D02*
D03*
Y270000D02*
D03*
Y240000D02*
D03*
Y210000D02*
D03*
Y180000D02*
D03*
Y150000D02*
D03*
Y90000D02*
D03*
Y120000D02*
D03*
X66000Y405290D02*
D03*
X36000D02*
D03*
Y435290D02*
D03*
Y95670D02*
D03*
X66000Y65670D02*
D03*
X36000D02*
D03*
D22*
X445000Y397500D02*
D03*
X470000D02*
D03*
X495000D02*
D03*
X445000Y472500D02*
D03*
X470000D02*
D03*
X495000D02*
D03*
D23*
X525750Y450000D02*
D03*
X544250D02*
D03*
X550750Y425000D02*
D03*
X569250D02*
D03*
X525750Y475000D02*
D03*
X544250D02*
D03*
D24*
X410000Y279200D02*
D03*
Y291900D02*
D03*
Y304600D02*
D03*
Y317300D02*
D03*
Y330000D02*
D03*
Y342700D02*
D03*
Y355400D02*
D03*
Y368100D02*
D03*
Y380800D02*
D03*
Y393500D02*
D03*
Y406200D02*
D03*
Y418900D02*
D03*
Y431600D02*
D03*
Y444300D02*
D03*
X316500Y279200D02*
D03*
Y291900D02*
D03*
Y304600D02*
D03*
Y317300D02*
D03*
Y330000D02*
D03*
Y342700D02*
D03*
Y355400D02*
D03*
Y368100D02*
D03*
Y380800D02*
D03*
Y393500D02*
D03*
Y406200D02*
D03*
Y418900D02*
D03*
Y431600D02*
D03*
Y444300D02*
D03*
D25*
X780000Y190000D02*
D03*
Y130000D02*
D03*
X870000D02*
D03*
Y190000D02*
D03*
X950000Y130000D02*
D03*
Y190000D02*
D03*
X1030000Y130000D02*
D03*
Y190000D02*
D03*
X1120000Y130000D02*
D03*
Y190000D02*
D03*
X1210000Y130000D02*
D03*
Y190000D02*
D03*
Y330000D02*
D03*
Y390000D02*
D03*
X1120000Y330000D02*
D03*
Y390000D02*
D03*
X1040000Y330000D02*
D03*
Y390000D02*
D03*
X950000Y330000D02*
D03*
Y390000D02*
D03*
X783483Y324920D02*
D03*
Y384920D02*
D03*
X870000Y330000D02*
D03*
Y390000D02*
D03*
D26*
X45000Y360000D02*
D03*
X26000D02*
D03*
X84500Y320000D02*
D03*
X65500D02*
D03*
X49500Y280000D02*
D03*
X30500D02*
D03*
X75000Y340000D02*
D03*
X56000D02*
D03*
X259500Y245000D02*
D03*
X240500D02*
D03*
X259500Y425000D02*
D03*
X240500D02*
D03*
D27*
X260000Y287500D02*
D03*
Y382500D02*
D03*
D28*
X840000Y470000D02*
D03*
Y436500D02*
D03*
D29*
X872500Y475000D02*
D03*
X907500D02*
D03*
D30*
X690890Y349780D02*
D03*
Y395780D02*
D03*
Y372780D02*
D03*
D31*
X627890D02*
D03*
D32*
X954250Y475000D02*
D03*
X925750D02*
D03*
D33*
X670000Y24500D02*
D03*
Y45500D02*
D03*
X645000Y24500D02*
D03*
Y45500D02*
D03*
X570000D02*
D03*
Y24500D02*
D03*
X595000Y45500D02*
D03*
Y24500D02*
D03*
X620000Y45500D02*
D03*
Y24500D02*
D03*
D61*
X139600Y95400D02*
D03*
D62*
Y44600D02*
D03*
X190400Y70000D02*
D03*
Y44600D02*
D03*
D63*
X299600Y470000D02*
D03*
X325000D02*
D03*
X350400D02*
D03*
X375800D02*
D03*
X449600Y370000D02*
D03*
X475000D02*
D03*
X500400D02*
D03*
X902700Y450000D02*
D03*
X877300D02*
D03*
D64*
X401200Y470000D02*
D03*
X525800Y370000D02*
D03*
D65*
X26600Y375290D02*
D03*
Y465290D02*
D03*
Y125670D02*
D03*
Y35670D02*
D03*
D66*
X66000Y435290D02*
D03*
Y95670D02*
D03*
D67*
X1310000Y365000D02*
D03*
Y145000D02*
D03*
X110000Y365000D02*
D03*
Y145000D02*
D03*
D68*
X685400Y430000D02*
D03*
X634600D02*
D03*
X660000D02*
D03*
M02*
