G04*
G04 #@! TF.GenerationSoftware,Altium Limited,Altium Designer,22.11.1 (43)*
G04*
G04 Layer_Physical_Order=1*
G04 Layer_Color=255*
%FSLAX44Y44*%
%MOMM*%
G71*
G04*
G04 #@! TF.SameCoordinates,7FEAD27C-78B8-4A64-BA1D-56F7E302289E*
G04*
G04*
G04 #@! TF.FilePolarity,Positive*
G04*
G01*
G75*
%ADD13R,7.0000X8.0000*%
G04:AMPARAMS|DCode=14|XSize=1.75mm|YSize=1.25mm|CornerRadius=0.3125mm|HoleSize=0mm|Usage=FLASHONLY|Rotation=180.000|XOffset=0mm|YOffset=0mm|HoleType=Round|Shape=RoundedRectangle|*
%AMROUNDEDRECTD14*
21,1,1.7500,0.6250,0,0,180.0*
21,1,1.1250,1.2500,0,0,180.0*
1,1,0.6250,-0.5625,0.3125*
1,1,0.6250,0.5625,0.3125*
1,1,0.6250,0.5625,-0.3125*
1,1,0.6250,-0.5625,-0.3125*
%
%ADD14ROUNDEDRECTD14*%
%ADD22C,0.5000*%
%ADD23C,3.0000*%
G04:AMPARAMS|DCode=24|XSize=1mm|YSize=3mm|CornerRadius=0.25mm|HoleSize=0mm|Usage=FLASHONLY|Rotation=180.000|XOffset=0mm|YOffset=0mm|HoleType=Round|Shape=RoundedRectangle|*
%AMROUNDEDRECTD24*
21,1,1.0000,2.5000,0,0,180.0*
21,1,0.5000,3.0000,0,0,180.0*
1,1,0.5000,-0.2500,1.2500*
1,1,0.5000,0.2500,1.2500*
1,1,0.5000,0.2500,-1.2500*
1,1,0.5000,-0.2500,-1.2500*
%
%ADD24ROUNDEDRECTD24*%
%ADD25C,2.0000*%
%ADD26C,0.7000*%
%ADD27C,1.5000*%
G36*
X2846780Y555720D02*
X2846404Y555434D01*
X2846041Y555088D01*
X2845691Y554682D01*
X2845354Y554216D01*
X2845030Y553689D01*
X2844718Y553102D01*
X2844420Y552455D01*
X2843861Y550980D01*
X2843601Y550152D01*
X2838169Y550319D01*
X2838366Y551064D01*
X2838508Y551783D01*
X2838596Y552473D01*
X2838628Y553136D01*
X2838606Y553772D01*
X2838529Y554380D01*
X2838398Y554960D01*
X2838211Y555513D01*
X2837970Y556039D01*
X2837674Y556536D01*
X2846780Y555720D01*
D02*
G37*
G36*
X2066442Y555448D02*
X2066140Y555109D01*
X2065872Y554704D01*
X2065641Y554231D01*
X2065445Y553690D01*
X2065285Y553083D01*
X2065160Y552409D01*
X2065071Y551667D01*
X2065018Y550858D01*
X2065000Y549982D01*
X2060000D01*
X2059982Y550858D01*
X2059840Y552409D01*
X2059715Y553083D01*
X2059555Y553690D01*
X2059359Y554231D01*
X2059128Y554704D01*
X2058860Y555109D01*
X2058558Y555448D01*
X2058220Y555720D01*
X2066780D01*
X2066442Y555448D01*
D02*
G37*
G36*
X1676442D02*
X1676139Y555109D01*
X1675872Y554704D01*
X1675641Y554231D01*
X1675445Y553690D01*
X1675285Y553083D01*
X1675160Y552409D01*
X1675071Y551667D01*
X1675018Y550858D01*
X1675000Y549982D01*
X1670000D01*
X1669982Y550858D01*
X1669840Y552409D01*
X1669715Y553083D01*
X1669555Y553690D01*
X1669359Y554231D01*
X1669127Y554704D01*
X1668860Y555109D01*
X1668558Y555448D01*
X1668219Y555720D01*
X1676780D01*
X1676442Y555448D01*
D02*
G37*
G36*
X1651442D02*
X1651139Y555109D01*
X1650872Y554704D01*
X1650641Y554231D01*
X1650445Y553690D01*
X1650285Y553083D01*
X1650160Y552409D01*
X1650071Y551667D01*
X1650018Y550858D01*
X1650000Y549982D01*
X1645000D01*
X1644982Y550858D01*
X1644840Y552409D01*
X1644715Y553083D01*
X1644555Y553690D01*
X1644359Y554231D01*
X1644127Y554704D01*
X1643860Y555109D01*
X1643558Y555448D01*
X1643219Y555720D01*
X1651780D01*
X1651442Y555448D01*
D02*
G37*
G36*
X2960020Y555541D02*
X2960169Y555116D01*
X2960420Y554741D01*
X2960769Y554416D01*
X2961219Y554141D01*
X2961769Y553916D01*
X2962419Y553741D01*
X2963170Y553616D01*
X2964019Y553541D01*
X2964969Y553516D01*
Y548516D01*
X2964019Y548491D01*
X2963170Y548416D01*
X2962419Y548291D01*
X2961769Y548116D01*
X2961219Y547891D01*
X2960769Y547616D01*
X2960420Y547291D01*
X2960169Y546916D01*
X2960020Y546491D01*
X2959969Y546016D01*
Y556016D01*
X2960020Y555541D01*
D02*
G37*
G36*
X2695061Y546016D02*
X2695011Y546491D01*
X2694860Y546916D01*
X2694608Y547291D01*
X2694256Y547616D01*
X2693803Y547891D01*
X2693250Y548116D01*
X2692596Y548291D01*
X2691841Y548416D01*
X2690986Y548491D01*
X2690031Y548516D01*
Y553516D01*
X2690986Y553541D01*
X2691841Y553616D01*
X2692596Y553741D01*
X2693250Y553916D01*
X2693803Y554141D01*
X2694256Y554416D01*
X2694608Y554741D01*
X2694860Y555116D01*
X2695011Y555541D01*
X2695061Y556016D01*
Y546016D01*
D02*
G37*
G36*
X2570020Y555541D02*
X2570169Y555116D01*
X2570420Y554741D01*
X2570769Y554416D01*
X2571219Y554141D01*
X2571769Y553916D01*
X2572419Y553741D01*
X2573170Y553616D01*
X2574019Y553541D01*
X2574969Y553516D01*
Y548516D01*
X2574019Y548491D01*
X2573170Y548416D01*
X2572419Y548291D01*
X2571769Y548116D01*
X2571219Y547891D01*
X2570769Y547616D01*
X2570420Y547291D01*
X2570169Y546916D01*
X2570020Y546491D01*
X2569969Y546016D01*
Y556016D01*
X2570020Y555541D01*
D02*
G37*
G36*
X2305061Y546016D02*
X2305011Y546491D01*
X2304860Y546916D01*
X2304608Y547291D01*
X2304256Y547616D01*
X2303803Y547891D01*
X2303250Y548116D01*
X2302596Y548291D01*
X2301841Y548416D01*
X2300986Y548491D01*
X2300031Y548516D01*
Y553516D01*
X2300986Y553541D01*
X2301841Y553616D01*
X2302596Y553741D01*
X2303250Y553916D01*
X2303803Y554141D01*
X2304256Y554416D01*
X2304608Y554741D01*
X2304860Y555116D01*
X2305011Y555541D01*
X2305061Y556016D01*
Y546016D01*
D02*
G37*
G36*
X2180020Y555541D02*
X2180170Y555116D01*
X2180419Y554741D01*
X2180770Y554416D01*
X2181219Y554141D01*
X2181770Y553916D01*
X2182419Y553741D01*
X2183170Y553616D01*
X2184019Y553541D01*
X2184969Y553516D01*
Y548516D01*
X2184019Y548491D01*
X2183170Y548416D01*
X2182419Y548291D01*
X2181770Y548116D01*
X2181219Y547891D01*
X2180770Y547616D01*
X2180419Y547291D01*
X2180170Y546916D01*
X2180020Y546491D01*
X2179969Y546016D01*
Y556016D01*
X2180020Y555541D01*
D02*
G37*
G36*
X1915061Y545000D02*
X1915011Y545475D01*
X1914860Y545900D01*
X1914608Y546275D01*
X1914256Y546600D01*
X1913803Y546875D01*
X1913250Y547100D01*
X1912596Y547275D01*
X1911841Y547400D01*
X1910986Y547475D01*
X1910031Y547500D01*
Y552500D01*
X1910986Y552525D01*
X1911841Y552600D01*
X1912596Y552725D01*
X1913250Y552900D01*
X1913803Y553125D01*
X1914256Y553400D01*
X1914608Y553725D01*
X1914860Y554100D01*
X1915011Y554525D01*
X1915061Y555000D01*
Y545000D01*
D02*
G37*
G36*
X1790020Y554525D02*
X1790170Y554100D01*
X1790419Y553725D01*
X1790770Y553400D01*
X1791219Y553125D01*
X1791770Y552900D01*
X1792419Y552725D01*
X1793170Y552600D01*
X1794019Y552525D01*
X1794969Y552500D01*
Y547500D01*
X1794019Y547475D01*
X1793170Y547400D01*
X1792419Y547275D01*
X1791770Y547100D01*
X1791219Y546875D01*
X1790770Y546600D01*
X1790419Y546275D01*
X1790170Y545900D01*
X1790020Y545475D01*
X1789969Y545000D01*
Y555000D01*
X1790020Y554525D01*
D02*
G37*
G36*
X1525061Y545000D02*
X1525011Y545475D01*
X1524860Y545900D01*
X1524608Y546275D01*
X1524256Y546600D01*
X1523803Y546875D01*
X1523250Y547100D01*
X1522596Y547275D01*
X1521841Y547400D01*
X1520986Y547475D01*
X1520031Y547500D01*
Y552500D01*
X1520986Y552525D01*
X1521841Y552600D01*
X1522596Y552725D01*
X1523250Y552900D01*
X1523803Y553125D01*
X1524256Y553400D01*
X1524608Y553725D01*
X1524860Y554100D01*
X1525011Y554525D01*
X1525061Y555000D01*
Y545000D01*
D02*
G37*
G36*
X1400020Y554525D02*
X1400170Y554100D01*
X1400419Y553725D01*
X1400770Y553400D01*
X1401219Y553125D01*
X1401770Y552900D01*
X1402419Y552725D01*
X1403170Y552600D01*
X1404019Y552525D01*
X1404969Y552500D01*
Y547500D01*
X1404019Y547475D01*
X1403170Y547400D01*
X1402419Y547275D01*
X1401770Y547100D01*
X1401219Y546875D01*
X1400770Y546600D01*
X1400419Y546275D01*
X1400170Y545900D01*
X1400020Y545475D01*
X1399969Y545000D01*
Y555000D01*
X1400020Y554525D01*
D02*
G37*
G36*
X1135061Y545000D02*
X1135011Y545475D01*
X1134860Y545900D01*
X1134608Y546275D01*
X1134256Y546600D01*
X1133803Y546875D01*
X1133250Y547100D01*
X1132596Y547275D01*
X1131841Y547400D01*
X1130986Y547475D01*
X1130031Y547500D01*
Y552500D01*
X1130986Y552525D01*
X1131841Y552600D01*
X1132596Y552725D01*
X1133250Y552900D01*
X1133803Y553125D01*
X1134256Y553400D01*
X1134608Y553725D01*
X1134860Y554100D01*
X1135011Y554525D01*
X1135061Y555000D01*
Y545000D01*
D02*
G37*
G36*
X1010020Y554525D02*
X1010170Y554100D01*
X1010419Y553725D01*
X1010770Y553400D01*
X1011219Y553125D01*
X1011769Y552900D01*
X1012420Y552725D01*
X1013169Y552600D01*
X1014019Y552525D01*
X1014969Y552500D01*
Y547500D01*
X1014019Y547475D01*
X1013169Y547400D01*
X1012420Y547275D01*
X1011769Y547100D01*
X1011219Y546875D01*
X1010770Y546600D01*
X1010419Y546275D01*
X1010170Y545900D01*
X1010020Y545475D01*
X1009969Y545000D01*
Y555000D01*
X1010020Y554525D01*
D02*
G37*
G36*
X745061Y545000D02*
X745011Y545475D01*
X744860Y545900D01*
X744608Y546275D01*
X744256Y546600D01*
X743803Y546875D01*
X743250Y547100D01*
X742596Y547275D01*
X741841Y547400D01*
X740986Y547475D01*
X740031Y547500D01*
Y552500D01*
X740986Y552525D01*
X741841Y552600D01*
X742596Y552725D01*
X743250Y552900D01*
X743803Y553125D01*
X744256Y553400D01*
X744608Y553725D01*
X744860Y554100D01*
X745011Y554525D01*
X745061Y555000D01*
Y545000D01*
D02*
G37*
G36*
X620019Y554525D02*
X620169Y554100D01*
X620420Y553725D01*
X620770Y553400D01*
X621219Y553125D01*
X621769Y552900D01*
X622420Y552725D01*
X623170Y552600D01*
X624020Y552525D01*
X624969Y552500D01*
Y547500D01*
X624020Y547475D01*
X623170Y547400D01*
X622420Y547275D01*
X621769Y547100D01*
X621219Y546875D01*
X620770Y546600D01*
X620420Y546275D01*
X620169Y545900D01*
X620019Y545475D01*
X619969Y545000D01*
Y555000D01*
X620019Y554525D01*
D02*
G37*
G36*
X355061Y545000D02*
X355011Y545475D01*
X354860Y545900D01*
X354608Y546275D01*
X354256Y546600D01*
X353803Y546875D01*
X353250Y547100D01*
X352596Y547275D01*
X351841Y547400D01*
X350986Y547475D01*
X350031Y547500D01*
Y552500D01*
X350986Y552525D01*
X351841Y552600D01*
X352596Y552725D01*
X353250Y552900D01*
X353803Y553125D01*
X354256Y553400D01*
X354608Y553725D01*
X354860Y554100D01*
X355011Y554525D01*
X355061Y555000D01*
Y545000D01*
D02*
G37*
G36*
X230019Y554525D02*
X230170Y554100D01*
X230420Y553725D01*
X230770Y553400D01*
X231220Y553125D01*
X231770Y552900D01*
X232419Y552725D01*
X233169Y552600D01*
X234020Y552525D01*
X234970Y552500D01*
Y547500D01*
X234020Y547475D01*
X233169Y547400D01*
X232419Y547275D01*
X231770Y547100D01*
X231220Y546875D01*
X230770Y546600D01*
X230420Y546275D01*
X230170Y545900D01*
X230019Y545475D01*
X229970Y545000D01*
Y555000D01*
X230019Y554525D01*
D02*
G37*
G36*
X3020768Y535290D02*
X3024614Y535227D01*
X3024367Y534321D01*
X3024199Y533511D01*
X3024109Y532796D01*
X3024098Y532176D01*
X3024165Y531651D01*
X3024311Y531222D01*
X3024535Y530888D01*
X3024838Y530650D01*
X3025219Y530506D01*
X3025679Y530458D01*
X3020000Y530462D01*
X3014321Y530458D01*
X3014781Y530506D01*
X3015162Y530650D01*
X3015465Y530888D01*
X3015689Y531222D01*
X3015835Y531651D01*
X3015902Y532176D01*
X3015891Y532796D01*
X3015801Y533511D01*
X3015633Y534321D01*
X3015386Y535227D01*
X3019232Y535290D01*
X3019240Y535315D01*
X3020000Y535302D01*
X3020760Y535315D01*
X3020768Y535290D01*
D02*
G37*
G36*
X2640768D02*
X2644614Y535227D01*
X2644367Y534321D01*
X2644199Y533511D01*
X2644109Y532796D01*
X2644098Y532176D01*
X2644165Y531651D01*
X2644311Y531222D01*
X2644535Y530888D01*
X2644838Y530650D01*
X2645219Y530506D01*
X2645679Y530458D01*
X2640000Y530462D01*
X2634321Y530458D01*
X2634781Y530506D01*
X2635162Y530650D01*
X2635465Y530888D01*
X2635689Y531222D01*
X2635835Y531651D01*
X2635902Y532176D01*
X2635891Y532796D01*
X2635801Y533511D01*
X2635633Y534321D01*
X2635386Y535227D01*
X2639232Y535290D01*
X2639240Y535315D01*
X2640000Y535302D01*
X2640760Y535315D01*
X2640768Y535290D01*
D02*
G37*
G36*
X2240768D02*
X2244614Y535227D01*
X2244367Y534321D01*
X2244199Y533511D01*
X2244109Y532796D01*
X2244097Y532176D01*
X2244165Y531651D01*
X2244310Y531222D01*
X2244535Y530888D01*
X2244838Y530650D01*
X2245219Y530506D01*
X2245679Y530458D01*
X2240000Y530462D01*
X2234321Y530458D01*
X2234781Y530506D01*
X2235162Y530650D01*
X2235465Y530888D01*
X2235690Y531222D01*
X2235835Y531651D01*
X2235902Y532176D01*
X2235891Y532796D01*
X2235801Y533511D01*
X2235633Y534321D01*
X2235386Y535227D01*
X2239232Y535290D01*
X2239240Y535315D01*
X2240000Y535302D01*
X2240760Y535315D01*
X2240768Y535290D01*
D02*
G37*
G36*
X1850388Y535247D02*
X1855075Y535149D01*
X1854790Y534253D01*
X1854588Y533451D01*
X1854469Y532743D01*
X1854433Y532129D01*
X1854480Y531609D01*
X1854610Y531183D01*
X1854822Y530852D01*
X1855117Y530614D01*
X1855495Y530471D01*
X1855956Y530422D01*
X1850000Y530447D01*
X1844044Y530422D01*
X1844505Y530471D01*
X1844883Y530614D01*
X1845178Y530852D01*
X1845390Y531183D01*
X1845520Y531609D01*
X1845567Y532129D01*
X1845531Y532743D01*
X1845412Y533451D01*
X1845210Y534253D01*
X1844925Y535149D01*
X1849612Y535247D01*
X1849618Y535263D01*
X1850000Y535255D01*
X1850382Y535263D01*
X1850388Y535247D01*
D02*
G37*
G36*
X1470388D02*
X1475075Y535149D01*
X1474790Y534253D01*
X1474588Y533451D01*
X1474469Y532743D01*
X1474433Y532129D01*
X1474480Y531609D01*
X1474610Y531183D01*
X1474822Y530852D01*
X1475117Y530614D01*
X1475495Y530471D01*
X1475956Y530422D01*
X1470000Y530447D01*
X1464044Y530422D01*
X1464505Y530471D01*
X1464883Y530614D01*
X1465178Y530852D01*
X1465390Y531183D01*
X1465520Y531609D01*
X1465567Y532129D01*
X1465531Y532743D01*
X1465412Y533451D01*
X1465210Y534253D01*
X1464925Y535149D01*
X1469612Y535247D01*
X1469618Y535263D01*
X1470000Y535255D01*
X1470382Y535263D01*
X1470388Y535247D01*
D02*
G37*
G36*
X1070388D02*
X1075075Y535149D01*
X1074790Y534253D01*
X1074588Y533451D01*
X1074469Y532743D01*
X1074433Y532129D01*
X1074480Y531609D01*
X1074610Y531183D01*
X1074822Y530852D01*
X1075117Y530614D01*
X1075495Y530471D01*
X1075956Y530422D01*
X1070000Y530447D01*
X1064044Y530422D01*
X1064505Y530471D01*
X1064883Y530614D01*
X1065178Y530852D01*
X1065390Y531183D01*
X1065520Y531609D01*
X1065567Y532129D01*
X1065531Y532743D01*
X1065412Y533451D01*
X1065210Y534253D01*
X1064925Y535149D01*
X1069612Y535247D01*
X1069618Y535263D01*
X1070000Y535255D01*
X1070382Y535263D01*
X1070388Y535247D01*
D02*
G37*
G36*
X690388D02*
X695075Y535149D01*
X694790Y534253D01*
X694588Y533451D01*
X694469Y532743D01*
X694433Y532129D01*
X694480Y531609D01*
X694610Y531183D01*
X694822Y530852D01*
X695117Y530614D01*
X695495Y530471D01*
X695956Y530422D01*
X690000Y530447D01*
X684044Y530422D01*
X684505Y530471D01*
X684883Y530614D01*
X685178Y530852D01*
X685390Y531183D01*
X685520Y531609D01*
X685567Y532129D01*
X685531Y532743D01*
X685412Y533451D01*
X685210Y534253D01*
X684925Y535149D01*
X689612Y535247D01*
X689618Y535263D01*
X690000Y535255D01*
X690382Y535263D01*
X690388Y535247D01*
D02*
G37*
G36*
X300388D02*
X305075Y535149D01*
X304790Y534253D01*
X304588Y533451D01*
X304469Y532743D01*
X304433Y532129D01*
X304480Y531609D01*
X304610Y531183D01*
X304822Y530852D01*
X305117Y530614D01*
X305495Y530471D01*
X305956Y530422D01*
X300000Y530447D01*
X294044Y530422D01*
X294505Y530471D01*
X294883Y530614D01*
X295178Y530852D01*
X295390Y531183D01*
X295520Y531609D01*
X295567Y532129D01*
X295531Y532743D01*
X295412Y533451D01*
X295210Y534253D01*
X294925Y535149D01*
X299612Y535247D01*
X299618Y535263D01*
X300000Y535255D01*
X300382Y535263D01*
X300388Y535247D01*
D02*
G37*
G36*
X1858503Y499515D02*
X1858637Y499092D01*
X1858884Y498719D01*
X1859242Y498396D01*
X1859713Y498122D01*
X1860295Y497898D01*
X1860990Y497724D01*
X1861797Y497599D01*
X1862715Y497525D01*
X1863746Y497500D01*
X1863730Y492500D01*
X1862897Y492479D01*
X1862118Y492417D01*
X1861393Y492313D01*
X1860722Y492167D01*
X1860105Y491979D01*
X1859543Y491750D01*
X1859034Y491480D01*
X1858579Y491167D01*
X1858179Y490814D01*
X1857832Y490418D01*
X1858480Y499988D01*
X1858503Y499515D01*
D02*
G37*
G36*
X1474123Y489489D02*
X1473782Y489353D01*
X1473482Y489126D01*
X1473221Y488809D01*
X1473001Y488401D01*
X1472821Y487902D01*
X1472680Y487313D01*
X1472580Y486632D01*
X1472520Y485862D01*
X1472500Y485000D01*
X1467500D01*
X1467480Y485862D01*
X1467420Y486632D01*
X1467320Y487313D01*
X1467179Y487902D01*
X1466999Y488401D01*
X1466779Y488809D01*
X1466518Y489126D01*
X1466218Y489353D01*
X1465877Y489489D01*
X1465496Y489534D01*
X1474504D01*
X1474123Y489489D01*
D02*
G37*
G36*
X3024525Y489484D02*
X3024100Y489333D01*
X3023725Y489081D01*
X3023400Y488729D01*
X3023125Y488277D01*
X3022900Y487723D01*
X3022725Y487069D01*
X3022600Y486315D01*
X3022525Y485460D01*
X3022500Y484504D01*
X3017500D01*
X3017475Y485460D01*
X3017400Y486315D01*
X3017275Y487069D01*
X3017100Y487723D01*
X3016875Y488277D01*
X3016600Y488729D01*
X3016275Y489081D01*
X3015900Y489333D01*
X3015475Y489484D01*
X3015000Y489534D01*
X3025000D01*
X3024525Y489484D01*
D02*
G37*
G36*
X2644525D02*
X2644100Y489333D01*
X2643725Y489081D01*
X2643400Y488729D01*
X2643125Y488277D01*
X2642900Y487723D01*
X2642725Y487069D01*
X2642600Y486315D01*
X2642525Y485460D01*
X2642500Y484504D01*
X2637500D01*
X2637475Y485460D01*
X2637400Y486315D01*
X2637275Y487069D01*
X2637100Y487723D01*
X2636875Y488277D01*
X2636600Y488729D01*
X2636275Y489081D01*
X2635900Y489333D01*
X2635475Y489484D01*
X2635000Y489534D01*
X2645000D01*
X2644525Y489484D01*
D02*
G37*
G36*
X2244525D02*
X2244100Y489333D01*
X2243725Y489081D01*
X2243400Y488729D01*
X2243125Y488277D01*
X2242900Y487723D01*
X2242725Y487069D01*
X2242600Y486315D01*
X2242525Y485460D01*
X2242500Y484504D01*
X2237500D01*
X2237475Y485460D01*
X2237400Y486315D01*
X2237275Y487069D01*
X2237100Y487723D01*
X2236875Y488277D01*
X2236600Y488729D01*
X2236275Y489081D01*
X2235900Y489333D01*
X2235475Y489484D01*
X2235000Y489534D01*
X2245000D01*
X2244525Y489484D01*
D02*
G37*
G36*
X1073998Y489534D02*
X1073523Y489486D01*
X1073098Y489337D01*
X1072723Y489087D01*
X1072398Y488735D01*
X1072123Y488283D01*
X1071898Y487729D01*
X1071723Y487075D01*
X1071598Y486319D01*
X1071523Y485462D01*
X1071498Y484504D01*
X1066498D01*
X1066473Y485467D01*
X1066398Y486329D01*
X1066273Y487089D01*
X1066098Y487749D01*
X1065874Y488308D01*
X1065599Y488765D01*
X1065275Y489121D01*
X1064900Y489376D01*
X1064476Y489531D01*
X1064002Y489584D01*
X1073998Y489534D01*
D02*
G37*
G36*
X693166D02*
X692691Y489496D01*
X692266Y489355D01*
X691891Y489110D01*
X691566Y488762D01*
X691291Y488311D01*
X691066Y487756D01*
X690891Y487098D01*
X690766Y486336D01*
X690691Y485472D01*
X690666Y484504D01*
X685666D01*
X685641Y485499D01*
X685566Y486390D01*
X685442Y487179D01*
X685268Y487864D01*
X685044Y488446D01*
X684770Y488924D01*
X684446Y489299D01*
X684073Y489571D01*
X683650Y489739D01*
X683177Y489805D01*
X693166Y489534D01*
D02*
G37*
G36*
X1946145Y454479D02*
X1944705Y452737D01*
X1944120Y451875D01*
X1943625Y451018D01*
X1943220Y450167D01*
X1942905Y449321D01*
X1942680Y448481D01*
X1942545Y447646D01*
X1942537Y447500D01*
X1942545Y447354D01*
X1942680Y446519D01*
X1942905Y445679D01*
X1943220Y444833D01*
X1943625Y443982D01*
X1944120Y443125D01*
X1944705Y442263D01*
X1945380Y441395D01*
X1946145Y440521D01*
X1947000Y439641D01*
X1937272D01*
X1930022Y433156D01*
X1930098Y433982D01*
X1930212Y434720D01*
X1930365Y435372D01*
X1930555Y435936D01*
X1930784Y436414D01*
X1931051Y436805D01*
X1931356Y437109D01*
X1931699Y437326D01*
X1932080Y437457D01*
X1932500Y437500D01*
X1932844Y442494D01*
X1935451Y442493D01*
X1935880Y443125D01*
X1936375Y443982D01*
X1936780Y444833D01*
X1937095Y445679D01*
X1937320Y446519D01*
X1937455Y447354D01*
X1937463Y447500D01*
X1937455Y447646D01*
X1937320Y448481D01*
X1937095Y449321D01*
X1936780Y450167D01*
X1936375Y451018D01*
X1935880Y451875D01*
X1935295Y452737D01*
X1934620Y453605D01*
X1933855Y454479D01*
X1933000Y455359D01*
X1947000D01*
X1946145Y454479D01*
D02*
G37*
G36*
X1932858Y395500D02*
X1931979Y396355D01*
X1930237Y397795D01*
X1929375Y398380D01*
X1928518Y398875D01*
X1927666Y399280D01*
X1926821Y399595D01*
X1925981Y399820D01*
X1925146Y399955D01*
X1924317Y400000D01*
Y405000D01*
X1925146Y405045D01*
X1925981Y405180D01*
X1926821Y405405D01*
X1927666Y405720D01*
X1928518Y406125D01*
X1929375Y406620D01*
X1930237Y407205D01*
X1931105Y407880D01*
X1931979Y408645D01*
X1932858Y409500D01*
Y395500D01*
D02*
G37*
G36*
X1942690Y362869D02*
X1941784Y362607D01*
X1938093Y361298D01*
X1937523Y361035D01*
X1936552Y360509D01*
X1936151Y360246D01*
X1930694Y363024D01*
X1931067Y363207D01*
X1931357Y363476D01*
X1931565Y363832D01*
X1931692Y364275D01*
X1931736Y364805D01*
X1931698Y365421D01*
X1931579Y366125D01*
X1931377Y366915D01*
X1931093Y367791D01*
X1930728Y368755D01*
X1942690Y362869D01*
D02*
G37*
G36*
X1931335Y337508D02*
X1930744Y338456D01*
X1930121Y339305D01*
X1929467Y340054D01*
X1928781Y340703D01*
X1928063Y341252D01*
X1927314Y341701D01*
X1926533Y342051D01*
X1925720Y342300D01*
X1924876Y342450D01*
X1924000Y342500D01*
X1925340Y347500D01*
X1926080Y347536D01*
X1926868Y347643D01*
X1927701Y347821D01*
X1928581Y348070D01*
X1929507Y348391D01*
X1931499Y349246D01*
X1932565Y349780D01*
X1934835Y351063D01*
X1931335Y337508D01*
D02*
G37*
G36*
X1932858Y305500D02*
X1931979Y306355D01*
X1930237Y307795D01*
X1929375Y308380D01*
X1928518Y308875D01*
X1927666Y309280D01*
X1926821Y309595D01*
X1925981Y309820D01*
X1925146Y309955D01*
X1924317Y310000D01*
Y315000D01*
X1925146Y315045D01*
X1925981Y315180D01*
X1926821Y315405D01*
X1927666Y315720D01*
X1928518Y316125D01*
X1929375Y316620D01*
X1930237Y317205D01*
X1931105Y317880D01*
X1931979Y318645D01*
X1932858Y319500D01*
Y305500D01*
D02*
G37*
G36*
Y275500D02*
X1931979Y276355D01*
X1930237Y277795D01*
X1929375Y278380D01*
X1928518Y278875D01*
X1927666Y279280D01*
X1926821Y279595D01*
X1925981Y279820D01*
X1925146Y279955D01*
X1924317Y280000D01*
Y285000D01*
X1925146Y285045D01*
X1925981Y285180D01*
X1926821Y285405D01*
X1927666Y285720D01*
X1928518Y286125D01*
X1929375Y286620D01*
X1930237Y287205D01*
X1931105Y287880D01*
X1931979Y288645D01*
X1932858Y289500D01*
Y275500D01*
D02*
G37*
G36*
Y245500D02*
X1931979Y246355D01*
X1930237Y247795D01*
X1929375Y248380D01*
X1928518Y248875D01*
X1927666Y249280D01*
X1926821Y249595D01*
X1925981Y249820D01*
X1925146Y249955D01*
X1924317Y250000D01*
Y255000D01*
X1925146Y255045D01*
X1925981Y255180D01*
X1926821Y255405D01*
X1927666Y255720D01*
X1928518Y256125D01*
X1929375Y256620D01*
X1930237Y257205D01*
X1931105Y257880D01*
X1931979Y258645D01*
X1932858Y259500D01*
Y245500D01*
D02*
G37*
G36*
X1936552Y234491D02*
X1937009Y234228D01*
X1938093Y233702D01*
X1938719Y233440D01*
X1940933Y232654D01*
X1942690Y232131D01*
X1930728Y226245D01*
X1931093Y227209D01*
X1931579Y228875D01*
X1931698Y229578D01*
X1931736Y230195D01*
X1931692Y230725D01*
X1931565Y231168D01*
X1931357Y231524D01*
X1931067Y231793D01*
X1930694Y231976D01*
X1936151Y234754D01*
X1936552Y234491D01*
D02*
G37*
G36*
X1930435Y189583D02*
X1930383Y189663D01*
X1930277Y189733D01*
X1930117Y189796D01*
X1929904Y189850D01*
X1929637Y189896D01*
X1929317Y189933D01*
X1928516Y189983D01*
X1927500Y190000D01*
Y195000D01*
X1928035Y195004D01*
X1929637Y195104D01*
X1929904Y195150D01*
X1930117Y195204D01*
X1930277Y195267D01*
X1930383Y195337D01*
X1930435Y195417D01*
Y189583D01*
D02*
G37*
G36*
X1933037Y155322D02*
X1932209Y156100D01*
X1930713Y157345D01*
X1930045Y157813D01*
X1929430Y158178D01*
X1928869Y158439D01*
X1928361Y158597D01*
X1927906Y158652D01*
X1927505Y158604D01*
X1927157Y158453D01*
X1926906Y163918D01*
X1927189Y164062D01*
X1927536Y164294D01*
X1927949Y164612D01*
X1928969Y165512D01*
X1930987Y167516D01*
X1932657Y169289D01*
X1933037Y155322D01*
D02*
G37*
G36*
X1948021Y138645D02*
X1949763Y137205D01*
X1950625Y136620D01*
X1951482Y136125D01*
X1952333Y135720D01*
X1953179Y135405D01*
X1954019Y135180D01*
X1954854Y135045D01*
X1955682Y135000D01*
Y130000D01*
X1954854Y129955D01*
X1954019Y129820D01*
X1953179Y129595D01*
X1952333Y129280D01*
X1951482Y128875D01*
X1950625Y128380D01*
X1949763Y127795D01*
X1948895Y127120D01*
X1948021Y126355D01*
X1947141Y125500D01*
Y139500D01*
X1948021Y138645D01*
D02*
G37*
G36*
X1932858Y125500D02*
X1931979Y126355D01*
X1930237Y127795D01*
X1929375Y128380D01*
X1928518Y128875D01*
X1927666Y129280D01*
X1926821Y129595D01*
X1925981Y129820D01*
X1925146Y129955D01*
X1924317Y130000D01*
Y135000D01*
X1925146Y135045D01*
X1925981Y135180D01*
X1926821Y135405D01*
X1927666Y135720D01*
X1928518Y136125D01*
X1929375Y136620D01*
X1930237Y137205D01*
X1931105Y137880D01*
X1931979Y138645D01*
X1932858Y139500D01*
Y125500D01*
D02*
G37*
G36*
X2832525Y114540D02*
X2832600Y113685D01*
X2832725Y112931D01*
X2832900Y112277D01*
X2833125Y111723D01*
X2833400Y111271D01*
X2833725Y110918D01*
X2834100Y110667D01*
X2834525Y110516D01*
X2835000Y110466D01*
X2825000D01*
X2825475Y110516D01*
X2825900Y110667D01*
X2826275Y110918D01*
X2826600Y111271D01*
X2826875Y111723D01*
X2827100Y112277D01*
X2827275Y112931D01*
X2827400Y113685D01*
X2827475Y114540D01*
X2827500Y115496D01*
X2832500D01*
X2832525Y114540D01*
D02*
G37*
G36*
X2432525D02*
X2432600Y113685D01*
X2432725Y112931D01*
X2432900Y112277D01*
X2433125Y111723D01*
X2433400Y111271D01*
X2433725Y110918D01*
X2434100Y110667D01*
X2434525Y110516D01*
X2435000Y110466D01*
X2425000D01*
X2425475Y110516D01*
X2425900Y110667D01*
X2426275Y110918D01*
X2426600Y111271D01*
X2426875Y111723D01*
X2427100Y112277D01*
X2427275Y112931D01*
X2427400Y113685D01*
X2427475Y114540D01*
X2427500Y115496D01*
X2432500D01*
X2432525Y114540D01*
D02*
G37*
G36*
X2252525D02*
X2252600Y113685D01*
X2252725Y112931D01*
X2252900Y112277D01*
X2253125Y111723D01*
X2253400Y111271D01*
X2253725Y110918D01*
X2254100Y110667D01*
X2254525Y110516D01*
X2255000Y110466D01*
X2245000D01*
X2245475Y110516D01*
X2245900Y110667D01*
X2246275Y110918D01*
X2246600Y111271D01*
X2246875Y111723D01*
X2247100Y112277D01*
X2247275Y112931D01*
X2247400Y113685D01*
X2247475Y114540D01*
X2247500Y115496D01*
X2252500D01*
X2252525Y114540D01*
D02*
G37*
G36*
X1864026Y115321D02*
X1863833Y114399D01*
X1863712Y113573D01*
X1863663Y112845D01*
X1863688Y112214D01*
X1863784Y111680D01*
X1863954Y111243D01*
X1864196Y110903D01*
X1864511Y110660D01*
X1864898Y110514D01*
X1865358Y110466D01*
X1855098D01*
X1855584Y110515D01*
X1856043Y110662D01*
X1856475Y110908D01*
X1856881Y111252D01*
X1857260Y111694D01*
X1857613Y112234D01*
X1857939Y112873D01*
X1858238Y113610D01*
X1858510Y114445D01*
X1858756Y115378D01*
X1864026Y115321D01*
D02*
G37*
G36*
X1662525Y114540D02*
X1662600Y113685D01*
X1662725Y112931D01*
X1662900Y112277D01*
X1663125Y111723D01*
X1663400Y111271D01*
X1663725Y110918D01*
X1664100Y110667D01*
X1664525Y110516D01*
X1665000Y110466D01*
X1655000D01*
X1655475Y110516D01*
X1655900Y110667D01*
X1656275Y110918D01*
X1656600Y111271D01*
X1656875Y111723D01*
X1657100Y112277D01*
X1657275Y112931D01*
X1657400Y113685D01*
X1657475Y114540D01*
X1657500Y115496D01*
X1662500D01*
X1662525Y114540D01*
D02*
G37*
G36*
X1272525D02*
X1272600Y113685D01*
X1272725Y112931D01*
X1272900Y112277D01*
X1273125Y111723D01*
X1273400Y111271D01*
X1273725Y110918D01*
X1274100Y110667D01*
X1274525Y110516D01*
X1275000Y110466D01*
X1265000D01*
X1265475Y110516D01*
X1265900Y110667D01*
X1266275Y110918D01*
X1266600Y111271D01*
X1266875Y111723D01*
X1267100Y112277D01*
X1267275Y112931D01*
X1267400Y113685D01*
X1267475Y114540D01*
X1267500Y115496D01*
X1272500D01*
X1272525Y114540D01*
D02*
G37*
G36*
X872525D02*
X872600Y113685D01*
X872725Y112931D01*
X872900Y112277D01*
X873125Y111723D01*
X873400Y111271D01*
X873725Y110918D01*
X874100Y110667D01*
X874525Y110516D01*
X875000Y110466D01*
X865000D01*
X865475Y110516D01*
X865900Y110667D01*
X866275Y110918D01*
X866600Y111271D01*
X866875Y111723D01*
X867100Y112277D01*
X867275Y112931D01*
X867400Y113685D01*
X867475Y114540D01*
X867500Y115496D01*
X872500D01*
X872525Y114540D01*
D02*
G37*
G36*
X302525D02*
X302600Y113685D01*
X302725Y112931D01*
X302900Y112277D01*
X303125Y111723D01*
X303400Y111271D01*
X303725Y110918D01*
X304100Y110667D01*
X304525Y110516D01*
X305000Y110466D01*
X295000D01*
X295475Y110516D01*
X295900Y110667D01*
X296275Y110918D01*
X296600Y111271D01*
X296875Y111723D01*
X297100Y112277D01*
X297275Y112931D01*
X297400Y113685D01*
X297475Y114540D01*
X297500Y115496D01*
X302500D01*
X302525Y114540D01*
D02*
G37*
G36*
X1851937Y99269D02*
X1851880Y99740D01*
X1851710Y100162D01*
X1851426Y100534D01*
X1851028Y100857D01*
X1850517Y101130D01*
X1849891Y101353D01*
X1849152Y101527D01*
X1848300Y101651D01*
X1847334Y101725D01*
X1846254Y101750D01*
Y106750D01*
X1847334Y106775D01*
X1848300Y106849D01*
X1849152Y106973D01*
X1849891Y107147D01*
X1850517Y107370D01*
X1851028Y107643D01*
X1851426Y107966D01*
X1851710Y108338D01*
X1851880Y108760D01*
X1851937Y109231D01*
Y99269D01*
D02*
G37*
G36*
X498120Y108760D02*
X498290Y108338D01*
X498574Y107966D01*
X498972Y107643D01*
X499483Y107370D01*
X500109Y107147D01*
X500848Y106973D01*
X501700Y106849D01*
X502666Y106775D01*
X503746Y106750D01*
Y101750D01*
X502666Y101725D01*
X501700Y101651D01*
X500848Y101527D01*
X500109Y101353D01*
X499483Y101130D01*
X498972Y100857D01*
X498574Y100534D01*
X498290Y100162D01*
X498120Y99740D01*
X498063Y99269D01*
Y109231D01*
X498120Y108760D01*
D02*
G37*
G36*
X2832976Y69503D02*
X2832876Y69409D01*
X2832788Y69254D01*
X2832711Y69035D01*
X2832647Y68755D01*
X2832594Y68412D01*
X2832523Y67539D01*
X2832500Y66416D01*
X2827500D01*
X2827494Y67009D01*
X2827406Y68412D01*
X2827353Y68755D01*
X2827289Y69035D01*
X2827212Y69254D01*
X2827124Y69409D01*
X2827024Y69503D01*
X2826912Y69534D01*
X2833088D01*
X2832976Y69503D01*
D02*
G37*
G36*
X2432976D02*
X2432876Y69409D01*
X2432788Y69254D01*
X2432712Y69035D01*
X2432647Y68755D01*
X2432594Y68412D01*
X2432523Y67539D01*
X2432500Y66416D01*
X2427500D01*
X2427494Y67009D01*
X2427406Y68412D01*
X2427353Y68755D01*
X2427288Y69035D01*
X2427212Y69254D01*
X2427124Y69409D01*
X2427024Y69503D01*
X2426912Y69534D01*
X2433088D01*
X2432976Y69503D01*
D02*
G37*
G36*
X2252976D02*
X2252876Y69409D01*
X2252788Y69254D01*
X2252712Y69035D01*
X2252647Y68755D01*
X2252594Y68412D01*
X2252523Y67539D01*
X2252500Y66416D01*
X2247500D01*
X2247494Y67009D01*
X2247406Y68412D01*
X2247353Y68755D01*
X2247288Y69035D01*
X2247212Y69254D01*
X2247124Y69409D01*
X2247024Y69503D01*
X2246912Y69534D01*
X2253088D01*
X2252976Y69503D01*
D02*
G37*
G36*
X1862976D02*
X1862876Y69409D01*
X1862788Y69254D01*
X1862712Y69035D01*
X1862647Y68755D01*
X1862594Y68412D01*
X1862523Y67539D01*
X1862500Y66416D01*
X1857500D01*
X1857494Y67009D01*
X1857406Y68412D01*
X1857353Y68755D01*
X1857288Y69035D01*
X1857212Y69254D01*
X1857124Y69409D01*
X1857024Y69503D01*
X1856912Y69534D01*
X1863088D01*
X1862976Y69503D01*
D02*
G37*
G36*
X1662976D02*
X1662876Y69409D01*
X1662788Y69254D01*
X1662712Y69035D01*
X1662647Y68755D01*
X1662594Y68412D01*
X1662523Y67539D01*
X1662500Y66416D01*
X1657500D01*
X1657494Y67009D01*
X1657406Y68412D01*
X1657353Y68755D01*
X1657288Y69035D01*
X1657212Y69254D01*
X1657124Y69409D01*
X1657024Y69503D01*
X1656912Y69534D01*
X1663088D01*
X1662976Y69503D01*
D02*
G37*
G36*
X1272976D02*
X1272876Y69409D01*
X1272788Y69254D01*
X1272712Y69035D01*
X1272647Y68755D01*
X1272594Y68412D01*
X1272523Y67539D01*
X1272500Y66416D01*
X1267500D01*
X1267494Y67009D01*
X1267406Y68412D01*
X1267353Y68755D01*
X1267288Y69035D01*
X1267212Y69254D01*
X1267124Y69409D01*
X1267024Y69503D01*
X1266912Y69534D01*
X1273088D01*
X1272976Y69503D01*
D02*
G37*
G36*
X872976D02*
X872876Y69409D01*
X872788Y69254D01*
X872712Y69035D01*
X872647Y68755D01*
X872594Y68412D01*
X872523Y67539D01*
X872500Y66416D01*
X867500D01*
X867494Y67009D01*
X867406Y68412D01*
X867353Y68755D01*
X867288Y69035D01*
X867212Y69254D01*
X867124Y69409D01*
X867024Y69503D01*
X866912Y69534D01*
X873088D01*
X872976Y69503D01*
D02*
G37*
G36*
X492976D02*
X492876Y69409D01*
X492788Y69254D01*
X492712Y69035D01*
X492647Y68755D01*
X492594Y68412D01*
X492523Y67539D01*
X492500Y66416D01*
X487500D01*
X487494Y67009D01*
X487406Y68412D01*
X487353Y68755D01*
X487288Y69035D01*
X487212Y69254D01*
X487124Y69409D01*
X487024Y69503D01*
X486912Y69534D01*
X493088D01*
X492976Y69503D01*
D02*
G37*
G36*
X302976D02*
X302876Y69409D01*
X302788Y69254D01*
X302712Y69035D01*
X302647Y68755D01*
X302594Y68412D01*
X302523Y67539D01*
X302500Y66416D01*
X297500D01*
X297494Y67009D01*
X297406Y68412D01*
X297353Y68755D01*
X297288Y69035D01*
X297212Y69254D01*
X297124Y69409D01*
X297024Y69503D01*
X296912Y69534D01*
X303088D01*
X302976Y69503D01*
D02*
G37*
G36*
X2180020Y49525D02*
X2180170Y49100D01*
X2180419Y48725D01*
X2180770Y48400D01*
X2181219Y48125D01*
X2181770Y47900D01*
X2182419Y47725D01*
X2183170Y47600D01*
X2184019Y47525D01*
X2184969Y47500D01*
Y42500D01*
X2184019Y42475D01*
X2183170Y42400D01*
X2182419Y42275D01*
X2181770Y42100D01*
X2181219Y41875D01*
X2180770Y41600D01*
X2180419Y41275D01*
X2180170Y40900D01*
X2180020Y40475D01*
X2179969Y40000D01*
Y50000D01*
X2180020Y49525D01*
D02*
G37*
G36*
X2890061Y36016D02*
X2890011Y36491D01*
X2889860Y36916D01*
X2889608Y37291D01*
X2889256Y37616D01*
X2888803Y37891D01*
X2888250Y38116D01*
X2887596Y38291D01*
X2886841Y38416D01*
X2885986Y38491D01*
X2885031Y38516D01*
Y43516D01*
X2885986Y43541D01*
X2886841Y43616D01*
X2887596Y43741D01*
X2888250Y43916D01*
X2888803Y44141D01*
X2889256Y44416D01*
X2889608Y44741D01*
X2889860Y45116D01*
X2890011Y45541D01*
X2890061Y46016D01*
Y36016D01*
D02*
G37*
G36*
X2765020Y45541D02*
X2765169Y45116D01*
X2765420Y44741D01*
X2765769Y44416D01*
X2766219Y44141D01*
X2766769Y43916D01*
X2767419Y43741D01*
X2768170Y43616D01*
X2769019Y43541D01*
X2769969Y43516D01*
Y38516D01*
X2769019Y38491D01*
X2768170Y38416D01*
X2767419Y38291D01*
X2766769Y38116D01*
X2766219Y37891D01*
X2765769Y37616D01*
X2765420Y37291D01*
X2765169Y36916D01*
X2765020Y36491D01*
X2764969Y36016D01*
Y46016D01*
X2765020Y45541D01*
D02*
G37*
G36*
X2500061Y36016D02*
X2500011Y36491D01*
X2499860Y36916D01*
X2499608Y37291D01*
X2499256Y37616D01*
X2498803Y37891D01*
X2498250Y38116D01*
X2497596Y38291D01*
X2496841Y38416D01*
X2495986Y38491D01*
X2495031Y38516D01*
Y43516D01*
X2495986Y43541D01*
X2496841Y43616D01*
X2497596Y43741D01*
X2498250Y43916D01*
X2498803Y44141D01*
X2499256Y44416D01*
X2499608Y44741D01*
X2499860Y45116D01*
X2500011Y45541D01*
X2500061Y46016D01*
Y36016D01*
D02*
G37*
G36*
X2375020Y45541D02*
X2375170Y45116D01*
X2375419Y44741D01*
X2375770Y44416D01*
X2376219Y44141D01*
X2376770Y43916D01*
X2377419Y43741D01*
X2378170Y43616D01*
X2379019Y43541D01*
X2379969Y43516D01*
Y38516D01*
X2379019Y38491D01*
X2378170Y38416D01*
X2377419Y38291D01*
X2376770Y38116D01*
X2376219Y37891D01*
X2375770Y37616D01*
X2375419Y37291D01*
X2375170Y36916D01*
X2375020Y36491D01*
X2374969Y36016D01*
Y46016D01*
X2375020Y45541D01*
D02*
G37*
G36*
X1915061Y36016D02*
X1915011Y36491D01*
X1914860Y36916D01*
X1914608Y37291D01*
X1914256Y37616D01*
X1913803Y37891D01*
X1913250Y38116D01*
X1912596Y38291D01*
X1911841Y38416D01*
X1910986Y38491D01*
X1910031Y38516D01*
Y43516D01*
X1910986Y43541D01*
X1911841Y43616D01*
X1912596Y43741D01*
X1913250Y43916D01*
X1913803Y44141D01*
X1914256Y44416D01*
X1914608Y44741D01*
X1914860Y45116D01*
X1915011Y45541D01*
X1915061Y46016D01*
Y36016D01*
D02*
G37*
G36*
X1720061D02*
X1720011Y36491D01*
X1719860Y36916D01*
X1719608Y37291D01*
X1719256Y37616D01*
X1718803Y37891D01*
X1718250Y38116D01*
X1717596Y38291D01*
X1716841Y38416D01*
X1715986Y38491D01*
X1715031Y38516D01*
Y43516D01*
X1715986Y43541D01*
X1716841Y43616D01*
X1717596Y43741D01*
X1718250Y43916D01*
X1718803Y44141D01*
X1719256Y44416D01*
X1719608Y44741D01*
X1719860Y45116D01*
X1720011Y45541D01*
X1720061Y46016D01*
Y36016D01*
D02*
G37*
G36*
X1595020Y45541D02*
X1595170Y45116D01*
X1595419Y44741D01*
X1595770Y44416D01*
X1596219Y44141D01*
X1596770Y43916D01*
X1597419Y43741D01*
X1598170Y43616D01*
X1599019Y43541D01*
X1599969Y43516D01*
Y38516D01*
X1599019Y38491D01*
X1598170Y38416D01*
X1597419Y38291D01*
X1596770Y38116D01*
X1596219Y37891D01*
X1595770Y37616D01*
X1595419Y37291D01*
X1595170Y36916D01*
X1595020Y36491D01*
X1594969Y36016D01*
Y46016D01*
X1595020Y45541D01*
D02*
G37*
G36*
X1330061Y36016D02*
X1330011Y36491D01*
X1329860Y36916D01*
X1329608Y37291D01*
X1329256Y37616D01*
X1328803Y37891D01*
X1328250Y38116D01*
X1327596Y38291D01*
X1326841Y38416D01*
X1325986Y38491D01*
X1325031Y38516D01*
Y43516D01*
X1325986Y43541D01*
X1326841Y43616D01*
X1327596Y43741D01*
X1328250Y43916D01*
X1328803Y44141D01*
X1329256Y44416D01*
X1329608Y44741D01*
X1329860Y45116D01*
X1330011Y45541D01*
X1330061Y46016D01*
Y36016D01*
D02*
G37*
G36*
X1205020Y45541D02*
X1205170Y45116D01*
X1205419Y44741D01*
X1205770Y44416D01*
X1206219Y44141D01*
X1206769Y43916D01*
X1207420Y43741D01*
X1208169Y43616D01*
X1209019Y43541D01*
X1209969Y43516D01*
Y38516D01*
X1209019Y38491D01*
X1208169Y38416D01*
X1207420Y38291D01*
X1206769Y38116D01*
X1206219Y37891D01*
X1205770Y37616D01*
X1205419Y37291D01*
X1205170Y36916D01*
X1205020Y36491D01*
X1204969Y36016D01*
Y46016D01*
X1205020Y45541D01*
D02*
G37*
G36*
X940061Y36016D02*
X940011Y36491D01*
X939860Y36916D01*
X939608Y37291D01*
X939256Y37616D01*
X938803Y37891D01*
X938250Y38116D01*
X937596Y38291D01*
X936841Y38416D01*
X935986Y38491D01*
X935031Y38516D01*
Y43516D01*
X935986Y43541D01*
X936841Y43616D01*
X937596Y43741D01*
X938250Y43916D01*
X938803Y44141D01*
X939256Y44416D01*
X939608Y44741D01*
X939860Y45116D01*
X940011Y45541D01*
X940061Y46016D01*
Y36016D01*
D02*
G37*
G36*
X815020Y45541D02*
X815170Y45116D01*
X815419Y44741D01*
X815770Y44416D01*
X816219Y44141D01*
X816769Y43916D01*
X817420Y43741D01*
X818169Y43616D01*
X819019Y43541D01*
X819969Y43516D01*
Y38516D01*
X819019Y38491D01*
X818169Y38416D01*
X817420Y38291D01*
X816769Y38116D01*
X816219Y37891D01*
X815770Y37616D01*
X815419Y37291D01*
X815170Y36916D01*
X815020Y36491D01*
X814969Y36016D01*
Y46016D01*
X815020Y45541D01*
D02*
G37*
G36*
X550061Y36016D02*
X550011Y36491D01*
X549860Y36916D01*
X549608Y37291D01*
X549256Y37616D01*
X548803Y37891D01*
X548250Y38116D01*
X547596Y38291D01*
X546842Y38416D01*
X545986Y38491D01*
X545031Y38516D01*
Y43516D01*
X545986Y43541D01*
X546842Y43616D01*
X547596Y43741D01*
X548250Y43916D01*
X548803Y44141D01*
X549256Y44416D01*
X549608Y44741D01*
X549860Y45116D01*
X550011Y45541D01*
X550061Y46016D01*
Y36016D01*
D02*
G37*
G36*
X425019Y45541D02*
X425169Y45116D01*
X425420Y44741D01*
X425770Y44416D01*
X426219Y44141D01*
X426769Y43916D01*
X427420Y43741D01*
X428170Y43616D01*
X429020Y43541D01*
X429969Y43516D01*
Y38516D01*
X429020Y38491D01*
X428170Y38416D01*
X427420Y38291D01*
X426769Y38116D01*
X426219Y37891D01*
X425770Y37616D01*
X425420Y37291D01*
X425169Y36916D01*
X425019Y36491D01*
X424969Y36016D01*
Y46016D01*
X425019Y45541D01*
D02*
G37*
G36*
X230019D02*
X230170Y45116D01*
X230420Y44741D01*
X230770Y44416D01*
X231220Y44141D01*
X231770Y43916D01*
X232419Y43741D01*
X233169Y43616D01*
X234020Y43541D01*
X234970Y43516D01*
Y38516D01*
X234020Y38491D01*
X233169Y38416D01*
X232419Y38291D01*
X231770Y38116D01*
X231220Y37891D01*
X230770Y37616D01*
X230420Y37291D01*
X230170Y36916D01*
X230019Y36491D01*
X229970Y36016D01*
Y46016D01*
X230019Y45541D01*
D02*
G37*
G36*
X3045018Y39142D02*
X3045160Y37591D01*
X3045285Y36917D01*
X3045445Y36310D01*
X3045641Y35769D01*
X3045872Y35296D01*
X3046139Y34891D01*
X3046442Y34552D01*
X3046780Y34280D01*
X3038220D01*
X3038558Y34552D01*
X3038860Y34891D01*
X3039128Y35296D01*
X3039359Y35769D01*
X3039555Y36310D01*
X3039715Y36917D01*
X3039839Y37591D01*
X3039929Y38333D01*
X3039982Y39142D01*
X3040000Y40018D01*
X3045000D01*
X3045018Y39142D01*
D02*
G37*
G36*
X1485018D02*
X1485160Y37591D01*
X1485285Y36917D01*
X1485445Y36310D01*
X1485641Y35769D01*
X1485872Y35296D01*
X1486139Y34891D01*
X1486442Y34552D01*
X1486780Y34280D01*
X1478219D01*
X1478558Y34552D01*
X1478860Y34891D01*
X1479127Y35296D01*
X1479359Y35769D01*
X1479555Y36310D01*
X1479715Y36917D01*
X1479840Y37591D01*
X1479929Y38333D01*
X1479982Y39142D01*
X1480000Y40018D01*
X1485000D01*
X1485018Y39142D01*
D02*
G37*
G36*
X1095018D02*
X1095160Y37591D01*
X1095285Y36917D01*
X1095445Y36310D01*
X1095641Y35769D01*
X1095872Y35296D01*
X1096140Y34891D01*
X1096442Y34552D01*
X1096780Y34280D01*
X1088220D01*
X1088558Y34552D01*
X1088860Y34891D01*
X1089128Y35296D01*
X1089359Y35769D01*
X1089555Y36310D01*
X1089715Y36917D01*
X1089840Y37591D01*
X1089929Y38333D01*
X1089982Y39142D01*
X1090000Y40018D01*
X1095000D01*
X1095018Y39142D01*
D02*
G37*
G36*
X2652099Y38939D02*
X2652288Y38021D01*
X2652512Y37222D01*
X2652769Y36544D01*
X2653060Y35985D01*
X2653384Y35545D01*
X2653743Y35225D01*
X2654135Y35025D01*
X2654561Y34944D01*
X2655021Y34983D01*
X2647674Y33464D01*
X2647670Y33528D01*
X2647567Y34418D01*
X2646952Y39345D01*
D01*
Y39345D01*
X2651943Y39976D01*
X2652099Y38939D01*
D02*
G37*
G36*
X1861182Y38688D02*
X1861665Y37981D01*
X1862161Y37343D01*
X1862668Y36775D01*
X1863188Y36277D01*
X1863719Y35848D01*
X1864262Y35488D01*
X1864817Y35198D01*
X1865384Y34977D01*
X1865963Y34826D01*
X1857482Y32500D01*
X1857522Y32861D01*
X1857509Y33270D01*
X1857443Y33727D01*
X1857323Y34231D01*
X1857149Y34783D01*
X1856922Y35383D01*
X1856308Y36726D01*
X1855479Y38260D01*
X1860710Y39465D01*
X1861182Y38688D01*
D02*
G37*
G36*
X3235109Y555035D02*
X3234722Y555266D01*
X3234279Y555355D01*
X3233781Y555301D01*
X3233226Y555104D01*
X3232615Y554765D01*
X3231948Y554284D01*
X3231226Y553660D01*
X3230447Y552893D01*
X3228722Y550932D01*
X3224535Y553762D01*
X3225452Y554924D01*
X3226874Y556984D01*
X3227378Y557883D01*
X3227745Y558694D01*
X3227974Y559418D01*
X3228065Y560053D01*
X3228018Y560602D01*
X3227834Y561062D01*
X3227513Y561435D01*
X3235109Y555035D01*
D02*
G37*
G36*
X3475061Y546016D02*
X3475011Y546491D01*
X3474860Y546916D01*
X3474608Y547291D01*
X3474256Y547616D01*
X3473803Y547891D01*
X3473250Y548116D01*
X3472596Y548291D01*
X3471841Y548416D01*
X3470986Y548491D01*
X3470031Y548516D01*
Y553516D01*
X3470986Y553541D01*
X3471841Y553616D01*
X3472596Y553741D01*
X3473250Y553916D01*
X3473803Y554141D01*
X3474256Y554416D01*
X3474608Y554741D01*
X3474860Y555116D01*
X3475011Y555541D01*
X3475061Y556016D01*
Y546016D01*
D02*
G37*
G36*
X3350020Y555541D02*
X3350169Y555116D01*
X3350420Y554741D01*
X3350769Y554416D01*
X3351219Y554141D01*
X3351769Y553916D01*
X3352419Y553741D01*
X3353170Y553616D01*
X3354019Y553541D01*
X3354969Y553516D01*
Y548516D01*
X3354019Y548491D01*
X3353170Y548416D01*
X3352419Y548291D01*
X3351769Y548116D01*
X3351219Y547891D01*
X3350769Y547616D01*
X3350420Y547291D01*
X3350169Y546916D01*
X3350020Y546491D01*
X3349969Y546016D01*
Y556016D01*
X3350020Y555541D01*
D02*
G37*
G36*
X3085061Y546016D02*
X3085011Y546491D01*
X3084860Y546916D01*
X3084608Y547291D01*
X3084256Y547616D01*
X3083803Y547891D01*
X3083250Y548116D01*
X3082596Y548291D01*
X3081841Y548416D01*
X3080986Y548491D01*
X3080031Y548516D01*
Y553516D01*
X3080986Y553541D01*
X3081841Y553616D01*
X3082596Y553741D01*
X3083250Y553916D01*
X3083803Y554141D01*
X3084256Y554416D01*
X3084608Y554741D01*
X3084860Y555116D01*
X3085011Y555541D01*
X3085061Y556016D01*
Y546016D01*
D02*
G37*
G36*
X4255061Y545000D02*
X4255011Y545475D01*
X4254860Y545900D01*
X4254608Y546275D01*
X4254256Y546600D01*
X4253803Y546875D01*
X4253250Y547100D01*
X4252596Y547275D01*
X4251841Y547400D01*
X4250986Y547475D01*
X4250031Y547500D01*
Y552500D01*
X4250986Y552525D01*
X4251841Y552600D01*
X4252596Y552725D01*
X4253250Y552900D01*
X4253803Y553125D01*
X4254256Y553400D01*
X4254608Y553725D01*
X4254860Y554100D01*
X4255011Y554525D01*
X4255061Y555000D01*
Y545000D01*
D02*
G37*
G36*
X4130020Y554525D02*
X4130169Y554100D01*
X4130420Y553725D01*
X4130769Y553400D01*
X4131219Y553125D01*
X4131769Y552900D01*
X4132419Y552725D01*
X4133170Y552600D01*
X4134019Y552525D01*
X4134969Y552500D01*
Y547500D01*
X4134019Y547475D01*
X4133170Y547400D01*
X4132419Y547275D01*
X4131769Y547100D01*
X4131219Y546875D01*
X4130769Y546600D01*
X4130420Y546275D01*
X4130169Y545900D01*
X4130020Y545475D01*
X4129969Y545000D01*
Y555000D01*
X4130020Y554525D01*
D02*
G37*
G36*
X3865061Y545000D02*
X3865011Y545475D01*
X3864860Y545900D01*
X3864608Y546275D01*
X3864256Y546600D01*
X3863803Y546875D01*
X3863250Y547100D01*
X3862596Y547275D01*
X3861841Y547400D01*
X3860986Y547475D01*
X3860031Y547500D01*
Y552500D01*
X3860986Y552525D01*
X3861841Y552600D01*
X3862596Y552725D01*
X3863250Y552900D01*
X3863803Y553125D01*
X3864256Y553400D01*
X3864608Y553725D01*
X3864860Y554100D01*
X3865011Y554525D01*
X3865061Y555000D01*
Y545000D01*
D02*
G37*
G36*
X3740020Y554525D02*
X3740169Y554100D01*
X3740420Y553725D01*
X3740769Y553400D01*
X3741219Y553125D01*
X3741769Y552900D01*
X3742419Y552725D01*
X3743170Y552600D01*
X3744019Y552525D01*
X3744969Y552500D01*
Y547500D01*
X3744019Y547475D01*
X3743170Y547400D01*
X3742419Y547275D01*
X3741769Y547100D01*
X3741219Y546875D01*
X3740769Y546600D01*
X3740420Y546275D01*
X3740169Y545900D01*
X3740020Y545475D01*
X3739969Y545000D01*
Y555000D01*
X3740020Y554525D01*
D02*
G37*
G36*
X3410768Y535290D02*
X3414614Y535227D01*
X3414367Y534321D01*
X3414199Y533511D01*
X3414109Y532796D01*
X3414098Y532176D01*
X3414165Y531651D01*
X3414311Y531222D01*
X3414535Y530888D01*
X3414838Y530650D01*
X3415219Y530506D01*
X3415679Y530458D01*
X3410000Y530462D01*
X3404321Y530458D01*
X3404781Y530506D01*
X3405162Y530650D01*
X3405465Y530888D01*
X3405689Y531222D01*
X3405835Y531651D01*
X3405902Y532176D01*
X3405891Y532796D01*
X3405801Y533511D01*
X3405633Y534321D01*
X3405386Y535227D01*
X3409232Y535290D01*
X3409240Y535315D01*
X3410000Y535302D01*
X3410760Y535315D01*
X3410768Y535290D01*
D02*
G37*
G36*
X4200388Y535247D02*
X4205074Y535149D01*
X4204790Y534253D01*
X4204588Y533451D01*
X4204469Y532743D01*
X4204433Y532129D01*
X4204480Y531609D01*
X4204610Y531183D01*
X4204822Y530852D01*
X4205117Y530614D01*
X4205495Y530471D01*
X4205956Y530422D01*
X4200000Y530447D01*
X4194044Y530422D01*
X4194505Y530471D01*
X4194883Y530614D01*
X4195178Y530852D01*
X4195390Y531183D01*
X4195520Y531609D01*
X4195567Y532129D01*
X4195531Y532743D01*
X4195412Y533451D01*
X4195210Y534253D01*
X4194926Y535149D01*
X4199612Y535247D01*
X4199618Y535263D01*
X4200000Y535255D01*
X4200382Y535263D01*
X4200388Y535247D01*
D02*
G37*
G36*
X3810388D02*
X3815074Y535149D01*
X3814790Y534253D01*
X3814588Y533451D01*
X3814469Y532743D01*
X3814433Y532129D01*
X3814480Y531609D01*
X3814610Y531183D01*
X3814822Y530852D01*
X3815117Y530614D01*
X3815495Y530471D01*
X3815956Y530422D01*
X3810000Y530447D01*
X3804044Y530422D01*
X3804505Y530471D01*
X3804883Y530614D01*
X3805178Y530852D01*
X3805390Y531183D01*
X3805520Y531609D01*
X3805567Y532129D01*
X3805531Y532743D01*
X3805412Y533451D01*
X3805210Y534253D01*
X3804926Y535149D01*
X3809612Y535247D01*
X3809618Y535263D01*
X3810000Y535255D01*
X3810382Y535263D01*
X3810388Y535247D01*
D02*
G37*
G36*
X3818357Y499891D02*
X3818503Y499468D01*
X3818761Y499094D01*
X3819133Y498771D01*
X3819619Y498497D01*
X3820217Y498273D01*
X3820930Y498099D01*
X3821755Y497975D01*
X3822694Y497900D01*
X3823746Y497875D01*
Y492875D01*
X3822962Y492850D01*
X3822220Y492777D01*
X3821522Y492654D01*
X3820866Y492482D01*
X3820253Y492261D01*
X3819683Y491991D01*
X3819156Y491671D01*
X3818672Y491302D01*
X3818231Y490885D01*
X3817832Y490418D01*
X3818325Y500363D01*
X3818357Y499891D01*
D02*
G37*
G36*
X3418503Y499515D02*
X3418637Y499092D01*
X3418883Y498719D01*
X3419242Y498396D01*
X3419713Y498122D01*
X3420295Y497898D01*
X3420990Y497724D01*
X3421797Y497599D01*
X3422715Y497525D01*
X3423746Y497500D01*
X3423730Y492500D01*
X3422897Y492479D01*
X3422118Y492417D01*
X3421393Y492313D01*
X3420722Y492167D01*
X3420105Y491979D01*
X3419543Y491750D01*
X3419034Y491480D01*
X3418579Y491167D01*
X3418179Y490814D01*
X3417832Y490418D01*
X3418480Y499988D01*
X3418503Y499515D01*
D02*
G37*
G36*
X4204123Y489489D02*
X4203782Y489353D01*
X4203482Y489126D01*
X4203221Y488809D01*
X4203001Y488401D01*
X4202821Y487902D01*
X4202680Y487313D01*
X4202580Y486632D01*
X4202520Y485862D01*
X4202500Y485000D01*
X4197500D01*
X4197480Y485862D01*
X4197420Y486632D01*
X4197320Y487313D01*
X4197179Y487902D01*
X4196999Y488401D01*
X4196779Y488809D01*
X4196518Y489126D01*
X4196218Y489353D01*
X4195877Y489489D01*
X4195496Y489534D01*
X4204504D01*
X4204123Y489489D01*
D02*
G37*
G36*
X3571145Y456979D02*
X3569705Y455237D01*
X3569120Y454375D01*
X3568625Y453518D01*
X3568220Y452667D01*
X3567905Y451821D01*
X3567680Y450981D01*
X3567545Y450146D01*
X3567537Y450000D01*
X3567545Y449854D01*
X3567680Y449019D01*
X3567905Y448179D01*
X3568220Y447333D01*
X3568625Y446482D01*
X3569120Y445625D01*
X3569705Y444763D01*
X3570380Y443895D01*
X3571145Y443021D01*
X3572000Y442141D01*
X3558000D01*
X3558855Y443021D01*
X3560295Y444763D01*
X3560880Y445625D01*
X3561375Y446482D01*
X3561780Y447333D01*
X3562095Y448179D01*
X3562320Y449019D01*
X3562455Y449854D01*
X3562463Y450000D01*
X3562455Y450146D01*
X3562320Y450981D01*
X3562095Y451821D01*
X3561780Y452667D01*
X3561375Y453518D01*
X3560880Y454375D01*
X3560295Y455237D01*
X3559620Y456105D01*
X3558855Y456979D01*
X3558000Y457859D01*
X3572000D01*
X3571145Y456979D01*
D02*
G37*
G36*
Y426979D02*
X3569705Y425237D01*
X3569120Y424375D01*
X3568625Y423518D01*
X3568220Y422667D01*
X3567905Y421821D01*
X3567680Y420981D01*
X3567545Y420146D01*
X3567537Y420000D01*
X3567545Y419854D01*
X3567680Y419019D01*
X3567905Y418179D01*
X3568220Y417333D01*
X3568625Y416482D01*
X3569120Y415625D01*
X3569705Y414763D01*
X3570380Y413895D01*
X3571145Y413021D01*
X3572000Y412141D01*
X3558000D01*
X3558855Y413021D01*
X3560295Y414763D01*
X3560880Y415625D01*
X3561375Y416482D01*
X3561780Y417333D01*
X3562095Y418179D01*
X3562320Y419019D01*
X3562455Y419854D01*
X3562463Y420000D01*
X3562455Y420146D01*
X3562320Y420981D01*
X3562095Y421821D01*
X3561780Y422667D01*
X3561375Y423518D01*
X3560880Y424375D01*
X3560295Y425237D01*
X3559620Y426105D01*
X3558855Y426979D01*
X3558000Y427859D01*
X3572000D01*
X3571145Y426979D01*
D02*
G37*
G36*
Y396979D02*
X3569705Y395237D01*
X3569120Y394375D01*
X3568625Y393518D01*
X3568220Y392667D01*
X3567905Y391821D01*
X3567680Y390981D01*
X3567545Y390146D01*
X3567537Y390000D01*
X3567545Y389854D01*
X3567680Y389019D01*
X3567905Y388179D01*
X3568220Y387333D01*
X3568625Y386482D01*
X3569120Y385625D01*
X3569705Y384763D01*
X3570380Y383895D01*
X3571145Y383021D01*
X3572000Y382141D01*
X3558000D01*
X3558855Y383021D01*
X3560295Y384763D01*
X3560880Y385625D01*
X3561375Y386482D01*
X3561780Y387333D01*
X3562095Y388179D01*
X3562320Y389019D01*
X3562455Y389854D01*
X3562463Y390000D01*
X3562455Y390146D01*
X3562320Y390981D01*
X3562095Y391821D01*
X3561780Y392667D01*
X3561375Y393518D01*
X3560880Y394375D01*
X3560295Y395237D01*
X3559620Y396105D01*
X3558855Y396979D01*
X3558000Y397859D01*
X3572000D01*
X3571145Y396979D01*
D02*
G37*
G36*
X3566313Y365087D02*
X3565560Y364979D01*
X3562776Y364427D01*
X3562137Y364259D01*
X3560359Y363680D01*
X3559812Y363463D01*
X3555000Y367500D01*
X3555417Y367537D01*
X3555757Y367648D01*
X3556022Y367833D01*
X3556211Y368092D01*
X3556324Y368424D01*
X3556361Y368831D01*
X3556322Y369312D01*
X3556208Y369866D01*
X3556017Y370495D01*
X3555751Y371198D01*
X3566313Y365087D01*
D02*
G37*
G36*
X3557859Y338000D02*
X3556979Y338855D01*
X3555237Y340295D01*
X3554375Y340880D01*
X3553518Y341375D01*
X3552667Y341780D01*
X3551821Y342095D01*
X3550981Y342320D01*
X3550146Y342455D01*
X3549318Y342500D01*
Y347500D01*
X3550146Y347545D01*
X3550981Y347680D01*
X3551821Y347905D01*
X3552667Y348220D01*
X3553518Y348625D01*
X3554375Y349120D01*
X3555237Y349705D01*
X3556106Y350380D01*
X3556979Y351145D01*
X3557859Y352000D01*
X3557859Y338000D01*
D02*
G37*
G36*
X3557859Y308000D02*
X3556979Y308855D01*
X3555237Y310295D01*
X3554375Y310880D01*
X3553518Y311375D01*
X3552667Y311780D01*
X3551821Y312095D01*
X3550981Y312320D01*
X3550146Y312455D01*
X3549318Y312500D01*
Y317500D01*
X3550146Y317545D01*
X3550981Y317680D01*
X3551821Y317905D01*
X3552667Y318220D01*
X3553518Y318625D01*
X3554375Y319120D01*
X3555237Y319705D01*
X3556106Y320380D01*
X3556979Y321145D01*
X3557859Y322000D01*
Y308000D01*
D02*
G37*
G36*
Y278000D02*
X3556979Y278855D01*
X3555237Y280295D01*
X3554375Y280880D01*
X3553518Y281375D01*
X3552667Y281780D01*
X3551821Y282095D01*
X3550981Y282320D01*
X3550146Y282455D01*
X3549318Y282500D01*
Y287500D01*
X3550146Y287545D01*
X3550981Y287680D01*
X3551821Y287905D01*
X3552667Y288220D01*
X3553518Y288625D01*
X3554375Y289120D01*
X3555237Y289705D01*
X3556106Y290380D01*
X3556979Y291145D01*
X3557859Y292000D01*
Y278000D01*
D02*
G37*
G36*
Y248000D02*
X3556979Y248855D01*
X3555237Y250295D01*
X3554375Y250880D01*
X3553518Y251375D01*
X3552667Y251780D01*
X3551821Y252095D01*
X3550981Y252320D01*
X3550146Y252455D01*
X3549318Y252500D01*
Y257500D01*
X3550146Y257545D01*
X3550981Y257680D01*
X3551821Y257905D01*
X3552667Y258220D01*
X3553518Y258625D01*
X3554375Y259120D01*
X3555237Y259705D01*
X3556106Y260380D01*
X3556979Y261145D01*
X3557859Y262000D01*
Y248000D01*
D02*
G37*
G36*
Y218000D02*
X3556979Y218855D01*
X3555237Y220295D01*
X3554375Y220880D01*
X3553518Y221375D01*
X3552667Y221780D01*
X3551821Y222095D01*
X3550981Y222320D01*
X3550146Y222455D01*
X3549318Y222500D01*
Y227500D01*
X3550146Y227545D01*
X3550981Y227680D01*
X3551821Y227905D01*
X3552667Y228220D01*
X3553518Y228625D01*
X3554375Y229120D01*
X3555237Y229705D01*
X3556106Y230380D01*
X3556979Y231145D01*
X3557859Y232000D01*
Y218000D01*
D02*
G37*
G36*
Y188000D02*
X3556979Y188855D01*
X3555237Y190295D01*
X3554375Y190880D01*
X3553518Y191375D01*
X3552667Y191780D01*
X3551821Y192095D01*
X3550981Y192320D01*
X3550146Y192455D01*
X3549318Y192500D01*
Y197500D01*
X3550146Y197545D01*
X3550981Y197680D01*
X3551821Y197905D01*
X3552667Y198220D01*
X3553518Y198625D01*
X3554375Y199120D01*
X3555237Y199705D01*
X3556106Y200380D01*
X3556979Y201145D01*
X3557859Y202000D01*
Y188000D01*
D02*
G37*
G36*
Y158000D02*
X3556979Y158855D01*
X3555237Y160295D01*
X3554375Y160880D01*
X3553518Y161375D01*
X3552667Y161780D01*
X3551821Y162095D01*
X3550981Y162320D01*
X3550146Y162455D01*
X3549318Y162500D01*
Y167500D01*
X3550146Y167545D01*
X3550981Y167680D01*
X3551821Y167905D01*
X3552667Y168220D01*
X3553518Y168625D01*
X3554375Y169120D01*
X3555237Y169705D01*
X3556106Y170380D01*
X3556979Y171145D01*
X3557859Y172000D01*
Y158000D01*
D02*
G37*
G36*
Y128000D02*
X3556979Y128855D01*
X3555237Y130295D01*
X3554375Y130880D01*
X3553518Y131375D01*
X3552667Y131780D01*
X3551821Y132095D01*
X3550981Y132320D01*
X3550146Y132455D01*
X3549318Y132500D01*
Y137500D01*
X3550146Y137545D01*
X3550981Y137680D01*
X3551821Y137905D01*
X3552667Y138220D01*
X3553518Y138625D01*
X3554375Y139120D01*
X3555237Y139705D01*
X3556106Y140380D01*
X3556979Y141145D01*
X3557859Y142000D01*
Y128000D01*
D02*
G37*
G36*
X4002525Y114540D02*
X4002600Y113685D01*
X4002725Y112931D01*
X4002900Y112277D01*
X4003125Y111723D01*
X4003400Y111271D01*
X4003725Y110918D01*
X4004100Y110667D01*
X4004525Y110516D01*
X4005000Y110466D01*
X3995000D01*
X3995475Y110516D01*
X3995900Y110667D01*
X3996275Y110918D01*
X3996600Y111271D01*
X3996875Y111723D01*
X3997100Y112277D01*
X3997275Y112931D01*
X3997400Y113685D01*
X3997475Y114540D01*
X3997500Y115496D01*
X4002500D01*
X4002525Y114540D01*
D02*
G37*
G36*
X3802525D02*
X3802600Y113685D01*
X3802725Y112931D01*
X3802900Y112277D01*
X3803125Y111723D01*
X3803400Y111271D01*
X3803725Y110918D01*
X3804100Y110667D01*
X3804525Y110516D01*
X3805000Y110466D01*
X3795000D01*
X3795475Y110516D01*
X3795900Y110667D01*
X3796275Y110918D01*
X3796600Y111271D01*
X3796875Y111723D01*
X3797100Y112277D01*
X3797275Y112931D01*
X3797400Y113685D01*
X3797475Y114540D01*
X3797500Y115496D01*
X3802500D01*
X3802525Y114540D01*
D02*
G37*
G36*
X3443255Y115431D02*
X3443153Y114488D01*
X3443113Y113644D01*
X3443136Y112899D01*
X3443222Y112253D01*
X3443370Y111707D01*
X3443582Y111260D01*
X3443855Y110913D01*
X3444192Y110664D01*
X3444591Y110515D01*
X3445053Y110466D01*
X3434979D01*
X3435455Y110516D01*
X3435895Y110665D01*
X3436299Y110914D01*
X3436668Y111264D01*
X3437000Y111712D01*
X3437296Y112261D01*
X3437556Y112909D01*
X3437780Y113657D01*
X3437969Y114505D01*
X3438121Y115453D01*
X3443255Y115431D01*
D02*
G37*
G36*
X3212525Y114540D02*
X3212600Y113685D01*
X3212725Y112931D01*
X3212900Y112277D01*
X3213125Y111723D01*
X3213400Y111271D01*
X3213725Y110918D01*
X3214100Y110667D01*
X3214525Y110516D01*
X3215000Y110466D01*
X3205000D01*
X3205475Y110516D01*
X3205900Y110667D01*
X3206275Y110918D01*
X3206600Y111271D01*
X3206875Y111723D01*
X3207100Y112277D01*
X3207275Y112931D01*
X3207400Y113685D01*
X3207475Y114540D01*
X3207500Y115496D01*
X3212500D01*
X3212525Y114540D01*
D02*
G37*
G36*
X4002976Y69503D02*
X4002876Y69409D01*
X4002788Y69254D01*
X4002711Y69035D01*
X4002647Y68755D01*
X4002594Y68412D01*
X4002523Y67539D01*
X4002500Y66416D01*
X3997500D01*
X3997494Y67009D01*
X3997406Y68412D01*
X3997353Y68755D01*
X3997289Y69035D01*
X3997212Y69254D01*
X3997124Y69409D01*
X3997024Y69503D01*
X3996912Y69534D01*
X4003088D01*
X4002976Y69503D01*
D02*
G37*
G36*
X3802976D02*
X3802876Y69409D01*
X3802788Y69254D01*
X3802711Y69035D01*
X3802647Y68755D01*
X3802594Y68412D01*
X3802523Y67539D01*
X3802500Y66416D01*
X3797500D01*
X3797494Y67009D01*
X3797406Y68412D01*
X3797353Y68755D01*
X3797289Y69035D01*
X3797212Y69254D01*
X3797124Y69409D01*
X3797024Y69503D01*
X3796912Y69534D01*
X3803088D01*
X3802976Y69503D01*
D02*
G37*
G36*
X3442976D02*
X3442876Y69409D01*
X3442788Y69254D01*
X3442711Y69035D01*
X3442647Y68755D01*
X3442594Y68412D01*
X3442523Y67539D01*
X3442500Y66416D01*
X3437500D01*
X3437494Y67009D01*
X3437406Y68412D01*
X3437353Y68755D01*
X3437289Y69035D01*
X3437212Y69254D01*
X3437124Y69409D01*
X3437024Y69503D01*
X3436912Y69534D01*
X3443088D01*
X3442976Y69503D01*
D02*
G37*
G36*
X3212976D02*
X3212876Y69409D01*
X3212788Y69254D01*
X3212711Y69035D01*
X3212647Y68755D01*
X3212594Y68412D01*
X3212523Y67539D01*
X3212500Y66416D01*
X3207500D01*
X3207494Y67009D01*
X3207406Y68412D01*
X3207353Y68755D01*
X3207289Y69035D01*
X3207212Y69254D01*
X3207124Y69409D01*
X3207024Y69503D01*
X3206912Y69534D01*
X3213088D01*
X3212976Y69503D01*
D02*
G37*
G36*
X4060061Y36016D02*
X4060011Y36491D01*
X4059860Y36916D01*
X4059608Y37291D01*
X4059256Y37616D01*
X4058803Y37891D01*
X4058250Y38116D01*
X4057596Y38291D01*
X4056841Y38416D01*
X4055986Y38491D01*
X4055031Y38516D01*
Y43516D01*
X4055986Y43541D01*
X4056841Y43616D01*
X4057596Y43741D01*
X4058250Y43916D01*
X4058803Y44141D01*
X4059256Y44416D01*
X4059608Y44741D01*
X4059860Y45116D01*
X4060011Y45541D01*
X4060061Y46016D01*
Y36016D01*
D02*
G37*
G36*
X3935020Y45541D02*
X3935169Y45116D01*
X3935420Y44741D01*
X3935769Y44416D01*
X3936219Y44141D01*
X3936769Y43916D01*
X3937419Y43741D01*
X3938170Y43616D01*
X3939019Y43541D01*
X3939969Y43516D01*
Y38516D01*
X3939019Y38491D01*
X3938170Y38416D01*
X3937419Y38291D01*
X3936769Y38116D01*
X3936219Y37891D01*
X3935769Y37616D01*
X3935420Y37291D01*
X3935169Y36916D01*
X3935020Y36491D01*
X3934969Y36016D01*
Y46016D01*
X3935020Y45541D01*
D02*
G37*
G36*
X3740020D02*
X3740169Y45116D01*
X3740420Y44741D01*
X3740769Y44416D01*
X3741219Y44141D01*
X3741769Y43916D01*
X3742419Y43741D01*
X3743170Y43616D01*
X3744019Y43541D01*
X3744969Y43516D01*
Y38516D01*
X3744019Y38491D01*
X3743170Y38416D01*
X3742419Y38291D01*
X3741769Y38116D01*
X3741219Y37891D01*
X3740769Y37616D01*
X3740420Y37291D01*
X3740169Y36916D01*
X3740020Y36491D01*
X3739969Y36016D01*
Y46016D01*
X3740020Y45541D01*
D02*
G37*
G36*
X3475061Y36016D02*
X3475011Y36491D01*
X3474860Y36916D01*
X3474608Y37291D01*
X3474256Y37616D01*
X3473803Y37891D01*
X3473250Y38116D01*
X3472596Y38291D01*
X3471841Y38416D01*
X3470986Y38491D01*
X3470031Y38516D01*
Y43516D01*
X3470986Y43541D01*
X3471841Y43616D01*
X3472596Y43741D01*
X3473250Y43916D01*
X3473803Y44141D01*
X3474256Y44416D01*
X3474608Y44741D01*
X3474860Y45116D01*
X3475011Y45541D01*
X3475061Y46016D01*
Y36016D01*
D02*
G37*
G36*
X3280061D02*
X3280011Y36491D01*
X3279860Y36916D01*
X3279608Y37291D01*
X3279256Y37616D01*
X3278803Y37891D01*
X3278250Y38116D01*
X3277596Y38291D01*
X3276841Y38416D01*
X3275986Y38491D01*
X3275031Y38516D01*
Y43516D01*
X3275986Y43541D01*
X3276841Y43616D01*
X3277596Y43741D01*
X3278250Y43916D01*
X3278803Y44141D01*
X3279256Y44416D01*
X3279608Y44741D01*
X3279860Y45116D01*
X3280011Y45541D01*
X3280061Y46016D01*
Y36016D01*
D02*
G37*
G36*
X3155020Y45541D02*
X3155169Y45116D01*
X3155420Y44741D01*
X3155769Y44416D01*
X3156219Y44141D01*
X3156769Y43916D01*
X3157419Y43741D01*
X3158170Y43616D01*
X3159019Y43541D01*
X3159969Y43516D01*
Y38516D01*
X3159019Y38491D01*
X3158170Y38416D01*
X3157419Y38291D01*
X3156769Y38116D01*
X3156219Y37891D01*
X3155769Y37616D01*
X3155420Y37291D01*
X3155169Y36916D01*
X3155020Y36491D01*
X3154969Y36016D01*
Y46016D01*
X3155020Y45541D01*
D02*
G37*
G36*
X3433861Y39020D02*
X3434419Y37545D01*
X3434718Y36898D01*
X3435030Y36311D01*
X3435354Y35784D01*
X3435691Y35318D01*
X3436041Y34912D01*
X3436404Y34566D01*
X3436780Y34280D01*
X3427674Y33464D01*
X3427970Y33961D01*
X3428211Y34487D01*
X3428398Y35040D01*
X3428529Y35620D01*
X3428606Y36228D01*
X3428628Y36864D01*
X3428596Y37527D01*
X3428508Y38217D01*
X3428366Y38935D01*
X3428169Y39681D01*
X3433601Y39848D01*
X3433861Y39020D01*
D02*
G37*
G36*
X3817534Y25394D02*
X3817674Y25018D01*
X3817907Y24725D01*
X3818234Y24514D01*
X3818653Y24386D01*
X3819166Y24340D01*
X3819773Y24377D01*
X3820472Y24497D01*
X3821265Y24699D01*
X3822151Y24983D01*
X3822283Y19494D01*
X3821372Y19150D01*
X3820557Y18789D01*
X3819837Y18411D01*
X3819214Y18016D01*
X3818686Y17603D01*
X3818255Y17173D01*
X3817919Y16726D01*
X3817679Y16262D01*
X3817535Y15780D01*
X3817487Y15281D01*
Y25852D01*
X3817534Y25394D01*
D02*
G37*
G36*
X4416780Y555720D02*
X4416404Y555434D01*
X4416041Y555088D01*
X4415691Y554682D01*
X4415354Y554216D01*
X4415030Y553689D01*
X4414718Y553102D01*
X4414419Y552455D01*
X4413861Y550980D01*
X4413601Y550152D01*
X4408169Y550319D01*
X4408366Y551064D01*
X4408508Y551783D01*
X4408596Y552473D01*
X4408628Y553136D01*
X4408606Y553772D01*
X4408529Y554380D01*
X4408398Y554960D01*
X4408211Y555513D01*
X4407970Y556039D01*
X4407674Y556536D01*
X4416780Y555720D01*
D02*
G37*
G36*
X5163942Y555448D02*
X5163640Y555109D01*
X5163372Y554704D01*
X5163141Y554231D01*
X5162945Y553690D01*
X5162784Y553083D01*
X5162660Y552409D01*
X5162571Y551667D01*
X5162518Y550858D01*
X5162500Y549982D01*
X5157500D01*
X5157482Y550858D01*
X5157339Y552409D01*
X5157215Y553083D01*
X5157054Y553690D01*
X5156859Y554231D01*
X5156627Y554704D01*
X5156360Y555109D01*
X5156058Y555448D01*
X5155720Y555720D01*
X5164280D01*
X5163942Y555448D01*
D02*
G37*
G36*
X4781442D02*
X4781139Y555109D01*
X4780872Y554704D01*
X4780641Y554231D01*
X4780445Y553690D01*
X4780285Y553083D01*
X4780160Y552409D01*
X4780071Y551667D01*
X4780018Y550858D01*
X4780000Y549982D01*
X4775000D01*
X4774982Y550858D01*
X4774839Y552409D01*
X4774715Y553083D01*
X4774555Y553690D01*
X4774359Y554231D01*
X4774128Y554704D01*
X4773860Y555109D01*
X4773558Y555448D01*
X4773219Y555720D01*
X4781780D01*
X4781442Y555448D01*
D02*
G37*
G36*
X5425061Y545000D02*
X5425011Y545475D01*
X5424860Y545900D01*
X5424608Y546275D01*
X5424256Y546600D01*
X5423803Y546875D01*
X5423250Y547100D01*
X5422596Y547275D01*
X5421841Y547400D01*
X5420986Y547475D01*
X5420031Y547500D01*
Y552500D01*
X5420986Y552525D01*
X5421841Y552600D01*
X5422596Y552725D01*
X5423250Y552900D01*
X5423803Y553125D01*
X5424256Y553400D01*
X5424608Y553725D01*
X5424860Y554100D01*
X5425010Y554525D01*
X5425061Y555000D01*
Y545000D01*
D02*
G37*
G36*
X5300020Y554525D02*
X5300170Y554100D01*
X5300419Y553725D01*
X5300770Y553400D01*
X5301219Y553125D01*
X5301769Y552900D01*
X5302419Y552725D01*
X5303170Y552600D01*
X5304020Y552525D01*
X5304969Y552500D01*
Y547500D01*
X5304020Y547475D01*
X5303170Y547400D01*
X5302419Y547275D01*
X5301769Y547100D01*
X5301219Y546875D01*
X5300770Y546600D01*
X5300419Y546275D01*
X5300170Y545900D01*
X5300020Y545475D01*
X5299969Y545000D01*
Y555000D01*
X5300020Y554525D01*
D02*
G37*
G36*
X5042801Y545000D02*
X5042751Y545475D01*
X5042600Y545900D01*
X5042348Y546275D01*
X5041996Y546600D01*
X5041543Y546875D01*
X5040990Y547100D01*
X5040336Y547275D01*
X5039582Y547400D01*
X5038726Y547475D01*
X5037770Y547500D01*
Y552500D01*
X5038726Y552525D01*
X5039582Y552600D01*
X5040336Y552725D01*
X5040990Y552900D01*
X5041543Y553125D01*
X5041996Y553400D01*
X5042348Y553725D01*
X5042600Y554100D01*
X5042751Y554525D01*
X5042801Y555000D01*
Y545000D01*
D02*
G37*
G36*
X4920989Y554525D02*
X4921140Y554100D01*
X4921389Y553725D01*
X4921740Y553400D01*
X4922190Y553125D01*
X4922740Y552900D01*
X4923390Y552725D01*
X4924139Y552600D01*
X4924990Y552525D01*
X4925940Y552500D01*
Y547500D01*
X4924990Y547475D01*
X4924139Y547400D01*
X4923390Y547275D01*
X4922740Y547100D01*
X4922190Y546875D01*
X4921740Y546600D01*
X4921389Y546275D01*
X4921140Y545900D01*
X4920989Y545475D01*
X4920940Y545000D01*
Y555000D01*
X4920989Y554525D01*
D02*
G37*
G36*
X4645061Y545000D02*
X4645011Y545475D01*
X4644860Y545900D01*
X4644608Y546275D01*
X4644256Y546600D01*
X4643803Y546875D01*
X4643250Y547100D01*
X4642596Y547275D01*
X4641841Y547400D01*
X4640986Y547475D01*
X4640031Y547500D01*
Y552500D01*
X4640986Y552525D01*
X4641841Y552600D01*
X4642596Y552725D01*
X4643250Y552900D01*
X4643803Y553125D01*
X4644256Y553400D01*
X4644608Y553725D01*
X4644860Y554100D01*
X4645011Y554525D01*
X4645061Y555000D01*
Y545000D01*
D02*
G37*
G36*
X4528340Y554525D02*
X4528489Y554100D01*
X4528740Y553725D01*
X4529089Y553400D01*
X4529539Y553125D01*
X4530089Y552900D01*
X4530739Y552725D01*
X4531490Y552600D01*
X4532339Y552525D01*
X4533289Y552500D01*
Y547500D01*
X4532339Y547475D01*
X4531490Y547400D01*
X4530739Y547275D01*
X4530089Y547100D01*
X4529539Y546875D01*
X4529089Y546600D01*
X4528740Y546275D01*
X4528489Y545900D01*
X4528340Y545475D01*
X4528289Y545000D01*
Y555000D01*
X4528340Y554525D01*
D02*
G37*
G36*
X5360388Y535247D02*
X5365074Y535149D01*
X5364790Y534253D01*
X5364588Y533451D01*
X5364470Y532743D01*
X5364434Y532129D01*
X5364480Y531609D01*
X5364609Y531183D01*
X5364822Y530852D01*
X5365117Y530614D01*
X5365495Y530471D01*
X5365956Y530422D01*
X5360000Y530447D01*
X5354044Y530422D01*
X5354505Y530471D01*
X5354883Y530614D01*
X5355178Y530852D01*
X5355391Y531183D01*
X5355520Y531609D01*
X5355566Y532129D01*
X5355530Y532743D01*
X5355412Y533451D01*
X5355210Y534253D01*
X5354926Y535149D01*
X5359612Y535247D01*
X5359618Y535263D01*
X5360000Y535255D01*
X5360382Y535263D01*
X5360388Y535247D01*
D02*
G37*
G36*
X4980388D02*
X4985074Y535149D01*
X4984790Y534253D01*
X4984588Y533451D01*
X4984469Y532743D01*
X4984433Y532129D01*
X4984480Y531609D01*
X4984610Y531183D01*
X4984822Y530852D01*
X4985117Y530614D01*
X4985495Y530471D01*
X4985956Y530422D01*
X4980000Y530447D01*
X4974044Y530422D01*
X4974505Y530471D01*
X4974883Y530614D01*
X4975178Y530852D01*
X4975390Y531183D01*
X4975520Y531609D01*
X4975567Y532129D01*
X4975531Y532743D01*
X4975412Y533451D01*
X4975210Y534253D01*
X4974926Y535149D01*
X4979612Y535247D01*
X4979618Y535263D01*
X4980000Y535255D01*
X4980382Y535263D01*
X4980388Y535247D01*
D02*
G37*
G36*
X4580388D02*
X4585074Y535149D01*
X4584790Y534253D01*
X4584588Y533451D01*
X4584469Y532743D01*
X4584433Y532129D01*
X4584480Y531609D01*
X4584610Y531183D01*
X4584822Y530852D01*
X4585117Y530614D01*
X4585495Y530471D01*
X4585956Y530422D01*
X4580000Y530447D01*
X4574044Y530422D01*
X4574505Y530471D01*
X4574883Y530614D01*
X4575178Y530852D01*
X4575390Y531183D01*
X4575520Y531609D01*
X4575567Y532129D01*
X4575531Y532743D01*
X4575412Y533451D01*
X4575210Y534253D01*
X4574926Y535149D01*
X4579612Y535247D01*
X4579618Y535263D01*
X4580000Y535255D01*
X4580382Y535263D01*
X4580388Y535247D01*
D02*
G37*
G36*
X5364525Y489484D02*
X5364100Y489333D01*
X5363725Y489081D01*
X5363400Y488729D01*
X5363125Y488277D01*
X5362900Y487723D01*
X5362725Y487069D01*
X5362600Y486315D01*
X5362525Y485460D01*
X5362500Y484504D01*
X5357500D01*
X5357475Y485460D01*
X5357400Y486315D01*
X5357275Y487069D01*
X5357100Y487723D01*
X5356875Y488277D01*
X5356600Y488729D01*
X5356275Y489081D01*
X5355900Y489333D01*
X5355475Y489484D01*
X5355000Y489534D01*
X5365000D01*
X5364525Y489484D01*
D02*
G37*
G36*
X4984525D02*
X4984100Y489333D01*
X4983725Y489081D01*
X4983400Y488729D01*
X4983125Y488277D01*
X4982900Y487723D01*
X4982725Y487069D01*
X4982600Y486315D01*
X4982525Y485460D01*
X4982500Y484504D01*
X4977500D01*
X4977475Y485460D01*
X4977400Y486315D01*
X4977275Y487069D01*
X4977100Y487723D01*
X4976875Y488277D01*
X4976600Y488729D01*
X4976275Y489081D01*
X4975900Y489333D01*
X4975475Y489484D01*
X4975000Y489534D01*
X4985000D01*
X4984525Y489484D01*
D02*
G37*
G36*
X4584525D02*
X4584100Y489333D01*
X4583725Y489081D01*
X4583400Y488729D01*
X4583125Y488277D01*
X4582900Y487723D01*
X4582725Y487069D01*
X4582600Y486315D01*
X4582525Y485460D01*
X4582500Y484504D01*
X4577500D01*
X4577475Y485460D01*
X4577400Y486315D01*
X4577275Y487069D01*
X4577100Y487723D01*
X4576875Y488277D01*
X4576600Y488729D01*
X4576275Y489081D01*
X4575900Y489333D01*
X4575475Y489484D01*
X4575000Y489534D01*
X4585000D01*
X4584525Y489484D01*
D02*
G37*
G36*
X5196145Y454479D02*
X5194705Y452737D01*
X5194120Y451875D01*
X5193625Y451018D01*
X5193220Y450167D01*
X5192905Y449321D01*
X5192680Y448481D01*
X5192545Y447646D01*
X5192537Y447500D01*
X5192545Y447354D01*
X5192680Y446519D01*
X5192905Y445679D01*
X5193220Y444833D01*
X5193625Y443982D01*
X5194120Y443125D01*
X5194705Y442263D01*
X5195380Y441395D01*
X5196145Y440521D01*
X5197000Y439641D01*
X5184468D01*
X5181335Y427508D01*
X5180745Y428456D01*
X5180121Y429305D01*
X5179467Y430054D01*
X5178781Y430703D01*
X5178063Y431252D01*
X5177314Y431701D01*
X5176533Y432051D01*
X5175720Y432300D01*
X5174876Y432450D01*
X5174000Y432500D01*
X5175340Y437500D01*
X5176081Y437536D01*
X5176868Y437643D01*
X5177701Y437821D01*
X5178582Y438070D01*
X5179508Y438391D01*
X5181500Y439246D01*
X5182565Y439780D01*
X5183830Y440495D01*
X5183856Y440521D01*
X5185295Y442263D01*
X5185880Y443125D01*
X5186375Y443982D01*
X5186780Y444833D01*
X5187095Y445679D01*
X5187321Y446519D01*
X5187455Y447354D01*
X5187463Y447500D01*
X5187455Y447646D01*
X5187321Y448481D01*
X5187095Y449321D01*
X5186780Y450167D01*
X5186375Y451018D01*
X5185880Y451875D01*
X5185295Y452737D01*
X5184620Y453605D01*
X5183856Y454479D01*
X5183000Y455359D01*
X5197000D01*
X5196145Y454479D01*
D02*
G37*
G36*
X5180435Y399583D02*
X5180383Y399662D01*
X5180277Y399733D01*
X5180118Y399796D01*
X5179905Y399850D01*
X5179638Y399896D01*
X5179318Y399933D01*
X5178516Y399983D01*
X5177500Y400000D01*
Y405000D01*
X5178035Y405004D01*
X5179638Y405104D01*
X5179905Y405150D01*
X5180118Y405204D01*
X5180277Y405267D01*
X5180383Y405338D01*
X5180435Y405417D01*
Y399583D01*
D02*
G37*
G36*
X5192691Y362869D02*
X5191784Y362607D01*
X5188093Y361298D01*
X5187523Y361035D01*
X5186553Y360509D01*
X5186151Y360246D01*
X5180695Y363024D01*
X5181067Y363207D01*
X5181357Y363476D01*
X5181566Y363832D01*
X5181692Y364275D01*
X5181736Y364805D01*
X5181699Y365421D01*
X5181579Y366125D01*
X5181378Y366915D01*
X5181094Y367791D01*
X5180728Y368755D01*
X5192691Y362869D01*
D02*
G37*
G36*
X5181335Y337508D02*
X5180745Y338456D01*
X5180121Y339305D01*
X5179467Y340054D01*
X5178781Y340703D01*
X5178063Y341252D01*
X5177314Y341701D01*
X5176533Y342051D01*
X5175720Y342300D01*
X5174876Y342450D01*
X5174000Y342500D01*
X5175340Y347500D01*
X5176081Y347536D01*
X5176868Y347643D01*
X5177701Y347821D01*
X5178582Y348070D01*
X5179508Y348391D01*
X5181500Y349246D01*
X5182565Y349780D01*
X5184836Y351063D01*
X5181335Y337508D01*
D02*
G37*
G36*
X5182859Y305500D02*
X5181979Y306355D01*
X5180237Y307795D01*
X5179375Y308380D01*
X5178518Y308875D01*
X5177667Y309280D01*
X5176821Y309595D01*
X5175981Y309820D01*
X5175146Y309955D01*
X5174318Y310000D01*
Y315000D01*
X5175146Y315045D01*
X5175981Y315180D01*
X5176821Y315405D01*
X5177667Y315720D01*
X5178518Y316125D01*
X5179375Y316620D01*
X5180237Y317205D01*
X5181106Y317880D01*
X5181979Y318645D01*
X5182859Y319500D01*
Y305500D01*
D02*
G37*
G36*
X5184503Y274147D02*
X5183387Y274856D01*
X5180278Y276538D01*
X5179321Y276949D01*
X5178404Y277285D01*
X5177526Y277546D01*
X5176688Y277733D01*
X5175889Y277845D01*
X5175130Y277883D01*
X5174008Y282883D01*
X5174878Y282932D01*
X5175722Y283081D01*
X5176540Y283328D01*
X5177332Y283674D01*
X5178098Y284119D01*
X5178839Y284663D01*
X5179553Y285306D01*
X5180240Y286049D01*
X5180903Y286889D01*
X5181539Y287829D01*
X5184503Y274147D01*
D02*
G37*
G36*
X5182859Y245500D02*
X5181979Y246355D01*
X5180237Y247795D01*
X5179375Y248380D01*
X5178518Y248875D01*
X5177667Y249280D01*
X5176821Y249595D01*
X5175981Y249820D01*
X5175146Y249955D01*
X5174318Y250000D01*
Y255000D01*
X5175146Y255045D01*
X5175981Y255180D01*
X5176821Y255405D01*
X5177667Y255720D01*
X5178518Y256125D01*
X5179375Y256620D01*
X5180237Y257205D01*
X5181106Y257880D01*
X5181979Y258645D01*
X5182859Y259500D01*
Y245500D01*
D02*
G37*
G36*
X5190457Y232490D02*
X5180022Y223156D01*
X5180098Y223981D01*
X5180212Y224720D01*
X5180365Y225372D01*
X5180555Y225936D01*
X5180784Y226414D01*
X5181051Y226805D01*
X5181356Y227109D01*
X5181699Y227326D01*
X5182081Y227457D01*
X5182500Y227500D01*
X5182844Y232494D01*
X5190457Y232490D01*
D02*
G37*
G36*
X5186173Y183261D02*
X5184896Y183770D01*
X5181448Y184886D01*
X5180427Y185122D01*
X5179470Y185290D01*
X5178577Y185389D01*
X5177748Y185421D01*
X5176984Y185385D01*
X5176284Y185280D01*
X5174208Y189947D01*
X5175073Y190188D01*
X5175890Y190513D01*
X5176658Y190921D01*
X5177379Y191415D01*
X5178051Y191992D01*
X5178674Y192653D01*
X5179250Y193399D01*
X5179777Y194229D01*
X5180256Y195143D01*
X5180687Y196141D01*
X5186173Y183261D01*
D02*
G37*
G36*
X5198021Y168645D02*
X5199763Y167205D01*
X5200626Y166620D01*
X5201483Y166125D01*
X5202334Y165720D01*
X5203179Y165405D01*
X5204020Y165180D01*
X5204854Y165045D01*
X5205683Y165000D01*
Y160000D01*
X5204854Y159955D01*
X5204020Y159820D01*
X5203179Y159595D01*
X5202334Y159280D01*
X5201483Y158875D01*
X5200626Y158380D01*
X5199763Y157795D01*
X5198895Y157120D01*
X5198021Y156355D01*
X5197142Y155500D01*
Y169500D01*
X5198021Y168645D01*
D02*
G37*
G36*
Y138645D02*
X5199763Y137205D01*
X5200626Y136620D01*
X5201483Y136125D01*
X5202334Y135720D01*
X5203179Y135405D01*
X5204020Y135180D01*
X5204854Y135045D01*
X5205683Y135000D01*
Y130000D01*
X5204854Y129955D01*
X5204020Y129820D01*
X5203179Y129595D01*
X5202334Y129280D01*
X5201483Y128875D01*
X5200626Y128380D01*
X5199763Y127795D01*
X5198895Y127120D01*
X5198021Y126355D01*
X5197142Y125500D01*
Y139500D01*
X5198021Y138645D01*
D02*
G37*
G36*
X5361490Y114445D02*
X5361762Y113610D01*
X5362062Y112873D01*
X5362388Y112234D01*
X5362740Y111694D01*
X5363119Y111252D01*
X5363525Y110908D01*
X5363957Y110662D01*
X5364417Y110515D01*
X5364902Y110466D01*
X5354642D01*
X5355102Y110514D01*
X5355490Y110660D01*
X5355804Y110903D01*
X5356046Y111243D01*
X5356215Y111680D01*
X5356312Y112214D01*
X5356337Y112845D01*
X5356288Y113573D01*
X5356167Y114399D01*
X5355974Y115321D01*
X5361244Y115378D01*
X5361490Y114445D01*
D02*
G37*
G36*
X5122525Y114540D02*
X5122600Y113685D01*
X5122725Y112931D01*
X5122900Y112277D01*
X5123125Y111723D01*
X5123400Y111271D01*
X5123725Y110918D01*
X5124100Y110667D01*
X5124525Y110516D01*
X5125000Y110466D01*
X5115000D01*
X5115475Y110516D01*
X5115900Y110667D01*
X5116275Y110918D01*
X5116600Y111271D01*
X5116875Y111723D01*
X5117100Y112277D01*
X5117275Y112931D01*
X5117400Y113685D01*
X5117475Y114540D01*
X5117500Y115496D01*
X5122500D01*
X5122525Y114540D01*
D02*
G37*
G36*
X4782525D02*
X4782600Y113685D01*
X4782725Y112931D01*
X4782900Y112277D01*
X4783125Y111723D01*
X4783400Y111271D01*
X4783725Y110918D01*
X4784100Y110667D01*
X4784525Y110516D01*
X4785000Y110466D01*
X4775000D01*
X4775475Y110516D01*
X4775900Y110667D01*
X4776275Y110918D01*
X4776600Y111271D01*
X4776875Y111723D01*
X4777100Y112277D01*
X4777275Y112931D01*
X4777400Y113685D01*
X4777475Y114540D01*
X4777500Y115496D01*
X4782500D01*
X4782525Y114540D01*
D02*
G37*
G36*
X4392525D02*
X4392600Y113685D01*
X4392725Y112931D01*
X4392900Y112277D01*
X4393125Y111723D01*
X4393400Y111271D01*
X4393725Y110918D01*
X4394100Y110667D01*
X4394525Y110516D01*
X4395000Y110466D01*
X4385000D01*
X4385475Y110516D01*
X4385900Y110667D01*
X4386275Y110918D01*
X4386600Y111271D01*
X4386875Y111723D01*
X4387100Y112277D01*
X4387275Y112931D01*
X4387400Y113685D01*
X4387475Y114540D01*
X4387500Y115496D01*
X4392500D01*
X4392525Y114540D01*
D02*
G37*
G36*
X5362976Y69503D02*
X5362876Y69409D01*
X5362788Y69254D01*
X5362712Y69035D01*
X5362647Y68755D01*
X5362594Y68412D01*
X5362524Y67539D01*
X5362500Y66416D01*
X5357500D01*
X5357494Y67009D01*
X5357406Y68412D01*
X5357353Y68755D01*
X5357288Y69035D01*
X5357212Y69254D01*
X5357124Y69409D01*
X5357024Y69503D01*
X5356912Y69534D01*
X5363088D01*
X5362976Y69503D01*
D02*
G37*
G36*
X5122976D02*
X5122876Y69409D01*
X5122788Y69254D01*
X5122712Y69035D01*
X5122647Y68755D01*
X5122594Y68412D01*
X5122524Y67539D01*
X5122500Y66416D01*
X5117500D01*
X5117494Y67009D01*
X5117406Y68412D01*
X5117353Y68755D01*
X5117289Y69035D01*
X5117212Y69254D01*
X5117124Y69409D01*
X5117024Y69503D01*
X5116912Y69534D01*
X5123088D01*
X5122976Y69503D01*
D02*
G37*
G36*
X4782976D02*
X4782876Y69409D01*
X4782788Y69254D01*
X4782711Y69035D01*
X4782647Y68755D01*
X4782594Y68412D01*
X4782523Y67539D01*
X4782500Y66416D01*
X4777500D01*
X4777494Y67009D01*
X4777406Y68412D01*
X4777353Y68755D01*
X4777289Y69035D01*
X4777212Y69254D01*
X4777124Y69409D01*
X4777024Y69503D01*
X4776912Y69534D01*
X4783088D01*
X4782976Y69503D01*
D02*
G37*
G36*
X4392976D02*
X4392876Y69409D01*
X4392788Y69254D01*
X4392711Y69035D01*
X4392647Y68755D01*
X4392594Y68412D01*
X4392523Y67539D01*
X4392500Y66416D01*
X4387500D01*
X4387494Y67009D01*
X4387406Y68412D01*
X4387353Y68755D01*
X4387289Y69035D01*
X4387212Y69254D01*
X4387124Y69409D01*
X4387024Y69503D01*
X4386912Y69534D01*
X4393088D01*
X4392976Y69503D01*
D02*
G37*
G36*
X5105011Y48501D02*
X5105137Y48125D01*
X5105345Y47849D01*
X5105638Y47674D01*
X5106014Y47599D01*
X5106473Y47624D01*
X5107016Y47750D01*
X5107643Y47976D01*
X5108352Y48302D01*
X5109146Y48729D01*
X5109420Y42778D01*
X5108575Y42267D01*
X5107818Y41752D01*
X5107151Y41233D01*
X5106572Y40710D01*
X5106082Y40182D01*
X5105682Y39650D01*
X5105370Y39114D01*
X5105148Y38574D01*
X5105014Y38029D01*
X5104969Y37480D01*
Y48978D01*
X5105011Y48501D01*
D02*
G37*
G36*
X5425061Y36016D02*
X5425011Y36491D01*
X5424860Y36916D01*
X5424608Y37291D01*
X5424256Y37616D01*
X5423803Y37891D01*
X5423250Y38116D01*
X5422596Y38291D01*
X5421841Y38416D01*
X5420986Y38491D01*
X5420031Y38516D01*
Y43516D01*
X5420986Y43541D01*
X5421841Y43616D01*
X5422596Y43741D01*
X5423250Y43916D01*
X5423803Y44141D01*
X5424256Y44416D01*
X5424608Y44741D01*
X5424860Y45116D01*
X5425011Y45541D01*
X5425061Y46016D01*
Y36016D01*
D02*
G37*
G36*
X5232141D02*
X5232090Y36491D01*
X5231940Y36916D01*
X5231688Y37291D01*
X5231336Y37616D01*
X5230883Y37891D01*
X5230330Y38116D01*
X5229676Y38291D01*
X5228922Y38416D01*
X5228066Y38491D01*
X5227111Y38516D01*
Y43516D01*
X5228066Y43541D01*
X5228922Y43616D01*
X5229676Y43741D01*
X5230330Y43916D01*
X5230883Y44141D01*
X5231336Y44416D01*
X5231688Y44741D01*
X5231940Y45116D01*
X5232090Y45541D01*
X5232141Y46016D01*
Y36016D01*
D02*
G37*
G36*
X4840061D02*
X4840011Y36491D01*
X4839860Y36916D01*
X4839608Y37291D01*
X4839256Y37616D01*
X4838803Y37891D01*
X4838250Y38116D01*
X4837596Y38291D01*
X4836841Y38416D01*
X4835986Y38491D01*
X4835031Y38516D01*
Y43516D01*
X4835986Y43541D01*
X4836841Y43616D01*
X4837596Y43741D01*
X4838250Y43916D01*
X4838803Y44141D01*
X4839256Y44416D01*
X4839608Y44741D01*
X4839860Y45116D01*
X4840011Y45541D01*
X4840061Y46016D01*
Y36016D01*
D02*
G37*
G36*
X4715020Y45541D02*
X4715169Y45116D01*
X4715420Y44741D01*
X4715769Y44416D01*
X4716219Y44141D01*
X4716769Y43916D01*
X4717419Y43741D01*
X4718170Y43616D01*
X4719019Y43541D01*
X4719969Y43516D01*
Y38516D01*
X4719019Y38491D01*
X4718170Y38416D01*
X4717419Y38291D01*
X4716769Y38116D01*
X4716219Y37891D01*
X4715769Y37616D01*
X4715420Y37291D01*
X4715169Y36916D01*
X4715020Y36491D01*
X4714969Y36016D01*
Y46016D01*
X4715020Y45541D01*
D02*
G37*
G36*
X4450061Y36016D02*
X4450011Y36491D01*
X4449860Y36916D01*
X4449608Y37291D01*
X4449256Y37616D01*
X4448803Y37891D01*
X4448250Y38116D01*
X4447596Y38291D01*
X4446841Y38416D01*
X4445986Y38491D01*
X4445031Y38516D01*
Y43516D01*
X4445986Y43541D01*
X4446841Y43616D01*
X4447596Y43741D01*
X4448250Y43916D01*
X4448803Y44141D01*
X4449256Y44416D01*
X4449608Y44741D01*
X4449860Y45116D01*
X4450011Y45541D01*
X4450061Y46016D01*
Y36016D01*
D02*
G37*
G36*
X4325020Y45541D02*
X4325169Y45116D01*
X4325420Y44741D01*
X4325769Y44416D01*
X4326219Y44141D01*
X4326769Y43916D01*
X4327419Y43741D01*
X4328170Y43616D01*
X4329019Y43541D01*
X4329969Y43516D01*
Y38516D01*
X4329019Y38491D01*
X4328170Y38416D01*
X4327419Y38291D01*
X4326769Y38116D01*
X4326219Y37891D01*
X4325769Y37616D01*
X4325420Y37291D01*
X4325169Y36916D01*
X4325020Y36491D01*
X4324969Y36016D01*
Y46016D01*
X4325020Y45541D01*
D02*
G37*
G36*
X4972518Y39142D02*
X4972660Y37591D01*
X4972785Y36917D01*
X4972945Y36310D01*
X4973141Y35769D01*
X4973372Y35296D01*
X4973639Y34891D01*
X4973942Y34552D01*
X4974280Y34280D01*
X4965719D01*
X4966058Y34552D01*
X4966360Y34891D01*
X4966628Y35296D01*
X4966859Y35769D01*
X4967055Y36310D01*
X4967215Y36917D01*
X4967339Y37591D01*
X4967429Y38333D01*
X4967482Y39142D01*
X4967500Y40018D01*
X4972500D01*
X4972518Y39142D01*
D02*
G37*
G36*
X4577518D02*
X4577660Y37591D01*
X4577785Y36917D01*
X4577945Y36310D01*
X4578141Y35769D01*
X4578372Y35296D01*
X4578639Y34891D01*
X4578942Y34552D01*
X4579280Y34280D01*
X4570719D01*
X4571058Y34552D01*
X4571360Y34891D01*
X4571628Y35296D01*
X4571859Y35769D01*
X4572055Y36310D01*
X4572215Y36917D01*
X4572339Y37591D01*
X4572429Y38333D01*
X4572482Y39142D01*
X4572500Y40018D01*
X4577500D01*
X4577518Y39142D01*
D02*
G37*
D13*
X3705000Y41016D02*
D03*
X5460000Y550000D02*
D03*
X5265000D02*
D03*
X5077740D02*
D03*
X4885970D02*
D03*
X4680000D02*
D03*
X4493320D02*
D03*
X4290000D02*
D03*
X4095000D02*
D03*
X3900000D02*
D03*
X3705000D02*
D03*
X3510000Y551016D02*
D03*
X3315000D02*
D03*
X3120000D02*
D03*
X2925000D02*
D03*
X2730000D02*
D03*
X2535000D02*
D03*
X2340000D02*
D03*
X2145000D02*
D03*
X1950000Y550000D02*
D03*
X1755000D02*
D03*
X1560000D02*
D03*
X1365000D02*
D03*
X1170000D02*
D03*
X975000D02*
D03*
X780000D02*
D03*
X585000D02*
D03*
X390000D02*
D03*
X195000D02*
D03*
X5460000Y41016D02*
D03*
X5267080D02*
D03*
X5070000D02*
D03*
X4875000D02*
D03*
X4680000D02*
D03*
X4485000D02*
D03*
X4290000D02*
D03*
X4095000D02*
D03*
X3900000D02*
D03*
X3510000D02*
D03*
X3315000D02*
D03*
X3120000D02*
D03*
X2925000D02*
D03*
X2730000D02*
D03*
X2535000D02*
D03*
X2340000D02*
D03*
X2145000D02*
D03*
X1950000D02*
D03*
X1755000D02*
D03*
X1560000D02*
D03*
X1365000D02*
D03*
X1170000D02*
D03*
X975000D02*
D03*
X780000D02*
D03*
X585000D02*
D03*
X390000D02*
D03*
X195000D02*
D03*
D14*
X5360000Y104250D02*
D03*
Y75750D02*
D03*
X5120000Y104250D02*
D03*
Y75750D02*
D03*
X4780000Y104250D02*
D03*
Y75750D02*
D03*
X4390000Y104250D02*
D03*
Y75750D02*
D03*
X4000000Y104250D02*
D03*
Y75750D02*
D03*
X3440000Y104250D02*
D03*
Y75750D02*
D03*
X3210000Y104250D02*
D03*
Y75750D02*
D03*
X2830000Y104250D02*
D03*
Y75750D02*
D03*
X2430000Y104250D02*
D03*
Y75750D02*
D03*
X2250000Y104250D02*
D03*
Y75750D02*
D03*
X490000Y104250D02*
D03*
Y75750D02*
D03*
X870000Y104250D02*
D03*
Y75750D02*
D03*
X1860000Y104250D02*
D03*
Y75750D02*
D03*
X5360000Y495750D02*
D03*
Y524250D02*
D03*
X4980000Y495750D02*
D03*
Y524250D02*
D03*
X4580000Y495750D02*
D03*
Y524250D02*
D03*
X4200000Y495750D02*
D03*
Y524250D02*
D03*
X3020000Y495750D02*
D03*
Y524250D02*
D03*
X3410000Y495750D02*
D03*
Y524250D02*
D03*
X2640000Y495750D02*
D03*
Y524250D02*
D03*
X2240000Y495750D02*
D03*
Y524250D02*
D03*
X1850000Y495750D02*
D03*
Y524250D02*
D03*
X1070000Y495750D02*
D03*
Y524250D02*
D03*
X690000Y495750D02*
D03*
Y524250D02*
D03*
X300000Y104250D02*
D03*
Y75750D02*
D03*
Y495750D02*
D03*
Y524250D02*
D03*
X1470000Y495750D02*
D03*
Y524250D02*
D03*
X1270000Y104250D02*
D03*
Y75750D02*
D03*
X3810000Y495750D02*
D03*
Y524250D02*
D03*
X3800000Y104250D02*
D03*
Y75750D02*
D03*
X1660000Y104250D02*
D03*
Y75750D02*
D03*
D22*
X3855000Y380000D02*
G03*
X3860000Y375000I5000J0D01*
G01*
X5177500Y402500D02*
G03*
X5160000Y385000I0J-17500D01*
G01*
X5150000Y375000D02*
G03*
X5160000Y385000I0J10000D01*
G01*
X539250Y104250D02*
G03*
X570000Y135000I0J30750D01*
G01*
X615000Y360000D02*
G03*
X570000Y315000I0J-45000D01*
G01*
X3827900Y435000D02*
G03*
X3800000Y407100I0J-27900D01*
G01*
X3455000Y165000D02*
G03*
X3475000Y185000I0J20000D01*
G01*
X3230000Y165000D02*
G03*
X3210000Y145000I0J-20000D01*
G01*
X3505000Y435000D02*
G03*
X3525000Y455000I0J20000D01*
G01*
X3400000Y435000D02*
G03*
X3380000Y415000I0J-20000D01*
G01*
X1918184Y148424D02*
G03*
X1920117Y151706I-3018J3987D01*
G01*
X1932500Y162500D02*
G03*
X1920119Y151722I0J-12500D01*
G01*
X1907929Y145000D02*
G03*
X1918184Y148424I-0J17071D01*
G01*
X1687350Y161000D02*
G03*
X1660000Y133649I0J-27350D01*
G01*
X1901245Y161000D02*
G03*
X1915000Y180000I-6245J19000D01*
G01*
X565000Y410400D02*
G03*
X590400Y385000I25400J0D01*
G01*
X1917500Y402500D02*
G03*
X1910000Y395000I0J-7500D01*
G01*
X1900000Y385000D02*
G03*
X1910000Y395000I0J10000D01*
G01*
X3485000Y195000D02*
G03*
X3475000Y185000I0J-10000D01*
G01*
X3555000Y365000D02*
G03*
X3565000Y375000I0J10000D01*
G01*
X2265400Y365000D02*
G03*
X2250000Y349600I0J-15400D01*
G01*
X5185578Y189048D02*
G03*
X5120000Y119188I4422J-69861D01*
G01*
X5185578Y189048D02*
G03*
X5190000Y192500I-336J4989D01*
G01*
X1927500D02*
G03*
X1915000Y180000I0J-12500D01*
G01*
X1940000Y222500D02*
G03*
X1927500Y235000I-12500J0D01*
G01*
X1927500Y360000D02*
G03*
X1940000Y372500I0J12500D01*
G01*
X5177500Y360000D02*
G03*
X5190000Y372500I0J12500D01*
G01*
X4016889Y360000D02*
G03*
X4000000Y343111I0J-16889D01*
G01*
X5190000Y222500D02*
G03*
X5182500Y230000I-7500J0D01*
G01*
X1260000Y530000D02*
G03*
X1282500Y552500I0J22500D01*
G01*
X1225000Y555000D02*
G03*
X1250000Y530000I25000J0D01*
G01*
X1672500Y500400D02*
G03*
X1697900Y475000I25400J0D01*
G01*
X1660000Y490000D02*
G03*
X1672500Y502500I0J12500D01*
G01*
X1610000Y505000D02*
G03*
X1625000Y490000I15000J0D01*
G01*
X2037100Y510000D02*
G03*
X2062500Y535400I0J25400D01*
G01*
X1092500Y69600D02*
G03*
X1067100Y95000I-25400J0D01*
G01*
X1482500Y74600D02*
G03*
X1457100Y100000I-25400J0D01*
G01*
X1824250Y104250D02*
G03*
X1810000Y90000I0J-14250D01*
G01*
D02*
G03*
X1790000Y110000I-20000J0D01*
G01*
X1974600Y132500D02*
G03*
X2000000Y157900I0J25400D01*
G01*
X2025400Y510000D02*
G03*
X2000000Y484600I0J-25400D01*
G01*
X1885400Y132500D02*
G03*
X1860000Y107100I0J-25400D01*
G01*
X1810000Y75000D02*
G03*
X1835000Y50000I25000J0D01*
G01*
X1862500Y24600D02*
G03*
X1837100Y50000I-25400J0D01*
G01*
X1622100Y460000D02*
G03*
X1647500Y485400I0J25400D01*
G01*
X315000Y490000D02*
G03*
X309250Y495750I-5750J0D01*
G01*
X690000D02*
G03*
X688166Y493916I0J-1834D01*
G01*
X1070000Y495750D02*
G03*
X1068998Y494748I0J-1002D01*
G01*
X1070000Y285000D02*
G03*
X1072500Y282500I2500J0D01*
G01*
X1850000Y495750D02*
G03*
X1850750Y495000I750J0D01*
G01*
X1940000Y432500D02*
G03*
X1932500Y440000I-7500J0D01*
G01*
X325400D02*
G03*
X300000Y414600I0J-25400D01*
G01*
X895400Y312500D02*
G03*
X870000Y287100I0J-25400D01*
G01*
X1295400Y252500D02*
G03*
X1270000Y227100I0J-25400D01*
G01*
X5220000Y489600D02*
G03*
X5194600Y515000I-25400J0D01*
G01*
X5160000Y540000D02*
G03*
X5185000Y515000I25000J0D01*
G01*
X4777500Y505400D02*
G03*
X4802900Y480000I25400J0D01*
G01*
X4395000Y540000D02*
G03*
X4412500Y557500I0J17500D01*
G01*
X4350000Y565400D02*
G03*
X4375400Y540000I25400J0D01*
G01*
X3860400Y120000D02*
G03*
X3835000Y94600I0J-25400D01*
G01*
X3812500Y20000D02*
G03*
X3835000Y42500I0J22500D01*
G01*
X4590000Y60000D02*
G03*
X4575000Y45000I0J-15000D01*
G01*
X4625000Y34600D02*
G03*
X4599600Y60000I-25400J0D01*
G01*
X4990000Y70000D02*
G03*
X4970000Y50000I0J-20000D01*
G01*
X5025500Y44600D02*
G03*
X5000100Y70000I-25400J0D01*
G01*
X3774600Y41016D02*
G03*
X3777102Y41140I0J25400D01*
G01*
X3784557Y43491D02*
G03*
X3786695Y44080I-227J4995D01*
G01*
X3777102Y41140D02*
G03*
X3779208Y41852I-509J4974D01*
G01*
X3786695Y44080D02*
G03*
X3800000Y66416I-12095J22336D01*
G01*
X3784557Y43491D02*
G03*
X3779208Y41852I443J-10991D01*
G01*
X5334600Y162500D02*
G03*
X5360000Y187900I0J25400D01*
G01*
X4415400Y312500D02*
G03*
X4390000Y287100I0J-25400D01*
G01*
X4805400Y252500D02*
G03*
X4780000Y227100I0J-25400D01*
G01*
X5360000Y107100D02*
G03*
X5334600Y132500I-25400J0D01*
G01*
X3615000Y545000D02*
G03*
X3622500Y552500I0J7500D01*
G01*
X3575000Y555000D02*
G03*
X3585000Y545000I10000J0D01*
G01*
X3210000D02*
G03*
X3232500Y567500I0J22500D01*
G01*
X3180000Y555000D02*
G03*
X3190000Y545000I10000J0D01*
G01*
X2825000Y540000D02*
G03*
X2842500Y557500I0J17500D01*
G01*
X2785000Y555000D02*
G03*
X2800000Y540000I15000J0D01*
G01*
X3432500Y32500D02*
G03*
X3415000Y50000I-17500J0D01*
G01*
X3405000D02*
G03*
X3385000Y30000I0J-20000D01*
G01*
X3042500Y42500D02*
G03*
X3035000Y50000I-7500J0D01*
G01*
X3015000D02*
G03*
X2995000Y30000I0J-20000D01*
G01*
X2650000Y35000D02*
G03*
X2630000Y55000I-20000J0D01*
G01*
X2620400D02*
G03*
X2595000Y29600I0J-25400D01*
G01*
X3410000Y495750D02*
G03*
X3410750Y495000I750J0D01*
G01*
X3505000Y175000D02*
G03*
X3515000Y165000I10000J0D01*
G01*
X2455400Y315000D02*
G03*
X2430000Y289600I0J-25400D01*
G01*
X2855400Y255000D02*
G03*
X2830000Y229600I0J-25400D01*
G01*
X3465400Y135000D02*
G03*
X3440000Y109600I0J-25400D01*
G01*
X2228584Y45000D02*
G03*
X2250000Y66416I0J21416D01*
G01*
X1860000D02*
G03*
X1885400Y41016I25400J0D01*
G01*
X274600D02*
G03*
X300000Y66416I0J25400D01*
G01*
X464600Y41016D02*
G03*
X490000Y66416I0J25400D01*
G01*
D02*
G03*
X515400Y41016I25400J0D01*
G01*
X844600D02*
G03*
X870000Y66416I0J25400D01*
G01*
D02*
G03*
X895400Y41016I25400J0D01*
G01*
X1244600D02*
G03*
X1270000Y66416I0J25400D01*
G01*
D02*
G03*
X1295400Y41016I25400J0D01*
G01*
X1634600D02*
G03*
X1660000Y66416I0J25400D01*
G01*
D02*
G03*
X1685400Y41016I25400J0D01*
G01*
X2404600D02*
G03*
X2430000Y66416I0J25400D01*
G01*
D02*
G03*
X2455400Y41016I25400J0D01*
G01*
X2804600D02*
G03*
X2830000Y66416I0J25400D01*
G01*
D02*
G03*
X2855400Y41016I25400J0D01*
G01*
X3210000Y66416D02*
G03*
X3235400Y41016I25400J0D01*
G01*
X3184600D02*
G03*
X3210000Y66416I0J25400D01*
G01*
X3440000D02*
G03*
X3465400Y41016I25400J0D01*
G01*
X3974600D02*
G03*
X4000000Y66416I0J25400D01*
G01*
D02*
G03*
X4025400Y41016I25400J0D01*
G01*
X4364600D02*
G03*
X4390000Y66416I0J25400D01*
G01*
D02*
G03*
X4415400Y41016I25400J0D01*
G01*
X4754600D02*
G03*
X4780000Y66416I0J25400D01*
G01*
D02*
G03*
X4805400Y41016I25400J0D01*
G01*
X5120000Y66416D02*
G03*
X5145400Y41016I25400J0D01*
G01*
X5094600D02*
G03*
X5120000Y66416I0J25400D01*
G01*
X5360000D02*
G03*
X5385400Y41016I25400J0D01*
G01*
Y550000D02*
G03*
X5360000Y524600I0J-25400D01*
G01*
D02*
G03*
X5334600Y550000I-25400J0D01*
G01*
X5005400D02*
G03*
X4980000Y524600I0J-25400D01*
G01*
D02*
G03*
X4954600Y550000I-25400J0D01*
G01*
X4605400D02*
G03*
X4580000Y524600I0J-25400D01*
G01*
D02*
G03*
X4554600Y550000I-25400J0D01*
G01*
X4225400D02*
G03*
X4200000Y524600I0J-25400D01*
G01*
D02*
G03*
X4174600Y550000I-25400J0D01*
G01*
X3835400D02*
G03*
X3810000Y524600I0J-25400D01*
G01*
D02*
G03*
X3784600Y550000I-25400J0D01*
G01*
X3410000Y525616D02*
G03*
X3384600Y551016I-25400J0D01*
G01*
X3435400D02*
G03*
X3410000Y525616I0J-25400D01*
G01*
X3045400Y551016D02*
G03*
X3020000Y525616I0J-25400D01*
G01*
D02*
G03*
X2994600Y551016I-25400J0D01*
G01*
X2640000Y525616D02*
G03*
X2614600Y551016I-25400J0D01*
G01*
X2665400D02*
G03*
X2640000Y525616I0J-25400D01*
G01*
X2240000D02*
G03*
X2214600Y551016I-25400J0D01*
G01*
X2265400D02*
G03*
X2240000Y525616I0J-25400D01*
G01*
X1875400Y550000D02*
G03*
X1850000Y524600I0J-25400D01*
G01*
D02*
G03*
X1824600Y550000I-25400J0D01*
G01*
X1495400D02*
G03*
X1470000Y524600I0J-25400D01*
G01*
D02*
G03*
X1444600Y550000I-25400J0D01*
G01*
X1095400D02*
G03*
X1070000Y524600I0J-25400D01*
G01*
D02*
G03*
X1044600Y550000I-25400J0D01*
G01*
X715400D02*
G03*
X690000Y524600I0J-25400D01*
G01*
D02*
G03*
X664600Y550000I-25400J0D01*
G01*
X325400D02*
G03*
X300000Y524600I0J-25400D01*
G01*
D02*
G03*
X274600Y550000I-25400J0D01*
G01*
X3865000Y375000D02*
X5150000Y375000D01*
X3860000Y375000D02*
X3865000D01*
X5177500Y402500D02*
X5190000D01*
X3829625Y495375D02*
X3830000Y495000D01*
X3810000Y495750D02*
X3810375Y495375D01*
X3829625D01*
X570000Y135000D02*
Y315000D01*
X490000Y104250D02*
X539250D01*
X3827900Y435000D02*
X5187500D01*
X4580000Y455000D02*
Y495750D01*
X5187500Y435000D02*
X5190000Y432500D01*
Y435000D02*
Y462500D01*
Y432500D02*
Y435000D01*
X3230000Y165000D02*
X3455000D01*
X3525000Y455000D02*
Y470000D01*
X3400000Y435000D02*
X3505000D01*
X2240000Y450000D02*
Y495750D01*
X1870000Y145000D02*
X1907906D01*
X1907929Y145000D01*
X1920117Y151706D02*
X1920119Y151722D01*
X1932500Y162500D02*
X1940000D01*
X1687350Y161000D02*
X1901245D01*
X1940000Y158663D02*
Y162500D01*
X1660000Y104250D02*
Y133649D01*
X565000Y410400D02*
Y425000D01*
X590400Y385000D02*
X1900000D01*
X1917500Y402500D02*
X1940000D01*
X3485000Y195000D02*
X3565000D01*
X3210000Y104250D02*
Y145000D01*
X2265400Y365000D02*
X3555000D01*
X3565000Y345000D02*
X3565000Y345000D01*
X3400000Y345000D02*
X3565000D01*
X5120000Y104250D02*
Y119188D01*
X1927500Y192500D02*
X1940000D01*
X1465000Y235000D02*
X1927500D01*
X615000Y360000D02*
X1927500D01*
X690000Y345000D02*
X1937500D01*
X1940000Y342500D01*
X5035383Y280383D02*
X5187883D01*
X5035000Y280000D02*
X5035383Y280383D01*
X5187883D02*
X5190000Y282500D01*
X4016889Y360000D02*
X5177500D01*
X4200000Y345000D02*
X5187500D01*
X5190000Y342500D01*
X4000000Y104250D02*
Y343111D01*
X5120000Y230000D02*
X5182500D01*
X5187500Y225000D02*
X5190000Y222500D01*
X1250000Y530000D02*
X1260000D01*
X1282500Y552500D02*
Y570000D01*
X1672500Y500400D02*
Y502500D01*
Y570000D01*
X1610000Y505000D02*
Y530000D01*
X1697900Y475000D02*
X1895000D01*
X1045000Y95000D02*
X1067100D01*
X1092500Y20000D02*
Y69600D01*
X1430000Y100000D02*
X1457100D01*
X1482500Y20000D02*
Y74600D01*
X1755000Y110000D02*
X1790000D01*
X1810000Y75000D02*
Y90000D01*
X1885400Y132500D02*
X1940000D01*
X1974600D01*
X2025400Y510000D02*
X2037100D01*
X2000000Y157900D02*
Y484600D01*
X2062500Y535400D02*
Y570000D01*
X1860000Y104250D02*
Y107100D01*
X1824250Y104250D02*
X1860000D01*
X1835000Y50000D02*
X1837100D01*
X1862500Y20000D02*
Y24600D01*
X400000Y460000D02*
X1622100D01*
X1647500Y485400D02*
Y570000D01*
X314459Y490000D02*
X315000D01*
X300000Y495750D02*
X309250D01*
X300000D02*
X303364Y492386D01*
X688166Y482414D02*
Y493916D01*
X1068998Y484030D02*
Y494748D01*
X1072500Y282500D02*
X1940000D01*
X1470000Y485000D02*
Y495750D01*
X1850750Y495000D02*
X1865000D01*
X1940000Y432500D02*
Y462500D01*
X325400Y440000D02*
X1932500D01*
X300000Y104250D02*
Y414600D01*
X870000Y104250D02*
Y287100D01*
X895400Y312500D02*
X1940000D01*
X1270000Y104250D02*
Y227100D01*
X1295400Y252500D02*
X1940000D01*
X5190000Y132500D02*
X5334600D01*
X5185000Y515000D02*
X5194600D01*
X5160000Y540000D02*
Y570000D01*
X5220000Y185000D02*
Y489600D01*
X4802900Y480000D02*
X4915000D01*
X4777500Y505400D02*
Y570000D01*
X4412500Y557500D02*
Y570000D01*
X4375400Y540000D02*
X4395000D01*
X4350000Y565400D02*
Y570000D01*
X3835000Y42500D02*
Y94600D01*
X3860400Y120000D02*
X3915000D01*
X4575000Y20000D02*
Y45000D01*
X4590000Y60000D02*
X4599600D01*
X4625000Y20000D02*
Y34600D01*
X4970000Y20000D02*
Y50000D01*
X4990000Y70000D02*
X5000100D01*
X5025500Y20000D02*
Y44600D01*
X3705000Y41016D02*
X3774600D01*
X3800000Y66416D02*
Y75750D01*
X4200000Y485000D02*
Y495750D01*
X4980000Y455000D02*
Y495750D01*
X5190000Y162500D02*
X5334600D01*
X5360000Y187900D02*
Y495750D01*
X3800000Y104250D02*
Y407100D01*
X4390000Y104250D02*
Y287100D01*
X4415400Y312500D02*
X5190000D01*
X4780000Y104250D02*
Y227100D01*
X4805400Y252500D02*
X5190000D01*
X5360000Y104250D02*
Y107100D01*
X3585000Y545000D02*
X3615000D01*
X3622500Y552500D02*
Y570000D01*
X3190000Y545000D02*
X3210000D01*
X3232500Y567500D02*
Y570000D01*
X2842500Y557500D02*
Y570000D01*
X2800000Y540000D02*
X2825000D01*
X3465400Y135000D02*
X3565000D01*
X3432500Y20000D02*
Y32500D01*
X3405000Y50000D02*
X3415000D01*
X3042500Y20000D02*
Y42500D01*
X3015000Y50000D02*
X3035000D01*
X2650000Y30000D02*
Y35000D01*
X2620400Y55000D02*
X2630000D01*
X2595000Y25000D02*
Y29600D01*
X3020000Y475000D02*
Y495750D01*
X2640000Y475000D02*
Y495750D01*
X3445000Y285000D02*
Y285000D01*
X3565000D01*
X3475000Y225000D02*
X3565000D01*
X3410750Y495000D02*
X3445000D01*
X3515000Y165000D02*
X3565000D01*
Y435000D02*
Y465000D01*
Y405000D02*
Y435000D01*
Y375000D02*
Y405000D01*
X2250000Y104250D02*
Y349600D01*
X2430000Y104250D02*
Y289600D01*
X2455400Y315000D02*
X3565000D01*
X2830000Y104250D02*
Y229600D01*
X2855400Y255000D02*
X3565000D01*
X3440000Y104250D02*
Y109600D01*
X2145000Y41016D02*
X2148984Y45000D01*
X2228584D01*
X1860000Y66416D02*
Y75750D01*
X1885400Y41016D02*
X1950000D01*
X1856383Y72590D02*
Y72625D01*
X1856367Y73633D02*
X1856383Y72625D01*
X195000Y41016D02*
X274600D01*
X300000Y66416D02*
Y75750D01*
X490000Y66416D02*
Y75750D01*
X515400Y41016D02*
X585000D01*
X390000D02*
X464600D01*
X870000Y66416D02*
Y75750D01*
X895400Y41016D02*
X975000D01*
X780000D02*
X844600D01*
X1270000Y66416D02*
Y75750D01*
X1295400Y41016D02*
X1365000D01*
X1170000D02*
X1244600D01*
X1660000Y66416D02*
Y75750D01*
X1685400Y41016D02*
X1755000D01*
X1560000D02*
X1634600D01*
X2250000Y66416D02*
Y75750D01*
X2430000Y66416D02*
Y75750D01*
X2455400Y41016D02*
X2535000D01*
X2340000D02*
X2404600D01*
X2830000Y66416D02*
Y75750D01*
X2855400Y41016D02*
X2925000D01*
X2730000D02*
X2804600D01*
X3210000Y66416D02*
Y75750D01*
X3120000Y41016D02*
X3184600D01*
X3235400D02*
X3315000D01*
X3440000Y66416D02*
Y75750D01*
X3465400Y41016D02*
X3510000D01*
X4000000Y66416D02*
Y75750D01*
X4025400Y41016D02*
X4095000D01*
X3900000D02*
X3974600D01*
X4390000Y66416D02*
Y75750D01*
X4415400Y41016D02*
X4485000D01*
X4290000D02*
X4364600D01*
X4780000Y66416D02*
Y75750D01*
X4805400Y41016D02*
X4875000D01*
X4680000D02*
X4754600D01*
X5120000Y66416D02*
Y75750D01*
X5070000Y41016D02*
X5094600D01*
X5145400D02*
X5267080D01*
X5360000Y66416D02*
Y75750D01*
X5385400Y41016D02*
X5460000D01*
X5385400Y550000D02*
X5460000D01*
X5360000Y524250D02*
Y524600D01*
X5265000Y550000D02*
X5334600D01*
X5005400D02*
X5077740D01*
X4980000Y524250D02*
Y524600D01*
X4885970Y550000D02*
X4954600D01*
X4605400D02*
X4680000D01*
X4580000Y524250D02*
Y524600D01*
X4493320Y550000D02*
X4554600D01*
X4225400D02*
X4290000D01*
X4200000Y524250D02*
Y524600D01*
X4095000Y550000D02*
X4174600D01*
X3835400D02*
X3900000D01*
X3810000Y524250D02*
Y524600D01*
X3705000Y550000D02*
X3784600D01*
X3435400Y551016D02*
X3510000D01*
X3410000Y524250D02*
Y525616D01*
X3315000Y551016D02*
X3384600D01*
X3045400D02*
X3120000D01*
X3020000Y524250D02*
Y525616D01*
X2925000Y551016D02*
X2994600D01*
X2665400D02*
X2730000D01*
X2640000Y524250D02*
Y525616D01*
X2535000Y551016D02*
X2614600D01*
X2265400D02*
X2340000D01*
X2240000Y524250D02*
Y525616D01*
X2145000Y551016D02*
X2214600D01*
X1875400Y550000D02*
X1950000D01*
X1850000Y524250D02*
Y524600D01*
X1755000Y550000D02*
X1824600D01*
X1495400D02*
X1560000D01*
X1470000Y524250D02*
Y524600D01*
X1365000Y550000D02*
X1444600D01*
X1095400D02*
X1170000D01*
X1070000Y524250D02*
Y524600D01*
X975000Y550000D02*
X1044600D01*
X715400D02*
X780000D01*
X690000Y524250D02*
Y524600D01*
X585000Y550000D02*
X664600D01*
X325400D02*
X390000D01*
X300000Y524250D02*
Y524600D01*
X195000Y550000D02*
X274600D01*
D23*
X3855000Y190000D02*
D03*
Y410000D02*
D03*
X1795000Y190000D02*
D03*
Y410000D02*
D03*
X595000Y190000D02*
D03*
Y410000D02*
D03*
X3425000D02*
D03*
X5055000D02*
D03*
X2225000D02*
D03*
X3425000Y190000D02*
D03*
X5055000D02*
D03*
X2225000D02*
D03*
D24*
X3017500Y20000D02*
D03*
X3042500D02*
D03*
X3407500D02*
D03*
X3432500D02*
D03*
X3597500Y570000D02*
D03*
X3622500D02*
D03*
X1257500D02*
D03*
X1282500D02*
D03*
X1457500Y20000D02*
D03*
X1482500D02*
D03*
X4387500Y570000D02*
D03*
X4187500Y20000D02*
D03*
X3987500Y570000D02*
D03*
X3787500Y20000D02*
D03*
X702500D02*
D03*
X677500D02*
D03*
X892500Y570000D02*
D03*
X867500D02*
D03*
X1092500Y20000D02*
D03*
X1067500D02*
D03*
X2817500Y570000D02*
D03*
X2627500Y20000D02*
D03*
X2427500Y570000D02*
D03*
X2237500Y20000D02*
D03*
X4777500Y570000D02*
D03*
X4802500D02*
D03*
X4012500D02*
D03*
X4412500D02*
D03*
X2452500D02*
D03*
X2062500D02*
D03*
X2037500D02*
D03*
X3232500D02*
D03*
X3207500D02*
D03*
X2842500D02*
D03*
X1672500D02*
D03*
X1647500D02*
D03*
X4575000Y20000D02*
D03*
X4600000D02*
D03*
X4212500D02*
D03*
X3812500D02*
D03*
X2652500D02*
D03*
X1862500D02*
D03*
X1837500D02*
D03*
X2262500D02*
D03*
X4970000D02*
D03*
X4995000D02*
D03*
X5160000Y570000D02*
D03*
X5185000D02*
D03*
D25*
X3565000Y465000D02*
D03*
Y435000D02*
D03*
Y405000D02*
D03*
Y375000D02*
D03*
Y345000D02*
D03*
Y315000D02*
D03*
Y285000D02*
D03*
Y255000D02*
D03*
Y225000D02*
D03*
Y195000D02*
D03*
Y135000D02*
D03*
Y165000D02*
D03*
X460000Y180000D02*
D03*
Y210000D02*
D03*
Y240000D02*
D03*
Y270000D02*
D03*
Y300000D02*
D03*
Y330000D02*
D03*
Y390000D02*
D03*
Y360000D02*
D03*
X2085000Y195000D02*
D03*
Y225000D02*
D03*
Y255000D02*
D03*
Y285000D02*
D03*
Y315000D02*
D03*
Y345000D02*
D03*
Y405000D02*
D03*
Y375000D02*
D03*
X1940000Y162500D02*
D03*
Y132500D02*
D03*
Y192500D02*
D03*
Y222500D02*
D03*
Y252500D02*
D03*
Y282500D02*
D03*
Y312500D02*
D03*
Y342500D02*
D03*
Y372500D02*
D03*
Y402500D02*
D03*
Y432500D02*
D03*
Y462500D02*
D03*
X3710000Y190000D02*
D03*
Y220000D02*
D03*
Y250000D02*
D03*
Y280000D02*
D03*
Y310000D02*
D03*
Y340000D02*
D03*
Y400000D02*
D03*
Y370000D02*
D03*
X5190000Y162500D02*
D03*
Y132500D02*
D03*
Y192500D02*
D03*
Y222500D02*
D03*
Y252500D02*
D03*
Y282500D02*
D03*
Y312500D02*
D03*
Y342500D02*
D03*
Y372500D02*
D03*
Y402500D02*
D03*
Y432500D02*
D03*
Y462500D02*
D03*
D26*
X3855000Y380000D02*
D03*
X3830000Y495000D02*
D03*
X4580000Y455000D02*
D03*
X2240000Y450000D02*
D03*
X1870000Y145000D02*
D03*
X3400000Y345000D02*
D03*
X3380000Y415000D02*
D03*
X1465000Y235000D02*
D03*
X565000Y425000D02*
D03*
X5035000Y280000D02*
D03*
X4200000Y345000D02*
D03*
X5120000Y230000D02*
D03*
X680000Y30000D02*
D03*
Y10000D02*
D03*
X700000D02*
D03*
Y30000D02*
D03*
X1070000D02*
D03*
Y10000D02*
D03*
X1090000D02*
D03*
Y30000D02*
D03*
X1480000Y10000D02*
D03*
X1460000D02*
D03*
Y30000D02*
D03*
X1480000D02*
D03*
X1860000D02*
D03*
Y10000D02*
D03*
X1840000D02*
D03*
Y30000D02*
D03*
X2630000D02*
D03*
X3020000D02*
D03*
X3040000D02*
D03*
X3410000D02*
D03*
X3430000D02*
D03*
X4210000D02*
D03*
X4970000D02*
D03*
X4995000Y10000D02*
D03*
Y30000D02*
D03*
X5160000Y560000D02*
D03*
X4800000D02*
D03*
X4780000D02*
D03*
X4410000D02*
D03*
X3620000D02*
D03*
X3600000D02*
D03*
X3230000D02*
D03*
X3210000D02*
D03*
X2820000D02*
D03*
X2840000D02*
D03*
X2060000Y580000D02*
D03*
Y560000D02*
D03*
X2040000D02*
D03*
Y580000D02*
D03*
X1650000D02*
D03*
Y560000D02*
D03*
X1670000D02*
D03*
Y580000D02*
D03*
X1280000D02*
D03*
Y560000D02*
D03*
X1260000D02*
D03*
Y580000D02*
D03*
X890000D02*
D03*
Y560000D02*
D03*
X870000D02*
D03*
Y580000D02*
D03*
X1225000Y555000D02*
D03*
X1660000Y490000D02*
D03*
X1625000D02*
D03*
X1610000Y530000D02*
D03*
X1895000Y475000D02*
D03*
X1045000Y95000D02*
D03*
X1430000Y100000D02*
D03*
X1755000Y110000D02*
D03*
X400000Y460000D02*
D03*
X315000Y490000D02*
D03*
X688166Y482414D02*
D03*
X690000Y345000D02*
D03*
X1068998Y484030D02*
D03*
X1070000Y285000D02*
D03*
X1470000Y485000D02*
D03*
X1865000Y495000D02*
D03*
X5220000Y185000D02*
D03*
X4915000Y480000D02*
D03*
X4350000Y570000D02*
D03*
X3915000Y120000D02*
D03*
X4600000Y30000D02*
D03*
X4575000D02*
D03*
X4625000Y20000D02*
D03*
X5025500D02*
D03*
X5185000Y580000D02*
D03*
Y560000D02*
D03*
X4575000Y10000D02*
D03*
X4200000Y485000D02*
D03*
X4980000Y455000D02*
D03*
X3525000Y470000D02*
D03*
X3575000Y555000D02*
D03*
X3180000D02*
D03*
X2785000D02*
D03*
X3385000Y30000D02*
D03*
X2995000D02*
D03*
X2595000Y25000D02*
D03*
X3040000Y10000D02*
D03*
X3020000D02*
D03*
X3430000D02*
D03*
X3410000D02*
D03*
X3020000Y475000D02*
D03*
X2640000D02*
D03*
X3445000Y285000D02*
D03*
X3475000Y225000D02*
D03*
X3445000Y495000D02*
D03*
X3505000Y175000D02*
D03*
X3790000Y30000D02*
D03*
Y10000D02*
D03*
X4190000D02*
D03*
Y30000D02*
D03*
X3990000Y560000D02*
D03*
X4390000Y580000D02*
D03*
Y560000D02*
D03*
X3990000Y580000D02*
D03*
X2450000Y560000D02*
D03*
Y580000D02*
D03*
X2840000D02*
D03*
X3230000D02*
D03*
X3210000D02*
D03*
X3600000D02*
D03*
X3620000D02*
D03*
X4010000D02*
D03*
Y560000D02*
D03*
X4410000Y580000D02*
D03*
X4800000D02*
D03*
X4780000D02*
D03*
X5160000D02*
D03*
X4970000Y10000D02*
D03*
X4600000D02*
D03*
X4210000D02*
D03*
X3810000Y30000D02*
D03*
Y10000D02*
D03*
X2650000Y30000D02*
D03*
Y10000D02*
D03*
X2260000Y30000D02*
D03*
Y10000D02*
D03*
X2240000Y30000D02*
D03*
Y10000D02*
D03*
X2630000D02*
D03*
X2820000Y580000D02*
D03*
X2430000D02*
D03*
Y560000D02*
D03*
D27*
X5171000Y491000D02*
D03*
X5171000Y101000D02*
D03*
X3729000Y161500D02*
D03*
X3729000Y431500D02*
D03*
X1921000Y491000D02*
D03*
X1921000Y101000D02*
D03*
X2104000Y166500D02*
D03*
X2104000Y436500D02*
D03*
X479000Y151500D02*
D03*
X479000Y421500D02*
D03*
X3546000Y103500D02*
D03*
X3546000Y493500D02*
D03*
M02*
