G04*
G04 #@! TF.GenerationSoftware,Altium Limited,Altium Designer,22.11.1 (43)*
G04*
G04 Layer_Color=8421504*
%FSLAX44Y44*%
%MOMM*%
G71*
G04*
G04 #@! TF.SameCoordinates,7FEAD27C-78B8-4A64-BA1D-56F7E302289E*
G04*
G04*
G04 #@! TF.FilePolarity,Positive*
G04*
G01*
G75*
%ADD13R,7.0000X8.0000*%
G04:AMPARAMS|DCode=14|XSize=1.75mm|YSize=1.25mm|CornerRadius=0.3125mm|HoleSize=0mm|Usage=FLASHONLY|Rotation=180.000|XOffset=0mm|YOffset=0mm|HoleType=Round|Shape=RoundedRectangle|*
%AMROUNDEDRECTD14*
21,1,1.7500,0.6250,0,0,180.0*
21,1,1.1250,1.2500,0,0,180.0*
1,1,0.6250,-0.5625,0.3125*
1,1,0.6250,0.5625,0.3125*
1,1,0.6250,0.5625,-0.3125*
1,1,0.6250,-0.5625,-0.3125*
%
%ADD14ROUNDEDRECTD14*%
D13*
X3705000Y41016D02*
D03*
X5460000Y550000D02*
D03*
X5265000D02*
D03*
X5077740D02*
D03*
X4885970D02*
D03*
X4680000D02*
D03*
X4493320D02*
D03*
X4290000D02*
D03*
X4095000D02*
D03*
X3900000D02*
D03*
X3705000D02*
D03*
X3510000Y551016D02*
D03*
X3315000D02*
D03*
X3120000D02*
D03*
X2925000D02*
D03*
X2730000D02*
D03*
X2535000D02*
D03*
X2340000D02*
D03*
X2145000D02*
D03*
X1950000Y550000D02*
D03*
X1755000D02*
D03*
X1560000D02*
D03*
X1365000D02*
D03*
X1170000D02*
D03*
X975000D02*
D03*
X780000D02*
D03*
X585000D02*
D03*
X390000D02*
D03*
X195000D02*
D03*
X5460000Y41016D02*
D03*
X5267080D02*
D03*
X5070000D02*
D03*
X4875000D02*
D03*
X4680000D02*
D03*
X4485000D02*
D03*
X4290000D02*
D03*
X4095000D02*
D03*
X3900000D02*
D03*
X3510000D02*
D03*
X3315000D02*
D03*
X3120000D02*
D03*
X2925000D02*
D03*
X2730000D02*
D03*
X2535000D02*
D03*
X2340000D02*
D03*
X2145000D02*
D03*
X1950000D02*
D03*
X1755000D02*
D03*
X1560000D02*
D03*
X1365000D02*
D03*
X1170000D02*
D03*
X975000D02*
D03*
X780000D02*
D03*
X585000D02*
D03*
X390000D02*
D03*
X195000D02*
D03*
D14*
X5360000Y104250D02*
D03*
Y75750D02*
D03*
X5120000Y104250D02*
D03*
Y75750D02*
D03*
X4780000Y104250D02*
D03*
Y75750D02*
D03*
X4390000Y104250D02*
D03*
Y75750D02*
D03*
X4000000Y104250D02*
D03*
Y75750D02*
D03*
X3440000Y104250D02*
D03*
Y75750D02*
D03*
X3210000Y104250D02*
D03*
Y75750D02*
D03*
X2830000Y104250D02*
D03*
Y75750D02*
D03*
X2430000Y104250D02*
D03*
Y75750D02*
D03*
X2250000Y104250D02*
D03*
Y75750D02*
D03*
X490000Y104250D02*
D03*
Y75750D02*
D03*
X870000Y104250D02*
D03*
Y75750D02*
D03*
X1860000Y104250D02*
D03*
Y75750D02*
D03*
X5360000Y495750D02*
D03*
Y524250D02*
D03*
X4980000Y495750D02*
D03*
Y524250D02*
D03*
X4580000Y495750D02*
D03*
Y524250D02*
D03*
X4200000Y495750D02*
D03*
Y524250D02*
D03*
X3020000Y495750D02*
D03*
Y524250D02*
D03*
X3410000Y495750D02*
D03*
Y524250D02*
D03*
X2640000Y495750D02*
D03*
Y524250D02*
D03*
X2240000Y495750D02*
D03*
Y524250D02*
D03*
X1850000Y495750D02*
D03*
Y524250D02*
D03*
X1070000Y495750D02*
D03*
Y524250D02*
D03*
X690000Y495750D02*
D03*
Y524250D02*
D03*
X300000Y104250D02*
D03*
Y75750D02*
D03*
Y495750D02*
D03*
Y524250D02*
D03*
X1470000Y495750D02*
D03*
Y524250D02*
D03*
X1270000Y104250D02*
D03*
Y75750D02*
D03*
X3810000Y495750D02*
D03*
Y524250D02*
D03*
X3800000Y104250D02*
D03*
Y75750D02*
D03*
X1660000Y104250D02*
D03*
Y75750D02*
D03*
M02*
