G04*
G04 #@! TF.GenerationSoftware,Altium Limited,Altium Designer,22.11.1 (43)*
G04*
G04 Layer_Physical_Order=2*
G04 Layer_Color=16711680*
%FSLAX44Y44*%
%MOMM*%
G71*
G04*
G04 #@! TF.SameCoordinates,7FEAD27C-78B8-4A64-BA1D-56F7E302289E*
G04*
G04*
G04 #@! TF.FilePolarity,Positive*
G04*
G01*
G75*
%ADD22C,0.5000*%
%ADD23C,3.0000*%
G04:AMPARAMS|DCode=24|XSize=1mm|YSize=3mm|CornerRadius=0.25mm|HoleSize=0mm|Usage=FLASHONLY|Rotation=180.000|XOffset=0mm|YOffset=0mm|HoleType=Round|Shape=RoundedRectangle|*
%AMROUNDEDRECTD24*
21,1,1.0000,2.5000,0,0,180.0*
21,1,0.5000,3.0000,0,0,180.0*
1,1,0.5000,-0.2500,1.2500*
1,1,0.5000,0.2500,1.2500*
1,1,0.5000,0.2500,-1.2500*
1,1,0.5000,-0.2500,-1.2500*
%
%ADD24ROUNDEDRECTD24*%
%ADD25C,2.0000*%
%ADD26C,0.7000*%
%ADD27C,1.5000*%
G36*
X468021Y246145D02*
X469763Y244705D01*
X470625Y244120D01*
X471482Y243625D01*
X472333Y243220D01*
X473179Y242905D01*
X474019Y242680D01*
X474854Y242545D01*
X475683Y242500D01*
Y237500D01*
X474854Y237455D01*
X474019Y237320D01*
X473179Y237095D01*
X472333Y236780D01*
X471482Y236375D01*
X470625Y235880D01*
X469763Y235295D01*
X468895Y234620D01*
X468021Y233855D01*
X467142Y233000D01*
Y247000D01*
X468021Y246145D01*
D02*
G37*
G36*
X452859Y203000D02*
X451979Y203855D01*
X450237Y205295D01*
X449375Y205880D01*
X448518Y206375D01*
X447667Y206780D01*
X446821Y207095D01*
X445981Y207320D01*
X445146Y207455D01*
X444318Y207500D01*
Y212500D01*
X445146Y212545D01*
X445981Y212680D01*
X446821Y212905D01*
X447667Y213220D01*
X448518Y213625D01*
X449375Y214120D01*
X450237Y214705D01*
X451106Y215380D01*
X451979Y216145D01*
X452859Y217000D01*
Y203000D01*
D02*
G37*
G36*
X468021Y186145D02*
X469763Y184705D01*
X470625Y184120D01*
X471482Y183625D01*
X472333Y183220D01*
X473179Y182905D01*
X474019Y182680D01*
X474854Y182545D01*
X475683Y182500D01*
Y177500D01*
X474854Y177455D01*
X474019Y177320D01*
X473179Y177095D01*
X472333Y176780D01*
X471482Y176375D01*
X470625Y175880D01*
X469763Y175295D01*
X468895Y174620D01*
X468021Y173855D01*
X467142Y173000D01*
Y187000D01*
X468021Y186145D01*
D02*
G37*
G36*
X680018Y39142D02*
X680160Y37591D01*
X680285Y36917D01*
X680445Y36310D01*
X680641Y35769D01*
X680872Y35296D01*
X681140Y34891D01*
X681442Y34552D01*
X681780Y34280D01*
X673220D01*
X673558Y34552D01*
X673860Y34891D01*
X674128Y35296D01*
X674359Y35769D01*
X674555Y36310D01*
X674715Y36917D01*
X674840Y37591D01*
X674929Y38333D01*
X674982Y39142D01*
X675000Y40018D01*
X680000D01*
X680018Y39142D01*
D02*
G37*
G36*
X444318Y272500D02*
X445146Y272545D01*
X445981Y272680D01*
X446821Y272905D01*
X447667Y273220D01*
X448518Y273625D01*
X449375Y274120D01*
X450237Y274705D01*
X451106Y275380D01*
X451979Y276145D01*
X452859Y277000D01*
Y263000D01*
X451979Y263855D01*
X450237Y265295D01*
X449375Y265880D01*
X448518Y266375D01*
X447667Y266780D01*
X446821Y267095D01*
X445981Y267320D01*
X445146Y267455D01*
X444318Y267500D01*
Y272500D01*
D02*
G37*
G36*
X475683Y297500D02*
X474854Y297455D01*
X474019Y297320D01*
X473179Y297095D01*
X472333Y296780D01*
X471482Y296375D01*
X470625Y295880D01*
X469763Y295295D01*
X468895Y294620D01*
X468021Y293855D01*
X467142Y293000D01*
Y307000D01*
X468021Y306145D01*
X469763Y304705D01*
X470625Y304120D01*
X471482Y303625D01*
X472333Y303220D01*
X473179Y302905D01*
X474019Y302680D01*
X474854Y302545D01*
X475683Y302500D01*
Y297500D01*
D02*
G37*
G36*
X444318Y332500D02*
X445146Y332545D01*
X445981Y332680D01*
X446821Y332905D01*
X447667Y333220D01*
X448518Y333625D01*
X449375Y334120D01*
X450237Y334705D01*
X451106Y335380D01*
X451979Y336145D01*
X452859Y337000D01*
Y323000D01*
X451979Y323855D01*
X450237Y325295D01*
X449375Y325880D01*
X448518Y326375D01*
X447667Y326780D01*
X446821Y327095D01*
X445981Y327320D01*
X445146Y327455D01*
X444318Y327500D01*
Y332500D01*
D02*
G37*
G36*
X474235Y356190D02*
X473737Y356451D01*
X473191Y356582D01*
X472599Y356585D01*
X471960Y356459D01*
X471274Y356205D01*
X470542Y355821D01*
X469762Y355309D01*
X468935Y354668D01*
X468062Y353899D01*
X467142Y353000D01*
X467141Y367000D01*
X477058Y360317D01*
X474235Y356190D01*
D02*
G37*
G36*
Y386190D02*
X473737Y386451D01*
X473191Y386582D01*
X472599Y386585D01*
X471960Y386459D01*
X471274Y386205D01*
X470542Y385821D01*
X469762Y385309D01*
X468935Y384668D01*
X468062Y383899D01*
X467142Y383000D01*
X467141Y397000D01*
X477058Y390317D01*
X474235Y386190D01*
D02*
G37*
G36*
X705000Y40018D02*
X705018Y39142D01*
X705160Y37591D01*
X705285Y36917D01*
X705445Y36310D01*
X705641Y35769D01*
X705872Y35296D01*
X706140Y34891D01*
X706442Y34552D01*
X706780Y34280D01*
X698220D01*
X698558Y34552D01*
X698860Y34891D01*
X699128Y35296D01*
X699359Y35769D01*
X699555Y36310D01*
X699715Y36917D01*
X699840Y37591D01*
X699929Y38333D01*
X699982Y39142D01*
X700000Y40018D01*
X705000D01*
D02*
G37*
G36*
X1070000D02*
X1070018Y39142D01*
X1070160Y37591D01*
X1070285Y36917D01*
X1070445Y36310D01*
X1070641Y35769D01*
X1070872Y35296D01*
X1071140Y34891D01*
X1071442Y34552D01*
X1071780Y34280D01*
X1063220D01*
X1063558Y34552D01*
X1063860Y34891D01*
X1064128Y35296D01*
X1064359Y35769D01*
X1064555Y36310D01*
X1064715Y36917D01*
X1064840Y37591D01*
X1064929Y38333D01*
X1064982Y39142D01*
X1065000Y40018D01*
X1070000D01*
D02*
G37*
G36*
X1095000D02*
X1095018Y39142D01*
X1095160Y37591D01*
X1095285Y36917D01*
X1095445Y36310D01*
X1095641Y35769D01*
X1095872Y35296D01*
X1096140Y34891D01*
X1096442Y34552D01*
X1096780Y34280D01*
X1088220D01*
X1088558Y34552D01*
X1088860Y34891D01*
X1089128Y35296D01*
X1089359Y35769D01*
X1089555Y36310D01*
X1089715Y36917D01*
X1089840Y37591D01*
X1089929Y38333D01*
X1089982Y39142D01*
X1090000Y40018D01*
X1095000D01*
D02*
G37*
G36*
X857482Y572500D02*
X858438Y572525D01*
X859293Y572600D01*
X860048Y572725D01*
X860702Y572900D01*
X861255Y573125D01*
X861708Y573400D01*
X862060Y573725D01*
X862311Y574100D01*
X862462Y574525D01*
X862513Y575000D01*
Y565000D01*
X862462Y565475D01*
X862311Y565900D01*
X862060Y566275D01*
X861708Y566600D01*
X861255Y566875D01*
X860702Y567100D01*
X860048Y567275D01*
X859293Y567400D01*
X858438Y567475D01*
X857482Y567500D01*
Y572500D01*
D02*
G37*
G36*
X902518Y567500D02*
X901562Y567475D01*
X900707Y567400D01*
X899952Y567275D01*
X899298Y567100D01*
X898745Y566875D01*
X898292Y566600D01*
X897940Y566275D01*
X897689Y565900D01*
X897538Y565475D01*
X897487Y565000D01*
Y575000D01*
X897538Y574525D01*
X897689Y574100D01*
X897940Y573725D01*
X898292Y573400D01*
X898745Y573125D01*
X899298Y572900D01*
X899952Y572725D01*
X900707Y572600D01*
X901562Y572525D01*
X902518Y572500D01*
Y567500D01*
D02*
G37*
G36*
X1460000Y40018D02*
X1460018Y39142D01*
X1460160Y37591D01*
X1460285Y36917D01*
X1460445Y36310D01*
X1460641Y35769D01*
X1460872Y35296D01*
X1461139Y34891D01*
X1461442Y34552D01*
X1461780Y34280D01*
X1453219D01*
X1453558Y34552D01*
X1453860Y34891D01*
X1454127Y35296D01*
X1454359Y35769D01*
X1454555Y36310D01*
X1454715Y36917D01*
X1454840Y37591D01*
X1454929Y38333D01*
X1454982Y39142D01*
X1455000Y40018D01*
X1460000D01*
D02*
G37*
G36*
X1485000D02*
X1485018Y39142D01*
X1485160Y37591D01*
X1485285Y36917D01*
X1485445Y36310D01*
X1485641Y35769D01*
X1485872Y35296D01*
X1486139Y34891D01*
X1486442Y34552D01*
X1486780Y34280D01*
X1478219D01*
X1478558Y34552D01*
X1478860Y34891D01*
X1479127Y35296D01*
X1479359Y35769D01*
X1479555Y36310D01*
X1479715Y36917D01*
X1479840Y37591D01*
X1479929Y38333D01*
X1479982Y39142D01*
X1480000Y40018D01*
X1485000D01*
D02*
G37*
G36*
X1252704Y550405D02*
X1252943Y551204D01*
X1253259Y552678D01*
X1253336Y553354D01*
X1253360Y553987D01*
X1253331Y554580D01*
X1253247Y555131D01*
X1253110Y555641D01*
X1252919Y556109D01*
X1252674Y556536D01*
X1261780Y555720D01*
X1261301Y555369D01*
X1260846Y554973D01*
X1260415Y554533D01*
X1260007Y554047D01*
X1259624Y553517D01*
X1259264Y552942D01*
X1258928Y552321D01*
X1258617Y551656D01*
X1258329Y550946D01*
X1258065Y550190D01*
X1252704Y550405D01*
D02*
G37*
G36*
X1292518Y567500D02*
X1291562Y567475D01*
X1290707Y567400D01*
X1289952Y567275D01*
X1289298Y567100D01*
X1288745Y566875D01*
X1288292Y566600D01*
X1287940Y566275D01*
X1287689Y565900D01*
X1287538Y565475D01*
X1287487Y565000D01*
Y575000D01*
X1287538Y574525D01*
X1287689Y574100D01*
X1287940Y573725D01*
X1288292Y573400D01*
X1288745Y573125D01*
X1289298Y572900D01*
X1289952Y572725D01*
X1290707Y572600D01*
X1291562Y572525D01*
X1292518Y572500D01*
Y567500D01*
D02*
G37*
G36*
X2457052Y583942D02*
X2457390Y583639D01*
X2457796Y583372D01*
X2458269Y583141D01*
X2458810Y582945D01*
X2459417Y582785D01*
X2460091Y582660D01*
X2460833Y582571D01*
X2461642Y582518D01*
X2462518Y582500D01*
Y577500D01*
X2461528Y577475D01*
X2460646Y577400D01*
X2459872Y577275D01*
X2459207Y577100D01*
X2458650Y576875D01*
X2458201Y576600D01*
X2457860Y576275D01*
X2457628Y575900D01*
X2457503Y575475D01*
X2457487Y575000D01*
X2456780Y584280D01*
X2457052Y583942D01*
D02*
G37*
G36*
X2422512Y565000D02*
X2422462Y565475D01*
X2422311Y565900D01*
X2422060Y566275D01*
X2421708Y566600D01*
X2421255Y566875D01*
X2420701Y567100D01*
X2420047Y567275D01*
X2419293Y567400D01*
X2418438Y567475D01*
X2417482Y567500D01*
Y572500D01*
X2418438Y572525D01*
X2419293Y572600D01*
X2420047Y572725D01*
X2420701Y572900D01*
X2421255Y573125D01*
X2421708Y573400D01*
X2422060Y573725D01*
X2422311Y574100D01*
X2422462Y574525D01*
X2422512Y575000D01*
Y565000D01*
D02*
G37*
G36*
X2032513D02*
X2032462Y565475D01*
X2032311Y565900D01*
X2032060Y566275D01*
X2031708Y566600D01*
X2031255Y566875D01*
X2030702Y567100D01*
X2030048Y567275D01*
X2029293Y567400D01*
X2028438Y567475D01*
X2027482Y567500D01*
Y572500D01*
X2028438Y572525D01*
X2029293Y572600D01*
X2030048Y572725D01*
X2030702Y572900D01*
X2031255Y573125D01*
X2031708Y573400D01*
X2032060Y573725D01*
X2032311Y574100D01*
X2032462Y574525D01*
X2032513Y575000D01*
Y565000D01*
D02*
G37*
G36*
X2066442Y555452D02*
X2066140Y555126D01*
X2065872Y554741D01*
X2065641Y554297D01*
X2065445Y553795D01*
X2065285Y553233D01*
X2065160Y552613D01*
X2065071Y551934D01*
X2065018Y551197D01*
X2065000Y550400D01*
X2060000D01*
X2059982Y551197D01*
X2059840Y552613D01*
X2059715Y553233D01*
X2059555Y553795D01*
X2059359Y554297D01*
X2059128Y554741D01*
X2058860Y555126D01*
X2058558Y555452D01*
X2058220Y555720D01*
X2066780D01*
X2066442Y555452D01*
D02*
G37*
G36*
X2821442Y555448D02*
X2821139Y555109D01*
X2820872Y554704D01*
X2820641Y554231D01*
X2820445Y553690D01*
X2820285Y553083D01*
X2820160Y552409D01*
X2820071Y551667D01*
X2820018Y550858D01*
X2820000Y549982D01*
X2815000D01*
X2814982Y550858D01*
X2814839Y552409D01*
X2814715Y553083D01*
X2814555Y553690D01*
X2814359Y554231D01*
X2814128Y554704D01*
X2813860Y555109D01*
X2813558Y555448D01*
X2813219Y555720D01*
X2821780D01*
X2821442Y555448D01*
D02*
G37*
G36*
X2093021Y411145D02*
X2094763Y409705D01*
X2095625Y409120D01*
X2096482Y408625D01*
X2097333Y408220D01*
X2098179Y407905D01*
X2099019Y407680D01*
X2099854Y407545D01*
X2100682Y407500D01*
Y402500D01*
X2099854Y402455D01*
X2099019Y402320D01*
X2098179Y402095D01*
X2097333Y401780D01*
X2096482Y401375D01*
X2095625Y400880D01*
X2094763Y400295D01*
X2093895Y399620D01*
X2093021Y398855D01*
X2092141Y398000D01*
Y412000D01*
X2093021Y411145D01*
D02*
G37*
G36*
X2093983Y370495D02*
X2093793Y369866D01*
X2093678Y369312D01*
X2093639Y368831D01*
X2093677Y368424D01*
X2093790Y368092D01*
X2093978Y367833D01*
X2094243Y367648D01*
X2094584Y367537D01*
X2095000Y367500D01*
X2090188Y363463D01*
X2089641Y363680D01*
X2087863Y364259D01*
X2087224Y364427D01*
X2084440Y364979D01*
X2083687Y365087D01*
X2094249Y371198D01*
X2093983Y370495D01*
D02*
G37*
G36*
X2076603Y339570D02*
X2075926Y340585D01*
X2073880Y343287D01*
X2073192Y344073D01*
X2071807Y345473D01*
X2071111Y346087D01*
X2069709Y347143D01*
X2070891Y352474D01*
X2071576Y351999D01*
X2072298Y351647D01*
X2073057Y351419D01*
X2073853Y351315D01*
X2074686Y351335D01*
X2075555Y351478D01*
X2076462Y351745D01*
X2077405Y352135D01*
X2078386Y352649D01*
X2079403Y353287D01*
X2076603Y339570D01*
D02*
G37*
G36*
X2093021Y321145D02*
X2094763Y319705D01*
X2095625Y319120D01*
X2096482Y318625D01*
X2097333Y318220D01*
X2098179Y317905D01*
X2099019Y317680D01*
X2099854Y317545D01*
X2100682Y317500D01*
Y312500D01*
X2099854Y312455D01*
X2099019Y312320D01*
X2098179Y312095D01*
X2097333Y311780D01*
X2096482Y311375D01*
X2095625Y310880D01*
X2094763Y310295D01*
X2093895Y309620D01*
X2093021Y308855D01*
X2092141Y308000D01*
Y322000D01*
X2093021Y321145D01*
D02*
G37*
G36*
X2077797Y278063D02*
X2076942Y278920D01*
X2075242Y280432D01*
X2074398Y281089D01*
X2072721Y282200D01*
X2071888Y282655D01*
X2071059Y283043D01*
X2070233Y283365D01*
X2069412Y283619D01*
X2069474Y288809D01*
X2070271Y288617D01*
X2071079Y288541D01*
X2071897Y288579D01*
X2072726Y288732D01*
X2073565Y289000D01*
X2074415Y289383D01*
X2075276Y289880D01*
X2076147Y290493D01*
X2077028Y291220D01*
X2077920Y292062D01*
X2077797Y278063D01*
D02*
G37*
G36*
X2093021Y261145D02*
X2094763Y259705D01*
X2095625Y259120D01*
X2096482Y258625D01*
X2097333Y258220D01*
X2098179Y257905D01*
X2099019Y257680D01*
X2099854Y257545D01*
X2100682Y257500D01*
Y252500D01*
X2099854Y252455D01*
X2099019Y252320D01*
X2098179Y252095D01*
X2097333Y251780D01*
X2096482Y251375D01*
X2095625Y250880D01*
X2094763Y250295D01*
X2093895Y249620D01*
X2093021Y248855D01*
X2092141Y248000D01*
Y262000D01*
X2093021Y261145D01*
D02*
G37*
G36*
X2077858Y218000D02*
X2076979Y218855D01*
X2075237Y220295D01*
X2074375Y220880D01*
X2073518Y221375D01*
X2072666Y221780D01*
X2071821Y222095D01*
X2070981Y222320D01*
X2070146Y222455D01*
X2069317Y222500D01*
Y227500D01*
X2070146Y227545D01*
X2070981Y227680D01*
X2071821Y227905D01*
X2072666Y228220D01*
X2073518Y228625D01*
X2074375Y229120D01*
X2075237Y229705D01*
X2076105Y230380D01*
X2076979Y231145D01*
X2077858Y232000D01*
Y218000D01*
D02*
G37*
G36*
X2091145Y186979D02*
X2089705Y185237D01*
X2089120Y184375D01*
X2088625Y183518D01*
X2088220Y182667D01*
X2087905Y181821D01*
X2087680Y180981D01*
X2087545Y180146D01*
X2087500Y179317D01*
X2082500D01*
X2082455Y180146D01*
X2082320Y180981D01*
X2082095Y181821D01*
X2081780Y182667D01*
X2081375Y183518D01*
X2080880Y184375D01*
X2080295Y185237D01*
X2079620Y186105D01*
X2078855Y186979D01*
X2078000Y187859D01*
X2092000D01*
X2091145Y186979D01*
D02*
G37*
G36*
X2630018Y39142D02*
X2630160Y37591D01*
X2630285Y36917D01*
X2630445Y36310D01*
X2630641Y35769D01*
X2630872Y35296D01*
X2631139Y34891D01*
X2631442Y34552D01*
X2631780Y34280D01*
X2623219D01*
X2623558Y34552D01*
X2623860Y34891D01*
X2624128Y35296D01*
X2624359Y35769D01*
X2624555Y36310D01*
X2624715Y36917D01*
X2624839Y37591D01*
X2624929Y38333D01*
X2624982Y39142D01*
X2625000Y40018D01*
X2630000D01*
X2630018Y39142D01*
D02*
G37*
G36*
X1840018D02*
X1840160Y37591D01*
X1840285Y36917D01*
X1840445Y36310D01*
X1840641Y35769D01*
X1840872Y35296D01*
X1841139Y34891D01*
X1841442Y34552D01*
X1841780Y34280D01*
X1833219D01*
X1833558Y34552D01*
X1833860Y34891D01*
X1834127Y35296D01*
X1834359Y35769D01*
X1834555Y36310D01*
X1834715Y36917D01*
X1834840Y37591D01*
X1834929Y38333D01*
X1834982Y39142D01*
X1835000Y40018D01*
X1840000D01*
X1840018Y39142D01*
D02*
G37*
G36*
X2232512Y15000D02*
X2232462Y15475D01*
X2232311Y15900D01*
X2232060Y16275D01*
X2231708Y16600D01*
X2231255Y16875D01*
X2230701Y17100D01*
X2230047Y17275D01*
X2229293Y17400D01*
X2228438Y17475D01*
X2227482Y17500D01*
Y22500D01*
X2228438Y22525D01*
X2229293Y22600D01*
X2230047Y22725D01*
X2230701Y22900D01*
X2231255Y23125D01*
X2231708Y23400D01*
X2232060Y23725D01*
X2232311Y24100D01*
X2232462Y24525D01*
X2232512Y25000D01*
Y15000D01*
D02*
G37*
G36*
X2657503Y14525D02*
X2657628Y14100D01*
X2657860Y13725D01*
X2658201Y13400D01*
X2658650Y13125D01*
X2659207Y12900D01*
X2659872Y12725D01*
X2660646Y12600D01*
X2661528Y12525D01*
X2662518Y12500D01*
Y7500D01*
X2661642Y7482D01*
X2660091Y7340D01*
X2659417Y7215D01*
X2658810Y7055D01*
X2658269Y6859D01*
X2657796Y6628D01*
X2657390Y6360D01*
X2657052Y6058D01*
X2656780Y5720D01*
X2657487Y15000D01*
X2657503Y14525D01*
D02*
G37*
G36*
X2267503D02*
X2267628Y14100D01*
X2267860Y13725D01*
X2268201Y13400D01*
X2268650Y13125D01*
X2269207Y12900D01*
X2269872Y12725D01*
X2270646Y12600D01*
X2271528Y12525D01*
X2272518Y12500D01*
Y7500D01*
X2271642Y7482D01*
X2270091Y7340D01*
X2269417Y7215D01*
X2268810Y7055D01*
X2268269Y6859D01*
X2267796Y6628D01*
X2267390Y6360D01*
X2267052Y6058D01*
X2266780Y5720D01*
X2267487Y15000D01*
X2267503Y14525D01*
D02*
G37*
G36*
X3020000Y40018D02*
X3020018Y39142D01*
X3020160Y37591D01*
X3020285Y36917D01*
X3020445Y36310D01*
X3020641Y35769D01*
X3020872Y35296D01*
X3021139Y34891D01*
X3021442Y34552D01*
X3021780Y34280D01*
X3013219D01*
X3013558Y34552D01*
X3013860Y34891D01*
X3014128Y35296D01*
X3014359Y35769D01*
X3014555Y36310D01*
X3014715Y36917D01*
X3014839Y37591D01*
X3014929Y38333D01*
X3014982Y39142D01*
X3015000Y40018D01*
X3020000D01*
D02*
G37*
G36*
X3052375Y7501D02*
X3051396Y7747D01*
X3050519Y7912D01*
X3049742Y7995D01*
X3049066Y7998D01*
X3048492Y7919D01*
X3048019Y7760D01*
X3047647Y7519D01*
X3047376Y7197D01*
X3047206Y6793D01*
X3047137Y6309D01*
X3047487Y16466D01*
X3047516Y15948D01*
X3047640Y15458D01*
X3047859Y14994D01*
X3048174Y14558D01*
X3048582Y14150D01*
X3049086Y13768D01*
X3049685Y13413D01*
X3050379Y13086D01*
X3051168Y12786D01*
X3052051Y12513D01*
X3052375Y7501D01*
D02*
G37*
G36*
X3205000Y549982D02*
X3204982Y550858D01*
X3204839Y552409D01*
X3204715Y553083D01*
X3204555Y553690D01*
X3204359Y554231D01*
X3204128Y554704D01*
X3203860Y555109D01*
X3203558Y555448D01*
X3203220Y555720D01*
X3211780D01*
X3211442Y555448D01*
X3211139Y555109D01*
X3210872Y554704D01*
X3210641Y554231D01*
X3210445Y553690D01*
X3210285Y553083D01*
X3210160Y552409D01*
X3210071Y551667D01*
X3210018Y550858D01*
X3210000Y549982D01*
X3205000D01*
D02*
G37*
G36*
X2852518Y577500D02*
X2851528Y577475D01*
X2850646Y577400D01*
X2849872Y577275D01*
X2849207Y577100D01*
X2848650Y576875D01*
X2848201Y576600D01*
X2847860Y576275D01*
X2847628Y575900D01*
X2847503Y575475D01*
X2847487Y575000D01*
X2846780Y584280D01*
X2847052Y583942D01*
X2847390Y583639D01*
X2847796Y583372D01*
X2848269Y583141D01*
X2848810Y582945D01*
X2849417Y582785D01*
X2850091Y582660D01*
X2850833Y582571D01*
X2851642Y582518D01*
X2852518Y582500D01*
Y577500D01*
D02*
G37*
G36*
X3242051Y577487D02*
X3241168Y577214D01*
X3240379Y576914D01*
X3239685Y576586D01*
X3239086Y576232D01*
X3238582Y575850D01*
X3238174Y575442D01*
X3237859Y575006D01*
X3237640Y574542D01*
X3237516Y574052D01*
X3237487Y573534D01*
X3237137Y583691D01*
X3237206Y583207D01*
X3237376Y582803D01*
X3237647Y582481D01*
X3238019Y582240D01*
X3238492Y582081D01*
X3239066Y582002D01*
X3239742Y582005D01*
X3240519Y582088D01*
X3241396Y582253D01*
X3242375Y582499D01*
X3242051Y577487D01*
D02*
G37*
G36*
X3410000Y40018D02*
X3410018Y39142D01*
X3410160Y37591D01*
X3410285Y36917D01*
X3410445Y36310D01*
X3410641Y35769D01*
X3410872Y35296D01*
X3411139Y34891D01*
X3411442Y34552D01*
X3411780Y34280D01*
X3403219D01*
X3403558Y34552D01*
X3403860Y34891D01*
X3404128Y35296D01*
X3404359Y35769D01*
X3404555Y36310D01*
X3404715Y36917D01*
X3404839Y37591D01*
X3404929Y38333D01*
X3404982Y39142D01*
X3405000Y40018D01*
X3410000D01*
D02*
G37*
G36*
X3442518Y7500D02*
X3441642Y7482D01*
X3440091Y7340D01*
X3439417Y7215D01*
X3438810Y7055D01*
X3438269Y6859D01*
X3437796Y6628D01*
X3437390Y6360D01*
X3437052Y6058D01*
X3436780Y5720D01*
X3437487Y15000D01*
X3437503Y14525D01*
X3437628Y14100D01*
X3437860Y13725D01*
X3438201Y13400D01*
X3438650Y13125D01*
X3439207Y12900D01*
X3439872Y12725D01*
X3440646Y12600D01*
X3441528Y12525D01*
X3442518Y12500D01*
Y7500D01*
D02*
G37*
G36*
X3562500Y119318D02*
X3562455Y120146D01*
X3562320Y120981D01*
X3562095Y121821D01*
X3561780Y122667D01*
X3561375Y123518D01*
X3560880Y124375D01*
X3560295Y125237D01*
X3559620Y126105D01*
X3558855Y126979D01*
X3558000Y127859D01*
X3572000D01*
X3571145Y126979D01*
X3569705Y125237D01*
X3569120Y124375D01*
X3568625Y123518D01*
X3568220Y122667D01*
X3567905Y121821D01*
X3567680Y120981D01*
X3567545Y120146D01*
X3567500Y119318D01*
X3562500D01*
D02*
G37*
G36*
X3580683Y132500D02*
X3579854Y132455D01*
X3579019Y132320D01*
X3578179Y132095D01*
X3577334Y131780D01*
X3576482Y131375D01*
X3575625Y130880D01*
X3574763Y130295D01*
X3573895Y129620D01*
X3573021Y128855D01*
X3572142Y128000D01*
Y142000D01*
X3573021Y141145D01*
X3574763Y139705D01*
X3575625Y139120D01*
X3576482Y138625D01*
X3577334Y138220D01*
X3578179Y137905D01*
X3579019Y137680D01*
X3579854Y137545D01*
X3580683Y137500D01*
Y132500D01*
D02*
G37*
G36*
X3707500Y174317D02*
X3707455Y175146D01*
X3707320Y175981D01*
X3707095Y176821D01*
X3706780Y177666D01*
X3706375Y178518D01*
X3705880Y179375D01*
X3705295Y180237D01*
X3704620Y181105D01*
X3703855Y181979D01*
X3703000Y182859D01*
X3717000D01*
X3716145Y181979D01*
X3714705Y180237D01*
X3714120Y179375D01*
X3713625Y178518D01*
X3713220Y177666D01*
X3712905Y176821D01*
X3712680Y175981D01*
X3712545Y175146D01*
X3712500Y174317D01*
X3707500D01*
D02*
G37*
G36*
X3694317Y222500D02*
X3695146Y222545D01*
X3695981Y222680D01*
X3696821Y222905D01*
X3697666Y223220D01*
X3698517Y223625D01*
X3699374Y224120D01*
X3700237Y224705D01*
X3701105Y225380D01*
X3701979Y226145D01*
X3702858Y227000D01*
Y213000D01*
X3701979Y213855D01*
X3700237Y215295D01*
X3699374Y215880D01*
X3698517Y216375D01*
X3697666Y216780D01*
X3696821Y217095D01*
X3695981Y217320D01*
X3695146Y217455D01*
X3694317Y217500D01*
Y222500D01*
D02*
G37*
G36*
X3725682Y247500D02*
X3724854Y247455D01*
X3724019Y247320D01*
X3723179Y247095D01*
X3722333Y246780D01*
X3721482Y246375D01*
X3720625Y245880D01*
X3719763Y245295D01*
X3718894Y244620D01*
X3718021Y243855D01*
X3717141Y243000D01*
Y257000D01*
X3718021Y256145D01*
X3719763Y254705D01*
X3720625Y254120D01*
X3721482Y253625D01*
X3722333Y253220D01*
X3723179Y252905D01*
X3724019Y252680D01*
X3724854Y252545D01*
X3725682Y252500D01*
Y247500D01*
D02*
G37*
G36*
X3694343Y282987D02*
X3695140Y282912D01*
X3695949Y282943D01*
X3696770Y283080D01*
X3697603Y283322D01*
X3698449Y283671D01*
X3699306Y284125D01*
X3700176Y284685D01*
X3701059Y285352D01*
X3701953Y286124D01*
X3702860Y287001D01*
X3702857Y273001D01*
X3702010Y273828D01*
X3700314Y275258D01*
X3699464Y275862D01*
X3698612Y276392D01*
X3697760Y276848D01*
X3696906Y277230D01*
X3696051Y277537D01*
X3695195Y277771D01*
X3694337Y277931D01*
X3694343Y282987D01*
D02*
G37*
G36*
X3725682Y307500D02*
X3724854Y307455D01*
X3724019Y307320D01*
X3723179Y307095D01*
X3722333Y306780D01*
X3721482Y306375D01*
X3720625Y305880D01*
X3719763Y305295D01*
X3718894Y304620D01*
X3718021Y303855D01*
X3717141Y303000D01*
Y317000D01*
X3718021Y316145D01*
X3719763Y314705D01*
X3720625Y314120D01*
X3721482Y313625D01*
X3722333Y313220D01*
X3723179Y312905D01*
X3724019Y312680D01*
X3724854Y312545D01*
X3725682Y312500D01*
Y307500D01*
D02*
G37*
G36*
X3694847Y345076D02*
X3695604Y344750D01*
X3696380Y344549D01*
X3697175Y344471D01*
X3697989Y344517D01*
X3698822Y344688D01*
X3699674Y344982D01*
X3700545Y345401D01*
X3701436Y345943D01*
X3702346Y346610D01*
X3703274Y347400D01*
X3702466Y333424D01*
X3701660Y334318D01*
X3699252Y336650D01*
X3698452Y337309D01*
X3696857Y338453D01*
X3696061Y338937D01*
X3695267Y339362D01*
X3694474Y339728D01*
X3694847Y345076D01*
D02*
G37*
G36*
X3725000Y397500D02*
X3724124Y397467D01*
X3723290Y397367D01*
X3722498Y397200D01*
X3721747Y396967D01*
X3721039Y396667D01*
X3720372Y396300D01*
X3719747Y395867D01*
X3719163Y395367D01*
X3718622Y394800D01*
X3718122Y394166D01*
Y405834D01*
X3718622Y405200D01*
X3719163Y404633D01*
X3719747Y404133D01*
X3720372Y403700D01*
X3721039Y403333D01*
X3721747Y403033D01*
X3722498Y402800D01*
X3723290Y402633D01*
X3724124Y402533D01*
X3725000Y402500D01*
Y397500D01*
D02*
G37*
G36*
X3595000Y549982D02*
X3594982Y550858D01*
X3594839Y552409D01*
X3594715Y553083D01*
X3594555Y553690D01*
X3594359Y554231D01*
X3594128Y554704D01*
X3593860Y555109D01*
X3593558Y555448D01*
X3593219Y555720D01*
X3601780D01*
X3601442Y555448D01*
X3601139Y555109D01*
X3600872Y554704D01*
X3600641Y554231D01*
X3600445Y553690D01*
X3600285Y553083D01*
X3600160Y552409D01*
X3600071Y551667D01*
X3600018Y550858D01*
X3600000Y549982D01*
X3595000D01*
D02*
G37*
G36*
X3620000D02*
X3619982Y550858D01*
X3619839Y552409D01*
X3619715Y553083D01*
X3619555Y553690D01*
X3619359Y554231D01*
X3619128Y554704D01*
X3618860Y555109D01*
X3618558Y555448D01*
X3618219Y555720D01*
X3626780D01*
X3626442Y555448D01*
X3626139Y555109D01*
X3625872Y554704D01*
X3625641Y554231D01*
X3625445Y553690D01*
X3625285Y553083D01*
X3625160Y552409D01*
X3625071Y551667D01*
X3625018Y550858D01*
X3625000Y549982D01*
X3620000D01*
D02*
G37*
G36*
X3777482Y22500D02*
X3778438Y22525D01*
X3779293Y22600D01*
X3780048Y22725D01*
X3780702Y22900D01*
X3781255Y23125D01*
X3781707Y23400D01*
X3782060Y23725D01*
X3782311Y24100D01*
X3782462Y24525D01*
X3782513Y25000D01*
Y15000D01*
X3782462Y15475D01*
X3782311Y15900D01*
X3782060Y16275D01*
X3781707Y16600D01*
X3781255Y16875D01*
X3780702Y17100D01*
X3780048Y17275D01*
X3779293Y17400D01*
X3778438Y17475D01*
X3777482Y17500D01*
Y22500D01*
D02*
G37*
G36*
X4177482D02*
X4178438Y22525D01*
X4179293Y22600D01*
X4180048Y22725D01*
X4180702Y22900D01*
X4181255Y23125D01*
X4181707Y23400D01*
X4182060Y23725D01*
X4182311Y24100D01*
X4182462Y24525D01*
X4182513Y25000D01*
Y15000D01*
X4182462Y15475D01*
X4182311Y15900D01*
X4182060Y16275D01*
X4181707Y16600D01*
X4181255Y16875D01*
X4180702Y17100D01*
X4180048Y17275D01*
X4179293Y17400D01*
X4178438Y17475D01*
X4177482Y17500D01*
Y22500D01*
D02*
G37*
G36*
X4207442Y38936D02*
X4208393Y37846D01*
X4210092Y36129D01*
X4210840Y35503D01*
X4211520Y35031D01*
X4212133Y34713D01*
X4212678Y34550D01*
X4213155Y34541D01*
X4213564Y34687D01*
X4213906Y34987D01*
X4207513Y27151D01*
X4207785Y27592D01*
X4207934Y28098D01*
X4207961Y28670D01*
X4207865Y29307D01*
X4207646Y30008D01*
X4207305Y30775D01*
X4206841Y31607D01*
X4206253Y32503D01*
X4205544Y33465D01*
X4204711Y34492D01*
X4207442Y38936D01*
D02*
G37*
G36*
X3977482Y572500D02*
X3978438Y572525D01*
X3979293Y572600D01*
X3980048Y572725D01*
X3980702Y572900D01*
X3981255Y573125D01*
X3981707Y573400D01*
X3982060Y573725D01*
X3982311Y574100D01*
X3982462Y574525D01*
X3982513Y575000D01*
Y565000D01*
X3982462Y565475D01*
X3982311Y565900D01*
X3982060Y566275D01*
X3981707Y566600D01*
X3981255Y566875D01*
X3980702Y567100D01*
X3980048Y567275D01*
X3979293Y567400D01*
X3978438Y567475D01*
X3977482Y567500D01*
Y572500D01*
D02*
G37*
G36*
X4022518Y567500D02*
X4021562Y567475D01*
X4020707Y567400D01*
X4019952Y567275D01*
X4019298Y567100D01*
X4018745Y566875D01*
X4018292Y566600D01*
X4017940Y566275D01*
X4017689Y565900D01*
X4017538Y565475D01*
X4017487Y565000D01*
Y575000D01*
X4017538Y574525D01*
X4017689Y574100D01*
X4017940Y573725D01*
X4018292Y573400D01*
X4018745Y573125D01*
X4019298Y572900D01*
X4019952Y572725D01*
X4020707Y572600D01*
X4021562Y572525D01*
X4022518Y572500D01*
Y567500D01*
D02*
G37*
G36*
X4222518Y17500D02*
X4221562Y17475D01*
X4220707Y17400D01*
X4219952Y17275D01*
X4219298Y17100D01*
X4218745Y16875D01*
X4218292Y16600D01*
X4217940Y16275D01*
X4217689Y15900D01*
X4217538Y15475D01*
X4217487Y15000D01*
Y25000D01*
X4217538Y24525D01*
X4217689Y24100D01*
X4217940Y23725D01*
X4218292Y23400D01*
X4218745Y23125D01*
X4219298Y22900D01*
X4219952Y22725D01*
X4220707Y22600D01*
X4221562Y22525D01*
X4222518Y22500D01*
Y17500D01*
D02*
G37*
G36*
X4564982Y22500D02*
X4565938Y22525D01*
X4566793Y22600D01*
X4567548Y22725D01*
X4568202Y22900D01*
X4568755Y23125D01*
X4569207Y23400D01*
X4569560Y23725D01*
X4569811Y24100D01*
X4569962Y24525D01*
X4570013Y25000D01*
Y15000D01*
X4569962Y15475D01*
X4569811Y15900D01*
X4569560Y16275D01*
X4569207Y16600D01*
X4568755Y16875D01*
X4568202Y17100D01*
X4567548Y17275D01*
X4566793Y17400D01*
X4565938Y17475D01*
X4564982Y17500D01*
Y22500D01*
D02*
G37*
G36*
X4380479Y551740D02*
X4380920Y552531D01*
X4381922Y554617D01*
X4382149Y555217D01*
X4382323Y555769D01*
X4382443Y556273D01*
X4382509Y556730D01*
X4382522Y557139D01*
X4382482Y557500D01*
X4390963Y555174D01*
X4390385Y555023D01*
X4389817Y554802D01*
X4389262Y554512D01*
X4388719Y554152D01*
X4388188Y553723D01*
X4387668Y553225D01*
X4387161Y552657D01*
X4386665Y552019D01*
X4386182Y551312D01*
X4385710Y550535D01*
X4380479Y551740D01*
D02*
G37*
G36*
X4422518Y567500D02*
X4421562Y567475D01*
X4420707Y567400D01*
X4419952Y567275D01*
X4419298Y567100D01*
X4418745Y566875D01*
X4418292Y566600D01*
X4417940Y566275D01*
X4417689Y565900D01*
X4417538Y565475D01*
X4417487Y565000D01*
Y575000D01*
X4417538Y574525D01*
X4417689Y574100D01*
X4417940Y573725D01*
X4418292Y573400D01*
X4418745Y573125D01*
X4419298Y572900D01*
X4419952Y572725D01*
X4420707Y572600D01*
X4421562Y572525D01*
X4422518Y572500D01*
Y567500D01*
D02*
G37*
G36*
X4602500Y40018D02*
X4602518Y39142D01*
X4602660Y37591D01*
X4602785Y36917D01*
X4602945Y36310D01*
X4603141Y35769D01*
X4603372Y35296D01*
X4603639Y34891D01*
X4603942Y34552D01*
X4604280Y34280D01*
X4595719D01*
X4596058Y34552D01*
X4596360Y34891D01*
X4596628Y35296D01*
X4596859Y35769D01*
X4597055Y36310D01*
X4597215Y36917D01*
X4597339Y37591D01*
X4597429Y38333D01*
X4597482Y39142D01*
X4597500Y40018D01*
X4602500D01*
D02*
G37*
G36*
X4959982Y22500D02*
X4960938Y22525D01*
X4961793Y22600D01*
X4962548Y22725D01*
X4963202Y22900D01*
X4963755Y23125D01*
X4964207Y23400D01*
X4964560Y23725D01*
X4964811Y24100D01*
X4964962Y24525D01*
X4965013Y25000D01*
Y15000D01*
X4964962Y15475D01*
X4964811Y15900D01*
X4964560Y16275D01*
X4964207Y16600D01*
X4963755Y16875D01*
X4963202Y17100D01*
X4962548Y17275D01*
X4961793Y17400D01*
X4960938Y17475D01*
X4959982Y17500D01*
Y22500D01*
D02*
G37*
G36*
X4997500Y40018D02*
X4997518Y39142D01*
X4997660Y37591D01*
X4997785Y36917D01*
X4997945Y36310D01*
X4998141Y35769D01*
X4998372Y35296D01*
X4998639Y34891D01*
X4998942Y34552D01*
X4999280Y34280D01*
X4990719D01*
X4991058Y34552D01*
X4991360Y34891D01*
X4991628Y35296D01*
X4991859Y35769D01*
X4992055Y36310D01*
X4992215Y36917D01*
X4992339Y37591D01*
X4992429Y38333D01*
X4992482Y39142D01*
X4992500Y40018D01*
X4997500D01*
D02*
G37*
G36*
X4767482Y572500D02*
X4768438Y572525D01*
X4769293Y572600D01*
X4770048Y572725D01*
X4770702Y572900D01*
X4771255Y573125D01*
X4771707Y573400D01*
X4772060Y573725D01*
X4772311Y574100D01*
X4772462Y574525D01*
X4772513Y575000D01*
Y565000D01*
X4772462Y565475D01*
X4772311Y565900D01*
X4772060Y566275D01*
X4771707Y566600D01*
X4771255Y566875D01*
X4770702Y567100D01*
X4770048Y567275D01*
X4769293Y567400D01*
X4768438Y567475D01*
X4767482Y567500D01*
Y572500D01*
D02*
G37*
G36*
X4800000Y549982D02*
X4799982Y550858D01*
X4799839Y552409D01*
X4799715Y553083D01*
X4799555Y553690D01*
X4799359Y554231D01*
X4799128Y554704D01*
X4798860Y555109D01*
X4798558Y555448D01*
X4798219Y555720D01*
X4806780D01*
X4806442Y555448D01*
X4806139Y555109D01*
X4805872Y554704D01*
X4805641Y554231D01*
X4805445Y553690D01*
X4805285Y553083D01*
X4805160Y552409D01*
X4805071Y551667D01*
X4805018Y550858D01*
X4805000Y549982D01*
X4800000D01*
D02*
G37*
G36*
X5187500Y116818D02*
X5187455Y117646D01*
X5187321Y118481D01*
X5187095Y119321D01*
X5186780Y120167D01*
X5186375Y121018D01*
X5185880Y121875D01*
X5185295Y122737D01*
X5184620Y123605D01*
X5183856Y124479D01*
X5183000Y125359D01*
X5197000D01*
X5196145Y124479D01*
X5194705Y122737D01*
X5194120Y121875D01*
X5193625Y121018D01*
X5193220Y120167D01*
X5192905Y119321D01*
X5192680Y118481D01*
X5192545Y117646D01*
X5192500Y116818D01*
X5187500D01*
D02*
G37*
G36*
X5205526Y132228D02*
X5204733Y131862D01*
X5203939Y131437D01*
X5203143Y130953D01*
X5201548Y129810D01*
X5200748Y129150D01*
X5199144Y127654D01*
X5198339Y126818D01*
X5197534Y125924D01*
X5196726Y139901D01*
X5197654Y139110D01*
X5198564Y138443D01*
X5199455Y137900D01*
X5200326Y137482D01*
X5201179Y137188D01*
X5202011Y137017D01*
X5202825Y136971D01*
X5203620Y137049D01*
X5204396Y137250D01*
X5205153Y137576D01*
X5205526Y132228D01*
D02*
G37*
G36*
X5149982Y572500D02*
X5150938Y572525D01*
X5151793Y572600D01*
X5152548Y572725D01*
X5153201Y572900D01*
X5153755Y573125D01*
X5154208Y573400D01*
X5154560Y573725D01*
X5154811Y574100D01*
X5154962Y574525D01*
X5155012Y575000D01*
Y565000D01*
X5154962Y565475D01*
X5154811Y565900D01*
X5154560Y566275D01*
X5154208Y566600D01*
X5153755Y566875D01*
X5153201Y567100D01*
X5152548Y567275D01*
X5151793Y567400D01*
X5150938Y567475D01*
X5149982Y567500D01*
Y572500D01*
D02*
G37*
G36*
X5182500Y549982D02*
X5182482Y550858D01*
X5182339Y552409D01*
X5182215Y553083D01*
X5182054Y553690D01*
X5181859Y554231D01*
X5181627Y554704D01*
X5181360Y555109D01*
X5181058Y555448D01*
X5180720Y555720D01*
X5189280D01*
X5188942Y555448D01*
X5188640Y555109D01*
X5188372Y554704D01*
X5188141Y554231D01*
X5187945Y553690D01*
X5187784Y553083D01*
X5187660Y552409D01*
X5187571Y551667D01*
X5187518Y550858D01*
X5187500Y549982D01*
X5182500D01*
D02*
G37*
D22*
X5025000Y290000D02*
G03*
X5035000Y280000I10000J0D01*
G01*
X5025000Y399600D02*
G03*
X5009600Y415000I-15400J0D01*
G01*
X3830000Y405000D02*
G03*
X3855000Y380000I25000J0D01*
G01*
X3825000Y105400D02*
G03*
X3910400Y20000I85400J0D01*
G01*
X3825000Y225000D02*
G03*
X3800000Y250000I-25000J0D01*
G01*
X702221Y510000D02*
G03*
X651387Y459166I0J-50834D01*
G01*
X625987Y365000D02*
G03*
X651387Y390400I0J25400D01*
G01*
X480000Y380000D02*
G03*
X495000Y365000I15000J0D01*
G01*
X5080000Y421364D02*
G03*
X5046364Y455000I-33636J0D01*
G01*
X5118674Y155000D02*
G03*
X5150000Y186326I0J31326D01*
G01*
X4580000Y440400D02*
G03*
X4605400Y415000I25400J0D01*
G01*
X2624809Y441633D02*
G03*
X2623120Y444483I-4903J-979D01*
G01*
X2626856Y437787D02*
G03*
X2636000Y434000I9144J9143D01*
G01*
X2624811Y441621D02*
G03*
X2626856Y437787I7323J1444D01*
G01*
X2623120Y444483D02*
G03*
X2607906Y450000I-15192J-18159D01*
G01*
X3400000Y420801D02*
G03*
X3400000Y420816I-13199J0D01*
G01*
D02*
G03*
X3386801Y434000I-13199J-16D01*
G01*
X2285000Y420000D02*
G03*
X2260000Y395000I0J-25000D01*
G01*
X2245000Y380000D02*
G03*
X2260000Y395000I0J15000D01*
G01*
X2185000D02*
G03*
X2200000Y380000I15000J0D01*
G01*
X2185000Y395000D02*
G03*
X2175000Y405000I-10000J0D01*
G01*
X3580000Y520000D02*
G03*
X3597500Y537500I0J17500D01*
G01*
X3550400Y520000D02*
G03*
X3525000Y494600I0J-25400D01*
G01*
X3380000Y415000D02*
G03*
X3375000Y420000I-5000J0D01*
G01*
X1470000Y485000D02*
G03*
X1465000Y480000I0J-5000D01*
G01*
X495000Y170000D02*
G03*
X510000Y155000I15000J0D01*
G01*
X495000Y170000D02*
G03*
X485000Y180000I-10000J0D01*
G01*
X677500Y121712D02*
G03*
X644212Y155000I-33288J0D01*
G01*
X3450000Y409600D02*
G03*
X3414600Y445000I-35400J0D01*
G01*
X2640000Y465400D02*
G03*
X2660400Y445000I20400J0D01*
G01*
X2085000Y375000D02*
G03*
X2095000Y365000I10000J0D01*
G01*
X2265000Y335000D02*
G03*
X2235000Y365000I-30000J0D01*
G01*
X2250000Y150000D02*
G03*
X2275000Y125000I25000J0D01*
G01*
X2250000Y274600D02*
G03*
X2209600Y315000I-40400J0D01*
G01*
X480000Y340000D02*
G03*
X495000Y325000I15000J0D01*
G01*
X480000Y350000D02*
G03*
X470000Y360000I-10000J0D01*
G01*
X480000Y380000D02*
G03*
X470000Y390000I-10000J0D01*
G01*
X3955000Y112229D02*
G03*
X3992229Y75000I37229J0D01*
G01*
X3955000Y266031D02*
G03*
X3911031Y310000I-43969J0D01*
G01*
X5170000Y515000D02*
G03*
X5150000Y495000I0J-20000D01*
G01*
X5170000Y515000D02*
G03*
X5185000Y530000I0J15000D01*
G01*
X3730000Y360000D02*
G03*
X3720000Y370000I-10000J0D01*
G01*
X3730000Y360000D02*
G03*
X3745000Y345000I15000J0D01*
G01*
X3740000Y385000D02*
G03*
X3760000Y365000I20000J0D01*
G01*
X3740000Y385000D02*
G03*
X3725000Y400000I-15000J0D01*
G01*
X4155000Y227183D02*
G03*
X4227183Y155000I72183J0D01*
G01*
X4155000Y312073D02*
G03*
X4102073Y365000I-52927J0D01*
G01*
X4995000Y84600D02*
G03*
X4969600Y110000I-25400J0D01*
G01*
X4035000Y135400D02*
G03*
X4060400Y110000I25400J0D01*
G01*
X4035000Y304575D02*
G03*
X3994575Y345000I-40425J0D01*
G01*
X5080000Y270000D02*
G03*
X5120000Y230000I40000J0D01*
G01*
X3660000Y320400D02*
G03*
X3700400Y280000I40400J0D01*
G01*
X2070400Y480000D02*
G03*
X2045000Y454600I0J-25400D01*
G01*
X2615000Y510000D02*
G03*
X2600000Y495000I0J-15000D01*
G01*
X2590000Y480000D02*
G03*
X2600000Y490000I0J10000D01*
G01*
X2630000D02*
G03*
X2615000Y475000I0J-15000D01*
G01*
X2605000Y465000D02*
G03*
X2615000Y475000I0J10000D01*
G01*
X3177100Y490000D02*
G03*
X3207500Y520400I0J30400D01*
G01*
X2085400Y465000D02*
G03*
X2060000Y439600I0J-25400D01*
G01*
X2160000Y495000D02*
G03*
X2190000Y525000I0J30000D01*
G01*
X2072360Y495000D02*
G03*
X2030000Y452640I0J-42360D01*
G01*
X1225000Y555000D02*
G03*
X1210000Y570000I-15000J0D01*
G01*
X1610000Y544600D02*
G03*
X1584600Y570000I-25400J0D01*
G01*
X2037100Y525000D02*
G03*
X2062500Y550400I0J25400D01*
G01*
X1920400Y525000D02*
G03*
X1895000Y499600I0J-25400D01*
G01*
X727900Y95000D02*
G03*
X702500Y69600I0J-25400D01*
G01*
X1117900Y100000D02*
G03*
X1092500Y74600I0J-25400D01*
G01*
X1507900Y110000D02*
G03*
X1482500Y84600I0J-25400D01*
G01*
X1910000Y570000D02*
G03*
X1890000Y550000I0J-20000D01*
G01*
X1864600Y510000D02*
G03*
X1890000Y535400I0J25400D01*
G01*
X400000Y355400D02*
G03*
X425400Y330000I25400J0D01*
G01*
X1232100Y535000D02*
G03*
X1257500Y560400I0J25400D01*
G01*
X315000Y535000D02*
G03*
X290000Y510000I0J-25000D01*
G01*
Y295400D02*
G03*
X315400Y270000I25400J0D01*
G01*
X290400Y570000D02*
G03*
X265000Y544600I0J-25400D01*
G01*
Y235400D02*
G03*
X290400Y210000I25400J0D01*
G01*
X1837500Y117100D02*
G03*
X1804600Y150000I-32900J0D01*
G01*
X810000Y175400D02*
G03*
X835400Y150000I25400J0D01*
G01*
X810000Y299600D02*
G03*
X784600Y325000I-25400J0D01*
G01*
X1457500Y109600D02*
G03*
X1432100Y135000I-25400J0D01*
G01*
X755000Y160400D02*
G03*
X780400Y135000I25400J0D01*
G01*
X755000Y274600D02*
G03*
X729600Y300000I-25400J0D01*
G01*
X1067500Y84600D02*
G03*
X1042100Y110000I-25400J0D01*
G01*
X710000Y135400D02*
G03*
X735400Y110000I25400J0D01*
G01*
X710000Y214600D02*
G03*
X684600Y240000I-25400J0D01*
G01*
X565000Y464600D02*
G03*
X539600Y490000I-25400J0D01*
G01*
X690000Y480579D02*
G03*
X688166Y482414I-1834J0D01*
G01*
X1070000Y483027D02*
G03*
X1068998Y484030I-1002J0D01*
G01*
X5194600Y132500D02*
G03*
X5220000Y157900I0J25400D01*
G01*
X5050400Y570000D02*
G03*
X5025000Y544600I0J-25400D01*
G01*
X4999600Y480000D02*
G03*
X5025000Y505400I0J25400D01*
G01*
X3915000Y70400D02*
G03*
X3940400Y45000I25400J0D01*
G01*
X4212500Y20000D02*
G03*
X4187500Y45000I-25000J0D01*
G01*
X5164600Y20000D02*
G03*
X5190000Y45400I0J25400D01*
G01*
X4777100Y515000D02*
G03*
X4802500Y540400I0J25400D01*
G01*
X3705400Y515000D02*
G03*
X3680000Y489600I0J-25400D01*
G01*
Y365400D02*
G03*
X3705400Y340000I25400J0D01*
G01*
X3700400Y540000D02*
G03*
X3660000Y499600I0J-40400D01*
G01*
X3645000Y255400D02*
G03*
X3680400Y220000I35400J0D01*
G01*
Y570000D02*
G03*
X3645000Y534600I0J-35400D01*
G01*
X4600000Y49600D02*
G03*
X4574600Y75000I-25400J0D01*
G01*
X4362100Y540000D02*
G03*
X4387500Y565400I0J25400D01*
G01*
X3710000Y45400D02*
G03*
X3735400Y20000I25400J0D01*
G01*
X3407500Y119600D02*
G03*
X3382100Y145000I-25400J0D01*
G01*
X2265000Y170400D02*
G03*
X2290400Y145000I25400J0D01*
G01*
X2060000Y370000D02*
G03*
X2085000Y345000I25000J0D01*
G01*
X2045000Y318752D02*
G03*
X2084926Y285406I33888J-0D01*
G01*
X3017500Y99600D02*
G03*
X2992100Y125000I-25400J0D01*
G01*
X2792100Y510000D02*
G03*
X2817500Y535400I0J25400D01*
G01*
X2030000Y260400D02*
G03*
X2065400Y225000I35400J0D01*
G01*
X2627500Y64600D02*
G03*
X2602100Y90000I-25400J0D01*
G01*
X2185000Y115400D02*
G03*
X2210400Y90000I25400J0D01*
G01*
X2185000Y229600D02*
G03*
X2159600Y255000I-25400J0D01*
G01*
X2215400Y570000D02*
G03*
X2190000Y544600I0J-25400D01*
G01*
X2085000Y45400D02*
G03*
X2110400Y20000I25400J0D01*
G01*
X3575000Y560000D02*
G03*
X3555000Y580000I-20000J0D01*
G01*
X3242500D02*
G03*
X3232500Y570000I0J-10000D01*
G01*
X3180000Y555000D02*
G03*
X3155000Y580000I-25000J0D01*
G01*
X2785000Y555000D02*
G03*
X2760000Y580000I-25000J0D01*
G01*
X3597100Y135000D02*
G03*
X3622500Y160400I0J25400D01*
G01*
X3539600Y10000D02*
G03*
X3565000Y35400I0J25400D01*
G01*
X3370000Y10000D02*
G03*
X3385000Y25000I0J15000D01*
G01*
X3042500Y20000D02*
G03*
X3052500Y10000I10000J0D01*
G01*
X2975000D02*
G03*
X2995000Y30000I0J20000D01*
G01*
X2580000Y10000D02*
G03*
X2595000Y25000I0J15000D01*
G01*
X3020000Y470000D02*
G03*
X3030000Y460000I10000J0D01*
G01*
X3475000Y434600D02*
G03*
X3449600Y460000I-25400J0D01*
G01*
X3505000Y469600D02*
G03*
X3479600Y495000I-25400J0D01*
G01*
X5025000Y290000D02*
Y399600D01*
X3830000Y405000D02*
Y495000D01*
X3825000Y105400D02*
Y225000D01*
X3710000Y250000D02*
X3800000D01*
X651387Y390400D02*
Y459166D01*
X495000Y365000D02*
X625987D01*
X702221Y510000D02*
X1864600D01*
X4980000Y455000D02*
X5046364D01*
X5080000Y270000D02*
Y421364D01*
X4227183Y155000D02*
X5118674D01*
X5150000Y186326D02*
Y495000D01*
X4605400Y415000D02*
X5009600D01*
X4580000Y440400D02*
Y455000D01*
X2607906Y450000D02*
Y450000D01*
X2624809Y441633D02*
X2624811Y441621D01*
X2240000Y450000D02*
X2607906D01*
X3385000Y434000D02*
X3386801D01*
X3400000Y345000D02*
Y420801D01*
X2315000Y420000D02*
X3375000Y420000D01*
X2285000Y420000D02*
X2315000D01*
X2200000Y380000D02*
X2245000D01*
X2085000Y405000D02*
X2175000D01*
X3597500Y537500D02*
Y570000D01*
X3550400Y520000D02*
X3580000D01*
X3525000Y470000D02*
Y494600D01*
X1870000Y145000D02*
Y489459D01*
X565000Y425000D02*
Y464600D01*
X1465000Y235000D02*
Y480000D01*
X1470000Y484459D02*
Y485000D01*
X510000Y155000D02*
X644212D01*
X460000Y180000D02*
X485000D01*
X677500Y20000D02*
Y121712D01*
X2655844Y434000D02*
X3385000Y434000D01*
X2636000Y434000D02*
X2655844D01*
X3445000Y285000D02*
X3450000Y290000D01*
Y409600D01*
X2660400Y445000D02*
X3414600D01*
X2095000Y365000D02*
X2235000D01*
X2265000Y170400D02*
Y335000D01*
X2250000Y150000D02*
Y274600D01*
X2275000Y125000D02*
X2992100D01*
X495000Y325000D02*
X784600D01*
X480000Y340000D02*
Y350000D01*
X460000Y360000D02*
X470000D01*
X460000Y390000D02*
X470000D01*
X3955000Y112229D02*
Y266031D01*
X3992229Y75000D02*
X4574600D01*
X5185000Y530000D02*
Y570000D01*
X1865000Y494459D02*
X1870000Y489459D01*
X1865000Y494459D02*
Y495000D01*
X3710000Y370000D02*
X3720000D01*
X3755000Y345000D02*
X3994575Y345000D01*
X3745000Y345000D02*
X3755000D01*
X3775000Y365000D02*
X4102073Y365000D01*
X3760000Y365000D02*
X3775000D01*
X3710000Y400000D02*
X3725000D01*
X4155000Y227183D02*
Y312073D01*
X4075000Y110000D02*
X4969600Y110000D01*
X4060400Y110000D02*
X4075000D01*
X4995000Y20000D02*
Y84600D01*
X4035000Y135400D02*
Y304575D01*
X3710000Y396163D02*
Y400000D01*
X4200000Y345000D02*
Y485000D01*
X3700400Y280000D02*
X3710000D01*
X3660000Y320400D02*
Y499600D01*
X2045000Y441327D02*
Y454600D01*
X2070400Y480000D02*
X2590000D01*
X2045000Y441327D02*
X2045000D01*
X2615000Y510000D02*
X2792100D01*
X2600000Y490000D02*
Y495000D01*
X2630000Y490000D02*
X3177100D01*
X2085400Y465000D02*
X2605000D01*
X2060000Y370000D02*
Y439600D01*
X2045000Y318752D02*
Y441305D01*
X2045000Y441327D02*
X2045000Y441305D01*
X2072360Y495000D02*
X2160000D01*
X2190000Y525000D02*
Y544600D01*
X1282500Y570000D02*
X1584600D01*
X892500D02*
X1210000D01*
X1625000Y490000D02*
X1660000D01*
X1610000Y530000D02*
Y544600D01*
X1920400Y525000D02*
X2037100D01*
X1895000Y475000D02*
Y499600D01*
X2062500Y550400D02*
Y570000D01*
X702500Y20000D02*
Y69600D01*
X727900Y95000D02*
X1045000D01*
X1092500Y20000D02*
Y74600D01*
X1117900Y100000D02*
X1430000D01*
X1482500Y20000D02*
Y84600D01*
X1507900Y110000D02*
X1755000D01*
X1910000Y570000D02*
X2037500D01*
X1890000Y535400D02*
Y550000D01*
X400000Y355400D02*
Y460000D01*
X425400Y330000D02*
X460000D01*
X315000Y535000D02*
X1232100D01*
X290000Y295400D02*
Y510000D01*
X315400Y270000D02*
X460000D01*
X1257500Y560400D02*
Y570000D01*
X290400D02*
X867500D01*
X265000Y235400D02*
Y544600D01*
X290400Y210000D02*
X460000D01*
X1837500Y20000D02*
Y117100D01*
X835400Y150000D02*
X1804600D01*
X810000Y175400D02*
Y299600D01*
X1457500Y20000D02*
Y109600D01*
X780400Y135000D02*
X1432100D01*
X755000Y160400D02*
Y274600D01*
X460000Y300000D02*
X729600D01*
X1067500Y20000D02*
Y84600D01*
X735400Y110000D02*
X1042100D01*
X710000Y135400D02*
Y214600D01*
X460000Y240000D02*
X684600D01*
X315000Y490000D02*
X539600D01*
X690000Y345000D02*
Y480579D01*
X1070000Y285000D02*
Y483027D01*
X5190000Y132500D02*
X5194600D01*
X5050400Y570000D02*
X5160000D01*
X5220000Y157900D02*
Y185000D01*
X5025000Y505400D02*
Y544600D01*
X4915000Y480000D02*
X4999600D01*
X4412500Y570000D02*
X4777500D01*
X4012500D02*
X4350000D01*
X3915000Y70400D02*
Y120000D01*
X3940400Y45000D02*
X4187500D01*
X4212500Y20000D02*
X4575000D01*
X4625000D02*
X4970000D01*
X5025500D02*
X5164600D01*
X5190000Y45400D02*
Y132500D01*
X3710000Y310000D02*
X3911031D01*
X4802500Y540400D02*
Y570000D01*
X3705400Y515000D02*
X4777100D01*
X3680000Y365400D02*
Y489600D01*
X3705400Y340000D02*
X3710000D01*
X3645000Y255400D02*
Y534600D01*
X4600000Y20000D02*
Y49600D01*
X3700400Y540000D02*
X4362100D01*
X4387500Y565400D02*
Y570000D01*
X3910400Y20000D02*
X4187500D01*
X3680400Y570000D02*
X3987500D01*
X3680400Y220000D02*
X3710000D01*
X3735400Y20000D02*
X3787500D01*
X3710000Y45400D02*
Y190000D01*
X3407500Y20000D02*
Y119600D01*
X2290400Y145000D02*
X3382100D01*
X3207500Y520400D02*
Y570000D01*
X3017500Y20000D02*
Y99600D01*
X2085000Y315000D02*
X2209600D01*
X2817500Y535400D02*
Y570000D01*
X2030000Y260400D02*
Y452640D01*
X2627500Y20000D02*
Y64600D01*
X2210400Y90000D02*
X2602100D01*
X2185000Y115400D02*
Y229600D01*
X2085000Y255000D02*
X2159600D01*
X2215400Y570000D02*
X2427500D01*
X2065400Y225000D02*
X2085000D01*
Y45400D02*
Y195000D01*
X2110400Y20000D02*
X2237500D01*
X3575000Y555000D02*
Y560000D01*
X3242500Y580000D02*
X3555000D01*
X2840000D02*
X3155000D01*
X2450000D02*
X2760000D01*
X3565000Y135000D02*
X3597100D01*
X3622500Y160400D02*
Y570000D01*
X3430000Y10000D02*
X3539600D01*
X3565000Y35400D02*
Y135000D01*
X3052500Y10000D02*
X3370000D01*
X3385000Y25000D02*
Y30000D01*
X2650000Y10000D02*
X2975000D01*
X2260000D02*
X2580000D01*
X3030000Y460000D02*
X3449600Y460000D01*
X3020000Y470000D02*
Y475000D01*
X3475000Y225000D02*
Y434600D01*
X3020000Y475000D02*
X3020383Y474617D01*
X2640000Y465400D02*
Y475000D01*
X3445000Y495000D02*
X3479600D01*
X3505000Y175000D02*
Y469600D01*
D23*
X3855000Y190000D02*
D03*
Y410000D02*
D03*
X1795000Y190000D02*
D03*
Y410000D02*
D03*
X595000Y190000D02*
D03*
Y410000D02*
D03*
X3425000D02*
D03*
X5055000D02*
D03*
X2225000D02*
D03*
X3425000Y190000D02*
D03*
X5055000D02*
D03*
X2225000D02*
D03*
D24*
X3017500Y20000D02*
D03*
X3042500D02*
D03*
X3407500D02*
D03*
X3432500D02*
D03*
X3597500Y570000D02*
D03*
X3622500D02*
D03*
X1257500D02*
D03*
X1282500D02*
D03*
X1457500Y20000D02*
D03*
X1482500D02*
D03*
X4387500Y570000D02*
D03*
X4187500Y20000D02*
D03*
X3987500Y570000D02*
D03*
X3787500Y20000D02*
D03*
X702500D02*
D03*
X677500D02*
D03*
X892500Y570000D02*
D03*
X867500D02*
D03*
X1092500Y20000D02*
D03*
X1067500D02*
D03*
X2817500Y570000D02*
D03*
X2627500Y20000D02*
D03*
X2427500Y570000D02*
D03*
X2237500Y20000D02*
D03*
X4777500Y570000D02*
D03*
X4802500D02*
D03*
X4012500D02*
D03*
X4412500D02*
D03*
X2452500D02*
D03*
X2062500D02*
D03*
X2037500D02*
D03*
X3232500D02*
D03*
X3207500D02*
D03*
X2842500D02*
D03*
X1672500D02*
D03*
X1647500D02*
D03*
X4575000Y20000D02*
D03*
X4600000D02*
D03*
X4212500D02*
D03*
X3812500D02*
D03*
X2652500D02*
D03*
X1862500D02*
D03*
X1837500D02*
D03*
X2262500D02*
D03*
X4970000D02*
D03*
X4995000D02*
D03*
X5160000Y570000D02*
D03*
X5185000D02*
D03*
D25*
X3565000Y465000D02*
D03*
Y435000D02*
D03*
Y405000D02*
D03*
Y375000D02*
D03*
Y345000D02*
D03*
Y315000D02*
D03*
Y285000D02*
D03*
Y255000D02*
D03*
Y225000D02*
D03*
Y195000D02*
D03*
Y135000D02*
D03*
Y165000D02*
D03*
X460000Y180000D02*
D03*
Y210000D02*
D03*
Y240000D02*
D03*
Y270000D02*
D03*
Y300000D02*
D03*
Y330000D02*
D03*
Y390000D02*
D03*
Y360000D02*
D03*
X2085000Y195000D02*
D03*
Y225000D02*
D03*
Y255000D02*
D03*
Y285000D02*
D03*
Y315000D02*
D03*
Y345000D02*
D03*
Y405000D02*
D03*
Y375000D02*
D03*
X1940000Y162500D02*
D03*
Y132500D02*
D03*
Y192500D02*
D03*
Y222500D02*
D03*
Y252500D02*
D03*
Y282500D02*
D03*
Y312500D02*
D03*
Y342500D02*
D03*
Y372500D02*
D03*
Y402500D02*
D03*
Y432500D02*
D03*
Y462500D02*
D03*
X3710000Y190000D02*
D03*
Y220000D02*
D03*
Y250000D02*
D03*
Y280000D02*
D03*
Y310000D02*
D03*
Y340000D02*
D03*
Y400000D02*
D03*
Y370000D02*
D03*
X5190000Y162500D02*
D03*
Y132500D02*
D03*
Y192500D02*
D03*
Y222500D02*
D03*
Y252500D02*
D03*
Y282500D02*
D03*
Y312500D02*
D03*
Y342500D02*
D03*
Y372500D02*
D03*
Y402500D02*
D03*
Y432500D02*
D03*
Y462500D02*
D03*
D26*
X3855000Y380000D02*
D03*
X3830000Y495000D02*
D03*
X4580000Y455000D02*
D03*
X2240000Y450000D02*
D03*
X1870000Y145000D02*
D03*
X3400000Y345000D02*
D03*
X3380000Y415000D02*
D03*
X1465000Y235000D02*
D03*
X565000Y425000D02*
D03*
X5035000Y280000D02*
D03*
X4200000Y345000D02*
D03*
X5120000Y230000D02*
D03*
X680000Y30000D02*
D03*
Y10000D02*
D03*
X700000D02*
D03*
Y30000D02*
D03*
X1070000D02*
D03*
Y10000D02*
D03*
X1090000D02*
D03*
Y30000D02*
D03*
X1480000Y10000D02*
D03*
X1460000D02*
D03*
Y30000D02*
D03*
X1480000D02*
D03*
X1860000D02*
D03*
Y10000D02*
D03*
X1840000D02*
D03*
Y30000D02*
D03*
X2630000D02*
D03*
X3020000D02*
D03*
X3040000D02*
D03*
X3410000D02*
D03*
X3430000D02*
D03*
X4210000D02*
D03*
X4970000D02*
D03*
X4995000Y10000D02*
D03*
Y30000D02*
D03*
X5160000Y560000D02*
D03*
X4800000D02*
D03*
X4780000D02*
D03*
X4410000D02*
D03*
X3620000D02*
D03*
X3600000D02*
D03*
X3230000D02*
D03*
X3210000D02*
D03*
X2820000D02*
D03*
X2840000D02*
D03*
X2060000Y580000D02*
D03*
Y560000D02*
D03*
X2040000D02*
D03*
Y580000D02*
D03*
X1650000D02*
D03*
Y560000D02*
D03*
X1670000D02*
D03*
Y580000D02*
D03*
X1280000D02*
D03*
Y560000D02*
D03*
X1260000D02*
D03*
Y580000D02*
D03*
X890000D02*
D03*
Y560000D02*
D03*
X870000D02*
D03*
Y580000D02*
D03*
X1225000Y555000D02*
D03*
X1660000Y490000D02*
D03*
X1625000D02*
D03*
X1610000Y530000D02*
D03*
X1895000Y475000D02*
D03*
X1045000Y95000D02*
D03*
X1430000Y100000D02*
D03*
X1755000Y110000D02*
D03*
X400000Y460000D02*
D03*
X315000Y490000D02*
D03*
X688166Y482414D02*
D03*
X690000Y345000D02*
D03*
X1068998Y484030D02*
D03*
X1070000Y285000D02*
D03*
X1470000Y485000D02*
D03*
X1865000Y495000D02*
D03*
X5220000Y185000D02*
D03*
X4915000Y480000D02*
D03*
X4350000Y570000D02*
D03*
X3915000Y120000D02*
D03*
X4600000Y30000D02*
D03*
X4575000D02*
D03*
X4625000Y20000D02*
D03*
X5025500D02*
D03*
X5185000Y580000D02*
D03*
Y560000D02*
D03*
X4575000Y10000D02*
D03*
X4200000Y485000D02*
D03*
X4980000Y455000D02*
D03*
X3525000Y470000D02*
D03*
X3575000Y555000D02*
D03*
X3180000D02*
D03*
X2785000D02*
D03*
X3385000Y30000D02*
D03*
X2995000D02*
D03*
X2595000Y25000D02*
D03*
X3040000Y10000D02*
D03*
X3020000D02*
D03*
X3430000D02*
D03*
X3410000D02*
D03*
X3020000Y475000D02*
D03*
X2640000D02*
D03*
X3445000Y285000D02*
D03*
X3475000Y225000D02*
D03*
X3445000Y495000D02*
D03*
X3505000Y175000D02*
D03*
X3790000Y30000D02*
D03*
Y10000D02*
D03*
X4190000D02*
D03*
Y30000D02*
D03*
X3990000Y560000D02*
D03*
X4390000Y580000D02*
D03*
Y560000D02*
D03*
X3990000Y580000D02*
D03*
X2450000Y560000D02*
D03*
Y580000D02*
D03*
X2840000D02*
D03*
X3230000D02*
D03*
X3210000D02*
D03*
X3600000D02*
D03*
X3620000D02*
D03*
X4010000D02*
D03*
Y560000D02*
D03*
X4410000Y580000D02*
D03*
X4800000D02*
D03*
X4780000D02*
D03*
X5160000D02*
D03*
X4970000Y10000D02*
D03*
X4600000D02*
D03*
X4210000D02*
D03*
X3810000Y30000D02*
D03*
Y10000D02*
D03*
X2650000Y30000D02*
D03*
Y10000D02*
D03*
X2260000Y30000D02*
D03*
Y10000D02*
D03*
X2240000Y30000D02*
D03*
Y10000D02*
D03*
X2630000D02*
D03*
X2820000Y580000D02*
D03*
X2430000D02*
D03*
Y560000D02*
D03*
D27*
X5171000Y491000D02*
D03*
X5171000Y101000D02*
D03*
X3729000Y161500D02*
D03*
X3729000Y431500D02*
D03*
X1921000Y491000D02*
D03*
X1921000Y101000D02*
D03*
X2104000Y166500D02*
D03*
X2104000Y436500D02*
D03*
X479000Y151500D02*
D03*
X479000Y421500D02*
D03*
X3546000Y103500D02*
D03*
X3546000Y493500D02*
D03*
M02*
