G04*
G04 #@! TF.GenerationSoftware,Altium Limited,Altium Designer,23.11.1 (41)*
G04*
G04 Layer_Color=32896*
%FSLAX44Y44*%
%MOMM*%
G71*
G04*
G04 #@! TF.SameCoordinates,E848B6B2-DE5D-4BFB-9761-CE4878549778*
G04*
G04*
G04 #@! TF.FilePolarity,Positive*
G04*
G01*
G75*
%ADD12C,0.2000*%
%ADD18C,0.2540*%
D12*
X259900Y823650D02*
G03*
X272600Y823650I6350J0D01*
G01*
X32100Y615150D02*
G03*
X19400Y615150I-6350J0D01*
G01*
X32100Y310350D02*
G03*
X19400Y310350I-6350J0D01*
G01*
X259900Y625850D02*
G03*
X272600Y625850I6350J0D01*
G01*
X259900Y321050D02*
G03*
X272600Y321050I6350J0D01*
G01*
X32100Y5550D02*
G03*
X19400Y5550I-6350J0D01*
G01*
X253300Y823600D02*
X278700D01*
Y613600D02*
Y823600D01*
X253300Y613600D02*
Y823600D01*
Y613600D02*
X278700D01*
X13300Y615200D02*
X38700D01*
X13300D02*
Y825200D01*
X38700Y615200D02*
Y825200D01*
X13300D02*
X38700D01*
Y310400D02*
Y620400D01*
X13300D02*
X38700D01*
X13300Y310400D02*
Y620400D01*
Y310400D02*
X38700D01*
X253300Y315800D02*
Y625800D01*
Y315800D02*
X278700D01*
Y625800D01*
X253300D02*
X278700D01*
X253300Y11000D02*
Y321000D01*
Y11000D02*
X278700D01*
Y321000D01*
X253300D02*
X278700D01*
X38700Y5600D02*
Y315600D01*
X13300D02*
X38700D01*
X13300Y5600D02*
Y315600D01*
Y5600D02*
X38700D01*
D18*
X24730Y302997D02*
X29808D01*
X27269D01*
Y290302D01*
X29808Y287763D01*
X32348D01*
X34887Y290302D01*
X19652Y287763D02*
X14573D01*
X17112D01*
Y302997D01*
X19652Y300458D01*
M02*
