G04*
G04 #@! TF.GenerationSoftware,Altium Limited,Altium Designer,23.11.1 (41)*
G04*
G04 Layer_Physical_Order=2*
G04 Layer_Color=16711680*
%FSLAX44Y44*%
%MOMM*%
G71*
G04*
G04 #@! TF.SameCoordinates,0FB1C921-45C3-47F9-AA3D-FF6924B8AFE5*
G04*
G04*
G04 #@! TF.FilePolarity,Positive*
G04*
G01*
G75*
%ADD19C,1.8000*%
D19*
X266000Y678600D02*
D03*
Y754800D02*
D03*
Y729400D02*
D03*
Y704000D02*
D03*
Y805600D02*
D03*
Y653200D02*
D03*
Y627800D02*
D03*
Y780200D02*
D03*
X26000Y760200D02*
D03*
Y684000D02*
D03*
Y709400D02*
D03*
Y734800D02*
D03*
Y633200D02*
D03*
Y785600D02*
D03*
Y811000D02*
D03*
Y658600D02*
D03*
Y353800D02*
D03*
Y607800D02*
D03*
Y582400D02*
D03*
Y557000D02*
D03*
Y531600D02*
D03*
Y506200D02*
D03*
Y480800D02*
D03*
Y328400D02*
D03*
Y430000D02*
D03*
Y404600D02*
D03*
Y379200D02*
D03*
Y455400D02*
D03*
X266000Y582400D02*
D03*
Y328400D02*
D03*
Y353800D02*
D03*
Y379200D02*
D03*
Y404600D02*
D03*
Y430000D02*
D03*
Y455400D02*
D03*
Y607800D02*
D03*
Y506200D02*
D03*
Y531600D02*
D03*
Y557000D02*
D03*
Y480800D02*
D03*
Y277600D02*
D03*
Y23600D02*
D03*
Y49000D02*
D03*
Y74400D02*
D03*
Y99800D02*
D03*
Y125200D02*
D03*
Y150600D02*
D03*
Y303000D02*
D03*
Y201400D02*
D03*
Y226800D02*
D03*
Y252200D02*
D03*
Y176000D02*
D03*
X26000Y49000D02*
D03*
Y303000D02*
D03*
Y277600D02*
D03*
Y252200D02*
D03*
Y226800D02*
D03*
Y201400D02*
D03*
Y176000D02*
D03*
Y23600D02*
D03*
Y125200D02*
D03*
Y99800D02*
D03*
Y74400D02*
D03*
Y150600D02*
D03*
M02*
