G04*
G04 #@! TF.GenerationSoftware,Altium Limited,Altium Designer,23.0.1 (38)*
G04*
G04 Layer_Color=16711935*
%FSLAX44Y44*%
%MOMM*%
G71*
G04*
G04 #@! TF.SameCoordinates,18B1AEC6-BE9E-41F1-A47B-BDB26C1829F8*
G04*
G04*
G04 #@! TF.FilePolarity,Negative*
G04*
G01*
G75*
%ADD20C,3.2040*%
%ADD21C,1.7240*%
G04:AMPARAMS|DCode=22|XSize=1.724mm|YSize=1.724mm|CornerRadius=0.482mm|HoleSize=0mm|Usage=FLASHONLY|Rotation=270.000|XOffset=0mm|YOffset=0mm|HoleType=Round|Shape=RoundedRectangle|*
%AMROUNDEDRECTD22*
21,1,1.7240,0.7600,0,0,270.0*
21,1,0.7600,1.7240,0,0,270.0*
1,1,0.9640,-0.3800,-0.3800*
1,1,0.9640,-0.3800,0.3800*
1,1,0.9640,0.3800,0.3800*
1,1,0.9640,0.3800,-0.3800*
%
%ADD22ROUNDEDRECTD22*%
G04:AMPARAMS|DCode=23|XSize=2.454mm|YSize=4.204mm|CornerRadius=0.6645mm|HoleSize=0mm|Usage=FLASHONLY|Rotation=180.000|XOffset=0mm|YOffset=0mm|HoleType=Round|Shape=RoundedRectangle|*
%AMROUNDEDRECTD23*
21,1,2.4540,2.8750,0,0,180.0*
21,1,1.1250,4.2040,0,0,180.0*
1,1,1.3290,-0.5625,1.4375*
1,1,1.3290,0.5625,1.4375*
1,1,1.3290,0.5625,-1.4375*
1,1,1.3290,-0.5625,-1.4375*
%
%ADD23ROUNDEDRECTD23*%
G04:AMPARAMS|DCode=24|XSize=1.724mm|YSize=1.724mm|CornerRadius=0.482mm|HoleSize=0mm|Usage=FLASHONLY|Rotation=180.000|XOffset=0mm|YOffset=0mm|HoleType=Round|Shape=RoundedRectangle|*
%AMROUNDEDRECTD24*
21,1,1.7240,0.7600,0,0,180.0*
21,1,0.7600,1.7240,0,0,180.0*
1,1,0.9640,-0.3800,0.3800*
1,1,0.9640,0.3800,0.3800*
1,1,0.9640,0.3800,-0.3800*
1,1,0.9640,-0.3800,-0.3800*
%
%ADD24ROUNDEDRECTD24*%
%ADD25C,4.0000*%
%ADD26C,0.9040*%
%ADD27C,0.6540*%
D20*
X3384750Y442100D02*
D03*
X2085000Y190000D02*
D03*
X3715000Y410000D02*
D03*
Y190000D02*
D03*
X2085000Y410000D02*
D03*
X455000D02*
D03*
Y190000D02*
D03*
X2040400Y152900D02*
D03*
X3389250D02*
D03*
X3690400D02*
D03*
X5034750Y442100D02*
D03*
X3981000D02*
D03*
X681000D02*
D03*
X1739250Y152900D02*
D03*
X1734750Y442100D02*
D03*
X2331000D02*
D03*
X390400Y152900D02*
D03*
D21*
X1639000Y179950D02*
D03*
Y230750D02*
D03*
Y256150D02*
D03*
Y306950D02*
D03*
Y332350D02*
D03*
Y357750D02*
D03*
Y408550D02*
D03*
Y383150D02*
D03*
Y281550D02*
D03*
Y205350D02*
D03*
Y154550D02*
D03*
Y129150D02*
D03*
X3289000Y179950D02*
D03*
Y230750D02*
D03*
Y256150D02*
D03*
Y306950D02*
D03*
Y332350D02*
D03*
Y357750D02*
D03*
Y408550D02*
D03*
Y383150D02*
D03*
Y281550D02*
D03*
Y205350D02*
D03*
Y154550D02*
D03*
Y129150D02*
D03*
X4939000Y179950D02*
D03*
Y230750D02*
D03*
Y256150D02*
D03*
Y306950D02*
D03*
Y332350D02*
D03*
Y357750D02*
D03*
Y408550D02*
D03*
Y383150D02*
D03*
Y281550D02*
D03*
Y205350D02*
D03*
Y154550D02*
D03*
Y129150D02*
D03*
X466600Y102900D02*
D03*
X492000D02*
D03*
X593600D02*
D03*
X619000D02*
D03*
X568200D02*
D03*
X542800D02*
D03*
X517400D02*
D03*
X3766600D02*
D03*
X3792000D02*
D03*
X3893600D02*
D03*
X3919000D02*
D03*
X3868200D02*
D03*
X3842800D02*
D03*
X3817400D02*
D03*
X2116600D02*
D03*
X2142000D02*
D03*
X2243600D02*
D03*
X2269000D02*
D03*
X2218200D02*
D03*
X2192800D02*
D03*
X2167400D02*
D03*
D22*
X1639000Y433950D02*
D03*
X3289000D02*
D03*
X4939000D02*
D03*
D23*
X1370000Y30000D02*
D03*
X1320000D02*
D03*
X570000Y27500D02*
D03*
X530000D02*
D03*
X777500Y567500D02*
D03*
X725000D02*
D03*
X965000Y30000D02*
D03*
X920000D02*
D03*
X1170000Y565000D02*
D03*
X1127500D02*
D03*
X1565000D02*
D03*
X1520000D02*
D03*
X1707500Y27500D02*
D03*
X1757500D02*
D03*
X1942500Y562500D02*
D03*
X1900000D02*
D03*
X2130000Y30000D02*
D03*
X2090000D02*
D03*
X2332500Y570000D02*
D03*
X2282500D02*
D03*
X2530000Y30000D02*
D03*
X2487500D02*
D03*
X2715000Y565000D02*
D03*
X2672500D02*
D03*
X2912500Y30000D02*
D03*
X2867500D02*
D03*
X3065000Y565000D02*
D03*
X3105000D02*
D03*
X3235000Y27500D02*
D03*
X3280000D02*
D03*
X3497500Y567500D02*
D03*
X3457500D02*
D03*
X3707500Y30000D02*
D03*
X3660000D02*
D03*
X3870000Y570000D02*
D03*
X3827500D02*
D03*
X4067500Y23955D02*
D03*
X4025000D02*
D03*
X4280000Y565000D02*
D03*
X4225000D02*
D03*
X4430000Y28545D02*
D03*
X4470000D02*
D03*
X4612500Y570000D02*
D03*
X4657500D02*
D03*
X4817500Y27500D02*
D03*
X4857500D02*
D03*
X5057500Y567500D02*
D03*
X5017500D02*
D03*
D24*
X644400Y102900D02*
D03*
X3944400D02*
D03*
X2294400D02*
D03*
D25*
X5029250Y152900D02*
D03*
D26*
X3856506Y188660D02*
D03*
D27*
X3487500Y177500D02*
D03*
X5225000Y175000D02*
D03*
X3590000D02*
D03*
X2312500Y172500D02*
D03*
X1980000Y162500D02*
D03*
X3840000Y455000D02*
D03*
X915000Y140000D02*
D03*
X752500Y142500D02*
D03*
X345000Y137500D02*
D03*
X265000Y120000D02*
D03*
X487500Y180000D02*
D03*
X487845Y272088D02*
D03*
X752500Y280000D02*
D03*
X2312500Y232500D02*
D03*
X4257500Y255000D02*
D03*
X4635000Y332500D02*
D03*
X2687500Y282500D02*
D03*
X351843Y214343D02*
D03*
X1150000Y332500D02*
D03*
X2687500Y172615D02*
D03*
X4635000Y137500D02*
D03*
X4257500D02*
D03*
X3077500Y164614D02*
D03*
X1537500Y382500D02*
D03*
X1900000Y222500D02*
D03*
X915000Y102500D02*
D03*
X2487500Y155000D02*
D03*
Y102500D02*
D03*
X1150000Y137500D02*
D03*
X1537500Y135000D02*
D03*
M02*
