G04*
G04 #@! TF.GenerationSoftware,Altium Limited,Altium Designer,24.1.2 (44)*
G04*
G04 Layer_Color=16711935*
%FSLAX44Y44*%
%MOMM*%
G71*
G04*
G04 #@! TF.SameCoordinates,4EF7A9BF-3FD3-496A-AEC1-EA50D433A576*
G04*
G04*
G04 #@! TF.FilePolarity,Negative*
G04*
G01*
G75*
%ADD17C,3.2040*%
%ADD18C,1.7240*%
G04:AMPARAMS|DCode=19|XSize=1.724mm|YSize=1.724mm|CornerRadius=0.482mm|HoleSize=0mm|Usage=FLASHONLY|Rotation=270.000|XOffset=0mm|YOffset=0mm|HoleType=Round|Shape=RoundedRectangle|*
%AMROUNDEDRECTD19*
21,1,1.7240,0.7600,0,0,270.0*
21,1,0.7600,1.7240,0,0,270.0*
1,1,0.9640,-0.3800,-0.3800*
1,1,0.9640,-0.3800,0.3800*
1,1,0.9640,0.3800,0.3800*
1,1,0.9640,0.3800,-0.3800*
%
%ADD19ROUNDEDRECTD19*%
G04:AMPARAMS|DCode=20|XSize=2.454mm|YSize=4.204mm|CornerRadius=0.6645mm|HoleSize=0mm|Usage=FLASHONLY|Rotation=180.000|XOffset=0mm|YOffset=0mm|HoleType=Round|Shape=RoundedRectangle|*
%AMROUNDEDRECTD20*
21,1,2.4540,2.8750,0,0,180.0*
21,1,1.1250,4.2040,0,0,180.0*
1,1,1.3290,-0.5625,1.4375*
1,1,1.3290,0.5625,1.4375*
1,1,1.3290,0.5625,-1.4375*
1,1,1.3290,-0.5625,-1.4375*
%
%ADD20ROUNDEDRECTD20*%
G04:AMPARAMS|DCode=21|XSize=1.724mm|YSize=1.724mm|CornerRadius=0.482mm|HoleSize=0mm|Usage=FLASHONLY|Rotation=180.000|XOffset=0mm|YOffset=0mm|HoleType=Round|Shape=RoundedRectangle|*
%AMROUNDEDRECTD21*
21,1,1.7240,0.7600,0,0,180.0*
21,1,0.7600,1.7240,0,0,180.0*
1,1,0.9640,-0.3800,0.3800*
1,1,0.9640,0.3800,0.3800*
1,1,0.9640,0.3800,-0.3800*
1,1,0.9640,-0.3800,-0.3800*
%
%ADD21ROUNDEDRECTD21*%
%ADD22C,4.0000*%
%ADD23C,0.9040*%
%ADD24C,0.6540*%
D17*
X3384750Y442100D02*
D03*
X2085000Y190000D02*
D03*
X3715000Y410000D02*
D03*
Y190000D02*
D03*
X2085000Y410000D02*
D03*
X455000D02*
D03*
Y190000D02*
D03*
X2040400Y152900D02*
D03*
X3389250D02*
D03*
X3690400D02*
D03*
X5034750Y442100D02*
D03*
X3981000D02*
D03*
X681000D02*
D03*
X1739250Y152900D02*
D03*
X1734750Y442100D02*
D03*
X2331000D02*
D03*
X390400Y152900D02*
D03*
D18*
X1639000Y179950D02*
D03*
Y230750D02*
D03*
Y256150D02*
D03*
Y306950D02*
D03*
Y332350D02*
D03*
Y357750D02*
D03*
Y408550D02*
D03*
Y383150D02*
D03*
Y281550D02*
D03*
Y205350D02*
D03*
Y154550D02*
D03*
Y129150D02*
D03*
X3289000Y179950D02*
D03*
Y230750D02*
D03*
Y256150D02*
D03*
Y306950D02*
D03*
Y332350D02*
D03*
Y357750D02*
D03*
Y408550D02*
D03*
Y383150D02*
D03*
Y281550D02*
D03*
Y205350D02*
D03*
Y154550D02*
D03*
Y129150D02*
D03*
X4939000Y179950D02*
D03*
Y230750D02*
D03*
Y256150D02*
D03*
Y306950D02*
D03*
Y332350D02*
D03*
Y357750D02*
D03*
Y408550D02*
D03*
Y383150D02*
D03*
Y281550D02*
D03*
Y205350D02*
D03*
Y154550D02*
D03*
Y129150D02*
D03*
X466600Y102900D02*
D03*
X492000D02*
D03*
X593600D02*
D03*
X619000D02*
D03*
X568200D02*
D03*
X542800D02*
D03*
X517400D02*
D03*
X3766600D02*
D03*
X3792000D02*
D03*
X3893600D02*
D03*
X3919000D02*
D03*
X3868200D02*
D03*
X3842800D02*
D03*
X3817400D02*
D03*
X2116600D02*
D03*
X2142000D02*
D03*
X2243600D02*
D03*
X2269000D02*
D03*
X2218200D02*
D03*
X2192800D02*
D03*
X2167400D02*
D03*
D19*
X1639000Y433950D02*
D03*
X3289000D02*
D03*
X4939000D02*
D03*
D20*
X1370000Y30000D02*
D03*
X1320000D02*
D03*
X570000Y27500D02*
D03*
X530000D02*
D03*
X777500Y567500D02*
D03*
X725000D02*
D03*
X965000Y30000D02*
D03*
X920000D02*
D03*
X1170000Y565000D02*
D03*
X1127500D02*
D03*
X1565000D02*
D03*
X1520000D02*
D03*
X1707500Y27500D02*
D03*
X1757500D02*
D03*
X1942500Y562500D02*
D03*
X1900000D02*
D03*
X2130000Y30000D02*
D03*
X2090000D02*
D03*
X2332500Y570000D02*
D03*
X2282500D02*
D03*
X2530000Y30000D02*
D03*
X2487500D02*
D03*
X2715000Y565000D02*
D03*
X2672500D02*
D03*
X2912500Y30000D02*
D03*
X2867500D02*
D03*
X3065000Y565000D02*
D03*
X3105000D02*
D03*
X3235000Y27500D02*
D03*
X3280000D02*
D03*
X3497500Y567500D02*
D03*
X3457500D02*
D03*
X3707500Y30000D02*
D03*
X3660000D02*
D03*
X3870000Y570000D02*
D03*
X3827500D02*
D03*
X4067500Y23955D02*
D03*
X4025000D02*
D03*
X4280000Y565000D02*
D03*
X4225000D02*
D03*
X4430000Y28545D02*
D03*
X4470000D02*
D03*
X4612500Y570000D02*
D03*
X4657500D02*
D03*
X4817500Y27500D02*
D03*
X4857500D02*
D03*
X5057500Y567500D02*
D03*
X5017500D02*
D03*
D21*
X644400Y102900D02*
D03*
X3944400D02*
D03*
X2294400D02*
D03*
D22*
X5029250Y152900D02*
D03*
D23*
X5310001Y480000D02*
D03*
X5280001Y420000D02*
D03*
X5310001Y360000D02*
D03*
X5280001Y300000D02*
D03*
X5310001Y240000D02*
D03*
X5280001Y180000D02*
D03*
X5310001Y120000D02*
D03*
X5250001Y480000D02*
D03*
Y360000D02*
D03*
X5220001Y300000D02*
D03*
X5250001Y240000D02*
D03*
Y120000D02*
D03*
X5220001Y60000D02*
D03*
X5190001Y480000D02*
D03*
X5160001Y420000D02*
D03*
X5190001Y360000D02*
D03*
X5160001Y300000D02*
D03*
X5190001Y240000D02*
D03*
X5160001Y180000D02*
D03*
X5190001Y120000D02*
D03*
X5130001Y480000D02*
D03*
X5100001Y420000D02*
D03*
X5130001Y360000D02*
D03*
X5100001Y300000D02*
D03*
X5130001Y240000D02*
D03*
X5100001Y180000D02*
D03*
X5130001Y120000D02*
D03*
X5070001Y480000D02*
D03*
X5040001Y420000D02*
D03*
X5070001Y360000D02*
D03*
X5040001Y300000D02*
D03*
X5070001Y240000D02*
D03*
X5040001Y180000D02*
D03*
X5070001Y120000D02*
D03*
X5040001Y60000D02*
D03*
X4980001Y540000D02*
D03*
X5010001Y480000D02*
D03*
X4980001Y420000D02*
D03*
X5010001Y360000D02*
D03*
X4980001Y300000D02*
D03*
X5010001Y240000D02*
D03*
X4980001Y180000D02*
D03*
X4950001Y480000D02*
D03*
X4920001Y420000D02*
D03*
Y300000D02*
D03*
X4950001Y240000D02*
D03*
Y120000D02*
D03*
X4860001Y540000D02*
D03*
X4890001Y480000D02*
D03*
X4860001Y420000D02*
D03*
Y300000D02*
D03*
X4890001Y240000D02*
D03*
Y120000D02*
D03*
X4860001Y60000D02*
D03*
X4800001Y540000D02*
D03*
X4830001Y480000D02*
D03*
X4800001Y420000D02*
D03*
X4830001Y360000D02*
D03*
X4800001Y300000D02*
D03*
X4830001Y240000D02*
D03*
Y120000D02*
D03*
X4800001Y60000D02*
D03*
X4770001Y480000D02*
D03*
X4740001Y420000D02*
D03*
X4770001Y360000D02*
D03*
X4740001Y300000D02*
D03*
X4770001Y240000D02*
D03*
Y120000D02*
D03*
X4680001Y540000D02*
D03*
X4710001Y480000D02*
D03*
X4680001Y420000D02*
D03*
X4710001Y360000D02*
D03*
X4680001Y300000D02*
D03*
X4710001Y240000D02*
D03*
Y120000D02*
D03*
X4680001Y60000D02*
D03*
X4650001Y480000D02*
D03*
X4620001Y420000D02*
D03*
X4650001Y360000D02*
D03*
X4620001Y300000D02*
D03*
X4650001Y240000D02*
D03*
Y120000D02*
D03*
X4620001Y60000D02*
D03*
X4590001Y480000D02*
D03*
X4560001Y420000D02*
D03*
X4590001Y360000D02*
D03*
X4560001Y300000D02*
D03*
X4590001Y240000D02*
D03*
Y120000D02*
D03*
X4530001Y480000D02*
D03*
X4500001Y420000D02*
D03*
X4530001Y360000D02*
D03*
X4500001Y300000D02*
D03*
X4530001Y240000D02*
D03*
Y120000D02*
D03*
X4470001Y480000D02*
D03*
Y360000D02*
D03*
X4440001Y300000D02*
D03*
X4470001Y240000D02*
D03*
Y120000D02*
D03*
X4440001Y60000D02*
D03*
X4410001Y480000D02*
D03*
X4380001Y420000D02*
D03*
X4410001Y360000D02*
D03*
X4380001Y300000D02*
D03*
X4410001Y240000D02*
D03*
Y120000D02*
D03*
X4350001Y480000D02*
D03*
X4320001Y420000D02*
D03*
X4350001Y360000D02*
D03*
X4320001Y300000D02*
D03*
X4350001Y240000D02*
D03*
Y120000D02*
D03*
X4260001Y540000D02*
D03*
X4290001Y480000D02*
D03*
X4260001Y420000D02*
D03*
X4290001Y360000D02*
D03*
X4260001Y300000D02*
D03*
X4290001Y240000D02*
D03*
Y120000D02*
D03*
X4230001Y480000D02*
D03*
X4200001Y420000D02*
D03*
X4230001Y360000D02*
D03*
X4200001Y300000D02*
D03*
X4230001Y240000D02*
D03*
Y120000D02*
D03*
X4170001Y480000D02*
D03*
X4140001Y300000D02*
D03*
X4170001Y240000D02*
D03*
Y120000D02*
D03*
X4080001Y540000D02*
D03*
X4110001Y480000D02*
D03*
X4080001Y420000D02*
D03*
Y300000D02*
D03*
X4110001Y240000D02*
D03*
Y120000D02*
D03*
X4020001Y540000D02*
D03*
Y420000D02*
D03*
X4050001Y120000D02*
D03*
X3990001Y480000D02*
D03*
X3960001Y420000D02*
D03*
X3990001Y360000D02*
D03*
X3960001Y300000D02*
D03*
X3990001Y120000D02*
D03*
X3930000Y480000D02*
D03*
X3900001Y420000D02*
D03*
X3930000Y360000D02*
D03*
X3900001Y300000D02*
D03*
X3930000Y240000D02*
D03*
Y120000D02*
D03*
X3840000Y540000D02*
D03*
X3870000Y480000D02*
D03*
X3840000Y420000D02*
D03*
X3870000Y360000D02*
D03*
X3840000Y300000D02*
D03*
X3870000Y240000D02*
D03*
X3840000Y180000D02*
D03*
X3870000Y120000D02*
D03*
X3840000Y60000D02*
D03*
X3810000Y480000D02*
D03*
X3780000Y420000D02*
D03*
X3810000Y360000D02*
D03*
X3780000Y300000D02*
D03*
X3810000Y240000D02*
D03*
X3780000Y180000D02*
D03*
X3810000Y120000D02*
D03*
X3720000Y540000D02*
D03*
X3750000Y480000D02*
D03*
Y360000D02*
D03*
X3720000Y300000D02*
D03*
X3750000Y120000D02*
D03*
X3720000Y60000D02*
D03*
X3660000Y540000D02*
D03*
Y420000D02*
D03*
X3690000Y360000D02*
D03*
Y240000D02*
D03*
Y120000D02*
D03*
X3630000Y480000D02*
D03*
X3600000Y420000D02*
D03*
X3630000Y360000D02*
D03*
X3600000Y300000D02*
D03*
X3630000Y240000D02*
D03*
Y120000D02*
D03*
X3480000Y540000D02*
D03*
X3510000Y480000D02*
D03*
X3480000Y420000D02*
D03*
X3510000Y360000D02*
D03*
X3480000Y300000D02*
D03*
X3510000Y240000D02*
D03*
Y120000D02*
D03*
X3480000Y60000D02*
D03*
X3420000Y540000D02*
D03*
Y420000D02*
D03*
X3450000Y360000D02*
D03*
X3420000Y300000D02*
D03*
X3450000Y240000D02*
D03*
X3420000Y180000D02*
D03*
X3450000Y120000D02*
D03*
X3420000Y60000D02*
D03*
X3360000Y420000D02*
D03*
X3390000Y360000D02*
D03*
X3360000Y300000D02*
D03*
X3390000Y240000D02*
D03*
X3360000Y180000D02*
D03*
X3390000Y120000D02*
D03*
X3300000Y540000D02*
D03*
Y420000D02*
D03*
X3330000Y360000D02*
D03*
Y240000D02*
D03*
Y120000D02*
D03*
X3300000Y60000D02*
D03*
X3240000Y420000D02*
D03*
X3270000Y360000D02*
D03*
X3240000Y300000D02*
D03*
X3270000Y120000D02*
D03*
X3240000Y60000D02*
D03*
X3180000Y420000D02*
D03*
X3210000Y360000D02*
D03*
X3180000Y300000D02*
D03*
X3210000Y120000D02*
D03*
X3120000Y540000D02*
D03*
Y420000D02*
D03*
X3150000Y360000D02*
D03*
X3120000Y300000D02*
D03*
Y60000D02*
D03*
X3060000Y420000D02*
D03*
Y300000D02*
D03*
Y60000D02*
D03*
X3000000Y420000D02*
D03*
X3030000Y360000D02*
D03*
X3000000Y300000D02*
D03*
X2940000Y420000D02*
D03*
X2970000Y360000D02*
D03*
X2940000Y300000D02*
D03*
Y60000D02*
D03*
X2880000Y420000D02*
D03*
X2910000Y360000D02*
D03*
X2880000Y300000D02*
D03*
Y60000D02*
D03*
X2820000Y420000D02*
D03*
X2850000Y360000D02*
D03*
X2820000Y300000D02*
D03*
X2760000Y420000D02*
D03*
X2790000Y360000D02*
D03*
X2760000Y300000D02*
D03*
X2700000Y540000D02*
D03*
Y420000D02*
D03*
X2730000Y360000D02*
D03*
X2700000Y300000D02*
D03*
Y60000D02*
D03*
X2640000Y420000D02*
D03*
X2670000Y360000D02*
D03*
X2640000Y300000D02*
D03*
X2610000Y480000D02*
D03*
X2580000Y420000D02*
D03*
X2610000Y360000D02*
D03*
X2580000Y300000D02*
D03*
X2520000Y540000D02*
D03*
X2550000Y480000D02*
D03*
X2520000Y420000D02*
D03*
X2550000Y360000D02*
D03*
X2520000Y300000D02*
D03*
Y60000D02*
D03*
X2460000Y540000D02*
D03*
Y420000D02*
D03*
X2490000Y360000D02*
D03*
X2460000Y300000D02*
D03*
Y60000D02*
D03*
X2430000Y480000D02*
D03*
Y360000D02*
D03*
X2400000Y300000D02*
D03*
X2340000Y540000D02*
D03*
X2370000Y480000D02*
D03*
X2340000Y420000D02*
D03*
X2370000Y360000D02*
D03*
X2340000Y300000D02*
D03*
Y60000D02*
D03*
X2280000Y420000D02*
D03*
X2310000Y360000D02*
D03*
X2280000Y60000D02*
D03*
X2250000Y360000D02*
D03*
X2220000Y180000D02*
D03*
X2160000Y540000D02*
D03*
X2190000Y480000D02*
D03*
X2160000Y420000D02*
D03*
X2190000Y360000D02*
D03*
X2160000Y180000D02*
D03*
X2100000Y300000D02*
D03*
Y60000D02*
D03*
X2070000Y480000D02*
D03*
X2040000Y420000D02*
D03*
X2070000Y360000D02*
D03*
X2040000Y300000D02*
D03*
X2070000Y240000D02*
D03*
X2040000Y180000D02*
D03*
X2010000Y480000D02*
D03*
X1980000Y420000D02*
D03*
X2010000Y360000D02*
D03*
X1980000Y300000D02*
D03*
X2010000Y240000D02*
D03*
X1980000Y180000D02*
D03*
X1860000Y420000D02*
D03*
X1890000Y360000D02*
D03*
X1860000Y300000D02*
D03*
X1890000Y240000D02*
D03*
X1860000Y180000D02*
D03*
X1800000Y420000D02*
D03*
X1830000Y360000D02*
D03*
X1800000Y300000D02*
D03*
X1830000Y240000D02*
D03*
X1800000Y180000D02*
D03*
X1830000Y120000D02*
D03*
X1740000Y540000D02*
D03*
Y420000D02*
D03*
X1770000Y360000D02*
D03*
X1740000Y300000D02*
D03*
X1770000Y240000D02*
D03*
X1740000Y180000D02*
D03*
X1770000Y120000D02*
D03*
X1740000Y60000D02*
D03*
X1680000Y540000D02*
D03*
Y420000D02*
D03*
X1710000Y360000D02*
D03*
X1680000Y300000D02*
D03*
X1710000Y240000D02*
D03*
X1680000Y180000D02*
D03*
X1710000Y120000D02*
D03*
X1680000Y60000D02*
D03*
X1620000Y420000D02*
D03*
Y300000D02*
D03*
X1650000Y240000D02*
D03*
Y120000D02*
D03*
X1560000Y420000D02*
D03*
Y300000D02*
D03*
X1590000Y120000D02*
D03*
X1560000Y60000D02*
D03*
X1500000Y540000D02*
D03*
X1530000Y480000D02*
D03*
X1500000Y420000D02*
D03*
Y300000D02*
D03*
Y60000D02*
D03*
X1470000Y480000D02*
D03*
X1440000Y300000D02*
D03*
X1470000Y120000D02*
D03*
X1380000Y540000D02*
D03*
X1410000Y480000D02*
D03*
X1380000Y300000D02*
D03*
X1410000Y120000D02*
D03*
X1380000Y60000D02*
D03*
X1320000Y540000D02*
D03*
X1350000Y360000D02*
D03*
X1320000Y300000D02*
D03*
X1350000Y120000D02*
D03*
X1320000Y60000D02*
D03*
X1290000Y480000D02*
D03*
Y360000D02*
D03*
X1260000Y300000D02*
D03*
X1290000Y120000D02*
D03*
X1230000Y480000D02*
D03*
Y360000D02*
D03*
X1200000Y300000D02*
D03*
X1230000Y120000D02*
D03*
X1140000Y540000D02*
D03*
X1170000Y480000D02*
D03*
Y360000D02*
D03*
X1140000Y300000D02*
D03*
X1170000Y120000D02*
D03*
X1080000Y540000D02*
D03*
X1110000Y480000D02*
D03*
Y360000D02*
D03*
X1080000Y300000D02*
D03*
X1110000Y120000D02*
D03*
X1080000Y60000D02*
D03*
X1050000Y480000D02*
D03*
Y360000D02*
D03*
X1020000Y300000D02*
D03*
X960000Y540000D02*
D03*
X990000Y480000D02*
D03*
X960000Y60000D02*
D03*
X900000Y540000D02*
D03*
X930000Y360000D02*
D03*
X900000Y300000D02*
D03*
X870000Y480000D02*
D03*
Y360000D02*
D03*
X840000Y300000D02*
D03*
X780000Y540000D02*
D03*
X810000Y480000D02*
D03*
Y360000D02*
D03*
X780000Y300000D02*
D03*
X750000Y480000D02*
D03*
Y360000D02*
D03*
X720000Y300000D02*
D03*
X690000Y480000D02*
D03*
X660000Y420000D02*
D03*
X690000Y360000D02*
D03*
X630000Y480000D02*
D03*
X600000Y420000D02*
D03*
X630000Y360000D02*
D03*
X570000Y480000D02*
D03*
X540000Y420000D02*
D03*
X570000Y360000D02*
D03*
X540000Y300000D02*
D03*
X570000Y120000D02*
D03*
X510000Y480000D02*
D03*
X480000Y420000D02*
D03*
X510000Y360000D02*
D03*
X480000Y300000D02*
D03*
X450000Y480000D02*
D03*
X420000Y420000D02*
D03*
X450000Y360000D02*
D03*
X420000Y300000D02*
D03*
X450000Y240000D02*
D03*
X420000Y180000D02*
D03*
X360000Y540000D02*
D03*
X390000Y480000D02*
D03*
X360000Y420000D02*
D03*
X390000Y360000D02*
D03*
X360000Y300000D02*
D03*
X390000Y240000D02*
D03*
X360000Y180000D02*
D03*
X390000Y120000D02*
D03*
X360000Y60000D02*
D03*
X330000Y480000D02*
D03*
X300000Y420000D02*
D03*
X330000Y360000D02*
D03*
X300000Y300000D02*
D03*
X330000Y240000D02*
D03*
X300000Y180000D02*
D03*
X330000Y120000D02*
D03*
X300000Y60000D02*
D03*
X270000Y480000D02*
D03*
X240000Y420000D02*
D03*
X270000Y360000D02*
D03*
Y240000D02*
D03*
X240000Y180000D02*
D03*
X180000Y540000D02*
D03*
X210000Y480000D02*
D03*
X180000Y420000D02*
D03*
X210000Y360000D02*
D03*
X180000Y300000D02*
D03*
X210000Y240000D02*
D03*
X180000Y180000D02*
D03*
Y60000D02*
D03*
X120000Y540000D02*
D03*
Y420000D02*
D03*
X150000Y360000D02*
D03*
X120000Y300000D02*
D03*
X150000Y240000D02*
D03*
X120000Y180000D02*
D03*
X90000Y480000D02*
D03*
X60000Y420000D02*
D03*
X90000Y360000D02*
D03*
X60000Y300000D02*
D03*
X90000Y240000D02*
D03*
X60000Y180000D02*
D03*
X90000Y120000D02*
D03*
X3856506Y188660D02*
D03*
D24*
X3487500Y177500D02*
D03*
X5225000Y175000D02*
D03*
X2312500Y172500D02*
D03*
X3840000Y455000D02*
D03*
X915000Y140000D02*
D03*
X752500Y142500D02*
D03*
X345000Y137500D02*
D03*
X487500Y180000D02*
D03*
X487845Y272088D02*
D03*
X752500Y280000D02*
D03*
X2312500Y232500D02*
D03*
X4257500Y255000D02*
D03*
X4635000Y332500D02*
D03*
X2687500Y282500D02*
D03*
X351843Y214343D02*
D03*
X1150000Y332500D02*
D03*
X2687500Y172615D02*
D03*
X4635000Y137500D02*
D03*
X4257500D02*
D03*
X3077500Y164614D02*
D03*
X1537500Y382500D02*
D03*
X915000Y102500D02*
D03*
X2487500Y155000D02*
D03*
Y102500D02*
D03*
X1150000Y137500D02*
D03*
X1537500Y135000D02*
D03*
M02*
