M48
;Layer_Color=9474304
;FILE_FORMAT=4:4
METRIC
;TYPE=PLATED
T1F00S00C0.7112
T2F00S00C0.8000
T3F00S00C0.9000
T4F00S00C1.0000
T5F00S00C1.1500
T6F00S00C1.3000
T7F00S00C1.3200
T8F00S00C1.5000
T9F00S00C1.6000
T10F00S00C3.2500
;TYPE=NON_PLATED
%
T01
X01577250Y00652750
Y00699250
Y00746500
X01174750Y01054750
X01216750
X01277000
X01328500
X01354500
X01381750
X01409250
X01437750
X01467000
X01529250Y00978500
X01553500
X01578000
X01577250Y00934000
Y00887250
Y00840250
Y00794250
X01257500Y00867250
Y00891500
Y00914278
X01230000
Y00891500
X01230250Y00867250
X01202500
Y00891500
Y00914278
T02
X01299000Y01004000
Y01029000
T03
X00800100Y00463740
Y00513740
Y00622960
Y00672960
Y00784860
Y00834860
Y00945280
Y00995280
T04
X00554478Y00911278
X00649478Y00836279
T05
X00609600Y00663600
Y00693600
X00610350Y00723600
T06
X00590000Y00633600
Y00753600
X01115000Y01001000
X01140000
Y01026000
X01115000
T07
X01127500Y01039400
T08
X01546430Y00603820
X00926430Y00518820
Y00718820
Y00918820
X01546430Y00833820
T09
X01244000Y00993750
Y01046750
T10
X01554480Y00436880
X00556260
Y01031240
X01554480
M30
