G04*
G04 #@! TF.GenerationSoftware,Altium Limited,Altium Designer,18.1.9 (240)*
G04*
G04 Layer_Color=16711935*
%FSLAX44Y44*%
%MOMM*%
G71*
G01*
G75*
%ADD11C,0.2540*%
%ADD55C,0.1000*%
G36*
X1499000Y1012750D02*
X1505000Y1022750D01*
X1499000D01*
X1493000D01*
X1499000Y1012750D01*
D02*
G37*
D11*
X865100Y488740D02*
G03*
X865100Y488740I-65000J0D01*
G01*
Y647960D02*
G03*
X865100Y647960I-65000J0D01*
G01*
Y970280D02*
G03*
X865100Y970280I-65000J0D01*
G01*
Y809860D02*
G03*
X865100Y809860I-65000J0D01*
G01*
D55*
X1330500Y1016500D02*
G03*
X1330500Y1016500I-31500J0D01*
G01*
X1097801Y1072000D02*
X1157200D01*
Y983500D02*
Y1072000D01*
X1097801Y983500D02*
Y1072000D01*
Y983500D02*
X1157200D01*
X1182400Y1035950D02*
X1209100D01*
X1182400Y993550D02*
Y1035950D01*
Y993550D02*
X1209100D01*
Y1035950D01*
X1491000Y1001750D02*
Y1033750D01*
Y1001750D02*
X1507000D01*
X1491000Y1033750D02*
X1507000D01*
Y1001750D02*
Y1033750D01*
X1458750Y1001000D02*
Y1035500D01*
X1476250Y1001000D02*
Y1035500D01*
X1458750Y1001000D02*
X1476250D01*
X1458750Y1035500D02*
X1476250D01*
X686580Y523220D02*
X720580D01*
X686580Y457220D02*
X720580D01*
Y523220D01*
X686580Y457220D02*
Y523220D01*
Y680960D02*
X720580D01*
X686580Y614960D02*
X720580D01*
Y680960D01*
X686580Y614960D02*
Y680960D01*
Y842860D02*
X720580D01*
X686580Y776860D02*
X720580D01*
Y842860D01*
X686580Y776860D02*
Y842860D01*
Y1002500D02*
X720580D01*
X686580Y936500D02*
X720580D01*
Y1002500D01*
X686580Y936500D02*
Y1002500D01*
X585100Y756850D02*
X641350D01*
X585100Y630100D02*
Y756850D01*
Y630100D02*
X641350D01*
Y756850D01*
X1429500Y1003250D02*
Y1035250D01*
X1445500Y1003250D02*
Y1035250D01*
X1429500Y1003250D02*
X1445500D01*
X1429500Y1035250D02*
X1445500D01*
X1401250D02*
X1417250D01*
X1401250Y1003250D02*
X1417250D01*
Y1035250D01*
X1401250Y1003250D02*
Y1035250D01*
X1373750D02*
X1389750D01*
X1373750Y1003250D02*
X1389750D01*
Y1035250D01*
X1373750Y1003250D02*
Y1035250D01*
X1346750D02*
X1362750D01*
X1346750Y1003250D02*
X1362750D01*
Y1035250D01*
X1346750Y1003250D02*
Y1035250D01*
X607420Y465940D02*
X652420D01*
X607420Y586940D02*
X652420D01*
X607420Y465940D02*
Y493940D01*
X607420Y493940D02*
X610170D01*
Y558941D01*
X607420Y558941D02*
X610170D01*
X607420Y558941D02*
Y586941D01*
X652420Y558941D02*
Y586940D01*
X649670Y558941D02*
X652420D01*
X649670Y493940D02*
Y558941D01*
Y493940D02*
X652420D01*
Y465940D02*
Y493940D01*
M02*
