M48
;Layer_Color=9474304
;FILE_FORMAT=4:4
METRIC
T11F00S00C2.5000
%
G90
G05
T11
G00X01598025Y00382792
M15
G01X01599873Y00382857
G01X01602444Y00383611
G01X01603419Y00384015
G01X01606476Y00385828
G01X01608899Y00388429
G01X01610183Y00390780
G01X01610587Y00391754
G01X01611467Y00395199
G01X01611420Y00396536
G01X01611434Y00396536
G01X01611539Y01071878
G01X01610587Y01076664
G01X01610183Y01077638
G01X01608370Y01080696
G01X01605769Y01083119
G01X01603419Y01084403
G01X01602444Y01084807
G01X01599000Y01085687
G01X01597661Y01085640
G01X01597661Y01085654
G01X00515621Y01085759
G01X00510836Y01084807
G01X00509861Y01084403
G01X00506804Y01082590
G01X00504381Y01079989
G01X00503097Y01077638
G01X00502693Y01076664
G01X00501813Y01073220
G01X00501860Y01071882
G01X00501846Y01071882
G01X00501741Y00396540
G01X00502693Y00391754
G01X00503097Y00390780
G01X00504910Y00387722
G01X00507511Y00385299
G01X00509861Y00384015
G01X00510836Y00383611
G01X00514280Y00382731
G01X00515619Y00382779
G01X00515619Y00382764
G01X01597361Y00382659
G01X01598025Y00382792
M16
M17
M30
