M48
;Layer_Color=9474304
;FILE_FORMAT=4:4
METRIC,LZ
;TYPE=PLATED
T1F00S00C0.3000
T2F00S00C1.0200
T3F00S00C1.3000
T4F00S00C3.2000
%
T01
X00265Y0012
X00345Y001375
X00351843Y00214343
X004875Y0018
X00487845Y00272088
X007525Y0028
Y001425
X00915Y0014
Y001025
X0115Y001375
Y003325
X015375Y003825
Y00135
X019Y002225
X0198Y001625
X023125Y001725
Y002325
X024875Y00155
Y001025
X026875Y00172615
Y002825
X030775Y00164614
X034875Y001775
X0359Y00175
X03856506Y0018866
X042575Y001375
Y00255
X04635Y003325
Y001375
X05225Y00175
X0384Y00455
T02
X004666Y001029
X00492
X005174
X005428
X005682
X005936
X00619
X006444
X01639Y0012915
Y0015455
Y0017995
Y0020535
Y0023075
Y0025615
Y0028155
Y0030695
Y0033235
Y0035775
Y0038315
X021166Y001029
X02142
X021674
X021928
X022182
X022436
X02269
X022944
X03289Y0012915
Y0015455
Y0017995
Y0020535
Y0023075
Y0025615
Y0028155
Y0030695
Y0033235
Y0035775
Y0038315
X037666Y001029
X03792
X038174
X038428
X038682
X038936
X03919
X039444
X04939Y0012915
Y0015455
Y0017995
Y0020535
Y0023075
Y0025615
Y0028155
Y0030695
Y0033235
Y0035775
Y0038315
Y0040855
Y0043395
X03289
Y0040855
X01639
Y0043395
T03
X0053Y000275
X0057
X0092Y0003
X00965
X0132
X0137
X017075Y000275
X017575
X0209Y0003
X0213
X024875
X0253
X028675
X029125
X03235Y000275
X0328
X0366Y0003
X037075
X04025Y00023955
X040675
X0443Y00028545
X0447
X048175Y000275
X048575
X050175Y005675
X050575
X046575Y0057
X046125
X0428Y00565
X04225
X0387Y0057
X038275
X034975Y005675
X034575
X03105Y00565
X03065
X02715Y00565
X026725
X023325Y0057
X022825
X019425Y005625
X019
X01565Y00565
X0152
X0117
X011275
X007775Y005675
X00725
T04
X003904Y001529
X00455Y0019
X0173925Y001529
X020404
X02085Y0019
X0338925Y001529
X036904
X03715Y0019
X0502925Y001529
X0503475Y004421
X03981
X03715Y0041
X0338475Y004421
X02331
X02085Y0041
X0173475Y004421
X00681
X00455Y0041
M30
