G04*
G04 #@! TF.GenerationSoftware,Altium Limited,Altium Designer,22.10.1 (41)*
G04*
G04 Layer_Color=2752767*
%FSLAX44Y44*%
%MOMM*%
G71*
G04*
G04 #@! TF.SameCoordinates,CCA9ED2B-0253-4C40-8C16-DC95D70DEF13*
G04*
G04*
G04 #@! TF.FilePolarity,Positive*
G04*
G01*
G75*
%ADD129C,0.0508*%
D129*
X758984Y418484D02*
Y417468D01*
X761016D01*
Y418484D01*
X762032D01*
Y420516D01*
X761016D01*
Y421532D01*
X758984D01*
Y420516D01*
X757968D01*
Y418484D01*
X758984D01*
X759492Y418992D02*
Y418484D01*
X760508D01*
Y418992D01*
X761016D01*
Y420008D01*
X760508D01*
Y420516D01*
X759492D01*
Y420008D01*
X758984D01*
Y418992D01*
X759492D01*
X505734Y327984D02*
Y326968D01*
X507766D01*
Y327984D01*
X508782D01*
Y330016D01*
X507766D01*
Y331032D01*
X505734D01*
Y330016D01*
X504718D01*
Y327984D01*
X505734D01*
X506242Y328492D02*
Y327984D01*
X507258D01*
Y328492D01*
X507766D01*
Y329508D01*
X507258D01*
Y330016D01*
X506242D01*
Y329508D01*
X505734D01*
Y328492D01*
X506242D01*
X693734Y275234D02*
Y274218D01*
X695766D01*
Y275234D01*
X696782D01*
Y277266D01*
X695766D01*
Y278282D01*
X693734D01*
Y277266D01*
X692718D01*
Y275234D01*
X693734D01*
X694242Y275742D02*
Y275234D01*
X695258D01*
Y275742D01*
X695766D01*
Y276758D01*
X695258D01*
Y277266D01*
X694242D01*
Y276758D01*
X693734D01*
Y275742D01*
X694242D01*
X764484Y353984D02*
Y352968D01*
X766516D01*
Y353984D01*
X767532D01*
Y356016D01*
X766516D01*
Y357032D01*
X764484D01*
Y356016D01*
X763468D01*
Y353984D01*
X764484D01*
X764992Y354492D02*
Y353984D01*
X766008D01*
Y354492D01*
X766516D01*
Y355508D01*
X766008D01*
Y356016D01*
X764992D01*
Y355508D01*
X764484D01*
Y354492D01*
X764992D01*
X1092734Y303984D02*
Y302968D01*
X1094766D01*
Y303984D01*
X1095782D01*
Y306016D01*
X1094766D01*
Y307032D01*
X1092734D01*
Y306016D01*
X1091718D01*
Y303984D01*
X1092734D01*
X1093242Y304492D02*
Y303984D01*
X1094258D01*
Y304492D01*
X1094766D01*
Y305508D01*
X1094258D01*
Y306016D01*
X1093242D01*
Y305508D01*
X1092734D01*
Y304492D01*
X1093242D01*
X1180734Y574984D02*
Y573968D01*
X1182766D01*
Y574984D01*
X1183782D01*
Y577016D01*
X1182766D01*
Y578032D01*
X1180734D01*
Y577016D01*
X1179718D01*
Y574984D01*
X1180734D01*
X1181242Y575492D02*
Y574984D01*
X1182258D01*
Y575492D01*
X1182766D01*
Y576508D01*
X1182258D01*
Y577016D01*
X1181242D01*
Y576508D01*
X1180734D01*
Y575492D01*
X1181242D01*
X1264984Y373984D02*
Y372968D01*
X1267016D01*
Y373984D01*
X1268032D01*
Y376016D01*
X1267016D01*
Y377032D01*
X1264984D01*
Y376016D01*
X1263968D01*
Y373984D01*
X1264984D01*
X1265492Y374492D02*
Y373984D01*
X1266508D01*
Y374492D01*
X1267016D01*
Y375508D01*
X1266508D01*
Y376016D01*
X1265492D01*
Y375508D01*
X1264984D01*
Y374492D01*
X1265492D01*
X1165234Y414984D02*
Y413968D01*
X1167266D01*
Y414984D01*
X1168282D01*
Y417016D01*
X1167266D01*
Y418032D01*
X1165234D01*
Y417016D01*
X1164218D01*
Y414984D01*
X1165234D01*
X1165742Y415492D02*
Y414984D01*
X1166758D01*
Y415492D01*
X1167266D01*
Y416508D01*
X1166758D01*
Y417016D01*
X1165742D01*
Y416508D01*
X1165234D01*
Y415492D01*
X1165742D01*
X1242968Y461968D02*
X1243984Y464000D01*
X1242968Y466032D01*
X1245000Y465016D01*
X1247032Y466032D01*
X1246016Y464000D01*
X1247032Y461968D01*
X1245000Y462984D01*
X1242968Y461968D01*
X1243984Y462984D02*
X1244492Y464000D01*
X1243984Y465016D01*
X1245000Y464508D01*
X1246016Y465016D01*
X1245508Y464000D01*
X1246016Y462984D01*
X1245000Y463492D01*
X1243984Y462984D01*
X1322734Y531234D02*
Y530218D01*
X1324766D01*
Y531234D01*
X1325782D01*
Y533266D01*
X1324766D01*
Y534282D01*
X1322734D01*
Y533266D01*
X1321718D01*
Y531234D01*
X1322734D01*
X1323242Y531742D02*
Y531234D01*
X1324258D01*
Y531742D01*
X1324766D01*
Y532758D01*
X1324258D01*
Y533266D01*
X1323242D01*
Y532758D01*
X1322734D01*
Y531742D01*
X1323242D01*
X853734Y368984D02*
Y367968D01*
X855766D01*
Y368984D01*
X856782D01*
Y371016D01*
X855766D01*
Y372032D01*
X853734D01*
Y371016D01*
X852718D01*
Y368984D01*
X853734D01*
X854242Y369492D02*
Y368984D01*
X855258D01*
Y369492D01*
X855766D01*
Y370508D01*
X855258D01*
Y371016D01*
X854242D01*
Y370508D01*
X853734D01*
Y369492D01*
X854242D01*
X783484Y310734D02*
Y309718D01*
X785516D01*
Y310734D01*
X786532D01*
Y312766D01*
X785516D01*
Y313782D01*
X783484D01*
Y312766D01*
X782468D01*
Y310734D01*
X783484D01*
X783992Y311242D02*
Y310734D01*
X785008D01*
Y311242D01*
X785516D01*
Y312258D01*
X785008D01*
Y312766D01*
X783992D01*
Y312258D01*
X783484D01*
Y311242D01*
X783992D01*
X1658112Y642196D02*
Y641180D01*
X1660144D01*
Y642196D01*
X1661160D01*
Y644228D01*
X1660144D01*
Y645244D01*
X1658112D01*
Y644228D01*
X1657096D01*
Y642196D01*
X1658112D01*
X1658620Y642704D02*
Y642196D01*
X1659636D01*
Y642704D01*
X1660144D01*
Y643720D01*
X1659636D01*
Y644228D01*
X1658620D01*
Y643720D01*
X1658112D01*
Y642704D01*
X1658620D01*
X1512484Y633234D02*
Y632218D01*
X1514516D01*
Y633234D01*
X1515532D01*
Y635266D01*
X1514516D01*
Y636282D01*
X1512484D01*
Y635266D01*
X1511468D01*
Y633234D01*
X1512484D01*
X1512992Y633742D02*
Y633234D01*
X1514008D01*
Y633742D01*
X1514516D01*
Y634758D01*
X1514008D01*
Y635266D01*
X1512992D01*
Y634758D01*
X1512484D01*
Y633742D01*
X1512992D01*
X961984Y118734D02*
Y117718D01*
X964016D01*
Y118734D01*
X965032D01*
Y120766D01*
X964016D01*
Y121782D01*
X961984D01*
Y120766D01*
X960968D01*
Y118734D01*
X961984D01*
X962492Y119242D02*
Y118734D01*
X963508D01*
Y119242D01*
X964016D01*
Y120258D01*
X963508D01*
Y120766D01*
X962492D01*
Y120258D01*
X961984D01*
Y119242D01*
X962492D01*
X1009984Y120484D02*
Y119468D01*
X1012016D01*
Y120484D01*
X1013032D01*
Y122516D01*
X1012016D01*
Y123532D01*
X1009984D01*
Y122516D01*
X1008968D01*
Y120484D01*
X1009984D01*
X1010492Y120992D02*
Y120484D01*
X1011508D01*
Y120992D01*
X1012016D01*
Y122008D01*
X1011508D01*
Y122516D01*
X1010492D01*
Y122008D01*
X1009984D01*
Y120992D01*
X1010492D01*
X947484Y154484D02*
Y153468D01*
X949516D01*
Y154484D01*
X950532D01*
Y156516D01*
X949516D01*
Y157532D01*
X947484D01*
Y156516D01*
X946468D01*
Y154484D01*
X947484D01*
X947992Y154992D02*
Y154484D01*
X949008D01*
Y154992D01*
X949516D01*
Y156008D01*
X949008D01*
Y156516D01*
X947992D01*
Y156008D01*
X947484D01*
Y154992D01*
X947992D01*
X1028984Y200484D02*
Y199468D01*
X1031016D01*
Y200484D01*
X1032032D01*
Y202516D01*
X1031016D01*
Y203532D01*
X1028984D01*
Y202516D01*
X1027968D01*
Y200484D01*
X1028984D01*
X1029492Y200992D02*
Y200484D01*
X1030508D01*
Y200992D01*
X1031016D01*
Y202008D01*
X1030508D01*
Y202516D01*
X1029492D01*
Y202008D01*
X1028984D01*
Y200992D01*
X1029492D01*
X953234Y201984D02*
Y200968D01*
X955266D01*
Y201984D01*
X956282D01*
Y204016D01*
X955266D01*
Y205032D01*
X953234D01*
Y204016D01*
X952218D01*
Y201984D01*
X953234D01*
X953742Y202492D02*
Y201984D01*
X954758D01*
Y202492D01*
X955266D01*
Y203508D01*
X954758D01*
Y204016D01*
X953742D01*
Y203508D01*
X953234D01*
Y202492D01*
X953742D01*
X1293132Y145440D02*
Y144424D01*
X1295164D01*
Y145440D01*
X1296180D01*
Y147472D01*
X1295164D01*
Y148488D01*
X1293132D01*
Y147472D01*
X1292116D01*
Y145440D01*
X1293132D01*
X1293640Y145948D02*
Y145440D01*
X1294656D01*
Y145948D01*
X1295164D01*
Y146964D01*
X1294656D01*
Y147472D01*
X1293640D01*
Y146964D01*
X1293132D01*
Y145948D01*
X1293640D01*
X1089484Y167484D02*
Y166468D01*
X1091516D01*
Y167484D01*
X1092532D01*
Y169516D01*
X1091516D01*
Y170532D01*
X1089484D01*
Y169516D01*
X1088468D01*
Y167484D01*
X1089484D01*
X1089992Y167992D02*
Y167484D01*
X1091008D01*
Y167992D01*
X1091516D01*
Y169008D01*
X1091008D01*
Y169516D01*
X1089992D01*
Y169008D01*
X1089484D01*
Y167992D01*
X1089992D01*
X1294484Y174234D02*
Y173218D01*
X1296516D01*
Y174234D01*
X1297532D01*
Y176266D01*
X1296516D01*
Y177282D01*
X1294484D01*
Y176266D01*
X1293468D01*
Y174234D01*
X1294484D01*
X1294992Y174742D02*
Y174234D01*
X1296008D01*
Y174742D01*
X1296516D01*
Y175758D01*
X1296008D01*
Y176266D01*
X1294992D01*
Y175758D01*
X1294484D01*
Y174742D01*
X1294992D01*
X1068984Y200484D02*
Y199468D01*
X1071016D01*
Y200484D01*
X1072032D01*
Y202516D01*
X1071016D01*
Y203532D01*
X1068984D01*
Y202516D01*
X1067968D01*
Y200484D01*
X1068984D01*
X1069492Y200992D02*
Y200484D01*
X1070508D01*
Y200992D01*
X1071016D01*
Y202008D01*
X1070508D01*
Y202516D01*
X1069492D01*
Y202008D01*
X1068984D01*
Y200992D01*
X1069492D01*
X1071234Y214484D02*
Y213468D01*
X1073266D01*
Y214484D01*
X1074282D01*
Y216516D01*
X1073266D01*
Y217532D01*
X1071234D01*
Y216516D01*
X1070218D01*
Y214484D01*
X1071234D01*
X1071742Y214992D02*
Y214484D01*
X1072758D01*
Y214992D01*
X1073266D01*
Y216008D01*
X1072758D01*
Y216516D01*
X1071742D01*
Y216008D01*
X1071234D01*
Y214992D01*
X1071742D01*
X1075734Y312234D02*
Y311218D01*
X1077766D01*
Y312234D01*
X1078782D01*
Y314266D01*
X1077766D01*
Y315282D01*
X1075734D01*
Y314266D01*
X1074718D01*
Y312234D01*
X1075734D01*
X1076242Y312742D02*
Y312234D01*
X1077258D01*
Y312742D01*
X1077766D01*
Y313758D01*
X1077258D01*
Y314266D01*
X1076242D01*
Y313758D01*
X1075734D01*
Y312742D01*
X1076242D01*
X1313624Y317806D02*
Y316790D01*
X1315656D01*
Y317806D01*
X1316672D01*
Y319838D01*
X1315656D01*
Y320854D01*
X1313624D01*
Y319838D01*
X1312608D01*
Y317806D01*
X1313624D01*
X1314132Y318314D02*
Y317806D01*
X1315148D01*
Y318314D01*
X1315656D01*
Y319330D01*
X1315148D01*
Y319838D01*
X1314132D01*
Y319330D01*
X1313624D01*
Y318314D01*
X1314132D01*
X1231984Y327234D02*
Y326218D01*
X1234016D01*
Y327234D01*
X1235032D01*
Y329266D01*
X1234016D01*
Y330282D01*
X1231984D01*
Y329266D01*
X1230968D01*
Y327234D01*
X1231984D01*
X1232492Y327742D02*
Y327234D01*
X1233508D01*
Y327742D01*
X1234016D01*
Y328758D01*
X1233508D01*
Y329266D01*
X1232492D01*
Y328758D01*
X1231984D01*
Y327742D01*
X1232492D01*
X1265734Y327234D02*
Y326218D01*
X1267766D01*
Y327234D01*
X1268782D01*
Y329266D01*
X1267766D01*
Y330282D01*
X1265734D01*
Y329266D01*
X1264718D01*
Y327234D01*
X1265734D01*
X1266242Y327742D02*
Y327234D01*
X1267258D01*
Y327742D01*
X1267766D01*
Y328758D01*
X1267258D01*
Y329266D01*
X1266242D01*
Y328758D01*
X1265734D01*
Y327742D01*
X1266242D01*
X1068734Y328734D02*
Y327718D01*
X1070766D01*
Y328734D01*
X1071782D01*
Y330766D01*
X1070766D01*
Y331782D01*
X1068734D01*
Y330766D01*
X1067718D01*
Y328734D01*
X1068734D01*
X1069242Y329242D02*
Y328734D01*
X1070258D01*
Y329242D01*
X1070766D01*
Y330258D01*
X1070258D01*
Y330766D01*
X1069242D01*
Y330258D01*
X1068734D01*
Y329242D01*
X1069242D01*
X1319503Y339038D02*
X1320519Y341069D01*
X1319503Y343102D01*
X1321535Y342085D01*
X1323567Y343102D01*
X1322551Y341069D01*
X1323567Y339038D01*
X1321535Y340053D01*
X1319503Y339038D01*
X1320519Y340053D02*
X1321027Y341069D01*
X1320519Y342085D01*
X1321535Y341577D01*
X1322551Y342085D01*
X1322043Y341069D01*
X1322551Y340053D01*
X1321535Y340561D01*
X1320519Y340053D01*
X1204734Y347484D02*
Y346468D01*
X1206766D01*
Y347484D01*
X1207782D01*
Y349516D01*
X1206766D01*
Y350532D01*
X1204734D01*
Y349516D01*
X1203718D01*
Y347484D01*
X1204734D01*
X1205242Y347992D02*
Y347484D01*
X1206258D01*
Y347992D01*
X1206766D01*
Y349008D01*
X1206258D01*
Y349516D01*
X1205242D01*
Y349008D01*
X1204734D01*
Y347992D01*
X1205242D01*
X1265734Y354734D02*
Y353718D01*
X1267766D01*
Y354734D01*
X1268782D01*
Y356766D01*
X1267766D01*
Y357782D01*
X1265734D01*
Y356766D01*
X1264718D01*
Y354734D01*
X1265734D01*
X1266242Y355242D02*
Y354734D01*
X1267258D01*
Y355242D01*
X1267766D01*
Y356258D01*
X1267258D01*
Y356766D01*
X1266242D01*
Y356258D01*
X1265734D01*
Y355242D01*
X1266242D01*
X1227968Y361718D02*
X1228984Y363750D01*
X1227968Y365782D01*
X1230000Y364766D01*
X1232032Y365782D01*
X1231016Y363750D01*
X1232032Y361718D01*
X1230000Y362734D01*
X1227968Y361718D01*
X1228984Y362734D02*
X1229492Y363750D01*
X1228984Y364766D01*
X1230000Y364258D01*
X1231016Y364766D01*
X1230508Y363750D01*
X1231016Y362734D01*
X1230000Y363242D01*
X1228984Y362734D01*
X1230968Y388468D02*
X1231984Y390500D01*
X1230968Y392532D01*
X1233000Y391516D01*
X1235032Y392532D01*
X1234016Y390500D01*
X1235032Y388468D01*
X1233000Y389484D01*
X1230968Y388468D01*
X1231984Y389484D02*
X1232492Y390500D01*
X1231984Y391516D01*
X1233000Y391008D01*
X1234016Y391516D01*
X1233508Y390500D01*
X1234016Y389484D01*
X1233000Y389992D01*
X1231984Y389484D01*
X984984Y400734D02*
Y399718D01*
X987016D01*
Y400734D01*
X988032D01*
Y402766D01*
X987016D01*
Y403782D01*
X984984D01*
Y402766D01*
X983968D01*
Y400734D01*
X984984D01*
X985492Y401242D02*
Y400734D01*
X986508D01*
Y401242D01*
X987016D01*
Y402258D01*
X986508D01*
Y402766D01*
X985492D01*
Y402258D01*
X984984D01*
Y401242D01*
X985492D01*
X1229718Y424718D02*
X1230734Y426750D01*
X1229718Y428782D01*
X1231750Y427766D01*
X1233782Y428782D01*
X1232766Y426750D01*
X1233782Y424718D01*
X1231750Y425734D01*
X1229718Y424718D01*
X1230734Y425734D02*
X1231242Y426750D01*
X1230734Y427766D01*
X1231750Y427258D01*
X1232766Y427766D01*
X1232258Y426750D01*
X1232766Y425734D01*
X1231750Y426242D01*
X1230734Y425734D01*
X1234468Y441968D02*
X1235484Y444000D01*
X1234468Y446032D01*
X1236500Y445016D01*
X1238532Y446032D01*
X1237516Y444000D01*
X1238532Y441968D01*
X1236500Y442984D01*
X1234468Y441968D01*
X1235484Y442984D02*
X1235992Y444000D01*
X1235484Y445016D01*
X1236500Y444508D01*
X1237516Y445016D01*
X1237008Y444000D01*
X1237516Y442984D01*
X1236500Y443492D01*
X1235484Y442984D01*
X1202734Y590488D02*
Y589472D01*
X1204766D01*
Y590488D01*
X1205782D01*
Y592520D01*
X1204766D01*
Y593536D01*
X1202734D01*
Y592520D01*
X1201718D01*
Y590488D01*
X1202734D01*
X1203242Y590996D02*
Y590488D01*
X1204258D01*
Y590996D01*
X1204766D01*
Y592012D01*
X1204258D01*
Y592520D01*
X1203242D01*
Y592012D01*
X1202734D01*
Y590996D01*
X1203242D01*
X1247968Y361468D02*
X1248984Y363500D01*
X1247968Y365532D01*
X1250000Y364516D01*
X1252032Y365532D01*
X1251016Y363500D01*
X1252032Y361468D01*
X1250000Y362484D01*
X1247968Y361468D01*
X1248984Y362484D02*
X1249492Y363500D01*
X1248984Y364516D01*
X1250000Y364008D01*
X1251016Y364516D01*
X1250508Y363500D01*
X1251016Y362484D01*
X1250000Y362992D01*
X1248984Y362484D01*
X1283718Y369968D02*
X1284734Y372000D01*
X1283718Y374032D01*
X1285750Y373016D01*
X1287782Y374032D01*
X1286766Y372000D01*
X1287782Y369968D01*
X1285750Y370984D01*
X1283718Y369968D01*
X1284734Y370984D02*
X1285242Y372000D01*
X1284734Y373016D01*
X1285750Y372508D01*
X1286766Y373016D01*
X1286258Y372000D01*
X1286766Y370984D01*
X1285750Y371492D01*
X1284734Y370984D01*
X1313734Y376734D02*
Y375718D01*
X1315766D01*
Y376734D01*
X1316782D01*
Y378766D01*
X1315766D01*
Y379782D01*
X1313734D01*
Y378766D01*
X1312718D01*
Y376734D01*
X1313734D01*
X1314242Y377242D02*
Y376734D01*
X1315258D01*
Y377242D01*
X1315766D01*
Y378258D01*
X1315258D01*
Y378766D01*
X1314242D01*
Y378258D01*
X1313734D01*
Y377242D01*
X1314242D01*
X1260968Y387468D02*
X1261984Y389500D01*
X1260968Y391532D01*
X1263000Y390516D01*
X1265032Y391532D01*
X1264016Y389500D01*
X1265032Y387468D01*
X1263000Y388484D01*
X1260968Y387468D01*
X1261984Y388484D02*
X1262492Y389500D01*
X1261984Y390516D01*
X1263000Y390008D01*
X1264016Y390516D01*
X1263508Y389500D01*
X1264016Y388484D01*
X1263000Y388992D01*
X1261984Y388484D01*
X1300734Y394984D02*
Y393968D01*
X1302766D01*
Y394984D01*
X1303782D01*
Y397016D01*
X1302766D01*
Y398032D01*
X1300734D01*
Y397016D01*
X1299718D01*
Y394984D01*
X1300734D01*
X1301242Y395492D02*
Y394984D01*
X1302258D01*
Y395492D01*
X1302766D01*
Y396508D01*
X1302258D01*
Y397016D01*
X1301242D01*
Y396508D01*
X1300734D01*
Y395492D01*
X1301242D01*
X1286218Y406718D02*
X1287234Y408750D01*
X1286218Y410782D01*
X1288250Y409766D01*
X1290282Y410782D01*
X1289266Y408750D01*
X1290282Y406718D01*
X1288250Y407734D01*
X1286218Y406718D01*
X1287234Y407734D02*
X1287742Y408750D01*
X1287234Y409766D01*
X1288250Y409258D01*
X1289266Y409766D01*
X1288758Y408750D01*
X1289266Y407734D01*
X1288250Y408242D01*
X1287234Y407734D01*
X1267968Y406968D02*
X1268984Y409000D01*
X1267968Y411032D01*
X1270000Y410016D01*
X1272032Y411032D01*
X1271016Y409000D01*
X1272032Y406968D01*
X1270000Y407984D01*
X1267968Y406968D01*
X1268984Y407984D02*
X1269492Y409000D01*
X1268984Y410016D01*
X1270000Y409508D01*
X1271016Y410016D01*
X1270508Y409000D01*
X1271016Y407984D01*
X1270000Y408492D01*
X1268984Y407984D01*
X1307718Y410468D02*
X1308734Y412500D01*
X1307718Y414532D01*
X1309750Y413516D01*
X1311782Y414532D01*
X1310766Y412500D01*
X1311782Y410468D01*
X1309750Y411484D01*
X1307718Y410468D01*
X1308734Y411484D02*
X1309242Y412500D01*
X1308734Y413516D01*
X1309750Y413008D01*
X1310766Y413516D01*
X1310258Y412500D01*
X1310766Y411484D01*
X1309750Y411992D01*
X1308734Y411484D01*
X1249218Y413468D02*
X1250234Y415500D01*
X1249218Y417532D01*
X1251250Y416516D01*
X1253282Y417532D01*
X1252266Y415500D01*
X1253282Y413468D01*
X1251250Y414484D01*
X1249218Y413468D01*
X1250234Y414484D02*
X1250742Y415500D01*
X1250234Y416516D01*
X1251250Y416008D01*
X1252266Y416516D01*
X1251758Y415500D01*
X1252266Y414484D01*
X1251250Y414992D01*
X1250234Y414484D01*
X1280608Y422828D02*
X1281624Y424860D01*
X1280608Y426892D01*
X1282640Y425876D01*
X1284672Y426892D01*
X1283656Y424860D01*
X1284672Y422828D01*
X1282640Y423844D01*
X1280608Y422828D01*
X1281624Y423844D02*
X1282132Y424860D01*
X1281624Y425876D01*
X1282640Y425368D01*
X1283656Y425876D01*
X1283148Y424860D01*
X1283656Y423844D01*
X1282640Y424352D01*
X1281624Y423844D01*
X1272608Y422828D02*
X1273624Y424860D01*
X1272608Y426892D01*
X1274640Y425876D01*
X1276672Y426892D01*
X1275656Y424860D01*
X1276672Y422828D01*
X1274640Y423844D01*
X1272608Y422828D01*
X1273624Y423844D02*
X1274132Y424860D01*
X1273624Y425876D01*
X1274640Y425368D01*
X1275656Y425876D01*
X1275148Y424860D01*
X1275656Y423844D01*
X1274640Y424352D01*
X1273624Y423844D01*
X1285718Y461468D02*
X1286734Y463500D01*
X1285718Y465532D01*
X1287750Y464516D01*
X1289782Y465532D01*
X1288766Y463500D01*
X1289782Y461468D01*
X1287750Y462484D01*
X1285718Y461468D01*
X1286734Y462484D02*
X1287242Y463500D01*
X1286734Y464516D01*
X1287750Y464008D01*
X1288766Y464516D01*
X1288258Y463500D01*
X1288766Y462484D01*
X1287750Y462992D01*
X1286734Y462484D01*
X1303468Y461718D02*
X1304484Y463750D01*
X1303468Y465782D01*
X1305500Y464766D01*
X1307532Y465782D01*
X1306516Y463750D01*
X1307532Y461718D01*
X1305500Y462734D01*
X1303468Y461718D01*
X1304484Y462734D02*
X1304992Y463750D01*
X1304484Y464766D01*
X1305500Y464258D01*
X1306516Y464766D01*
X1306008Y463750D01*
X1306516Y462734D01*
X1305500Y463242D01*
X1304484Y462734D01*
X1266968Y462468D02*
X1267984Y464500D01*
X1266968Y466532D01*
X1269000Y465516D01*
X1271032Y466532D01*
X1270016Y464500D01*
X1271032Y462468D01*
X1269000Y463484D01*
X1266968Y462468D01*
X1267984Y463484D02*
X1268492Y464500D01*
X1267984Y465516D01*
X1269000Y465008D01*
X1270016Y465516D01*
X1269508Y464500D01*
X1270016Y463484D01*
X1269000Y463992D01*
X1267984Y463484D01*
X1278234Y542984D02*
Y541968D01*
X1280266D01*
Y542984D01*
X1281282D01*
Y545016D01*
X1280266D01*
Y546032D01*
X1278234D01*
Y545016D01*
X1277218D01*
Y542984D01*
X1278234D01*
X1278742Y543492D02*
Y542984D01*
X1279758D01*
Y543492D01*
X1280266D01*
Y544508D01*
X1279758D01*
Y545016D01*
X1278742D01*
Y544508D01*
X1278234D01*
Y543492D01*
X1278742D01*
X1277484Y560984D02*
Y559968D01*
X1279516D01*
Y560984D01*
X1280532D01*
Y563016D01*
X1279516D01*
Y564032D01*
X1277484D01*
Y563016D01*
X1276468D01*
Y560984D01*
X1277484D01*
X1277992Y561492D02*
Y560984D01*
X1279008D01*
Y561492D01*
X1279516D01*
Y562508D01*
X1279008D01*
Y563016D01*
X1277992D01*
Y562508D01*
X1277484D01*
Y561492D01*
X1277992D01*
X1322898Y388531D02*
X1323914Y390563D01*
X1322898Y392595D01*
X1324930Y391579D01*
X1326962Y392595D01*
X1325946Y390563D01*
X1326962Y388531D01*
X1324930Y389547D01*
X1322898Y388531D01*
X1323914Y389547D02*
X1324422Y390563D01*
X1323914Y391579D01*
X1324930Y391071D01*
X1325946Y391579D01*
X1325438Y390563D01*
X1325946Y389547D01*
X1324930Y390055D01*
X1323914Y389547D01*
X1323718Y409718D02*
X1324734Y411750D01*
X1323718Y413782D01*
X1325750Y412766D01*
X1327782Y413782D01*
X1326766Y411750D01*
X1327782Y409718D01*
X1325750Y410734D01*
X1323718Y409718D01*
X1324734Y410734D02*
X1325242Y411750D01*
X1324734Y412766D01*
X1325750Y412258D01*
X1326766Y412766D01*
X1326258Y411750D01*
X1326766Y410734D01*
X1325750Y411242D01*
X1324734Y410734D01*
X1328484Y249984D02*
Y248968D01*
X1330516D01*
Y249984D01*
X1331532D01*
Y252016D01*
X1330516D01*
Y253032D01*
X1328484D01*
Y252016D01*
X1327468D01*
Y249984D01*
X1328484D01*
X1328992Y250492D02*
Y249984D01*
X1330008D01*
Y250492D01*
X1330516D01*
Y251508D01*
X1330008D01*
Y252016D01*
X1328992D01*
Y251508D01*
X1328484D01*
Y250492D01*
X1328992D01*
X1336734Y257234D02*
Y256218D01*
X1338766D01*
Y257234D01*
X1339782D01*
Y259266D01*
X1338766D01*
Y260282D01*
X1336734D01*
Y259266D01*
X1335718D01*
Y257234D01*
X1336734D01*
X1337242Y257742D02*
Y257234D01*
X1338258D01*
Y257742D01*
X1338766D01*
Y258758D01*
X1338258D01*
Y259266D01*
X1337242D01*
Y258758D01*
X1336734D01*
Y257742D01*
X1337242D01*
X1340734Y363484D02*
Y362468D01*
X1342766D01*
Y363484D01*
X1343782D01*
Y365516D01*
X1342766D01*
Y366532D01*
X1340734D01*
Y365516D01*
X1339718D01*
Y363484D01*
X1340734D01*
X1341242Y363992D02*
Y363484D01*
X1342258D01*
Y363992D01*
X1342766D01*
Y365008D01*
X1342258D01*
Y365516D01*
X1341242D01*
Y365008D01*
X1340734D01*
Y363992D01*
X1341242D01*
X1347984Y375234D02*
Y374218D01*
X1350016D01*
Y375234D01*
X1351032D01*
Y377266D01*
X1350016D01*
Y378282D01*
X1347984D01*
Y377266D01*
X1346968D01*
Y375234D01*
X1347984D01*
X1348492Y375742D02*
Y375234D01*
X1349508D01*
Y375742D01*
X1350016D01*
Y376758D01*
X1349508D01*
Y377266D01*
X1348492D01*
Y376758D01*
X1347984D01*
Y375742D01*
X1348492D01*
X1348234Y351984D02*
Y350968D01*
X1350266D01*
Y351984D01*
X1351282D01*
Y354016D01*
X1350266D01*
Y355032D01*
X1348234D01*
Y354016D01*
X1347218D01*
Y351984D01*
X1348234D01*
X1348742Y352492D02*
Y351984D01*
X1349758D01*
Y352492D01*
X1350266D01*
Y353508D01*
X1349758D01*
Y354016D01*
X1348742D01*
Y353508D01*
X1348234D01*
Y352492D01*
X1348742D01*
X1348484Y397984D02*
Y396968D01*
X1350516D01*
Y397984D01*
X1351532D01*
Y400016D01*
X1350516D01*
Y401032D01*
X1348484D01*
Y400016D01*
X1347468D01*
Y397984D01*
X1348484D01*
X1348992Y398492D02*
Y397984D01*
X1350008D01*
Y398492D01*
X1350516D01*
Y399508D01*
X1350008D01*
Y400016D01*
X1348992D01*
Y399508D01*
X1348484D01*
Y398492D01*
X1348992D01*
X1446234Y123984D02*
Y122968D01*
X1448266D01*
Y123984D01*
X1449282D01*
Y126016D01*
X1448266D01*
Y127032D01*
X1446234D01*
Y126016D01*
X1445218D01*
Y123984D01*
X1446234D01*
X1446742Y124492D02*
Y123984D01*
X1447758D01*
Y124492D01*
X1448266D01*
Y125508D01*
X1447758D01*
Y126016D01*
X1446742D01*
Y125508D01*
X1446234D01*
Y124492D01*
X1446742D01*
X1530734Y165984D02*
Y164968D01*
X1532766D01*
Y165984D01*
X1533782D01*
Y168016D01*
X1532766D01*
Y169032D01*
X1530734D01*
Y168016D01*
X1529718D01*
Y165984D01*
X1530734D01*
X1531242Y166492D02*
Y165984D01*
X1532258D01*
Y166492D01*
X1532766D01*
Y167508D01*
X1532258D01*
Y168016D01*
X1531242D01*
Y167508D01*
X1530734D01*
Y166492D01*
X1531242D01*
X1455234Y173484D02*
Y172468D01*
X1457266D01*
Y173484D01*
X1458282D01*
Y175516D01*
X1457266D01*
Y176532D01*
X1455234D01*
Y175516D01*
X1454218D01*
Y173484D01*
X1455234D01*
X1455742Y173992D02*
Y173484D01*
X1456758D01*
Y173992D01*
X1457266D01*
Y175008D01*
X1456758D01*
Y175516D01*
X1455742D01*
Y175008D01*
X1455234D01*
Y173992D01*
X1455742D01*
X1531484Y179734D02*
Y178718D01*
X1533516D01*
Y179734D01*
X1534532D01*
Y181766D01*
X1533516D01*
Y182782D01*
X1531484D01*
Y181766D01*
X1530468D01*
Y179734D01*
X1531484D01*
X1531992Y180242D02*
Y179734D01*
X1533008D01*
Y180242D01*
X1533516D01*
Y181258D01*
X1533008D01*
Y181766D01*
X1531992D01*
Y181258D01*
X1531484D01*
Y180242D01*
X1531992D01*
X1487734Y194734D02*
Y193718D01*
X1489766D01*
Y194734D01*
X1490782D01*
Y196766D01*
X1489766D01*
Y197782D01*
X1487734D01*
Y196766D01*
X1486718D01*
Y194734D01*
X1487734D01*
X1488242Y195242D02*
Y194734D01*
X1489258D01*
Y195242D01*
X1489766D01*
Y196258D01*
X1489258D01*
Y196766D01*
X1488242D01*
Y196258D01*
X1487734D01*
Y195242D01*
X1488242D01*
X1386734Y255984D02*
Y254968D01*
X1388766D01*
Y255984D01*
X1389782D01*
Y258016D01*
X1388766D01*
Y259032D01*
X1386734D01*
Y258016D01*
X1385718D01*
Y255984D01*
X1386734D01*
X1387242Y256492D02*
Y255984D01*
X1388258D01*
Y256492D01*
X1388766D01*
Y257508D01*
X1388258D01*
Y258016D01*
X1387242D01*
Y257508D01*
X1386734D01*
Y256492D01*
X1387242D01*
X1481683Y258431D02*
Y257415D01*
X1483715D01*
Y258431D01*
X1484731D01*
Y260463D01*
X1483715D01*
Y261479D01*
X1481683D01*
Y260463D01*
X1480667D01*
Y258431D01*
X1481683D01*
X1482191Y258939D02*
Y258431D01*
X1483207D01*
Y258939D01*
X1483715D01*
Y259955D01*
X1483207D01*
Y260463D01*
X1482191D01*
Y259955D01*
X1481683D01*
Y258939D01*
X1482191D01*
X1367734Y301984D02*
Y300968D01*
X1369766D01*
Y301984D01*
X1370782D01*
Y304016D01*
X1369766D01*
Y305032D01*
X1367734D01*
Y304016D01*
X1366718D01*
Y301984D01*
X1367734D01*
X1368242Y302492D02*
Y301984D01*
X1369258D01*
Y302492D01*
X1369766D01*
Y303508D01*
X1369258D01*
Y304016D01*
X1368242D01*
Y303508D01*
X1367734D01*
Y302492D01*
X1368242D01*
X1452234Y329234D02*
Y328218D01*
X1454266D01*
Y329234D01*
X1455282D01*
Y331266D01*
X1454266D01*
Y332282D01*
X1452234D01*
Y331266D01*
X1451218D01*
Y329234D01*
X1452234D01*
X1452742Y329742D02*
Y329234D01*
X1453758D01*
Y329742D01*
X1454266D01*
Y330758D01*
X1453758D01*
Y331266D01*
X1452742D01*
Y330758D01*
X1452234D01*
Y329742D01*
X1452742D01*
X1374468Y398218D02*
X1375484Y400250D01*
X1374468Y402282D01*
X1376500Y401266D01*
X1378532Y402282D01*
X1377516Y400250D01*
X1378532Y398218D01*
X1376500Y399234D01*
X1374468Y398218D01*
X1375484Y399234D02*
X1375992Y400250D01*
X1375484Y401266D01*
X1376500Y400758D01*
X1377516Y401266D01*
X1377008Y400250D01*
X1377516Y399234D01*
X1376500Y399742D01*
X1375484Y399234D01*
X1358718Y436968D02*
X1359734Y439000D01*
X1358718Y441032D01*
X1360750Y440016D01*
X1362782Y441032D01*
X1361766Y439000D01*
X1362782Y436968D01*
X1360750Y437984D01*
X1358718Y436968D01*
X1359734Y437984D02*
X1360242Y439000D01*
X1359734Y440016D01*
X1360750Y439508D01*
X1361766Y440016D01*
X1361258Y439000D01*
X1361766Y437984D01*
X1360750Y438492D01*
X1359734Y437984D01*
X1321968Y461718D02*
X1322984Y463750D01*
X1321968Y465782D01*
X1324000Y464766D01*
X1326032Y465782D01*
X1325016Y463750D01*
X1326032Y461718D01*
X1324000Y462734D01*
X1321968Y461718D01*
X1322984Y462734D02*
X1323492Y463750D01*
X1322984Y464766D01*
X1324000Y464258D01*
X1325016Y464766D01*
X1324508Y463750D01*
X1325016Y462734D01*
X1324000Y463242D01*
X1322984Y462734D01*
X1326468Y443468D02*
X1327484Y445500D01*
X1326468Y447532D01*
X1328500Y446516D01*
X1330532Y447532D01*
X1329516Y445500D01*
X1330532Y443468D01*
X1328500Y444484D01*
X1326468Y443468D01*
X1327484Y444484D02*
X1327992Y445500D01*
X1327484Y446516D01*
X1328500Y446008D01*
X1329516Y446516D01*
X1329008Y445500D01*
X1329516Y444484D01*
X1328500Y444992D01*
X1327484Y444484D01*
X1345718Y459218D02*
X1346734Y461250D01*
X1345718Y463282D01*
X1347750Y462266D01*
X1349782Y463282D01*
X1348766Y461250D01*
X1349782Y459218D01*
X1347750Y460234D01*
X1345718Y459218D01*
X1346734Y460234D02*
X1347242Y461250D01*
X1346734Y462266D01*
X1347750Y461758D01*
X1348766Y462266D01*
X1348258Y461250D01*
X1348766Y460234D01*
X1347750Y460742D01*
X1346734Y460234D01*
X1368218Y459218D02*
X1369234Y461250D01*
X1368218Y463282D01*
X1370250Y462266D01*
X1372282Y463282D01*
X1371266Y461250D01*
X1372282Y459218D01*
X1370250Y460234D01*
X1368218Y459218D01*
X1369234Y460234D02*
X1369742Y461250D01*
X1369234Y462266D01*
X1370250Y461758D01*
X1371266Y462266D01*
X1370758Y461250D01*
X1371266Y460234D01*
X1370250Y460742D01*
X1369234Y460234D01*
X1387984Y505484D02*
Y504468D01*
X1390016D01*
Y505484D01*
X1391032D01*
Y507516D01*
X1390016D01*
Y508532D01*
X1387984D01*
Y507516D01*
X1386968D01*
Y505484D01*
X1387984D01*
X1388492Y505992D02*
Y505484D01*
X1389508D01*
Y505992D01*
X1390016D01*
Y507008D01*
X1389508D01*
Y507516D01*
X1388492D01*
Y507008D01*
X1387984D01*
Y505992D01*
X1388492D01*
X1452734Y440734D02*
Y439718D01*
X1454766D01*
Y440734D01*
X1455782D01*
Y442766D01*
X1454766D01*
Y443782D01*
X1452734D01*
Y442766D01*
X1451718D01*
Y440734D01*
X1452734D01*
X1453242Y441242D02*
Y440734D01*
X1454258D01*
Y441242D01*
X1454766D01*
Y442258D01*
X1454258D01*
Y442766D01*
X1453242D01*
Y442258D01*
X1452734D01*
Y441242D01*
X1453242D01*
X1422984Y484234D02*
Y483218D01*
X1425016D01*
Y484234D01*
X1426032D01*
Y486266D01*
X1425016D01*
Y487282D01*
X1422984D01*
Y486266D01*
X1421968D01*
Y484234D01*
X1422984D01*
X1423492Y484742D02*
Y484234D01*
X1424508D01*
Y484742D01*
X1425016D01*
Y485758D01*
X1424508D01*
Y486266D01*
X1423492D01*
Y485758D01*
X1422984D01*
Y484742D01*
X1423492D01*
X1460484Y529234D02*
Y528218D01*
X1462516D01*
Y529234D01*
X1463532D01*
Y531266D01*
X1462516D01*
Y532282D01*
X1460484D01*
Y531266D01*
X1459468D01*
Y529234D01*
X1460484D01*
X1460992Y529742D02*
Y529234D01*
X1462008D01*
Y529742D01*
X1462516D01*
Y530758D01*
X1462008D01*
Y531266D01*
X1460992D01*
Y530758D01*
X1460484D01*
Y529742D01*
X1460992D01*
X1444984Y542984D02*
Y541968D01*
X1447016D01*
Y542984D01*
X1448032D01*
Y545016D01*
X1447016D01*
Y546032D01*
X1444984D01*
Y545016D01*
X1443968D01*
Y542984D01*
X1444984D01*
X1445492Y543492D02*
Y542984D01*
X1446508D01*
Y543492D01*
X1447016D01*
Y544508D01*
X1446508D01*
Y545016D01*
X1445492D01*
Y544508D01*
X1444984D01*
Y543492D01*
X1445492D01*
X1502484Y555234D02*
Y554218D01*
X1504516D01*
Y555234D01*
X1505532D01*
Y557266D01*
X1504516D01*
Y558282D01*
X1502484D01*
Y557266D01*
X1501468D01*
Y555234D01*
X1502484D01*
X1502992Y555742D02*
Y555234D01*
X1504008D01*
Y555742D01*
X1504516D01*
Y556758D01*
X1504008D01*
Y557266D01*
X1502992D01*
Y556758D01*
X1502484D01*
Y555742D01*
X1502992D01*
X1506734Y580234D02*
Y579218D01*
X1508766D01*
Y580234D01*
X1509782D01*
Y582266D01*
X1508766D01*
Y583282D01*
X1506734D01*
Y582266D01*
X1505718D01*
Y580234D01*
X1506734D01*
X1507242Y580742D02*
Y580234D01*
X1508258D01*
Y580742D01*
X1508766D01*
Y581758D01*
X1508258D01*
Y582266D01*
X1507242D01*
Y581758D01*
X1506734D01*
Y580742D01*
X1507242D01*
X1446984Y595984D02*
Y594968D01*
X1449016D01*
Y595984D01*
X1450032D01*
Y598016D01*
X1449016D01*
Y599032D01*
X1446984D01*
Y598016D01*
X1445968D01*
Y595984D01*
X1446984D01*
X1447492Y596492D02*
Y595984D01*
X1448508D01*
Y596492D01*
X1449016D01*
Y597508D01*
X1448508D01*
Y598016D01*
X1447492D01*
Y597508D01*
X1446984D01*
Y596492D01*
X1447492D01*
X1465484Y596234D02*
Y595218D01*
X1467516D01*
Y596234D01*
X1468532D01*
Y598266D01*
X1467516D01*
Y599282D01*
X1465484D01*
Y598266D01*
X1464468D01*
Y596234D01*
X1465484D01*
X1465992Y596742D02*
Y596234D01*
X1467008D01*
Y596742D01*
X1467516D01*
Y597758D01*
X1467008D01*
Y598266D01*
X1465992D01*
Y597758D01*
X1465484D01*
Y596742D01*
X1465992D01*
X1423234Y607234D02*
Y606218D01*
X1425266D01*
Y607234D01*
X1426282D01*
Y609266D01*
X1425266D01*
Y610282D01*
X1423234D01*
Y609266D01*
X1422218D01*
Y607234D01*
X1423234D01*
X1423742Y607742D02*
Y607234D01*
X1424758D01*
Y607742D01*
X1425266D01*
Y608758D01*
X1424758D01*
Y609266D01*
X1423742D01*
Y608758D01*
X1423234D01*
Y607742D01*
X1423742D01*
X1521984Y607234D02*
Y606218D01*
X1524016D01*
Y607234D01*
X1525032D01*
Y609266D01*
X1524016D01*
Y610282D01*
X1521984D01*
Y609266D01*
X1520968D01*
Y607234D01*
X1521984D01*
X1522492Y607742D02*
Y607234D01*
X1523508D01*
Y607742D01*
X1524016D01*
Y608758D01*
X1523508D01*
Y609266D01*
X1522492D01*
Y608758D01*
X1521984D01*
Y607742D01*
X1522492D01*
X1547001Y607487D02*
Y606471D01*
X1549033D01*
Y607487D01*
X1550049D01*
Y609519D01*
X1549033D01*
Y610535D01*
X1547001D01*
Y609519D01*
X1545985D01*
Y607487D01*
X1547001D01*
X1547509Y607995D02*
Y607487D01*
X1548525D01*
Y607995D01*
X1549033D01*
Y609011D01*
X1548525D01*
Y609519D01*
X1547509D01*
Y609011D01*
X1547001D01*
Y607995D01*
X1547509D01*
X1591250Y257468D02*
X1592266Y258484D01*
X1593282D01*
X1592266Y259500D01*
X1593282Y260516D01*
X1592266D01*
X1591250Y261532D01*
X1590234Y260516D01*
X1589218D01*
X1590234Y259500D01*
X1589218Y258484D01*
X1590234D01*
X1591250Y257468D01*
Y258484D02*
X1591758Y258992D01*
X1592266D01*
X1591758Y259500D01*
X1592266Y260008D01*
X1591758D01*
X1591250Y260516D01*
X1590742Y260008D01*
X1590234D01*
X1590742Y259500D01*
X1590234Y258992D01*
X1590742D01*
X1591250Y258484D01*
X1620234Y277984D02*
Y276968D01*
X1622266D01*
Y277984D01*
X1623282D01*
Y280016D01*
X1622266D01*
Y281032D01*
X1620234D01*
Y280016D01*
X1619218D01*
Y277984D01*
X1620234D01*
X1620742Y278492D02*
Y277984D01*
X1621758D01*
Y278492D01*
X1622266D01*
Y279508D01*
X1621758D01*
Y280016D01*
X1620742D01*
Y279508D01*
X1620234D01*
Y278492D01*
X1620742D01*
X1631984Y238734D02*
Y237718D01*
X1634016D01*
Y238734D01*
X1635032D01*
Y240766D01*
X1634016D01*
Y241782D01*
X1631984D01*
Y240766D01*
X1630968D01*
Y238734D01*
X1631984D01*
X1632492Y239242D02*
Y238734D01*
X1633508D01*
Y239242D01*
X1634016D01*
Y240258D01*
X1633508D01*
Y240766D01*
X1632492D01*
Y240258D01*
X1631984D01*
Y239242D01*
X1632492D01*
X1631984Y186234D02*
Y185218D01*
X1634016D01*
Y186234D01*
X1635032D01*
Y188266D01*
X1634016D01*
Y189282D01*
X1631984D01*
Y188266D01*
X1630968D01*
Y186234D01*
X1631984D01*
X1632492Y186742D02*
Y186234D01*
X1633508D01*
Y186742D01*
X1634016D01*
Y187758D01*
X1633508D01*
Y188266D01*
X1632492D01*
Y187758D01*
X1631984D01*
Y186742D01*
X1632492D01*
X1654734Y330984D02*
Y329968D01*
X1656766D01*
Y330984D01*
X1657782D01*
Y333016D01*
X1656766D01*
Y334032D01*
X1654734D01*
Y333016D01*
X1653718D01*
Y330984D01*
X1654734D01*
X1655242Y331492D02*
Y330984D01*
X1656258D01*
Y331492D01*
X1656766D01*
Y332508D01*
X1656258D01*
Y333016D01*
X1655242D01*
Y332508D01*
X1654734D01*
Y331492D01*
X1655242D01*
X1584484Y519484D02*
Y518468D01*
X1586516D01*
Y519484D01*
X1587532D01*
Y521516D01*
X1586516D01*
Y522532D01*
X1584484D01*
Y521516D01*
X1583468D01*
Y519484D01*
X1584484D01*
X1584992Y519992D02*
Y519484D01*
X1586008D01*
Y519992D01*
X1586516D01*
Y521008D01*
X1586008D01*
Y521516D01*
X1584992D01*
Y521008D01*
X1584484D01*
Y519992D01*
X1584992D01*
X1566734Y532484D02*
Y531468D01*
X1568766D01*
Y532484D01*
X1569782D01*
Y534516D01*
X1568766D01*
Y535532D01*
X1566734D01*
Y534516D01*
X1565718D01*
Y532484D01*
X1566734D01*
X1567242Y532992D02*
Y532484D01*
X1568258D01*
Y532992D01*
X1568766D01*
Y534008D01*
X1568258D01*
Y534516D01*
X1567242D01*
Y534008D01*
X1566734D01*
Y532992D01*
X1567242D01*
X1560234Y570734D02*
Y569718D01*
X1562266D01*
Y570734D01*
X1563282D01*
Y572766D01*
X1562266D01*
Y573782D01*
X1560234D01*
Y572766D01*
X1559218D01*
Y570734D01*
X1560234D01*
X1560742Y571242D02*
Y570734D01*
X1561758D01*
Y571242D01*
X1562266D01*
Y572258D01*
X1561758D01*
Y572766D01*
X1560742D01*
Y572258D01*
X1560234D01*
Y571242D01*
X1560742D01*
X1558234Y587734D02*
Y586718D01*
X1560266D01*
Y587734D01*
X1561282D01*
Y589766D01*
X1560266D01*
Y590782D01*
X1558234D01*
Y589766D01*
X1557218D01*
Y587734D01*
X1558234D01*
X1558742Y588242D02*
Y587734D01*
X1559758D01*
Y588242D01*
X1560266D01*
Y589258D01*
X1559758D01*
Y589766D01*
X1558742D01*
Y589258D01*
X1558234D01*
Y588242D01*
X1558742D01*
X1571984Y607484D02*
Y606468D01*
X1574016D01*
Y607484D01*
X1575032D01*
Y609516D01*
X1574016D01*
Y610532D01*
X1571984D01*
Y609516D01*
X1570968D01*
Y607484D01*
X1571984D01*
X1572492Y607992D02*
Y607484D01*
X1573508D01*
Y607992D01*
X1574016D01*
Y609008D01*
X1573508D01*
Y609516D01*
X1572492D01*
Y609008D01*
X1571984D01*
Y607992D01*
X1572492D01*
X1596984Y607484D02*
Y606468D01*
X1599016D01*
Y607484D01*
X1600032D01*
Y609516D01*
X1599016D01*
Y610532D01*
X1596984D01*
Y609516D01*
X1595968D01*
Y607484D01*
X1596984D01*
X1597492Y607992D02*
Y607484D01*
X1598508D01*
Y607992D01*
X1599016D01*
Y609008D01*
X1598508D01*
Y609516D01*
X1597492D01*
Y609008D01*
X1596984D01*
Y607992D01*
X1597492D01*
X1621484Y607484D02*
Y606468D01*
X1623516D01*
Y607484D01*
X1624532D01*
Y609516D01*
X1623516D01*
Y610532D01*
X1621484D01*
Y609516D01*
X1620468D01*
Y607484D01*
X1621484D01*
X1621992Y607992D02*
Y607484D01*
X1623008D01*
Y607992D01*
X1623516D01*
Y609008D01*
X1623008D01*
Y609516D01*
X1621992D01*
Y609008D01*
X1621484D01*
Y607992D01*
X1621992D01*
X1646234Y607484D02*
Y606468D01*
X1648266D01*
Y607484D01*
X1649282D01*
Y609516D01*
X1648266D01*
Y610532D01*
X1646234D01*
Y609516D01*
X1645218D01*
Y607484D01*
X1646234D01*
X1646742Y607992D02*
Y607484D01*
X1647758D01*
Y607992D01*
X1648266D01*
Y609008D01*
X1647758D01*
Y609516D01*
X1646742D01*
Y609008D01*
X1646234D01*
Y607992D01*
X1646742D01*
X185632Y88620D02*
Y87604D01*
X187664D01*
Y88620D01*
X188680D01*
Y90652D01*
X187664D01*
Y91668D01*
X185632D01*
Y90652D01*
X184616D01*
Y88620D01*
X185632D01*
X186140Y89128D02*
Y88620D01*
X187156D01*
Y89128D01*
X187664D01*
Y90144D01*
X187156D01*
Y90652D01*
X186140D01*
Y90144D01*
X185632D01*
Y89128D01*
X186140D01*
X250984Y132984D02*
Y131968D01*
X253016D01*
Y132984D01*
X254032D01*
Y135016D01*
X253016D01*
Y136032D01*
X250984D01*
Y135016D01*
X249968D01*
Y132984D01*
X250984D01*
X251492Y133492D02*
Y132984D01*
X252508D01*
Y133492D01*
X253016D01*
Y134508D01*
X252508D01*
Y135016D01*
X251492D01*
Y134508D01*
X250984D01*
Y133492D01*
X251492D01*
X190484Y182484D02*
Y181468D01*
X192516D01*
Y182484D01*
X193532D01*
Y184516D01*
X192516D01*
Y185532D01*
X190484D01*
Y184516D01*
X189468D01*
Y182484D01*
X190484D01*
X190992Y182992D02*
Y182484D01*
X192008D01*
Y182992D01*
X192516D01*
Y184008D01*
X192008D01*
Y184516D01*
X190992D01*
Y184008D01*
X190484D01*
Y182992D01*
X190992D01*
X646234Y124234D02*
Y123218D01*
X648266D01*
Y124234D01*
X649282D01*
Y126266D01*
X648266D01*
Y127282D01*
X646234D01*
Y126266D01*
X645218D01*
Y124234D01*
X646234D01*
X646742Y124742D02*
Y124234D01*
X647758D01*
Y124742D01*
X648266D01*
Y125758D01*
X647758D01*
Y126266D01*
X646742D01*
Y125758D01*
X646234D01*
Y124742D01*
X646742D01*
X604234Y74984D02*
Y73968D01*
X606266D01*
Y74984D01*
X607282D01*
Y77016D01*
X606266D01*
Y78032D01*
X604234D01*
Y77016D01*
X603218D01*
Y74984D01*
X604234D01*
X604742Y75492D02*
Y74984D01*
X605758D01*
Y75492D01*
X606266D01*
Y76508D01*
X605758D01*
Y77016D01*
X604742D01*
Y76508D01*
X604234D01*
Y75492D01*
X604742D01*
X624984Y48984D02*
Y47968D01*
X627016D01*
Y48984D01*
X628032D01*
Y51016D01*
X627016D01*
Y52032D01*
X624984D01*
Y51016D01*
X623968D01*
Y48984D01*
X624984D01*
X625492Y49492D02*
Y48984D01*
X626508D01*
Y49492D01*
X627016D01*
Y50508D01*
X626508D01*
Y51016D01*
X625492D01*
Y50508D01*
X624984D01*
Y49492D01*
X625492D01*
X675734Y50984D02*
Y49968D01*
X677766D01*
Y50984D01*
X678782D01*
Y53016D01*
X677766D01*
Y54032D01*
X675734D01*
Y53016D01*
X674718D01*
Y50984D01*
X675734D01*
X676242Y51492D02*
Y50984D01*
X677258D01*
Y51492D01*
X677766D01*
Y52508D01*
X677258D01*
Y53016D01*
X676242D01*
Y52508D01*
X675734D01*
Y51492D01*
X676242D01*
X701734Y55984D02*
Y54968D01*
X703766D01*
Y55984D01*
X704782D01*
Y58016D01*
X703766D01*
Y59032D01*
X701734D01*
Y58016D01*
X700718D01*
Y55984D01*
X701734D01*
X702242Y56492D02*
Y55984D01*
X703258D01*
Y56492D01*
X703766D01*
Y57508D01*
X703258D01*
Y58016D01*
X702242D01*
Y57508D01*
X701734D01*
Y56492D01*
X702242D01*
X783484Y98884D02*
Y97868D01*
X785516D01*
Y98884D01*
X786532D01*
Y100916D01*
X785516D01*
Y101932D01*
X783484D01*
Y100916D01*
X782468D01*
Y98884D01*
X783484D01*
X783992Y99392D02*
Y98884D01*
X785008D01*
Y99392D01*
X785516D01*
Y100408D01*
X785008D01*
Y100916D01*
X783992D01*
Y100408D01*
X783484D01*
Y99392D01*
X783992D01*
X735484Y57484D02*
Y56468D01*
X737516D01*
Y57484D01*
X738532D01*
Y59516D01*
X737516D01*
Y60532D01*
X735484D01*
Y59516D01*
X734468D01*
Y57484D01*
X735484D01*
X735992Y57992D02*
Y57484D01*
X737008D01*
Y57992D01*
X737516D01*
Y59008D01*
X737008D01*
Y59516D01*
X735992D01*
Y59008D01*
X735484D01*
Y57992D01*
X735992D01*
X799484Y13234D02*
Y12218D01*
X801516D01*
Y13234D01*
X802532D01*
Y15266D01*
X801516D01*
Y16282D01*
X799484D01*
Y15266D01*
X798468D01*
Y13234D01*
X799484D01*
X799992Y13742D02*
Y13234D01*
X801008D01*
Y13742D01*
X801516D01*
Y14758D01*
X801008D01*
Y15266D01*
X799992D01*
Y14758D01*
X799484D01*
Y13742D01*
X799992D01*
X798484Y74734D02*
Y73718D01*
X800516D01*
Y74734D01*
X801532D01*
Y76766D01*
X800516D01*
Y77782D01*
X798484D01*
Y76766D01*
X797468D01*
Y74734D01*
X798484D01*
X798992Y75242D02*
Y74734D01*
X800008D01*
Y75242D01*
X800516D01*
Y76258D01*
X800008D01*
Y76766D01*
X798992D01*
Y76258D01*
X798484D01*
Y75242D01*
X798992D01*
X949734Y66234D02*
Y65218D01*
X951766D01*
Y66234D01*
X952782D01*
Y68266D01*
X951766D01*
Y69282D01*
X949734D01*
Y68266D01*
X948718D01*
Y66234D01*
X949734D01*
X950242Y66742D02*
Y66234D01*
X951258D01*
Y66742D01*
X951766D01*
Y67758D01*
X951258D01*
Y68266D01*
X950242D01*
Y67758D01*
X949734D01*
Y66742D01*
X950242D01*
X962234Y39984D02*
Y38968D01*
X964266D01*
Y39984D01*
X965282D01*
Y42016D01*
X964266D01*
Y43032D01*
X962234D01*
Y42016D01*
X961218D01*
Y39984D01*
X962234D01*
X962742Y40492D02*
Y39984D01*
X963758D01*
Y40492D01*
X964266D01*
Y41508D01*
X963758D01*
Y42016D01*
X962742D01*
Y41508D01*
X962234D01*
Y40492D01*
X962742D01*
X863734Y153484D02*
Y152468D01*
X865766D01*
Y153484D01*
X866782D01*
Y155516D01*
X865766D01*
Y156532D01*
X863734D01*
Y155516D01*
X862718D01*
Y153484D01*
X863734D01*
X864242Y153992D02*
Y153484D01*
X865258D01*
Y153992D01*
X865766D01*
Y155008D01*
X865258D01*
Y155516D01*
X864242D01*
Y155008D01*
X863734D01*
Y153992D01*
X864242D01*
X649000Y309218D02*
X650016Y310234D01*
X651032D01*
X650016Y311250D01*
X651032Y312266D01*
X650016D01*
X649000Y313282D01*
X647984Y312266D01*
X646968D01*
X647984Y311250D01*
X646968Y310234D01*
X647984D01*
X649000Y309218D01*
Y310234D02*
X649508Y310742D01*
X650016D01*
X649508Y311250D01*
X650016Y311758D01*
X649508D01*
X649000Y312266D01*
X648492Y311758D01*
X647984D01*
X648492Y311250D01*
X647984Y310742D01*
X648492D01*
X649000Y310234D01*
X731000Y390968D02*
X732016Y391984D01*
X733032D01*
X732016Y393000D01*
X733032Y394016D01*
X732016D01*
X731000Y395032D01*
X729984Y394016D01*
X728968D01*
X729984Y393000D01*
X728968Y391984D01*
X729984D01*
X731000Y390968D01*
Y391984D02*
X731508Y392492D01*
X732016D01*
X731508Y393000D01*
X732016Y393508D01*
X731508D01*
X731000Y394016D01*
X730492Y393508D01*
X729984D01*
X730492Y393000D01*
X729984Y392492D01*
X730492D01*
X731000Y391984D01*
X1701984Y292734D02*
Y291718D01*
X1704016D01*
Y292734D01*
X1705032D01*
Y294766D01*
X1704016D01*
Y295782D01*
X1701984D01*
Y294766D01*
X1700968D01*
Y292734D01*
X1701984D01*
X1702492Y293242D02*
Y292734D01*
X1703508D01*
Y293242D01*
X1704016D01*
Y294258D01*
X1703508D01*
Y294766D01*
X1702492D01*
Y294258D01*
X1701984D01*
Y293242D01*
X1702492D01*
X1703984Y221984D02*
Y220968D01*
X1706016D01*
Y221984D01*
X1707032D01*
Y224016D01*
X1706016D01*
Y225032D01*
X1703984D01*
Y224016D01*
X1702968D01*
Y221984D01*
X1703984D01*
X1704492Y222492D02*
Y221984D01*
X1705508D01*
Y222492D01*
X1706016D01*
Y223508D01*
X1705508D01*
Y224016D01*
X1704492D01*
Y223508D01*
X1703984D01*
Y222492D01*
X1704492D01*
X1702484Y188734D02*
Y187718D01*
X1704516D01*
Y188734D01*
X1705532D01*
Y190766D01*
X1704516D01*
Y191782D01*
X1702484D01*
Y190766D01*
X1701468D01*
Y188734D01*
X1702484D01*
X1702992Y189242D02*
Y188734D01*
X1704008D01*
Y189242D01*
X1704516D01*
Y190258D01*
X1704008D01*
Y190766D01*
X1702992D01*
Y190258D01*
X1702484D01*
Y189242D01*
X1702992D01*
X67851Y208338D02*
Y207322D01*
X69883D01*
Y208338D01*
X70899D01*
Y210370D01*
X69883D01*
Y211386D01*
X67851D01*
Y210370D01*
X66835D01*
Y208338D01*
X67851D01*
X68359Y208846D02*
Y208338D01*
X69375D01*
Y208846D01*
X69883D01*
Y209862D01*
X69375D01*
Y210370D01*
X68359D01*
Y209862D01*
X67851D01*
Y208846D01*
X68359D01*
X293234Y154484D02*
Y153468D01*
X295266D01*
Y154484D01*
X296282D01*
Y156516D01*
X295266D01*
Y157532D01*
X293234D01*
Y156516D01*
X292218D01*
Y154484D01*
X293234D01*
X293742Y154992D02*
Y154484D01*
X294758D01*
Y154992D01*
X295266D01*
Y156008D01*
X294758D01*
Y156516D01*
X293742D01*
Y156008D01*
X293234D01*
Y154992D01*
X293742D01*
X301484Y65734D02*
Y64718D01*
X303516D01*
Y65734D01*
X304532D01*
Y67766D01*
X303516D01*
Y68782D01*
X301484D01*
Y67766D01*
X300468D01*
Y65734D01*
X301484D01*
X301992Y66242D02*
Y65734D01*
X303008D01*
Y66242D01*
X303516D01*
Y67258D01*
X303008D01*
Y67766D01*
X301992D01*
Y67258D01*
X301484D01*
Y66242D01*
X301992D01*
X392335Y631669D02*
Y630653D01*
X394367D01*
Y631669D01*
X395383D01*
Y633701D01*
X394367D01*
Y634717D01*
X392335D01*
Y633701D01*
X391319D01*
Y631669D01*
X392335D01*
X392843Y632177D02*
Y631669D01*
X393859D01*
Y632177D01*
X394367D01*
Y633193D01*
X393859D01*
Y633701D01*
X392843D01*
Y633193D01*
X392335D01*
Y632177D01*
X392843D01*
X431000Y561218D02*
X432016Y562234D01*
X433032D01*
X432016Y563250D01*
X433032Y564266D01*
X432016D01*
X431000Y565282D01*
X429984Y564266D01*
X428968D01*
X429984Y563250D01*
X428968Y562234D01*
X429984D01*
X431000Y561218D01*
Y562234D02*
X431508Y562742D01*
X432016D01*
X431508Y563250D01*
X432016Y563758D01*
X431508D01*
X431000Y564266D01*
X430492Y563758D01*
X429984D01*
X430492Y563250D01*
X429984Y562742D01*
X430492D01*
X431000Y562234D01*
X364250Y579968D02*
X365266Y580984D01*
X366282D01*
X365266Y582000D01*
X366282Y583016D01*
X365266D01*
X364250Y584032D01*
X363234Y583016D01*
X362218D01*
X363234Y582000D01*
X362218Y580984D01*
X363234D01*
X364250Y579968D01*
Y580984D02*
X364758Y581492D01*
X365266D01*
X364758Y582000D01*
X365266Y582508D01*
X364758D01*
X364250Y583016D01*
X363742Y582508D01*
X363234D01*
X363742Y582000D01*
X363234Y581492D01*
X363742D01*
X364250Y580984D01*
X287500Y572718D02*
X288516Y573734D01*
X289532D01*
X288516Y574750D01*
X289532Y575766D01*
X288516D01*
X287500Y576782D01*
X286484Y575766D01*
X285468D01*
X286484Y574750D01*
X285468Y573734D01*
X286484D01*
X287500Y572718D01*
Y573734D02*
X288008Y574242D01*
X288516D01*
X288008Y574750D01*
X288516Y575258D01*
X288008D01*
X287500Y575766D01*
X286992Y575258D01*
X286484D01*
X286992Y574750D01*
X286484Y574242D01*
X286992D01*
X287500Y573734D01*
M02*
