G04*
G04 #@! TF.GenerationSoftware,Altium Limited,Altium Designer,22.7.1 (60)*
G04*
G04 Layer_Color=128*
%FSLAX44Y44*%
%MOMM*%
G71*
G04*
G04 #@! TF.SameCoordinates,3D511D00-9B74-4921-819B-1F54B840CB57*
G04*
G04*
G04 #@! TF.FilePolarity,Positive*
G04*
G01*
G75*
%ADD127C,0.0508*%
D127*
X1178680Y1002030D02*
X1193680D01*
X1186180Y994530D02*
Y1009530D01*
X978680Y1002030D02*
X993680D01*
X986180Y994530D02*
Y1009530D01*
X863680Y382030D02*
X878680D01*
X871180Y374530D02*
Y389530D01*
X1093680Y382030D02*
X1108680D01*
X1101180Y374530D02*
Y389530D01*
X778680Y1002030D02*
X793680D01*
X786180Y994530D02*
Y1009530D01*
X698310Y924560D02*
X706310D01*
X702310Y920560D02*
Y928560D01*
X545910Y1026160D02*
X553910D01*
X549910Y1022160D02*
Y1030160D01*
X545910Y822960D02*
X553910D01*
X549910Y818960D02*
Y826960D01*
X584010Y441960D02*
X592010D01*
X588010Y437960D02*
Y445960D01*
X660210Y441960D02*
X668210D01*
X664210Y437960D02*
Y445960D01*
X319900Y847500D02*
X330100D01*
X325000Y842400D02*
Y852600D01*
X289900Y847500D02*
X300100D01*
X295000Y842400D02*
Y852600D01*
X434100Y1021500D02*
X442100D01*
X438100Y1017500D02*
Y1025500D01*
X459500Y1021500D02*
X467500D01*
X463500Y1017500D02*
Y1025500D01*
X484900Y1021500D02*
X492900D01*
X488900Y1017500D02*
Y1025500D01*
X488750Y732250D02*
X503750D01*
X496250Y724750D02*
Y739750D01*
X378750Y732250D02*
X393750D01*
X386250Y724750D02*
Y739750D01*
X319900Y944500D02*
X330100D01*
X325000Y939400D02*
Y949600D01*
X289900Y944500D02*
X300100D01*
X295000Y939400D02*
Y949600D01*
X319900Y755250D02*
X330100D01*
X325000Y750150D02*
Y760350D01*
X289900Y755250D02*
X300100D01*
X295000Y750150D02*
Y760350D01*
X319900Y668500D02*
X330100D01*
X325000Y663400D02*
Y673600D01*
X289900Y668500D02*
X300100D01*
X295000Y663400D02*
Y673600D01*
X1864500Y834200D02*
X1875500D01*
X1870000Y828700D02*
Y839700D01*
X1864500Y859600D02*
X1875500D01*
X1870000Y854100D02*
Y865100D01*
X1864500Y910400D02*
X1875500D01*
X1870000Y904900D02*
Y915900D01*
X1864500Y935800D02*
X1875500D01*
X1870000Y930300D02*
Y941300D01*
X1864500Y885000D02*
X1875500D01*
X1870000Y879500D02*
Y890500D01*
X1835750Y859700D02*
X1846750D01*
X1841250Y854200D02*
Y865200D01*
X1835750Y885100D02*
X1846750D01*
X1841250Y879600D02*
Y890600D01*
X1835750Y935900D02*
X1846750D01*
X1841250Y930400D02*
Y941400D01*
X1835750Y910500D02*
X1846750D01*
X1841250Y905000D02*
Y916000D01*
X2110500Y877570D02*
X2120700D01*
X2115600Y872470D02*
Y882670D01*
X2141000Y877570D02*
X2151200D01*
X2146100Y872470D02*
Y882670D01*
X2174700Y877570D02*
X2204700D01*
X2189700Y862570D02*
Y892570D01*
X290800Y437750D02*
X320800D01*
X305800Y422750D02*
Y452750D01*
X290800Y390750D02*
X320800D01*
X305800Y375750D02*
Y405750D01*
X343000Y459250D02*
X355000D01*
X349000Y453250D02*
Y465250D01*
X343000Y399250D02*
X355000D01*
X349000Y393250D02*
Y405250D01*
X343000Y369250D02*
X355000D01*
X349000Y363250D02*
Y375250D01*
X373000Y459250D02*
X385000D01*
X379000Y453250D02*
Y465250D01*
X373000Y399250D02*
X385000D01*
X379000Y393250D02*
Y405250D01*
X373000Y369250D02*
X385000D01*
X379000Y363250D02*
Y375250D01*
X373000Y429250D02*
X385000D01*
X379000Y423250D02*
Y435250D01*
X343000Y429250D02*
X355000D01*
X349000Y423250D02*
Y435250D01*
X449000Y476500D02*
X454000D01*
X451500Y474000D02*
Y479000D01*
X424000Y476500D02*
X429000D01*
X426500Y474000D02*
Y479000D01*
X453920Y642620D02*
X461920D01*
X457920Y638620D02*
Y646620D01*
X428520Y642620D02*
X436520D01*
X432520Y638620D02*
Y646620D01*
X453920Y591820D02*
X461920D01*
X457920Y587820D02*
Y595820D01*
X403120Y591820D02*
X411120D01*
X407120Y587820D02*
Y595820D01*
X1576890Y1017970D02*
X1590890D01*
X1583890Y1010970D02*
Y1024970D01*
X1590390Y1004570D02*
X1602390D01*
X1596390Y998570D02*
Y1010570D01*
X1540390Y1004570D02*
X1552390D01*
X1546390Y998570D02*
Y1010570D01*
X1615390Y1004570D02*
X1627390D01*
X1621390Y998570D02*
Y1010570D01*
X1565390Y1004570D02*
X1577390D01*
X1571390Y998570D02*
Y1010570D01*
X1308290Y638850D02*
X1319290D01*
X1313790Y633350D02*
Y644350D01*
X1333690Y638850D02*
X1344690D01*
X1339190Y633350D02*
Y644350D01*
X2195450Y330200D02*
X2211450D01*
X2203450Y322200D02*
Y338200D01*
X2195450Y405200D02*
X2211450D01*
X2203450Y397200D02*
Y413200D01*
X2100650Y405200D02*
X2112650D01*
X2106650Y399200D02*
Y411200D01*
X2100650Y380200D02*
X2112650D01*
X2106650Y374200D02*
Y386200D01*
X2100650Y355200D02*
X2112650D01*
X2106650Y349200D02*
Y361200D01*
X2100650Y330200D02*
X2112650D01*
X2106650Y324200D02*
Y336200D01*
X2125650Y405200D02*
X2137650D01*
X2131650Y399200D02*
Y411200D01*
X2125650Y380200D02*
X2137650D01*
X2131650Y374200D02*
Y386200D01*
X2125650Y355200D02*
X2137650D01*
X2131650Y349200D02*
Y361200D01*
X2125650Y330200D02*
X2137650D01*
X2131650Y324200D02*
Y336200D01*
X2201260Y567450D02*
X2213260D01*
X2207260Y561450D02*
Y573450D01*
X2201260Y622850D02*
X2213260D01*
X2207260Y616850D02*
Y628850D01*
X2201260Y595150D02*
X2213260D01*
X2207260Y589150D02*
Y601150D01*
X2205560Y706300D02*
X2237360D01*
X2221460Y690400D02*
Y722200D01*
X2205560Y456300D02*
X2237360D01*
X2221460Y440400D02*
Y472200D01*
X2229660Y609000D02*
X2241660D01*
X2235660Y603000D02*
Y615000D01*
X2229660Y636700D02*
X2241660D01*
X2235660Y630700D02*
Y642700D01*
X2201260Y539750D02*
X2213260D01*
X2207260Y533750D02*
Y545750D01*
X2229660Y525900D02*
X2241660D01*
X2235660Y519900D02*
Y531900D01*
X2229660Y553600D02*
X2241660D01*
X2235660Y547600D02*
Y559600D01*
X2229660Y581300D02*
X2241660D01*
X2235660Y575300D02*
Y587300D01*
X1707540Y1019300D02*
X1719540D01*
X1713540Y1013300D02*
Y1025300D01*
X1677540Y989300D02*
X1689540D01*
X1683540Y983300D02*
Y995300D01*
X1707540Y989300D02*
X1719540D01*
X1713540Y983300D02*
Y995300D01*
X1677540Y1019300D02*
X1689540D01*
X1683540Y1013300D02*
Y1025300D01*
X1737540Y1028700D02*
X1749540D01*
X1743540Y1022700D02*
Y1034700D01*
X1647540Y1028700D02*
X1659540D01*
X1653540Y1022700D02*
Y1034700D01*
X1998560Y923290D02*
X2009560D01*
X2004060Y917790D02*
Y928790D01*
X1973160Y923290D02*
X1984160D01*
X1978660Y917790D02*
Y928790D01*
X2100650Y967340D02*
X2112650D01*
X2106650Y961340D02*
Y973340D01*
X1411160Y698540D02*
X1422160D01*
X1416660Y693040D02*
Y704040D01*
X1411160Y723940D02*
X1422160D01*
X1416660Y718440D02*
Y729440D01*
X1617500Y301000D02*
X1629500D01*
X1623500Y295000D02*
Y307000D01*
X1567500Y301000D02*
X1579500D01*
X1573500Y295000D02*
Y307000D01*
X1407250Y301000D02*
X1419250D01*
X1413250Y295000D02*
Y307000D01*
X1457250Y301000D02*
X1469250D01*
X1463250Y295000D02*
Y307000D01*
X1507250Y301000D02*
X1519250D01*
X1513250Y295000D02*
Y307000D01*
X1263500Y302000D02*
X1275500D01*
X1269500Y296000D02*
Y308000D01*
X1313500Y302000D02*
X1325500D01*
X1319500Y296000D02*
Y308000D01*
X2195450Y942340D02*
X2211450D01*
X2203450Y934340D02*
Y950340D01*
X2195450Y967340D02*
X2211450D01*
X2203450Y959340D02*
Y975340D01*
X2125650Y942340D02*
X2137650D01*
X2131650Y936340D02*
Y948340D01*
X2125650Y967340D02*
X2137650D01*
X2131650Y961340D02*
Y973340D01*
X2100650Y942340D02*
X2112650D01*
X2106650Y936340D02*
Y948340D01*
X1973160Y1032510D02*
X1984160D01*
X1978660Y1027010D02*
Y1038010D01*
X1998560Y1032510D02*
X2009560D01*
X2004060Y1027010D02*
Y1038010D01*
X1912200Y981710D02*
X1923200D01*
X1917700Y976210D02*
Y987210D01*
X1912200Y956310D02*
X1923200D01*
X1917700Y950810D02*
Y961810D01*
X1910930Y872490D02*
X1921930D01*
X1916430Y866990D02*
Y877990D01*
X1910930Y847090D02*
X1921930D01*
X1916430Y841590D02*
Y852590D01*
X1690210Y303530D02*
X1698210D01*
X1694210Y299530D02*
Y307530D01*
X1676210Y355600D02*
X1684210D01*
X1680210Y351600D02*
Y359600D01*
X1677480Y407670D02*
X1685480D01*
X1681480Y403670D02*
Y411670D01*
X1705690Y443424D02*
X1713690D01*
X1709690Y439424D02*
Y447424D01*
X1756810Y334370D02*
X1761810D01*
X1759310Y331870D02*
Y336870D01*
X1791500Y342500D02*
X1796500D01*
X1794000Y340000D02*
Y345000D01*
X1854240Y344170D02*
X1859240D01*
X1856740Y341670D02*
Y346670D01*
X1756810Y386440D02*
X1761810D01*
X1759310Y383940D02*
Y388940D01*
X1756810Y438510D02*
X1761810D01*
X1759310Y436010D02*
Y441010D01*
X1753000Y453260D02*
X1761000D01*
X1757000Y449260D02*
Y457260D01*
X1873060Y453390D02*
X1881060D01*
X1877060Y449390D02*
Y457390D01*
X1919750Y526500D02*
X1924750D01*
X1922250Y524000D02*
Y529000D01*
X1933500Y308000D02*
X1938500D01*
X1936000Y305500D02*
Y310500D01*
X1982510Y345440D02*
X1987510D01*
X1985010Y342940D02*
Y347940D01*
X2003000Y386750D02*
X2008000D01*
X2005500Y384250D02*
Y389250D01*
X753250Y302500D02*
X758250D01*
X755750Y300000D02*
Y305000D01*
X1725750Y291020D02*
X1730750D01*
X1728250Y288520D02*
Y293520D01*
X1799750Y267000D02*
X1804750D01*
X1802250Y264500D02*
Y269500D01*
X433500Y440750D02*
X441500D01*
X437500Y436750D02*
Y444750D01*
X1568750Y635750D02*
X1573750D01*
X1571250Y633250D02*
Y638250D01*
X1645730Y615950D02*
X1653730D01*
X1649730Y611950D02*
Y619950D01*
X1619500Y648500D02*
X1624500D01*
X1622000Y646000D02*
Y651000D01*
X1621600Y618490D02*
X1629600D01*
X1625600Y614490D02*
Y622490D01*
X1645730Y640080D02*
X1653730D01*
X1649730Y636080D02*
Y644080D01*
X1612500Y747500D02*
X1617500D01*
X1615000Y745000D02*
Y750000D01*
X1659750Y715750D02*
X1664750D01*
X1662250Y713250D02*
Y718250D01*
X1723500Y715750D02*
X1728500D01*
X1726000Y713250D02*
Y718250D01*
X1679500Y907000D02*
X1684500D01*
X1682000Y904500D02*
Y909500D01*
X2173000Y1024100D02*
X2203000D01*
X2188000Y1009100D02*
Y1039100D01*
X687141Y370475D02*
X692141D01*
X689641Y367975D02*
Y372975D01*
X1236250Y383250D02*
X1244250D01*
X1240250Y379250D02*
Y387250D01*
X690335Y319924D02*
X698335D01*
X694335Y315924D02*
Y323924D01*
X595250Y308750D02*
X603250D01*
X599250Y304750D02*
Y312750D01*
X598000Y933250D02*
X606000D01*
X602000Y929250D02*
Y937250D01*
X597250Y954750D02*
X605250D01*
X601250Y950750D02*
Y958750D01*
X347000Y866500D02*
X362000D01*
X354500Y859000D02*
Y874000D01*
X256000Y866500D02*
X271000D01*
X263500Y859000D02*
Y874000D01*
X510750Y780750D02*
X518750D01*
X514750Y776750D02*
Y784750D01*
X525250Y862250D02*
X533250D01*
X529250Y858250D02*
Y866250D01*
X664000Y862250D02*
X672000D01*
X668000Y858250D02*
Y866250D01*
X525500Y970750D02*
X533500D01*
X529500Y966750D02*
Y974750D01*
X347000Y963500D02*
X362000D01*
X354500Y956000D02*
Y971000D01*
X256000Y963500D02*
X271000D01*
X263500Y956000D02*
Y971000D01*
X347000Y774250D02*
X362000D01*
X354500Y766750D02*
Y781750D01*
X256000Y774250D02*
X271000D01*
X263500Y766750D02*
Y781750D01*
X347000Y687500D02*
X362000D01*
X354500Y680000D02*
Y695000D01*
X256000Y687500D02*
X271000D01*
X263500Y680000D02*
Y695000D01*
X1967250Y273500D02*
X1972250D01*
X1969750Y271000D02*
Y276000D01*
X1385710Y386502D02*
X1393710D01*
X1389710Y382502D02*
Y390502D01*
X1527950Y386502D02*
X1535950D01*
X1531950Y382502D02*
Y390502D01*
X1459370Y386502D02*
X1467370D01*
X1463370Y382502D02*
Y390502D01*
X1492750Y456000D02*
X1500750D01*
X1496750Y452000D02*
Y460000D01*
X1427290Y456000D02*
X1435290D01*
X1431290Y452000D02*
Y460000D01*
X1493330Y535940D02*
X1501330D01*
X1497330Y531940D02*
Y539940D01*
X1525612Y561212D02*
X1533612D01*
X1529612Y557212D02*
Y565212D01*
X1558100Y456000D02*
X1566100D01*
X1562100Y452000D02*
Y460000D01*
X1573116Y592326D02*
X1581116D01*
X1577116Y588326D02*
Y596326D01*
X1577150Y466090D02*
X1585150D01*
X1581150Y462090D02*
Y470090D01*
X1578420Y490220D02*
X1586420D01*
X1582420Y486220D02*
Y494220D01*
X1583510Y518160D02*
X1591510D01*
X1587510Y514160D02*
Y522160D01*
X2173000Y284100D02*
X2203000D01*
X2188000Y269100D02*
Y299100D01*
X302790Y284100D02*
X332790D01*
X317790Y269100D02*
Y299100D01*
X302790Y1024100D02*
X332790D01*
X317790Y1009100D02*
Y1039100D01*
M02*
