G04*
G04 #@! TF.GenerationSoftware,Altium Limited,Altium Designer,22.7.1 (60)*
G04*
G04 Layer_Color=128*
%FSLAX44Y44*%
%MOMM*%
G71*
G04*
G04 #@! TF.SameCoordinates,84C913F6-0FDF-4526-9F0D-4E4E4A459FD0*
G04*
G04*
G04 #@! TF.FilePolarity,Positive*
G04*
G01*
G75*
%ADD127C,0.0508*%
D127*
X1953536Y345097D02*
X1961536D01*
X1957536Y341097D02*
Y349097D01*
X1824140Y327750D02*
X1832140D01*
X1828140Y323750D02*
Y331750D01*
X1885500Y341500D02*
X1893500D01*
X1889500Y337500D02*
Y345500D01*
X1838500Y435500D02*
X1846500D01*
X1842500Y431500D02*
Y439500D01*
X1927000Y447750D02*
X1935000D01*
X1931000Y443750D02*
Y451750D01*
X1764000Y479750D02*
X1772000D01*
X1768000Y475750D02*
Y483750D01*
X1770500Y517000D02*
X1778500D01*
X1774500Y513000D02*
Y521000D01*
X2016000Y344750D02*
X2024000D01*
X2020000Y340750D02*
Y348750D01*
X1951500Y376000D02*
X1959500D01*
X1955500Y372000D02*
Y380000D01*
X2015750Y384000D02*
X2023750D01*
X2019750Y380000D02*
Y388000D01*
X2053750Y404500D02*
X2061750D01*
X2057750Y400500D02*
Y408500D01*
X1967500Y435000D02*
X1975500D01*
X1971500Y431000D02*
Y439000D01*
X738250Y315500D02*
X743250D01*
X740750Y313000D02*
Y318000D01*
X491250Y429000D02*
X499250D01*
X495250Y425000D02*
Y433000D01*
X608750Y377250D02*
X616750D01*
X612750Y373250D02*
Y381250D01*
X601250Y324500D02*
X609250D01*
X605250Y320500D02*
Y328500D01*
X1772000Y289500D02*
X1780000D01*
X1776000Y285500D02*
Y293500D01*
M02*
