M48
;Layer_Color=9474304
;FILE_FORMAT=4:4
METRIC
T14F00S00C2.0000
%
G90
G05
T14
G00X02202697Y00244099
M15
G01X02203444Y00244013
G01X02211281Y00244613
G01X02218973Y00246230
G01X02226388Y00248837
G01X02233399Y00252390
G01X02239887Y00256828
G01X02245740Y00262074
G01X02250858Y00268040
G01X02255153Y00274622
G01X02258552Y00281709
G01X02260998Y00289179
G01X02262447Y00296905
G01X02262897Y00304101
G01X02262790Y01004006
G01X02262876Y01004753
G01X02262276Y01012590
G01X02260659Y01020282
G01X02258052Y01027697
G01X02254499Y01034708
G01X02250061Y01041196
G01X02244814Y01047049
G01X02238849Y01052166
G01X02232266Y01056462
G01X02225180Y01059862
G01X02217710Y01062307
G01X02209984Y01063756
G01X02202790Y01064206
G01X00302883Y01064099
G01X00302136Y01064185
G01X00294299Y01063586
G01X00286607Y01061968
G01X00279192Y01059361
G01X00272181Y01055808
G01X00265693Y01051370
G01X00259840Y01046124
G01X00254722Y01040158
G01X00250427Y01033576
G01X00247028Y01026489
G01X00244582Y01019019
G01X00243133Y01011293
G01X00242683Y01004098
G01X00242790Y00304192
G01X00242704Y00303445
G01X00243304Y00295608
G01X00244921Y00287916
G01X00247528Y00280501
G01X00251081Y00273490
G01X00255519Y00267002
G01X00260765Y00261149
G01X00266731Y00256032
G01X00273313Y00251736
G01X00280400Y00248337
G01X00287870Y00245891
G01X00295596Y00244442
G01X00302791Y00243992
G01X02202697Y00244099
M16
M17
M30
