G04*
G04 #@! TF.GenerationSoftware,Altium Limited,Altium Designer,22.10.1 (41)*
G04*
G04 Layer_Color=2752767*
%FSLAX44Y44*%
%MOMM*%
G71*
G04*
G04 #@! TF.SameCoordinates,CCA9ED2B-0253-4C40-8C16-DC95D70DEF13*
G04*
G04*
G04 #@! TF.FilePolarity,Positive*
G04*
G01*
G75*
%ADD129C,0.0508*%
%ADD130C,0.0677*%
%ADD131C,0.0339*%
D129*
X26750Y232968D02*
X27766Y233984D01*
X28782D01*
X27766Y235000D01*
X28782Y236016D01*
X27766D01*
X26750Y237032D01*
X25734Y236016D01*
X24718D01*
X25734Y235000D01*
X24718Y233984D01*
X25734D01*
X26750Y232968D01*
Y233984D02*
X27258Y234492D01*
X27766D01*
X27258Y235000D01*
X27766Y235508D01*
X27258D01*
X26750Y236016D01*
X26242Y235508D01*
X25734D01*
X26242Y235000D01*
X25734Y234492D01*
X26242D01*
X26750Y233984D01*
X51750Y232968D02*
X52766Y233984D01*
X53782D01*
X52766Y235000D01*
X53782Y236016D01*
X52766D01*
X51750Y237032D01*
X50734Y236016D01*
X49718D01*
X50734Y235000D01*
X49718Y233984D01*
X50734D01*
X51750Y232968D01*
Y233984D02*
X52258Y234492D01*
X52766D01*
X52258Y235000D01*
X52766Y235508D01*
X52258D01*
X51750Y236016D01*
X51242Y235508D01*
X50734D01*
X51242Y235000D01*
X50734Y234492D01*
X51242D01*
X51750Y233984D01*
X535650Y655868D02*
X533618Y659932D01*
X537682D01*
X535650Y655868D01*
X434050Y503468D02*
X432018Y507532D01*
X436082D01*
X434050Y503468D01*
X637250D02*
X635218Y507532D01*
X639282D01*
X637250Y503468D01*
X1018250Y541568D02*
X1016218Y545632D01*
X1020282D01*
X1018250Y541568D01*
Y617768D02*
X1016218Y621832D01*
X1020282D01*
X1018250Y617768D01*
X1721968Y402968D02*
Y407032D01*
X1726032D01*
Y402968D01*
X1721968D01*
Y377568D02*
Y381632D01*
X1726032D01*
Y377568D01*
X1721968D01*
X1614168Y432218D02*
Y436282D01*
X1618232D01*
Y432218D01*
X1614168D01*
X1588768D02*
Y436282D01*
X1592832D01*
Y432218D01*
X1588768D01*
X557800Y112318D02*
X555768Y116382D01*
X559832D01*
X557800Y112318D01*
X532400D02*
X530368Y116382D01*
X534432D01*
X532400Y112318D01*
X456200D02*
X454168Y116382D01*
X458232D01*
X456200Y112318D01*
X557800Y163118D02*
X555768Y167182D01*
X559832D01*
X557800Y163118D01*
X532400D02*
X530368Y167182D01*
X534432D01*
X532400Y163118D01*
X456200D02*
X454168Y167182D01*
X458232D01*
X456200Y163118D01*
X455950Y87368D02*
X453918Y91432D01*
X457982D01*
X455950Y87368D01*
X532150D02*
X530118Y91432D01*
X534182D01*
X532150Y87368D01*
X557550D02*
X555518Y91432D01*
X559582D01*
X557550Y87368D01*
X455950Y36568D02*
X453918Y40632D01*
X457982D01*
X455950Y36568D01*
X532150D02*
X530118Y40632D01*
X534182D01*
X532150Y36568D01*
X557550D02*
X555518Y40632D01*
X559582D01*
X557550Y36568D01*
X1767250Y432718D02*
X1768266Y433734D01*
X1769282D01*
X1768266Y434750D01*
X1769282Y435766D01*
X1768266D01*
X1767250Y436782D01*
X1766234Y435766D01*
X1765218D01*
X1766234Y434750D01*
X1765218Y433734D01*
X1766234D01*
X1767250Y432718D01*
Y402718D02*
X1768266Y403734D01*
X1769282D01*
X1768266Y404750D01*
X1769282Y405766D01*
X1768266D01*
X1767250Y406782D01*
X1766234Y405766D01*
X1765218D01*
X1766234Y404750D01*
X1765218Y403734D01*
X1766234D01*
X1767250Y402718D01*
Y462718D02*
X1768266Y463734D01*
X1769282D01*
X1768266Y464750D01*
X1769282Y465766D01*
X1768266D01*
X1767250Y466782D01*
X1766234Y465766D01*
X1765218D01*
X1766234Y464750D01*
X1765218Y463734D01*
X1766234D01*
X1767250Y462718D01*
Y492718D02*
X1768266Y493734D01*
X1769282D01*
X1768266Y494750D01*
X1769282Y495766D01*
X1768266D01*
X1767250Y496782D01*
X1766234Y495766D01*
X1765218D01*
X1766234Y494750D01*
X1765218Y493734D01*
X1766234D01*
X1767250Y492718D01*
Y522718D02*
X1768266Y523734D01*
X1769282D01*
X1768266Y524750D01*
X1769282Y525766D01*
X1768266D01*
X1767250Y526782D01*
X1766234Y525766D01*
X1765218D01*
X1766234Y524750D01*
X1765218Y523734D01*
X1766234D01*
X1767250Y522718D01*
Y552718D02*
X1768266Y553734D01*
X1769282D01*
X1768266Y554750D01*
X1769282Y555766D01*
X1768266D01*
X1767250Y556782D01*
X1766234Y555766D01*
X1765218D01*
X1766234Y554750D01*
X1765218Y553734D01*
X1766234D01*
X1767250Y552718D01*
Y582718D02*
X1768266Y583734D01*
X1769282D01*
X1768266Y584750D01*
X1769282Y585766D01*
X1768266D01*
X1767250Y586782D01*
X1766234Y585766D01*
X1765218D01*
X1766234Y584750D01*
X1765218Y583734D01*
X1766234D01*
X1767250Y582718D01*
Y612718D02*
X1768266Y613734D01*
X1769282D01*
X1768266Y614750D01*
X1769282Y615766D01*
X1768266D01*
X1767250Y616782D01*
X1766234Y615766D01*
X1765218D01*
X1766234Y614750D01*
X1765218Y613734D01*
X1766234D01*
X1767250Y612718D01*
X1661968Y488968D02*
X1662984Y491000D01*
X1661968Y493032D01*
X1664000Y492016D01*
X1666032Y493032D01*
X1665016Y491000D01*
X1666032Y488968D01*
X1664000Y489984D01*
X1661968Y488968D01*
Y463568D02*
X1662984Y465600D01*
X1661968Y467632D01*
X1664000Y466616D01*
X1666032Y467632D01*
X1665016Y465600D01*
X1666032Y463568D01*
X1664000Y464584D01*
X1661968Y463568D01*
Y514368D02*
X1662984Y516400D01*
X1661968Y518432D01*
X1664000Y517416D01*
X1666032Y518432D01*
X1665016Y516400D01*
X1666032Y514368D01*
X1664000Y515384D01*
X1661968Y514368D01*
X34500Y424968D02*
X35516Y425984D01*
X36532D01*
X35516Y427000D01*
X36532Y428016D01*
X35516D01*
X34500Y429032D01*
X33484Y428016D01*
X32468D01*
X33484Y427000D01*
X32468Y425984D01*
X33484D01*
X34500Y424968D01*
Y454968D02*
X35516Y455984D01*
X36532D01*
X35516Y457000D01*
X36532Y458016D01*
X35516D01*
X34500Y459032D01*
X33484Y458016D01*
X32468D01*
X33484Y457000D01*
X32468Y455984D01*
X33484D01*
X34500Y454968D01*
X856268Y46718D02*
Y50782D01*
X860332D01*
Y46718D01*
X856268D01*
X881668D02*
Y50782D01*
X885732D01*
Y46718D01*
X881668D01*
X1220718Y651250D02*
X1222750Y653282D01*
X1224782Y651250D01*
X1222750Y649218D01*
X1220718Y651250D01*
X1245718D02*
X1247750Y653282D01*
X1249782Y651250D01*
X1247750Y649218D01*
X1245718Y651250D01*
X1369468Y631850D02*
X1371500Y633882D01*
X1373532Y631850D01*
X1371500Y629818D01*
X1369468Y631850D01*
X1399468Y661850D02*
X1401500Y663882D01*
X1403532Y661850D01*
X1401500Y659818D01*
X1399468Y661850D01*
X1552318Y481468D02*
X1553334Y483500D01*
X1552318Y485532D01*
X1554350Y484516D01*
X1556382Y485532D01*
X1555366Y483500D01*
X1556382Y481468D01*
X1554350Y482484D01*
X1552318Y481468D01*
X1603118D02*
X1604134Y483500D01*
X1603118Y485532D01*
X1605150Y484516D01*
X1607182Y485532D01*
X1606166Y483500D01*
X1607182Y481468D01*
X1605150Y482484D01*
X1603118Y481468D01*
X1577718D02*
X1578734Y483500D01*
X1577718Y485532D01*
X1579750Y484516D01*
X1581782Y485532D01*
X1580766Y483500D01*
X1581782Y481468D01*
X1579750Y482484D01*
X1577718Y481468D01*
X1595618Y285468D02*
Y289532D01*
X1599682D01*
Y285468D01*
X1595618D01*
X1570218D02*
Y289532D01*
X1574282D01*
Y285468D01*
X1570218D01*
X1541418Y357718D02*
Y361782D01*
X1545482D01*
Y357718D01*
X1541418D01*
X1516018D02*
Y361782D01*
X1520082D01*
Y357718D01*
X1516018D01*
X218750Y664218D02*
X219766Y665234D01*
X220782D01*
X219766Y666250D01*
X220782Y667266D01*
X219766D01*
X218750Y668282D01*
X217734Y667266D01*
X216718D01*
X217734Y666250D01*
X216718Y665234D01*
X217734D01*
X218750Y664218D01*
X248750D02*
X249766Y665234D01*
X250782D01*
X249766Y666250D01*
X250782Y667266D01*
X249766D01*
X248750Y668282D01*
X247734Y667266D01*
X246718D01*
X247734Y666250D01*
X246718Y665234D01*
X247734D01*
X248750Y664218D01*
X100250D02*
X101266Y665234D01*
X102282D01*
X101266Y666250D01*
X102282Y667266D01*
X101266D01*
X100250Y668282D01*
X99234Y667266D01*
X98218D01*
X99234Y666250D01*
X98218Y665234D01*
X99234D01*
X100250Y664218D01*
X130250D02*
X131266Y665234D01*
X132282D01*
X131266Y666250D01*
X132282Y667266D01*
X131266D01*
X130250Y668282D01*
X129234Y667266D01*
X128218D01*
X129234Y666250D01*
X128218Y665234D01*
X129234D01*
X130250Y664218D01*
X1762273Y244468D02*
X1763289D01*
X1764305Y245484D01*
X1765321Y244468D01*
X1766337D01*
Y245484D01*
X1765321Y246500D01*
X1766337Y247516D01*
Y248532D01*
X1765321D01*
X1764305Y247516D01*
X1763289Y248532D01*
X1762273D01*
Y247516D01*
X1763289Y246500D01*
X1762273Y245484D01*
Y244468D01*
X1723468Y284000D02*
X1725500Y286032D01*
X1727532Y284000D01*
X1725500Y281968D01*
X1723468Y284000D01*
Y259000D02*
X1725500Y261032D01*
X1727532Y259000D01*
X1725500Y256968D01*
X1723468Y259000D01*
X1748468Y334000D02*
X1750500Y336032D01*
X1752532Y334000D01*
X1750500Y331968D01*
X1748468Y334000D01*
Y159000D02*
X1750500Y161032D01*
X1752532Y159000D01*
X1750500Y156968D01*
X1748468Y159000D01*
Y284000D02*
X1750500Y286032D01*
X1752532Y284000D01*
X1750500Y281968D01*
X1748468Y284000D01*
Y309000D02*
X1750500Y311032D01*
X1752532Y309000D01*
X1750500Y306968D01*
X1748468Y309000D01*
X1723468D02*
X1725500Y311032D01*
X1727532Y309000D01*
X1725500Y306968D01*
X1723468Y309000D01*
Y334000D02*
X1725500Y336032D01*
X1727532Y334000D01*
X1725500Y331968D01*
X1723468Y334000D01*
X1748468Y259000D02*
X1750500Y261032D01*
X1752532Y259000D01*
X1750500Y256968D01*
X1748468Y259000D01*
X1723468Y234000D02*
X1725500Y236032D01*
X1727532Y234000D01*
X1725500Y231968D01*
X1723468Y234000D01*
X1748468D02*
X1750500Y236032D01*
X1752532Y234000D01*
X1750500Y231968D01*
X1748468Y234000D01*
X1723468Y209000D02*
X1725500Y211032D01*
X1727532Y209000D01*
X1725500Y206968D01*
X1723468Y209000D01*
X1748468D02*
X1750500Y211032D01*
X1752532Y209000D01*
X1750500Y206968D01*
X1748468Y209000D01*
X1723468Y184000D02*
X1725500Y186032D01*
X1727532Y184000D01*
X1725500Y181968D01*
X1723468Y184000D01*
X1748468D02*
X1750500Y186032D01*
X1752532Y184000D01*
X1750500Y181968D01*
X1748468Y184000D01*
X1723468Y159000D02*
X1725500Y161032D01*
X1727532Y159000D01*
X1725500Y156968D01*
X1723468Y159000D01*
X1339468Y671250D02*
X1341500Y673282D01*
X1343532Y671250D01*
X1341500Y669218D01*
X1339468Y671250D01*
X1429468D02*
X1431500Y673282D01*
X1433532Y671250D01*
X1431500Y669218D01*
X1429468Y671250D01*
X1369468Y661850D02*
X1371500Y663882D01*
X1373532Y661850D01*
X1371500Y659818D01*
X1369468Y661850D01*
X1399468Y631850D02*
X1401500Y633882D01*
X1403532Y631850D01*
X1401500Y629818D01*
X1399468Y631850D01*
X1597468Y641968D02*
Y646032D01*
X1601532D01*
Y641968D01*
X1597468D01*
X1622868D02*
Y646032D01*
X1626932D01*
Y641968D01*
X1622868D01*
X1572068D02*
Y646032D01*
X1576132D01*
Y641968D01*
X1572068D01*
X1546668D02*
Y646032D01*
X1550732D01*
Y641968D01*
X1546668D01*
X1597468Y677718D02*
Y681782D01*
X1601532D01*
Y677718D01*
X1597468D01*
X1648268D02*
Y681782D01*
X1652332D01*
Y677718D01*
X1648268D01*
X1622868D02*
Y681782D01*
X1626932D01*
Y677718D01*
X1622868D01*
X1572068D02*
Y681782D01*
X1576132D01*
Y677718D01*
X1572068D01*
X1546668D02*
Y681782D01*
X1550732D01*
Y677718D01*
X1546668D01*
X1698984Y598984D02*
Y597968D01*
X1701016D01*
Y598984D01*
X1702032D01*
Y601016D01*
X1701016D01*
Y602032D01*
X1698984D01*
Y601016D01*
X1697968D01*
Y598984D01*
X1698984D01*
X671018Y139468D02*
Y143532D01*
X675082D01*
Y139468D01*
X671018D01*
X696418D02*
Y143532D01*
X700482D01*
Y139468D01*
X696418D01*
X1131484Y598984D02*
Y597968D01*
X1133516D01*
Y598984D01*
X1134532D01*
Y601016D01*
X1133516D01*
Y602032D01*
X1131484D01*
Y601016D01*
X1130468D01*
Y598984D01*
X1131484D01*
X1698984Y98984D02*
Y97968D01*
X1701016D01*
Y98984D01*
X1702032D01*
Y101016D01*
X1701016D01*
Y102032D01*
X1698984D01*
Y101016D01*
X1697968D01*
Y98984D01*
X1698984D01*
X1270718Y651250D02*
X1272750Y653282D01*
X1274782Y651250D01*
X1272750Y649218D01*
X1270718Y651250D01*
X1195718D02*
X1197750Y653282D01*
X1199782Y651250D01*
X1197750Y649218D01*
X1195718Y651250D01*
X1233218Y662618D02*
Y666682D01*
X1237282D01*
Y662618D01*
X1233218D01*
X1234234Y663634D02*
Y665666D01*
X1236266D01*
Y663634D01*
X1234234D01*
X398984Y98984D02*
Y97968D01*
X401016D01*
Y98984D01*
X402032D01*
Y101016D01*
X401016D01*
Y102032D01*
X398984D01*
Y101016D01*
X397968D01*
Y98984D01*
X398984D01*
X365900Y423118D02*
X363868Y427182D01*
X367932D01*
X365900Y423118D01*
X340500D02*
X338468Y427182D01*
X342532D01*
X340500Y423118D01*
X365900Y372318D02*
X363868Y376382D01*
X367932D01*
X365900Y372318D01*
X315100D02*
X313068Y376382D01*
X317132D01*
X315100Y372318D01*
X94668Y134000D02*
X96700Y136032D01*
X98732Y134000D01*
X96700Y131968D01*
X94668Y134000D01*
X124668D02*
X126700Y136032D01*
X128732Y134000D01*
X126700Y131968D01*
X124668Y134000D01*
Y74000D02*
X126700Y76032D01*
X128732Y74000D01*
X126700Y71968D01*
X124668Y74000D01*
Y104000D02*
X126700Y106032D01*
X128732Y104000D01*
X126700Y101968D01*
X124668Y104000D01*
Y164000D02*
X126700Y166032D01*
X128732Y164000D01*
X126700Y161968D01*
X124668Y164000D01*
X94668Y74000D02*
X96700Y76032D01*
X98732Y74000D01*
X96700Y71968D01*
X94668Y74000D01*
Y104000D02*
X96700Y106032D01*
X98732Y104000D01*
X96700Y101968D01*
X94668Y104000D01*
Y164000D02*
X96700Y166032D01*
X98732Y164000D01*
X96700Y161968D01*
X94668Y164000D01*
X53500Y93468D02*
X51468Y97532D01*
X55532D01*
X53500Y93468D01*
Y94484D02*
X52484Y96516D01*
X54516D01*
X53500Y94484D01*
Y140468D02*
X51468Y144532D01*
X55532D01*
X53500Y140468D01*
Y141484D02*
X52484Y143516D01*
X54516D01*
X53500Y141484D01*
X1680000Y617968D02*
X1681016Y618984D01*
X1682032D01*
X1681016Y620000D01*
X1682032Y621016D01*
X1681016D01*
X1680000Y622032D01*
X1678984Y621016D01*
X1677968D01*
X1678984Y620000D01*
X1677968Y618984D01*
X1678984D01*
X1680000Y617968D01*
Y618984D02*
X1680508Y619492D01*
X1681016D01*
X1680508Y620000D01*
X1681016Y620508D01*
X1680508D01*
X1680000Y621016D01*
X1679492Y620508D01*
X1678984D01*
X1679492Y620000D01*
X1678984Y619492D01*
X1679492D01*
X1680000Y618984D01*
X1672500Y597968D02*
X1673516Y598984D01*
X1674532D01*
X1673516Y600000D01*
X1674532Y601016D01*
X1673516D01*
X1672500Y602032D01*
X1671484Y601016D01*
X1670468D01*
X1671484Y600000D01*
X1670468Y598984D01*
X1671484D01*
X1672500Y597968D01*
Y598984D02*
X1673008Y599492D01*
X1673516D01*
X1673008Y600000D01*
X1673516Y600508D01*
X1673008D01*
X1672500Y601016D01*
X1671992Y600508D01*
X1671484D01*
X1671992Y600000D01*
X1671484Y599492D01*
X1671992D01*
X1672500Y598984D01*
X1680000Y577968D02*
X1681016Y578984D01*
X1682032D01*
X1681016Y580000D01*
X1682032Y581016D01*
X1681016D01*
X1680000Y582032D01*
X1678984Y581016D01*
X1677968D01*
X1678984Y580000D01*
X1677968Y578984D01*
X1678984D01*
X1680000Y577968D01*
Y578984D02*
X1680508Y579492D01*
X1681016D01*
X1680508Y580000D01*
X1681016Y580508D01*
X1680508D01*
X1680000Y581016D01*
X1679492Y580508D01*
X1678984D01*
X1679492Y580000D01*
X1678984Y579492D01*
X1679492D01*
X1680000Y578984D01*
X1700000Y570468D02*
X1701016Y571484D01*
X1702032D01*
X1701016Y572500D01*
X1702032Y573516D01*
X1701016D01*
X1700000Y574532D01*
X1698984Y573516D01*
X1697968D01*
X1698984Y572500D01*
X1697968Y571484D01*
X1698984D01*
X1700000Y570468D01*
Y571484D02*
X1700508Y571992D01*
X1701016D01*
X1700508Y572500D01*
X1701016Y573008D01*
X1700508D01*
X1700000Y573516D01*
X1699492Y573008D01*
X1698984D01*
X1699492Y572500D01*
X1698984Y571992D01*
X1699492D01*
X1700000Y571484D01*
X1720000Y577968D02*
X1721016Y578984D01*
X1722032D01*
X1721016Y580000D01*
X1722032Y581016D01*
X1721016D01*
X1720000Y582032D01*
X1718984Y581016D01*
X1717968D01*
X1718984Y580000D01*
X1717968Y578984D01*
X1718984D01*
X1720000Y577968D01*
Y578984D02*
X1720508Y579492D01*
X1721016D01*
X1720508Y580000D01*
X1721016Y580508D01*
X1720508D01*
X1720000Y581016D01*
X1719492Y580508D01*
X1718984D01*
X1719492Y580000D01*
X1718984Y579492D01*
X1719492D01*
X1720000Y578984D01*
X1727500Y597968D02*
X1728516Y598984D01*
X1729532D01*
X1728516Y600000D01*
X1729532Y601016D01*
X1728516D01*
X1727500Y602032D01*
X1726484Y601016D01*
X1725468D01*
X1726484Y600000D01*
X1725468Y598984D01*
X1726484D01*
X1727500Y597968D01*
Y598984D02*
X1728008Y599492D01*
X1728516D01*
X1728008Y600000D01*
X1728516Y600508D01*
X1728008D01*
X1727500Y601016D01*
X1726992Y600508D01*
X1726484D01*
X1726992Y600000D01*
X1726484Y599492D01*
X1726992D01*
X1727500Y598984D01*
X1720000Y617968D02*
X1721016Y618984D01*
X1722032D01*
X1721016Y620000D01*
X1722032Y621016D01*
X1721016D01*
X1720000Y622032D01*
X1718984Y621016D01*
X1717968D01*
X1718984Y620000D01*
X1717968Y618984D01*
X1718984D01*
X1720000Y617968D01*
Y618984D02*
X1720508Y619492D01*
X1721016D01*
X1720508Y620000D01*
X1721016Y620508D01*
X1720508D01*
X1720000Y621016D01*
X1719492Y620508D01*
X1718984D01*
X1719492Y620000D01*
X1718984Y619492D01*
X1719492D01*
X1720000Y618984D01*
X1700000Y625468D02*
X1701016Y626484D01*
X1702032D01*
X1701016Y627500D01*
X1702032Y628516D01*
X1701016D01*
X1700000Y629532D01*
X1698984Y628516D01*
X1697968D01*
X1698984Y627500D01*
X1697968Y626484D01*
X1698984D01*
X1700000Y625468D01*
Y626484D02*
X1700508Y626992D01*
X1701016D01*
X1700508Y627500D01*
X1701016Y628008D01*
X1700508D01*
X1700000Y628516D01*
X1699492Y628008D01*
X1698984D01*
X1699492Y627500D01*
X1698984Y626992D01*
X1699492D01*
X1700000Y626484D01*
X1112500Y617968D02*
X1113516Y618984D01*
X1114532D01*
X1113516Y620000D01*
X1114532Y621016D01*
X1113516D01*
X1112500Y622032D01*
X1111484Y621016D01*
X1110468D01*
X1111484Y620000D01*
X1110468Y618984D01*
X1111484D01*
X1112500Y617968D01*
Y618984D02*
X1113008Y619492D01*
X1113516D01*
X1113008Y620000D01*
X1113516Y620508D01*
X1113008D01*
X1112500Y621016D01*
X1111992Y620508D01*
X1111484D01*
X1111992Y620000D01*
X1111484Y619492D01*
X1111992D01*
X1112500Y618984D01*
X1105000Y597968D02*
X1106016Y598984D01*
X1107032D01*
X1106016Y600000D01*
X1107032Y601016D01*
X1106016D01*
X1105000Y602032D01*
X1103984Y601016D01*
X1102968D01*
X1103984Y600000D01*
X1102968Y598984D01*
X1103984D01*
X1105000Y597968D01*
Y598984D02*
X1105508Y599492D01*
X1106016D01*
X1105508Y600000D01*
X1106016Y600508D01*
X1105508D01*
X1105000Y601016D01*
X1104492Y600508D01*
X1103984D01*
X1104492Y600000D01*
X1103984Y599492D01*
X1104492D01*
X1105000Y598984D01*
X1112500Y577968D02*
X1113516Y578984D01*
X1114532D01*
X1113516Y580000D01*
X1114532Y581016D01*
X1113516D01*
X1112500Y582032D01*
X1111484Y581016D01*
X1110468D01*
X1111484Y580000D01*
X1110468Y578984D01*
X1111484D01*
X1112500Y577968D01*
Y578984D02*
X1113008Y579492D01*
X1113516D01*
X1113008Y580000D01*
X1113516Y580508D01*
X1113008D01*
X1112500Y581016D01*
X1111992Y580508D01*
X1111484D01*
X1111992Y580000D01*
X1111484Y579492D01*
X1111992D01*
X1112500Y578984D01*
X1132500Y570468D02*
X1133516Y571484D01*
X1134532D01*
X1133516Y572500D01*
X1134532Y573516D01*
X1133516D01*
X1132500Y574532D01*
X1131484Y573516D01*
X1130468D01*
X1131484Y572500D01*
X1130468Y571484D01*
X1131484D01*
X1132500Y570468D01*
Y571484D02*
X1133008Y571992D01*
X1133516D01*
X1133008Y572500D01*
X1133516Y573008D01*
X1133008D01*
X1132500Y573516D01*
X1131992Y573008D01*
X1131484D01*
X1131992Y572500D01*
X1131484Y571992D01*
X1131992D01*
X1132500Y571484D01*
X1152500Y577968D02*
X1153516Y578984D01*
X1154532D01*
X1153516Y580000D01*
X1154532Y581016D01*
X1153516D01*
X1152500Y582032D01*
X1151484Y581016D01*
X1150468D01*
X1151484Y580000D01*
X1150468Y578984D01*
X1151484D01*
X1152500Y577968D01*
Y578984D02*
X1153008Y579492D01*
X1153516D01*
X1153008Y580000D01*
X1153516Y580508D01*
X1153008D01*
X1152500Y581016D01*
X1151992Y580508D01*
X1151484D01*
X1151992Y580000D01*
X1151484Y579492D01*
X1151992D01*
X1152500Y578984D01*
X1160000Y597968D02*
X1161016Y598984D01*
X1162032D01*
X1161016Y600000D01*
X1162032Y601016D01*
X1161016D01*
X1160000Y602032D01*
X1158984Y601016D01*
X1157968D01*
X1158984Y600000D01*
X1157968Y598984D01*
X1158984D01*
X1160000Y597968D01*
Y598984D02*
X1160508Y599492D01*
X1161016D01*
X1160508Y600000D01*
X1161016Y600508D01*
X1160508D01*
X1160000Y601016D01*
X1159492Y600508D01*
X1158984D01*
X1159492Y600000D01*
X1158984Y599492D01*
X1159492D01*
X1160000Y598984D01*
X1152500Y617968D02*
X1153516Y618984D01*
X1154532D01*
X1153516Y620000D01*
X1154532Y621016D01*
X1153516D01*
X1152500Y622032D01*
X1151484Y621016D01*
X1150468D01*
X1151484Y620000D01*
X1150468Y618984D01*
X1151484D01*
X1152500Y617968D01*
Y618984D02*
X1153008Y619492D01*
X1153516D01*
X1153008Y620000D01*
X1153516Y620508D01*
X1153008D01*
X1152500Y621016D01*
X1151992Y620508D01*
X1151484D01*
X1151992Y620000D01*
X1151484Y619492D01*
X1151992D01*
X1152500Y618984D01*
X1132500Y625468D02*
X1133516Y626484D01*
X1134532D01*
X1133516Y627500D01*
X1134532Y628516D01*
X1133516D01*
X1132500Y629532D01*
X1131484Y628516D01*
X1130468D01*
X1131484Y627500D01*
X1130468Y626484D01*
X1131484D01*
X1132500Y625468D01*
Y626484D02*
X1133008Y626992D01*
X1133516D01*
X1133008Y627500D01*
X1133516Y628008D01*
X1133008D01*
X1132500Y628516D01*
X1131992Y628008D01*
X1131484D01*
X1131992Y627500D01*
X1131484Y626992D01*
X1131992D01*
X1132500Y626484D01*
X1680000Y117968D02*
X1681016Y118984D01*
X1682032D01*
X1681016Y120000D01*
X1682032Y121016D01*
X1681016D01*
X1680000Y122032D01*
X1678984Y121016D01*
X1677968D01*
X1678984Y120000D01*
X1677968Y118984D01*
X1678984D01*
X1680000Y117968D01*
Y118984D02*
X1680508Y119492D01*
X1681016D01*
X1680508Y120000D01*
X1681016Y120508D01*
X1680508D01*
X1680000Y121016D01*
X1679492Y120508D01*
X1678984D01*
X1679492Y120000D01*
X1678984Y119492D01*
X1679492D01*
X1680000Y118984D01*
X1672500Y97968D02*
X1673516Y98984D01*
X1674532D01*
X1673516Y100000D01*
X1674532Y101016D01*
X1673516D01*
X1672500Y102032D01*
X1671484Y101016D01*
X1670468D01*
X1671484Y100000D01*
X1670468Y98984D01*
X1671484D01*
X1672500Y97968D01*
Y98984D02*
X1673008Y99492D01*
X1673516D01*
X1673008Y100000D01*
X1673516Y100508D01*
X1673008D01*
X1672500Y101016D01*
X1671992Y100508D01*
X1671484D01*
X1671992Y100000D01*
X1671484Y99492D01*
X1671992D01*
X1672500Y98984D01*
X1680000Y77968D02*
X1681016Y78984D01*
X1682032D01*
X1681016Y80000D01*
X1682032Y81016D01*
X1681016D01*
X1680000Y82032D01*
X1678984Y81016D01*
X1677968D01*
X1678984Y80000D01*
X1677968Y78984D01*
X1678984D01*
X1680000Y77968D01*
Y78984D02*
X1680508Y79492D01*
X1681016D01*
X1680508Y80000D01*
X1681016Y80508D01*
X1680508D01*
X1680000Y81016D01*
X1679492Y80508D01*
X1678984D01*
X1679492Y80000D01*
X1678984Y79492D01*
X1679492D01*
X1680000Y78984D01*
X1700000Y70468D02*
X1701016Y71484D01*
X1702032D01*
X1701016Y72500D01*
X1702032Y73516D01*
X1701016D01*
X1700000Y74532D01*
X1698984Y73516D01*
X1697968D01*
X1698984Y72500D01*
X1697968Y71484D01*
X1698984D01*
X1700000Y70468D01*
Y71484D02*
X1700508Y71992D01*
X1701016D01*
X1700508Y72500D01*
X1701016Y73008D01*
X1700508D01*
X1700000Y73516D01*
X1699492Y73008D01*
X1698984D01*
X1699492Y72500D01*
X1698984Y71992D01*
X1699492D01*
X1700000Y71484D01*
X1720000Y77968D02*
X1721016Y78984D01*
X1722032D01*
X1721016Y80000D01*
X1722032Y81016D01*
X1721016D01*
X1720000Y82032D01*
X1718984Y81016D01*
X1717968D01*
X1718984Y80000D01*
X1717968Y78984D01*
X1718984D01*
X1720000Y77968D01*
Y78984D02*
X1720508Y79492D01*
X1721016D01*
X1720508Y80000D01*
X1721016Y80508D01*
X1720508D01*
X1720000Y81016D01*
X1719492Y80508D01*
X1718984D01*
X1719492Y80000D01*
X1718984Y79492D01*
X1719492D01*
X1720000Y78984D01*
X1727500Y97968D02*
X1728516Y98984D01*
X1729532D01*
X1728516Y100000D01*
X1729532Y101016D01*
X1728516D01*
X1727500Y102032D01*
X1726484Y101016D01*
X1725468D01*
X1726484Y100000D01*
X1725468Y98984D01*
X1726484D01*
X1727500Y97968D01*
Y98984D02*
X1728008Y99492D01*
X1728516D01*
X1728008Y100000D01*
X1728516Y100508D01*
X1728008D01*
X1727500Y101016D01*
X1726992Y100508D01*
X1726484D01*
X1726992Y100000D01*
X1726484Y99492D01*
X1726992D01*
X1727500Y98984D01*
X1720000Y117968D02*
X1721016Y118984D01*
X1722032D01*
X1721016Y120000D01*
X1722032Y121016D01*
X1721016D01*
X1720000Y122032D01*
X1718984Y121016D01*
X1717968D01*
X1718984Y120000D01*
X1717968Y118984D01*
X1718984D01*
X1720000Y117968D01*
Y118984D02*
X1720508Y119492D01*
X1721016D01*
X1720508Y120000D01*
X1721016Y120508D01*
X1720508D01*
X1720000Y121016D01*
X1719492Y120508D01*
X1718984D01*
X1719492Y120000D01*
X1718984Y119492D01*
X1719492D01*
X1720000Y118984D01*
X1700000Y125468D02*
X1701016Y126484D01*
X1702032D01*
X1701016Y127500D01*
X1702032Y128516D01*
X1701016D01*
X1700000Y129532D01*
X1698984Y128516D01*
X1697968D01*
X1698984Y127500D01*
X1697968Y126484D01*
X1698984D01*
X1700000Y125468D01*
Y126484D02*
X1700508Y126992D01*
X1701016D01*
X1700508Y127500D01*
X1701016Y128008D01*
X1700508D01*
X1700000Y128516D01*
X1699492Y128008D01*
X1698984D01*
X1699492Y127500D01*
X1698984Y126992D01*
X1699492D01*
X1700000Y126484D01*
X380000Y117968D02*
X381016Y118984D01*
X382032D01*
X381016Y120000D01*
X382032Y121016D01*
X381016D01*
X380000Y122032D01*
X378984Y121016D01*
X377968D01*
X378984Y120000D01*
X377968Y118984D01*
X378984D01*
X380000Y117968D01*
Y118984D02*
X380508Y119492D01*
X381016D01*
X380508Y120000D01*
X381016Y120508D01*
X380508D01*
X380000Y121016D01*
X379492Y120508D01*
X378984D01*
X379492Y120000D01*
X378984Y119492D01*
X379492D01*
X380000Y118984D01*
X372500Y97968D02*
X373516Y98984D01*
X374532D01*
X373516Y100000D01*
X374532Y101016D01*
X373516D01*
X372500Y102032D01*
X371484Y101016D01*
X370468D01*
X371484Y100000D01*
X370468Y98984D01*
X371484D01*
X372500Y97968D01*
Y98984D02*
X373008Y99492D01*
X373516D01*
X373008Y100000D01*
X373516Y100508D01*
X373008D01*
X372500Y101016D01*
X371992Y100508D01*
X371484D01*
X371992Y100000D01*
X371484Y99492D01*
X371992D01*
X372500Y98984D01*
X380000Y77968D02*
X381016Y78984D01*
X382032D01*
X381016Y80000D01*
X382032Y81016D01*
X381016D01*
X380000Y82032D01*
X378984Y81016D01*
X377968D01*
X378984Y80000D01*
X377968Y78984D01*
X378984D01*
X380000Y77968D01*
Y78984D02*
X380508Y79492D01*
X381016D01*
X380508Y80000D01*
X381016Y80508D01*
X380508D01*
X380000Y81016D01*
X379492Y80508D01*
X378984D01*
X379492Y80000D01*
X378984Y79492D01*
X379492D01*
X380000Y78984D01*
X400000Y70468D02*
X401016Y71484D01*
X402032D01*
X401016Y72500D01*
X402032Y73516D01*
X401016D01*
X400000Y74532D01*
X398984Y73516D01*
X397968D01*
X398984Y72500D01*
X397968Y71484D01*
X398984D01*
X400000Y70468D01*
Y71484D02*
X400508Y71992D01*
X401016D01*
X400508Y72500D01*
X401016Y73008D01*
X400508D01*
X400000Y73516D01*
X399492Y73008D01*
X398984D01*
X399492Y72500D01*
X398984Y71992D01*
X399492D01*
X400000Y71484D01*
X420000Y77968D02*
X421016Y78984D01*
X422032D01*
X421016Y80000D01*
X422032Y81016D01*
X421016D01*
X420000Y82032D01*
X418984Y81016D01*
X417968D01*
X418984Y80000D01*
X417968Y78984D01*
X418984D01*
X420000Y77968D01*
Y78984D02*
X420508Y79492D01*
X421016D01*
X420508Y80000D01*
X421016Y80508D01*
X420508D01*
X420000Y81016D01*
X419492Y80508D01*
X418984D01*
X419492Y80000D01*
X418984Y79492D01*
X419492D01*
X420000Y78984D01*
X427500Y97968D02*
X428516Y98984D01*
X429532D01*
X428516Y100000D01*
X429532Y101016D01*
X428516D01*
X427500Y102032D01*
X426484Y101016D01*
X425468D01*
X426484Y100000D01*
X425468Y98984D01*
X426484D01*
X427500Y97968D01*
Y98984D02*
X428008Y99492D01*
X428516D01*
X428008Y100000D01*
X428516Y100508D01*
X428008D01*
X427500Y101016D01*
X426992Y100508D01*
X426484D01*
X426992Y100000D01*
X426484Y99492D01*
X426992D01*
X427500Y98984D01*
X420000Y117968D02*
X421016Y118984D01*
X422032D01*
X421016Y120000D01*
X422032Y121016D01*
X421016D01*
X420000Y122032D01*
X418984Y121016D01*
X417968D01*
X418984Y120000D01*
X417968Y118984D01*
X418984D01*
X420000Y117968D01*
Y118984D02*
X420508Y119492D01*
X421016D01*
X420508Y120000D01*
X421016Y120508D01*
X420508D01*
X420000Y121016D01*
X419492Y120508D01*
X418984D01*
X419492Y120000D01*
X418984Y119492D01*
X419492D01*
X420000Y118984D01*
X400000Y125468D02*
X401016Y126484D01*
X402032D01*
X401016Y127500D01*
X402032Y128516D01*
X401016D01*
X400000Y129532D01*
X398984Y128516D01*
X397968D01*
X398984Y127500D01*
X397968Y126484D01*
X398984D01*
X400000Y125468D01*
Y126484D02*
X400508Y126992D01*
X401016D01*
X400508Y127500D01*
X401016Y128008D01*
X400508D01*
X400000Y128516D01*
X399492Y128008D01*
X398984D01*
X399492Y127500D01*
X398984Y126992D01*
X399492D01*
X400000Y126484D01*
D130*
X341032Y658000D02*
G03*
X341032Y658000I-2032J0D01*
G01*
X315632Y683400D02*
G03*
X315632Y683400I-2032J0D01*
G01*
X366432D02*
G03*
X366432Y683400I-2032J0D01*
G01*
X250282Y428500D02*
G03*
X250282Y428500I-2032J0D01*
G01*
X140282D02*
G03*
X140282Y428500I-2032J0D01*
G01*
X1750282Y643250D02*
G03*
X1750282Y643250I-2032J0D01*
G01*
X1750282Y373250D02*
G03*
X1750282Y373250I-2032J0D01*
G01*
X55532Y397500D02*
G03*
X55532Y397500I-2032J0D01*
G01*
X55532Y488500D02*
G03*
X55532Y488500I-2032J0D01*
G01*
X191282Y647250D02*
G03*
X191282Y647250I-2032J0D01*
G01*
X282282Y647250D02*
G03*
X282282Y647250I-2032J0D01*
G01*
X72782Y647250D02*
G03*
X72782Y647250I-2032J0D01*
G01*
X163782Y647250D02*
G03*
X163782Y647250I-2032J0D01*
G01*
D131*
X340016Y658000D02*
G03*
X340016Y658000I-1016J0D01*
G01*
X314616Y683400D02*
G03*
X314616Y683400I-1016J0D01*
G01*
X365416D02*
G03*
X365416Y683400I-1016J0D01*
G01*
M02*
