M48
;Layer_Color=9474304
;FILE_FORMAT=4:4
METRIC
;TYPE=PLATED
T3F00S00C0.5000
T4F00S00C0.6000
T5F00S00C0.8000
T6F00S00C1.0000
T7F00S00C1.0200
T8F00S00C1.1000
T9F00S00C1.2000
T10F00S00C1.3000
T11F00S00C1.4000
T12F00S00C1.5000
T13F00S00C3.0000
T14F00S00C4.2000
;TYPE=NON_PLATED
%
T03
X00026750Y00235000
X00051750
X00380000Y00120000
X00372500Y00100000
X00380000Y00080000
X00400000Y00072500
X00420000Y00080000
X00427500Y00100000
X00420000Y00120000
X00400000Y00127500
X01680000Y00120000
X01672500Y00100000
X01680000Y00080000
X01700000Y00072500
X01720000Y00080000
X01727500Y00100000
X01720000Y00120000
X01700000Y00127500
Y00572500
X01680000Y00580000
X01672500Y00600000
X01680000Y00620000
X01700000Y00627500
X01720000Y00620000
X01727500Y00600000
X01720000Y00580000
X01152500
X01132500Y00572500
X01112500Y00580000
X01105000Y00600000
X01112500Y00620000
X01132500Y00627500
X01152500Y00620000
X01160000Y00600000
T04
X00339000Y00658000
X00313600Y00683400
X00364400
T05
X00315100Y00374350
X00365900
X00456200Y00165150
Y00114350
X00455950Y00089400
Y00038600
X00532150
X00557550
Y00089400
X00557800Y00114350
X00532400
X00532150Y00089400
X00532400Y00165150
X00557800
X01018250Y00543600
Y00619800
X00637250Y00505500
X00434050
X00535650Y00657900
X00365900Y00425150
X00340500
T06
X01605150Y00483500
X01664000Y00491000
Y00465600
Y00516400
X01579750Y00483500
X01554350
T07
X01767250Y00404750
Y00434750
Y00464750
Y00494750
Y00524750
Y00554750
Y00584750
Y00614750
X00248750Y00666250
X00218750
X00130250
X00100250
X00034500Y00457000
Y00427000
T08
X00673050Y00141500
X00698450
X00858300Y00048750
X00883700
X01572250Y00287500
X01543450Y00359750
X01518050
X01597650Y00287500
X01724000Y00379600
Y00405000
X01616200Y00434250
X01590800
X01599500Y00644000
X01624900
Y00679750
X01599500
X01650300
X01574100
X01548700
Y00644000
X01574100
T09
X00096700Y00074000
X00126700
Y00104000
Y00134000
X00096700
Y00104000
Y00164000
X00126700
X01725500Y00159000
X01750500
Y00184000
Y00209000
Y00234000
Y00259000
X01725500
Y00284000
X01750500
Y00309000
Y00334000
X01725500
Y00309000
Y00234000
Y00209000
Y00184000
X01401500Y00631850
X01371500
Y00661850
X01401500
X01431500Y00671250
X01341500
X01272750Y00651250
X01247750
X01222750
X01197750
T10
X01764305Y00246500
T11
X01235250Y00664650
T12
X01748250Y00373250
X01748250Y00643250
X00280250Y00647250
X00189250Y00647250
X00161750Y00647250
X00070750Y00647250
X00053500Y00488500
X00053500Y00397500
X00138250Y00428500
X00248250
T13
X00053500Y00095500
Y00142500
T14
X00400000Y00100000
X01700000
Y00600000
X01132500
M30
