G04*
G04 #@! TF.GenerationSoftware,Altium Limited,Altium Designer,22.7.1 (60)*
G04*
G04 Layer_Color=2752767*
%FSLAX44Y44*%
%MOMM*%
G71*
G04*
G04 #@! TF.SameCoordinates,3D511D00-9B74-4921-819B-1F54B840CB57*
G04*
G04*
G04 #@! TF.FilePolarity,Positive*
G04*
G01*
G75*
%ADD127C,0.0508*%
D127*
X1640000Y970468D02*
X1637968Y974532D01*
X1642032D01*
X1640000Y970468D01*
X1689500Y429718D02*
X1687468Y433782D01*
X1691532D01*
X1689500Y429718D01*
X1690000Y376968D02*
X1687968Y381032D01*
X1692032D01*
X1690000Y376968D01*
X1690100Y326285D02*
X1688068Y330349D01*
X1692132D01*
X1690100Y326285D01*
X1877750Y331718D02*
X1875718Y335782D01*
X1879782D01*
X1877750Y331718D01*
X1759310Y332338D02*
X1760326Y333354D01*
X1761342D01*
X1760326Y334370D01*
X1761342Y335386D01*
X1760326D01*
X1759310Y336402D01*
X1758294Y335386D01*
X1757278D01*
X1758294Y334370D01*
X1757278Y333354D01*
X1758294D01*
X1759310Y332338D01*
Y333354D02*
X1759818Y333862D01*
X1760326D01*
X1759818Y334370D01*
X1760326Y334878D01*
X1759818D01*
X1759310Y335386D01*
X1758802Y334878D01*
X1758294D01*
X1758802Y334370D01*
X1758294Y333862D01*
X1758802D01*
X1759310Y333354D01*
X1733750Y340218D02*
X1731718Y344282D01*
X1735782D01*
X1733750Y340218D01*
X1878500Y372718D02*
X1876468Y376782D01*
X1880532D01*
X1878500Y372718D01*
X1733000Y393278D02*
X1730968Y397342D01*
X1735032D01*
X1733000Y393278D01*
X1893250Y426968D02*
X1891218Y431032D01*
X1895282D01*
X1893250Y426968D01*
X1792500Y429718D02*
X1790468Y433782D01*
X1794532D01*
X1792500Y429718D01*
X1733397Y445441D02*
X1731365Y449505D01*
X1735429D01*
X1733397Y445441D01*
X1845500Y451468D02*
X1843468Y455532D01*
X1847532D01*
X1845500Y451468D01*
X1927750Y464968D02*
X1925718Y469032D01*
X1929782D01*
X1927750Y464968D01*
X1749500Y514718D02*
X1747468Y518782D01*
X1751532D01*
X1749500Y514718D01*
X1774924Y530899D02*
X1772892Y534963D01*
X1776956D01*
X1774924Y530899D01*
X2007750Y331218D02*
X2005718Y335282D01*
X2009782D01*
X2007750Y331218D01*
X2007500Y372468D02*
X2005468Y376532D01*
X2009532D01*
X2007500Y372468D01*
X2005500Y384718D02*
X2006516Y385734D01*
X2007532D01*
X2006516Y386750D01*
X2007532Y387766D01*
X2006516D01*
X2005500Y388782D01*
X2004484Y387766D01*
X2003468D01*
X2004484Y386750D01*
X2003468Y385734D01*
X2004484D01*
X2005500Y384718D01*
Y385734D02*
X2006008Y386242D01*
X2006516D01*
X2006008Y386750D01*
X2006516Y387258D01*
X2006008D01*
X2005500Y387766D01*
X2004992Y387258D01*
X2004484D01*
X2004992Y386750D01*
X2004484Y386242D01*
X2004992D01*
X2005500Y385734D01*
X2007000Y412968D02*
X2004968Y417032D01*
X2009032D01*
X2007000Y412968D01*
X1728250Y288988D02*
X1729266Y290004D01*
X1730282D01*
X1729266Y291020D01*
X1730282Y292036D01*
X1729266D01*
X1728250Y293052D01*
X1727234Y292036D01*
X1726218D01*
X1727234Y291020D01*
X1726218Y290004D01*
X1727234D01*
X1728250Y288988D01*
Y290004D02*
X1728758Y290512D01*
X1729266D01*
X1728758Y291020D01*
X1729266Y291528D01*
X1728758D01*
X1728250Y292036D01*
X1727742Y291528D01*
X1727234D01*
X1727742Y291020D01*
X1727234Y290512D01*
X1727742D01*
X1728250Y290004D01*
X1571250Y633718D02*
X1572266Y634734D01*
X1573282D01*
X1572266Y635750D01*
X1573282Y636766D01*
X1572266D01*
X1571250Y637782D01*
X1570234Y636766D01*
X1569218D01*
X1570234Y635750D01*
X1569218Y634734D01*
X1570234D01*
X1571250Y633718D01*
Y634734D02*
X1571758Y635242D01*
X1572266D01*
X1571758Y635750D01*
X1572266Y636258D01*
X1571758D01*
X1571250Y636766D01*
X1570742Y636258D01*
X1570234D01*
X1570742Y635750D01*
X1570234Y635242D01*
X1570742D01*
X1571250Y634734D01*
X1762500Y679718D02*
X1760468Y683782D01*
X1764532D01*
X1762500Y679718D01*
X1630500Y940218D02*
X1628468Y944282D01*
X1632532D01*
X1630500Y940218D01*
X1685250Y943968D02*
X1683218Y948032D01*
X1687282D01*
X1685250Y943968D01*
X598000Y336468D02*
X599016Y337484D01*
X600032D01*
X599016Y338500D01*
X600032Y339516D01*
X599016D01*
X598000Y340532D01*
X596984Y339516D01*
X595968D01*
X596984Y338500D01*
X595968Y337484D01*
X596984D01*
X598000Y336468D01*
Y337484D02*
X598508Y337992D01*
X599016D01*
X598508Y338500D01*
X599016Y339008D01*
X598508D01*
X598000Y339516D01*
X597492Y339008D01*
X596984D01*
X597492Y338500D01*
X596984Y337992D01*
X597492D01*
X598000Y337484D01*
X1761250Y575468D02*
X1759218Y579532D01*
X1763282D01*
X1761250Y575468D01*
X514500Y426468D02*
X512468Y430532D01*
X516532D01*
X514500Y426468D01*
X469000Y447218D02*
X466968Y451282D01*
X471032D01*
X469000Y447218D01*
X668000Y326968D02*
X665968Y331032D01*
X670032D01*
X668000Y326968D01*
X659500Y369468D02*
X657468Y373532D01*
X661532D01*
X659500Y369468D01*
X1369500Y364718D02*
X1367468Y368782D01*
X1371532D01*
X1369500Y364718D01*
X1443000Y363468D02*
X1440968Y367532D01*
X1445032D01*
X1443000Y363468D01*
X1511750Y363968D02*
X1509718Y368032D01*
X1513782D01*
X1511750Y363968D01*
X602000Y931218D02*
X599968Y935282D01*
X604032D01*
X602000Y931218D01*
X601250Y952718D02*
X602266Y953734D01*
X603282D01*
X602266Y954750D01*
X603282Y955766D01*
X602266D01*
X601250Y956782D01*
X600234Y955766D01*
X599218D01*
X600234Y954750D01*
X599218Y953734D01*
X600234D01*
X601250Y952718D01*
Y953734D02*
X601758Y954242D01*
X602266D01*
X601758Y954750D01*
X602266Y955258D01*
X601758D01*
X601250Y955766D01*
X600742Y955258D01*
X600234D01*
X600742Y954750D01*
X600234Y954242D01*
X600742D01*
X601250Y953734D01*
M02*
