G04*
G04 #@! TF.GenerationSoftware,Altium Limited,Altium Designer,22.10.1 (41)*
G04*
G04 Layer_Color=12632256*
%FSLAX44Y44*%
%MOMM*%
G71*
G04*
G04 #@! TF.SameCoordinates,CCA9ED2B-0253-4C40-8C16-DC95D70DEF13*
G04*
G04*
G04 #@! TF.FilePolarity,Positive*
G04*
G01*
G75*
%ADD91C,1.0000*%
%ADD92C,1.6000*%
%ADD93R,1.6000X1.6000*%
%ADD94C,1.8000*%
%ADD95C,2.0000*%
%ADD96C,1.5000*%
%ADD97C,1.2000*%
%ADD98R,1.2000X1.2000*%
%ADD99C,1.3000*%
%ADD100R,2.0000X2.0000*%
G04:AMPARAMS|DCode=101|XSize=2mm|YSize=2mm|CornerRadius=0.5mm|HoleSize=0mm|Usage=FLASHONLY|Rotation=90.000|XOffset=0mm|YOffset=0mm|HoleType=Round|Shape=RoundedRectangle|*
%AMROUNDEDRECTD101*
21,1,2.0000,1.0000,0,0,90.0*
21,1,1.0000,2.0000,0,0,90.0*
1,1,1.0000,0.5000,0.5000*
1,1,1.0000,0.5000,-0.5000*
1,1,1.0000,-0.5000,-0.5000*
1,1,1.0000,-0.5000,0.5000*
%
%ADD101ROUNDEDRECTD101*%
G04:AMPARAMS|DCode=102|XSize=1.8mm|YSize=1.8mm|CornerRadius=0.45mm|HoleSize=0mm|Usage=FLASHONLY|Rotation=270.000|XOffset=0mm|YOffset=0mm|HoleType=Round|Shape=RoundedRectangle|*
%AMROUNDEDRECTD102*
21,1,1.8000,0.9000,0,0,270.0*
21,1,0.9000,1.8000,0,0,270.0*
1,1,0.9000,-0.4500,-0.4500*
1,1,0.9000,-0.4500,0.4500*
1,1,0.9000,0.4500,0.4500*
1,1,0.9000,0.4500,-0.4500*
%
%ADD102ROUNDEDRECTD102*%
%ADD103C,8.0000*%
%ADD104C,2.5000*%
%ADD105R,1.8000X1.8000*%
%ADD106C,1.4000*%
G04:AMPARAMS|DCode=107|XSize=2mm|YSize=2mm|CornerRadius=0.5mm|HoleSize=0mm|Usage=FLASHONLY|Rotation=180.000|XOffset=0mm|YOffset=0mm|HoleType=Round|Shape=RoundedRectangle|*
%AMROUNDEDRECTD107*
21,1,2.0000,1.0000,0,0,180.0*
21,1,1.0000,2.0000,0,0,180.0*
1,1,1.0000,-0.5000,0.5000*
1,1,1.0000,0.5000,0.5000*
1,1,1.0000,0.5000,-0.5000*
1,1,1.0000,-0.5000,-0.5000*
%
%ADD107ROUNDEDRECTD107*%
%ADD108C,3.2000*%
D91*
X26750Y235000D02*
D03*
X51750D02*
D03*
D92*
X535650Y657900D02*
D03*
X637250Y505500D02*
D03*
X1018250Y543600D02*
D03*
Y619800D02*
D03*
X532400Y114350D02*
D03*
X456200D02*
D03*
X557800Y165150D02*
D03*
X532400D02*
D03*
X456200D02*
D03*
X455950Y89400D02*
D03*
X532150D02*
D03*
X557550D02*
D03*
X455950Y38600D02*
D03*
X532150D02*
D03*
X365900Y425150D02*
D03*
X340500D02*
D03*
X365900Y374350D02*
D03*
D93*
X434050Y505500D02*
D03*
X557800Y114350D02*
D03*
X557550Y38600D02*
D03*
X315100Y374350D02*
D03*
D94*
X1724000Y405000D02*
D03*
Y379600D02*
D03*
X1616200Y434250D02*
D03*
X1590800D02*
D03*
X858300Y48750D02*
D03*
X883700D02*
D03*
X1222750Y651250D02*
D03*
X1247750D02*
D03*
X1597650Y287500D02*
D03*
X1572250D02*
D03*
X1543450Y359750D02*
D03*
X1518050D02*
D03*
X1599500Y644000D02*
D03*
X1574100D02*
D03*
X1548700D02*
D03*
X1599500Y679750D02*
D03*
X1624900D02*
D03*
X1574100D02*
D03*
X1548700D02*
D03*
X673050Y141500D02*
D03*
X698450D02*
D03*
X1272750Y651250D02*
D03*
D95*
X1767250Y434750D02*
D03*
Y404750D02*
D03*
Y464750D02*
D03*
Y494750D02*
D03*
Y524750D02*
D03*
Y554750D02*
D03*
Y584750D02*
D03*
Y614750D02*
D03*
X34500Y427000D02*
D03*
Y457000D02*
D03*
X1371500Y631850D02*
D03*
X1401500Y661850D02*
D03*
X218750Y666250D02*
D03*
X248750D02*
D03*
X100250D02*
D03*
X130250D02*
D03*
X1725500Y284000D02*
D03*
Y259000D02*
D03*
X1750500Y159000D02*
D03*
Y284000D02*
D03*
Y309000D02*
D03*
X1725500D02*
D03*
Y334000D02*
D03*
X1750500Y259000D02*
D03*
X1725500Y234000D02*
D03*
X1750500D02*
D03*
X1725500Y209000D02*
D03*
X1750500D02*
D03*
X1725500Y184000D02*
D03*
X1750500D02*
D03*
X1725500Y159000D02*
D03*
X1371500Y661850D02*
D03*
X96700Y134000D02*
D03*
X126700D02*
D03*
Y74000D02*
D03*
Y104000D02*
D03*
Y164000D02*
D03*
X96700Y104000D02*
D03*
Y164000D02*
D03*
D96*
X1664000Y491000D02*
D03*
Y465600D02*
D03*
Y516400D02*
D03*
X1554350Y483500D02*
D03*
X1605150D02*
D03*
X1579750D02*
D03*
D97*
X339000Y658000D02*
D03*
X313600Y683400D02*
D03*
X1341500Y671250D02*
D03*
X1431500D02*
D03*
D98*
X364400Y683400D02*
D03*
D99*
X1764305Y246500D02*
D03*
D100*
X1750500Y334000D02*
D03*
D101*
X1401500Y631850D02*
D03*
D102*
X1624900Y644000D02*
D03*
X1650300Y679750D02*
D03*
D103*
X1700000Y600000D02*
D03*
X1132500D02*
D03*
X1700000Y100000D02*
D03*
X400000D02*
D03*
D104*
X248250Y428500D02*
D03*
X138250D02*
D03*
D105*
X1197750Y651250D02*
D03*
D106*
X1235250Y664650D02*
D03*
D107*
X96700Y74000D02*
D03*
D108*
X53500Y95500D02*
D03*
Y142500D02*
D03*
M02*
