M48
;Layer_Color=9474304
;FILE_FORMAT=4:4
METRIC
T15F00S00C2.0000
%
G90
G05
T15
G00X01749971Y-00009937
M15
G01X01750718Y-00010022
G01X01758555Y-00009423
G01X01766247Y-00007806
G01X01773662Y-00005198
G01X01780673Y-00001645
G01X01787160Y00002792
G01X01793013Y00008039
G01X01798131Y00014004
G01X01802426Y00020587
G01X01805826Y00027674
G01X01808271Y00035144
G01X01809721Y00042869
G01X01810171Y00050065
G01X01810064Y00649971
G01X01810149Y00650718
G01X01809550Y00658555
G01X01807933Y00666247
G01X01805325Y00673662
G01X01801772Y00680673
G01X01797335Y00687160
G01X01792088Y00693013
G01X01786123Y00698131
G01X01779540Y00702426
G01X01772453Y00705826
G01X01764983Y00708271
G01X01757258Y00709721
G01X01750063Y00710171
G01X00050156Y00710064
G01X00049409Y00710149
G01X00041572Y00709550
G01X00033880Y00707933
G01X00026465Y00705325
G01X00019454Y00701772
G01X00012967Y00697335
G01X00007114Y00692088
G01X00001996Y00686123
G01X-00002299Y00679540
G01X-00005699Y00672453
G01X-00008144Y00664983
G01X-00009594Y00657258
G01X-00010044Y00650062
G01X-00009937Y00050156
G01X-00010022Y00049409
G01X-00009423Y00041572
G01X-00007806Y00033880
G01X-00005198Y00026465
G01X-00001645Y00019454
G01X00002792Y00012967
G01X00008039Y00007114
G01X00014004Y00001996
G01X00020587Y-00002299
G01X00027674Y-00005699
G01X00035144Y-00008144
G01X00042869Y-00009594
G01X00050064Y-00010044
G01X01749971Y-00009937
M16
M17
M30
