M48
;Layer_Color=9474304
;FILE_FORMAT=4:4
METRIC
;TYPE=PLATED
T1F00S00C0.2000
T2F00S00C0.3000
T3F00S00C0.5000
;TYPE=NON_PLATED
%
T01
X01230000Y00363750
X01250000Y00363500
X01263000Y00389500
X01233000Y00390500
X01285750Y00372000
X01324930Y00390563
X01321535Y00341069
X01325750Y00411750
X01309750Y00412500
X01288250Y00408750
X01270000Y00409000
X01274640Y00424860
X01282640
X01251250Y00415500
X01231750Y00426750
X01236500Y00444000
X01245000Y00464000
X01269000Y00464500
X01287750Y00463500
X01305500Y00463750
X01324000
X01328500Y00445500
X01347750Y00461250
X01370250
X01360750Y00439000
X01376500Y00400250
T02
X00186648Y00089636
X00191500Y00183500
X00252000Y00134000
X00294250Y00155500
X00302500Y00066750
X00068867Y00209354
X00506750Y00329000
X00694750Y00276250
X00784500Y00311750
X00765500Y00355000
X00784500Y00099900
X00736500Y00058500
X00702750Y00057000
X00676750Y00052000
X00626000Y00050000
X00605250Y00076000
X00647250Y00125250
X00799500Y00075750
X00800500Y00014250
X00963250Y00041000
X00950750Y00067250
X00963000Y00119750
X01011000Y00121500
X00948500Y00155500
X00954250Y00203000
X01030000Y00201500
X01070000
X01072250Y00215500
X01090500Y00168500
X01093750Y00305000
X01076750Y00313250
X01069750Y00329750
X00854750Y00370000
X00864750Y00154500
X01294148Y00146456
X01295500Y00175250
X01329500Y00251000
X01337750Y00258250
X01387750Y00257000
X01368750Y00303000
X01349250Y00353000
X01341750Y00364500
X01349000Y00376250
X01314750Y00377750
X01301750Y00396000
X01266000Y00375000
X01266750Y00355750
Y00328250
X01233000Y00328250
X01205750Y00348500
X01314640Y00318822
X01453250Y00330250
X01482699Y00259447
X01488750Y00195750
X01456250Y00174500
X01447250Y00125000
X01531750Y00167000
X01532500Y00180750
X01633000Y00187250
Y00239750
X01621250Y00279000
X01655750Y00332000
X01703000Y00293750
X01705000Y00223000
X01703500Y00189750
X01647250Y00608500
X01622500
X01598000
X01659128Y00643212
X01573000Y00608500
X01548017Y00608503
X01523000Y00608250
X01513500Y00634250
X01507750Y00581250
X01503500Y00556250
X01461500Y00530250
X01446000Y00544000
X01448000Y00597000
X01466500Y00597250
X01424250Y00608250
X01424000Y00485250
X01389000Y00506500
X01323750Y00532250
X01279250Y00544000
X01278500Y00562000
X01203750Y00591504
X01349500Y00399000
X01453750Y00441750
X01567750Y00533500
X01585500Y00520500
X01561250Y00571750
X01559250Y00588750
X01181750Y00576000
X01166250Y00416000
X00986000Y00401750
X00760000Y00419500
X00393351Y00632685
T03
X00649000Y00311250
X00731000Y00393000
X01591250Y00259500
X00431000Y00563250
X00364250Y00582000
X00287500Y00574750
M30
