G04*
G04 #@! TF.GenerationSoftware,Altium Limited,Altium Designer,22.10.1 (41)*
G04*
G04 Layer_Color=2752767*
%FSLAX44Y44*%
%MOMM*%
G71*
G04*
G04 #@! TF.SameCoordinates,CCA9ED2B-0253-4C40-8C16-DC95D70DEF13*
G04*
G04*
G04 #@! TF.FilePolarity,Positive*
G04*
G01*
G75*
%ADD129C,0.0508*%
D129*
X889734Y154234D02*
Y153218D01*
X891766D01*
Y154234D01*
X892782D01*
Y156266D01*
X891766D01*
Y157282D01*
X889734D01*
Y156266D01*
X888718D01*
Y154234D01*
X889734D01*
X890242Y154742D02*
Y154234D01*
X891258D01*
Y154742D01*
X891766D01*
Y155758D01*
X891258D01*
Y156266D01*
X890242D01*
Y155758D01*
X889734D01*
Y154742D01*
X890242D01*
X917984Y162734D02*
Y161718D01*
X920016D01*
Y162734D01*
X921032D01*
Y164766D01*
X920016D01*
Y165782D01*
X917984D01*
Y164766D01*
X916968D01*
Y162734D01*
X917984D01*
X918492Y163242D02*
Y162734D01*
X919508D01*
Y163242D01*
X920016D01*
Y164258D01*
X919508D01*
Y164766D01*
X918492D01*
Y164258D01*
X917984D01*
Y163242D01*
X918492D01*
X1303484Y339984D02*
Y338968D01*
X1305516D01*
Y339984D01*
X1306532D01*
Y342016D01*
X1305516D01*
Y343032D01*
X1303484D01*
Y342016D01*
X1302468D01*
Y339984D01*
X1303484D01*
X1303992Y340492D02*
Y339984D01*
X1305008D01*
Y340492D01*
X1305516D01*
Y341508D01*
X1305008D01*
Y342016D01*
X1303992D01*
Y341508D01*
X1303484D01*
Y340492D01*
X1303992D01*
X1442984Y386484D02*
Y385468D01*
X1445016D01*
Y386484D01*
X1446032D01*
Y388516D01*
X1445016D01*
Y389532D01*
X1442984D01*
Y388516D01*
X1441968D01*
Y386484D01*
X1442984D01*
X1443492Y386992D02*
Y386484D01*
X1444508D01*
Y386992D01*
X1445016D01*
Y388008D01*
X1444508D01*
Y388516D01*
X1443492D01*
Y388008D01*
X1442984D01*
Y386992D01*
X1443492D01*
X1621484Y566984D02*
Y565968D01*
X1623516D01*
Y566984D01*
X1624532D01*
Y569016D01*
X1623516D01*
Y570032D01*
X1621484D01*
Y569016D01*
X1620468D01*
Y566984D01*
X1621484D01*
X1621992Y567492D02*
Y566984D01*
X1623008D01*
Y567492D01*
X1623516D01*
Y568508D01*
X1623008D01*
Y569016D01*
X1621992D01*
Y568508D01*
X1621484D01*
Y567492D01*
X1621992D01*
X1596984Y567234D02*
Y566218D01*
X1599016D01*
Y567234D01*
X1600032D01*
Y569266D01*
X1599016D01*
Y570282D01*
X1596984D01*
Y569266D01*
X1595968D01*
Y567234D01*
X1596984D01*
X1597492Y567742D02*
Y567234D01*
X1598508D01*
Y567742D01*
X1599016D01*
Y568758D01*
X1598508D01*
Y569266D01*
X1597492D01*
Y568758D01*
X1596984D01*
Y567742D01*
X1597492D01*
X1646855Y567776D02*
Y566760D01*
X1648887D01*
Y567776D01*
X1649903D01*
Y569808D01*
X1648887D01*
Y570824D01*
X1646855D01*
Y569808D01*
X1645839D01*
Y567776D01*
X1646855D01*
X1647363Y568284D02*
Y567776D01*
X1648379D01*
Y568284D01*
X1648887D01*
Y569300D01*
X1648379D01*
Y569808D01*
X1647363D01*
Y569300D01*
X1646855D01*
Y568284D01*
X1647363D01*
X44234Y198984D02*
Y197968D01*
X46266D01*
Y198984D01*
X47282D01*
Y201016D01*
X46266D01*
Y202032D01*
X44234D01*
Y201016D01*
X43218D01*
Y198984D01*
X44234D01*
X44742Y199492D02*
Y198984D01*
X45758D01*
Y199492D01*
X46266D01*
Y200508D01*
X45758D01*
Y201016D01*
X44742D01*
Y200508D01*
X44234D01*
Y199492D01*
X44742D01*
M02*
