G04*
G04 #@! TF.GenerationSoftware,Altium Limited,Altium Designer,22.10.1 (41)*
G04*
G04 Layer_Color=128*
%FSLAX44Y44*%
%MOMM*%
G71*
G04*
G04 #@! TF.SameCoordinates,CCA9ED2B-0253-4C40-8C16-DC95D70DEF13*
G04*
G04*
G04 #@! TF.FilePolarity,Positive*
G04*
G01*
G75*
%ADD129C,0.0508*%
D129*
X335500Y197250D02*
X338500D01*
X337000Y195750D02*
Y198750D01*
X693250Y276250D02*
X696250D01*
X694750Y274750D02*
Y277750D01*
X764000Y355000D02*
X767000D01*
X765500Y353500D02*
Y356500D01*
X1092250Y305000D02*
X1095250D01*
X1093750Y303500D02*
Y306500D01*
X1180250Y576000D02*
X1183250D01*
X1181750Y574500D02*
Y577500D01*
X1264500Y375000D02*
X1267500D01*
X1266000Y373500D02*
Y376500D01*
X1164750Y416000D02*
X1167750D01*
X1166250Y414500D02*
Y417500D01*
X1322250Y532250D02*
X1325250D01*
X1323750Y530750D02*
Y533750D01*
X853250Y370000D02*
X856250D01*
X854750Y368500D02*
Y371500D01*
X783000Y311750D02*
X786000D01*
X784500Y310250D02*
Y313250D01*
X1657628Y643212D02*
X1660628D01*
X1659128Y641712D02*
Y644712D01*
X1512000Y634250D02*
X1515000D01*
X1513500Y632750D02*
Y635750D01*
X1002000Y99900D02*
X1005000D01*
X1003500Y98400D02*
Y101400D01*
X961500Y119750D02*
X964500D01*
X963000Y118250D02*
Y121250D01*
X1009500Y121500D02*
X1012500D01*
X1011000Y120000D02*
Y123000D01*
X947000Y155500D02*
X950000D01*
X948500Y154000D02*
Y157000D01*
X1002250Y162250D02*
X1005250D01*
X1003750Y160750D02*
Y163750D01*
X1028500Y201500D02*
X1031500D01*
X1030000Y200000D02*
Y203000D01*
X952750D02*
X955750D01*
X954250Y201500D02*
Y204500D01*
X1068250Y329750D02*
X1071250D01*
X1069750Y328250D02*
Y331250D01*
X1251250Y121250D02*
X1254250D01*
X1252750Y119750D02*
Y122750D01*
X1251500Y134000D02*
X1254500D01*
X1253000Y132500D02*
Y135500D01*
X1292648Y146456D02*
X1295648D01*
X1294148Y144956D02*
Y147956D01*
X1294000Y175250D02*
X1297000D01*
X1295500Y173750D02*
Y176750D01*
X1200500Y192750D02*
X1203500D01*
X1202000Y191250D02*
Y194250D01*
X1068500Y201500D02*
X1071500D01*
X1070000Y200000D02*
Y203000D01*
X1070750Y215500D02*
X1073750D01*
X1072250Y214000D02*
Y217000D01*
X1294000Y246750D02*
X1297000D01*
X1295500Y245250D02*
Y248250D01*
X1075250Y313250D02*
X1078250D01*
X1076750Y311750D02*
Y314750D01*
X1313140Y318822D02*
X1316140D01*
X1314640Y317322D02*
Y320322D01*
X1231500Y328250D02*
X1234500D01*
X1233000Y326750D02*
Y329750D01*
X1265250Y328250D02*
X1268250D01*
X1266750Y326750D02*
Y329750D01*
X1204250Y348500D02*
X1207250D01*
X1205750Y347000D02*
Y350000D01*
X1265250Y355750D02*
X1268250D01*
X1266750Y354250D02*
Y357250D01*
X1209000Y379250D02*
X1212000D01*
X1210500Y377750D02*
Y380750D01*
X1232000Y390500D02*
X1234000D01*
X1233000Y389500D02*
Y391500D01*
X1011750Y397500D02*
X1014750D01*
X1013250Y396000D02*
Y399000D01*
X1037750Y400750D02*
X1040750D01*
X1039250Y399250D02*
Y402250D01*
X984500Y401750D02*
X987500D01*
X986000Y400250D02*
Y403250D01*
X1235500Y444000D02*
X1237500D01*
X1236500Y443000D02*
Y445000D01*
X1190000Y582000D02*
X1193000D01*
X1191500Y580500D02*
Y583500D01*
X1202250Y591504D02*
X1205250D01*
X1203750Y590004D02*
Y593004D01*
X1313250Y377750D02*
X1316250D01*
X1314750Y376250D02*
Y379250D01*
X1262000Y389500D02*
X1264000D01*
X1263000Y388500D02*
Y390500D01*
X1300250Y396000D02*
X1303250D01*
X1301750Y394500D02*
Y397500D01*
X1269000Y409000D02*
X1271000D01*
X1270000Y408000D02*
Y410000D01*
X1308750Y412500D02*
X1310750D01*
X1309750Y411500D02*
Y413500D01*
X1250250Y415500D02*
X1252250D01*
X1251250Y414500D02*
Y416500D01*
X1273640Y424860D02*
X1275640D01*
X1274640Y423860D02*
Y425860D01*
X1281640Y424860D02*
X1283640D01*
X1282640Y423860D02*
Y425860D01*
X1311000Y491000D02*
X1314000D01*
X1312500Y489500D02*
Y492500D01*
X1275750Y508000D02*
X1278750D01*
X1277250Y506500D02*
Y509500D01*
X1275500Y520500D02*
X1278500D01*
X1277000Y519000D02*
Y522000D01*
X1277750Y544000D02*
X1280750D01*
X1279250Y542500D02*
Y545500D01*
X1277000Y562000D02*
X1280000D01*
X1278500Y560500D02*
Y563500D01*
X1324750Y411750D02*
X1326750D01*
X1325750Y410750D02*
Y412750D01*
X1328000Y251000D02*
X1331000D01*
X1329500Y249500D02*
Y252500D01*
X1336250Y258250D02*
X1339250D01*
X1337750Y256750D02*
Y259750D01*
X1340250Y364500D02*
X1343250D01*
X1341750Y363000D02*
Y366000D01*
X1345500Y134250D02*
X1348500D01*
X1347000Y132750D02*
Y135750D01*
X1345750Y121250D02*
X1348750D01*
X1347250Y119750D02*
Y122750D01*
X1347500Y376250D02*
X1350500D01*
X1349000Y374750D02*
Y377750D01*
X1347750Y353000D02*
X1350750D01*
X1349250Y351500D02*
Y354500D01*
X1400000Y117750D02*
X1403000D01*
X1401500Y116250D02*
Y119250D01*
X1445750Y125000D02*
X1448750D01*
X1447250Y123500D02*
Y126500D01*
X1417750Y145250D02*
X1420750D01*
X1419250Y143750D02*
Y146750D01*
X1530250Y167000D02*
X1533250D01*
X1531750Y165500D02*
Y168500D01*
X1454750Y174500D02*
X1457750D01*
X1456250Y173000D02*
Y176000D01*
X1531000Y180750D02*
X1534000D01*
X1532500Y179250D02*
Y182250D01*
X1487250Y195750D02*
X1490250D01*
X1488750Y194250D02*
Y197250D01*
X1426500Y202080D02*
X1429500D01*
X1428000Y200580D02*
Y203580D01*
X1386250Y257000D02*
X1389250D01*
X1387750Y255500D02*
Y258500D01*
X1481199Y259447D02*
X1484199D01*
X1482699Y257947D02*
Y260947D01*
X1367250Y303000D02*
X1370250D01*
X1368750Y301500D02*
Y304500D01*
X1491250Y347750D02*
X1496250D01*
X1493750Y345250D02*
Y350250D01*
X1428500Y380250D02*
X1431500D01*
X1430000Y378750D02*
Y381750D01*
X1348000Y399000D02*
X1351000D01*
X1349500Y397500D02*
Y400500D01*
X1375500Y400250D02*
X1377500D01*
X1376500Y399250D02*
Y401250D01*
X1503250Y416750D02*
X1508250D01*
X1505750Y414250D02*
Y419250D01*
X1327500Y445500D02*
X1329500D01*
X1328500Y444500D02*
Y446500D01*
X1330500Y508500D02*
X1333500D01*
X1332000Y507000D02*
Y510000D01*
X1330750Y521000D02*
X1333750D01*
X1332250Y519500D02*
Y522500D01*
X1346750Y461250D02*
X1348750D01*
X1347750Y460250D02*
Y462250D01*
X1384750Y486750D02*
X1387750D01*
X1386250Y485250D02*
Y488250D01*
X1387500Y506500D02*
X1390500D01*
X1389000Y505000D02*
Y508000D01*
X1489250Y463000D02*
X1492250D01*
X1490750Y461500D02*
Y464500D01*
X1422500Y485250D02*
X1425500D01*
X1424000Y483750D02*
Y486750D01*
X1400250Y525330D02*
X1403250D01*
X1401750Y523830D02*
Y526830D01*
X1460000Y530250D02*
X1463000D01*
X1461500Y528750D02*
Y531750D01*
X1502000Y556250D02*
X1505000D01*
X1503500Y554750D02*
Y557750D01*
X1521500Y568250D02*
X1524500D01*
X1523000Y566750D02*
Y569750D01*
X1546250Y569000D02*
X1549250D01*
X1547750Y567500D02*
Y570500D01*
X1506250Y581250D02*
X1509250D01*
X1507750Y579750D02*
Y582750D01*
X1418500Y586250D02*
X1421500D01*
X1420000Y584750D02*
Y587750D01*
X1422750Y608250D02*
X1425750D01*
X1424250Y606750D02*
Y609750D01*
X1521500Y608250D02*
X1524500D01*
X1523000Y606750D02*
Y609750D01*
X1546517Y608503D02*
X1549517D01*
X1548017Y607003D02*
Y610003D01*
X1517250Y655250D02*
X1520250D01*
X1518750Y653750D02*
Y656750D01*
X1552250Y129000D02*
X1555250D01*
X1553750Y127500D02*
Y130500D01*
X1611500Y101250D02*
X1614500D01*
X1613000Y99750D02*
Y102750D01*
X1612250Y263500D02*
X1615250D01*
X1613750Y262000D02*
Y265000D01*
X1595000Y204250D02*
X1598000D01*
X1596500Y202750D02*
Y205750D01*
X1588750Y259500D02*
X1593750D01*
X1591250Y257000D02*
Y262000D01*
X1654250Y332000D02*
X1657250D01*
X1655750Y330500D02*
Y333500D01*
X1674000Y394000D02*
X1679000D01*
X1676500Y391500D02*
Y396500D01*
X1584000Y520500D02*
X1587000D01*
X1585500Y519000D02*
Y522000D01*
X1566250Y533500D02*
X1569250D01*
X1567750Y532000D02*
Y535000D01*
X1571500Y569250D02*
X1574500D01*
X1573000Y567750D02*
Y570750D01*
X1559750Y571750D02*
X1562750D01*
X1561250Y570250D02*
Y573250D01*
X1605500Y571750D02*
X1608500D01*
X1607000Y570250D02*
Y573250D01*
X1631250Y572500D02*
X1634250D01*
X1632750Y571000D02*
Y574000D01*
X1557750Y588750D02*
X1560750D01*
X1559250Y587250D02*
Y590250D01*
X1571500Y608500D02*
X1574500D01*
X1573000Y607000D02*
Y610000D01*
X1596500Y608500D02*
X1599500D01*
X1598000Y607000D02*
Y610000D01*
X1621000Y608500D02*
X1624000D01*
X1622500Y607000D02*
Y610000D01*
X1645750Y608500D02*
X1648750D01*
X1647250Y607000D02*
Y610000D01*
X1656000Y571750D02*
X1659000D01*
X1657500Y570250D02*
Y573250D01*
X185148Y89636D02*
X188148D01*
X186648Y88136D02*
Y91136D01*
X250500Y134000D02*
X253500D01*
X252000Y132500D02*
Y135500D01*
X190000Y183500D02*
X193000D01*
X191500Y182000D02*
Y185000D01*
X645750Y125250D02*
X648750D01*
X647250Y123750D02*
Y126750D01*
X603750Y76000D02*
X606750D01*
X605250Y74500D02*
Y77500D01*
X624500Y50000D02*
X627500D01*
X626000Y48500D02*
Y51500D01*
X675250Y52000D02*
X678250D01*
X676750Y50500D02*
Y53500D01*
X701250Y57000D02*
X704250D01*
X702750Y55500D02*
Y58500D01*
X783000Y99900D02*
X786000D01*
X784500Y98400D02*
Y101400D01*
X735000Y58500D02*
X738000D01*
X736500Y57000D02*
Y60000D01*
X799000Y14250D02*
X802000D01*
X800500Y12750D02*
Y15750D01*
X798000Y75750D02*
X801000D01*
X799500Y74250D02*
Y77250D01*
X949250Y67250D02*
X952250D01*
X950750Y65750D02*
Y68750D01*
X679460Y15579D02*
X682460D01*
X680960Y14079D02*
Y17079D01*
X747750Y21250D02*
X750750D01*
X749250Y19750D02*
Y22750D01*
X643000Y37750D02*
X646000D01*
X644500Y36250D02*
Y39250D01*
X1000250Y39750D02*
X1003250D01*
X1001750Y38250D02*
Y41250D01*
X961750Y41000D02*
X964750D01*
X963250Y39500D02*
Y42500D01*
X708500Y68750D02*
X711500D01*
X710000Y67250D02*
Y70250D01*
X678500Y78900D02*
X681500D01*
X680000Y77400D02*
Y80400D01*
X883369Y101283D02*
X886369D01*
X884869Y99783D02*
Y102783D01*
X644500Y114000D02*
X647500D01*
X646000Y112500D02*
Y115500D01*
X859750Y131000D02*
X862750D01*
X861250Y129500D02*
Y132500D01*
X739500Y135250D02*
X742500D01*
X741000Y133750D02*
Y136750D01*
X863250Y154500D02*
X866250D01*
X864750Y153000D02*
Y156000D01*
X784750Y256250D02*
X787750D01*
X786250Y254750D02*
Y257750D01*
X655500Y283250D02*
X658500D01*
X657000Y281750D02*
Y284750D01*
X646500Y311250D02*
X651500D01*
X649000Y308750D02*
Y313750D01*
X861500Y341250D02*
X864500D01*
X863000Y339750D02*
Y342750D01*
X738000Y367250D02*
X741000D01*
X739500Y365750D02*
Y368750D01*
X728500Y393000D02*
X733500D01*
X731000Y390500D02*
Y395500D01*
X245436Y89825D02*
X248436D01*
X246936Y88325D02*
Y91325D01*
X272500Y87250D02*
X275500D01*
X274000Y85750D02*
Y88750D01*
X268750Y174250D02*
X271750D01*
X270250Y172750D02*
Y175750D01*
X232750Y183000D02*
X235750D01*
X234250Y181500D02*
Y184500D01*
X292750Y155500D02*
X295750D01*
X294250Y154000D02*
Y157000D01*
X301000Y66750D02*
X304000D01*
X302500Y65250D02*
Y68250D01*
X391851Y632685D02*
X394851D01*
X393351Y631185D02*
Y634185D01*
X428500Y563250D02*
X433500D01*
X431000Y560750D02*
Y565750D01*
X361750Y582000D02*
X366750D01*
X364250Y579500D02*
Y584500D01*
X285000Y574750D02*
X290000D01*
X287500Y572250D02*
Y577250D01*
M02*
