M48
;Layer_Color=9474304
;FILE_FORMAT=4:4
METRIC
;TYPE=PLATED
T1F00S00C0.5000
T2F00S00C0.9000
T3F00S00C1.1000
T4F00S00C1.1500
T5F00S00C1.3000
T6F00S00C3.2500
;TYPE=NON_PLATED
%
T01
X01200000Y00550000
X01225000Y00600000
X01200000Y00650000
X01255900Y00649250
X01225000Y00700000
X01256650Y00774500
X01159750Y00732750
X01126750
X01118000Y00759000
X01025500Y00768811
X01000000Y00750000
X01006250Y00684500
X01033557Y00689750
X01041750Y00629000
X01115165Y00614000
X01175000Y00600000
X01185250Y00522850
X01095250
X00974500Y00557750
X00945000Y00555950
X00934750Y00594000
X00975000Y00600000
X00865500Y00563568
X00843967
X00867161Y00540250
X00842000Y00681750
X00849250Y00689750
X00829287Y00697750
X00849250Y00721562
X00842000Y00729770
X00842040Y00776290
X00911250Y00684020
X00775000Y00700000
X00793000Y00727285
X00784710Y00789029
X00763500Y00780000
X00750000Y00650000
X00600000
X00608100Y00677500
X00600000Y00750000
X00608100Y00762000
X00625000Y00600000
X00650000Y00550000
X00719250Y00524350
X00789750Y00520250
X00781038Y00810164
X00725000Y00800000
X00737000Y00841750
X00701250Y00875500
X00683500Y00884788
X00635250Y00823000
X00594750Y00814000
X00841243Y00865250
X00906269Y00834250
X00925000Y00800000
X00942000Y00799750
X01025000Y00800000
X01000000Y00850000
X01010250Y00877400
X01070250
X01100000Y00850000
X01100000Y00809750
X01134750Y00881650
T02
X00724250Y00660441
T03
X00896000Y00754500
X00921400
X00946800
X00972200
X01008250Y00712500
X01033650
X01059050
X01084450
X01109850
X01135250
T04
X01125250Y00532250
Y00562250
X01155250
Y00532250
X01040250Y00838000
Y00868000
T05
X01242500Y00611750
Y00636750
Y00661750
Y00686750
X01243250Y00762000
X01218250
Y00787000
X01243250
X00621500Y00774500
Y00749500
Y00690000
Y00665000
X00681750Y00537750
X00706750
X00731750
X00756750
X01122250Y00843250
X01147250
Y00868250
X01122250
T06
X01236500Y00550250
X00607000Y00548750
X00606750Y00852800
X01236500
M30
