G04*
G04 #@! TF.GenerationSoftware,Altium Limited,Altium Designer,22.7.1 (60)*
G04*
G04 Layer_Physical_Order=3*
G04 Layer_Color=16440176*
%FSLAX44Y44*%
%MOMM*%
G71*
G04*
G04 #@! TF.SameCoordinates,84C913F6-0FDF-4526-9F0D-4E4E4A459FD0*
G04*
G04*
G04 #@! TF.FilePolarity,Positive*
G04*
G01*
G75*
%ADD17C,2.0000*%
%ADD80C,0.5000*%
%ADD84C,2.5000*%
%ADD89C,1.8000*%
%ADD94C,1.0000*%
G04:AMPARAMS|DCode=99|XSize=2mm|YSize=2mm|CornerRadius=0.5mm|HoleSize=0mm|Usage=FLASHONLY|Rotation=90.000|XOffset=0mm|YOffset=0mm|HoleType=Round|Shape=RoundedRectangle|*
%AMROUNDEDRECTD99*
21,1,2.0000,1.0000,0,0,90.0*
21,1,1.0000,2.0000,0,0,90.0*
1,1,1.0000,0.5000,0.5000*
1,1,1.0000,0.5000,-0.5000*
1,1,1.0000,-0.5000,-0.5000*
1,1,1.0000,-0.5000,0.5000*
%
%ADD99ROUNDEDRECTD99*%
%ADD101C,0.8000*%
%ADD102C,4.0000*%
G36*
X2252750Y1007250D02*
Y304500D01*
X2202500Y254250D01*
X302750D01*
X252750Y304250D01*
Y502250D01*
X849250Y502250D01*
X1146000Y799000D01*
Y1052762D01*
X1147488Y1054250D01*
X1640211D01*
Y1002845D01*
X1626905Y989539D01*
X1535000D01*
X1535000Y989539D01*
X1534220Y989384D01*
X1533558Y988942D01*
X1533558Y988942D01*
X1504808Y960192D01*
X1504366Y959530D01*
X1504211Y958750D01*
Y883500D01*
X1504366Y882720D01*
X1504808Y882058D01*
X1504808Y882058D01*
X1537808Y849058D01*
X1538470Y848616D01*
X1539250Y848461D01*
X1592750D01*
X1593530Y848616D01*
X1594192Y849058D01*
X1594192Y849058D01*
X1613692Y868558D01*
X1614134Y869220D01*
X1614289Y870000D01*
Y937905D01*
X1622640Y946256D01*
X1623656Y945476D01*
X1623474Y945160D01*
X1623034Y943520D01*
X1629230D01*
Y949716D01*
X1627590Y949276D01*
X1627274Y949094D01*
X1626494Y950110D01*
X1633845Y957461D01*
X1741500D01*
X1742280Y957616D01*
X1742942Y958058D01*
X1742942Y958058D01*
X1783192Y998308D01*
X1783634Y998970D01*
X1783789Y999750D01*
Y1054250D01*
X1783994Y1054500D01*
X2205500D01*
X2252750Y1007250D01*
D02*
G37*
G36*
X1781750Y999750D02*
X1741500Y959500D01*
X1633000D01*
X1612250Y938750D01*
Y870000D01*
X1592750Y850500D01*
X1539250D01*
X1506250Y883500D01*
Y958750D01*
X1535000Y987500D01*
X1627750D01*
X1642250Y1002000D01*
Y1054250D01*
X1781750D01*
Y999750D01*
D02*
G37*
%LPC*%
G36*
X2190220Y1046640D02*
X2189270D01*
Y1025370D01*
X2210540D01*
Y1026320D01*
X2209674Y1030675D01*
X2207975Y1034777D01*
X2205508Y1038468D01*
X2202368Y1041608D01*
X2198677Y1044075D01*
X2194575Y1045774D01*
X2190220Y1046640D01*
D02*
G37*
G36*
X2186730D02*
X2185780D01*
X2181425Y1045774D01*
X2177323Y1044075D01*
X2173632Y1041608D01*
X2170492Y1038468D01*
X2168025Y1034777D01*
X2166326Y1030675D01*
X2165460Y1026320D01*
Y1025370D01*
X2186730D01*
Y1046640D01*
D02*
G37*
G36*
X1839520Y1028966D02*
Y1022770D01*
X1845716D01*
X1845276Y1024410D01*
X1844283Y1026130D01*
X1842880Y1027533D01*
X1841160Y1028526D01*
X1839520Y1028966D01*
D02*
G37*
G36*
X1836980D02*
X1835340Y1028526D01*
X1833620Y1027533D01*
X1832216Y1026130D01*
X1831224Y1024410D01*
X1830784Y1022770D01*
X1836980D01*
Y1028966D01*
D02*
G37*
G36*
X2005508Y1043510D02*
X2002612D01*
X1999814Y1042760D01*
X1997306Y1041312D01*
X1995258Y1039264D01*
X1993810Y1036756D01*
X1993060Y1033958D01*
Y1031062D01*
X1993810Y1028264D01*
X1995258Y1025756D01*
X1997306Y1023708D01*
X1999814Y1022260D01*
X2002612Y1021510D01*
X2005508D01*
X2008306Y1022260D01*
X2010814Y1023708D01*
X2012862Y1025756D01*
X2014310Y1028264D01*
X2015060Y1031062D01*
Y1033958D01*
X2014310Y1036756D01*
X2012862Y1039264D01*
X2010814Y1041312D01*
X2008306Y1042760D01*
X2005508Y1043510D01*
D02*
G37*
G36*
X1980108D02*
X1977212D01*
X1974414Y1042760D01*
X1971906Y1041312D01*
X1969858Y1039264D01*
X1968410Y1036756D01*
X1967660Y1033958D01*
Y1031062D01*
X1968410Y1028264D01*
X1969858Y1025756D01*
X1971906Y1023708D01*
X1974414Y1022260D01*
X1977212Y1021510D01*
X1980108D01*
X1982906Y1022260D01*
X1985414Y1023708D01*
X1987462Y1025756D01*
X1988910Y1028264D01*
X1989660Y1031062D01*
Y1033958D01*
X1988910Y1036756D01*
X1987462Y1039264D01*
X1985414Y1041312D01*
X1982906Y1042760D01*
X1980108Y1043510D01*
D02*
G37*
G36*
X1585075Y1026970D02*
X1582705D01*
X1580416Y1026357D01*
X1578364Y1025172D01*
X1576688Y1023496D01*
X1575503Y1021444D01*
X1574890Y1019155D01*
Y1016785D01*
X1575071Y1016110D01*
X1574173Y1015212D01*
X1572838Y1015570D01*
X1569942D01*
X1567144Y1014820D01*
X1564636Y1013372D01*
X1562588Y1011324D01*
X1561140Y1008816D01*
X1560390Y1006018D01*
Y1003122D01*
X1561140Y1000324D01*
X1562588Y997816D01*
X1564636Y995768D01*
X1567144Y994320D01*
X1569942Y993570D01*
X1572838D01*
X1575636Y994320D01*
X1578144Y995768D01*
X1580192Y997816D01*
X1581640Y1000324D01*
X1582390Y1003122D01*
Y1006018D01*
X1581893Y1007873D01*
X1582347Y1008487D01*
X1582914Y1008970D01*
X1584866D01*
X1585433Y1008487D01*
X1585887Y1007873D01*
X1585390Y1006018D01*
Y1003122D01*
X1586140Y1000324D01*
X1587588Y997816D01*
X1589636Y995768D01*
X1592144Y994320D01*
X1594942Y993570D01*
X1597838D01*
X1600636Y994320D01*
X1603144Y995768D01*
X1605192Y997816D01*
X1606640Y1000324D01*
X1607390Y1003122D01*
Y1006018D01*
X1606640Y1008816D01*
X1605192Y1011324D01*
X1603144Y1013372D01*
X1600636Y1014820D01*
X1597838Y1015570D01*
X1594942D01*
X1593607Y1015212D01*
X1592709Y1016110D01*
X1592890Y1016785D01*
Y1019155D01*
X1592277Y1021444D01*
X1591092Y1023496D01*
X1589416Y1025172D01*
X1587364Y1026357D01*
X1585075Y1026970D01*
D02*
G37*
G36*
X1845716Y1020230D02*
X1839520D01*
Y1014034D01*
X1841160Y1014474D01*
X1842880Y1015467D01*
X1844283Y1016870D01*
X1845276Y1018590D01*
X1845716Y1020230D01*
D02*
G37*
G36*
X1836980D02*
X1830784D01*
X1831224Y1018590D01*
X1832216Y1016870D01*
X1833620Y1015467D01*
X1835340Y1014474D01*
X1836980Y1014034D01*
Y1020230D01*
D02*
G37*
G36*
X1622909Y1016110D02*
X1622660D01*
Y1005840D01*
X1632930D01*
Y1006089D01*
X1632144Y1009024D01*
X1630624Y1011656D01*
X1628476Y1013804D01*
X1625844Y1015323D01*
X1622909Y1016110D01*
D02*
G37*
G36*
X1620120D02*
X1619871D01*
X1616936Y1015323D01*
X1614304Y1013804D01*
X1612156Y1011656D01*
X1610636Y1009024D01*
X1609850Y1006089D01*
Y1005840D01*
X1620120D01*
Y1016110D01*
D02*
G37*
G36*
X1895270Y1010966D02*
Y1004770D01*
X1901466D01*
X1901026Y1006410D01*
X1900034Y1008130D01*
X1898630Y1009533D01*
X1896910Y1010526D01*
X1895270Y1010966D01*
D02*
G37*
G36*
X1892730D02*
X1891090Y1010526D01*
X1889370Y1009533D01*
X1887966Y1008130D01*
X1886974Y1006410D01*
X1886534Y1004770D01*
X1892730D01*
Y1010966D01*
D02*
G37*
G36*
X2210540Y1022830D02*
X2189270D01*
Y1001560D01*
X2190220D01*
X2194575Y1002426D01*
X2198677Y1004125D01*
X2202368Y1006592D01*
X2205508Y1009732D01*
X2207975Y1013423D01*
X2209674Y1017525D01*
X2210540Y1021880D01*
Y1022830D01*
D02*
G37*
G36*
X2186730D02*
X2165460D01*
Y1021880D01*
X2166326Y1017525D01*
X2168025Y1013423D01*
X2170492Y1009732D01*
X2173632Y1006592D01*
X2177323Y1004125D01*
X2181425Y1002426D01*
X2185780Y1001560D01*
X2186730D01*
Y1022830D01*
D02*
G37*
G36*
X1901466Y1002230D02*
X1895270D01*
Y996034D01*
X1896910Y996474D01*
X1898630Y997467D01*
X1900034Y998870D01*
X1901026Y1000590D01*
X1901466Y1002230D01*
D02*
G37*
G36*
X1892730D02*
X1886534D01*
X1886974Y1000590D01*
X1887966Y998870D01*
X1889370Y997467D01*
X1891090Y996474D01*
X1892730Y996034D01*
Y1002230D01*
D02*
G37*
G36*
X1557390Y1015570D02*
X1535390D01*
Y993570D01*
X1557390D01*
Y1015570D01*
D02*
G37*
G36*
X1632930Y1003300D02*
X1622660D01*
Y993030D01*
X1622909D01*
X1625844Y993817D01*
X1628476Y995336D01*
X1630624Y997484D01*
X1632144Y1000116D01*
X1632930Y1003051D01*
Y1003300D01*
D02*
G37*
G36*
X1620120D02*
X1609850D01*
Y1003051D01*
X1610636Y1000116D01*
X1612156Y997484D01*
X1614304Y995336D01*
X1616936Y993817D01*
X1619871Y993030D01*
X1620120D01*
Y1003300D01*
D02*
G37*
G36*
X2037270Y997216D02*
Y991020D01*
X2043466D01*
X2043026Y992660D01*
X2042034Y994380D01*
X2040630Y995783D01*
X2038910Y996776D01*
X2037270Y997216D01*
D02*
G37*
G36*
X2034730D02*
X2033090Y996776D01*
X2031370Y995783D01*
X2029966Y994380D01*
X2028974Y992660D01*
X2028534Y991020D01*
X2034730D01*
Y997216D01*
D02*
G37*
G36*
X1200680Y1016530D02*
X1171680D01*
Y987530D01*
X1200680D01*
Y1016530D01*
D02*
G37*
G36*
X2078770Y991966D02*
Y985770D01*
X2084966D01*
X2084526Y987410D01*
X2083533Y989130D01*
X2082130Y990534D01*
X2080410Y991526D01*
X2078770Y991966D01*
D02*
G37*
G36*
X2076230D02*
X2074590Y991526D01*
X2072870Y990534D01*
X2071467Y989130D01*
X2070474Y987410D01*
X2070034Y985770D01*
X2076230D01*
Y991966D01*
D02*
G37*
G36*
X2043466Y988480D02*
X2037270D01*
Y982284D01*
X2038910Y982724D01*
X2040630Y983717D01*
X2042034Y985120D01*
X2043026Y986840D01*
X2043466Y988480D01*
D02*
G37*
G36*
X2034730D02*
X2028534D01*
X2028974Y986840D01*
X2029966Y985120D01*
X2031370Y983717D01*
X2033090Y982724D01*
X2034730Y982284D01*
Y988480D01*
D02*
G37*
G36*
X2084966Y983230D02*
X2078770D01*
Y977034D01*
X2080410Y977474D01*
X2082130Y978466D01*
X2083533Y979870D01*
X2084526Y981590D01*
X2084966Y983230D01*
D02*
G37*
G36*
X2076230D02*
X2070034D01*
X2070474Y981590D01*
X2071467Y979870D01*
X2072870Y978466D01*
X2074590Y977474D01*
X2076230Y977034D01*
Y983230D01*
D02*
G37*
G36*
X1919148Y992710D02*
X1916252D01*
X1913454Y991960D01*
X1910946Y990512D01*
X1908898Y988464D01*
X1907450Y985956D01*
X1906700Y983158D01*
Y980262D01*
X1907450Y977464D01*
X1908898Y974956D01*
X1910946Y972908D01*
X1913454Y971460D01*
X1916252Y970710D01*
X1919148D01*
X1921946Y971460D01*
X1924454Y972908D01*
X1926502Y974956D01*
X1927950Y977464D01*
X1928700Y980262D01*
Y983158D01*
X1927950Y985956D01*
X1926502Y988464D01*
X1924454Y990512D01*
X1921946Y991960D01*
X1919148Y992710D01*
D02*
G37*
G36*
X2105380Y979945D02*
X2101650D01*
X2099682Y979686D01*
X2097847Y978926D01*
X2096272Y977718D01*
X2095064Y976143D01*
X2094304Y974309D01*
X2094045Y972340D01*
Y968610D01*
X2105380D01*
Y979945D01*
D02*
G37*
G36*
X2038270Y964716D02*
Y958520D01*
X2044466D01*
X2044026Y960160D01*
X2043033Y961880D01*
X2041630Y963283D01*
X2039910Y964276D01*
X2038270Y964716D01*
D02*
G37*
G36*
X2035730D02*
X2034090Y964276D01*
X2032370Y963283D01*
X2030966Y961880D01*
X2029974Y960160D01*
X2029534Y958520D01*
X2035730D01*
Y964716D01*
D02*
G37*
G36*
X2204767Y977340D02*
X2202133D01*
X2199590Y976659D01*
X2197310Y975342D01*
X2195448Y973480D01*
X2194131Y971200D01*
X2193450Y968657D01*
Y966024D01*
X2194131Y963480D01*
X2195448Y961200D01*
X2197310Y959338D01*
X2199590Y958022D01*
X2202133Y957340D01*
X2204767D01*
X2207310Y958022D01*
X2209590Y959338D01*
X2211452Y961200D01*
X2212769Y963480D01*
X2213450Y966024D01*
Y968657D01*
X2212769Y971200D01*
X2211452Y973480D01*
X2209590Y975342D01*
X2207310Y976659D01*
X2204767Y977340D01*
D02*
G37*
G36*
X2044466Y955980D02*
X2038270D01*
Y949784D01*
X2039910Y950224D01*
X2041630Y951217D01*
X2043033Y952620D01*
X2044026Y954340D01*
X2044466Y955980D01*
D02*
G37*
G36*
X2035730D02*
X2029534D01*
X2029974Y954340D01*
X2030966Y952620D01*
X2032370Y951217D01*
X2034090Y950224D01*
X2035730Y949784D01*
Y955980D01*
D02*
G37*
G36*
X1686520Y953466D02*
Y947270D01*
X1692716D01*
X1692276Y948910D01*
X1691284Y950630D01*
X1689880Y952033D01*
X1688160Y953026D01*
X1686520Y953466D01*
D02*
G37*
G36*
X1683980D02*
X1682340Y953026D01*
X1680620Y952033D01*
X1679216Y950630D01*
X1678224Y948910D01*
X1677784Y947270D01*
X1683980D01*
Y953466D01*
D02*
G37*
G36*
X1919148Y967310D02*
X1916252D01*
X1913454Y966560D01*
X1910946Y965112D01*
X1908898Y963064D01*
X1907450Y960556D01*
X1906700Y957758D01*
Y954862D01*
X1907450Y952064D01*
X1908898Y949556D01*
X1910946Y947508D01*
X1913454Y946060D01*
X1916252Y945310D01*
X1919148D01*
X1921946Y946060D01*
X1924454Y947508D01*
X1926502Y949556D01*
X1927950Y952064D01*
X1928700Y954862D01*
Y957758D01*
X1927950Y960556D01*
X1926502Y963064D01*
X1924454Y965112D01*
X1921946Y966560D01*
X1919148Y967310D01*
D02*
G37*
G36*
X1383132Y950620D02*
Y944425D01*
X1389327D01*
X1388888Y946065D01*
X1387895Y947785D01*
X1386491Y949188D01*
X1384772Y950181D01*
X1383132Y950620D01*
D02*
G37*
G36*
X1380592D02*
X1378951Y950181D01*
X1377232Y949188D01*
X1375828Y947785D01*
X1374836Y946065D01*
X1374396Y944425D01*
X1380592D01*
Y950620D01*
D02*
G37*
G36*
X1631770Y949716D02*
Y943520D01*
X1637966D01*
X1637526Y945160D01*
X1636534Y946880D01*
X1635130Y948283D01*
X1633410Y949276D01*
X1631770Y949716D01*
D02*
G37*
G36*
X1692716Y944730D02*
X1686520D01*
Y938534D01*
X1688160Y938974D01*
X1689880Y939967D01*
X1691284Y941370D01*
X1692276Y943090D01*
X1692716Y944730D01*
D02*
G37*
G36*
X1683980D02*
X1677784D01*
X1678224Y943090D01*
X1679216Y941370D01*
X1680620Y939967D01*
X1682340Y938974D01*
X1683980Y938534D01*
Y944730D01*
D02*
G37*
G36*
X1389327Y941885D02*
X1383132D01*
Y935689D01*
X1384772Y936129D01*
X1386491Y937121D01*
X1387895Y938525D01*
X1388888Y940245D01*
X1389327Y941885D01*
D02*
G37*
G36*
X1380592D02*
X1374396D01*
X1374836Y940245D01*
X1375828Y938525D01*
X1377232Y937121D01*
X1378951Y936129D01*
X1380592Y935689D01*
Y941885D01*
D02*
G37*
G36*
X1637966Y940980D02*
X1631770D01*
Y934784D01*
X1633410Y935224D01*
X1635130Y936217D01*
X1636534Y937620D01*
X1637526Y939340D01*
X1637966Y940980D01*
D02*
G37*
G36*
X1629230D02*
X1623034D01*
X1623474Y939340D01*
X1624467Y937620D01*
X1625870Y936217D01*
X1627590Y935224D01*
X1629230Y934784D01*
Y940980D01*
D02*
G37*
G36*
X2204767Y952340D02*
X2202133D01*
X2199590Y951658D01*
X2197310Y950342D01*
X2195448Y948480D01*
X2194131Y946200D01*
X2193450Y943656D01*
Y941023D01*
X2194131Y938480D01*
X2195448Y936200D01*
X2197310Y934338D01*
X2199590Y933021D01*
X2202133Y932340D01*
X2204767D01*
X2207310Y933021D01*
X2209590Y934338D01*
X2211452Y936200D01*
X2212769Y938480D01*
X2213450Y941023D01*
Y943656D01*
X2212769Y946200D01*
X2211452Y948480D01*
X2209590Y950342D01*
X2207310Y951658D01*
X2204767Y952340D01*
D02*
G37*
G36*
X2111650Y979945D02*
X2107920D01*
Y967340D01*
X2106650D01*
Y966070D01*
X2094045D01*
Y962340D01*
X2094304Y960372D01*
X2095064Y958538D01*
X2096272Y956963D01*
X2097847Y955754D01*
X2099682Y954994D01*
X2101353Y954774D01*
X2101931Y953646D01*
X2101949Y953580D01*
X2101919Y953465D01*
X2099282Y951942D01*
X2097048Y949708D01*
X2095468Y946972D01*
X2094650Y943920D01*
Y940760D01*
X2095468Y937708D01*
X2097048Y934972D01*
X2099282Y932738D01*
X2102018Y931158D01*
X2105070Y930340D01*
X2108230D01*
X2111282Y931158D01*
X2114018Y932738D01*
X2116252Y934972D01*
X2117832Y937708D01*
X2118492Y940172D01*
X2119807D01*
X2120468Y937708D01*
X2122047Y934972D01*
X2124282Y932738D01*
X2127018Y931158D01*
X2130070Y930340D01*
X2133230D01*
X2136282Y931158D01*
X2139018Y932738D01*
X2141252Y934972D01*
X2142832Y937708D01*
X2143650Y940760D01*
Y943920D01*
X2142832Y946972D01*
X2141252Y949708D01*
X2139018Y951942D01*
X2136282Y953522D01*
X2133817Y954183D01*
Y955498D01*
X2136282Y956158D01*
X2139018Y957738D01*
X2141252Y959972D01*
X2142832Y962708D01*
X2143650Y965760D01*
Y968920D01*
X2142832Y971972D01*
X2141252Y974708D01*
X2139018Y976943D01*
X2136282Y978522D01*
X2133230Y979340D01*
X2130070D01*
X2127018Y978522D01*
X2124282Y976943D01*
X2122047Y974708D01*
X2120525Y972072D01*
X2120411Y972043D01*
X2120346Y972060D01*
X2119215Y972643D01*
X2118996Y974309D01*
X2118236Y976143D01*
X2117028Y977718D01*
X2115453Y978926D01*
X2113618Y979686D01*
X2111650Y979945D01*
D02*
G37*
G36*
X1845750Y946956D02*
X1836750D01*
X1835053Y946733D01*
X1833472Y946078D01*
X1832114Y945036D01*
X1831072Y943678D01*
X1830417Y942097D01*
X1830194Y940400D01*
Y931400D01*
X1830417Y929703D01*
X1831072Y928122D01*
X1832114Y926764D01*
X1833472Y925722D01*
X1835053Y925067D01*
X1836750Y924844D01*
X1845750D01*
X1847447Y925067D01*
X1849028Y925722D01*
X1850386Y926764D01*
X1851428Y928122D01*
X1852083Y929703D01*
X1852306Y931400D01*
Y940400D01*
X1852083Y942097D01*
X1851428Y943678D01*
X1850386Y945036D01*
X1849028Y946078D01*
X1847447Y946733D01*
X1845750Y946956D01*
D02*
G37*
G36*
X1874500Y946856D02*
X1865500D01*
X1863803Y946633D01*
X1862222Y945978D01*
X1860864Y944936D01*
X1859822Y943578D01*
X1859167Y941997D01*
X1858944Y940300D01*
Y931300D01*
X1859167Y929603D01*
X1859822Y928022D01*
X1860864Y926664D01*
X1862222Y925622D01*
X1863803Y924967D01*
X1865500Y924744D01*
X1874500D01*
X1876197Y924967D01*
X1877778Y925622D01*
X1879136Y926664D01*
X1880178Y928022D01*
X1880833Y929603D01*
X1881056Y931300D01*
Y940300D01*
X1880833Y941997D01*
X1880178Y943578D01*
X1879136Y944936D01*
X1877778Y945978D01*
X1876197Y946633D01*
X1874500Y946856D01*
D02*
G37*
G36*
X2005508Y934290D02*
X2002612D01*
X1999814Y933540D01*
X1997306Y932092D01*
X1995258Y930044D01*
X1993810Y927536D01*
X1993060Y924738D01*
Y921842D01*
X1993810Y919044D01*
X1995258Y916536D01*
X1997306Y914488D01*
X1999814Y913040D01*
X2002612Y912290D01*
X2005508D01*
X2008306Y913040D01*
X2010814Y914488D01*
X2012862Y916536D01*
X2014310Y919044D01*
X2015060Y921842D01*
Y924738D01*
X2014310Y927536D01*
X2012862Y930044D01*
X2010814Y932092D01*
X2008306Y933540D01*
X2005508Y934290D01*
D02*
G37*
G36*
X1980108D02*
X1977212D01*
X1974414Y933540D01*
X1971906Y932092D01*
X1969858Y930044D01*
X1968410Y927536D01*
X1967660Y924738D01*
Y921842D01*
X1968410Y919044D01*
X1969858Y916536D01*
X1971906Y914488D01*
X1974414Y913040D01*
X1977212Y912290D01*
X1980108D01*
X1982906Y913040D01*
X1985414Y914488D01*
X1987462Y916536D01*
X1988910Y919044D01*
X1989660Y921842D01*
Y924738D01*
X1988910Y927536D01*
X1987462Y930044D01*
X1985414Y932092D01*
X1982906Y933540D01*
X1980108Y934290D01*
D02*
G37*
G36*
X1842769Y922040D02*
X1842520D01*
Y911770D01*
X1852790D01*
Y912019D01*
X1852003Y914954D01*
X1850484Y917586D01*
X1848336Y919734D01*
X1845704Y921254D01*
X1842769Y922040D01*
D02*
G37*
G36*
X1839980D02*
X1839731D01*
X1836796Y921254D01*
X1834164Y919734D01*
X1832016Y917586D01*
X1830496Y914954D01*
X1829710Y912019D01*
Y911770D01*
X1839980D01*
Y922040D01*
D02*
G37*
G36*
X1683194Y913000D02*
X1680806D01*
X1678601Y912086D01*
X1676913Y910399D01*
X1676000Y908194D01*
Y905807D01*
X1676913Y903601D01*
X1678601Y901913D01*
X1680806Y901000D01*
X1683194D01*
X1685399Y901913D01*
X1687086Y903601D01*
X1688000Y905807D01*
Y908194D01*
X1687086Y910399D01*
X1685399Y912086D01*
X1683194Y913000D01*
D02*
G37*
G36*
X1871448Y921400D02*
X1868552D01*
X1865754Y920650D01*
X1863246Y919202D01*
X1861198Y917154D01*
X1859750Y914646D01*
X1859000Y911848D01*
Y908952D01*
X1859750Y906154D01*
X1861198Y903646D01*
X1863246Y901598D01*
X1865754Y900150D01*
X1868552Y899400D01*
X1871448D01*
X1874246Y900150D01*
X1876754Y901598D01*
X1878802Y903646D01*
X1880250Y906154D01*
X1881000Y908952D01*
Y911848D01*
X1880250Y914646D01*
X1878802Y917154D01*
X1876754Y919202D01*
X1874246Y920650D01*
X1871448Y921400D01*
D02*
G37*
G36*
X1852790Y909230D02*
X1842520D01*
Y898960D01*
X1842769D01*
X1845704Y899746D01*
X1848336Y901266D01*
X1850484Y903414D01*
X1852003Y906046D01*
X1852790Y908981D01*
Y909230D01*
D02*
G37*
G36*
X1839980D02*
X1829710D01*
Y908981D01*
X1830496Y906046D01*
X1832016Y903414D01*
X1834164Y901266D01*
X1836796Y899746D01*
X1839731Y898960D01*
X1839980D01*
Y909230D01*
D02*
G37*
G36*
X1871519Y896540D02*
X1871270D01*
Y886270D01*
X1881540D01*
Y886519D01*
X1880753Y889454D01*
X1879234Y892086D01*
X1877086Y894234D01*
X1874454Y895754D01*
X1871519Y896540D01*
D02*
G37*
G36*
X1868730D02*
X1868481D01*
X1865546Y895754D01*
X1862914Y894234D01*
X1860766Y892086D01*
X1859246Y889454D01*
X1858460Y886519D01*
Y886270D01*
X1868730D01*
Y896540D01*
D02*
G37*
G36*
X2037520Y890216D02*
Y884020D01*
X2043716D01*
X2043276Y885660D01*
X2042283Y887380D01*
X2040880Y888783D01*
X2039160Y889776D01*
X2037520Y890216D01*
D02*
G37*
G36*
X2034980D02*
X2033340Y889776D01*
X2031620Y888783D01*
X2030217Y887380D01*
X2029224Y885660D01*
X2028784Y884020D01*
X2034980D01*
Y890216D01*
D02*
G37*
G36*
X2078520Y882716D02*
Y876520D01*
X2084716D01*
X2084276Y878160D01*
X2083284Y879880D01*
X2081880Y881283D01*
X2080160Y882276D01*
X2078520Y882716D01*
D02*
G37*
G36*
X2075980D02*
X2074340Y882276D01*
X2072620Y881283D01*
X2071216Y879880D01*
X2070224Y878160D01*
X2069784Y876520D01*
X2075980D01*
Y882716D01*
D02*
G37*
G36*
X2043716Y881480D02*
X2037520D01*
Y875284D01*
X2039160Y875724D01*
X2040880Y876717D01*
X2042283Y878120D01*
X2043276Y879840D01*
X2043716Y881480D01*
D02*
G37*
G36*
X2034980D02*
X2028784D01*
X2029224Y879840D01*
X2030217Y878120D01*
X2031620Y876717D01*
X2033340Y875724D01*
X2034980Y875284D01*
Y881480D01*
D02*
G37*
G36*
X1842698Y896100D02*
X1839802D01*
X1837004Y895350D01*
X1834496Y893902D01*
X1832448Y891854D01*
X1831000Y889346D01*
X1830250Y886548D01*
Y883652D01*
X1831000Y880854D01*
X1832448Y878346D01*
X1834496Y876298D01*
X1837004Y874850D01*
X1839802Y874100D01*
X1842698D01*
X1845496Y874850D01*
X1848004Y876298D01*
X1850052Y878346D01*
X1851500Y880854D01*
X1852250Y883652D01*
Y886548D01*
X1851500Y889346D01*
X1850052Y891854D01*
X1848004Y893902D01*
X1845496Y895350D01*
X1842698Y896100D01*
D02*
G37*
G36*
X1881540Y883730D02*
X1871270D01*
Y873460D01*
X1871519D01*
X1874454Y874247D01*
X1877086Y875766D01*
X1879234Y877914D01*
X1880753Y880546D01*
X1881540Y883481D01*
Y883730D01*
D02*
G37*
G36*
X1868730D02*
X1858460D01*
Y883481D01*
X1859246Y880546D01*
X1860766Y877914D01*
X1862914Y875766D01*
X1865546Y874247D01*
X1868481Y873460D01*
X1868730D01*
Y883730D01*
D02*
G37*
G36*
X2084716Y873980D02*
X2078520D01*
Y867784D01*
X2080160Y868224D01*
X2081880Y869217D01*
X2083284Y870620D01*
X2084276Y872340D01*
X2084716Y873980D01*
D02*
G37*
G36*
X2075980D02*
X2069784D01*
X2070224Y872340D01*
X2071216Y870620D01*
X2072620Y869217D01*
X2074340Y868224D01*
X2075980Y867784D01*
Y873980D01*
D02*
G37*
G36*
X2147680Y889570D02*
X2144520D01*
X2141468Y888752D01*
X2138732Y887172D01*
X2136497Y884938D01*
X2134918Y882202D01*
X2134100Y879150D01*
Y875990D01*
X2134918Y872938D01*
X2136497Y870202D01*
X2138732Y867968D01*
X2141468Y866388D01*
X2144520Y865570D01*
X2147680D01*
X2150732Y866388D01*
X2153468Y867968D01*
X2155702Y870202D01*
X2157282Y872938D01*
X2158100Y875990D01*
Y879150D01*
X2157282Y882202D01*
X2155702Y884938D01*
X2153468Y887172D01*
X2150732Y888752D01*
X2147680Y889570D01*
D02*
G37*
G36*
X2117180D02*
X2114020D01*
X2110968Y888752D01*
X2108232Y887172D01*
X2105998Y884938D01*
X2104418Y882202D01*
X2103600Y879150D01*
Y875990D01*
X2104418Y872938D01*
X2105998Y870202D01*
X2108232Y867968D01*
X2110968Y866388D01*
X2114020Y865570D01*
X2117180D01*
X2120232Y866388D01*
X2122968Y867968D01*
X2125202Y870202D01*
X2126782Y872938D01*
X2127600Y875990D01*
Y879150D01*
X2126782Y882202D01*
X2125202Y884938D01*
X2122968Y887172D01*
X2120232Y888752D01*
X2117180Y889570D01*
D02*
G37*
G36*
X1917878Y883490D02*
X1914982D01*
X1912184Y882740D01*
X1909676Y881292D01*
X1907628Y879244D01*
X1906180Y876736D01*
X1905430Y873938D01*
Y871042D01*
X1906180Y868244D01*
X1907628Y865736D01*
X1909676Y863688D01*
X1912184Y862240D01*
X1914982Y861490D01*
X1917878D01*
X1920676Y862240D01*
X1923184Y863688D01*
X1925232Y865736D01*
X1926680Y868244D01*
X1927430Y871042D01*
Y873938D01*
X1926680Y876736D01*
X1925232Y879244D01*
X1923184Y881292D01*
X1920676Y882740D01*
X1917878Y883490D01*
D02*
G37*
G36*
X2191424Y895070D02*
X2187976D01*
X2184595Y894398D01*
X2181411Y893078D01*
X2178544Y891163D01*
X2176107Y888726D01*
X2174192Y885859D01*
X2172872Y882675D01*
X2172200Y879294D01*
Y875846D01*
X2172872Y872465D01*
X2174192Y869281D01*
X2176107Y866414D01*
X2178544Y863977D01*
X2181411Y862062D01*
X2184595Y860742D01*
X2187976Y860070D01*
X2191424D01*
X2194805Y860742D01*
X2197989Y862062D01*
X2200856Y863977D01*
X2203293Y866414D01*
X2205208Y869281D01*
X2206527Y872465D01*
X2207200Y875846D01*
Y879294D01*
X2206527Y882675D01*
X2205208Y885859D01*
X2203293Y888726D01*
X2200856Y891163D01*
X2197989Y893078D01*
X2194805Y894398D01*
X2191424Y895070D01*
D02*
G37*
G36*
X2039020Y855216D02*
Y849020D01*
X2045216D01*
X2044776Y850660D01*
X2043784Y852380D01*
X2042380Y853783D01*
X2040660Y854776D01*
X2039020Y855216D01*
D02*
G37*
G36*
X2036480D02*
X2034840Y854776D01*
X2033120Y853783D01*
X2031716Y852380D01*
X2030724Y850660D01*
X2030284Y849020D01*
X2036480D01*
Y855216D01*
D02*
G37*
G36*
X1842698Y870700D02*
X1839802D01*
X1837004Y869950D01*
X1834496Y868502D01*
X1832448Y866454D01*
X1831000Y863946D01*
X1830250Y861148D01*
Y858252D01*
X1831000Y855454D01*
X1832448Y852946D01*
X1834496Y850898D01*
X1837004Y849450D01*
X1839802Y848700D01*
X1842698D01*
X1845496Y849450D01*
X1848004Y850898D01*
X1850052Y852946D01*
X1851500Y855454D01*
X1852250Y858252D01*
Y861148D01*
X1851500Y863946D01*
X1850052Y866454D01*
X1848004Y868502D01*
X1845496Y869950D01*
X1842698Y870700D01*
D02*
G37*
G36*
X1871448Y870600D02*
X1868552D01*
X1865754Y869850D01*
X1863246Y868402D01*
X1861198Y866354D01*
X1859750Y863846D01*
X1859000Y861048D01*
Y858152D01*
X1859750Y855354D01*
X1861198Y852846D01*
X1863246Y850798D01*
X1865754Y849350D01*
X1868552Y848600D01*
X1871448D01*
X1874246Y849350D01*
X1876754Y850798D01*
X1878802Y852846D01*
X1880250Y855354D01*
X1881000Y858152D01*
Y861048D01*
X1880250Y863846D01*
X1878802Y866354D01*
X1876754Y868402D01*
X1874246Y869850D01*
X1871448Y870600D01*
D02*
G37*
G36*
X2045216Y846480D02*
X2039020D01*
Y840284D01*
X2040660Y840724D01*
X2042380Y841717D01*
X2043784Y843120D01*
X2044776Y844840D01*
X2045216Y846480D01*
D02*
G37*
G36*
X2036480D02*
X2030284D01*
X2030724Y844840D01*
X2031716Y843120D01*
X2033120Y841717D01*
X2034840Y840724D01*
X2036480Y840284D01*
Y846480D01*
D02*
G37*
G36*
X1650893Y842265D02*
Y837104D01*
X1656053D01*
X1655717Y838359D01*
X1654856Y839850D01*
X1653638Y841068D01*
X1652147Y841928D01*
X1650893Y842265D01*
D02*
G37*
G36*
X1648353D02*
X1647099Y841928D01*
X1645607Y841068D01*
X1644389Y839850D01*
X1643528Y838359D01*
X1643192Y837104D01*
X1648353D01*
Y842265D01*
D02*
G37*
G36*
X1917878Y858090D02*
X1914982D01*
X1912184Y857340D01*
X1909676Y855892D01*
X1907628Y853844D01*
X1906180Y851336D01*
X1905430Y848538D01*
Y845642D01*
X1906180Y842844D01*
X1907628Y840336D01*
X1909676Y838288D01*
X1912184Y836840D01*
X1914982Y836090D01*
X1917878D01*
X1920676Y836840D01*
X1923184Y838288D01*
X1925232Y840336D01*
X1926680Y842844D01*
X1927430Y845642D01*
Y848538D01*
X1926680Y851336D01*
X1925232Y853844D01*
X1923184Y855892D01*
X1920676Y857340D01*
X1917878Y858090D01*
D02*
G37*
G36*
X1656053Y834564D02*
X1650893D01*
Y829404D01*
X1652147Y829740D01*
X1653638Y830601D01*
X1654856Y831819D01*
X1655717Y833310D01*
X1656053Y834564D01*
D02*
G37*
G36*
X1648353D02*
X1643192D01*
X1643528Y833310D01*
X1644389Y831819D01*
X1645607Y830601D01*
X1647099Y829740D01*
X1648353Y829404D01*
Y834564D01*
D02*
G37*
G36*
X1871448Y845200D02*
X1868552D01*
X1865754Y844450D01*
X1863246Y843002D01*
X1861198Y840954D01*
X1859750Y838446D01*
X1859000Y835648D01*
Y832752D01*
X1859750Y829954D01*
X1861198Y827446D01*
X1863246Y825398D01*
X1865754Y823950D01*
X1868552Y823200D01*
X1871448D01*
X1874246Y823950D01*
X1876754Y825398D01*
X1878802Y827446D01*
X1880250Y829954D01*
X1881000Y832752D01*
Y835648D01*
X1880250Y838446D01*
X1878802Y840954D01*
X1876754Y843002D01*
X1874246Y844450D01*
X1871448Y845200D01*
D02*
G37*
G36*
X1616425Y804180D02*
Y799020D01*
X1621585D01*
X1621249Y800274D01*
X1620388Y801766D01*
X1619170Y802983D01*
X1617679Y803844D01*
X1616425Y804180D01*
D02*
G37*
G36*
X1613885D02*
X1612630Y803844D01*
X1611139Y802983D01*
X1609921Y801766D01*
X1609060Y800274D01*
X1608724Y799020D01*
X1613885D01*
Y804180D01*
D02*
G37*
G36*
X1987770Y803466D02*
Y797270D01*
X1993966D01*
X1993526Y798910D01*
X1992534Y800630D01*
X1991130Y802033D01*
X1989410Y803026D01*
X1987770Y803466D01*
D02*
G37*
G36*
X1985230D02*
X1983590Y803026D01*
X1981870Y802033D01*
X1980466Y800630D01*
X1979474Y798910D01*
X1979034Y797270D01*
X1985230D01*
Y803466D01*
D02*
G37*
G36*
X2199770Y802966D02*
Y796770D01*
X2205966D01*
X2205526Y798410D01*
X2204534Y800130D01*
X2203130Y801534D01*
X2201410Y802526D01*
X2199770Y802966D01*
D02*
G37*
G36*
X2197230D02*
X2195590Y802526D01*
X2193870Y801534D01*
X2192466Y800130D01*
X2191474Y798410D01*
X2191034Y796770D01*
X2197230D01*
Y802966D01*
D02*
G37*
G36*
X1651520Y800430D02*
Y795270D01*
X1656680D01*
X1656344Y796524D01*
X1655483Y798016D01*
X1654266Y799233D01*
X1652774Y800094D01*
X1651520Y800430D01*
D02*
G37*
G36*
X1648980D02*
X1647726Y800094D01*
X1646234Y799233D01*
X1645017Y798016D01*
X1644156Y796524D01*
X1643820Y795270D01*
X1648980D01*
Y800430D01*
D02*
G37*
G36*
X2158020Y800466D02*
Y794270D01*
X2164216D01*
X2163776Y795910D01*
X2162784Y797630D01*
X2161380Y799034D01*
X2159660Y800026D01*
X2158020Y800466D01*
D02*
G37*
G36*
X2155480D02*
X2153840Y800026D01*
X2152120Y799034D01*
X2150717Y797630D01*
X2149724Y795910D01*
X2149284Y794270D01*
X2155480D01*
Y800466D01*
D02*
G37*
G36*
X1621585Y796480D02*
X1616425D01*
Y791320D01*
X1617679Y791656D01*
X1619170Y792517D01*
X1620388Y793734D01*
X1621249Y795226D01*
X1621585Y796480D01*
D02*
G37*
G36*
X1613885D02*
X1608724D01*
X1609060Y795226D01*
X1609921Y793734D01*
X1611139Y792517D01*
X1612630Y791656D01*
X1613885Y791320D01*
Y796480D01*
D02*
G37*
G36*
X1993966Y794730D02*
X1987770D01*
Y788534D01*
X1989410Y788974D01*
X1991130Y789967D01*
X1992534Y791370D01*
X1993526Y793090D01*
X1993966Y794730D01*
D02*
G37*
G36*
X1985230D02*
X1979034D01*
X1979474Y793090D01*
X1980466Y791370D01*
X1981870Y789967D01*
X1983590Y788974D01*
X1985230Y788534D01*
Y794730D01*
D02*
G37*
G36*
X2205966Y794230D02*
X2199770D01*
Y788034D01*
X2201410Y788474D01*
X2203130Y789466D01*
X2204534Y790870D01*
X2205526Y792590D01*
X2205966Y794230D01*
D02*
G37*
G36*
X2197230D02*
X2191034D01*
X2191474Y792590D01*
X2192466Y790870D01*
X2193870Y789466D01*
X2195590Y788474D01*
X2197230Y788034D01*
Y794230D01*
D02*
G37*
G36*
X1656680Y792730D02*
X1651520D01*
Y787570D01*
X1652774Y787906D01*
X1654266Y788767D01*
X1655483Y789984D01*
X1656344Y791476D01*
X1656680Y792730D01*
D02*
G37*
G36*
X1648980D02*
X1643820D01*
X1644156Y791476D01*
X1645017Y789984D01*
X1646234Y788767D01*
X1647726Y787906D01*
X1648980Y787570D01*
Y792730D01*
D02*
G37*
G36*
X2164216Y791730D02*
X2158020D01*
Y785534D01*
X2159660Y785974D01*
X2161380Y786966D01*
X2162784Y788370D01*
X2163776Y790090D01*
X2164216Y791730D01*
D02*
G37*
G36*
X2155480D02*
X2149284D01*
X2149724Y790090D01*
X2150717Y788370D01*
X2152120Y786966D01*
X2153840Y785974D01*
X2155480Y785534D01*
Y791730D01*
D02*
G37*
G36*
X1764270Y790966D02*
Y784770D01*
X1770466D01*
X1770026Y786410D01*
X1769034Y788130D01*
X1767630Y789533D01*
X1765910Y790526D01*
X1764270Y790966D01*
D02*
G37*
G36*
X1761730D02*
X1760090Y790526D01*
X1758370Y789533D01*
X1756967Y788130D01*
X1755974Y786410D01*
X1755534Y784770D01*
X1761730D01*
Y790966D01*
D02*
G37*
G36*
X1494770Y784930D02*
Y779770D01*
X1499930D01*
X1499594Y781024D01*
X1498733Y782516D01*
X1497516Y783733D01*
X1496024Y784594D01*
X1494770Y784930D01*
D02*
G37*
G36*
X1492230D02*
X1490976Y784594D01*
X1489484Y783733D01*
X1488267Y782516D01*
X1487406Y781024D01*
X1487070Y779770D01*
X1492230D01*
Y784930D01*
D02*
G37*
G36*
X1770466Y782230D02*
X1764270D01*
Y776034D01*
X1765910Y776474D01*
X1767630Y777467D01*
X1769034Y778870D01*
X1770026Y780590D01*
X1770466Y782230D01*
D02*
G37*
G36*
X1761730D02*
X1755534D01*
X1755974Y780590D01*
X1756967Y778870D01*
X1758370Y777467D01*
X1760090Y776474D01*
X1761730Y776034D01*
Y782230D01*
D02*
G37*
G36*
X1499930Y777230D02*
X1494770D01*
Y772070D01*
X1496024Y772406D01*
X1497516Y773267D01*
X1498733Y774484D01*
X1499594Y775976D01*
X1499930Y777230D01*
D02*
G37*
G36*
X1492230D02*
X1487070D01*
X1487406Y775976D01*
X1488267Y774484D01*
X1489484Y773267D01*
X1490976Y772406D01*
X1492230Y772070D01*
Y777230D01*
D02*
G37*
G36*
X1470455Y755299D02*
Y750139D01*
X1475615D01*
X1475279Y751393D01*
X1474418Y752885D01*
X1473201Y754102D01*
X1471709Y754963D01*
X1470455Y755299D01*
D02*
G37*
G36*
X1467915D02*
X1466661Y754963D01*
X1465169Y754102D01*
X1463952Y752885D01*
X1463091Y751393D01*
X1462755Y750139D01*
X1467915D01*
Y755299D01*
D02*
G37*
G36*
X2174520Y749824D02*
Y743628D01*
X2180716D01*
X2180276Y745268D01*
X2179283Y746988D01*
X2177880Y748392D01*
X2176160Y749384D01*
X2174520Y749824D01*
D02*
G37*
G36*
X2171980D02*
X2170340Y749384D01*
X2168620Y748392D01*
X2167216Y746988D01*
X2166224Y745268D01*
X2165784Y743628D01*
X2171980D01*
Y749824D01*
D02*
G37*
G36*
X1475615Y747599D02*
X1470455D01*
Y742439D01*
X1471709Y742775D01*
X1473201Y743636D01*
X1474418Y744853D01*
X1475279Y746345D01*
X1475615Y747599D01*
D02*
G37*
G36*
X1467915D02*
X1462755D01*
X1463091Y746345D01*
X1463952Y744853D01*
X1465169Y743636D01*
X1466661Y742775D01*
X1467915Y742439D01*
Y747599D01*
D02*
G37*
G36*
X1287270Y748216D02*
Y742020D01*
X1293466D01*
X1293026Y743660D01*
X1292034Y745380D01*
X1290630Y746784D01*
X1288910Y747776D01*
X1287270Y748216D01*
D02*
G37*
G36*
X1284730D02*
X1283090Y747776D01*
X1281370Y746784D01*
X1279967Y745380D01*
X1278974Y743660D01*
X1278534Y742020D01*
X1284730D01*
Y748216D01*
D02*
G37*
G36*
X1616194Y753500D02*
X1613806D01*
X1611601Y752587D01*
X1609913Y750899D01*
X1609000Y748693D01*
Y746307D01*
X1609913Y744101D01*
X1611601Y742413D01*
X1613806Y741500D01*
X1616194D01*
X1618399Y742413D01*
X1620087Y744101D01*
X1621000Y746307D01*
Y748693D01*
X1620087Y750899D01*
X1618399Y752587D01*
X1616194Y753500D01*
D02*
G37*
G36*
X1978770Y744216D02*
Y738020D01*
X1984966D01*
X1984526Y739660D01*
X1983533Y741380D01*
X1982130Y742784D01*
X1980410Y743776D01*
X1978770Y744216D01*
D02*
G37*
G36*
X1976230D02*
X1974590Y743776D01*
X1972870Y742784D01*
X1971467Y741380D01*
X1970474Y739660D01*
X1970034Y738020D01*
X1976230D01*
Y744216D01*
D02*
G37*
G36*
X2180716Y741088D02*
X2174520D01*
Y734893D01*
X2176160Y735332D01*
X2177880Y736325D01*
X2179283Y737729D01*
X2180276Y739448D01*
X2180716Y741088D01*
D02*
G37*
G36*
X2171980D02*
X2165784D01*
X2166224Y739448D01*
X2167216Y737729D01*
X2168620Y736325D01*
X2170340Y735332D01*
X2171980Y734893D01*
Y741088D01*
D02*
G37*
G36*
X1293466Y739480D02*
X1287270D01*
Y733284D01*
X1288910Y733724D01*
X1290630Y734716D01*
X1292034Y736120D01*
X1293026Y737840D01*
X1293466Y739480D01*
D02*
G37*
G36*
X1284730D02*
X1278534D01*
X1278974Y737840D01*
X1279967Y736120D01*
X1281370Y734716D01*
X1283090Y733724D01*
X1284730Y733284D01*
Y739480D01*
D02*
G37*
G36*
X1984966Y735480D02*
X1978770D01*
Y729284D01*
X1980410Y729724D01*
X1982130Y730716D01*
X1983533Y732120D01*
X1984526Y733840D01*
X1984966Y735480D01*
D02*
G37*
G36*
X1976230D02*
X1970034D01*
X1970474Y733840D01*
X1971467Y732120D01*
X1972870Y730716D01*
X1974590Y729724D01*
X1976230Y729284D01*
Y735480D01*
D02*
G37*
G36*
X1619770Y731466D02*
Y725270D01*
X1625966D01*
X1625526Y726910D01*
X1624534Y728630D01*
X1623130Y730033D01*
X1621410Y731026D01*
X1619770Y731466D01*
D02*
G37*
G36*
X1617230D02*
X1615590Y731026D01*
X1613870Y730033D01*
X1612466Y728630D01*
X1611474Y726910D01*
X1611034Y725270D01*
X1617230D01*
Y731466D01*
D02*
G37*
G36*
X1815020Y724716D02*
Y718520D01*
X1821216D01*
X1820776Y720160D01*
X1819783Y721880D01*
X1818380Y723283D01*
X1816660Y724276D01*
X1815020Y724716D01*
D02*
G37*
G36*
X1812480D02*
X1810840Y724276D01*
X1809120Y723283D01*
X1807717Y721880D01*
X1806724Y720160D01*
X1806284Y718520D01*
X1812480D01*
Y724716D01*
D02*
G37*
G36*
X1943020Y723466D02*
Y717270D01*
X1949216D01*
X1948776Y718910D01*
X1947784Y720630D01*
X1946380Y722033D01*
X1944660Y723026D01*
X1943020Y723466D01*
D02*
G37*
G36*
X1940480D02*
X1938840Y723026D01*
X1937120Y722033D01*
X1935717Y720630D01*
X1934724Y718910D01*
X1934284Y717270D01*
X1940480D01*
Y723466D01*
D02*
G37*
G36*
X1625966Y722730D02*
X1619770D01*
Y716534D01*
X1621410Y716974D01*
X1623130Y717967D01*
X1624534Y719370D01*
X1625526Y721090D01*
X1625966Y722730D01*
D02*
G37*
G36*
X1617230D02*
X1611034D01*
X1611474Y721090D01*
X1612466Y719370D01*
X1613870Y717967D01*
X1615590Y716974D01*
X1617230Y716534D01*
Y722730D01*
D02*
G37*
G36*
X1418108Y734940D02*
X1415212D01*
X1412414Y734190D01*
X1409906Y732742D01*
X1407858Y730694D01*
X1406410Y728186D01*
X1405660Y725388D01*
Y722492D01*
X1406410Y719694D01*
X1407858Y717186D01*
X1409906Y715138D01*
X1412414Y713690D01*
X1415212Y712940D01*
X1418108D01*
X1420906Y713690D01*
X1423414Y715138D01*
X1425462Y717186D01*
X1426910Y719694D01*
X1427660Y722492D01*
Y725388D01*
X1426910Y728186D01*
X1425462Y730694D01*
X1423414Y732742D01*
X1420906Y734190D01*
X1418108Y734940D01*
D02*
G37*
G36*
X1821216Y715980D02*
X1815020D01*
Y709784D01*
X1816660Y710224D01*
X1818380Y711217D01*
X1819783Y712620D01*
X1820776Y714340D01*
X1821216Y715980D01*
D02*
G37*
G36*
X1812480D02*
X1806284D01*
X1806724Y714340D01*
X1807717Y712620D01*
X1809120Y711217D01*
X1810840Y710224D01*
X1812480Y709784D01*
Y715980D01*
D02*
G37*
G36*
X1727193Y721750D02*
X1724807D01*
X1722601Y720837D01*
X1720913Y719149D01*
X1720000Y716944D01*
Y714557D01*
X1720913Y712351D01*
X1722601Y710664D01*
X1724807Y709750D01*
X1727193D01*
X1729399Y710664D01*
X1731087Y712351D01*
X1732000Y714557D01*
Y716944D01*
X1731087Y719149D01*
X1729399Y720837D01*
X1727193Y721750D01*
D02*
G37*
G36*
X1663443D02*
X1661057D01*
X1658851Y720837D01*
X1657163Y719149D01*
X1656250Y716944D01*
Y714557D01*
X1657163Y712351D01*
X1658851Y710664D01*
X1661057Y709750D01*
X1663443D01*
X1665649Y710664D01*
X1667336Y712351D01*
X1668250Y714557D01*
Y716944D01*
X1667336Y719149D01*
X1665649Y720837D01*
X1663443Y721750D01*
D02*
G37*
G36*
X1949216Y714730D02*
X1943020D01*
Y708534D01*
X1944660Y708974D01*
X1946380Y709967D01*
X1947784Y711370D01*
X1948776Y713090D01*
X1949216Y714730D01*
D02*
G37*
G36*
X1940480D02*
X1934284D01*
X1934724Y713090D01*
X1935717Y711370D01*
X1937120Y709967D01*
X1938840Y708974D01*
X1940480Y708534D01*
Y714730D01*
D02*
G37*
G36*
X1331042Y696206D02*
Y690010D01*
X1337237D01*
X1336798Y691650D01*
X1335805Y693370D01*
X1334401Y694773D01*
X1332682Y695766D01*
X1331042Y696206D01*
D02*
G37*
G36*
X1328501D02*
X1326861Y695766D01*
X1325142Y694773D01*
X1323738Y693370D01*
X1322745Y691650D01*
X1322306Y690010D01*
X1328501D01*
Y696206D01*
D02*
G37*
G36*
X2223233Y724300D02*
X2219687D01*
X2216210Y723608D01*
X2212934Y722251D01*
X2209986Y720282D01*
X2207478Y717774D01*
X2205509Y714826D01*
X2204152Y711550D01*
X2203460Y708073D01*
Y704527D01*
X2204152Y701050D01*
X2205509Y697774D01*
X2207478Y694826D01*
X2209986Y692318D01*
X2212934Y690349D01*
X2216210Y688992D01*
X2219687Y688300D01*
X2223233D01*
X2226710Y688992D01*
X2229986Y690349D01*
X2232934Y692318D01*
X2235441Y694826D01*
X2237411Y697774D01*
X2238768Y701050D01*
X2239460Y704527D01*
Y708073D01*
X2238768Y711550D01*
X2237411Y714826D01*
X2235441Y717774D01*
X2232934Y720282D01*
X2229986Y722251D01*
X2226710Y723608D01*
X2223233Y724300D01*
D02*
G37*
G36*
X1695770Y693430D02*
Y688270D01*
X1700930D01*
X1700594Y689524D01*
X1699733Y691016D01*
X1698516Y692233D01*
X1697024Y693094D01*
X1695770Y693430D01*
D02*
G37*
G36*
X1693230D02*
X1691976Y693094D01*
X1690484Y692233D01*
X1689267Y691016D01*
X1688406Y689524D01*
X1688070Y688270D01*
X1693230D01*
Y693430D01*
D02*
G37*
G36*
X1418108Y709540D02*
X1415212D01*
X1412414Y708790D01*
X1409906Y707342D01*
X1407858Y705294D01*
X1406410Y702786D01*
X1405660Y699988D01*
Y697092D01*
X1406410Y694294D01*
X1407858Y691786D01*
X1409906Y689738D01*
X1412414Y688290D01*
X1415212Y687540D01*
X1418108D01*
X1420906Y688290D01*
X1423414Y689738D01*
X1425462Y691786D01*
X1426910Y694294D01*
X1427660Y697092D01*
Y699988D01*
X1426910Y702786D01*
X1425462Y705294D01*
X1423414Y707342D01*
X1420906Y708790D01*
X1418108Y709540D01*
D02*
G37*
G36*
X1763770Y689216D02*
Y683020D01*
X1769966D01*
X1769526Y684660D01*
X1768533Y686380D01*
X1767130Y687784D01*
X1765410Y688776D01*
X1763770Y689216D01*
D02*
G37*
G36*
X1761230D02*
X1759590Y688776D01*
X1757870Y687784D01*
X1756467Y686380D01*
X1755474Y684660D01*
X1755034Y683020D01*
X1761230D01*
Y689216D01*
D02*
G37*
G36*
X1337237Y687470D02*
X1331042D01*
Y681274D01*
X1332682Y681714D01*
X1334401Y682706D01*
X1335805Y684110D01*
X1336798Y685830D01*
X1337237Y687470D01*
D02*
G37*
G36*
X1328501D02*
X1322306D01*
X1322745Y685830D01*
X1323738Y684110D01*
X1325142Y682706D01*
X1326861Y681714D01*
X1328501Y681274D01*
Y687470D01*
D02*
G37*
G36*
X1700930Y685730D02*
X1695770D01*
Y680570D01*
X1697024Y680906D01*
X1698516Y681767D01*
X1699733Y682984D01*
X1700594Y684476D01*
X1700930Y685730D01*
D02*
G37*
G36*
X1693230D02*
X1688070D01*
X1688406Y684476D01*
X1689267Y682984D01*
X1690484Y681767D01*
X1691976Y680906D01*
X1693230Y680570D01*
Y685730D01*
D02*
G37*
G36*
X1769966Y680480D02*
X1763770D01*
Y674284D01*
X1765410Y674724D01*
X1767130Y675716D01*
X1768533Y677120D01*
X1769526Y678840D01*
X1769966Y680480D01*
D02*
G37*
G36*
X1761230D02*
X1755034D01*
X1755474Y678840D01*
X1756467Y677120D01*
X1757870Y675716D01*
X1759590Y674724D01*
X1761230Y674284D01*
Y680480D01*
D02*
G37*
G36*
X1623194Y654500D02*
X1620806D01*
X1618601Y653587D01*
X1616913Y651899D01*
X1616000Y649694D01*
Y647307D01*
X1616913Y645101D01*
X1618601Y643413D01*
X1620806Y642500D01*
X1623194D01*
X1625399Y643413D01*
X1627087Y645101D01*
X1628000Y647307D01*
Y649694D01*
X1627087Y651899D01*
X1625399Y653587D01*
X1623194Y654500D01*
D02*
G37*
G36*
X1650652Y647080D02*
X1648808D01*
X1647028Y646603D01*
X1645432Y645681D01*
X1644129Y644378D01*
X1643207Y642782D01*
X1642730Y641002D01*
Y639158D01*
X1643207Y637378D01*
X1644129Y635782D01*
X1645432Y634479D01*
X1647028Y633557D01*
X1648808Y633080D01*
X1650652D01*
X1652432Y633557D01*
X1654028Y634479D01*
X1655331Y635782D01*
X1656253Y637378D01*
X1656730Y639158D01*
Y641002D01*
X1656253Y642782D01*
X1655331Y644378D01*
X1654028Y645681D01*
X1652432Y646603D01*
X1650652Y647080D01*
D02*
G37*
G36*
X1572444Y641750D02*
X1570056D01*
X1567851Y640837D01*
X1566163Y639149D01*
X1565250Y636944D01*
Y634557D01*
X1566163Y632351D01*
X1567851Y630663D01*
X1570056Y629750D01*
X1572444D01*
X1574649Y630663D01*
X1576337Y632351D01*
X1577250Y634557D01*
Y636944D01*
X1576337Y639149D01*
X1574649Y640837D01*
X1572444Y641750D01*
D02*
G37*
G36*
X1440020Y635216D02*
Y629020D01*
X1446216D01*
X1445776Y630660D01*
X1444783Y632380D01*
X1443380Y633783D01*
X1441660Y634776D01*
X1440020Y635216D01*
D02*
G37*
G36*
X1437480D02*
X1435840Y634776D01*
X1434120Y633783D01*
X1432717Y632380D01*
X1431724Y630660D01*
X1431284Y629020D01*
X1437480D01*
Y635216D01*
D02*
G37*
G36*
X1340638Y649850D02*
X1337742D01*
X1334944Y649100D01*
X1332436Y647652D01*
X1330388Y645604D01*
X1328940Y643096D01*
X1328190Y640298D01*
Y637402D01*
X1328940Y634604D01*
X1330388Y632096D01*
X1332436Y630048D01*
X1334944Y628600D01*
X1337742Y627850D01*
X1340638D01*
X1343436Y628600D01*
X1345944Y630048D01*
X1347992Y632096D01*
X1349440Y634604D01*
X1350190Y637402D01*
Y640298D01*
X1349440Y643096D01*
X1347992Y645604D01*
X1345944Y647652D01*
X1343436Y649100D01*
X1340638Y649850D01*
D02*
G37*
G36*
X1315238D02*
X1312342D01*
X1309544Y649100D01*
X1307036Y647652D01*
X1304988Y645604D01*
X1303540Y643096D01*
X1302790Y640298D01*
Y637402D01*
X1303540Y634604D01*
X1304988Y632096D01*
X1307036Y630048D01*
X1309544Y628600D01*
X1312342Y627850D01*
X1315238D01*
X1318036Y628600D01*
X1320544Y630048D01*
X1322592Y632096D01*
X1324040Y634604D01*
X1324790Y637402D01*
Y640298D01*
X1324040Y643096D01*
X1322592Y645604D01*
X1320544Y647652D01*
X1318036Y649100D01*
X1315238Y649850D01*
D02*
G37*
G36*
X2237240Y648700D02*
X2234080D01*
X2231028Y647882D01*
X2228292Y646302D01*
X2226058Y644068D01*
X2224478Y641332D01*
X2223660Y638280D01*
Y635120D01*
X2224478Y632068D01*
X2226058Y629332D01*
X2228292Y627098D01*
X2231028Y625518D01*
X2234080Y624700D01*
X2237240D01*
X2240292Y625518D01*
X2243028Y627098D01*
X2245262Y629332D01*
X2246842Y632068D01*
X2247660Y635120D01*
Y638280D01*
X2246842Y641332D01*
X2245262Y644068D01*
X2243028Y646302D01*
X2240292Y647882D01*
X2237240Y648700D01*
D02*
G37*
G36*
X1725930Y627836D02*
Y621640D01*
X1732126D01*
X1731686Y623280D01*
X1730694Y625000D01*
X1729290Y626404D01*
X1727570Y627396D01*
X1725930Y627836D01*
D02*
G37*
G36*
X1723390D02*
X1721750Y627396D01*
X1720030Y626404D01*
X1718627Y625000D01*
X1717634Y623280D01*
X1717194Y621640D01*
X1723390D01*
Y627836D01*
D02*
G37*
G36*
X1446216Y626480D02*
X1440020D01*
Y620284D01*
X1441660Y620724D01*
X1443380Y621716D01*
X1444783Y623120D01*
X1445776Y624840D01*
X1446216Y626480D01*
D02*
G37*
G36*
X1437480D02*
X1431284D01*
X1431724Y624840D01*
X1432717Y623120D01*
X1434120Y621716D01*
X1435840Y620724D01*
X1437480Y620284D01*
Y626480D01*
D02*
G37*
G36*
X1535270Y619966D02*
Y613770D01*
X1541466D01*
X1541026Y615410D01*
X1540034Y617130D01*
X1538630Y618534D01*
X1536910Y619526D01*
X1535270Y619966D01*
D02*
G37*
G36*
X1532730D02*
X1531090Y619526D01*
X1529370Y618534D01*
X1527966Y617130D01*
X1526974Y615410D01*
X1526534Y613770D01*
X1532730D01*
Y619966D01*
D02*
G37*
G36*
X1732126Y619100D02*
X1725930D01*
Y612904D01*
X1727570Y613344D01*
X1729290Y614337D01*
X1730694Y615740D01*
X1731686Y617460D01*
X1732126Y619100D01*
D02*
G37*
G36*
X1723390D02*
X1717194D01*
X1717634Y617460D01*
X1718627Y615740D01*
X1720030Y614337D01*
X1721750Y613344D01*
X1723390Y612904D01*
Y619100D01*
D02*
G37*
G36*
X1626522Y625490D02*
X1624678D01*
X1622898Y625013D01*
X1621302Y624091D01*
X1619999Y622788D01*
X1619077Y621192D01*
X1618600Y619412D01*
Y617568D01*
X1619077Y615788D01*
X1619999Y614192D01*
X1621302Y612889D01*
X1622898Y611967D01*
X1624678Y611490D01*
X1626522D01*
X1628302Y611967D01*
X1629898Y612889D01*
X1631201Y614192D01*
X1632123Y615788D01*
X1632600Y617568D01*
Y619412D01*
X1632123Y621192D01*
X1631201Y622788D01*
X1629898Y624091D01*
X1628302Y625013D01*
X1626522Y625490D01*
D02*
G37*
G36*
X1747020Y616180D02*
Y611020D01*
X1752180D01*
X1751844Y612274D01*
X1750983Y613766D01*
X1749766Y614983D01*
X1748274Y615844D01*
X1747020Y616180D01*
D02*
G37*
G36*
X1744480D02*
X1743226Y615844D01*
X1741734Y614983D01*
X1740517Y613766D01*
X1739656Y612274D01*
X1739320Y611020D01*
X1744480D01*
Y616180D01*
D02*
G37*
G36*
X2208840Y634850D02*
X2205680D01*
X2202628Y634032D01*
X2199892Y632452D01*
X2197658Y630218D01*
X2196078Y627482D01*
X2195260Y624430D01*
Y621270D01*
X2196078Y618218D01*
X2197658Y615482D01*
X2199892Y613248D01*
X2202628Y611668D01*
X2205680Y610850D01*
X2208840D01*
X2211892Y611668D01*
X2214628Y613248D01*
X2216862Y615482D01*
X2218442Y618218D01*
X2219260Y621270D01*
Y624430D01*
X2218442Y627482D01*
X2216862Y630218D01*
X2214628Y632452D01*
X2211892Y634032D01*
X2208840Y634850D01*
D02*
G37*
G36*
X1650652Y622950D02*
X1648808D01*
X1647028Y622473D01*
X1645432Y621551D01*
X1644129Y620248D01*
X1643207Y618652D01*
X1642730Y616872D01*
Y615028D01*
X1643207Y613248D01*
X1644129Y611652D01*
X1645432Y610349D01*
X1647028Y609427D01*
X1648808Y608950D01*
X1650652D01*
X1652432Y609427D01*
X1654028Y610349D01*
X1655331Y611652D01*
X1656253Y613248D01*
X1656730Y615028D01*
Y616872D01*
X1656253Y618652D01*
X1655331Y620248D01*
X1654028Y621551D01*
X1652432Y622473D01*
X1650652Y622950D01*
D02*
G37*
G36*
X1541466Y611230D02*
X1535270D01*
Y605034D01*
X1536910Y605474D01*
X1538630Y606466D01*
X1540034Y607870D01*
X1541026Y609590D01*
X1541466Y611230D01*
D02*
G37*
G36*
X1532730D02*
X1526534D01*
X1526974Y609590D01*
X1527966Y607870D01*
X1529370Y606466D01*
X1531090Y605474D01*
X1532730Y605034D01*
Y611230D01*
D02*
G37*
G36*
X1752180Y608480D02*
X1747020D01*
Y603320D01*
X1748274Y603656D01*
X1749766Y604517D01*
X1750983Y605734D01*
X1751844Y607226D01*
X1752180Y608480D01*
D02*
G37*
G36*
X1744480D02*
X1739320D01*
X1739656Y607226D01*
X1740517Y605734D01*
X1741734Y604517D01*
X1743226Y603656D01*
X1744480Y603320D01*
Y608480D01*
D02*
G37*
G36*
X2237240Y621000D02*
X2234080D01*
X2231028Y620182D01*
X2228292Y618602D01*
X2226058Y616368D01*
X2224478Y613632D01*
X2223660Y610580D01*
Y607420D01*
X2224478Y604368D01*
X2226058Y601632D01*
X2228292Y599398D01*
X2231028Y597818D01*
X2234080Y597000D01*
X2237240D01*
X2240292Y597818D01*
X2243028Y599398D01*
X2245262Y601632D01*
X2246842Y604368D01*
X2247660Y607420D01*
Y610580D01*
X2246842Y613632D01*
X2245262Y616368D01*
X2243028Y618602D01*
X2240292Y620182D01*
X2237240Y621000D01*
D02*
G37*
G36*
X1283770Y592966D02*
Y586770D01*
X1289966D01*
X1289526Y588410D01*
X1288533Y590130D01*
X1287130Y591534D01*
X1285410Y592526D01*
X1283770Y592966D01*
D02*
G37*
G36*
X1281230D02*
X1279590Y592526D01*
X1277870Y591534D01*
X1276467Y590130D01*
X1275474Y588410D01*
X1275034Y586770D01*
X1281230D01*
Y592966D01*
D02*
G37*
G36*
X1578038Y599326D02*
X1576194D01*
X1574414Y598849D01*
X1572818Y597927D01*
X1571515Y596624D01*
X1570593Y595028D01*
X1570116Y593247D01*
Y591404D01*
X1570593Y589624D01*
X1571515Y588028D01*
X1572818Y586725D01*
X1574414Y585803D01*
X1576194Y585326D01*
X1578038D01*
X1579818Y585803D01*
X1581414Y586725D01*
X1582717Y588028D01*
X1583639Y589624D01*
X1584116Y591404D01*
Y593247D01*
X1583639Y595028D01*
X1582717Y596624D01*
X1581414Y597927D01*
X1579818Y598849D01*
X1578038Y599326D01*
D02*
G37*
G36*
X2208840Y607150D02*
X2205680D01*
X2202628Y606332D01*
X2199892Y604752D01*
X2197658Y602518D01*
X2196078Y599782D01*
X2195260Y596730D01*
Y593570D01*
X2196078Y590518D01*
X2197658Y587782D01*
X2199892Y585548D01*
X2202628Y583968D01*
X2205680Y583150D01*
X2208840D01*
X2211892Y583968D01*
X2214628Y585548D01*
X2216862Y587782D01*
X2218442Y590518D01*
X2219260Y593570D01*
Y596730D01*
X2218442Y599782D01*
X2216862Y602518D01*
X2214628Y604752D01*
X2211892Y606332D01*
X2208840Y607150D01*
D02*
G37*
G36*
X2237311Y593840D02*
X2236930D01*
Y582570D01*
X2248200D01*
Y582951D01*
X2247345Y586140D01*
X2245694Y589000D01*
X2243360Y591334D01*
X2240500Y592985D01*
X2237311Y593840D01*
D02*
G37*
G36*
X2234390D02*
X2234009D01*
X2230820Y592985D01*
X2227960Y591334D01*
X2225625Y589000D01*
X2223975Y586140D01*
X2223120Y582951D01*
Y582570D01*
X2234390D01*
Y593840D01*
D02*
G37*
G36*
X1762100Y584546D02*
Y578350D01*
X1768296D01*
X1767856Y579990D01*
X1766864Y581710D01*
X1765460Y583114D01*
X1763740Y584106D01*
X1762100Y584546D01*
D02*
G37*
G36*
X1759560D02*
X1757920Y584106D01*
X1756200Y583114D01*
X1754796Y581710D01*
X1753804Y579990D01*
X1753364Y578350D01*
X1759560D01*
Y584546D01*
D02*
G37*
G36*
X1289966Y584230D02*
X1283770D01*
Y578034D01*
X1285410Y578474D01*
X1287130Y579467D01*
X1288533Y580870D01*
X1289526Y582590D01*
X1289966Y584230D01*
D02*
G37*
G36*
X1281230D02*
X1275034D01*
X1275474Y582590D01*
X1276467Y580870D01*
X1277870Y579467D01*
X1279590Y578474D01*
X1281230Y578034D01*
Y584230D01*
D02*
G37*
G36*
X1768296Y575810D02*
X1762100D01*
Y569614D01*
X1763740Y570054D01*
X1765460Y571046D01*
X1766864Y572450D01*
X1767856Y574170D01*
X1768296Y575810D01*
D02*
G37*
G36*
X1759560D02*
X1753364D01*
X1753804Y574170D01*
X1754796Y572450D01*
X1756200Y571046D01*
X1757920Y570054D01*
X1759560Y569614D01*
Y575810D01*
D02*
G37*
G36*
X2248200Y580030D02*
X2236930D01*
Y568760D01*
X2237311D01*
X2240500Y569615D01*
X2243360Y571265D01*
X2245694Y573600D01*
X2247345Y576460D01*
X2248200Y579649D01*
Y580030D01*
D02*
G37*
G36*
X2234390D02*
X2223120D01*
Y579649D01*
X2223975Y576460D01*
X2225625Y573600D01*
X2227960Y571265D01*
X2230820Y569615D01*
X2234009Y568760D01*
X2234390D01*
Y580030D01*
D02*
G37*
G36*
X2208840Y579450D02*
X2205680D01*
X2202628Y578632D01*
X2199892Y577052D01*
X2197658Y574818D01*
X2196078Y572082D01*
X2195260Y569030D01*
Y565870D01*
X2196078Y562818D01*
X2197658Y560082D01*
X2199892Y557848D01*
X2202628Y556268D01*
X2205680Y555450D01*
X2208840D01*
X2211892Y556268D01*
X2214628Y557848D01*
X2216862Y560082D01*
X2218442Y562818D01*
X2219260Y565870D01*
Y569030D01*
X2218442Y572082D01*
X2216862Y574818D01*
X2214628Y577052D01*
X2211892Y578632D01*
X2208840Y579450D01*
D02*
G37*
G36*
X1530533Y568212D02*
X1528690D01*
X1526910Y567735D01*
X1525314Y566814D01*
X1524010Y565510D01*
X1523089Y563914D01*
X1522612Y562134D01*
Y560291D01*
X1523089Y558510D01*
X1524010Y556914D01*
X1525314Y555611D01*
X1526910Y554689D01*
X1528690Y554212D01*
X1530533D01*
X1532314Y554689D01*
X1533910Y555611D01*
X1535213Y556914D01*
X1536135Y558510D01*
X1536612Y560291D01*
Y562134D01*
X1536135Y563914D01*
X1535213Y565510D01*
X1533910Y566814D01*
X1532314Y567735D01*
X1530533Y568212D01*
D02*
G37*
G36*
X2237240Y565600D02*
X2234080D01*
X2231028Y564782D01*
X2228292Y563202D01*
X2226058Y560968D01*
X2224478Y558232D01*
X2223660Y555180D01*
Y552020D01*
X2224478Y548968D01*
X2226058Y546232D01*
X2228292Y543998D01*
X2231028Y542418D01*
X2234080Y541600D01*
X2237240D01*
X2240292Y542418D01*
X2243028Y543998D01*
X2245262Y546232D01*
X2246842Y548968D01*
X2247660Y552020D01*
Y555180D01*
X2246842Y558232D01*
X2245262Y560968D01*
X2243028Y563202D01*
X2240292Y564782D01*
X2237240Y565600D01*
D02*
G37*
G36*
X2208911Y552290D02*
X2208530D01*
Y541020D01*
X2219800D01*
Y541401D01*
X2218945Y544590D01*
X2217294Y547450D01*
X2214960Y549785D01*
X2212100Y551435D01*
X2208911Y552290D01*
D02*
G37*
G36*
X2205990D02*
X2205609D01*
X2202420Y551435D01*
X2199560Y549785D01*
X2197225Y547450D01*
X2195575Y544590D01*
X2194720Y541401D01*
Y541020D01*
X2205990D01*
Y552290D01*
D02*
G37*
G36*
X1957270Y540180D02*
Y535020D01*
X1962430D01*
X1962094Y536274D01*
X1961233Y537766D01*
X1960016Y538983D01*
X1958524Y539844D01*
X1957270Y540180D01*
D02*
G37*
G36*
X1954730D02*
X1953476Y539844D01*
X1951984Y538983D01*
X1950767Y537766D01*
X1949906Y536274D01*
X1949570Y535020D01*
X1954730D01*
Y540180D01*
D02*
G37*
G36*
X1776194Y540396D02*
Y534201D01*
X1782389D01*
X1781950Y535841D01*
X1780957Y537560D01*
X1779553Y538964D01*
X1777834Y539957D01*
X1776194Y540396D01*
D02*
G37*
G36*
X1773654D02*
X1772013Y539957D01*
X1770294Y538964D01*
X1768890Y537560D01*
X1767898Y535841D01*
X1767458Y534201D01*
X1773654D01*
Y540396D01*
D02*
G37*
G36*
X1498252Y542940D02*
X1496408D01*
X1494628Y542463D01*
X1493032Y541541D01*
X1491729Y540238D01*
X1490807Y538642D01*
X1490330Y536862D01*
Y535018D01*
X1490807Y533238D01*
X1491729Y531642D01*
X1493032Y530339D01*
X1494628Y529417D01*
X1496408Y528940D01*
X1498252D01*
X1500032Y529417D01*
X1501628Y530339D01*
X1502931Y531642D01*
X1503853Y533238D01*
X1504330Y535018D01*
Y536862D01*
X1503853Y538642D01*
X1502931Y540238D01*
X1501628Y541541D01*
X1500032Y542463D01*
X1498252Y542940D01*
D02*
G37*
G36*
X1962430Y532480D02*
X1957270D01*
Y527320D01*
X1958524Y527656D01*
X1960016Y528517D01*
X1961233Y529734D01*
X1962094Y531226D01*
X1962430Y532480D01*
D02*
G37*
G36*
X1954730D02*
X1949570D01*
X1949906Y531226D01*
X1950767Y529734D01*
X1951984Y528517D01*
X1953476Y527656D01*
X1954730Y527320D01*
Y532480D01*
D02*
G37*
G36*
X2219800Y538480D02*
X2208530D01*
Y527210D01*
X2208911D01*
X2212100Y528065D01*
X2214960Y529715D01*
X2217294Y532050D01*
X2218945Y534910D01*
X2219800Y538099D01*
Y538480D01*
D02*
G37*
G36*
X2205990D02*
X2194720D01*
Y538099D01*
X2195575Y534910D01*
X2197225Y532050D01*
X2199560Y529715D01*
X2202420Y528065D01*
X2205609Y527210D01*
X2205990D01*
Y538480D01*
D02*
G37*
G36*
X1782389Y531661D02*
X1776194D01*
Y525465D01*
X1777834Y525905D01*
X1779553Y526897D01*
X1780957Y528301D01*
X1781950Y530020D01*
X1782389Y531661D01*
D02*
G37*
G36*
X1773654D02*
X1767458D01*
X1767898Y530020D01*
X1768890Y528301D01*
X1770294Y526897D01*
X1772013Y525905D01*
X1773654Y525465D01*
Y531661D01*
D02*
G37*
G36*
X1923443Y532500D02*
X1921057D01*
X1918851Y531586D01*
X1917164Y529899D01*
X1916250Y527693D01*
Y525307D01*
X1917164Y523101D01*
X1918851Y521413D01*
X1921057Y520500D01*
X1923443D01*
X1925649Y521413D01*
X1927337Y523101D01*
X1928250Y525307D01*
Y527693D01*
X1927337Y529899D01*
X1925649Y531586D01*
X1923443Y532500D01*
D02*
G37*
G36*
X1750770Y524216D02*
Y518020D01*
X1756966D01*
X1756526Y519660D01*
X1755533Y521380D01*
X1754130Y522784D01*
X1752410Y523776D01*
X1750770Y524216D01*
D02*
G37*
G36*
X1748230D02*
X1746590Y523776D01*
X1744870Y522784D01*
X1743466Y521380D01*
X1742474Y519660D01*
X1742034Y518020D01*
X1748230D01*
Y524216D01*
D02*
G37*
G36*
X2240660Y537960D02*
X2230660D01*
X2228833Y537720D01*
X2227130Y537015D01*
X2225668Y535892D01*
X2224545Y534430D01*
X2223840Y532727D01*
X2223600Y530900D01*
Y520900D01*
X2223840Y519073D01*
X2224545Y517370D01*
X2225668Y515908D01*
X2227130Y514785D01*
X2228833Y514080D01*
X2230660Y513840D01*
X2240660D01*
X2242487Y514080D01*
X2244190Y514785D01*
X2245652Y515908D01*
X2246774Y517370D01*
X2247480Y519073D01*
X2247720Y520900D01*
Y530900D01*
X2247480Y532727D01*
X2246774Y534430D01*
X2245652Y535892D01*
X2244190Y537015D01*
X2242487Y537720D01*
X2240660Y537960D01*
D02*
G37*
G36*
X1588431Y525160D02*
X1586588D01*
X1584808Y524683D01*
X1583212Y523761D01*
X1581909Y522458D01*
X1580987Y520862D01*
X1580510Y519082D01*
Y517238D01*
X1580987Y515458D01*
X1581909Y513862D01*
X1583212Y512559D01*
X1584808Y511637D01*
X1586588Y511160D01*
X1588431D01*
X1590212Y511637D01*
X1591808Y512559D01*
X1593111Y513862D01*
X1594033Y515458D01*
X1594510Y517238D01*
Y519082D01*
X1594033Y520862D01*
X1593111Y522458D01*
X1591808Y523761D01*
X1590212Y524683D01*
X1588431Y525160D01*
D02*
G37*
G36*
X1775422Y524000D02*
X1773578D01*
X1771798Y523523D01*
X1770202Y522601D01*
X1768899Y521298D01*
X1767977Y519702D01*
X1767500Y517922D01*
Y516078D01*
X1767977Y514298D01*
X1768899Y512702D01*
X1770202Y511399D01*
X1771798Y510477D01*
X1773578Y510000D01*
X1775422D01*
X1777202Y510477D01*
X1778798Y511399D01*
X1780101Y512702D01*
X1781023Y514298D01*
X1781500Y516078D01*
Y517922D01*
X1781023Y519702D01*
X1780101Y521298D01*
X1778798Y522601D01*
X1777202Y523523D01*
X1775422Y524000D01*
D02*
G37*
G36*
X1756966Y515480D02*
X1750770D01*
Y509284D01*
X1752410Y509724D01*
X1754130Y510717D01*
X1755533Y512120D01*
X1756526Y513840D01*
X1756966Y515480D01*
D02*
G37*
G36*
X1748230D02*
X1742034D01*
X1742474Y513840D01*
X1743466Y512120D01*
X1744870Y510717D01*
X1746590Y509724D01*
X1748230Y509284D01*
Y515480D01*
D02*
G37*
G36*
X1602130Y505306D02*
Y499110D01*
X1608326D01*
X1607886Y500750D01*
X1606893Y502470D01*
X1605490Y503873D01*
X1603770Y504866D01*
X1602130Y505306D01*
D02*
G37*
G36*
X1599590D02*
X1597950Y504866D01*
X1596230Y503873D01*
X1594826Y502470D01*
X1593834Y500750D01*
X1593394Y499110D01*
X1599590D01*
Y505306D01*
D02*
G37*
G36*
X1608326Y496570D02*
X1602130D01*
Y490374D01*
X1603770Y490814D01*
X1605490Y491806D01*
X1606893Y493210D01*
X1607886Y494930D01*
X1608326Y496570D01*
D02*
G37*
G36*
X1599590D02*
X1593394D01*
X1593834Y494930D01*
X1594826Y493210D01*
X1596230Y491806D01*
X1597950Y490814D01*
X1599590Y490374D01*
Y496570D01*
D02*
G37*
G36*
X1583342Y497220D02*
X1581498D01*
X1579718Y496743D01*
X1578122Y495821D01*
X1576819Y494518D01*
X1575897Y492922D01*
X1575420Y491142D01*
Y489298D01*
X1575897Y487518D01*
X1576819Y485922D01*
X1578122Y484619D01*
X1579718Y483697D01*
X1581498Y483220D01*
X1583342D01*
X1585122Y483697D01*
X1586718Y484619D01*
X1588021Y485922D01*
X1588943Y487518D01*
X1589420Y489298D01*
Y491142D01*
X1588943Y492922D01*
X1588021Y494518D01*
X1586718Y495821D01*
X1585122Y496743D01*
X1583342Y497220D01*
D02*
G37*
G36*
X1768922Y486750D02*
X1767078D01*
X1765298Y486273D01*
X1763702Y485351D01*
X1762399Y484048D01*
X1761477Y482452D01*
X1761000Y480672D01*
Y478828D01*
X1761477Y477048D01*
X1762399Y475452D01*
X1763702Y474149D01*
X1765298Y473227D01*
X1767078Y472750D01*
X1768922D01*
X1770702Y473227D01*
X1772298Y474149D01*
X1773601Y475452D01*
X1774523Y477048D01*
X1775000Y478828D01*
Y480672D01*
X1774523Y482452D01*
X1773601Y484048D01*
X1772298Y485351D01*
X1770702Y486273D01*
X1768922Y486750D01*
D02*
G37*
G36*
X452422Y483500D02*
X450578D01*
X448798Y483023D01*
X447202Y482101D01*
X445899Y480798D01*
X444977Y479202D01*
X444500Y477422D01*
Y475578D01*
X444977Y473798D01*
X445899Y472202D01*
X447202Y470899D01*
X448798Y469977D01*
X450578Y469500D01*
X452422D01*
X454202Y469977D01*
X455798Y470899D01*
X457101Y472202D01*
X458023Y473798D01*
X458500Y475578D01*
Y477422D01*
X458023Y479202D01*
X457101Y480798D01*
X455798Y482101D01*
X454202Y483023D01*
X452422Y483500D01*
D02*
G37*
G36*
X427422D02*
X425578D01*
X423798Y483023D01*
X422202Y482101D01*
X420899Y480798D01*
X419977Y479202D01*
X419500Y477422D01*
Y475578D01*
X419977Y473798D01*
X420899Y472202D01*
X422202Y470899D01*
X423798Y469977D01*
X425578Y469500D01*
X427422D01*
X429202Y469977D01*
X430798Y470899D01*
X432101Y472202D01*
X433023Y473798D01*
X433500Y475578D01*
Y477422D01*
X433023Y479202D01*
X432101Y480798D01*
X430798Y482101D01*
X429202Y483023D01*
X427422Y483500D01*
D02*
G37*
G36*
X1929020Y474466D02*
Y468270D01*
X1935216D01*
X1934776Y469910D01*
X1933784Y471630D01*
X1932380Y473033D01*
X1930660Y474026D01*
X1929020Y474466D01*
D02*
G37*
G36*
X1926480D02*
X1924840Y474026D01*
X1923120Y473033D01*
X1921716Y471630D01*
X1920724Y469910D01*
X1920284Y468270D01*
X1926480D01*
Y474466D01*
D02*
G37*
G36*
X350651Y471790D02*
X350270D01*
Y460520D01*
X361540D01*
Y460901D01*
X360685Y464090D01*
X359035Y466950D01*
X356700Y469284D01*
X353840Y470935D01*
X350651Y471790D01*
D02*
G37*
G36*
X380651D02*
X380270D01*
Y460520D01*
X391540D01*
Y460901D01*
X390685Y464090D01*
X389035Y466950D01*
X386700Y469284D01*
X383840Y470935D01*
X380651Y471790D01*
D02*
G37*
G36*
X347730D02*
X347349D01*
X344160Y470935D01*
X341300Y469284D01*
X338965Y466950D01*
X337315Y464090D01*
X336460Y460901D01*
Y460520D01*
X347730D01*
Y471790D01*
D02*
G37*
G36*
X377730D02*
X377349D01*
X374160Y470935D01*
X371300Y469284D01*
X368965Y466950D01*
X367315Y464090D01*
X366460Y460901D01*
Y460520D01*
X377730D01*
Y471790D01*
D02*
G37*
G36*
X1935216Y465730D02*
X1929020D01*
Y459534D01*
X1930660Y459974D01*
X1932380Y460966D01*
X1933784Y462370D01*
X1934776Y464090D01*
X1935216Y465730D01*
D02*
G37*
G36*
X1926480D02*
X1920284D01*
X1920724Y464090D01*
X1921716Y462370D01*
X1923120Y460966D01*
X1924840Y459974D01*
X1926480Y459534D01*
Y465730D01*
D02*
G37*
G36*
X1582072Y473090D02*
X1580228D01*
X1578448Y472613D01*
X1576852Y471691D01*
X1575549Y470388D01*
X1574627Y468792D01*
X1574150Y467012D01*
Y465168D01*
X1574627Y463388D01*
X1575549Y461792D01*
X1576852Y460489D01*
X1578448Y459567D01*
X1580228Y459090D01*
X1582072D01*
X1583852Y459567D01*
X1585448Y460489D01*
X1586751Y461792D01*
X1587673Y463388D01*
X1588150Y465168D01*
Y467012D01*
X1587673Y468792D01*
X1586751Y470388D01*
X1585448Y471691D01*
X1583852Y472613D01*
X1582072Y473090D01*
D02*
G37*
G36*
X1846770Y460966D02*
Y454770D01*
X1852966D01*
X1852526Y456410D01*
X1851534Y458130D01*
X1850130Y459534D01*
X1848410Y460526D01*
X1846770Y460966D01*
D02*
G37*
G36*
X1844230D02*
X1842590Y460526D01*
X1840870Y459534D01*
X1839467Y458130D01*
X1838474Y456410D01*
X1838034Y454770D01*
X1844230D01*
Y460966D01*
D02*
G37*
G36*
X470270Y456716D02*
Y450520D01*
X476466D01*
X476026Y452160D01*
X475033Y453880D01*
X473630Y455284D01*
X471910Y456276D01*
X470270Y456716D01*
D02*
G37*
G36*
X467730D02*
X466090Y456276D01*
X464370Y455284D01*
X462966Y453880D01*
X461974Y452160D01*
X461534Y450520D01*
X467730D01*
Y456716D01*
D02*
G37*
G36*
X1563022Y463000D02*
X1561178D01*
X1559398Y462523D01*
X1557802Y461601D01*
X1556499Y460298D01*
X1555577Y458702D01*
X1555100Y456922D01*
Y455078D01*
X1555577Y453298D01*
X1556499Y451702D01*
X1557802Y450399D01*
X1559398Y449477D01*
X1561178Y449000D01*
X1563022D01*
X1564802Y449477D01*
X1566398Y450399D01*
X1567701Y451702D01*
X1568623Y453298D01*
X1569100Y455078D01*
Y456922D01*
X1568623Y458702D01*
X1567701Y460298D01*
X1566398Y461601D01*
X1564802Y462523D01*
X1563022Y463000D01*
D02*
G37*
G36*
X1497672D02*
X1495828D01*
X1494048Y462523D01*
X1492452Y461601D01*
X1491149Y460298D01*
X1490227Y458702D01*
X1489750Y456922D01*
Y455078D01*
X1490227Y453298D01*
X1491149Y451702D01*
X1492452Y450399D01*
X1494048Y449477D01*
X1495828Y449000D01*
X1497672D01*
X1499452Y449477D01*
X1501048Y450399D01*
X1502351Y451702D01*
X1503273Y453298D01*
X1503750Y455078D01*
Y456922D01*
X1503273Y458702D01*
X1502351Y460298D01*
X1501048Y461601D01*
X1499452Y462523D01*
X1497672Y463000D01*
D02*
G37*
G36*
X1432212D02*
X1430368D01*
X1428588Y462523D01*
X1426992Y461601D01*
X1425689Y460298D01*
X1424767Y458702D01*
X1424290Y456922D01*
Y455078D01*
X1424767Y453298D01*
X1425689Y451702D01*
X1426992Y450399D01*
X1428588Y449477D01*
X1430368Y449000D01*
X1432212D01*
X1433992Y449477D01*
X1435588Y450399D01*
X1436891Y451702D01*
X1437813Y453298D01*
X1438290Y455078D01*
Y456922D01*
X1437813Y458702D01*
X1436891Y460298D01*
X1435588Y461601D01*
X1433992Y462523D01*
X1432212Y463000D01*
D02*
G37*
G36*
X1734667Y454939D02*
Y448743D01*
X1740863D01*
X1740423Y450384D01*
X1739431Y452103D01*
X1738027Y453507D01*
X1736307Y454499D01*
X1734667Y454939D01*
D02*
G37*
G36*
X1732127D02*
X1730487Y454499D01*
X1728768Y453507D01*
X1727364Y452103D01*
X1726371Y450384D01*
X1725931Y448743D01*
X1732127D01*
Y454939D01*
D02*
G37*
G36*
X391540Y457980D02*
X380270D01*
Y446710D01*
X380651D01*
X383840Y447565D01*
X386700Y449215D01*
X389035Y451550D01*
X390685Y454410D01*
X391540Y457599D01*
Y457980D01*
D02*
G37*
G36*
X377730D02*
X366460D01*
Y457599D01*
X367315Y454410D01*
X368965Y451550D01*
X371300Y449215D01*
X374160Y447565D01*
X377349Y446710D01*
X377730D01*
Y457980D01*
D02*
G37*
G36*
X361540D02*
X350270D01*
Y446710D01*
X350651D01*
X353840Y447565D01*
X356700Y449215D01*
X359035Y451550D01*
X360685Y454410D01*
X361540Y457599D01*
Y457980D01*
D02*
G37*
G36*
X347730D02*
X336460D01*
Y457599D01*
X337315Y454410D01*
X338965Y451550D01*
X341300Y449215D01*
X344160Y447565D01*
X347349Y446710D01*
X347730D01*
Y457980D01*
D02*
G37*
G36*
X1877982Y460390D02*
X1876138D01*
X1874358Y459913D01*
X1872762Y458991D01*
X1871459Y457688D01*
X1870537Y456092D01*
X1870060Y454312D01*
Y452468D01*
X1870537Y450688D01*
X1871459Y449092D01*
X1872762Y447789D01*
X1874358Y446867D01*
X1876138Y446390D01*
X1877982D01*
X1879762Y446867D01*
X1881358Y447789D01*
X1882661Y449092D01*
X1883583Y450688D01*
X1884060Y452468D01*
Y454312D01*
X1883583Y456092D01*
X1882661Y457688D01*
X1881358Y458991D01*
X1879762Y459913D01*
X1877982Y460390D01*
D02*
G37*
G36*
X1757922Y460260D02*
X1756078D01*
X1754298Y459783D01*
X1752702Y458862D01*
X1751399Y457558D01*
X1750477Y455962D01*
X1750000Y454182D01*
Y452339D01*
X1750477Y450558D01*
X1751399Y448962D01*
X1752702Y447659D01*
X1754298Y446737D01*
X1756078Y446260D01*
X1757922D01*
X1759702Y446737D01*
X1761298Y447659D01*
X1762601Y448962D01*
X1763523Y450558D01*
X1764000Y452339D01*
Y454182D01*
X1763523Y455962D01*
X1762601Y457558D01*
X1761298Y458862D01*
X1759702Y459783D01*
X1757922Y460260D01*
D02*
G37*
G36*
X1852966Y452230D02*
X1846770D01*
Y446034D01*
X1848410Y446474D01*
X1850130Y447467D01*
X1851534Y448870D01*
X1852526Y450590D01*
X1852966Y452230D01*
D02*
G37*
G36*
X1844230D02*
X1838034D01*
X1838474Y450590D01*
X1839467Y448870D01*
X1840870Y447467D01*
X1842590Y446474D01*
X1844230Y446034D01*
Y452230D01*
D02*
G37*
G36*
X476466Y447980D02*
X470270D01*
Y441784D01*
X471910Y442224D01*
X473630Y443217D01*
X475033Y444620D01*
X476026Y446340D01*
X476466Y447980D01*
D02*
G37*
G36*
X467730D02*
X461534D01*
X461974Y446340D01*
X462966Y444620D01*
X464370Y443217D01*
X466090Y442224D01*
X467730Y441784D01*
Y447980D01*
D02*
G37*
G36*
X1931922Y454750D02*
X1930078D01*
X1928298Y454273D01*
X1926702Y453351D01*
X1925399Y452048D01*
X1924477Y450452D01*
X1924000Y448672D01*
Y446828D01*
X1924477Y445048D01*
X1925399Y443452D01*
X1926702Y442149D01*
X1928298Y441227D01*
X1930078Y440750D01*
X1931922D01*
X1933702Y441227D01*
X1935298Y442149D01*
X1936601Y443452D01*
X1937523Y445048D01*
X1938000Y446828D01*
Y448672D01*
X1937523Y450452D01*
X1936601Y452048D01*
X1935298Y453351D01*
X1933702Y454273D01*
X1931922Y454750D01*
D02*
G37*
G36*
X1740863Y446203D02*
X1734667D01*
Y440008D01*
X1736307Y440447D01*
X1738027Y441440D01*
X1739431Y442844D01*
X1740423Y444563D01*
X1740863Y446203D01*
D02*
G37*
G36*
X1732127D02*
X1725931D01*
X1726371Y444563D01*
X1727364Y442844D01*
X1728768Y441440D01*
X1730487Y440447D01*
X1732127Y440008D01*
Y446203D01*
D02*
G37*
G36*
X2223233Y474300D02*
X2219687D01*
X2216210Y473608D01*
X2212934Y472251D01*
X2209986Y470281D01*
X2207478Y467774D01*
X2205509Y464826D01*
X2204152Y461550D01*
X2203460Y458073D01*
Y454527D01*
X2204152Y451050D01*
X2205509Y447774D01*
X2207478Y444826D01*
X2209986Y442318D01*
X2212934Y440349D01*
X2216210Y438992D01*
X2219687Y438300D01*
X2223233D01*
X2226710Y438992D01*
X2229986Y440349D01*
X2232934Y442318D01*
X2235441Y444826D01*
X2237411Y447774D01*
X2238768Y451050D01*
X2239460Y454527D01*
Y458073D01*
X2238768Y461550D01*
X2237411Y464826D01*
X2235441Y467774D01*
X2232934Y470281D01*
X2229986Y472251D01*
X2226710Y473608D01*
X2223233Y474300D01*
D02*
G37*
G36*
X1710612Y450424D02*
X1708768D01*
X1706988Y449947D01*
X1705392Y449025D01*
X1704089Y447722D01*
X1703167Y446126D01*
X1702690Y444346D01*
Y442502D01*
X1703167Y440722D01*
X1704089Y439126D01*
X1705392Y437823D01*
X1706988Y436901D01*
X1708768Y436424D01*
X1710612D01*
X1712392Y436901D01*
X1713988Y437823D01*
X1715291Y439126D01*
X1716213Y440722D01*
X1716690Y442502D01*
Y444346D01*
X1716213Y446126D01*
X1715291Y447722D01*
X1713988Y449025D01*
X1712392Y449947D01*
X1710612Y450424D01*
D02*
G37*
G36*
X438422Y447750D02*
X436578D01*
X434798Y447273D01*
X433202Y446351D01*
X431899Y445048D01*
X430977Y443452D01*
X430500Y441672D01*
Y439828D01*
X430977Y438048D01*
X431899Y436452D01*
X433202Y435149D01*
X434798Y434227D01*
X436578Y433750D01*
X438422D01*
X440202Y434227D01*
X441798Y435149D01*
X443101Y436452D01*
X444023Y438048D01*
X444500Y439828D01*
Y441672D01*
X444023Y443452D01*
X443101Y445048D01*
X441798Y446351D01*
X440202Y447273D01*
X438422Y447750D01*
D02*
G37*
G36*
X1793770Y439216D02*
Y433020D01*
X1799966D01*
X1799526Y434660D01*
X1798533Y436380D01*
X1797130Y437784D01*
X1795410Y438776D01*
X1793770Y439216D01*
D02*
G37*
G36*
X1791230D02*
X1789590Y438776D01*
X1787870Y437784D01*
X1786467Y436380D01*
X1785474Y434660D01*
X1785034Y433020D01*
X1791230D01*
Y439216D01*
D02*
G37*
G36*
X1690770D02*
Y433020D01*
X1696966D01*
X1696526Y434660D01*
X1695533Y436380D01*
X1694130Y437784D01*
X1692410Y438776D01*
X1690770Y439216D01*
D02*
G37*
G36*
X1688230D02*
X1686590Y438776D01*
X1684870Y437784D01*
X1683466Y436380D01*
X1682474Y434660D01*
X1682034Y433020D01*
X1688230D01*
Y439216D01*
D02*
G37*
G36*
X1760504Y444510D02*
X1758117D01*
X1755911Y443597D01*
X1754224Y441909D01*
X1753310Y439704D01*
Y437317D01*
X1754224Y435111D01*
X1755911Y433424D01*
X1758117Y432510D01*
X1760504D01*
X1762709Y433424D01*
X1764397Y435111D01*
X1765310Y437317D01*
Y439704D01*
X1764397Y441909D01*
X1762709Y443597D01*
X1760504Y444510D01*
D02*
G37*
G36*
X665527Y451960D02*
X662894D01*
X660350Y451278D01*
X658070Y449962D01*
X656208Y448100D01*
X654892Y445820D01*
X654210Y443276D01*
Y440644D01*
X654892Y438100D01*
X656208Y435820D01*
X658070Y433958D01*
X660350Y432641D01*
X662894Y431960D01*
X665527D01*
X668070Y432641D01*
X670350Y433958D01*
X672212Y435820D01*
X673529Y438100D01*
X674210Y440644D01*
Y443276D01*
X673529Y445820D01*
X672212Y448100D01*
X670350Y449962D01*
X668070Y451278D01*
X665527Y451960D01*
D02*
G37*
G36*
X589327D02*
X586693D01*
X584150Y451278D01*
X581870Y449962D01*
X580008Y448100D01*
X578691Y445820D01*
X578010Y443276D01*
Y440644D01*
X578691Y438100D01*
X580008Y435820D01*
X581870Y433958D01*
X584150Y432641D01*
X586693Y431960D01*
X589327D01*
X591870Y432641D01*
X594150Y433958D01*
X596012Y435820D01*
X597328Y438100D01*
X598010Y440644D01*
Y443276D01*
X597328Y445820D01*
X596012Y448100D01*
X594150Y449962D01*
X591870Y451278D01*
X589327Y451960D01*
D02*
G37*
G36*
X515770Y435966D02*
Y429770D01*
X521966D01*
X521526Y431410D01*
X520533Y433130D01*
X519130Y434534D01*
X517410Y435526D01*
X515770Y435966D01*
D02*
G37*
G36*
X513230D02*
X511590Y435526D01*
X509870Y434534D01*
X508466Y433130D01*
X507474Y431410D01*
X507034Y429770D01*
X513230D01*
Y435966D01*
D02*
G37*
G36*
X1843422Y442500D02*
X1841578D01*
X1839798Y442023D01*
X1838202Y441101D01*
X1836899Y439798D01*
X1835977Y438202D01*
X1835500Y436422D01*
Y434578D01*
X1835977Y432798D01*
X1836899Y431202D01*
X1838202Y429899D01*
X1839798Y428977D01*
X1841578Y428500D01*
X1843422D01*
X1845202Y428977D01*
X1846798Y429899D01*
X1848101Y431202D01*
X1849023Y432798D01*
X1849500Y434578D01*
Y436422D01*
X1849023Y438202D01*
X1848101Y439798D01*
X1846798Y441101D01*
X1845202Y442023D01*
X1843422Y442500D01*
D02*
G37*
G36*
X1972422Y442000D02*
X1970578D01*
X1968798Y441523D01*
X1967202Y440601D01*
X1965899Y439298D01*
X1964977Y437702D01*
X1964500Y435922D01*
Y434078D01*
X1964977Y432298D01*
X1965899Y430702D01*
X1967202Y429399D01*
X1968798Y428477D01*
X1970578Y428000D01*
X1972422D01*
X1974202Y428477D01*
X1975798Y429399D01*
X1977101Y430702D01*
X1978023Y432298D01*
X1978500Y434078D01*
Y435922D01*
X1978023Y437702D01*
X1977101Y439298D01*
X1975798Y440601D01*
X1974202Y441523D01*
X1972422Y442000D01*
D02*
G37*
G36*
X1799966Y430480D02*
X1793770D01*
Y424284D01*
X1795410Y424724D01*
X1797130Y425717D01*
X1798533Y427120D01*
X1799526Y428840D01*
X1799966Y430480D01*
D02*
G37*
G36*
X1791230D02*
X1785034D01*
X1785474Y428840D01*
X1786467Y427120D01*
X1787870Y425717D01*
X1789590Y424724D01*
X1791230Y424284D01*
Y430480D01*
D02*
G37*
G36*
X1696966D02*
X1690770D01*
Y424284D01*
X1692410Y424724D01*
X1694130Y425717D01*
X1695533Y427120D01*
X1696526Y428840D01*
X1696966Y430480D01*
D02*
G37*
G36*
X1688230D02*
X1682034D01*
X1682474Y428840D01*
X1683466Y427120D01*
X1684870Y425717D01*
X1686590Y424724D01*
X1688230Y424284D01*
Y430480D01*
D02*
G37*
G36*
X1894172Y436000D02*
X1892328D01*
X1890548Y435523D01*
X1888952Y434601D01*
X1887649Y433298D01*
X1886727Y431702D01*
X1886250Y429922D01*
Y428078D01*
X1886727Y426298D01*
X1887649Y424702D01*
X1888952Y423399D01*
X1890548Y422477D01*
X1892328Y422000D01*
X1894172D01*
X1895952Y422477D01*
X1897548Y423399D01*
X1898851Y424702D01*
X1899773Y426298D01*
X1900250Y428078D01*
Y429922D01*
X1899773Y431702D01*
X1898851Y433298D01*
X1897548Y434601D01*
X1895952Y435523D01*
X1894172Y436000D01*
D02*
G37*
G36*
X496172D02*
X494328D01*
X492548Y435523D01*
X490952Y434601D01*
X489649Y433298D01*
X488727Y431702D01*
X488250Y429922D01*
Y428078D01*
X488727Y426298D01*
X489649Y424702D01*
X490952Y423399D01*
X492548Y422477D01*
X494328Y422000D01*
X496172D01*
X497952Y422477D01*
X499548Y423399D01*
X500851Y424702D01*
X501773Y426298D01*
X502250Y428078D01*
Y429922D01*
X501773Y431702D01*
X500851Y433298D01*
X499548Y434601D01*
X497952Y435523D01*
X496172Y436000D01*
D02*
G37*
G36*
X521966Y427230D02*
X515770D01*
Y421034D01*
X517410Y421474D01*
X519130Y422467D01*
X520533Y423870D01*
X521526Y425590D01*
X521966Y427230D01*
D02*
G37*
G36*
X513230D02*
X507034D01*
X507474Y425590D01*
X508466Y423870D01*
X509870Y422467D01*
X511590Y421474D01*
X513230Y421034D01*
Y427230D01*
D02*
G37*
G36*
X307573Y455750D02*
X304027D01*
X300550Y455058D01*
X297274Y453701D01*
X294326Y451731D01*
X291819Y449224D01*
X289849Y446276D01*
X288492Y443000D01*
X287800Y439523D01*
Y435977D01*
X288492Y432500D01*
X289849Y429224D01*
X291819Y426276D01*
X294326Y423768D01*
X297274Y421799D01*
X300550Y420442D01*
X304027Y419750D01*
X307573D01*
X311050Y420442D01*
X314326Y421799D01*
X317274Y423768D01*
X319781Y426276D01*
X321751Y429224D01*
X323108Y432500D01*
X323800Y435977D01*
Y439523D01*
X323108Y443000D01*
X321751Y446276D01*
X319781Y449224D01*
X317274Y451731D01*
X314326Y453701D01*
X311050Y455058D01*
X307573Y455750D01*
D02*
G37*
G36*
X380580Y441250D02*
X377420D01*
X374368Y440432D01*
X371632Y438852D01*
X369398Y436618D01*
X367818Y433882D01*
X367000Y430830D01*
Y427670D01*
X367818Y424618D01*
X369398Y421882D01*
X371632Y419647D01*
X374368Y418068D01*
X377420Y417250D01*
X380580D01*
X383632Y418068D01*
X386368Y419647D01*
X388602Y421882D01*
X390182Y424618D01*
X391000Y427670D01*
Y430830D01*
X390182Y433882D01*
X388602Y436618D01*
X386368Y438852D01*
X383632Y440432D01*
X380580Y441250D01*
D02*
G37*
G36*
X350580D02*
X347420D01*
X344368Y440432D01*
X341632Y438852D01*
X339398Y436618D01*
X337818Y433882D01*
X337000Y430830D01*
Y427670D01*
X337818Y424618D01*
X339398Y421882D01*
X341632Y419647D01*
X344368Y418068D01*
X347420Y417250D01*
X350580D01*
X353632Y418068D01*
X356368Y419647D01*
X358602Y421882D01*
X360182Y424618D01*
X361000Y427670D01*
Y430830D01*
X360182Y433882D01*
X358602Y436618D01*
X356368Y438852D01*
X353632Y440432D01*
X350580Y441250D01*
D02*
G37*
G36*
X2008270Y422466D02*
Y416270D01*
X2014466D01*
X2014026Y417910D01*
X2013033Y419630D01*
X2011630Y421034D01*
X2009910Y422026D01*
X2008270Y422466D01*
D02*
G37*
G36*
X2005730D02*
X2004090Y422026D01*
X2002370Y421034D01*
X2000966Y419630D01*
X1999974Y417910D01*
X1999534Y416270D01*
X2005730D01*
Y422466D01*
D02*
G37*
G36*
X1485270Y416466D02*
Y410270D01*
X1491466D01*
X1491026Y411910D01*
X1490034Y413630D01*
X1488630Y415033D01*
X1486910Y416026D01*
X1485270Y416466D01*
D02*
G37*
G36*
X1482730D02*
X1481090Y416026D01*
X1479370Y415033D01*
X1477966Y413630D01*
X1476974Y411910D01*
X1476534Y410270D01*
X1482730D01*
Y416466D01*
D02*
G37*
G36*
X1410270Y415966D02*
Y409770D01*
X1416466D01*
X1416026Y411410D01*
X1415034Y413130D01*
X1413630Y414534D01*
X1411910Y415526D01*
X1410270Y415966D01*
D02*
G37*
G36*
X1407730D02*
X1406090Y415526D01*
X1404370Y414534D01*
X1402966Y413130D01*
X1401974Y411410D01*
X1401534Y409770D01*
X1407730D01*
Y415966D01*
D02*
G37*
G36*
X1551520Y415216D02*
Y409020D01*
X1557716D01*
X1557276Y410660D01*
X1556284Y412380D01*
X1554880Y413783D01*
X1553160Y414776D01*
X1551520Y415216D01*
D02*
G37*
G36*
X1548980D02*
X1547340Y414776D01*
X1545620Y413783D01*
X1544216Y412380D01*
X1543224Y410660D01*
X1542784Y409020D01*
X1548980D01*
Y415216D01*
D02*
G37*
G36*
X2014466Y413730D02*
X2008270D01*
Y407534D01*
X2009910Y407974D01*
X2011630Y408966D01*
X2013033Y410370D01*
X2014026Y412090D01*
X2014466Y413730D01*
D02*
G37*
G36*
X2005730D02*
X1999534D01*
X1999974Y412090D01*
X2000966Y410370D01*
X2002370Y408966D01*
X2004090Y407974D01*
X2005730Y407534D01*
Y413730D01*
D02*
G37*
G36*
X1491466Y407730D02*
X1485270D01*
Y401534D01*
X1486910Y401974D01*
X1488630Y402966D01*
X1490034Y404370D01*
X1491026Y406090D01*
X1491466Y407730D01*
D02*
G37*
G36*
X1482730D02*
X1476534D01*
X1476974Y406090D01*
X1477966Y404370D01*
X1479370Y402966D01*
X1481090Y401974D01*
X1482730Y401534D01*
Y407730D01*
D02*
G37*
G36*
X1416466Y407230D02*
X1410270D01*
Y401034D01*
X1411910Y401474D01*
X1413630Y402467D01*
X1415034Y403870D01*
X1416026Y405590D01*
X1416466Y407230D01*
D02*
G37*
G36*
X1407730D02*
X1401534D01*
X1401974Y405590D01*
X1402966Y403870D01*
X1404370Y402467D01*
X1406090Y401474D01*
X1407730Y401034D01*
Y407230D01*
D02*
G37*
G36*
X1682402Y414670D02*
X1680558D01*
X1678778Y414193D01*
X1677182Y413271D01*
X1675879Y411968D01*
X1674957Y410372D01*
X1674480Y408592D01*
Y406748D01*
X1674957Y404968D01*
X1675879Y403372D01*
X1677182Y402069D01*
X1678778Y401147D01*
X1680558Y400670D01*
X1682402D01*
X1684182Y401147D01*
X1685778Y402069D01*
X1687081Y403372D01*
X1688003Y404968D01*
X1688480Y406748D01*
Y408592D01*
X1688003Y410372D01*
X1687081Y411968D01*
X1685778Y413271D01*
X1684182Y414193D01*
X1682402Y414670D01*
D02*
G37*
G36*
X1557716Y406480D02*
X1551520D01*
Y400284D01*
X1553160Y400724D01*
X1554880Y401716D01*
X1556284Y403120D01*
X1557276Y404840D01*
X1557716Y406480D01*
D02*
G37*
G36*
X1548980D02*
X1542784D01*
X1543224Y404840D01*
X1544216Y403120D01*
X1545620Y401716D01*
X1547340Y400724D01*
X1548980Y400284D01*
Y406480D01*
D02*
G37*
G36*
X2058672Y411500D02*
X2056828D01*
X2055048Y411023D01*
X2053452Y410101D01*
X2052149Y408798D01*
X2051227Y407202D01*
X2050750Y405422D01*
Y403578D01*
X2051227Y401798D01*
X2052149Y400202D01*
X2053452Y398899D01*
X2055048Y397977D01*
X2056828Y397500D01*
X2058672D01*
X2060452Y397977D01*
X2062048Y398899D01*
X2063351Y400202D01*
X2064273Y401798D01*
X2064750Y403578D01*
Y405422D01*
X2064273Y407202D01*
X2063351Y408798D01*
X2062048Y410101D01*
X2060452Y411023D01*
X2058672Y411500D01*
D02*
G37*
G36*
X1734270Y402776D02*
Y396580D01*
X1740466D01*
X1740026Y398220D01*
X1739034Y399940D01*
X1737630Y401344D01*
X1735910Y402336D01*
X1734270Y402776D01*
D02*
G37*
G36*
X1731730D02*
X1730090Y402336D01*
X1728370Y401344D01*
X1726967Y399940D01*
X1725974Y398220D01*
X1725534Y396580D01*
X1731730D01*
Y402776D01*
D02*
G37*
G36*
X2204767Y415200D02*
X2202133D01*
X2199590Y414519D01*
X2197310Y413202D01*
X2195448Y411340D01*
X2194131Y409060D01*
X2193450Y406516D01*
Y403884D01*
X2194131Y401340D01*
X2195448Y399060D01*
X2197310Y397198D01*
X2199590Y395882D01*
X2202133Y395200D01*
X2204767D01*
X2207310Y395882D01*
X2209590Y397198D01*
X2211452Y399060D01*
X2212769Y401340D01*
X2213450Y403884D01*
Y406516D01*
X2212769Y409060D01*
X2211452Y411340D01*
X2209590Y413202D01*
X2207310Y414519D01*
X2204767Y415200D01*
D02*
G37*
G36*
X1740466Y394040D02*
X1734270D01*
Y387844D01*
X1735910Y388284D01*
X1737630Y389277D01*
X1739034Y390680D01*
X1740026Y392400D01*
X1740466Y394040D01*
D02*
G37*
G36*
X1731730D02*
X1725534D01*
X1725974Y392400D01*
X1726967Y390680D01*
X1728370Y389277D01*
X1730090Y388284D01*
X1731730Y387844D01*
Y394040D01*
D02*
G37*
G36*
X380580Y411250D02*
X377420D01*
X374368Y410432D01*
X371632Y408852D01*
X369398Y406618D01*
X367818Y403882D01*
X367000Y400830D01*
Y397670D01*
X367818Y394618D01*
X369398Y391882D01*
X371632Y389647D01*
X374368Y388068D01*
X377420Y387250D01*
X380580D01*
X383632Y388068D01*
X386368Y389647D01*
X388602Y391882D01*
X390182Y394618D01*
X391000Y397670D01*
Y400830D01*
X390182Y403882D01*
X388602Y406618D01*
X386368Y408852D01*
X383632Y410432D01*
X380580Y411250D01*
D02*
G37*
G36*
X350580D02*
X347420D01*
X344368Y410432D01*
X341632Y408852D01*
X339398Y406618D01*
X337818Y403882D01*
X337000Y400830D01*
Y397670D01*
X337818Y394618D01*
X339398Y391882D01*
X341632Y389647D01*
X344368Y388068D01*
X347420Y387250D01*
X350580D01*
X353632Y388068D01*
X356368Y389647D01*
X358602Y391882D01*
X360182Y394618D01*
X361000Y397670D01*
Y400830D01*
X360182Y403882D01*
X358602Y406618D01*
X356368Y408852D01*
X353632Y410432D01*
X350580Y411250D01*
D02*
G37*
G36*
X1102661Y397070D02*
X1102450D01*
Y383300D01*
X1116220D01*
Y383511D01*
X1115642Y386417D01*
X1114508Y389154D01*
X1112862Y391618D01*
X1110767Y393712D01*
X1108304Y395358D01*
X1105567Y396492D01*
X1102661Y397070D01*
D02*
G37*
G36*
X1099910D02*
X1099699D01*
X1096793Y396492D01*
X1094056Y395358D01*
X1091593Y393712D01*
X1089498Y391618D01*
X1087852Y389154D01*
X1086718Y386417D01*
X1086140Y383511D01*
Y383300D01*
X1099910D01*
Y397070D01*
D02*
G37*
G36*
X1760504Y392440D02*
X1758117D01*
X1755911Y391527D01*
X1754224Y389839D01*
X1753310Y387634D01*
Y385247D01*
X1754224Y383041D01*
X1755911Y381354D01*
X1758117Y380440D01*
X1760504D01*
X1762709Y381354D01*
X1764397Y383041D01*
X1765310Y385247D01*
Y387634D01*
X1764397Y389839D01*
X1762709Y391527D01*
X1760504Y392440D01*
D02*
G37*
G36*
X1691270Y386466D02*
Y380270D01*
X1697466D01*
X1697026Y381910D01*
X1696033Y383630D01*
X1694630Y385033D01*
X1692910Y386026D01*
X1691270Y386466D01*
D02*
G37*
G36*
X1688730D02*
X1687090Y386026D01*
X1685370Y385033D01*
X1683967Y383630D01*
X1682974Y381910D01*
X1682534Y380270D01*
X1688730D01*
Y386466D01*
D02*
G37*
G36*
X1532872Y393502D02*
X1531028D01*
X1529248Y393025D01*
X1527652Y392103D01*
X1526349Y390800D01*
X1525427Y389204D01*
X1524950Y387423D01*
Y385580D01*
X1525427Y383800D01*
X1526349Y382204D01*
X1527652Y380900D01*
X1529248Y379979D01*
X1531028Y379502D01*
X1532872D01*
X1534652Y379979D01*
X1536248Y380900D01*
X1537552Y382204D01*
X1538473Y383800D01*
X1538950Y385580D01*
Y387423D01*
X1538473Y389204D01*
X1537552Y390800D01*
X1536248Y392103D01*
X1534652Y393025D01*
X1532872Y393502D01*
D02*
G37*
G36*
X1464292D02*
X1462448D01*
X1460668Y393025D01*
X1459072Y392103D01*
X1457769Y390800D01*
X1456847Y389204D01*
X1456370Y387423D01*
Y385580D01*
X1456847Y383800D01*
X1457769Y382204D01*
X1459072Y380900D01*
X1460668Y379979D01*
X1462448Y379502D01*
X1464292D01*
X1466072Y379979D01*
X1467668Y380900D01*
X1468972Y382204D01*
X1469893Y383800D01*
X1470370Y385580D01*
Y387423D01*
X1469893Y389204D01*
X1468972Y390800D01*
X1467668Y392103D01*
X1466072Y393025D01*
X1464292Y393502D01*
D02*
G37*
G36*
X1390632D02*
X1388788D01*
X1387008Y393025D01*
X1385412Y392103D01*
X1384109Y390800D01*
X1383187Y389204D01*
X1382710Y387423D01*
Y385580D01*
X1383187Y383800D01*
X1384109Y382204D01*
X1385412Y380900D01*
X1387008Y379979D01*
X1388788Y379502D01*
X1390632D01*
X1392412Y379979D01*
X1394008Y380900D01*
X1395311Y382204D01*
X1396233Y383800D01*
X1396710Y385580D01*
Y387423D01*
X1396233Y389204D01*
X1395311Y390800D01*
X1394008Y392103D01*
X1392412Y393025D01*
X1390632Y393502D01*
D02*
G37*
G36*
X2006694Y392750D02*
X2004306D01*
X2002101Y391837D01*
X2000413Y390149D01*
X1999500Y387943D01*
Y385556D01*
X2000413Y383351D01*
X2002101Y381663D01*
X2002317Y381574D01*
X2002472Y380135D01*
X2001467Y379130D01*
X2000474Y377410D01*
X2000034Y375770D01*
X2014966D01*
X2014526Y377410D01*
X2014365Y377690D01*
X2015381Y378469D01*
X2015452Y378399D01*
X2017048Y377477D01*
X2018828Y377000D01*
X2020672D01*
X2022452Y377477D01*
X2024048Y378399D01*
X2025351Y379702D01*
X2026273Y381298D01*
X2026750Y383078D01*
Y384922D01*
X2026273Y386702D01*
X2025351Y388298D01*
X2024048Y389601D01*
X2022452Y390523D01*
X2020672Y391000D01*
X2018828D01*
X2017048Y390523D01*
X2015452Y389601D01*
X2014149Y388298D01*
X2013227Y386702D01*
X2012750Y384922D01*
Y383078D01*
X2013227Y381298D01*
X2013317Y381142D01*
X2012301Y380362D01*
X2012130Y380533D01*
X2010504Y381472D01*
X2010288Y381727D01*
X2010008Y382773D01*
X2010587Y383351D01*
X2011500Y385556D01*
Y387943D01*
X2010587Y390149D01*
X2008899Y391837D01*
X2006694Y392750D01*
D02*
G37*
G36*
X1241172Y390250D02*
X1239328D01*
X1237548Y389773D01*
X1235952Y388851D01*
X1234649Y387548D01*
X1233727Y385952D01*
X1233250Y384172D01*
Y382328D01*
X1233727Y380548D01*
X1234649Y378952D01*
X1235952Y377649D01*
X1237548Y376727D01*
X1239328Y376250D01*
X1241172D01*
X1242952Y376727D01*
X1244548Y377649D01*
X1245851Y378952D01*
X1246773Y380548D01*
X1247250Y382328D01*
Y384172D01*
X1246773Y385952D01*
X1245851Y387548D01*
X1244548Y388851D01*
X1242952Y389773D01*
X1241172Y390250D01*
D02*
G37*
G36*
X1879770Y382216D02*
Y376020D01*
X1885966D01*
X1885526Y377660D01*
X1884534Y379380D01*
X1883130Y380784D01*
X1881410Y381776D01*
X1879770Y382216D01*
D02*
G37*
G36*
X1877230D02*
X1875590Y381776D01*
X1873870Y380784D01*
X1872466Y379380D01*
X1871474Y377660D01*
X1871034Y376020D01*
X1877230D01*
Y382216D01*
D02*
G37*
G36*
X660770Y378966D02*
Y372770D01*
X666966D01*
X666526Y374410D01*
X665534Y376130D01*
X664130Y377533D01*
X662410Y378526D01*
X660770Y378966D01*
D02*
G37*
G36*
X658230D02*
X656590Y378526D01*
X654870Y377533D01*
X653466Y376130D01*
X652474Y374410D01*
X652034Y372770D01*
X658230D01*
Y378966D01*
D02*
G37*
G36*
X307573Y408750D02*
X304027D01*
X300550Y408058D01*
X297274Y406701D01*
X294326Y404731D01*
X291819Y402224D01*
X289849Y399276D01*
X288492Y396000D01*
X287800Y392523D01*
Y388977D01*
X288492Y385499D01*
X289849Y382224D01*
X291819Y379276D01*
X294326Y376768D01*
X297274Y374799D01*
X300550Y373442D01*
X304027Y372750D01*
X307573D01*
X311050Y373442D01*
X314326Y374799D01*
X317274Y376768D01*
X319781Y379276D01*
X321751Y382224D01*
X323108Y385499D01*
X323800Y388977D01*
Y392523D01*
X323108Y396000D01*
X321751Y399276D01*
X319781Y402224D01*
X317274Y404731D01*
X314326Y406701D01*
X311050Y408058D01*
X307573Y408750D01*
D02*
G37*
G36*
X1697466Y377730D02*
X1691270D01*
Y371534D01*
X1692910Y371974D01*
X1694630Y372966D01*
X1696033Y374370D01*
X1697026Y376090D01*
X1697466Y377730D01*
D02*
G37*
G36*
X1688730D02*
X1682534D01*
X1682974Y376090D01*
X1683967Y374370D01*
X1685370Y372966D01*
X1687090Y371974D01*
X1688730Y371534D01*
Y377730D01*
D02*
G37*
G36*
X613672Y384250D02*
X611828D01*
X610048Y383773D01*
X608452Y382851D01*
X607149Y381548D01*
X606227Y379952D01*
X605750Y378172D01*
Y376328D01*
X606227Y374548D01*
X607149Y372952D01*
X608452Y371649D01*
X610048Y370727D01*
X611828Y370250D01*
X613672D01*
X615452Y370727D01*
X617048Y371649D01*
X618351Y372952D01*
X619273Y374548D01*
X619750Y376328D01*
Y378172D01*
X619273Y379952D01*
X618351Y381548D01*
X617048Y382851D01*
X615452Y383773D01*
X613672Y384250D01*
D02*
G37*
G36*
X1624330Y375966D02*
Y369770D01*
X1630526D01*
X1630086Y371410D01*
X1629093Y373130D01*
X1627690Y374534D01*
X1625970Y375526D01*
X1624330Y375966D01*
D02*
G37*
G36*
X1621790D02*
X1620150Y375526D01*
X1618430Y374534D01*
X1617027Y373130D01*
X1616034Y371410D01*
X1615594Y369770D01*
X1621790D01*
Y375966D01*
D02*
G37*
G36*
X1956422Y383000D02*
X1954578D01*
X1952798Y382523D01*
X1951202Y381601D01*
X1949899Y380298D01*
X1948977Y378702D01*
X1948500Y376922D01*
Y375078D01*
X1948977Y373298D01*
X1949899Y371702D01*
X1951202Y370399D01*
X1952798Y369477D01*
X1954578Y369000D01*
X1956422D01*
X1958202Y369477D01*
X1959798Y370399D01*
X1961101Y371702D01*
X1962023Y373298D01*
X1962500Y375078D01*
Y376922D01*
X1962023Y378702D01*
X1961101Y380298D01*
X1959798Y381601D01*
X1958202Y382523D01*
X1956422Y383000D01*
D02*
G37*
G36*
X1370770Y374216D02*
Y368020D01*
X1376966D01*
X1376526Y369660D01*
X1375533Y371380D01*
X1374130Y372784D01*
X1372410Y373776D01*
X1370770Y374216D01*
D02*
G37*
G36*
X1368230D02*
X1366590Y373776D01*
X1364870Y372784D01*
X1363466Y371380D01*
X1362474Y369660D01*
X1362034Y368020D01*
X1368230D01*
Y374216D01*
D02*
G37*
G36*
X873089Y396530D02*
X869271D01*
X865583Y395542D01*
X862277Y393633D01*
X859577Y390933D01*
X857668Y387627D01*
X856680Y383939D01*
Y380121D01*
X857668Y376433D01*
X859577Y373127D01*
X862277Y370427D01*
X865583Y368518D01*
X869271Y367530D01*
X873089D01*
X876777Y368518D01*
X880083Y370427D01*
X882783Y373127D01*
X884692Y376433D01*
X885680Y380121D01*
Y383939D01*
X884692Y387627D01*
X882783Y390933D01*
X880083Y393633D01*
X876777Y395542D01*
X873089Y396530D01*
D02*
G37*
G36*
X1885966Y373480D02*
X1879770D01*
Y367284D01*
X1881410Y367724D01*
X1883130Y368717D01*
X1884534Y370120D01*
X1885526Y371840D01*
X1885966Y373480D01*
D02*
G37*
G36*
X1877230D02*
X1871034D01*
X1871474Y371840D01*
X1872466Y370120D01*
X1873870Y368717D01*
X1875590Y367724D01*
X1877230Y367284D01*
Y373480D01*
D02*
G37*
G36*
X1513020Y373466D02*
Y367270D01*
X1519216D01*
X1518776Y368910D01*
X1517784Y370630D01*
X1516380Y372034D01*
X1514660Y373026D01*
X1513020Y373466D01*
D02*
G37*
G36*
X1510480D02*
X1508840Y373026D01*
X1507120Y372034D01*
X1505717Y370630D01*
X1504724Y368910D01*
X1504284Y367270D01*
X1510480D01*
Y373466D01*
D02*
G37*
G36*
X2014966Y373230D02*
X2008770D01*
Y367034D01*
X2010410Y367474D01*
X2012130Y368466D01*
X2013533Y369870D01*
X2014526Y371590D01*
X2014966Y373230D01*
D02*
G37*
G36*
X2006230D02*
X2000034D01*
X2000474Y371590D01*
X2001467Y369870D01*
X2002870Y368466D01*
X2004590Y367474D01*
X2006230Y367034D01*
Y373230D01*
D02*
G37*
G36*
X1116220Y380760D02*
X1102450D01*
Y366990D01*
X1102661D01*
X1105567Y367568D01*
X1108304Y368702D01*
X1110767Y370348D01*
X1112862Y372443D01*
X1114508Y374906D01*
X1115642Y377643D01*
X1116220Y380549D01*
Y380760D01*
D02*
G37*
G36*
X1099910D02*
X1086140D01*
Y380549D01*
X1086718Y377643D01*
X1087852Y374906D01*
X1089498Y372443D01*
X1091593Y370348D01*
X1094056Y368702D01*
X1096793Y367568D01*
X1099699Y366990D01*
X1099910D01*
Y380760D01*
D02*
G37*
G36*
X1444270Y372966D02*
Y366770D01*
X1450466D01*
X1450026Y368410D01*
X1449034Y370130D01*
X1447630Y371534D01*
X1445910Y372526D01*
X1444270Y372966D01*
D02*
G37*
G36*
X1441730D02*
X1440090Y372526D01*
X1438370Y371534D01*
X1436967Y370130D01*
X1435974Y368410D01*
X1435534Y366770D01*
X1441730D01*
Y372966D01*
D02*
G37*
G36*
X690835Y376475D02*
X688448D01*
X686243Y375562D01*
X684555Y373874D01*
X683642Y371669D01*
Y369282D01*
X684555Y367077D01*
X686243Y365389D01*
X688448Y364475D01*
X690835D01*
X693040Y365389D01*
X694728Y367077D01*
X695641Y369282D01*
Y371669D01*
X694728Y373874D01*
X693040Y375562D01*
X690835Y376475D01*
D02*
G37*
G36*
X666966Y370230D02*
X660770D01*
Y364034D01*
X662410Y364474D01*
X664130Y365466D01*
X665534Y366870D01*
X666526Y368590D01*
X666966Y370230D01*
D02*
G37*
G36*
X658230D02*
X652034D01*
X652474Y368590D01*
X653466Y366870D01*
X654870Y365466D01*
X656590Y364474D01*
X658230Y364034D01*
Y370230D01*
D02*
G37*
G36*
X1630526Y367230D02*
X1624330D01*
Y361034D01*
X1625970Y361474D01*
X1627690Y362467D01*
X1629093Y363870D01*
X1630086Y365590D01*
X1630526Y367230D01*
D02*
G37*
G36*
X1621790D02*
X1615594D01*
X1616034Y365590D01*
X1617027Y363870D01*
X1618430Y362467D01*
X1620150Y361474D01*
X1621790Y361034D01*
Y367230D01*
D02*
G37*
G36*
X1376966Y365480D02*
X1370770D01*
Y359284D01*
X1372410Y359724D01*
X1374130Y360717D01*
X1375533Y362120D01*
X1376526Y363840D01*
X1376966Y365480D01*
D02*
G37*
G36*
X1368230D02*
X1362034D01*
X1362474Y363840D01*
X1363466Y362120D01*
X1364870Y360717D01*
X1366590Y359724D01*
X1368230Y359284D01*
Y365480D01*
D02*
G37*
G36*
X1519216Y364730D02*
X1513020D01*
Y358534D01*
X1514660Y358974D01*
X1516380Y359967D01*
X1517784Y361370D01*
X1518776Y363090D01*
X1519216Y364730D01*
D02*
G37*
G36*
X1510480D02*
X1504284D01*
X1504724Y363090D01*
X1505717Y361370D01*
X1507120Y359967D01*
X1508840Y358974D01*
X1510480Y358534D01*
Y364730D01*
D02*
G37*
G36*
X1450466Y364230D02*
X1444270D01*
Y358034D01*
X1445910Y358474D01*
X1447630Y359467D01*
X1449034Y360870D01*
X1450026Y362590D01*
X1450466Y364230D01*
D02*
G37*
G36*
X1441730D02*
X1435534D01*
X1435974Y362590D01*
X1436967Y360870D01*
X1438370Y359467D01*
X1440090Y358474D01*
X1441730Y358034D01*
Y364230D01*
D02*
G37*
G36*
X380580Y381250D02*
X377420D01*
X374368Y380432D01*
X371632Y378852D01*
X369398Y376618D01*
X367818Y373882D01*
X367000Y370830D01*
Y367670D01*
X367818Y364618D01*
X369398Y361882D01*
X371632Y359647D01*
X374368Y358068D01*
X377420Y357250D01*
X380580D01*
X383632Y358068D01*
X386368Y359647D01*
X388602Y361882D01*
X390182Y364618D01*
X391000Y367670D01*
Y370830D01*
X390182Y373882D01*
X388602Y376618D01*
X386368Y378852D01*
X383632Y380432D01*
X380580Y381250D01*
D02*
G37*
G36*
X354000Y381310D02*
X344000D01*
X342173Y381070D01*
X340470Y380364D01*
X339007Y379242D01*
X337886Y377780D01*
X337180Y376077D01*
X336940Y374250D01*
Y364250D01*
X337180Y362422D01*
X337886Y360720D01*
X339007Y359257D01*
X340470Y358135D01*
X342173Y357430D01*
X344000Y357189D01*
X354000D01*
X355827Y357430D01*
X357530Y358135D01*
X358992Y359257D01*
X360115Y360720D01*
X360820Y362422D01*
X361060Y364250D01*
Y374250D01*
X360820Y376077D01*
X360115Y377780D01*
X358992Y379242D01*
X357530Y380364D01*
X355827Y381070D01*
X354000Y381310D01*
D02*
G37*
G36*
X1681132Y362600D02*
X1679288D01*
X1677508Y362123D01*
X1675912Y361201D01*
X1674609Y359898D01*
X1673687Y358302D01*
X1673210Y356522D01*
Y354678D01*
X1673687Y352898D01*
X1674609Y351302D01*
X1675912Y349999D01*
X1677508Y349077D01*
X1679288Y348600D01*
X1681132D01*
X1682912Y349077D01*
X1684508Y349999D01*
X1685811Y351302D01*
X1686733Y352898D01*
X1687210Y354678D01*
Y356522D01*
X1686733Y358302D01*
X1685811Y359898D01*
X1684508Y361201D01*
X1682912Y362123D01*
X1681132Y362600D01*
D02*
G37*
G36*
X1735020Y349716D02*
Y343520D01*
X1741216D01*
X1740776Y345160D01*
X1739783Y346880D01*
X1738380Y348284D01*
X1736660Y349276D01*
X1735020Y349716D01*
D02*
G37*
G36*
X1732480D02*
X1730840Y349276D01*
X1729120Y348284D01*
X1727717Y346880D01*
X1726724Y345160D01*
X1726284Y343520D01*
X1732480D01*
Y349716D01*
D02*
G37*
G36*
X1890422Y348500D02*
X1888578D01*
X1886798Y348023D01*
X1885202Y347101D01*
X1883899Y345798D01*
X1882977Y344202D01*
X1882500Y342422D01*
Y341180D01*
X1881311Y340412D01*
X1881294Y340410D01*
X1880660Y340776D01*
X1879020Y341216D01*
Y335020D01*
X1886107D01*
X1886495Y335152D01*
X1886798Y334977D01*
X1888578Y334500D01*
X1890422D01*
X1892202Y334977D01*
X1893798Y335899D01*
X1895101Y337202D01*
X1896023Y338798D01*
X1896500Y340578D01*
Y342422D01*
X1896023Y344202D01*
X1895101Y345798D01*
X1893798Y347101D01*
X1892202Y348023D01*
X1890422Y348500D01*
D02*
G37*
G36*
X1986203Y351440D02*
X1983817D01*
X1981611Y350527D01*
X1979923Y348839D01*
X1979010Y346633D01*
Y344246D01*
X1979923Y342041D01*
X1981611Y340353D01*
X1983817Y339440D01*
X1986203D01*
X1988409Y340353D01*
X1990097Y342041D01*
X1991010Y344246D01*
Y346633D01*
X1990097Y348839D01*
X1988409Y350527D01*
X1986203Y351440D01*
D02*
G37*
G36*
X1857934Y350170D02*
X1855547D01*
X1853341Y349257D01*
X1851653Y347569D01*
X1850740Y345364D01*
Y342976D01*
X1851653Y340771D01*
X1853341Y339083D01*
X1855547Y338170D01*
X1857934D01*
X1860139Y339083D01*
X1861827Y340771D01*
X1862740Y342976D01*
Y345364D01*
X1861827Y347569D01*
X1860139Y349257D01*
X1857934Y350170D01*
D02*
G37*
G36*
X1958458Y352097D02*
X1956615D01*
X1954834Y351620D01*
X1953238Y350699D01*
X1951935Y349395D01*
X1951013Y347799D01*
X1950536Y346019D01*
Y344176D01*
X1951013Y342395D01*
X1951935Y340799D01*
X1953238Y339496D01*
X1954834Y338574D01*
X1956615Y338097D01*
X1958458D01*
X1960238Y338574D01*
X1961834Y339496D01*
X1963138Y340799D01*
X1964059Y342395D01*
X1964536Y344176D01*
Y346019D01*
X1964059Y347799D01*
X1963138Y349395D01*
X1961834Y350699D01*
X1960238Y351620D01*
X1958458Y352097D01*
D02*
G37*
G36*
X2020922Y351750D02*
X2019078D01*
X2017298Y351273D01*
X2015702Y350351D01*
X2014399Y349048D01*
X2013477Y347452D01*
X2013000Y345672D01*
Y343828D01*
X2013477Y342048D01*
X2014399Y340452D01*
X2015702Y339149D01*
X2017298Y338227D01*
X2019078Y337750D01*
X2020922D01*
X2022702Y338227D01*
X2024298Y339149D01*
X2025601Y340452D01*
X2026523Y342048D01*
X2027000Y343828D01*
Y345672D01*
X2026523Y347452D01*
X2025601Y349048D01*
X2024298Y350351D01*
X2022702Y351273D01*
X2020922Y351750D01*
D02*
G37*
G36*
X1795193Y348500D02*
X1792807D01*
X1790601Y347587D01*
X1788913Y345899D01*
X1788000Y343694D01*
Y341306D01*
X1788913Y339101D01*
X1790601Y337413D01*
X1792807Y336500D01*
X1795193D01*
X1797399Y337413D01*
X1799086Y339101D01*
X1800000Y341306D01*
Y343694D01*
X1799086Y345899D01*
X1797399Y347587D01*
X1795193Y348500D01*
D02*
G37*
G36*
X1876480Y341216D02*
X1874840Y340776D01*
X1873120Y339784D01*
X1871716Y338380D01*
X1870724Y336660D01*
X1870284Y335020D01*
X1876480D01*
Y341216D01*
D02*
G37*
G36*
X1741216Y340980D02*
X1735020D01*
Y334784D01*
X1736660Y335224D01*
X1738380Y336217D01*
X1739783Y337620D01*
X1740776Y339340D01*
X1741216Y340980D01*
D02*
G37*
G36*
X1732480D02*
X1726284D01*
X1726724Y339340D01*
X1727717Y337620D01*
X1729120Y336217D01*
X1730840Y335224D01*
X1732480Y334784D01*
Y340980D01*
D02*
G37*
G36*
X2009020Y340716D02*
Y334520D01*
X2015216D01*
X2014776Y336160D01*
X2013784Y337880D01*
X2012380Y339283D01*
X2010660Y340276D01*
X2009020Y340716D01*
D02*
G37*
G36*
X2006480D02*
X2004840Y340276D01*
X2003120Y339283D01*
X2001716Y337880D01*
X2000724Y336160D01*
X2000284Y334520D01*
X2006480D01*
Y340716D01*
D02*
G37*
G36*
X599193Y344500D02*
X596806D01*
X594601Y343587D01*
X592913Y341899D01*
X592000Y339693D01*
Y337307D01*
X592913Y335101D01*
X594601Y333414D01*
X596806Y332500D01*
X599193D01*
X601399Y333414D01*
X603087Y335101D01*
X604000Y337307D01*
Y339693D01*
X603087Y341899D01*
X601399Y343587D01*
X599193Y344500D01*
D02*
G37*
G36*
X669270Y336466D02*
Y330270D01*
X675466D01*
X675026Y331910D01*
X674034Y333630D01*
X672630Y335033D01*
X670910Y336026D01*
X669270Y336466D01*
D02*
G37*
G36*
X666730D02*
X665090Y336026D01*
X663370Y335033D01*
X661966Y333630D01*
X660974Y331910D01*
X660534Y330270D01*
X666730D01*
Y336466D01*
D02*
G37*
G36*
X1691370Y335783D02*
Y329587D01*
X1697566D01*
X1697127Y331227D01*
X1696134Y332947D01*
X1694730Y334351D01*
X1693011Y335343D01*
X1691370Y335783D01*
D02*
G37*
G36*
X1688830D02*
X1687190Y335343D01*
X1685471Y334351D01*
X1684067Y332947D01*
X1683074Y331227D01*
X1682635Y329587D01*
X1688830D01*
Y335783D01*
D02*
G37*
G36*
X1760504Y340370D02*
X1758117D01*
X1755911Y339457D01*
X1754224Y337769D01*
X1753310Y335564D01*
Y333177D01*
X1754224Y330971D01*
X1755911Y329284D01*
X1758117Y328370D01*
X1760504D01*
X1762709Y329284D01*
X1764397Y330971D01*
X1765310Y333177D01*
Y335564D01*
X1764397Y337769D01*
X1762709Y339457D01*
X1760504Y340370D01*
D02*
G37*
G36*
X1885216Y332480D02*
X1879020D01*
Y326284D01*
X1880660Y326724D01*
X1882380Y327716D01*
X1883784Y329120D01*
X1884776Y330840D01*
X1885216Y332480D01*
D02*
G37*
G36*
X1876480D02*
X1870284D01*
X1870724Y330840D01*
X1871716Y329120D01*
X1873120Y327716D01*
X1874840Y326724D01*
X1876480Y326284D01*
Y332480D01*
D02*
G37*
G36*
X2015216Y331980D02*
X2009020D01*
Y325784D01*
X2010660Y326224D01*
X2012380Y327216D01*
X2013784Y328620D01*
X2014776Y330340D01*
X2015216Y331980D01*
D02*
G37*
G36*
X2006480D02*
X2000284D01*
X2000724Y330340D01*
X2001716Y328620D01*
X2003120Y327216D01*
X2004840Y326224D01*
X2006480Y325784D01*
Y331980D01*
D02*
G37*
G36*
X675466Y327730D02*
X669270D01*
Y321534D01*
X670910Y321974D01*
X672630Y322966D01*
X674034Y324370D01*
X675026Y326090D01*
X675466Y327730D01*
D02*
G37*
G36*
X666730D02*
X660534D01*
X660974Y326090D01*
X661966Y324370D01*
X663370Y322966D01*
X665090Y321974D01*
X666730Y321534D01*
Y327730D01*
D02*
G37*
G36*
X1697566Y327047D02*
X1691370D01*
Y320852D01*
X1693011Y321291D01*
X1694730Y322284D01*
X1696134Y323688D01*
X1697127Y325407D01*
X1697566Y327047D01*
D02*
G37*
G36*
X1688830D02*
X1682635D01*
X1683074Y325407D01*
X1684067Y323688D01*
X1685471Y322284D01*
X1687190Y321291D01*
X1688830Y320852D01*
Y327047D01*
D02*
G37*
G36*
X1829062Y334750D02*
X1827218D01*
X1825438Y334273D01*
X1823842Y333351D01*
X1822539Y332048D01*
X1821617Y330452D01*
X1821140Y328672D01*
Y326828D01*
X1821617Y325048D01*
X1822539Y323452D01*
X1823842Y322149D01*
X1825438Y321227D01*
X1827218Y320750D01*
X1829062D01*
X1830842Y321227D01*
X1832438Y322149D01*
X1833741Y323452D01*
X1834663Y325048D01*
X1835140Y326828D01*
Y328672D01*
X1834663Y330452D01*
X1833741Y332048D01*
X1832438Y333351D01*
X1830842Y334273D01*
X1829062Y334750D01*
D02*
G37*
G36*
X2204767Y340200D02*
X2202133D01*
X2199590Y339519D01*
X2197310Y338202D01*
X2195448Y336340D01*
X2194131Y334060D01*
X2193450Y331516D01*
Y328884D01*
X2194131Y326340D01*
X2195448Y324060D01*
X2197310Y322198D01*
X2199590Y320882D01*
X2202133Y320200D01*
X2204767D01*
X2207310Y320882D01*
X2209590Y322198D01*
X2211452Y324060D01*
X2212769Y326340D01*
X2213450Y328884D01*
Y331516D01*
X2212769Y334060D01*
X2211452Y336340D01*
X2209590Y338202D01*
X2207310Y339519D01*
X2204767Y340200D01*
D02*
G37*
G36*
X2111650Y417260D02*
X2101650D01*
X2099823Y417020D01*
X2098120Y416315D01*
X2096658Y415192D01*
X2095535Y413730D01*
X2094830Y412027D01*
X2094590Y410200D01*
Y400200D01*
X2094830Y398373D01*
X2095535Y396670D01*
X2096658Y395207D01*
X2098120Y394086D01*
X2099823Y393380D01*
X2101650Y393140D01*
X2103670D01*
X2103837Y391870D01*
X2102018Y391382D01*
X2099282Y389802D01*
X2097048Y387568D01*
X2095468Y384832D01*
X2094650Y381780D01*
Y378620D01*
X2095468Y375568D01*
X2097048Y372832D01*
X2099282Y370598D01*
X2102018Y369018D01*
X2104483Y368357D01*
Y367043D01*
X2102018Y366382D01*
X2099282Y364802D01*
X2097048Y362568D01*
X2095468Y359832D01*
X2094650Y356780D01*
Y353620D01*
X2095468Y350568D01*
X2097048Y347832D01*
X2099282Y345598D01*
X2102018Y344018D01*
X2104483Y343357D01*
Y342043D01*
X2102018Y341382D01*
X2099282Y339802D01*
X2097048Y337568D01*
X2095468Y334832D01*
X2094650Y331780D01*
Y328620D01*
X2095468Y325568D01*
X2097048Y322832D01*
X2099282Y320598D01*
X2102018Y319018D01*
X2105070Y318200D01*
X2108230D01*
X2111282Y319018D01*
X2114018Y320598D01*
X2116252Y322832D01*
X2117832Y325568D01*
X2118493Y328033D01*
X2119807D01*
X2120468Y325568D01*
X2122048Y322832D01*
X2124282Y320598D01*
X2127018Y319018D01*
X2130070Y318200D01*
X2133230D01*
X2136282Y319018D01*
X2139018Y320598D01*
X2141252Y322832D01*
X2142832Y325568D01*
X2143650Y328620D01*
Y331780D01*
X2142832Y334832D01*
X2141252Y337568D01*
X2139018Y339802D01*
X2136282Y341382D01*
X2133817Y342043D01*
Y343357D01*
X2136282Y344018D01*
X2139018Y345598D01*
X2141252Y347832D01*
X2142832Y350568D01*
X2143650Y353620D01*
Y356780D01*
X2142832Y359832D01*
X2141252Y362568D01*
X2139018Y364802D01*
X2136282Y366382D01*
X2133817Y367043D01*
Y368357D01*
X2136282Y369018D01*
X2139018Y370598D01*
X2141252Y372832D01*
X2142832Y375568D01*
X2143650Y378620D01*
Y381780D01*
X2142832Y384832D01*
X2141252Y387568D01*
X2139018Y389802D01*
X2136282Y391382D01*
X2133817Y392043D01*
Y393357D01*
X2136282Y394018D01*
X2139018Y395598D01*
X2141252Y397832D01*
X2142832Y400568D01*
X2143650Y403620D01*
Y406780D01*
X2142832Y409832D01*
X2141252Y412568D01*
X2139018Y414802D01*
X2136282Y416382D01*
X2133230Y417200D01*
X2130070D01*
X2127018Y416382D01*
X2124282Y414802D01*
X2122048Y412568D01*
X2120468Y409832D01*
X2119980Y408013D01*
X2118710Y408180D01*
Y410200D01*
X2118470Y412027D01*
X2117764Y413730D01*
X2116642Y415192D01*
X2115180Y416315D01*
X2113477Y417020D01*
X2111650Y417260D01*
D02*
G37*
G36*
X606172Y331500D02*
X604328D01*
X602548Y331023D01*
X600952Y330101D01*
X599649Y328798D01*
X598727Y327202D01*
X598250Y325422D01*
Y323578D01*
X598727Y321798D01*
X599649Y320202D01*
X600952Y318899D01*
X602548Y317977D01*
X604328Y317500D01*
X606172D01*
X607952Y317977D01*
X609548Y318899D01*
X610851Y320202D01*
X611773Y321798D01*
X612250Y323578D01*
Y325422D01*
X611773Y327202D01*
X610851Y328798D01*
X609548Y330101D01*
X607952Y331023D01*
X606172Y331500D01*
D02*
G37*
G36*
X695257Y326924D02*
X693414D01*
X691634Y326446D01*
X690037Y325525D01*
X688734Y324222D01*
X687812Y322626D01*
X687335Y320845D01*
Y319002D01*
X687812Y317222D01*
X688734Y315625D01*
X690037Y314322D01*
X691634Y313401D01*
X693414Y312924D01*
X695257D01*
X697037Y313401D01*
X698633Y314322D01*
X699937Y315625D01*
X700858Y317222D01*
X701335Y319002D01*
Y320845D01*
X700858Y322626D01*
X699937Y324222D01*
X698633Y325525D01*
X697037Y326446D01*
X695257Y326924D01*
D02*
G37*
G36*
X673020Y315716D02*
Y309520D01*
X679216D01*
X678776Y311160D01*
X677784Y312880D01*
X676380Y314284D01*
X674660Y315276D01*
X673020Y315716D01*
D02*
G37*
G36*
X670480D02*
X668840Y315276D01*
X667120Y314284D01*
X665716Y312880D01*
X664724Y311160D01*
X664284Y309520D01*
X670480D01*
Y315716D01*
D02*
G37*
G36*
X741944Y321500D02*
X739557D01*
X737351Y320587D01*
X735664Y318899D01*
X734750Y316693D01*
Y314307D01*
X735664Y312101D01*
X737351Y310413D01*
X739557Y309500D01*
X741944D01*
X744149Y310413D01*
X745837Y312101D01*
X746750Y314307D01*
Y316693D01*
X745837Y318899D01*
X744149Y320587D01*
X741944Y321500D01*
D02*
G37*
G36*
X1937193Y314000D02*
X1934807D01*
X1932601Y313086D01*
X1930913Y311399D01*
X1930000Y309193D01*
Y306807D01*
X1930913Y304601D01*
X1932601Y302913D01*
X1934807Y302000D01*
X1937193D01*
X1939399Y302913D01*
X1941086Y304601D01*
X1942000Y306807D01*
Y309193D01*
X1941086Y311399D01*
X1939399Y313086D01*
X1937193Y314000D01*
D02*
G37*
G36*
X600172Y315750D02*
X598328D01*
X596548Y315273D01*
X594952Y314351D01*
X593649Y313048D01*
X592727Y311452D01*
X592250Y309672D01*
Y307828D01*
X592727Y306048D01*
X593649Y304452D01*
X594952Y303149D01*
X596548Y302227D01*
X598328Y301750D01*
X600172D01*
X601952Y302227D01*
X603548Y303149D01*
X604851Y304452D01*
X605773Y306048D01*
X606250Y307828D01*
Y309672D01*
X605773Y311452D01*
X604851Y313048D01*
X603548Y314351D01*
X601952Y315273D01*
X600172Y315750D01*
D02*
G37*
G36*
X679216Y306980D02*
X673020D01*
Y300784D01*
X674660Y301224D01*
X676380Y302216D01*
X677784Y303620D01*
X678776Y305340D01*
X679216Y306980D01*
D02*
G37*
G36*
X670480D02*
X664284D01*
X664724Y305340D01*
X665716Y303620D01*
X667120Y302216D01*
X668840Y301224D01*
X670480Y300784D01*
Y306980D01*
D02*
G37*
G36*
X1695132Y310530D02*
X1693288D01*
X1691508Y310053D01*
X1689912Y309131D01*
X1688609Y307828D01*
X1687687Y306232D01*
X1687210Y304452D01*
Y302608D01*
X1687687Y300828D01*
X1688609Y299232D01*
X1689912Y297929D01*
X1691508Y297007D01*
X1693288Y296530D01*
X1695132D01*
X1696912Y297007D01*
X1698508Y297929D01*
X1699811Y299232D01*
X1700733Y300828D01*
X1701210Y302608D01*
Y304452D01*
X1700733Y306232D01*
X1699811Y307828D01*
X1698508Y309131D01*
X1696912Y310053D01*
X1695132Y310530D01*
D02*
G37*
G36*
X756944Y308500D02*
X754557D01*
X752351Y307587D01*
X750663Y305899D01*
X749750Y303694D01*
Y301306D01*
X750663Y299101D01*
X752351Y297414D01*
X754557Y296500D01*
X756944D01*
X759149Y297414D01*
X760837Y299101D01*
X761750Y301306D01*
Y303694D01*
X760837Y305899D01*
X759149Y307587D01*
X756944Y308500D01*
D02*
G37*
G36*
X1321343Y316000D02*
X1317657D01*
X1314096Y315046D01*
X1310904Y313203D01*
X1308297Y310596D01*
X1306454Y307404D01*
X1305500Y303843D01*
Y300157D01*
X1306454Y296596D01*
X1308297Y293404D01*
X1310904Y290797D01*
X1314096Y288954D01*
X1317657Y288000D01*
X1321343D01*
X1324904Y288954D01*
X1328096Y290797D01*
X1330703Y293404D01*
X1332546Y296596D01*
X1333500Y300157D01*
Y303843D01*
X1332546Y307404D01*
X1330703Y310596D01*
X1328096Y313203D01*
X1324904Y315046D01*
X1321343Y316000D01*
D02*
G37*
G36*
X1271343D02*
X1267657D01*
X1264096Y315046D01*
X1260904Y313203D01*
X1258297Y310596D01*
X1256454Y307404D01*
X1255500Y303843D01*
Y300157D01*
X1256454Y296596D01*
X1258297Y293404D01*
X1260904Y290797D01*
X1264096Y288954D01*
X1267657Y288000D01*
X1271343D01*
X1274904Y288954D01*
X1278096Y290797D01*
X1280703Y293404D01*
X1282546Y296596D01*
X1283500Y300157D01*
Y303843D01*
X1282546Y307404D01*
X1280703Y310596D01*
X1278096Y313203D01*
X1274904Y315046D01*
X1271343Y316000D01*
D02*
G37*
G36*
X1625343Y315000D02*
X1621657D01*
X1618096Y314046D01*
X1614904Y312203D01*
X1612297Y309596D01*
X1610454Y306404D01*
X1609500Y302843D01*
Y299157D01*
X1610454Y295596D01*
X1612297Y292404D01*
X1614904Y289797D01*
X1618096Y287954D01*
X1621657Y287000D01*
X1625343D01*
X1628904Y287954D01*
X1632096Y289797D01*
X1634703Y292404D01*
X1636546Y295596D01*
X1637500Y299157D01*
Y302843D01*
X1636546Y306404D01*
X1634703Y309596D01*
X1632096Y312203D01*
X1628904Y314046D01*
X1625343Y315000D01*
D02*
G37*
G36*
X1575343D02*
X1571657D01*
X1568096Y314046D01*
X1564904Y312203D01*
X1562297Y309596D01*
X1560454Y306404D01*
X1559500Y302843D01*
Y299157D01*
X1560454Y295596D01*
X1562297Y292404D01*
X1564904Y289797D01*
X1568096Y287954D01*
X1571657Y287000D01*
X1575343D01*
X1578904Y287954D01*
X1582096Y289797D01*
X1584703Y292404D01*
X1586546Y295596D01*
X1587500Y299157D01*
Y302843D01*
X1586546Y306404D01*
X1584703Y309596D01*
X1582096Y312203D01*
X1578904Y314046D01*
X1575343Y315000D01*
D02*
G37*
G36*
X1515093Y315000D02*
X1511407D01*
X1507846Y314046D01*
X1504654Y312203D01*
X1502047Y309596D01*
X1500204Y306404D01*
X1499250Y302843D01*
Y299157D01*
X1500204Y295596D01*
X1502047Y292404D01*
X1504654Y289797D01*
X1507846Y287954D01*
X1511407Y287000D01*
X1515093D01*
X1518654Y287954D01*
X1521846Y289797D01*
X1524453Y292404D01*
X1526296Y295596D01*
X1527250Y299157D01*
Y302843D01*
X1526296Y306404D01*
X1524453Y309596D01*
X1521846Y312203D01*
X1518654Y314046D01*
X1515093Y315000D01*
D02*
G37*
G36*
X1465093D02*
X1461407D01*
X1457846Y314046D01*
X1454654Y312203D01*
X1452047Y309596D01*
X1450204Y306404D01*
X1449250Y302843D01*
Y299157D01*
X1450204Y295596D01*
X1452047Y292404D01*
X1454654Y289797D01*
X1457846Y287954D01*
X1461407Y287000D01*
X1465093D01*
X1468654Y287954D01*
X1471846Y289797D01*
X1474453Y292404D01*
X1476296Y295596D01*
X1477250Y299157D01*
Y302843D01*
X1476296Y306404D01*
X1474453Y309596D01*
X1471846Y312203D01*
X1468654Y314046D01*
X1465093Y315000D01*
D02*
G37*
G36*
X1415093D02*
X1411407D01*
X1407846Y314046D01*
X1404654Y312203D01*
X1402047Y309596D01*
X1400204Y306404D01*
X1399250Y302843D01*
Y299157D01*
X1400204Y295596D01*
X1402047Y292404D01*
X1404654Y289797D01*
X1407846Y287954D01*
X1411407Y287000D01*
X1415093D01*
X1418654Y287954D01*
X1421846Y289797D01*
X1424453Y292404D01*
X1426296Y295596D01*
X1427250Y299157D01*
Y302843D01*
X1426296Y306404D01*
X1424453Y309596D01*
X1421846Y312203D01*
X1418654Y314046D01*
X1415093Y315000D01*
D02*
G37*
G36*
X2190220Y306640D02*
X2189270D01*
Y285370D01*
X2210540D01*
Y286320D01*
X2209674Y290675D01*
X2207975Y294777D01*
X2205508Y298468D01*
X2202368Y301608D01*
X2198677Y304075D01*
X2194575Y305774D01*
X2190220Y306640D01*
D02*
G37*
G36*
X2186730D02*
X2185780D01*
X2181425Y305774D01*
X2177323Y304075D01*
X2173632Y301608D01*
X2170492Y298468D01*
X2168025Y294777D01*
X2166326Y290675D01*
X2165460Y286320D01*
Y285370D01*
X2186730D01*
Y306640D01*
D02*
G37*
G36*
X320010D02*
X319060D01*
Y285370D01*
X340330D01*
Y286320D01*
X339464Y290675D01*
X337765Y294777D01*
X335298Y298468D01*
X332158Y301608D01*
X328467Y304075D01*
X324365Y305774D01*
X320010Y306640D01*
D02*
G37*
G36*
X316520D02*
X315570D01*
X311215Y305774D01*
X307113Y304075D01*
X303422Y301608D01*
X300282Y298468D01*
X297815Y294777D01*
X296116Y290675D01*
X295250Y286320D01*
Y285370D01*
X316520D01*
Y306640D01*
D02*
G37*
G36*
X1729444Y297020D02*
X1727056D01*
X1724851Y296107D01*
X1723163Y294419D01*
X1722250Y292213D01*
Y289827D01*
X1723163Y287621D01*
X1724851Y285933D01*
X1727056Y285020D01*
X1729444D01*
X1731649Y285933D01*
X1733337Y287621D01*
X1734250Y289827D01*
Y292213D01*
X1733337Y294419D01*
X1731649Y296107D01*
X1729444Y297020D01*
D02*
G37*
G36*
X1776922Y296500D02*
X1775078D01*
X1773298Y296023D01*
X1771702Y295101D01*
X1770399Y293798D01*
X1769477Y292202D01*
X1769000Y290422D01*
Y288578D01*
X1769477Y286798D01*
X1770399Y285202D01*
X1771702Y283899D01*
X1773298Y282977D01*
X1775078Y282500D01*
X1776922D01*
X1778702Y282977D01*
X1780298Y283899D01*
X1781601Y285202D01*
X1782523Y286798D01*
X1783000Y288578D01*
Y290422D01*
X1782523Y292202D01*
X1781601Y293798D01*
X1780298Y295101D01*
X1778702Y296023D01*
X1776922Y296500D01*
D02*
G37*
G36*
X1970943Y279500D02*
X1968557D01*
X1966351Y278587D01*
X1964664Y276899D01*
X1963750Y274694D01*
Y272306D01*
X1964664Y270101D01*
X1966351Y268413D01*
X1968557Y267500D01*
X1970943D01*
X1973149Y268413D01*
X1974837Y270101D01*
X1975750Y272306D01*
Y274694D01*
X1974837Y276899D01*
X1973149Y278587D01*
X1970943Y279500D01*
D02*
G37*
G36*
X2210540Y282830D02*
X2189270D01*
Y261560D01*
X2190220D01*
X2194575Y262426D01*
X2198677Y264125D01*
X2202368Y266592D01*
X2205508Y269732D01*
X2207975Y273423D01*
X2209674Y277525D01*
X2210540Y281880D01*
Y282830D01*
D02*
G37*
G36*
X2186730D02*
X2165460D01*
Y281880D01*
X2166326Y277525D01*
X2168025Y273423D01*
X2170492Y269732D01*
X2173632Y266592D01*
X2177323Y264125D01*
X2181425Y262426D01*
X2185780Y261560D01*
X2186730D01*
Y282830D01*
D02*
G37*
G36*
X340330D02*
X319060D01*
Y261560D01*
X320010D01*
X324365Y262426D01*
X328467Y264125D01*
X332158Y266592D01*
X335298Y269732D01*
X337765Y273423D01*
X339464Y277525D01*
X340330Y281880D01*
Y282830D01*
D02*
G37*
G36*
X316520D02*
X295250D01*
Y281880D01*
X296116Y277525D01*
X297815Y273423D01*
X300282Y269732D01*
X303422Y266592D01*
X307113Y264125D01*
X311215Y262426D01*
X315570Y261560D01*
X316520D01*
Y282830D01*
D02*
G37*
G36*
X1803443Y273000D02*
X1801057D01*
X1798851Y272087D01*
X1797163Y270399D01*
X1796250Y268193D01*
Y265807D01*
X1797163Y263601D01*
X1798851Y261913D01*
X1801057Y261000D01*
X1803443D01*
X1805649Y261913D01*
X1807336Y263601D01*
X1808250Y265807D01*
Y268193D01*
X1807336Y270399D01*
X1805649Y272087D01*
X1803443Y273000D01*
D02*
G37*
G36*
X1744593Y1036700D02*
X1742487D01*
X1740452Y1036155D01*
X1738628Y1035102D01*
X1737138Y1033612D01*
X1736085Y1031788D01*
X1735540Y1029753D01*
Y1027647D01*
X1736085Y1025612D01*
X1737138Y1023788D01*
X1738628Y1022298D01*
X1740452Y1021245D01*
X1742487Y1020700D01*
X1744593D01*
X1746628Y1021245D01*
X1748452Y1022298D01*
X1749942Y1023788D01*
X1750995Y1025612D01*
X1751540Y1027647D01*
Y1029753D01*
X1750995Y1031788D01*
X1749942Y1033612D01*
X1748452Y1035102D01*
X1746628Y1036155D01*
X1744593Y1036700D01*
D02*
G37*
G36*
X1654593D02*
X1652487D01*
X1650452Y1036155D01*
X1648628Y1035102D01*
X1647138Y1033612D01*
X1646085Y1031788D01*
X1645540Y1029753D01*
Y1027647D01*
X1646085Y1025612D01*
X1647138Y1023788D01*
X1648628Y1022298D01*
X1650452Y1021245D01*
X1652487Y1020700D01*
X1654593D01*
X1656628Y1021245D01*
X1658452Y1022298D01*
X1659942Y1023788D01*
X1660995Y1025612D01*
X1661540Y1027647D01*
Y1029753D01*
X1660995Y1031788D01*
X1659942Y1033612D01*
X1658452Y1035102D01*
X1656628Y1036155D01*
X1654593Y1036700D01*
D02*
G37*
G36*
X1771770Y1013966D02*
Y1007770D01*
X1777966D01*
X1777526Y1009410D01*
X1776534Y1011130D01*
X1775130Y1012533D01*
X1773410Y1013526D01*
X1771770Y1013966D01*
D02*
G37*
G36*
X1769230D02*
X1767590Y1013526D01*
X1765870Y1012533D01*
X1764467Y1011130D01*
X1763474Y1009410D01*
X1763034Y1007770D01*
X1769230D01*
Y1013966D01*
D02*
G37*
G36*
X1715120Y1031300D02*
X1711960D01*
X1708908Y1030482D01*
X1706172Y1028902D01*
X1703938Y1026668D01*
X1702358Y1023932D01*
X1701540Y1020880D01*
Y1017720D01*
X1702358Y1014668D01*
X1703938Y1011932D01*
X1706172Y1009698D01*
X1708908Y1008118D01*
X1711960Y1007300D01*
X1715120D01*
X1718172Y1008118D01*
X1720908Y1009698D01*
X1723142Y1011932D01*
X1724722Y1014668D01*
X1725540Y1017720D01*
Y1020880D01*
X1724722Y1023932D01*
X1723142Y1026668D01*
X1720908Y1028902D01*
X1718172Y1030482D01*
X1715120Y1031300D01*
D02*
G37*
G36*
X1685120D02*
X1681960D01*
X1678908Y1030482D01*
X1676172Y1028902D01*
X1673938Y1026668D01*
X1672358Y1023932D01*
X1671540Y1020880D01*
Y1017720D01*
X1672358Y1014668D01*
X1673938Y1011932D01*
X1676172Y1009698D01*
X1678908Y1008118D01*
X1681960Y1007300D01*
X1685120D01*
X1688172Y1008118D01*
X1690908Y1009698D01*
X1693142Y1011932D01*
X1694722Y1014668D01*
X1695540Y1017720D01*
Y1020880D01*
X1694722Y1023932D01*
X1693142Y1026668D01*
X1690908Y1028902D01*
X1688172Y1030482D01*
X1685120Y1031300D01*
D02*
G37*
G36*
X1777966Y1005230D02*
X1771770D01*
Y999034D01*
X1773410Y999474D01*
X1775130Y1000467D01*
X1776534Y1001870D01*
X1777526Y1003590D01*
X1777966Y1005230D01*
D02*
G37*
G36*
X1769230D02*
X1763034D01*
X1763474Y1003590D01*
X1764467Y1001870D01*
X1765870Y1000467D01*
X1767590Y999474D01*
X1769230Y999034D01*
Y1005230D01*
D02*
G37*
G36*
X1718540Y1001905D02*
X1714810D01*
Y990570D01*
X1726145D01*
Y994300D01*
X1725886Y996268D01*
X1725126Y998103D01*
X1723918Y999678D01*
X1722343Y1000886D01*
X1720508Y1001646D01*
X1718540Y1001905D01*
D02*
G37*
G36*
X1712270D02*
X1708540D01*
X1706572Y1001646D01*
X1704738Y1000886D01*
X1703162Y999678D01*
X1701954Y998103D01*
X1701194Y996268D01*
X1700935Y994300D01*
Y990570D01*
X1712270D01*
Y1001905D01*
D02*
G37*
G36*
X1685120Y1001300D02*
X1681960D01*
X1678908Y1000482D01*
X1676172Y998902D01*
X1673938Y996668D01*
X1672358Y993932D01*
X1671540Y990880D01*
Y987720D01*
X1672358Y984668D01*
X1673938Y981932D01*
X1676172Y979698D01*
X1678908Y978118D01*
X1681960Y977300D01*
X1685120D01*
X1688172Y978118D01*
X1690908Y979698D01*
X1693142Y981932D01*
X1694722Y984668D01*
X1695540Y987720D01*
Y990880D01*
X1694722Y993932D01*
X1693142Y996668D01*
X1690908Y998902D01*
X1688172Y1000482D01*
X1685120Y1001300D01*
D02*
G37*
G36*
X1726145Y988030D02*
X1714810D01*
Y976695D01*
X1718540D01*
X1720508Y976954D01*
X1722343Y977714D01*
X1723918Y978922D01*
X1725126Y980498D01*
X1725886Y982332D01*
X1726145Y984300D01*
Y988030D01*
D02*
G37*
G36*
X1712270D02*
X1700935D01*
Y984300D01*
X1701194Y982332D01*
X1701954Y980498D01*
X1703162Y978922D01*
X1704738Y977714D01*
X1706572Y976954D01*
X1708540Y976695D01*
X1712270D01*
Y988030D01*
D02*
G37*
G36*
X1641270Y979966D02*
Y973770D01*
X1647466D01*
X1647026Y975410D01*
X1646033Y977130D01*
X1644630Y978533D01*
X1642910Y979526D01*
X1641270Y979966D01*
D02*
G37*
G36*
X1638730D02*
X1637090Y979526D01*
X1635370Y978533D01*
X1633967Y977130D01*
X1632974Y975410D01*
X1632534Y973770D01*
X1638730D01*
Y979966D01*
D02*
G37*
G36*
X1647466Y971230D02*
X1641270D01*
Y965034D01*
X1642910Y965474D01*
X1644630Y966467D01*
X1646033Y967870D01*
X1647026Y969590D01*
X1647466Y971230D01*
D02*
G37*
G36*
X1638730D02*
X1632534D01*
X1632974Y969590D01*
X1633967Y967870D01*
X1635370Y966467D01*
X1637090Y965474D01*
X1638730Y965034D01*
Y971230D01*
D02*
G37*
G36*
X1608050Y960466D02*
Y954270D01*
X1614246D01*
X1613806Y955910D01*
X1612813Y957630D01*
X1611410Y959033D01*
X1609690Y960026D01*
X1608050Y960466D01*
D02*
G37*
G36*
X1605510D02*
X1603870Y960026D01*
X1602150Y959033D01*
X1600746Y957630D01*
X1599754Y955910D01*
X1599314Y954270D01*
X1605510D01*
Y960466D01*
D02*
G37*
G36*
X1614246Y951730D02*
X1608050D01*
Y945534D01*
X1609690Y945974D01*
X1611410Y946966D01*
X1612813Y948370D01*
X1613806Y950090D01*
X1614246Y951730D01*
D02*
G37*
G36*
X1605510D02*
X1599314D01*
X1599754Y950090D01*
X1600746Y948370D01*
X1602150Y946966D01*
X1603870Y945974D01*
X1605510Y945534D01*
Y951730D01*
D02*
G37*
G36*
X1597270Y899216D02*
Y893020D01*
X1603466D01*
X1603026Y894660D01*
X1602034Y896380D01*
X1600630Y897784D01*
X1598910Y898776D01*
X1597270Y899216D01*
D02*
G37*
G36*
X1594730D02*
X1593090Y898776D01*
X1591370Y897784D01*
X1589966Y896380D01*
X1588974Y894660D01*
X1588534Y893020D01*
X1594730D01*
Y899216D01*
D02*
G37*
G36*
X1603466Y890480D02*
X1597270D01*
Y884284D01*
X1598910Y884724D01*
X1600630Y885716D01*
X1602034Y887120D01*
X1603026Y888840D01*
X1603466Y890480D01*
D02*
G37*
G36*
X1594730D02*
X1588534D01*
X1588974Y888840D01*
X1589966Y887120D01*
X1591370Y885716D01*
X1593090Y884724D01*
X1594730Y884284D01*
Y890480D01*
D02*
G37*
G36*
X1586770Y870966D02*
Y864770D01*
X1592966D01*
X1592526Y866410D01*
X1591534Y868130D01*
X1590130Y869533D01*
X1588410Y870526D01*
X1586770Y870966D01*
D02*
G37*
G36*
X1584230D02*
X1582590Y870526D01*
X1580870Y869533D01*
X1579467Y868130D01*
X1578474Y866410D01*
X1578034Y864770D01*
X1584230D01*
Y870966D01*
D02*
G37*
G36*
X1592966Y862230D02*
X1586770D01*
Y856034D01*
X1588410Y856474D01*
X1590130Y857467D01*
X1591534Y858870D01*
X1592526Y860590D01*
X1592966Y862230D01*
D02*
G37*
G36*
X1584230D02*
X1578034D01*
X1578474Y860590D01*
X1579467Y858870D01*
X1580870Y857467D01*
X1582590Y856474D01*
X1584230Y856034D01*
Y862230D01*
D02*
G37*
%LPD*%
D17*
X349000Y459250D02*
D03*
X379000D02*
D03*
X2207260Y539750D02*
D03*
X2235660Y581300D02*
D03*
D80*
X601250Y954750D02*
D03*
D84*
X1101180Y382030D02*
D03*
D89*
X1870000Y885000D02*
D03*
X1841250Y910500D02*
D03*
X1621390Y1004570D02*
D03*
D94*
X1760830Y577080D02*
D03*
X1282500Y585500D02*
D03*
X1600860Y497840D02*
D03*
X1534000Y612500D02*
D03*
X1618500Y724000D02*
D03*
X1724660Y620370D02*
D03*
X2173250Y742358D02*
D03*
X2156750Y793000D02*
D03*
X2198500Y795500D02*
D03*
X1640000Y972500D02*
D03*
X1689500Y431750D02*
D03*
X1690000Y379000D02*
D03*
X1690100Y328317D02*
D03*
X1877750Y333750D02*
D03*
X1733750Y342250D02*
D03*
X1878500Y374750D02*
D03*
X1733000Y395310D02*
D03*
X1893250Y429000D02*
D03*
X1792500Y431750D02*
D03*
X1733397Y447473D02*
D03*
X1845500Y453500D02*
D03*
X1927750Y467000D02*
D03*
X1749500Y516750D02*
D03*
X1774924Y532931D02*
D03*
X2007750Y333250D02*
D03*
X2007500Y374500D02*
D03*
X2007000Y415000D02*
D03*
X1894000Y1003500D02*
D03*
X1838250Y1021500D02*
D03*
X1770500Y1006500D02*
D03*
X1762500Y681750D02*
D03*
X1585500Y863500D02*
D03*
X1813750Y717250D02*
D03*
X1763000Y783500D02*
D03*
X1630500Y942250D02*
D03*
X1685250Y946000D02*
D03*
X1596000Y891750D02*
D03*
X1606780Y953000D02*
D03*
X2037750Y847750D02*
D03*
X2077250Y875250D02*
D03*
X2036250Y882750D02*
D03*
X2037000Y957250D02*
D03*
X2077500Y984500D02*
D03*
X2036000Y989750D02*
D03*
X1941750Y716000D02*
D03*
X1977500Y736750D02*
D03*
X1986500Y796000D02*
D03*
X1438750Y627750D02*
D03*
X1381862Y943155D02*
D03*
X514500Y428500D02*
D03*
X469000Y449250D02*
D03*
X671750Y308250D02*
D03*
X668000Y329000D02*
D03*
X659500Y371500D02*
D03*
X1623060Y368500D02*
D03*
X1409000Y408500D02*
D03*
X1484000Y409000D02*
D03*
X1550250Y407750D02*
D03*
X1369500Y366750D02*
D03*
X1443000Y365500D02*
D03*
X1511750Y366000D02*
D03*
X1329772Y688740D02*
D03*
X1286000Y740750D02*
D03*
X694335Y319924D02*
D03*
X602000Y933250D02*
D03*
D99*
X1713540Y989300D02*
D03*
X2106650Y967340D02*
D03*
D101*
X1936000Y308000D02*
D03*
X1759310Y334370D02*
D03*
X1794000Y342500D02*
D03*
X1759310Y386440D02*
D03*
Y438510D02*
D03*
X2005500Y386750D02*
D03*
X1956000Y533750D02*
D03*
X755750Y302500D02*
D03*
X1728250Y291020D02*
D03*
X1493500Y778500D02*
D03*
X1469185Y748869D02*
D03*
X1571250Y635750D02*
D03*
X1694500Y687000D02*
D03*
X1649623Y835834D02*
D03*
X1615155Y797750D02*
D03*
X1650250Y794000D02*
D03*
X1615000Y747500D02*
D03*
X1682000Y907000D02*
D03*
X1745750Y609750D02*
D03*
X598000Y338500D02*
D03*
D03*
X689641Y370475D02*
D03*
D102*
X2188000Y1024100D02*
D03*
Y284100D02*
D03*
X317790D02*
D03*
M02*
