G04*
G04 #@! TF.GenerationSoftware,Altium Limited,Altium Designer,22.7.1 (60)*
G04*
G04 Layer_Color=128*
%FSLAX44Y44*%
%MOMM*%
G71*
G04*
G04 #@! TF.SameCoordinates,3D511D00-9B74-4921-819B-1F54B840CB57*
G04*
G04*
G04 #@! TF.FilePolarity,Positive*
G04*
G01*
G75*
%ADD127C,0.0508*%
D127*
X1797000Y961500D02*
X1805000D01*
X1801000Y957500D02*
Y965500D01*
X1822500Y962000D02*
X1830500D01*
X1826500Y958000D02*
Y966000D01*
X1615860Y497840D02*
X1623860D01*
X1619860Y493840D02*
Y501840D01*
X1595750Y724750D02*
X1603750D01*
X1599750Y720750D02*
Y728750D01*
X1720660Y601370D02*
X1728660D01*
X1724660Y597370D02*
Y605370D01*
X1846000Y961250D02*
X1854000D01*
X1850000Y957250D02*
Y965250D01*
X1474425Y629131D02*
X1482425D01*
X1478425Y625131D02*
Y633131D01*
X1758153Y802970D02*
X1766153D01*
X1762153Y798970D02*
Y806970D01*
X1914750Y923750D02*
X1922750D01*
X1918750Y919750D02*
Y927750D01*
X1870750Y960750D02*
X1878750D01*
X1874750Y956750D02*
Y964750D01*
X1616250Y978750D02*
X1624250D01*
X1620250Y974750D02*
Y982750D01*
X1813750Y913750D02*
X1818750D01*
X1816250Y911250D02*
Y916250D01*
X1997000Y815250D02*
X2005000D01*
X2001000Y811250D02*
Y819250D01*
X1432500Y663000D02*
X1440500D01*
X1436500Y659000D02*
Y667000D01*
X1378250Y962500D02*
X1386250D01*
X1382250Y958500D02*
Y966500D01*
X1914750Y1034750D02*
X1922750D01*
X1918750Y1030750D02*
Y1038750D01*
X1390500Y581750D02*
X1398500D01*
X1394500Y577750D02*
Y585750D01*
X1434750Y604500D02*
X1442750D01*
X1438750Y600500D02*
Y608500D01*
X1473500Y579250D02*
X1481500D01*
X1477500Y575250D02*
Y583250D01*
M02*
