M48
;Layer_Color=9474304
;FILE_FORMAT=4:4
METRIC
;TYPE=PLATED
T2F00S00C0.3000
T3F00S00C0.5000
;TYPE=NON_PLATED
%
T02
X00365750Y00184500
X00598000Y00109250
X00596750Y00032250
X00703000Y00041500
X00776750Y00129250
X00717000Y00255750
X00664750Y00258250
X00653250Y00239750
X00705000Y00310250
X00748250Y00340250
X00788250Y00395000
X00799250Y00340000
X00807250Y00097500
X00844750Y00114000
X00922500Y00100750
X00931250Y00068250
X00937250Y00038250
X00919750Y00140500
X00920750Y00190500
X00992121Y00244433
X01012500Y00271750
X01054250Y00272000
X01070750
X01159750Y00272500
X01201750Y00215000
X01314750Y00246500
X01436250Y00215750
X01430500Y00361250
X01442750Y00462750
X01460500Y00486500
X01490000Y00485250
X01506250Y00518750
X01443250Y00507500
X01420000Y00596000
X01191250Y00598000
X01292750Y00491500
T03
X00263000Y00121000
M30
