G04*
G04 #@! TF.GenerationSoftware,Altium Limited,Altium Designer,22.10.1 (41)*
G04*
G04 Layer_Color=8388736*
%FSLAX44Y44*%
%MOMM*%
G71*
G04*
G04 #@! TF.SameCoordinates,830E0DF6-D43A-447C-AE08-53C85F4981D2*
G04*
G04*
G04 #@! TF.FilePolarity,Negative*
G04*
G01*
G75*
G04:AMPARAMS|DCode=42|XSize=0.8032mm|YSize=2.2032mm|CornerRadius=0.2516mm|HoleSize=0mm|Usage=FLASHONLY|Rotation=90.000|XOffset=0mm|YOffset=0mm|HoleType=Round|Shape=RoundedRectangle|*
%AMROUNDEDRECTD42*
21,1,0.8032,1.7000,0,0,90.0*
21,1,0.3000,2.2032,0,0,90.0*
1,1,0.5032,0.8500,0.1500*
1,1,0.5032,0.8500,-0.1500*
1,1,0.5032,-0.8500,-0.1500*
1,1,0.5032,-0.8500,0.1500*
%
%ADD42ROUNDEDRECTD42*%
%ADD43R,1.5032X1.1032*%
G04:AMPARAMS|DCode=44|XSize=1.4032mm|YSize=2.9532mm|CornerRadius=0.4016mm|HoleSize=0mm|Usage=FLASHONLY|Rotation=90.000|XOffset=0mm|YOffset=0mm|HoleType=Round|Shape=RoundedRectangle|*
%AMROUNDEDRECTD44*
21,1,1.4032,2.1500,0,0,90.0*
21,1,0.6000,2.9532,0,0,90.0*
1,1,0.8032,1.0750,0.3000*
1,1,0.8032,1.0750,-0.3000*
1,1,0.8032,-1.0750,-0.3000*
1,1,0.8032,-1.0750,0.3000*
%
%ADD44ROUNDEDRECTD44*%
%ADD45R,1.5532X1.3532*%
%ADD46R,1.1032X1.5032*%
G04:AMPARAMS|DCode=47|XSize=0.7532mm|YSize=1.7032mm|CornerRadius=0.2391mm|HoleSize=0mm|Usage=FLASHONLY|Rotation=90.000|XOffset=0mm|YOffset=0mm|HoleType=Round|Shape=RoundedRectangle|*
%AMROUNDEDRECTD47*
21,1,0.7532,1.2250,0,0,90.0*
21,1,0.2750,1.7032,0,0,90.0*
1,1,0.4782,0.6125,0.1375*
1,1,0.4782,0.6125,-0.1375*
1,1,0.4782,-0.6125,-0.1375*
1,1,0.4782,-0.6125,0.1375*
%
%ADD47ROUNDEDRECTD47*%
G04:AMPARAMS|DCode=48|XSize=0.7532mm|YSize=1.7032mm|CornerRadius=0.2391mm|HoleSize=0mm|Usage=FLASHONLY|Rotation=0.000|XOffset=0mm|YOffset=0mm|HoleType=Round|Shape=RoundedRectangle|*
%AMROUNDEDRECTD48*
21,1,0.7532,1.2250,0,0,0.0*
21,1,0.2750,1.7032,0,0,0.0*
1,1,0.4782,0.1375,-0.6125*
1,1,0.4782,-0.1375,-0.6125*
1,1,0.4782,-0.1375,0.6125*
1,1,0.4782,0.1375,0.6125*
%
%ADD48ROUNDEDRECTD48*%
G04:AMPARAMS|DCode=49|XSize=0.8532mm|YSize=1.4532mm|CornerRadius=0.2641mm|HoleSize=0mm|Usage=FLASHONLY|Rotation=180.000|XOffset=0mm|YOffset=0mm|HoleType=Round|Shape=RoundedRectangle|*
%AMROUNDEDRECTD49*
21,1,0.8532,0.9250,0,0,180.0*
21,1,0.3250,1.4532,0,0,180.0*
1,1,0.5282,-0.1625,0.4625*
1,1,0.5282,0.1625,0.4625*
1,1,0.5282,0.1625,-0.4625*
1,1,0.5282,-0.1625,-0.4625*
%
%ADD49ROUNDEDRECTD49*%
G04:AMPARAMS|DCode=50|XSize=0.8532mm|YSize=1.4532mm|CornerRadius=0.2641mm|HoleSize=0mm|Usage=FLASHONLY|Rotation=90.000|XOffset=0mm|YOffset=0mm|HoleType=Round|Shape=RoundedRectangle|*
%AMROUNDEDRECTD50*
21,1,0.8532,0.9250,0,0,90.0*
21,1,0.3250,1.4532,0,0,90.0*
1,1,0.5282,0.4625,0.1625*
1,1,0.5282,0.4625,-0.1625*
1,1,0.5282,-0.4625,-0.1625*
1,1,0.5282,-0.4625,0.1625*
%
%ADD50ROUNDEDRECTD50*%
%ADD51R,1.3532X1.5532*%
G04:AMPARAMS|DCode=52|XSize=1.4032mm|YSize=2.9532mm|CornerRadius=0.4016mm|HoleSize=0mm|Usage=FLASHONLY|Rotation=180.000|XOffset=0mm|YOffset=0mm|HoleType=Round|Shape=RoundedRectangle|*
%AMROUNDEDRECTD52*
21,1,1.4032,2.1500,0,0,180.0*
21,1,0.6000,2.9532,0,0,180.0*
1,1,0.8032,-0.3000,1.0750*
1,1,0.8032,0.3000,1.0750*
1,1,0.8032,0.3000,-1.0750*
1,1,0.8032,-0.3000,-1.0750*
%
%ADD52ROUNDEDRECTD52*%
G04:AMPARAMS|DCode=53|XSize=1.9032mm|YSize=2.7032mm|CornerRadius=0.5266mm|HoleSize=0mm|Usage=FLASHONLY|Rotation=180.000|XOffset=0mm|YOffset=0mm|HoleType=Round|Shape=RoundedRectangle|*
%AMROUNDEDRECTD53*
21,1,1.9032,1.6500,0,0,180.0*
21,1,0.8500,2.7032,0,0,180.0*
1,1,1.0532,-0.4250,0.8250*
1,1,1.0532,0.4250,0.8250*
1,1,1.0532,0.4250,-0.8250*
1,1,1.0532,-0.4250,-0.8250*
%
%ADD53ROUNDEDRECTD53*%
%ADD54R,7.1032X5.8032*%
%ADD55R,2.2032X3.0032*%
G04:AMPARAMS|DCode=56|XSize=3.5032mm|YSize=2.5032mm|CornerRadius=0.6766mm|HoleSize=0mm|Usage=FLASHONLY|Rotation=0.000|XOffset=0mm|YOffset=0mm|HoleType=Round|Shape=RoundedRectangle|*
%AMROUNDEDRECTD56*
21,1,3.5032,1.1500,0,0,0.0*
21,1,2.1500,2.5032,0,0,0.0*
1,1,1.3532,1.0750,-0.5750*
1,1,1.3532,-1.0750,-0.5750*
1,1,1.3532,-1.0750,0.5750*
1,1,1.3532,1.0750,0.5750*
%
%ADD56ROUNDEDRECTD56*%
G04:AMPARAMS|DCode=57|XSize=1.2032mm|YSize=2.3032mm|CornerRadius=0.3516mm|HoleSize=0mm|Usage=FLASHONLY|Rotation=270.000|XOffset=0mm|YOffset=0mm|HoleType=Round|Shape=RoundedRectangle|*
%AMROUNDEDRECTD57*
21,1,1.2032,1.6000,0,0,270.0*
21,1,0.5000,2.3032,0,0,270.0*
1,1,0.7032,-0.8000,-0.2500*
1,1,0.7032,-0.8000,0.2500*
1,1,0.7032,0.8000,0.2500*
1,1,0.7032,0.8000,-0.2500*
%
%ADD57ROUNDEDRECTD57*%
G04:AMPARAMS|DCode=58|XSize=3.5032mm|YSize=2.3032mm|CornerRadius=0.6266mm|HoleSize=0mm|Usage=FLASHONLY|Rotation=270.000|XOffset=0mm|YOffset=0mm|HoleType=Round|Shape=RoundedRectangle|*
%AMROUNDEDRECTD58*
21,1,3.5032,1.0500,0,0,270.0*
21,1,2.2500,2.3032,0,0,270.0*
1,1,1.2532,-0.5250,-1.1250*
1,1,1.2532,-0.5250,1.1250*
1,1,1.2532,0.5250,1.1250*
1,1,1.2532,0.5250,-1.1250*
%
%ADD58ROUNDEDRECTD58*%
%ADD59R,1.5032X2.4032*%
G04:AMPARAMS|DCode=60|XSize=1.9532mm|YSize=1.4532mm|CornerRadius=0.4141mm|HoleSize=0mm|Usage=FLASHONLY|Rotation=90.000|XOffset=0mm|YOffset=0mm|HoleType=Round|Shape=RoundedRectangle|*
%AMROUNDEDRECTD60*
21,1,1.9532,0.6250,0,0,90.0*
21,1,1.1250,1.4532,0,0,90.0*
1,1,0.8282,0.3125,0.5625*
1,1,0.8282,0.3125,-0.5625*
1,1,0.8282,-0.3125,-0.5625*
1,1,0.8282,-0.3125,0.5625*
%
%ADD60ROUNDEDRECTD60*%
G04:AMPARAMS|DCode=61|XSize=1.5032mm|YSize=1.3032mm|CornerRadius=0.3766mm|HoleSize=0mm|Usage=FLASHONLY|Rotation=90.000|XOffset=0mm|YOffset=0mm|HoleType=Round|Shape=RoundedRectangle|*
%AMROUNDEDRECTD61*
21,1,1.5032,0.5500,0,0,90.0*
21,1,0.7500,1.3032,0,0,90.0*
1,1,0.7532,0.2750,0.3750*
1,1,0.7532,0.2750,-0.3750*
1,1,0.7532,-0.2750,-0.3750*
1,1,0.7532,-0.2750,0.3750*
%
%ADD61ROUNDEDRECTD61*%
G04:AMPARAMS|DCode=62|XSize=1.4032mm|YSize=1.3032mm|CornerRadius=0.3766mm|HoleSize=0mm|Usage=FLASHONLY|Rotation=180.000|XOffset=0mm|YOffset=0mm|HoleType=Round|Shape=RoundedRectangle|*
%AMROUNDEDRECTD62*
21,1,1.4032,0.5500,0,0,180.0*
21,1,0.6500,1.3032,0,0,180.0*
1,1,0.7532,-0.3250,0.2750*
1,1,0.7532,0.3250,0.2750*
1,1,0.7532,0.3250,-0.2750*
1,1,0.7532,-0.3250,-0.2750*
%
%ADD62ROUNDEDRECTD62*%
G04:AMPARAMS|DCode=63|XSize=0.8032mm|YSize=1.7532mm|CornerRadius=0.2516mm|HoleSize=0mm|Usage=FLASHONLY|Rotation=90.000|XOffset=0mm|YOffset=0mm|HoleType=Round|Shape=RoundedRectangle|*
%AMROUNDEDRECTD63*
21,1,0.8032,1.2500,0,0,90.0*
21,1,0.3000,1.7532,0,0,90.0*
1,1,0.5032,0.6250,0.1500*
1,1,0.5032,0.6250,-0.1500*
1,1,0.5032,-0.6250,-0.1500*
1,1,0.5032,-0.6250,0.1500*
%
%ADD63ROUNDEDRECTD63*%
G04:AMPARAMS|DCode=64|XSize=1.5032mm|YSize=1.3032mm|CornerRadius=0.3766mm|HoleSize=0mm|Usage=FLASHONLY|Rotation=180.000|XOffset=0mm|YOffset=0mm|HoleType=Round|Shape=RoundedRectangle|*
%AMROUNDEDRECTD64*
21,1,1.5032,0.5500,0,0,180.0*
21,1,0.7500,1.3032,0,0,180.0*
1,1,0.7532,-0.3750,0.2750*
1,1,0.7532,0.3750,0.2750*
1,1,0.7532,0.3750,-0.2750*
1,1,0.7532,-0.3750,-0.2750*
%
%ADD64ROUNDEDRECTD64*%
%ADD65R,1.8032X1.4032*%
%ADD66C,1.2032*%
%ADD67C,1.8032*%
%ADD68R,1.8032X1.8032*%
%ADD69C,2.0032*%
%ADD70C,2.2032*%
%ADD71C,1.7032*%
%ADD72C,1.4032*%
%ADD73R,1.4032X1.4032*%
%ADD74C,1.5032*%
%ADD75R,2.2032X2.2032*%
G04:AMPARAMS|DCode=76|XSize=2.2032mm|YSize=2.2032mm|CornerRadius=0.6016mm|HoleSize=0mm|Usage=FLASHONLY|Rotation=90.000|XOffset=0mm|YOffset=0mm|HoleType=Round|Shape=RoundedRectangle|*
%AMROUNDEDRECTD76*
21,1,2.2032,1.0000,0,0,90.0*
21,1,1.0000,2.2032,0,0,90.0*
1,1,1.2032,0.5000,0.5000*
1,1,1.2032,0.5000,-0.5000*
1,1,1.2032,-0.5000,-0.5000*
1,1,1.2032,-0.5000,0.5000*
%
%ADD76ROUNDEDRECTD76*%
G04:AMPARAMS|DCode=77|XSize=2.0032mm|YSize=2.0032mm|CornerRadius=0.5516mm|HoleSize=0mm|Usage=FLASHONLY|Rotation=270.000|XOffset=0mm|YOffset=0mm|HoleType=Round|Shape=RoundedRectangle|*
%AMROUNDEDRECTD77*
21,1,2.0032,0.9000,0,0,270.0*
21,1,0.9000,2.0032,0,0,270.0*
1,1,1.1032,-0.4500,-0.4500*
1,1,1.1032,-0.4500,0.4500*
1,1,1.1032,0.4500,0.4500*
1,1,1.1032,0.4500,-0.4500*
%
%ADD77ROUNDEDRECTD77*%
%ADD78C,8.2032*%
%ADD79C,2.7032*%
%ADD80R,2.0032X2.0032*%
%ADD81C,1.6032*%
G04:AMPARAMS|DCode=82|XSize=2.2032mm|YSize=2.2032mm|CornerRadius=0.6016mm|HoleSize=0mm|Usage=FLASHONLY|Rotation=180.000|XOffset=0mm|YOffset=0mm|HoleType=Round|Shape=RoundedRectangle|*
%AMROUNDEDRECTD82*
21,1,2.2032,1.0000,0,0,180.0*
21,1,1.0000,2.2032,0,0,180.0*
1,1,1.2032,-0.5000,0.5000*
1,1,1.2032,0.5000,0.5000*
1,1,1.2032,0.5000,-0.5000*
1,1,1.2032,-0.5000,-0.5000*
%
%ADD82ROUNDEDRECTD82*%
%ADD83C,3.4032*%
%ADD84C,0.9032*%
%ADD85C,0.7032*%
%ADD86C,1.0032*%
D42*
X1271760Y210030D02*
D03*
Y197330D02*
D03*
Y184630D02*
D03*
Y171930D02*
D03*
Y159230D02*
D03*
Y146530D02*
D03*
Y133830D02*
D03*
Y121130D02*
D03*
X1364760Y210030D02*
D03*
Y197330D02*
D03*
Y184630D02*
D03*
Y171930D02*
D03*
Y159230D02*
D03*
Y146530D02*
D03*
Y133830D02*
D03*
Y121130D02*
D03*
X1258250Y596700D02*
D03*
Y584000D02*
D03*
Y571300D02*
D03*
Y558600D02*
D03*
Y545900D02*
D03*
Y533200D02*
D03*
Y520500D02*
D03*
Y507800D02*
D03*
X1351250Y596700D02*
D03*
Y584000D02*
D03*
Y571300D02*
D03*
Y558600D02*
D03*
Y545900D02*
D03*
Y533200D02*
D03*
Y520500D02*
D03*
Y507800D02*
D03*
D43*
X1249590Y212290D02*
D03*
Y193290D02*
D03*
X1231810Y212290D02*
D03*
Y193290D02*
D03*
X1214030Y212290D02*
D03*
Y193290D02*
D03*
X1388760Y136580D02*
D03*
Y117580D02*
D03*
X1423510Y173580D02*
D03*
Y154580D02*
D03*
X1406510Y173580D02*
D03*
Y154580D02*
D03*
X1389010Y173580D02*
D03*
Y154580D02*
D03*
X1423760Y193080D02*
D03*
Y212080D02*
D03*
X1406260Y193080D02*
D03*
Y212080D02*
D03*
X1388760Y193080D02*
D03*
Y212080D02*
D03*
X1582750Y185250D02*
D03*
Y166250D02*
D03*
X1407540Y595830D02*
D03*
Y576830D02*
D03*
X1389760Y595830D02*
D03*
Y576830D02*
D03*
X1372480Y595830D02*
D03*
Y576830D02*
D03*
X1407010Y553830D02*
D03*
Y534830D02*
D03*
X1389760Y553830D02*
D03*
Y534830D02*
D03*
X1372760Y553830D02*
D03*
Y534830D02*
D03*
X1417130Y360900D02*
D03*
Y379900D02*
D03*
X1399350Y360900D02*
D03*
Y379900D02*
D03*
X1381570Y360900D02*
D03*
Y379900D02*
D03*
X1583510Y221580D02*
D03*
Y202580D02*
D03*
X1237684Y600504D02*
D03*
Y581504D02*
D03*
X1220652Y600504D02*
D03*
Y581504D02*
D03*
X1203620Y600504D02*
D03*
Y581504D02*
D03*
X1373510Y506080D02*
D03*
Y487080D02*
D03*
X721750Y68750D02*
D03*
Y49750D02*
D03*
D44*
X1554757Y187476D02*
D03*
X1471243Y162024D02*
D03*
X1554743D02*
D03*
X1471257Y187476D02*
D03*
D45*
X1447510Y204580D02*
D03*
Y186080D02*
D03*
X1447260Y163580D02*
D03*
Y145080D02*
D03*
X1426260Y574330D02*
D03*
Y555830D02*
D03*
Y535830D02*
D03*
Y517330D02*
D03*
X741750Y98000D02*
D03*
Y116500D02*
D03*
X1039250Y432246D02*
D03*
Y413746D02*
D03*
X257250Y155750D02*
D03*
Y174250D02*
D03*
X260500Y68000D02*
D03*
Y86500D02*
D03*
X726000Y358750D02*
D03*
Y340250D02*
D03*
X644500Y281250D02*
D03*
Y262750D02*
D03*
X846750Y155500D02*
D03*
Y137000D02*
D03*
X845000Y104000D02*
D03*
Y85500D02*
D03*
D46*
X1583000Y128650D02*
D03*
X1564000D02*
D03*
X1314830Y257370D02*
D03*
X1295830D02*
D03*
X1314830Y275150D02*
D03*
X1295830D02*
D03*
X1314830Y292930D02*
D03*
X1295830D02*
D03*
X1292810Y443540D02*
D03*
X1311810D02*
D03*
X1292810Y461320D02*
D03*
X1311810D02*
D03*
Y479100D02*
D03*
X1292810D02*
D03*
X1524000Y689000D02*
D03*
X1505000D02*
D03*
X1524000Y669250D02*
D03*
X1505000D02*
D03*
X1483000Y667750D02*
D03*
X1464000D02*
D03*
X365250Y249750D02*
D03*
X346250D02*
D03*
X365250Y223375D02*
D03*
X346250D02*
D03*
X365250Y197000D02*
D03*
X346250D02*
D03*
X882250Y85000D02*
D03*
X863250D02*
D03*
D47*
X1249640Y407860D02*
D03*
Y399860D02*
D03*
Y391860D02*
D03*
Y383860D02*
D03*
Y375860D02*
D03*
Y367860D02*
D03*
Y359860D02*
D03*
Y351860D02*
D03*
Y343860D02*
D03*
Y335860D02*
D03*
Y327860D02*
D03*
X1363640D02*
D03*
Y335860D02*
D03*
Y343860D02*
D03*
Y351860D02*
D03*
Y359860D02*
D03*
Y367860D02*
D03*
Y375860D02*
D03*
Y383860D02*
D03*
Y391860D02*
D03*
Y399860D02*
D03*
Y407860D02*
D03*
D48*
X1266640Y310860D02*
D03*
X1274640D02*
D03*
X1282640D02*
D03*
X1290640D02*
D03*
X1298640D02*
D03*
X1306640D02*
D03*
X1314640D02*
D03*
X1322640D02*
D03*
X1330640D02*
D03*
X1338640D02*
D03*
X1346640D02*
D03*
Y424860D02*
D03*
X1338640D02*
D03*
X1330640D02*
D03*
X1322640D02*
D03*
X1314640D02*
D03*
X1306640D02*
D03*
X1298640D02*
D03*
X1290640D02*
D03*
X1282640D02*
D03*
X1274640D02*
D03*
X1266640D02*
D03*
D49*
X1004000Y438757D02*
D03*
X1013500Y410257D02*
D03*
X994500D02*
D03*
X985000Y140510D02*
D03*
X994500Y112010D02*
D03*
X975500D02*
D03*
X985000Y80006D02*
D03*
X994500Y51506D02*
D03*
X975500D02*
D03*
X853750Y382253D02*
D03*
X863250Y353753D02*
D03*
X844250D02*
D03*
X761250Y269250D02*
D03*
X780250D02*
D03*
X770750Y297750D02*
D03*
X994000Y173750D02*
D03*
X975000D02*
D03*
X984500Y202250D02*
D03*
X636000Y37500D02*
D03*
X617000D02*
D03*
X626500Y66000D02*
D03*
X627500Y142250D02*
D03*
X618000Y113750D02*
D03*
X637000D02*
D03*
D50*
X694500Y301500D02*
D03*
X666000Y292000D02*
D03*
Y311000D02*
D03*
X750250Y374500D02*
D03*
Y393500D02*
D03*
X778750Y384000D02*
D03*
X205000Y164250D02*
D03*
X233500Y173750D02*
D03*
Y154750D02*
D03*
X205250Y76500D02*
D03*
X233750Y86000D02*
D03*
Y67000D02*
D03*
X817250Y119500D02*
D03*
Y138500D02*
D03*
X788750Y129000D02*
D03*
D51*
X857500Y22750D02*
D03*
X839000D02*
D03*
X703000Y30000D02*
D03*
X721500D02*
D03*
X653250Y15750D02*
D03*
X671750D02*
D03*
X931250Y140055D02*
D03*
X949750D02*
D03*
X931250Y110016D02*
D03*
X949750D02*
D03*
X931250Y79977D02*
D03*
X949750D02*
D03*
X931250Y49937D02*
D03*
X949750D02*
D03*
X800000Y382898D02*
D03*
X818500D02*
D03*
X800000Y352859D02*
D03*
X818500D02*
D03*
X735500Y298819D02*
D03*
X717000D02*
D03*
X735500Y268780D02*
D03*
X717000D02*
D03*
X950000Y170000D02*
D03*
X931500D02*
D03*
X759250Y340000D02*
D03*
X777750D02*
D03*
X741000Y148250D02*
D03*
X759500D02*
D03*
X678250Y37750D02*
D03*
X659750D02*
D03*
X679500Y91250D02*
D03*
X661000D02*
D03*
X679750Y112500D02*
D03*
X661250D02*
D03*
X676250Y258250D02*
D03*
X694750D02*
D03*
D52*
X1461000Y549000D02*
D03*
X1486453Y548986D02*
D03*
X1461000Y632500D02*
D03*
X1486453Y632486D02*
D03*
D53*
X1613000Y119650D02*
D03*
Y159150D02*
D03*
X1613750Y206650D02*
D03*
Y246150D02*
D03*
D54*
X248500Y497250D02*
D03*
X148500D02*
D03*
X139750Y574250D02*
D03*
X239750D02*
D03*
D55*
X1539250Y395250D02*
D03*
X1505750D02*
D03*
X1529500Y327000D02*
D03*
X1496000D02*
D03*
D56*
X1676500Y376500D02*
D03*
Y308500D02*
D03*
D57*
X1506500Y462750D02*
D03*
Y485750D02*
D03*
Y508750D02*
D03*
D58*
X1443500Y485750D02*
D03*
D59*
X1567750Y345250D02*
D03*
X1624316Y398183D02*
D03*
D60*
X1558750Y436750D02*
D03*
X1530250D02*
D03*
D61*
X1602500Y314250D02*
D03*
X1567500D02*
D03*
X1023500Y458280D02*
D03*
X988500D02*
D03*
X201750Y132500D02*
D03*
X236750D02*
D03*
X202500Y108750D02*
D03*
X237500D02*
D03*
D62*
X1597716Y600270D02*
D03*
Y579270D02*
D03*
X1647220Y600270D02*
D03*
Y579270D02*
D03*
X1622468Y600270D02*
D03*
Y579270D02*
D03*
X1548212Y600270D02*
D03*
Y579270D02*
D03*
X1572964Y600270D02*
D03*
Y579270D02*
D03*
X1523460D02*
D03*
Y600270D02*
D03*
D63*
X764500Y84900D02*
D03*
Y97600D02*
D03*
Y72200D02*
D03*
Y59500D02*
D03*
Y46800D02*
D03*
Y34100D02*
D03*
Y21400D02*
D03*
X818500Y97600D02*
D03*
Y84900D02*
D03*
Y72200D02*
D03*
Y59500D02*
D03*
Y46800D02*
D03*
Y34100D02*
D03*
Y21400D02*
D03*
D64*
X585250Y109500D02*
D03*
Y144500D02*
D03*
X584250Y32000D02*
D03*
Y67000D02*
D03*
D65*
X1225500Y378750D02*
D03*
Y347750D02*
D03*
D66*
X26750Y235000D02*
D03*
X51750D02*
D03*
X1493750Y347750D02*
D03*
X1505750Y416750D02*
D03*
X1591250Y259500D02*
D03*
X1676500Y394000D02*
D03*
X649000Y311250D02*
D03*
X731000Y393000D02*
D03*
D67*
X535650Y657900D02*
D03*
X637250Y505500D02*
D03*
X1018250Y543600D02*
D03*
Y619800D02*
D03*
X532400Y114350D02*
D03*
X456200D02*
D03*
X557800Y165150D02*
D03*
X532400D02*
D03*
X456200D02*
D03*
X455950Y89400D02*
D03*
X532150D02*
D03*
X557550D02*
D03*
X455950Y38600D02*
D03*
X532150D02*
D03*
X365900Y425150D02*
D03*
X340500D02*
D03*
X365900Y374350D02*
D03*
D68*
X434050Y505500D02*
D03*
X557800Y114350D02*
D03*
X557550Y38600D02*
D03*
X315100Y374350D02*
D03*
D69*
X1724000Y405000D02*
D03*
Y379600D02*
D03*
X1616200Y434250D02*
D03*
X1590800D02*
D03*
X858300Y48750D02*
D03*
X883700D02*
D03*
X1222750Y651250D02*
D03*
X1247750D02*
D03*
X1597650Y287500D02*
D03*
X1572250D02*
D03*
X1543450Y359750D02*
D03*
X1518050D02*
D03*
X1599500Y644000D02*
D03*
X1574100D02*
D03*
X1548700D02*
D03*
X1599500Y679750D02*
D03*
X1624900D02*
D03*
X1574100D02*
D03*
X1548700D02*
D03*
X673050Y141500D02*
D03*
X698450D02*
D03*
X1272750Y651250D02*
D03*
D70*
X1767250Y434750D02*
D03*
Y404750D02*
D03*
Y464750D02*
D03*
Y494750D02*
D03*
Y524750D02*
D03*
Y554750D02*
D03*
Y584750D02*
D03*
Y614750D02*
D03*
X34500Y427000D02*
D03*
Y457000D02*
D03*
X1371500Y631850D02*
D03*
X1401500Y661850D02*
D03*
X218750Y666250D02*
D03*
X248750D02*
D03*
X100250D02*
D03*
X130250D02*
D03*
X1725500Y284000D02*
D03*
Y259000D02*
D03*
X1750500Y159000D02*
D03*
Y284000D02*
D03*
Y309000D02*
D03*
X1725500D02*
D03*
Y334000D02*
D03*
X1750500Y259000D02*
D03*
X1725500Y234000D02*
D03*
X1750500D02*
D03*
X1725500Y209000D02*
D03*
X1750500D02*
D03*
X1725500Y184000D02*
D03*
X1750500D02*
D03*
X1725500Y159000D02*
D03*
X1371500Y661850D02*
D03*
X96700Y134000D02*
D03*
X126700D02*
D03*
Y74000D02*
D03*
Y104000D02*
D03*
Y164000D02*
D03*
X96700Y104000D02*
D03*
Y164000D02*
D03*
D71*
X1664000Y491000D02*
D03*
Y465600D02*
D03*
Y516400D02*
D03*
X1554350Y483500D02*
D03*
X1605150D02*
D03*
X1579750D02*
D03*
X1748250Y643250D02*
D03*
X1748250Y373250D02*
D03*
X53500Y397500D02*
D03*
X53500Y488500D02*
D03*
X287500Y574750D02*
D03*
X189250Y647250D02*
D03*
X280250Y647250D02*
D03*
X70750Y647250D02*
D03*
X161750Y647250D02*
D03*
D72*
X339000Y658000D02*
D03*
X313600Y683400D02*
D03*
X1341500Y671250D02*
D03*
X1431500D02*
D03*
D73*
X364400Y683400D02*
D03*
D74*
X1764305Y246500D02*
D03*
D75*
X1750500Y334000D02*
D03*
D76*
X1401500Y631850D02*
D03*
D77*
X1624900Y644000D02*
D03*
X1650300Y679750D02*
D03*
D78*
X1700000Y600000D02*
D03*
X1132500D02*
D03*
X1700000Y100000D02*
D03*
X400000D02*
D03*
D79*
X248250Y428500D02*
D03*
X138250D02*
D03*
D80*
X1197750Y651250D02*
D03*
D81*
X1235250Y664650D02*
D03*
D82*
X96700Y74000D02*
D03*
D83*
X53500Y95500D02*
D03*
Y142500D02*
D03*
D84*
X337000Y197250D02*
D03*
X992121Y244433D02*
D03*
X1159750Y272500D02*
D03*
X1070750Y272000D02*
D03*
X1054250D02*
D03*
X1012500Y271750D02*
D03*
X653250Y239750D02*
D03*
X694750Y276250D02*
D03*
X765500Y355000D02*
D03*
X1093750Y305000D02*
D03*
X807250Y97500D02*
D03*
X1181750Y576000D02*
D03*
X1266000Y375000D02*
D03*
X1166250Y416000D02*
D03*
X1323750Y532250D02*
D03*
X854750Y370000D02*
D03*
X784500Y311750D02*
D03*
X1659128Y643212D02*
D03*
X1513500Y634250D02*
D03*
X1003500Y99900D02*
D03*
X922500Y100750D02*
D03*
X963000Y119750D02*
D03*
X1011000Y121500D02*
D03*
X919750Y140500D02*
D03*
X948500Y155500D02*
D03*
X1003750Y162250D02*
D03*
X920750Y190500D02*
D03*
X1030000Y201500D02*
D03*
X954250Y203000D02*
D03*
X1069750Y329750D02*
D03*
X1252750Y121250D02*
D03*
X1253000Y134000D02*
D03*
X1294148Y146456D02*
D03*
X1295500Y175250D02*
D03*
X1202000Y192750D02*
D03*
X1070000Y201500D02*
D03*
X1201750Y215000D02*
D03*
X1072250Y215500D02*
D03*
X1314750Y246500D02*
D03*
X1295500Y246750D02*
D03*
X1076750Y313250D02*
D03*
X1314640Y318822D02*
D03*
X1233000Y328250D02*
D03*
X1266750Y328250D02*
D03*
X1205750Y348500D02*
D03*
X1266750Y355750D02*
D03*
X1210500Y379250D02*
D03*
X1013250Y397500D02*
D03*
X1039250Y400750D02*
D03*
X986000Y401750D02*
D03*
X1191500Y582000D02*
D03*
X1203750Y591504D02*
D03*
X1191250Y598000D02*
D03*
X1314750Y377750D02*
D03*
X1301750Y396000D02*
D03*
X1312500Y491000D02*
D03*
X1292750Y491500D02*
D03*
X1277250Y508000D02*
D03*
X1277000Y520500D02*
D03*
X1279250Y544000D02*
D03*
X1278500Y562000D02*
D03*
X1329500Y251000D02*
D03*
X1337750Y258250D02*
D03*
X1341750Y364500D02*
D03*
X1347000Y134250D02*
D03*
X1347250Y121250D02*
D03*
X1349000Y376250D02*
D03*
X1349250Y353000D02*
D03*
X1401500Y117750D02*
D03*
X1447250Y125000D02*
D03*
X1419250Y145250D02*
D03*
X1531750Y167000D02*
D03*
X1456250Y174500D02*
D03*
X1532500Y180750D02*
D03*
X1488750Y195750D02*
D03*
X1428000Y202080D02*
D03*
X1436250Y215750D02*
D03*
X1387750Y257000D02*
D03*
X1482699Y259447D02*
D03*
X1368750Y303000D02*
D03*
X1430500Y361250D02*
D03*
X1430000Y380250D02*
D03*
X1349500Y399000D02*
D03*
X1332000Y508500D02*
D03*
X1332250Y521000D02*
D03*
X1386250Y486750D02*
D03*
X1389000Y506500D02*
D03*
X1442750Y462750D02*
D03*
X1490750Y463000D02*
D03*
X1424000Y485250D02*
D03*
X1490000D02*
D03*
X1460500Y486500D02*
D03*
X1443250Y507500D02*
D03*
X1506250Y518750D02*
D03*
X1401750Y525330D02*
D03*
X1461500Y530250D02*
D03*
X1503500Y556250D02*
D03*
X1523000Y568250D02*
D03*
X1547750Y569000D02*
D03*
X1507750Y581250D02*
D03*
X1420000Y586250D02*
D03*
Y596000D02*
D03*
X1424250Y608250D02*
D03*
X1523000Y608250D02*
D03*
X1548017Y608503D02*
D03*
X1518750Y655250D02*
D03*
X1553750Y129000D02*
D03*
X1613000Y101250D02*
D03*
X1613750Y263500D02*
D03*
X1596500Y204250D02*
D03*
X1655750Y332000D02*
D03*
X1585500Y520500D02*
D03*
X1567750Y533500D02*
D03*
X1573000Y569250D02*
D03*
X1561250Y571750D02*
D03*
X1607000D02*
D03*
X1632750Y572500D02*
D03*
X1559250Y588750D02*
D03*
X1573000Y608500D02*
D03*
X1598000D02*
D03*
X1622500D02*
D03*
X1647250D02*
D03*
X1657500Y571750D02*
D03*
X186648Y89636D02*
D03*
X252000Y134000D02*
D03*
X191500Y183500D02*
D03*
X647250Y125250D02*
D03*
X605250Y76000D02*
D03*
X626000Y50000D02*
D03*
X676750Y52000D02*
D03*
X702750Y57000D02*
D03*
X784500Y99900D02*
D03*
X736500Y58500D02*
D03*
X800500Y14250D02*
D03*
X799500Y75750D02*
D03*
X950750Y67250D02*
D03*
X680960Y15579D02*
D03*
X749250Y21250D02*
D03*
X644500Y37750D02*
D03*
X937250Y38250D02*
D03*
X1001750Y39750D02*
D03*
X963250Y41000D02*
D03*
X703000Y41500D02*
D03*
X931250Y68250D02*
D03*
X710000Y68750D02*
D03*
X680000Y78900D02*
D03*
X884869Y101283D02*
D03*
X646000Y114000D02*
D03*
X844750D02*
D03*
X776750Y129250D02*
D03*
X861250Y131000D02*
D03*
X741000Y135250D02*
D03*
X864750Y154500D02*
D03*
X717000Y255750D02*
D03*
X786250Y256250D02*
D03*
X664750Y258250D02*
D03*
X657000Y283250D02*
D03*
X705000Y310250D02*
D03*
X799250Y340000D02*
D03*
X748250Y340250D02*
D03*
X863000Y341250D02*
D03*
X739500Y367250D02*
D03*
X788250Y395000D02*
D03*
X246936Y89825D02*
D03*
X274000Y87250D02*
D03*
X270250Y174250D02*
D03*
X234250Y183000D02*
D03*
X596750Y32250D02*
D03*
X598000Y109250D02*
D03*
X365750Y184500D02*
D03*
X294250Y155500D02*
D03*
X302500Y66750D02*
D03*
X393351Y632685D02*
D03*
X1680000Y620000D02*
D03*
X1672500Y600000D02*
D03*
X1680000Y580000D02*
D03*
X1700000Y572500D02*
D03*
X1720000Y580000D02*
D03*
X1727500Y600000D02*
D03*
X1720000Y620000D02*
D03*
X1700000Y627500D02*
D03*
X1112500Y620000D02*
D03*
X1105000Y600000D02*
D03*
X1112500Y580000D02*
D03*
X1132500Y572500D02*
D03*
X1152500Y580000D02*
D03*
X1160000Y600000D02*
D03*
X1152500Y620000D02*
D03*
X1132500Y627500D02*
D03*
X1680000Y120000D02*
D03*
X1672500Y100000D02*
D03*
X1680000Y80000D02*
D03*
X1700000Y72500D02*
D03*
X1720000Y80000D02*
D03*
X1727500Y100000D02*
D03*
X1720000Y120000D02*
D03*
X1700000Y127500D02*
D03*
X380000Y120000D02*
D03*
X372500Y100000D02*
D03*
X380000Y80000D02*
D03*
X400000Y72500D02*
D03*
X420000Y80000D02*
D03*
X427500Y100000D02*
D03*
X420000Y120000D02*
D03*
X400000Y127500D02*
D03*
D85*
X1233000Y390500D02*
D03*
X1236500Y444000D02*
D03*
X1263000Y389500D02*
D03*
X1270000Y409000D02*
D03*
X1309750Y412500D02*
D03*
X1251250Y415500D02*
D03*
X1274640Y424860D02*
D03*
X1282640D02*
D03*
X1325750Y411750D02*
D03*
X1376500Y400250D02*
D03*
X1328500Y445500D02*
D03*
X1347750Y461250D02*
D03*
D86*
X263000Y121000D02*
D03*
X431000Y563250D02*
D03*
X364250Y582000D02*
D03*
M02*
