G04*
G04 #@! TF.GenerationSoftware,Altium Limited,Altium Designer,22.7.1 (60)*
G04*
G04 Layer_Color=2752767*
%FSLAX44Y44*%
%MOMM*%
G71*
G04*
G04 #@! TF.SameCoordinates,84C913F6-0FDF-4526-9F0D-4E4E4A459FD0*
G04*
G04*
G04 #@! TF.FilePolarity,Positive*
G04*
G01*
G75*
%ADD127C,0.0508*%
D127*
X1801000Y959468D02*
X1798968Y963532D01*
X1803032D01*
X1801000Y959468D01*
X1826500Y959968D02*
X1824468Y964032D01*
X1828532D01*
X1826500Y959968D01*
X1619860Y495808D02*
X1617828Y499872D01*
X1621892D01*
X1619860Y495808D01*
X1599750Y722718D02*
X1597718Y726782D01*
X1601782D01*
X1599750Y722718D01*
X1724660Y599338D02*
X1722628Y603402D01*
X1726692D01*
X1724660Y599338D01*
X1850000Y959218D02*
X1847968Y963282D01*
X1852032D01*
X1850000Y959218D01*
X1478425Y627099D02*
X1476393Y631163D01*
X1480457D01*
X1478425Y627099D01*
X1762153Y800938D02*
X1760121Y805002D01*
X1764185D01*
X1762153Y800938D01*
X1918750Y921718D02*
X1916718Y925782D01*
X1920782D01*
X1918750Y921718D01*
X1874750Y958718D02*
X1872718Y962782D01*
X1876782D01*
X1874750Y958718D01*
X1620250Y976718D02*
X1618218Y980782D01*
X1622282D01*
X1620250Y976718D01*
X1816250Y911718D02*
X1817266Y912734D01*
X1818282D01*
X1817266Y913750D01*
X1818282Y914766D01*
X1817266D01*
X1816250Y915782D01*
X1815234Y914766D01*
X1814218D01*
X1815234Y913750D01*
X1814218Y912734D01*
X1815234D01*
X1816250Y911718D01*
Y912734D02*
X1816758Y913242D01*
X1817266D01*
X1816758Y913750D01*
X1817266Y914258D01*
X1816758D01*
X1816250Y914766D01*
X1815742Y914258D01*
X1815234D01*
X1815742Y913750D01*
X1815234Y913242D01*
X1815742D01*
X1816250Y912734D01*
X2001000Y813218D02*
X1998968Y817282D01*
X2003032D01*
X2001000Y813218D01*
X1436500Y660968D02*
X1434468Y665032D01*
X1438532D01*
X1436500Y660968D01*
X1382250Y960468D02*
X1380218Y964532D01*
X1384282D01*
X1382250Y960468D01*
X1918750Y1032718D02*
X1916718Y1036782D01*
X1920782D01*
X1918750Y1032718D01*
X1394500Y579718D02*
X1392468Y583782D01*
X1396532D01*
X1394500Y579718D01*
X1438750Y602468D02*
X1436718Y606532D01*
X1440782D01*
X1438750Y602468D01*
X1477500Y577218D02*
X1475468Y581282D01*
X1479532D01*
X1477500Y577218D01*
M02*
