G04*
G04 #@! TF.GenerationSoftware,Altium Limited,Altium Designer,22.7.1 (60)*
G04*
G04 Layer_Color=16711935*
%FSLAX44Y44*%
%MOMM*%
G71*
G04*
G04 #@! TF.SameCoordinates,84C913F6-0FDF-4526-9F0D-4E4E4A459FD0*
G04*
G04*
G04 #@! TF.FilePolarity,Negative*
G04*
G01*
G75*
%ADD36C,2.2032*%
%ADD37R,1.3532X1.5532*%
%ADD38R,1.5532X1.3532*%
%ADD42R,1.5032X1.1032*%
%ADD43R,1.1032X1.5032*%
%ADD51R,2.1532X1.6032*%
G04:AMPARAMS|DCode=53|XSize=1.5032mm|YSize=1.3032mm|CornerRadius=0.3766mm|HoleSize=0mm|Usage=FLASHONLY|Rotation=180.000|XOffset=0mm|YOffset=0mm|HoleType=Round|Shape=RoundedRectangle|*
%AMROUNDEDRECTD53*
21,1,1.5032,0.5500,0,0,180.0*
21,1,0.7500,1.3032,0,0,180.0*
1,1,0.7532,-0.3750,0.2750*
1,1,0.7532,0.3750,0.2750*
1,1,0.7532,0.3750,-0.2750*
1,1,0.7532,-0.3750,-0.2750*
%
%ADD53ROUNDEDRECTD53*%
G04:AMPARAMS|DCode=54|XSize=0.8532mm|YSize=1.4532mm|CornerRadius=0.2641mm|HoleSize=0mm|Usage=FLASHONLY|Rotation=270.000|XOffset=0mm|YOffset=0mm|HoleType=Round|Shape=RoundedRectangle|*
%AMROUNDEDRECTD54*
21,1,0.8532,0.9250,0,0,270.0*
21,1,0.3250,1.4532,0,0,270.0*
1,1,0.5282,-0.4625,-0.1625*
1,1,0.5282,-0.4625,0.1625*
1,1,0.5282,0.4625,0.1625*
1,1,0.5282,0.4625,-0.1625*
%
%ADD54ROUNDEDRECTD54*%
%ADD56R,2.7032X2.7032*%
%ADD57C,2.7032*%
%ADD58C,1.8032*%
%ADD59R,1.8032X1.8032*%
%ADD60C,1.4032*%
%ADD61R,1.4032X1.4032*%
%ADD62C,2.0032*%
G04:AMPARAMS|DCode=63|XSize=2.0032mm|YSize=2.0032mm|CornerRadius=0.5516mm|HoleSize=0mm|Usage=FLASHONLY|Rotation=0.000|XOffset=0mm|YOffset=0mm|HoleType=Round|Shape=RoundedRectangle|*
%AMROUNDEDRECTD63*
21,1,2.0032,0.9000,0,0,0.0*
21,1,0.9000,2.0032,0,0,0.0*
1,1,1.1032,0.4500,-0.4500*
1,1,1.1032,-0.4500,-0.4500*
1,1,1.1032,-0.4500,0.4500*
1,1,1.1032,0.4500,0.4500*
%
%ADD63ROUNDEDRECTD63*%
%ADD64C,3.3032*%
%ADD65C,3.4032*%
G04:AMPARAMS|DCode=66|XSize=2.2032mm|YSize=2.2032mm|CornerRadius=0.6016mm|HoleSize=0mm|Usage=FLASHONLY|Rotation=180.000|XOffset=0mm|YOffset=0mm|HoleType=Round|Shape=RoundedRectangle|*
%AMROUNDEDRECTD66*
21,1,2.2032,1.0000,0,0,180.0*
21,1,1.0000,2.2032,0,0,180.0*
1,1,1.2032,-0.5000,0.5000*
1,1,1.2032,0.5000,0.5000*
1,1,1.2032,0.5000,-0.5000*
1,1,1.2032,-0.5000,-0.5000*
%
%ADD66ROUNDEDRECTD66*%
%ADD67C,1.2032*%
%ADD68R,1.8032X1.8032*%
%ADD69C,1.6032*%
%ADD70R,2.0032X2.0032*%
%ADD71C,1.7272*%
G04:AMPARAMS|DCode=72|XSize=2.2032mm|YSize=2.2032mm|CornerRadius=0.6016mm|HoleSize=0mm|Usage=FLASHONLY|Rotation=90.000|XOffset=0mm|YOffset=0mm|HoleType=Round|Shape=RoundedRectangle|*
%AMROUNDEDRECTD72*
21,1,2.2032,1.0000,0,0,90.0*
21,1,1.0000,2.2032,0,0,90.0*
1,1,1.2032,0.5000,0.5000*
1,1,1.2032,0.5000,-0.5000*
1,1,1.2032,-0.5000,-0.5000*
1,1,1.2032,-0.5000,0.5000*
%
%ADD72ROUNDEDRECTD72*%
%ADD73C,2.6032*%
%ADD74C,1.0032*%
%ADD75C,4.2032*%
%ADD76C,1.7032*%
G04:AMPARAMS|DCode=113|XSize=0.8032mm|YSize=1.6532mm|CornerRadius=0.2516mm|HoleSize=0mm|Usage=FLASHONLY|Rotation=0.000|XOffset=0mm|YOffset=0mm|HoleType=Round|Shape=RoundedRectangle|*
%AMROUNDEDRECTD113*
21,1,0.8032,1.1500,0,0,0.0*
21,1,0.3000,1.6532,0,0,0.0*
1,1,0.5032,0.1500,-0.5750*
1,1,0.5032,-0.1500,-0.5750*
1,1,0.5032,-0.1500,0.5750*
1,1,0.5032,0.1500,0.5750*
%
%ADD113ROUNDEDRECTD113*%
G04:AMPARAMS|DCode=114|XSize=0.8532mm|YSize=1.4532mm|CornerRadius=0.2641mm|HoleSize=0mm|Usage=FLASHONLY|Rotation=0.000|XOffset=0mm|YOffset=0mm|HoleType=Round|Shape=RoundedRectangle|*
%AMROUNDEDRECTD114*
21,1,0.8532,0.9250,0,0,0.0*
21,1,0.3250,1.4532,0,0,0.0*
1,1,0.5282,0.1625,-0.4625*
1,1,0.5282,-0.1625,-0.4625*
1,1,0.5282,-0.1625,0.4625*
1,1,0.5282,0.1625,0.4625*
%
%ADD114ROUNDEDRECTD114*%
%ADD115R,2.4132X2.4032*%
G04:AMPARAMS|DCode=116|XSize=1.5032mm|YSize=1.3032mm|CornerRadius=0.3766mm|HoleSize=0mm|Usage=FLASHONLY|Rotation=90.000|XOffset=0mm|YOffset=0mm|HoleType=Round|Shape=RoundedRectangle|*
%AMROUNDEDRECTD116*
21,1,1.5032,0.5500,0,0,90.0*
21,1,0.7500,1.3032,0,0,90.0*
1,1,0.7532,0.2750,0.3750*
1,1,0.7532,0.2750,-0.3750*
1,1,0.7532,-0.2750,-0.3750*
1,1,0.7532,-0.2750,0.3750*
%
%ADD116ROUNDEDRECTD116*%
G04:AMPARAMS|DCode=117|XSize=1.1032mm|YSize=1.7032mm|CornerRadius=0.3266mm|HoleSize=0mm|Usage=FLASHONLY|Rotation=180.000|XOffset=0mm|YOffset=0mm|HoleType=Round|Shape=RoundedRectangle|*
%AMROUNDEDRECTD117*
21,1,1.1032,1.0500,0,0,180.0*
21,1,0.4500,1.7032,0,0,180.0*
1,1,0.6532,-0.2250,0.5250*
1,1,0.6532,0.2250,0.5250*
1,1,0.6532,0.2250,-0.5250*
1,1,0.6532,-0.2250,-0.5250*
%
%ADD117ROUNDEDRECTD117*%
%ADD118R,1.6032X2.1532*%
%ADD119R,2.2032X5.7032*%
G04:AMPARAMS|DCode=120|XSize=0.8032mm|YSize=1.6532mm|CornerRadius=0.2516mm|HoleSize=0mm|Usage=FLASHONLY|Rotation=270.000|XOffset=0mm|YOffset=0mm|HoleType=Round|Shape=RoundedRectangle|*
%AMROUNDEDRECTD120*
21,1,0.8032,1.1500,0,0,270.0*
21,1,0.3000,1.6532,0,0,270.0*
1,1,0.5032,-0.5750,-0.1500*
1,1,0.5032,-0.5750,0.1500*
1,1,0.5032,0.5750,0.1500*
1,1,0.5032,0.5750,-0.1500*
%
%ADD120ROUNDEDRECTD120*%
%ADD121C,0.7032*%
D36*
X1795000Y408000D02*
D03*
X2063750Y338180D02*
D03*
Y378820D02*
D03*
X2075000Y414230D02*
D03*
X1934210Y338180D02*
D03*
X1818640Y364850D02*
D03*
X1934210Y378820D02*
D03*
Y418190D02*
D03*
X1819910Y410570D02*
D03*
X677500Y925750D02*
D03*
X686000Y902000D02*
D03*
X610500Y716500D02*
D03*
X494250Y969250D02*
D03*
X609250Y745500D02*
D03*
X685000Y827000D02*
D03*
X561000Y717250D02*
D03*
X525500Y834250D02*
D03*
X516000Y904250D02*
D03*
X515250Y942500D02*
D03*
X702000Y855750D02*
D03*
X658000Y810500D02*
D03*
X755500Y962250D02*
D03*
X788000Y963000D02*
D03*
X987500D02*
D03*
X325000Y847500D02*
D03*
X295000D02*
D03*
X325000Y944500D02*
D03*
X295000D02*
D03*
X325000Y755250D02*
D03*
X295000D02*
D03*
X325000Y668500D02*
D03*
X295000D02*
D03*
X2115600Y877570D02*
D03*
X2146100D02*
D03*
X349000Y459250D02*
D03*
Y399250D02*
D03*
X379000Y459250D02*
D03*
Y399250D02*
D03*
Y369250D02*
D03*
Y429250D02*
D03*
X349000D02*
D03*
X2106650Y380200D02*
D03*
Y355200D02*
D03*
Y330200D02*
D03*
X2131650Y405200D02*
D03*
Y380200D02*
D03*
Y355200D02*
D03*
Y330200D02*
D03*
X2207260Y567450D02*
D03*
Y622850D02*
D03*
Y595150D02*
D03*
X2235660Y609000D02*
D03*
Y636700D02*
D03*
X2207260Y539750D02*
D03*
X2235660Y553600D02*
D03*
Y581300D02*
D03*
X1713540Y1019300D02*
D03*
X1683540Y989300D02*
D03*
Y1019300D02*
D03*
X2131650Y942340D02*
D03*
Y967340D02*
D03*
X2106650Y942340D02*
D03*
D37*
X1878690Y435970D02*
D03*
X1860190D02*
D03*
X1914250Y448670D02*
D03*
X1895750D02*
D03*
X1813920Y446130D02*
D03*
X1795420D02*
D03*
X1813640Y465790D02*
D03*
X1795140D02*
D03*
X1759310Y438510D02*
D03*
X1740810D02*
D03*
X1759310Y386440D02*
D03*
X1740810D02*
D03*
X1759310Y334370D02*
D03*
X1740810D02*
D03*
X445000Y454750D02*
D03*
X426500D02*
D03*
X709930Y314960D02*
D03*
X728430D02*
D03*
D38*
X1971040Y334730D02*
D03*
Y316230D02*
D03*
X2042160Y334730D02*
D03*
Y316230D02*
D03*
X1971040Y375370D02*
D03*
Y356870D02*
D03*
X2042160Y375370D02*
D03*
Y356870D02*
D03*
Y416010D02*
D03*
Y397510D02*
D03*
X1971040Y416010D02*
D03*
Y397510D02*
D03*
X1912620Y334730D02*
D03*
Y316230D02*
D03*
X1841500Y334730D02*
D03*
Y316230D02*
D03*
Y375370D02*
D03*
Y356870D02*
D03*
Y416010D02*
D03*
Y397510D02*
D03*
X1912620Y416010D02*
D03*
Y397510D02*
D03*
X1670250Y945500D02*
D03*
Y927000D02*
D03*
X652250Y843750D02*
D03*
Y862250D02*
D03*
X617500Y338750D02*
D03*
Y357250D02*
D03*
X637500Y338750D02*
D03*
Y357250D02*
D03*
X1369060Y379370D02*
D03*
Y397870D02*
D03*
X1442720Y378100D02*
D03*
Y396600D02*
D03*
X1511300Y378100D02*
D03*
Y396600D02*
D03*
X617500Y297000D02*
D03*
Y315500D02*
D03*
X551250Y843750D02*
D03*
Y862250D02*
D03*
D42*
X1791970Y522630D02*
D03*
Y541630D02*
D03*
X469000Y480250D02*
D03*
Y461250D02*
D03*
D43*
X1893950Y467060D02*
D03*
X1912950D02*
D03*
X1741830Y557530D02*
D03*
X1760830D02*
D03*
X1743100Y695960D02*
D03*
X1762100D02*
D03*
X436990Y713740D02*
D03*
X455990D02*
D03*
X436990Y689610D02*
D03*
X455990D02*
D03*
X436990Y665480D02*
D03*
X455990D02*
D03*
X514250Y443000D02*
D03*
X495250D02*
D03*
X514250Y464320D02*
D03*
X495250D02*
D03*
X514250Y485500D02*
D03*
X495250D02*
D03*
D51*
X652500Y885000D02*
D03*
Y913000D02*
D03*
X551000D02*
D03*
Y885000D02*
D03*
D53*
X1390860Y402310D02*
D03*
Y367310D02*
D03*
X1464520Y402310D02*
D03*
Y367310D02*
D03*
X1533100Y402310D02*
D03*
Y367310D02*
D03*
D54*
X2020850Y324210D02*
D03*
X1992350Y314710D02*
D03*
Y333710D02*
D03*
X2020850Y364850D02*
D03*
X1992350Y355350D02*
D03*
Y374350D02*
D03*
X2020850Y405490D02*
D03*
X1992350Y395990D02*
D03*
Y414990D02*
D03*
X1891310Y324210D02*
D03*
X1862810Y314710D02*
D03*
Y333710D02*
D03*
X1891310Y364850D02*
D03*
X1862810Y355350D02*
D03*
Y374350D02*
D03*
X1862810Y395990D02*
D03*
Y414990D02*
D03*
X1891310Y405490D02*
D03*
X660000Y340750D02*
D03*
Y359750D02*
D03*
X688500Y350250D02*
D03*
X660000Y318250D02*
D03*
Y299250D02*
D03*
X688500Y308750D02*
D03*
D56*
X1186180Y1002030D02*
D03*
D57*
X986180D02*
D03*
X871180Y382030D02*
D03*
X1101180D02*
D03*
X786180Y1002030D02*
D03*
X496250Y732250D02*
D03*
X386250D02*
D03*
D58*
X702310Y924560D02*
D03*
X549910Y822960D02*
D03*
X588010Y441960D02*
D03*
X664210D02*
D03*
X457920Y642620D02*
D03*
X432520D02*
D03*
X457920Y591820D02*
D03*
D59*
X549910Y1026160D02*
D03*
D60*
X438100Y1021500D02*
D03*
X463500D02*
D03*
X1743540Y1028700D02*
D03*
X1653540D02*
D03*
D61*
X488900Y1021500D02*
D03*
D62*
X1870000Y834200D02*
D03*
Y859600D02*
D03*
Y910400D02*
D03*
Y885000D02*
D03*
X1841250Y859700D02*
D03*
Y885100D02*
D03*
Y910500D02*
D03*
X1596390Y1004570D02*
D03*
X1621390D02*
D03*
X1571390D02*
D03*
X1313790Y638850D02*
D03*
X1339190D02*
D03*
X2004060Y923290D02*
D03*
X1978660D02*
D03*
X1416660Y698540D02*
D03*
Y723940D02*
D03*
X1978660Y1032510D02*
D03*
X2004060D02*
D03*
X1917700Y981710D02*
D03*
Y956310D02*
D03*
X1916430Y872490D02*
D03*
Y847090D02*
D03*
D63*
X1870000Y935800D02*
D03*
X1841250Y935900D02*
D03*
D64*
X2189700Y877570D02*
D03*
D65*
X305800Y437750D02*
D03*
Y390750D02*
D03*
X2221460Y706300D02*
D03*
Y456300D02*
D03*
D66*
X349000Y369250D02*
D03*
X2106650Y405200D02*
D03*
X2235660Y525900D02*
D03*
D67*
X451500Y476500D02*
D03*
X426500D02*
D03*
X1760830Y577080D02*
D03*
X1957536Y345097D02*
D03*
X1694210Y303530D02*
D03*
X1640000Y972500D02*
D03*
X1680210Y355600D02*
D03*
X1681480Y407670D02*
D03*
X1689500Y431750D02*
D03*
X1690000Y379000D02*
D03*
X1690100Y328317D02*
D03*
X1709690Y443424D02*
D03*
X1828140Y327750D02*
D03*
X1877750Y333750D02*
D03*
X1889500Y341500D02*
D03*
X1733750Y342250D02*
D03*
X1878500Y374750D02*
D03*
X1733000Y395310D02*
D03*
X1893250Y429000D02*
D03*
X1792500Y431750D02*
D03*
X1842500Y435500D02*
D03*
X1733397Y447473D02*
D03*
X1931000Y447750D02*
D03*
X1757000Y453260D02*
D03*
X1877060Y453390D02*
D03*
X1845500Y453500D02*
D03*
X1927750Y467000D02*
D03*
X1768000Y479750D02*
D03*
X1749500Y516750D02*
D03*
X1774500Y517000D02*
D03*
X1774924Y532931D02*
D03*
X2007750Y333250D02*
D03*
X2020000Y344750D02*
D03*
X2007500Y374500D02*
D03*
X1955500Y376000D02*
D03*
X2019750Y384000D02*
D03*
X2057750Y404500D02*
D03*
X2007000Y415000D02*
D03*
X1971500Y435000D02*
D03*
X437500Y440750D02*
D03*
X1649730Y615950D02*
D03*
X1625600Y618490D02*
D03*
X1762500Y681750D02*
D03*
X1649730Y640080D02*
D03*
X1630500Y942250D02*
D03*
X1685250Y946000D02*
D03*
X514500Y428500D02*
D03*
X495250Y429000D02*
D03*
X469000Y449250D02*
D03*
X612750Y377250D02*
D03*
X605250Y324500D02*
D03*
X668000Y329000D02*
D03*
X659500Y371500D02*
D03*
X1369500Y366750D02*
D03*
X1443000Y365500D02*
D03*
X1511750Y366000D02*
D03*
X1240250Y383250D02*
D03*
X694335Y319924D02*
D03*
X599250Y308750D02*
D03*
X602000Y933250D02*
D03*
D03*
X601250Y954750D02*
D03*
X514750Y780750D02*
D03*
X529250Y862250D02*
D03*
X668000D02*
D03*
X529500Y970750D02*
D03*
X1776000Y289500D02*
D03*
X1389710Y386502D02*
D03*
X1531950D02*
D03*
X1463370D02*
D03*
X1496750Y456000D02*
D03*
X1431290D02*
D03*
X1497330Y535940D02*
D03*
X1529612Y561212D02*
D03*
X1562100Y456000D02*
D03*
X1577116Y592326D02*
D03*
X1581150Y466090D02*
D03*
X1582420Y490220D02*
D03*
X1587510Y518160D02*
D03*
D68*
X407120Y591820D02*
D03*
D69*
X1583890Y1017970D02*
D03*
D70*
X1546390Y1004570D02*
D03*
D71*
X2203450Y330200D02*
D03*
Y405200D02*
D03*
Y942340D02*
D03*
Y967340D02*
D03*
D72*
X1713540Y989300D02*
D03*
X2106650Y967340D02*
D03*
D73*
X1623500Y301000D02*
D03*
X1573500D02*
D03*
X1413250Y301000D02*
D03*
X1463250D02*
D03*
X1513250D02*
D03*
X1269500Y302000D02*
D03*
X1319500D02*
D03*
D74*
X1759310Y334370D02*
D03*
D03*
X1794000Y342500D02*
D03*
X1856740Y344170D02*
D03*
X1759310Y386440D02*
D03*
Y438510D02*
D03*
X1922250Y526500D02*
D03*
X1936000Y308000D02*
D03*
X1985010Y345440D02*
D03*
X2005500Y386750D02*
D03*
D03*
X755750Y302500D02*
D03*
X1728250Y291020D02*
D03*
D03*
X1802250Y267000D02*
D03*
X740750Y315500D02*
D03*
X1571250Y635750D02*
D03*
D03*
X1622000Y648500D02*
D03*
X1615000Y747500D02*
D03*
X1662250Y715750D02*
D03*
X1726000D02*
D03*
X1682000Y907000D02*
D03*
X598000Y338500D02*
D03*
X689641Y370475D02*
D03*
X1969750Y273500D02*
D03*
D75*
X2188000Y1024100D02*
D03*
Y284100D02*
D03*
X317790D02*
D03*
Y1024100D02*
D03*
D76*
X354500Y866500D02*
D03*
X263500Y866500D02*
D03*
X354500Y963500D02*
D03*
X263500Y963500D02*
D03*
X354500Y774250D02*
D03*
X263500Y774250D02*
D03*
X354500Y687500D02*
D03*
X263500Y687500D02*
D03*
D113*
X1818640Y545770D02*
D03*
X1831340D02*
D03*
X1844040D02*
D03*
X1856740D02*
D03*
X1869440D02*
D03*
X1882140D02*
D03*
X1894840D02*
D03*
X1818640Y491270D02*
D03*
X1831340D02*
D03*
X1844040D02*
D03*
X1856740D02*
D03*
X1869440D02*
D03*
X1882140D02*
D03*
X1894840D02*
D03*
D114*
X1701190Y431880D02*
D03*
X1720190D02*
D03*
X1710690Y460380D02*
D03*
Y408310D02*
D03*
X1720190Y379810D02*
D03*
X1701190D02*
D03*
X1710690Y356240D02*
D03*
X1720190Y327740D02*
D03*
X1701190D02*
D03*
X1630250Y930000D02*
D03*
X1639750Y958500D02*
D03*
X1649250Y930000D02*
D03*
X612750Y811000D02*
D03*
X631750D02*
D03*
X622250Y782500D02*
D03*
X571000Y811000D02*
D03*
X590000D02*
D03*
X580500Y782500D02*
D03*
D115*
X1794150Y495660D02*
D03*
X1749150D02*
D03*
D116*
X1740180Y460100D02*
D03*
X1775180D02*
D03*
X1740180Y408030D02*
D03*
X1775180D02*
D03*
X1740180Y355960D02*
D03*
X1775180D02*
D03*
D117*
X601350Y687750D02*
D03*
X626750D02*
D03*
Y579750D02*
D03*
X601350D02*
D03*
X533850Y580250D02*
D03*
X559250Y688250D02*
D03*
X533850D02*
D03*
X559250Y580250D02*
D03*
D118*
X628250Y941250D02*
D03*
X656250D02*
D03*
X578000D02*
D03*
X550000D02*
D03*
D119*
X1707980Y674064D02*
D03*
Y579064D02*
D03*
D120*
X629450Y913450D02*
D03*
Y900750D02*
D03*
Y888050D02*
D03*
Y875350D02*
D03*
Y862650D02*
D03*
Y849950D02*
D03*
Y837250D02*
D03*
X574950Y913450D02*
D03*
Y900750D02*
D03*
Y888050D02*
D03*
Y875350D02*
D03*
Y862650D02*
D03*
Y849950D02*
D03*
Y837250D02*
D03*
D121*
X601250Y954750D02*
D03*
M02*
