G04*
G04 #@! TF.GenerationSoftware,Altium Limited,Altium Designer,22.7.1 (60)*
G04*
G04 Layer_Physical_Order=2*
G04 Layer_Color=36540*
%FSLAX44Y44*%
%MOMM*%
G71*
G04*
G04 #@! TF.SameCoordinates,3D511D00-9B74-4921-819B-1F54B840CB57*
G04*
G04*
G04 #@! TF.FilePolarity,Positive*
G04*
G01*
G75*
%ADD13C,0.1000*%
%ADD17C,2.0000*%
%ADD79C,1.0000*%
%ADD82C,2.0000*%
%ADD84C,2.5000*%
%ADD85C,1.6000*%
%ADD89C,1.8000*%
G04:AMPARAMS|DCode=90|XSize=1.8mm|YSize=1.8mm|CornerRadius=0.45mm|HoleSize=0mm|Usage=FLASHONLY|Rotation=0.000|XOffset=0mm|YOffset=0mm|HoleType=Round|Shape=RoundedRectangle|*
%AMROUNDEDRECTD90*
21,1,1.8000,0.9000,0,0,0.0*
21,1,0.9000,1.8000,0,0,0.0*
1,1,0.9000,0.4500,-0.4500*
1,1,0.9000,-0.4500,-0.4500*
1,1,0.9000,-0.4500,0.4500*
1,1,0.9000,0.4500,0.4500*
%
%ADD90ROUNDEDRECTD90*%
G04:AMPARAMS|DCode=93|XSize=2mm|YSize=2mm|CornerRadius=0.5mm|HoleSize=0mm|Usage=FLASHONLY|Rotation=180.000|XOffset=0mm|YOffset=0mm|HoleType=Round|Shape=RoundedRectangle|*
%AMROUNDEDRECTD93*
21,1,2.0000,1.0000,0,0,180.0*
21,1,1.0000,2.0000,0,0,180.0*
1,1,1.0000,-0.5000,0.5000*
1,1,1.0000,0.5000,0.5000*
1,1,1.0000,0.5000,-0.5000*
1,1,1.0000,-0.5000,-0.5000*
%
%ADD93ROUNDEDRECTD93*%
%ADD94C,1.0000*%
%ADD97R,1.8000X1.8000*%
%ADD100C,2.4000*%
%ADD101C,0.8000*%
G36*
X1527701Y995750D02*
X1527895Y994774D01*
X1528448Y993948D01*
X1542198Y980198D01*
X1543024Y979645D01*
X1544000Y979451D01*
X1600250D01*
X1601225Y979645D01*
X1602052Y980198D01*
X1608306Y986451D01*
X1615968D01*
X1616309Y985181D01*
X1615620Y984783D01*
X1614216Y983380D01*
X1613224Y981660D01*
X1612784Y980020D01*
X1627716D01*
X1627276Y981660D01*
X1626284Y983380D01*
X1624880Y984783D01*
X1624191Y985181D01*
X1624532Y986451D01*
X1638000D01*
X1638976Y986645D01*
X1639802Y987198D01*
X1646052Y993448D01*
X1646605Y994275D01*
X1646799Y995250D01*
Y1022331D01*
X1648069Y1022857D01*
X1648628Y1022298D01*
X1650452Y1021245D01*
X1652487Y1020700D01*
X1654593D01*
X1656628Y1021245D01*
X1658452Y1022298D01*
X1659942Y1023788D01*
X1660995Y1025612D01*
X1661540Y1027647D01*
Y1029753D01*
X1660995Y1031788D01*
X1659942Y1033612D01*
X1659776Y1033778D01*
X1660262Y1034951D01*
X1736818D01*
X1737304Y1033778D01*
X1737138Y1033612D01*
X1736085Y1031788D01*
X1735540Y1029753D01*
Y1027647D01*
X1736085Y1025612D01*
X1737138Y1023788D01*
X1738628Y1022298D01*
X1740452Y1021245D01*
X1742487Y1020700D01*
X1744593D01*
X1746628Y1021245D01*
X1748452Y1022298D01*
X1749942Y1023788D01*
X1750995Y1025612D01*
X1751540Y1027647D01*
Y1029753D01*
X1750995Y1031788D01*
X1749942Y1033612D01*
X1749776Y1033778D01*
X1750262Y1034951D01*
X1782451D01*
Y947000D01*
X1782645Y946024D01*
X1783198Y945198D01*
X1784025Y944645D01*
X1785000Y944451D01*
X1806750D01*
X1807725Y944645D01*
X1808552Y945198D01*
X1815306Y951951D01*
X1829607D01*
X1830582Y952145D01*
X1831409Y952698D01*
X1835802Y957091D01*
X1836355Y957918D01*
X1836549Y958893D01*
Y966194D01*
X1846056Y975701D01*
X1874944D01*
X1878923Y971722D01*
X1878437Y970549D01*
X1870500D01*
X1869525Y970355D01*
X1868698Y969802D01*
X1858746Y959851D01*
X1858362Y959980D01*
X1842534D01*
X1842974Y958340D01*
X1843967Y956620D01*
X1845370Y955217D01*
X1847090Y954224D01*
X1848601Y953819D01*
X1848434Y952549D01*
X1836069D01*
X1835094Y952355D01*
X1834267Y951802D01*
X1801198Y918733D01*
X1800645Y917906D01*
X1800451Y916931D01*
Y884056D01*
X1745194Y828799D01*
X1651636D01*
X1651383Y830069D01*
X1653022Y830748D01*
X1654709Y832436D01*
X1655623Y834641D01*
Y837028D01*
X1654709Y839233D01*
X1653022Y840921D01*
X1650816Y841834D01*
X1648429D01*
X1646224Y840921D01*
X1644536Y839233D01*
X1643623Y837028D01*
Y834641D01*
X1644536Y832436D01*
X1646224Y830748D01*
X1647863Y830069D01*
X1647610Y828799D01*
X1526806Y828799D01*
X1508799Y846806D01*
Y854750D01*
Y945250D01*
X1508605Y946226D01*
X1508052Y947052D01*
X1468802Y986302D01*
X1467975Y986855D01*
X1467000Y987049D01*
X1385586D01*
X1384610Y986855D01*
X1383783Y986302D01*
X1367448Y969967D01*
X1366895Y969140D01*
X1366701Y968164D01*
Y918750D01*
X1366895Y917775D01*
X1367448Y916948D01*
X1419198Y865198D01*
X1419198Y865198D01*
X1456701Y827694D01*
Y755750D01*
Y625806D01*
X1450194Y619299D01*
X1402250D01*
X1401275Y619105D01*
X1400448Y618552D01*
X1394448Y612552D01*
X1393895Y611725D01*
X1393701Y610750D01*
Y599750D01*
X1393895Y598774D01*
X1394448Y597948D01*
X1400948Y591448D01*
X1401775Y590895D01*
X1402750Y590701D01*
X1450944D01*
X1457451Y584194D01*
Y562663D01*
X1457645Y561688D01*
X1458198Y560861D01*
X1539701Y479358D01*
Y413806D01*
X1450194Y324299D01*
X1378000D01*
X1377025Y324105D01*
X1376198Y323552D01*
X1342694Y290049D01*
X1329908D01*
X1329382Y291319D01*
X1331135Y293072D01*
X1333049Y296388D01*
X1334040Y300086D01*
Y300730D01*
X1304960D01*
Y300086D01*
X1305951Y296388D01*
X1307865Y293072D01*
X1309618Y291319D01*
X1309092Y290049D01*
X1279144D01*
X1278618Y291319D01*
X1280703Y293404D01*
X1282546Y296596D01*
X1283500Y300157D01*
Y303843D01*
X1282546Y307404D01*
X1280703Y310596D01*
X1278096Y313203D01*
X1274904Y315046D01*
X1271343Y316000D01*
X1267657D01*
X1264096Y315046D01*
X1260904Y313203D01*
X1258297Y310596D01*
X1256454Y307404D01*
X1255500Y303843D01*
Y300157D01*
X1256454Y296596D01*
X1258297Y293404D01*
X1260382Y291319D01*
X1259856Y290049D01*
X880559D01*
X880055Y290552D01*
X879229Y291105D01*
X878253Y291299D01*
X433306D01*
X419049Y305556D01*
Y350194D01*
X426306Y357451D01*
X575500D01*
X576475Y357645D01*
X577302Y358198D01*
X600802Y381698D01*
X601355Y382524D01*
X601549Y383500D01*
Y449250D01*
X601355Y450225D01*
X600802Y451052D01*
X595802Y456052D01*
X594976Y456605D01*
X594000Y456799D01*
X583500D01*
X582525Y456605D01*
X581698Y456052D01*
X575448Y449802D01*
X574895Y448975D01*
X574701Y448000D01*
Y387556D01*
X568944Y381799D01*
X483806D01*
X470549Y395056D01*
Y498701D01*
X849250D01*
X850226Y498895D01*
X851052Y499448D01*
X1148052Y796448D01*
X1148605Y797274D01*
X1148799Y798250D01*
Y1051701D01*
X1527701D01*
Y995750D01*
D02*
G37*
G36*
X2250201Y1005694D02*
Y420556D01*
X2186194Y356549D01*
X2156750D01*
X2155775Y356355D01*
X2154948Y355802D01*
X2144394Y345249D01*
X2140466D01*
X2139940Y346519D01*
X2141252Y347832D01*
X2142832Y350568D01*
X2143650Y353620D01*
Y356780D01*
X2142832Y359832D01*
X2141252Y362568D01*
X2139018Y364802D01*
X2136282Y366382D01*
X2133817Y367043D01*
Y368357D01*
X2136282Y369018D01*
X2139018Y370598D01*
X2141252Y372832D01*
X2142832Y375568D01*
X2143650Y378620D01*
Y381780D01*
X2142832Y384832D01*
X2141252Y387568D01*
X2139018Y389802D01*
X2136282Y391382D01*
X2133817Y392043D01*
Y393357D01*
X2136282Y394018D01*
X2139018Y395598D01*
X2141252Y397832D01*
X2142832Y400568D01*
X2143650Y403620D01*
Y406780D01*
X2142832Y409832D01*
X2141252Y412568D01*
X2139018Y414802D01*
X2136282Y416382D01*
X2133230Y417200D01*
X2130070D01*
X2127018Y416382D01*
X2124282Y414802D01*
X2122048Y412568D01*
X2120468Y409832D01*
X2119980Y408013D01*
X2118710Y408180D01*
Y410200D01*
X2118470Y412027D01*
X2117764Y413730D01*
X2116642Y415192D01*
X2115180Y416315D01*
X2113477Y417020D01*
X2111650Y417260D01*
X2101650D01*
X2099823Y417020D01*
X2098120Y416315D01*
X2096658Y415192D01*
X2095535Y413730D01*
X2094830Y412027D01*
X2094590Y410200D01*
Y400200D01*
X2094830Y398373D01*
X2095535Y396670D01*
X2096658Y395207D01*
X2098120Y394086D01*
X2099823Y393380D01*
X2101650Y393140D01*
X2103670D01*
X2103837Y391870D01*
X2102018Y391382D01*
X2099282Y389802D01*
X2097048Y387568D01*
X2095468Y384832D01*
X2094650Y381780D01*
Y378620D01*
X2095468Y375568D01*
X2097048Y372832D01*
X2099282Y370598D01*
X2102018Y369018D01*
X2104483Y368357D01*
Y367043D01*
X2102018Y366382D01*
X2099282Y364802D01*
X2097048Y362568D01*
X2095468Y359832D01*
X2094650Y356780D01*
Y353620D01*
X2095468Y350568D01*
X2097048Y347832D01*
X2098311Y346569D01*
X2097784Y345299D01*
X2094750D01*
X2093775Y345105D01*
X2092948Y344552D01*
X2056694Y308299D01*
X2015306D01*
X2004052Y319552D01*
X2003226Y320105D01*
X2002250Y320299D01*
X1832854D01*
X1832514Y321569D01*
X1832770Y321716D01*
X1834173Y323120D01*
X1835166Y324840D01*
X1835606Y326480D01*
X1820674D01*
X1821114Y324840D01*
X1822106Y323120D01*
X1823510Y321716D01*
X1823766Y321569D01*
X1823425Y320299D01*
X1823000D01*
X1822025Y320105D01*
X1821198Y319552D01*
X1815944Y314299D01*
X1690556D01*
X1648549Y356306D01*
Y360000D01*
Y432944D01*
X1666056Y450451D01*
X1682238D01*
X1683213Y450645D01*
X1684040Y451198D01*
X1710293Y477451D01*
X1740500D01*
X1741476Y477645D01*
X1742302Y478198D01*
X1749806Y485701D01*
X1761629D01*
X1762115Y484528D01*
X1761967Y484380D01*
X1760974Y482660D01*
X1760534Y481020D01*
X1775466D01*
X1775026Y482660D01*
X1774034Y484380D01*
X1773885Y484528D01*
X1774371Y485701D01*
X1778944D01*
X1787698Y476948D01*
X1788525Y476395D01*
X1789500Y476201D01*
X1840038D01*
X1882041Y434198D01*
X1882868Y433645D01*
X1883843Y433451D01*
X1947500D01*
X1948475Y433645D01*
X1949302Y434198D01*
X1968890Y453785D01*
X2120834D01*
X2121809Y453979D01*
X2122636Y454532D01*
X2167552Y499448D01*
X2168105Y500275D01*
X2168299Y501250D01*
Y682750D01*
Y735680D01*
X2169569Y736401D01*
X2170548Y735835D01*
X2172328Y735358D01*
X2174172D01*
X2175952Y735835D01*
X2177548Y736757D01*
X2178851Y738060D01*
X2179773Y739656D01*
X2180250Y741437D01*
Y743280D01*
X2179773Y745060D01*
X2178851Y746656D01*
X2177548Y747960D01*
X2175952Y748881D01*
X2174172Y749358D01*
X2172328D01*
X2170548Y748881D01*
X2169569Y748316D01*
X2168299Y749036D01*
Y882500D01*
X2168105Y883475D01*
X2167552Y884302D01*
X2143302Y908552D01*
X2142475Y909105D01*
X2141500Y909299D01*
X2096306D01*
X2079052Y926552D01*
X2079052Y926552D01*
X2065927Y939677D01*
X2065101Y940230D01*
X2064125Y940424D01*
X1918931D01*
X1915033Y944322D01*
X1915690Y945461D01*
X1916252Y945310D01*
X1919148D01*
X1921946Y946060D01*
X1924454Y947508D01*
X1926502Y949556D01*
X1927950Y952064D01*
X1928700Y954862D01*
Y957758D01*
X1927950Y960556D01*
X1926502Y963064D01*
X1924454Y965112D01*
X1921946Y966560D01*
X1919148Y967310D01*
X1916252D01*
X1913454Y966560D01*
X1910946Y965112D01*
X1908898Y963064D01*
X1908569Y962495D01*
X1907299Y962835D01*
Y965500D01*
X1907105Y966476D01*
X1906552Y967302D01*
X1880052Y993802D01*
X1879225Y994355D01*
X1878250Y994549D01*
X1830086D01*
X1829110Y994355D01*
X1828283Y993802D01*
X1811698Y977217D01*
X1811145Y976390D01*
X1810951Y975414D01*
Y954806D01*
X1805694Y949549D01*
X1787549D01*
Y1037500D01*
X1787355Y1038475D01*
X1786802Y1039302D01*
X1785975Y1039855D01*
X1785000Y1040049D01*
X1645000D01*
X1644025Y1039855D01*
X1643198Y1039302D01*
X1642448Y1038552D01*
X1641895Y1037726D01*
X1641701Y1036750D01*
Y996306D01*
X1636944Y991549D01*
X1607250D01*
X1606275Y991355D01*
X1605448Y990802D01*
X1599194Y984549D01*
X1545056D01*
X1537748Y991857D01*
X1538234Y993030D01*
X1545120D01*
Y1003300D01*
X1534850D01*
Y996414D01*
X1533677Y995928D01*
X1532799Y996806D01*
Y1051451D01*
X2204444Y1051451D01*
X2250201Y1005694D01*
D02*
G37*
G36*
X1902201Y964444D02*
Y951000D01*
X1902395Y950024D01*
X1902948Y949198D01*
X1916073Y936073D01*
X1916900Y935520D01*
X1917875Y935326D01*
X1976172D01*
X1976339Y934056D01*
X1974414Y933540D01*
X1971906Y932092D01*
X1969858Y930044D01*
X1968410Y927536D01*
X1967660Y924738D01*
Y921842D01*
X1968410Y919044D01*
X1969858Y916536D01*
X1971906Y914488D01*
X1974414Y913040D01*
X1977212Y912290D01*
X1980108D01*
X1982906Y913040D01*
X1985414Y914488D01*
X1987462Y916536D01*
X1988910Y919044D01*
X1989660Y921842D01*
Y924738D01*
X1988910Y927536D01*
X1987462Y930044D01*
X1985414Y932092D01*
X1982906Y933540D01*
X1980981Y934056D01*
X1981149Y935326D01*
X2001572D01*
X2001739Y934056D01*
X1999814Y933540D01*
X1997306Y932092D01*
X1995258Y930044D01*
X1993810Y927536D01*
X1993060Y924738D01*
Y921842D01*
X1993810Y919044D01*
X1995258Y916536D01*
X1997306Y914488D01*
X1999814Y913040D01*
X2002612Y912290D01*
X2005508D01*
X2008306Y913040D01*
X2010814Y914488D01*
X2012862Y916536D01*
X2014310Y919044D01*
X2015060Y921842D01*
Y924738D01*
X2014310Y927536D01*
X2012862Y930044D01*
X2010814Y932092D01*
X2008306Y933540D01*
X2006381Y934056D01*
X2006548Y935326D01*
X2063069D01*
X2075448Y922948D01*
X2075448Y922948D01*
X2093448Y904948D01*
X2094274Y904395D01*
X2095250Y904201D01*
X2140444D01*
X2163201Y881444D01*
Y798244D01*
X2161931Y797718D01*
X2161048Y798601D01*
X2159452Y799523D01*
X2157672Y800000D01*
X2155828D01*
X2154048Y799523D01*
X2152452Y798601D01*
X2151149Y797298D01*
X2150227Y795702D01*
X2149750Y793922D01*
Y792078D01*
X2150227Y790298D01*
X2151149Y788702D01*
X2152452Y787399D01*
X2154048Y786477D01*
X2155828Y786000D01*
X2157672D01*
X2159452Y786477D01*
X2161048Y787399D01*
X2161931Y788282D01*
X2163201Y787756D01*
Y682750D01*
Y502306D01*
X2119778Y458883D01*
X1969875D01*
X1920455Y508302D01*
X1919628Y508855D01*
X1918653Y509049D01*
X1778348D01*
X1778008Y510319D01*
X1779130Y510966D01*
X1780533Y512370D01*
X1781526Y514090D01*
X1781966Y515730D01*
X1766661D01*
X1765846Y515259D01*
X1761299Y519806D01*
Y558694D01*
X1785302Y582698D01*
X1785302Y582698D01*
X1894302Y691698D01*
X1894855Y692524D01*
X1895049Y693500D01*
Y702000D01*
Y958250D01*
X1894855Y959225D01*
X1894302Y960052D01*
X1885549Y968806D01*
Y971250D01*
X1885355Y972225D01*
X1884802Y973052D01*
X1877802Y980052D01*
X1876975Y980605D01*
X1876000Y980799D01*
X1845000D01*
X1844025Y980605D01*
X1843198Y980052D01*
X1832198Y969052D01*
X1832081Y968878D01*
X1831398Y968271D01*
X1830396Y968457D01*
X1829410Y969026D01*
X1827770Y969466D01*
Y962000D01*
X1826500D01*
Y960730D01*
X1819034D01*
X1819474Y959090D01*
X1819919Y958319D01*
X1819186Y957049D01*
X1816049D01*
Y974358D01*
X1831142Y989451D01*
X1877194D01*
X1902201Y964444D01*
D02*
G37*
G36*
X1503701Y944194D02*
Y854750D01*
Y845750D01*
X1503895Y844774D01*
X1504448Y843948D01*
X1523194Y825201D01*
X1523698Y824448D01*
X1524525Y823895D01*
X1525500Y823701D01*
X1746250Y823701D01*
X1747225Y823895D01*
X1748052Y824448D01*
X1804802Y881198D01*
X1805355Y882025D01*
X1805549Y883000D01*
Y915875D01*
X1828476Y938802D01*
X1829649Y938316D01*
Y937170D01*
X1852851D01*
Y940400D01*
X1852609Y942238D01*
X1851899Y943950D01*
X1850771Y945421D01*
X1849780Y946181D01*
X1850211Y947451D01*
X1852500D01*
X1853475Y947645D01*
X1854302Y948198D01*
X1866051Y959947D01*
X1867305Y959404D01*
X1867724Y957840D01*
X1868716Y956120D01*
X1870120Y954716D01*
X1871840Y953724D01*
X1873480Y953284D01*
Y960750D01*
X1874750D01*
Y962020D01*
X1882216D01*
X1882108Y962422D01*
X1882986Y963933D01*
X1883165Y963980D01*
X1889951Y957194D01*
Y702000D01*
Y694556D01*
X1781698Y586302D01*
X1781698Y586302D01*
X1756948Y561552D01*
X1756395Y560726D01*
X1756201Y559750D01*
Y518750D01*
X1756395Y517775D01*
X1756948Y516948D01*
X1769198Y504698D01*
X1770025Y504145D01*
X1771000Y503951D01*
X1917597D01*
X1964722Y456826D01*
X1946444Y438549D01*
X1884899D01*
X1878281Y445167D01*
X1878670Y446574D01*
X1879762Y446867D01*
X1881358Y447789D01*
X1882661Y449092D01*
X1883583Y450688D01*
X1884060Y452468D01*
Y454312D01*
X1883583Y456092D01*
X1882661Y457688D01*
X1881358Y458991D01*
X1879762Y459913D01*
X1877982Y460390D01*
X1876138D01*
X1874358Y459913D01*
X1872762Y458991D01*
X1871459Y457688D01*
X1870537Y456092D01*
X1870244Y455000D01*
X1868837Y454611D01*
X1842896Y480552D01*
X1842069Y481105D01*
X1841093Y481299D01*
X1790556D01*
X1781802Y490052D01*
X1780975Y490605D01*
X1780000Y490799D01*
X1748750D01*
X1747775Y490605D01*
X1746948Y490052D01*
X1739444Y482549D01*
X1585553D01*
X1585368Y483041D01*
X1585333Y483819D01*
X1586718Y484619D01*
X1588021Y485922D01*
X1588943Y487518D01*
X1589420Y489298D01*
Y491142D01*
X1588943Y492922D01*
X1588021Y494518D01*
X1586718Y495821D01*
X1585122Y496743D01*
X1583342Y497220D01*
X1581498D01*
X1579718Y496743D01*
X1578122Y495821D01*
X1576819Y494518D01*
X1575897Y492922D01*
X1575420Y491142D01*
Y489298D01*
X1575897Y487518D01*
X1576819Y485922D01*
X1578122Y484619D01*
X1579507Y483819D01*
X1579472Y483041D01*
X1579287Y482549D01*
X1543719D01*
X1498551Y527717D01*
X1498940Y529124D01*
X1500032Y529417D01*
X1501628Y530339D01*
X1502931Y531642D01*
X1503853Y533238D01*
X1504330Y535018D01*
Y536862D01*
X1503853Y538642D01*
X1502931Y540238D01*
X1501628Y541541D01*
X1500032Y542463D01*
X1498252Y542940D01*
X1496408D01*
X1494628Y542463D01*
X1493032Y541541D01*
X1491729Y540238D01*
X1490807Y538642D01*
X1490514Y537550D01*
X1489107Y537161D01*
X1462549Y563719D01*
Y585250D01*
X1462355Y586225D01*
X1461802Y587052D01*
X1453802Y595052D01*
X1452975Y595605D01*
X1452000Y595799D01*
X1440316D01*
X1440149Y597069D01*
X1441660Y597474D01*
X1443380Y598466D01*
X1444783Y599870D01*
X1445776Y601590D01*
X1446216Y603230D01*
X1431284D01*
X1431724Y601590D01*
X1432717Y599870D01*
X1434120Y598466D01*
X1435840Y597474D01*
X1437351Y597069D01*
X1437184Y595799D01*
X1403806D01*
X1398799Y600806D01*
Y609694D01*
X1403306Y614201D01*
X1451250D01*
X1452225Y614395D01*
X1453052Y614948D01*
X1461052Y622948D01*
X1461605Y623774D01*
X1461799Y624750D01*
Y755750D01*
Y828750D01*
X1461605Y829725D01*
X1461052Y830552D01*
X1422802Y868802D01*
X1422802Y868802D01*
X1371799Y919806D01*
Y967108D01*
X1386642Y981951D01*
X1465944D01*
X1503701Y944194D01*
D02*
G37*
%LPC*%
G36*
X1685191Y1031840D02*
X1684810D01*
Y1020570D01*
X1696080D01*
Y1020951D01*
X1695225Y1024140D01*
X1693575Y1027000D01*
X1691240Y1029334D01*
X1688380Y1030985D01*
X1685191Y1031840D01*
D02*
G37*
G36*
X1682270D02*
X1681889D01*
X1678700Y1030985D01*
X1675840Y1029334D01*
X1673506Y1027000D01*
X1671855Y1024140D01*
X1671000Y1020951D01*
Y1020570D01*
X1682270D01*
Y1031840D01*
D02*
G37*
G36*
X1715120Y1031300D02*
X1711960D01*
X1708908Y1030482D01*
X1706172Y1028902D01*
X1703938Y1026668D01*
X1702358Y1023932D01*
X1701540Y1020880D01*
Y1017720D01*
X1702358Y1014668D01*
X1703938Y1011932D01*
X1706172Y1009698D01*
X1708908Y1008118D01*
X1711960Y1007300D01*
X1715120D01*
X1718172Y1008118D01*
X1720908Y1009698D01*
X1723142Y1011932D01*
X1724722Y1014668D01*
X1725540Y1017720D01*
Y1020880D01*
X1724722Y1023932D01*
X1723142Y1026668D01*
X1720908Y1028902D01*
X1718172Y1030482D01*
X1715120Y1031300D01*
D02*
G37*
G36*
X1696080Y1018030D02*
X1684810D01*
Y1006760D01*
X1685191D01*
X1688380Y1007615D01*
X1691240Y1009266D01*
X1693575Y1011600D01*
X1695225Y1014460D01*
X1696080Y1017649D01*
Y1018030D01*
D02*
G37*
G36*
X1682270D02*
X1671000D01*
Y1017649D01*
X1671855Y1014460D01*
X1673506Y1011600D01*
X1675840Y1009266D01*
X1678700Y1007615D01*
X1681889Y1006760D01*
X1682270D01*
Y1018030D01*
D02*
G37*
G36*
X1771422Y1013500D02*
X1769578D01*
X1767798Y1013023D01*
X1766202Y1012101D01*
X1764899Y1010798D01*
X1763977Y1009202D01*
X1763500Y1007422D01*
Y1005578D01*
X1763977Y1003798D01*
X1764899Y1002202D01*
X1766202Y1000899D01*
X1767798Y999977D01*
X1769578Y999500D01*
X1771422D01*
X1773202Y999977D01*
X1774798Y1000899D01*
X1776101Y1002202D01*
X1777023Y1003798D01*
X1777500Y1005578D01*
Y1007422D01*
X1777023Y1009202D01*
X1776101Y1010798D01*
X1774798Y1012101D01*
X1773202Y1013023D01*
X1771422Y1013500D01*
D02*
G37*
G36*
X1200680Y1016530D02*
X1171680D01*
Y987530D01*
X1200680D01*
Y1016530D01*
D02*
G37*
G36*
X1685120Y1001300D02*
X1681960D01*
X1678908Y1000482D01*
X1676172Y998902D01*
X1673938Y996668D01*
X1672358Y993932D01*
X1671540Y990880D01*
Y987720D01*
X1672358Y984668D01*
X1673938Y981932D01*
X1676172Y979698D01*
X1678908Y978118D01*
X1681960Y977300D01*
X1685120D01*
X1688172Y978118D01*
X1690908Y979698D01*
X1693142Y981932D01*
X1694722Y984668D01*
X1695540Y987720D01*
Y990880D01*
X1694722Y993932D01*
X1693142Y996668D01*
X1690908Y998902D01*
X1688172Y1000482D01*
X1685120Y1001300D01*
D02*
G37*
G36*
X1718540Y1001360D02*
X1708540D01*
X1706713Y1001120D01*
X1705010Y1000415D01*
X1703548Y999293D01*
X1702426Y997830D01*
X1701720Y996127D01*
X1701480Y994300D01*
Y984300D01*
X1701720Y982473D01*
X1702426Y980770D01*
X1703548Y979307D01*
X1705010Y978186D01*
X1706713Y977480D01*
X1708540Y977240D01*
X1718540D01*
X1720367Y977480D01*
X1722070Y978186D01*
X1723533Y979307D01*
X1724655Y980770D01*
X1725360Y982473D01*
X1725600Y984300D01*
Y994300D01*
X1725360Y996127D01*
X1724655Y997830D01*
X1723533Y999293D01*
X1722070Y1000415D01*
X1720367Y1001120D01*
X1718540Y1001360D01*
D02*
G37*
G36*
X1627716Y977480D02*
X1621520D01*
Y971284D01*
X1623160Y971724D01*
X1624880Y972717D01*
X1626284Y974120D01*
X1627276Y975840D01*
X1627716Y977480D01*
D02*
G37*
G36*
X1618980D02*
X1612784D01*
X1613224Y975840D01*
X1614216Y974120D01*
X1615620Y972717D01*
X1617340Y971724D01*
X1618980Y971284D01*
Y977480D01*
D02*
G37*
G36*
X1851270Y968716D02*
Y962520D01*
X1857466D01*
X1857026Y964160D01*
X1856033Y965880D01*
X1854630Y967283D01*
X1852910Y968276D01*
X1851270Y968716D01*
D02*
G37*
G36*
X1848730D02*
X1847090Y968276D01*
X1845370Y967283D01*
X1843967Y965880D01*
X1842974Y964160D01*
X1842534Y962520D01*
X1848730D01*
Y968716D01*
D02*
G37*
G36*
X1607702Y960000D02*
X1605858D01*
X1604078Y959523D01*
X1602482Y958601D01*
X1601178Y957298D01*
X1600257Y955702D01*
X1599780Y953922D01*
Y952078D01*
X1600257Y950298D01*
X1601178Y948702D01*
X1602482Y947399D01*
X1604078Y946477D01*
X1605858Y946000D01*
X1607702D01*
X1609482Y946477D01*
X1611078Y947399D01*
X1612381Y948702D01*
X1613303Y950298D01*
X1613780Y952078D01*
Y953922D01*
X1613303Y955702D01*
X1612381Y957298D01*
X1611078Y958601D01*
X1609482Y959523D01*
X1607702Y960000D01*
D02*
G37*
G36*
X1683194Y913000D02*
X1680806D01*
X1678601Y912086D01*
X1676913Y910399D01*
X1676000Y908194D01*
Y905807D01*
X1676913Y903601D01*
X1678601Y901913D01*
X1680806Y901000D01*
X1683194D01*
X1685399Y901913D01*
X1687086Y903601D01*
X1688000Y905807D01*
Y908194D01*
X1687086Y910399D01*
X1685399Y912086D01*
X1683194Y913000D01*
D02*
G37*
G36*
X1596922Y898750D02*
X1595078D01*
X1593298Y898273D01*
X1591702Y897351D01*
X1590399Y896048D01*
X1589477Y894452D01*
X1589000Y892672D01*
Y890828D01*
X1589477Y889048D01*
X1590399Y887452D01*
X1591702Y886149D01*
X1593298Y885227D01*
X1595078Y884750D01*
X1596922D01*
X1598702Y885227D01*
X1600298Y886149D01*
X1601601Y887452D01*
X1602523Y889048D01*
X1603000Y890828D01*
Y892672D01*
X1602523Y894452D01*
X1601601Y896048D01*
X1600298Y897351D01*
X1598702Y898273D01*
X1596922Y898750D01*
D02*
G37*
G36*
X1586422Y870500D02*
X1584578D01*
X1582798Y870023D01*
X1581202Y869101D01*
X1579899Y867798D01*
X1578977Y866202D01*
X1578500Y864422D01*
Y862578D01*
X1578977Y860798D01*
X1579899Y859202D01*
X1581202Y857899D01*
X1582798Y856977D01*
X1584578Y856500D01*
X1586422D01*
X1588202Y856977D01*
X1589798Y857899D01*
X1591101Y859202D01*
X1592023Y860798D01*
X1592500Y862578D01*
Y864422D01*
X1592023Y866202D01*
X1591101Y867798D01*
X1589798Y869101D01*
X1588202Y870023D01*
X1586422Y870500D01*
D02*
G37*
G36*
X1286922Y747750D02*
X1285078D01*
X1283298Y747273D01*
X1281702Y746351D01*
X1280399Y745048D01*
X1279477Y743452D01*
X1279000Y741672D01*
Y739828D01*
X1279477Y738048D01*
X1280399Y736452D01*
X1281702Y735149D01*
X1283298Y734227D01*
X1285078Y733750D01*
X1286922D01*
X1288702Y734227D01*
X1290298Y735149D01*
X1291601Y736452D01*
X1292523Y738048D01*
X1293000Y739828D01*
Y741672D01*
X1292523Y743452D01*
X1291601Y745048D01*
X1290298Y746351D01*
X1288702Y747273D01*
X1286922Y747750D01*
D02*
G37*
G36*
X1418108Y734940D02*
X1415212D01*
X1412414Y734190D01*
X1409906Y732742D01*
X1407858Y730694D01*
X1406410Y728186D01*
X1405660Y725388D01*
Y722492D01*
X1406410Y719694D01*
X1407858Y717186D01*
X1409906Y715138D01*
X1412414Y713690D01*
X1415212Y712940D01*
X1418108D01*
X1420906Y713690D01*
X1423414Y715138D01*
X1425462Y717186D01*
X1426910Y719694D01*
X1427660Y722492D01*
Y725388D01*
X1426910Y728186D01*
X1425462Y730694D01*
X1423414Y732742D01*
X1420906Y734190D01*
X1418108Y734940D01*
D02*
G37*
G36*
Y709540D02*
X1415212D01*
X1412414Y708790D01*
X1409906Y707342D01*
X1407858Y705294D01*
X1406410Y702786D01*
X1405660Y699988D01*
Y697092D01*
X1406410Y694294D01*
X1407858Y691786D01*
X1409906Y689738D01*
X1412414Y688290D01*
X1415212Y687540D01*
X1418108D01*
X1420906Y688290D01*
X1423414Y689738D01*
X1425462Y691786D01*
X1426910Y694294D01*
X1427660Y697092D01*
Y699988D01*
X1426910Y702786D01*
X1425462Y705294D01*
X1423414Y707342D01*
X1420906Y708790D01*
X1418108Y709540D01*
D02*
G37*
G36*
X1330693Y695740D02*
X1328850D01*
X1327070Y695263D01*
X1325473Y694341D01*
X1324170Y693038D01*
X1323248Y691442D01*
X1322771Y689661D01*
Y687818D01*
X1323248Y686038D01*
X1324170Y684442D01*
X1325473Y683139D01*
X1327070Y682217D01*
X1328850Y681740D01*
X1330693D01*
X1332473Y682217D01*
X1334070Y683139D01*
X1335373Y684442D01*
X1336294Y686038D01*
X1336772Y687818D01*
Y689661D01*
X1336294Y691442D01*
X1335373Y693038D01*
X1334070Y694341D01*
X1332473Y695263D01*
X1330693Y695740D01*
D02*
G37*
G36*
X1437770Y670466D02*
Y664270D01*
X1443966D01*
X1443526Y665910D01*
X1442534Y667630D01*
X1441130Y669034D01*
X1439410Y670026D01*
X1437770Y670466D01*
D02*
G37*
G36*
X1435230D02*
X1433590Y670026D01*
X1431870Y669034D01*
X1430466Y667630D01*
X1429474Y665910D01*
X1429034Y664270D01*
X1435230D01*
Y670466D01*
D02*
G37*
G36*
X1443966Y661730D02*
X1437770D01*
Y655534D01*
X1439410Y655974D01*
X1441130Y656966D01*
X1442534Y658370D01*
X1443526Y660090D01*
X1443966Y661730D01*
D02*
G37*
G36*
X1435230D02*
X1429034D01*
X1429474Y660090D01*
X1430466Y658370D01*
X1431870Y656966D01*
X1433590Y655974D01*
X1435230Y655534D01*
Y661730D01*
D02*
G37*
G36*
X1340638Y649850D02*
X1337742D01*
X1334944Y649100D01*
X1332436Y647652D01*
X1330388Y645604D01*
X1328940Y643096D01*
X1328190Y640298D01*
Y637402D01*
X1328940Y634604D01*
X1330388Y632096D01*
X1332436Y630048D01*
X1334944Y628600D01*
X1337742Y627850D01*
X1340638D01*
X1343436Y628600D01*
X1345944Y630048D01*
X1347992Y632096D01*
X1349440Y634604D01*
X1350190Y637402D01*
Y640298D01*
X1349440Y643096D01*
X1347992Y645604D01*
X1345944Y647652D01*
X1343436Y649100D01*
X1340638Y649850D01*
D02*
G37*
G36*
X1439672Y634750D02*
X1437828D01*
X1436048Y634273D01*
X1434452Y633351D01*
X1433149Y632048D01*
X1432227Y630452D01*
X1431750Y628672D01*
Y626828D01*
X1432227Y625048D01*
X1433149Y623452D01*
X1434452Y622149D01*
X1436048Y621227D01*
X1437828Y620750D01*
X1439672D01*
X1441452Y621227D01*
X1443048Y622149D01*
X1444351Y623452D01*
X1445273Y625048D01*
X1445750Y626828D01*
Y628672D01*
X1445273Y630452D01*
X1444351Y632048D01*
X1443048Y633351D01*
X1441452Y634273D01*
X1439672Y634750D01*
D02*
G37*
G36*
X1395770Y589216D02*
Y583020D01*
X1401966D01*
X1401526Y584660D01*
X1400533Y586380D01*
X1399130Y587784D01*
X1397410Y588776D01*
X1395770Y589216D01*
D02*
G37*
G36*
X1393230D02*
X1391590Y588776D01*
X1389870Y587784D01*
X1388466Y586380D01*
X1387474Y584660D01*
X1387034Y583020D01*
X1393230D01*
Y589216D01*
D02*
G37*
G36*
X1283422Y592500D02*
X1281578D01*
X1279798Y592023D01*
X1278202Y591101D01*
X1276899Y589798D01*
X1275977Y588202D01*
X1275500Y586422D01*
Y584578D01*
X1275977Y582798D01*
X1276899Y581202D01*
X1278202Y579899D01*
X1279798Y578977D01*
X1281578Y578500D01*
X1283422D01*
X1285202Y578977D01*
X1286798Y579899D01*
X1288101Y581202D01*
X1289023Y582798D01*
X1289500Y584578D01*
Y586422D01*
X1289023Y588202D01*
X1288101Y589798D01*
X1286798Y591101D01*
X1285202Y592023D01*
X1283422Y592500D01*
D02*
G37*
G36*
X1401966Y580480D02*
X1395770D01*
Y574284D01*
X1397410Y574724D01*
X1399130Y575717D01*
X1400533Y577120D01*
X1401526Y578840D01*
X1401966Y580480D01*
D02*
G37*
G36*
X1393230D02*
X1387034D01*
X1387474Y578840D01*
X1388466Y577120D01*
X1389870Y575717D01*
X1391590Y574724D01*
X1393230Y574284D01*
Y580480D01*
D02*
G37*
G36*
X1497672Y463000D02*
X1495828D01*
X1494048Y462523D01*
X1492452Y461601D01*
X1491149Y460298D01*
X1490227Y458702D01*
X1489750Y456922D01*
Y455078D01*
X1490227Y453298D01*
X1491149Y451702D01*
X1492452Y450399D01*
X1494048Y449477D01*
X1495828Y449000D01*
X1497672D01*
X1499452Y449477D01*
X1501048Y450399D01*
X1502351Y451702D01*
X1503273Y453298D01*
X1503750Y455078D01*
Y456922D01*
X1503273Y458702D01*
X1502351Y460298D01*
X1501048Y461601D01*
X1499452Y462523D01*
X1497672Y463000D01*
D02*
G37*
G36*
X1432212D02*
X1430368D01*
X1428588Y462523D01*
X1426992Y461601D01*
X1425689Y460298D01*
X1424767Y458702D01*
X1424290Y456922D01*
Y455078D01*
X1424767Y453298D01*
X1425689Y451702D01*
X1426992Y450399D01*
X1428588Y449477D01*
X1430368Y449000D01*
X1432212D01*
X1433992Y449477D01*
X1435588Y450399D01*
X1436891Y451702D01*
X1437813Y453298D01*
X1438290Y455078D01*
Y456922D01*
X1437813Y458702D01*
X1436891Y460298D01*
X1435588Y461601D01*
X1433992Y462523D01*
X1432212Y463000D01*
D02*
G37*
G36*
X665527Y451960D02*
X662894D01*
X660350Y451278D01*
X658070Y449962D01*
X656208Y448100D01*
X654892Y445820D01*
X654210Y443276D01*
Y440644D01*
X654892Y438100D01*
X656208Y435820D01*
X658070Y433958D01*
X660350Y432641D01*
X662894Y431960D01*
X665527D01*
X668070Y432641D01*
X670350Y433958D01*
X672212Y435820D01*
X673529Y438100D01*
X674210Y440644D01*
Y443276D01*
X673529Y445820D01*
X672212Y448100D01*
X670350Y449962D01*
X668070Y451278D01*
X665527Y451960D01*
D02*
G37*
G36*
X496520Y436466D02*
Y430270D01*
X502716D01*
X502276Y431910D01*
X501283Y433630D01*
X499880Y435033D01*
X498160Y436026D01*
X496520Y436466D01*
D02*
G37*
G36*
X493980D02*
X492340Y436026D01*
X490620Y435033D01*
X489216Y433630D01*
X488224Y431910D01*
X487784Y430270D01*
X493980D01*
Y436466D01*
D02*
G37*
G36*
X1313790Y650954D02*
X1310657Y650541D01*
X1307738Y649332D01*
X1305231Y647409D01*
X1303308Y644902D01*
X1302099Y641983D01*
X1301686Y638850D01*
Y489040D01*
X1301737Y488658D01*
X1301378Y482265D01*
X1300241Y475576D01*
X1298363Y469055D01*
X1295766Y462786D01*
X1292484Y456848D01*
X1288557Y451314D01*
X1284036Y446254D01*
X1278976Y441733D01*
X1273442Y437806D01*
X1267504Y434524D01*
X1261235Y431927D01*
X1254714Y430049D01*
X1248025Y428912D01*
X1241632Y428553D01*
X1241250Y428604D01*
X896580D01*
Y428616D01*
X890711Y428154D01*
X884987Y426780D01*
X879548Y424527D01*
X874529Y421451D01*
X870052Y417628D01*
X866229Y413151D01*
X863153Y408132D01*
X860900Y402693D01*
X859526Y396969D01*
X859064Y391100D01*
X859064D01*
X858964Y389871D01*
X857668Y387627D01*
X856680Y383939D01*
Y380121D01*
X857668Y376433D01*
X859577Y373127D01*
X862277Y370427D01*
X865583Y368518D01*
X869271Y367530D01*
X873089D01*
X876777Y368518D01*
X880083Y370427D01*
X882783Y373127D01*
X884692Y376433D01*
X885680Y380121D01*
Y383939D01*
X884692Y387627D01*
X883284Y390066D01*
Y391100D01*
X883238Y391446D01*
X883649Y394565D01*
X884986Y397794D01*
X887114Y400566D01*
X889886Y402694D01*
X893115Y404031D01*
X896234Y404442D01*
X896580Y404396D01*
X1241250D01*
X1241269Y404399D01*
X1249546Y404806D01*
X1257763Y406024D01*
X1265820Y408043D01*
X1273641Y410841D01*
X1281150Y414393D01*
X1288275Y418663D01*
X1294946Y423611D01*
X1301101Y429189D01*
X1306679Y435344D01*
X1311627Y442015D01*
X1315898Y449140D01*
X1319449Y456649D01*
X1322247Y464470D01*
X1324266Y472527D01*
X1325484Y480744D01*
X1325891Y489021D01*
X1325894Y489040D01*
Y638850D01*
X1325481Y641983D01*
X1324272Y644902D01*
X1322348Y647409D01*
X1319842Y649332D01*
X1316923Y650541D01*
X1313790Y650954D01*
D02*
G37*
G36*
X502716Y427730D02*
X496520D01*
Y421534D01*
X498160Y421974D01*
X499880Y422966D01*
X501283Y424370D01*
X502276Y426090D01*
X502716Y427730D01*
D02*
G37*
G36*
X493980D02*
X487784D01*
X488224Y426090D01*
X489216Y424370D01*
X490620Y422966D01*
X492340Y421974D01*
X493980Y421534D01*
Y427730D01*
D02*
G37*
G36*
X1484922Y416000D02*
X1483078D01*
X1481298Y415523D01*
X1479702Y414601D01*
X1478399Y413298D01*
X1477477Y411702D01*
X1477000Y409922D01*
Y408078D01*
X1477477Y406298D01*
X1478399Y404702D01*
X1479702Y403399D01*
X1481298Y402477D01*
X1483078Y402000D01*
X1484922D01*
X1486702Y402477D01*
X1488298Y403399D01*
X1489601Y404702D01*
X1490523Y406298D01*
X1491000Y408078D01*
Y409922D01*
X1490523Y411702D01*
X1489601Y413298D01*
X1488298Y414601D01*
X1486702Y415523D01*
X1484922Y416000D01*
D02*
G37*
G36*
X1409922Y415500D02*
X1408078D01*
X1406298Y415023D01*
X1404702Y414101D01*
X1403399Y412798D01*
X1402477Y411202D01*
X1402000Y409422D01*
Y407578D01*
X1402477Y405798D01*
X1403399Y404202D01*
X1404702Y402899D01*
X1406298Y401977D01*
X1408078Y401500D01*
X1409922D01*
X1411702Y401977D01*
X1413298Y402899D01*
X1414601Y404202D01*
X1415523Y405798D01*
X1416000Y407578D01*
Y409422D01*
X1415523Y411202D01*
X1414601Y412798D01*
X1413298Y414101D01*
X1411702Y415023D01*
X1409922Y415500D01*
D02*
G37*
G36*
X1464292Y393502D02*
X1462448D01*
X1460668Y393025D01*
X1459072Y392103D01*
X1457769Y390800D01*
X1456847Y389204D01*
X1456370Y387423D01*
Y385580D01*
X1456847Y383800D01*
X1457769Y382204D01*
X1459072Y380900D01*
X1460668Y379979D01*
X1462448Y379502D01*
X1464292D01*
X1466072Y379979D01*
X1467668Y380900D01*
X1468972Y382204D01*
X1469893Y383800D01*
X1470370Y385580D01*
Y387423D01*
X1469893Y389204D01*
X1468972Y390800D01*
X1467668Y392103D01*
X1466072Y393025D01*
X1464292Y393502D01*
D02*
G37*
G36*
X1390632D02*
X1388788D01*
X1387008Y393025D01*
X1385412Y392103D01*
X1384109Y390800D01*
X1383187Y389204D01*
X1382710Y387423D01*
Y385580D01*
X1383187Y383800D01*
X1384109Y382204D01*
X1385412Y380900D01*
X1387008Y379979D01*
X1388788Y379502D01*
X1390632D01*
X1392412Y379979D01*
X1394008Y380900D01*
X1395311Y382204D01*
X1396233Y383800D01*
X1396710Y385580D01*
Y387423D01*
X1396233Y389204D01*
X1395311Y390800D01*
X1394008Y392103D01*
X1392412Y393025D01*
X1390632Y393502D01*
D02*
G37*
G36*
X614020Y384716D02*
Y378520D01*
X620216D01*
X619776Y380160D01*
X618783Y381880D01*
X617380Y383284D01*
X615660Y384276D01*
X614020Y384716D01*
D02*
G37*
G36*
X611480D02*
X609840Y384276D01*
X608120Y383284D01*
X606716Y381880D01*
X605724Y380160D01*
X605284Y378520D01*
X611480D01*
Y384716D01*
D02*
G37*
G36*
X1241172Y390250D02*
X1239328D01*
X1237548Y389773D01*
X1235952Y388851D01*
X1234649Y387548D01*
X1233727Y385952D01*
X1233250Y384172D01*
Y382328D01*
X1233727Y380548D01*
X1234649Y378952D01*
X1235952Y377649D01*
X1237548Y376727D01*
X1239328Y376250D01*
X1241172D01*
X1242952Y376727D01*
X1244548Y377649D01*
X1245851Y378952D01*
X1246773Y380548D01*
X1247250Y382328D01*
Y384172D01*
X1246773Y385952D01*
X1245851Y387548D01*
X1244548Y388851D01*
X1242952Y389773D01*
X1241172Y390250D01*
D02*
G37*
G36*
X620216Y375980D02*
X614020D01*
Y369784D01*
X615660Y370224D01*
X617380Y371217D01*
X618783Y372620D01*
X619776Y374340D01*
X620216Y375980D01*
D02*
G37*
G36*
X611480D02*
X605284D01*
X605724Y374340D01*
X606716Y372620D01*
X608120Y371217D01*
X609840Y370224D01*
X611480Y369784D01*
Y375980D01*
D02*
G37*
G36*
X1103089Y396530D02*
X1099271D01*
X1095583Y395542D01*
X1092277Y393633D01*
X1089577Y390933D01*
X1087668Y387627D01*
X1086680Y383939D01*
Y380121D01*
X1087668Y376433D01*
X1089577Y373127D01*
X1092277Y370427D01*
X1095583Y368518D01*
X1099271Y367530D01*
X1103089D01*
X1106777Y368518D01*
X1110083Y370427D01*
X1112783Y373127D01*
X1114692Y376433D01*
X1115680Y380121D01*
Y383939D01*
X1114692Y387627D01*
X1112783Y390933D01*
X1110083Y393633D01*
X1106777Y395542D01*
X1103089Y396530D01*
D02*
G37*
G36*
X690835Y376475D02*
X688448D01*
X686243Y375562D01*
X684555Y373874D01*
X683642Y371669D01*
Y369282D01*
X684555Y367077D01*
X686243Y365389D01*
X688448Y364475D01*
X690835D01*
X693040Y365389D01*
X694728Y367077D01*
X695641Y369282D01*
Y371669D01*
X694728Y373874D01*
X693040Y375562D01*
X690835Y376475D01*
D02*
G37*
G36*
X599193Y344500D02*
X596806D01*
X594601Y343587D01*
X592913Y341899D01*
X592000Y339693D01*
Y337307D01*
X592913Y335101D01*
X594601Y333414D01*
X596806Y332500D01*
X599193D01*
X601399Y333414D01*
X603087Y335101D01*
X604000Y337307D01*
Y339693D01*
X603087Y341899D01*
X601399Y343587D01*
X599193Y344500D01*
D02*
G37*
G36*
X606520Y331966D02*
Y325770D01*
X612716D01*
X612276Y327410D01*
X611283Y329130D01*
X609880Y330533D01*
X608160Y331526D01*
X606520Y331966D01*
D02*
G37*
G36*
X603980D02*
X602340Y331526D01*
X600620Y330533D01*
X599216Y329130D01*
X598224Y327410D01*
X597784Y325770D01*
X603980D01*
Y331966D01*
D02*
G37*
G36*
X612716Y323230D02*
X606520D01*
Y317034D01*
X608160Y317474D01*
X609880Y318466D01*
X611283Y319870D01*
X612276Y321590D01*
X612716Y323230D01*
D02*
G37*
G36*
X603980D02*
X597784D01*
X598224Y321590D01*
X599216Y319870D01*
X600620Y318466D01*
X602340Y317474D01*
X603980Y317034D01*
Y323230D01*
D02*
G37*
G36*
X742020Y321930D02*
Y316770D01*
X747180D01*
X746844Y318024D01*
X745983Y319516D01*
X744766Y320733D01*
X743274Y321594D01*
X742020Y321930D01*
D02*
G37*
G36*
X739480D02*
X738226Y321594D01*
X736734Y320733D01*
X735517Y319516D01*
X734656Y318024D01*
X734320Y316770D01*
X739480D01*
Y321930D01*
D02*
G37*
G36*
X695257Y326924D02*
X693414D01*
X691634Y326446D01*
X690037Y325525D01*
X688734Y324222D01*
X687812Y322626D01*
X687335Y320845D01*
Y319002D01*
X687812Y317222D01*
X688734Y315625D01*
X690037Y314322D01*
X691634Y313401D01*
X693414Y312924D01*
X695257D01*
X697037Y313401D01*
X698633Y314322D01*
X699937Y315625D01*
X700858Y317222D01*
X701335Y319002D01*
Y320845D01*
X700858Y322626D01*
X699937Y324222D01*
X698633Y325525D01*
X697037Y326446D01*
X695257Y326924D01*
D02*
G37*
G36*
X747180Y314230D02*
X742020D01*
Y309070D01*
X743274Y309406D01*
X744766Y310267D01*
X745983Y311484D01*
X746844Y312976D01*
X747180Y314230D01*
D02*
G37*
G36*
X739480D02*
X734320D01*
X734656Y312976D01*
X735517Y311484D01*
X736734Y310267D01*
X738226Y309406D01*
X739480Y309070D01*
Y314230D01*
D02*
G37*
G36*
X1321414Y316540D02*
X1320770D01*
Y303270D01*
X1334040D01*
Y303914D01*
X1333049Y307612D01*
X1331135Y310928D01*
X1328428Y313635D01*
X1325112Y315549D01*
X1321414Y316540D01*
D02*
G37*
G36*
X1318230D02*
X1317586D01*
X1313888Y315549D01*
X1310572Y313635D01*
X1307865Y310928D01*
X1305951Y307612D01*
X1304960Y303914D01*
Y303270D01*
X1318230D01*
Y316540D01*
D02*
G37*
G36*
X600172Y315750D02*
X598328D01*
X596548Y315273D01*
X594952Y314351D01*
X593649Y313048D01*
X592727Y311452D01*
X592250Y309672D01*
Y307828D01*
X592727Y306048D01*
X593649Y304452D01*
X594952Y303149D01*
X596548Y302227D01*
X598328Y301750D01*
X600172D01*
X601952Y302227D01*
X603548Y303149D01*
X604851Y304452D01*
X605773Y306048D01*
X606250Y307828D01*
Y309672D01*
X605773Y311452D01*
X604851Y313048D01*
X603548Y314351D01*
X601952Y315273D01*
X600172Y315750D01*
D02*
G37*
G36*
X672672Y315250D02*
X670828D01*
X669048Y314773D01*
X667452Y313851D01*
X666149Y312548D01*
X665227Y310952D01*
X664750Y309172D01*
Y307328D01*
X665227Y305548D01*
X666149Y303952D01*
X667452Y302649D01*
X669048Y301727D01*
X670828Y301250D01*
X672672D01*
X674452Y301727D01*
X676048Y302649D01*
X677351Y303952D01*
X678273Y305548D01*
X678750Y307328D01*
Y309172D01*
X678273Y310952D01*
X677351Y312548D01*
X676048Y313851D01*
X674452Y314773D01*
X672672Y315250D01*
D02*
G37*
G36*
X756944Y308500D02*
X754557D01*
X752351Y307587D01*
X750663Y305899D01*
X749750Y303694D01*
Y301306D01*
X750663Y299101D01*
X752351Y297414D01*
X754557Y296500D01*
X756944D01*
X759149Y297414D01*
X760837Y299101D01*
X761750Y301306D01*
Y303694D01*
X760837Y305899D01*
X759149Y307587D01*
X756944Y308500D01*
D02*
G37*
G36*
X1920020Y1042216D02*
Y1036020D01*
X1926216D01*
X1925776Y1037660D01*
X1924783Y1039380D01*
X1923380Y1040783D01*
X1921660Y1041776D01*
X1920020Y1042216D01*
D02*
G37*
G36*
X1917480D02*
X1915840Y1041776D01*
X1914120Y1040783D01*
X1912717Y1039380D01*
X1911724Y1037660D01*
X1911284Y1036020D01*
X1917480D01*
Y1042216D01*
D02*
G37*
G36*
X1926216Y1033480D02*
X1920020D01*
Y1027284D01*
X1921660Y1027724D01*
X1923380Y1028717D01*
X1924783Y1030120D01*
X1925776Y1031840D01*
X1926216Y1033480D01*
D02*
G37*
G36*
X1917480D02*
X1911284D01*
X1911724Y1031840D01*
X1912717Y1030120D01*
X1914120Y1028717D01*
X1915840Y1027724D01*
X1917480Y1027284D01*
Y1033480D01*
D02*
G37*
G36*
X2005508Y1043510D02*
X2002612D01*
X1999814Y1042760D01*
X1997306Y1041312D01*
X1995258Y1039264D01*
X1993810Y1036756D01*
X1993060Y1033958D01*
Y1031062D01*
X1993810Y1028264D01*
X1995258Y1025756D01*
X1997306Y1023708D01*
X1999814Y1022260D01*
X2002612Y1021510D01*
X2005508D01*
X2008306Y1022260D01*
X2010814Y1023708D01*
X2012862Y1025756D01*
X2014310Y1028264D01*
X2015060Y1031062D01*
Y1033958D01*
X2014310Y1036756D01*
X2012862Y1039264D01*
X2010814Y1041312D01*
X2008306Y1042760D01*
X2005508Y1043510D01*
D02*
G37*
G36*
X1980108D02*
X1977212D01*
X1974414Y1042760D01*
X1971906Y1041312D01*
X1969858Y1039264D01*
X1968410Y1036756D01*
X1967660Y1033958D01*
Y1031062D01*
X1968410Y1028264D01*
X1969858Y1025756D01*
X1971906Y1023708D01*
X1974414Y1022260D01*
X1977212Y1021510D01*
X1980108D01*
X1982906Y1022260D01*
X1985414Y1023708D01*
X1987462Y1025756D01*
X1988910Y1028264D01*
X1989660Y1031062D01*
Y1033958D01*
X1988910Y1036756D01*
X1987462Y1039264D01*
X1985414Y1041312D01*
X1982906Y1042760D01*
X1980108Y1043510D01*
D02*
G37*
G36*
X1585075Y1026970D02*
X1582705D01*
X1580416Y1026357D01*
X1578364Y1025172D01*
X1576688Y1023496D01*
X1575503Y1021444D01*
X1574890Y1019155D01*
Y1016785D01*
X1575071Y1016110D01*
X1574173Y1015212D01*
X1572838Y1015570D01*
X1569942D01*
X1567144Y1014820D01*
X1564636Y1013372D01*
X1562588Y1011324D01*
X1561140Y1008816D01*
X1560390Y1006018D01*
Y1003122D01*
X1561140Y1000324D01*
X1562588Y997816D01*
X1564636Y995768D01*
X1567144Y994320D01*
X1569942Y993570D01*
X1572838D01*
X1575636Y994320D01*
X1578144Y995768D01*
X1580192Y997816D01*
X1581640Y1000324D01*
X1582390Y1003122D01*
Y1006018D01*
X1581893Y1007873D01*
X1582347Y1008487D01*
X1582914Y1008970D01*
X1584866D01*
X1585433Y1008487D01*
X1585887Y1007873D01*
X1585390Y1006018D01*
Y1003122D01*
X1586140Y1000324D01*
X1587588Y997816D01*
X1589636Y995768D01*
X1592144Y994320D01*
X1594942Y993570D01*
X1597838D01*
X1600636Y994320D01*
X1603144Y995768D01*
X1605192Y997816D01*
X1606640Y1000324D01*
X1607390Y1003122D01*
Y1006018D01*
X1606640Y1008816D01*
X1605192Y1011324D01*
X1603144Y1013372D01*
X1600636Y1014820D01*
X1597838Y1015570D01*
X1594942D01*
X1593607Y1015212D01*
X1592709Y1016110D01*
X1592890Y1016785D01*
Y1019155D01*
X1592277Y1021444D01*
X1591092Y1023496D01*
X1589416Y1025172D01*
X1587364Y1026357D01*
X1585075Y1026970D01*
D02*
G37*
G36*
X1839172Y1028500D02*
X1837328D01*
X1835548Y1028023D01*
X1833952Y1027101D01*
X1832649Y1025798D01*
X1831727Y1024202D01*
X1831250Y1022422D01*
Y1020578D01*
X1831727Y1018798D01*
X1832649Y1017202D01*
X1833952Y1015899D01*
X1835548Y1014977D01*
X1837328Y1014500D01*
X1839172D01*
X1840952Y1014977D01*
X1842548Y1015899D01*
X1843851Y1017202D01*
X1844773Y1018798D01*
X1845250Y1020578D01*
Y1022422D01*
X1844773Y1024202D01*
X1843851Y1025798D01*
X1842548Y1027101D01*
X1840952Y1028023D01*
X1839172Y1028500D01*
D02*
G37*
G36*
X1557930Y1016110D02*
X1547660D01*
Y1005840D01*
X1557930D01*
Y1016110D01*
D02*
G37*
G36*
X1545120D02*
X1534850D01*
Y1005840D01*
X1545120D01*
Y1016110D01*
D02*
G37*
G36*
X2190167Y1046100D02*
X2185833D01*
X2181583Y1045255D01*
X2177579Y1043596D01*
X2173976Y1041189D01*
X2170912Y1038124D01*
X2168504Y1034521D01*
X2166846Y1030517D01*
X2166000Y1026267D01*
Y1021933D01*
X2166846Y1017683D01*
X2168504Y1013679D01*
X2170912Y1010076D01*
X2173976Y1007011D01*
X2177579Y1004604D01*
X2181583Y1002945D01*
X2185833Y1002100D01*
X2190167D01*
X2194417Y1002945D01*
X2198421Y1004604D01*
X2202024Y1007011D01*
X2205089Y1010076D01*
X2207496Y1013679D01*
X2209155Y1017683D01*
X2210000Y1021933D01*
Y1026267D01*
X2209155Y1030517D01*
X2207496Y1034521D01*
X2205089Y1038124D01*
X2202024Y1041189D01*
X2198421Y1043596D01*
X2194417Y1045255D01*
X2190167Y1046100D01*
D02*
G37*
G36*
X1894922Y1010500D02*
X1893078D01*
X1891298Y1010023D01*
X1889702Y1009101D01*
X1888399Y1007798D01*
X1887477Y1006202D01*
X1887000Y1004422D01*
Y1002578D01*
X1887477Y1000798D01*
X1888399Y999202D01*
X1889702Y997899D01*
X1891298Y996977D01*
X1893078Y996500D01*
X1894922D01*
X1896702Y996977D01*
X1898298Y997899D01*
X1899601Y999202D01*
X1900523Y1000798D01*
X1901000Y1002578D01*
Y1004422D01*
X1900523Y1006202D01*
X1899601Y1007798D01*
X1898298Y1009101D01*
X1896702Y1010023D01*
X1894922Y1010500D01*
D02*
G37*
G36*
X1622838Y1015570D02*
X1619942D01*
X1617144Y1014820D01*
X1614636Y1013372D01*
X1612588Y1011324D01*
X1611140Y1008816D01*
X1610390Y1006018D01*
Y1003122D01*
X1611140Y1000324D01*
X1612588Y997816D01*
X1614636Y995768D01*
X1617144Y994320D01*
X1619942Y993570D01*
X1622838D01*
X1625636Y994320D01*
X1628144Y995768D01*
X1630192Y997816D01*
X1631640Y1000324D01*
X1632390Y1003122D01*
Y1006018D01*
X1631640Y1008816D01*
X1630192Y1011324D01*
X1628144Y1013372D01*
X1625636Y1014820D01*
X1622838Y1015570D01*
D02*
G37*
G36*
X1557930Y1003300D02*
X1547660D01*
Y993030D01*
X1557930D01*
Y1003300D01*
D02*
G37*
G36*
X2036922Y996750D02*
X2035078D01*
X2033298Y996273D01*
X2031702Y995351D01*
X2030399Y994048D01*
X2029477Y992452D01*
X2029000Y990672D01*
Y988828D01*
X2029477Y987048D01*
X2030399Y985452D01*
X2031702Y984149D01*
X2033298Y983227D01*
X2035078Y982750D01*
X2036922D01*
X2038702Y983227D01*
X2040298Y984149D01*
X2041601Y985452D01*
X2042523Y987048D01*
X2043000Y988828D01*
Y990672D01*
X2042523Y992452D01*
X2041601Y994048D01*
X2040298Y995351D01*
X2038702Y996273D01*
X2036922Y996750D01*
D02*
G37*
G36*
X2078422Y991500D02*
X2076578D01*
X2074798Y991023D01*
X2073202Y990101D01*
X2071899Y988798D01*
X2070977Y987202D01*
X2070500Y985422D01*
Y983578D01*
X2070977Y981798D01*
X2071899Y980202D01*
X2073202Y978899D01*
X2074798Y977977D01*
X2076578Y977500D01*
X2078422D01*
X2080202Y977977D01*
X2081798Y978899D01*
X2083101Y980202D01*
X2084023Y981798D01*
X2084500Y983578D01*
Y985422D01*
X2084023Y987202D01*
X2083101Y988798D01*
X2081798Y990101D01*
X2080202Y991023D01*
X2078422Y991500D01*
D02*
G37*
G36*
X1919148Y992710D02*
X1916252D01*
X1913454Y991960D01*
X1910946Y990512D01*
X1908898Y988464D01*
X1907450Y985956D01*
X1906700Y983158D01*
Y980262D01*
X1907450Y977464D01*
X1908898Y974956D01*
X1910946Y972908D01*
X1913454Y971460D01*
X1916252Y970710D01*
X1919148D01*
X1921946Y971460D01*
X1924454Y972908D01*
X1926502Y974956D01*
X1927950Y977464D01*
X1928700Y980262D01*
Y983158D01*
X1927950Y985956D01*
X1926502Y988464D01*
X1924454Y990512D01*
X1921946Y991960D01*
X1919148Y992710D01*
D02*
G37*
G36*
X1802270Y968966D02*
Y962770D01*
X1808466D01*
X1808026Y964410D01*
X1807034Y966130D01*
X1805630Y967533D01*
X1803910Y968526D01*
X1802270Y968966D01*
D02*
G37*
G36*
X1799730D02*
X1798090Y968526D01*
X1796370Y967533D01*
X1794966Y966130D01*
X1793974Y964410D01*
X1793534Y962770D01*
X1799730D01*
Y968966D01*
D02*
G37*
G36*
X2204767Y977340D02*
X2202133D01*
X2199590Y976659D01*
X2197310Y975342D01*
X2195448Y973480D01*
X2194131Y971200D01*
X2193450Y968657D01*
Y966024D01*
X2194131Y963480D01*
X2195448Y961200D01*
X2197310Y959338D01*
X2199590Y958022D01*
X2202133Y957340D01*
X2204767D01*
X2207310Y958022D01*
X2209590Y959338D01*
X2211452Y961200D01*
X2212769Y963480D01*
X2213450Y966024D01*
Y968657D01*
X2212769Y971200D01*
X2211452Y973480D01*
X2209590Y975342D01*
X2207310Y976659D01*
X2204767Y977340D01*
D02*
G37*
G36*
X1808466Y960230D02*
X1802270D01*
Y954034D01*
X1803910Y954474D01*
X1805630Y955467D01*
X1807034Y956870D01*
X1808026Y958590D01*
X1808466Y960230D01*
D02*
G37*
G36*
X1799730D02*
X1793534D01*
X1793974Y958590D01*
X1794966Y956870D01*
X1796370Y955467D01*
X1798090Y954474D01*
X1799730Y954034D01*
Y960230D01*
D02*
G37*
G36*
X2037922Y964250D02*
X2036078D01*
X2034298Y963773D01*
X2032702Y962851D01*
X2031399Y961548D01*
X2030477Y959952D01*
X2030000Y958172D01*
Y956328D01*
X2030477Y954548D01*
X2031399Y952952D01*
X2032702Y951649D01*
X2034298Y950727D01*
X2036078Y950250D01*
X2037922D01*
X2039702Y950727D01*
X2041298Y951649D01*
X2042601Y952952D01*
X2043523Y954548D01*
X2044000Y956328D01*
Y958172D01*
X2043523Y959952D01*
X2042601Y961548D01*
X2041298Y962851D01*
X2039702Y963773D01*
X2037922Y964250D01*
D02*
G37*
G36*
X2204767Y952340D02*
X2202133D01*
X2199590Y951658D01*
X2197310Y950342D01*
X2195448Y948480D01*
X2194131Y946200D01*
X2193450Y943656D01*
Y941023D01*
X2194131Y938480D01*
X2195448Y936200D01*
X2197310Y934338D01*
X2199590Y933021D01*
X2202133Y932340D01*
X2204767D01*
X2207310Y933021D01*
X2209590Y934338D01*
X2211452Y936200D01*
X2212769Y938480D01*
X2213450Y941023D01*
Y943656D01*
X2212769Y946200D01*
X2211452Y948480D01*
X2209590Y950342D01*
X2207310Y951658D01*
X2204767Y952340D01*
D02*
G37*
G36*
X2111650Y979401D02*
X2101650D01*
X2099823Y979160D01*
X2098120Y978455D01*
X2096658Y977333D01*
X2095536Y975870D01*
X2094830Y974168D01*
X2094590Y972340D01*
Y962340D01*
X2094830Y960513D01*
X2095536Y958810D01*
X2096658Y957348D01*
X2098120Y956226D01*
X2099823Y955520D01*
X2101650Y955280D01*
X2103671D01*
X2103838Y954010D01*
X2102018Y953522D01*
X2099282Y951942D01*
X2097048Y949708D01*
X2095468Y946972D01*
X2094650Y943920D01*
Y940760D01*
X2095468Y937708D01*
X2097048Y934972D01*
X2099282Y932738D01*
X2102018Y931158D01*
X2105070Y930340D01*
X2108230D01*
X2111282Y931158D01*
X2114018Y932738D01*
X2116252Y934972D01*
X2117832Y937708D01*
X2118492Y940172D01*
X2119807D01*
X2120468Y937708D01*
X2122047Y934972D01*
X2124282Y932738D01*
X2127018Y931158D01*
X2130070Y930340D01*
X2133230D01*
X2136282Y931158D01*
X2139018Y932738D01*
X2141252Y934972D01*
X2142832Y937708D01*
X2143650Y940760D01*
Y943920D01*
X2142832Y946972D01*
X2141252Y949708D01*
X2139018Y951942D01*
X2136282Y953522D01*
X2133817Y954183D01*
Y955498D01*
X2136282Y956158D01*
X2139018Y957738D01*
X2141252Y959972D01*
X2142832Y962708D01*
X2143650Y965760D01*
Y968920D01*
X2142832Y971972D01*
X2141252Y974708D01*
X2139018Y976943D01*
X2136282Y978522D01*
X2133230Y979340D01*
X2130070D01*
X2127018Y978522D01*
X2124282Y976943D01*
X2122047Y974708D01*
X2120468Y971972D01*
X2119980Y970154D01*
X2118710Y970322D01*
Y972340D01*
X2118470Y974168D01*
X2117765Y975870D01*
X2116643Y977333D01*
X2115180Y978455D01*
X2113477Y979160D01*
X2111650Y979401D01*
D02*
G37*
G36*
X2191424Y895070D02*
X2187976D01*
X2184595Y894398D01*
X2181411Y893078D01*
X2178544Y891163D01*
X2176107Y888726D01*
X2174192Y885859D01*
X2172872Y882675D01*
X2172200Y879294D01*
Y875846D01*
X2172872Y872465D01*
X2174192Y869281D01*
X2176107Y866414D01*
X2178544Y863977D01*
X2181411Y862062D01*
X2184595Y860742D01*
X2187976Y860070D01*
X2191424D01*
X2194805Y860742D01*
X2197989Y862062D01*
X2200856Y863977D01*
X2203293Y866414D01*
X2205208Y869281D01*
X2206527Y872465D01*
X2207200Y875846D01*
Y879294D01*
X2206527Y882675D01*
X2205208Y885859D01*
X2203293Y888726D01*
X2200856Y891163D01*
X2197989Y893078D01*
X2194805Y894398D01*
X2191424Y895070D01*
D02*
G37*
G36*
X2199422Y802500D02*
X2197578D01*
X2195798Y802023D01*
X2194202Y801101D01*
X2192899Y799798D01*
X2191977Y798202D01*
X2191500Y796422D01*
Y794578D01*
X2191977Y792798D01*
X2192899Y791202D01*
X2194202Y789899D01*
X2195798Y788977D01*
X2197578Y788500D01*
X2199422D01*
X2201202Y788977D01*
X2202798Y789899D01*
X2204101Y791202D01*
X2205023Y792798D01*
X2205500Y794578D01*
Y796422D01*
X2205023Y798202D01*
X2204101Y799798D01*
X2202798Y801101D01*
X2201202Y802023D01*
X2199422Y802500D01*
D02*
G37*
G36*
X2223233Y724300D02*
X2219687D01*
X2216210Y723608D01*
X2212934Y722251D01*
X2209986Y720282D01*
X2207478Y717774D01*
X2205509Y714826D01*
X2204152Y711550D01*
X2203460Y708073D01*
Y704527D01*
X2204152Y701050D01*
X2205509Y697774D01*
X2207478Y694826D01*
X2209986Y692318D01*
X2212934Y690349D01*
X2216210Y688992D01*
X2219687Y688300D01*
X2223233D01*
X2226710Y688992D01*
X2229986Y690349D01*
X2232934Y692318D01*
X2235441Y694826D01*
X2237411Y697774D01*
X2238768Y701050D01*
X2239460Y704527D01*
Y708073D01*
X2238768Y711550D01*
X2237411Y714826D01*
X2235441Y717774D01*
X2232934Y720282D01*
X2229986Y722251D01*
X2226710Y723608D01*
X2223233Y724300D01*
D02*
G37*
G36*
X2237240Y648700D02*
X2234080D01*
X2231028Y647882D01*
X2228292Y646302D01*
X2226058Y644068D01*
X2224478Y641332D01*
X2223660Y638280D01*
Y635120D01*
X2224478Y632068D01*
X2226058Y629332D01*
X2228292Y627098D01*
X2231028Y625518D01*
X2234080Y624700D01*
X2237240D01*
X2240292Y625518D01*
X2243028Y627098D01*
X2245262Y629332D01*
X2246842Y632068D01*
X2247660Y635120D01*
Y638280D01*
X2246842Y641332D01*
X2245262Y644068D01*
X2243028Y646302D01*
X2240292Y647882D01*
X2237240Y648700D01*
D02*
G37*
G36*
X2208911Y635390D02*
X2208530D01*
Y624120D01*
X2219800D01*
Y624501D01*
X2218945Y627690D01*
X2217294Y630550D01*
X2214960Y632884D01*
X2212100Y634535D01*
X2208911Y635390D01*
D02*
G37*
G36*
X2205990D02*
X2205609D01*
X2202420Y634535D01*
X2199560Y632884D01*
X2197225Y630550D01*
X2195575Y627690D01*
X2194720Y624501D01*
Y624120D01*
X2205990D01*
Y635390D01*
D02*
G37*
G36*
X2219800Y621580D02*
X2208530D01*
Y610310D01*
X2208911D01*
X2212100Y611165D01*
X2214960Y612816D01*
X2217294Y615150D01*
X2218945Y618010D01*
X2219800Y621199D01*
Y621580D01*
D02*
G37*
G36*
X2205990D02*
X2194720D01*
Y621199D01*
X2195575Y618010D01*
X2197225Y615150D01*
X2199560Y612816D01*
X2202420Y611165D01*
X2205609Y610310D01*
X2205990D01*
Y621580D01*
D02*
G37*
G36*
X2237240Y621000D02*
X2234080D01*
X2231028Y620182D01*
X2228292Y618602D01*
X2226058Y616368D01*
X2224478Y613632D01*
X2223660Y610580D01*
Y607420D01*
X2224478Y604368D01*
X2226058Y601632D01*
X2228292Y599398D01*
X2231028Y597818D01*
X2234080Y597000D01*
X2237240D01*
X2240292Y597818D01*
X2243028Y599398D01*
X2245262Y601632D01*
X2246842Y604368D01*
X2247660Y607420D01*
Y610580D01*
X2246842Y613632D01*
X2245262Y616368D01*
X2243028Y618602D01*
X2240292Y620182D01*
X2237240Y621000D01*
D02*
G37*
G36*
X2208840Y607150D02*
X2205680D01*
X2202628Y606332D01*
X2199892Y604752D01*
X2197658Y602518D01*
X2196078Y599782D01*
X2195260Y596730D01*
Y593570D01*
X2196078Y590518D01*
X2197658Y587782D01*
X2199892Y585548D01*
X2202628Y583968D01*
X2205680Y583150D01*
X2208840D01*
X2211892Y583968D01*
X2214628Y585548D01*
X2216862Y587782D01*
X2218442Y590518D01*
X2219260Y593570D01*
Y596730D01*
X2218442Y599782D01*
X2216862Y602518D01*
X2214628Y604752D01*
X2211892Y606332D01*
X2208840Y607150D01*
D02*
G37*
G36*
X2237240Y593300D02*
X2234080D01*
X2231028Y592482D01*
X2228292Y590902D01*
X2226058Y588668D01*
X2224478Y585932D01*
X2223660Y582880D01*
Y579720D01*
X2224478Y576668D01*
X2226058Y573932D01*
X2228292Y571698D01*
X2231028Y570118D01*
X2234080Y569300D01*
X2237240D01*
X2240292Y570118D01*
X2243028Y571698D01*
X2245262Y573932D01*
X2246842Y576668D01*
X2247660Y579720D01*
Y582880D01*
X2246842Y585932D01*
X2245262Y588668D01*
X2243028Y590902D01*
X2240292Y592482D01*
X2237240Y593300D01*
D02*
G37*
G36*
X2208840Y579450D02*
X2205680D01*
X2202628Y578632D01*
X2199892Y577052D01*
X2197658Y574818D01*
X2196078Y572082D01*
X2195260Y569030D01*
Y565870D01*
X2196078Y562818D01*
X2197658Y560082D01*
X2199892Y557848D01*
X2202628Y556268D01*
X2205680Y555450D01*
X2208840D01*
X2211892Y556268D01*
X2214628Y557848D01*
X2216862Y560082D01*
X2218442Y562818D01*
X2219260Y565870D01*
Y569030D01*
X2218442Y572082D01*
X2216862Y574818D01*
X2214628Y577052D01*
X2211892Y578632D01*
X2208840Y579450D01*
D02*
G37*
G36*
X2237240Y565600D02*
X2234080D01*
X2231028Y564782D01*
X2228292Y563202D01*
X2226058Y560968D01*
X2224478Y558232D01*
X2223660Y555180D01*
Y552020D01*
X2224478Y548968D01*
X2226058Y546232D01*
X2228292Y543998D01*
X2231028Y542418D01*
X2234080Y541600D01*
X2237240D01*
X2240292Y542418D01*
X2243028Y543998D01*
X2245262Y546232D01*
X2246842Y548968D01*
X2247660Y552020D01*
Y555180D01*
X2246842Y558232D01*
X2245262Y560968D01*
X2243028Y563202D01*
X2240292Y564782D01*
X2237240Y565600D01*
D02*
G37*
G36*
X2208840Y551750D02*
X2205680D01*
X2202628Y550932D01*
X2199892Y549352D01*
X2197658Y547118D01*
X2196078Y544382D01*
X2195260Y541330D01*
Y538170D01*
X2196078Y535118D01*
X2197658Y532382D01*
X2199892Y530148D01*
X2202628Y528568D01*
X2205680Y527750D01*
X2208840D01*
X2211892Y528568D01*
X2214628Y530148D01*
X2216862Y532382D01*
X2218442Y535118D01*
X2219260Y538170D01*
Y541330D01*
X2218442Y544382D01*
X2216862Y547118D01*
X2214628Y549352D01*
X2211892Y550932D01*
X2208840Y551750D01*
D02*
G37*
G36*
X2240660Y537960D02*
X2230660D01*
X2228833Y537720D01*
X2227130Y537015D01*
X2225668Y535892D01*
X2224545Y534430D01*
X2223840Y532727D01*
X2223600Y530900D01*
Y520900D01*
X2223840Y519073D01*
X2224545Y517370D01*
X2225668Y515908D01*
X2227130Y514785D01*
X2228833Y514080D01*
X2230660Y513840D01*
X2240660D01*
X2242487Y514080D01*
X2244190Y514785D01*
X2245652Y515908D01*
X2246774Y517370D01*
X2247480Y519073D01*
X2247720Y520900D01*
Y530900D01*
X2247480Y532727D01*
X2246774Y534430D01*
X2245652Y535892D01*
X2244190Y537015D01*
X2242487Y537720D01*
X2240660Y537960D01*
D02*
G37*
G36*
X1775466Y478480D02*
X1769270D01*
Y472284D01*
X1770910Y472724D01*
X1772630Y473717D01*
X1774034Y475120D01*
X1775026Y476840D01*
X1775466Y478480D01*
D02*
G37*
G36*
X1766730D02*
X1760534D01*
X1760974Y476840D01*
X1761967Y475120D01*
X1763370Y473717D01*
X1765090Y472724D01*
X1766730Y472284D01*
Y478480D01*
D02*
G37*
G36*
X1757922Y460260D02*
X1756078D01*
X1754298Y459783D01*
X1752702Y458862D01*
X1751399Y457558D01*
X1750477Y455962D01*
X1750000Y454182D01*
Y452339D01*
X1750477Y450558D01*
X1751399Y448962D01*
X1752702Y447659D01*
X1754298Y446737D01*
X1756078Y446260D01*
X1757922D01*
X1759702Y446737D01*
X1761298Y447659D01*
X1762601Y448962D01*
X1763523Y450558D01*
X1764000Y452339D01*
Y454182D01*
X1763523Y455962D01*
X1762601Y457558D01*
X1761298Y458862D01*
X1759702Y459783D01*
X1757922Y460260D01*
D02*
G37*
G36*
X2223233Y474300D02*
X2219687D01*
X2216210Y473608D01*
X2212934Y472251D01*
X2209986Y470281D01*
X2207478Y467774D01*
X2205509Y464826D01*
X2204152Y461550D01*
X2203460Y458073D01*
Y454527D01*
X2204152Y451050D01*
X2205509Y447774D01*
X2207478Y444826D01*
X2209986Y442318D01*
X2212934Y440349D01*
X2216210Y438992D01*
X2219687Y438300D01*
X2223233D01*
X2226710Y438992D01*
X2229986Y440349D01*
X2232934Y442318D01*
X2235441Y444826D01*
X2237411Y447774D01*
X2238768Y451050D01*
X2239460Y454527D01*
Y458073D01*
X2238768Y461550D01*
X2237411Y464826D01*
X2235441Y467774D01*
X2232934Y470281D01*
X2229986Y472251D01*
X2226710Y473608D01*
X2223233Y474300D01*
D02*
G37*
G36*
X1843770Y442966D02*
Y436770D01*
X1849966D01*
X1849526Y438410D01*
X1848533Y440130D01*
X1847130Y441534D01*
X1845410Y442526D01*
X1843770Y442966D01*
D02*
G37*
G36*
X1841230D02*
X1839590Y442526D01*
X1837870Y441534D01*
X1836467Y440130D01*
X1835474Y438410D01*
X1835034Y436770D01*
X1841230D01*
Y442966D01*
D02*
G37*
G36*
X1710612Y450424D02*
X1708768D01*
X1706988Y449947D01*
X1705392Y449025D01*
X1704089Y447722D01*
X1703167Y446126D01*
X1702690Y444346D01*
Y442502D01*
X1703167Y440722D01*
X1704089Y439126D01*
X1705392Y437823D01*
X1706988Y436901D01*
X1708768Y436424D01*
X1710612D01*
X1712392Y436901D01*
X1713988Y437823D01*
X1715291Y439126D01*
X1716213Y440722D01*
X1716690Y442502D01*
Y444346D01*
X1716213Y446126D01*
X1715291Y447722D01*
X1713988Y449025D01*
X1712392Y449947D01*
X1710612Y450424D01*
D02*
G37*
G36*
X1972770Y442466D02*
Y436270D01*
X1978966D01*
X1978526Y437910D01*
X1977534Y439630D01*
X1976130Y441034D01*
X1974410Y442026D01*
X1972770Y442466D01*
D02*
G37*
G36*
X1970230D02*
X1968590Y442026D01*
X1966870Y441034D01*
X1965466Y439630D01*
X1964474Y437910D01*
X1964034Y436270D01*
X1970230D01*
Y442466D01*
D02*
G37*
G36*
X1760504Y444510D02*
X1758117D01*
X1755911Y443597D01*
X1754224Y441909D01*
X1753310Y439704D01*
Y437317D01*
X1754224Y435111D01*
X1755911Y433424D01*
X1758117Y432510D01*
X1760504D01*
X1762709Y433424D01*
X1764397Y435111D01*
X1765310Y437317D01*
Y439704D01*
X1764397Y441909D01*
X1762709Y443597D01*
X1760504Y444510D01*
D02*
G37*
G36*
X1849966Y434230D02*
X1843770D01*
Y428034D01*
X1845410Y428474D01*
X1847130Y429467D01*
X1848533Y430870D01*
X1849526Y432590D01*
X1849966Y434230D01*
D02*
G37*
G36*
X1841230D02*
X1835034D01*
X1835474Y432590D01*
X1836467Y430870D01*
X1837870Y429467D01*
X1839590Y428474D01*
X1841230Y428034D01*
Y434230D01*
D02*
G37*
G36*
X1978966Y433730D02*
X1972770D01*
Y427534D01*
X1974410Y427974D01*
X1976130Y428966D01*
X1977534Y430370D01*
X1978526Y432090D01*
X1978966Y433730D01*
D02*
G37*
G36*
X1970230D02*
X1964034D01*
X1964474Y432090D01*
X1965466Y430370D01*
X1966870Y428966D01*
X1968590Y427974D01*
X1970230Y427534D01*
Y433730D01*
D02*
G37*
G36*
X2059020Y411966D02*
Y405770D01*
X2065216D01*
X2064776Y407410D01*
X2063784Y409130D01*
X2062380Y410533D01*
X2060660Y411526D01*
X2059020Y411966D01*
D02*
G37*
G36*
X2056480D02*
X2054840Y411526D01*
X2053120Y410533D01*
X2051716Y409130D01*
X2050724Y407410D01*
X2050284Y405770D01*
X2056480D01*
Y411966D01*
D02*
G37*
G36*
X1682402Y414670D02*
X1680558D01*
X1678778Y414193D01*
X1677182Y413271D01*
X1675879Y411968D01*
X1674957Y410372D01*
X1674480Y408592D01*
Y406748D01*
X1674957Y404968D01*
X1675879Y403372D01*
X1677182Y402069D01*
X1678778Y401147D01*
X1680558Y400670D01*
X1682402D01*
X1684182Y401147D01*
X1685778Y402069D01*
X1687081Y403372D01*
X1688003Y404968D01*
X1688480Y406748D01*
Y408592D01*
X1688003Y410372D01*
X1687081Y411968D01*
X1685778Y413271D01*
X1684182Y414193D01*
X1682402Y414670D01*
D02*
G37*
G36*
X2065216Y403230D02*
X2059020D01*
Y397034D01*
X2060660Y397474D01*
X2062380Y398466D01*
X2063784Y399870D01*
X2064776Y401590D01*
X2065216Y403230D01*
D02*
G37*
G36*
X2056480D02*
X2050284D01*
X2050724Y401590D01*
X2051716Y399870D01*
X2053120Y398466D01*
X2054840Y397474D01*
X2056480Y397034D01*
Y403230D01*
D02*
G37*
G36*
X2204767Y415200D02*
X2202133D01*
X2199590Y414519D01*
X2197310Y413202D01*
X2195448Y411340D01*
X2194131Y409060D01*
X2193450Y406516D01*
Y403884D01*
X2194131Y401340D01*
X2195448Y399060D01*
X2197310Y397198D01*
X2199590Y395882D01*
X2202133Y395200D01*
X2204767D01*
X2207310Y395882D01*
X2209590Y397198D01*
X2211452Y399060D01*
X2212769Y401340D01*
X2213450Y403884D01*
Y406516D01*
X2212769Y409060D01*
X2211452Y411340D01*
X2209590Y413202D01*
X2207310Y414519D01*
X2204767Y415200D01*
D02*
G37*
G36*
X2021020Y391466D02*
Y385270D01*
X2027216D01*
X2026776Y386910D01*
X2025784Y388630D01*
X2024380Y390033D01*
X2022660Y391026D01*
X2021020Y391466D01*
D02*
G37*
G36*
X1760504Y392440D02*
X1758117D01*
X1755911Y391527D01*
X1754224Y389839D01*
X1753310Y387634D01*
Y385247D01*
X1754224Y383041D01*
X1755911Y381354D01*
X1758117Y380440D01*
X1760504D01*
X1762709Y381354D01*
X1764397Y383041D01*
X1765310Y385247D01*
Y387634D01*
X1764397Y389839D01*
X1762709Y391527D01*
X1760504Y392440D01*
D02*
G37*
G36*
X1956770Y383466D02*
Y377270D01*
X1962966D01*
X1962526Y378910D01*
X1961534Y380630D01*
X1960130Y382034D01*
X1958410Y383026D01*
X1956770Y383466D01*
D02*
G37*
G36*
X1954230D02*
X1952590Y383026D01*
X1950870Y382034D01*
X1949467Y380630D01*
X1948474Y378910D01*
X1948034Y377270D01*
X1954230D01*
Y383466D01*
D02*
G37*
G36*
X2027216Y382730D02*
X2021020D01*
Y376534D01*
X2022660Y376974D01*
X2024380Y377966D01*
X2025784Y379370D01*
X2026776Y381090D01*
X2027216Y382730D01*
D02*
G37*
G36*
X2006694Y392750D02*
X2004306D01*
X2002101Y391837D01*
X2000413Y390149D01*
X1999500Y387943D01*
Y385556D01*
X2000413Y383351D01*
X2002101Y381663D01*
X2004306Y380750D01*
X2006694D01*
X2008899Y381663D01*
X2010587Y383351D01*
X2010940Y384205D01*
X2012210Y383952D01*
Y383007D01*
X2012724Y381090D01*
X2013716Y379370D01*
X2015120Y377966D01*
X2016840Y376974D01*
X2018480Y376534D01*
Y384000D01*
Y391466D01*
X2016840Y391026D01*
X2015120Y390033D01*
X2013716Y388630D01*
X2012770Y386990D01*
X2012650Y386954D01*
X2011500Y387548D01*
Y387943D01*
X2010587Y390149D01*
X2008899Y391837D01*
X2006694Y392750D01*
D02*
G37*
G36*
X1962966Y374730D02*
X1956770D01*
Y368534D01*
X1958410Y368974D01*
X1960130Y369967D01*
X1961534Y371370D01*
X1962526Y373090D01*
X1962966Y374730D01*
D02*
G37*
G36*
X1954230D02*
X1948034D01*
X1948474Y373090D01*
X1949467Y371370D01*
X1950870Y369967D01*
X1952590Y368974D01*
X1954230Y368534D01*
Y374730D01*
D02*
G37*
G36*
X1681132Y362600D02*
X1679288D01*
X1677508Y362123D01*
X1675912Y361201D01*
X1674609Y359898D01*
X1673687Y358302D01*
X1673210Y356522D01*
Y354678D01*
X1673687Y352898D01*
X1674609Y351302D01*
X1675912Y349999D01*
X1677508Y349077D01*
X1679288Y348600D01*
X1681132D01*
X1682912Y349077D01*
X1684508Y349999D01*
X1685811Y351302D01*
X1686733Y352898D01*
X1687210Y354678D01*
Y356522D01*
X1686733Y358302D01*
X1685811Y359898D01*
X1684508Y361201D01*
X1682912Y362123D01*
X1681132Y362600D01*
D02*
G37*
G36*
X1958681Y352518D02*
Y346322D01*
X1964876D01*
X1964437Y347962D01*
X1963444Y349682D01*
X1962040Y351085D01*
X1960321Y352078D01*
X1958681Y352518D01*
D02*
G37*
G36*
X1956140D02*
X1954500Y352078D01*
X1952781Y351085D01*
X1951377Y349682D01*
X1950384Y347962D01*
X1949945Y346322D01*
X1956140D01*
Y352518D01*
D02*
G37*
G36*
X2021270Y352216D02*
Y346020D01*
X2027466D01*
X2027026Y347660D01*
X2026033Y349380D01*
X2024630Y350784D01*
X2022910Y351776D01*
X2021270Y352216D01*
D02*
G37*
G36*
X2018730D02*
X2017090Y351776D01*
X2015370Y350784D01*
X2013967Y349380D01*
X2012974Y347660D01*
X2012534Y346020D01*
X2018730D01*
Y352216D01*
D02*
G37*
G36*
X1890770Y348966D02*
Y342770D01*
X1896966D01*
X1896526Y344410D01*
X1895533Y346130D01*
X1894130Y347533D01*
X1892410Y348526D01*
X1890770Y348966D01*
D02*
G37*
G36*
X1888230D02*
X1886590Y348526D01*
X1884870Y347533D01*
X1883466Y346130D01*
X1882474Y344410D01*
X1882034Y342770D01*
X1888230D01*
Y348966D01*
D02*
G37*
G36*
X1986203Y351440D02*
X1983817D01*
X1981611Y350527D01*
X1979923Y348839D01*
X1979010Y346633D01*
Y344246D01*
X1979923Y342041D01*
X1981611Y340353D01*
X1983817Y339440D01*
X1986203D01*
X1988409Y340353D01*
X1990097Y342041D01*
X1991010Y344246D01*
Y346633D01*
X1990097Y348839D01*
X1988409Y350527D01*
X1986203Y351440D01*
D02*
G37*
G36*
X1857934Y350170D02*
X1855547D01*
X1853341Y349257D01*
X1851653Y347569D01*
X1850740Y345364D01*
Y342976D01*
X1851653Y340771D01*
X1853341Y339083D01*
X1855547Y338170D01*
X1857934D01*
X1860139Y339083D01*
X1861827Y340771D01*
X1862740Y342976D01*
Y345364D01*
X1861827Y347569D01*
X1860139Y349257D01*
X1857934Y350170D01*
D02*
G37*
G36*
X1964876Y343782D02*
X1958681D01*
Y337586D01*
X1960321Y338026D01*
X1962040Y339018D01*
X1963444Y340422D01*
X1964437Y342142D01*
X1964876Y343782D01*
D02*
G37*
G36*
X1956140D02*
X1949945D01*
X1950384Y342142D01*
X1951377Y340422D01*
X1952781Y339018D01*
X1954500Y338026D01*
X1956140Y337586D01*
Y343782D01*
D02*
G37*
G36*
X2027466Y343480D02*
X2021270D01*
Y337284D01*
X2022910Y337724D01*
X2024630Y338717D01*
X2026033Y340120D01*
X2027026Y341840D01*
X2027466Y343480D01*
D02*
G37*
G36*
X2018730D02*
X2012534D01*
X2012974Y341840D01*
X2013967Y340120D01*
X2015370Y338717D01*
X2017090Y337724D01*
X2018730Y337284D01*
Y343480D01*
D02*
G37*
G36*
X1795193Y348500D02*
X1792807D01*
X1790601Y347587D01*
X1788913Y345899D01*
X1788000Y343694D01*
Y341306D01*
X1788913Y339101D01*
X1790601Y337413D01*
X1792807Y336500D01*
X1795193D01*
X1797399Y337413D01*
X1799086Y339101D01*
X1800000Y341306D01*
Y343694D01*
X1799086Y345899D01*
X1797399Y347587D01*
X1795193Y348500D01*
D02*
G37*
G36*
X1896966Y340230D02*
X1890770D01*
Y334034D01*
X1892410Y334474D01*
X1894130Y335466D01*
X1895533Y336870D01*
X1896526Y338590D01*
X1896966Y340230D01*
D02*
G37*
G36*
X1888230D02*
X1882034D01*
X1882474Y338590D01*
X1883466Y336870D01*
X1884870Y335466D01*
X1886590Y334474D01*
X1888230Y334034D01*
Y340230D01*
D02*
G37*
G36*
X1829410Y335216D02*
Y329020D01*
X1835606D01*
X1835166Y330660D01*
X1834173Y332380D01*
X1832770Y333783D01*
X1831050Y334776D01*
X1829410Y335216D01*
D02*
G37*
G36*
X1826870D02*
X1825230Y334776D01*
X1823510Y333783D01*
X1822106Y332380D01*
X1821114Y330660D01*
X1820674Y329020D01*
X1826870D01*
Y335216D01*
D02*
G37*
G36*
X1760504Y340370D02*
X1758117D01*
X1755911Y339457D01*
X1754224Y337769D01*
X1753310Y335564D01*
Y333177D01*
X1754224Y330971D01*
X1755911Y329284D01*
X1758117Y328370D01*
X1760504D01*
X1762709Y329284D01*
X1764397Y330971D01*
X1765310Y333177D01*
Y335564D01*
X1764397Y337769D01*
X1762709Y339457D01*
X1760504Y340370D01*
D02*
G37*
G36*
X1825230Y969466D02*
X1823590Y969026D01*
X1821870Y968034D01*
X1820466Y966630D01*
X1819474Y964910D01*
X1819034Y963270D01*
X1825230D01*
Y969466D01*
D02*
G37*
G36*
X1920020Y931216D02*
Y925020D01*
X1926216D01*
X1925776Y926660D01*
X1924783Y928380D01*
X1923380Y929783D01*
X1921660Y930776D01*
X1920020Y931216D01*
D02*
G37*
G36*
X1917480D02*
X1915840Y930776D01*
X1914120Y929783D01*
X1912717Y928380D01*
X1911724Y926660D01*
X1911284Y925020D01*
X1917480D01*
Y931216D01*
D02*
G37*
G36*
X1926216Y922480D02*
X1920020D01*
Y916284D01*
X1921660Y916724D01*
X1923380Y917717D01*
X1924783Y919120D01*
X1925776Y920840D01*
X1926216Y922480D01*
D02*
G37*
G36*
X1917480D02*
X1911284D01*
X1911724Y920840D01*
X1912717Y919120D01*
X1914120Y917717D01*
X1915840Y916724D01*
X1917480Y916284D01*
Y922480D01*
D02*
G37*
G36*
X2037172Y889750D02*
X2035328D01*
X2033548Y889273D01*
X2031952Y888351D01*
X2030649Y887048D01*
X2029727Y885452D01*
X2029250Y883672D01*
Y881828D01*
X2029727Y880048D01*
X2030649Y878452D01*
X2031952Y877149D01*
X2033548Y876227D01*
X2035328Y875750D01*
X2037172D01*
X2038952Y876227D01*
X2040548Y877149D01*
X2041851Y878452D01*
X2042773Y880048D01*
X2043250Y881828D01*
Y883672D01*
X2042773Y885452D01*
X2041851Y887048D01*
X2040548Y888351D01*
X2038952Y889273D01*
X2037172Y889750D01*
D02*
G37*
G36*
X2078172Y882250D02*
X2076328D01*
X2074548Y881773D01*
X2072952Y880851D01*
X2071649Y879548D01*
X2070727Y877952D01*
X2070250Y876172D01*
Y874328D01*
X2070727Y872548D01*
X2071649Y870952D01*
X2072952Y869649D01*
X2074548Y868727D01*
X2076328Y868250D01*
X2078172D01*
X2079952Y868727D01*
X2081548Y869649D01*
X2082851Y870952D01*
X2083773Y872548D01*
X2084250Y874328D01*
Y876172D01*
X2083773Y877952D01*
X2082851Y879548D01*
X2081548Y880851D01*
X2079952Y881773D01*
X2078172Y882250D01*
D02*
G37*
G36*
X2147680Y889570D02*
X2144520D01*
X2141468Y888752D01*
X2138732Y887172D01*
X2136497Y884938D01*
X2134918Y882202D01*
X2134100Y879150D01*
Y875990D01*
X2134918Y872938D01*
X2136497Y870202D01*
X2138732Y867968D01*
X2141468Y866388D01*
X2144520Y865570D01*
X2147680D01*
X2150732Y866388D01*
X2153468Y867968D01*
X2155702Y870202D01*
X2157282Y872938D01*
X2158100Y875990D01*
Y879150D01*
X2157282Y882202D01*
X2155702Y884938D01*
X2153468Y887172D01*
X2150732Y888752D01*
X2147680Y889570D01*
D02*
G37*
G36*
X2117180D02*
X2114020D01*
X2110968Y888752D01*
X2108232Y887172D01*
X2105998Y884938D01*
X2104418Y882202D01*
X2103600Y879150D01*
Y875990D01*
X2104418Y872938D01*
X2105998Y870202D01*
X2108232Y867968D01*
X2110968Y866388D01*
X2114020Y865570D01*
X2117180D01*
X2120232Y866388D01*
X2122968Y867968D01*
X2125202Y870202D01*
X2126782Y872938D01*
X2127600Y875990D01*
Y879150D01*
X2126782Y882202D01*
X2125202Y884938D01*
X2122968Y887172D01*
X2120232Y888752D01*
X2117180Y889570D01*
D02*
G37*
G36*
X1917878Y883490D02*
X1914982D01*
X1912184Y882740D01*
X1909676Y881292D01*
X1907628Y879244D01*
X1906180Y876736D01*
X1905430Y873938D01*
Y871042D01*
X1906180Y868244D01*
X1907628Y865736D01*
X1909676Y863688D01*
X1912184Y862240D01*
X1914982Y861490D01*
X1917878D01*
X1920676Y862240D01*
X1923184Y863688D01*
X1925232Y865736D01*
X1926680Y868244D01*
X1927430Y871042D01*
Y873938D01*
X1926680Y876736D01*
X1925232Y879244D01*
X1923184Y881292D01*
X1920676Y882740D01*
X1917878Y883490D01*
D02*
G37*
G36*
X2038672Y854750D02*
X2036828D01*
X2035048Y854273D01*
X2033452Y853351D01*
X2032149Y852048D01*
X2031227Y850452D01*
X2030750Y848672D01*
Y846828D01*
X2031227Y845048D01*
X2032149Y843452D01*
X2033452Y842149D01*
X2035048Y841227D01*
X2036828Y840750D01*
X2038672D01*
X2040452Y841227D01*
X2042048Y842149D01*
X2043351Y843452D01*
X2044273Y845048D01*
X2044750Y846828D01*
Y848672D01*
X2044273Y850452D01*
X2043351Y852048D01*
X2042048Y853351D01*
X2040452Y854273D01*
X2038672Y854750D01*
D02*
G37*
G36*
X1917878Y858090D02*
X1914982D01*
X1912184Y857340D01*
X1909676Y855892D01*
X1907628Y853844D01*
X1906180Y851336D01*
X1905430Y848538D01*
Y845642D01*
X1906180Y842844D01*
X1907628Y840336D01*
X1909676Y838288D01*
X1912184Y836840D01*
X1914982Y836090D01*
X1917878D01*
X1920676Y836840D01*
X1923184Y838288D01*
X1925232Y840336D01*
X1926680Y842844D01*
X1927430Y845642D01*
Y848538D01*
X1926680Y851336D01*
X1925232Y853844D01*
X1923184Y855892D01*
X1920676Y857340D01*
X1917878Y858090D01*
D02*
G37*
G36*
X2002270Y822716D02*
Y816520D01*
X2008466D01*
X2008026Y818160D01*
X2007034Y819880D01*
X2005630Y821283D01*
X2003910Y822276D01*
X2002270Y822716D01*
D02*
G37*
G36*
X1999730D02*
X1998090Y822276D01*
X1996370Y821283D01*
X1994966Y819880D01*
X1993974Y818160D01*
X1993534Y816520D01*
X1999730D01*
Y822716D01*
D02*
G37*
G36*
X2008466Y813980D02*
X2002270D01*
Y807784D01*
X2003910Y808224D01*
X2005630Y809217D01*
X2007034Y810620D01*
X2008026Y812340D01*
X2008466Y813980D01*
D02*
G37*
G36*
X1999730D02*
X1993534D01*
X1993974Y812340D01*
X1994966Y810620D01*
X1996370Y809217D01*
X1998090Y808224D01*
X1999730Y807784D01*
Y813980D01*
D02*
G37*
G36*
X1987422Y803000D02*
X1985578D01*
X1983798Y802523D01*
X1982202Y801601D01*
X1980899Y800298D01*
X1979977Y798702D01*
X1979500Y796922D01*
Y795078D01*
X1979977Y793298D01*
X1980899Y791702D01*
X1982202Y790399D01*
X1983798Y789477D01*
X1985578Y789000D01*
X1987422D01*
X1989202Y789477D01*
X1990798Y790399D01*
X1992101Y791702D01*
X1993023Y793298D01*
X1993500Y795078D01*
Y796922D01*
X1993023Y798702D01*
X1992101Y800298D01*
X1990798Y801601D01*
X1989202Y802523D01*
X1987422Y803000D01*
D02*
G37*
G36*
X1978422Y743750D02*
X1976578D01*
X1974798Y743273D01*
X1973202Y742351D01*
X1971899Y741048D01*
X1970977Y739452D01*
X1970500Y737672D01*
Y735828D01*
X1970977Y734048D01*
X1971899Y732452D01*
X1973202Y731149D01*
X1974798Y730227D01*
X1976578Y729750D01*
X1978422D01*
X1980202Y730227D01*
X1981798Y731149D01*
X1983101Y732452D01*
X1984023Y734048D01*
X1984500Y735828D01*
Y737672D01*
X1984023Y739452D01*
X1983101Y741048D01*
X1981798Y742351D01*
X1980202Y743273D01*
X1978422Y743750D01*
D02*
G37*
G36*
X1942672Y723000D02*
X1940828D01*
X1939048Y722523D01*
X1937452Y721601D01*
X1936149Y720298D01*
X1935227Y718702D01*
X1934750Y716922D01*
Y715078D01*
X1935227Y713298D01*
X1936149Y711702D01*
X1937452Y710399D01*
X1939048Y709477D01*
X1940828Y709000D01*
X1942672D01*
X1944452Y709477D01*
X1946048Y710399D01*
X1947351Y711702D01*
X1948273Y713298D01*
X1948750Y715078D01*
Y716922D01*
X1948273Y718702D01*
X1947351Y720298D01*
X1946048Y721601D01*
X1944452Y722523D01*
X1942672Y723000D01*
D02*
G37*
G36*
X1957193Y539750D02*
X1954807D01*
X1952601Y538837D01*
X1950913Y537149D01*
X1950000Y534944D01*
Y532556D01*
X1950913Y530351D01*
X1952601Y528663D01*
X1954807Y527750D01*
X1957193D01*
X1959399Y528663D01*
X1961087Y530351D01*
X1962000Y532556D01*
Y534944D01*
X1961087Y537149D01*
X1959399Y538837D01*
X1957193Y539750D01*
D02*
G37*
G36*
X1923443Y532500D02*
X1921057D01*
X1918851Y531586D01*
X1917164Y529899D01*
X1916250Y527693D01*
Y525307D01*
X1917164Y523101D01*
X1918851Y521413D01*
X1921057Y520500D01*
X1923443D01*
X1925649Y521413D01*
X1927337Y523101D01*
X1928250Y525307D01*
Y527693D01*
X1927337Y529899D01*
X1925649Y531586D01*
X1923443Y532500D01*
D02*
G37*
G36*
X1775770Y524466D02*
Y518270D01*
X1781966D01*
X1781526Y519910D01*
X1780533Y521630D01*
X1779130Y523033D01*
X1777410Y524026D01*
X1775770Y524466D01*
D02*
G37*
G36*
X1773230D02*
X1771590Y524026D01*
X1769870Y523033D01*
X1768466Y521630D01*
X1767474Y519910D01*
X1767034Y518270D01*
X1773230D01*
Y524466D01*
D02*
G37*
G36*
X1383520Y969966D02*
Y963770D01*
X1389716D01*
X1389276Y965410D01*
X1388284Y967130D01*
X1386880Y968533D01*
X1385160Y969526D01*
X1383520Y969966D01*
D02*
G37*
G36*
X1380980D02*
X1379340Y969526D01*
X1377620Y968533D01*
X1376216Y967130D01*
X1375224Y965410D01*
X1374784Y963770D01*
X1380980D01*
Y969966D01*
D02*
G37*
G36*
X1389716Y961230D02*
X1383520D01*
Y955034D01*
X1385160Y955474D01*
X1386880Y956467D01*
X1388284Y957870D01*
X1389276Y959590D01*
X1389716Y961230D01*
D02*
G37*
G36*
X1380980D02*
X1374784D01*
X1375224Y959590D01*
X1376216Y957870D01*
X1377620Y956467D01*
X1379340Y955474D01*
X1380980Y955034D01*
Y961230D01*
D02*
G37*
G36*
X1882216Y959480D02*
X1876020D01*
Y953284D01*
X1877660Y953724D01*
X1879380Y954716D01*
X1880784Y956120D01*
X1881776Y957840D01*
X1882216Y959480D01*
D02*
G37*
G36*
X1382783Y950155D02*
X1380940D01*
X1379160Y949678D01*
X1377564Y948756D01*
X1376260Y947453D01*
X1375339Y945857D01*
X1374862Y944076D01*
Y942233D01*
X1375339Y940453D01*
X1376260Y938857D01*
X1377564Y937553D01*
X1379160Y936632D01*
X1380940Y936155D01*
X1382783D01*
X1384564Y936632D01*
X1386160Y937553D01*
X1387463Y938857D01*
X1388385Y940453D01*
X1388862Y942233D01*
Y944076D01*
X1388385Y945857D01*
X1387463Y947453D01*
X1386160Y948756D01*
X1384564Y949678D01*
X1382783Y950155D01*
D02*
G37*
G36*
X1874500Y946856D02*
X1865500D01*
X1863803Y946633D01*
X1862222Y945978D01*
X1860864Y944936D01*
X1859822Y943578D01*
X1859167Y941997D01*
X1858944Y940300D01*
Y931300D01*
X1859167Y929603D01*
X1859822Y928022D01*
X1860864Y926664D01*
X1862222Y925622D01*
X1863803Y924967D01*
X1865500Y924744D01*
X1874500D01*
X1876197Y924967D01*
X1877778Y925622D01*
X1879136Y926664D01*
X1880178Y928022D01*
X1880833Y929603D01*
X1881056Y931300D01*
Y940300D01*
X1880833Y941997D01*
X1880178Y943578D01*
X1879136Y944936D01*
X1877778Y945978D01*
X1876197Y946633D01*
X1874500Y946856D01*
D02*
G37*
G36*
X1852851Y934630D02*
X1842520D01*
Y924299D01*
X1845750D01*
X1847588Y924541D01*
X1849300Y925251D01*
X1850771Y926379D01*
X1851899Y927850D01*
X1852609Y929562D01*
X1852851Y931400D01*
Y934630D01*
D02*
G37*
G36*
X1839980D02*
X1829649D01*
Y931400D01*
X1829891Y929562D01*
X1830601Y927850D01*
X1831729Y926379D01*
X1833200Y925251D01*
X1834912Y924541D01*
X1836750Y924299D01*
X1839980D01*
Y934630D01*
D02*
G37*
G36*
X1817520Y920180D02*
Y915020D01*
X1822680D01*
X1822344Y916274D01*
X1821483Y917766D01*
X1820266Y918983D01*
X1818774Y919844D01*
X1817520Y920180D01*
D02*
G37*
G36*
X1814980D02*
X1813726Y919844D01*
X1812234Y918983D01*
X1811017Y917766D01*
X1810156Y916274D01*
X1809820Y915020D01*
X1814980D01*
Y920180D01*
D02*
G37*
G36*
X1871519Y921940D02*
X1871270D01*
Y911670D01*
X1881540D01*
Y911919D01*
X1880753Y914854D01*
X1879234Y917486D01*
X1877086Y919634D01*
X1874454Y921154D01*
X1871519Y921940D01*
D02*
G37*
G36*
X1868730D02*
X1868481D01*
X1865546Y921154D01*
X1862914Y919634D01*
X1860766Y917486D01*
X1859246Y914854D01*
X1858460Y911919D01*
Y911670D01*
X1868730D01*
Y921940D01*
D02*
G37*
G36*
X1822680Y912480D02*
X1817520D01*
Y907320D01*
X1818774Y907656D01*
X1820266Y908517D01*
X1821483Y909734D01*
X1822344Y911226D01*
X1822680Y912480D01*
D02*
G37*
G36*
X1814980D02*
X1809820D01*
X1810156Y911226D01*
X1811017Y909734D01*
X1812234Y908517D01*
X1813726Y907656D01*
X1814980Y907320D01*
Y912480D01*
D02*
G37*
G36*
X1842698Y921500D02*
X1839802D01*
X1837004Y920750D01*
X1834496Y919302D01*
X1832448Y917254D01*
X1831000Y914746D01*
X1830250Y911948D01*
Y909052D01*
X1831000Y906254D01*
X1832448Y903746D01*
X1834496Y901698D01*
X1837004Y900250D01*
X1839802Y899500D01*
X1842698D01*
X1845496Y900250D01*
X1848004Y901698D01*
X1850052Y903746D01*
X1851500Y906254D01*
X1852250Y909052D01*
Y911948D01*
X1851500Y914746D01*
X1850052Y917254D01*
X1848004Y919302D01*
X1845496Y920750D01*
X1842698Y921500D01*
D02*
G37*
G36*
X1881540Y909130D02*
X1871270D01*
Y898860D01*
X1871519D01*
X1874454Y899647D01*
X1877086Y901166D01*
X1879234Y903314D01*
X1880753Y905946D01*
X1881540Y908881D01*
Y909130D01*
D02*
G37*
G36*
X1868730D02*
X1858460D01*
Y908881D01*
X1859246Y905946D01*
X1860766Y903314D01*
X1862914Y901166D01*
X1865546Y899647D01*
X1868481Y898860D01*
X1868730D01*
Y909130D01*
D02*
G37*
G36*
X1842698Y896100D02*
X1839802D01*
X1837004Y895350D01*
X1834496Y893902D01*
X1832448Y891854D01*
X1831000Y889346D01*
X1830250Y886548D01*
Y883652D01*
X1831000Y880854D01*
X1832448Y878346D01*
X1834496Y876298D01*
X1837004Y874850D01*
X1839802Y874100D01*
X1842698D01*
X1845496Y874850D01*
X1848004Y876298D01*
X1850052Y878346D01*
X1851500Y880854D01*
X1852250Y883652D01*
Y886548D01*
X1851500Y889346D01*
X1850052Y891854D01*
X1848004Y893902D01*
X1845496Y895350D01*
X1842698Y896100D01*
D02*
G37*
G36*
X1871448Y896000D02*
X1868552D01*
X1865754Y895250D01*
X1863246Y893802D01*
X1861198Y891754D01*
X1859750Y889246D01*
X1859000Y886448D01*
Y883552D01*
X1859750Y880754D01*
X1861198Y878246D01*
X1863246Y876198D01*
X1865754Y874750D01*
X1868552Y874000D01*
X1871448D01*
X1874246Y874750D01*
X1876754Y876198D01*
X1878802Y878246D01*
X1880250Y880754D01*
X1881000Y883552D01*
Y886448D01*
X1880250Y889246D01*
X1878802Y891754D01*
X1876754Y893802D01*
X1874246Y895250D01*
X1871448Y896000D01*
D02*
G37*
G36*
X1842698Y870700D02*
X1839802D01*
X1837004Y869950D01*
X1834496Y868502D01*
X1832448Y866454D01*
X1831000Y863946D01*
X1830250Y861148D01*
Y858252D01*
X1831000Y855454D01*
X1832448Y852946D01*
X1834496Y850898D01*
X1837004Y849450D01*
X1839802Y848700D01*
X1842698D01*
X1845496Y849450D01*
X1848004Y850898D01*
X1850052Y852946D01*
X1851500Y855454D01*
X1852250Y858252D01*
Y861148D01*
X1851500Y863946D01*
X1850052Y866454D01*
X1848004Y868502D01*
X1845496Y869950D01*
X1842698Y870700D01*
D02*
G37*
G36*
X1871448Y870600D02*
X1868552D01*
X1865754Y869850D01*
X1863246Y868402D01*
X1861198Y866354D01*
X1859750Y863846D01*
X1859000Y861048D01*
Y858152D01*
X1859750Y855354D01*
X1861198Y852846D01*
X1863246Y850798D01*
X1865754Y849350D01*
X1868552Y848600D01*
X1871448D01*
X1874246Y849350D01*
X1876754Y850798D01*
X1878802Y852846D01*
X1880250Y855354D01*
X1881000Y858152D01*
Y861048D01*
X1880250Y863846D01*
X1878802Y866354D01*
X1876754Y868402D01*
X1874246Y869850D01*
X1871448Y870600D01*
D02*
G37*
G36*
Y845200D02*
X1868552D01*
X1865754Y844450D01*
X1863246Y843002D01*
X1861198Y840954D01*
X1859750Y838446D01*
X1859000Y835648D01*
Y832752D01*
X1859750Y829954D01*
X1861198Y827446D01*
X1863246Y825398D01*
X1865754Y823950D01*
X1868552Y823200D01*
X1871448D01*
X1874246Y823950D01*
X1876754Y825398D01*
X1878802Y827446D01*
X1880250Y829954D01*
X1881000Y832752D01*
Y835648D01*
X1880250Y838446D01*
X1878802Y840954D01*
X1876754Y843002D01*
X1874246Y844450D01*
X1871448Y845200D01*
D02*
G37*
G36*
X1763423Y810436D02*
Y804240D01*
X1769619D01*
X1769179Y805881D01*
X1768187Y807600D01*
X1766783Y809004D01*
X1765064Y809996D01*
X1763423Y810436D01*
D02*
G37*
G36*
X1760883D02*
X1759243Y809996D01*
X1757524Y809004D01*
X1756120Y807600D01*
X1755127Y805881D01*
X1754688Y804240D01*
X1760883D01*
Y810436D01*
D02*
G37*
G36*
X1769619Y801700D02*
X1763423D01*
Y795505D01*
X1765064Y795944D01*
X1766783Y796937D01*
X1768187Y798341D01*
X1769179Y800060D01*
X1769619Y801700D01*
D02*
G37*
G36*
X1760883D02*
X1754688D01*
X1755127Y800060D01*
X1756120Y798341D01*
X1757524Y796937D01*
X1759243Y795944D01*
X1760883Y795505D01*
Y801700D01*
D02*
G37*
G36*
X1616348Y803750D02*
X1613961D01*
X1611756Y802837D01*
X1610068Y801149D01*
X1609155Y798943D01*
Y796556D01*
X1610068Y794351D01*
X1611756Y792663D01*
X1613961Y791750D01*
X1616348D01*
X1618553Y792663D01*
X1620241Y794351D01*
X1621155Y796556D01*
Y798943D01*
X1620241Y801149D01*
X1618553Y802837D01*
X1616348Y803750D01*
D02*
G37*
G36*
X1651443Y800000D02*
X1649057D01*
X1646851Y799087D01*
X1645163Y797399D01*
X1644250Y795193D01*
Y792806D01*
X1645163Y790601D01*
X1646851Y788913D01*
X1649057Y788000D01*
X1651443D01*
X1653649Y788913D01*
X1655336Y790601D01*
X1656250Y792806D01*
Y795193D01*
X1655336Y797399D01*
X1653649Y799087D01*
X1651443Y800000D01*
D02*
G37*
G36*
X1763922Y790500D02*
X1762078D01*
X1760298Y790023D01*
X1758702Y789101D01*
X1757399Y787798D01*
X1756477Y786202D01*
X1756000Y784422D01*
Y782578D01*
X1756477Y780798D01*
X1757399Y779202D01*
X1758702Y777899D01*
X1760298Y776977D01*
X1762078Y776500D01*
X1763922D01*
X1765702Y776977D01*
X1767298Y777899D01*
X1768601Y779202D01*
X1769523Y780798D01*
X1770000Y782578D01*
Y784422D01*
X1769523Y786202D01*
X1768601Y787798D01*
X1767298Y789101D01*
X1765702Y790023D01*
X1763922Y790500D01*
D02*
G37*
G36*
X1494693Y784500D02*
X1492307D01*
X1490101Y783587D01*
X1488414Y781899D01*
X1487500Y779694D01*
Y777307D01*
X1488414Y775101D01*
X1490101Y773413D01*
X1492307Y772500D01*
X1494693D01*
X1496899Y773413D01*
X1498587Y775101D01*
X1499500Y777307D01*
Y779694D01*
X1498587Y781899D01*
X1496899Y783587D01*
X1494693Y784500D01*
D02*
G37*
G36*
X1470378Y754869D02*
X1467991D01*
X1465786Y753956D01*
X1464098Y752268D01*
X1463185Y750062D01*
Y747675D01*
X1464098Y745470D01*
X1465786Y743783D01*
X1467991Y742869D01*
X1470378D01*
X1472584Y743783D01*
X1474272Y745470D01*
X1475185Y747675D01*
Y750062D01*
X1474272Y752268D01*
X1472584Y753956D01*
X1470378Y754869D01*
D02*
G37*
G36*
X1616194Y753500D02*
X1613806D01*
X1611601Y752587D01*
X1609913Y750899D01*
X1609000Y748693D01*
Y746307D01*
X1609913Y744101D01*
X1611601Y742413D01*
X1613806Y741500D01*
X1616194D01*
X1618399Y742413D01*
X1620087Y744101D01*
X1621000Y746307D01*
Y748693D01*
X1620087Y750899D01*
X1618399Y752587D01*
X1616194Y753500D01*
D02*
G37*
G36*
X1601020Y732216D02*
Y726020D01*
X1607216D01*
X1606776Y727660D01*
X1605784Y729380D01*
X1604380Y730783D01*
X1602660Y731776D01*
X1601020Y732216D01*
D02*
G37*
G36*
X1598480D02*
X1596840Y731776D01*
X1595120Y730783D01*
X1593716Y729380D01*
X1592724Y727660D01*
X1592284Y726020D01*
X1598480D01*
Y732216D01*
D02*
G37*
G36*
X1607216Y723480D02*
X1601020D01*
Y717284D01*
X1602660Y717724D01*
X1604380Y718717D01*
X1605784Y720120D01*
X1606776Y721840D01*
X1607216Y723480D01*
D02*
G37*
G36*
X1598480D02*
X1592284D01*
X1592724Y721840D01*
X1593716Y720120D01*
X1595120Y718717D01*
X1596840Y717724D01*
X1598480Y717284D01*
Y723480D01*
D02*
G37*
G36*
X1619422Y731000D02*
X1617578D01*
X1615798Y730523D01*
X1614202Y729601D01*
X1612899Y728298D01*
X1611977Y726702D01*
X1611500Y724922D01*
Y723078D01*
X1611977Y721298D01*
X1612899Y719702D01*
X1614202Y718399D01*
X1615798Y717477D01*
X1617578Y717000D01*
X1619422D01*
X1621202Y717477D01*
X1622798Y718399D01*
X1624101Y719702D01*
X1625023Y721298D01*
X1625500Y723078D01*
Y724922D01*
X1625023Y726702D01*
X1624101Y728298D01*
X1622798Y729601D01*
X1621202Y730523D01*
X1619422Y731000D01*
D02*
G37*
G36*
X1814672Y724250D02*
X1812828D01*
X1811048Y723773D01*
X1809452Y722851D01*
X1808149Y721548D01*
X1807227Y719952D01*
X1806750Y718172D01*
Y716328D01*
X1807227Y714548D01*
X1808149Y712952D01*
X1809452Y711649D01*
X1811048Y710727D01*
X1812828Y710250D01*
X1814672D01*
X1816452Y710727D01*
X1818048Y711649D01*
X1819351Y712952D01*
X1820273Y714548D01*
X1820750Y716328D01*
Y718172D01*
X1820273Y719952D01*
X1819351Y721548D01*
X1818048Y722851D01*
X1816452Y723773D01*
X1814672Y724250D01*
D02*
G37*
G36*
X1727193Y721750D02*
X1724807D01*
X1722601Y720837D01*
X1720913Y719149D01*
X1720000Y716944D01*
Y714557D01*
X1720913Y712351D01*
X1722601Y710664D01*
X1724807Y709750D01*
X1727193D01*
X1729399Y710664D01*
X1731087Y712351D01*
X1732000Y714557D01*
Y716944D01*
X1731087Y719149D01*
X1729399Y720837D01*
X1727193Y721750D01*
D02*
G37*
G36*
X1663443D02*
X1661057D01*
X1658851Y720837D01*
X1657163Y719149D01*
X1656250Y716944D01*
Y714557D01*
X1657163Y712351D01*
X1658851Y710664D01*
X1661057Y709750D01*
X1663443D01*
X1665649Y710664D01*
X1667336Y712351D01*
X1668250Y714557D01*
Y716944D01*
X1667336Y719149D01*
X1665649Y720837D01*
X1663443Y721750D01*
D02*
G37*
G36*
X1695694Y693000D02*
X1693306D01*
X1691101Y692087D01*
X1689413Y690399D01*
X1688500Y688194D01*
Y685807D01*
X1689413Y683601D01*
X1691101Y681913D01*
X1693306Y681000D01*
X1695694D01*
X1697899Y681913D01*
X1699587Y683601D01*
X1700500Y685807D01*
Y688194D01*
X1699587Y690399D01*
X1697899Y692087D01*
X1695694Y693000D01*
D02*
G37*
G36*
X1623194Y654500D02*
X1620806D01*
X1618601Y653587D01*
X1616913Y651899D01*
X1616000Y649694D01*
Y647307D01*
X1616913Y645101D01*
X1618601Y643413D01*
X1620806Y642500D01*
X1623194D01*
X1625399Y643413D01*
X1627087Y645101D01*
X1628000Y647307D01*
Y649694D01*
X1627087Y651899D01*
X1625399Y653587D01*
X1623194Y654500D01*
D02*
G37*
G36*
X1650652Y647080D02*
X1648808D01*
X1647028Y646603D01*
X1645432Y645681D01*
X1644129Y644378D01*
X1643207Y642782D01*
X1642730Y641002D01*
Y639158D01*
X1643207Y637378D01*
X1644129Y635782D01*
X1645432Y634479D01*
X1647028Y633557D01*
X1648808Y633080D01*
X1650652D01*
X1652432Y633557D01*
X1654028Y634479D01*
X1655331Y635782D01*
X1656253Y637378D01*
X1656730Y639158D01*
Y641002D01*
X1656253Y642782D01*
X1655331Y644378D01*
X1654028Y645681D01*
X1652432Y646603D01*
X1650652Y647080D01*
D02*
G37*
G36*
X1479695Y636596D02*
Y630401D01*
X1485891D01*
X1485451Y632041D01*
X1484459Y633760D01*
X1483055Y635164D01*
X1481335Y636157D01*
X1479695Y636596D01*
D02*
G37*
G36*
X1477155D02*
X1475515Y636157D01*
X1473795Y635164D01*
X1472392Y633760D01*
X1471399Y632041D01*
X1470959Y630401D01*
X1477155D01*
Y636596D01*
D02*
G37*
G36*
X1572444Y641750D02*
X1570056D01*
X1567851Y640837D01*
X1566163Y639149D01*
X1565250Y636944D01*
Y634557D01*
X1566163Y632351D01*
X1567851Y630663D01*
X1570056Y629750D01*
X1572444D01*
X1574649Y630663D01*
X1576337Y632351D01*
X1577250Y634557D01*
Y636944D01*
X1576337Y639149D01*
X1574649Y640837D01*
X1572444Y641750D01*
D02*
G37*
G36*
X1485891Y627861D02*
X1479695D01*
Y621665D01*
X1481335Y622104D01*
X1483055Y623097D01*
X1484459Y624501D01*
X1485451Y626220D01*
X1485891Y627861D01*
D02*
G37*
G36*
X1477155D02*
X1470959D01*
X1471399Y626220D01*
X1472392Y624501D01*
X1473795Y623097D01*
X1475515Y622104D01*
X1477155Y621665D01*
Y627861D01*
D02*
G37*
G36*
X1725582Y627370D02*
X1723738D01*
X1721958Y626893D01*
X1720362Y625971D01*
X1719059Y624668D01*
X1718137Y623072D01*
X1717660Y621292D01*
Y619449D01*
X1718137Y617668D01*
X1719059Y616072D01*
X1720362Y614769D01*
X1721958Y613847D01*
X1723738Y613370D01*
X1725582D01*
X1727362Y613847D01*
X1728958Y614769D01*
X1730261Y616072D01*
X1731183Y617668D01*
X1731660Y619449D01*
Y621292D01*
X1731183Y623072D01*
X1730261Y624668D01*
X1728958Y625971D01*
X1727362Y626893D01*
X1725582Y627370D01*
D02*
G37*
G36*
X1626522Y625490D02*
X1624678D01*
X1622898Y625013D01*
X1621302Y624091D01*
X1619999Y622788D01*
X1619077Y621192D01*
X1618600Y619412D01*
Y617568D01*
X1619077Y615788D01*
X1619999Y614192D01*
X1621302Y612889D01*
X1622898Y611967D01*
X1624678Y611490D01*
X1626522D01*
X1628302Y611967D01*
X1629898Y612889D01*
X1631201Y614192D01*
X1632123Y615788D01*
X1632600Y617568D01*
Y619412D01*
X1632123Y621192D01*
X1631201Y622788D01*
X1629898Y624091D01*
X1628302Y625013D01*
X1626522Y625490D01*
D02*
G37*
G36*
X1650652Y622950D02*
X1648808D01*
X1647028Y622473D01*
X1645432Y621551D01*
X1644129Y620248D01*
X1643207Y618652D01*
X1642730Y616872D01*
Y615028D01*
X1643207Y613248D01*
X1644129Y611652D01*
X1645432Y610349D01*
X1647028Y609427D01*
X1648808Y608950D01*
X1650652D01*
X1652432Y609427D01*
X1654028Y610349D01*
X1655331Y611652D01*
X1656253Y613248D01*
X1656730Y615028D01*
Y616872D01*
X1656253Y618652D01*
X1655331Y620248D01*
X1654028Y621551D01*
X1652432Y622473D01*
X1650652Y622950D01*
D02*
G37*
G36*
X1440020Y611966D02*
Y605770D01*
X1446216D01*
X1445776Y607410D01*
X1444783Y609130D01*
X1443380Y610533D01*
X1441660Y611526D01*
X1440020Y611966D01*
D02*
G37*
G36*
X1437480D02*
X1435840Y611526D01*
X1434120Y610533D01*
X1432717Y609130D01*
X1431724Y607410D01*
X1431284Y605770D01*
X1437480D01*
Y611966D01*
D02*
G37*
G36*
X1534922Y619500D02*
X1533078D01*
X1531298Y619023D01*
X1529702Y618101D01*
X1528399Y616798D01*
X1527477Y615202D01*
X1527000Y613422D01*
Y611578D01*
X1527477Y609798D01*
X1528399Y608202D01*
X1529702Y606899D01*
X1531298Y605977D01*
X1533078Y605500D01*
X1534922D01*
X1536702Y605977D01*
X1538298Y606899D01*
X1539601Y608202D01*
X1540523Y609798D01*
X1541000Y611578D01*
Y613422D01*
X1540523Y615202D01*
X1539601Y616798D01*
X1538298Y618101D01*
X1536702Y619023D01*
X1534922Y619500D01*
D02*
G37*
G36*
X1746944Y615750D02*
X1744556D01*
X1742351Y614837D01*
X1740663Y613149D01*
X1739750Y610943D01*
Y608557D01*
X1740663Y606351D01*
X1742351Y604664D01*
X1744556Y603750D01*
X1746944D01*
X1749149Y604664D01*
X1750837Y606351D01*
X1751750Y608557D01*
Y610943D01*
X1750837Y613149D01*
X1749149Y614837D01*
X1746944Y615750D01*
D02*
G37*
G36*
X1725930Y608836D02*
Y602640D01*
X1732126D01*
X1731686Y604280D01*
X1730694Y605999D01*
X1729290Y607403D01*
X1727570Y608396D01*
X1725930Y608836D01*
D02*
G37*
G36*
X1723390D02*
X1721750Y608396D01*
X1720030Y607403D01*
X1718627Y605999D01*
X1717634Y604280D01*
X1717194Y602640D01*
X1723390D01*
Y608836D01*
D02*
G37*
G36*
X1732126Y600100D02*
X1725930D01*
Y593904D01*
X1727570Y594344D01*
X1729290Y595336D01*
X1730694Y596740D01*
X1731686Y598460D01*
X1732126Y600100D01*
D02*
G37*
G36*
X1723390D02*
X1717194D01*
X1717634Y598460D01*
X1718627Y596740D01*
X1720030Y595336D01*
X1721750Y594344D01*
X1723390Y593904D01*
Y600100D01*
D02*
G37*
G36*
X1578038Y599326D02*
X1576194D01*
X1574414Y598849D01*
X1572818Y597927D01*
X1571515Y596624D01*
X1570593Y595028D01*
X1570116Y593247D01*
Y591404D01*
X1570593Y589624D01*
X1571515Y588028D01*
X1572818Y586725D01*
X1574414Y585803D01*
X1576194Y585326D01*
X1578038D01*
X1579818Y585803D01*
X1581414Y586725D01*
X1582717Y588028D01*
X1583639Y589624D01*
X1584116Y591404D01*
Y593247D01*
X1583639Y595028D01*
X1582717Y596624D01*
X1581414Y597927D01*
X1579818Y598849D01*
X1578038Y599326D01*
D02*
G37*
G36*
X1478770Y586716D02*
Y580520D01*
X1484966D01*
X1484526Y582160D01*
X1483533Y583880D01*
X1482130Y585284D01*
X1480410Y586276D01*
X1478770Y586716D01*
D02*
G37*
G36*
X1476230D02*
X1474590Y586276D01*
X1472870Y585284D01*
X1471467Y583880D01*
X1470474Y582160D01*
X1470034Y580520D01*
X1476230D01*
Y586716D01*
D02*
G37*
G36*
X1484966Y577980D02*
X1478770D01*
Y571784D01*
X1480410Y572224D01*
X1482130Y573217D01*
X1483533Y574620D01*
X1484526Y576340D01*
X1484966Y577980D01*
D02*
G37*
G36*
X1476230D02*
X1470034D01*
X1470474Y576340D01*
X1471467Y574620D01*
X1472870Y573217D01*
X1474590Y572224D01*
X1476230Y571784D01*
Y577980D01*
D02*
G37*
G36*
X1530533Y568212D02*
X1528690D01*
X1526910Y567735D01*
X1525314Y566814D01*
X1524010Y565510D01*
X1523089Y563914D01*
X1522612Y562134D01*
Y560291D01*
X1523089Y558510D01*
X1524010Y556914D01*
X1525314Y555611D01*
X1526910Y554689D01*
X1528690Y554212D01*
X1530533D01*
X1532314Y554689D01*
X1533910Y555611D01*
X1535213Y556914D01*
X1536135Y558510D01*
X1536612Y560291D01*
Y562134D01*
X1536135Y563914D01*
X1535213Y565510D01*
X1533910Y566814D01*
X1532314Y567735D01*
X1530533Y568212D01*
D02*
G37*
G36*
X1588431Y525160D02*
X1586588D01*
X1584808Y524683D01*
X1583212Y523761D01*
X1581909Y522458D01*
X1580987Y520862D01*
X1580510Y519082D01*
Y517238D01*
X1580987Y515458D01*
X1581909Y513862D01*
X1583212Y512559D01*
X1584808Y511637D01*
X1586588Y511160D01*
X1588431D01*
X1590212Y511637D01*
X1591808Y512559D01*
X1593111Y513862D01*
X1594033Y515458D01*
X1594510Y517238D01*
Y519082D01*
X1594033Y520862D01*
X1593111Y522458D01*
X1591808Y523761D01*
X1590212Y524683D01*
X1588431Y525160D01*
D02*
G37*
G36*
X1621130Y505306D02*
Y499110D01*
X1627326D01*
X1626886Y500750D01*
X1625894Y502470D01*
X1624490Y503873D01*
X1622770Y504866D01*
X1621130Y505306D01*
D02*
G37*
G36*
X1618590D02*
X1616950Y504866D01*
X1615230Y503873D01*
X1613827Y502470D01*
X1612834Y500750D01*
X1612394Y499110D01*
X1618590D01*
Y505306D01*
D02*
G37*
G36*
X1601781Y504840D02*
X1599938D01*
X1598158Y504363D01*
X1596562Y503441D01*
X1595258Y502138D01*
X1594337Y500542D01*
X1593860Y498762D01*
Y496918D01*
X1594337Y495138D01*
X1595258Y493542D01*
X1596562Y492239D01*
X1598158Y491317D01*
X1599938Y490840D01*
X1601781D01*
X1603562Y491317D01*
X1605158Y492239D01*
X1606461Y493542D01*
X1607383Y495138D01*
X1607860Y496918D01*
Y498762D01*
X1607383Y500542D01*
X1606461Y502138D01*
X1605158Y503441D01*
X1603562Y504363D01*
X1601781Y504840D01*
D02*
G37*
G36*
X1627326Y496570D02*
X1621130D01*
Y490374D01*
X1622770Y490814D01*
X1624490Y491806D01*
X1625894Y493210D01*
X1626886Y494930D01*
X1627326Y496570D01*
D02*
G37*
G36*
X1618590D02*
X1612394D01*
X1612834Y494930D01*
X1613827Y493210D01*
X1615230Y491806D01*
X1616950Y490814D01*
X1618590Y490374D01*
Y496570D01*
D02*
G37*
G36*
X1932270Y455216D02*
Y449020D01*
X1938466D01*
X1938026Y450660D01*
X1937034Y452380D01*
X1935630Y453783D01*
X1933910Y454776D01*
X1932270Y455216D01*
D02*
G37*
G36*
X1929730D02*
X1928090Y454776D01*
X1926370Y453783D01*
X1924966Y452380D01*
X1923974Y450660D01*
X1923534Y449020D01*
X1929730D01*
Y455216D01*
D02*
G37*
G36*
X1938466Y446480D02*
X1932270D01*
Y440284D01*
X1933910Y440724D01*
X1935630Y441716D01*
X1937034Y443120D01*
X1938026Y444840D01*
X1938466Y446480D01*
D02*
G37*
G36*
X1929730D02*
X1923534D01*
X1923974Y444840D01*
X1924966Y443120D01*
X1926370Y441716D01*
X1928090Y440724D01*
X1929730Y440284D01*
Y446480D01*
D02*
G37*
%LPD*%
D13*
X1813500Y953750D02*
X1814250Y954500D01*
X1823393D01*
X1813500Y975414D02*
X1830086Y992000D01*
X1813500Y953750D02*
Y975414D01*
X1806750Y947000D02*
X1813500Y953750D01*
X1803000Y916931D02*
X1836069Y950000D01*
X1852500D01*
X1803000Y883000D02*
Y916931D01*
X1904750Y951000D02*
Y965500D01*
X1878250Y992000D02*
X1904750Y965500D01*
X1830086Y992000D02*
X1878250D01*
X1785000Y947000D02*
X1806750D01*
X1876000Y978250D02*
X1883000Y971250D01*
Y968000D02*
Y971250D01*
X1845000Y978250D02*
X1876000D01*
X1834000Y967250D02*
X1845000Y978250D01*
X1834000Y961500D02*
Y967250D01*
Y958893D02*
Y961500D01*
X1829607Y954500D02*
X1834000Y958893D01*
X1823393Y954500D02*
X1829607D01*
X1785000Y947000D02*
Y1037500D01*
X1644250Y995250D02*
Y1036750D01*
X1645000Y1037500D01*
X1785000D01*
X1967834Y456334D02*
X1968326D01*
X1758750Y518750D02*
X1771000Y506500D01*
X1918653D01*
X1968326Y456334D02*
X1986717D01*
X1918653Y506500D02*
X1968326Y456826D01*
X1758750Y518750D02*
Y559750D01*
X2165750Y501250D02*
Y682750D01*
X2120834Y456334D02*
X2165750Y501250D01*
X2095250Y906750D02*
X2141500D01*
X2165750Y882500D01*
Y682750D02*
Y882500D01*
X1740500Y480000D02*
X1748750Y488250D01*
X1780000D02*
X1789500Y478750D01*
X1748750Y488250D02*
X1780000D01*
X1758750Y559750D02*
X1783500Y584500D01*
X1709238Y480000D02*
X1725250D01*
X1740500D01*
X1542250Y412750D02*
Y480000D01*
X1451250Y321750D02*
X1542250Y412750D01*
X1378000Y321750D02*
X1451250D01*
X1343750Y287500D02*
X1378000Y321750D01*
X879503Y287500D02*
X1343750D01*
X878253Y288750D02*
X879503Y287500D01*
X432250Y288750D02*
X878253D01*
X416500Y304500D02*
X432250Y288750D01*
X416500Y304500D02*
Y351250D01*
X425250Y360000D01*
X575500D01*
X599000Y383500D01*
Y449250D01*
X594000Y454250D02*
X599000Y449250D01*
X583500Y454250D02*
X594000D01*
X577250Y448000D02*
X583500Y454250D01*
X577250Y386500D02*
Y448000D01*
X570000Y379250D02*
X577250Y386500D01*
X482750Y379250D02*
X570000D01*
X468000Y394000D02*
X482750Y379250D01*
X468000Y394000D02*
Y500664D01*
X468586Y501250D01*
X849250D01*
X1146250Y798250D01*
Y1053664D01*
X1146836Y1054250D01*
X1530250D01*
X1852500Y950000D02*
X1870500Y968000D01*
X1506250Y845750D02*
X1525500Y826500D01*
X1506250Y845750D02*
Y854750D01*
Y945250D01*
X1467000Y984500D02*
X1506250Y945250D01*
X1385586Y984500D02*
X1467000D01*
X1369250Y968164D02*
X1385586Y984500D01*
X1369250Y918750D02*
Y968164D01*
Y918750D02*
X1421000Y867000D01*
X1459250Y828750D01*
Y755750D02*
Y828750D01*
X1530250Y1054000D02*
X2205500Y1054000D01*
X2252750Y1006750D01*
Y419500D02*
Y1006750D01*
X2187250Y354000D02*
X2252750Y419500D01*
X2156750Y354000D02*
X2187250D01*
X2145450Y342700D02*
X2156750Y354000D01*
X2101472Y342700D02*
X2145450D01*
X2101422Y342750D02*
X2101472Y342700D01*
X2094750Y342750D02*
X2101422D01*
X2057750Y305750D02*
X2094750Y342750D01*
X2014250Y305750D02*
X2057750D01*
X2002250Y317750D02*
X2014250Y305750D01*
X1950500Y317750D02*
X2002250D01*
X1823000D02*
X1950500D01*
X1817000Y311750D02*
X1823000Y317750D01*
X1689500Y311750D02*
X1817000D01*
X1646000Y355250D02*
X1689500Y311750D01*
X1646000Y355250D02*
Y360000D01*
Y434000D01*
X1665000Y453000D01*
X1682238D01*
X1709238Y480000D01*
X1547250D02*
X1709238D01*
X1789500Y478750D02*
X1841093D01*
X1883843Y436000D01*
X1947500D01*
X1967834Y456334D01*
X1986717D02*
X2120834D01*
X2077250Y924750D02*
X2095250Y906750D01*
X2064125Y937875D02*
X2077250Y924750D01*
X1917875Y937875D02*
X2064125D01*
X1904750Y951000D02*
X1917875Y937875D01*
X1638000Y989000D02*
X1644250Y995250D01*
X1607250Y989000D02*
X1638000D01*
X1600750Y982500D02*
X1607250Y989000D01*
X1600250Y982000D02*
X1600750Y982500D01*
X1544000Y982000D02*
X1600250D01*
X1530250Y995750D02*
X1544000Y982000D01*
X1530250Y995750D02*
Y1054250D01*
X1746250Y826250D02*
X1803000Y883000D01*
X1402750Y593250D02*
X1405750D01*
X1451250Y616750D02*
X1459250Y624750D01*
X1405750Y593250D02*
X1452000D01*
X1396250Y599750D02*
X1402750Y593250D01*
X1525500Y826250D02*
X1746250Y826250D01*
X1542663Y480000D02*
X1547250D01*
X1460000Y562663D02*
Y585250D01*
X1882750Y968000D02*
X1892500Y958250D01*
Y702000D02*
Y958250D01*
X1396250Y599750D02*
Y610750D01*
X1459250Y624750D02*
Y755750D01*
X1892500Y693500D02*
Y702000D01*
X1460000Y562663D02*
X1542663Y480000D01*
X1452000Y593250D02*
X1460000Y585250D01*
X1402250Y616750D02*
X1451250D01*
X1870500Y968000D02*
X1882750D01*
X1783500Y584500D02*
X1892500Y693500D01*
X1396250Y610750D02*
X1402250Y616750D01*
D17*
X379000Y369250D02*
D03*
X2106650Y330200D02*
D03*
X2131650D02*
D03*
X2207260Y622850D02*
D03*
X1683540Y1019300D02*
D03*
D79*
X562610Y369250D02*
G03*
X588010Y394650I0J25400D01*
G01*
X379000Y369250D02*
X562610D01*
X588010Y394650D02*
Y441960D01*
D82*
X1738620Y275000D02*
G03*
X1751853Y280032I-32J20000D01*
G01*
X1241250Y416500D02*
G03*
X1313790Y489040I0J72540D01*
G01*
X896580Y416500D02*
G03*
X871180Y391100I0J-25400D01*
G01*
X1766000Y289500D02*
G03*
X1761852Y288893I0J-14480D01*
G01*
X400250Y343850D02*
G03*
X374850Y369250I-25400J0D01*
G01*
X2087528Y289500D02*
G03*
X2106650Y308622I0J19122D01*
G01*
X400250Y302500D02*
Y302500D01*
X1751853Y280032D02*
X1761852Y288893D01*
X400250Y291117D02*
Y302500D01*
X1766000Y289500D02*
X1776000D01*
X400250Y291117D02*
X416367Y275000D01*
X1738620D01*
X1776000Y289500D02*
X2087528D01*
X896580Y416500D02*
X1241250D01*
X1313790Y489040D02*
Y638850D01*
X871180Y382030D02*
Y391100D01*
X400250Y302500D02*
X400250Y302532D01*
Y343850D01*
X349000Y369250D02*
X374850D01*
X2106650Y308622D02*
Y330200D01*
X2106650D02*
X2131650D01*
D84*
X871180Y382030D02*
D03*
D85*
X588010Y441960D02*
D03*
D89*
X1870000Y910400D02*
D03*
X1313790Y638850D02*
D03*
D90*
X1841250Y935900D02*
D03*
D93*
X349000Y369250D02*
D03*
D94*
X1801000Y961500D02*
D03*
X1826500Y962000D02*
D03*
X1619860Y497840D02*
D03*
X1599750Y724750D02*
D03*
X1724660Y601370D02*
D03*
X1850000Y961250D02*
D03*
X1828140Y327750D02*
D03*
X1889500Y341500D02*
D03*
X1842500Y435500D02*
D03*
X1931000Y447750D02*
D03*
X1768000Y479750D02*
D03*
X1774500Y517000D02*
D03*
X2020000Y344750D02*
D03*
X1957410Y345052D02*
D03*
X1955500Y376000D02*
D03*
X2019750Y384000D02*
D03*
X2057750Y404500D02*
D03*
X1971500Y435000D02*
D03*
X1478425Y629131D02*
D03*
X1762153Y802970D02*
D03*
X1918750Y923750D02*
D03*
X1874750Y960750D02*
D03*
X1620250Y978750D02*
D03*
X2001000Y815250D02*
D03*
X1436500Y663000D02*
D03*
X1382250Y962500D02*
D03*
X1918750Y1034750D02*
D03*
X495250Y429000D02*
D03*
X612750Y377250D02*
D03*
X605250Y324500D02*
D03*
X1394500Y581750D02*
D03*
X1438750Y604500D02*
D03*
X1477500Y579250D02*
D03*
X1776000Y289500D02*
D03*
D97*
X1546390Y1004570D02*
D03*
D100*
X1319500Y302000D02*
D03*
D101*
X740750Y315500D02*
D03*
X1816250Y913750D02*
D03*
M02*
