G04*
G04 #@! TF.GenerationSoftware,Altium Limited,Altium Designer,22.7.1 (60)*
G04*
G04 Layer_Color=32768*
%FSLAX44Y44*%
%MOMM*%
G71*
G04*
G04 #@! TF.SameCoordinates,84C913F6-0FDF-4526-9F0D-4E4E4A459FD0*
G04*
G04*
G04 #@! TF.FilePolarity,Positive*
G04*
G01*
G75*
%ADD12C,0.2000*%
%ADD13C,0.1000*%
%ADD123C,0.0500*%
D12*
X1707646Y617536D02*
Y632536D01*
X1699980Y625064D02*
X1714980D01*
D13*
X1869440Y430970D02*
Y440970D01*
X1864440Y435970D02*
X1874440D01*
X1856740Y513520D02*
Y523520D01*
X1851740Y518520D02*
X1861740D01*
X1900000Y448670D02*
X1910000D01*
X1905000Y443670D02*
Y453670D01*
X1799670Y446130D02*
X1809670D01*
X1804670Y441130D02*
Y451130D01*
X1804390Y460790D02*
Y470790D01*
X1799390Y465790D02*
X1809390D01*
X1971040Y320480D02*
Y330480D01*
X1966040Y325480D02*
X1976040D01*
X2042160Y320480D02*
Y330480D01*
X2037160Y325480D02*
X2047160D01*
X1971040Y361120D02*
Y371120D01*
X1966040Y366120D02*
X1976040D01*
X2042160Y361120D02*
Y371120D01*
X2037160Y366120D02*
X2047160D01*
X2042160Y401760D02*
Y411760D01*
X2037160Y406760D02*
X2047160D01*
X1971040Y401760D02*
Y411760D01*
X1966040Y406760D02*
X1976040D01*
X1912620Y320480D02*
Y330480D01*
X1907620Y325480D02*
X1917620D01*
X1841500Y320480D02*
Y330480D01*
X1836500Y325480D02*
X1846500D01*
X1841500Y361120D02*
Y371120D01*
X1836500Y366120D02*
X1846500D01*
X1841500Y401760D02*
Y411760D01*
X1836500Y406760D02*
X1846500D01*
X1912620Y401760D02*
Y411760D01*
X1907620Y406760D02*
X1917620D01*
X1745060Y438510D02*
X1755060D01*
X1750060Y433510D02*
Y443510D01*
X1745060Y386440D02*
X1755060D01*
X1750060Y381440D02*
Y391440D01*
X1745060Y334370D02*
X1755060D01*
X1750060Y329370D02*
Y339370D01*
X1998600Y339210D02*
X2014600D01*
X1998600Y309210D02*
X2014600D01*
Y339210D01*
X1998600Y309210D02*
Y339210D01*
X2001600Y324210D02*
X2011600D01*
X2006600Y319210D02*
Y329210D01*
X1998600Y379850D02*
X2014600D01*
X1998600Y349850D02*
X2014600D01*
Y379850D01*
X1998600Y349850D02*
Y379850D01*
X2001600Y364850D02*
X2011600D01*
X2006600Y359850D02*
Y369850D01*
X1998600Y420490D02*
X2014600D01*
X1998600Y390490D02*
X2014600D01*
Y420490D01*
X1998600Y390490D02*
Y420490D01*
X2001600Y405490D02*
X2011600D01*
X2006600Y400490D02*
Y410490D01*
X1869060Y339210D02*
X1885060D01*
X1869060Y309210D02*
X1885060D01*
Y339210D01*
X1869060Y309210D02*
Y339210D01*
X1872060Y324210D02*
X1882060D01*
X1877060Y319210D02*
Y329210D01*
X1869060Y379850D02*
X1885060D01*
X1869060Y349850D02*
X1885060D01*
Y379850D01*
X1869060Y349850D02*
Y379850D01*
X1872060Y364850D02*
X1882060D01*
X1877060Y359850D02*
Y369850D01*
Y400490D02*
Y410490D01*
X1872060Y405490D02*
X1882060D01*
X1869060Y390490D02*
Y420490D01*
X1885060Y390490D02*
Y420490D01*
X1869060Y390490D02*
X1885060D01*
X1869060Y420490D02*
X1885060D01*
X1705690Y446130D02*
X1715690D01*
X1710690Y441130D02*
Y451130D01*
X1695690Y438130D02*
X1725690D01*
X1695690Y454130D02*
X1725690D01*
Y438130D02*
Y454130D01*
X1695690Y438130D02*
Y454130D01*
Y386060D02*
Y402060D01*
X1725690Y386060D02*
Y402060D01*
X1695690D02*
X1725690D01*
X1695690Y386060D02*
X1725690D01*
X1710690Y389060D02*
Y399060D01*
X1705690Y394060D02*
X1715690D01*
X1695690Y333990D02*
Y349990D01*
X1725690Y333990D02*
Y349990D01*
X1695690D02*
X1725690D01*
X1695690Y333990D02*
X1725690D01*
X1710690Y336990D02*
Y346990D01*
X1705690Y341990D02*
X1715690D01*
X1780650Y488660D02*
Y502660D01*
X1762650Y488660D02*
Y502660D01*
X1780650D01*
X1762650Y488660D02*
X1780650D01*
X1766650Y495660D02*
X1776650D01*
X1771650Y490660D02*
Y500660D01*
X1743680Y451100D02*
X1771680D01*
X1743680Y469100D02*
X1771680D01*
X1743680Y451100D02*
Y469100D01*
X1771680Y451100D02*
Y469100D01*
X1757680Y455100D02*
Y465100D01*
X1752680Y460100D02*
X1762680D01*
X1743680Y399030D02*
X1771680D01*
X1743680Y417030D02*
X1771680D01*
X1743680Y399030D02*
Y417030D01*
X1771680Y399030D02*
Y417030D01*
X1757680Y403030D02*
Y413030D01*
X1752680Y408030D02*
X1762680D01*
X1743680Y346960D02*
X1771680D01*
X1743680Y364960D02*
X1771680D01*
X1743680Y346960D02*
Y364960D01*
X1771680Y346960D02*
Y364960D01*
X1757680Y350960D02*
Y360960D01*
X1752680Y355960D02*
X1762680D01*
X1901450Y467060D02*
X1905450D01*
X1903450Y465060D02*
Y469060D01*
X1791970Y530130D02*
Y534130D01*
X1789970Y532130D02*
X1793970D01*
X1670250Y931250D02*
Y941250D01*
X1665250Y936250D02*
X1675250D01*
X1624750Y936250D02*
Y952250D01*
X1654750Y936250D02*
Y952250D01*
X1624750D02*
X1654750D01*
X1624750Y936250D02*
X1654750D01*
X1639750Y939250D02*
Y949250D01*
X1634750Y944250D02*
X1644750D01*
X674250Y345250D02*
Y355250D01*
X669250Y350250D02*
X679250D01*
X666250Y335250D02*
Y365250D01*
X682250Y335250D02*
Y365250D01*
X666250Y335250D02*
X682250D01*
X666250Y365250D02*
X682250D01*
X626750Y628750D02*
Y638750D01*
X621750Y633750D02*
X631750D01*
X554250Y634250D02*
X564250D01*
X559250Y629250D02*
Y639250D01*
X637250Y941250D02*
X647250D01*
X642250Y936250D02*
Y946250D01*
X647250Y853000D02*
X657250D01*
X652250Y848000D02*
Y858000D01*
X617250Y796750D02*
X627250D01*
X622250Y791750D02*
Y801750D01*
X607250Y804750D02*
X637250D01*
X607250Y788750D02*
X637250D01*
X607250D02*
Y804750D01*
X637250Y788750D02*
Y804750D01*
X612500Y348000D02*
X622500D01*
X617500Y343000D02*
Y353000D01*
X632500Y348000D02*
X642500D01*
X637500Y343000D02*
Y353000D01*
X1751330Y555530D02*
Y559530D01*
X1749330Y557530D02*
X1753330D01*
X1752600Y693960D02*
Y697960D01*
X1750600Y695960D02*
X1754600D01*
X467000Y470750D02*
X471000D01*
X469000Y468750D02*
Y472750D01*
X435750Y449750D02*
Y459750D01*
X430750Y454750D02*
X440750D01*
X647500Y899000D02*
X657500D01*
X652500Y894000D02*
Y904000D01*
X597200Y875350D02*
X607200D01*
X602200Y870350D02*
Y880350D01*
X546000Y899000D02*
X556000D01*
X551000Y894000D02*
Y904000D01*
X564000Y936250D02*
Y946250D01*
X559000Y941250D02*
X569000D01*
X444490Y713740D02*
X448490D01*
X446490Y711740D02*
Y715740D01*
X444490Y689610D02*
X448490D01*
X446490Y687610D02*
Y691610D01*
X444490Y665480D02*
X448490D01*
X446490Y663480D02*
Y667480D01*
X502750Y443000D02*
X506750D01*
X504750Y441000D02*
Y445000D01*
X502750Y464320D02*
X506750D01*
X504750Y462320D02*
Y466320D01*
X502750Y485500D02*
X506750D01*
X504750Y483500D02*
Y487500D01*
X1364060Y388620D02*
X1374060D01*
X1369060Y383620D02*
Y393620D01*
X1437720Y387350D02*
X1447720D01*
X1442720Y382350D02*
Y392350D01*
X1506300Y387350D02*
X1516300D01*
X1511300Y382350D02*
Y392350D01*
X1390860Y379810D02*
Y389810D01*
X1385860Y384810D02*
X1395860D01*
X1381860Y398810D02*
X1399860D01*
X1381860Y370810D02*
X1399860D01*
X1381860D02*
Y398810D01*
X1399860Y370810D02*
Y398810D01*
X1464520Y379810D02*
Y389810D01*
X1459520Y384810D02*
X1469520D01*
X1455520Y398810D02*
X1473520D01*
X1455520Y370810D02*
X1473520D01*
X1455520D02*
Y398810D01*
X1473520Y370810D02*
Y398810D01*
X1533100Y379810D02*
Y389810D01*
X1528100Y384810D02*
X1538100D01*
X1524100Y398810D02*
X1542100D01*
X1524100Y370810D02*
X1542100D01*
X1524100D02*
Y398810D01*
X1542100Y370810D02*
Y398810D01*
X719180Y309960D02*
Y319960D01*
X714180Y314960D02*
X724180D01*
X612500Y306250D02*
X622500D01*
X617500Y301250D02*
Y311250D01*
X674250Y303750D02*
Y313750D01*
X669250Y308750D02*
X679250D01*
X666250Y293750D02*
Y323750D01*
X682250Y293750D02*
Y323750D01*
X666250Y293750D02*
X682250D01*
X666250Y323750D02*
X682250D01*
X546250Y853000D02*
X556250D01*
X551250Y848000D02*
Y858000D01*
X575500Y796750D02*
X585500D01*
X580500Y791750D02*
Y801750D01*
X565500Y804750D02*
X595500D01*
X565500Y788750D02*
X595500D01*
X565500D02*
Y804750D01*
X595500Y788750D02*
Y804750D01*
X1885940Y427470D02*
Y434468D01*
X1882441D01*
X1881275Y433301D01*
Y430969D01*
X1882441Y429803D01*
X1885940D01*
X1883607D02*
X1881275Y427470D01*
X1875443D02*
Y434468D01*
X1878942Y430969D01*
X1874277D01*
X1871944Y433301D02*
X1870778Y434468D01*
X1868446D01*
X1867279Y433301D01*
Y428636D01*
X1868446Y427470D01*
X1870778D01*
X1871944Y428636D01*
Y433301D01*
X1860282Y434468D02*
X1862614Y433301D01*
X1864947Y430969D01*
Y428636D01*
X1863780Y427470D01*
X1861448D01*
X1860282Y428636D01*
Y429803D01*
X1861448Y430969D01*
X1864947D01*
X1842238Y480520D02*
X1836406D01*
X1835240Y481686D01*
Y484019D01*
X1836406Y485185D01*
X1842238D01*
X1835240Y491017D02*
X1842238D01*
X1838739Y487518D01*
Y492183D01*
X1841071Y494515D02*
X1842238Y495682D01*
Y498014D01*
X1841071Y499181D01*
X1836406D01*
X1835240Y498014D01*
Y495682D01*
X1836406Y494515D01*
X1841071D01*
X1835240Y501513D02*
Y503846D01*
Y502679D01*
X1842238D01*
X1841071Y501513D01*
X1888500Y457170D02*
Y450172D01*
X1891999D01*
X1893165Y451339D01*
Y453671D01*
X1891999Y454837D01*
X1888500D01*
X1890833D02*
X1893165Y457170D01*
X1898997D02*
Y450172D01*
X1895498Y453671D01*
X1900163D01*
X1902496Y457170D02*
X1904828D01*
X1903662D01*
Y450172D01*
X1902496Y451339D01*
X1908327D02*
X1909493Y450172D01*
X1911826D01*
X1912992Y451339D01*
Y452505D01*
X1911826Y453671D01*
X1912992Y454837D01*
Y456004D01*
X1911826Y457170D01*
X1909493D01*
X1908327Y456004D01*
Y454837D01*
X1909493Y453671D01*
X1908327Y452505D01*
Y451339D01*
X1909493Y453671D02*
X1911826D01*
X1788170Y454630D02*
Y447632D01*
X1791669D01*
X1792835Y448798D01*
Y451131D01*
X1791669Y452297D01*
X1788170D01*
X1790503D02*
X1792835Y454630D01*
X1798667D02*
Y447632D01*
X1795168Y451131D01*
X1799833D01*
X1802166Y454630D02*
X1804498D01*
X1803332D01*
Y447632D01*
X1802166Y448798D01*
X1807997Y447632D02*
X1812662D01*
Y448798D01*
X1807997Y453464D01*
Y454630D01*
X1820890Y457290D02*
Y464288D01*
X1817391D01*
X1816225Y463121D01*
Y460789D01*
X1817391Y459623D01*
X1820890D01*
X1818557D02*
X1816225Y457290D01*
X1810393D02*
Y464288D01*
X1813892Y460789D01*
X1809227D01*
X1806895Y457290D02*
X1804562D01*
X1805728D01*
Y464288D01*
X1806895Y463121D01*
X1796398Y464288D02*
X1798730Y463121D01*
X1801063Y460789D01*
Y458456D01*
X1799897Y457290D01*
X1797564D01*
X1796398Y458456D01*
Y459623D01*
X1797564Y460789D01*
X1801063D01*
X1962540Y308980D02*
X1969538D01*
Y312479D01*
X1968371Y313645D01*
X1966039D01*
X1964873Y312479D01*
Y308980D01*
Y311313D02*
X1962540Y313645D01*
Y319477D02*
X1969538D01*
X1966039Y315978D01*
Y320643D01*
X1962540Y322976D02*
Y325308D01*
Y324142D01*
X1969538D01*
X1968371Y322976D01*
X1969538Y333472D02*
Y328807D01*
X1966039D01*
X1967205Y331139D01*
Y332306D01*
X1966039Y333472D01*
X1963706D01*
X1962540Y332306D01*
Y329973D01*
X1963706Y328807D01*
X2033660Y308980D02*
X2040658D01*
Y312479D01*
X2039491Y313645D01*
X2037159D01*
X2035993Y312479D01*
Y308980D01*
Y311313D02*
X2033660Y313645D01*
Y319477D02*
X2040658D01*
X2037159Y315978D01*
Y320643D01*
X2033660Y322976D02*
Y325308D01*
Y324142D01*
X2040658D01*
X2039491Y322976D01*
X2033660Y332306D02*
X2040658D01*
X2037159Y328807D01*
Y333472D01*
X1962540Y349620D02*
X1969538D01*
Y353119D01*
X1968371Y354285D01*
X1966039D01*
X1964873Y353119D01*
Y349620D01*
Y351953D02*
X1962540Y354285D01*
Y360117D02*
X1969538D01*
X1966039Y356618D01*
Y361283D01*
X1962540Y363615D02*
Y365948D01*
Y364782D01*
X1969538D01*
X1968371Y363615D01*
Y369447D02*
X1969538Y370613D01*
Y372946D01*
X1968371Y374112D01*
X1967205D01*
X1966039Y372946D01*
Y371780D01*
Y372946D01*
X1964873Y374112D01*
X1963706D01*
X1962540Y372946D01*
Y370613D01*
X1963706Y369447D01*
X2033660Y349620D02*
X2040658D01*
Y353119D01*
X2039491Y354285D01*
X2037159D01*
X2035993Y353119D01*
Y349620D01*
Y351953D02*
X2033660Y354285D01*
Y360117D02*
X2040658D01*
X2037159Y356618D01*
Y361283D01*
X2033660Y363615D02*
Y365948D01*
Y364782D01*
X2040658D01*
X2039491Y363615D01*
X2033660Y374112D02*
Y369447D01*
X2038325Y374112D01*
X2039491D01*
X2040658Y372946D01*
Y370613D01*
X2039491Y369447D01*
X2033660Y390260D02*
X2040658D01*
Y393759D01*
X2039491Y394925D01*
X2037159D01*
X2035993Y393759D01*
Y390260D01*
Y392593D02*
X2033660Y394925D01*
Y400757D02*
X2040658D01*
X2037159Y397258D01*
Y401923D01*
X2033660Y404255D02*
Y406588D01*
Y405422D01*
X2040658D01*
X2039491Y404255D01*
X2033660Y410087D02*
Y412420D01*
Y411253D01*
X2040658D01*
X2039491Y410087D01*
X1962540Y390260D02*
X1969538D01*
Y393759D01*
X1968371Y394925D01*
X1966039D01*
X1964873Y393759D01*
Y390260D01*
Y392593D02*
X1962540Y394925D01*
Y400757D02*
X1969538D01*
X1966039Y397258D01*
Y401923D01*
X1962540Y404255D02*
Y406588D01*
Y405422D01*
X1969538D01*
X1968371Y404255D01*
Y410087D02*
X1969538Y411253D01*
Y413586D01*
X1968371Y414752D01*
X1963706D01*
X1962540Y413586D01*
Y411253D01*
X1963706Y410087D01*
X1968371D01*
X1904120Y308980D02*
X1911118D01*
Y312479D01*
X1909951Y313645D01*
X1907619D01*
X1906452Y312479D01*
Y308980D01*
Y311313D02*
X1904120Y313645D01*
Y319477D02*
X1911118D01*
X1907619Y315978D01*
Y320643D01*
X1909951Y322976D02*
X1911118Y324142D01*
Y326474D01*
X1909951Y327641D01*
X1905286D01*
X1904120Y326474D01*
Y324142D01*
X1905286Y322976D01*
X1909951D01*
X1905286Y329973D02*
X1904120Y331139D01*
Y333472D01*
X1905286Y334638D01*
X1909951D01*
X1911118Y333472D01*
Y331139D01*
X1909951Y329973D01*
X1908785D01*
X1907619Y331139D01*
Y334638D01*
X1833000Y308980D02*
X1839998D01*
Y312479D01*
X1838831Y313645D01*
X1836499D01*
X1835332Y312479D01*
Y308980D01*
Y311313D02*
X1833000Y313645D01*
Y319477D02*
X1839998D01*
X1836499Y315978D01*
Y320643D01*
X1838831Y322976D02*
X1839998Y324142D01*
Y326474D01*
X1838831Y327641D01*
X1834166D01*
X1833000Y326474D01*
Y324142D01*
X1834166Y322976D01*
X1838831D01*
Y329973D02*
X1839998Y331139D01*
Y333472D01*
X1838831Y334638D01*
X1837665D01*
X1836499Y333472D01*
X1835332Y334638D01*
X1834166D01*
X1833000Y333472D01*
Y331139D01*
X1834166Y329973D01*
X1835332D01*
X1836499Y331139D01*
X1837665Y329973D01*
X1838831D01*
X1836499Y331139D02*
Y333472D01*
X1833000Y349620D02*
X1839998D01*
Y353119D01*
X1838831Y354285D01*
X1836499D01*
X1835332Y353119D01*
Y349620D01*
Y351953D02*
X1833000Y354285D01*
Y360117D02*
X1839998D01*
X1836499Y356618D01*
Y361283D01*
X1838831Y363615D02*
X1839998Y364782D01*
Y367114D01*
X1838831Y368281D01*
X1834166D01*
X1833000Y367114D01*
Y364782D01*
X1834166Y363615D01*
X1838831D01*
X1839998Y370613D02*
Y375278D01*
X1838831D01*
X1834166Y370613D01*
X1833000D01*
Y390260D02*
X1839998D01*
Y393759D01*
X1838831Y394925D01*
X1836499D01*
X1835332Y393759D01*
Y390260D01*
Y392593D02*
X1833000Y394925D01*
Y400757D02*
X1839998D01*
X1836499Y397258D01*
Y401923D01*
X1838831Y404255D02*
X1839998Y405422D01*
Y407754D01*
X1838831Y408921D01*
X1834166D01*
X1833000Y407754D01*
Y405422D01*
X1834166Y404255D01*
X1838831D01*
X1839998Y415918D02*
Y411253D01*
X1836499D01*
X1837665Y413586D01*
Y414752D01*
X1836499Y415918D01*
X1834166D01*
X1833000Y414752D01*
Y412420D01*
X1834166Y411253D01*
X1904120Y390260D02*
X1911118D01*
Y393759D01*
X1909951Y394925D01*
X1907619D01*
X1906452Y393759D01*
Y390260D01*
Y392593D02*
X1904120Y394925D01*
Y400757D02*
X1911118D01*
X1907619Y397258D01*
Y401923D01*
X1909951Y404255D02*
X1911118Y405422D01*
Y407754D01*
X1909951Y408921D01*
X1905286D01*
X1904120Y407754D01*
Y405422D01*
X1905286Y404255D01*
X1909951D01*
X1904120Y414752D02*
X1911118D01*
X1907619Y411253D01*
Y415918D01*
X1733560Y447010D02*
Y440012D01*
X1737059D01*
X1738225Y441179D01*
Y443511D01*
X1737059Y444677D01*
X1733560D01*
X1735893D02*
X1738225Y447010D01*
X1744057D02*
Y440012D01*
X1740558Y443511D01*
X1745223D01*
X1747556Y441179D02*
X1748722Y440012D01*
X1751054D01*
X1752221Y441179D01*
Y445844D01*
X1751054Y447010D01*
X1748722D01*
X1747556Y445844D01*
Y441179D01*
X1754553D02*
X1755720Y440012D01*
X1758052D01*
X1759218Y441179D01*
Y442345D01*
X1758052Y443511D01*
X1756886D01*
X1758052D01*
X1759218Y444677D01*
Y445844D01*
X1758052Y447010D01*
X1755720D01*
X1754553Y445844D01*
X1733560Y394940D02*
Y387942D01*
X1737059D01*
X1738225Y389109D01*
Y391441D01*
X1737059Y392607D01*
X1733560D01*
X1735893D02*
X1738225Y394940D01*
X1744057D02*
Y387942D01*
X1740558Y391441D01*
X1745223D01*
X1747556Y389109D02*
X1748722Y387942D01*
X1751054D01*
X1752221Y389109D01*
Y393774D01*
X1751054Y394940D01*
X1748722D01*
X1747556Y393774D01*
Y389109D01*
X1759218Y394940D02*
X1754553D01*
X1759218Y390275D01*
Y389109D01*
X1758052Y387942D01*
X1755720D01*
X1754553Y389109D01*
X1733560Y342870D02*
Y335872D01*
X1737059D01*
X1738225Y337038D01*
Y339371D01*
X1737059Y340537D01*
X1733560D01*
X1735893D02*
X1738225Y342870D01*
X1744057D02*
Y335872D01*
X1740558Y339371D01*
X1745223D01*
X1747556Y337038D02*
X1748722Y335872D01*
X1751054D01*
X1752221Y337038D01*
Y341704D01*
X1751054Y342870D01*
X1748722D01*
X1747556Y341704D01*
Y337038D01*
X1754553Y342870D02*
X1756886D01*
X1755720D01*
Y335872D01*
X1754553Y337038D01*
X1986765Y342044D02*
Y337379D01*
X1985599Y336212D01*
X1983266D01*
X1982100Y337379D01*
Y342044D01*
X1983266Y343210D01*
X1985599D01*
X1984433Y340877D02*
X1986765Y343210D01*
X1985599D02*
X1986765Y342044D01*
X1992597Y343210D02*
Y336212D01*
X1989098Y339711D01*
X1993763D01*
X1996095Y337379D02*
X1997262Y336212D01*
X1999594D01*
X2000761Y337379D01*
Y342044D01*
X1999594Y343210D01*
X1997262D01*
X1996095Y342044D01*
Y337379D01*
X2003093Y342044D02*
X2004259Y343210D01*
X2006592D01*
X2007758Y342044D01*
Y337379D01*
X2006592Y336212D01*
X2004259D01*
X2003093Y337379D01*
Y338545D01*
X2004259Y339711D01*
X2007758D01*
X1986765Y382684D02*
Y378018D01*
X1985599Y376852D01*
X1983266D01*
X1982100Y378018D01*
Y382684D01*
X1983266Y383850D01*
X1985599D01*
X1984433Y381517D02*
X1986765Y383850D01*
X1985599D02*
X1986765Y382684D01*
X1992597Y383850D02*
Y376852D01*
X1989098Y380351D01*
X1993763D01*
X1996095Y378018D02*
X1997262Y376852D01*
X1999594D01*
X2000761Y378018D01*
Y382684D01*
X1999594Y383850D01*
X1997262D01*
X1996095Y382684D01*
Y378018D01*
X2003093D02*
X2004259Y376852D01*
X2006592D01*
X2007758Y378018D01*
Y379185D01*
X2006592Y380351D01*
X2007758Y381517D01*
Y382684D01*
X2006592Y383850D01*
X2004259D01*
X2003093Y382684D01*
Y381517D01*
X2004259Y380351D01*
X2003093Y379185D01*
Y378018D01*
X2004259Y380351D02*
X2006592D01*
X1986765Y423324D02*
Y418658D01*
X1985599Y417492D01*
X1983266D01*
X1982100Y418658D01*
Y423324D01*
X1983266Y424490D01*
X1985599D01*
X1984433Y422157D02*
X1986765Y424490D01*
X1985599D02*
X1986765Y423324D01*
X1992597Y424490D02*
Y417492D01*
X1989098Y420991D01*
X1993763D01*
X1996095Y418658D02*
X1997262Y417492D01*
X1999594D01*
X2000761Y418658D01*
Y423324D01*
X1999594Y424490D01*
X1997262D01*
X1996095Y423324D01*
Y418658D01*
X2003093Y417492D02*
X2007758D01*
Y418658D01*
X2003093Y423324D01*
Y424490D01*
X1857225Y342044D02*
Y337379D01*
X1856059Y336212D01*
X1853726D01*
X1852560Y337379D01*
Y342044D01*
X1853726Y343210D01*
X1856059D01*
X1854892Y340877D02*
X1857225Y343210D01*
X1856059D02*
X1857225Y342044D01*
X1863057Y343210D02*
Y336212D01*
X1859558Y339711D01*
X1864223D01*
X1866555Y337379D02*
X1867722Y336212D01*
X1870054D01*
X1871221Y337379D01*
Y342044D01*
X1870054Y343210D01*
X1867722D01*
X1866555Y342044D01*
Y337379D01*
X1878218Y336212D02*
X1875886Y337379D01*
X1873553Y339711D01*
Y342044D01*
X1874720Y343210D01*
X1877052D01*
X1878218Y342044D01*
Y340877D01*
X1877052Y339711D01*
X1873553D01*
X1857225Y382684D02*
Y378018D01*
X1856059Y376852D01*
X1853726D01*
X1852560Y378018D01*
Y382684D01*
X1853726Y383850D01*
X1856059D01*
X1854892Y381517D02*
X1857225Y383850D01*
X1856059D02*
X1857225Y382684D01*
X1863057Y383850D02*
Y376852D01*
X1859558Y380351D01*
X1864223D01*
X1866555Y378018D02*
X1867722Y376852D01*
X1870054D01*
X1871221Y378018D01*
Y382684D01*
X1870054Y383850D01*
X1867722D01*
X1866555Y382684D01*
Y378018D01*
X1878218Y376852D02*
X1873553D01*
Y380351D01*
X1875886Y379185D01*
X1877052D01*
X1878218Y380351D01*
Y382684D01*
X1877052Y383850D01*
X1874720D01*
X1873553Y382684D01*
X1857225Y423324D02*
Y418658D01*
X1856059Y417492D01*
X1853726D01*
X1852560Y418658D01*
Y423324D01*
X1853726Y424490D01*
X1856059D01*
X1854892Y422157D02*
X1857225Y424490D01*
X1856059D02*
X1857225Y423324D01*
X1863057Y424490D02*
Y417492D01*
X1859558Y420991D01*
X1864223D01*
X1866555Y418658D02*
X1867722Y417492D01*
X1870054D01*
X1871221Y418658D01*
Y423324D01*
X1870054Y424490D01*
X1867722D01*
X1866555Y423324D01*
Y418658D01*
X1877052Y424490D02*
Y417492D01*
X1873553Y420991D01*
X1878218D01*
X1692856Y426295D02*
X1697522D01*
X1698688Y425129D01*
Y422796D01*
X1697522Y421630D01*
X1692856D01*
X1691690Y422796D01*
Y425129D01*
X1694023Y423963D02*
X1691690Y426295D01*
Y425129D02*
X1692856Y426295D01*
X1691690Y432127D02*
X1698688D01*
X1695189Y428628D01*
Y433293D01*
X1697522Y435625D02*
X1698688Y436792D01*
Y439124D01*
X1697522Y440291D01*
X1692856D01*
X1691690Y439124D01*
Y436792D01*
X1692856Y435625D01*
X1697522D01*
Y442623D02*
X1698688Y443789D01*
Y446122D01*
X1697522Y447288D01*
X1696355D01*
X1695189Y446122D01*
Y444956D01*
Y446122D01*
X1694023Y447288D01*
X1692856D01*
X1691690Y446122D01*
Y443789D01*
X1692856Y442623D01*
Y374225D02*
X1697522D01*
X1698688Y373059D01*
Y370726D01*
X1697522Y369560D01*
X1692856D01*
X1691690Y370726D01*
Y373059D01*
X1694023Y371893D02*
X1691690Y374225D01*
Y373059D02*
X1692856Y374225D01*
X1691690Y380057D02*
X1698688D01*
X1695189Y376558D01*
Y381223D01*
X1697522Y383555D02*
X1698688Y384722D01*
Y387054D01*
X1697522Y388221D01*
X1692856D01*
X1691690Y387054D01*
Y384722D01*
X1692856Y383555D01*
X1697522D01*
X1691690Y395218D02*
Y390553D01*
X1696355Y395218D01*
X1697522D01*
X1698688Y394052D01*
Y391720D01*
X1697522Y390553D01*
X1692856Y322155D02*
X1697522D01*
X1698688Y320989D01*
Y318656D01*
X1697522Y317490D01*
X1692856D01*
X1691690Y318656D01*
Y320989D01*
X1694023Y319823D02*
X1691690Y322155D01*
Y320989D02*
X1692856Y322155D01*
X1691690Y327987D02*
X1698688D01*
X1695189Y324488D01*
Y329153D01*
X1697522Y331485D02*
X1698688Y332652D01*
Y334984D01*
X1697522Y336151D01*
X1692856D01*
X1691690Y334984D01*
Y332652D01*
X1692856Y331485D01*
X1697522D01*
X1691690Y338483D02*
Y340816D01*
Y339650D01*
X1698688D01*
X1697522Y338483D01*
X1794400Y491658D02*
Y484660D01*
X1790901D01*
X1789735Y485826D01*
Y490491D01*
X1790901Y491658D01*
X1794400D01*
X1783903Y484660D02*
Y491658D01*
X1787402Y488159D01*
X1782737D01*
X1780405Y490491D02*
X1779238Y491658D01*
X1776906D01*
X1775739Y490491D01*
Y485826D01*
X1776906Y484660D01*
X1779238D01*
X1780405Y485826D01*
Y490491D01*
X1769908Y484660D02*
Y491658D01*
X1773407Y488159D01*
X1768742D01*
X1782180Y456598D02*
Y449600D01*
X1778681D01*
X1777515Y450766D01*
Y455431D01*
X1778681Y456598D01*
X1782180D01*
X1771683Y449600D02*
Y456598D01*
X1775182Y453099D01*
X1770517D01*
X1768185Y455431D02*
X1767018Y456598D01*
X1764686D01*
X1763519Y455431D01*
Y450766D01*
X1764686Y449600D01*
X1767018D01*
X1768185Y450766D01*
Y455431D01*
X1761187D02*
X1760020Y456598D01*
X1757688D01*
X1756522Y455431D01*
Y454265D01*
X1757688Y453099D01*
X1758854D01*
X1757688D01*
X1756522Y451933D01*
Y450766D01*
X1757688Y449600D01*
X1760020D01*
X1761187Y450766D01*
X1782180Y404528D02*
Y397530D01*
X1778681D01*
X1777515Y398696D01*
Y403361D01*
X1778681Y404528D01*
X1782180D01*
X1771683Y397530D02*
Y404528D01*
X1775182Y401029D01*
X1770517D01*
X1768185Y403361D02*
X1767018Y404528D01*
X1764686D01*
X1763519Y403361D01*
Y398696D01*
X1764686Y397530D01*
X1767018D01*
X1768185Y398696D01*
Y403361D01*
X1756522Y397530D02*
X1761187D01*
X1756522Y402195D01*
Y403361D01*
X1757688Y404528D01*
X1760020D01*
X1761187Y403361D01*
X1782180Y352458D02*
Y345460D01*
X1778681D01*
X1777515Y346626D01*
Y351291D01*
X1778681Y352458D01*
X1782180D01*
X1771683Y345460D02*
Y352458D01*
X1775182Y348959D01*
X1770517D01*
X1768185Y351291D02*
X1767018Y352458D01*
X1764686D01*
X1763519Y351291D01*
Y346626D01*
X1764686Y345460D01*
X1767018D01*
X1768185Y346626D01*
Y351291D01*
X1761187Y345460D02*
X1758854D01*
X1760020D01*
Y352458D01*
X1761187Y351291D01*
X1913785Y465891D02*
X1914951Y467058D01*
X1917284D01*
X1918450Y465891D01*
Y461226D01*
X1917284Y460060D01*
X1914951D01*
X1913785Y461226D01*
X1907953Y460060D02*
Y467058D01*
X1911452Y463559D01*
X1906787D01*
X1904454Y465891D02*
X1903288Y467058D01*
X1900956D01*
X1899789Y465891D01*
Y461226D01*
X1900956Y460060D01*
X1903288D01*
X1904454Y461226D01*
Y465891D01*
X1892792Y460060D02*
X1897457D01*
X1892792Y464725D01*
Y465891D01*
X1893958Y467058D01*
X1896290D01*
X1897457Y465891D01*
X1793138Y542465D02*
X1791972Y543631D01*
Y545964D01*
X1793138Y547130D01*
X1797804D01*
X1798970Y545964D01*
Y543631D01*
X1797804Y542465D01*
X1798970Y536633D02*
X1791972D01*
X1795471Y540132D01*
Y535467D01*
X1793138Y533134D02*
X1791972Y531968D01*
Y529636D01*
X1793138Y528469D01*
X1797804D01*
X1798970Y529636D01*
Y531968D01*
X1797804Y533134D01*
X1793138D01*
X1798970Y526137D02*
Y523804D01*
Y524971D01*
X1791972D01*
X1793138Y526137D01*
X1661750Y919750D02*
X1668748D01*
Y923249D01*
X1667581Y924415D01*
X1665249D01*
X1664082Y923249D01*
Y919750D01*
Y922083D02*
X1661750Y924415D01*
X1667581Y926748D02*
X1668748Y927914D01*
Y930247D01*
X1667581Y931413D01*
X1666415D01*
X1665249Y930247D01*
Y929080D01*
Y930247D01*
X1664082Y931413D01*
X1662916D01*
X1661750Y930247D01*
Y927914D01*
X1662916Y926748D01*
X1667581Y933745D02*
X1668748Y934912D01*
Y937244D01*
X1667581Y938411D01*
X1662916D01*
X1661750Y937244D01*
Y934912D01*
X1662916Y933745D01*
X1667581D01*
X1668748Y945408D02*
Y940743D01*
X1665249D01*
X1666415Y943076D01*
Y944242D01*
X1665249Y945408D01*
X1662916D01*
X1661750Y944242D01*
Y941909D01*
X1662916Y940743D01*
X1621916Y924415D02*
X1626581D01*
X1627748Y923249D01*
Y920916D01*
X1626581Y919750D01*
X1621916D01*
X1620750Y920916D01*
Y923249D01*
X1623082Y922082D02*
X1620750Y924415D01*
Y923249D02*
X1621916Y924415D01*
X1626581Y926748D02*
X1627748Y927914D01*
Y930246D01*
X1626581Y931413D01*
X1625415D01*
X1624249Y930246D01*
Y929080D01*
Y930246D01*
X1623082Y931413D01*
X1621916D01*
X1620750Y930246D01*
Y927914D01*
X1621916Y926748D01*
X1626581Y933745D02*
X1627748Y934912D01*
Y937244D01*
X1626581Y938410D01*
X1621916D01*
X1620750Y937244D01*
Y934912D01*
X1621916Y933745D01*
X1626581D01*
X1620750Y940743D02*
Y943076D01*
Y941909D01*
X1627748D01*
X1626581Y940743D01*
X654415Y368084D02*
Y363419D01*
X653249Y362252D01*
X650916D01*
X649750Y363419D01*
Y368084D01*
X650916Y369250D01*
X653249D01*
X652083Y366917D02*
X654415Y369250D01*
X653249D02*
X654415Y368084D01*
X661413Y362252D02*
X659080Y363419D01*
X656748Y365751D01*
Y368084D01*
X657914Y369250D01*
X660247D01*
X661413Y368084D01*
Y366917D01*
X660247Y365751D01*
X656748D01*
X663745Y363419D02*
X664912Y362252D01*
X667244D01*
X668411Y363419D01*
Y368084D01*
X667244Y369250D01*
X664912D01*
X663745Y368084D01*
Y363419D01*
X675408Y362252D02*
X670743D01*
Y365751D01*
X673076Y364585D01*
X674242D01*
X675408Y365751D01*
Y368084D01*
X674242Y369250D01*
X671909D01*
X670743Y368084D01*
X611752Y675250D02*
X617584D01*
X618750Y674084D01*
Y671751D01*
X617584Y670585D01*
X611752D01*
Y663587D02*
X612919Y665920D01*
X615251Y668252D01*
X617584D01*
X618750Y667086D01*
Y664753D01*
X617584Y663587D01*
X616417D01*
X615251Y664753D01*
Y668252D01*
X612919Y661255D02*
X611752Y660088D01*
Y657756D01*
X612919Y656589D01*
X617584D01*
X618750Y657756D01*
Y660088D01*
X617584Y661255D01*
X612919D01*
Y654257D02*
X611752Y653091D01*
Y650758D01*
X612919Y649592D01*
X614085D01*
X615251Y650758D01*
Y651924D01*
Y650758D01*
X616417Y649592D01*
X617584D01*
X618750Y650758D01*
Y653091D01*
X617584Y654257D01*
X544252Y675750D02*
X550084D01*
X551250Y674584D01*
Y672251D01*
X550084Y671085D01*
X544252D01*
Y664087D02*
X545419Y666420D01*
X547751Y668752D01*
X550084D01*
X551250Y667586D01*
Y665253D01*
X550084Y664087D01*
X548917D01*
X547751Y665253D01*
Y668752D01*
X545419Y661755D02*
X544252Y660588D01*
Y658256D01*
X545419Y657089D01*
X550084D01*
X551250Y658256D01*
Y660588D01*
X550084Y661755D01*
X545419D01*
X551250Y650092D02*
Y654757D01*
X546585Y650092D01*
X545419D01*
X544252Y651258D01*
Y653590D01*
X545419Y654757D01*
X620750Y952750D02*
Y945752D01*
X624249D01*
X625415Y946918D01*
Y949251D01*
X624249Y950417D01*
X620750D01*
X623083D02*
X625415Y952750D01*
X632413Y945752D02*
X630080Y946918D01*
X627748Y949251D01*
Y951584D01*
X628914Y952750D01*
X631247D01*
X632413Y951584D01*
Y950417D01*
X631247Y949251D01*
X627748D01*
X634745Y946918D02*
X635912Y945752D01*
X638244D01*
X639411Y946918D01*
Y951584D01*
X638244Y952750D01*
X635912D01*
X634745Y951584D01*
Y946918D01*
X641743Y951584D02*
X642909Y952750D01*
X645242D01*
X646408Y951584D01*
Y946918D01*
X645242Y945752D01*
X642909D01*
X641743Y946918D01*
Y948085D01*
X642909Y949251D01*
X646408D01*
X598334Y816585D02*
X593669D01*
X592502Y817751D01*
Y820084D01*
X593669Y821250D01*
X598334D01*
X599500Y820084D01*
Y817751D01*
X597167Y818917D02*
X599500Y816585D01*
Y817751D02*
X598334Y816585D01*
X592502Y809587D02*
X593669Y811920D01*
X596001Y814252D01*
X598334D01*
X599500Y813086D01*
Y810753D01*
X598334Y809587D01*
X597167D01*
X596001Y810753D01*
Y814252D01*
X593669Y807254D02*
X592502Y806088D01*
Y803756D01*
X593669Y802589D01*
X598334D01*
X599500Y803756D01*
Y806088D01*
X598334Y807254D01*
X593669D01*
X599500Y800257D02*
Y797924D01*
Y799090D01*
X592502D01*
X593669Y800257D01*
X643750Y836500D02*
X650748D01*
Y839999D01*
X649582Y841165D01*
X647249D01*
X646083Y839999D01*
Y836500D01*
Y838833D02*
X643750Y841165D01*
X650748Y848163D02*
X649582Y845830D01*
X647249Y843498D01*
X644916D01*
X643750Y844664D01*
Y846997D01*
X644916Y848163D01*
X646083D01*
X647249Y846997D01*
Y843498D01*
X643750Y850496D02*
Y852828D01*
Y851662D01*
X650748D01*
X649582Y850496D01*
Y856327D02*
X650748Y857493D01*
Y859826D01*
X649582Y860992D01*
X644916D01*
X643750Y859826D01*
Y857493D01*
X644916Y856327D01*
X649582D01*
X640084Y816585D02*
X635419D01*
X634252Y817751D01*
Y820084D01*
X635419Y821250D01*
X640084D01*
X641250Y820084D01*
Y817751D01*
X638917Y818917D02*
X641250Y816585D01*
Y817751D02*
X640084Y816585D01*
X634252Y809587D02*
X635419Y811920D01*
X637751Y814252D01*
X640084D01*
X641250Y813086D01*
Y810753D01*
X640084Y809587D01*
X638917D01*
X637751Y810753D01*
Y814252D01*
X635419Y807254D02*
X634252Y806088D01*
Y803756D01*
X635419Y802589D01*
X640084D01*
X641250Y803756D01*
Y806088D01*
X640084Y807254D01*
X635419D01*
X641250Y796758D02*
X634252D01*
X637751Y800257D01*
Y795592D01*
X609000Y331500D02*
X615998D01*
Y334999D01*
X614832Y336165D01*
X612499D01*
X611333Y334999D01*
Y331500D01*
Y333833D02*
X609000Y336165D01*
X615998Y343163D02*
X614832Y340830D01*
X612499Y338498D01*
X610166D01*
X609000Y339664D01*
Y341997D01*
X610166Y343163D01*
X611333D01*
X612499Y341997D01*
Y338498D01*
X609000Y345495D02*
Y347828D01*
Y346662D01*
X615998D01*
X614832Y345495D01*
X609000Y351327D02*
Y353660D01*
Y352493D01*
X615998D01*
X614832Y351327D01*
X629000Y331500D02*
X635998D01*
Y334999D01*
X634832Y336165D01*
X632499D01*
X631333Y334999D01*
Y331500D01*
Y333833D02*
X629000Y336165D01*
X635998Y343163D02*
X634832Y340830D01*
X632499Y338498D01*
X630166D01*
X629000Y339664D01*
Y341997D01*
X630166Y343163D01*
X631333D01*
X632499Y341997D01*
Y338498D01*
X629000Y345495D02*
Y347828D01*
Y346662D01*
X635998D01*
X634832Y345495D01*
X629000Y355992D02*
Y351327D01*
X633665Y355992D01*
X634832D01*
X635998Y354826D01*
Y352493D01*
X634832Y351327D01*
X1692478Y586314D02*
X1685480Y590979D01*
X1692478D02*
X1685480Y586314D01*
X1692478Y593312D02*
Y597977D01*
Y595644D01*
X1685480D01*
Y600309D02*
X1690145D01*
X1692478Y602642D01*
X1690145Y604975D01*
X1685480D01*
X1688979D01*
Y600309D01*
X1692478Y607307D02*
X1685480D01*
Y611972D01*
Y614305D02*
Y616638D01*
Y615471D01*
X1692478D01*
X1691311Y614305D01*
X1740995Y558699D02*
X1739829Y557532D01*
X1737496D01*
X1736330Y558699D01*
Y563364D01*
X1737496Y564530D01*
X1739829D01*
X1740995Y563364D01*
X1747993Y564530D02*
X1743328D01*
X1747993Y559865D01*
Y558699D01*
X1746827Y557532D01*
X1744494D01*
X1743328Y558699D01*
X1750325D02*
X1751492Y557532D01*
X1753824D01*
X1754991Y558699D01*
Y563364D01*
X1753824Y564530D01*
X1751492D01*
X1750325Y563364D01*
Y558699D01*
X1757323D02*
X1758490Y557532D01*
X1760822D01*
X1761988Y558699D01*
Y559865D01*
X1760822Y561031D01*
X1759656D01*
X1760822D01*
X1761988Y562197D01*
Y563364D01*
X1760822Y564530D01*
X1758490D01*
X1757323Y563364D01*
X1742265Y697129D02*
X1741099Y695962D01*
X1738766D01*
X1737600Y697129D01*
Y701794D01*
X1738766Y702960D01*
X1741099D01*
X1742265Y701794D01*
X1749263Y702960D02*
X1744598D01*
X1749263Y698295D01*
Y697129D01*
X1748097Y695962D01*
X1745764D01*
X1744598Y697129D01*
X1751595D02*
X1752762Y695962D01*
X1755094D01*
X1756261Y697129D01*
Y701794D01*
X1755094Y702960D01*
X1752762D01*
X1751595Y701794D01*
Y697129D01*
X1763258Y702960D02*
X1758593D01*
X1763258Y698295D01*
Y697129D01*
X1762092Y695962D01*
X1759760D01*
X1758593Y697129D01*
X470169Y481085D02*
X469002Y482251D01*
Y484584D01*
X470169Y485750D01*
X474834D01*
X476000Y484584D01*
Y482251D01*
X474834Y481085D01*
X469002Y478752D02*
Y474087D01*
X470169D01*
X474834Y478752D01*
X476000D01*
X470169Y471754D02*
X469002Y470588D01*
Y468256D01*
X470169Y467089D01*
X474834D01*
X476000Y468256D01*
Y470588D01*
X474834Y471754D01*
X470169D01*
X476000Y464757D02*
Y462424D01*
Y463591D01*
X469002D01*
X470169Y464757D01*
X452250Y446250D02*
Y453248D01*
X448751D01*
X447585Y452081D01*
Y449749D01*
X448751Y448583D01*
X452250D01*
X449917D02*
X447585Y446250D01*
X445252Y453248D02*
X440587D01*
Y452081D01*
X445252Y447416D01*
Y446250D01*
X438255Y452081D02*
X437088Y453248D01*
X434756D01*
X433589Y452081D01*
Y447416D01*
X434756Y446250D01*
X437088D01*
X438255Y447416D01*
Y452081D01*
X431257Y446250D02*
X428924D01*
X430090D01*
Y453248D01*
X431257Y452081D01*
X664000Y920500D02*
X657002D01*
Y917001D01*
X658169Y915835D01*
X660501D01*
X661667Y917001D01*
Y920500D01*
Y918167D02*
X664000Y915835D01*
X657002Y908837D02*
X658169Y911170D01*
X660501Y913502D01*
X662834D01*
X664000Y912336D01*
Y910003D01*
X662834Y908837D01*
X661667D01*
X660501Y910003D01*
Y913502D01*
X658169Y906505D02*
X657002Y905338D01*
Y903006D01*
X658169Y901839D01*
X662834D01*
X664000Y903006D01*
Y905338D01*
X662834Y906505D01*
X658169D01*
Y899507D02*
X657002Y898341D01*
Y896008D01*
X658169Y894842D01*
X659335D01*
X660501Y896008D01*
X661667Y894842D01*
X662834D01*
X664000Y896008D01*
Y898341D01*
X662834Y899507D01*
X661667D01*
X660501Y898341D01*
X659335Y899507D01*
X658169D01*
X660501Y898341D02*
Y896008D01*
X564200Y889852D02*
Y895684D01*
X565366Y896850D01*
X567699D01*
X568865Y895684D01*
Y889852D01*
X575863D02*
X573530Y891019D01*
X571198Y893351D01*
Y895684D01*
X572364Y896850D01*
X574697D01*
X575863Y895684D01*
Y894517D01*
X574697Y893351D01*
X571198D01*
X578195Y891019D02*
X579362Y889852D01*
X581694D01*
X582861Y891019D01*
Y895684D01*
X581694Y896850D01*
X579362D01*
X578195Y895684D01*
Y891019D01*
X585193Y896850D02*
X587526D01*
X586360D01*
Y889852D01*
X585193Y891019D01*
X539500Y877500D02*
X546498D01*
Y880999D01*
X545331Y882165D01*
X542999D01*
X541833Y880999D01*
Y877500D01*
Y879833D02*
X539500Y882165D01*
X546498Y889163D02*
X545331Y886830D01*
X542999Y884498D01*
X540666D01*
X539500Y885664D01*
Y887997D01*
X540666Y889163D01*
X541833D01*
X542999Y887997D01*
Y884498D01*
X545331Y891495D02*
X546498Y892662D01*
Y894994D01*
X545331Y896161D01*
X540666D01*
X539500Y894994D01*
Y892662D01*
X540666Y891495D01*
X545331D01*
Y898493D02*
X546498Y899660D01*
Y901992D01*
X545331Y903158D01*
X544165D01*
X542999Y901992D01*
Y900826D01*
Y901992D01*
X541833Y903158D01*
X540666D01*
X539500Y901992D01*
Y899660D01*
X540666Y898493D01*
X542500Y952750D02*
Y945752D01*
X545999D01*
X547165Y946918D01*
Y949251D01*
X545999Y950417D01*
X542500D01*
X544833D02*
X547165Y952750D01*
X554163Y945752D02*
X551830Y946918D01*
X549498Y949251D01*
Y951584D01*
X550664Y952750D01*
X552997D01*
X554163Y951584D01*
Y950417D01*
X552997Y949251D01*
X549498D01*
X556496Y946918D02*
X557662Y945752D01*
X559994D01*
X561161Y946918D01*
Y951584D01*
X559994Y952750D01*
X557662D01*
X556496Y951584D01*
Y946918D01*
X568158Y952750D02*
X563493D01*
X568158Y948085D01*
Y946918D01*
X566992Y945752D01*
X564660D01*
X563493Y946918D01*
X456825Y712571D02*
X457991Y713738D01*
X460324D01*
X461490Y712571D01*
Y707906D01*
X460324Y706740D01*
X457991D01*
X456825Y707906D01*
X449827Y713738D02*
X452160Y712571D01*
X454492Y710239D01*
Y707906D01*
X453326Y706740D01*
X450993D01*
X449827Y707906D01*
Y709073D01*
X450993Y710239D01*
X454492D01*
X447495Y712571D02*
X446328Y713738D01*
X443996D01*
X442829Y712571D01*
Y707906D01*
X443996Y706740D01*
X446328D01*
X447495Y707906D01*
Y712571D01*
X435832Y713738D02*
X438164Y712571D01*
X440497Y710239D01*
Y707906D01*
X439330Y706740D01*
X436998D01*
X435832Y707906D01*
Y709073D01*
X436998Y710239D01*
X440497D01*
X456825Y688441D02*
X457991Y689608D01*
X460324D01*
X461490Y688441D01*
Y683776D01*
X460324Y682610D01*
X457991D01*
X456825Y683776D01*
X449827Y689608D02*
X452160Y688441D01*
X454492Y686109D01*
Y683776D01*
X453326Y682610D01*
X450993D01*
X449827Y683776D01*
Y684943D01*
X450993Y686109D01*
X454492D01*
X447495Y688441D02*
X446328Y689608D01*
X443996D01*
X442829Y688441D01*
Y683776D01*
X443996Y682610D01*
X446328D01*
X447495Y683776D01*
Y688441D01*
X435832Y689608D02*
X440497D01*
Y686109D01*
X438164Y687275D01*
X436998D01*
X435832Y686109D01*
Y683776D01*
X436998Y682610D01*
X439330D01*
X440497Y683776D01*
X456825Y664311D02*
X457991Y665478D01*
X460324D01*
X461490Y664311D01*
Y659646D01*
X460324Y658480D01*
X457991D01*
X456825Y659646D01*
X449827Y665478D02*
X452160Y664311D01*
X454492Y661979D01*
Y659646D01*
X453326Y658480D01*
X450993D01*
X449827Y659646D01*
Y660813D01*
X450993Y661979D01*
X454492D01*
X447495Y664311D02*
X446328Y665478D01*
X443996D01*
X442829Y664311D01*
Y659646D01*
X443996Y658480D01*
X446328D01*
X447495Y659646D01*
Y664311D01*
X436998Y658480D02*
Y665478D01*
X440497Y661979D01*
X435832D01*
X494415Y444169D02*
X493249Y443002D01*
X490916D01*
X489750Y444169D01*
Y448834D01*
X490916Y450000D01*
X493249D01*
X494415Y448834D01*
X501413Y443002D02*
X499080Y444169D01*
X496748Y446501D01*
Y448834D01*
X497914Y450000D01*
X500247D01*
X501413Y448834D01*
Y447667D01*
X500247Y446501D01*
X496748D01*
X503745Y444169D02*
X504912Y443002D01*
X507244D01*
X508411Y444169D01*
Y448834D01*
X507244Y450000D01*
X504912D01*
X503745Y448834D01*
Y444169D01*
X510743D02*
X511909Y443002D01*
X514242D01*
X515408Y444169D01*
Y445335D01*
X514242Y446501D01*
X513076D01*
X514242D01*
X515408Y447667D01*
Y448834D01*
X514242Y450000D01*
X511909D01*
X510743Y448834D01*
X494415Y465489D02*
X493249Y464322D01*
X490916D01*
X489750Y465489D01*
Y470154D01*
X490916Y471320D01*
X493249D01*
X494415Y470154D01*
X501413Y464322D02*
X499080Y465489D01*
X496748Y467821D01*
Y470154D01*
X497914Y471320D01*
X500247D01*
X501413Y470154D01*
Y468987D01*
X500247Y467821D01*
X496748D01*
X503745Y465489D02*
X504912Y464322D01*
X507244D01*
X508411Y465489D01*
Y470154D01*
X507244Y471320D01*
X504912D01*
X503745Y470154D01*
Y465489D01*
X515408Y471320D02*
X510743D01*
X515408Y466655D01*
Y465489D01*
X514242Y464322D01*
X511909D01*
X510743Y465489D01*
X494415Y486669D02*
X493249Y485502D01*
X490916D01*
X489750Y486669D01*
Y491334D01*
X490916Y492500D01*
X493249D01*
X494415Y491334D01*
X501413Y485502D02*
X499080Y486669D01*
X496748Y489001D01*
Y491334D01*
X497914Y492500D01*
X500247D01*
X501413Y491334D01*
Y490167D01*
X500247Y489001D01*
X496748D01*
X503745Y486669D02*
X504912Y485502D01*
X507244D01*
X508411Y486669D01*
Y491334D01*
X507244Y492500D01*
X504912D01*
X503745Y491334D01*
Y486669D01*
X510743Y492500D02*
X513076D01*
X511909D01*
Y485502D01*
X510743Y486669D01*
X1360560Y372120D02*
X1367558D01*
Y375619D01*
X1366391Y376785D01*
X1364059D01*
X1362893Y375619D01*
Y372120D01*
Y374453D02*
X1360560Y376785D01*
X1367558Y383783D02*
Y379118D01*
X1364059D01*
X1365225Y381450D01*
Y382617D01*
X1364059Y383783D01*
X1361726D01*
X1360560Y382617D01*
Y380284D01*
X1361726Y379118D01*
X1366391Y386115D02*
X1367558Y387282D01*
Y389614D01*
X1366391Y390781D01*
X1361726D01*
X1360560Y389614D01*
Y387282D01*
X1361726Y386115D01*
X1366391D01*
Y393113D02*
X1367558Y394280D01*
Y396612D01*
X1366391Y397778D01*
X1365225D01*
X1364059Y396612D01*
Y395446D01*
Y396612D01*
X1362893Y397778D01*
X1361726D01*
X1360560Y396612D01*
Y394280D01*
X1361726Y393113D01*
X1434220Y370850D02*
X1441218D01*
Y374349D01*
X1440052Y375515D01*
X1437719D01*
X1436553Y374349D01*
Y370850D01*
Y373183D02*
X1434220Y375515D01*
X1441218Y382513D02*
Y377848D01*
X1437719D01*
X1438885Y380180D01*
Y381347D01*
X1437719Y382513D01*
X1435386D01*
X1434220Y381347D01*
Y379014D01*
X1435386Y377848D01*
X1440052Y384846D02*
X1441218Y386012D01*
Y388344D01*
X1440052Y389511D01*
X1435386D01*
X1434220Y388344D01*
Y386012D01*
X1435386Y384846D01*
X1440052D01*
X1434220Y396508D02*
Y391843D01*
X1438885Y396508D01*
X1440052D01*
X1441218Y395342D01*
Y393010D01*
X1440052Y391843D01*
X1502800Y370850D02*
X1509798D01*
Y374349D01*
X1508631Y375515D01*
X1506299D01*
X1505133Y374349D01*
Y370850D01*
Y373183D02*
X1502800Y375515D01*
X1509798Y382513D02*
Y377848D01*
X1506299D01*
X1507465Y380180D01*
Y381347D01*
X1506299Y382513D01*
X1503966D01*
X1502800Y381347D01*
Y379014D01*
X1503966Y377848D01*
X1508631Y384846D02*
X1509798Y386012D01*
Y388344D01*
X1508631Y389511D01*
X1503966D01*
X1502800Y388344D01*
Y386012D01*
X1503966Y384846D01*
X1508631D01*
X1502800Y391843D02*
Y394176D01*
Y393010D01*
X1509798D01*
X1508631Y391843D01*
X1394362Y409310D02*
X1401360D01*
Y405811D01*
X1400194Y404645D01*
X1395529D01*
X1394362Y405811D01*
Y409310D01*
Y397647D02*
Y402312D01*
X1397861D01*
X1396695Y399980D01*
Y398813D01*
X1397861Y397647D01*
X1400194D01*
X1401360Y398813D01*
Y401146D01*
X1400194Y402312D01*
X1395529Y395314D02*
X1394362Y394148D01*
Y391816D01*
X1395529Y390649D01*
X1400194D01*
X1401360Y391816D01*
Y394148D01*
X1400194Y395314D01*
X1395529D01*
Y388317D02*
X1394362Y387150D01*
Y384818D01*
X1395529Y383652D01*
X1396695D01*
X1397861Y384818D01*
Y385984D01*
Y384818D01*
X1399028Y383652D01*
X1400194D01*
X1401360Y384818D01*
Y387150D01*
X1400194Y388317D01*
X1468022Y409310D02*
X1475020D01*
Y405811D01*
X1473854Y404645D01*
X1469189D01*
X1468022Y405811D01*
Y409310D01*
Y397647D02*
Y402312D01*
X1471521D01*
X1470355Y399980D01*
Y398813D01*
X1471521Y397647D01*
X1473854D01*
X1475020Y398813D01*
Y401146D01*
X1473854Y402312D01*
X1469189Y395314D02*
X1468022Y394148D01*
Y391816D01*
X1469189Y390649D01*
X1473854D01*
X1475020Y391816D01*
Y394148D01*
X1473854Y395314D01*
X1469189D01*
X1475020Y383652D02*
Y388317D01*
X1470355Y383652D01*
X1469189D01*
X1468022Y384818D01*
Y387150D01*
X1469189Y388317D01*
X1536602Y409310D02*
X1543600D01*
Y405811D01*
X1542434Y404645D01*
X1537769D01*
X1536602Y405811D01*
Y409310D01*
Y397647D02*
Y402312D01*
X1540101D01*
X1538935Y399980D01*
Y398813D01*
X1540101Y397647D01*
X1542434D01*
X1543600Y398813D01*
Y401146D01*
X1542434Y402312D01*
X1537769Y395314D02*
X1536602Y394148D01*
Y391816D01*
X1537769Y390649D01*
X1542434D01*
X1543600Y391816D01*
Y394148D01*
X1542434Y395314D01*
X1537769D01*
X1543600Y388317D02*
Y385984D01*
Y387150D01*
X1536602D01*
X1537769Y388317D01*
X702680Y323460D02*
Y316462D01*
X706179D01*
X707345Y317628D01*
Y319961D01*
X706179Y321127D01*
X702680D01*
X705013D02*
X707345Y323460D01*
X714343Y316462D02*
X712010Y317628D01*
X709678Y319961D01*
Y322294D01*
X710844Y323460D01*
X713177D01*
X714343Y322294D01*
Y321127D01*
X713177Y319961D01*
X709678D01*
X716675Y317628D02*
X717842Y316462D01*
X720174D01*
X721341Y317628D01*
Y322294D01*
X720174Y323460D01*
X717842D01*
X716675Y322294D01*
Y317628D01*
X728338Y316462D02*
X726006Y317628D01*
X723673Y319961D01*
Y322294D01*
X724839Y323460D01*
X727172D01*
X728338Y322294D01*
Y321127D01*
X727172Y319961D01*
X723673D01*
X609000Y289750D02*
X615998D01*
Y293249D01*
X614831Y294415D01*
X612499D01*
X611333Y293249D01*
Y289750D01*
Y292083D02*
X609000Y294415D01*
X615998Y301413D02*
X614831Y299080D01*
X612499Y296748D01*
X610166D01*
X609000Y297914D01*
Y300247D01*
X610166Y301413D01*
X611333D01*
X612499Y300247D01*
Y296748D01*
X614831Y303745D02*
X615998Y304912D01*
Y307244D01*
X614831Y308411D01*
X610166D01*
X609000Y307244D01*
Y304912D01*
X610166Y303745D01*
X614831D01*
X615998Y315408D02*
Y310743D01*
X612499D01*
X613665Y313076D01*
Y314242D01*
X612499Y315408D01*
X610166D01*
X609000Y314242D01*
Y311910D01*
X610166Y310743D01*
X654415Y326584D02*
Y321918D01*
X653249Y320752D01*
X650916D01*
X649750Y321918D01*
Y326584D01*
X650916Y327750D01*
X653249D01*
X652083Y325417D02*
X654415Y327750D01*
X653249D02*
X654415Y326584D01*
X661413Y320752D02*
X659080Y321918D01*
X656748Y324251D01*
Y326584D01*
X657914Y327750D01*
X660247D01*
X661413Y326584D01*
Y325417D01*
X660247Y324251D01*
X656748D01*
X663745Y321918D02*
X664912Y320752D01*
X667244D01*
X668411Y321918D01*
Y326584D01*
X667244Y327750D01*
X664912D01*
X663745Y326584D01*
Y321918D01*
X670743D02*
X671909Y320752D01*
X674242D01*
X675408Y321918D01*
Y323085D01*
X674242Y324251D01*
X673076D01*
X674242D01*
X675408Y325417D01*
Y326584D01*
X674242Y327750D01*
X671909D01*
X670743Y326584D01*
X542750Y836500D02*
X549748D01*
Y839999D01*
X548582Y841165D01*
X546249D01*
X545083Y839999D01*
Y836500D01*
Y838832D02*
X542750Y841165D01*
X549748Y848163D02*
X548582Y845830D01*
X546249Y843498D01*
X543916D01*
X542750Y844664D01*
Y846997D01*
X543916Y848163D01*
X545083D01*
X546249Y846997D01*
Y843498D01*
X548582Y850496D02*
X549748Y851662D01*
Y853994D01*
X548582Y855161D01*
X543916D01*
X542750Y853994D01*
Y851662D01*
X543916Y850496D01*
X548582D01*
X542750Y860992D02*
X549748D01*
X546249Y857493D01*
Y862158D01*
D123*
X1886940Y426470D02*
Y445470D01*
X1851940Y426470D02*
Y445470D01*
X1886940D01*
X1851940Y426470D02*
X1886940D01*
X1810240Y481520D02*
X1903240D01*
X1810240Y555520D02*
X1903240D01*
Y481520D02*
Y555520D01*
X1810240Y481520D02*
Y555520D01*
X1813490Y488520D02*
X1899991D01*
X1813490Y548521D02*
X1899991D01*
Y488520D02*
Y548521D01*
X1813490Y488520D02*
Y548521D01*
X1887500Y458170D02*
X1922500D01*
X1887500Y439170D02*
X1922500D01*
Y458170D01*
X1887500Y439170D02*
Y458170D01*
X1787170Y455630D02*
X1822170D01*
X1787170Y436630D02*
X1822170D01*
Y455630D01*
X1787170Y436630D02*
Y455630D01*
X1821890Y456290D02*
Y475290D01*
X1786890Y456290D02*
Y475290D01*
X1821890D01*
X1786890Y456290D02*
X1821890D01*
X1961540Y307980D02*
Y342980D01*
X1980540Y307980D02*
Y342980D01*
X1961540D02*
X1980540D01*
X1961540Y307980D02*
X1980540D01*
X2032660D02*
Y342980D01*
X2051660Y307980D02*
Y342980D01*
X2032660D02*
X2051660D01*
X2032660Y307980D02*
X2051660D01*
X1961540Y348620D02*
Y383620D01*
X1980540Y348620D02*
Y383620D01*
X1961540D02*
X1980540D01*
X1961540Y348620D02*
X1980540D01*
X2032660D02*
Y383620D01*
X2051660Y348620D02*
Y383620D01*
X2032660D02*
X2051660D01*
X2032660Y348620D02*
X2051660D01*
X2032660Y389260D02*
Y424260D01*
X2051660Y389260D02*
Y424260D01*
X2032660D02*
X2051660D01*
X2032660Y389260D02*
X2051660D01*
X1961540D02*
Y424260D01*
X1980540Y389260D02*
Y424260D01*
X1961540D02*
X1980540D01*
X1961540Y389260D02*
X1980540D01*
X1903120Y307980D02*
Y342980D01*
X1922120Y307980D02*
Y342980D01*
X1903120D02*
X1922120D01*
X1903120Y307980D02*
X1922120D01*
X1832000D02*
Y342980D01*
X1851000Y307980D02*
Y342980D01*
X1832000D02*
X1851000D01*
X1832000Y307980D02*
X1851000D01*
X1832000Y348620D02*
Y383620D01*
X1851000Y348620D02*
Y383620D01*
X1832000D02*
X1851000D01*
X1832000Y348620D02*
X1851000D01*
X1832000Y389260D02*
Y424260D01*
X1851000Y389260D02*
Y424260D01*
X1832000D02*
X1851000D01*
X1832000Y389260D02*
X1851000D01*
X1903120D02*
Y424260D01*
X1922120Y389260D02*
Y424260D01*
X1903120D02*
X1922120D01*
X1903120Y389260D02*
X1922120D01*
X1732560Y448010D02*
X1767560D01*
X1732560Y429010D02*
X1767560D01*
Y448010D01*
X1732560Y429010D02*
Y448010D01*
Y395940D02*
X1767560D01*
X1732560Y376940D02*
X1767560D01*
Y395940D01*
X1732560Y376940D02*
Y395940D01*
Y343870D02*
X1767560D01*
X1732560Y324870D02*
X1767560D01*
Y343870D01*
X1732560Y324870D02*
Y343870D01*
X1981100Y304210D02*
Y344210D01*
X2032100Y304210D02*
Y344210D01*
X1981100Y304210D02*
X2032100D01*
X1981100Y344210D02*
X2032100D01*
X1981100Y344850D02*
Y384850D01*
X2032100Y344850D02*
Y384850D01*
X1981100Y344850D02*
X2032100D01*
X1981100Y384850D02*
X2032100D01*
X1981100Y385490D02*
Y425490D01*
X2032100Y385490D02*
Y425490D01*
X1981100Y385490D02*
X2032100D01*
X1981100Y425490D02*
X2032100D01*
X1851560Y304210D02*
Y344210D01*
X1902560Y304210D02*
Y344210D01*
X1851560Y304210D02*
X1902560D01*
X1851560Y344210D02*
X1902560D01*
X1851560Y344850D02*
Y384850D01*
X1902560Y344850D02*
Y384850D01*
X1851560Y344850D02*
X1902560D01*
X1851560Y384850D02*
X1902560D01*
X1851560Y425490D02*
X1902560D01*
X1851560Y385490D02*
X1902560D01*
Y425490D01*
X1851560Y385490D02*
Y425490D01*
X1690690Y420630D02*
Y471630D01*
X1730690Y420630D02*
Y471630D01*
X1690690D02*
X1730690D01*
X1690690Y420630D02*
X1730690D01*
X1690690Y368560D02*
X1730690D01*
X1690690Y419560D02*
X1730690D01*
Y368560D02*
Y419560D01*
X1690690Y368560D02*
Y419560D01*
Y316490D02*
X1730690D01*
X1690690Y367490D02*
X1730690D01*
Y316490D02*
Y367490D01*
X1690690Y316490D02*
Y367490D01*
X1795400Y483660D02*
Y507660D01*
X1747900Y483660D02*
Y507660D01*
X1795400D01*
X1747900Y483660D02*
X1795400D01*
X1732180Y448600D02*
X1783180D01*
X1732180Y471350D02*
X1783180D01*
X1732180Y448600D02*
Y471350D01*
X1783180Y448600D02*
Y471350D01*
X1732180Y396530D02*
X1783180D01*
X1732180Y419280D02*
X1783180D01*
X1732180Y396530D02*
Y419280D01*
X1783180Y396530D02*
Y419280D01*
X1732180Y344460D02*
X1783180D01*
X1732180Y367210D02*
X1783180D01*
X1732180Y344460D02*
Y367210D01*
X1783180Y344460D02*
Y367210D01*
X1919450Y459060D02*
Y475060D01*
X1887450Y459060D02*
Y475060D01*
X1919450D01*
X1887450Y459060D02*
X1919450D01*
X1783970Y548130D02*
X1799970D01*
X1783970Y516130D02*
X1799970D01*
X1783970D02*
Y548130D01*
X1799970Y516130D02*
Y548130D01*
X1660750Y918750D02*
Y953750D01*
X1679750Y918750D02*
Y953750D01*
X1660750D02*
X1679750D01*
X1660750Y918750D02*
X1679750D01*
X1619750Y918750D02*
X1659750D01*
X1619750Y969750D02*
X1659750D01*
Y918750D02*
Y969750D01*
X1619750Y918750D02*
Y969750D01*
X648750Y370250D02*
X699750D01*
X648750Y330250D02*
X699750D01*
Y370250D01*
X648750Y330250D02*
Y370250D01*
X641750Y563750D02*
Y703750D01*
X586750Y563750D02*
Y703750D01*
Y563750D02*
X641750D01*
X586750Y703750D02*
X641750D01*
X586750D02*
X641750D01*
X586750Y563750D02*
X641750D01*
X586750D02*
Y703750D01*
X641750Y563750D02*
Y703750D01*
X574250Y564250D02*
Y704250D01*
X519250Y564250D02*
Y704250D01*
Y564250D02*
X574250Y564250D01*
X519250Y704250D02*
X574250Y704250D01*
X519250Y704250D02*
X574250Y704250D01*
X519250Y564250D02*
X574250Y564250D01*
X519250Y564250D02*
Y704250D01*
X574250Y564250D02*
Y704250D01*
X619750Y928750D02*
Y953750D01*
X664750Y928750D02*
Y953750D01*
X619750Y928750D02*
X664750D01*
X619750Y953750D02*
X664750D01*
X642750Y835500D02*
X661750D01*
X642750Y870500D02*
X661750D01*
Y835500D02*
Y870500D01*
X642750Y835500D02*
Y870500D01*
X642250Y771250D02*
Y822250D01*
X602250Y771250D02*
Y822250D01*
Y771250D02*
X642250D01*
X602250Y822250D02*
X642250D01*
X608000Y330500D02*
X627000D01*
X608000Y365500D02*
X627000D01*
Y330500D02*
Y365500D01*
X608000Y330500D02*
Y365500D01*
X628000Y330500D02*
X647000D01*
X628000Y365500D02*
X647000D01*
Y330500D02*
Y365500D01*
X628000Y330500D02*
Y365500D01*
X1680980Y549064D02*
Y704065D01*
X1734980Y549064D02*
Y704065D01*
X1680980D02*
X1734980D01*
X1680980Y549064D02*
X1734980D01*
X1735330Y565530D02*
X1767330D01*
X1735330Y549530D02*
X1767330D01*
Y565530D01*
X1735330Y549530D02*
Y565530D01*
X1736600Y703960D02*
X1768600D01*
X1736600Y687960D02*
X1768600D01*
Y703960D01*
X1736600Y687960D02*
Y703960D01*
X477000Y454750D02*
Y486750D01*
X461000Y454750D02*
Y486750D01*
Y454750D02*
X477000D01*
X461000Y486750D02*
X477000D01*
X453250Y445250D02*
Y464250D01*
X418250Y445250D02*
Y464250D01*
X453250D01*
X418250Y445250D02*
X453250D01*
X665000Y876500D02*
Y921500D01*
X640000Y876500D02*
Y921500D01*
Y876500D02*
X665000D01*
X640000Y921500D02*
X665000D01*
X565200Y828850D02*
Y921850D01*
X639200Y828850D02*
Y921850D01*
X565200Y828850D02*
X639200D01*
X565200Y921850D02*
X639200D01*
X572200Y832100D02*
Y918600D01*
X632201Y832100D02*
Y918600D01*
X572200Y832100D02*
X632201D01*
X572200Y918600D02*
X632201D01*
X538500Y876500D02*
Y921500D01*
X563500Y876500D02*
Y921500D01*
X538500D02*
X563500D01*
X538500Y876500D02*
X563500D01*
X541500Y953750D02*
X586500D01*
X541500Y928750D02*
X586500D01*
Y953750D01*
X541500Y928750D02*
Y953750D01*
X462490Y705740D02*
Y721740D01*
X430490Y705740D02*
Y721740D01*
X462490D01*
X430490Y705740D02*
X462490D01*
Y681610D02*
Y697610D01*
X430490Y681610D02*
Y697610D01*
X462490D01*
X430490Y681610D02*
X462490D01*
Y657480D02*
Y673480D01*
X430490Y657480D02*
Y673480D01*
X462490D01*
X430490Y657480D02*
X462490D01*
X488750Y435000D02*
Y451000D01*
X520750Y435000D02*
Y451000D01*
X488750Y435000D02*
X520750D01*
X488750Y451000D02*
X520750D01*
X488750Y456320D02*
Y472320D01*
X520750Y456320D02*
Y472320D01*
X488750Y456320D02*
X520750D01*
X488750Y472320D02*
X520750D01*
X488750Y477500D02*
Y493500D01*
X520750Y477500D02*
Y493500D01*
X488750Y477500D02*
X520750D01*
X488750Y493500D02*
X520750D01*
X1359560Y371120D02*
X1378560D01*
X1359560Y406120D02*
X1378560D01*
Y371120D02*
Y406120D01*
X1359560Y371120D02*
Y406120D01*
X1433220Y369850D02*
X1452220D01*
X1433220Y404850D02*
X1452220D01*
Y369850D02*
Y404850D01*
X1433220Y369850D02*
Y404850D01*
X1501800Y369850D02*
X1520800D01*
X1501800Y404850D02*
X1520800D01*
Y369850D02*
Y404850D01*
X1501800Y369850D02*
Y404850D01*
X1379610Y410310D02*
X1402360D01*
X1379610Y359310D02*
X1402360D01*
X1379610D02*
Y410310D01*
X1402360Y359310D02*
Y410310D01*
X1453270D02*
X1476020D01*
X1453270Y359310D02*
X1476020D01*
X1453270D02*
Y410310D01*
X1476020Y359310D02*
Y410310D01*
X1521850D02*
X1544600D01*
X1521850Y359310D02*
X1544600D01*
X1521850D02*
Y410310D01*
X1544600Y359310D02*
Y410310D01*
X701680Y305460D02*
Y324460D01*
X736680Y305460D02*
Y324460D01*
X701680Y305460D02*
X736680D01*
X701680Y324460D02*
X736680D01*
X608000Y288750D02*
X627000D01*
X608000Y323750D02*
X627000D01*
Y288750D02*
Y323750D01*
X608000Y288750D02*
Y323750D01*
X648750Y328750D02*
X699750D01*
X648750Y288750D02*
X699750D01*
Y328750D01*
X648750Y288750D02*
Y328750D01*
X541750Y835500D02*
X560750D01*
X541750Y870500D02*
X560750D01*
Y835500D02*
Y870500D01*
X541750Y835500D02*
Y870500D01*
X600500Y771250D02*
Y822250D01*
X560500Y771250D02*
Y822250D01*
Y771250D02*
X600500D01*
X560500Y822250D02*
X600500D01*
M02*
