M48
;Layer_Color=9474304
;FILE_FORMAT=4:4
METRIC
;TYPE=PLATED
T1F00S00C0.2000
T2F00S00C0.3000
T3F00S00C0.5000
;TYPE=NON_PLATED
%
T01
X01233000Y00390500
X01263000Y00389500
X01270000Y00409000
X01274640Y00424860
X01282640
X01309750Y00412500
X01325750Y00411750
X01328500Y00445500
X01347750Y00461250
X01376500Y00400250
X01251250Y00415500
X01236500Y00444000
T02
X00186648Y00089636
X00246936Y00089825
X00274000Y00087250
X00302500Y00066750
X00294250Y00155500
X00270250Y00174250
X00234250Y00183000
X00191500Y00183500
X00252000Y00134000
X00337000Y00197250
X00647250Y00125250
X00646000Y00114000
X00680000Y00078900
X00676750Y00052000
X00702750Y00057000
X00710000Y00068750
X00736500Y00058500
X00749250Y00021250
X00680960Y00015579
X00644500Y00037750
X00626000Y00050000
X00605250Y00076000
X00741000Y00135250
X00784500Y00099900
X00786250Y00256250
X00784500Y00311750
X00765500Y00355000
X00739500Y00367250
X00694750Y00276250
X00657000Y00283250
X00863000Y00341250
X00854750Y00370000
X00864750Y00154500
X00861250Y00131000
X00884869Y00101283
X00963000Y00119750
X01011000Y00121500
X01003500Y00099900
X01001750Y00039750
X00963250Y00041000
X00950750Y00067250
X00948500Y00155500
X00954250Y00203000
X01030000Y00201500
X01070000
X01072250Y00215500
X01076750Y00313250
X01069750Y00329750
X01093750Y00305000
X01003750Y00162250
X00799500Y00075750
X00800500Y00014250
X01252750Y00121250
X01253000Y00134000
X01294148Y00146456
X01295500Y00175250
Y00246750
X01329500Y00251000
X01337750Y00258250
X01387750Y00257000
X01368750Y00303000
X01349250Y00353000
X01341750Y00364500
X01349000Y00376250
X01314750Y00377750
X01301750Y00396000
X01266000Y00375000
X01266750Y00355750
Y00328250
X01233000Y00328250
X01205750Y00348500
X01210500Y00379250
X01314640Y00318822
X01430000Y00380250
X01482699Y00259447
X01488750Y00195750
X01456250Y00174500
X01428000Y00202080
X01419250Y00145250
X01401500Y00117750
X01447250Y00125000
X01347250Y00121250
X01347000Y00134250
X01202000Y00192750
X01532500Y00180750
X01531750Y00167000
X01553750Y00129000
X01613000Y00101250
X01596500Y00204250
X01613750Y00263500
X01655750Y00332000
X01657500Y00571750
X01632750Y00572500
X01607000Y00571750
X01598000Y00608500
X01622500
X01647250
X01659128Y00643212
X01573000Y00608500
X01548017Y00608503
X01523000Y00608250
X01513500Y00634250
X01518750Y00655250
X01507750Y00581250
X01523000Y00568250
X01547750Y00569000
X01561250Y00571750
X01573000Y00569250
X01559250Y00588750
X01567750Y00533500
X01585500Y00520500
X01503500Y00556250
X01461500Y00530250
X01401750Y00525330
X01389000Y00506500
X01386250Y00486750
X01424000Y00485250
X01490750Y00463000
X01420000Y00586250
X01424250Y00608250
X01323750Y00532250
X01332250Y00521000
X01332000Y00508500
X01312500Y00491000
X01277250Y00508000
X01277000Y00520500
X01279250Y00544000
X01278500Y00562000
X01203750Y00591504
X01191500Y00582000
X01349500Y00399000
X01166250Y00416000
X01039250Y00400750
X01013250Y00397500
X00986000Y00401750
X01181750Y00576000
X00393351Y00632685
T03
X00649000Y00311250
X00731000Y00393000
X01493750Y00347750
X01591250Y00259500
X01676500Y00394000
X01505750Y00416750
X00431000Y00563250
X00364250Y00582000
X00287500Y00574750
M30
