M48
;Layer_Color=9474304
;FILE_FORMAT=4:4
METRIC,LZ
;TYPE=PLATED
T1F00S00C0.3000
T2F00S00C0.5000
T3F00S00C0.8000
T4F00S00C1.0000
T5F00S00C1.0200
T6F00S00C1.1000
T7F00S00C1.2000
T8F00S00C1.3000
T9F00S00C1.4000
T10F00S00C1.5000
T11F00S00C3.0000
T12F00S00C3.0000
T13F00S00C4.2000
%
T01
X00024999Y0001
X00074999
X00084999
X00095
X00105
X00115
X00125
X00135
X00145
X00155
X00165
X00175
X00185
X0017Y0002
X0016
X0015
X00089999
X00105Y0005
X00109999Y0006
X0012
X00125Y0007
Y0011
X00135
X0014Y0012
X0015
X0013
X0012
X00115Y0013
X00125
X00135
X0013Y0014
X0012
X00109999
X00099999
X00089999
X00105Y0013
X00069999Y001
X00059999
X00049999
X00039999
X00029999
X00019999
X00009999
X00004999Y0011
X00014999
X00024999
X00034999
X00044999
X00054999
X00049999Y0012
X00039999
X00029999
X00019999
X00009999
X00004999Y0013
X00014999
X00024999
X00034999
X00019999Y0014
X00009999
X00004999Y0015
X00014999
X00009999Y0016
X00004999Y0017
Y0019
Y0021
Y0023
Y0025
Y0027
Y0029
Y0031
Y0033
Y0035
X00009999Y0036
X00004999Y0037
X00014999
X00019999Y0038
X00009999
X00004999Y0039
X00014999
X00034999Y0033
X00074999Y0031
X00084999
X00089999Y003
X00099999
X00095Y0029
X00105
X00084999
X00074999
X00064999
X00069999Y003
X00079999
Y0028
X00089999
X00084999Y0027
X00074999
X00064999
X00069999Y0028
X00059999
Y0026
X00069999
X00084999Y0019
X00155Y0023
X00175Y0025
X0018Y0026
X0017
X0019Y0027
X00191192Y00247657
X0024Y0026
X0023Y003
X002075Y0031
X0019Y0032
X00185Y0033
X00195
X0017Y0033
X00175Y0035
X00165
X0017Y0036
X00135Y0039
X00125
X00115
Y0037
X0012Y0032
X0030865Y00309378
X0034Y0031
Y003
X0036Y0031
X00285Y0027
X0028475Y00231567
X0029Y00208
X00285096Y002
X0029Y001575
X00351873Y00153
X003515Y00128
X0039Y001
X00395Y0009
X003Y0008
X00295Y0007
X00305
X003Y0006
Y0004
X00195Y0005
X0019Y00123
X0021785Y001575
X002Y0019
X0034Y002
X00074999Y0009
X00024999
X00014999
X00004999
X00009999Y0008
X00004999Y0007
Y0005
X004Y0008
X0041
X0042
X0043
X0044
X0045
X0046
X0047
X0048
X0049
X00485Y0009
X00495
X00475
X00465
X00455
X00445
X00435
X00425
X00415
X00405
X0041Y001
X004
X0043Y0012
X0044
X0045
X00488951Y0013895
X00488925Y0015149
X0047Y001695
X00475Y0021
X00485
X0049Y0024
X00495Y0025
X005Y0028
X0051Y0027
Y0032
X0052Y0032
X005
X0049Y0032
X0048Y0032
X0047Y0032
X0045Y00309
X00445Y0021
X0045Y002
X0044
X0043
X004Y0025
X0051Y0019
X00535Y0021
X00545
X0056Y002
X006
Y0022
X0059Y0017
X0058Y001565
X0062Y0017
X0063
X0064Y0016
X0063Y0015
X0065Y0017
X0068Y001705
X0069Y0018
X00689849Y0019721
X0066Y0021
X0064Y002
Y0024
X0069Y0025
X0064Y003
X0062
X0059Y0032
X0058
X0055Y003295
X0057Y0027
X0053Y0011
Y0009
X00549158Y00082593
X006Y0007
X00671193Y000595
X00691193
X00711193
X0068Y0013
X0073Y0016
X0074Y0017
X0075
X0076Y0021
X0079
X00780359Y00320359
X00771825Y003175
X0074Y0033
X0074775Y00370442
X0051Y0011
Y00038686
X0046
X0086Y0003
X0092Y0004
X0094Y0013
X0099Y0014
X01
X0101
X0102
X01015Y0015
X01005
X00995
X01Y0016
X0101
X0102
X01015Y0017
X01005
X00995
X0099Y0016
X01015Y0013
X01025
X0102Y0012
X01105Y0011
X01115
X01125
X01135
X01145
X01155
X0114Y0012
X01145Y0013
X011795Y00148155
X0117894Y00059212
X0118Y0001
X01075Y0007
X01065
X0106Y0006
X01055Y0031
X01045
X01035
X01025
X01015
X0101Y0032
X01005Y0033
X00995
X01Y0034
X0101
X0102
X0103
X0104
X0105
X0106
X01055Y0035
X01045
X01035
X01025
X01015
X01005
X00995
X01Y0036
X0101
X0102
X0103
X0104
X0105
X0106
X01055Y0037
X01065
X01075
X0107Y0035
X01085Y0035
X01095
X0109Y0034
X0108
X01085Y0031
X01095
X01175
X01185
X01180624Y002795
X0118Y0034
X0119
X01185Y0035
X0117Y0034
X0116
X0115
X01155Y0035
Y0037
X01045
X01035
X01025
X01015
X01005
X00995
X0099Y0036
Y0034
Y0032
Y0026
X01
X00995Y0025
X0092Y0025
Y0024
Y0022
Y0021
X009Y00238
X0092Y00283
Y003
Y0031
Y0032
Y0033
X0082
X0081Y0034
X008Y0037
X0081Y0022
Y0021
X0082
X0081Y0018
Y0015
X01205Y0013
Y0019
X01285
X01295
X01305Y0017
X01315
X0131Y0016
X013
X01295Y0015
X01305
X01315
X0132Y0014
X0133
X01325Y0013
X01335
X01315
X01305
X01295
X013Y0014
X0131
Y0012
X0132
X01315Y0011
X01305
X0131Y001
X013Y0009
X01325Y0009
X0133Y0011
X0134Y001
X0135
X0136
X0137
X0138
X01375Y0011
X01365
X01355
X01375Y0009
X0137Y001415
Y001715
Y0020225
Y002315
Y002615
Y002915
X0138Y003
X01375Y0031
X01365
X0137Y0032
X0138
X01375Y0033
X01365
X01355
X01345
X0135Y0034
X0136
X0137
X0138
X01375Y0035
X01365
X01355
X01345
X01335
X01325
X0133Y0036
X0134
X0135
X0136
X0137
X0138
X01375Y0037
X01365
X01355
X01345
X01335
X01325
X0133Y0038
X0134
X0135
X0136
X0137
X0138
X01375Y0039
X01365
X01355
X01345
X01335
X01325
X01295
X01285
X01275Y0037
X01285Y0035
X01255
X0126Y0034
X01225Y0035
X01215
X0122Y0036
X0121
X01205Y0037
X01215
X01195
Y0031
X01205
X01215
X01249164Y0029
X01285Y0029
Y0031
X01325
X0133Y003
X01325Y0029
X0134Y0031
X0136Y0032
X0134Y0034
X01330657Y00230657
X01330531Y00200532
X01326756Y00161014
X012805Y0014
X0129Y0012
X01295Y0005
X01305
X013Y0004
X0129
X01285Y0003
X01295
X01305
X0131Y0002
X013
X0129
X0128
X0127
X01265Y0001
X01275
X01285
X01295
X01305
X01315
X01325
X01375
X01275Y0003
X01255Y0001
X01245
X01235
X01225
X01215
X01205
X01195
X01285Y0025
X01255Y0039
X01265Y0041
X01275
X01285
X01295
X0129Y0042
X0128
X0127
X0126
X01255Y0043
X01265
X01275
X01285
X01295
X0129Y0044
X0128
X0127
X0126
X01255Y0045
X01265
X01275
X01285
X01295
X0129Y0046
X0128
X0127
X0126
X01255Y0047
X01265
X01275
X01285
X01295
X0129Y0048
X0128
X0127
X0126
X01265Y0049
X01275
X01285
X01295
X0129Y005
X0128
X0127
X0126
X01255Y0051
X01265
X01275
X01285
X01295
X0129Y0052
X0128
X0127
X0126
X01255Y0053
X01265
X01275
X01285
X0127Y0054
X0124
X0123
X0122
X0121
X01205Y0055
X01215
X01225
X01235
X01225Y0053
X0121Y005
X012
X01195Y0051
Y0049
X01205
X01215
X0121Y0048
X012
X01195Y0047
X01205
X0121Y0044
X0122
X01215Y0043
X01225
Y0045
X01205Y0043
X0121Y004
X0122
X012
X0128
X0129
X0133
X0134
X0135
X0136
X0137
X0138
X01375Y0041
X01365
X01355
X01345
X01335
X01325
X0133Y0042
X0134
X0135
X0136
X0137
X0138
X01375Y0043
X01365
X01355
X01345
X01335
X01325
X0133Y0044
X0134
X0135
X0136
X0137
X0138
X01375Y0045
X01365
X01355
X01345
X01335
X01325
X0133Y0046
X0134
X0135
X0136
X0137
X0138
X01375Y0047
X01365
X01355
X01345
X01335
X01325
X0133Y0048
X0134
X0135
X0136
X0137
X0138
X01375Y0049
X01365
X01355
X01345
X01335
X01325
X0133Y005
X0134
X0135
X0136
X0137
X0138
X01375Y0051
X01325
X01305Y0055
X01295
X013Y0056
X0129
X01285Y0057
X01295
X01305
X0131Y0058
X013
X0129
X0128
X0127
X01265Y0059
X01275
X01285
X01295
X01305
X01315
X01325
X01375
X01275Y0057
X01255Y0059
X01245
X01235
X01225
X01215
X01205
X01195
X01185
X01175
X01165
X01155
X01145
X01135
X01125
X01115
X01105
X01095
X01085
X01075
X01065
X01055
X01045
X01035
X01025
X01015
X01005
X00995
X00985
X00975
X00965
X00955
X00945
X00935
X00925
X00915
X00905
X00895
X00885
X00875
X00865
X00855
X00845
X00835
X00825
X00815
X0082Y0058
X0083
X0084
X0085
X0086
X00855Y0057
X00845
X00835
X00825
X0083Y0056
X0084
X00835Y0055
Y0051
X00825
X0083Y005
X0082
X0082Y0048
X00805Y0047
X008Y0046
X0082Y0043
X00835Y0049
X00875
X0089Y005
X00895Y0051
Y0055
X00875Y0053
X00895Y0047
X0095Y005
X00965Y0051
X0096Y0054
X00955Y0055
X00965
X00975
X00985
X0098Y0054
X01005Y0049
X01015
X01025
X0101Y0048
X01
X00995Y0047
X01005
X0102Y0046
X01015Y0045
X01055
X01065
X01075
X01085
X01095
X01105
X01115
X01125
X01135
X01145
X01155
X01165
X01175
X01185
X0119Y0046
X0118
X0117
X0116
X0115
X0114
X0113
X0112
X0111
X011
X0109
X0108
X0107
X0106
X0105
X01055Y0047
X01065
X01075
X01085
X01095
X01105
X01115
X01125
X01135
X01145
X01155
X01165
X01175
X01185
X0119Y0048
X0118
X0117
X0116
X0115
X0114
X0113
X0112
X0111
X011
X0109
X0108
X0107
X0106
X01075Y0049
X01085
X01095
X01105
X01115
X01125
X01135
X01145
X01155
X01165
X01175
X01185
X0119Y005
X0118
X0117
X0116
X0115
X0114
X0113
X0112
X01115Y0051
X01125
X01135
X01145
X01155
X01165
X01175
X01185
X0119Y0052
X0118
X0117
X0116
X0115
X0114
X0113
X0112
X01115Y0053
X01125
X01135
X01145
X01155
X01165
X01175
X0117Y0054
X0116
X0115
X0114
X01145Y0055
X01155
X01115
X0112Y0054
X01085Y0055
X0109Y0044
X011
X0111
X0112
X0113
X0114
X0115
X0116
X0117
X01165Y0043
X01155
X01145
X01135
X01125
X01115
X01105
X01095
X01085
X01075
X01065
X01055
X0106Y0044
X0107
X0108
X0105
Y004
X0106
X0107
X0108
X0109
X011
X0114
X0115
X0119
X0101
X00965087Y004245
X0096Y0043
X00755Y0047
X00725
Y0049
X0073Y005
X00725Y0051
X00735
X00745
X00755
X0076Y005
X0077
X0078
X0075
X0074Y0049
X0074Y0052
X0073
X00725Y0053
X00735
X0073Y0054
X00725Y0055
X00735
X0073Y0056
X00725Y0057
X00735
X0074Y0058
X0073
X00725Y0059
X00735
X00745
X00755
X00725Y0045
X0074Y004
X0057Y0048
X0054Y0046
X0037Y005
X00115Y0053
X001Y0053
X00109999Y0054
X00105Y0055
X00115
X00109999Y0056
X00105Y0057
X00115
X00109999Y0058
X00099999
X00089999
X00079999
X00069999
X00059999
X00049999
X00039999
X00029999
X00019999
X00014999Y0057
X00024999
X00034999
X00044999
X00054999
X00064999
X00074999
X00069999Y0056
X00059999
X00049999
X00039999
X00029999
X00019999
X00009999
X00004999Y0055
X00014999
X00009999Y0054
X00004999Y0053
X00014999
X00024999
X00034999
X00044999
X00054999
X00064999
X00074999
X00069999Y0054
X00059999
X00049999
X00044999Y0055
X00054999
X00064999
X00074999
Y0059
X00084999
X00095
X00105
X00115
X00064999
X00054999
X00044999
X00034999
X00024999
X00009999Y0052
X00004999Y0051
X00014999
X00019999Y005
X00029999
X00039999
X00049999
X00059999
X00054999Y0049
X00044999
X00034999
X00024999
X00014999
X00004999
X00009999Y005
Y0048
X00019999
X00029999
X00039999
X00049999
X00059999
X00054999Y0047
X00044999
X00034999
X00024999
X00014999
X00004999
X00009999Y0046
X00019999
X00029999
X00039999
X00049999
X00059999
X00054999Y0045
X00044999
X00034999
X00024999
X00014999
X00004999
X00009999Y0044
X00019999
X00029999
X00039999
X00049999
X00044999Y0043
X00034999
X00024999
X00014999
X00004999
X00009999Y0042
X00019999
X00029999
X00024999Y0041
X00014999
X00004999
X00009999Y004
X00019999
X00059999Y0042
X00069999
X00064999Y0043
X00074999
X00079999Y0044
X00089999
X00099999
X00095Y0045
X00084999
X00089999Y0046
X00099999
X00095Y0047
X00084999
X00089999Y0048
X00099999
X00079999
X0007Y0049
X00079999Y0046
X00115Y0041
X0012Y004
X0013
X00109999
T02
X0003Y0003
X0005Y000225
X0007Y0003
X000775Y0005
X0007Y0007
X0005Y000775
X0003Y0007
X000225Y0005
X013225
X0133Y0003
X0135Y000225
X0137Y0003
X013775Y0005
X0137Y0007
X0135Y000775
X0133Y0007
Y0053
X0135Y005225
X0137Y0053
X013775Y0055
X0137Y0057
X0135Y005775
X0133Y0057
X013225Y0055
X0081
X008025Y0057
Y0053
X007825Y005225
X007625Y0053
X00755Y0055
X007625Y0057
X007825Y005775
X0003Y005425
Y005175
T03
X001092Y000346
X001346
Y000854
X001092
X002108
X002392
X002646
Y000346
X002392
X002108
X003408
Y000854
X0052Y0034
X005708
Y003908
X005454
X004454Y0041
X0042
X003946
T04
X0112Y0036
X011454
X011708
T05
X0124Y0031
Y0034
Y0037
Y004
Y0043
Y0046
Y0049
Y0052
X0051Y0056
X0048
X0036
X0033
T06
X0028735Y00114581
X0031275
X0031Y002473
Y002727
X0026
Y002473
X00644079Y00324079
X00662039Y00342039
X0068Y0036
X00697961Y00377961
X00715921Y00395921
X0101Y005173
Y005427
T07
X001032Y001585
X001332
Y001885
Y002185
X001032
Y001885
Y002485
X001332
X00095Y003276
Y003576
Y003876
X01225Y00245
Y0022
X0125
Y00245
Y00195
Y0017
X01225
Y00195
Y00145
Y0012
Y00095
X0125
Y0012
Y00145
Y0007
X01225
X011Y0051
Y0054
X0107
Y0051
X0104Y005494
X0113
X009675Y005266
X009425
X009175
X008925
X00095Y004176
T08
X01211195Y001575
T09
X0093Y0054
T10
X005414Y000384
Y0014
Y002416
X009986Y002162
Y001146
Y000638
X01259Y002815
X01259Y005515
X005415Y00541
X004505Y00541
X003915Y00541
X003005Y00541
T11
X0006Y0018
Y00227
T12
X0005Y0035
Y003961
T13
X0005Y0005
X0135
Y0055
X007825
M30
