M48
;Layer_Color=9474304
;FILE_FORMAT=4:4
METRIC,LZ
;TYPE=PLATED
T01F00S00C0.2000
T02F00S00C0.5000
T03F00S00C1.0200
T04F00S00C1.1000
;TYPE=NON_PLATED
T05F00S00C3.2000
%
T01
X00113776Y00103604
X0013924Y0010354
X0016425
X001875
X0021025Y001035
X002383Y0010354
X00258Y001125
X0028656Y0010354
X00293Y001345
X0028775Y0016475
X002885Y001915
X00294Y00195
X00285898Y00208898
X00269Y00213
X002545Y0020725
X00247612Y00206013
X00224Y00202
X00232809Y002205
X00259Y002295
X002605Y0016425
X00223Y001535
X00216Y001265
X002405Y001335
X00179459Y001505
X00189Y001795
X00163Y002145
X00139Y001975
X00144Y00246
X00153Y00247
X00181Y00238
X00098Y00251
Y0026
X0006545Y00234452
X003315Y0021
X00324338Y0018539
X00317Y0018
X00357Y00203
X00372Y00252
X0035Y00265
X0035052Y0027686
X0035Y00295
X0038354Y00298
X0028956Y003048
X00373757Y00142857
X00379803Y0014285
X00373977Y00130196
X00364226Y00079226
X00395Y00076
X004Y00107
X00409Y00136
X004325Y001365
X00438Y00113
X004615Y00115616
X0046364Y0012691
X00459Y0014
X00462Y00152
X00459Y00164523
X00469Y00176
X00458757Y00191496
X004656Y001985
X00459Y00215
X00462Y00227
X00459Y00241
X00461Y00251
X0046Y00265087
X00463Y00275
X0046Y00291
X00462Y003003
X00458964Y00316402
X00463Y003265
X00461Y00336918
X00462Y00350918
X00459Y00369
X00398112Y00286112
Y00276112
Y00266112
Y00256112
Y00246112
Y00236112
Y00226112
Y00216112
Y00206112
Y00196112
Y00186112
X0043Y000745
X0048Y0007
X00478Y00044
X0046Y00046
X00463Y0010127
X0059Y00081
X0065532Y0015494
X00639058Y00349992
X006731Y0037
X00701088Y00348462
X00762Y0026162
X0076708Y0004826
X00887Y00067
X0092456Y0005842
Y000254
X00891Y00117
X00864Y00093
X00847Y00178
X0089662Y0017272
X0092964Y0015748
X0093218Y0023368
Y0024384
X00939Y00296
X00957Y00319
X01007Y0033
Y00305
Y0028
Y00254
Y00229
Y00203
Y00178
Y00153
Y00127
Y0010427
X010493Y00076216
X010495Y0005
X0107627Y00063341
X010668Y0011684
Y0016256
Y0018796
X0106426Y002159
X010668Y0024384
X01122Y00255
X01123Y00281
X01124Y00307
X01123Y0033
X01121Y00357
X01124Y00373
X01064Y00344
X01046Y00391
X01007Y00381
Y00356
X0096774Y0037592
X00932Y00356
X00891446Y0027081
X0082296Y0025146
X0079502Y0037
X01122Y00226
X01121Y00204
X01123Y00182
X01124Y00156
X01121Y00126
Y00101
X01296Y00074
X0128524Y004318
X0092964Y0047244
X009Y0045
X0083Y0046
X0066548Y004318
X00572Y0044
X00471Y00406
X002295Y00489
X001385Y00489
X001095Y00489
X000185Y00489
T02
X0071882Y0035306
X0074422
T03
X0005Y0047
X0008
X0017
X002
T04
X001016Y000554
X00127
X001524
X001778
X002032
X002286
X00254
X002794
X01372Y000952
Y001206
Y00146
Y001714
Y001968
Y002222
Y002476
Y00273
Y002984
Y003238
Y003492
Y003746
Y004
T05
X000254Y000254
X013716
X0137414Y0047498
X00316Y00476
M30
