M48
;Layer_Color=9474304
;FILE_FORMAT=4:4
METRIC,LZ
;TYPE=PLATED
T01F00S00C0.3000
T02F00S00C0.5000
T03F00S00C0.8000
T04F00S00C1.0000
T05F00S00C1.0200
T06F00S00C1.1000
T07F00S00C1.1500
T08F00S00C1.2000
T09F00S00C1.2000
T10F00S00C1.2700
T11F00S00C1.3000
T12F00S00C1.3000
T13F00S00C1.4000
T14F00S00C1.4750
T15F00S00C1.5000
T16F00S00C1.9800
T17F00S00C4.2000
T18F00S00C5.1000
;TYPE=NON_PLATED
T19F00S00C1.0200
T21F00S00C4.2000
T22F00S00C7.0000
%
T01
X0034975Y0005725
X003955Y000495
X004555Y0004925
X0045825Y0006775
X0048875Y0002025
X00841648Y00055148
X0089825Y00037
X00953Y000245
X00947Y000635
X011475Y0014975
X011475Y0024075
X01233266Y0024925
X01233266Y0015825
X0145975Y00198
X0148925Y00179
X0155075Y00198
X0153525Y0006725
X0156725
X01509Y00058
X01535Y0002175
X0144475Y000535
X017015Y000425
X0170525Y000325
X017315Y00051
X01732Y00302
X019505Y00306
X019965Y0031425
X02086Y0036375
X021035Y0026975
X02095Y001875
X02075Y00195
X02055Y001875
X020475Y001675
X02055Y001475
X02075Y0014
X02095Y001475
X021025Y001675
X02092595Y0007525
X02260198Y00090949
X0226375Y0005825
X02343056Y00065136
X02342784Y0009575
X023635Y00148
X02374143Y00189643
X02295574Y0018979
X02301438Y00182962
X02307017Y0014652
X022255Y00147
X0222453Y00188324
X02235Y0018275
X02237563Y00221143
X0225025Y0024025
X022495Y002525
X02253762Y00289
X02269262Y0031675
X02262762Y00330374
X02248Y0035575
X023175Y003435
X0246525Y0034775
X024945Y00345
X02528638Y00390042
X02561Y00368
X0262825Y0035675
X026069Y00294
X0267275Y0027275
X02691642Y00274795
X0269755Y00265038
X027025Y0021525
X0270425Y0019125
X0272403Y00223447
X0277Y002635
X02759Y0028375
X02756Y00314
X02628563Y00226356
X0262797Y002025
X02522189Y00241081
X024815Y002405
X0247175Y0018475
X02383357Y00182357
X02423546Y00090834
X02423059Y00068878
X02518389Y0006582
X029255Y000605
X029345
X0294075Y0008575
X03026932Y0006008
X03069538Y00055532
X030575Y000905
X030145Y001485
X03Y0016
X0295875Y0018
X02959282Y0019257
X02953165Y00215447
X02958391Y00282884
X02959124Y00317789
X029565Y00334
X0306525Y00346
X0317Y0034
X0316475Y003615
X031495Y0006
X0321Y0005
X0323Y0008
X0331Y0015
X03355Y001475
X03375Y0014
X03395Y001475
X034025Y001675
X03395Y001875
X03375Y00195
X03355Y001875
X033475Y001675
X03323356Y0020924
X0332575Y002715
X0329575Y0030775
X0319Y0041
X0320175Y0042225
X03196868Y00447593
X03220815Y00446233
X032165Y004605
X03212819Y0050336
X0319675Y0049125
X0314259Y00485519
X0312525Y004585
X03130793Y00446675
X03161425Y00448
X03163904Y0041464
X0309Y0045
X030865Y0047475
X0303725Y004755
X03Y0048
X0302Y0051
X03025652Y00530408
X0303Y0055
X0305Y0054
X0307371Y00528341
X03067036Y00509804
X031Y0052
Y0055
X03148431Y00550168
X0303Y0058
X0304Y0042
X028275Y006475
X028075Y0064
X027875Y006475
X0278Y006675
X027875Y006875
X028075Y00695
X028275Y006875
X02835Y006675
X02700055Y0066587
X02604871Y00599307
X02598Y00545
X0265Y0055
X02522Y00547
X0251125Y005455
X0250075Y005425
X0249475Y004945
X02512Y004035
X02575375Y00455375
X026345Y0040275
X0276625Y00422
X024Y0042
X0249Y007
X0233Y0072
X0229Y0067
X0227
X0231Y0064
X0174Y007
X015939Y00482
X015839Y00457
X015589Y00447
X015339Y00457
X015239Y00482
X015339Y00507
X015589Y00517
X015839Y00507
X014061
X014161Y00482
X014061Y00457
X013811Y00447
X013561Y00457
X013461Y00482
X013561Y00507
X013811Y00517
X00895Y00507
X0087Y00517
X00845Y00507
X00835Y00482
X00845Y00457
X0087Y00447
X00895Y00457
X00905Y00482
X007272
X007172Y00507
X006922Y00517
X006672Y00507
X006572Y00482
X006672Y00457
X006922Y00447
X007172Y00457
X004054Y00482
X003954Y00457
X003704Y00447
X003454Y00457
X003354Y00482
X003454Y00507
X003704Y00517
X003954Y00507
X002176
X001926Y00517
X001676Y00507
X001576Y00482
X001676Y00457
X001926Y00447
X002176Y00457
X002276Y00482
T02
X0281941Y0004302
X0281191Y0006302
X0281941Y0008302
X0283941Y0009052
X0285941Y0008302
X0286691Y0006302
X0285941Y0004302
X0283941Y0003552
X0341941Y0004302
X0343941Y0003552
X0345941Y0004302
X0346691Y0006302
X0345941Y0008302
X0343941Y0009052
X0341941Y0008302
X0341191Y0006302
X0341941Y0049302
X0343941Y0048552
X0345941Y0049302
X0346691Y0051302
X0345941Y0053302
X0343941Y0054052
X0341941Y0053302
X0341191Y0051302
X0286691
X0285941Y0053302
X0283941Y0054052
X0281941Y0053302
X0281191Y0051302
X0281941Y0049302
X0283941Y0048552
X0285941Y0049302
T03
X022292Y004246
Y004754
Y005146
X022546
Y005654
X022292
X023308
Y005146
Y004754
X023054
Y004246
X023308
X0194Y0072
X019146
X018892
T04
X023837Y005675
X024091
X024345
X022382Y0068375
X022128
X021366
X020858
T05
X011665Y0018125
Y0021125
X01252266Y0021775
Y0018775
X0148925Y00179
X0151925
X0174Y0045
Y0051
Y0054
T06
X0240125Y004895
X0242665
T07
X0167Y0015
Y0036
X0199Y00405
X02055
X0212
Y00615
X02055
X0199
X01925
X0186
Y00405
X01925
T08
X00537Y000326
X00562
X018925Y001894
X019175
X032135Y007229
X032385
T09
X000725Y000366
X000975
X001225
X001475
X0069525Y0003585
X0072025
X0074525
X0077025
X0128775Y0004385
X0131275
X0133775
X0136275
X028795Y007204
X029045
X029295
X029545
X02729Y0069285
X02704
X02679
X02654
X0257675Y006825
X0255175
Y007075
X0257675
Y006575
Y006325
Y006075
Y005825
Y005575
X0255175
Y005325
X0257675
X0255175Y005825
Y006075
Y006325
Y006575
T10
X01719Y00421
Y00572
T11
X005495Y000455
X01905Y001765
X03226Y0071
T12
X02590555Y0062
T13
X0011Y0005
X0073275Y0004925
X0132525Y0005725
X02917Y00707
X026915Y0070625
T14
X001092Y001892
X001346
Y002146
Y0024
X0016
Y002146
Y001892
X001854
Y002146
Y0024
Y002654
X0016
X001346
X001092
Y0024
Y002146
X003719Y002173
Y002427
Y002681
Y001919
X003973
Y002173
X004227
Y002427
X003973
Y002681
X004227
X004481
Y002427
Y002173
Y001919
X004227
X006019
X006273
Y002173
Y002427
X006527
Y002173
Y001919
X006781
Y002173
Y002427
Y002681
X006527
X006273
X006019
Y002427
Y002173
X008719
X008973
X009227
Y002427
X008973
Y002681
X009227
X009481
Y002427
Y002173
Y001919
X009227
X008973
X008719
Y002427
Y002681
T15
X0131325Y0017575
X0142325
T16
X01155Y0030875
Y0038475
Y0054875
Y0062475
T17
X02076Y001673
X0283941Y0006302
X0343941
X03375Y001675
X0343941Y0051302
X0283941
X028075Y006675
T18
X013811Y00482
X015589
X0087
X006922
X003704
X001926
T19
X0174Y0048
T21
X0004Y0031
T22
X002815Y00352
X007811
X0147
M30
