G04*
G04 #@! TF.GenerationSoftware,Altium Limited,Altium Designer,22.11.1 (43)*
G04*
G04 Layer_Color=16711935*
%FSLAX44Y44*%
%MOMM*%
G71*
G04*
G04 #@! TF.SameCoordinates,40BEB5AC-76E0-452C-8C7D-FB3B7E73879D*
G04*
G04*
G04 #@! TF.FilePolarity,Positive*
G04*
G01*
G75*
%ADD10C,0.0127*%
D10*
X850063Y1167393D02*
G03*
X850063Y1167393I-92500J0D01*
G01*
X655063D02*
G03*
X655063Y1167393I-92500J0D01*
G01*
X460064D02*
G03*
X460064Y1167393I-92500J0D01*
G01*
X1045063D02*
G03*
X1045063Y1167393I-92500J0D01*
G01*
X1240063D02*
G03*
X1240063Y1167393I-92500J0D01*
G01*
X1435063D02*
G03*
X1435063Y1167393I-92500J0D01*
G01*
X1630063D02*
G03*
X1630063Y1167393I-92500J0D01*
G01*
X1825063D02*
G03*
X1825063Y1167393I-92500J0D01*
G01*
X2020063D02*
G03*
X2020063Y1167393I-92500J0D01*
G01*
X2215063D02*
G03*
X2215063Y1167393I-92500J0D01*
G01*
X2410063D02*
G03*
X2410063Y1167393I-92500J0D01*
G01*
X2605063D02*
G03*
X2605063Y1167393I-92500J0D01*
G01*
X2800063D02*
G03*
X2800063Y1167393I-92500J0D01*
G01*
X2995063D02*
G03*
X2995063Y1167393I-92500J0D01*
G01*
X3190063D02*
G03*
X3190063Y1167393I-92500J0D01*
G01*
X3385063D02*
G03*
X3385063Y1167393I-92500J0D01*
G01*
X3580063D02*
G03*
X3580063Y1167393I-92500J0D01*
G01*
X3775063D02*
G03*
X3775063Y1167393I-92500J0D01*
G01*
X3970063D02*
G03*
X3970063Y1167393I-92500J0D01*
G01*
X4165063D02*
G03*
X4165063Y1167393I-92500J0D01*
G01*
X4360063D02*
G03*
X4360063Y1167393I-92500J0D01*
G01*
X4555063D02*
G03*
X4555063Y1167393I-92500J0D01*
G01*
X4750063D02*
G03*
X4750063Y1167393I-92500J0D01*
G01*
X4945063D02*
G03*
X4945063Y1167393I-92500J0D01*
G01*
X5140063D02*
G03*
X5140063Y1167393I-92500J0D01*
G01*
X5335063D02*
G03*
X5335063Y1167393I-92500J0D01*
G01*
X5530063D02*
G03*
X5530063Y1167393I-92500J0D01*
G01*
X5725063D02*
G03*
X5725063Y1167393I-92500J0D01*
G01*
X460064Y922393D02*
G03*
X460064Y922393I-92500J0D01*
G01*
X655063D02*
G03*
X655063Y922393I-92500J0D01*
G01*
X850063D02*
G03*
X850063Y922393I-92500J0D01*
G01*
X1045063D02*
G03*
X1045063Y922393I-92500J0D01*
G01*
X1240063D02*
G03*
X1240063Y922393I-92500J0D01*
G01*
X1435063D02*
G03*
X1435063Y922393I-92500J0D01*
G01*
X1630063D02*
G03*
X1630063Y922393I-92500J0D01*
G01*
X1825063D02*
G03*
X1825063Y922393I-92500J0D01*
G01*
X2020063D02*
G03*
X2020063Y922393I-92500J0D01*
G01*
X2215063D02*
G03*
X2215063Y922393I-92500J0D01*
G01*
X2410063D02*
G03*
X2410063Y922393I-92500J0D01*
G01*
X2605063D02*
G03*
X2605063Y922393I-92500J0D01*
G01*
X2800063D02*
G03*
X2800063Y922393I-92500J0D01*
G01*
X2995063D02*
G03*
X2995063Y922393I-92500J0D01*
G01*
X3190063D02*
G03*
X3190063Y922393I-92500J0D01*
G01*
X3385063D02*
G03*
X3385063Y922393I-92500J0D01*
G01*
X3580063D02*
G03*
X3580063Y922393I-92500J0D01*
G01*
X3775063D02*
G03*
X3775063Y922393I-92500J0D01*
G01*
X3970063D02*
G03*
X3970063Y922393I-92500J0D01*
G01*
X4165063D02*
G03*
X4165063Y922393I-92500J0D01*
G01*
X4360063D02*
G03*
X4360063Y922393I-92500J0D01*
G01*
X4555063D02*
G03*
X4555063Y922393I-92500J0D01*
G01*
X4750063D02*
G03*
X4750063Y922393I-92500J0D01*
G01*
X4945063D02*
G03*
X4945063Y922393I-92500J0D01*
G01*
X5140063D02*
G03*
X5140063Y922393I-92500J0D01*
G01*
X5335063D02*
G03*
X5335063Y922393I-92500J0D01*
G01*
X5530063D02*
G03*
X5530063Y922393I-92500J0D01*
G01*
X5725063D02*
G03*
X5725063Y922393I-92500J0D01*
G01*
X460064Y677393D02*
G03*
X460064Y677393I-92500J0D01*
G01*
X655063D02*
G03*
X655063Y677393I-92500J0D01*
G01*
X850063D02*
G03*
X850063Y677393I-92500J0D01*
G01*
X1045063D02*
G03*
X1045063Y677393I-92500J0D01*
G01*
X1240063D02*
G03*
X1240063Y677393I-92500J0D01*
G01*
X1435063D02*
G03*
X1435063Y677393I-92500J0D01*
G01*
X1630063D02*
G03*
X1630063Y677393I-92500J0D01*
G01*
X1825063D02*
G03*
X1825063Y677393I-92500J0D01*
G01*
X2020063D02*
G03*
X2020063Y677393I-92500J0D01*
G01*
X2215063D02*
G03*
X2215063Y677393I-92500J0D01*
G01*
X2410063D02*
G03*
X2410063Y677393I-92500J0D01*
G01*
X2605063D02*
G03*
X2605063Y677393I-92500J0D01*
G01*
X2800063D02*
G03*
X2800063Y677393I-92500J0D01*
G01*
X2995063D02*
G03*
X2995063Y677393I-92500J0D01*
G01*
X3190063D02*
G03*
X3190063Y677393I-92500J0D01*
G01*
X3385063D02*
G03*
X3385063Y677393I-92500J0D01*
G01*
X3580063D02*
G03*
X3580063Y677393I-92500J0D01*
G01*
X3775063D02*
G03*
X3775063Y677393I-92500J0D01*
G01*
X3970063D02*
G03*
X3970063Y677393I-92500J0D01*
G01*
X4165063D02*
G03*
X4165063Y677393I-92500J0D01*
G01*
X4360063D02*
G03*
X4360063Y677393I-92500J0D01*
G01*
X4555063D02*
G03*
X4555063Y677393I-92500J0D01*
G01*
X4750063D02*
G03*
X4750063Y677393I-92500J0D01*
G01*
X4945063D02*
G03*
X4945063Y677393I-92500J0D01*
G01*
X5140063D02*
G03*
X5140063Y677393I-92500J0D01*
G01*
X5335063D02*
G03*
X5335063Y677393I-92500J0D01*
G01*
X5530063D02*
G03*
X5530063Y677393I-92500J0D01*
G01*
X5725063D02*
G03*
X5725063Y677393I-92500J0D01*
G01*
X460064Y432393D02*
G03*
X460064Y432393I-92500J0D01*
G01*
X655063D02*
G03*
X655063Y432393I-92500J0D01*
G01*
X850063D02*
G03*
X850063Y432393I-92500J0D01*
G01*
X1045063D02*
G03*
X1045063Y432393I-92500J0D01*
G01*
X1240063D02*
G03*
X1240063Y432393I-92500J0D01*
G01*
X1435063D02*
G03*
X1435063Y432393I-92500J0D01*
G01*
X1630063D02*
G03*
X1630063Y432393I-92500J0D01*
G01*
X1825063D02*
G03*
X1825063Y432393I-92500J0D01*
G01*
X2020063D02*
G03*
X2020063Y432393I-92500J0D01*
G01*
X2215063D02*
G03*
X2215063Y432393I-92500J0D01*
G01*
X2410063D02*
G03*
X2410063Y432393I-92500J0D01*
G01*
X2605063D02*
G03*
X2605063Y432393I-92500J0D01*
G01*
X2800063D02*
G03*
X2800063Y432393I-92500J0D01*
G01*
X2995063D02*
G03*
X2995063Y432393I-92500J0D01*
G01*
X3190063D02*
G03*
X3190063Y432393I-92500J0D01*
G01*
X3385063D02*
G03*
X3385063Y432393I-92500J0D01*
G01*
X3580063D02*
G03*
X3580063Y432393I-92500J0D01*
G01*
X3775063D02*
G03*
X3775063Y432393I-92500J0D01*
G01*
X3970063D02*
G03*
X3970063Y432393I-92500J0D01*
G01*
X4165063D02*
G03*
X4165063Y432393I-92500J0D01*
G01*
X4360063D02*
G03*
X4360063Y432393I-92500J0D01*
G01*
X4555063D02*
G03*
X4555063Y432393I-92500J0D01*
G01*
X4750063D02*
G03*
X4750063Y432393I-92500J0D01*
G01*
X4945063D02*
G03*
X4945063Y432393I-92500J0D01*
G01*
X5140063D02*
G03*
X5140063Y432393I-92500J0D01*
G01*
X5335063D02*
G03*
X5335063Y432393I-92500J0D01*
G01*
X5530063D02*
G03*
X5530063Y432393I-92500J0D01*
G01*
X5725063D02*
G03*
X5725063Y432393I-92500J0D01*
G01*
X460064Y187393D02*
G03*
X460064Y187393I-92500J0D01*
G01*
X655063D02*
G03*
X655063Y187393I-92500J0D01*
G01*
X850063D02*
G03*
X850063Y187393I-92500J0D01*
G01*
X1045063D02*
G03*
X1045063Y187393I-92500J0D01*
G01*
X1240063D02*
G03*
X1240063Y187393I-92500J0D01*
G01*
X1435063D02*
G03*
X1435063Y187393I-92500J0D01*
G01*
X1630063D02*
G03*
X1630063Y187393I-92500J0D01*
G01*
X1825063D02*
G03*
X1825063Y187393I-92500J0D01*
G01*
X2020063D02*
G03*
X2020063Y187393I-92500J0D01*
G01*
X2215063D02*
G03*
X2215063Y187393I-92500J0D01*
G01*
X2410063D02*
G03*
X2410063Y187393I-92500J0D01*
G01*
X2605063D02*
G03*
X2605063Y187393I-92500J0D01*
G01*
X2800063D02*
G03*
X2800063Y187393I-92500J0D01*
G01*
X2995063D02*
G03*
X2995063Y187393I-92500J0D01*
G01*
X3190063D02*
G03*
X3190063Y187393I-92500J0D01*
G01*
X3385063D02*
G03*
X3385063Y187393I-92500J0D01*
G01*
X3580063D02*
G03*
X3580063Y187393I-92500J0D01*
G01*
X3775063D02*
G03*
X3775063Y187393I-92500J0D01*
G01*
X3970063D02*
G03*
X3970063Y187393I-92500J0D01*
G01*
X4165063D02*
G03*
X4165063Y187393I-92500J0D01*
G01*
X4360063D02*
G03*
X4360063Y187393I-92500J0D01*
G01*
X4555063D02*
G03*
X4555063Y187393I-92500J0D01*
G01*
X4750063D02*
G03*
X4750063Y187393I-92500J0D01*
G01*
X4945063D02*
G03*
X4945063Y187393I-92500J0D01*
G01*
X5140063D02*
G03*
X5140063Y187393I-92500J0D01*
G01*
X5335063D02*
G03*
X5335063Y187393I-92500J0D01*
G01*
X5530063D02*
G03*
X5530063Y187393I-92500J0D01*
G01*
X5725063D02*
G03*
X5725063Y187393I-92500J0D01*
G01*
X190063Y189693D02*
G03*
X190063Y189693I-15000J0D01*
G01*
X5840063D02*
G03*
X5840063Y189693I-15000J0D01*
G01*
X190063Y434693D02*
G03*
X190063Y434693I-15000J0D01*
G01*
X5840063D02*
G03*
X5840063Y434693I-15000J0D01*
G01*
X190063Y679693D02*
G03*
X190063Y679693I-15000J0D01*
G01*
X5840063D02*
G03*
X5840063Y679693I-15000J0D01*
G01*
X190063Y924693D02*
G03*
X190063Y924693I-15000J0D01*
G01*
X5840063D02*
G03*
X5840063Y924693I-15000J0D01*
G01*
X190063Y1169693D02*
G03*
X190063Y1169693I-15000J0D01*
G01*
X5840063D02*
G03*
X5840063Y1169693I-15000J0D01*
G01*
X5765922Y1222751D02*
G03*
X5760063Y1208609I14142J-14142D01*
G01*
Y1125677D02*
G03*
X5765922Y1111535I20000J0D01*
G01*
Y733251D02*
G03*
X5760063Y719109I14142J-14142D01*
G01*
Y635677D02*
G03*
X5765922Y621535I20000J0D01*
G01*
X5760063Y145177D02*
G03*
X5765922Y131035I20000J0D01*
G01*
Y243251D02*
G03*
X5760063Y229109I14142J-14142D01*
G01*
X240063Y1208609D02*
G03*
X234206Y1222751I-20000J0D01*
G01*
Y1111535D02*
G03*
X240063Y1125677I-14142J14142D01*
G01*
Y964109D02*
G03*
X234206Y978251I-20000J0D01*
G01*
Y866535D02*
G03*
X240063Y880677I-14142J14142D01*
G01*
Y719109D02*
G03*
X234206Y733251I-20000J0D01*
G01*
Y621535D02*
G03*
X240063Y635677I-14142J14142D01*
G01*
Y474109D02*
G03*
X234206Y488251I-20000J0D01*
G01*
Y376535D02*
G03*
X240063Y390677I-14142J14142D01*
G01*
X234206Y131035D02*
G03*
X240063Y145177I-14142J14142D01*
G01*
Y229109D02*
G03*
X234206Y243251I-20000J0D01*
G01*
X5765922Y488251D02*
G03*
X5760063Y474109I14142J-14142D01*
G01*
Y390677D02*
G03*
X5765922Y376535I20000J0D01*
G01*
Y978251D02*
G03*
X5760063Y964109I14142J-14142D01*
G01*
Y880677D02*
G03*
X5765922Y866535I20000J0D01*
G01*
X50064Y1351393D02*
G03*
X63Y1301393I0J-50000D01*
G01*
X2675063Y1373893D02*
G03*
X2697563Y1351393I22500J0D01*
G01*
X3302563D02*
G03*
X3325063Y1373893I0J22500D01*
G01*
Y1756493D02*
G03*
X3302563Y1778993I-22500J0D01*
G01*
X2697563D02*
G03*
X2675063Y1756493I0J-22500D01*
G01*
X1975063Y1575187D02*
G03*
X1923632Y1606091I-35000J0D01*
G01*
X1568561Y1417296D02*
G03*
X1584993Y1351393I16431J-30903D01*
G01*
X1952563D02*
G03*
X1975063Y1373893I0J22500D01*
G01*
X4076495Y1606091D02*
G03*
X4025063Y1575187I-16431J-30903D01*
G01*
Y1373893D02*
G03*
X4047563Y1351393I22500J0D01*
G01*
X4415134D02*
G03*
X4431566Y1417296I0J35000D01*
G01*
X4025063Y1856493D02*
G03*
X4002563Y1878993I-22500J0D01*
G01*
X4025063Y1733747D02*
G03*
X4043632Y1702844I35000J0D01*
G01*
X4696910Y1355490D02*
G03*
X4713342Y1351393I16431J30903D01*
G01*
X6000063Y1301393D02*
G03*
X5950063Y1351393I-50000J0D01*
G01*
Y2393D02*
G03*
X6000063Y52393I0J50000D01*
G01*
X63D02*
G03*
X50064Y2393I50000J0D01*
G01*
X1286785Y1351393D02*
G03*
X1303217Y1355490I0J35000D01*
G01*
X1956495Y1702844D02*
G03*
X1975063Y1733747I-16431J30903D01*
G01*
X1997563Y1878993D02*
G03*
X1975063Y1856493I0J-22500D01*
G01*
X3425063Y1373893D02*
G03*
X3447563Y1351393I22500J0D01*
G01*
X3902563D02*
G03*
X3925063Y1373893I0J22500D01*
G01*
Y1756493D02*
G03*
X3902563Y1778993I-22500J0D01*
G01*
X3447563D02*
G03*
X3425063Y1756493I0J-22500D01*
G01*
X2075063Y1373893D02*
G03*
X2097563Y1351393I22500J0D01*
G01*
X2552563D02*
G03*
X2575063Y1373893I0J22500D01*
G01*
Y1756493D02*
G03*
X2552563Y1778993I-22500J0D01*
G01*
X2097563D02*
G03*
X2075063Y1756493I0J-22500D01*
G01*
X5765922Y1222751D02*
X5770063Y1226893D01*
X5760063Y1125677D02*
Y1208609D01*
X5765922Y1111535D02*
X5770063Y1107393D01*
Y1226893D01*
X5765922Y733251D02*
X5770063Y737393D01*
X5760063Y635677D02*
Y719109D01*
X5765922Y621535D02*
X5770063Y617393D01*
Y737393D01*
X5765922Y131035D02*
X5770063Y126893D01*
Y247393D01*
X5765922Y243251D02*
X5770063Y247393D01*
X5760063Y145177D02*
Y229109D01*
X230063Y1226893D02*
X234206Y1222751D01*
X230063Y1107393D02*
Y1226893D01*
Y1107393D02*
X234206Y1111535D01*
X240063Y1125677D02*
Y1208609D01*
X230063Y982393D02*
X234206Y978251D01*
X230063Y862393D02*
Y982393D01*
Y862393D02*
X234206Y866535D01*
X240063Y880677D02*
Y964109D01*
X230063Y737393D02*
X234206Y733251D01*
X230063Y617393D02*
Y737393D01*
Y617393D02*
X234206Y621535D01*
X240063Y635677D02*
Y719109D01*
X230063Y492393D02*
X234206Y488251D01*
X230063Y372393D02*
Y492393D01*
Y372393D02*
X234206Y376535D01*
X240063Y390677D02*
Y474109D01*
X230063Y126893D02*
Y247393D01*
Y126893D02*
X234206Y131035D01*
X240063Y145177D02*
Y229109D01*
X230063Y247393D02*
X234206Y243251D01*
X4330063Y1296393D02*
X4930063D01*
Y1311393D01*
X4330063D02*
X4930063D01*
X4330063Y1296393D02*
Y1311393D01*
Y42393D02*
X4930063D01*
Y57393D01*
X4330063D02*
X4930063D01*
X4330063Y42393D02*
Y57393D01*
X2700063Y1296393D02*
X3300063D01*
Y1311393D01*
X2700063D02*
X3300063D01*
X2700063Y1296393D02*
Y1311393D01*
Y42393D02*
X3300063D01*
Y57393D01*
X2700063D02*
X3300063D01*
X2700063Y42393D02*
Y57393D01*
X5935063Y976893D02*
X5950063D01*
X5935063Y376893D02*
Y976893D01*
Y376893D02*
X5950063D01*
Y976893D01*
X65064Y376893D02*
Y976893D01*
X50064D02*
X65064D01*
X50064Y376893D02*
Y976893D01*
Y376893D02*
X65064D01*
X1670063Y42393D02*
Y57393D01*
X1070063D02*
X1670063D01*
X1070063Y42393D02*
Y57393D01*
Y42393D02*
X1670063D01*
Y1296393D02*
Y1311393D01*
X1070063D02*
X1670063D01*
X1070063Y1296393D02*
Y1311393D01*
Y1296393D02*
X1670063D01*
X5765922Y488251D02*
X5770063Y492393D01*
X5760063Y390677D02*
Y474109D01*
X5765922Y376535D02*
X5770063Y372393D01*
Y492393D01*
X5765922Y978251D02*
X5770063Y982393D01*
X5760063Y880677D02*
Y964109D01*
X5765922Y866535D02*
X5770063Y862393D01*
Y982393D01*
X50064Y1351393D02*
X1286785D01*
X63Y52393D02*
Y1301393D01*
X2697563Y1351393D02*
X3302563D01*
X3325063Y1373893D02*
Y1756493D01*
X2697563Y1778993D02*
X3302563D01*
X2675063Y1373893D02*
Y1756493D01*
X1568561Y1417296D02*
X1923632Y1606091D01*
X1584993Y1351393D02*
X1952563D01*
X1975063Y1373893D02*
Y1575187D01*
X4025063Y1373893D02*
Y1575187D01*
X4047563Y1351393D02*
X4415134D01*
X4076495Y1606091D02*
X4431566Y1417296D01*
X4025063Y1733747D02*
Y1856493D01*
X4043632Y1702844D02*
X4696910Y1355490D01*
X4713342Y1351393D02*
X5950063D01*
X6000063Y52393D02*
Y1301393D01*
X50064Y2393D02*
X5950063D01*
X1303217Y1355490D02*
X1956495Y1702844D01*
X1975063Y1733747D02*
Y1856493D01*
X1997563Y1878993D02*
X4002563D01*
X3447563Y1351393D02*
X3902563D01*
X3925063Y1373893D02*
Y1756493D01*
X3447563Y1778993D02*
X3902563D01*
X3425063Y1373893D02*
Y1756493D01*
X2097563Y1351393D02*
X2552563D01*
X2575063Y1373893D02*
Y1756493D01*
X2097563Y1778993D02*
X2552563D01*
X2075063Y1373893D02*
Y1756493D01*
M02*
