G04*
G04 #@! TF.GenerationSoftware,Altium Limited,Altium Designer,18.1.9 (240)*
G04*
G04 Layer_Physical_Order=2*
G04 Layer_Color=16711680*
%FSLAX44Y44*%
%MOMM*%
G71*
G01*
G75*
%ADD39C,0.9000*%
%ADD41C,1.9000*%
%ADD42C,2.5000*%
%ADD43R,1.3000X1.3000*%
%ADD44C,1.3000*%
%ADD45C,6.0000*%
%ADD46C,1.7500*%
%ADD47R,1.4000X1.4000*%
%ADD48C,1.4000*%
%ADD49C,1.5240*%
%ADD50R,2.2500X2.2500*%
%ADD51C,2.2500*%
%ADD52C,1.3200*%
%ADD53C,1.2700*%
G36*
X623104Y719100D02*
X622155Y719084D01*
X620455Y718954D01*
X619705Y718840D01*
X619021Y718694D01*
X618404Y718515D01*
X617853Y718304D01*
X617369Y718060D01*
X616950Y717784D01*
X616599Y717475D01*
Y729725D01*
X616950Y729416D01*
X617369Y729140D01*
X617853Y728896D01*
X618404Y728685D01*
X619021Y728506D01*
X619705Y728360D01*
X620455Y728246D01*
X622155Y728116D01*
X623104Y728100D01*
Y719100D01*
D02*
G37*
G36*
X549978Y900557D02*
X549970Y901413D01*
X549770Y904108D01*
X549678Y904599D01*
X549570Y905018D01*
X549445Y905363D01*
X549303Y905636D01*
X549144Y905836D01*
X559812D01*
X559654Y905636D01*
X559512Y905363D01*
X559387Y905018D01*
X559279Y904599D01*
X559187Y904108D01*
X559053Y902906D01*
X558987Y901413D01*
X558978Y900557D01*
X549978D01*
D02*
G37*
G36*
X913320Y728100D02*
X914477Y728112D01*
X918543Y728402D01*
X919419Y728535D01*
X921003Y728874D01*
X921711Y729079D01*
X922363Y729309D01*
X915811Y715105D01*
X915486Y715864D01*
X915069Y716543D01*
X914560Y717142D01*
X913960Y717662D01*
X913268Y718101D01*
X912484Y718461D01*
X911609Y718740D01*
X910642Y718940D01*
X909584Y719060D01*
X908434Y719100D01*
X913320Y728100D01*
D02*
G37*
G36*
X1592500Y401604D02*
X1592250Y401500D01*
X1072500D01*
Y1066750D01*
X1592500D01*
Y401604D01*
D02*
G37*
%LPC*%
G36*
X1127500Y1048074D02*
X1125255Y1047779D01*
X1123163Y1046912D01*
X1121366Y1045534D01*
X1119988Y1043737D01*
X1119121Y1041645D01*
X1118826Y1039400D01*
X1118988Y1038170D01*
X1118347Y1037542D01*
X1117831Y1037226D01*
X1115000Y1037599D01*
X1111998Y1037204D01*
X1109200Y1036045D01*
X1106798Y1034202D01*
X1104955Y1031800D01*
X1103796Y1029002D01*
X1103401Y1026000D01*
X1103796Y1022998D01*
X1104955Y1020200D01*
X1106798Y1017798D01*
X1109200Y1015955D01*
X1111998Y1014796D01*
X1115000Y1014401D01*
X1118002Y1014796D01*
X1120800Y1015955D01*
X1123202Y1017798D01*
X1125045Y1020200D01*
X1126204Y1022998D01*
X1126599Y1026000D01*
X1126204Y1029002D01*
X1125860Y1029832D01*
X1126633Y1030840D01*
X1127500Y1030726D01*
X1129745Y1031021D01*
X1131837Y1031888D01*
X1133634Y1033266D01*
X1135012Y1035063D01*
X1135879Y1037155D01*
X1136174Y1039400D01*
X1135879Y1041645D01*
X1135012Y1043737D01*
X1133634Y1045534D01*
X1131837Y1046912D01*
X1129745Y1047779D01*
X1127500Y1048074D01*
D02*
G37*
G36*
X1307500Y1012500D02*
X1290500D01*
Y995500D01*
X1307500D01*
Y1012500D01*
D02*
G37*
G36*
X1140000Y1012599D02*
X1136998Y1012204D01*
X1134200Y1011045D01*
X1131798Y1009202D01*
X1129955Y1006800D01*
X1128796Y1004002D01*
X1128401Y1001000D01*
X1128796Y997998D01*
X1129955Y995200D01*
X1131798Y992798D01*
X1134200Y990955D01*
X1136998Y989796D01*
X1140000Y989401D01*
X1143002Y989796D01*
X1145800Y990955D01*
X1148202Y992798D01*
X1150045Y995200D01*
X1151204Y997998D01*
X1151599Y1001000D01*
X1151204Y1004002D01*
X1150045Y1006800D01*
X1148202Y1009202D01*
X1145800Y1011045D01*
X1143002Y1012204D01*
X1140000Y1012599D01*
D02*
G37*
G36*
X1115000D02*
X1111998Y1012204D01*
X1109200Y1011045D01*
X1106798Y1009202D01*
X1104955Y1006800D01*
X1103796Y1004002D01*
X1103401Y1001000D01*
X1103796Y997998D01*
X1104955Y995200D01*
X1106798Y992798D01*
X1109200Y990955D01*
X1111998Y989796D01*
X1115000Y989401D01*
X1118002Y989796D01*
X1120800Y990955D01*
X1123202Y992798D01*
X1125045Y995200D01*
X1126204Y997998D01*
X1126599Y1001000D01*
X1126204Y1004002D01*
X1125045Y1006800D01*
X1123202Y1009202D01*
X1120800Y1011045D01*
X1118002Y1012204D01*
X1115000Y1012599D01*
D02*
G37*
G36*
X1244000Y1008375D02*
X1240215Y1007877D01*
X1236687Y1006416D01*
X1233659Y1004091D01*
X1231334Y1001063D01*
X1229873Y997535D01*
X1229375Y993750D01*
X1229873Y989965D01*
X1231334Y986437D01*
X1233659Y983409D01*
X1236687Y981084D01*
X1240215Y979623D01*
X1244000Y979125D01*
X1247785Y979623D01*
X1251313Y981084D01*
X1254342Y983409D01*
X1256666Y986437D01*
X1258127Y989965D01*
X1258625Y993750D01*
X1258127Y997535D01*
X1256666Y1001063D01*
X1254342Y1004091D01*
X1251313Y1006416D01*
X1247785Y1007877D01*
X1244000Y1008375D01*
D02*
G37*
G36*
X1546430Y617184D02*
X1542971Y616729D01*
X1539748Y615394D01*
X1536980Y613270D01*
X1534856Y610502D01*
X1533521Y607279D01*
X1533066Y603820D01*
X1533521Y600361D01*
X1534856Y597138D01*
X1536980Y594370D01*
X1539748Y592246D01*
X1542971Y590911D01*
X1546430Y590456D01*
X1549889Y590911D01*
X1553112Y592246D01*
X1555880Y594370D01*
X1558004Y597138D01*
X1559339Y600361D01*
X1559794Y603820D01*
X1559339Y607279D01*
X1558004Y610502D01*
X1555880Y613270D01*
X1553112Y615394D01*
X1549889Y616729D01*
X1546430Y617184D01*
D02*
G37*
%LPD*%
D39*
X610350Y723600D02*
X921650D01*
X926430Y718820D01*
X598000Y723600D02*
X610350D01*
X554478Y767122D02*
X598000Y723600D01*
X554478Y767122D02*
Y911278D01*
D41*
X1115000Y1001000D02*
D03*
X1140000D02*
D03*
X1115000Y1026000D02*
D03*
X1140000D02*
D03*
D42*
X1244000Y1046750D02*
D03*
Y993750D02*
D03*
D43*
X1299000Y1004000D02*
D03*
D44*
Y1029000D02*
D03*
X590000Y633600D02*
D03*
Y753600D02*
D03*
D45*
X1554480Y436880D02*
D03*
Y1031240D02*
D03*
X556260D02*
D03*
Y436880D02*
D03*
D46*
X609600Y693600D02*
D03*
Y663600D02*
D03*
X610350Y723600D02*
D03*
D47*
X800100Y463740D02*
D03*
Y622960D02*
D03*
Y945280D02*
D03*
Y784860D02*
D03*
D48*
Y513740D02*
D03*
Y672960D02*
D03*
Y995280D02*
D03*
Y834860D02*
D03*
D49*
X554478Y911278D02*
D03*
X649478Y836279D02*
D03*
D50*
X926430Y918820D02*
D03*
D51*
Y718820D02*
D03*
Y518820D02*
D03*
X1546430Y603820D02*
D03*
Y833820D02*
D03*
D52*
X1127500Y1039400D02*
D03*
D53*
X1216750Y1054750D02*
D03*
X1174750D02*
D03*
X1577250Y652750D02*
D03*
Y699250D02*
D03*
Y746500D02*
D03*
Y794250D02*
D03*
Y840250D02*
D03*
Y887250D02*
D03*
Y934000D02*
D03*
X1257500Y867250D02*
D03*
X1230250D02*
D03*
X1202500D02*
D03*
X1257500Y891500D02*
D03*
X1230000D02*
D03*
X1202500D02*
D03*
X1257500Y914278D02*
D03*
X1230000D02*
D03*
X1202500D02*
D03*
X1578000Y978500D02*
D03*
X1553500D02*
D03*
X1529250D02*
D03*
X1277000Y1054750D02*
D03*
X1467000D02*
D03*
X1437750D02*
D03*
X1328500D02*
D03*
X1409250D02*
D03*
X1381750D02*
D03*
X1354500D02*
D03*
M02*
