M48
;Layer_Color=9474304
;FILE_FORMAT=4:4
METRIC
T7F00S00C2.0000
%
G90
G05
T07
G00X00680047Y-00029815
M15
G01X00682867Y-00028352
G01X00685086Y-00026078
G01X00686480Y-00023222
G01X00686910Y-00020320
G01X00686910Y00561340
G01X00686405Y00564477
G01X00684942Y00567297
G01X00682668Y00569516
G01X00679812Y00570910
G01X00676910Y00571340
G01X-00073660Y00571340
G01X-00076797Y00570835
G01X-00079617Y00569372
G01X-00081836Y00567098
G01X-00083230Y00564242
G01X-00083660Y00561340
G01X-00083660Y-00020320
G01X-00083155Y-00023457
G01X-00081692Y-00026277
G01X-00079418Y-00028496
G01X-00076562Y-00029890
G01X-00073660Y-00030320
G01X00676910Y-00030320
G01X00680047Y-00029815
M16
M17
M30
