M48
;Layer_Color=9474304
;FILE_FORMAT=4:4
METRIC
;TYPE=PLATED
T1F00S00C0.5000
T2F00S00C0.7620
T3F00S00C0.9000
T4F00S00C1.1000
T5F00S00C1.1500
T6F00S00C3.2500
;TYPE=NON_PLATED
%
T01
X-00052660Y00000680
X-00027660
X-00015160Y00025680
X-00027660Y00050680
X00002590Y00099180
X00050800
X00099090
X00147340
X00195590
X00243590
X00292090
X00340340
X00388664Y00099246
X00436851
X00422340Y00050680
X00397340
X00322340
X00297340
X00272340
X00259840Y00025680
X00322340Y00000680
X00459840Y00025680
X00159840
X00534840
X00531968Y00040703
X00543936
X00555903
X00567871
X00579838
X00572340Y00050680
X00547340
X00522340
X00532820Y00099246
X00485212
X00559840Y00025680
X00572340Y00000680
X00597340
X00547340
X00622340Y00050680
X00647340
X00659840Y00075680
X00647340Y00100680
X00659840Y00125680
X00659000Y00148500
X00650750Y00176250
X00631370Y00221040
X00604268Y00224000
X00579067Y00224463
X00578000Y00211000
X00554433Y00186229
X00529680Y00188342
X00531230Y00178370
X00522584Y00156908
X00509000Y00158000
X00474480Y00156908
X00482781Y00177955
X00481076Y00188342
X00490868Y00190180
X00496449Y00214946
X00505677
X00484840Y00225680
X00525497Y00247726
X00540590
X00544357Y00290728
X00556663
X00568969
X00581274
X00572340Y00300680
X00547340
X00522340
X00519746Y00290728
X00532051
X00507440
X00497340Y00300680
X00472340
X00481238Y00287291
X00534840Y00325680
X00559840
X00572340Y00350680
X00547340
X00522340
X00534840Y00375680
X00522340Y00400680
X00534840Y00425680
X00559840
X00563994Y00496045
X00574968
X00585942
X00596915
Y00507080
X00585942
X00574968
X00563994
X00553021
Y00496045
X00522340Y00500680
X00472340Y00450680
X00477408Y00395966
X00625250Y00396000
Y00416000
Y00436250
X00647340Y00450680
X00669408Y00436679
Y00416483
X00659840Y00425680
X00669408Y00396287
Y00376091
X00659840Y00375680
X00669408Y00355895
Y00335700
X00659840Y00325680
X00669408Y00315504
Y00295308
X00659840Y00275680
X00639000Y00277750
X00625250Y00296000
Y00315857
Y00335964
Y00356000
Y00376000
X00604000Y00280250
X00619880Y00243540
X00609840Y00125680
X00584840
X00659840Y00475680
X00447340Y00450680
X00422340
X00400500Y00427250
X00389786Y00407707
X00354250Y00414750
X00354364Y00426000
Y00437781
Y00448704
X00326000Y00473000
X00313400
X00300700Y00502750
X00288000
X00202961Y00495840
X00196030
X00172340Y00500680
X00215569Y00475232
X00209730Y00437802
X00223775Y00415982
X00259840Y00425680
X00184840
X00166953Y00427237
X00155406
Y00415228
X00166953
X00172340Y00400680
X00165020Y00346250
X00185720
X00144320
X00141391Y00334564
X00136061Y00339406
X00126203Y00330126
X00109840Y00325680
X00084840
X00097340Y00300680
X00072340
X00071613Y00271438
X00084840Y00275680
X00097814Y00212963
X00094141Y00188399
X00096090Y00177930
X00105750Y00190680
X00142778Y00188399
X00144840Y00177930
X00153500Y00191037
X00145750Y00204750
X00183785Y00212963
X00191146Y00188399
X00193840Y00178180
X00201899Y00190713
X00240053Y00188399
X00241158Y00178180
X00249500Y00190713
X00268965Y00197686
X00289000Y00188399
X00289466Y00177971
X00298530Y00190500
X00312250Y00208510
X00335992Y00188342
X00337340Y00177971
X00346780Y00190180
X00350887Y00214946
X00394711
X00401560
X00425658
X00432508
X00452250Y00215250
X00444250Y00190250
X00433265Y00188342
X00434292Y00177955
X00425809Y00156908
X00412000Y00158000
X00377634Y00156908
X00364000Y00157800
X00329044Y00156908
X00315150Y00158000
X00281340Y00156908
X00266903Y00157800
X00233090Y00156908
X00218566Y00157750
X00184590Y00156908
X00170283Y00157800
X00135340Y00156908
X00122000Y00157675
X00086742Y00156930
X00073750Y00157800
X00209840Y00275680
X00234840
X00284840
X00334840
X00359840
X00384840
Y00225680
X00384640Y00188342
X00386391Y00177967
X00395030Y00191000
X00461000Y00158000
X00458754Y00305930
X00435521Y00345517
X00421521Y00374768
X00420949Y00384474
X00433500Y00390750
X00448383Y00394237
X00458754Y00403268
X00441844Y00410511
X00375777Y00377332
X00364257Y00384474
X00372340Y00350680
X00300688Y00382535
X00059645Y00271438
X00047678
X00035710
X00023743
X00009840Y00275680
X-00002660Y00300680
X00004811Y00214638
X00008250Y00190000
X-00002609Y00188356
X-00000410Y00177930
X-00008948Y00156908
X-00022500Y00157800
X00026000
X00039590Y00156908
X00047590Y00177930
X00045894Y00188399
X00056280Y00190755
X00053791Y00214753
X-00040160Y00225680
X-00039410Y00193180
X-00052315Y00181139
X-00052660Y00125582
X-00061400Y00459750
X-00032750Y00456750
X-00011437Y00470565
X00011000Y00489500
Y00508000
X00000743Y00554438
X-00061400Y00549750
X-00061257Y00534438
X00180841Y00549856
X00192362
X00219820Y00554000
Y00533820
X00288524Y00524305
X00309750Y00524740
X00331348
X00359840Y00525680
X00364257Y00542677
X00352737
X00375777
X00387297
X00384840Y00525680
X00584840
T02
X00167000Y00045500
X00194000
X00345750
X00372750
T03
X00575900Y00072020
X00601300
X00626700
T04
X00000000Y00000000
X00025400
X00050800
Y00029210
X00025400
Y00054610
X00000000
Y00029210
X00050800Y00054610
X00076200
Y00029210
X00101600
Y00054610
Y00000000
X00127000
X00152400
X00177800
X00203200
X00228600
X00254000
X00279400
X00304800
X00076200
X00472810Y00470000
X00498210
X00523610
X00549010
X00574410
X00599810
X00625210
X00447410
X00315800Y00361250
X00290400
X00265000
X00239600
X00421250Y00529500
X00446650
X00472050
X00497450
X00522850
X00548250
T05
X-00052000Y00489750
X-00022000
Y00519750
X-00052000
T06
X00643860Y00013226
X-00035765Y00280937
X00643860Y00528340
M30
