G04*
G04 #@! TF.GenerationSoftware,Altium Limited,Altium Designer,19.1.9 (167)*
G04*
G04 Layer_Physical_Order=1*
G04 Layer_Color=255*
%FSLAX44Y44*%
%MOMM*%
G71*
G01*
G75*
%ADD10C,0.2500*%
%ADD14C,0.2540*%
%ADD15R,0.6000X1.8000*%
%ADD16R,1.3000X0.9000*%
%ADD17R,0.9000X1.3000*%
%ADD18R,1.1000X1.2000*%
%ADD19R,3.7000X2.4500*%
%ADD20R,2.1500X0.9500*%
%ADD21R,2.1500X3.2500*%
%ADD22R,1.3000X0.7000*%
%ADD23R,0.7000X1.3000*%
%ADD24R,1.6500X0.6000*%
%ADD25R,1.2000X1.1000*%
%ADD26R,0.2500X1.2500*%
%ADD27R,5.5000X2.0000*%
G04:AMPARAMS|DCode=28|XSize=0.6mm|YSize=1.65mm|CornerRadius=0.15mm|HoleSize=0mm|Usage=FLASHONLY|Rotation=270.000|XOffset=0mm|YOffset=0mm|HoleType=Round|Shape=RoundedRectangle|*
%AMROUNDEDRECTD28*
21,1,0.6000,1.3500,0,0,270.0*
21,1,0.3000,1.6500,0,0,270.0*
1,1,0.3000,-0.6750,-0.1500*
1,1,0.3000,-0.6750,0.1500*
1,1,0.3000,0.6750,0.1500*
1,1,0.3000,0.6750,-0.1500*
%
%ADD28ROUNDEDRECTD28*%
%ADD54C,6.0000*%
%ADD55C,1.6000*%
%ADD56R,1.6000X1.6000*%
%ADD57C,1.6500*%
%ADD58R,1.6500X1.6500*%
%ADD59C,1.5240*%
%ADD60R,1.5240X1.5240*%
%ADD61C,1.7500*%
%ADD62C,0.7000*%
%ADD63C,0.8000*%
%ADD64C,0.6000*%
G36*
X221709Y555659D02*
X221831Y555577D01*
X221971Y555505D01*
X222130Y555443D01*
X222307Y555390D01*
X222504Y555347D01*
X222718Y555313D01*
X222951Y555289D01*
X223473Y555270D01*
Y552730D01*
X223203Y552725D01*
X222718Y552687D01*
X222504Y552653D01*
X222307Y552610D01*
X222130Y552557D01*
X221971Y552495D01*
X221831Y552423D01*
X221709Y552341D01*
X221605Y552250D01*
Y555750D01*
X221709Y555659D01*
D02*
G37*
G36*
X49676Y546467D02*
X49647Y546701D01*
X49559Y546911D01*
X49413Y547096D01*
X49208Y547256D01*
X48945Y547392D01*
X48623Y547503D01*
X48243Y547589D01*
X47804Y547651D01*
X47307Y547688D01*
X46752Y547700D01*
Y550200D01*
X47307Y550212D01*
X48243Y550311D01*
X48623Y550397D01*
X48945Y550508D01*
X49208Y550644D01*
X49413Y550804D01*
X49559Y550989D01*
X49647Y551199D01*
X49676Y551433D01*
Y546467D01*
D02*
G37*
G36*
X675692Y560442D02*
X676750Y559704D01*
Y536174D01*
X675480Y536023D01*
X674903Y538427D01*
X672943Y543158D01*
X670267Y547526D01*
X666940Y551420D01*
X663046Y554747D01*
X658679Y557423D01*
X654457Y559172D01*
X654709Y560442D01*
X675692D01*
D02*
G37*
G36*
X49676Y533767D02*
X49647Y534001D01*
X49559Y534211D01*
X49413Y534396D01*
X49208Y534556D01*
X48945Y534692D01*
X48623Y534803D01*
X48243Y534889D01*
X47804Y534951D01*
X47307Y534988D01*
X46752Y535000D01*
Y537500D01*
X47307Y537512D01*
X48243Y537611D01*
X48623Y537697D01*
X48945Y537808D01*
X49208Y537944D01*
X49413Y538104D01*
X49559Y538289D01*
X49647Y538499D01*
X49676Y538733D01*
Y533767D01*
D02*
G37*
G36*
X219795Y531320D02*
X219657Y531311D01*
X219513Y531283D01*
X219363Y531235D01*
X219207Y531166D01*
X219044Y531078D01*
X218875Y530970D01*
X218699Y530842D01*
X218517Y530694D01*
X218135Y530339D01*
X216339Y532135D01*
X216526Y532329D01*
X216842Y532699D01*
X216970Y532875D01*
X217078Y533044D01*
X217166Y533207D01*
X217234Y533363D01*
X217283Y533513D01*
X217311Y533657D01*
X217320Y533795D01*
X219795Y531320D01*
D02*
G37*
G36*
X226793Y531408D02*
Y526245D01*
X226306Y525674D01*
X212837Y512205D01*
X211999Y510951D01*
X211705Y509472D01*
Y479914D01*
X211214Y479586D01*
X209879Y477588D01*
X209411Y475232D01*
X209526Y474653D01*
X201413Y466540D01*
X188710D01*
Y466540D01*
X187790D01*
Y466540D01*
X169710D01*
Y463364D01*
X165397D01*
X164663Y464463D01*
X163326Y465356D01*
X161750Y465669D01*
X148250D01*
X146674Y465356D01*
X145434Y464527D01*
X144948Y464638D01*
X144164Y464992D01*
Y480508D01*
X144948Y480862D01*
X145434Y480973D01*
X146674Y480144D01*
X148250Y479831D01*
X161750D01*
X163326Y480144D01*
X164663Y481037D01*
X164999Y481540D01*
X165237Y481565D01*
X170075D01*
X171562Y481861D01*
X172379Y482407D01*
X173757Y482681D01*
X175017Y483523D01*
X219265Y527772D01*
X219820Y527662D01*
X222177Y528130D01*
X224174Y529465D01*
X225509Y531463D01*
X225523Y531533D01*
X226793Y531408D01*
D02*
G37*
G36*
X216688Y559172D02*
X215465Y558355D01*
X214130Y556357D01*
X213661Y554000D01*
X214130Y551643D01*
X215465Y549645D01*
X217463Y548311D01*
X218246Y548155D01*
X218121Y546885D01*
X210575D01*
X209089Y546589D01*
X207828Y545747D01*
X189516Y527435D01*
X165148D01*
X165009Y527445D01*
X164663Y527963D01*
X163326Y528856D01*
X161750Y529169D01*
X148250D01*
X146674Y528856D01*
X145434Y528027D01*
X144948Y528138D01*
X144164Y528492D01*
Y560285D01*
X144320Y560442D01*
X147470Y560442D01*
X216303D01*
X216688Y559172D01*
D02*
G37*
G36*
X309987Y523219D02*
X309551Y522770D01*
X309383Y522578D01*
X309718Y522241D01*
X309575Y522232D01*
X309426Y522205D01*
X309272Y522157D01*
X309112Y522089D01*
X308947Y522002D01*
X308810Y521916D01*
X308583Y521614D01*
X308375Y521292D01*
X308224Y521001D01*
X308129Y520743D01*
X308092Y520516D01*
X308112Y520322D01*
X308189Y520159D01*
X305658Y523689D01*
X305784Y523575D01*
X305950Y523526D01*
X306155Y523542D01*
X306401Y523624D01*
X306687Y523771D01*
X307013Y523983D01*
X307033Y523998D01*
X307096Y524117D01*
X307164Y524277D01*
X307213Y524431D01*
X307241Y524580D01*
X307250Y524722D01*
X307555Y524416D01*
X308233Y525013D01*
X308720Y525487D01*
X309987Y523219D01*
D02*
G37*
G36*
X330987Y522612D02*
X330970Y522594D01*
X331323Y522240D01*
X331180Y522232D01*
X331031Y522204D01*
X330877Y522156D01*
X330718Y522088D01*
X330552Y522000D01*
X330381Y521893D01*
X330243Y521793D01*
X329821Y521289D01*
X329551Y520898D01*
X329342Y520532D01*
X329192Y520191D01*
X329101Y519875D01*
X329071Y519584D01*
X329100Y519318D01*
X329189Y519076D01*
X326791Y523689D01*
X326934Y523501D01*
X327123Y523395D01*
X327359Y523371D01*
X327642Y523428D01*
X327972Y523567D01*
X328349Y523788D01*
X328631Y523988D01*
X328695Y524110D01*
X328763Y524270D01*
X328811Y524424D01*
X328839Y524572D01*
X328848Y524715D01*
X329159Y524404D01*
X329244Y524474D01*
X330327Y525487D01*
X330987Y522612D01*
D02*
G37*
G36*
X288737Y522751D02*
X288305Y522305D01*
X288163Y522141D01*
X288499Y521805D01*
X288356Y521797D01*
X288208Y521768D01*
X288053Y521720D01*
X287894Y521652D01*
X287728Y521565D01*
X287589Y521477D01*
X287345Y521149D01*
X287137Y520823D01*
X286986Y520527D01*
X286890Y520261D01*
X286850Y520025D01*
X286867Y519818D01*
X286939Y519642D01*
X285191Y522455D01*
X285049Y522597D01*
X285081Y522631D01*
X284580Y523439D01*
X284701Y523311D01*
X284863Y523250D01*
X285066Y523257D01*
X285310Y523331D01*
X285596Y523472D01*
X285850Y523635D01*
X285871Y523675D01*
X285939Y523834D01*
X285987Y523989D01*
X286016Y524137D01*
X286024Y524280D01*
X286321Y523983D01*
X286699Y524300D01*
X287640Y525189D01*
X288737Y522751D01*
D02*
G37*
G36*
X233256Y523654D02*
X236333D01*
X236096Y523629D01*
X235883Y523553D01*
X235696Y523426D01*
X235533Y523249D01*
X235396Y523022D01*
X235283Y522743D01*
X235196Y522414D01*
X235133Y522035D01*
X235096Y521604D01*
X235083Y521124D01*
X232583D01*
X232571Y521604D01*
X232533Y522035D01*
X232471Y522414D01*
X232383Y522743D01*
X232271Y523022D01*
X232133Y523249D01*
X231971Y523426D01*
X231801Y523541D01*
X231524Y523381D01*
X231122Y523101D01*
X230687Y522753D01*
X229720Y521856D01*
X227596Y523267D01*
X228110Y523798D01*
X228915Y524742D01*
X229206Y525155D01*
X229423Y525528D01*
X229566Y525862D01*
X229634Y526157D01*
X229629Y526411D01*
X229549Y526627D01*
X229394Y526802D01*
X233256Y523654D01*
D02*
G37*
G36*
X162827Y525835D02*
X162917Y525622D01*
X163066Y525434D01*
X163276Y525271D01*
X163545Y525133D01*
X163874Y525020D01*
X164263Y524933D01*
X164711Y524870D01*
X165220Y524832D01*
X165788Y524820D01*
Y522280D01*
X165220Y522267D01*
X164263Y522167D01*
X163874Y522080D01*
X163545Y521967D01*
X163276Y521829D01*
X163066Y521666D01*
X162917Y521478D01*
X162827Y521265D01*
X162797Y521027D01*
Y526073D01*
X162827Y525835D01*
D02*
G37*
G36*
X215245Y537845D02*
X214130Y536177D01*
X213661Y533820D01*
X213772Y533265D01*
X170603Y490096D01*
X169409Y489859D01*
X168624Y489335D01*
X165148D01*
X165009Y489345D01*
X164663Y489863D01*
X163326Y490756D01*
X161750Y491069D01*
X148250D01*
X146674Y490756D01*
X145434Y489927D01*
X144948Y490038D01*
X144164Y490392D01*
Y493208D01*
X144948Y493562D01*
X145434Y493673D01*
X146674Y492844D01*
X148250Y492531D01*
X161750D01*
X163326Y492844D01*
X164663Y493737D01*
X165556Y495074D01*
X165869Y496650D01*
Y499650D01*
X165556Y501226D01*
X164663Y502563D01*
X163326Y503456D01*
X161750Y503769D01*
X148250D01*
X146674Y503456D01*
X145434Y502627D01*
X144948Y502738D01*
X144164Y503092D01*
Y505908D01*
X144948Y506262D01*
X145434Y506373D01*
X146674Y505544D01*
X148250Y505231D01*
X161750D01*
X163326Y505544D01*
X164663Y506437D01*
X165556Y507774D01*
X165869Y509350D01*
Y512350D01*
X165556Y513926D01*
X164663Y515263D01*
X163326Y516156D01*
X161750Y516469D01*
X148250D01*
X146674Y516156D01*
X145434Y515327D01*
X144948Y515438D01*
X144164Y515792D01*
Y518608D01*
X144948Y518962D01*
X145434Y519073D01*
X146674Y518244D01*
X148250Y517931D01*
X161750D01*
X163326Y518244D01*
X164663Y519137D01*
X164999Y519640D01*
X165237Y519665D01*
X191125D01*
X192612Y519961D01*
X193872Y520803D01*
X212184Y539115D01*
X214761D01*
X215245Y537845D01*
D02*
G37*
G36*
X235096Y519088D02*
X235133Y518663D01*
X235196Y518288D01*
X235283Y517963D01*
X235396Y517688D01*
X235533Y517463D01*
X235696Y517288D01*
X235883Y517163D01*
X236096Y517088D01*
X236333Y517063D01*
X231333D01*
X231571Y517088D01*
X231783Y517163D01*
X231971Y517288D01*
X232133Y517463D01*
X232271Y517688D01*
X232383Y517963D01*
X232471Y518288D01*
X232533Y518663D01*
X232571Y519088D01*
X232583Y519563D01*
X235083D01*
X235096Y519088D01*
D02*
G37*
G36*
X17000Y560442D02*
X16981Y514714D01*
X13850D01*
X13850Y514714D01*
X12371Y514420D01*
X11755Y514008D01*
X11000Y514158D01*
X10422Y514043D01*
X1982Y522482D01*
X729Y523320D01*
X-750Y523614D01*
X-11380D01*
X-12138Y525444D01*
X-13948Y527802D01*
X-16306Y529612D01*
X-19053Y530749D01*
X-22000Y531137D01*
X-24947Y530749D01*
X-27694Y529612D01*
X-30052Y527802D01*
X-31862Y525444D01*
X-32999Y522697D01*
X-33387Y519750D01*
X-32999Y516803D01*
X-31862Y514056D01*
X-30052Y511698D01*
X-27694Y509888D01*
X-27081Y509634D01*
X-27333Y508364D01*
X-37250D01*
X-37250Y508364D01*
X-38729Y508070D01*
X-39982Y507232D01*
X-39983Y507232D01*
X-45033Y502182D01*
X-45036Y502180D01*
X-45294Y502018D01*
X-45680Y501838D01*
X-46200Y501656D01*
X-46850Y501487D01*
X-47624Y501341D01*
X-48493Y501228D01*
X-50680Y501096D01*
X-51646Y501091D01*
X-52000Y501137D01*
X-54947Y500749D01*
X-57694Y499612D01*
X-60052Y497802D01*
X-61862Y495444D01*
X-62999Y492697D01*
X-63387Y489750D01*
X-62999Y486803D01*
X-61862Y484056D01*
X-60052Y481698D01*
X-57694Y479888D01*
X-54947Y478751D01*
X-52000Y478363D01*
X-49053Y478751D01*
X-46306Y479888D01*
X-43948Y481698D01*
X-42138Y484056D01*
X-41001Y486803D01*
X-40613Y489750D01*
X-40659Y490104D01*
X-40654Y491069D01*
X-40522Y493257D01*
X-40409Y494126D01*
X-40263Y494900D01*
X-40094Y495550D01*
X-39912Y496069D01*
X-39732Y496456D01*
X-39570Y496714D01*
X-39568Y496717D01*
X-35649Y500636D01*
X3049D01*
X6424Y497261D01*
X6533Y497124D01*
X6683Y496904D01*
X6809Y496683D01*
X6913Y496457D01*
X6999Y496224D01*
X7067Y495979D01*
X7117Y495717D01*
X7136Y495543D01*
Y494182D01*
X6645Y493855D01*
X5311Y491857D01*
X4842Y489500D01*
X5311Y487143D01*
X6645Y485145D01*
X8643Y483811D01*
X11000Y483342D01*
X13357Y483811D01*
X15355Y485145D01*
X15700Y485662D01*
X16969Y485276D01*
X16961Y464114D01*
X1500D01*
X21Y463820D01*
X-1232Y462982D01*
X-3601Y460614D01*
X-28068D01*
X-28395Y461105D01*
X-30393Y462439D01*
X-32750Y462908D01*
X-35107Y462439D01*
X-37105Y461105D01*
X-38440Y459107D01*
X-38908Y456750D01*
X-38440Y454393D01*
X-37105Y452395D01*
X-35107Y451060D01*
X-33647Y450770D01*
X-33772Y449500D01*
X-73660D01*
X-73660Y561340D01*
X16102Y561340D01*
X17000Y560442D01*
D02*
G37*
G36*
X49676Y508367D02*
X49647Y508601D01*
X49559Y508811D01*
X49413Y508996D01*
X49208Y509156D01*
X48945Y509292D01*
X48623Y509403D01*
X48243Y509489D01*
X47804Y509551D01*
X47307Y509588D01*
X46752Y509600D01*
Y512100D01*
X47307Y512112D01*
X48243Y512211D01*
X48623Y512297D01*
X48945Y512408D01*
X49208Y512544D01*
X49413Y512704D01*
X49559Y512889D01*
X49647Y513099D01*
X49676Y513333D01*
Y508367D01*
D02*
G37*
G36*
X14476Y509708D02*
X14289Y509514D01*
X13975Y509144D01*
X13848Y508967D01*
X13740Y508796D01*
X13653Y508630D01*
X13585Y508470D01*
X13537Y508316D01*
X13508Y508168D01*
X13500Y508025D01*
X11025Y510500D01*
X11168Y510508D01*
X11316Y510537D01*
X11471Y510585D01*
X11630Y510653D01*
X11796Y510740D01*
X11967Y510848D01*
X12144Y510975D01*
X12326Y511122D01*
X12708Y511475D01*
X14476Y509708D01*
D02*
G37*
G36*
X9486Y511289D02*
X9856Y510975D01*
X10033Y510848D01*
X10204Y510740D01*
X10370Y510653D01*
X10530Y510585D01*
X10684Y510537D01*
X10832Y510508D01*
X10975Y510500D01*
X8500Y508025D01*
X8492Y508168D01*
X8463Y508316D01*
X8415Y508470D01*
X8347Y508630D01*
X8260Y508796D01*
X8152Y508967D01*
X8025Y509144D01*
X7878Y509326D01*
X7524Y509708D01*
X9292Y511475D01*
X9486Y511289D01*
D02*
G37*
G36*
X237951Y504129D02*
X237739Y504053D01*
X237551Y503926D01*
X237389Y503749D01*
X237251Y503521D01*
X237139Y503243D01*
X237051Y502914D01*
X236989Y502535D01*
X236951Y502104D01*
X236939Y501624D01*
X234439D01*
X234426Y502104D01*
X234389Y502535D01*
X234326Y502914D01*
X234239Y503243D01*
X234126Y503521D01*
X233989Y503749D01*
X233826Y503926D01*
X233639Y504053D01*
X233426Y504129D01*
X233189Y504154D01*
X238189D01*
X237951Y504129D01*
D02*
G37*
G36*
X342513Y504034D02*
X342300Y503957D01*
X342113Y503830D01*
X341950Y503652D01*
X341813Y503424D01*
X341700Y503146D01*
X341613Y502818D01*
X341550Y502439D01*
X341512Y502010D01*
X341500Y501530D01*
X339000D01*
X338988Y502006D01*
X338951Y502430D01*
X338890Y502805D01*
X338805Y503130D01*
X338695Y503405D01*
X338561Y503630D01*
X338402Y503806D01*
X338219Y503931D01*
X338012Y504006D01*
X337780Y504030D01*
X342750Y504061D01*
X342513Y504034D01*
D02*
G37*
G36*
X341503Y500244D02*
X341632Y498445D01*
X341673Y498320D01*
X341718Y498245D01*
X341769Y498219D01*
X337750D01*
X337988Y498245D01*
X338200Y498320D01*
X338387Y498445D01*
X338550Y498619D01*
X338688Y498844D01*
X338800Y499119D01*
X338887Y499445D01*
X338950Y499819D01*
X338988Y500244D01*
X339000Y500719D01*
X341500D01*
X341503Y500244D01*
D02*
G37*
G36*
X302355Y500858D02*
X302270Y500733D01*
X302195Y500590D01*
X302130Y500429D01*
X302075Y500250D01*
X302030Y500053D01*
X301997Y499851D01*
X302000Y499819D01*
X302062Y499445D01*
X302150Y499119D01*
X302262Y498844D01*
X302400Y498619D01*
X302563Y498445D01*
X302750Y498320D01*
X302962Y498245D01*
X303200Y498219D01*
X298200D01*
X298438Y498245D01*
X298650Y498320D01*
X298838Y498445D01*
X299000Y498619D01*
X299137Y498844D01*
X299250Y499119D01*
X299338Y499445D01*
X299400Y499819D01*
X299403Y499851D01*
X299370Y500053D01*
X299325Y500250D01*
X299270Y500429D01*
X299205Y500590D01*
X299130Y500733D01*
X299045Y500858D01*
X298950Y500965D01*
X302450D01*
X302355Y500858D01*
D02*
G37*
G36*
X289655D02*
X289570Y500733D01*
X289495Y500590D01*
X289430Y500429D01*
X289375Y500250D01*
X289330Y500053D01*
X289297Y499851D01*
X289300Y499819D01*
X289363Y499445D01*
X289450Y499119D01*
X289562Y498844D01*
X289700Y498619D01*
X289862Y498445D01*
X290050Y498320D01*
X290263Y498245D01*
X290500Y498219D01*
X285500D01*
X285737Y498245D01*
X285950Y498320D01*
X286138Y498445D01*
X286300Y498619D01*
X286437Y498844D01*
X286550Y499119D01*
X286637Y499445D01*
X286700Y499819D01*
X286703Y499851D01*
X286670Y500053D01*
X286625Y500250D01*
X286570Y500429D01*
X286505Y500590D01*
X286430Y500733D01*
X286345Y500858D01*
X286250Y500965D01*
X289750D01*
X289655Y500858D01*
D02*
G37*
G36*
X263883Y500277D02*
X263921Y499845D01*
X263984Y499464D01*
X264073Y499134D01*
X264188Y498854D01*
X264327Y498626D01*
X264492Y498448D01*
X264683Y498321D01*
X264899Y498245D01*
X265140Y498219D01*
X260060D01*
X260301Y498245D01*
X260517Y498321D01*
X260708Y498448D01*
X260873Y498626D01*
X261012Y498854D01*
X261127Y499134D01*
X261216Y499464D01*
X261279Y499845D01*
X261317Y500277D01*
X261330Y500760D01*
X263870D01*
X263883Y500277D01*
D02*
G37*
G36*
X236951Y500244D02*
X236989Y499819D01*
X237051Y499445D01*
X237139Y499119D01*
X237251Y498844D01*
X237389Y498619D01*
X237551Y498445D01*
X237739Y498320D01*
X237951Y498245D01*
X238189Y498219D01*
X234230D01*
X234270Y498245D01*
X234305Y498320D01*
X234337Y498445D01*
X234364Y498619D01*
X234405Y499119D01*
X234437Y500244D01*
X234439Y500719D01*
X236939D01*
X236951Y500244D01*
D02*
G37*
G36*
X49676Y495667D02*
X49647Y495901D01*
X49559Y496111D01*
X49413Y496296D01*
X49208Y496456D01*
X48945Y496592D01*
X48623Y496703D01*
X48243Y496789D01*
X47804Y496851D01*
X47307Y496888D01*
X46752Y496900D01*
Y499400D01*
X47307Y499412D01*
X48243Y499511D01*
X48623Y499597D01*
X48945Y499708D01*
X49208Y499844D01*
X49413Y500004D01*
X49559Y500189D01*
X49647Y500399D01*
X49676Y500633D01*
Y495667D01*
D02*
G37*
G36*
X10111Y500832D02*
X10486Y500531D01*
X10877Y500266D01*
X11281Y500036D01*
X11701Y499842D01*
X12135Y499683D01*
X12584Y499559D01*
X13047Y499471D01*
X13525Y499418D01*
X14018Y499400D01*
X14750Y496900D01*
X14275Y496875D01*
X13850Y496800D01*
X13475Y496675D01*
X13150Y496500D01*
X12875Y496275D01*
X12650Y496000D01*
X12475Y495675D01*
X12350Y495300D01*
X12275Y494875D01*
X12250Y494400D01*
X9750Y495132D01*
X9732Y495625D01*
X9679Y496103D01*
X9591Y496566D01*
X9467Y497015D01*
X9308Y497449D01*
X9114Y497869D01*
X8884Y498274D01*
X8619Y498664D01*
X8318Y499039D01*
X7982Y499400D01*
X9750Y501168D01*
X10111Y500832D01*
D02*
G37*
G36*
X12255Y492896D02*
X12295Y492412D01*
X12330Y492197D01*
X12375Y492000D01*
X12430Y491821D01*
X12495Y491660D01*
X12570Y491517D01*
X12655Y491392D01*
X12750Y491285D01*
X9250D01*
X9345Y491392D01*
X9430Y491517D01*
X9505Y491660D01*
X9570Y491821D01*
X9625Y492000D01*
X9670Y492197D01*
X9705Y492412D01*
X9730Y492645D01*
X9750Y493165D01*
X12250D01*
X12255Y492896D01*
D02*
G37*
G36*
X-41280Y498702D02*
X-41667Y498247D01*
X-42011Y497695D01*
X-42314Y497048D01*
X-42574Y496305D01*
X-42792Y495467D01*
X-42968Y494532D01*
X-43102Y493502D01*
X-43243Y491155D01*
X-43250Y489837D01*
X-51912Y498500D01*
X-50595Y498507D01*
X-48248Y498648D01*
X-47218Y498782D01*
X-46283Y498958D01*
X-45445Y499176D01*
X-44702Y499436D01*
X-44055Y499739D01*
X-43503Y500083D01*
X-43048Y500470D01*
X-41280Y498702D01*
D02*
G37*
G36*
X162827Y487735D02*
X162917Y487522D01*
X163066Y487334D01*
X163276Y487171D01*
X163545Y487033D01*
X163874Y486921D01*
X164263Y486833D01*
X164711Y486770D01*
X165220Y486732D01*
X165788Y486720D01*
Y484180D01*
X165220Y484168D01*
X164263Y484067D01*
X163874Y483979D01*
X163545Y483867D01*
X163276Y483729D01*
X163066Y483566D01*
X162917Y483378D01*
X162827Y483165D01*
X162797Y482927D01*
Y487973D01*
X162827Y487735D01*
D02*
G37*
G36*
X404562Y480286D02*
X404350Y480210D01*
X404162Y480083D01*
X404000Y479906D01*
X403862Y479678D01*
X403750Y479400D01*
X403662Y479071D01*
X403600Y478691D01*
X403563Y478261D01*
X403550Y477780D01*
X401050D01*
X401037Y478261D01*
X401000Y478691D01*
X400938Y479071D01*
X400850Y479400D01*
X400737Y479678D01*
X400600Y479906D01*
X400438Y480083D01*
X400250Y480210D01*
X400037Y480286D01*
X399800Y480311D01*
X404800D01*
X404562Y480286D01*
D02*
G37*
G36*
X391862D02*
X391650Y480210D01*
X391463Y480083D01*
X391300Y479906D01*
X391162Y479678D01*
X391050Y479400D01*
X390962Y479071D01*
X390900Y478691D01*
X390863Y478261D01*
X390850Y477780D01*
X388350D01*
X388338Y478261D01*
X388300Y478691D01*
X388237Y479071D01*
X388150Y479400D01*
X388037Y479678D01*
X387900Y479906D01*
X387738Y480083D01*
X387550Y480210D01*
X387337Y480286D01*
X387100Y480311D01*
X392100D01*
X391862Y480286D01*
D02*
G37*
G36*
X633263Y559172D02*
X629041Y557423D01*
X624674Y554747D01*
X620780Y551420D01*
X617453Y547526D01*
X614777Y543158D01*
X612817Y538427D01*
X611621Y533446D01*
X611219Y528340D01*
X611621Y523234D01*
X612817Y518254D01*
X614777Y513521D01*
X617453Y509154D01*
X620780Y505260D01*
X624674Y501933D01*
X629041Y499257D01*
X633773Y497297D01*
X638754Y496101D01*
X643860Y495699D01*
X648966Y496101D01*
X653947Y497297D01*
X658679Y499257D01*
X663046Y501933D01*
X666940Y505260D01*
X670267Y509154D01*
X672943Y513521D01*
X674903Y518254D01*
X675480Y520657D01*
X676750Y520506D01*
Y21060D01*
X675480Y20909D01*
X674903Y23312D01*
X672943Y28044D01*
X670267Y32411D01*
X666940Y36306D01*
X663046Y39633D01*
X658679Y42309D01*
X653947Y44269D01*
X648966Y45465D01*
X643860Y45866D01*
X638754Y45465D01*
X633773Y44269D01*
X629041Y42309D01*
X624674Y39633D01*
X620780Y36306D01*
X617453Y32411D01*
X614777Y28044D01*
X612817Y23312D01*
X611621Y18332D01*
X611219Y13226D01*
X611621Y8120D01*
X612817Y3139D01*
X614777Y-1593D01*
X617453Y-5960D01*
X620780Y-9855D01*
X624674Y-13181D01*
X629041Y-15857D01*
X633773Y-17817D01*
X637575Y-18730D01*
X637425Y-20000D01*
X-73500D01*
X-73678Y-19927D01*
Y322540D01*
X71613D01*
X144114Y395041D01*
X144164D01*
Y455108D01*
X144948Y455462D01*
X145434Y455573D01*
X146674Y454744D01*
X148250Y454431D01*
X161750D01*
X163326Y454744D01*
X163998Y455193D01*
X164014Y455198D01*
X164056Y455232D01*
X164583Y455584D01*
X164730Y455607D01*
X165109Y455636D01*
X169710D01*
Y452460D01*
X187790D01*
Y452460D01*
X188710D01*
Y452460D01*
X203494D01*
X203709Y452159D01*
X203975Y451190D01*
X199575Y446790D01*
X190960D01*
Y428710D01*
X194136D01*
Y425040D01*
X191960D01*
Y406960D01*
X194136D01*
Y404290D01*
X191960D01*
Y386210D01*
X204040D01*
Y404290D01*
X201864D01*
Y406960D01*
X204040D01*
Y425040D01*
X201864D01*
Y428710D01*
X205040D01*
Y441325D01*
X208555Y444840D01*
X349682D01*
X350009Y444350D01*
X350716Y443878D01*
Y442608D01*
X350009Y442136D01*
X349682Y441646D01*
X245574D01*
X245574Y441646D01*
X244095Y441352D01*
X242842Y440514D01*
X224353Y422025D01*
X223775Y422140D01*
X223040Y422743D01*
Y425040D01*
X210960D01*
Y406960D01*
X223040D01*
Y409221D01*
X223775Y409824D01*
X226131Y410292D01*
X228129Y411627D01*
X229464Y413625D01*
X229933Y415982D01*
X229818Y416560D01*
X247175Y433917D01*
X349682D01*
X350009Y433427D01*
X351166Y432654D01*
Y431127D01*
X350009Y430355D01*
X349696Y429885D01*
X291400D01*
X289913Y429589D01*
X288653Y428747D01*
X272553Y412647D01*
X271711Y411387D01*
X271415Y409900D01*
Y406790D01*
X269760D01*
Y383710D01*
X280840D01*
Y406790D01*
X279185D01*
Y408291D01*
X293009Y422115D01*
X349696D01*
X350009Y421645D01*
X350903Y421048D01*
Y419778D01*
X349895Y419105D01*
X349581Y418635D01*
X296500D01*
X295013Y418339D01*
X293753Y417497D01*
X285575Y409319D01*
X284733Y408059D01*
X284481Y406790D01*
X282460D01*
Y383710D01*
X293468D01*
X293824Y383648D01*
X294543Y382601D01*
X294530Y382535D01*
X294998Y380179D01*
X296333Y378181D01*
X298331Y376846D01*
X300688Y376377D01*
X303045Y376846D01*
X305043Y378181D01*
X306378Y380179D01*
X306846Y382535D01*
X306378Y384892D01*
X306240Y385098D01*
Y406790D01*
X295830D01*
X295304Y408060D01*
X298109Y410865D01*
X349581D01*
X349895Y410395D01*
X351893Y409060D01*
X354250Y408592D01*
X356607Y409060D01*
X358605Y410395D01*
X359939Y412393D01*
X360408Y414750D01*
X359939Y417107D01*
X358605Y419105D01*
X357711Y419702D01*
Y420972D01*
X358719Y421645D01*
X360054Y423643D01*
X360522Y426000D01*
X360054Y428357D01*
X358719Y430355D01*
X357563Y431127D01*
Y432654D01*
X358719Y433427D01*
X359046Y433917D01*
X388368D01*
X394457Y427828D01*
X394342Y427250D01*
X394810Y424893D01*
X394917Y424734D01*
X394318Y423614D01*
X386000D01*
X384521Y423320D01*
X383268Y422482D01*
X374518Y413732D01*
X373680Y412479D01*
X373386Y411000D01*
Y406790D01*
X371360D01*
Y386987D01*
X370090Y386646D01*
X369740Y387251D01*
Y406790D01*
X358660D01*
Y387095D01*
X358384Y386552D01*
X357114Y386855D01*
Y393500D01*
X357040Y393873D01*
Y406790D01*
X345960D01*
Y393873D01*
X345886Y393500D01*
X345960Y393127D01*
Y383710D01*
X349386D01*
Y354602D01*
X349680Y353124D01*
X350518Y351870D01*
X380210Y322177D01*
Y302460D01*
X406386D01*
Y283290D01*
X403495D01*
Y265210D01*
X417575D01*
Y283290D01*
X414114D01*
Y302460D01*
X440290D01*
Y304348D01*
X441464Y304583D01*
X441560Y304563D01*
X442368Y303354D01*
X461163Y284559D01*
X461163Y284559D01*
X462417Y283721D01*
X463895Y283427D01*
X476555D01*
X476883Y282937D01*
X478881Y281602D01*
X481238Y281133D01*
X483595Y281602D01*
X485592Y282937D01*
X486927Y284935D01*
X487396Y287291D01*
X486927Y289648D01*
X485592Y291646D01*
X483595Y292981D01*
X481238Y293450D01*
X478881Y292981D01*
X476883Y291646D01*
X476555Y291155D01*
X465496D01*
X457961Y298690D01*
X458560Y299811D01*
X458754Y299772D01*
X461110Y300241D01*
X463108Y301576D01*
X464443Y303574D01*
X464912Y305930D01*
X464443Y308287D01*
X463840Y309190D01*
X464519Y310460D01*
X467790D01*
Y312636D01*
X469300D01*
Y310460D01*
X487380D01*
Y313601D01*
X488460Y314060D01*
X488460Y314060D01*
Y314060D01*
X488460Y314060D01*
X490933D01*
X491031Y314041D01*
X491092Y314053D01*
X491154Y314044D01*
X491220Y314060D01*
X510040D01*
Y325140D01*
X488460D01*
Y322999D01*
X487380Y322540D01*
Y322540D01*
X484921D01*
X484827Y322559D01*
X484727Y322540D01*
X469300D01*
Y320364D01*
X467790D01*
Y322540D01*
X449710D01*
X448965Y323501D01*
Y326150D01*
X448965Y326150D01*
X448671Y327629D01*
X447833Y328882D01*
X447833Y328882D01*
X439369Y337347D01*
X438115Y338184D01*
X436636Y338479D01*
X399363D01*
X394152Y343690D01*
X394678Y344960D01*
X396790D01*
Y363040D01*
X396790D01*
Y364210D01*
X396790D01*
Y382290D01*
X393614D01*
Y383710D01*
X395140D01*
Y404277D01*
X395490Y404631D01*
X396760Y404109D01*
Y383710D01*
X407840D01*
Y391386D01*
X417934D01*
X418535Y390209D01*
X418521Y390116D01*
X416595Y388829D01*
X415260Y386831D01*
X414791Y384474D01*
X415260Y382117D01*
X416526Y380223D01*
X416596Y380102D01*
X416744Y378492D01*
X415831Y377125D01*
X415362Y374768D01*
X415831Y372412D01*
X417166Y370414D01*
X418517Y369511D01*
Y368868D01*
X418811Y367390D01*
X419649Y366136D01*
X449710Y336075D01*
Y329460D01*
X467790D01*
Y338681D01*
X469060Y339360D01*
X469300Y339200D01*
Y339081D01*
X469281Y338988D01*
X469300Y338888D01*
Y329460D01*
X484728D01*
X484828Y329441D01*
X484921Y329460D01*
X485108D01*
X485118Y329459D01*
X485121Y329460D01*
X487380D01*
X487380Y329460D01*
Y329460D01*
X487380Y329460D01*
X488460Y329001D01*
Y326760D01*
X510040D01*
Y337840D01*
X491244D01*
X491189Y337854D01*
X491110Y337844D01*
X491031Y337859D01*
X490933Y337840D01*
X488460D01*
X488460Y337840D01*
X488312Y338435D01*
X489398Y339460D01*
X510040D01*
Y350540D01*
X488460D01*
Y348864D01*
X480851D01*
X477052Y352662D01*
X477538Y353836D01*
X488460D01*
Y352160D01*
X510040D01*
Y363240D01*
X488460D01*
Y361564D01*
X477204D01*
X473503Y365266D01*
X474029Y366536D01*
X488460D01*
Y364860D01*
X510040D01*
Y375940D01*
X488460D01*
Y374264D01*
X474660D01*
X470862Y378062D01*
X471348Y379236D01*
X488460D01*
Y377560D01*
X510040D01*
Y388640D01*
X488460D01*
Y386964D01*
X470865D01*
X461390Y396438D01*
X461671Y397954D01*
X463108Y398914D01*
X464443Y400912D01*
X464912Y403268D01*
X465479Y403960D01*
X468290D01*
Y407136D01*
X469680D01*
Y403960D01*
X482295D01*
X488460Y397795D01*
Y390260D01*
X510040D01*
Y401340D01*
X497873D01*
X497500Y401414D01*
X495771D01*
X487760Y409425D01*
Y418040D01*
X469680D01*
Y414864D01*
X468290D01*
Y418040D01*
X450210D01*
Y409278D01*
X449037Y408792D01*
X447888Y409940D01*
X448002Y410511D01*
X447533Y412868D01*
X446198Y414866D01*
X444200Y416201D01*
X441844Y416670D01*
X441273Y416556D01*
X406164Y451665D01*
Y477710D01*
X407840D01*
Y500790D01*
X396760D01*
Y477710D01*
X398436D01*
Y452148D01*
X397262Y451662D01*
X393464Y455460D01*
Y477710D01*
X395140D01*
Y500790D01*
X384060D01*
Y477710D01*
X385736D01*
Y453859D01*
X386030Y452381D01*
X386868Y451127D01*
X404879Y433116D01*
X404069Y432129D01*
X402857Y432939D01*
X400500Y433408D01*
X399922Y433293D01*
X392701Y440514D01*
X391447Y441352D01*
X389969Y441646D01*
X359046D01*
X358719Y442136D01*
X358012Y442608D01*
Y443878D01*
X358719Y444350D01*
X360054Y446348D01*
X360522Y448704D01*
X360054Y451061D01*
X358719Y453059D01*
X356721Y454394D01*
X354364Y454863D01*
X352007Y454394D01*
X350009Y453059D01*
X349682Y452569D01*
X207633D01*
X206954Y452569D01*
X206790Y452704D01*
X206790Y453580D01*
Y460988D01*
X214991Y469188D01*
X215569Y469073D01*
X217926Y469542D01*
X219924Y470877D01*
X221259Y472875D01*
X221727Y475232D01*
X221259Y477588D01*
X219924Y479586D01*
X219433Y479914D01*
Y507872D01*
X225620Y514058D01*
X226793Y513572D01*
Y501553D01*
X230706D01*
X231660Y500790D01*
Y498316D01*
X231641Y498219D01*
X231660Y498122D01*
Y477710D01*
X242740D01*
Y500790D01*
X241827D01*
X240873Y501553D01*
Y519633D01*
X237698D01*
Y521053D01*
X240873D01*
Y539115D01*
X254391D01*
X258715Y534791D01*
Y500790D01*
X257060D01*
Y477710D01*
X268140D01*
Y490476D01*
X268252Y491037D01*
X268140Y491600D01*
Y493917D01*
X269410Y494570D01*
X269760Y494319D01*
Y477710D01*
X280840D01*
Y500790D01*
X275020D01*
X272885Y502925D01*
Y509960D01*
X286777D01*
X286902Y508690D01*
X285643Y508439D01*
X283645Y507105D01*
X282311Y505107D01*
X281842Y502750D01*
X282311Y500393D01*
X282460Y500169D01*
Y477710D01*
X293540D01*
Y499112D01*
X294810Y499622D01*
X295160Y499256D01*
Y477710D01*
X306240D01*
Y500169D01*
X306390Y500393D01*
X306858Y502750D01*
X306390Y505107D01*
X305055Y507105D01*
X303057Y508439D01*
X300700Y508908D01*
X298343Y508439D01*
X296345Y507105D01*
X295011Y505107D01*
X294998Y505041D01*
X293703D01*
X293690Y505107D01*
X292355Y507105D01*
X290357Y508439D01*
X289098Y508690D01*
X289223Y509960D01*
X289540D01*
Y518349D01*
X290881Y518615D01*
X292440Y519657D01*
X293710Y519083D01*
Y510210D01*
X310790D01*
Y518789D01*
X312107Y519051D01*
X313440Y519942D01*
X314710Y519263D01*
Y510210D01*
X331790D01*
Y518670D01*
X333704Y519051D01*
X333940Y519208D01*
X335210Y518529D01*
Y504322D01*
X335206Y504308D01*
X335210Y504259D01*
Y504114D01*
X335191Y504015D01*
X335210Y503921D01*
Y501460D01*
X334217Y500790D01*
X333260D01*
Y477710D01*
X344340D01*
Y498006D01*
X344354Y498061D01*
X344344Y498140D01*
X344359Y498219D01*
X344340Y498316D01*
Y500790D01*
X345332Y501460D01*
X349290D01*
Y519540D01*
X336549D01*
X335986Y520810D01*
X337037Y522384D01*
X337506Y524740D01*
X337037Y527097D01*
X335702Y529095D01*
X333704Y530430D01*
X331348Y530899D01*
X328991Y530430D01*
X326993Y529095D01*
X325658Y527097D01*
X325498Y526290D01*
X315600D01*
X315440Y527097D01*
X314105Y529095D01*
X312107Y530430D01*
X309750Y530899D01*
X307393Y530430D01*
X305395Y529095D01*
X304060Y527097D01*
X303900Y526290D01*
X294287D01*
X294214Y526662D01*
X292878Y528660D01*
X290881Y529995D01*
X288524Y530463D01*
X286167Y529995D01*
X284169Y528660D01*
X282834Y526662D01*
X282711Y526040D01*
X272885D01*
Y539000D01*
X272589Y540487D01*
X271747Y541747D01*
X256747Y556747D01*
X255487Y557589D01*
X254000Y557885D01*
X224489D01*
X224174Y558355D01*
X222952Y559172D01*
X223337Y560442D01*
X633011D01*
X633263Y559172D01*
D02*
G37*
G36*
X216824Y478628D02*
X216864Y478144D01*
X216899Y477929D01*
X216944Y477732D01*
X216999Y477553D01*
X217064Y477392D01*
X217139Y477249D01*
X217224Y477124D01*
X217319Y477017D01*
X213819D01*
X213914Y477124D01*
X213999Y477249D01*
X214074Y477392D01*
X214139Y477553D01*
X214194Y477732D01*
X214239Y477929D01*
X214274Y478144D01*
X214299Y478377D01*
X214319Y478897D01*
X216819D01*
X216824Y478628D01*
D02*
G37*
G36*
X215544Y472732D02*
X215401Y472723D01*
X215253Y472695D01*
X215099Y472647D01*
X214939Y472579D01*
X214773Y472491D01*
X214602Y472384D01*
X214426Y472257D01*
X214243Y472110D01*
X213861Y471756D01*
X212094Y473524D01*
X212280Y473718D01*
X212594Y474088D01*
X212721Y474265D01*
X212829Y474436D01*
X212916Y474601D01*
X212984Y474761D01*
X213032Y474915D01*
X213061Y475064D01*
X213069Y475207D01*
X215544Y472732D01*
D02*
G37*
G36*
X49676Y470267D02*
X49647Y470501D01*
X49559Y470711D01*
X49413Y470896D01*
X49208Y471056D01*
X48945Y471192D01*
X48623Y471303D01*
X48243Y471389D01*
X47804Y471451D01*
X47307Y471488D01*
X46752Y471500D01*
Y474000D01*
X47307Y474012D01*
X48243Y474111D01*
X48623Y474197D01*
X48945Y474308D01*
X49208Y474444D01*
X49413Y474604D01*
X49559Y474789D01*
X49647Y474999D01*
X49676Y475233D01*
Y470267D01*
D02*
G37*
G36*
X49542Y457767D02*
X49521Y458001D01*
X49443Y458211D01*
X49307Y458396D01*
X49114Y458556D01*
X48864Y458692D01*
X48556Y458803D01*
X48191Y458889D01*
X47769Y458951D01*
X47289Y458988D01*
X46752Y459000D01*
Y461500D01*
X47177Y461511D01*
X47572Y461544D01*
X47939Y461600D01*
X48277Y461678D01*
X48585Y461777D01*
X48864Y461899D01*
X49115Y462044D01*
X49336Y462210D01*
X49528Y462399D01*
X49690Y462609D01*
X49542Y457767D01*
D02*
G37*
G36*
X163139Y461758D02*
X163205Y461546D01*
X163328Y461360D01*
X163506Y461198D01*
X163740Y461061D01*
X164030Y460949D01*
X164375Y460862D01*
X164777Y460800D01*
X165235Y460762D01*
X165748Y460750D01*
X165689Y458250D01*
X165233Y458242D01*
X164433Y458182D01*
X164090Y458129D01*
X163783Y458060D01*
X163514Y457977D01*
X163282Y457878D01*
X163087Y457764D01*
X162930Y457635D01*
X162810Y457491D01*
X163129Y461994D01*
X163139Y461758D01*
D02*
G37*
G36*
X191280Y457000D02*
X191255Y457238D01*
X191180Y457450D01*
X191056Y457637D01*
X190881Y457800D01*
X190655Y457938D01*
X190380Y458050D01*
X190056Y458138D01*
X189681Y458200D01*
X189256Y458237D01*
X188780Y458250D01*
Y460750D01*
X189256Y460762D01*
X189681Y460800D01*
X190056Y460863D01*
X190380Y460950D01*
X190655Y461063D01*
X190881Y461200D01*
X191056Y461362D01*
X191180Y461550D01*
X191255Y461763D01*
X191280Y462000D01*
Y457000D01*
D02*
G37*
G36*
X185214Y461763D02*
X185290Y461550D01*
X185417Y461362D01*
X185594Y461200D01*
X185822Y461063D01*
X186100Y460950D01*
X186429Y460863D01*
X186808Y460800D01*
X187239Y460762D01*
X187719Y460750D01*
Y458250D01*
X187239Y458237D01*
X186808Y458200D01*
X186429Y458138D01*
X186100Y458050D01*
X185822Y457938D01*
X185594Y457800D01*
X185417Y457637D01*
X185290Y457450D01*
X185214Y457238D01*
X185189Y457000D01*
Y462000D01*
X185214Y461763D01*
D02*
G37*
G36*
X172281Y457000D02*
X172255Y457238D01*
X172181Y457450D01*
X172055Y457637D01*
X171880Y457800D01*
X171656Y457938D01*
X171381Y458050D01*
X171056Y458138D01*
X170681Y458200D01*
X170256Y458237D01*
X169781Y458250D01*
Y460750D01*
X170256Y460762D01*
X170681Y460800D01*
X171056Y460863D01*
X171381Y460950D01*
X171656Y461063D01*
X171880Y461200D01*
X172055Y461362D01*
X172181Y461550D01*
X172255Y461763D01*
X172281Y462000D01*
Y457000D01*
D02*
G37*
G36*
X-30858Y458405D02*
X-30733Y458320D01*
X-30590Y458245D01*
X-30429Y458180D01*
X-30250Y458125D01*
X-30053Y458080D01*
X-29838Y458045D01*
X-29605Y458020D01*
X-29085Y458000D01*
Y455500D01*
X-29354Y455495D01*
X-29838Y455455D01*
X-30053Y455420D01*
X-30250Y455375D01*
X-30429Y455320D01*
X-30590Y455255D01*
X-30733Y455180D01*
X-30858Y455095D01*
X-30965Y455000D01*
Y458500D01*
X-30858Y458405D01*
D02*
G37*
G36*
X16957Y455488D02*
X16955Y449500D01*
X-31728Y449500D01*
X-31853Y450770D01*
X-30393Y451060D01*
X-28395Y452395D01*
X-28068Y452886D01*
X-2000D01*
X-521Y453180D01*
X732Y454018D01*
X3101Y456386D01*
X16060D01*
X16957Y455488D01*
D02*
G37*
G36*
X352579Y446954D02*
X352472Y447049D01*
X352347Y447135D01*
X352204Y447210D01*
X352043Y447275D01*
X351864Y447329D01*
X351667Y447374D01*
X351452Y447410D01*
X351219Y447435D01*
X350699Y447454D01*
Y449954D01*
X350968Y449959D01*
X351452Y450000D01*
X351667Y450034D01*
X351864Y450079D01*
X352043Y450135D01*
X352204Y450200D01*
X352347Y450275D01*
X352472Y450359D01*
X352579Y450454D01*
Y446954D01*
D02*
G37*
G36*
X356256Y439436D02*
X356381Y439351D01*
X356525Y439276D01*
X356685Y439211D01*
X356864Y439156D01*
X357061Y439111D01*
X357276Y439076D01*
X357509Y439051D01*
X358029Y439031D01*
Y436531D01*
X357760Y436526D01*
X357276Y436487D01*
X357061Y436451D01*
X356864Y436406D01*
X356685Y436352D01*
X356525Y436287D01*
X356381Y436211D01*
X356256Y436127D01*
X356149Y436031D01*
Y439532D01*
X356256Y439436D01*
D02*
G37*
G36*
X352579Y436031D02*
X352472Y436127D01*
X352347Y436211D01*
X352204Y436287D01*
X352043Y436352D01*
X351864Y436406D01*
X351667Y436451D01*
X351452Y436487D01*
X351219Y436511D01*
X350699Y436531D01*
Y439031D01*
X350968Y439036D01*
X351452Y439076D01*
X351667Y439111D01*
X351864Y439156D01*
X352043Y439211D01*
X352204Y439276D01*
X352347Y439351D01*
X352472Y439436D01*
X352579Y439532D01*
Y436031D01*
D02*
G37*
G36*
X200263Y431286D02*
X200050Y431210D01*
X199862Y431083D01*
X199700Y430906D01*
X199562Y430678D01*
X199450Y430400D01*
X199363Y430071D01*
X199300Y429692D01*
X199263Y429261D01*
X199250Y428781D01*
X196750D01*
X196737Y429261D01*
X196700Y429692D01*
X196637Y430071D01*
X196550Y430400D01*
X196437Y430678D01*
X196300Y430906D01*
X196138Y431083D01*
X195950Y431210D01*
X195737Y431286D01*
X195500Y431311D01*
X200500D01*
X200263Y431286D01*
D02*
G37*
G36*
X398986Y430539D02*
X399356Y430225D01*
X399533Y430098D01*
X399704Y429990D01*
X399870Y429903D01*
X400029Y429835D01*
X400184Y429787D01*
X400332Y429758D01*
X400475Y429750D01*
X398000Y427275D01*
X397992Y427418D01*
X397963Y427566D01*
X397915Y427720D01*
X397847Y427880D01*
X397760Y428046D01*
X397652Y428217D01*
X397525Y428394D01*
X397378Y428576D01*
X397025Y428958D01*
X398792Y430726D01*
X398986Y430539D01*
D02*
G37*
G36*
X352579Y424250D02*
X352475Y424341D01*
X352353Y424423D01*
X352213Y424495D01*
X352054Y424557D01*
X351876Y424610D01*
X351680Y424653D01*
X351466Y424687D01*
X351233Y424711D01*
X350711Y424730D01*
Y427270D01*
X350981Y427275D01*
X351466Y427313D01*
X351680Y427347D01*
X351876Y427390D01*
X352054Y427443D01*
X352213Y427505D01*
X352353Y427577D01*
X352475Y427659D01*
X352579Y427750D01*
Y424250D01*
D02*
G37*
G36*
X199263Y424489D02*
X199300Y424058D01*
X199363Y423679D01*
X199450Y423350D01*
X199562Y423072D01*
X199700Y422844D01*
X199862Y422667D01*
X200050Y422540D01*
X200263Y422464D01*
X200500Y422439D01*
X195500D01*
X195737Y422464D01*
X195950Y422540D01*
X196138Y422667D01*
X196300Y422844D01*
X196437Y423072D01*
X196550Y423350D01*
X196637Y423679D01*
X196700Y424058D01*
X196737Y424489D01*
X196750Y424969D01*
X199250D01*
X199263Y424489D01*
D02*
G37*
G36*
X227250Y417690D02*
X227064Y417496D01*
X226750Y417126D01*
X226623Y416949D01*
X226515Y416778D01*
X226427Y416612D01*
X226360Y416452D01*
X226311Y416298D01*
X226283Y416150D01*
X226275Y416007D01*
X223800Y418482D01*
X223943Y418490D01*
X224091Y418518D01*
X224245Y418567D01*
X224405Y418634D01*
X224571Y418722D01*
X224742Y418830D01*
X224918Y418957D01*
X225101Y419104D01*
X225483Y419457D01*
X227250Y417690D01*
D02*
G37*
G36*
X220494Y418244D02*
X220569Y418032D01*
X220695Y417844D01*
X220870Y417682D01*
X221094Y417544D01*
X221369Y417432D01*
X221449Y417411D01*
X221453Y417412D01*
X221614Y417477D01*
X221757Y417552D01*
X221882Y417637D01*
X221989Y417732D01*
Y417295D01*
X222069Y417282D01*
X222495Y417244D01*
X222969Y417232D01*
Y414732D01*
X222495Y414719D01*
X222069Y414682D01*
X221989Y414669D01*
Y414232D01*
X221882Y414327D01*
X221757Y414412D01*
X221614Y414487D01*
X221453Y414552D01*
X221449Y414553D01*
X221369Y414532D01*
X221094Y414419D01*
X220870Y414282D01*
X220695Y414119D01*
X220569Y413932D01*
X220494Y413719D01*
X220469Y413482D01*
Y414718D01*
X220110Y414732D01*
Y417232D01*
X220379Y417237D01*
X220469Y417244D01*
Y418482D01*
X220494Y418244D01*
D02*
G37*
G36*
X352465Y413000D02*
X352361Y413091D01*
X352239Y413173D01*
X352099Y413245D01*
X351940Y413307D01*
X351762Y413360D01*
X351566Y413403D01*
X351352Y413437D01*
X351119Y413461D01*
X350597Y413480D01*
Y416020D01*
X350867Y416025D01*
X351352Y416063D01*
X351566Y416097D01*
X351762Y416140D01*
X351940Y416193D01*
X352099Y416255D01*
X352239Y416327D01*
X352361Y416409D01*
X352465Y416500D01*
Y413000D01*
D02*
G37*
G36*
X440337Y413802D02*
X440707Y413488D01*
X440884Y413360D01*
X441055Y413253D01*
X441220Y413165D01*
X441380Y413097D01*
X441534Y413049D01*
X441682Y413020D01*
X441825Y413011D01*
X439344Y410543D01*
X439336Y410686D01*
X439308Y410834D01*
X439260Y410989D01*
X439192Y411148D01*
X439105Y411314D01*
X438997Y411485D01*
X438870Y411662D01*
X438723Y411844D01*
X438370Y412226D01*
X440143Y413989D01*
X440337Y413802D01*
D02*
G37*
G36*
X472251Y408500D02*
X472225Y408737D01*
X472150Y408950D01*
X472025Y409137D01*
X471851Y409300D01*
X471626Y409437D01*
X471351Y409550D01*
X471026Y409637D01*
X470650Y409700D01*
X470225Y409738D01*
X469751Y409750D01*
Y412250D01*
X470225Y412262D01*
X470650Y412300D01*
X471026Y412363D01*
X471351Y412450D01*
X471626Y412562D01*
X471851Y412700D01*
X472025Y412863D01*
X472150Y413050D01*
X472225Y413262D01*
X472251Y413500D01*
Y408500D01*
D02*
G37*
G36*
X465714Y413262D02*
X465790Y413050D01*
X465917Y412863D01*
X466094Y412700D01*
X466322Y412562D01*
X466600Y412450D01*
X466929Y412363D01*
X467309Y412300D01*
X467739Y412262D01*
X468219Y412250D01*
Y409750D01*
X467739Y409738D01*
X467309Y409700D01*
X466929Y409637D01*
X466600Y409550D01*
X466322Y409437D01*
X466094Y409300D01*
X465917Y409137D01*
X465790Y408950D01*
X465714Y408737D01*
X465689Y408500D01*
Y413500D01*
X465714Y413262D01*
D02*
G37*
G36*
X444352Y410350D02*
X444381Y410202D01*
X444429Y410047D01*
X444497Y409888D01*
X444585Y409723D01*
X444693Y409552D01*
X444820Y409375D01*
X444967Y409192D01*
X445321Y408811D01*
X443559Y407038D01*
X443365Y407224D01*
X442994Y407538D01*
X442817Y407665D01*
X442646Y407772D01*
X442481Y407860D01*
X442321Y407928D01*
X442167Y407975D01*
X442018Y408003D01*
X441875Y408012D01*
X444344Y410493D01*
X444352Y410350D01*
D02*
G37*
G36*
X200263Y409536D02*
X200050Y409460D01*
X199862Y409333D01*
X199700Y409156D01*
X199562Y408928D01*
X199450Y408650D01*
X199363Y408321D01*
X199300Y407942D01*
X199263Y407511D01*
X199250Y407030D01*
X196750D01*
X196737Y407511D01*
X196700Y407942D01*
X196637Y408321D01*
X196550Y408650D01*
X196437Y408928D01*
X196300Y409156D01*
X196138Y409333D01*
X195950Y409460D01*
X195737Y409536D01*
X195500Y409561D01*
X200500D01*
X200263Y409536D01*
D02*
G37*
G36*
X289603Y406125D02*
X289635Y405725D01*
X289690Y405372D01*
X289765Y405066D01*
X289863Y404808D01*
X289982Y404596D01*
X290123Y404431D01*
X290285Y404314D01*
X290469Y404243D01*
X290675Y404220D01*
X285970D01*
X286175Y404243D01*
X286359Y404314D01*
X286522Y404431D01*
X286662Y404596D01*
X286781Y404808D01*
X286879Y405066D01*
X286955Y405372D01*
X287009Y405725D01*
X287041Y406125D01*
X287052Y406572D01*
X289592D01*
X289603Y406125D01*
D02*
G37*
G36*
X276583Y406277D02*
X276621Y405845D01*
X276684Y405464D01*
X276773Y405134D01*
X276887Y404855D01*
X277027Y404626D01*
X277192Y404448D01*
X277383Y404321D01*
X277599Y404245D01*
X277840Y404220D01*
X272760D01*
X273001Y404245D01*
X273217Y404321D01*
X273408Y404448D01*
X273573Y404626D01*
X273713Y404855D01*
X273827Y405134D01*
X273916Y405464D01*
X273979Y405845D01*
X274017Y406277D01*
X274030Y406759D01*
X276570D01*
X276583Y406277D01*
D02*
G37*
G36*
X391049Y406245D02*
X391077Y405921D01*
X391536D01*
X391441Y405814D01*
X391356Y405689D01*
X391281Y405546D01*
X391216Y405385D01*
X391189Y405296D01*
X391236Y405120D01*
X391349Y404845D01*
X391486Y404619D01*
X391649Y404445D01*
X391836Y404319D01*
X392049Y404244D01*
X392286Y404220D01*
X391043D01*
X391036Y404041D01*
X388536D01*
X388533Y404220D01*
X387286D01*
X387524Y404244D01*
X387736Y404319D01*
X387924Y404445D01*
X388086Y404619D01*
X388224Y404845D01*
X388336Y405120D01*
X388384Y405296D01*
X388356Y405385D01*
X388291Y405546D01*
X388216Y405689D01*
X388131Y405814D01*
X388036Y405921D01*
X388495D01*
X388524Y406245D01*
X388536Y406720D01*
X391036D01*
X391049Y406245D01*
D02*
G37*
G36*
X460009Y406665D02*
X460017Y406561D01*
X461254D01*
X461016Y406536D01*
X460803Y406460D01*
X460616Y406333D01*
X460453Y406156D01*
X460316Y405928D01*
X460203Y405650D01*
X460186Y405584D01*
X460248Y405429D01*
X460323Y405286D01*
X460409Y405161D01*
X460504Y405054D01*
X460072D01*
X460053Y404941D01*
X460016Y404511D01*
X460003Y404030D01*
X457504D01*
X457491Y404511D01*
X457453Y404941D01*
X457435Y405054D01*
X457004D01*
X457099Y405161D01*
X457183Y405286D01*
X457258Y405429D01*
X457321Y405584D01*
X457304Y405650D01*
X457191Y405928D01*
X457053Y406156D01*
X456891Y406333D01*
X456703Y406460D01*
X456491Y406536D01*
X456254Y406561D01*
X457489D01*
X457504Y406934D01*
X460003D01*
X460009Y406665D01*
D02*
G37*
G36*
X199263Y403739D02*
X199300Y403308D01*
X199363Y402929D01*
X199450Y402600D01*
X199562Y402322D01*
X199700Y402094D01*
X199862Y401917D01*
X200050Y401790D01*
X200263Y401714D01*
X200500Y401689D01*
X195500D01*
X195737Y401714D01*
X195950Y401790D01*
X196138Y401917D01*
X196300Y402094D01*
X196437Y402322D01*
X196550Y402600D01*
X196637Y402929D01*
X196700Y403308D01*
X196737Y403739D01*
X196750Y404220D01*
X199250D01*
X199263Y403739D01*
D02*
G37*
G36*
X427551Y400288D02*
X427065Y399114D01*
X407840D01*
Y406790D01*
X397057D01*
X395945Y407707D01*
X395476Y410063D01*
X394141Y412061D01*
X392143Y413396D01*
X389786Y413865D01*
X387430Y413396D01*
X385855Y412344D01*
X385045Y413330D01*
X387601Y415886D01*
X411953D01*
X427551Y400288D01*
D02*
G37*
G36*
X447628Y397603D02*
X448314Y397013D01*
X448461Y396909D01*
X448598Y396823D01*
X448726Y396755D01*
X448844Y396704D01*
X448952Y396671D01*
X445961Y394855D01*
X445984Y394997D01*
X445985Y395146D01*
X445963Y395300D01*
X445917Y395460D01*
X445848Y395625D01*
X445755Y395796D01*
X445639Y395974D01*
X445500Y396156D01*
X445338Y396345D01*
X445152Y396539D01*
X447432Y397795D01*
X447628Y397603D01*
D02*
G37*
G36*
X405264Y397513D02*
X405340Y397300D01*
X405467Y397113D01*
X405644Y396950D01*
X405872Y396813D01*
X406150Y396700D01*
X406479Y396613D01*
X406858Y396550D01*
X407289Y396512D01*
X407770Y396500D01*
Y394000D01*
X407289Y393988D01*
X406858Y393950D01*
X406479Y393887D01*
X406150Y393800D01*
X405872Y393688D01*
X405644Y393550D01*
X405467Y393387D01*
X405340Y393200D01*
X405264Y392988D01*
X405239Y392750D01*
Y397750D01*
X405264Y397513D01*
D02*
G37*
G36*
X450850Y394698D02*
X450901Y394580D01*
X450969Y394452D01*
X451055Y394315D01*
X451159Y394168D01*
X451419Y393844D01*
X451749Y393482D01*
X451941Y393286D01*
X450685Y391007D01*
X450491Y391192D01*
X450120Y391493D01*
X449942Y391609D01*
X449771Y391702D01*
X449605Y391771D01*
X449446Y391817D01*
X449292Y391839D01*
X449143Y391838D01*
X449001Y391814D01*
X450817Y394806D01*
X450850Y394698D01*
D02*
G37*
G36*
X431986Y394039D02*
X432356Y393725D01*
X432533Y393598D01*
X432704Y393490D01*
X432870Y393403D01*
X433030Y393335D01*
X433184Y393287D01*
X433332Y393258D01*
X433475Y393250D01*
X431000Y390775D01*
X430992Y390918D01*
X430963Y391066D01*
X430915Y391221D01*
X430847Y391380D01*
X430760Y391546D01*
X430652Y391717D01*
X430525Y391894D01*
X430378Y392076D01*
X430024Y392458D01*
X431792Y394225D01*
X431986Y394039D01*
D02*
G37*
G36*
X436008Y390582D02*
X436037Y390434D01*
X436085Y390280D01*
X436153Y390120D01*
X436240Y389954D01*
X436348Y389783D01*
X436475Y389606D01*
X436622Y389424D01*
X436976Y389042D01*
X435208Y387275D01*
X435014Y387461D01*
X434644Y387775D01*
X434467Y387902D01*
X434296Y388010D01*
X434130Y388097D01*
X433970Y388165D01*
X433816Y388213D01*
X433668Y388242D01*
X433525Y388250D01*
X436000Y390725D01*
X436008Y390582D01*
D02*
G37*
G36*
X365426Y387901D02*
X365478Y387418D01*
X365518Y387204D01*
X365568Y387008D01*
X365628Y386831D01*
X365697Y386671D01*
X365775Y386530D01*
X365863Y386408D01*
X365954Y386311D01*
X366019D01*
X365913Y386293D01*
X365820Y386239D01*
X365738Y386149D01*
X365669Y386023D01*
X365612Y385860D01*
X365566Y385662D01*
X365533Y385427D01*
X365512Y385156D01*
X365506Y384506D01*
X363007Y384443D01*
X362993Y384798D01*
X362933Y385396D01*
X362888Y385638D01*
X362833Y385844D01*
X362767Y386012D01*
X362692Y386143D01*
X362622Y386219D01*
X362462Y386215D01*
X362522Y386285D01*
X362510Y386292D01*
X362404Y386311D01*
X362543D01*
X362555Y386324D01*
X362636Y386451D01*
X362708Y386596D01*
X362769Y386759D01*
X362819Y386939D01*
X362859Y387137D01*
X362889Y387353D01*
X362908Y387586D01*
X362915Y388107D01*
X365414Y388170D01*
X365426Y387901D01*
D02*
G37*
G36*
X392012Y386286D02*
X391800Y386210D01*
X391613Y386083D01*
X391450Y385906D01*
X391312Y385678D01*
X391200Y385400D01*
X391113Y385071D01*
X391050Y384692D01*
X391012Y384261D01*
X391000Y383781D01*
X388500D01*
X388488Y384261D01*
X388450Y384692D01*
X388387Y385071D01*
X388300Y385400D01*
X388187Y385678D01*
X388050Y385906D01*
X387887Y386083D01*
X387700Y386210D01*
X387487Y386286D01*
X387250Y386311D01*
X392250D01*
X392012Y386286D01*
D02*
G37*
G36*
X354469Y386281D02*
X354475Y386255D01*
X354481Y386180D01*
X354497Y385056D01*
X354500Y383781D01*
X352000D01*
X351987Y384259D01*
X351950Y384688D01*
X351888Y385067D01*
X351800Y385395D01*
X351688Y385673D01*
X351550Y385901D01*
X351387Y386079D01*
X351200Y386207D01*
X350988Y386284D01*
X350750Y386311D01*
X354469Y386281D01*
D02*
G37*
G36*
X302950Y386286D02*
X302738Y386210D01*
X302551Y386083D01*
X302388Y385906D01*
X302250Y385678D01*
X302138Y385400D01*
X302053Y385080D01*
X302063Y385036D01*
X302118Y384857D01*
X302183Y384696D01*
X302258Y384553D01*
X302343Y384428D01*
X302438Y384321D01*
X301956D01*
X301950Y384261D01*
X301938Y383781D01*
X299438D01*
X299426Y384261D01*
X299420Y384321D01*
X298938D01*
X299033Y384428D01*
X299118Y384553D01*
X299193Y384696D01*
X299258Y384857D01*
X299313Y385036D01*
X299323Y385080D01*
X299238Y385400D01*
X299125Y385678D01*
X298988Y385906D01*
X298825Y386083D01*
X298638Y386210D01*
X298426Y386286D01*
X298188Y386311D01*
X303188D01*
X302950Y386286D01*
D02*
G37*
G36*
X422841Y386129D02*
X422966Y386044D01*
X423110Y385969D01*
X423270Y385904D01*
X423449Y385849D01*
X423646Y385804D01*
X423861Y385769D01*
X424094Y385744D01*
X424614Y385724D01*
Y383224D01*
X424345Y383219D01*
X423861Y383179D01*
X423646Y383144D01*
X423449Y383099D01*
X423270Y383044D01*
X423110Y382979D01*
X422966Y382904D01*
X422841Y382819D01*
X422734Y382724D01*
Y386224D01*
X422841Y386129D01*
D02*
G37*
G36*
X491031Y380600D02*
X491006Y380838D01*
X490930Y381050D01*
X490806Y381237D01*
X490630Y381400D01*
X490406Y381538D01*
X490131Y381650D01*
X489805Y381738D01*
X489431Y381800D01*
X489006Y381838D01*
X488531Y381850D01*
Y384350D01*
X489006Y384362D01*
X489431Y384400D01*
X489805Y384463D01*
X490131Y384550D01*
X490406Y384663D01*
X490630Y384800D01*
X490806Y384963D01*
X490930Y385150D01*
X491006Y385363D01*
X491031Y385600D01*
Y380600D01*
D02*
G37*
G36*
X391012Y381739D02*
X391050Y381309D01*
X391113Y380929D01*
X391200Y380600D01*
X391312Y380322D01*
X391450Y380094D01*
X391613Y379917D01*
X391800Y379790D01*
X392012Y379714D01*
X392250Y379689D01*
X387250D01*
X387487Y379714D01*
X387700Y379790D01*
X387887Y379917D01*
X388050Y380094D01*
X388187Y380322D01*
X388300Y380600D01*
X388387Y380929D01*
X388450Y381309D01*
X388488Y381739D01*
X388500Y382220D01*
X391000D01*
X391012Y381739D01*
D02*
G37*
G36*
X371576Y383545D02*
X371735Y383423D01*
X371685Y381861D01*
X371422Y381686D01*
X370087Y379688D01*
X369619Y377332D01*
X370087Y374975D01*
X371422Y372977D01*
X373420Y371642D01*
X375777Y371173D01*
X378134Y371642D01*
X380132Y372977D01*
X381440Y374935D01*
X381547Y374959D01*
X382710Y374724D01*
Y364210D01*
X382710D01*
Y363040D01*
X382710D01*
Y344960D01*
X385747D01*
Y342765D01*
X386041Y341287D01*
X386879Y340033D01*
X395030Y331882D01*
X395030Y331882D01*
X396284Y331044D01*
X397763Y330750D01*
X435036D01*
X437072Y328713D01*
X436586Y327540D01*
X385777D01*
X357114Y356203D01*
Y382911D01*
X358384Y383036D01*
X358567Y382117D01*
X359902Y380120D01*
X361900Y378785D01*
X364257Y378316D01*
X366613Y378785D01*
X368611Y380120D01*
X369946Y382117D01*
X370132Y383053D01*
X371366Y383617D01*
X371576Y383545D01*
D02*
G37*
G36*
X491031Y367900D02*
X491006Y368138D01*
X490930Y368350D01*
X490806Y368537D01*
X490630Y368700D01*
X490406Y368838D01*
X490131Y368950D01*
X489805Y369038D01*
X489431Y369100D01*
X489006Y369137D01*
X488531Y369150D01*
Y371650D01*
X489006Y371662D01*
X489431Y371700D01*
X489805Y371763D01*
X490131Y371850D01*
X490406Y371963D01*
X490630Y372100D01*
X490806Y372262D01*
X490930Y372450D01*
X491006Y372663D01*
X491031Y372900D01*
Y367900D01*
D02*
G37*
G36*
X392012Y366755D02*
X391800Y366680D01*
X391613Y366555D01*
X391450Y366381D01*
X391312Y366156D01*
X391200Y365881D01*
X391113Y365555D01*
X391050Y365181D01*
X391012Y364756D01*
X391000Y364281D01*
X388500D01*
X388488Y364756D01*
X388450Y365181D01*
X388387Y365555D01*
X388300Y365881D01*
X388187Y366156D01*
X388050Y366381D01*
X387887Y366555D01*
X387700Y366680D01*
X387487Y366755D01*
X387250Y366781D01*
X392250D01*
X392012Y366755D01*
D02*
G37*
G36*
X391012Y362489D02*
X391050Y362058D01*
X391113Y361679D01*
X391200Y361350D01*
X391312Y361072D01*
X391450Y360844D01*
X391613Y360667D01*
X391800Y360540D01*
X392012Y360464D01*
X392250Y360439D01*
X387250D01*
X387487Y360464D01*
X387700Y360540D01*
X387887Y360667D01*
X388050Y360844D01*
X388187Y361072D01*
X388300Y361350D01*
X388387Y361679D01*
X388450Y362058D01*
X388488Y362489D01*
X388500Y362970D01*
X391000D01*
X391012Y362489D01*
D02*
G37*
G36*
X491031Y355200D02*
X491006Y355438D01*
X490930Y355650D01*
X490806Y355838D01*
X490630Y356000D01*
X490406Y356138D01*
X490131Y356250D01*
X489805Y356338D01*
X489431Y356400D01*
X489006Y356437D01*
X488531Y356450D01*
Y358950D01*
X489006Y358963D01*
X489431Y359000D01*
X489805Y359062D01*
X490131Y359150D01*
X490406Y359263D01*
X490630Y359400D01*
X490806Y359562D01*
X490930Y359750D01*
X491006Y359963D01*
X491031Y360200D01*
Y355200D01*
D02*
G37*
G36*
X391874Y347505D02*
X391662Y347430D01*
X391474Y347305D01*
X391312Y347131D01*
X391174Y346906D01*
X391062Y346631D01*
X390974Y346306D01*
X390912Y345930D01*
X390874Y345505D01*
X390862Y345031D01*
X388362D01*
X388349Y345505D01*
X388312Y345930D01*
X388249Y346306D01*
X388162Y346631D01*
X388049Y346906D01*
X387912Y347131D01*
X387749Y347305D01*
X387562Y347430D01*
X387349Y347505D01*
X387112Y347531D01*
X392112D01*
X391874Y347505D01*
D02*
G37*
G36*
X491031Y342500D02*
X491006Y342738D01*
X490930Y342950D01*
X490806Y343138D01*
X490630Y343300D01*
X490406Y343438D01*
X490131Y343550D01*
X489805Y343638D01*
X489431Y343700D01*
X489006Y343737D01*
X488531Y343750D01*
Y346250D01*
X489006Y346263D01*
X489431Y346300D01*
X489805Y346362D01*
X490131Y346450D01*
X490406Y346562D01*
X490630Y346700D01*
X490806Y346862D01*
X490930Y347050D01*
X491006Y347262D01*
X491031Y347500D01*
Y342500D01*
D02*
G37*
G36*
X466725Y342810D02*
X466199Y341540D01*
X455175D01*
X426246Y370469D01*
Y370968D01*
X427210Y372412D01*
X427679Y374768D01*
X427210Y377125D01*
X425944Y379020D01*
X425872Y379144D01*
X425833Y379383D01*
X426781Y380610D01*
X428925D01*
X466725Y342810D01*
D02*
G37*
G36*
X475028Y340797D02*
X475059Y340409D01*
X475109Y340065D01*
X475180Y339768D01*
X475271Y339516D01*
X475383Y339309D01*
X475514Y339148D01*
X475666Y339033D01*
X475838Y338963D01*
X476031Y338939D01*
X471870Y338969D01*
X471994Y338992D01*
X472104Y339060D01*
X472201Y339173D01*
X472285Y339331D01*
X472356Y339535D01*
X472415Y339784D01*
X472460Y340078D01*
X472492Y340417D01*
X472518Y341232D01*
X475018D01*
X475028Y340797D01*
D02*
G37*
G36*
X484806Y336012D02*
X484883Y335800D01*
X485011Y335612D01*
X485188Y335450D01*
X485416Y335312D01*
X485694Y335200D01*
X486023Y335112D01*
X486401Y335050D01*
X486830Y335013D01*
X487309Y335000D01*
Y332500D01*
X486834Y332495D01*
X485709Y332425D01*
X485434Y332383D01*
X485210Y332331D01*
X485034Y332270D01*
X484910Y332200D01*
X484835Y332120D01*
X484809Y332030D01*
X484779Y336250D01*
X484806Y336012D01*
D02*
G37*
G36*
X491031Y331250D02*
X491006Y331488D01*
X490930Y331700D01*
X490806Y331888D01*
X490630Y332050D01*
X490406Y332188D01*
X490131Y332300D01*
X489805Y332388D01*
X489431Y332450D01*
X489006Y332487D01*
X488531Y332500D01*
Y335000D01*
X489006Y335003D01*
X490806Y335132D01*
X490930Y335173D01*
X491006Y335218D01*
X491031Y335270D01*
Y331250D01*
D02*
G37*
G36*
Y316630D02*
X491006Y316653D01*
X490930Y316674D01*
X490806Y316691D01*
X490630Y316707D01*
X489431Y316745D01*
X488531Y316750D01*
Y319250D01*
X489006Y319263D01*
X489431Y319300D01*
X489805Y319363D01*
X490131Y319450D01*
X490406Y319562D01*
X490630Y319700D01*
X490806Y319862D01*
X490930Y320050D01*
X491006Y320262D01*
X491031Y320500D01*
Y316630D01*
D02*
G37*
G36*
X484835Y319833D02*
X484910Y319711D01*
X485034Y319603D01*
X485210Y319509D01*
X485434Y319430D01*
X485709Y319365D01*
X486035Y319315D01*
X486409Y319279D01*
X487309Y319250D01*
Y316750D01*
X486830Y316737D01*
X486401Y316700D01*
X486022Y316637D01*
X485694Y316550D01*
X485416Y316437D01*
X485188Y316300D01*
X485010Y316138D01*
X484883Y315950D01*
X484806Y315737D01*
X484779Y315500D01*
X484809Y319970D01*
X484835Y319833D01*
D02*
G37*
G36*
X471901Y314000D02*
X471876Y314237D01*
X471800Y314450D01*
X471673Y314638D01*
X471496Y314800D01*
X471268Y314937D01*
X470990Y315050D01*
X470661Y315138D01*
X470281Y315200D01*
X469851Y315238D01*
X469370Y315250D01*
Y317750D01*
X469851Y317763D01*
X470281Y317800D01*
X470661Y317862D01*
X470990Y317950D01*
X471268Y318062D01*
X471496Y318200D01*
X471673Y318363D01*
X471800Y318550D01*
X471876Y318762D01*
X471901Y319000D01*
Y314000D01*
D02*
G37*
G36*
X465214Y318762D02*
X465290Y318550D01*
X465417Y318363D01*
X465594Y318200D01*
X465822Y318062D01*
X466100Y317950D01*
X466429Y317862D01*
X466809Y317800D01*
X467239Y317763D01*
X467719Y317750D01*
Y315250D01*
X467239Y315238D01*
X466809Y315200D01*
X466429Y315138D01*
X466100Y315050D01*
X465822Y314937D01*
X465594Y314800D01*
X465417Y314638D01*
X465290Y314450D01*
X465214Y314237D01*
X465189Y314000D01*
Y319000D01*
X465214Y318762D01*
D02*
G37*
G36*
X461016Y313006D02*
X460803Y312931D01*
X460616Y312806D01*
X460453Y312631D01*
X460316Y312405D01*
X460203Y312131D01*
X460116Y311805D01*
X460053Y311430D01*
X460016Y311005D01*
X460003Y310530D01*
X457504D01*
X457491Y311005D01*
X457453Y311430D01*
X457391Y311805D01*
X457304Y312131D01*
X457191Y312405D01*
X457053Y312631D01*
X456891Y312806D01*
X456703Y312931D01*
X456491Y313006D01*
X456254Y313030D01*
X461254D01*
X461016Y313006D01*
D02*
G37*
G36*
X460009Y309326D02*
X460048Y308843D01*
X460084Y308628D01*
X460129Y308431D01*
X460183Y308252D01*
X460248Y308091D01*
X460323Y307948D01*
X460409Y307823D01*
X460504Y307716D01*
X457004D01*
X457099Y307823D01*
X457183Y307948D01*
X457258Y308091D01*
X457323Y308252D01*
X457379Y308431D01*
X457424Y308628D01*
X457458Y308843D01*
X457483Y309076D01*
X457504Y309595D01*
X460003D01*
X460009Y309326D01*
D02*
G37*
G36*
X412513Y305036D02*
X412300Y304960D01*
X412113Y304833D01*
X411950Y304656D01*
X411813Y304428D01*
X411700Y304150D01*
X411613Y303821D01*
X411550Y303442D01*
X411512Y303011D01*
X411500Y302530D01*
X409000D01*
X408988Y303011D01*
X408950Y303442D01*
X408887Y303821D01*
X408800Y304150D01*
X408688Y304428D01*
X408550Y304656D01*
X408387Y304833D01*
X408200Y304960D01*
X407988Y305036D01*
X407750Y305061D01*
X412750D01*
X412513Y305036D01*
D02*
G37*
G36*
X479452Y285541D02*
X479345Y285636D01*
X479220Y285721D01*
X479077Y285796D01*
X478916Y285861D01*
X478737Y285916D01*
X478540Y285961D01*
X478326Y285996D01*
X478093Y286021D01*
X477573Y286041D01*
Y288541D01*
X477842Y288546D01*
X478326Y288586D01*
X478540Y288621D01*
X478737Y288666D01*
X478916Y288721D01*
X479077Y288786D01*
X479220Y288861D01*
X479345Y288946D01*
X479452Y289041D01*
Y285541D01*
D02*
G37*
G36*
X411512Y282739D02*
X411550Y282309D01*
X411613Y281929D01*
X411700Y281600D01*
X411813Y281322D01*
X411950Y281094D01*
X412113Y280917D01*
X412300Y280790D01*
X412513Y280714D01*
X412750Y280689D01*
X407750D01*
X407988Y280714D01*
X408200Y280790D01*
X408387Y280917D01*
X408550Y281094D01*
X408688Y281322D01*
X408800Y281600D01*
X408887Y281929D01*
X408950Y282309D01*
X408988Y282739D01*
X409000Y283220D01*
X411500D01*
X411512Y282739D01*
D02*
G37*
G36*
X676750Y5392D02*
Y-20000D01*
X650295D01*
X650145Y-18730D01*
X653947Y-17817D01*
X658679Y-15857D01*
X663046Y-13181D01*
X666940Y-9855D01*
X670267Y-5960D01*
X672943Y-1593D01*
X674903Y3139D01*
X675480Y5542D01*
X676750Y5392D01*
D02*
G37*
%LPC*%
G36*
X232808Y523832D02*
X232536Y523820D01*
X232231Y523741D01*
X232031Y523654D01*
X233256D01*
X233048Y523777D01*
X232808Y523832D01*
D02*
G37*
G36*
X-61400Y555908D02*
X-63757Y555440D01*
X-65755Y554105D01*
X-67090Y552107D01*
X-67558Y549750D01*
X-67090Y547393D01*
X-65755Y545395D01*
X-63757Y544061D01*
X-61400Y543592D01*
X-59043Y544061D01*
X-57045Y545395D01*
X-55711Y547393D01*
X-55242Y549750D01*
X-55711Y552107D01*
X-57045Y554105D01*
X-59043Y555440D01*
X-61400Y555908D01*
D02*
G37*
G36*
X-52000Y531137D02*
X-54947Y530749D01*
X-57694Y529612D01*
X-60052Y527802D01*
X-61862Y525444D01*
X-62999Y522697D01*
X-63387Y519750D01*
X-62999Y516803D01*
X-61862Y514056D01*
X-60052Y511698D01*
X-57694Y509888D01*
X-54947Y508751D01*
X-52000Y508363D01*
X-49053Y508751D01*
X-46306Y509888D01*
X-43948Y511698D01*
X-42138Y514056D01*
X-41001Y516803D01*
X-40613Y519750D01*
X-41001Y522697D01*
X-42138Y525444D01*
X-43948Y527802D01*
X-46306Y529612D01*
X-49053Y530749D01*
X-52000Y531137D01*
D02*
G37*
G36*
X-61400Y465908D02*
X-63757Y465439D01*
X-65755Y464105D01*
X-67090Y462107D01*
X-67558Y459750D01*
X-67090Y457393D01*
X-65755Y455395D01*
X-63757Y454060D01*
X-61400Y453592D01*
X-59043Y454060D01*
X-57045Y455395D01*
X-55711Y457393D01*
X-55242Y459750D01*
X-55711Y462107D01*
X-57045Y464105D01*
X-59043Y465439D01*
X-61400Y465908D01*
D02*
G37*
G36*
X431790Y540040D02*
X410710D01*
Y518960D01*
X431790D01*
Y540040D01*
D02*
G37*
G36*
X548250Y540131D02*
X545499Y539769D01*
X542935Y538707D01*
X540733Y537017D01*
X539043Y534815D01*
X537981Y532252D01*
X537619Y529500D01*
X537981Y526749D01*
X539043Y524184D01*
X540733Y521983D01*
X542935Y520293D01*
X545499Y519231D01*
X548250Y518869D01*
X551002Y519231D01*
X553565Y520293D01*
X555767Y521983D01*
X557457Y524184D01*
X558519Y526749D01*
X558881Y529500D01*
X558519Y532252D01*
X557457Y534815D01*
X555767Y537017D01*
X553565Y538707D01*
X551002Y539769D01*
X548250Y540131D01*
D02*
G37*
G36*
X522850D02*
X520098Y539769D01*
X517535Y538707D01*
X515333Y537017D01*
X513643Y534815D01*
X512581Y532252D01*
X512219Y529500D01*
X512581Y526749D01*
X513643Y524184D01*
X515333Y521983D01*
X517535Y520293D01*
X520098Y519231D01*
X522850Y518869D01*
X525602Y519231D01*
X528166Y520293D01*
X530367Y521983D01*
X532057Y524184D01*
X533119Y526749D01*
X533481Y529500D01*
X533119Y532252D01*
X532057Y534815D01*
X530367Y537017D01*
X528166Y538707D01*
X525602Y539769D01*
X522850Y540131D01*
D02*
G37*
G36*
X497450D02*
X494698Y539769D01*
X492135Y538707D01*
X489933Y537017D01*
X488243Y534815D01*
X487181Y532252D01*
X486819Y529500D01*
X487181Y526749D01*
X488243Y524184D01*
X489933Y521983D01*
X492135Y520293D01*
X494698Y519231D01*
X497450Y518869D01*
X500201Y519231D01*
X502766Y520293D01*
X504967Y521983D01*
X506657Y524184D01*
X507719Y526749D01*
X508081Y529500D01*
X507719Y532252D01*
X506657Y534815D01*
X504967Y537017D01*
X502766Y538707D01*
X500201Y539769D01*
X497450Y540131D01*
D02*
G37*
G36*
X446650D02*
X443899Y539769D01*
X441335Y538707D01*
X439133Y537017D01*
X437443Y534815D01*
X436381Y532252D01*
X436019Y529500D01*
X436381Y526749D01*
X437443Y524184D01*
X439133Y521983D01*
X441335Y520293D01*
X443899Y519231D01*
X446650Y518869D01*
X449402Y519231D01*
X451965Y520293D01*
X454167Y521983D01*
X455857Y524184D01*
X456919Y526749D01*
X457281Y529500D01*
X456919Y532252D01*
X455857Y534815D01*
X454167Y537017D01*
X451965Y538707D01*
X449402Y539769D01*
X446650Y540131D01*
D02*
G37*
G36*
X331640Y500790D02*
X320560D01*
Y477710D01*
X320560D01*
X321021Y476476D01*
X320361Y475441D01*
X319700Y475364D01*
X319032Y475442D01*
X318366Y476440D01*
X318940Y477710D01*
X318940D01*
Y500790D01*
X307860D01*
Y477710D01*
X307860D01*
X308434Y476440D01*
X307710Y475357D01*
X307242Y473000D01*
X307710Y470643D01*
X309045Y468645D01*
X311043Y467310D01*
X313400Y466842D01*
X315757Y467310D01*
X317755Y468645D01*
X319032Y470558D01*
X319700Y470636D01*
X320368Y470558D01*
X321645Y468645D01*
X323643Y467310D01*
X326000Y466842D01*
X328357Y467310D01*
X330355Y468645D01*
X331690Y470643D01*
X332158Y473000D01*
X331690Y475357D01*
X330966Y476440D01*
X331640Y477710D01*
X331640D01*
Y500790D01*
D02*
G37*
G36*
X457950Y480540D02*
X436870D01*
Y459460D01*
X457950D01*
Y480540D01*
D02*
G37*
G36*
X625210Y480631D02*
X622458Y480269D01*
X619894Y479207D01*
X617693Y477517D01*
X616003Y475316D01*
X614941Y472752D01*
X614579Y470000D01*
X614941Y467248D01*
X616003Y464684D01*
X617693Y462483D01*
X619894Y460793D01*
X622458Y459731D01*
X625210Y459369D01*
X627962Y459731D01*
X630526Y460793D01*
X632727Y462483D01*
X634417Y464684D01*
X635479Y467248D01*
X635841Y470000D01*
X635479Y472752D01*
X634417Y475316D01*
X632727Y477517D01*
X630526Y479207D01*
X627962Y480269D01*
X625210Y480631D01*
D02*
G37*
G36*
X599810D02*
X597058Y480269D01*
X594495Y479207D01*
X592293Y477517D01*
X590603Y475316D01*
X589541Y472752D01*
X589179Y470000D01*
X589541Y467248D01*
X590603Y464684D01*
X592293Y462483D01*
X594495Y460793D01*
X597058Y459731D01*
X599810Y459369D01*
X602561Y459731D01*
X605126Y460793D01*
X607327Y462483D01*
X609017Y464684D01*
X610079Y467248D01*
X610441Y470000D01*
X610079Y472752D01*
X609017Y475316D01*
X607327Y477517D01*
X605126Y479207D01*
X602561Y480269D01*
X599810Y480631D01*
D02*
G37*
G36*
X574410D02*
X571659Y480269D01*
X569095Y479207D01*
X566893Y477517D01*
X565203Y475316D01*
X564141Y472752D01*
X563779Y470000D01*
X564141Y467248D01*
X565203Y464684D01*
X566893Y462483D01*
X569095Y460793D01*
X571659Y459731D01*
X574410Y459369D01*
X577161Y459731D01*
X579725Y460793D01*
X581927Y462483D01*
X583617Y464684D01*
X584679Y467248D01*
X585041Y470000D01*
X584679Y472752D01*
X583617Y475316D01*
X581927Y477517D01*
X579725Y479207D01*
X577161Y480269D01*
X574410Y480631D01*
D02*
G37*
G36*
X523610D02*
X520858Y480269D01*
X518294Y479207D01*
X516093Y477517D01*
X514403Y475316D01*
X513341Y472752D01*
X512979Y470000D01*
X513341Y467248D01*
X514403Y464684D01*
X516093Y462483D01*
X518294Y460793D01*
X520858Y459731D01*
X523610Y459369D01*
X526362Y459731D01*
X528926Y460793D01*
X531127Y462483D01*
X532817Y464684D01*
X533879Y467248D01*
X534241Y470000D01*
X533879Y472752D01*
X532817Y475316D01*
X531127Y477517D01*
X528926Y479207D01*
X526362Y480269D01*
X523610Y480631D01*
D02*
G37*
G36*
X498210D02*
X495458Y480269D01*
X492895Y479207D01*
X490693Y477517D01*
X489003Y475316D01*
X487941Y472752D01*
X487579Y470000D01*
X487941Y467248D01*
X489003Y464684D01*
X490693Y462483D01*
X492895Y460793D01*
X495458Y459731D01*
X498210Y459369D01*
X500961Y459731D01*
X503526Y460793D01*
X505727Y462483D01*
X507417Y464684D01*
X508479Y467248D01*
X508841Y470000D01*
X508479Y472752D01*
X507417Y475316D01*
X505727Y477517D01*
X503526Y479207D01*
X500961Y480269D01*
X498210Y480631D01*
D02*
G37*
G36*
X472810D02*
X470059Y480269D01*
X467495Y479207D01*
X465293Y477517D01*
X463603Y475316D01*
X462541Y472752D01*
X462179Y470000D01*
X462541Y467248D01*
X463603Y464684D01*
X465293Y462483D01*
X467495Y460793D01*
X470059Y459731D01*
X472810Y459369D01*
X475561Y459731D01*
X478125Y460793D01*
X480327Y462483D01*
X482017Y464684D01*
X483079Y467248D01*
X483441Y470000D01*
X483079Y472752D01*
X482017Y475316D01*
X480327Y477517D01*
X478125Y479207D01*
X475561Y480269D01*
X472810Y480631D01*
D02*
G37*
G36*
X255440Y406790D02*
X244360D01*
Y393873D01*
X244286Y393500D01*
Y389266D01*
X244010Y389081D01*
X242740Y389760D01*
Y406790D01*
X231660D01*
Y399114D01*
X223040D01*
Y404290D01*
X210960D01*
Y386210D01*
X223040D01*
Y391386D01*
X231660D01*
Y383710D01*
X237919D01*
X238405Y382537D01*
X215487Y359619D01*
X211576D01*
X211181Y359540D01*
X197380D01*
Y353345D01*
X195933Y351898D01*
X194760Y352384D01*
Y359540D01*
X176680D01*
Y353367D01*
X175643Y352353D01*
X174472Y352415D01*
X174229Y352658D01*
X174060Y352844D01*
Y359540D01*
X155980D01*
Y352394D01*
X154807Y351908D01*
X154554Y352161D01*
X153756Y353066D01*
X153468Y353442D01*
X153360Y353604D01*
Y359540D01*
X135280D01*
Y347460D01*
X137402D01*
X138207Y346478D01*
X138162Y346250D01*
X138631Y343893D01*
X139965Y341895D01*
X141963Y340560D01*
X144320Y340091D01*
X146677Y340560D01*
X148675Y341895D01*
X150010Y343893D01*
X150059Y344142D01*
X151274Y344511D01*
X163606Y332179D01*
Y324880D01*
X163680Y324507D01*
Y316090D01*
X186260D01*
Y324507D01*
X186334Y324880D01*
Y331369D01*
X187315Y332351D01*
X188585Y331824D01*
Y324880D01*
Y313349D01*
X187100Y311864D01*
X149930D01*
X132247Y329547D01*
X132362Y330126D01*
X131893Y332482D01*
X130558Y334480D01*
X130068Y334808D01*
Y358475D01*
X138053Y366460D01*
X153360D01*
Y368636D01*
X155980D01*
Y366460D01*
X174060D01*
Y368636D01*
X176680D01*
Y366460D01*
X194760D01*
Y368636D01*
X197380D01*
Y366460D01*
X215460D01*
Y378540D01*
X197380D01*
Y376364D01*
X194760D01*
Y378540D01*
X176680D01*
Y376364D01*
X174060D01*
Y378540D01*
X155980D01*
Y376364D01*
X153360D01*
Y378540D01*
X135280D01*
Y374617D01*
X123471Y362808D01*
X122633Y361554D01*
X122339Y360075D01*
Y334808D01*
X121849Y334480D01*
X120514Y332482D01*
X120045Y330126D01*
X120514Y327769D01*
X121849Y325771D01*
X122339Y325443D01*
Y318540D01*
X119210D01*
Y301060D01*
X119210Y300125D01*
X119210Y299190D01*
Y281710D01*
X119210D01*
Y281040D01*
X119210D01*
Y262960D01*
X133290D01*
Y268136D01*
X178000D01*
X179479Y268430D01*
X180732Y269268D01*
X220202Y308738D01*
X221040Y309991D01*
X221334Y311470D01*
X221334Y311470D01*
Y316090D01*
X231260D01*
Y333670D01*
X208680D01*
Y325253D01*
X208606Y324880D01*
Y314435D01*
X188785Y294614D01*
X133290D01*
X133290Y300125D01*
X133290Y301060D01*
Y315915D01*
X134463Y316401D01*
X145597Y305268D01*
X145597Y305268D01*
X146850Y304430D01*
X148329Y304136D01*
X148329Y304136D01*
X188627D01*
X188730Y304115D01*
X190216Y304411D01*
X191477Y305253D01*
X195217Y308993D01*
X196059Y310254D01*
X196355Y311740D01*
Y316090D01*
X206260D01*
Y324404D01*
X206355Y324880D01*
Y332692D01*
X206260Y333168D01*
Y333670D01*
X206160D01*
X206059Y334179D01*
X205217Y335439D01*
X203159Y337497D01*
X201899Y338339D01*
X200412Y338635D01*
X195396D01*
X194869Y339905D01*
X202351Y347386D01*
X204170D01*
X204543Y347460D01*
X215460D01*
Y351890D01*
X217087D01*
X218566Y352184D01*
X219820Y353022D01*
X227730Y360932D01*
X229071Y360477D01*
X229331Y358498D01*
X230393Y355934D01*
X232083Y353733D01*
X234284Y352043D01*
X236849Y350981D01*
X239600Y350619D01*
X242351Y350981D01*
X244916Y352043D01*
X247117Y353733D01*
X248807Y355934D01*
X249869Y358498D01*
X250231Y361250D01*
X249869Y364002D01*
X248807Y366566D01*
X247117Y368767D01*
X244916Y370457D01*
X242351Y371519D01*
X240373Y371779D01*
X239918Y373120D01*
X250508Y383710D01*
X255440D01*
Y406790D01*
D02*
G37*
G36*
X626410Y445290D02*
X612330D01*
Y432675D01*
X609018Y429362D01*
X608180Y428109D01*
X607886Y426630D01*
Y419851D01*
X602075Y414040D01*
X585960D01*
Y402960D01*
X601479D01*
X602132Y401690D01*
X601882Y401340D01*
X585960D01*
Y390260D01*
X607540D01*
Y395325D01*
X611347Y399132D01*
X612520Y398646D01*
Y392425D01*
X608788Y388693D01*
X607540Y388640D01*
Y388640D01*
X605079D01*
X604986Y388659D01*
X604886Y388640D01*
X604670D01*
X604660Y388641D01*
X604658Y388640D01*
X585960D01*
Y377560D01*
X607540D01*
Y379861D01*
X609286D01*
X610764Y380155D01*
X611190Y380440D01*
X612460Y379761D01*
Y374864D01*
X607540D01*
Y375940D01*
X605079D01*
X604986Y375959D01*
X604886Y375940D01*
X604687D01*
X604667Y375942D01*
X604662Y375940D01*
X585960D01*
Y364860D01*
X607540D01*
Y367136D01*
X612460D01*
Y366960D01*
X614918D01*
X615011Y366941D01*
X615111Y366960D01*
X626540D01*
Y370098D01*
X627607Y370311D01*
X629605Y371645D01*
X630940Y373643D01*
X631408Y376000D01*
X630940Y378357D01*
X629605Y380355D01*
X627607Y381690D01*
X626540Y381902D01*
Y385040D01*
X618116D01*
X617583Y386251D01*
X618151Y386960D01*
X626600D01*
Y390110D01*
X627607Y390311D01*
X629605Y391645D01*
X630940Y393643D01*
X631408Y396000D01*
X630940Y398357D01*
X629605Y400355D01*
X627607Y401690D01*
X626600Y401890D01*
Y405040D01*
X618914D01*
X618428Y406213D01*
X619318Y407103D01*
X626540D01*
Y410098D01*
X627607Y410311D01*
X629605Y411645D01*
X630940Y413643D01*
X631408Y416000D01*
X630940Y418357D01*
X629605Y420355D01*
X627607Y421690D01*
X626540Y421902D01*
Y425183D01*
X617427D01*
X616941Y426356D01*
X617795Y427210D01*
X626410D01*
Y430322D01*
X627607Y430560D01*
X629605Y431895D01*
X630940Y433893D01*
X631408Y436250D01*
X630940Y438607D01*
X629605Y440605D01*
X627607Y441940D01*
X626410Y442178D01*
Y445290D01*
D02*
G37*
G36*
X626540Y365040D02*
X612460D01*
Y361564D01*
X607540D01*
Y363240D01*
X585960D01*
Y352160D01*
X607540D01*
Y353836D01*
X612460D01*
Y347114D01*
X607540D01*
Y350540D01*
X585960D01*
Y339460D01*
X598127D01*
X598500Y339386D01*
X612460D01*
Y332021D01*
X611287Y331535D01*
X609539Y333282D01*
X608286Y334120D01*
X607540Y334268D01*
Y337840D01*
X585960D01*
Y326760D01*
X598127D01*
X598500Y326686D01*
X604358D01*
X604543Y326410D01*
X603864Y325140D01*
X585960D01*
Y314060D01*
X599223D01*
X599430Y313021D01*
X600268Y311768D01*
X612460Y299575D01*
Y292425D01*
X612149Y292114D01*
X593750D01*
X592271Y291820D01*
X591018Y290982D01*
X558268Y258232D01*
X557430Y256979D01*
X557136Y255500D01*
Y193099D01*
X555866Y192103D01*
X554433Y192388D01*
X553854Y192272D01*
X552245Y193882D01*
Y201521D01*
X543207D01*
X542963Y202745D01*
X542126Y203999D01*
X542126Y203999D01*
X486142Y259982D01*
X484889Y260820D01*
X483410Y261114D01*
X284101D01*
X271614Y273601D01*
Y333250D01*
X271320Y334729D01*
X270482Y335982D01*
X270482Y335983D01*
X268232Y338232D01*
X266979Y339070D01*
X265500Y339364D01*
X259790D01*
X258311Y339070D01*
X257058Y338232D01*
X257057Y338232D01*
X254738Y335912D01*
X253900Y334659D01*
X253703Y333670D01*
X238680D01*
Y316090D01*
X258606D01*
Y270620D01*
X258900Y269141D01*
X259738Y267888D01*
X261282Y266343D01*
X260796Y265170D01*
X143680D01*
Y260070D01*
X13063D01*
X11584Y259776D01*
X10330Y258938D01*
X-50228Y198380D01*
X-50330Y198293D01*
X-50556Y198122D01*
X-50761Y197987D01*
X-50944Y197885D01*
X-51104Y197811D01*
X-51240Y197763D01*
X-51355Y197733D01*
X-51436Y197720D01*
X-61503D01*
Y189105D01*
X-65837Y184770D01*
X-66675Y183516D01*
X-66969Y182038D01*
Y129357D01*
X-66675Y127878D01*
X-65837Y126624D01*
X-62062Y122849D01*
X-60809Y122011D01*
X-59330Y121717D01*
X-59330Y121717D01*
X-57342D01*
X-57015Y121227D01*
X-56524Y120899D01*
Y44990D01*
X-56230Y43511D01*
X-55392Y42258D01*
X-27492Y14358D01*
X-27492Y14358D01*
X-26239Y13520D01*
X-24760Y13226D01*
X-24760Y13226D01*
X470680D01*
Y10050D01*
X488760D01*
Y13226D01*
X490280D01*
Y10050D01*
X508360D01*
Y13226D01*
X509880D01*
Y10050D01*
X527960D01*
Y13226D01*
X571770D01*
X573249Y13520D01*
X574502Y14358D01*
X621392Y61247D01*
X621793Y61619D01*
X622093Y61859D01*
X622094Y61860D01*
X622549D01*
X622646Y61841D01*
X622743Y61860D01*
X636860D01*
Y82180D01*
X616540D01*
Y68063D01*
X616521Y67966D01*
X616540Y67869D01*
Y67419D01*
X616023Y66808D01*
X570169Y20954D01*
X527960D01*
Y24130D01*
X509880D01*
Y20954D01*
X508360D01*
Y24130D01*
X490280D01*
Y20954D01*
X488760D01*
Y24130D01*
X470680D01*
Y20954D01*
X110466D01*
X109840Y22224D01*
X111025Y23768D01*
X112112Y26393D01*
X112483Y29210D01*
X112112Y32027D01*
X111025Y34652D01*
X109296Y36906D01*
X107042Y38635D01*
X104417Y39722D01*
X101600Y40093D01*
X98783Y39722D01*
X96159Y38635D01*
X93904Y36906D01*
X92175Y34652D01*
X91088Y32027D01*
X90717Y29210D01*
X91088Y26393D01*
X92175Y23768D01*
X93360Y22224D01*
X92734Y20954D01*
X85066D01*
X84440Y22224D01*
X85625Y23768D01*
X86712Y26393D01*
X87083Y29210D01*
X86712Y32027D01*
X85625Y34652D01*
X83896Y36906D01*
X81642Y38635D01*
X79017Y39722D01*
X76200Y40093D01*
X73383Y39722D01*
X70759Y38635D01*
X68505Y36906D01*
X66775Y34652D01*
X65688Y32027D01*
X65317Y29210D01*
X65688Y26393D01*
X66775Y23768D01*
X67960Y22224D01*
X67334Y20954D01*
X59666D01*
X59040Y22224D01*
X60225Y23768D01*
X61312Y26393D01*
X61683Y29210D01*
X61312Y32027D01*
X60225Y34652D01*
X58495Y36906D01*
X56241Y38635D01*
X53617Y39722D01*
X50800Y40093D01*
X47983Y39722D01*
X45359Y38635D01*
X43105Y36906D01*
X41375Y34652D01*
X40288Y32027D01*
X39917Y29210D01*
X40288Y26393D01*
X41375Y23768D01*
X42560Y22224D01*
X41934Y20954D01*
X34266D01*
X33640Y22224D01*
X34825Y23768D01*
X35912Y26393D01*
X36283Y29210D01*
X35912Y32027D01*
X34825Y34652D01*
X33096Y36906D01*
X30842Y38635D01*
X28217Y39722D01*
X25400Y40093D01*
X22583Y39722D01*
X19958Y38635D01*
X17704Y36906D01*
X15975Y34652D01*
X14888Y32027D01*
X14517Y29210D01*
X14888Y26393D01*
X15975Y23768D01*
X17160Y22224D01*
X16534Y20954D01*
X10790D01*
Y40000D01*
X-10790D01*
Y20954D01*
X-23159D01*
X-48796Y46591D01*
Y120899D01*
X-48305Y121227D01*
X-46970Y123225D01*
X-46502Y125582D01*
X-46906Y127615D01*
X-46192Y128885D01*
X-43423D01*
X-42630Y127943D01*
Y125260D01*
X-550D01*
Y154840D01*
X-2201D01*
X-3006Y155822D01*
X-2790Y156908D01*
X-3259Y159265D01*
X-3533Y159676D01*
X-3050Y160580D01*
X-3050D01*
Y171019D01*
X-1780Y172044D01*
X-410Y171772D01*
X1947Y172240D01*
X3945Y173575D01*
X5279Y175573D01*
X5748Y177930D01*
X5279Y180287D01*
X3945Y182285D01*
X2607Y183178D01*
X1989Y183769D01*
X2283Y184806D01*
X2606Y185289D01*
X3837Y185629D01*
X4144Y185479D01*
X5893Y184310D01*
X8250Y183842D01*
X8818Y183955D01*
X9800Y183149D01*
Y180890D01*
X20816D01*
X21302Y179717D01*
X19825Y178239D01*
X19405Y177848D01*
X19173Y177660D01*
X8130D01*
Y160580D01*
X24210D01*
Y171441D01*
X24291Y171563D01*
X25460Y172945D01*
X27860Y175345D01*
X29130Y175033D01*
Y160580D01*
X33306D01*
Y154840D01*
X5630D01*
Y125260D01*
X47710D01*
Y154840D01*
X46338D01*
X45532Y155822D01*
X45748Y156908D01*
X45279Y159265D01*
X44850Y159907D01*
X45210Y160580D01*
X45210D01*
Y170950D01*
X46480Y171992D01*
X47590Y171772D01*
X49947Y172240D01*
X51945Y173575D01*
X53280Y175573D01*
X53748Y177930D01*
X53280Y180287D01*
X51945Y182285D01*
X50923Y182967D01*
X50248Y184044D01*
X51203Y185473D01*
X51638Y186031D01*
X52829Y185797D01*
X53923Y185066D01*
X56280Y184597D01*
X56568Y184654D01*
X57550Y183849D01*
Y180890D01*
X68429D01*
X68915Y179717D01*
X67451Y178253D01*
X67045Y177875D01*
X66779Y177660D01*
X56050D01*
Y160580D01*
X72130D01*
Y171908D01*
X72649Y172521D01*
X75444Y175316D01*
X77050D01*
Y160580D01*
X80660D01*
X81068Y159310D01*
X81052Y159287D01*
X80583Y156930D01*
X80804Y155822D01*
X79998Y154840D01*
X53890D01*
Y125260D01*
X95970D01*
Y154840D01*
X93485D01*
X92680Y155822D01*
X92900Y156930D01*
X92431Y159287D01*
X92315Y159460D01*
X92914Y160580D01*
X93130D01*
Y171232D01*
X94400Y172108D01*
X96090Y171772D01*
X98447Y172240D01*
X100445Y173575D01*
X101780Y175573D01*
X102248Y177930D01*
X101780Y180287D01*
X100445Y182285D01*
X99260Y183076D01*
X98587Y183929D01*
X98936Y184704D01*
X99831Y186042D01*
X99909Y186438D01*
X101155Y186685D01*
X101395Y186325D01*
X103393Y184991D01*
X105750Y184522D01*
X106050Y184275D01*
Y181140D01*
X116656D01*
X117142Y179967D01*
X115415Y178239D01*
X114995Y177848D01*
X114763Y177660D01*
X103720D01*
Y160580D01*
X119800D01*
Y171441D01*
X119881Y171563D01*
X121050Y172945D01*
X123450Y175345D01*
X124720Y174819D01*
Y160580D01*
X128896D01*
Y154840D01*
X102150D01*
Y125260D01*
X144230D01*
Y154840D01*
X142088D01*
X141282Y155822D01*
X141498Y156908D01*
X141030Y159265D01*
X140512Y160040D01*
X140800Y160580D01*
X140800D01*
Y172018D01*
X141920Y172617D01*
X142483Y172240D01*
X144840Y171772D01*
X147197Y172240D01*
X149195Y173575D01*
X150529Y175573D01*
X150998Y177930D01*
X150529Y180287D01*
X149195Y182285D01*
X147932Y183128D01*
X147287Y183868D01*
X147608Y184756D01*
X148321Y185822D01*
X148542Y186053D01*
X149803Y186243D01*
X151143Y185348D01*
X153500Y184879D01*
X153568Y184893D01*
X154550Y184087D01*
Y181140D01*
X165346D01*
X165832Y179967D01*
X163525Y177660D01*
X152910D01*
Y160580D01*
X168990D01*
Y172195D01*
X172611Y175816D01*
X173910D01*
Y160580D01*
X178086D01*
Y154840D01*
X150410D01*
Y125260D01*
X192490D01*
Y154840D01*
X191338D01*
X190532Y155822D01*
X190748Y156908D01*
X190280Y159265D01*
X189728Y160090D01*
X189990Y160580D01*
X189990D01*
Y172141D01*
X191110Y172740D01*
X191483Y172491D01*
X193840Y172022D01*
X196197Y172491D01*
X198195Y173825D01*
X199529Y175823D01*
X199998Y178180D01*
X199529Y180537D01*
X198195Y182535D01*
X196610Y183593D01*
X196197Y183870D01*
X196242Y185139D01*
X197163Y186025D01*
X198117Y185975D01*
X199542Y185023D01*
X201899Y184554D01*
X202800Y183815D01*
Y181140D01*
X214106D01*
X214592Y179967D01*
X212285Y177660D01*
X201170D01*
Y160580D01*
X217250D01*
Y171695D01*
X220900Y175345D01*
X222170Y174851D01*
Y160580D01*
X226346D01*
Y154840D01*
X198670D01*
Y125260D01*
X240750D01*
Y154840D01*
X239838D01*
X239032Y155822D01*
X239248Y156908D01*
X238780Y159265D01*
X238095Y160290D01*
X238250Y160580D01*
X238250D01*
Y171448D01*
X239520Y172348D01*
X241158Y172022D01*
X243514Y172491D01*
X245512Y173825D01*
X246847Y175823D01*
X247316Y178180D01*
X246847Y180537D01*
X245512Y182535D01*
X244886Y182953D01*
X244658Y184419D01*
X245704Y185985D01*
X247143Y185023D01*
X249500Y184554D01*
X250318Y184717D01*
X251300Y183911D01*
Y181140D01*
X262366D01*
X262852Y179967D01*
X260545Y177660D01*
X249430D01*
Y160580D01*
X265510D01*
Y171695D01*
X269160Y175345D01*
X270430Y174819D01*
Y160580D01*
X274606D01*
Y154840D01*
X246930D01*
Y125260D01*
X289010D01*
Y154840D01*
X288088D01*
X287282Y155822D01*
X287498Y156908D01*
X287030Y159265D01*
X286350Y160281D01*
X286510Y160580D01*
X286510D01*
Y171271D01*
X287780Y172148D01*
X289466Y171813D01*
X291822Y172282D01*
X293820Y173617D01*
X295155Y175615D01*
X295624Y177971D01*
X295155Y180328D01*
X293820Y182326D01*
X293252Y182706D01*
Y183976D01*
X293354Y184044D01*
X294578Y185876D01*
X296173Y184811D01*
X298530Y184342D01*
X298818Y184399D01*
X299800Y183593D01*
Y180890D01*
X310036D01*
X310522Y179717D01*
X308465Y177660D01*
X297350D01*
Y160580D01*
X313430D01*
Y171695D01*
X317080Y175345D01*
X318350Y175033D01*
Y160580D01*
X322526D01*
Y154840D01*
X295190D01*
Y125260D01*
X337270D01*
Y154840D01*
X335792D01*
X334987Y155822D01*
X335203Y156908D01*
X334734Y159265D01*
X334175Y160102D01*
X334430Y160580D01*
X334430D01*
Y171241D01*
X335700Y172139D01*
X337340Y171813D01*
X339697Y172282D01*
X341695Y173617D01*
X343030Y175615D01*
X343498Y177971D01*
X343030Y180328D01*
X341695Y182326D01*
X340834Y182901D01*
X340701Y184517D01*
X341236Y185319D01*
X342280Y185764D01*
X342813Y185566D01*
X344423Y184491D01*
X346780Y184022D01*
X347068Y184079D01*
X348050Y183273D01*
Y180890D01*
X358636D01*
X359122Y179717D01*
X357065Y177660D01*
X345950D01*
Y160580D01*
X362030D01*
Y171695D01*
X365680Y175345D01*
X366950Y175039D01*
Y160580D01*
X371126D01*
Y154840D01*
X343450D01*
Y125260D01*
X385530D01*
Y154840D01*
X384382D01*
X383576Y155822D01*
X383792Y156908D01*
X383324Y159265D01*
X382770Y160093D01*
X383030Y160580D01*
X383030D01*
Y171538D01*
X384300Y172225D01*
X386391Y171809D01*
X388748Y172278D01*
X390746Y173613D01*
X392080Y175611D01*
X392549Y177967D01*
X392080Y180324D01*
X390746Y182322D01*
X389742Y182993D01*
X388995Y183987D01*
X390330Y185985D01*
X391629Y186008D01*
X392674Y185310D01*
X395030Y184842D01*
X395478Y184931D01*
X396460Y184125D01*
Y180890D01*
X406896D01*
X407382Y179717D01*
X405325Y177660D01*
X394210D01*
Y160580D01*
X410290D01*
Y171695D01*
X413940Y175345D01*
X415210Y175051D01*
Y160580D01*
X419386D01*
Y154840D01*
X391710D01*
Y125260D01*
X433790D01*
Y154840D01*
X432557D01*
X431751Y155822D01*
X431967Y156908D01*
X431498Y159265D01*
X430992Y160023D01*
X431290Y160580D01*
X431290D01*
Y171286D01*
X432560Y172141D01*
X434292Y171797D01*
X436649Y172266D01*
X438647Y173601D01*
X439981Y175599D01*
X440450Y177955D01*
X439981Y180312D01*
X438647Y182310D01*
X437934Y182786D01*
X437867Y184358D01*
X438631Y185501D01*
X439664Y185823D01*
X440179Y185706D01*
X441893Y184560D01*
X444250Y184092D01*
X444550Y183845D01*
Y181140D01*
X455406D01*
X455892Y179967D01*
X453585Y177660D01*
X442470D01*
Y160580D01*
X458550D01*
Y171695D01*
X462200Y175345D01*
X463470Y175051D01*
Y160580D01*
X467646D01*
Y154840D01*
X439970D01*
Y125260D01*
X482050D01*
Y154840D01*
X481228D01*
X480422Y155822D01*
X480638Y156908D01*
X480169Y159265D01*
X479435Y160364D01*
X479550Y160580D01*
X479550D01*
Y171439D01*
X480820Y172187D01*
X482781Y171797D01*
X485138Y172266D01*
X487136Y173601D01*
X488471Y175599D01*
X488939Y177955D01*
X488471Y180312D01*
X487136Y182310D01*
X486157Y182963D01*
X485431Y183987D01*
X486614Y185758D01*
X488511Y184491D01*
X490868Y184022D01*
X491998Y184247D01*
X492980Y183441D01*
Y181140D01*
X503666D01*
X504152Y179967D01*
X501845Y177660D01*
X490730D01*
Y160580D01*
X506810D01*
Y171695D01*
X510460Y175345D01*
X511730Y175122D01*
Y160580D01*
X515906D01*
Y154840D01*
X488230D01*
Y125260D01*
X530310D01*
Y154840D01*
X529332D01*
X528526Y155822D01*
X528742Y156908D01*
X528274Y159265D01*
X527626Y160235D01*
X527810Y160580D01*
X527810D01*
Y172012D01*
X529080Y172639D01*
X531230Y172212D01*
X533587Y172680D01*
X535585Y174015D01*
X536920Y176013D01*
X537388Y178370D01*
X536920Y180727D01*
X535585Y182725D01*
X534035Y183760D01*
Y183987D01*
X535369Y185985D01*
X535659Y187441D01*
X547402D01*
X548308Y186400D01*
X548274Y186229D01*
X548743Y183873D01*
X550078Y181875D01*
X552076Y180540D01*
X554433Y180071D01*
X555866Y180356D01*
X557136Y179360D01*
Y105351D01*
X531483Y79698D01*
X530310Y80184D01*
Y92292D01*
X531580Y93334D01*
X532820Y93087D01*
X535177Y93556D01*
X537175Y94891D01*
X538510Y96889D01*
X538978Y99246D01*
X538510Y101602D01*
X537175Y103600D01*
X535177Y104935D01*
X532820Y105404D01*
X530463Y104935D01*
X528465Y103600D01*
X528292Y103340D01*
X527852D01*
X527759Y103359D01*
X527678Y103344D01*
X527597Y103355D01*
X527537Y103340D01*
X489740D01*
X489566Y103600D01*
X487568Y104935D01*
X485212Y105404D01*
X482855Y104935D01*
X480857Y103600D01*
X480683Y103340D01*
X479592D01*
X479499Y103359D01*
X479418Y103344D01*
X479337Y103355D01*
X479277Y103340D01*
X441379D01*
X441205Y103600D01*
X439207Y104935D01*
X436851Y105404D01*
X434494Y104935D01*
X432496Y103600D01*
X432322Y103340D01*
X431332D01*
X431239Y103359D01*
X431158Y103344D01*
X431077Y103355D01*
X431017Y103340D01*
X393192D01*
X393018Y103600D01*
X391020Y104935D01*
X388664Y105404D01*
X386307Y104935D01*
X384309Y103600D01*
X384135Y103340D01*
X344825D01*
X344695Y103535D01*
X342697Y104869D01*
X340340Y105338D01*
X337983Y104869D01*
X335985Y103535D01*
X335855Y103340D01*
X334843D01*
X334759Y103359D01*
X334739Y103355D01*
X334719Y103359D01*
X334618Y103340D01*
X296575D01*
X296445Y103535D01*
X294447Y104869D01*
X292090Y105338D01*
X289733Y104869D01*
X287735Y103535D01*
X287605Y103340D01*
X286583D01*
X286499Y103359D01*
X286479Y103355D01*
X286459Y103359D01*
X286358Y103340D01*
X248075D01*
X247945Y103535D01*
X245947Y104869D01*
X243590Y105338D01*
X241233Y104869D01*
X239235Y103535D01*
X239105Y103340D01*
X238323D01*
X238239Y103359D01*
X238219Y103355D01*
X238199Y103359D01*
X238098Y103340D01*
X200075D01*
X199945Y103535D01*
X197947Y104869D01*
X195590Y105338D01*
X193233Y104869D01*
X191235Y103535D01*
X191105Y103340D01*
X190063D01*
X189979Y103359D01*
X189959Y103355D01*
X189939Y103359D01*
X189838Y103340D01*
X151825D01*
X151695Y103535D01*
X149697Y104869D01*
X147340Y105338D01*
X144983Y104869D01*
X142985Y103535D01*
X142855Y103340D01*
X141803D01*
X141719Y103359D01*
X141699Y103355D01*
X141679Y103359D01*
X141578Y103340D01*
X103575D01*
X103445Y103535D01*
X101447Y104869D01*
X99090Y105338D01*
X96733Y104869D01*
X94735Y103535D01*
X94605Y103340D01*
X93543D01*
X93459Y103359D01*
X93439Y103355D01*
X93419Y103359D01*
X93318Y103340D01*
X55285D01*
X55155Y103535D01*
X53157Y104869D01*
X50800Y105338D01*
X48443Y104869D01*
X46445Y103535D01*
X46315Y103340D01*
X45283D01*
X45199Y103359D01*
X45179Y103355D01*
X45159Y103359D01*
X45058Y103340D01*
X7075D01*
X6945Y103535D01*
X4947Y104869D01*
X2590Y105338D01*
X233Y104869D01*
X-1765Y103535D01*
X-1895Y103340D01*
X-2977D01*
X-3061Y103359D01*
X-3081Y103355D01*
X-3101Y103359D01*
X-3202Y103340D01*
X-42630D01*
Y73760D01*
X-550D01*
Y92603D01*
X720Y93394D01*
X2590Y93022D01*
X4360Y93374D01*
X5630Y92536D01*
Y73760D01*
X47710D01*
Y92569D01*
X48980Y93384D01*
X50800Y93022D01*
X52620Y93384D01*
X53890Y92569D01*
Y73760D01*
X95970D01*
Y92589D01*
X97240Y93390D01*
X99090Y93022D01*
X100880Y93378D01*
X102150Y92549D01*
Y73760D01*
X144230D01*
Y92583D01*
X145500Y93388D01*
X147340Y93022D01*
X149140Y93380D01*
X150410Y92556D01*
Y73760D01*
X192490D01*
Y92576D01*
X193760Y93386D01*
X195590Y93022D01*
X197400Y93382D01*
X198670Y92563D01*
Y73760D01*
X215268D01*
X215653Y72490D01*
X215268Y72232D01*
X215268Y72232D01*
X197912Y54877D01*
X196652Y55399D01*
X194000Y55748D01*
X191348Y55399D01*
X188876Y54375D01*
X186754Y52746D01*
X185125Y50624D01*
X184102Y48152D01*
X183752Y45500D01*
X184102Y42848D01*
X185125Y40376D01*
X186754Y38254D01*
X188876Y36625D01*
X191348Y35601D01*
X194000Y35252D01*
X196652Y35601D01*
X199124Y36625D01*
X201246Y38254D01*
X202875Y40376D01*
X203899Y42848D01*
X204248Y45500D01*
X203899Y48152D01*
X203377Y49412D01*
X219601Y65636D01*
X385762D01*
X386248Y64462D01*
X376662Y54877D01*
X375402Y55399D01*
X372750Y55748D01*
X370098Y55399D01*
X367626Y54375D01*
X365504Y52746D01*
X363875Y50624D01*
X362851Y48152D01*
X362502Y45500D01*
X362851Y42848D01*
X363875Y40376D01*
X365504Y38254D01*
X367626Y36625D01*
X370098Y35601D01*
X372750Y35252D01*
X375402Y35601D01*
X377874Y36625D01*
X379996Y38254D01*
X381625Y40376D01*
X382649Y42848D01*
X382998Y45500D01*
X382649Y48152D01*
X382127Y49412D01*
X393601Y60886D01*
X528500D01*
X529979Y61180D01*
X531232Y62018D01*
X568232Y99018D01*
X569070Y100271D01*
X569364Y101750D01*
Y198066D01*
X570634Y198745D01*
X570710Y198694D01*
Y167710D01*
X597290D01*
X597290Y167710D01*
Y167710D01*
X598157Y166879D01*
X630253Y134782D01*
X631507Y133944D01*
X632986Y133650D01*
X632986Y133650D01*
X656909D01*
X658388Y133944D01*
X659642Y134782D01*
X670296Y145436D01*
X671134Y146690D01*
X671428Y148169D01*
Y159436D01*
X671134Y160915D01*
X670296Y162168D01*
X670296Y162168D01*
X656793Y175672D01*
X656908Y176250D01*
X656440Y178607D01*
X655290Y180327D01*
Y181670D01*
X655309Y181763D01*
X655290Y181863D01*
Y193790D01*
X638873D01*
X638500Y193864D01*
X631750D01*
X631377Y193790D01*
X628710D01*
Y192272D01*
X628180Y191479D01*
X627886Y190000D01*
X628180Y188521D01*
X628710Y187728D01*
Y179210D01*
X644052D01*
X644928Y177940D01*
X644592Y176250D01*
X645061Y173893D01*
X646395Y171895D01*
X648393Y170560D01*
X650750Y170092D01*
X651328Y170207D01*
X663700Y157835D01*
Y154151D01*
X662430Y153472D01*
X661357Y154190D01*
X659000Y154658D01*
X656643Y154190D01*
X654645Y152855D01*
X653955Y151822D01*
X653789Y151711D01*
X652952Y150457D01*
X652657Y148978D01*
X652952Y147500D01*
X653078Y147310D01*
X653310Y146143D01*
X654645Y144145D01*
X655421Y143628D01*
X655568Y142306D01*
X654711Y141378D01*
X634587D01*
X599768Y176197D01*
X598514Y177035D01*
X597290Y177278D01*
Y205290D01*
X576175D01*
X573864Y207601D01*
Y219265D01*
X575134Y219826D01*
X576710Y218774D01*
X579067Y218305D01*
X581423Y218774D01*
X583421Y220109D01*
X584756Y222106D01*
X585225Y224463D01*
X585198Y224597D01*
X586191Y225856D01*
X586870Y225885D01*
X605988Y206768D01*
X605988Y206768D01*
X607241Y205930D01*
X608720Y205636D01*
X628710D01*
Y202210D01*
X655290D01*
Y216790D01*
X637142D01*
X636543Y217910D01*
X637060Y218683D01*
X637528Y221040D01*
X637060Y223397D01*
X636296Y224540D01*
X636974Y225810D01*
X639600D01*
Y242890D01*
X626572D01*
X626038Y243540D01*
X625749Y244994D01*
X627905Y247150D01*
X628325Y247542D01*
X628557Y247730D01*
X639600D01*
Y264810D01*
X628934D01*
X628448Y265983D01*
X635374Y272909D01*
X636643Y272060D01*
X639000Y271592D01*
X641357Y272060D01*
X643355Y273395D01*
X644689Y275393D01*
X645158Y277750D01*
X644689Y280107D01*
X643355Y282105D01*
X641357Y283440D01*
X639000Y283908D01*
X636643Y283440D01*
X634645Y282105D01*
X634252Y281515D01*
X633271Y281320D01*
X632018Y280482D01*
X632018Y280482D01*
X610858Y259322D01*
X610020Y258069D01*
X609726Y256590D01*
Y245405D01*
X604881Y240560D01*
X599145D01*
X595702Y244002D01*
X594449Y244840D01*
X592970Y245134D01*
X574854D01*
X573375Y244840D01*
X572121Y244002D01*
X570538Y242419D01*
X569364Y242905D01*
Y250149D01*
X595601Y276386D01*
X599318D01*
X599645Y275895D01*
X601643Y274561D01*
X604000Y274092D01*
X606357Y274561D01*
X608355Y275895D01*
X609690Y277893D01*
X610158Y280250D01*
X609690Y282607D01*
X609249Y283266D01*
X609848Y284386D01*
X613750D01*
X615229Y284680D01*
X616482Y285518D01*
X617925Y286960D01*
X626540D01*
Y290098D01*
X627607Y290310D01*
X629605Y291645D01*
X630940Y293643D01*
X631408Y296000D01*
X630940Y298357D01*
X629605Y300355D01*
X627607Y301689D01*
X626540Y301902D01*
Y305040D01*
X618377D01*
X617988Y305547D01*
X618615Y306817D01*
X626540D01*
Y309955D01*
X627607Y310168D01*
X629605Y311502D01*
X630940Y313500D01*
X631408Y315857D01*
X630940Y318214D01*
X629605Y320212D01*
X627607Y321547D01*
X626540Y321759D01*
Y324897D01*
X617925D01*
X617071Y325751D01*
X617557Y326924D01*
X626540D01*
Y330062D01*
X627607Y330275D01*
X629605Y331610D01*
X630940Y333607D01*
X631408Y335964D01*
X630940Y338321D01*
X629605Y340319D01*
X627607Y341654D01*
X626540Y341866D01*
Y345004D01*
X618196D01*
X617600Y345733D01*
X618113Y346960D01*
X626540D01*
Y350098D01*
X627607Y350311D01*
X629605Y351645D01*
X630940Y353643D01*
X631408Y356000D01*
X630940Y358357D01*
X629605Y360355D01*
X627607Y361690D01*
X626540Y361902D01*
Y365040D01*
D02*
G37*
G36*
X326340Y371790D02*
X305260D01*
Y350710D01*
X326340D01*
Y371790D01*
D02*
G37*
G36*
X265000Y371881D02*
X262248Y371519D01*
X259685Y370457D01*
X257483Y368767D01*
X255793Y366566D01*
X254731Y364002D01*
X254369Y361250D01*
X254731Y358498D01*
X255793Y355934D01*
X257483Y353733D01*
X259685Y352043D01*
X262248Y350981D01*
X265000Y350619D01*
X267752Y350981D01*
X270315Y352043D01*
X272517Y353733D01*
X274207Y355934D01*
X275269Y358498D01*
X275631Y361250D01*
X275269Y364002D01*
X274207Y366566D01*
X272517Y368767D01*
X270315Y370457D01*
X267752Y371519D01*
X265000Y371881D01*
D02*
G37*
G36*
X344340Y406790D02*
X333260D01*
Y383710D01*
X334936D01*
Y327540D01*
X285210D01*
Y302460D01*
X311386D01*
Y283290D01*
X308300D01*
Y265210D01*
X322380D01*
Y283290D01*
X319114D01*
Y302460D01*
X345290D01*
Y327540D01*
X342664D01*
Y383710D01*
X344340D01*
Y406790D01*
D02*
G37*
G36*
X-35765Y313578D02*
X-40871Y313176D01*
X-45851Y311980D01*
X-50583Y310020D01*
X-54950Y307344D01*
X-58845Y304018D01*
X-62171Y300123D01*
X-64847Y295756D01*
X-66807Y291024D01*
X-68003Y286043D01*
X-68405Y280937D01*
X-68003Y275831D01*
X-66807Y270851D01*
X-64847Y266119D01*
X-62171Y261751D01*
X-58845Y257857D01*
X-54950Y254530D01*
X-50583Y251854D01*
X-45851Y249894D01*
X-40871Y248699D01*
X-35765Y248297D01*
X-30658Y248699D01*
X-25678Y249894D01*
X-20946Y251854D01*
X-16579Y254530D01*
X-12684Y257857D01*
X-9358Y261751D01*
X-6682Y266119D01*
X-4721Y270851D01*
X-3526Y275831D01*
X-3124Y280937D01*
X-3526Y286043D01*
X-4721Y291024D01*
X-6682Y295756D01*
X-9358Y300123D01*
X-12684Y304018D01*
X-16579Y307344D01*
X-20946Y310020D01*
X-25678Y311980D01*
X-30658Y313176D01*
X-35765Y313578D01*
D02*
G37*
G36*
X640965Y168400D02*
X638714D01*
X637236Y168106D01*
X635982Y167268D01*
X635144Y166014D01*
X634850Y164536D01*
X635144Y163057D01*
X635982Y161803D01*
X637236Y160965D01*
X638714Y160671D01*
X639412D01*
X640327Y160060D01*
X641035Y159000D01*
X642289Y158162D01*
X643768Y157868D01*
X645247Y158162D01*
X646500Y159000D01*
X648268Y160767D01*
X648268Y160768D01*
X649106Y162021D01*
X649400Y163500D01*
X649106Y164979D01*
X648268Y166232D01*
X647014Y167070D01*
X645536Y167364D01*
X645535Y167364D01*
X643553D01*
X642443Y168106D01*
X640965Y168400D01*
D02*
G37*
G36*
X575900Y82268D02*
X573248Y81918D01*
X570776Y80895D01*
X568654Y79266D01*
X567025Y77144D01*
X566002Y74672D01*
X565652Y72020D01*
X566002Y69368D01*
X567025Y66896D01*
X568654Y64774D01*
X570776Y63145D01*
X573248Y62122D01*
X575900Y61772D01*
X578552Y62122D01*
X581024Y63145D01*
X583146Y64774D01*
X584775Y66896D01*
X585798Y69368D01*
X586148Y72020D01*
X585798Y74672D01*
X584775Y77144D01*
X583146Y79266D01*
X581024Y80895D01*
X578552Y81918D01*
X575900Y82268D01*
D02*
G37*
G36*
X101600Y65493D02*
X98783Y65122D01*
X96159Y64035D01*
X93904Y62305D01*
X92175Y60051D01*
X91088Y57427D01*
X90717Y54610D01*
X91088Y51793D01*
X92175Y49169D01*
X93904Y46915D01*
X96159Y45185D01*
X98783Y44098D01*
X101600Y43727D01*
X104417Y44098D01*
X107042Y45185D01*
X109296Y46915D01*
X111025Y49169D01*
X112112Y51793D01*
X112483Y54610D01*
X112112Y57427D01*
X111025Y60051D01*
X109296Y62305D01*
X107042Y64035D01*
X104417Y65122D01*
X101600Y65493D01*
D02*
G37*
G36*
X76200D02*
X73383Y65122D01*
X70759Y64035D01*
X68505Y62305D01*
X66775Y60051D01*
X65688Y57427D01*
X65317Y54610D01*
X65688Y51793D01*
X66775Y49169D01*
X68505Y46915D01*
X70759Y45185D01*
X73383Y44098D01*
X76200Y43727D01*
X79017Y44098D01*
X81642Y45185D01*
X83896Y46915D01*
X85625Y49169D01*
X86712Y51793D01*
X87083Y54610D01*
X86712Y57427D01*
X85625Y60051D01*
X83896Y62305D01*
X81642Y64035D01*
X79017Y65122D01*
X76200Y65493D01*
D02*
G37*
G36*
X50800D02*
X47983Y65122D01*
X45359Y64035D01*
X43105Y62305D01*
X41375Y60051D01*
X40288Y57427D01*
X39917Y54610D01*
X40288Y51793D01*
X41375Y49169D01*
X43105Y46915D01*
X45359Y45185D01*
X47983Y44098D01*
X50800Y43727D01*
X53617Y44098D01*
X56241Y45185D01*
X58495Y46915D01*
X60225Y49169D01*
X61312Y51793D01*
X61683Y54610D01*
X61312Y57427D01*
X60225Y60051D01*
X58495Y62305D01*
X56241Y64035D01*
X53617Y65122D01*
X50800Y65493D01*
D02*
G37*
G36*
X25400D02*
X22583Y65122D01*
X19958Y64035D01*
X17704Y62305D01*
X15975Y60051D01*
X14888Y57427D01*
X14517Y54610D01*
X14888Y51793D01*
X15975Y49169D01*
X17704Y46915D01*
X19958Y45185D01*
X22583Y44098D01*
X25400Y43727D01*
X28217Y44098D01*
X30842Y45185D01*
X33096Y46915D01*
X34825Y49169D01*
X35912Y51793D01*
X36283Y54610D01*
X35912Y57427D01*
X34825Y60051D01*
X33096Y62305D01*
X30842Y64035D01*
X28217Y65122D01*
X25400Y65493D01*
D02*
G37*
G36*
X0D02*
X-2817Y65122D01*
X-5441Y64035D01*
X-7696Y62305D01*
X-9425Y60051D01*
X-10512Y57427D01*
X-10883Y54610D01*
X-10512Y51793D01*
X-9425Y49169D01*
X-7696Y46915D01*
X-5441Y45185D01*
X-2817Y44098D01*
X0Y43727D01*
X2817Y44098D01*
X5441Y45185D01*
X7696Y46915D01*
X9425Y49169D01*
X10512Y51793D01*
X10883Y54610D01*
X10512Y57427D01*
X9425Y60051D01*
X7696Y62305D01*
X5441Y64035D01*
X2817Y65122D01*
X0Y65493D01*
D02*
G37*
G36*
X10540Y10540D02*
X-10540D01*
Y-10540D01*
X10540D01*
Y10540D01*
D02*
G37*
G36*
X304800Y10631D02*
X302048Y10269D01*
X299485Y9207D01*
X297283Y7517D01*
X295593Y5315D01*
X294531Y2752D01*
X294169Y0D01*
X294531Y-2752D01*
X295593Y-5315D01*
X297283Y-7517D01*
X299485Y-9207D01*
X302048Y-10269D01*
X304800Y-10631D01*
X307551Y-10269D01*
X310116Y-9207D01*
X312317Y-7517D01*
X314007Y-5315D01*
X315069Y-2752D01*
X315431Y0D01*
X315069Y2752D01*
X314007Y5315D01*
X312317Y7517D01*
X310116Y9207D01*
X307551Y10269D01*
X304800Y10631D01*
D02*
G37*
G36*
X279400D02*
X276649Y10269D01*
X274084Y9207D01*
X271883Y7517D01*
X270193Y5315D01*
X269131Y2752D01*
X268769Y0D01*
X269131Y-2752D01*
X270193Y-5315D01*
X271883Y-7517D01*
X274084Y-9207D01*
X276649Y-10269D01*
X279400Y-10631D01*
X282152Y-10269D01*
X284715Y-9207D01*
X286917Y-7517D01*
X288607Y-5315D01*
X289669Y-2752D01*
X290031Y0D01*
X289669Y2752D01*
X288607Y5315D01*
X286917Y7517D01*
X284715Y9207D01*
X282152Y10269D01*
X279400Y10631D01*
D02*
G37*
G36*
X254000D02*
X251248Y10269D01*
X248685Y9207D01*
X246483Y7517D01*
X244793Y5315D01*
X243731Y2752D01*
X243369Y0D01*
X243731Y-2752D01*
X244793Y-5315D01*
X246483Y-7517D01*
X248685Y-9207D01*
X251248Y-10269D01*
X254000Y-10631D01*
X256751Y-10269D01*
X259315Y-9207D01*
X261517Y-7517D01*
X263207Y-5315D01*
X264269Y-2752D01*
X264631Y0D01*
X264269Y2752D01*
X263207Y5315D01*
X261517Y7517D01*
X259315Y9207D01*
X256751Y10269D01*
X254000Y10631D01*
D02*
G37*
G36*
X228600D02*
X225849Y10269D01*
X223284Y9207D01*
X221083Y7517D01*
X219393Y5315D01*
X218331Y2752D01*
X217969Y0D01*
X218331Y-2752D01*
X219393Y-5315D01*
X221083Y-7517D01*
X223284Y-9207D01*
X225849Y-10269D01*
X228600Y-10631D01*
X231352Y-10269D01*
X233916Y-9207D01*
X236117Y-7517D01*
X237807Y-5315D01*
X238869Y-2752D01*
X239231Y0D01*
X238869Y2752D01*
X237807Y5315D01*
X236117Y7517D01*
X233916Y9207D01*
X231352Y10269D01*
X228600Y10631D01*
D02*
G37*
G36*
X203200D02*
X200448Y10269D01*
X197885Y9207D01*
X195683Y7517D01*
X193993Y5315D01*
X192931Y2752D01*
X192569Y0D01*
X192931Y-2752D01*
X193993Y-5315D01*
X195683Y-7517D01*
X197885Y-9207D01*
X200448Y-10269D01*
X203200Y-10631D01*
X205951Y-10269D01*
X208515Y-9207D01*
X210717Y-7517D01*
X212407Y-5315D01*
X213469Y-2752D01*
X213831Y0D01*
X213469Y2752D01*
X212407Y5315D01*
X210717Y7517D01*
X208515Y9207D01*
X205951Y10269D01*
X203200Y10631D01*
D02*
G37*
G36*
X177800D02*
X175049Y10269D01*
X172484Y9207D01*
X170283Y7517D01*
X168593Y5315D01*
X167531Y2752D01*
X167169Y0D01*
X167531Y-2752D01*
X168593Y-5315D01*
X170283Y-7517D01*
X172484Y-9207D01*
X175049Y-10269D01*
X177800Y-10631D01*
X180551Y-10269D01*
X183116Y-9207D01*
X185317Y-7517D01*
X187007Y-5315D01*
X188069Y-2752D01*
X188431Y0D01*
X188069Y2752D01*
X187007Y5315D01*
X185317Y7517D01*
X183116Y9207D01*
X180551Y10269D01*
X177800Y10631D01*
D02*
G37*
G36*
X152400D02*
X149649Y10269D01*
X147085Y9207D01*
X144883Y7517D01*
X143193Y5315D01*
X142131Y2752D01*
X141769Y0D01*
X142131Y-2752D01*
X143193Y-5315D01*
X144883Y-7517D01*
X147085Y-9207D01*
X149649Y-10269D01*
X152400Y-10631D01*
X155152Y-10269D01*
X157716Y-9207D01*
X159917Y-7517D01*
X161607Y-5315D01*
X162669Y-2752D01*
X163031Y0D01*
X162669Y2752D01*
X161607Y5315D01*
X159917Y7517D01*
X157716Y9207D01*
X155152Y10269D01*
X152400Y10631D01*
D02*
G37*
G36*
X127000D02*
X124249Y10269D01*
X121685Y9207D01*
X119483Y7517D01*
X117793Y5315D01*
X116731Y2752D01*
X116369Y0D01*
X116731Y-2752D01*
X117793Y-5315D01*
X119483Y-7517D01*
X121685Y-9207D01*
X124249Y-10269D01*
X127000Y-10631D01*
X129752Y-10269D01*
X132316Y-9207D01*
X134517Y-7517D01*
X136207Y-5315D01*
X137269Y-2752D01*
X137631Y0D01*
X137269Y2752D01*
X136207Y5315D01*
X134517Y7517D01*
X132316Y9207D01*
X129752Y10269D01*
X127000Y10631D01*
D02*
G37*
G36*
X101600D02*
X98848Y10269D01*
X96285Y9207D01*
X94083Y7517D01*
X92393Y5315D01*
X91331Y2752D01*
X90969Y0D01*
X91331Y-2752D01*
X92393Y-5315D01*
X94083Y-7517D01*
X96285Y-9207D01*
X98848Y-10269D01*
X101600Y-10631D01*
X104352Y-10269D01*
X106916Y-9207D01*
X109117Y-7517D01*
X110807Y-5315D01*
X111869Y-2752D01*
X112231Y0D01*
X111869Y2752D01*
X110807Y5315D01*
X109117Y7517D01*
X106916Y9207D01*
X104352Y10269D01*
X101600Y10631D01*
D02*
G37*
G36*
X76200D02*
X73449Y10269D01*
X70884Y9207D01*
X68683Y7517D01*
X66993Y5315D01*
X65931Y2752D01*
X65569Y0D01*
X65931Y-2752D01*
X66993Y-5315D01*
X68683Y-7517D01*
X70884Y-9207D01*
X73449Y-10269D01*
X76200Y-10631D01*
X78952Y-10269D01*
X81516Y-9207D01*
X83717Y-7517D01*
X85407Y-5315D01*
X86469Y-2752D01*
X86831Y0D01*
X86469Y2752D01*
X85407Y5315D01*
X83717Y7517D01*
X81516Y9207D01*
X78952Y10269D01*
X76200Y10631D01*
D02*
G37*
G36*
X50800D02*
X48049Y10269D01*
X45484Y9207D01*
X43283Y7517D01*
X41593Y5315D01*
X40531Y2752D01*
X40169Y0D01*
X40531Y-2752D01*
X41593Y-5315D01*
X43283Y-7517D01*
X45484Y-9207D01*
X48049Y-10269D01*
X50800Y-10631D01*
X53552Y-10269D01*
X56115Y-9207D01*
X58317Y-7517D01*
X60007Y-5315D01*
X61069Y-2752D01*
X61431Y0D01*
X61069Y2752D01*
X60007Y5315D01*
X58317Y7517D01*
X56115Y9207D01*
X53552Y10269D01*
X50800Y10631D01*
D02*
G37*
G36*
X25400D02*
X22648Y10269D01*
X20085Y9207D01*
X17883Y7517D01*
X16193Y5315D01*
X15131Y2752D01*
X14769Y0D01*
X15131Y-2752D01*
X16193Y-5315D01*
X17883Y-7517D01*
X20085Y-9207D01*
X22648Y-10269D01*
X25400Y-10631D01*
X28152Y-10269D01*
X30715Y-9207D01*
X32917Y-7517D01*
X34607Y-5315D01*
X35669Y-2752D01*
X36031Y0D01*
X35669Y2752D01*
X34607Y5315D01*
X32917Y7517D01*
X30715Y9207D01*
X28152Y10269D01*
X25400Y10631D01*
D02*
G37*
%LPD*%
G36*
X328262Y480286D02*
X328050Y480210D01*
X327863Y480083D01*
X327700Y479906D01*
X327562Y479678D01*
X327450Y479400D01*
X327363Y479071D01*
X327300Y478691D01*
X327262Y478261D01*
X327250Y477780D01*
X324750D01*
X324738Y478261D01*
X324700Y478691D01*
X324637Y479071D01*
X324550Y479400D01*
X324437Y479678D01*
X324300Y479906D01*
X324137Y480083D01*
X323950Y480210D01*
X323737Y480286D01*
X323500Y480311D01*
X328500D01*
X328262Y480286D01*
D02*
G37*
G36*
X315662D02*
X315450Y480210D01*
X315263Y480083D01*
X315100Y479906D01*
X314963Y479678D01*
X314850Y479400D01*
X314762Y479071D01*
X314700Y478691D01*
X314662Y478261D01*
X314650Y477780D01*
X312150D01*
X312138Y478261D01*
X312100Y478691D01*
X312038Y479071D01*
X311950Y479400D01*
X311838Y479678D01*
X311700Y479906D01*
X311537Y480083D01*
X311350Y480210D01*
X311138Y480286D01*
X310900Y480311D01*
X315900D01*
X315662Y480286D01*
D02*
G37*
G36*
X327255Y476396D02*
X327295Y475912D01*
X327330Y475697D01*
X327375Y475500D01*
X327430Y475321D01*
X327495Y475160D01*
X327570Y475017D01*
X327655Y474892D01*
X327750Y474785D01*
X324250D01*
X324345Y474892D01*
X324430Y475017D01*
X324505Y475160D01*
X324570Y475321D01*
X324625Y475500D01*
X324670Y475697D01*
X324705Y475912D01*
X324730Y476145D01*
X324750Y476665D01*
X327250D01*
X327255Y476396D01*
D02*
G37*
G36*
X314655D02*
X314695Y475912D01*
X314730Y475697D01*
X314775Y475500D01*
X314830Y475321D01*
X314895Y475160D01*
X314970Y475017D01*
X315055Y474892D01*
X315150Y474785D01*
X311650D01*
X311745Y474892D01*
X311830Y475017D01*
X311905Y475160D01*
X311970Y475321D01*
X312025Y475500D01*
X312070Y475697D01*
X312105Y475912D01*
X312130Y476145D01*
X312150Y476665D01*
X314650D01*
X314655Y476396D01*
D02*
G37*
G36*
X234261Y392750D02*
X234236Y392988D01*
X234160Y393200D01*
X234033Y393387D01*
X233856Y393550D01*
X233628Y393688D01*
X233350Y393800D01*
X233021Y393887D01*
X232642Y393950D01*
X232211Y393988D01*
X231730Y394000D01*
Y396500D01*
X232211Y396512D01*
X232642Y396550D01*
X233021Y396613D01*
X233350Y396700D01*
X233628Y396813D01*
X233856Y396950D01*
X234033Y397113D01*
X234160Y397300D01*
X234236Y397513D01*
X234261Y397750D01*
Y392750D01*
D02*
G37*
G36*
X220494Y397513D02*
X220569Y397300D01*
X220695Y397113D01*
X220870Y396950D01*
X221094Y396813D01*
X221369Y396700D01*
X221695Y396613D01*
X222069Y396550D01*
X222495Y396512D01*
X222969Y396500D01*
Y394000D01*
X222495Y393988D01*
X222069Y393950D01*
X221695Y393887D01*
X221369Y393800D01*
X221094Y393688D01*
X220870Y393550D01*
X220695Y393387D01*
X220569Y393200D01*
X220494Y392988D01*
X220469Y392750D01*
Y397750D01*
X220494Y397513D01*
D02*
G37*
G36*
X199981Y370000D02*
X199956Y370238D01*
X199880Y370450D01*
X199753Y370638D01*
X199576Y370800D01*
X199348Y370938D01*
X199070Y371050D01*
X198741Y371138D01*
X198361Y371200D01*
X197931Y371237D01*
X197451Y371250D01*
Y373750D01*
X197931Y373763D01*
X198361Y373800D01*
X198741Y373862D01*
X199070Y373950D01*
X199348Y374062D01*
X199576Y374200D01*
X199753Y374362D01*
X199880Y374550D01*
X199956Y374762D01*
X199981Y375000D01*
Y370000D01*
D02*
G37*
G36*
X192184Y374762D02*
X192260Y374550D01*
X192387Y374362D01*
X192564Y374200D01*
X192792Y374062D01*
X193070Y373950D01*
X193399Y373862D01*
X193779Y373800D01*
X194209Y373763D01*
X194690Y373750D01*
Y371250D01*
X194209Y371237D01*
X193779Y371200D01*
X193399Y371138D01*
X193070Y371050D01*
X192792Y370938D01*
X192564Y370800D01*
X192387Y370638D01*
X192260Y370450D01*
X192184Y370238D01*
X192159Y370000D01*
Y375000D01*
X192184Y374762D01*
D02*
G37*
G36*
X179281Y370000D02*
X179256Y370238D01*
X179180Y370450D01*
X179053Y370638D01*
X178876Y370800D01*
X178648Y370938D01*
X178370Y371050D01*
X178041Y371138D01*
X177661Y371200D01*
X177231Y371237D01*
X176751Y371250D01*
Y373750D01*
X177231Y373763D01*
X177661Y373800D01*
X178041Y373862D01*
X178370Y373950D01*
X178648Y374062D01*
X178876Y374200D01*
X179053Y374362D01*
X179180Y374550D01*
X179256Y374762D01*
X179281Y375000D01*
Y370000D01*
D02*
G37*
G36*
X171484Y374762D02*
X171560Y374550D01*
X171687Y374362D01*
X171864Y374200D01*
X172092Y374062D01*
X172370Y373950D01*
X172699Y373862D01*
X173079Y373800D01*
X173509Y373763D01*
X173990Y373750D01*
Y371250D01*
X173509Y371237D01*
X173079Y371200D01*
X172699Y371138D01*
X172370Y371050D01*
X172092Y370938D01*
X171864Y370800D01*
X171687Y370638D01*
X171560Y370450D01*
X171484Y370238D01*
X171459Y370000D01*
Y375000D01*
X171484Y374762D01*
D02*
G37*
G36*
X158581Y370000D02*
X158556Y370238D01*
X158480Y370450D01*
X158353Y370638D01*
X158176Y370800D01*
X157948Y370938D01*
X157670Y371050D01*
X157341Y371138D01*
X156961Y371200D01*
X156531Y371237D01*
X156051Y371250D01*
Y373750D01*
X156531Y373763D01*
X156961Y373800D01*
X157341Y373862D01*
X157670Y373950D01*
X157948Y374062D01*
X158176Y374200D01*
X158353Y374362D01*
X158480Y374550D01*
X158556Y374762D01*
X158581Y375000D01*
Y370000D01*
D02*
G37*
G36*
X150784Y374762D02*
X150860Y374550D01*
X150987Y374362D01*
X151164Y374200D01*
X151392Y374062D01*
X151670Y373950D01*
X151999Y373862D01*
X152379Y373800D01*
X152809Y373763D01*
X153290Y373750D01*
Y371250D01*
X152809Y371237D01*
X152379Y371200D01*
X151999Y371138D01*
X151670Y371050D01*
X151392Y370938D01*
X151164Y370800D01*
X150987Y370638D01*
X150860Y370450D01*
X150784Y370238D01*
X150759Y370000D01*
Y375000D01*
X150784Y374762D01*
D02*
G37*
G36*
X215389Y354504D02*
X214911Y354492D01*
X214482Y354454D01*
X214103Y354392D01*
X213775Y354304D01*
X213497Y354192D01*
X213269Y354054D01*
X213091Y353892D01*
X212964Y353704D01*
X212886Y353492D01*
X212859Y353254D01*
X212889Y356969D01*
X215389Y357004D01*
Y354504D01*
D02*
G37*
G36*
X182884Y350061D02*
X182688Y350195D01*
X182457Y350259D01*
X182191Y350254D01*
X181890Y350178D01*
X181554Y350033D01*
X181183Y349819D01*
X180777Y349534D01*
X180336Y349180D01*
X179349Y348263D01*
X177483Y349932D01*
X177985Y350452D01*
X178775Y351381D01*
X179062Y351790D01*
X179278Y352162D01*
X179422Y352497D01*
X179494Y352795D01*
X179495Y353056D01*
X179424Y353280D01*
X179281Y353468D01*
X182884Y350061D01*
D02*
G37*
G36*
X171443Y352037D02*
X171471Y351949D01*
X171542Y351824D01*
X171657Y351662D01*
X171815Y351465D01*
X172550Y350654D01*
X173257Y349932D01*
X171391Y348263D01*
X171015Y348635D01*
X169507Y349971D01*
X169380Y350044D01*
X169289Y350074D01*
X169234Y350061D01*
X171459Y352090D01*
X171443Y352037D01*
D02*
G37*
G36*
X150649Y353776D02*
X150623Y353507D01*
X150680Y353189D01*
X150822Y352821D01*
X151049Y352403D01*
X151359Y351937D01*
X151753Y351421D01*
X152795Y350241D01*
X153441Y349576D01*
X151220Y348263D01*
X150685Y348780D01*
X149736Y349589D01*
X149323Y349882D01*
X148949Y350099D01*
X148616Y350241D01*
X148322Y350309D01*
X148069Y350301D01*
X147857Y350219D01*
X147684Y350061D01*
X150759Y353996D01*
X150649Y353776D01*
D02*
G37*
G36*
X187983Y350036D02*
X187770Y349960D01*
X187583Y349833D01*
X187420Y349656D01*
X187283Y349428D01*
X187170Y349150D01*
X187083Y348821D01*
X187081Y348811D01*
X187095Y348750D01*
X187150Y348571D01*
X187215Y348410D01*
X187290Y348267D01*
X187375Y348142D01*
X187470Y348035D01*
X186985D01*
X186983Y348011D01*
X186970Y347531D01*
X184470D01*
X184457Y348011D01*
X184456Y348035D01*
X183970D01*
X184065Y348142D01*
X184150Y348267D01*
X184225Y348410D01*
X184290Y348571D01*
X184345Y348750D01*
X184359Y348811D01*
X184357Y348821D01*
X184270Y349150D01*
X184158Y349428D01*
X184020Y349656D01*
X183857Y349833D01*
X183670Y349960D01*
X183458Y350036D01*
X183220Y350061D01*
X188220D01*
X187983Y350036D01*
D02*
G37*
G36*
X167283D02*
X167070Y349960D01*
X166883Y349833D01*
X166720Y349656D01*
X166583Y349428D01*
X166470Y349150D01*
X166383Y348821D01*
X166381Y348811D01*
X166395Y348750D01*
X166450Y348571D01*
X166515Y348410D01*
X166590Y348267D01*
X166675Y348142D01*
X166770Y348035D01*
X166285D01*
X166283Y348011D01*
X166270Y347531D01*
X163770D01*
X163758Y348011D01*
X163755Y348035D01*
X163270D01*
X163365Y348142D01*
X163450Y348267D01*
X163525Y348410D01*
X163590Y348571D01*
X163645Y348750D01*
X163659Y348811D01*
X163658Y348821D01*
X163570Y349150D01*
X163458Y349428D01*
X163320Y349656D01*
X163158Y349833D01*
X162970Y349960D01*
X162758Y350036D01*
X162520Y350061D01*
X167520D01*
X167283Y350036D01*
D02*
G37*
G36*
X146583D02*
X146370Y349960D01*
X146183Y349833D01*
X146020Y349656D01*
X145883Y349428D01*
X145770Y349150D01*
X145683Y348821D01*
X145681Y348811D01*
X145695Y348750D01*
X145750Y348571D01*
X145815Y348410D01*
X145890Y348267D01*
X145975Y348142D01*
X146070Y348035D01*
X145585D01*
X145583Y348011D01*
X145570Y347531D01*
X143070D01*
X143058Y348011D01*
X143055Y348035D01*
X142570D01*
X142665Y348142D01*
X142750Y348267D01*
X142825Y348410D01*
X142890Y348571D01*
X142945Y348750D01*
X142959Y348811D01*
X142958Y348821D01*
X142870Y349150D01*
X142758Y349428D01*
X142620Y349656D01*
X142458Y349833D01*
X142270Y349960D01*
X142058Y350036D01*
X141820Y350061D01*
X146820D01*
X146583Y350036D01*
D02*
G37*
G36*
X130714Y293013D02*
X130790Y292800D01*
X130917Y292612D01*
X131094Y292450D01*
X131322Y292313D01*
X131600Y292200D01*
X131929Y292113D01*
X132309Y292050D01*
X132739Y292013D01*
X133219Y292000D01*
Y289500D01*
X132739Y289487D01*
X132309Y289450D01*
X131929Y289387D01*
X131600Y289300D01*
X131322Y289188D01*
X131094Y289050D01*
X130917Y288888D01*
X130790Y288700D01*
X130714Y288487D01*
X130689Y288250D01*
Y293250D01*
X130714Y293013D01*
D02*
G37*
G36*
X186248Y285712D02*
X176399Y275864D01*
X133290D01*
Y281040D01*
X133290D01*
Y281710D01*
X133290D01*
Y286886D01*
X185762D01*
X186248Y285712D01*
D02*
G37*
G36*
X130714Y274263D02*
X130790Y274050D01*
X130917Y273862D01*
X131094Y273700D01*
X131322Y273563D01*
X131600Y273450D01*
X131929Y273363D01*
X132309Y273300D01*
X132739Y273263D01*
X133219Y273250D01*
Y270750D01*
X132739Y270737D01*
X132309Y270700D01*
X131929Y270637D01*
X131600Y270550D01*
X131322Y270438D01*
X131094Y270300D01*
X130917Y270138D01*
X130790Y269950D01*
X130714Y269737D01*
X130689Y269500D01*
Y274500D01*
X130714Y274263D01*
D02*
G37*
G36*
X604995Y385862D02*
X605070Y385676D01*
X605195Y385512D01*
X605369Y385369D01*
X605594Y385249D01*
X605869Y385150D01*
X606194Y385074D01*
X606570Y385019D01*
X606995Y384986D01*
X607469Y384976D01*
Y382476D01*
X606990Y382463D01*
X606561Y382425D01*
X606182Y382363D01*
X605854Y382276D01*
X605576Y382163D01*
X605348Y382025D01*
X605170Y381863D01*
X605043Y381675D01*
X604966Y381463D01*
X604939Y381226D01*
X604969Y386069D01*
X604995Y385862D01*
D02*
G37*
G36*
X615031Y369530D02*
X615005Y369572D01*
X614930Y369609D01*
X614805Y369642D01*
X614631Y369671D01*
X614406Y369695D01*
X613430Y369741D01*
X612531Y369750D01*
Y372250D01*
X613010Y372262D01*
X613438Y372300D01*
X613817Y372363D01*
X614145Y372450D01*
X614424Y372562D01*
X614651Y372700D01*
X614829Y372863D01*
X614957Y373050D01*
X615034Y373262D01*
X615061Y373500D01*
X615031Y369530D01*
D02*
G37*
G36*
X604995Y373157D02*
X605070Y372966D01*
X605195Y372799D01*
X605369Y372653D01*
X605594Y372530D01*
X605869Y372429D01*
X606194Y372351D01*
X606570Y372295D01*
X606995Y372261D01*
X607469Y372250D01*
Y369750D01*
X606990Y369738D01*
X606561Y369700D01*
X606182Y369637D01*
X605854Y369550D01*
X605575Y369437D01*
X605348Y369300D01*
X605170Y369137D01*
X605043Y368950D01*
X604966Y368737D01*
X604939Y368500D01*
X604969Y373369D01*
X604995Y373157D01*
D02*
G37*
G36*
X615061Y355200D02*
X615036Y355438D01*
X614960Y355650D01*
X614833Y355838D01*
X614656Y356000D01*
X614428Y356138D01*
X614150Y356250D01*
X613821Y356338D01*
X613441Y356400D01*
X613011Y356437D01*
X612531Y356450D01*
Y358950D01*
X613011Y358963D01*
X613441Y359000D01*
X613821Y359062D01*
X614150Y359150D01*
X614428Y359263D01*
X614656Y359400D01*
X614833Y359562D01*
X614960Y359750D01*
X615036Y359963D01*
X615061Y360200D01*
Y355200D01*
D02*
G37*
G36*
X604964Y359963D02*
X605040Y359750D01*
X605167Y359562D01*
X605344Y359400D01*
X605572Y359263D01*
X605850Y359150D01*
X606179Y359062D01*
X606558Y359000D01*
X606989Y358963D01*
X607469Y358950D01*
Y356450D01*
X606989Y356437D01*
X606558Y356400D01*
X606179Y356338D01*
X605850Y356250D01*
X605572Y356138D01*
X605344Y356000D01*
X605167Y355838D01*
X605040Y355650D01*
X604964Y355438D01*
X604939Y355200D01*
Y360200D01*
X604964Y359963D01*
D02*
G37*
G36*
X604966Y345513D02*
X605043Y345300D01*
X605171Y345112D01*
X605349Y344950D01*
X605577Y344813D01*
X605855Y344700D01*
X606183Y344613D01*
X606562Y344550D01*
X606991Y344512D01*
X607469Y344500D01*
Y342000D01*
X604969Y342030D01*
X604939Y345750D01*
X604966Y345513D01*
D02*
G37*
G36*
X604959Y332276D02*
X605016Y332176D01*
X605110Y332088D01*
X605241Y332012D01*
X605409Y331947D01*
X605614Y331894D01*
X605857Y331853D01*
X606137Y331824D01*
X606807Y331800D01*
Y329300D01*
X604969Y329330D01*
X604939Y332388D01*
X604959Y332276D01*
D02*
G37*
G36*
X604969Y316630D02*
X604833Y316609D01*
X604711Y316545D01*
X604603Y316439D01*
X604509Y316290D01*
X604430Y316098D01*
X604365Y315863D01*
X604315Y315586D01*
X604279Y315267D01*
X604257Y314905D01*
X604250Y314500D01*
X601750D01*
X601741Y314909D01*
X601671Y315599D01*
X601609Y315880D01*
X601530Y316117D01*
X601433Y316312D01*
X601319Y316464D01*
X601186Y316572D01*
X601037Y316638D01*
X600869Y316661D01*
X604969Y316630D01*
D02*
G37*
G36*
X602215Y278500D02*
X602108Y278595D01*
X601983Y278680D01*
X601840Y278755D01*
X601679Y278820D01*
X601500Y278875D01*
X601303Y278920D01*
X601088Y278955D01*
X600855Y278980D01*
X600335Y279000D01*
Y281500D01*
X600604Y281505D01*
X601088Y281545D01*
X601303Y281580D01*
X601500Y281625D01*
X601679Y281680D01*
X601840Y281745D01*
X601983Y281820D01*
X602108Y281905D01*
X602215Y282000D01*
Y278500D01*
D02*
G37*
G36*
X637215Y276000D02*
X637108Y276095D01*
X636983Y276180D01*
X636840Y276255D01*
X636679Y276320D01*
X636500Y276375D01*
X636303Y276420D01*
X636088Y276455D01*
X635855Y276480D01*
X635335Y276500D01*
Y279000D01*
X635604Y279005D01*
X636088Y279045D01*
X636303Y279080D01*
X636500Y279125D01*
X636679Y279180D01*
X636840Y279245D01*
X636983Y279320D01*
X637108Y279405D01*
X637215Y279500D01*
Y276000D01*
D02*
G37*
G36*
X146281Y253706D02*
X146256Y253943D01*
X146180Y254156D01*
X146053Y254343D01*
X145876Y254506D01*
X145648Y254643D01*
X145370Y254755D01*
X145041Y254843D01*
X144662Y254905D01*
X144231Y254943D01*
X143750Y254956D01*
Y257456D01*
X144231Y257468D01*
X144662Y257505D01*
X145041Y257568D01*
X145370Y257656D01*
X145648Y257768D01*
X145876Y257906D01*
X146053Y258068D01*
X146180Y258256D01*
X146256Y258468D01*
X146281Y258706D01*
Y253706D01*
D02*
G37*
G36*
X629126Y250331D02*
X628957Y250492D01*
X628746Y250577D01*
X628495Y250586D01*
X628203Y250520D01*
X627870Y250378D01*
X627496Y250160D01*
X627081Y249867D01*
X626625Y249498D01*
X625591Y248533D01*
X623439Y249917D01*
X624082Y250578D01*
X625513Y252269D01*
X625823Y252735D01*
X626049Y253153D01*
X626192Y253521D01*
X626252Y253842D01*
X626228Y254113D01*
X626121Y254336D01*
X629126Y250331D01*
D02*
G37*
G36*
X623031Y245973D02*
X622845Y245778D01*
X622683Y245590D01*
X622546Y245407D01*
X622432Y245231D01*
X622343Y245062D01*
X622278Y244898D01*
X622237Y244741D01*
X622221Y244590D01*
X622228Y244445D01*
X622260Y244306D01*
X619161Y245935D01*
X619252Y245969D01*
X619354Y246021D01*
X619468Y246091D01*
X619594Y246178D01*
X619882Y246407D01*
X620217Y246706D01*
X620600Y247077D01*
X623031Y245973D01*
D02*
G37*
G36*
X581329Y229056D02*
X581117Y228980D01*
X580929Y228853D01*
X580767Y228676D01*
X580629Y228448D01*
X580517Y228170D01*
X580429Y227841D01*
X580367Y227461D01*
X580360Y227390D01*
X580362Y227375D01*
X580397Y227160D01*
X580442Y226963D01*
X580497Y226784D01*
X580562Y226623D01*
X580637Y226481D01*
X580722Y226355D01*
X580817Y226248D01*
X577317D01*
X577412Y226355D01*
X577497Y226481D01*
X577572Y226623D01*
X577637Y226784D01*
X577692Y226963D01*
X577737Y227160D01*
X577772Y227375D01*
X577773Y227388D01*
X577767Y227461D01*
X577704Y227841D01*
X577617Y228170D01*
X577504Y228448D01*
X577367Y228676D01*
X577204Y228853D01*
X577017Y228980D01*
X576804Y229056D01*
X576567Y229081D01*
X581567D01*
X581329Y229056D01*
D02*
G37*
G36*
X633633Y228386D02*
X633420Y228310D01*
X633232Y228183D01*
X633070Y228006D01*
X632933Y227778D01*
X632820Y227500D01*
X632733Y227171D01*
X632670Y226791D01*
X632632Y226361D01*
X632620Y225881D01*
X630120D01*
X630107Y226361D01*
X630070Y226791D01*
X630008Y227171D01*
X629920Y227500D01*
X629808Y227778D01*
X629670Y228006D01*
X629507Y228183D01*
X629320Y228310D01*
X629108Y228386D01*
X628870Y228411D01*
X633870D01*
X633633Y228386D01*
D02*
G37*
G36*
X632625Y224436D02*
X632665Y223952D01*
X632700Y223737D01*
X632745Y223540D01*
X632800Y223361D01*
X632865Y223200D01*
X632940Y223057D01*
X633025Y222932D01*
X633120Y222825D01*
X629620D01*
X629715Y222932D01*
X629800Y223057D01*
X629875Y223200D01*
X629940Y223361D01*
X629995Y223540D01*
X630040Y223737D01*
X630075Y223952D01*
X630100Y224185D01*
X630120Y224705D01*
X632620D01*
X632625Y224436D01*
D02*
G37*
G36*
X615525Y239185D02*
X617523Y237850D01*
X619880Y237382D01*
X622237Y237850D01*
X622400Y237959D01*
X623520Y237361D01*
Y225810D01*
X625766D01*
X626444Y224540D01*
X625681Y223397D01*
X625212Y221040D01*
X625681Y218683D01*
X627015Y216685D01*
X628710Y215553D01*
Y213364D01*
X610321D01*
X598378Y225307D01*
X598864Y226480D01*
X611760D01*
Y236510D01*
X614533Y239283D01*
X615525Y239185D01*
D02*
G37*
G36*
X86208Y219757D02*
X65917Y199467D01*
X65723Y199296D01*
X65423Y199058D01*
X65295Y198970D01*
X64972D01*
X64907Y198986D01*
X64799Y198970D01*
X58043D01*
X57494Y200217D01*
X78208Y220931D01*
X85722D01*
X86208Y219757D01*
D02*
G37*
G36*
X143680Y247590D02*
X148606D01*
Y244955D01*
X145810Y242159D01*
X16955D01*
X15476Y241865D01*
X14223Y241028D01*
X-27835Y198970D01*
X-36912D01*
X-37438Y200240D01*
X14663Y252341D01*
X143680D01*
Y247590D01*
D02*
G37*
G36*
X540654Y200821D02*
X540686Y200422D01*
X540739Y200070D01*
X540814Y199765D01*
X540910Y199507D01*
X541027Y199296D01*
X541166Y199131D01*
X541326Y199014D01*
X541507Y198944D01*
X541709Y198920D01*
X537077D01*
X537280Y198944D01*
X537461Y199014D01*
X537621Y199131D01*
X537760Y199296D01*
X537877Y199507D01*
X537973Y199765D01*
X538047Y200070D01*
X538101Y200422D01*
X538133Y200821D01*
X538143Y201267D01*
X540643D01*
X540654Y200821D01*
D02*
G37*
G36*
X452853Y198675D02*
X452890Y198249D01*
X452952Y197875D01*
X453040Y197549D01*
X453153Y197274D01*
X453290Y197050D01*
X453452Y196875D01*
X453640Y196749D01*
X453853Y196674D01*
X454090Y196649D01*
X449090D01*
X449328Y196674D01*
X449540Y196749D01*
X449728Y196875D01*
X449890Y197050D01*
X450028Y197274D01*
X450140Y197549D01*
X450228Y197875D01*
X450290Y198249D01*
X450327Y198675D01*
X450340Y199149D01*
X452840D01*
X452853Y198675D01*
D02*
G37*
G36*
X211103D02*
X211140Y198249D01*
X211203Y197875D01*
X211290Y197549D01*
X211402Y197274D01*
X211540Y197050D01*
X211702Y196875D01*
X211890Y196749D01*
X212103Y196674D01*
X212340Y196649D01*
X207340D01*
X207577Y196674D01*
X207790Y196749D01*
X207978Y196875D01*
X208140Y197050D01*
X208277Y197274D01*
X208390Y197549D01*
X208477Y197875D01*
X208540Y198249D01*
X208577Y198675D01*
X208590Y199149D01*
X211090D01*
X211103Y198675D01*
D02*
G37*
G36*
X162852D02*
X162890Y198249D01*
X162952Y197875D01*
X163040Y197549D01*
X163153Y197274D01*
X163290Y197050D01*
X163452Y196875D01*
X163640Y196749D01*
X163853Y196674D01*
X164090Y196649D01*
X159090D01*
X159327Y196674D01*
X159540Y196749D01*
X159727Y196875D01*
X159890Y197050D01*
X160028Y197274D01*
X160140Y197549D01*
X160228Y197875D01*
X160290Y198249D01*
X160327Y198675D01*
X160340Y199149D01*
X162840D01*
X162852Y198675D01*
D02*
G37*
G36*
X117065Y198361D02*
X117140Y197410D01*
X117185Y197178D01*
X117240Y196988D01*
X117305Y196840D01*
X117380Y196734D01*
X117465Y196671D01*
X117559Y196649D01*
X113697D01*
X113861Y196671D01*
X114008Y196734D01*
X114137Y196840D01*
X114250Y196988D01*
X114345Y197178D01*
X114422Y197410D01*
X114483Y197685D01*
X114526Y198002D01*
X114552Y198361D01*
X114560Y198763D01*
X117060D01*
X117065Y198361D01*
D02*
G37*
G36*
X304849Y198109D02*
X304917Y197434D01*
X304978Y197159D01*
X305055Y196927D01*
X305150Y196737D01*
X305262Y196589D01*
X305391Y196484D01*
X305537Y196421D01*
X305700Y196399D01*
X302370D01*
X302365Y196421D01*
X302360Y196484D01*
X302348Y196927D01*
X302340Y198510D01*
X304840D01*
X304849Y198109D01*
D02*
G37*
G36*
X70827Y197144D02*
X70299Y196598D01*
X69476Y195634D01*
X69182Y195216D01*
X68966Y194841D01*
X68829Y194509D01*
X68769Y194220D01*
X68788Y193973D01*
X68885Y193769D01*
X69060Y193609D01*
X64779Y196399D01*
X65007Y196292D01*
X65263Y196247D01*
X65547Y196266D01*
X65859Y196347D01*
X66198Y196493D01*
X66566Y196701D01*
X66961Y196973D01*
X67385Y197308D01*
X67836Y197706D01*
X68315Y198167D01*
X70827Y197144D01*
D02*
G37*
G36*
X50203Y228757D02*
X20415Y198970D01*
X9800D01*
Y196851D01*
X8818Y196045D01*
X8250Y196158D01*
X5893Y195690D01*
X3895Y194355D01*
X3410Y193628D01*
X1891Y193330D01*
X1514Y193601D01*
X1440Y194949D01*
X36422Y229931D01*
X49717D01*
X50203Y228757D01*
D02*
G37*
G36*
X-44749Y196623D02*
X-45932Y195295D01*
X-45978Y195209D01*
X-45993Y195149D01*
X-51529Y195119D01*
X-51179Y195139D01*
X-50828Y195194D01*
X-50477Y195285D01*
X-50125Y195411D01*
X-49771Y195573D01*
X-49417Y195771D01*
X-49063Y196004D01*
X-48707Y196273D01*
X-48351Y196577D01*
X-47993Y196917D01*
X-44458D01*
X-44749Y196623D01*
D02*
G37*
G36*
X489522Y197213D02*
X489154Y195997D01*
X488511Y195870D01*
X486513Y194535D01*
X486210Y194081D01*
X484940Y194466D01*
Y195290D01*
X484940Y195290D01*
X484646Y196769D01*
X483808Y198023D01*
X483808Y198023D01*
X438619Y243212D01*
X439105Y244386D01*
X442349D01*
X489522Y197213D01*
D02*
G37*
G36*
X392766Y197904D02*
X392381Y196494D01*
X390676Y195355D01*
X389775Y194006D01*
X388505Y194391D01*
Y194976D01*
X388505Y194976D01*
X388210Y196455D01*
X387373Y197708D01*
X387373Y197708D01*
X360559Y224522D01*
X361045Y225696D01*
X364975D01*
X392766Y197904D01*
D02*
G37*
G36*
X205976Y209489D02*
Y199220D01*
X202800D01*
Y197610D01*
X201899Y196871D01*
X199542Y196402D01*
X197544Y195067D01*
X196497Y193499D01*
X196250Y193315D01*
X195010Y193761D01*
Y210466D01*
X200004Y215461D01*
X205976Y209489D01*
D02*
G37*
G36*
X447726Y205320D02*
Y199220D01*
X444550D01*
Y196654D01*
X444250Y196408D01*
X441893Y195940D01*
X439895Y194605D01*
X438884Y193090D01*
X438359Y192927D01*
X437129Y193695D01*
Y194761D01*
X436835Y196240D01*
X435997Y197494D01*
X435997Y197494D01*
X399369Y234122D01*
X399855Y235296D01*
X417750D01*
X447726Y205320D01*
D02*
G37*
G36*
X23077Y194400D02*
X22737Y194042D01*
X22433Y193686D01*
X22164Y193330D01*
X21931Y192975D01*
X21733Y192621D01*
X21571Y192268D01*
X21445Y191916D01*
X21354Y191564D01*
X21299Y191214D01*
X21279Y190864D01*
X21309Y196399D01*
X21369Y196415D01*
X21455Y196461D01*
X21566Y196538D01*
X21704Y196645D01*
X22273Y197152D01*
X23077Y197935D01*
Y194400D01*
D02*
G37*
G36*
X-25173D02*
X-25513Y194042D01*
X-25817Y193686D01*
X-26086Y193330D01*
X-26319Y192975D01*
X-26517Y192621D01*
X-26679Y192268D01*
X-26805Y191916D01*
X-26896Y191564D01*
X-26951Y191214D01*
X-26971Y190864D01*
X-26941Y196399D01*
X-26881Y196415D01*
X-26795Y196461D01*
X-26684Y196538D01*
X-26546Y196645D01*
X-25977Y197152D01*
X-25173Y197935D01*
Y194400D01*
D02*
G37*
G36*
X192401Y191795D02*
X192441Y191311D01*
X192476Y191096D01*
X192521Y190899D01*
X192576Y190720D01*
X192641Y190559D01*
X192716Y190416D01*
X192801Y190291D01*
X192896Y190184D01*
X189396D01*
X189491Y190291D01*
X189576Y190416D01*
X189651Y190559D01*
X189716Y190720D01*
X189771Y190899D01*
X189816Y191096D01*
X189851Y191311D01*
X189876Y191544D01*
X189896Y192064D01*
X192396D01*
X192401Y191795D01*
D02*
G37*
G36*
X144033D02*
X144073Y191311D01*
X144108Y191096D01*
X144153Y190899D01*
X144208Y190720D01*
X144273Y190559D01*
X144348Y190416D01*
X144433Y190291D01*
X144528Y190184D01*
X141028D01*
X141123Y190291D01*
X141208Y190416D01*
X141283Y190559D01*
X141348Y190720D01*
X141403Y190899D01*
X141448Y191096D01*
X141483Y191311D01*
X141508Y191544D01*
X141528Y192064D01*
X144028D01*
X144033Y191795D01*
D02*
G37*
G36*
X95396D02*
X95436Y191311D01*
X95471Y191096D01*
X95516Y190899D01*
X95571Y190720D01*
X95636Y190559D01*
X95711Y190416D01*
X95796Y190291D01*
X95891Y190184D01*
X92391D01*
X92486Y190291D01*
X92571Y190416D01*
X92646Y190559D01*
X92711Y190720D01*
X92766Y190899D01*
X92811Y191096D01*
X92846Y191311D01*
X92871Y191544D01*
X92891Y192064D01*
X95391D01*
X95396Y191795D01*
D02*
G37*
G36*
X47149D02*
X47189Y191311D01*
X47224Y191096D01*
X47269Y190899D01*
X47324Y190720D01*
X47389Y190559D01*
X47464Y190416D01*
X47549Y190291D01*
X47644Y190184D01*
X44144D01*
X44239Y190291D01*
X44324Y190416D01*
X44399Y190559D01*
X44464Y190720D01*
X44519Y190899D01*
X44564Y191096D01*
X44599Y191311D01*
X44624Y191544D01*
X44644Y192064D01*
X47144D01*
X47149Y191795D01*
D02*
G37*
G36*
X-1354Y191752D02*
X-1314Y191268D01*
X-1279Y191053D01*
X-1234Y190856D01*
X-1179Y190677D01*
X-1114Y190516D01*
X-1039Y190373D01*
X-954Y190248D01*
X-859Y190141D01*
X-4359D01*
X-4264Y190248D01*
X-4179Y190373D01*
X-4104Y190516D01*
X-4039Y190677D01*
X-3984Y190856D01*
X-3939Y191053D01*
X-3904Y191268D01*
X-3879Y191501D01*
X-3859Y192021D01*
X-1359D01*
X-1354Y191752D01*
D02*
G37*
G36*
X530935Y191738D02*
X530975Y191254D01*
X531010Y191039D01*
X531055Y190842D01*
X531110Y190663D01*
X531175Y190502D01*
X531250Y190359D01*
X531335Y190234D01*
X531430Y190127D01*
X527930D01*
X528025Y190234D01*
X528110Y190359D01*
X528185Y190502D01*
X528250Y190663D01*
X528305Y190842D01*
X528350Y191039D01*
X528385Y191254D01*
X528410Y191487D01*
X528430Y192007D01*
X530930D01*
X530935Y191738D01*
D02*
G37*
G36*
X482331D02*
X482371Y191254D01*
X482406Y191039D01*
X482451Y190842D01*
X482506Y190663D01*
X482571Y190502D01*
X482646Y190359D01*
X482731Y190234D01*
X482826Y190127D01*
X479326D01*
X479421Y190234D01*
X479506Y190359D01*
X479581Y190502D01*
X479646Y190663D01*
X479701Y190842D01*
X479746Y191039D01*
X479781Y191254D01*
X479806Y191487D01*
X479826Y192007D01*
X482326D01*
X482331Y191738D01*
D02*
G37*
G36*
X434520D02*
X434560Y191254D01*
X434595Y191039D01*
X434640Y190842D01*
X434695Y190663D01*
X434760Y190502D01*
X434835Y190359D01*
X434920Y190234D01*
X435015Y190127D01*
X431515D01*
X431610Y190234D01*
X431695Y190359D01*
X431770Y190502D01*
X431835Y190663D01*
X431890Y190842D01*
X431935Y191039D01*
X431970Y191254D01*
X431995Y191487D01*
X432015Y192007D01*
X434515D01*
X434520Y191738D01*
D02*
G37*
G36*
X385895D02*
X385935Y191254D01*
X385970Y191039D01*
X386015Y190842D01*
X386070Y190663D01*
X386135Y190502D01*
X386210Y190359D01*
X386295Y190234D01*
X386390Y190127D01*
X382890D01*
X382985Y190234D01*
X383070Y190359D01*
X383145Y190502D01*
X383210Y190663D01*
X383265Y190842D01*
X383310Y191039D01*
X383345Y191254D01*
X383370Y191487D01*
X383390Y192007D01*
X385890D01*
X385895Y191738D01*
D02*
G37*
G36*
X337247D02*
X337287Y191254D01*
X337322Y191039D01*
X337367Y190842D01*
X337422Y190663D01*
X337487Y190502D01*
X337562Y190359D01*
X337647Y190234D01*
X337742Y190127D01*
X334242D01*
X334337Y190234D01*
X334422Y190359D01*
X334497Y190502D01*
X334562Y190663D01*
X334617Y190842D01*
X334662Y191039D01*
X334697Y191254D01*
X334722Y191487D01*
X334742Y192007D01*
X337242D01*
X337247Y191738D01*
D02*
G37*
G36*
X552919Y189518D02*
X553289Y189204D01*
X553466Y189077D01*
X553637Y188969D01*
X553802Y188882D01*
X553962Y188814D01*
X554116Y188766D01*
X554265Y188738D01*
X554408Y188729D01*
X551933Y186254D01*
X551924Y186397D01*
X551896Y186546D01*
X551848Y186700D01*
X551780Y186859D01*
X551692Y187025D01*
X551585Y187196D01*
X551458Y187373D01*
X551311Y187555D01*
X550957Y187937D01*
X552725Y189705D01*
X552919Y189518D01*
D02*
G37*
G36*
X151530Y205809D02*
X150202Y205545D01*
X148948Y204708D01*
X148948Y204708D01*
X140046Y195805D01*
X139208Y194552D01*
X138916Y193082D01*
X138424Y192753D01*
X137089Y190755D01*
X136620Y188399D01*
X137089Y186042D01*
X137909Y184814D01*
X137230Y183544D01*
X122320D01*
X122320Y183544D01*
X121400Y183361D01*
X120270Y184095D01*
X120130Y184302D01*
Y196553D01*
X120149Y196649D01*
X120130Y196746D01*
Y197617D01*
X129592Y207080D01*
X151404D01*
X151530Y205809D01*
D02*
G37*
G36*
X284690Y193206D02*
X284645Y192753D01*
X283310Y190755D01*
X282841Y188399D01*
X283310Y186042D01*
X284165Y184763D01*
X283486Y183493D01*
X267979D01*
X267979Y183493D01*
X266650Y183229D01*
X266329Y183318D01*
X265380Y183978D01*
Y199220D01*
X256853D01*
X255249Y200825D01*
X255735Y201998D01*
X275898D01*
X284690Y193206D01*
D02*
G37*
G36*
X193606Y224701D02*
Y219992D01*
X188414Y214800D01*
X187576Y213546D01*
X187282Y212067D01*
Y193081D01*
X186791Y192753D01*
X185456Y190755D01*
X184988Y188399D01*
X185456Y186042D01*
X186277Y184814D01*
X185598Y183544D01*
X171010D01*
X169900Y183323D01*
X168630Y184059D01*
Y199220D01*
X168125D01*
X167639Y200393D01*
X192432Y225187D01*
X193606Y224701D01*
D02*
G37*
G36*
X332128Y195717D02*
Y193024D01*
X331638Y192697D01*
X330303Y190699D01*
X329834Y188342D01*
X330303Y185985D01*
X331252Y184564D01*
X330573Y183294D01*
X315700D01*
X315700Y183294D01*
X315150Y183185D01*
X313880Y184183D01*
Y198970D01*
X307363D01*
X307160Y199989D01*
X306322Y201242D01*
X306322Y201243D01*
X297042Y210522D01*
X297528Y211696D01*
X316149D01*
X332128Y195717D01*
D02*
G37*
G36*
X70605Y224258D02*
X43161Y196814D01*
X42324Y195560D01*
X42030Y194081D01*
Y193081D01*
X41539Y192753D01*
X40204Y190755D01*
X39735Y188399D01*
X40204Y186042D01*
X41192Y184564D01*
X40549Y183294D01*
X26480D01*
X26480Y183294D01*
X25150Y183030D01*
X24834Y183116D01*
X23880Y183778D01*
Y190957D01*
X23893Y191037D01*
X23923Y191153D01*
X23971Y191289D01*
X24045Y191448D01*
X24147Y191631D01*
X24281Y191836D01*
X24453Y192063D01*
X24540Y192165D01*
X57806Y225431D01*
X70119D01*
X70605Y224258D01*
D02*
G37*
G36*
X380071Y194080D02*
X380286Y192697D01*
X378951Y190699D01*
X378482Y188342D01*
X378951Y185985D01*
X379903Y184560D01*
X379224Y183290D01*
X364296D01*
X364296Y183290D01*
X363400Y183112D01*
X362130Y183948D01*
Y198970D01*
X352213D01*
X351840Y199044D01*
X351441D01*
X330727Y219757D01*
X331213Y220931D01*
X353220D01*
X380071Y194080D01*
D02*
G37*
G36*
X476769Y194132D02*
X476721Y192697D01*
X475387Y190699D01*
X474918Y188342D01*
X475387Y185985D01*
X476344Y184552D01*
X475666Y183282D01*
X460808D01*
X460807Y183282D01*
X459900Y183101D01*
X458762Y183846D01*
X458630Y184045D01*
Y199220D01*
X455454D01*
Y206920D01*
X455454Y206920D01*
X455160Y208399D01*
X454322Y209653D01*
X425303Y238672D01*
X425789Y239846D01*
X431056D01*
X476769Y194132D01*
D02*
G37*
G36*
X428567Y193995D02*
X428910Y192697D01*
X427575Y190699D01*
X427107Y188342D01*
X427575Y185985D01*
X428533Y184552D01*
X427854Y183282D01*
X412547D01*
X411810Y183135D01*
X410540Y184045D01*
Y198970D01*
X402630D01*
X372498Y229102D01*
X372984Y230276D01*
X392286D01*
X428567Y193995D01*
D02*
G37*
G36*
X28819Y233258D02*
X-5341Y199097D01*
X-6179Y197843D01*
X-6473Y196365D01*
Y193038D01*
X-6963Y192711D01*
X-8298Y190713D01*
X-8767Y188356D01*
X-8298Y185999D01*
X-7340Y184564D01*
X-8017Y183294D01*
X-22280D01*
X-23100Y183131D01*
X-24370Y184003D01*
Y190957D01*
X-24357Y191037D01*
X-24327Y191153D01*
X-24279Y191289D01*
X-24205Y191448D01*
X-24103Y191631D01*
X-23969Y191836D01*
X-23798Y192063D01*
X-23710Y192165D01*
X18556Y234431D01*
X28333D01*
X28819Y233258D01*
D02*
G37*
G36*
X235202Y193949D02*
X235699Y192753D01*
X234364Y190755D01*
X233895Y188399D01*
X234364Y186042D01*
X235265Y184693D01*
X234586Y183423D01*
X219649D01*
X218170Y183129D01*
X218150Y183116D01*
X216880Y183794D01*
Y199220D01*
X213704D01*
Y211090D01*
X213704Y211090D01*
X213410Y212569D01*
X212572Y213822D01*
X212572Y213822D01*
X206410Y219984D01*
X206514Y220975D01*
X207707Y221444D01*
X235202Y193949D01*
D02*
G37*
G36*
X525816Y202979D02*
Y193024D01*
X525325Y192697D01*
X523990Y190699D01*
X523522Y188342D01*
X523990Y185985D01*
X524982Y184501D01*
X524345Y183231D01*
X509017D01*
X508330Y183095D01*
X507060Y184029D01*
Y199220D01*
X498445D01*
X449952Y247712D01*
X450438Y248886D01*
X479909D01*
X525816Y202979D01*
D02*
G37*
G36*
X109122Y214906D02*
X91409Y197193D01*
X90571Y195939D01*
X90277Y194460D01*
Y193081D01*
X89786Y192753D01*
X88451Y190755D01*
X87983Y188399D01*
X88451Y186042D01*
X89606Y184314D01*
X89171Y183044D01*
X73843D01*
X72900Y182857D01*
X71630Y183670D01*
Y193607D01*
X71647Y193716D01*
X71630Y193787D01*
Y194168D01*
X72104Y194724D01*
X93460Y216080D01*
X108636D01*
X109122Y214906D01*
D02*
G37*
G36*
X652719Y181780D02*
X652583Y181756D01*
X652460Y181681D01*
X652353Y181556D01*
X652259Y181381D01*
X652180Y181155D01*
X652115Y180881D01*
X652065Y180555D01*
X652029Y180180D01*
X652010Y179588D01*
X652045Y179162D01*
X652080Y178947D01*
X652125Y178750D01*
X652180Y178571D01*
X652245Y178410D01*
X652320Y178267D01*
X652405Y178142D01*
X652500Y178035D01*
X649000D01*
X649095Y178142D01*
X649180Y178267D01*
X649255Y178410D01*
X649320Y178571D01*
X649375Y178750D01*
X649420Y178947D01*
X649455Y179162D01*
X649480Y179395D01*
X649490Y179659D01*
X649488Y179760D01*
X649450Y180189D01*
X649388Y180567D01*
X649300Y180896D01*
X649187Y181174D01*
X649050Y181402D01*
X648887Y181580D01*
X648700Y181707D01*
X648487Y181784D01*
X648250Y181811D01*
X652719Y181780D01*
D02*
G37*
G36*
X240470Y180583D02*
X238703Y177705D01*
X238667Y177820D01*
X238604Y177922D01*
X238515Y178013D01*
X238400Y178092D01*
X238259Y178158D01*
X238092Y178212D01*
X237899Y178255D01*
X237679Y178285D01*
X237433Y178303D01*
X237161Y178309D01*
X237572Y180809D01*
X240470Y180583D01*
D02*
G37*
G36*
X528895Y177477D02*
X528834Y177599D01*
X528750Y177708D01*
X528643Y177804D01*
X528513Y177887D01*
X528359Y177957D01*
X528183Y178015D01*
X527983Y178060D01*
X527759Y178092D01*
X527513Y178111D01*
X527243Y178117D01*
X528634Y180617D01*
X530285Y180684D01*
X528895Y177477D01*
D02*
G37*
G36*
X95311Y180306D02*
X93669Y177307D01*
X93624Y177425D01*
X93554Y177531D01*
X93460Y177625D01*
X93339Y177706D01*
X93194Y177774D01*
X93024Y177830D01*
X92828Y177874D01*
X92607Y177905D01*
X92361Y177924D01*
X92090Y177930D01*
X92425Y180430D01*
X95311Y180306D01*
D02*
G37*
G36*
X-24853Y175089D02*
X-25351Y174574D01*
X-26135Y173651D01*
X-26421Y173244D01*
X-26636Y172872D01*
X-26780Y172537D01*
X-26854Y172237D01*
X-26857Y171973D01*
X-26789Y171746D01*
X-26651Y171554D01*
X-30156Y175059D01*
X-29964Y174921D01*
X-29737Y174853D01*
X-29473Y174856D01*
X-29173Y174930D01*
X-28838Y175074D01*
X-28466Y175289D01*
X-28059Y175575D01*
X-27615Y175932D01*
X-26621Y176857D01*
X-24853Y175089D01*
D02*
G37*
G36*
X71327Y174896D02*
X70838Y174389D01*
X70065Y173478D01*
X69782Y173073D01*
X69568Y172703D01*
X69423Y172366D01*
X69346Y172064D01*
X69338Y171795D01*
X69399Y171561D01*
X69529Y171361D01*
X66217Y175059D01*
X66400Y174912D01*
X66621Y174838D01*
X66880Y174836D01*
X67177Y174907D01*
X67512Y175050D01*
X67884Y175266D01*
X68294Y175555D01*
X68743Y175917D01*
X69753Y176857D01*
X71327Y174896D01*
D02*
G37*
G36*
X119881Y175473D02*
X119237Y174812D01*
X117807Y173121D01*
X117497Y172655D01*
X117271Y172237D01*
X117128Y171869D01*
X117068Y171548D01*
X117092Y171277D01*
X117199Y171054D01*
X114194Y175059D01*
X114363Y174898D01*
X114574Y174813D01*
X114825Y174804D01*
X115117Y174870D01*
X115450Y175012D01*
X115824Y175230D01*
X116239Y175523D01*
X116695Y175892D01*
X117730Y176857D01*
X119881Y175473D01*
D02*
G37*
G36*
X24291D02*
X23647Y174812D01*
X22217Y173121D01*
X21907Y172655D01*
X21681Y172237D01*
X21538Y171869D01*
X21478Y171548D01*
X21502Y171277D01*
X21609Y171054D01*
X18604Y175059D01*
X18773Y174898D01*
X18984Y174813D01*
X19235Y174804D01*
X19527Y174870D01*
X19860Y175012D01*
X20234Y175230D01*
X20649Y175523D01*
X21105Y175892D01*
X22139Y176857D01*
X24291Y175473D01*
D02*
G37*
G36*
X653258Y176082D02*
X653287Y175934D01*
X653335Y175779D01*
X653403Y175620D01*
X653490Y175454D01*
X653598Y175283D01*
X653725Y175106D01*
X653872Y174924D01*
X654225Y174542D01*
X652458Y172775D01*
X652264Y172961D01*
X651894Y173275D01*
X651717Y173402D01*
X651546Y173510D01*
X651380Y173597D01*
X651220Y173665D01*
X651066Y173713D01*
X650918Y173742D01*
X650775Y173750D01*
X653250Y176225D01*
X653258Y176082D01*
D02*
G37*
G36*
X594712Y175578D02*
X594783Y175397D01*
X594900Y175237D01*
X595065Y175098D01*
X595276Y174981D01*
X595534Y174885D01*
X595839Y174810D01*
X596191Y174757D01*
X596590Y174725D01*
X597035Y174715D01*
Y172215D01*
X596590Y172204D01*
X596191Y172172D01*
X595839Y172119D01*
X595534Y172044D01*
X595276Y171948D01*
X595065Y171831D01*
X594900Y171692D01*
X594783Y171532D01*
X594712Y171351D01*
X594689Y171148D01*
Y175781D01*
X594712Y175578D01*
D02*
G37*
G36*
X-50200Y167216D02*
X-50413Y167140D01*
X-50600Y167013D01*
X-50763Y166836D01*
X-50900Y166608D01*
X-51013Y166330D01*
X-51100Y166001D01*
X-51163Y165621D01*
X-51200Y165191D01*
X-51213Y164711D01*
X-53713D01*
X-53725Y165191D01*
X-53763Y165621D01*
X-53825Y166001D01*
X-53913Y166330D01*
X-54025Y166608D01*
X-54163Y166836D01*
X-54325Y167013D01*
X-54513Y167140D01*
X-54725Y167216D01*
X-54963Y167241D01*
X-49963D01*
X-50200Y167216D01*
D02*
G37*
G36*
X522033Y163125D02*
X521820Y163050D01*
X521632Y162925D01*
X521470Y162750D01*
X521333Y162526D01*
X521220Y162250D01*
X521133Y161926D01*
X521070Y161551D01*
X521032Y161126D01*
X521020Y160651D01*
X518520D01*
X518507Y161126D01*
X518470Y161551D01*
X518408Y161926D01*
X518320Y162250D01*
X518208Y162526D01*
X518070Y162750D01*
X517907Y162925D01*
X517720Y163050D01*
X517508Y163125D01*
X517270Y163151D01*
X522270D01*
X522033Y163125D01*
D02*
G37*
G36*
X473773D02*
X473560Y163050D01*
X473372Y162925D01*
X473210Y162750D01*
X473073Y162526D01*
X472960Y162250D01*
X472873Y161926D01*
X472810Y161551D01*
X472772Y161126D01*
X472760Y160651D01*
X470260D01*
X470247Y161126D01*
X470210Y161551D01*
X470148Y161926D01*
X470060Y162250D01*
X469948Y162526D01*
X469810Y162750D01*
X469647Y162925D01*
X469460Y163050D01*
X469248Y163125D01*
X469010Y163151D01*
X474010D01*
X473773Y163125D01*
D02*
G37*
G36*
X425513D02*
X425300Y163050D01*
X425112Y162925D01*
X424950Y162750D01*
X424813Y162526D01*
X424700Y162250D01*
X424613Y161926D01*
X424550Y161551D01*
X424512Y161126D01*
X424500Y160651D01*
X422000D01*
X421987Y161126D01*
X421950Y161551D01*
X421888Y161926D01*
X421800Y162250D01*
X421688Y162526D01*
X421550Y162750D01*
X421387Y162925D01*
X421200Y163050D01*
X420988Y163125D01*
X420750Y163151D01*
X425750D01*
X425513Y163125D01*
D02*
G37*
G36*
X377253D02*
X377040Y163050D01*
X376852Y162925D01*
X376690Y162750D01*
X376553Y162526D01*
X376440Y162250D01*
X376353Y161926D01*
X376290Y161551D01*
X376253Y161126D01*
X376240Y160651D01*
X373740D01*
X373727Y161126D01*
X373690Y161551D01*
X373628Y161926D01*
X373540Y162250D01*
X373428Y162526D01*
X373290Y162750D01*
X373128Y162925D01*
X372940Y163050D01*
X372728Y163125D01*
X372490Y163151D01*
X377490D01*
X377253Y163125D01*
D02*
G37*
G36*
X328652D02*
X328440Y163050D01*
X328252Y162925D01*
X328090Y162750D01*
X327952Y162526D01*
X327840Y162250D01*
X327752Y161926D01*
X327690Y161551D01*
X327653Y161126D01*
X327640Y160651D01*
X325140D01*
X325127Y161126D01*
X325090Y161551D01*
X325028Y161926D01*
X324940Y162250D01*
X324827Y162526D01*
X324690Y162750D01*
X324528Y162925D01*
X324340Y163050D01*
X324128Y163125D01*
X323890Y163151D01*
X328890D01*
X328652Y163125D01*
D02*
G37*
G36*
X280732D02*
X280520Y163050D01*
X280333Y162925D01*
X280170Y162750D01*
X280033Y162526D01*
X279920Y162250D01*
X279832Y161926D01*
X279770Y161551D01*
X279732Y161126D01*
X279720Y160651D01*
X277220D01*
X277208Y161126D01*
X277170Y161551D01*
X277108Y161926D01*
X277020Y162250D01*
X276908Y162526D01*
X276770Y162750D01*
X276607Y162925D01*
X276420Y163050D01*
X276208Y163125D01*
X275970Y163151D01*
X280970D01*
X280732Y163125D01*
D02*
G37*
G36*
X232472D02*
X232260Y163050D01*
X232073Y162925D01*
X231910Y162750D01*
X231772Y162526D01*
X231660Y162250D01*
X231572Y161926D01*
X231510Y161551D01*
X231472Y161126D01*
X231460Y160651D01*
X228960D01*
X228948Y161126D01*
X228910Y161551D01*
X228848Y161926D01*
X228760Y162250D01*
X228647Y162526D01*
X228510Y162750D01*
X228347Y162925D01*
X228160Y163050D01*
X227948Y163125D01*
X227710Y163151D01*
X232710D01*
X232472Y163125D01*
D02*
G37*
G36*
X184212D02*
X184000Y163050D01*
X183813Y162925D01*
X183650Y162750D01*
X183512Y162526D01*
X183400Y162250D01*
X183312Y161926D01*
X183250Y161551D01*
X183213Y161126D01*
X183200Y160651D01*
X180700D01*
X180688Y161126D01*
X180650Y161551D01*
X180588Y161926D01*
X180500Y162250D01*
X180387Y162526D01*
X180250Y162750D01*
X180088Y162925D01*
X179900Y163050D01*
X179688Y163125D01*
X179450Y163151D01*
X184450D01*
X184212Y163125D01*
D02*
G37*
G36*
X135022D02*
X134810Y163050D01*
X134622Y162925D01*
X134460Y162750D01*
X134323Y162526D01*
X134210Y162250D01*
X134122Y161926D01*
X134060Y161551D01*
X134023Y161126D01*
X134010Y160651D01*
X131510D01*
X131497Y161126D01*
X131460Y161551D01*
X131397Y161926D01*
X131310Y162250D01*
X131198Y162526D01*
X131060Y162750D01*
X130898Y162925D01*
X130710Y163050D01*
X130498Y163125D01*
X130260Y163151D01*
X135260D01*
X135022Y163125D01*
D02*
G37*
G36*
X39432D02*
X39220Y163050D01*
X39032Y162925D01*
X38870Y162750D01*
X38733Y162526D01*
X38620Y162250D01*
X38533Y161926D01*
X38470Y161551D01*
X38433Y161126D01*
X38420Y160651D01*
X35920D01*
X35907Y161126D01*
X35870Y161551D01*
X35807Y161926D01*
X35720Y162250D01*
X35608Y162526D01*
X35470Y162750D01*
X35308Y162925D01*
X35120Y163050D01*
X34908Y163125D01*
X34670Y163151D01*
X39670D01*
X39432Y163125D01*
D02*
G37*
G36*
X-51200Y161414D02*
X-51163Y160984D01*
X-51100Y160604D01*
X-51013Y160275D01*
X-50900Y159997D01*
X-50763Y159769D01*
X-50600Y159592D01*
X-50413Y159465D01*
X-50200Y159389D01*
X-49963Y159364D01*
X-54963D01*
X-54725Y159389D01*
X-54513Y159465D01*
X-54325Y159592D01*
X-54163Y159769D01*
X-54025Y159997D01*
X-53913Y160275D01*
X-53825Y160604D01*
X-53763Y160984D01*
X-53725Y161414D01*
X-53713Y161895D01*
X-51213D01*
X-51200Y161414D01*
D02*
G37*
G36*
X87353Y163125D02*
X87140Y163050D01*
X86952Y162925D01*
X86790Y162750D01*
X86652Y162526D01*
X86540Y162250D01*
X86453Y161926D01*
X86390Y161551D01*
X86353Y161126D01*
X86343Y160756D01*
X86345Y160623D01*
X86388Y160159D01*
X86426Y159970D01*
X86474Y159809D01*
X86533Y159676D01*
X86603Y159571D01*
X86683Y159494D01*
X86774Y159446D01*
X86876Y159426D01*
X84704Y156930D01*
X84288Y157408D01*
X83840Y160307D01*
X85295Y160651D01*
X83840D01*
X83827Y161126D01*
X83790Y161551D01*
X83728Y161926D01*
X83640Y162250D01*
X83527Y162526D01*
X83390Y162750D01*
X83228Y162925D01*
X83040Y163050D01*
X82828Y163125D01*
X82590Y163151D01*
X87590D01*
X87353Y163125D01*
D02*
G37*
G36*
X38419Y160333D02*
X38344Y159136D01*
X38324Y159079D01*
X38301Y159050D01*
X37131Y157358D01*
X36919Y156908D01*
X35920Y159036D01*
X38420Y160618D01*
X38419Y160333D01*
D02*
G37*
G36*
X521032Y154295D02*
X521070Y153869D01*
X521133Y153495D01*
X521220Y153169D01*
X521333Y152894D01*
X521470Y152669D01*
X521632Y152494D01*
X521820Y152369D01*
X522033Y152295D01*
X522270Y152269D01*
X517270D01*
X517508Y152295D01*
X517720Y152369D01*
X517907Y152494D01*
X518070Y152669D01*
X518208Y152894D01*
X518320Y153169D01*
X518408Y153495D01*
X518470Y153869D01*
X518507Y154295D01*
X518520Y154769D01*
X521020D01*
X521032Y154295D01*
D02*
G37*
G36*
X472772D02*
X472810Y153869D01*
X472873Y153495D01*
X472960Y153169D01*
X473073Y152894D01*
X473210Y152669D01*
X473372Y152494D01*
X473560Y152369D01*
X473773Y152295D01*
X474010Y152269D01*
X469010D01*
X469248Y152295D01*
X469460Y152369D01*
X469647Y152494D01*
X469810Y152669D01*
X469948Y152894D01*
X470060Y153169D01*
X470148Y153495D01*
X470210Y153869D01*
X470247Y154295D01*
X470260Y154769D01*
X472760D01*
X472772Y154295D01*
D02*
G37*
G36*
X424512D02*
X424550Y153869D01*
X424613Y153495D01*
X424700Y153169D01*
X424813Y152894D01*
X424950Y152669D01*
X425112Y152494D01*
X425300Y152369D01*
X425513Y152295D01*
X425750Y152269D01*
X420750D01*
X420988Y152295D01*
X421200Y152369D01*
X421387Y152494D01*
X421550Y152669D01*
X421688Y152894D01*
X421800Y153169D01*
X421888Y153495D01*
X421950Y153869D01*
X421987Y154295D01*
X422000Y154769D01*
X424500D01*
X424512Y154295D01*
D02*
G37*
G36*
X376253D02*
X376290Y153869D01*
X376353Y153495D01*
X376440Y153169D01*
X376553Y152894D01*
X376690Y152669D01*
X376852Y152494D01*
X377040Y152369D01*
X377253Y152295D01*
X377490Y152269D01*
X372490D01*
X372728Y152295D01*
X372940Y152369D01*
X373128Y152494D01*
X373290Y152669D01*
X373428Y152894D01*
X373540Y153169D01*
X373628Y153495D01*
X373690Y153869D01*
X373727Y154295D01*
X373740Y154769D01*
X376240D01*
X376253Y154295D01*
D02*
G37*
G36*
X327653D02*
X327690Y153869D01*
X327752Y153495D01*
X327840Y153169D01*
X327952Y152894D01*
X328090Y152669D01*
X328252Y152494D01*
X328440Y152369D01*
X328652Y152295D01*
X328890Y152269D01*
X323890D01*
X324128Y152295D01*
X324340Y152369D01*
X324528Y152494D01*
X324690Y152669D01*
X324827Y152894D01*
X324940Y153169D01*
X325028Y153495D01*
X325090Y153869D01*
X325127Y154295D01*
X325140Y154769D01*
X327640D01*
X327653Y154295D01*
D02*
G37*
G36*
X279732D02*
X279770Y153869D01*
X279832Y153495D01*
X279920Y153169D01*
X280033Y152894D01*
X280170Y152669D01*
X280333Y152494D01*
X280520Y152369D01*
X280732Y152295D01*
X280970Y152269D01*
X275970D01*
X276208Y152295D01*
X276420Y152369D01*
X276607Y152494D01*
X276770Y152669D01*
X276908Y152894D01*
X277020Y153169D01*
X277108Y153495D01*
X277170Y153869D01*
X277208Y154295D01*
X277220Y154769D01*
X279720D01*
X279732Y154295D01*
D02*
G37*
G36*
X231472D02*
X231510Y153869D01*
X231572Y153495D01*
X231660Y153169D01*
X231772Y152894D01*
X231910Y152669D01*
X232073Y152494D01*
X232260Y152369D01*
X232472Y152295D01*
X232710Y152269D01*
X227710D01*
X227948Y152295D01*
X228160Y152369D01*
X228347Y152494D01*
X228510Y152669D01*
X228647Y152894D01*
X228760Y153169D01*
X228848Y153495D01*
X228910Y153869D01*
X228948Y154295D01*
X228960Y154769D01*
X231460D01*
X231472Y154295D01*
D02*
G37*
G36*
X183213D02*
X183250Y153869D01*
X183312Y153495D01*
X183400Y153169D01*
X183512Y152894D01*
X183650Y152669D01*
X183813Y152494D01*
X184000Y152369D01*
X184212Y152295D01*
X184450Y152269D01*
X179450D01*
X179688Y152295D01*
X179900Y152369D01*
X180088Y152494D01*
X180250Y152669D01*
X180387Y152894D01*
X180500Y153169D01*
X180588Y153495D01*
X180650Y153869D01*
X180688Y154295D01*
X180700Y154769D01*
X183200D01*
X183213Y154295D01*
D02*
G37*
G36*
X134023D02*
X134060Y153869D01*
X134122Y153495D01*
X134210Y153169D01*
X134323Y152894D01*
X134460Y152669D01*
X134622Y152494D01*
X134810Y152369D01*
X135022Y152295D01*
X135260Y152269D01*
X130260D01*
X130498Y152295D01*
X130710Y152369D01*
X130898Y152494D01*
X131060Y152669D01*
X131198Y152894D01*
X131310Y153169D01*
X131397Y153495D01*
X131460Y153869D01*
X131497Y154295D01*
X131510Y154769D01*
X134010D01*
X134023Y154295D01*
D02*
G37*
G36*
X86876Y154434D02*
X86774Y154414D01*
X86683Y154366D01*
X86603Y154289D01*
X86533Y154184D01*
X86474Y154051D01*
X86426Y153890D01*
X86404Y153783D01*
X86453Y153495D01*
X86540Y153169D01*
X86652Y152894D01*
X86790Y152669D01*
X86952Y152494D01*
X87140Y152369D01*
X87353Y152295D01*
X87590Y152269D01*
X82590D01*
X82828Y152295D01*
X83040Y152369D01*
X83228Y152494D01*
X83390Y152669D01*
X83527Y152894D01*
X83640Y153169D01*
X83728Y153495D01*
X83790Y153869D01*
X83827Y154295D01*
X83840Y154769D01*
X84028D01*
X84288Y156452D01*
X84704Y156930D01*
X86876Y154434D01*
D02*
G37*
G36*
X37131Y156458D02*
X38299Y154769D01*
X38420D01*
X38433Y154295D01*
X38470Y153869D01*
X38533Y153495D01*
X38620Y153169D01*
X38733Y152894D01*
X38870Y152669D01*
X39032Y152494D01*
X39220Y152369D01*
X39432Y152295D01*
X39670Y152269D01*
X34670D01*
X34908Y152295D01*
X35120Y152369D01*
X35308Y152494D01*
X35470Y152669D01*
X35608Y152894D01*
X35720Y153169D01*
X35807Y153495D01*
X35870Y153869D01*
X35907Y154295D01*
X35920Y154769D01*
X35938D01*
X35920Y154781D01*
X36919Y156908D01*
X37131Y156458D01*
D02*
G37*
G36*
X-8827Y163125D02*
X-9040Y163050D01*
X-9227Y162925D01*
X-9390Y162750D01*
X-9528Y162526D01*
X-9640Y162250D01*
X-9728Y161926D01*
X-9790Y161551D01*
X-9827Y161126D01*
X-9838Y160732D01*
X-9575Y159328D01*
X-11448Y156909D01*
X-11449Y156908D01*
X-11448Y156907D01*
X-9575Y154488D01*
X-9743Y153589D01*
X-9728Y153495D01*
X-9640Y153169D01*
X-9528Y152894D01*
X-9390Y152669D01*
X-9227Y152494D01*
X-9040Y152369D01*
X-8827Y152295D01*
X-8590Y152269D01*
X-13590D01*
X-13353Y152295D01*
X-13140Y152369D01*
X-12953Y152494D01*
X-12790Y152669D01*
X-12652Y152894D01*
X-12540Y153169D01*
X-12452Y153495D01*
X-12390Y153869D01*
X-12352Y154295D01*
X-12340Y154769D01*
X-12132D01*
X-11449Y156908D01*
X-12340Y159698D01*
X-10063Y160651D01*
X-12340D01*
X-12352Y161126D01*
X-12390Y161551D01*
X-12452Y161926D01*
X-12540Y162250D01*
X-12652Y162526D01*
X-12790Y162750D01*
X-12953Y162925D01*
X-13140Y163050D01*
X-13353Y163125D01*
X-13590Y163151D01*
X-8590D01*
X-8827Y163125D01*
D02*
G37*
G36*
X-41767Y187491D02*
X-39410Y187022D01*
X-38450Y186234D01*
Y180890D01*
X-27944D01*
X-27458Y179717D01*
X-28914Y178260D01*
X-29311Y177892D01*
X-29599Y177660D01*
X-40130D01*
Y160580D01*
X-24050D01*
Y172105D01*
X-23542Y172703D01*
X-20679Y175566D01*
X-19130D01*
Y160580D01*
X-14954D01*
Y157675D01*
X-15107Y156908D01*
X-14954Y156141D01*
Y154840D01*
X-42630D01*
Y143907D01*
X-43423Y142965D01*
X-59241D01*
Y169347D01*
X-58063Y170119D01*
X-57971Y170109D01*
X-57195Y168948D01*
X-57355Y168232D01*
X-57428Y167869D01*
X-57538Y167515D01*
X-57525Y167377D01*
X-57552Y167241D01*
X-57480Y166878D01*
X-57447Y166509D01*
X-57382Y166386D01*
X-57355Y166250D01*
X-57150Y165942D01*
X-56978Y165614D01*
X-56871Y165525D01*
X-56794Y165410D01*
X-56486Y165204D01*
X-56327Y165071D01*
Y161534D01*
X-56486Y161401D01*
X-56794Y161195D01*
X-56871Y161080D01*
X-56978Y160991D01*
X-57150Y160663D01*
X-57355Y160355D01*
X-57382Y160219D01*
X-57447Y160096D01*
X-57480Y159727D01*
X-57552Y159364D01*
X-57525Y159228D01*
X-57538Y159090D01*
X-57428Y158736D01*
X-57355Y158373D01*
X-57278Y158258D01*
X-57237Y158125D01*
X-57000Y157841D01*
X-56794Y157533D01*
X-56679Y157456D01*
X-56590Y157349D01*
X-56327Y157212D01*
Y154925D01*
X-56033Y153446D01*
X-55195Y152193D01*
X-53941Y151355D01*
X-52463Y151061D01*
X-50984Y151355D01*
X-49730Y152193D01*
X-48893Y153446D01*
X-48598Y154925D01*
Y157212D01*
X-48336Y157349D01*
X-48247Y157456D01*
X-48131Y157533D01*
X-47926Y157841D01*
X-47688Y158125D01*
X-47647Y158258D01*
X-47570Y158373D01*
X-47498Y158736D01*
X-47387Y159090D01*
X-47400Y159228D01*
X-47373Y159364D01*
X-47445Y159727D01*
X-47478Y160096D01*
X-47543Y160219D01*
X-47570Y160355D01*
X-47776Y160663D01*
X-47948Y160991D01*
X-48054Y161080D01*
X-48131Y161195D01*
X-48439Y161401D01*
X-48598Y161534D01*
Y165071D01*
X-48439Y165204D01*
X-48131Y165410D01*
X-48054Y165525D01*
X-47948Y165614D01*
X-47776Y165942D01*
X-47570Y166250D01*
X-47543Y166386D01*
X-47478Y166509D01*
X-47445Y166878D01*
X-47373Y167241D01*
X-47400Y167377D01*
X-47387Y167515D01*
X-47498Y167869D01*
X-47570Y168232D01*
X-47647Y168347D01*
X-47688Y168480D01*
X-47926Y168764D01*
X-48131Y169072D01*
X-48247Y169149D01*
X-48336Y169256D01*
X-48598Y169394D01*
Y171680D01*
X-48893Y173159D01*
X-49730Y174412D01*
X-50984Y175250D01*
X-52463Y175544D01*
X-54463D01*
X-55942Y175250D01*
X-57195Y174412D01*
X-57971Y173251D01*
X-58063Y173241D01*
X-59241Y174013D01*
Y180437D01*
X-56038Y183640D01*
X-43423D01*
Y187250D01*
X-42303Y187849D01*
X-41767Y187491D01*
D02*
G37*
G36*
X-50398Y131461D02*
X-50610Y131385D01*
X-50798Y131258D01*
X-50960Y131081D01*
X-51097Y130854D01*
X-51210Y130575D01*
X-51297Y130246D01*
X-51360Y129867D01*
X-51398Y129436D01*
X-51407Y129077D01*
X-51405Y128978D01*
X-51365Y128494D01*
X-51330Y128279D01*
X-51285Y128082D01*
X-51230Y127903D01*
X-51165Y127742D01*
X-51090Y127599D01*
X-51005Y127474D01*
X-50910Y127367D01*
X-54410D01*
X-54315Y127474D01*
X-54230Y127599D01*
X-54155Y127742D01*
X-54090Y127903D01*
X-54035Y128082D01*
X-53990Y128279D01*
X-53955Y128494D01*
X-53930Y128727D01*
X-53914Y129129D01*
X-53923Y129436D01*
X-53960Y129867D01*
X-54022Y130246D01*
X-54110Y130575D01*
X-54222Y130854D01*
X-54360Y131081D01*
X-54523Y131258D01*
X-54710Y131385D01*
X-54922Y131461D01*
X-55160Y131486D01*
X-50160D01*
X-50398Y131461D01*
D02*
G37*
G36*
X-54445Y123832D02*
X-54552Y123926D01*
X-54677Y124011D01*
X-54820Y124087D01*
X-54981Y124151D01*
X-55160Y124206D01*
X-55357Y124251D01*
X-55572Y124286D01*
X-55805Y124312D01*
X-56325Y124332D01*
Y126831D01*
X-56056Y126836D01*
X-55572Y126876D01*
X-55357Y126911D01*
X-55160Y126957D01*
X-54981Y127011D01*
X-54820Y127077D01*
X-54677Y127151D01*
X-54552Y127236D01*
X-54445Y127331D01*
Y123832D01*
D02*
G37*
G36*
X-51005Y123689D02*
X-51090Y123564D01*
X-51165Y123421D01*
X-51230Y123260D01*
X-51285Y123081D01*
X-51330Y122884D01*
X-51365Y122669D01*
X-51390Y122436D01*
X-51410Y121916D01*
X-53910D01*
X-53915Y122185D01*
X-53955Y122669D01*
X-53990Y122884D01*
X-54035Y123081D01*
X-54090Y123260D01*
X-54155Y123421D01*
X-54230Y123564D01*
X-54315Y123689D01*
X-54410Y123796D01*
X-50910D01*
X-51005Y123689D01*
D02*
G37*
G36*
X531035Y97496D02*
X530928Y97591D01*
X530803Y97676D01*
X530660Y97751D01*
X530499Y97816D01*
X530320Y97871D01*
X530123Y97916D01*
X529908Y97951D01*
X529675Y97976D01*
X529675D01*
X529332Y97946D01*
X528953Y97883D01*
X528624Y97796D01*
X528346Y97683D01*
X528119Y97546D01*
X527941Y97383D01*
X527813Y97196D01*
X527736Y96983D01*
X527709Y96746D01*
X527739Y100770D01*
X527765Y100717D01*
X527840Y100671D01*
X527965Y100630D01*
X528139Y100594D01*
X528364Y100564D01*
X528965Y100520D01*
X529530Y100509D01*
X529908Y100541D01*
X530123Y100576D01*
X530320Y100621D01*
X530499Y100676D01*
X530660Y100741D01*
X530803Y100816D01*
X530928Y100901D01*
X531035Y100996D01*
Y97496D01*
D02*
G37*
G36*
X435065D02*
X434958Y97591D01*
X434833Y97676D01*
X434690Y97751D01*
X434529Y97816D01*
X434350Y97871D01*
X434153Y97916D01*
X433938Y97951D01*
X433705Y97976D01*
X433401Y97987D01*
X433240Y97983D01*
X432812Y97946D01*
X432433Y97883D01*
X432104Y97796D01*
X431826Y97683D01*
X431599Y97546D01*
X431421Y97383D01*
X431293Y97196D01*
X431216Y96983D01*
X431189Y96746D01*
X431219Y100770D01*
X431245Y100717D01*
X431320Y100671D01*
X431445Y100630D01*
X431619Y100594D01*
X431844Y100564D01*
X432444Y100520D01*
X433456Y100501D01*
X433938Y100541D01*
X434153Y100576D01*
X434350Y100621D01*
X434529Y100676D01*
X434690Y100741D01*
X434833Y100816D01*
X434958Y100901D01*
X435065Y100996D01*
Y97496D01*
D02*
G37*
G36*
X483426D02*
X483319Y97591D01*
X483194Y97676D01*
X483051Y97751D01*
X482890Y97816D01*
X482711Y97871D01*
X482514Y97916D01*
X482299Y97951D01*
X482066Y97976D01*
X481722Y97989D01*
X481500Y97983D01*
X481072Y97946D01*
X480693Y97883D01*
X480364Y97796D01*
X480086Y97683D01*
X479859Y97546D01*
X479681Y97383D01*
X479553Y97196D01*
X479476Y96983D01*
X479449Y96746D01*
X479479Y100770D01*
X479505Y100717D01*
X479580Y100671D01*
X479705Y100630D01*
X479879Y100594D01*
X480104Y100564D01*
X480704Y100520D01*
X481767Y100500D01*
X481815Y100501D01*
X482299Y100541D01*
X482514Y100576D01*
X482711Y100621D01*
X482890Y100676D01*
X483051Y100741D01*
X483194Y100816D01*
X483319Y100901D01*
X483426Y100996D01*
Y97496D01*
D02*
G37*
G36*
X241805Y97430D02*
X241698Y97525D01*
X241573Y97610D01*
X241430Y97685D01*
X241269Y97750D01*
X241090Y97805D01*
X240893Y97850D01*
X240678Y97885D01*
X240445Y97910D01*
X240230Y97918D01*
X240200Y97917D01*
X239771Y97880D01*
X239393Y97817D01*
X239065Y97730D01*
X238786Y97618D01*
X238558Y97480D01*
X238381Y97317D01*
X238253Y97130D01*
X238176Y96917D01*
X238149Y96680D01*
X238179Y100770D01*
X238204Y100705D01*
X238279Y100647D01*
X238405Y100596D01*
X238580Y100552D01*
X238804Y100515D01*
X239079Y100484D01*
X239779Y100444D01*
X240218Y100437D01*
X240678Y100475D01*
X240893Y100510D01*
X241090Y100555D01*
X241269Y100610D01*
X241430Y100675D01*
X241573Y100750D01*
X241698Y100835D01*
X241805Y100930D01*
Y97430D01*
D02*
G37*
G36*
X338555D02*
X338448Y97525D01*
X338323Y97610D01*
X338180Y97685D01*
X338019Y97750D01*
X337840Y97805D01*
X337643Y97850D01*
X337428Y97885D01*
X337195Y97910D01*
X336887Y97922D01*
X336720Y97917D01*
X336292Y97880D01*
X335913Y97817D01*
X335584Y97730D01*
X335306Y97618D01*
X335078Y97480D01*
X334901Y97317D01*
X334773Y97130D01*
X334696Y96917D01*
X334669Y96680D01*
X334700Y100770D01*
X334725Y100705D01*
X334799Y100647D01*
X334925Y100596D01*
X335099Y100552D01*
X335325Y100515D01*
X335600Y100484D01*
X336300Y100444D01*
X336910Y100434D01*
X336944Y100435D01*
X337428Y100475D01*
X337643Y100510D01*
X337840Y100555D01*
X338019Y100610D01*
X338180Y100675D01*
X338323Y100750D01*
X338448Y100835D01*
X338555Y100930D01*
Y97430D01*
D02*
G37*
G36*
X290305D02*
X290198Y97525D01*
X290073Y97610D01*
X289930Y97685D01*
X289769Y97750D01*
X289590Y97805D01*
X289393Y97850D01*
X289178Y97885D01*
X288945Y97910D01*
X288633Y97922D01*
X288460Y97917D01*
X288032Y97880D01*
X287653Y97817D01*
X287325Y97730D01*
X287046Y97618D01*
X286818Y97480D01*
X286641Y97317D01*
X286513Y97130D01*
X286436Y96917D01*
X286409Y96680D01*
X286439Y100770D01*
X286465Y100705D01*
X286539Y100647D01*
X286665Y100596D01*
X286840Y100552D01*
X287064Y100515D01*
X287339Y100484D01*
X288039Y100444D01*
X288655Y100434D01*
X288694Y100435D01*
X289178Y100475D01*
X289393Y100510D01*
X289590Y100555D01*
X289769Y100610D01*
X289930Y100675D01*
X290073Y100750D01*
X290198Y100835D01*
X290305Y100930D01*
Y97430D01*
D02*
G37*
G36*
X49015D02*
X48908Y97525D01*
X48783Y97610D01*
X48640Y97685D01*
X48479Y97750D01*
X48300Y97805D01*
X48103Y97850D01*
X47888Y97885D01*
X47655Y97910D01*
X47339Y97922D01*
X47160Y97917D01*
X46732Y97880D01*
X46353Y97817D01*
X46024Y97730D01*
X45746Y97618D01*
X45518Y97480D01*
X45341Y97317D01*
X45213Y97130D01*
X45136Y96917D01*
X45109Y96680D01*
X45139Y100770D01*
X45164Y100705D01*
X45240Y100647D01*
X45364Y100596D01*
X45539Y100552D01*
X45764Y100515D01*
X46040Y100484D01*
X46740Y100444D01*
X47361Y100434D01*
X47404Y100435D01*
X47888Y100475D01*
X48103Y100510D01*
X48300Y100555D01*
X48479Y100610D01*
X48640Y100675D01*
X48783Y100750D01*
X48908Y100835D01*
X49015Y100930D01*
Y97430D01*
D02*
G37*
G36*
X193805D02*
X193698Y97525D01*
X193573Y97610D01*
X193430Y97685D01*
X193269Y97750D01*
X193090Y97805D01*
X192893Y97850D01*
X192678Y97885D01*
X192445Y97910D01*
X192125Y97922D01*
X191940Y97917D01*
X191511Y97880D01*
X191133Y97817D01*
X190805Y97730D01*
X190526Y97618D01*
X190298Y97480D01*
X190121Y97317D01*
X189993Y97130D01*
X189916Y96917D01*
X189889Y96680D01*
X189919Y100770D01*
X189944Y100705D01*
X190019Y100647D01*
X190145Y100596D01*
X190319Y100552D01*
X190544Y100515D01*
X190819Y100484D01*
X191520Y100444D01*
X192146Y100434D01*
X192194Y100435D01*
X192678Y100475D01*
X192893Y100510D01*
X193090Y100555D01*
X193269Y100610D01*
X193430Y100675D01*
X193573Y100750D01*
X193698Y100835D01*
X193805Y100930D01*
Y97430D01*
D02*
G37*
G36*
X145555D02*
X145448Y97525D01*
X145323Y97610D01*
X145180Y97685D01*
X145019Y97750D01*
X144840Y97805D01*
X144643Y97850D01*
X144428Y97885D01*
X144195Y97910D01*
X143871Y97922D01*
X143680Y97917D01*
X143251Y97880D01*
X142873Y97817D01*
X142544Y97730D01*
X142266Y97618D01*
X142038Y97480D01*
X141861Y97317D01*
X141733Y97130D01*
X141656Y96917D01*
X141629Y96680D01*
X141659Y100770D01*
X141685Y100705D01*
X141760Y100647D01*
X141884Y100596D01*
X142059Y100552D01*
X142284Y100515D01*
X142559Y100484D01*
X143259Y100444D01*
X143892Y100434D01*
X143944Y100435D01*
X144428Y100475D01*
X144643Y100510D01*
X144840Y100555D01*
X145019Y100610D01*
X145180Y100675D01*
X145323Y100750D01*
X145448Y100835D01*
X145555Y100930D01*
Y97430D01*
D02*
G37*
G36*
X97305D02*
X97198Y97525D01*
X97073Y97610D01*
X96930Y97685D01*
X96769Y97750D01*
X96590Y97805D01*
X96393Y97850D01*
X96178Y97885D01*
X95945Y97910D01*
X95617Y97923D01*
X95420Y97917D01*
X94992Y97880D01*
X94613Y97817D01*
X94284Y97730D01*
X94006Y97618D01*
X93778Y97480D01*
X93601Y97317D01*
X93473Y97130D01*
X93396Y96917D01*
X93369Y96680D01*
X93399Y100770D01*
X93425Y100705D01*
X93499Y100647D01*
X93624Y100596D01*
X93799Y100552D01*
X94024Y100515D01*
X94299Y100484D01*
X95000Y100444D01*
X95638Y100434D01*
X95694Y100435D01*
X96178Y100475D01*
X96393Y100510D01*
X96590Y100555D01*
X96769Y100610D01*
X96930Y100675D01*
X97073Y100750D01*
X97198Y100835D01*
X97305Y100930D01*
Y97430D01*
D02*
G37*
G36*
X805D02*
X698Y97525D01*
X573Y97610D01*
X430Y97685D01*
X269Y97750D01*
X90Y97805D01*
X-107Y97850D01*
X-322Y97885D01*
X-555Y97910D01*
X-891Y97923D01*
X-1100Y97917D01*
X-1529Y97880D01*
X-1907Y97817D01*
X-2236Y97730D01*
X-2514Y97618D01*
X-2742Y97480D01*
X-2919Y97317D01*
X-3047Y97130D01*
X-3124Y96917D01*
X-3151Y96680D01*
X-3121Y100770D01*
X-3095Y100705D01*
X-3020Y100647D01*
X-2896Y100596D01*
X-2720Y100552D01*
X-2495Y100515D01*
X-2220Y100484D01*
X-1521Y100444D01*
X-871Y100434D01*
X-806Y100435D01*
X-322Y100475D01*
X-107Y100510D01*
X90Y100555D01*
X269Y100610D01*
X430Y100675D01*
X573Y100750D01*
X698Y100835D01*
X805Y100930D01*
Y97430D01*
D02*
G37*
G36*
X622646Y64430D02*
X622452Y64572D01*
X622222Y64643D01*
X621957D01*
X621656Y64572D01*
X621320Y64430D01*
X620949Y64218D01*
X620542Y63935D01*
X620100Y63582D01*
X619110Y62663D01*
X617343Y64430D01*
X617838Y64943D01*
X618615Y65862D01*
X618898Y66269D01*
X619110Y66640D01*
X619252Y66976D01*
X619323Y67277D01*
Y67542D01*
X619252Y67772D01*
X619110Y67966D01*
X622646Y64430D01*
D02*
G37*
G36*
X525415Y19353D02*
X525490Y19140D01*
X525615Y18952D01*
X525789Y18790D01*
X526015Y18652D01*
X526289Y18540D01*
X526614Y18453D01*
X526990Y18390D01*
X527415Y18353D01*
X527890Y18340D01*
Y15840D01*
X527415Y15827D01*
X526990Y15790D01*
X526614Y15727D01*
X526289Y15640D01*
X526015Y15527D01*
X525789Y15390D01*
X525615Y15228D01*
X525490Y15040D01*
X525415Y14828D01*
X525390Y14590D01*
Y19590D01*
X525415Y19353D01*
D02*
G37*
G36*
X512481Y14590D02*
X512456Y14828D01*
X512380Y15040D01*
X512253Y15228D01*
X512076Y15390D01*
X511848Y15527D01*
X511570Y15640D01*
X511241Y15727D01*
X510861Y15790D01*
X510431Y15827D01*
X509950Y15840D01*
Y18340D01*
X510431Y18353D01*
X510861Y18390D01*
X511241Y18453D01*
X511570Y18540D01*
X511848Y18652D01*
X512076Y18790D01*
X512253Y18952D01*
X512380Y19140D01*
X512456Y19353D01*
X512481Y19590D01*
Y14590D01*
D02*
G37*
G36*
X505815Y19353D02*
X505890Y19140D01*
X506015Y18952D01*
X506189Y18790D01*
X506414Y18652D01*
X506689Y18540D01*
X507015Y18453D01*
X507389Y18390D01*
X507814Y18353D01*
X508289Y18340D01*
Y15840D01*
X507814Y15827D01*
X507389Y15790D01*
X507015Y15727D01*
X506689Y15640D01*
X506414Y15527D01*
X506189Y15390D01*
X506015Y15228D01*
X505890Y15040D01*
X505815Y14828D01*
X505789Y14590D01*
Y19590D01*
X505815Y19353D01*
D02*
G37*
G36*
X492881Y14590D02*
X492856Y14828D01*
X492780Y15040D01*
X492653Y15228D01*
X492476Y15390D01*
X492248Y15527D01*
X491970Y15640D01*
X491641Y15727D01*
X491261Y15790D01*
X490831Y15827D01*
X490350Y15840D01*
Y18340D01*
X490831Y18353D01*
X491261Y18390D01*
X491641Y18453D01*
X491970Y18540D01*
X492248Y18652D01*
X492476Y18790D01*
X492653Y18952D01*
X492780Y19140D01*
X492856Y19353D01*
X492881Y19590D01*
Y14590D01*
D02*
G37*
G36*
X486214Y19353D02*
X486289Y19140D01*
X486414Y18952D01*
X486590Y18790D01*
X486814Y18652D01*
X487090Y18540D01*
X487415Y18453D01*
X487789Y18390D01*
X488214Y18353D01*
X488689Y18340D01*
Y15840D01*
X488214Y15827D01*
X487789Y15790D01*
X487415Y15727D01*
X487090Y15640D01*
X486814Y15527D01*
X486590Y15390D01*
X486414Y15228D01*
X486289Y15040D01*
X486214Y14828D01*
X486189Y14590D01*
Y19590D01*
X486214Y19353D01*
D02*
G37*
G36*
X473281Y14590D02*
X473256Y14828D01*
X473180Y15040D01*
X473053Y15228D01*
X472876Y15390D01*
X472648Y15527D01*
X472370Y15640D01*
X472041Y15727D01*
X471661Y15790D01*
X471231Y15827D01*
X470751Y15840D01*
Y18340D01*
X471231Y18353D01*
X471661Y18390D01*
X472041Y18453D01*
X472370Y18540D01*
X472648Y18652D01*
X472876Y18790D01*
X473053Y18952D01*
X473180Y19140D01*
X473256Y19353D01*
X473281Y19590D01*
Y14590D01*
D02*
G37*
G36*
X341063Y386286D02*
X340850Y386210D01*
X340662Y386083D01*
X340500Y385906D01*
X340363Y385678D01*
X340250Y385400D01*
X340163Y385071D01*
X340100Y384692D01*
X340062Y384261D01*
X340050Y383781D01*
X337550D01*
X337537Y384261D01*
X337500Y384692D01*
X337438Y385071D01*
X337350Y385400D01*
X337238Y385678D01*
X337100Y385906D01*
X336937Y386083D01*
X336750Y386210D01*
X336538Y386286D01*
X336300Y386311D01*
X341300D01*
X341063Y386286D01*
D02*
G37*
G36*
X340062Y326995D02*
X340100Y326570D01*
X340163Y326194D01*
X340250Y325869D01*
X340363Y325594D01*
X340500Y325369D01*
X340662Y325195D01*
X340850Y325070D01*
X341063Y324995D01*
X341300Y324969D01*
X336300D01*
X336538Y324995D01*
X336750Y325070D01*
X336937Y325195D01*
X337100Y325369D01*
X337238Y325594D01*
X337350Y325869D01*
X337438Y326194D01*
X337500Y326570D01*
X337537Y326995D01*
X337550Y327469D01*
X340050D01*
X340062Y326995D01*
D02*
G37*
G36*
X317512Y305036D02*
X317300Y304960D01*
X317113Y304833D01*
X316950Y304656D01*
X316812Y304428D01*
X316700Y304150D01*
X316612Y303821D01*
X316550Y303442D01*
X316513Y303011D01*
X316500Y302530D01*
X314000D01*
X313988Y303011D01*
X313950Y303442D01*
X313888Y303821D01*
X313800Y304150D01*
X313687Y304428D01*
X313550Y304656D01*
X313388Y304833D01*
X313200Y304960D01*
X312987Y305036D01*
X312750Y305061D01*
X317750D01*
X317512Y305036D01*
D02*
G37*
G36*
X316513Y282745D02*
X316550Y282320D01*
X316612Y281945D01*
X316700Y281619D01*
X316812Y281345D01*
X316950Y281119D01*
X317113Y280944D01*
X317300Y280819D01*
X317512Y280744D01*
X317750Y280720D01*
X312750D01*
X312987Y280744D01*
X313200Y280819D01*
X313388Y280944D01*
X313550Y281119D01*
X313687Y281345D01*
X313800Y281619D01*
X313888Y281945D01*
X313950Y282320D01*
X313988Y282745D01*
X314000Y283220D01*
X316500D01*
X316513Y282745D01*
D02*
G37*
D10*
X375777Y377332D02*
X376339Y377893D01*
Y394688D01*
X376900Y395250D01*
X421521Y374768D02*
X422382Y373907D01*
Y368868D02*
Y373907D01*
Y368868D02*
X455750Y335500D01*
X458750D01*
X353250Y354602D02*
Y393500D01*
Y354602D02*
X392852Y315000D01*
X389750Y354000D02*
Y373250D01*
Y395100D01*
X430526Y384474D02*
X473768Y341232D01*
Y337750D02*
Y341232D01*
X433500Y390750D02*
X479250Y345000D01*
X499250D01*
X420949Y384474D02*
X430526D01*
X402300Y395250D02*
X429000D01*
X570000Y206000D02*
X584000Y192000D01*
Y186500D02*
Y192000D01*
X570000Y206000D02*
Y236416D01*
X574854Y241270D01*
X592970D01*
X600720Y233520D01*
X602720D01*
X650750Y176250D02*
Y186500D01*
X579067Y224463D02*
Y230270D01*
X582700Y233520D02*
X584700D01*
X582317D02*
X582700D01*
X584700D02*
X608720Y209500D01*
X642000D01*
X14663Y472750D02*
X57613D01*
X-2000Y456750D02*
X1500Y460250D01*
X14250Y536250D02*
X57200D01*
X-32750Y456750D02*
X-2000D01*
X57300Y460250D02*
X57500Y460050D01*
X1500Y460250D02*
X57300D01*
X14550Y548950D02*
X57500D01*
X375186Y99246D02*
X388664D01*
X364490Y88550D02*
X375186Y99246D01*
X490868Y190180D02*
X491919Y191231D01*
X444250Y190250D02*
X451020D01*
X451340Y189930D01*
X395030Y191000D02*
X402430D01*
X403500Y189930D01*
X346780Y190180D02*
X354840D01*
X355090Y189930D01*
X298530Y190500D02*
X306270D01*
X306840Y189930D01*
X249500Y190713D02*
X257307D01*
X258090Y189930D01*
X201899Y190713D02*
X208807D01*
X209590Y189930D01*
X153500Y191037D02*
X160233D01*
X161340Y189930D01*
X105750Y190680D02*
X112090D01*
X112840Y189930D01*
X56280Y190755D02*
X63765D01*
X64590Y189930D01*
X8250Y190000D02*
X16531D01*
X16650Y190120D01*
X16840Y189930D01*
X126203Y330126D02*
Y360075D01*
X138628Y372500D01*
X-39410Y193180D02*
X-34660D01*
X643768Y161732D02*
X645536Y163500D01*
X148329Y308000D02*
X188730D01*
X126203Y330126D02*
X148329Y308000D01*
X262600Y489250D02*
X264388Y491037D01*
X363991Y395041D02*
X364200Y395250D01*
X389786Y395436D02*
Y407707D01*
X429000Y395250D02*
X433500Y390750D01*
X300700Y489250D02*
Y502750D01*
X313400Y473000D02*
Y489250D01*
X300688Y382535D02*
Y395238D01*
X326000Y489150D02*
X326100Y489250D01*
X300688Y395238D02*
X300700Y395250D01*
X363991Y395041D02*
X364257Y384474D01*
X389600Y395250D02*
X389786Y395436D01*
X288000Y489250D02*
Y502750D01*
X326000Y473000D02*
Y489150D01*
X593750Y288250D02*
X613750D01*
X619500Y294000D01*
X603000Y314500D02*
X619500Y298000D01*
X441848Y410516D02*
X469264Y383100D01*
X443950Y248250D02*
X500020Y192180D01*
X265000Y248250D02*
X443950D01*
X500020Y190180D02*
Y192180D01*
X433265Y188342D02*
Y194761D01*
X393886Y234140D02*
X433265Y194761D01*
X257540Y234140D02*
X393886D01*
X451590Y190180D02*
Y206920D01*
X419350Y239160D02*
X451590Y206920D01*
X258990Y239160D02*
X419350D01*
X262470Y250780D02*
X265000Y248250D01*
X280340Y252750D02*
X481510D01*
X262470Y270620D02*
X280340Y252750D01*
X282500Y257250D02*
X483410D01*
X267750Y272000D02*
X282500Y257250D01*
X138628Y372500D02*
X144320D01*
X519770Y150550D02*
Y169120D01*
X667564Y148169D02*
Y159436D01*
X632986Y137514D02*
X656909D01*
X667564Y148169D01*
X650750Y176250D02*
X667564Y159436D01*
X597035Y173465D02*
X632986Y137514D01*
X593500Y173465D02*
X597035D01*
X584000Y182964D02*
X593500Y173465D01*
X584000Y182964D02*
Y186500D01*
X389969Y437781D02*
X400500Y427250D01*
X354364Y437781D02*
X389969D01*
X386000Y419750D02*
X413554D01*
X377250Y411000D02*
X386000Y419750D01*
X377250Y395600D02*
Y411000D01*
X413554Y419750D02*
X475604Y357700D01*
X-22000Y519750D02*
X-750D01*
X11000Y508000D01*
X13850Y510850D01*
X-52000Y489750D02*
X-37250Y504500D01*
X4650D01*
X11000Y498150D01*
X57500D01*
X11000Y489500D02*
Y498150D01*
X13850Y510850D02*
X57500D01*
X155550Y459500D02*
X178750D01*
X155000Y460050D02*
X155550Y459500D01*
X473768Y337750D02*
X476018Y335500D01*
X478340D01*
X475604Y357700D02*
X499250D01*
X389600Y453859D02*
X448803Y394657D01*
X473060Y370400D01*
X349750Y393500D02*
X353250D01*
X392852Y315000D02*
X410250D01*
X473060Y370400D02*
X499250D01*
X389600Y453859D02*
Y489250D01*
X402300Y450064D02*
X441848Y410516D01*
X402300Y450064D02*
Y489250D01*
X469264Y383100D02*
X499250D01*
X202472Y462135D02*
X215569Y475232D01*
X223775Y415982D02*
X245574Y437781D01*
X354364D01*
X217018Y415982D02*
X223775D01*
X217000Y416000D02*
X217018Y415982D01*
X215569Y509472D02*
X233833Y527737D01*
X215569Y475232D02*
Y509472D01*
X200385Y462135D02*
X202472D01*
X233833Y527737D02*
Y530093D01*
Y510593D02*
Y527737D01*
X197750Y459500D02*
X200385Y462135D01*
X206954Y448704D02*
X354364D01*
X198000Y439750D02*
X206954Y448704D01*
X198000Y437750D02*
Y439750D01*
X323250Y518250D02*
X324857D01*
X331348Y524740D01*
X185720Y346250D02*
Y353500D01*
X165020Y346250D02*
Y353500D01*
X144320Y346250D02*
Y353500D01*
X217087Y355754D02*
X248150Y386817D01*
X211576Y355754D02*
X217087D01*
X209322Y353500D02*
X211576Y355754D01*
X206420Y353500D02*
X209322D01*
X248150Y386817D02*
Y393500D01*
X249900Y395250D01*
X445101Y306086D02*
X463895Y287291D01*
X445101Y306086D02*
Y326150D01*
X463895Y287291D02*
X481238D01*
X436636Y334614D02*
X445101Y326150D01*
X397763Y334614D02*
X436636D01*
X389612Y342765D02*
Y353862D01*
X389750Y354000D01*
X389612Y342765D02*
X397763Y334614D01*
X613590Y256590D02*
X634750Y277750D01*
X613590Y243804D02*
Y256590D01*
X634750Y277750D02*
X639000D01*
X126203Y309547D02*
X126250Y309500D01*
X126203Y309547D02*
Y330126D01*
X458754Y403268D02*
Y410504D01*
X459250Y411000D01*
X458750Y316500D02*
X458754Y316497D01*
Y305930D02*
Y316497D01*
X579067Y230270D02*
X582317Y233520D01*
X185720Y372500D02*
X206420D01*
X165020D02*
X185720D01*
X144320D02*
X165020D01*
X178750Y459500D02*
X197750D01*
X233833Y508593D02*
X235689Y506738D01*
Y490761D02*
Y506738D01*
Y490761D02*
X237200Y489250D01*
X233833Y508593D02*
Y510593D01*
X281000Y518000D02*
X282219D01*
X288524Y524305D01*
X302250Y518250D02*
X303250D01*
X309750Y524750D01*
X182470Y332970D02*
X200750Y351250D01*
X204170D01*
X206420Y353500D01*
X182470Y324880D02*
Y332970D01*
X177470Y348152D02*
X182818Y353500D01*
X177470Y324880D02*
Y348152D01*
X182818Y353500D02*
X185720D01*
X167470Y324880D02*
Y333780D01*
X150000Y351250D02*
X167470Y333780D01*
X146570Y351250D02*
X150000D01*
X144320Y353500D02*
X146570Y351250D01*
X172470Y324880D02*
Y348952D01*
X167922Y353500D02*
X172470Y348952D01*
X165020Y353500D02*
X167922D01*
X237200Y395250D02*
X237200Y395250D01*
X217000Y395250D02*
X237200D01*
X198000D02*
Y416000D01*
X198000Y416000D01*
Y437750D01*
X561000Y255500D02*
X593750Y288250D01*
X561000Y103750D02*
Y255500D01*
X526750Y69500D02*
X561000Y103750D01*
X565500Y251750D02*
X594000Y280250D01*
X565500Y101750D02*
Y251750D01*
X528500Y64750D02*
X565500Y101750D01*
X603000Y314500D02*
Y319600D01*
X340250Y506500D02*
X342250Y508500D01*
X340250Y490700D02*
Y506500D01*
X338800Y489250D02*
X340250Y490700D01*
X342250Y508500D02*
Y510500D01*
X376900Y395250D02*
X377250Y395600D01*
X459250Y411000D02*
X478720D01*
X494170Y397550D02*
X497500D01*
X499250Y395800D01*
X480720Y411000D02*
X494170Y397550D01*
X478720Y411000D02*
X480720D01*
X389600Y395250D02*
X389750Y395100D01*
X349750Y393500D02*
X351500Y395250D01*
X338800Y320050D02*
Y395250D01*
X333750Y315000D02*
X338800Y320050D01*
X458750Y316500D02*
X478340D01*
X497650Y318000D02*
X499250Y319600D01*
X479840Y318000D02*
X497650D01*
X478340Y316500D02*
X479840Y318000D01*
X492550Y333750D02*
X494000Y332300D01*
X480090Y333750D02*
X492550D01*
X478340Y335500D02*
X480090Y333750D01*
X494000Y332300D02*
X499250D01*
X315250Y315000D02*
X333750D01*
X315250Y274340D02*
X315340Y274250D01*
X315250Y274340D02*
Y315000D01*
X410250Y274535D02*
X410535Y274250D01*
X410250Y274535D02*
Y315000D01*
X483410Y257250D02*
X539393Y201267D01*
X481510Y252750D02*
X529680Y204580D01*
X432656Y243710D02*
X481076Y195290D01*
X262490Y243710D02*
X432656D01*
X257470Y248730D02*
X262490Y243710D01*
X252470Y245680D02*
X258990Y239160D01*
X267750Y272000D02*
Y333250D01*
X262470Y270620D02*
Y324880D01*
Y250780D02*
Y256380D01*
X366576Y229560D02*
X403500Y192635D01*
X254910Y229560D02*
X366576D01*
X354821Y224795D02*
X384640Y194976D01*
X252345Y224795D02*
X354821D01*
X247470Y244210D02*
X257540Y234140D01*
X242470Y242000D02*
X254910Y229560D01*
X237470Y239670D02*
X252345Y224795D01*
X265500Y335500D02*
X267750Y333250D01*
X259790Y335500D02*
X265500D01*
X257470Y333180D02*
X259790Y335500D01*
X257470Y324880D02*
Y333180D01*
X212470Y312834D02*
Y324880D01*
X190386Y290750D02*
X212470Y312834D01*
X126250Y290750D02*
X190386D01*
X217470Y311470D02*
Y324880D01*
X178000Y272000D02*
X217470Y311470D01*
X126250Y272000D02*
X178000D01*
X611750Y418250D02*
Y426630D01*
X603152Y409652D02*
X611750Y418250D01*
X597902Y409652D02*
X603152D01*
X611750Y426630D02*
X619370Y434250D01*
X596750Y408500D02*
X597902Y409652D01*
X619370Y434250D02*
Y436250D01*
X619500Y412750D02*
Y416143D01*
X603802Y397052D02*
X619500Y412750D01*
X598002Y397052D02*
X603802D01*
X596750Y395800D02*
X598002Y397052D01*
X609286Y383726D02*
X619560Y394000D01*
X597375Y383726D02*
X609286D01*
X619560Y394000D02*
Y396000D01*
X596750Y383100D02*
X597375Y383726D01*
X597350Y371000D02*
X619250D01*
X596750Y370400D02*
X597350Y371000D01*
X596750Y357700D02*
X617800D01*
X619500Y356000D01*
X614214Y343250D02*
X619500Y337964D01*
X598500Y343250D02*
X614214D01*
X596750Y345000D02*
X598500Y343250D01*
X619500Y335964D02*
Y337964D01*
X598500Y330550D02*
X606807D01*
X596750Y332300D02*
X598500Y330550D01*
X606807D02*
X619500Y317857D01*
Y315857D02*
Y317857D01*
X596750Y319600D02*
X603000D01*
X619500Y296000D02*
Y298000D01*
X619500Y354000D02*
Y356000D01*
X619500Y294000D02*
Y296000D01*
X594000Y280250D02*
X604000D01*
X604013Y234227D02*
X613590Y243804D01*
X620358Y245068D02*
X626810Y251520D01*
X620358Y244018D02*
Y245068D01*
X602720Y233520D02*
X604720D01*
X619500Y371250D02*
Y376000D01*
X619250Y371000D02*
X619500Y371250D01*
X372750Y45500D02*
X392000Y64750D01*
X528500D01*
X194000Y45500D02*
X218000Y69500D01*
X526750D01*
X631750Y190000D02*
X638500D01*
X642000Y186500D01*
X638714Y164536D02*
X640965D01*
X642000Y163500D01*
Y186500D02*
X650750D01*
X658522Y148978D02*
X659000Y148500D01*
X656522Y148978D02*
X658522D01*
X642000Y163500D02*
X645536D01*
X658410Y148500D02*
X659000D01*
X631370Y234160D02*
X631560Y234350D01*
X631370Y221040D02*
Y234160D01*
X619880Y243540D02*
X620358Y244018D01*
X626810Y251520D02*
X627310D01*
X631560Y255770D01*
Y256270D01*
X518920Y17090D02*
X571770D01*
X499320D02*
X518920D01*
X479720D02*
X499320D01*
X-24760D02*
X479720D01*
X13063Y256206D02*
X147470D01*
X571770Y17090D02*
X626700Y72020D01*
X-52660Y44990D02*
X-24760Y17090D01*
X-52660Y44990D02*
Y125582D01*
X539393Y197731D02*
Y201267D01*
Y197731D02*
X542643Y194481D01*
X543205D01*
X529680Y188342D02*
Y204580D01*
X530233Y179367D02*
X531230Y178370D01*
X509017Y179367D02*
X530233D01*
X191146Y212067D02*
X197470Y218391D01*
Y256380D01*
X209840Y190180D02*
Y211090D01*
X202470Y218460D02*
X209840Y211090D01*
X202470Y218460D02*
Y256380D01*
X191146Y188399D02*
Y212067D01*
X-52463Y190680D02*
X13063Y256206D01*
X147411Y238295D02*
X152470Y243354D01*
Y256380D01*
X149796Y233795D02*
X157470Y241469D01*
Y256380D01*
X151897Y229295D02*
X162470Y239868D01*
Y256380D01*
X153761Y224795D02*
X167470Y238504D01*
Y256380D01*
X155929Y219944D02*
X172470Y236485D01*
Y256380D01*
X157793Y215444D02*
X177470Y235121D01*
Y256380D01*
X159656Y210944D02*
X182470Y233757D01*
Y256380D01*
X157392Y201975D02*
X187470Y232053D01*
Y256380D01*
X161590Y199809D02*
X192470Y230689D01*
Y256380D01*
X207470Y227146D02*
X239968Y194649D01*
X207470Y227146D02*
Y256380D01*
X212470Y229663D02*
X240771Y201362D01*
X212470Y229663D02*
Y256380D01*
X217470Y232092D02*
X243700Y205862D01*
X217470Y232092D02*
Y256380D01*
X222470Y234950D02*
X246920Y210500D01*
X222470Y234950D02*
Y256380D01*
X227470Y236540D02*
X248450Y215560D01*
X227470Y236540D02*
Y256380D01*
X232470Y237904D02*
X250264Y220110D01*
X232470Y237904D02*
Y256380D01*
X237470Y239670D02*
Y256380D01*
X242470Y242000D02*
Y256380D01*
X247470Y244210D02*
Y256380D01*
X252470Y245680D02*
Y256380D01*
X257470Y248730D02*
Y256380D01*
X324910Y220110D02*
X349840Y195180D01*
X250264Y220110D02*
X324910D01*
X317750Y215560D02*
X335992Y197318D01*
X248450Y215560D02*
X317750D01*
X239968Y188484D02*
Y194649D01*
X291600Y210500D02*
X303590Y198510D01*
X246920Y210500D02*
X291600D01*
X277499Y205862D02*
X289000Y194361D01*
X243700Y205862D02*
X277499D01*
X349840Y195180D02*
X351840D01*
X355090Y191930D01*
Y189930D02*
Y191930D01*
X249246Y201362D02*
X258340Y192268D01*
X240771Y201362D02*
X249246D01*
X335992Y188342D02*
Y197318D01*
X303590Y195180D02*
Y198510D01*
Y195180D02*
X306840Y191930D01*
Y189930D02*
Y191930D01*
X289000Y188399D02*
Y194361D01*
X384640Y188342D02*
Y194976D01*
X403500Y189930D02*
Y192635D01*
X481076Y188342D02*
Y195290D01*
X258340Y190180D02*
Y192268D01*
X239968Y188484D02*
X240053Y188399D01*
X147470Y256206D02*
Y256380D01*
X16955Y238295D02*
X147411D01*
X56205Y229295D02*
X151897D01*
X115810Y198763D02*
X127991Y210944D01*
X94141Y194460D02*
X115124Y215444D01*
X127991Y210944D02*
X159656D01*
X76607Y224795D02*
X153761D01*
X115124Y215444D02*
X157793D01*
X91859Y219944D02*
X155929D01*
X151680Y201975D02*
X157392D01*
X142778Y188399D02*
Y193073D01*
X151680Y201975D01*
X161590Y190180D02*
Y199809D01*
X34822Y233795D02*
X149796D01*
X113090Y190180D02*
X115810Y192901D01*
Y198763D01*
X94141Y188399D02*
Y194460D01*
X-31410Y189930D02*
X16955Y238295D01*
X-2609Y196365D02*
X34822Y233795D01*
X-2609Y188356D02*
Y196365D01*
X16840Y189930D02*
X56205Y229295D01*
X45894Y194081D02*
X76607Y224795D01*
X45894Y188399D02*
Y194081D01*
X64590Y192675D02*
X91859Y219944D01*
X64590Y189930D02*
Y192675D01*
X-34660Y193180D02*
X-31410Y189930D01*
X549431Y191231D02*
X554433Y186229D01*
X548455Y191231D02*
X549431D01*
X545205Y194481D02*
X548455Y191231D01*
X543205Y194481D02*
X545205D01*
X490868Y190180D02*
X500020D01*
X519966Y99246D02*
X532820D01*
X509270Y88550D02*
X519966Y99246D01*
X498770Y169120D02*
X509017Y179367D01*
X471510Y150550D02*
Y169120D01*
X451340Y189930D02*
X451590Y190180D01*
X460807Y179417D02*
X480642D01*
X482105Y177955D01*
X450510Y169120D02*
X460807Y179417D01*
X461010Y88550D02*
X471706Y99246D01*
X485212D01*
X423250Y150550D02*
Y169120D01*
X407000Y173870D02*
X412547Y179417D01*
X406500Y173870D02*
X407000D01*
X402250Y169620D02*
X406500Y173870D01*
X402250Y169120D02*
Y169620D01*
X412547Y179417D02*
X432165D01*
X433615Y177967D01*
X434292D01*
X412750Y88550D02*
X423446Y99246D01*
X436851D01*
X509270Y140050D02*
X519770Y150550D01*
X461010Y140050D02*
X471510Y150550D01*
X412750Y140050D02*
X423250Y150550D01*
X364296Y179426D02*
X384260D01*
X385714Y177971D01*
X386391D01*
X316230Y88550D02*
X326860Y99180D01*
X340340D01*
X283729D02*
X292090D01*
X279310Y94761D02*
X283729Y99180D01*
X274181Y94761D02*
X279310D01*
X267970Y88550D02*
X274181Y94761D01*
X374990Y150550D02*
Y169120D01*
X364490Y140050D02*
X374990Y150550D01*
X326390Y150210D02*
Y169120D01*
X358740Y173870D02*
X364296Y179426D01*
X358240Y173870D02*
X358740D01*
X353990Y169620D02*
X358240Y173870D01*
X353990Y169120D02*
Y169620D01*
X258090Y189930D02*
X258340Y190180D01*
X161340Y189930D02*
X161590Y190180D01*
X316230Y140050D02*
X326390Y150210D01*
X315700Y179430D02*
X335205D01*
X305390Y169120D02*
X315700Y179430D01*
X335205D02*
X336664Y177971D01*
X337340D01*
X213960Y173870D02*
X219649Y179559D01*
X213460Y173870D02*
X213960D01*
X209210Y169620D02*
X213460Y173870D01*
X209210Y169120D02*
Y169620D01*
X219649Y179559D02*
X239102D01*
X240481Y178180D01*
X241158D01*
X262220Y173870D02*
X267979Y179629D01*
X261720Y173870D02*
X262220D01*
X257470Y169620D02*
X261720Y173870D01*
X257470Y169120D02*
Y169620D01*
X267979Y179629D02*
X287132D01*
X288789Y177971D01*
X289466D01*
X278470Y150550D02*
Y169120D01*
X230210Y150550D02*
Y169120D01*
X219710Y140050D02*
X230210Y150550D01*
X267970Y140050D02*
X278470Y150550D01*
X219710Y88550D02*
X230340Y99180D01*
X243590D01*
X181950Y150550D02*
Y169120D01*
X171450Y140050D02*
X181950Y150550D01*
X171450Y88550D02*
X182080Y99180D01*
X195590D01*
X133820D02*
X147340D01*
X171010Y179680D02*
X191663D01*
X160950Y169620D02*
X171010Y179680D01*
X191663D02*
X193164Y178180D01*
X160950Y169120D02*
Y169620D01*
X193164Y178180D02*
X193840D01*
X112840Y189930D02*
X113090Y190180D01*
X123190Y88550D02*
X133820Y99180D01*
X132760Y149620D02*
Y169120D01*
X123190Y140050D02*
X132760Y149620D01*
X116510Y173870D02*
X122320Y179680D01*
X116010Y173870D02*
X116510D01*
X111760Y169620D02*
X116010Y173870D01*
X111760Y169120D02*
Y169620D01*
X122320Y179680D02*
X142414D01*
X144164Y177930D01*
X144840D01*
X-52463Y154925D02*
Y171680D01*
X-63105Y182038D02*
X-54463Y190680D01*
X-63105Y129357D02*
Y182038D01*
X-54463Y190680D02*
X-52463D01*
X85090Y150210D02*
Y169120D01*
X74930Y88550D02*
X85560Y99180D01*
X99090D01*
X73843Y179180D02*
X94164D01*
X64090Y169427D02*
X73843Y179180D01*
X64090Y169120D02*
Y169427D01*
X94164Y179180D02*
X95414Y177930D01*
X96090D01*
X74930Y140050D02*
X85090Y150210D01*
X-11090Y150550D02*
Y169120D01*
X37170Y150550D02*
Y169120D01*
X-1086Y177930D02*
X-410D01*
X-54463Y171680D02*
X-52463D01*
X26670Y88550D02*
X37300Y99180D01*
X50800D01*
X20920Y173870D02*
X26480Y179430D01*
X20420Y173870D02*
X20920D01*
X16170Y169620D02*
X20420Y173870D01*
X16170Y169120D02*
Y169620D01*
X26480Y179430D02*
X45413D01*
X46913Y177930D01*
X47590D01*
X-63105Y129357D02*
X-59330Y125582D01*
X-52660D01*
Y135728D02*
X-52463Y135925D01*
X-52660Y125582D02*
Y135728D01*
X26670Y140050D02*
X37170Y150550D01*
X-22280Y179430D02*
X-2587D01*
X-32090Y169620D02*
X-22280Y179430D01*
X-2587D02*
X-1086Y177930D01*
X-21590Y88550D02*
X-10960Y99180D01*
X2590D01*
X-21590Y140050D02*
X-11090Y150550D01*
X-32090Y169120D02*
Y169620D01*
Y168620D02*
Y169120D01*
D14*
X155000Y485450D02*
X156500Y483950D01*
X155000Y485450D02*
X170075D01*
X170896Y486270D01*
X172270D01*
X219820Y533820D01*
X200412Y334750D02*
X202470Y332692D01*
X194500Y334750D02*
X200412D01*
X192470Y332720D02*
X194500Y334750D01*
X188730Y308000D02*
X192470Y311740D01*
Y324880D01*
Y332720D01*
X202470Y324880D02*
Y332692D01*
X269000Y501316D02*
Y539000D01*
X288322Y395572D02*
Y406572D01*
X288000Y395250D02*
X288322Y395572D01*
Y406572D02*
X296500Y414750D01*
X354250D01*
X275300Y409900D02*
X291400Y426000D01*
X354364D01*
X275300Y395250D02*
Y409900D01*
X219820Y554000D02*
X254000D01*
X269000Y539000D01*
Y501316D02*
X275300Y495016D01*
Y489250D02*
Y495016D01*
X155000Y523550D02*
X191125D01*
X210575Y543000D01*
X256000D01*
X262600Y536400D01*
Y489250D02*
Y536400D01*
D15*
X237200Y395250D02*
D03*
X249900D02*
D03*
X262600D02*
D03*
X275300D02*
D03*
X288000D02*
D03*
X300700D02*
D03*
X313400D02*
D03*
X326100D02*
D03*
X338800D02*
D03*
X351500D02*
D03*
X364200D02*
D03*
X376900D02*
D03*
X389600D02*
D03*
X402300D02*
D03*
X237200Y489250D02*
D03*
X249900D02*
D03*
X262600D02*
D03*
X275300D02*
D03*
X288000D02*
D03*
X300700D02*
D03*
X313400D02*
D03*
X326100D02*
D03*
X338800D02*
D03*
X351500D02*
D03*
X364200D02*
D03*
X376900D02*
D03*
X389600D02*
D03*
X402300D02*
D03*
D16*
X543205Y194481D02*
D03*
Y175481D02*
D03*
X-52463Y171680D02*
D03*
Y190680D02*
D03*
Y154925D02*
D03*
Y135925D02*
D03*
X518920Y-1910D02*
D03*
Y17090D02*
D03*
X499320Y-1910D02*
D03*
Y17090D02*
D03*
X479720Y-1910D02*
D03*
Y17090D02*
D03*
X582700Y252520D02*
D03*
Y233520D02*
D03*
X602720Y252520D02*
D03*
Y233520D02*
D03*
X478720Y430000D02*
D03*
Y411000D02*
D03*
X459250Y430000D02*
D03*
Y411000D02*
D03*
X197750Y478500D02*
D03*
Y459500D02*
D03*
X178750Y478500D02*
D03*
Y459500D02*
D03*
D17*
X500020Y190180D02*
D03*
X519020D02*
D03*
X451590D02*
D03*
X470590D02*
D03*
X403500Y189930D02*
D03*
X422500D02*
D03*
X355090D02*
D03*
X374090D02*
D03*
X306840D02*
D03*
X325840D02*
D03*
X258340Y190180D02*
D03*
X277340D02*
D03*
X209840D02*
D03*
X228840D02*
D03*
X161590D02*
D03*
X180590D02*
D03*
X113090D02*
D03*
X132090D02*
D03*
X64590Y189930D02*
D03*
X83590D02*
D03*
X16840D02*
D03*
X35840D02*
D03*
X-31410D02*
D03*
X-12410D02*
D03*
X217000Y437750D02*
D03*
X198000D02*
D03*
X389750Y373250D02*
D03*
X408750D02*
D03*
X389750Y354000D02*
D03*
X408750D02*
D03*
X638500Y296000D02*
D03*
X619500D02*
D03*
X638500Y315857D02*
D03*
X619500D02*
D03*
X638500Y335964D02*
D03*
X619500D02*
D03*
X638500Y356000D02*
D03*
X619500D02*
D03*
X638500Y376000D02*
D03*
X619500D02*
D03*
X638560Y396000D02*
D03*
X619560D02*
D03*
X638500Y416143D02*
D03*
X619500D02*
D03*
X638370Y436250D02*
D03*
X619370D02*
D03*
X252833Y530093D02*
D03*
X233833D02*
D03*
X252833Y510593D02*
D03*
X233833D02*
D03*
X361250Y510500D02*
D03*
X342250D02*
D03*
X410535Y274250D02*
D03*
X429535D02*
D03*
X315340Y274250D02*
D03*
X296340D02*
D03*
X107250Y290750D02*
D03*
X126250D02*
D03*
X107250Y272000D02*
D03*
X126250D02*
D03*
X107250Y309500D02*
D03*
X126250D02*
D03*
D18*
X498770Y169120D02*
D03*
X519770D02*
D03*
X450510D02*
D03*
X471510D02*
D03*
X402250D02*
D03*
X423250D02*
D03*
X353990D02*
D03*
X374990D02*
D03*
X305390D02*
D03*
X326390D02*
D03*
X257470D02*
D03*
X278470D02*
D03*
X209210D02*
D03*
X230210D02*
D03*
X160950D02*
D03*
X181950D02*
D03*
X111760D02*
D03*
X132760D02*
D03*
X64090D02*
D03*
X85090D02*
D03*
X16170D02*
D03*
X37170D02*
D03*
X-32090D02*
D03*
X-11090D02*
D03*
X631560Y234350D02*
D03*
X652560D02*
D03*
X631560Y256270D02*
D03*
X652560D02*
D03*
D19*
X509270Y88550D02*
D03*
Y140050D02*
D03*
X461010Y88550D02*
D03*
Y140050D02*
D03*
X412750Y88550D02*
D03*
Y140050D02*
D03*
X364490Y88550D02*
D03*
Y140050D02*
D03*
X316230Y88550D02*
D03*
Y140050D02*
D03*
X267970Y88550D02*
D03*
Y140050D02*
D03*
X219710Y88550D02*
D03*
Y140050D02*
D03*
X171450Y88550D02*
D03*
Y140050D02*
D03*
X123190Y88550D02*
D03*
Y140050D02*
D03*
X74930Y88550D02*
D03*
Y140050D02*
D03*
X26670Y88550D02*
D03*
Y140050D02*
D03*
X-21590Y88550D02*
D03*
Y140050D02*
D03*
D20*
X642000Y163500D02*
D03*
Y186500D02*
D03*
Y209500D02*
D03*
D21*
X584000Y186500D02*
D03*
D22*
X206420Y372500D02*
D03*
Y353500D02*
D03*
X478340Y335500D02*
D03*
Y316500D02*
D03*
X458750Y335500D02*
D03*
Y316500D02*
D03*
X185720Y353500D02*
D03*
Y372500D02*
D03*
X165020Y353500D02*
D03*
Y372500D02*
D03*
X144320Y353500D02*
D03*
Y372500D02*
D03*
D23*
X198000Y416000D02*
D03*
X217000D02*
D03*
X198000Y395250D02*
D03*
X217000D02*
D03*
D24*
X499250Y433900D02*
D03*
Y421200D02*
D03*
Y408500D02*
D03*
Y395800D02*
D03*
Y383100D02*
D03*
Y370400D02*
D03*
Y357700D02*
D03*
Y345000D02*
D03*
Y332300D02*
D03*
Y319600D02*
D03*
X596750Y433900D02*
D03*
Y421200D02*
D03*
Y408500D02*
D03*
Y395800D02*
D03*
Y383100D02*
D03*
Y370400D02*
D03*
Y357700D02*
D03*
Y345000D02*
D03*
Y332300D02*
D03*
Y319600D02*
D03*
D25*
X323250Y518250D02*
D03*
Y539250D02*
D03*
X302250Y518250D02*
D03*
Y539250D02*
D03*
X281000Y518000D02*
D03*
Y539000D02*
D03*
D26*
X147470Y256380D02*
D03*
X152470D02*
D03*
X157470D02*
D03*
X162470D02*
D03*
X167470D02*
D03*
X172470D02*
D03*
X177470D02*
D03*
X182470D02*
D03*
X187470D02*
D03*
X192470D02*
D03*
X197470D02*
D03*
X202470D02*
D03*
X207470D02*
D03*
X212470D02*
D03*
X217470D02*
D03*
X222470D02*
D03*
X227470D02*
D03*
X232470D02*
D03*
X237470D02*
D03*
X242470D02*
D03*
X247470D02*
D03*
X252470D02*
D03*
X257470D02*
D03*
X262470D02*
D03*
X147470Y324880D02*
D03*
X152470D02*
D03*
X157470D02*
D03*
X162470D02*
D03*
X167470D02*
D03*
X172470D02*
D03*
X177470D02*
D03*
X182470D02*
D03*
X187470D02*
D03*
X192470D02*
D03*
X197470D02*
D03*
X202470D02*
D03*
X207470D02*
D03*
X212470D02*
D03*
X217470D02*
D03*
X222470D02*
D03*
X227470D02*
D03*
X232470D02*
D03*
X237470D02*
D03*
X242470D02*
D03*
X247470D02*
D03*
X252470D02*
D03*
X257470D02*
D03*
X262470D02*
D03*
D27*
X315250Y315000D02*
D03*
X410250D02*
D03*
D28*
X155000Y460050D02*
D03*
Y472750D02*
D03*
Y485450D02*
D03*
Y498150D02*
D03*
Y510850D02*
D03*
Y523550D02*
D03*
Y536250D02*
D03*
Y548950D02*
D03*
X57500Y460050D02*
D03*
Y472750D02*
D03*
Y485450D02*
D03*
Y498150D02*
D03*
Y510850D02*
D03*
Y523550D02*
D03*
Y536250D02*
D03*
Y548950D02*
D03*
D54*
X-35765Y280937D02*
D03*
X643860Y528340D02*
D03*
Y13226D02*
D03*
D55*
X290400Y361250D02*
D03*
X265000D02*
D03*
X239600D02*
D03*
X203200Y0D02*
D03*
X127000D02*
D03*
X76200D02*
D03*
X25400D02*
D03*
X50800D02*
D03*
X101600D02*
D03*
X152400D02*
D03*
X177800D02*
D03*
X228600D02*
D03*
X254000D02*
D03*
X279400D02*
D03*
X304800D02*
D03*
X574410Y470000D02*
D03*
X523610D02*
D03*
X472810D02*
D03*
X498210D02*
D03*
X549010D02*
D03*
X599810D02*
D03*
X625210D02*
D03*
X497450Y529500D02*
D03*
X446650D02*
D03*
X472050D02*
D03*
X522850D02*
D03*
X548250D02*
D03*
D56*
X315800Y361250D02*
D03*
X0Y0D02*
D03*
X447410Y470000D02*
D03*
X421250Y529500D02*
D03*
D57*
X25400Y54610D02*
D03*
Y29210D02*
D03*
X0Y54610D02*
D03*
X50800Y29210D02*
D03*
Y54610D02*
D03*
X76200Y29210D02*
D03*
X101600D02*
D03*
X76200Y54610D02*
D03*
X101600D02*
D03*
D58*
X0Y29210D02*
D03*
D59*
X194000Y45500D02*
D03*
X167000D02*
D03*
X372750D02*
D03*
X345750D02*
D03*
X601300Y72020D02*
D03*
X575900D02*
D03*
D60*
X626700D02*
D03*
D61*
X-22000Y489750D02*
D03*
Y519750D02*
D03*
X-52000Y489750D02*
D03*
Y519750D02*
D03*
D62*
X375777Y377332D02*
D03*
X421521Y374768D02*
D03*
X420949Y384474D02*
D03*
X435521Y345517D02*
D03*
X579067Y224463D02*
D03*
X578000Y211000D02*
D03*
X-32750Y456750D02*
D03*
X219820Y533820D02*
D03*
X388664Y99246D02*
D03*
X312250Y208510D02*
D03*
X490868Y190180D02*
D03*
X444250Y190250D02*
D03*
X395030Y191000D02*
D03*
X346780Y190180D02*
D03*
X298530Y190500D02*
D03*
X249500Y190713D02*
D03*
X201899D02*
D03*
X153500Y191037D02*
D03*
X105750Y190680D02*
D03*
X56280Y190755D02*
D03*
X8250Y190000D02*
D03*
X-39410Y193180D02*
D03*
X354250Y414750D02*
D03*
X354364Y426000D02*
D03*
X196030Y495840D02*
D03*
X219820Y554000D02*
D03*
X540590Y247726D02*
D03*
X525497D02*
D03*
X743Y554438D02*
D03*
X-61257Y534438D02*
D03*
X-11437Y470565D02*
D03*
X509000Y158000D02*
D03*
X461000D02*
D03*
X412000D02*
D03*
X364000Y157800D02*
D03*
X315150Y158000D02*
D03*
X218566Y157750D02*
D03*
X170283Y157800D02*
D03*
X122000Y157675D02*
D03*
X73750Y157800D02*
D03*
X26000D02*
D03*
X-22500D02*
D03*
X604268Y224000D02*
D03*
X477408Y395966D02*
D03*
X300688Y382535D02*
D03*
X389786Y407707D02*
D03*
X288000Y502750D02*
D03*
X313400Y473000D02*
D03*
X326000D02*
D03*
X364257Y384474D02*
D03*
X433500Y390750D02*
D03*
X300700Y502750D02*
D03*
X166953Y415228D02*
D03*
X155406D02*
D03*
X166953Y427237D02*
D03*
X155406D02*
D03*
X23743Y271438D02*
D03*
X35710D02*
D03*
X47678D02*
D03*
X59645D02*
D03*
X71613D02*
D03*
X192362Y549856D02*
D03*
X180841D02*
D03*
X352737Y542677D02*
D03*
X364257D02*
D03*
X375777D02*
D03*
X387297D02*
D03*
X596915Y496045D02*
D03*
Y507080D02*
D03*
X585942D02*
D03*
Y496045D02*
D03*
X574968D02*
D03*
Y507080D02*
D03*
X563994Y496045D02*
D03*
Y507080D02*
D03*
X553021Y496045D02*
D03*
Y507080D02*
D03*
X669408Y295308D02*
D03*
Y315504D02*
D03*
Y335700D02*
D03*
Y355895D02*
D03*
Y376091D02*
D03*
Y396287D02*
D03*
Y416483D02*
D03*
Y436679D02*
D03*
X581274Y290728D02*
D03*
X568969D02*
D03*
X556663D02*
D03*
X544357D02*
D03*
X532051D02*
D03*
X519746D02*
D03*
X507440D02*
D03*
X141391Y334564D02*
D03*
X136061Y339406D02*
D03*
X522584Y156908D02*
D03*
X505677Y214946D02*
D03*
X496449D02*
D03*
X266903Y157800D02*
D03*
X268965Y197686D02*
D03*
X452250Y215250D02*
D03*
X425658Y214946D02*
D03*
X432508D02*
D03*
X401560D02*
D03*
X394711D02*
D03*
X350887D02*
D03*
X183785Y212963D02*
D03*
X97814D02*
D03*
X53791Y214753D02*
D03*
X-52315Y181139D02*
D03*
X4811Y214638D02*
D03*
X202961Y495840D02*
D03*
X209730Y437802D02*
D03*
X579838Y40703D02*
D03*
X567871D02*
D03*
X555903D02*
D03*
X543936D02*
D03*
X531968D02*
D03*
X400500Y427250D02*
D03*
X-61400Y459750D02*
D03*
Y549750D02*
D03*
X11000Y489500D02*
D03*
Y508000D02*
D03*
X448383Y394237D02*
D03*
X215569Y475232D02*
D03*
X354364Y437781D02*
D03*
X223775Y415982D02*
D03*
X354364Y448704D02*
D03*
X331348Y524740D02*
D03*
X441844Y410511D02*
D03*
X185720Y346250D02*
D03*
X165020D02*
D03*
X144320D02*
D03*
X481238Y287291D02*
D03*
X126203Y330126D02*
D03*
X458754Y403268D02*
D03*
Y305930D02*
D03*
X288524Y524305D02*
D03*
X309750Y524740D02*
D03*
X625250Y296000D02*
D03*
Y315857D02*
D03*
Y335964D02*
D03*
Y356000D02*
D03*
Y376000D02*
D03*
Y396000D02*
D03*
Y416000D02*
D03*
Y436250D02*
D03*
X604000Y280250D02*
D03*
X639000Y277750D02*
D03*
X650750Y176250D02*
D03*
X659000Y148500D02*
D03*
X619880Y243540D02*
D03*
X631370Y221040D02*
D03*
X529680Y188342D02*
D03*
X481076D02*
D03*
X433265D02*
D03*
X384640D02*
D03*
X335992D02*
D03*
X240053Y188399D02*
D03*
X289000D02*
D03*
X191146D02*
D03*
X142778D02*
D03*
X94141D02*
D03*
X45894D02*
D03*
X-2609Y188356D02*
D03*
X554433Y186229D02*
D03*
X474480Y156908D02*
D03*
X425809D02*
D03*
X377634D02*
D03*
X329044D02*
D03*
X241158Y178180D02*
D03*
X289466Y177971D02*
D03*
X281340Y156908D02*
D03*
X233090D02*
D03*
X243590Y99180D02*
D03*
X184590Y156908D02*
D03*
X135340D02*
D03*
X86742Y156930D02*
D03*
X39590Y156908D02*
D03*
X-410Y177930D02*
D03*
X47590D02*
D03*
X-52660Y125582D02*
D03*
X-8948Y156908D02*
D03*
X96090Y177930D02*
D03*
X144840D02*
D03*
X193840Y178180D02*
D03*
X337340Y177971D02*
D03*
X386391Y177967D02*
D03*
X434292Y177955D02*
D03*
X531230Y178370D02*
D03*
X482781Y177955D02*
D03*
X532820Y99246D02*
D03*
X485212D02*
D03*
X436851D02*
D03*
X292090Y99180D02*
D03*
X340340D02*
D03*
X195590D02*
D03*
X147340D02*
D03*
X99090D02*
D03*
X50800D02*
D03*
X2590D02*
D03*
D63*
X322340Y680D02*
D03*
X659840Y475680D02*
D03*
X647340Y450680D02*
D03*
X659840Y425680D02*
D03*
Y375680D02*
D03*
Y325680D02*
D03*
Y275680D02*
D03*
Y125680D02*
D03*
X647340Y100680D02*
D03*
X659840Y75680D02*
D03*
X647340Y50680D02*
D03*
X622340D02*
D03*
X609840Y125680D02*
D03*
X597340Y680D02*
D03*
X584840Y525680D02*
D03*
X572340Y350680D02*
D03*
Y300680D02*
D03*
X584840Y125680D02*
D03*
X572340Y50680D02*
D03*
Y680D02*
D03*
X559840Y425680D02*
D03*
X547340Y350680D02*
D03*
X559840Y325680D02*
D03*
X547340Y300680D02*
D03*
Y50680D02*
D03*
X559840Y25680D02*
D03*
X547340Y680D02*
D03*
X522340Y500680D02*
D03*
X534840Y425680D02*
D03*
X522340Y400680D02*
D03*
X534840Y375680D02*
D03*
X522340Y350680D02*
D03*
X534840Y325680D02*
D03*
X522340Y300680D02*
D03*
Y50680D02*
D03*
X534840Y25680D02*
D03*
X497340Y300680D02*
D03*
X472340Y450680D02*
D03*
Y300680D02*
D03*
X484840Y225680D02*
D03*
X447340Y450680D02*
D03*
X459840Y25680D02*
D03*
X422340Y450680D02*
D03*
Y50680D02*
D03*
X397340D02*
D03*
X384840Y525680D02*
D03*
X372340Y350680D02*
D03*
X384840Y275680D02*
D03*
Y225680D02*
D03*
X359840Y525680D02*
D03*
Y275680D02*
D03*
X334840D02*
D03*
X322340Y50680D02*
D03*
X297340D02*
D03*
X284840Y275680D02*
D03*
X272340Y50680D02*
D03*
X259840Y425680D02*
D03*
Y25680D02*
D03*
X234840Y275680D02*
D03*
X209840D02*
D03*
X172340Y500680D02*
D03*
X184840Y425680D02*
D03*
X172340Y400680D02*
D03*
X159840Y25680D02*
D03*
X109840Y325680D02*
D03*
X97340Y300680D02*
D03*
X84840Y325680D02*
D03*
X72340Y300680D02*
D03*
X84840Y275680D02*
D03*
X-2660Y300680D02*
D03*
X9840Y275680D02*
D03*
X-27660Y50680D02*
D03*
X-15160Y25680D02*
D03*
X-27660Y680D02*
D03*
X-40160Y225680D02*
D03*
X-52660Y680D02*
D03*
D64*
X145750Y204750D02*
D03*
M02*
