G04*
G04 #@! TF.GenerationSoftware,Altium Limited,Altium Designer,18.1.9 (240)*
G04*
G04 Layer_Color=8388736*
%FSLAX44Y44*%
%MOMM*%
G71*
G01*
G75*
%ADD74C,0.1000*%
D74*
X492520Y82050D02*
X526020D01*
X492520Y146550D02*
X526020D01*
X492520Y82050D02*
Y146550D01*
X526020Y82050D02*
Y146550D01*
X444260Y82050D02*
X477760D01*
X444260Y146550D02*
X477760D01*
X444260Y82050D02*
Y146550D01*
X477760Y82050D02*
Y146550D01*
X396000Y82050D02*
X429500D01*
X396000Y146550D02*
X429500D01*
X396000Y82050D02*
Y146550D01*
X429500Y82050D02*
Y146550D01*
X347740Y82050D02*
X381240D01*
X347740Y146550D02*
X381240D01*
X347740Y82050D02*
Y146550D01*
X381240Y82050D02*
Y146550D01*
X299480Y82050D02*
X332980D01*
X299480Y146550D02*
X332980D01*
X299480Y82050D02*
Y146550D01*
X332980Y82050D02*
Y146550D01*
X251220Y82050D02*
X284720D01*
X251220Y146550D02*
X284720D01*
X251220Y82050D02*
Y146550D01*
X284720Y82050D02*
Y146550D01*
X202960Y82050D02*
X236460D01*
X202960Y146550D02*
X236460D01*
X202960Y82050D02*
Y146550D01*
X236460Y82050D02*
Y146550D01*
X154700Y82050D02*
X188200D01*
X154700Y146550D02*
X188200D01*
X154700Y82050D02*
Y146550D01*
X188200Y82050D02*
Y146550D01*
X106440Y82050D02*
X139940D01*
X106440Y146550D02*
X139940D01*
X106440Y82050D02*
Y146550D01*
X139940Y82050D02*
Y146550D01*
X58180Y82050D02*
X91680D01*
X58180Y146550D02*
X91680D01*
X58180Y82050D02*
Y146550D01*
X91680Y82050D02*
Y146550D01*
X9920Y82050D02*
X43420D01*
X9920Y146550D02*
X43420D01*
X9920Y82050D02*
Y146550D01*
X43420Y82050D02*
Y146550D01*
X-38340Y82050D02*
X-4840D01*
X-38340Y146550D02*
X-4840D01*
X-38340Y82050D02*
Y146550D01*
X-4840Y82050D02*
Y146550D01*
M02*
