G04*
G04 #@! TF.GenerationSoftware,Altium Limited,Altium Designer,18.1.9 (240)*
G04*
G04 Layer_Color=16711935*
%FSLAX44Y44*%
%MOMM*%
G71*
G01*
G75*
%ADD74C,0.1000*%
G36*
X284500Y525500D02*
X277500D01*
X281000Y530830D01*
X284500Y525500D01*
D02*
G37*
G36*
X270970Y165620D02*
X265640Y169120D01*
X270970Y172620D01*
Y165620D01*
D02*
G37*
G36*
X222710D02*
X217380Y169120D01*
X222710Y172620D01*
Y165620D01*
D02*
G37*
G36*
X174450D02*
X169120Y169120D01*
X174450Y172620D01*
Y165620D01*
D02*
G37*
G36*
X125260D02*
X119930Y169120D01*
X125260Y172620D01*
Y165620D01*
D02*
G37*
G36*
X77590D02*
X72260Y169120D01*
X77590Y172620D01*
Y165620D01*
D02*
G37*
G36*
X29670D02*
X24340Y169120D01*
X29670Y172620D01*
Y165620D01*
D02*
G37*
G36*
X-18590D02*
X-23920Y169120D01*
X-18590Y172620D01*
Y165620D01*
D02*
G37*
G36*
X313560Y169120D02*
X318890Y165620D01*
Y172620D01*
X313560Y169120D01*
D02*
G37*
G36*
X362160D02*
X367490Y165620D01*
Y172620D01*
X362160Y169120D01*
D02*
G37*
G36*
X410420D02*
X415750Y165620D01*
Y172620D01*
X410420Y169120D01*
D02*
G37*
G36*
X458680D02*
X464010Y165620D01*
Y172620D01*
X458680Y169120D01*
D02*
G37*
G36*
X506940D02*
X512270Y165620D01*
Y172620D01*
X506940Y169120D01*
D02*
G37*
G36*
X302250Y531080D02*
X298750Y525750D01*
X305750D01*
X302250Y531080D01*
D02*
G37*
G36*
X323250D02*
X319750Y525750D01*
X326750D01*
X323250Y531080D01*
D02*
G37*
G36*
X644390Y234350D02*
X639060Y237850D01*
Y230850D01*
X644390Y234350D01*
D02*
G37*
G36*
Y256270D02*
X639060Y259770D01*
Y252770D01*
X644390Y256270D01*
D02*
G37*
D74*
X243750Y413250D02*
G03*
X243750Y413250I-5000J0D01*
G01*
X582000Y315750D02*
G03*
X582000Y315750I-5000J0D01*
G01*
X153470Y271630D02*
G03*
X153470Y271630I-5000J0D01*
G01*
X140250Y461000D02*
G03*
X140250Y461000I-5000J0D01*
G01*
X229750Y404250D02*
X409750D01*
X229750Y480250D02*
X409750D01*
X229750Y404250D02*
Y480250D01*
X409750Y404250D02*
Y480250D01*
X203590Y193430D02*
Y205930D01*
X183590Y193430D02*
Y205930D01*
X203590D01*
X183590Y193430D02*
X203590D01*
X445340D02*
Y205930D01*
X425340Y193430D02*
Y205930D01*
X445340D01*
X425340Y193430D02*
X445340D01*
X554570Y88030D02*
X568570D01*
X554570Y110030D02*
X568570D01*
Y88030D02*
Y110030D01*
X554570Y88030D02*
Y110030D01*
X534250Y88030D02*
X548250D01*
X534250Y110030D02*
X548250D01*
Y88030D02*
Y110030D01*
X534250Y88030D02*
Y110030D01*
X501840Y125180D02*
Y155180D01*
X515840Y125180D02*
Y155180D01*
X501840Y125180D02*
X515840D01*
X501840Y155180D02*
X515840D01*
X453840Y125180D02*
Y155180D01*
X467840Y125180D02*
Y155180D01*
X453840Y125180D02*
X467840D01*
X453840Y155180D02*
X467840D01*
X405340Y125180D02*
Y155180D01*
X419340Y125180D02*
Y155180D01*
X405340Y125180D02*
X419340D01*
X405340Y155180D02*
X419340D01*
X356590Y125180D02*
Y155180D01*
X370590Y125180D02*
Y155180D01*
X356590Y125180D02*
X370590D01*
X356590Y155180D02*
X370590D01*
X308340Y125180D02*
Y155180D01*
X322340Y125180D02*
Y155180D01*
X308340Y125180D02*
X322340D01*
X308340Y155180D02*
X322340D01*
X260090Y125180D02*
Y155180D01*
X274090Y125180D02*
Y155180D01*
X260090Y125180D02*
X274090D01*
X260090Y155180D02*
X274090D01*
X212590Y125180D02*
Y155180D01*
X226590Y125180D02*
Y155180D01*
X212590Y125180D02*
X226590D01*
X212590Y155180D02*
X226590D01*
X164340Y125180D02*
Y155180D01*
X178340Y125180D02*
Y155180D01*
X164340Y125180D02*
X178340D01*
X164340Y155180D02*
X178340D01*
X116090Y125180D02*
Y155180D01*
X130090Y125180D02*
Y155180D01*
X116090Y125180D02*
X130090D01*
X116090Y155180D02*
X130090D01*
X67340Y125180D02*
Y155180D01*
X81340Y125180D02*
Y155180D01*
X67340Y125180D02*
X81340D01*
X67340Y155180D02*
X81340D01*
X511340Y88680D02*
Y110180D01*
X525340Y88680D02*
Y110180D01*
X511340D02*
X525340D01*
X511340Y88680D02*
X525340D01*
X491590Y88180D02*
X505590D01*
X491590Y110180D02*
X505590D01*
Y88180D02*
Y110180D01*
X491590Y88180D02*
Y110180D01*
X463340Y88680D02*
Y110180D01*
X477340Y88680D02*
Y110180D01*
X463340D02*
X477340D01*
X463340Y88680D02*
X477340D01*
X443340Y88180D02*
X457340D01*
X443340Y110180D02*
X457340D01*
Y88180D02*
Y110180D01*
X443340Y88180D02*
Y110180D01*
X414840Y88430D02*
Y109930D01*
X428840Y88430D02*
Y109930D01*
X414840D02*
X428840D01*
X414840Y88430D02*
X428840D01*
X395090Y88180D02*
X409090D01*
X395090Y110180D02*
X409090D01*
Y88180D02*
Y110180D01*
X395090Y88180D02*
Y110180D01*
X366590Y88680D02*
Y110180D01*
X380590Y88680D02*
Y110180D01*
X366590D02*
X380590D01*
X366590Y88680D02*
X380590D01*
X346840Y88180D02*
X360840D01*
X346840Y110180D02*
X360840D01*
Y88180D02*
Y110180D01*
X346840Y88180D02*
Y110180D01*
X318340Y88680D02*
Y110180D01*
X332340Y88680D02*
Y110180D01*
X318340D02*
X332340D01*
X318340Y88680D02*
X332340D01*
X298840Y88180D02*
X312840D01*
X298840Y110180D02*
X312840D01*
Y88180D02*
Y110180D01*
X298840Y88180D02*
Y110180D01*
X270090Y88680D02*
Y110180D01*
X284090Y88680D02*
Y110180D01*
X270090D02*
X284090D01*
X270090Y88680D02*
X284090D01*
X250340Y88180D02*
X264340D01*
X250340Y110180D02*
X264340D01*
Y88180D02*
Y110180D01*
X250340Y88180D02*
Y110180D01*
X221840Y88680D02*
Y110180D01*
X235840Y88680D02*
Y110180D01*
X221840D02*
X235840D01*
X221840Y88680D02*
X235840D01*
X202090Y88180D02*
X216090D01*
X202090Y110180D02*
X216090D01*
Y88180D02*
Y110180D01*
X202090Y88180D02*
Y110180D01*
X173340Y88680D02*
Y110180D01*
X187340Y88680D02*
Y110180D01*
X173340D02*
X187340D01*
X173340Y88680D02*
X187340D01*
X153840Y88180D02*
X167840D01*
X153840Y110180D02*
X167840D01*
Y88180D02*
Y110180D01*
X153840Y88180D02*
Y110180D01*
X125090Y88430D02*
Y109930D01*
X139090Y88430D02*
Y109930D01*
X125090D02*
X139090D01*
X125090Y88430D02*
X139090D01*
X105590Y88030D02*
X119590D01*
X105590Y110030D02*
X119590D01*
Y88030D02*
Y110030D01*
X105590Y88030D02*
Y110030D01*
X76840Y88430D02*
Y109930D01*
X90840Y88430D02*
Y109930D01*
X76840D02*
X90840D01*
X76840Y88430D02*
X90840D01*
X57340Y88180D02*
X71340D01*
X57340Y110180D02*
X71340D01*
Y88180D02*
Y110180D01*
X57340Y88180D02*
Y110180D01*
X19590Y125180D02*
Y155180D01*
X33590Y125180D02*
Y155180D01*
X19590Y125180D02*
X33590D01*
X19590Y155180D02*
X33590D01*
X-28660Y125180D02*
Y155180D01*
X-14660Y125180D02*
Y155180D01*
X-28660Y125180D02*
X-14660D01*
X-28660Y155180D02*
X-14660D01*
X28590Y88680D02*
Y110180D01*
X42590Y88680D02*
Y110180D01*
X28590D02*
X42590D01*
X28590Y88680D02*
X42590D01*
X9090Y87930D02*
X23090D01*
X9090Y109930D02*
X23090D01*
Y87930D02*
Y109930D01*
X9090Y87930D02*
Y109930D01*
X-19660Y88680D02*
Y110180D01*
X-5660Y88680D02*
Y110180D01*
X-19660D02*
X-5660D01*
X-19660Y88680D02*
X-5660D01*
X-39410Y87930D02*
X-25410D01*
X-39410Y109930D02*
X-25410D01*
Y87930D02*
Y109930D01*
X-39410Y87930D02*
Y109930D01*
X-59660Y88180D02*
X-45660D01*
X-59660Y110180D02*
X-45660D01*
Y88180D02*
Y110180D01*
X-59660Y88180D02*
Y110180D01*
X534516Y138756D02*
X548516D01*
X534516Y160256D02*
X548516D01*
Y138756D02*
Y160256D01*
X534516Y138756D02*
Y160256D01*
X513340Y164430D02*
X527340D01*
X513340Y185930D02*
X527340D01*
Y164430D02*
Y185930D01*
X513340Y164430D02*
Y185930D01*
X490340Y164430D02*
X504340D01*
X490340Y185930D02*
X504340D01*
Y164430D02*
Y185930D01*
X490340Y164430D02*
Y185930D01*
X465340Y164430D02*
X479340D01*
X465340Y185930D02*
X479340D01*
Y164430D02*
Y185930D01*
X465340Y164430D02*
Y185930D01*
X442590Y164430D02*
X456590D01*
X442590Y185930D02*
X456590D01*
Y164430D02*
Y185930D01*
X442590Y164430D02*
Y185930D01*
X416840Y164430D02*
X430840D01*
X416840Y185930D02*
X430840D01*
Y164430D02*
Y185930D01*
X416840Y164430D02*
Y185930D01*
X393840Y164430D02*
X407840D01*
X393840Y185930D02*
X407840D01*
Y164430D02*
Y185930D01*
X393840Y164430D02*
Y185930D01*
X368090Y164430D02*
X382090D01*
X368090Y185930D02*
X382090D01*
Y164430D02*
Y185930D01*
X368090Y164430D02*
Y185930D01*
X345090Y164430D02*
X359090D01*
X345090Y185930D02*
X359090D01*
Y164430D02*
Y185930D01*
X345090Y164430D02*
Y185930D01*
X319340Y164430D02*
X333340D01*
X319340Y185930D02*
X333340D01*
Y164430D02*
Y185930D01*
X319340Y164430D02*
Y185930D01*
X296840Y164430D02*
X310840D01*
X296840Y185930D02*
X310840D01*
Y164430D02*
Y185930D01*
X296840Y164430D02*
Y185930D01*
X271590Y164430D02*
Y185930D01*
X285590Y164430D02*
Y185930D01*
X271590D02*
X285590D01*
X271590Y164430D02*
X285590D01*
X248590Y164430D02*
X262590D01*
X248590Y185930D02*
X262590D01*
Y164430D02*
Y185930D01*
X248590Y164430D02*
Y185930D01*
X223120Y164430D02*
X237120D01*
X223120Y185930D02*
X237120D01*
Y164430D02*
Y185930D01*
X223120Y164430D02*
Y185930D01*
X201090Y164430D02*
X215090D01*
X201090Y185930D02*
X215090D01*
Y164430D02*
Y185930D01*
X201090Y164430D02*
Y185930D01*
X174860Y164430D02*
X188860D01*
X174860Y185930D02*
X188860D01*
Y164430D02*
Y185930D01*
X174860Y164430D02*
Y185930D01*
X152840Y164430D02*
X166840D01*
X152840Y185930D02*
X166840D01*
Y164430D02*
Y185930D01*
X152840Y164430D02*
Y185930D01*
X126600Y164430D02*
X140600D01*
X126600Y185930D02*
X140600D01*
Y164430D02*
Y185930D01*
X126600Y164430D02*
Y185930D01*
X104590Y164430D02*
X118590D01*
X104590Y185930D02*
X118590D01*
Y164430D02*
Y185930D01*
X104590Y164430D02*
Y185930D01*
X78340Y164430D02*
Y185930D01*
X92340Y164430D02*
Y185930D01*
X78340D02*
X92340D01*
X78340Y164430D02*
X92340D01*
X55840D02*
Y185930D01*
X69840Y164430D02*
Y185930D01*
X55840D02*
X69840D01*
X55840Y164430D02*
X69840D01*
X30080D02*
Y185930D01*
X44080Y164430D02*
Y185930D01*
X30080D02*
X44080D01*
X30080Y164430D02*
X44080D01*
X8090D02*
Y185930D01*
X22090Y164430D02*
Y185930D01*
X8090D02*
X22090D01*
X8090Y164430D02*
X22090D01*
X-18180D02*
Y185930D01*
X-4180Y164430D02*
Y185930D01*
X-18180D02*
X-4180D01*
X-18180Y164430D02*
X-4180D01*
X-40160D02*
X-26160D01*
X-40160Y185930D02*
X-26160D01*
Y164430D02*
Y185930D01*
X-40160Y164430D02*
Y185930D01*
X603310Y96085D02*
Y110335D01*
Y96085D02*
X635310D01*
X603310Y110335D02*
X635310D01*
Y96085D02*
Y110335D01*
X597700Y127590D02*
Y154290D01*
X640100D01*
Y127590D02*
Y154290D01*
X597700Y127590D02*
X640100D01*
X613530Y175720D02*
Y197220D01*
X599530Y175720D02*
Y197220D01*
Y175720D02*
X613530D01*
X599530Y197220D02*
X613530D01*
X634740Y175560D02*
Y197060D01*
X620740Y175560D02*
Y197060D01*
Y175560D02*
X634740D01*
X620740Y197060D02*
X634740D01*
X618250Y363000D02*
X639750D01*
X618250Y349000D02*
X639750D01*
Y363000D01*
X618250Y349000D02*
Y363000D01*
X618250Y303000D02*
X639750D01*
X618250Y289000D02*
X639750D01*
Y303000D01*
X618250Y289000D02*
Y303000D01*
X618250Y322857D02*
X639750D01*
X618250Y308857D02*
X639750D01*
Y322857D01*
X618250Y308857D02*
Y322857D01*
Y342964D02*
X639750D01*
X618250Y328964D02*
X639750D01*
Y342964D01*
X618250Y328964D02*
Y342964D01*
X618250Y383000D02*
X639750D01*
X618250Y369000D02*
X639750D01*
Y383000D01*
X618250Y369000D02*
Y383000D01*
X618310Y403000D02*
X639810D01*
X618310Y389000D02*
X639810D01*
Y403000D01*
X618310Y389000D02*
Y403000D01*
X618250Y423143D02*
X639750D01*
X618250Y409143D02*
X639750D01*
Y423143D01*
X618250Y409143D02*
Y423143D01*
X618120Y443250D02*
X639620D01*
X618120Y429250D02*
X639620D01*
Y443250D01*
X618120Y429250D02*
Y443250D01*
X330500Y508500D02*
Y530000D01*
X316500Y508500D02*
Y530000D01*
Y508500D02*
X330500D01*
X316500Y530000D02*
X330500D01*
X309250Y508500D02*
Y530000D01*
X295250Y508500D02*
Y530000D01*
Y508500D02*
X309250D01*
X295250Y530000D02*
X309250D01*
X288000Y508250D02*
Y529750D01*
X274000Y508250D02*
Y529750D01*
Y508250D02*
X288000D01*
X274000Y529750D02*
X288000D01*
X8250Y477500D02*
Y499000D01*
X-5750Y477500D02*
Y499000D01*
Y477500D02*
X8250D01*
X-5750Y499000D02*
X8250D01*
X-42750Y460000D02*
X-22750D01*
X-42750Y472500D02*
X-22750D01*
X-42750Y460000D02*
Y472500D01*
X-22750Y460000D02*
Y472500D01*
X-5750Y514750D02*
X8250D01*
X-5750Y536250D02*
X8250D01*
Y514750D02*
Y536250D01*
X-5750Y514750D02*
Y536250D01*
X-42500Y550750D02*
X-22500D01*
X-42500Y538250D02*
X-22500D01*
Y550750D01*
X-42500Y538250D02*
Y550750D01*
X226900Y348550D02*
Y373950D01*
X328500Y348550D02*
Y373950D01*
X226900D02*
X328500D01*
X226900Y348550D02*
X328500D01*
X549455Y174981D02*
Y194981D01*
X536955Y174981D02*
Y194981D01*
X549455D01*
X536955Y174981D02*
X549455D01*
X499520Y196430D02*
X519520D01*
X499520Y183930D02*
X519520D01*
X499520D02*
Y196430D01*
X519520Y183930D02*
Y196430D01*
X451090D02*
X471090D01*
X451090Y183930D02*
X471090D01*
X451090D02*
Y196430D01*
X471090Y183930D02*
Y196430D01*
X403000Y196180D02*
X423000D01*
X403000Y183680D02*
X423000D01*
X403000D02*
Y196180D01*
X423000Y183680D02*
Y196180D01*
X354590D02*
X374590D01*
X354590Y183680D02*
X374590D01*
X354590D02*
Y196180D01*
X374590Y183680D02*
Y196180D01*
X306340D02*
X326340D01*
X306340Y183680D02*
X326340D01*
X306340D02*
Y196180D01*
X326340Y183680D02*
Y196180D01*
X257840Y196430D02*
X277840D01*
X257840Y183930D02*
X277840D01*
X257840D02*
Y196430D01*
X277840Y183930D02*
Y196430D01*
X209340D02*
X229340D01*
X209340Y183930D02*
X229340D01*
X209340D02*
Y196430D01*
X229340Y183930D02*
Y196430D01*
X161090D02*
X181090D01*
X161090Y183930D02*
X181090D01*
X161090D02*
Y196430D01*
X181090Y183930D02*
Y196430D01*
X112590D02*
X132590D01*
X112590Y183930D02*
X132590D01*
X112590D02*
Y196430D01*
X132590Y183930D02*
Y196430D01*
X64090Y196180D02*
X84090D01*
X64090Y183680D02*
X84090D01*
X64090D02*
Y196180D01*
X84090Y183680D02*
Y196180D01*
X16340D02*
X36340D01*
X16340Y183680D02*
X36340D01*
X16340D02*
Y196180D01*
X36340Y183680D02*
Y196180D01*
X-31910D02*
X-11910D01*
X-31910Y183680D02*
X-11910D01*
X-31910D02*
Y196180D01*
X-11910Y183680D02*
Y196180D01*
X519270Y162870D02*
Y175370D01*
X499270Y162870D02*
X519270D01*
X499270D02*
Y175370D01*
X519270D01*
X471010Y162870D02*
Y175370D01*
X451010Y162870D02*
X471010D01*
X451010D02*
Y175370D01*
X471010D01*
X422750Y162870D02*
Y175370D01*
X402750Y162870D02*
X422750D01*
X402750D02*
Y175370D01*
X422750D01*
X374490Y162870D02*
Y175370D01*
X354490Y162870D02*
X374490D01*
X354490D02*
Y175370D01*
X374490D01*
X325890Y162870D02*
Y175370D01*
X305890Y162870D02*
X325890D01*
X305890D02*
Y175370D01*
X325890D01*
X277970Y162870D02*
Y175370D01*
X257970Y162870D02*
X277970D01*
X257970D02*
Y175370D01*
X277970D01*
X229710Y162870D02*
Y175370D01*
X209710Y162870D02*
X229710D01*
X209710D02*
Y175370D01*
X229710D01*
X181450Y162870D02*
Y175370D01*
X161450Y162870D02*
X181450D01*
X161450D02*
Y175370D01*
X181450D01*
X132260Y162870D02*
Y175370D01*
X112260Y162870D02*
X132260D01*
X112260D02*
Y175370D01*
X132260D01*
X84590Y162870D02*
Y175370D01*
X64590Y162870D02*
X84590D01*
X64590D02*
Y175370D01*
X84590D01*
X36670Y162870D02*
Y175370D01*
X16670Y162870D02*
X36670D01*
X16670D02*
Y175370D01*
X36670D01*
X-11590Y162870D02*
Y175370D01*
X-31590Y162870D02*
X-11590D01*
X-31590D02*
Y175370D01*
X-11590D01*
X-58713Y171180D02*
Y191180D01*
X-46213Y171180D02*
Y191180D01*
X-58713Y171180D02*
X-46213D01*
X-58713Y191180D02*
X-46213D01*
Y135425D02*
Y155425D01*
X-58713Y135425D02*
Y155425D01*
X-46213D01*
X-58713Y135425D02*
X-46213D01*
X-12700Y16510D02*
Y67310D01*
Y16510D02*
X114300D01*
Y67310D01*
X-12700D02*
X114300D01*
X317500Y-12700D02*
Y12700D01*
X-12700Y-12700D02*
Y12700D01*
Y-12700D02*
X317500D01*
X-12700Y12700D02*
X317500D01*
X512670Y-2410D02*
X525170D01*
X512670Y17590D02*
X525170D01*
X512670Y-2410D02*
Y17590D01*
X525170Y-2410D02*
Y17590D01*
X493070Y-2410D02*
X505570D01*
X493070Y17590D02*
X505570D01*
X493070Y-2410D02*
Y17590D01*
X505570Y-2410D02*
Y17590D01*
X473470Y-2410D02*
X485970D01*
X473470Y17590D02*
X485970D01*
X473470Y-2410D02*
Y17590D01*
X485970Y-2410D02*
Y17590D01*
X631500Y153000D02*
Y220000D01*
X594500Y153000D02*
Y220000D01*
Y153000D02*
X631500D01*
X594500Y220000D02*
X631500D01*
X213420Y352250D02*
Y373750D01*
X199420Y352250D02*
Y373750D01*
X213420D01*
X199420Y352250D02*
X213420D01*
X576450Y253020D02*
X588950D01*
X576450Y233020D02*
X588950D01*
Y253020D01*
X576450Y233020D02*
Y253020D01*
X596470D02*
X608970D01*
X596470Y233020D02*
X608970D01*
Y253020D01*
X596470Y233020D02*
Y253020D01*
X632060Y228100D02*
X652060D01*
Y240600D01*
X632060D02*
X652060D01*
X632060Y228100D02*
Y240600D01*
Y250020D02*
X652060D01*
Y262520D01*
X632060D02*
X652060D01*
X632060Y250020D02*
Y262520D01*
X217500Y431500D02*
Y444000D01*
X197500Y431500D02*
Y444000D01*
Y431500D02*
X217500D01*
X197500Y444000D02*
X217500D01*
X196750Y409000D02*
Y423000D01*
X218250Y409000D02*
Y423000D01*
X196750D02*
X218250D01*
X196750Y409000D02*
X218250D01*
X196750Y388250D02*
Y402250D01*
X218250Y388250D02*
Y402250D01*
X196750D02*
X218250D01*
X196750Y388250D02*
X218250D01*
X389250Y367000D02*
Y379500D01*
X409250Y367000D02*
Y379500D01*
X389250D02*
X409250D01*
X389250Y367000D02*
X409250D01*
X389250Y347750D02*
Y360250D01*
X409250Y347750D02*
Y360250D01*
X389250D02*
X409250D01*
X389250Y347750D02*
X409250D01*
X-84500Y454000D02*
X3250D01*
X3250Y454000D02*
Y555500D01*
X-84500D02*
X3250D01*
X-84500Y454000D02*
Y555500D01*
X471340Y336750D02*
X485340D01*
X471340Y315250D02*
X485340D01*
Y336750D01*
X471340Y315250D02*
Y336750D01*
X451750D02*
X465750D01*
X451750Y315250D02*
X465750D01*
Y336750D01*
X451750Y315250D02*
Y336750D01*
X639000Y289750D02*
Y302250D01*
X619000Y289750D02*
Y302250D01*
Y289750D02*
X639000D01*
X619000Y302250D02*
X639000D01*
X639000Y309607D02*
Y322107D01*
X619000Y309607D02*
Y322107D01*
Y309607D02*
X639000D01*
X619000Y322107D02*
X639000D01*
Y329714D02*
Y342214D01*
X619000Y329714D02*
Y342214D01*
Y329714D02*
X639000D01*
X619000Y342214D02*
X639000D01*
Y349750D02*
Y362250D01*
X619000Y349750D02*
Y362250D01*
Y349750D02*
X639000D01*
X619000Y362250D02*
X639000D01*
X639000Y369750D02*
Y382250D01*
X619000Y369750D02*
Y382250D01*
Y369750D02*
X639000D01*
X619000Y382250D02*
X639000D01*
X639060Y389750D02*
Y402250D01*
X619060Y389750D02*
Y402250D01*
Y389750D02*
X639060D01*
X619060Y402250D02*
X639060D01*
X639000Y409893D02*
Y422393D01*
X619000Y409893D02*
Y422393D01*
Y409893D02*
X639000D01*
X619000Y422393D02*
X639000D01*
X638870Y430000D02*
Y442500D01*
X618870Y430000D02*
Y442500D01*
Y430000D02*
X638870D01*
X618870Y442500D02*
X638870D01*
X637910Y457300D02*
Y482700D01*
X434710Y457300D02*
Y482700D01*
Y457300D02*
X637910D01*
X434710Y482700D02*
X637910D01*
X472470Y430500D02*
X484970D01*
X472470Y410500D02*
X484970D01*
Y430500D01*
X472470Y410500D02*
Y430500D01*
X453000D02*
X465500D01*
X453000Y410500D02*
X465500D01*
Y430500D01*
X453000Y410500D02*
Y430500D01*
X510000Y446750D02*
X586000D01*
X510000Y306750D02*
X586000D01*
X510000D02*
Y446750D01*
X586000Y306750D02*
Y446750D01*
X560950Y516800D02*
Y542200D01*
X408550Y516800D02*
Y542200D01*
Y516800D02*
X560950D01*
X408550Y542200D02*
X560950D01*
X329500Y518750D02*
Y538750D01*
X317000D02*
X329500D01*
X317000Y518750D02*
Y538750D01*
Y518750D02*
X329500D01*
X308500D02*
Y538750D01*
X296000D02*
X308500D01*
X296000Y518750D02*
Y538750D01*
Y518750D02*
X308500D01*
X287250Y518500D02*
Y538500D01*
X274750D02*
X287250D01*
X274750Y518500D02*
Y538500D01*
Y518500D02*
X287250D01*
X253333Y523843D02*
Y536343D01*
X233333Y523843D02*
Y536343D01*
Y523843D02*
X253333D01*
X233333Y536343D02*
X253333D01*
Y504343D02*
Y516843D01*
X233333Y504343D02*
Y516843D01*
Y504343D02*
X253333D01*
X233333Y516843D02*
X253333D01*
X361750Y504250D02*
Y516750D01*
X341750Y504250D02*
Y516750D01*
Y504250D02*
X361750D01*
X341750Y516750D02*
X361750D01*
X410035Y268000D02*
Y280500D01*
X430035Y268000D02*
Y280500D01*
X410035D02*
X430035D01*
X410035Y268000D02*
X430035D01*
X315840Y268000D02*
Y280500D01*
X295840Y268000D02*
Y280500D01*
Y268000D02*
X315840D01*
X295840Y280500D02*
X315840D01*
X139470Y262630D02*
X270470D01*
X139470Y318630D02*
X270470D01*
X139470Y262630D02*
Y318630D01*
X270470Y262630D02*
Y318630D01*
X106750Y284500D02*
Y297000D01*
X126750Y284500D02*
Y297000D01*
X106750D02*
X126750D01*
X106750Y284500D02*
X126750D01*
X106750Y265750D02*
Y278250D01*
X126750Y265750D02*
Y278250D01*
X106750D02*
X126750D01*
X106750Y265750D02*
X126750D01*
X106750Y303250D02*
Y315750D01*
X126750Y303250D02*
Y315750D01*
X106750D02*
X126750D01*
X106750Y303250D02*
X126750D01*
X178720Y352250D02*
X192720D01*
X178720Y373750D02*
X192720D01*
X178720Y352250D02*
Y373750D01*
X192720Y352250D02*
Y373750D01*
X158020Y352250D02*
X172020D01*
X158020Y373750D02*
X172020D01*
X158020Y352250D02*
Y373750D01*
X172020Y352250D02*
Y373750D01*
X137320Y352250D02*
X151320D01*
X137320Y373750D02*
X151320D01*
X137320Y352250D02*
Y373750D01*
X151320Y352250D02*
Y373750D01*
X191500Y479000D02*
X204000D01*
X191500Y459000D02*
X204000D01*
Y479000D01*
X191500Y459000D02*
Y479000D01*
X172500D02*
X185000D01*
X172500Y459000D02*
X185000D01*
Y479000D01*
X172500Y459000D02*
Y479000D01*
X144250Y452000D02*
Y557000D01*
X68250Y452000D02*
Y557000D01*
Y452000D02*
X144250D01*
X68250Y557000D02*
X144250D01*
X521090Y193430D02*
X541090D01*
X521090Y205930D02*
X541090D01*
X521090Y193430D02*
Y205930D01*
X541090Y193430D02*
Y205930D01*
X473590Y193430D02*
X493590D01*
X473590Y205930D02*
X493590D01*
X473590Y193430D02*
Y205930D01*
X493590Y193430D02*
Y205930D01*
X376840Y193430D02*
X396840D01*
X376840Y205930D02*
X396840D01*
X376840Y193430D02*
Y205930D01*
X396840Y193430D02*
Y205930D01*
X328340Y193430D02*
X348340D01*
X328340Y205930D02*
X348340D01*
X328340Y193430D02*
Y205930D01*
X348340Y193430D02*
Y205930D01*
X231158Y193430D02*
X251158D01*
X231158Y205930D02*
X251158D01*
X231158Y193430D02*
Y205930D01*
X251158Y193430D02*
Y205930D01*
X280090Y193430D02*
X300090D01*
X280090Y205930D02*
X300090D01*
X280090Y193430D02*
Y205930D01*
X300090Y193430D02*
Y205930D01*
X135340Y193430D02*
X155340D01*
X135340Y205930D02*
X155340D01*
X135340Y193430D02*
Y205930D01*
X155340Y193430D02*
Y205930D01*
X86090Y193430D02*
X106090D01*
X86090Y205930D02*
X106090D01*
X86090Y193430D02*
Y205930D01*
X106090Y193430D02*
Y205930D01*
X37590Y193430D02*
X57590D01*
X37590Y205930D02*
X57590D01*
X37590Y193430D02*
Y205930D01*
X57590Y193430D02*
Y205930D01*
X-10910Y193430D02*
X9090D01*
X-10910Y205930D02*
X9090D01*
X-10910Y193430D02*
Y205930D01*
X9090Y193430D02*
Y205930D01*
M02*
