G04*
G04 #@! TF.GenerationSoftware,Altium Limited,Altium Designer,19.1.9 (167)*
G04*
G04 Layer_Color=32768*
%FSLAX44Y44*%
%MOMM*%
G71*
G01*
G75*
%ADD74C,0.1000*%
D74*
X567570Y89030D02*
Y109030D01*
X555570D02*
X567570D01*
X555570Y89030D02*
Y109030D01*
Y89030D02*
X567570D01*
X547250D02*
Y109030D01*
X535250D02*
X547250D01*
X535250Y89030D02*
Y109030D01*
Y89030D02*
X547250D01*
X504590Y89180D02*
Y109180D01*
X492590D02*
X504590D01*
X492590Y89180D02*
Y109180D01*
Y89180D02*
X504590D01*
X456340D02*
Y109180D01*
X444340D02*
X456340D01*
X444340Y89180D02*
Y109180D01*
Y89180D02*
X456340D01*
X408090D02*
Y109180D01*
X396090D02*
X408090D01*
X396090Y89180D02*
Y109180D01*
Y89180D02*
X408090D01*
X359840D02*
Y109180D01*
X347840D02*
X359840D01*
X347840Y89180D02*
Y109180D01*
Y89180D02*
X359840D01*
X311840D02*
Y109180D01*
X299840D02*
X311840D01*
X299840Y89180D02*
Y109180D01*
Y89180D02*
X311840D01*
X263340D02*
Y109180D01*
X251340D02*
X263340D01*
X251340Y89180D02*
Y109180D01*
Y89180D02*
X263340D01*
X215090D02*
Y109180D01*
X203090D02*
X215090D01*
X203090Y89180D02*
Y109180D01*
Y89180D02*
X215090D01*
X166840D02*
Y109180D01*
X154840D02*
X166840D01*
X154840Y89180D02*
Y109180D01*
Y89180D02*
X166840D01*
X118590Y89030D02*
Y109030D01*
X106590D02*
X118590D01*
X106590Y89030D02*
Y109030D01*
Y89030D02*
X118590D01*
X70340Y89180D02*
Y109180D01*
X58340D02*
X70340D01*
X58340Y89180D02*
Y109180D01*
Y89180D02*
X70340D01*
X22090Y88930D02*
Y108930D01*
X10090D02*
X22090D01*
X10090Y88930D02*
Y108930D01*
Y88930D02*
X22090D01*
X-26410D02*
Y108930D01*
X-38410D02*
X-26410D01*
X-38410Y88930D02*
Y108930D01*
Y88930D02*
X-26410D01*
X-46660Y89180D02*
Y109180D01*
X-58660D02*
X-46660D01*
X-58660Y89180D02*
Y109180D01*
Y89180D02*
X-46660D01*
M02*
