G04*
G04 #@! TF.GenerationSoftware,Altium Limited,Altium Designer,18.1.9 (240)*
G04*
G04 Layer_Color=16711935*
%FSLAX44Y44*%
%MOMM*%
G71*
G01*
G75*
%ADD74C,0.1000*%
%ADD75C,0.0500*%
D74*
X509270Y109300D02*
Y119300D01*
X504270Y114300D02*
X514270D01*
X461010Y109300D02*
Y119300D01*
X456010Y114300D02*
X466010D01*
X412750Y109300D02*
Y119300D01*
X407750Y114300D02*
X417750D01*
X364490Y109300D02*
Y119300D01*
X359490Y114300D02*
X369490D01*
X316230Y109300D02*
Y119300D01*
X311230Y114300D02*
X321230D01*
X267970Y109300D02*
Y119300D01*
X262970Y114300D02*
X272970D01*
X219710Y109300D02*
Y119300D01*
X214710Y114300D02*
X224710D01*
X171450Y109300D02*
Y119300D01*
X166450Y114300D02*
X176450D01*
X123190Y109300D02*
Y119300D01*
X118190Y114300D02*
X128190D01*
X74930Y109300D02*
Y119300D01*
X69930Y114300D02*
X79930D01*
X26670Y109300D02*
Y119300D01*
X21670Y114300D02*
X31670D01*
X-21590Y109300D02*
Y119300D01*
X-26590Y114300D02*
X-16590D01*
D75*
X488270Y75800D02*
X530270D01*
X488270Y152800D02*
X530270D01*
X488270Y75800D02*
Y152800D01*
X530270Y75800D02*
Y152800D01*
X440010Y75800D02*
X482010D01*
X440010Y152800D02*
X482010D01*
X440010Y75800D02*
Y152800D01*
X482010Y75800D02*
Y152800D01*
X391750Y75800D02*
X433750D01*
X391750Y152800D02*
X433750D01*
X391750Y75800D02*
Y152800D01*
X433750Y75800D02*
Y152800D01*
X343490Y75800D02*
X385490D01*
X343490Y152800D02*
X385490D01*
X343490Y75800D02*
Y152800D01*
X385490Y75800D02*
Y152800D01*
X295230Y75800D02*
X337230D01*
X295230Y152800D02*
X337230D01*
X295230Y75800D02*
Y152800D01*
X337230Y75800D02*
Y152800D01*
X246970Y75800D02*
X288970D01*
X246970Y152800D02*
X288970D01*
X246970Y75800D02*
Y152800D01*
X288970Y75800D02*
Y152800D01*
X198710Y75800D02*
X240710D01*
X198710Y152800D02*
X240710D01*
X198710Y75800D02*
Y152800D01*
X240710Y75800D02*
Y152800D01*
X150450Y75800D02*
X192450D01*
X150450Y152800D02*
X192450D01*
X150450Y75800D02*
Y152800D01*
X192450Y75800D02*
Y152800D01*
X102190Y75800D02*
X144190D01*
X102190Y152800D02*
X144190D01*
X102190Y75800D02*
Y152800D01*
X144190Y75800D02*
Y152800D01*
X53930Y75800D02*
X95930D01*
X53930Y152800D02*
X95930D01*
X53930Y75800D02*
Y152800D01*
X95930Y75800D02*
Y152800D01*
X5670Y75800D02*
X47670D01*
X5670Y152800D02*
X47670D01*
X5670Y75800D02*
Y152800D01*
X47670Y75800D02*
Y152800D01*
X-42590Y75800D02*
X-590D01*
X-42590Y152800D02*
X-590D01*
X-42590Y75800D02*
Y152800D01*
X-590Y75800D02*
Y152800D01*
M02*
