G04*
G04 #@! TF.GenerationSoftware,Altium Limited,Altium Designer,23.11.1 (41)*
G04*
G04 Layer_Color=8421504*
%FSLAX44Y44*%
%MOMM*%
G71*
G04*
G04 #@! TF.SameCoordinates,11E07B4A-1F4E-4BC8-8AC4-A4D7A99C9414*
G04*
G04*
G04 #@! TF.FilePolarity,Positive*
G04*
G01*
G75*
%ADD13R,1.5500X0.3500*%
G04:AMPARAMS|DCode=14|XSize=0.3mm|YSize=1.37mm|CornerRadius=0.075mm|HoleSize=0mm|Usage=FLASHONLY|Rotation=90.000|XOffset=0mm|YOffset=0mm|HoleType=Round|Shape=RoundedRectangle|*
%AMROUNDEDRECTD14*
21,1,0.3000,1.2200,0,0,90.0*
21,1,0.1500,1.3700,0,0,90.0*
1,1,0.1500,0.6100,0.0750*
1,1,0.1500,0.6100,-0.0750*
1,1,0.1500,-0.6100,-0.0750*
1,1,0.1500,-0.6100,0.0750*
%
%ADD14ROUNDEDRECTD14*%
D13*
X126750Y740130D02*
D03*
Y735130D02*
D03*
Y730130D02*
D03*
Y725130D02*
D03*
Y720130D02*
D03*
Y715130D02*
D03*
Y710130D02*
D03*
Y705130D02*
D03*
X173250Y740130D02*
D03*
Y735130D02*
D03*
Y730130D02*
D03*
Y725130D02*
D03*
Y720130D02*
D03*
Y715130D02*
D03*
Y710130D02*
D03*
Y705130D02*
D03*
D14*
X115000Y377500D02*
D03*
Y372500D02*
D03*
Y367500D02*
D03*
Y362500D02*
D03*
Y357500D02*
D03*
Y352500D02*
D03*
Y347500D02*
D03*
Y342500D02*
D03*
Y337500D02*
D03*
Y332500D02*
D03*
Y327500D02*
D03*
Y322500D02*
D03*
Y317500D02*
D03*
Y312500D02*
D03*
Y307500D02*
D03*
Y302500D02*
D03*
Y297500D02*
D03*
Y292500D02*
D03*
Y287500D02*
D03*
Y282500D02*
D03*
Y277500D02*
D03*
Y272500D02*
D03*
Y267500D02*
D03*
Y262500D02*
D03*
X185000Y377500D02*
D03*
Y372500D02*
D03*
Y367500D02*
D03*
Y362500D02*
D03*
Y357500D02*
D03*
Y352500D02*
D03*
Y347500D02*
D03*
Y342500D02*
D03*
Y337500D02*
D03*
Y332500D02*
D03*
Y327500D02*
D03*
Y322500D02*
D03*
Y317500D02*
D03*
Y312500D02*
D03*
Y307500D02*
D03*
Y302500D02*
D03*
Y297500D02*
D03*
Y292500D02*
D03*
Y287500D02*
D03*
Y282500D02*
D03*
Y277500D02*
D03*
Y272500D02*
D03*
Y267500D02*
D03*
Y262500D02*
D03*
M02*
