G04*
G04 #@! TF.GenerationSoftware,Altium Limited,Altium Designer,23.11.1 (41)*
G04*
G04 Layer_Physical_Order=1*
G04 Layer_Color=255*
%FSLAX44Y44*%
%MOMM*%
G71*
G04*
G04 #@! TF.SameCoordinates,11E07B4A-1F4E-4BC8-8AC4-A4D7A99C9414*
G04*
G04*
G04 #@! TF.FilePolarity,Positive*
G04*
G01*
G75*
%ADD12C,0.2000*%
%ADD13R,1.5500X0.3500*%
G04:AMPARAMS|DCode=14|XSize=0.3mm|YSize=1.37mm|CornerRadius=0.075mm|HoleSize=0mm|Usage=FLASHONLY|Rotation=90.000|XOffset=0mm|YOffset=0mm|HoleType=Round|Shape=RoundedRectangle|*
%AMROUNDEDRECTD14*
21,1,0.3000,1.2200,0,0,90.0*
21,1,0.1500,1.3700,0,0,90.0*
1,1,0.1500,0.6100,0.0750*
1,1,0.1500,0.6100,-0.0750*
1,1,0.1500,-0.6100,-0.0750*
1,1,0.1500,-0.6100,0.0750*
%
%ADD14ROUNDEDRECTD14*%
%ADD18C,1.8000*%
G36*
X161846Y226623D02*
X161857Y226612D01*
X161902Y226590D01*
X161935Y226556D01*
X161924Y226501D01*
X161769Y226523D01*
X161736Y226556D01*
X161758Y226623D01*
X161835Y226634D01*
X161846Y226623D01*
D02*
G37*
G36*
X145889Y226612D02*
X145900Y226556D01*
X145867Y226523D01*
X145823Y226501D01*
X145801D01*
X145701Y226512D01*
X145723Y226579D01*
X145757Y226612D01*
X145845Y226634D01*
X145889Y226612D01*
D02*
G37*
G36*
X163284Y121349D02*
X163262Y120951D01*
X163207Y120873D01*
X163173Y120884D01*
X163195Y121305D01*
X163240Y121371D01*
X163251Y121382D01*
X163284Y121349D01*
D02*
G37*
G36*
X164589Y106155D02*
X164567Y105712D01*
X164478Y105558D01*
X164445Y105547D01*
X164434Y105558D01*
X164423Y105569D01*
X164412Y105956D01*
X164500Y106111D01*
X164556Y106166D01*
X164589Y106155D01*
D02*
G37*
G36*
X143268Y105646D02*
X143313Y105535D01*
X143335Y105447D01*
X143313Y105160D01*
X143302Y105148D01*
X143280D01*
X143235Y105171D01*
X143180Y105314D01*
X143202Y105668D01*
X143235Y105679D01*
X143268Y105646D01*
D02*
G37*
G36*
X164345Y105226D02*
X164368Y105137D01*
X164345Y104960D01*
X164334Y104949D01*
X164323Y104938D01*
X164301Y104872D01*
X164268Y104861D01*
X164235Y104983D01*
X164257Y105226D01*
X164312Y105259D01*
X164345Y105226D01*
D02*
G37*
G36*
X143512Y104651D02*
X143534Y104562D01*
X143490Y104385D01*
X143479Y104374D01*
X143446Y104408D01*
X143423Y104496D01*
X143446Y104717D01*
Y104739D01*
X143479Y104750D01*
X143512Y104651D01*
D02*
G37*
G36*
X164102Y104319D02*
X164080Y104120D01*
X164069Y104109D01*
X164036Y104209D01*
Y104275D01*
X164047Y104286D01*
X164069Y104330D01*
X164102Y104319D01*
D02*
G37*
D12*
X254433Y675404D02*
G03*
X254514Y675126I11567J3196D01*
G01*
X264930Y633200D02*
X266000D01*
X252730Y642620D02*
X266000Y629350D01*
Y627800D02*
Y629350D01*
X252730Y642620D02*
Y652780D01*
X200380Y705130D02*
X252730Y652780D01*
X173250Y705130D02*
X200380D01*
X262938Y635191D02*
X264930Y633200D01*
X254514Y670046D02*
Y675126D01*
X219708Y710130D02*
X254433Y675404D01*
X173250Y710130D02*
X219708D01*
X262195Y661335D02*
X266000Y657530D01*
Y653200D02*
Y657530D01*
X262195Y661335D02*
Y662365D01*
X254514Y670046D02*
X262195Y662365D01*
X26000Y232200D02*
X26754D01*
X28745Y234191D01*
Y237025D01*
X94220Y302500D01*
X115000D01*
X26000Y29000D02*
Y31080D01*
X76200Y81280D01*
Y232410D02*
X106290Y262500D01*
X76200Y81280D02*
Y232410D01*
X262360Y811000D02*
X266000D01*
X173250Y740130D02*
X191490D01*
X262360Y811000D01*
Y785600D02*
X266000D01*
X173250Y735130D02*
X211890D01*
X262360Y785600D01*
X78940Y735130D02*
X126750D01*
X26000Y788070D02*
X78940Y735130D01*
X26000Y788070D02*
Y791000D01*
X99340Y740130D02*
X126750D01*
X26000Y813470D02*
X99340Y740130D01*
X26000Y813470D02*
Y816400D01*
X36291Y584739D02*
X91440Y529590D01*
Y388907D02*
X107347Y373000D01*
X91440Y388907D02*
Y529590D01*
X29062Y584739D02*
X36291D01*
X52204Y405515D02*
X105219Y352500D01*
X56204Y407172D02*
X105376Y358000D01*
X60204Y408829D02*
X106033Y363000D01*
X26000Y562400D02*
X28870Y559530D01*
X26000Y460800D02*
X48204Y438596D01*
X28870Y559530D02*
X36100D01*
X48204Y403858D02*
Y438596D01*
X52204Y405515D02*
Y459996D01*
X64204Y410486D02*
X106690Y368000D01*
X26000Y537000D02*
X60204Y502796D01*
X44204Y402202D02*
Y417196D01*
X26000Y435400D02*
X44204Y417196D01*
X56204Y407172D02*
Y481396D01*
X36100Y559530D02*
X64204Y531426D01*
X48204Y403858D02*
X104563Y347500D01*
X26000Y511600D02*
X56204Y481396D01*
X60204Y408829D02*
Y502796D01*
X64204Y410486D02*
Y531426D01*
X44204Y402202D02*
X103906Y342500D01*
X26000Y486200D02*
X52204Y459996D01*
X200660Y376841D02*
Y529558D01*
X249472Y578370D01*
X196319Y372500D02*
X200660Y376841D01*
X249472Y578370D02*
X257640D01*
X181610Y530797D02*
X255821Y605008D01*
X181672Y378000D02*
Y380828D01*
X181610Y380890D02*
X181672Y380828D01*
X181610Y380890D02*
Y530797D01*
X182172Y377500D02*
X185000D01*
X181672Y378000D02*
X182172Y377500D01*
X263208Y605008D02*
X266000Y607800D01*
X255821Y605008D02*
X263208D01*
X111760Y378000D02*
Y531323D01*
X29883Y613200D02*
X111760Y531323D01*
X26000Y613200D02*
X29883D01*
X111760Y378000D02*
X112260Y377500D01*
X115000D01*
X185000Y372500D02*
X196319D01*
X185500Y363000D02*
X198133D01*
X232980Y397847D02*
Y498580D01*
X198133Y363000D02*
X232980Y397847D01*
X198790Y358000D02*
X236980Y396190D01*
X185500Y353000D02*
X199446D01*
X185500Y368000D02*
X197476D01*
X185500Y343000D02*
X200760D01*
X240980Y394534D02*
Y447351D01*
X250000Y392240D02*
Y414000D01*
X246000Y393897D02*
Y435400D01*
X200760Y343000D02*
X250000Y392240D01*
X185500Y348000D02*
X200103D01*
X197476Y368000D02*
X228980Y399504D01*
Y519980D01*
X236980Y396190D02*
Y477180D01*
X200103Y348000D02*
X246000Y393897D01*
X199446Y353000D02*
X240980Y394534D01*
X185500Y358000D02*
X198790D01*
X257640Y578370D02*
X261670Y582400D01*
X266000D01*
X26000Y587800D02*
X29062Y584739D01*
X26000Y666080D02*
X70050Y710130D01*
X26000Y664000D02*
Y666080D01*
X70050Y710130D02*
X126750D01*
X26000Y638600D02*
X92530Y705130D01*
X126750D01*
X173250Y715130D02*
X232290D01*
X263420Y684000D02*
X266000D01*
X232290Y715130D02*
X263420Y684000D01*
X173250Y720130D02*
X240976D01*
X251706Y709400D01*
X266000D01*
X173250Y725130D02*
X245070D01*
X254740Y734800D02*
X266000D01*
X245070Y725130D02*
X254740Y734800D01*
X232290Y730130D02*
X262360Y760200D01*
X173250Y730130D02*
X232290D01*
X262360Y760200D02*
X266000D01*
X51730Y715130D02*
X126750D01*
X26000Y689400D02*
X51730Y715130D01*
X30330Y714800D02*
X35660Y720130D01*
X126750D01*
X26000Y714800D02*
X30330D01*
X26000Y740200D02*
X41070Y725130D01*
X126750D01*
X61470Y730130D02*
X126750D01*
X26000Y765600D02*
X61470Y730130D01*
X185000Y302500D02*
X204230D01*
X250190Y256540D01*
X199531Y297500D02*
X246190Y250840D01*
X185000Y297500D02*
X199531D01*
X185500Y292000D02*
X199374D01*
X242190Y249184D01*
X218190Y71410D02*
Y234660D01*
X190350Y262500D02*
X218190Y234660D01*
X246190Y221210D02*
Y250840D01*
X194090Y272000D02*
X226190Y239900D01*
X234190Y151890D02*
X256955Y129125D01*
X222190Y90230D02*
X263420Y49000D01*
X230190Y131760D02*
X262150Y99800D01*
X226190Y114210D02*
X266000Y74400D01*
X238190Y186839D02*
X262938Y162091D01*
X198217Y287500D02*
X238190Y247527D01*
X196210Y277500D02*
X230190Y243520D01*
X242190Y199810D02*
X266000Y176000D01*
X197560Y282500D02*
X234190Y245870D01*
X250190Y240030D02*
X263420Y226800D01*
X234190Y151890D02*
Y245870D01*
X246190Y221210D02*
X266000Y201400D01*
X238190Y186839D02*
Y247527D01*
X226190Y114210D02*
Y239900D01*
X250190Y240030D02*
Y256540D01*
X193433Y267000D02*
X222190Y238243D01*
X230190Y131760D02*
Y243520D01*
X242190Y199810D02*
Y249184D01*
X222190Y90230D02*
Y238243D01*
X218190Y71410D02*
X266000Y23600D01*
X262150Y99800D02*
X266000D01*
X261670Y125200D02*
X266000D01*
X256955Y129125D02*
X257745D01*
X261670Y125200D01*
X185000Y262500D02*
X190350D01*
X185000Y292500D02*
X185500Y292000D01*
X66200Y327500D02*
X115000D01*
X36735Y356965D02*
X66200Y327500D01*
X26000Y359200D02*
X28235Y356965D01*
X36735D01*
X63580Y312500D02*
X115000D01*
X26000Y283000D02*
X28445Y285445D01*
X36525D01*
X63580Y312500D01*
X45800Y322500D02*
X115000D01*
X28330Y331470D02*
X36830D01*
X26000Y333800D02*
X28330Y331470D01*
X36830D02*
X45800Y322500D01*
X114500Y317000D02*
X115000Y317500D01*
X108004Y317000D02*
X114500D01*
X108004Y317000D02*
X108004Y317000D01*
X54343Y317000D02*
X108004D01*
X40873Y303530D02*
X54343Y317000D01*
X35172Y303530D02*
X40873D01*
X30302Y308400D02*
X35172Y303530D01*
X26000Y308400D02*
X30302D01*
X28480Y399510D02*
X90490Y337500D01*
X115000D01*
X26000Y410000D02*
X28480Y407520D01*
Y399510D02*
Y407520D01*
X185000Y337500D02*
X216850D01*
X254000Y374650D02*
Y392600D01*
X216850Y337500D02*
X254000Y374650D01*
X266000Y375220D02*
Y379200D01*
X191996Y333000D02*
X223780D01*
X266000Y375220D01*
X237330Y327500D02*
X263630Y353800D01*
X185000Y327500D02*
X237330D01*
X263630Y353800D02*
X266000D01*
X264102Y304898D02*
X266000Y303000D01*
X242570Y317500D02*
X255172Y304898D01*
X185000Y317500D02*
X242570D01*
X255172Y304898D02*
X264102D01*
X234992Y312500D02*
X266000Y281492D01*
X234992Y312500D02*
Y312500D01*
Y312500D02*
X234992Y312500D01*
X266000Y277600D02*
Y281492D01*
X234992Y312500D02*
X234992D01*
X234992Y312500D02*
X234992Y312500D01*
X185000Y312500D02*
X190850D01*
X234992Y312500D01*
X263420Y226800D02*
X266000D01*
X185000Y307500D02*
X219130D01*
X262938Y263691D01*
Y255261D02*
Y263691D01*
Y255261D02*
X266000Y252200D01*
X185000Y322500D02*
X250865D01*
X264407Y326807D02*
X266000Y328400D01*
X255172Y326807D02*
X264407D01*
X250865Y322500D02*
X255172Y326807D01*
X262938Y153661D02*
X266000Y150600D01*
X185000Y287500D02*
X198217D01*
X185000Y282500D02*
X197560D01*
X185500Y272000D02*
X194090D01*
X262938Y153661D02*
Y162091D01*
X185000Y277500D02*
X196210D01*
X185500Y267000D02*
X193433D01*
X240980Y447351D02*
X262938Y469309D01*
X236980Y477180D02*
X266000Y506200D01*
X232980Y498580D02*
X266000Y531600D01*
X228980Y519980D02*
X266000Y557000D01*
X246000Y435400D02*
X266000Y455400D01*
X254000Y392600D02*
X266000Y404600D01*
X250000Y414000D02*
X266000Y430000D01*
X191996Y333000D02*
X191996Y333000D01*
X185000Y332500D02*
X185500Y333000D01*
X191996D01*
X185000Y347500D02*
X185500Y348000D01*
X185000Y342500D02*
X185500Y343000D01*
X185000Y352500D02*
X185500Y353000D01*
X262938Y469309D02*
Y477738D01*
X266000Y480800D01*
X185000Y362500D02*
X185500Y363000D01*
X185000Y367500D02*
X185500Y368000D01*
X185000Y357500D02*
X185500Y358000D01*
X185000Y267500D02*
X185500Y267000D01*
X263420Y49000D02*
X266000D01*
X185000Y272500D02*
X185500Y272000D01*
X54930Y184930D02*
Y239424D01*
X104319Y277500D02*
X115000D01*
X50930Y206330D02*
Y241081D01*
X102349Y292500D02*
X115000D01*
X62930Y236110D02*
X104319Y277500D01*
X50930Y241081D02*
X102349Y292500D01*
X102936Y287431D02*
X114931D01*
X46930Y227730D02*
Y242738D01*
X54930Y239424D02*
X102936Y287431D01*
X66930Y234454D02*
X104976Y272500D01*
X46930Y242738D02*
X101192Y297000D01*
X58930Y237767D02*
X103663Y282500D01*
X104976Y272500D02*
X115000D01*
X103663Y282500D02*
X115000D01*
X101192Y297000D02*
X108004D01*
X58930Y163530D02*
Y237767D01*
X62930Y142130D02*
Y236110D01*
X114500Y297000D02*
X115000Y297500D01*
X108004Y297000D02*
X108004Y297000D01*
X114500D01*
X105150Y267017D02*
X114517D01*
X66930Y120730D02*
Y234454D01*
X26000Y156000D02*
X54930Y184930D01*
X26000Y206800D02*
X46930Y227730D01*
X70930Y99330D02*
Y232797D01*
X26000Y181400D02*
X50930Y206330D01*
X26000Y130600D02*
X58930Y163530D01*
X70930Y232797D02*
X105150Y267017D01*
X106290Y262500D02*
X115000D01*
X26000Y54400D02*
X70930Y99330D01*
X114517Y267017D02*
X115000Y267500D01*
X26000Y79800D02*
X66930Y120730D01*
X26000Y105200D02*
X62930Y142130D01*
X75900Y307500D02*
X115000D01*
X26000Y257600D02*
X75900Y307500D01*
X114931Y287431D02*
X115000Y287500D01*
X26000Y384600D02*
X78100Y332500D01*
X115000D01*
X103906Y342500D02*
X115000D01*
X104563Y347500D02*
X115000D01*
X105219Y352500D02*
X115000D01*
X105376Y358000D02*
X114500D01*
X115000Y357500D01*
X106033Y363000D02*
X114500D01*
X115000Y362500D01*
X106690Y368000D02*
X114500D01*
X115000Y367500D01*
X107347Y373000D02*
X114500D01*
X115000Y372500D01*
D13*
X126750Y740130D02*
D03*
Y735130D02*
D03*
Y730130D02*
D03*
Y725130D02*
D03*
Y720130D02*
D03*
Y715130D02*
D03*
Y710130D02*
D03*
Y705130D02*
D03*
X173250Y740130D02*
D03*
Y735130D02*
D03*
Y730130D02*
D03*
Y725130D02*
D03*
Y720130D02*
D03*
Y715130D02*
D03*
Y710130D02*
D03*
Y705130D02*
D03*
D14*
X115000Y377500D02*
D03*
Y372500D02*
D03*
Y367500D02*
D03*
Y362500D02*
D03*
Y357500D02*
D03*
Y352500D02*
D03*
Y347500D02*
D03*
Y342500D02*
D03*
Y337500D02*
D03*
Y332500D02*
D03*
Y327500D02*
D03*
Y322500D02*
D03*
Y317500D02*
D03*
Y312500D02*
D03*
Y307500D02*
D03*
Y302500D02*
D03*
Y297500D02*
D03*
Y292500D02*
D03*
Y287500D02*
D03*
Y282500D02*
D03*
Y277500D02*
D03*
Y272500D02*
D03*
Y267500D02*
D03*
Y262500D02*
D03*
X185000Y377500D02*
D03*
Y372500D02*
D03*
Y367500D02*
D03*
Y362500D02*
D03*
Y357500D02*
D03*
Y352500D02*
D03*
Y347500D02*
D03*
Y342500D02*
D03*
Y337500D02*
D03*
Y332500D02*
D03*
Y327500D02*
D03*
Y322500D02*
D03*
Y317500D02*
D03*
Y312500D02*
D03*
Y307500D02*
D03*
Y302500D02*
D03*
Y297500D02*
D03*
Y292500D02*
D03*
Y287500D02*
D03*
Y282500D02*
D03*
Y277500D02*
D03*
Y272500D02*
D03*
Y267500D02*
D03*
Y262500D02*
D03*
D18*
X266000Y785600D02*
D03*
Y633200D02*
D03*
Y658600D02*
D03*
Y811000D02*
D03*
Y709400D02*
D03*
Y734800D02*
D03*
Y760200D02*
D03*
Y684000D02*
D03*
X26000Y455400D02*
D03*
Y379200D02*
D03*
Y404600D02*
D03*
Y430000D02*
D03*
Y328400D02*
D03*
Y480800D02*
D03*
Y506200D02*
D03*
Y531600D02*
D03*
Y557000D02*
D03*
Y582400D02*
D03*
Y607800D02*
D03*
Y353800D02*
D03*
Y150600D02*
D03*
Y74400D02*
D03*
Y99800D02*
D03*
Y125200D02*
D03*
Y23600D02*
D03*
Y176000D02*
D03*
Y201400D02*
D03*
Y226800D02*
D03*
Y252200D02*
D03*
Y277600D02*
D03*
Y303000D02*
D03*
Y49000D02*
D03*
Y760200D02*
D03*
Y684000D02*
D03*
Y709400D02*
D03*
Y734800D02*
D03*
Y633200D02*
D03*
Y785600D02*
D03*
Y811000D02*
D03*
Y658600D02*
D03*
X266000Y582400D02*
D03*
Y328400D02*
D03*
Y353800D02*
D03*
Y379200D02*
D03*
Y404600D02*
D03*
Y430000D02*
D03*
Y455400D02*
D03*
Y607800D02*
D03*
Y506200D02*
D03*
Y531600D02*
D03*
Y557000D02*
D03*
Y480800D02*
D03*
Y277600D02*
D03*
Y23600D02*
D03*
Y49000D02*
D03*
Y74400D02*
D03*
Y99800D02*
D03*
Y125200D02*
D03*
Y150600D02*
D03*
Y303000D02*
D03*
Y201400D02*
D03*
Y226800D02*
D03*
Y252200D02*
D03*
Y176000D02*
D03*
M02*
